<?xml version="1.0" encoding="UTF-8" standalone="no"?>
<!DOCTYPE svg PUBLIC "-//W3C//DTD SVG 1.1//EN"
 "http://www.w3.org/Graphics/SVG/1.1/DTD/svg11.dtd">
<!-- Generated by graphviz version 2.26.3 (20100126.1600)
 -->
<!-- Title: G Pages: 1 -->
<svg width="435pt" height="710pt"
 viewBox="0.00 0.00 435.46 710.00" xmlns="http://www.w3.org/2000/svg" xmlns:xlink="http://www.w3.org/1999/xlink">
<g id="graph1" class="graph" transform="scale(1 1) rotate(0) translate(4 706)">
<title>G</title>
<!-- Node1 -->
<g id="node1" class="node"><title>Node1</title>
<polygon fill="#bfbfbf" stroke="black" points="0,-1 0,-21 198,-21 198,-1 0,-1"/>
<text text-anchor="middle" x="99" y="-8" font-family="FreeSans" font-size="10.00">Kitware.VTK.vtkTexturedSphereSource</text>
</g>
<!-- Node2 -->
<g id="node2" class="node"><title>Node2</title>
<a xlink:href="class_kitware_1_1_v_t_k_1_1vtk_poly_data_algorithm.html" target="_top" xlink:title="vtkPolyDataAlgorithm &#45; Superclass for algorithms that produce only polydata as output">
<polygon fill="none" stroke="black" points="39,-61 39,-81 159,-81 159,-61 39,-61"/>
<text text-anchor="middle" x="99" y="-68" font-family="FreeSans" font-size="10.00">vtkPolyDataAlgorithm</text>
</a>
</g>
<!-- Node2&#45;&gt;Node1 -->
<g id="edge2" class="edge"><title>Node2&#45;&gt;Node1</title>
<path fill="none" stroke="midnightblue" d="M99,-50.5155C99,-40.562 99,-29.0495 99,-21.0279"/>
<polygon fill="midnightblue" stroke="midnightblue" points="95.5001,-50.8218 99,-60.8218 102.5,-50.8219 95.5001,-50.8218"/>
</g>
<!-- Node3 -->
<g id="node4" class="node"><title>Node3</title>
<a xlink:href="class_kitware_1_1_v_t_k_1_1vtk_algorithm.html" target="_top" xlink:title="vtkAlgorithm &#45; Superclass for all sources, filters, and sinks in VTK.">
<polygon fill="none" stroke="black" points="60.5,-121 60.5,-141 137.5,-141 137.5,-121 60.5,-121"/>
<text text-anchor="middle" x="99" y="-128" font-family="FreeSans" font-size="10.00">vtkAlgorithm</text>
</a>
</g>
<!-- Node3&#45;&gt;Node2 -->
<g id="edge4" class="edge"><title>Node3&#45;&gt;Node2</title>
<path fill="none" stroke="midnightblue" d="M99,-110.516C99,-100.562 99,-89.0495 99,-81.0279"/>
<polygon fill="midnightblue" stroke="midnightblue" points="95.5001,-110.822 99,-120.822 102.5,-110.822 95.5001,-110.822"/>
</g>
<!-- Node4 -->
<g id="node6" class="node"><title>Node4</title>
<a xlink:href="class_kitware_1_1_v_t_k_1_1vtk_object.html" target="_top" xlink:title="vtkObject &#45; abstract base class for most VTK objects">
<polygon fill="none" stroke="black" points="68,-181 68,-201 130,-201 130,-181 68,-181"/>
<text text-anchor="middle" x="99" y="-188" font-family="FreeSans" font-size="10.00">vtkObject</text>
</a>
</g>
<!-- Node4&#45;&gt;Node3 -->
<g id="edge6" class="edge"><title>Node4&#45;&gt;Node3</title>
<path fill="none" stroke="midnightblue" d="M99,-170.516C99,-160.562 99,-149.05 99,-141.028"/>
<polygon fill="midnightblue" stroke="midnightblue" points="95.5001,-170.822 99,-180.822 102.5,-170.822 95.5001,-170.822"/>
</g>
<!-- Node5 -->
<g id="node8" class="node"><title>Node5</title>
<a xlink:href="class_kitware_1_1_v_t_k_1_1vtk_object_base.html" target="_top" xlink:title="vtkObjectBase &#45; abstract base class for most VTK objects">
<polygon fill="none" stroke="black" points="119,-621 119,-641 205,-641 205,-621 119,-621"/>
<text text-anchor="middle" x="162" y="-628" font-family="FreeSans" font-size="10.00">vtkObjectBase</text>
</a>
</g>
<!-- Node5&#45;&gt;Node4 -->
<g id="edge8" class="edge"><title>Node5&#45;&gt;Node4</title>
<path fill="none" stroke="midnightblue" d="M133.423,-615.886C119.687,-607.44 103.884,-595.826 93,-582 81.1564,-566.955 80.6209,-560.802 77,-542 51.4248,-409.199 86.5766,-243.437 96.5155,-201.17"/>
<polygon fill="midnightblue" stroke="midnightblue" points="131.683,-618.923 142.079,-620.97 135.229,-612.887 131.683,-618.923"/>
</g>
<!-- Node8 -->
<g id="node15" class="node"><title>Node8</title>
<a xlink:href="class_kitware_1_1_v_t_k_1_1vtk_object.html" target="_top" xlink:title="vtkObject &#45; abstract base class for most VTK objects">
<polygon fill="none" stroke="black" points="102,-561 102,-581 222,-581 222,-561 102,-561"/>
<text text-anchor="middle" x="162" y="-568" font-family="FreeSans" font-size="10.00">Kitware.VTK.vtkObject</text>
</a>
</g>
<!-- Node5&#45;&gt;Node8 -->
<g id="edge18" class="edge"><title>Node5&#45;&gt;Node8</title>
<path fill="none" stroke="midnightblue" d="M162,-610.516C162,-600.562 162,-589.05 162,-581.028"/>
<polygon fill="midnightblue" stroke="midnightblue" points="158.5,-610.822 162,-620.822 165.5,-610.822 158.5,-610.822"/>
</g>
<!-- Node6 -->
<g id="node10" class="node"><title>Node6</title>
<a xlink:href="class_kitware_1_1_v_t_k_1_1_wrapped_object.html" target="_top" xlink:title="Base class for all the mummy wrapped classes in Kitware.VTK.">
<polygon fill="none" stroke="black" points="300.5,-681 300.5,-701 389.5,-701 389.5,-681 300.5,-681"/>
<text text-anchor="middle" x="345" y="-688" font-family="FreeSans" font-size="10.00">WrappedObject</text>
</a>
</g>
<!-- Node6&#45;&gt;Node5 -->
<g id="edge10" class="edge"><title>Node6&#45;&gt;Node5</title>
<path fill="none" stroke="midnightblue" d="M304.804,-677.821C271.042,-666.752 223.512,-651.168 192.73,-641.075"/>
<polygon fill="midnightblue" stroke="midnightblue" points="303.777,-681.168 314.37,-680.957 305.958,-674.516 303.777,-681.168"/>
</g>
<!-- Node7 -->
<g id="node12" class="node"><title>Node7</title>
<a xlink:href="class_kitware_1_1_v_t_k_1_1vtk_object_event_relay.html" target="_top" xlink:title="Implement a relay handler for VTK events. This is a class that receives events directly from the VTK ...">
<polygon fill="none" stroke="black" points="91,-371 91,-391 263,-391 263,-371 91,-371"/>
<text text-anchor="middle" x="177" y="-378" font-family="FreeSans" font-size="10.00">Kitware.VTK.vtkObjectEventRelay</text>
</a>
</g>
<!-- Node6&#45;&gt;Node7 -->
<g id="edge14" class="edge"><title>Node6&#45;&gt;Node7</title>
<path fill="none" stroke="midnightblue" d="M357.888,-672.325C390.276,-622.899 467.803,-487.191 400,-410 390.773,-399.495 322.047,-391.666 263.298,-386.808"/>
<polygon fill="midnightblue" stroke="midnightblue" points="354.891,-670.509 352.239,-680.767 360.709,-674.402 354.891,-670.509"/>
</g>
<!-- Node7&#45;&gt;Node4 -->
<g id="edge12" class="edge"><title>Node7&#45;&gt;Node4</title>
<path fill="none" stroke="#9a32cd" stroke-dasharray="5,2" d="M168.921,-361.321C152.489,-321.293 115.674,-231.616 103.214,-201.266"/>
<polygon fill="#9a32cd" stroke="#9a32cd" points="165.771,-362.863 172.806,-370.785 172.246,-360.205 165.771,-362.863"/>
<text text-anchor="middle" x="276.5" y="-343" font-family="FreeSans" font-size="10.00"> LeftButtonReleaseEvtRelay</text>
<text text-anchor="middle" x="276.5" y="-331" font-family="FreeSans" font-size="10.00">KeyPressEvtRelay</text>
<text text-anchor="middle" x="276.5" y="-319" font-family="FreeSans" font-size="10.00">DomainModifiedEvtRelay</text>
<text text-anchor="middle" x="276.5" y="-307" font-family="FreeSans" font-size="10.00">VolumeMapperComputeGradientsStartEvtRelay</text>
<text text-anchor="middle" x="276.5" y="-295" font-family="FreeSans" font-size="10.00">ErrorEvtRelay</text>
<text text-anchor="middle" x="276.5" y="-283" font-family="FreeSans" font-size="10.00">VolumeMapperRenderStartEvtRelay</text>
<text text-anchor="middle" x="276.5" y="-271" font-family="FreeSans" font-size="10.00">StartEvtRelay</text>
<text text-anchor="middle" x="276.5" y="-259" font-family="FreeSans" font-size="10.00">ResetCameraEvtRelay</text>
<text text-anchor="middle" x="276.5" y="-247" font-family="FreeSans" font-size="10.00">EnableEvtRelay</text>
<text text-anchor="middle" x="276.5" y="-235" font-family="FreeSans" font-size="10.00">DeleteEvtRelay</text>
<text text-anchor="middle" x="276.5" y="-223" font-family="FreeSans" font-size="10.00">...</text>
</g>
<!-- Node7&#45;&gt;Node8 -->
<g id="edge20" class="edge"><title>Node7&#45;&gt;Node8</title>
<path fill="none" stroke="#9a32cd" stroke-dasharray="5,2" d="M174.028,-401.231C173.649,-404.169 173.293,-407.159 173,-410 167.144,-466.853 163.636,-535.333 162.452,-560.807"/>
<polygon fill="#9a32cd" stroke="#9a32cd" points="177.515,-401.565 175.421,-391.179 170.582,-400.604 177.515,-401.565"/>
<text text-anchor="middle" x="286.5" y="-533" font-family="FreeSans" font-size="10.00"> LeftButtonReleaseEvtRelay</text>
<text text-anchor="middle" x="286.5" y="-521" font-family="FreeSans" font-size="10.00">KeyPressEvtRelay</text>
<text text-anchor="middle" x="286.5" y="-509" font-family="FreeSans" font-size="10.00">DomainModifiedEvtRelay</text>
<text text-anchor="middle" x="286.5" y="-497" font-family="FreeSans" font-size="10.00">VolumeMapperComputeGradientsStartEvtRelay</text>
<text text-anchor="middle" x="286.5" y="-485" font-family="FreeSans" font-size="10.00">ErrorEvtRelay</text>
<text text-anchor="middle" x="286.5" y="-473" font-family="FreeSans" font-size="10.00">VolumeMapperRenderStartEvtRelay</text>
<text text-anchor="middle" x="286.5" y="-461" font-family="FreeSans" font-size="10.00">StartEvtRelay</text>
<text text-anchor="middle" x="286.5" y="-449" font-family="FreeSans" font-size="10.00">ResetCameraEvtRelay</text>
<text text-anchor="middle" x="286.5" y="-437" font-family="FreeSans" font-size="10.00">EnableEvtRelay</text>
<text text-anchor="middle" x="286.5" y="-425" font-family="FreeSans" font-size="10.00">DeleteEvtRelay</text>
<text text-anchor="middle" x="286.5" y="-413" font-family="FreeSans" font-size="10.00">...</text>
</g>
<!-- Node8&#45;&gt;Node7 -->
<g id="edge16" class="edge"><title>Node8&#45;&gt;Node7</title>
<path fill="none" stroke="#9a32cd" stroke-dasharray="5,2" d="M115.979,-555.818C110.439,-552.138 105.51,-547.596 102,-542 70.8229,-492.303 68.8299,-458.389 102,-410 106.736,-403.091 123.511,-396.287 139.999,-391.008"/>
<polygon fill="#9a32cd" stroke="#9a32cd" points="114.639,-559.079 125.072,-560.919 118.064,-552.974 114.639,-559.079"/>
<text text-anchor="middle" x="126" y="-479" font-family="FreeSans" font-size="10.00"> Sender</text>
<text text-anchor="middle" x="126" y="-467" font-family="FreeSans" font-size="10.00">EventImpl</text>
</g>
</g>
</svg>
