<?xml version="1.0" encoding="UTF-8" standalone="no"?>
<!DOCTYPE svg PUBLIC "-//W3C//DTD SVG 1.1//EN"
 "http://www.w3.org/Graphics/SVG/1.1/DTD/svg11.dtd">
<!-- Generated by graphviz version 2.26.3 (20100126.1600)
 -->
<!-- Title: G Pages: 1 -->
<svg width="455pt" height="650pt"
 viewBox="0.00 0.00 455.46 650.00" xmlns="http://www.w3.org/2000/svg" xmlns:xlink="http://www.w3.org/1999/xlink">
<g id="graph1" class="graph" transform="scale(1 1) rotate(0) translate(4 646)">
<title>G</title>
<!-- Node1 -->
<g id="node1" class="node"><title>Node1</title>
<polygon fill="#bfbfbf" stroke="black" points="-0.5,-1 -0.5,-21 238.5,-21 238.5,-1 -0.5,-1"/>
<text text-anchor="middle" x="119" y="-8" font-family="FreeSans" font-size="10.00">Kitware.VTK.vtkUnstructuredGridPreIntegration</text>
</g>
<!-- Node2 -->
<g id="node2" class="node"><title>Node2</title>
<a xlink:href="class_kitware_1_1_v_t_k_1_1vtk_unstructured_grid_volume_ray_integrator.html" target="_top" xlink:title="vtkUnstructuredGridVolumeRayIntegrator &#45; a superclass for volume ray integration functions">
<polygon fill="none" stroke="black" points="12,-61 12,-81 226,-81 226,-61 12,-61"/>
<text text-anchor="middle" x="119" y="-68" font-family="FreeSans" font-size="10.00">vtkUnstructuredGridVolumeRayIntegrator</text>
</a>
</g>
<!-- Node2&#45;&gt;Node1 -->
<g id="edge2" class="edge"><title>Node2&#45;&gt;Node1</title>
<path fill="none" stroke="midnightblue" d="M119,-50.5155C119,-40.562 119,-29.0495 119,-21.0279"/>
<polygon fill="midnightblue" stroke="midnightblue" points="115.5,-50.8218 119,-60.8218 122.5,-50.8219 115.5,-50.8218"/>
</g>
<!-- Node3 -->
<g id="node4" class="node"><title>Node3</title>
<a xlink:href="class_kitware_1_1_v_t_k_1_1vtk_object.html" target="_top" xlink:title="vtkObject &#45; abstract base class for most VTK objects">
<polygon fill="none" stroke="black" points="88,-121 88,-141 150,-141 150,-121 88,-121"/>
<text text-anchor="middle" x="119" y="-128" font-family="FreeSans" font-size="10.00">vtkObject</text>
</a>
</g>
<!-- Node3&#45;&gt;Node2 -->
<g id="edge4" class="edge"><title>Node3&#45;&gt;Node2</title>
<path fill="none" stroke="midnightblue" d="M119,-110.516C119,-100.562 119,-89.0495 119,-81.0279"/>
<polygon fill="midnightblue" stroke="midnightblue" points="115.5,-110.822 119,-120.822 122.5,-110.822 115.5,-110.822"/>
</g>
<!-- Node4 -->
<g id="node6" class="node"><title>Node4</title>
<a xlink:href="class_kitware_1_1_v_t_k_1_1vtk_object_base.html" target="_top" xlink:title="vtkObjectBase &#45; abstract base class for most VTK objects">
<polygon fill="none" stroke="black" points="139,-561 139,-581 225,-581 225,-561 139,-561"/>
<text text-anchor="middle" x="182" y="-568" font-family="FreeSans" font-size="10.00">vtkObjectBase</text>
</a>
</g>
<!-- Node4&#45;&gt;Node3 -->
<g id="edge6" class="edge"><title>Node4&#45;&gt;Node3</title>
<path fill="none" stroke="midnightblue" d="M153.423,-555.886C139.687,-547.44 123.884,-535.826 113,-522 101.156,-506.955 100.621,-500.802 97,-482 71.4248,-349.199 106.577,-183.437 116.516,-141.17"/>
<polygon fill="midnightblue" stroke="midnightblue" points="151.683,-558.923 162.079,-560.97 155.229,-552.887 151.683,-558.923"/>
</g>
<!-- Node7 -->
<g id="node13" class="node"><title>Node7</title>
<a xlink:href="class_kitware_1_1_v_t_k_1_1vtk_object.html" target="_top" xlink:title="vtkObject &#45; abstract base class for most VTK objects">
<polygon fill="none" stroke="black" points="122,-501 122,-521 242,-521 242,-501 122,-501"/>
<text text-anchor="middle" x="182" y="-508" font-family="FreeSans" font-size="10.00">Kitware.VTK.vtkObject</text>
</a>
</g>
<!-- Node4&#45;&gt;Node7 -->
<g id="edge16" class="edge"><title>Node4&#45;&gt;Node7</title>
<path fill="none" stroke="midnightblue" d="M182,-550.516C182,-540.562 182,-529.05 182,-521.028"/>
<polygon fill="midnightblue" stroke="midnightblue" points="178.5,-550.822 182,-560.822 185.5,-550.822 178.5,-550.822"/>
</g>
<!-- Node5 -->
<g id="node8" class="node"><title>Node5</title>
<a xlink:href="class_kitware_1_1_v_t_k_1_1_wrapped_object.html" target="_top" xlink:title="Base class for all the mummy wrapped classes in Kitware.VTK.">
<polygon fill="none" stroke="black" points="320.5,-621 320.5,-641 409.5,-641 409.5,-621 320.5,-621"/>
<text text-anchor="middle" x="365" y="-628" font-family="FreeSans" font-size="10.00">WrappedObject</text>
</a>
</g>
<!-- Node5&#45;&gt;Node4 -->
<g id="edge8" class="edge"><title>Node5&#45;&gt;Node4</title>
<path fill="none" stroke="midnightblue" d="M324.804,-617.821C291.042,-606.752 243.512,-591.168 212.73,-581.075"/>
<polygon fill="midnightblue" stroke="midnightblue" points="323.777,-621.168 334.37,-620.957 325.958,-614.516 323.777,-621.168"/>
</g>
<!-- Node6 -->
<g id="node10" class="node"><title>Node6</title>
<a xlink:href="class_kitware_1_1_v_t_k_1_1vtk_object_event_relay.html" target="_top" xlink:title="Implement a relay handler for VTK events. This is a class that receives events directly from the VTK ...">
<polygon fill="none" stroke="black" points="111,-311 111,-331 283,-331 283,-311 111,-311"/>
<text text-anchor="middle" x="197" y="-318" font-family="FreeSans" font-size="10.00">Kitware.VTK.vtkObjectEventRelay</text>
</a>
</g>
<!-- Node5&#45;&gt;Node6 -->
<g id="edge12" class="edge"><title>Node5&#45;&gt;Node6</title>
<path fill="none" stroke="midnightblue" d="M377.888,-612.325C410.276,-562.899 487.803,-427.191 420,-350 410.773,-339.495 342.047,-331.666 283.298,-326.808"/>
<polygon fill="midnightblue" stroke="midnightblue" points="374.891,-610.509 372.239,-620.767 380.709,-614.402 374.891,-610.509"/>
</g>
<!-- Node6&#45;&gt;Node3 -->
<g id="edge10" class="edge"><title>Node6&#45;&gt;Node3</title>
<path fill="none" stroke="#9a32cd" stroke-dasharray="5,2" d="M188.921,-301.321C172.489,-261.293 135.674,-171.616 123.214,-141.266"/>
<polygon fill="#9a32cd" stroke="#9a32cd" points="185.771,-302.863 192.806,-310.785 192.246,-300.205 185.771,-302.863"/>
<text text-anchor="middle" x="296.5" y="-283" font-family="FreeSans" font-size="10.00"> LeftButtonReleaseEvtRelay</text>
<text text-anchor="middle" x="296.5" y="-271" font-family="FreeSans" font-size="10.00">KeyPressEvtRelay</text>
<text text-anchor="middle" x="296.5" y="-259" font-family="FreeSans" font-size="10.00">DomainModifiedEvtRelay</text>
<text text-anchor="middle" x="296.5" y="-247" font-family="FreeSans" font-size="10.00">VolumeMapperComputeGradientsStartEvtRelay</text>
<text text-anchor="middle" x="296.5" y="-235" font-family="FreeSans" font-size="10.00">ErrorEvtRelay</text>
<text text-anchor="middle" x="296.5" y="-223" font-family="FreeSans" font-size="10.00">VolumeMapperRenderStartEvtRelay</text>
<text text-anchor="middle" x="296.5" y="-211" font-family="FreeSans" font-size="10.00">StartEvtRelay</text>
<text text-anchor="middle" x="296.5" y="-199" font-family="FreeSans" font-size="10.00">ResetCameraEvtRelay</text>
<text text-anchor="middle" x="296.5" y="-187" font-family="FreeSans" font-size="10.00">EnableEvtRelay</text>
<text text-anchor="middle" x="296.5" y="-175" font-family="FreeSans" font-size="10.00">DeleteEvtRelay</text>
<text text-anchor="middle" x="296.5" y="-163" font-family="FreeSans" font-size="10.00">...</text>
</g>
<!-- Node6&#45;&gt;Node7 -->
<g id="edge18" class="edge"><title>Node6&#45;&gt;Node7</title>
<path fill="none" stroke="#9a32cd" stroke-dasharray="5,2" d="M194.028,-341.231C193.649,-344.169 193.293,-347.159 193,-350 187.144,-406.853 183.636,-475.333 182.452,-500.807"/>
<polygon fill="#9a32cd" stroke="#9a32cd" points="197.515,-341.565 195.421,-331.179 190.582,-340.604 197.515,-341.565"/>
<text text-anchor="middle" x="306.5" y="-473" font-family="FreeSans" font-size="10.00"> LeftButtonReleaseEvtRelay</text>
<text text-anchor="middle" x="306.5" y="-461" font-family="FreeSans" font-size="10.00">KeyPressEvtRelay</text>
<text text-anchor="middle" x="306.5" y="-449" font-family="FreeSans" font-size="10.00">DomainModifiedEvtRelay</text>
<text text-anchor="middle" x="306.5" y="-437" font-family="FreeSans" font-size="10.00">VolumeMapperComputeGradientsStartEvtRelay</text>
<text text-anchor="middle" x="306.5" y="-425" font-family="FreeSans" font-size="10.00">ErrorEvtRelay</text>
<text text-anchor="middle" x="306.5" y="-413" font-family="FreeSans" font-size="10.00">VolumeMapperRenderStartEvtRelay</text>
<text text-anchor="middle" x="306.5" y="-401" font-family="FreeSans" font-size="10.00">StartEvtRelay</text>
<text text-anchor="middle" x="306.5" y="-389" font-family="FreeSans" font-size="10.00">ResetCameraEvtRelay</text>
<text text-anchor="middle" x="306.5" y="-377" font-family="FreeSans" font-size="10.00">EnableEvtRelay</text>
<text text-anchor="middle" x="306.5" y="-365" font-family="FreeSans" font-size="10.00">DeleteEvtRelay</text>
<text text-anchor="middle" x="306.5" y="-353" font-family="FreeSans" font-size="10.00">...</text>
</g>
<!-- Node7&#45;&gt;Node6 -->
<g id="edge14" class="edge"><title>Node7&#45;&gt;Node6</title>
<path fill="none" stroke="#9a32cd" stroke-dasharray="5,2" d="M135.979,-495.818C130.439,-492.138 125.51,-487.596 122,-482 90.8229,-432.303 88.8299,-398.389 122,-350 126.736,-343.091 143.511,-336.287 159.999,-331.008"/>
<polygon fill="#9a32cd" stroke="#9a32cd" points="134.639,-499.079 145.072,-500.919 138.064,-492.974 134.639,-499.079"/>
<text text-anchor="middle" x="146" y="-419" font-family="FreeSans" font-size="10.00"> Sender</text>
<text text-anchor="middle" x="146" y="-407" font-family="FreeSans" font-size="10.00">EventImpl</text>
</g>
</g>
</svg>
