<?xml version="1.0" encoding="UTF-8" standalone="no"?>
<!DOCTYPE svg PUBLIC "-//W3C//DTD SVG 1.1//EN"
 "http://www.w3.org/Graphics/SVG/1.1/DTD/svg11.dtd">
<!-- Generated by graphviz version 2.26.3 (20100126.1600)
 -->
<!-- Title: G Pages: 1 -->
<svg width="304pt" height="436pt"
 viewBox="0.00 0.00 304.00 436.00" xmlns="http://www.w3.org/2000/svg" xmlns:xlink="http://www.w3.org/1999/xlink">
<g id="graph1" class="graph" transform="scale(1 1) rotate(0) translate(4 432)">
<title>G</title>
<!-- Node1 -->
<g id="node1" class="node"><title>Node1</title>
<polygon fill="#bfbfbf" stroke="black" points="0,-1 0,-21 296,-21 296,-1 0,-1"/>
<text text-anchor="middle" x="148" y="-8" font-family="FreeSans" font-size="10.00">Kitware.VTK.vtkOrientedPolygonalHandleRepresentation3D</text>
</g>
<!-- Node2 -->
<g id="node2" class="node"><title>Node2</title>
<a xlink:href="class_kitware_1_1_v_t_k_1_1vtk_abstract_polygonal_handle_representation3_d.html" target="_top" xlink:title="vtkAbstractPolygonalHandleRepresentation3D &#45; represent a user defined handle geometry in 3D while mai...">
<polygon fill="none" stroke="black" points="30,-59 30,-79 266,-79 266,-59 30,-59"/>
<text text-anchor="middle" x="148" y="-66" font-family="FreeSans" font-size="10.00">vtkAbstractPolygonalHandleRepresentation3D</text>
</a>
</g>
<!-- Node2&#45;&gt;Node1 -->
<g id="edge2" class="edge"><title>Node2&#45;&gt;Node1</title>
<path fill="none" stroke="midnightblue" d="M148,-48.8902C148,-39.6201 148,-29.0083 148,-21.3776"/>
<polygon fill="midnightblue" stroke="midnightblue" points="144.5,-48.8971 148,-58.8972 151.5,-48.8972 144.5,-48.8971"/>
</g>
<!-- Node3 -->
<g id="node4" class="node"><title>Node3</title>
<a xlink:href="class_kitware_1_1_v_t_k_1_1vtk_handle_representation.html" target="_top" xlink:title="vtkHandleRepresentation &#45; abstract class for representing widget handles">
<polygon fill="none" stroke="black" points="79.5,-117 79.5,-137 216.5,-137 216.5,-117 79.5,-117"/>
<text text-anchor="middle" x="148" y="-124" font-family="FreeSans" font-size="10.00">vtkHandleRepresentation</text>
</a>
</g>
<!-- Node3&#45;&gt;Node2 -->
<g id="edge4" class="edge"><title>Node3&#45;&gt;Node2</title>
<path fill="none" stroke="midnightblue" d="M148,-106.89C148,-97.6201 148,-87.0083 148,-79.3776"/>
<polygon fill="midnightblue" stroke="midnightblue" points="144.5,-106.897 148,-116.897 151.5,-106.897 144.5,-106.897"/>
</g>
<!-- Node4 -->
<g id="node6" class="node"><title>Node4</title>
<a xlink:href="class_kitware_1_1_v_t_k_1_1vtk_widget_representation.html" target="_top" xlink:title="vtkWidgetRepresentation &#45; abstract class defines interface between the widget and widget representati...">
<polygon fill="none" stroke="black" points="80.5,-175 80.5,-195 215.5,-195 215.5,-175 80.5,-175"/>
<text text-anchor="middle" x="148" y="-182" font-family="FreeSans" font-size="10.00">vtkWidgetRepresentation</text>
</a>
</g>
<!-- Node4&#45;&gt;Node3 -->
<g id="edge6" class="edge"><title>Node4&#45;&gt;Node3</title>
<path fill="none" stroke="midnightblue" d="M148,-164.89C148,-155.62 148,-145.008 148,-137.378"/>
<polygon fill="midnightblue" stroke="midnightblue" points="144.5,-164.897 148,-174.897 151.5,-164.897 144.5,-164.897"/>
</g>
<!-- Node5 -->
<g id="node8" class="node"><title>Node5</title>
<a xlink:href="class_kitware_1_1_v_t_k_1_1vtk_prop.html" target="_top" xlink:title="vtkProp &#45; abstract superclass for all actors, volumes and annotations">
<polygon fill="none" stroke="black" points="121.5,-233 121.5,-253 174.5,-253 174.5,-233 121.5,-233"/>
<text text-anchor="middle" x="148" y="-240" font-family="FreeSans" font-size="10.00">vtkProp</text>
</a>
</g>
<!-- Node5&#45;&gt;Node4 -->
<g id="edge8" class="edge"><title>Node5&#45;&gt;Node4</title>
<path fill="none" stroke="midnightblue" d="M148,-222.89C148,-213.62 148,-203.008 148,-195.378"/>
<polygon fill="midnightblue" stroke="midnightblue" points="144.5,-222.897 148,-232.897 151.5,-222.897 144.5,-222.897"/>
</g>
<!-- Node6 -->
<g id="node10" class="node"><title>Node6</title>
<a xlink:href="class_kitware_1_1_v_t_k_1_1vtk_object.html" target="_top" xlink:title="vtkObject &#45; abstract base class for most VTK objects">
<polygon fill="none" stroke="black" points="117,-291 117,-311 179,-311 179,-291 117,-291"/>
<text text-anchor="middle" x="148" y="-298" font-family="FreeSans" font-size="10.00">vtkObject</text>
</a>
</g>
<!-- Node6&#45;&gt;Node5 -->
<g id="edge10" class="edge"><title>Node6&#45;&gt;Node5</title>
<path fill="none" stroke="midnightblue" d="M148,-280.89C148,-271.62 148,-261.008 148,-253.378"/>
<polygon fill="midnightblue" stroke="midnightblue" points="144.5,-280.897 148,-290.897 151.5,-280.897 144.5,-280.897"/>
</g>
<!-- Node7 -->
<g id="node12" class="node"><title>Node7</title>
<a xlink:href="class_kitware_1_1_v_t_k_1_1vtk_object_base.html" target="_top" xlink:title="vtkObjectBase &#45; abstract base class for most VTK objects">
<polygon fill="none" stroke="black" points="105,-349 105,-369 191,-369 191,-349 105,-349"/>
<text text-anchor="middle" x="148" y="-356" font-family="FreeSans" font-size="10.00">vtkObjectBase</text>
</a>
</g>
<!-- Node7&#45;&gt;Node6 -->
<g id="edge12" class="edge"><title>Node7&#45;&gt;Node6</title>
<path fill="none" stroke="midnightblue" d="M148,-338.89C148,-329.62 148,-319.008 148,-311.378"/>
<polygon fill="midnightblue" stroke="midnightblue" points="144.5,-338.897 148,-348.897 151.5,-338.897 144.5,-338.897"/>
</g>
<!-- Node8 -->
<g id="node14" class="node"><title>Node8</title>
<a xlink:href="class_kitware_1_1_v_t_k_1_1_wrapped_object.html" target="_top" xlink:title="Base class for all the mummy wrapped classes in Kitware.VTK.">
<polygon fill="none" stroke="black" points="103.5,-407 103.5,-427 192.5,-427 192.5,-407 103.5,-407"/>
<text text-anchor="middle" x="148" y="-414" font-family="FreeSans" font-size="10.00">WrappedObject</text>
</a>
</g>
<!-- Node8&#45;&gt;Node7 -->
<g id="edge14" class="edge"><title>Node8&#45;&gt;Node7</title>
<path fill="none" stroke="midnightblue" d="M148,-396.89C148,-387.62 148,-377.008 148,-369.378"/>
<polygon fill="midnightblue" stroke="midnightblue" points="144.5,-396.897 148,-406.897 151.5,-396.897 144.5,-396.897"/>
</g>
</g>
</svg>
