<?xml version="1.0" encoding="UTF-8" standalone="no"?>
<!DOCTYPE svg PUBLIC "-//W3C//DTD SVG 1.1//EN"
 "http://www.w3.org/Graphics/SVG/1.1/DTD/svg11.dtd">
<!-- Generated by graphviz version 2.26.3 (20100126.1600)
 -->
<!-- Title: G Pages: 1 -->
<svg width="421pt" height="710pt"
 viewBox="0.00 0.00 421.46 710.00" xmlns="http://www.w3.org/2000/svg" xmlns:xlink="http://www.w3.org/1999/xlink">
<g id="graph1" class="graph" transform="scale(1 1) rotate(0) translate(4 706)">
<title>G</title>
<!-- Node1 -->
<g id="node1" class="node"><title>Node1</title>
<polygon fill="#bfbfbf" stroke="black" points="-0.5,-1 -0.5,-21 170.5,-21 170.5,-1 -0.5,-1"/>
<text text-anchor="middle" x="85" y="-8" font-family="FreeSans" font-size="10.00">Kitware.VTK.vtkMNIObjectReader</text>
</g>
<!-- Node2 -->
<g id="node2" class="node"><title>Node2</title>
<a xlink:href="class_kitware_1_1_v_t_k_1_1vtk_poly_data_algorithm.html" target="_top" xlink:title="vtkPolyDataAlgorithm &#45; Superclass for algorithms that produce only polydata as output">
<polygon fill="none" stroke="black" points="25,-61 25,-81 145,-81 145,-61 25,-61"/>
<text text-anchor="middle" x="85" y="-68" font-family="FreeSans" font-size="10.00">vtkPolyDataAlgorithm</text>
</a>
</g>
<!-- Node2&#45;&gt;Node1 -->
<g id="edge2" class="edge"><title>Node2&#45;&gt;Node1</title>
<path fill="none" stroke="midnightblue" d="M85,-50.5155C85,-40.562 85,-29.0495 85,-21.0279"/>
<polygon fill="midnightblue" stroke="midnightblue" points="81.5001,-50.8218 85,-60.8218 88.5001,-50.8219 81.5001,-50.8218"/>
</g>
<!-- Node3 -->
<g id="node4" class="node"><title>Node3</title>
<a xlink:href="class_kitware_1_1_v_t_k_1_1vtk_algorithm.html" target="_top" xlink:title="vtkAlgorithm &#45; Superclass for all sources, filters, and sinks in VTK.">
<polygon fill="none" stroke="black" points="46.5,-121 46.5,-141 123.5,-141 123.5,-121 46.5,-121"/>
<text text-anchor="middle" x="85" y="-128" font-family="FreeSans" font-size="10.00">vtkAlgorithm</text>
</a>
</g>
<!-- Node3&#45;&gt;Node2 -->
<g id="edge4" class="edge"><title>Node3&#45;&gt;Node2</title>
<path fill="none" stroke="midnightblue" d="M85,-110.516C85,-100.562 85,-89.0495 85,-81.0279"/>
<polygon fill="midnightblue" stroke="midnightblue" points="81.5001,-110.822 85,-120.822 88.5001,-110.822 81.5001,-110.822"/>
</g>
<!-- Node4 -->
<g id="node6" class="node"><title>Node4</title>
<a xlink:href="class_kitware_1_1_v_t_k_1_1vtk_object.html" target="_top" xlink:title="vtkObject &#45; abstract base class for most VTK objects">
<polygon fill="none" stroke="black" points="54,-181 54,-201 116,-201 116,-181 54,-181"/>
<text text-anchor="middle" x="85" y="-188" font-family="FreeSans" font-size="10.00">vtkObject</text>
</a>
</g>
<!-- Node4&#45;&gt;Node3 -->
<g id="edge6" class="edge"><title>Node4&#45;&gt;Node3</title>
<path fill="none" stroke="midnightblue" d="M85,-170.516C85,-160.562 85,-149.05 85,-141.028"/>
<polygon fill="midnightblue" stroke="midnightblue" points="81.5001,-170.822 85,-180.822 88.5001,-170.822 81.5001,-170.822"/>
</g>
<!-- Node5 -->
<g id="node8" class="node"><title>Node5</title>
<a xlink:href="class_kitware_1_1_v_t_k_1_1vtk_object_base.html" target="_top" xlink:title="vtkObjectBase &#45; abstract base class for most VTK objects">
<polygon fill="none" stroke="black" points="105,-621 105,-641 191,-641 191,-621 105,-621"/>
<text text-anchor="middle" x="148" y="-628" font-family="FreeSans" font-size="10.00">vtkObjectBase</text>
</a>
</g>
<!-- Node5&#45;&gt;Node4 -->
<g id="edge8" class="edge"><title>Node5&#45;&gt;Node4</title>
<path fill="none" stroke="midnightblue" d="M119.423,-615.886C105.687,-607.44 89.8844,-595.826 79,-582 67.1564,-566.955 66.6209,-560.802 63,-542 37.4248,-409.199 72.5766,-243.437 82.5155,-201.17"/>
<polygon fill="midnightblue" stroke="midnightblue" points="117.683,-618.923 128.079,-620.97 121.229,-612.887 117.683,-618.923"/>
</g>
<!-- Node8 -->
<g id="node15" class="node"><title>Node8</title>
<a xlink:href="class_kitware_1_1_v_t_k_1_1vtk_object.html" target="_top" xlink:title="vtkObject &#45; abstract base class for most VTK objects">
<polygon fill="none" stroke="black" points="88,-561 88,-581 208,-581 208,-561 88,-561"/>
<text text-anchor="middle" x="148" y="-568" font-family="FreeSans" font-size="10.00">Kitware.VTK.vtkObject</text>
</a>
</g>
<!-- Node5&#45;&gt;Node8 -->
<g id="edge18" class="edge"><title>Node5&#45;&gt;Node8</title>
<path fill="none" stroke="midnightblue" d="M148,-610.516C148,-600.562 148,-589.05 148,-581.028"/>
<polygon fill="midnightblue" stroke="midnightblue" points="144.5,-610.822 148,-620.822 151.5,-610.822 144.5,-610.822"/>
</g>
<!-- Node6 -->
<g id="node10" class="node"><title>Node6</title>
<a xlink:href="class_kitware_1_1_v_t_k_1_1_wrapped_object.html" target="_top" xlink:title="Base class for all the mummy wrapped classes in Kitware.VTK.">
<polygon fill="none" stroke="black" points="286.5,-681 286.5,-701 375.5,-701 375.5,-681 286.5,-681"/>
<text text-anchor="middle" x="331" y="-688" font-family="FreeSans" font-size="10.00">WrappedObject</text>
</a>
</g>
<!-- Node6&#45;&gt;Node5 -->
<g id="edge10" class="edge"><title>Node6&#45;&gt;Node5</title>
<path fill="none" stroke="midnightblue" d="M290.804,-677.821C257.042,-666.752 209.512,-651.168 178.73,-641.075"/>
<polygon fill="midnightblue" stroke="midnightblue" points="289.777,-681.168 300.37,-680.957 291.958,-674.516 289.777,-681.168"/>
</g>
<!-- Node7 -->
<g id="node12" class="node"><title>Node7</title>
<a xlink:href="class_kitware_1_1_v_t_k_1_1vtk_object_event_relay.html" target="_top" xlink:title="Implement a relay handler for VTK events. This is a class that receives events directly from the VTK ...">
<polygon fill="none" stroke="black" points="77,-371 77,-391 249,-391 249,-371 77,-371"/>
<text text-anchor="middle" x="163" y="-378" font-family="FreeSans" font-size="10.00">Kitware.VTK.vtkObjectEventRelay</text>
</a>
</g>
<!-- Node6&#45;&gt;Node7 -->
<g id="edge14" class="edge"><title>Node6&#45;&gt;Node7</title>
<path fill="none" stroke="midnightblue" d="M343.888,-672.325C376.276,-622.899 453.803,-487.191 386,-410 376.773,-399.495 308.047,-391.666 249.298,-386.808"/>
<polygon fill="midnightblue" stroke="midnightblue" points="340.891,-670.509 338.239,-680.767 346.709,-674.402 340.891,-670.509"/>
</g>
<!-- Node7&#45;&gt;Node4 -->
<g id="edge12" class="edge"><title>Node7&#45;&gt;Node4</title>
<path fill="none" stroke="#9a32cd" stroke-dasharray="5,2" d="M154.921,-361.321C138.489,-321.293 101.674,-231.616 89.2144,-201.266"/>
<polygon fill="#9a32cd" stroke="#9a32cd" points="151.771,-362.863 158.806,-370.785 158.246,-360.205 151.771,-362.863"/>
<text text-anchor="middle" x="262.5" y="-343" font-family="FreeSans" font-size="10.00"> LeftButtonReleaseEvtRelay</text>
<text text-anchor="middle" x="262.5" y="-331" font-family="FreeSans" font-size="10.00">KeyPressEvtRelay</text>
<text text-anchor="middle" x="262.5" y="-319" font-family="FreeSans" font-size="10.00">DomainModifiedEvtRelay</text>
<text text-anchor="middle" x="262.5" y="-307" font-family="FreeSans" font-size="10.00">VolumeMapperComputeGradientsStartEvtRelay</text>
<text text-anchor="middle" x="262.5" y="-295" font-family="FreeSans" font-size="10.00">ErrorEvtRelay</text>
<text text-anchor="middle" x="262.5" y="-283" font-family="FreeSans" font-size="10.00">VolumeMapperRenderStartEvtRelay</text>
<text text-anchor="middle" x="262.5" y="-271" font-family="FreeSans" font-size="10.00">StartEvtRelay</text>
<text text-anchor="middle" x="262.5" y="-259" font-family="FreeSans" font-size="10.00">ResetCameraEvtRelay</text>
<text text-anchor="middle" x="262.5" y="-247" font-family="FreeSans" font-size="10.00">EnableEvtRelay</text>
<text text-anchor="middle" x="262.5" y="-235" font-family="FreeSans" font-size="10.00">DeleteEvtRelay</text>
<text text-anchor="middle" x="262.5" y="-223" font-family="FreeSans" font-size="10.00">...</text>
</g>
<!-- Node7&#45;&gt;Node8 -->
<g id="edge20" class="edge"><title>Node7&#45;&gt;Node8</title>
<path fill="none" stroke="#9a32cd" stroke-dasharray="5,2" d="M160.028,-401.231C159.649,-404.169 159.293,-407.159 159,-410 153.144,-466.853 149.636,-535.333 148.452,-560.807"/>
<polygon fill="#9a32cd" stroke="#9a32cd" points="163.515,-401.565 161.421,-391.179 156.582,-400.604 163.515,-401.565"/>
<text text-anchor="middle" x="272.5" y="-533" font-family="FreeSans" font-size="10.00"> LeftButtonReleaseEvtRelay</text>
<text text-anchor="middle" x="272.5" y="-521" font-family="FreeSans" font-size="10.00">KeyPressEvtRelay</text>
<text text-anchor="middle" x="272.5" y="-509" font-family="FreeSans" font-size="10.00">DomainModifiedEvtRelay</text>
<text text-anchor="middle" x="272.5" y="-497" font-family="FreeSans" font-size="10.00">VolumeMapperComputeGradientsStartEvtRelay</text>
<text text-anchor="middle" x="272.5" y="-485" font-family="FreeSans" font-size="10.00">ErrorEvtRelay</text>
<text text-anchor="middle" x="272.5" y="-473" font-family="FreeSans" font-size="10.00">VolumeMapperRenderStartEvtRelay</text>
<text text-anchor="middle" x="272.5" y="-461" font-family="FreeSans" font-size="10.00">StartEvtRelay</text>
<text text-anchor="middle" x="272.5" y="-449" font-family="FreeSans" font-size="10.00">ResetCameraEvtRelay</text>
<text text-anchor="middle" x="272.5" y="-437" font-family="FreeSans" font-size="10.00">EnableEvtRelay</text>
<text text-anchor="middle" x="272.5" y="-425" font-family="FreeSans" font-size="10.00">DeleteEvtRelay</text>
<text text-anchor="middle" x="272.5" y="-413" font-family="FreeSans" font-size="10.00">...</text>
</g>
<!-- Node8&#45;&gt;Node7 -->
<g id="edge16" class="edge"><title>Node8&#45;&gt;Node7</title>
<path fill="none" stroke="#9a32cd" stroke-dasharray="5,2" d="M101.979,-555.818C96.4393,-552.138 91.5104,-547.596 88,-542 56.8229,-492.303 54.8299,-458.389 88,-410 92.7359,-403.091 109.511,-396.287 125.999,-391.008"/>
<polygon fill="#9a32cd" stroke="#9a32cd" points="100.639,-559.079 111.072,-560.919 104.064,-552.974 100.639,-559.079"/>
<text text-anchor="middle" x="112" y="-479" font-family="FreeSans" font-size="10.00"> Sender</text>
<text text-anchor="middle" x="112" y="-467" font-family="FreeSans" font-size="10.00">EventImpl</text>
</g>
</g>
</svg>
