<?xml version="1.0" encoding="UTF-8" standalone="no"?>
<!DOCTYPE svg PUBLIC "-//W3C//DTD SVG 1.1//EN"
 "http://www.w3.org/Graphics/SVG/1.1/DTD/svg11.dtd">
<!-- Generated by graphviz version 2.26.3 (20100126.1600)
 -->
<!-- Title: G Pages: 1 -->
<svg width="464pt" height="710pt"
 viewBox="0.00 0.00 464.46 710.00" xmlns="http://www.w3.org/2000/svg" xmlns:xlink="http://www.w3.org/1999/xlink">
<g id="graph1" class="graph" transform="scale(1 1) rotate(0) translate(4 706)">
<title>G</title>
<!-- Node1 -->
<g id="node1" class="node"><title>Node1</title>
<polygon fill="#bfbfbf" stroke="black" points="-0.5,-1 -0.5,-21 256.5,-21 256.5,-1 -0.5,-1"/>
<text text-anchor="middle" x="128" y="-8" font-family="FreeSans" font-size="10.00">Kitware.VTK.vtkUnstructuredGridToReebGraphFilter</text>
</g>
<!-- Node2 -->
<g id="node2" class="node"><title>Node2</title>
<a xlink:href="class_kitware_1_1_v_t_k_1_1vtk_directed_graph_algorithm.html" target="_top" xlink:title="vtkDirectedGraphAlgorithm &#45; Superclass for algorithms that produce only directed graph as output...">
<polygon fill="none" stroke="black" points="54.5,-61 54.5,-81 201.5,-81 201.5,-61 54.5,-61"/>
<text text-anchor="middle" x="128" y="-68" font-family="FreeSans" font-size="10.00">vtkDirectedGraphAlgorithm</text>
</a>
</g>
<!-- Node2&#45;&gt;Node1 -->
<g id="edge2" class="edge"><title>Node2&#45;&gt;Node1</title>
<path fill="none" stroke="midnightblue" d="M128,-50.5155C128,-40.562 128,-29.0495 128,-21.0279"/>
<polygon fill="midnightblue" stroke="midnightblue" points="124.5,-50.8218 128,-60.8218 131.5,-50.8219 124.5,-50.8218"/>
</g>
<!-- Node3 -->
<g id="node4" class="node"><title>Node3</title>
<a xlink:href="class_kitware_1_1_v_t_k_1_1vtk_algorithm.html" target="_top" xlink:title="vtkAlgorithm &#45; Superclass for all sources, filters, and sinks in VTK.">
<polygon fill="none" stroke="black" points="89.5,-121 89.5,-141 166.5,-141 166.5,-121 89.5,-121"/>
<text text-anchor="middle" x="128" y="-128" font-family="FreeSans" font-size="10.00">vtkAlgorithm</text>
</a>
</g>
<!-- Node3&#45;&gt;Node2 -->
<g id="edge4" class="edge"><title>Node3&#45;&gt;Node2</title>
<path fill="none" stroke="midnightblue" d="M128,-110.516C128,-100.562 128,-89.0495 128,-81.0279"/>
<polygon fill="midnightblue" stroke="midnightblue" points="124.5,-110.822 128,-120.822 131.5,-110.822 124.5,-110.822"/>
</g>
<!-- Node4 -->
<g id="node6" class="node"><title>Node4</title>
<a xlink:href="class_kitware_1_1_v_t_k_1_1vtk_object.html" target="_top" xlink:title="vtkObject &#45; abstract base class for most VTK objects">
<polygon fill="none" stroke="black" points="97,-181 97,-201 159,-201 159,-181 97,-181"/>
<text text-anchor="middle" x="128" y="-188" font-family="FreeSans" font-size="10.00">vtkObject</text>
</a>
</g>
<!-- Node4&#45;&gt;Node3 -->
<g id="edge6" class="edge"><title>Node4&#45;&gt;Node3</title>
<path fill="none" stroke="midnightblue" d="M128,-170.516C128,-160.562 128,-149.05 128,-141.028"/>
<polygon fill="midnightblue" stroke="midnightblue" points="124.5,-170.822 128,-180.822 131.5,-170.822 124.5,-170.822"/>
</g>
<!-- Node5 -->
<g id="node8" class="node"><title>Node5</title>
<a xlink:href="class_kitware_1_1_v_t_k_1_1vtk_object_base.html" target="_top" xlink:title="vtkObjectBase &#45; abstract base class for most VTK objects">
<polygon fill="none" stroke="black" points="148,-621 148,-641 234,-641 234,-621 148,-621"/>
<text text-anchor="middle" x="191" y="-628" font-family="FreeSans" font-size="10.00">vtkObjectBase</text>
</a>
</g>
<!-- Node5&#45;&gt;Node4 -->
<g id="edge8" class="edge"><title>Node5&#45;&gt;Node4</title>
<path fill="none" stroke="midnightblue" d="M162.423,-615.886C148.687,-607.44 132.884,-595.826 122,-582 110.156,-566.955 109.621,-560.802 106,-542 80.4248,-409.199 115.577,-243.437 125.516,-201.17"/>
<polygon fill="midnightblue" stroke="midnightblue" points="160.683,-618.923 171.079,-620.97 164.229,-612.887 160.683,-618.923"/>
</g>
<!-- Node8 -->
<g id="node15" class="node"><title>Node8</title>
<a xlink:href="class_kitware_1_1_v_t_k_1_1vtk_object.html" target="_top" xlink:title="vtkObject &#45; abstract base class for most VTK objects">
<polygon fill="none" stroke="black" points="131,-561 131,-581 251,-581 251,-561 131,-561"/>
<text text-anchor="middle" x="191" y="-568" font-family="FreeSans" font-size="10.00">Kitware.VTK.vtkObject</text>
</a>
</g>
<!-- Node5&#45;&gt;Node8 -->
<g id="edge18" class="edge"><title>Node5&#45;&gt;Node8</title>
<path fill="none" stroke="midnightblue" d="M191,-610.516C191,-600.562 191,-589.05 191,-581.028"/>
<polygon fill="midnightblue" stroke="midnightblue" points="187.5,-610.822 191,-620.822 194.5,-610.822 187.5,-610.822"/>
</g>
<!-- Node6 -->
<g id="node10" class="node"><title>Node6</title>
<a xlink:href="class_kitware_1_1_v_t_k_1_1_wrapped_object.html" target="_top" xlink:title="Base class for all the mummy wrapped classes in Kitware.VTK.">
<polygon fill="none" stroke="black" points="329.5,-681 329.5,-701 418.5,-701 418.5,-681 329.5,-681"/>
<text text-anchor="middle" x="374" y="-688" font-family="FreeSans" font-size="10.00">WrappedObject</text>
</a>
</g>
<!-- Node6&#45;&gt;Node5 -->
<g id="edge10" class="edge"><title>Node6&#45;&gt;Node5</title>
<path fill="none" stroke="midnightblue" d="M333.804,-677.821C300.042,-666.752 252.512,-651.168 221.73,-641.075"/>
<polygon fill="midnightblue" stroke="midnightblue" points="332.777,-681.168 343.37,-680.957 334.958,-674.516 332.777,-681.168"/>
</g>
<!-- Node7 -->
<g id="node12" class="node"><title>Node7</title>
<a xlink:href="class_kitware_1_1_v_t_k_1_1vtk_object_event_relay.html" target="_top" xlink:title="Implement a relay handler for VTK events. This is a class that receives events directly from the VTK ...">
<polygon fill="none" stroke="black" points="120,-371 120,-391 292,-391 292,-371 120,-371"/>
<text text-anchor="middle" x="206" y="-378" font-family="FreeSans" font-size="10.00">Kitware.VTK.vtkObjectEventRelay</text>
</a>
</g>
<!-- Node6&#45;&gt;Node7 -->
<g id="edge14" class="edge"><title>Node6&#45;&gt;Node7</title>
<path fill="none" stroke="midnightblue" d="M386.888,-672.325C419.276,-622.899 496.803,-487.191 429,-410 419.773,-399.495 351.047,-391.666 292.298,-386.808"/>
<polygon fill="midnightblue" stroke="midnightblue" points="383.891,-670.509 381.239,-680.767 389.709,-674.402 383.891,-670.509"/>
</g>
<!-- Node7&#45;&gt;Node4 -->
<g id="edge12" class="edge"><title>Node7&#45;&gt;Node4</title>
<path fill="none" stroke="#9a32cd" stroke-dasharray="5,2" d="M197.921,-361.321C181.489,-321.293 144.674,-231.616 132.214,-201.266"/>
<polygon fill="#9a32cd" stroke="#9a32cd" points="194.771,-362.863 201.806,-370.785 201.246,-360.205 194.771,-362.863"/>
<text text-anchor="middle" x="305.5" y="-343" font-family="FreeSans" font-size="10.00"> LeftButtonReleaseEvtRelay</text>
<text text-anchor="middle" x="305.5" y="-331" font-family="FreeSans" font-size="10.00">KeyPressEvtRelay</text>
<text text-anchor="middle" x="305.5" y="-319" font-family="FreeSans" font-size="10.00">DomainModifiedEvtRelay</text>
<text text-anchor="middle" x="305.5" y="-307" font-family="FreeSans" font-size="10.00">VolumeMapperComputeGradientsStartEvtRelay</text>
<text text-anchor="middle" x="305.5" y="-295" font-family="FreeSans" font-size="10.00">ErrorEvtRelay</text>
<text text-anchor="middle" x="305.5" y="-283" font-family="FreeSans" font-size="10.00">VolumeMapperRenderStartEvtRelay</text>
<text text-anchor="middle" x="305.5" y="-271" font-family="FreeSans" font-size="10.00">StartEvtRelay</text>
<text text-anchor="middle" x="305.5" y="-259" font-family="FreeSans" font-size="10.00">ResetCameraEvtRelay</text>
<text text-anchor="middle" x="305.5" y="-247" font-family="FreeSans" font-size="10.00">EnableEvtRelay</text>
<text text-anchor="middle" x="305.5" y="-235" font-family="FreeSans" font-size="10.00">DeleteEvtRelay</text>
<text text-anchor="middle" x="305.5" y="-223" font-family="FreeSans" font-size="10.00">...</text>
</g>
<!-- Node7&#45;&gt;Node8 -->
<g id="edge20" class="edge"><title>Node7&#45;&gt;Node8</title>
<path fill="none" stroke="#9a32cd" stroke-dasharray="5,2" d="M203.028,-401.231C202.649,-404.169 202.293,-407.159 202,-410 196.144,-466.853 192.636,-535.333 191.452,-560.807"/>
<polygon fill="#9a32cd" stroke="#9a32cd" points="206.515,-401.565 204.421,-391.179 199.582,-400.604 206.515,-401.565"/>
<text text-anchor="middle" x="315.5" y="-533" font-family="FreeSans" font-size="10.00"> LeftButtonReleaseEvtRelay</text>
<text text-anchor="middle" x="315.5" y="-521" font-family="FreeSans" font-size="10.00">KeyPressEvtRelay</text>
<text text-anchor="middle" x="315.5" y="-509" font-family="FreeSans" font-size="10.00">DomainModifiedEvtRelay</text>
<text text-anchor="middle" x="315.5" y="-497" font-family="FreeSans" font-size="10.00">VolumeMapperComputeGradientsStartEvtRelay</text>
<text text-anchor="middle" x="315.5" y="-485" font-family="FreeSans" font-size="10.00">ErrorEvtRelay</text>
<text text-anchor="middle" x="315.5" y="-473" font-family="FreeSans" font-size="10.00">VolumeMapperRenderStartEvtRelay</text>
<text text-anchor="middle" x="315.5" y="-461" font-family="FreeSans" font-size="10.00">StartEvtRelay</text>
<text text-anchor="middle" x="315.5" y="-449" font-family="FreeSans" font-size="10.00">ResetCameraEvtRelay</text>
<text text-anchor="middle" x="315.5" y="-437" font-family="FreeSans" font-size="10.00">EnableEvtRelay</text>
<text text-anchor="middle" x="315.5" y="-425" font-family="FreeSans" font-size="10.00">DeleteEvtRelay</text>
<text text-anchor="middle" x="315.5" y="-413" font-family="FreeSans" font-size="10.00">...</text>
</g>
<!-- Node8&#45;&gt;Node7 -->
<g id="edge16" class="edge"><title>Node8&#45;&gt;Node7</title>
<path fill="none" stroke="#9a32cd" stroke-dasharray="5,2" d="M144.979,-555.818C139.439,-552.138 134.51,-547.596 131,-542 99.8229,-492.303 97.8299,-458.389 131,-410 135.736,-403.091 152.511,-396.287 168.999,-391.008"/>
<polygon fill="#9a32cd" stroke="#9a32cd" points="143.639,-559.079 154.072,-560.919 147.064,-552.974 143.639,-559.079"/>
<text text-anchor="middle" x="155" y="-479" font-family="FreeSans" font-size="10.00"> Sender</text>
<text text-anchor="middle" x="155" y="-467" font-family="FreeSans" font-size="10.00">EventImpl</text>
</g>
</g>
</svg>
