<?xml version="1.0" encoding="UTF-8" standalone="no"?>
<!DOCTYPE svg PUBLIC "-//W3C//DTD SVG 1.1//EN"
 "http://www.w3.org/Graphics/SVG/1.1/DTD/svg11.dtd">
<!-- Generated by graphviz version 2.26.3 (20100126.1600)
 -->
<!-- Title: G Pages: 1 -->
<svg width="437pt" height="770pt"
 viewBox="0.00 0.00 437.46 770.00" xmlns="http://www.w3.org/2000/svg" xmlns:xlink="http://www.w3.org/1999/xlink">
<g id="graph1" class="graph" transform="scale(1 1) rotate(0) translate(4 766)">
<title>G</title>
<!-- Node1 -->
<g id="node1" class="node"><title>Node1</title>
<polygon fill="#bfbfbf" stroke="black" points="-0.5,-1 -0.5,-21 202.5,-21 202.5,-1 -0.5,-1"/>
<text text-anchor="middle" x="101" y="-8" font-family="FreeSans" font-size="10.00">Kitware.VTK.vtkParallelCoordinatesView</text>
</g>
<!-- Node2 -->
<g id="node2" class="node"><title>Node2</title>
<a xlink:href="class_kitware_1_1_v_t_k_1_1vtk_render_view.html" target="_top" xlink:title="vtkRenderView &#45; A view containing a renderer.">
<polygon fill="none" stroke="black" points="58,-61 58,-81 144,-81 144,-61 58,-61"/>
<text text-anchor="middle" x="101" y="-68" font-family="FreeSans" font-size="10.00">vtkRenderView</text>
</a>
</g>
<!-- Node2&#45;&gt;Node1 -->
<g id="edge2" class="edge"><title>Node2&#45;&gt;Node1</title>
<path fill="none" stroke="midnightblue" d="M101,-50.5155C101,-40.562 101,-29.0495 101,-21.0279"/>
<polygon fill="midnightblue" stroke="midnightblue" points="97.5001,-50.8218 101,-60.8218 104.5,-50.8219 97.5001,-50.8218"/>
</g>
<!-- Node3 -->
<g id="node4" class="node"><title>Node3</title>
<a xlink:href="class_kitware_1_1_v_t_k_1_1vtk_render_view_base.html" target="_top" xlink:title="vtkRenderViewBase &#45; A base view containing a renderer.">
<polygon fill="none" stroke="black" points="46,-121 46,-141 156,-141 156,-121 46,-121"/>
<text text-anchor="middle" x="101" y="-128" font-family="FreeSans" font-size="10.00">vtkRenderViewBase</text>
</a>
</g>
<!-- Node3&#45;&gt;Node2 -->
<g id="edge4" class="edge"><title>Node3&#45;&gt;Node2</title>
<path fill="none" stroke="midnightblue" d="M101,-110.516C101,-100.562 101,-89.0495 101,-81.0279"/>
<polygon fill="midnightblue" stroke="midnightblue" points="97.5001,-110.822 101,-120.822 104.5,-110.822 97.5001,-110.822"/>
</g>
<!-- Node4 -->
<g id="node6" class="node"><title>Node4</title>
<a xlink:href="class_kitware_1_1_v_t_k_1_1vtk_view.html" target="_top" xlink:title="vtkView &#45; The superclass for all views.">
<polygon fill="none" stroke="black" points="74.5,-181 74.5,-201 127.5,-201 127.5,-181 74.5,-181"/>
<text text-anchor="middle" x="101" y="-188" font-family="FreeSans" font-size="10.00">vtkView</text>
</a>
</g>
<!-- Node4&#45;&gt;Node3 -->
<g id="edge6" class="edge"><title>Node4&#45;&gt;Node3</title>
<path fill="none" stroke="midnightblue" d="M101,-170.516C101,-160.562 101,-149.05 101,-141.028"/>
<polygon fill="midnightblue" stroke="midnightblue" points="97.5001,-170.822 101,-180.822 104.5,-170.822 97.5001,-170.822"/>
</g>
<!-- Node5 -->
<g id="node8" class="node"><title>Node5</title>
<a xlink:href="class_kitware_1_1_v_t_k_1_1vtk_object.html" target="_top" xlink:title="vtkObject &#45; abstract base class for most VTK objects">
<polygon fill="none" stroke="black" points="70,-241 70,-261 132,-261 132,-241 70,-241"/>
<text text-anchor="middle" x="101" y="-248" font-family="FreeSans" font-size="10.00">vtkObject</text>
</a>
</g>
<!-- Node5&#45;&gt;Node4 -->
<g id="edge8" class="edge"><title>Node5&#45;&gt;Node4</title>
<path fill="none" stroke="midnightblue" d="M101,-230.516C101,-220.562 101,-209.05 101,-201.028"/>
<polygon fill="midnightblue" stroke="midnightblue" points="97.5001,-230.822 101,-240.822 104.5,-230.822 97.5001,-230.822"/>
</g>
<!-- Node6 -->
<g id="node10" class="node"><title>Node6</title>
<a xlink:href="class_kitware_1_1_v_t_k_1_1vtk_object_base.html" target="_top" xlink:title="vtkObjectBase &#45; abstract base class for most VTK objects">
<polygon fill="none" stroke="black" points="121,-681 121,-701 207,-701 207,-681 121,-681"/>
<text text-anchor="middle" x="164" y="-688" font-family="FreeSans" font-size="10.00">vtkObjectBase</text>
</a>
</g>
<!-- Node6&#45;&gt;Node5 -->
<g id="edge10" class="edge"><title>Node6&#45;&gt;Node5</title>
<path fill="none" stroke="midnightblue" d="M135.423,-675.886C121.687,-667.44 105.884,-655.826 95,-642 83.1564,-626.955 82.6209,-620.802 79,-602 53.4248,-469.199 88.5766,-303.437 98.5155,-261.17"/>
<polygon fill="midnightblue" stroke="midnightblue" points="133.683,-678.923 144.079,-680.97 137.229,-672.887 133.683,-678.923"/>
</g>
<!-- Node9 -->
<g id="node17" class="node"><title>Node9</title>
<a xlink:href="class_kitware_1_1_v_t_k_1_1vtk_object.html" target="_top" xlink:title="vtkObject &#45; abstract base class for most VTK objects">
<polygon fill="none" stroke="black" points="104,-621 104,-641 224,-641 224,-621 104,-621"/>
<text text-anchor="middle" x="164" y="-628" font-family="FreeSans" font-size="10.00">Kitware.VTK.vtkObject</text>
</a>
</g>
<!-- Node6&#45;&gt;Node9 -->
<g id="edge20" class="edge"><title>Node6&#45;&gt;Node9</title>
<path fill="none" stroke="midnightblue" d="M164,-670.516C164,-660.562 164,-649.05 164,-641.028"/>
<polygon fill="midnightblue" stroke="midnightblue" points="160.5,-670.822 164,-680.822 167.5,-670.822 160.5,-670.822"/>
</g>
<!-- Node7 -->
<g id="node12" class="node"><title>Node7</title>
<a xlink:href="class_kitware_1_1_v_t_k_1_1_wrapped_object.html" target="_top" xlink:title="Base class for all the mummy wrapped classes in Kitware.VTK.">
<polygon fill="none" stroke="black" points="302.5,-741 302.5,-761 391.5,-761 391.5,-741 302.5,-741"/>
<text text-anchor="middle" x="347" y="-748" font-family="FreeSans" font-size="10.00">WrappedObject</text>
</a>
</g>
<!-- Node7&#45;&gt;Node6 -->
<g id="edge12" class="edge"><title>Node7&#45;&gt;Node6</title>
<path fill="none" stroke="midnightblue" d="M306.804,-737.821C273.042,-726.752 225.512,-711.168 194.73,-701.075"/>
<polygon fill="midnightblue" stroke="midnightblue" points="305.777,-741.168 316.37,-740.957 307.958,-734.516 305.777,-741.168"/>
</g>
<!-- Node8 -->
<g id="node14" class="node"><title>Node8</title>
<a xlink:href="class_kitware_1_1_v_t_k_1_1vtk_object_event_relay.html" target="_top" xlink:title="Implement a relay handler for VTK events. This is a class that receives events directly from the VTK ...">
<polygon fill="none" stroke="black" points="93,-431 93,-451 265,-451 265,-431 93,-431"/>
<text text-anchor="middle" x="179" y="-438" font-family="FreeSans" font-size="10.00">Kitware.VTK.vtkObjectEventRelay</text>
</a>
</g>
<!-- Node7&#45;&gt;Node8 -->
<g id="edge16" class="edge"><title>Node7&#45;&gt;Node8</title>
<path fill="none" stroke="midnightblue" d="M359.888,-732.325C392.276,-682.899 469.803,-547.191 402,-470 392.773,-459.495 324.047,-451.666 265.298,-446.808"/>
<polygon fill="midnightblue" stroke="midnightblue" points="356.891,-730.509 354.239,-740.767 362.709,-734.402 356.891,-730.509"/>
</g>
<!-- Node8&#45;&gt;Node5 -->
<g id="edge14" class="edge"><title>Node8&#45;&gt;Node5</title>
<path fill="none" stroke="#9a32cd" stroke-dasharray="5,2" d="M170.921,-421.321C154.489,-381.293 117.674,-291.616 105.214,-261.266"/>
<polygon fill="#9a32cd" stroke="#9a32cd" points="167.771,-422.863 174.806,-430.785 174.246,-420.205 167.771,-422.863"/>
<text text-anchor="middle" x="278.5" y="-403" font-family="FreeSans" font-size="10.00"> LeftButtonReleaseEvtRelay</text>
<text text-anchor="middle" x="278.5" y="-391" font-family="FreeSans" font-size="10.00">KeyPressEvtRelay</text>
<text text-anchor="middle" x="278.5" y="-379" font-family="FreeSans" font-size="10.00">DomainModifiedEvtRelay</text>
<text text-anchor="middle" x="278.5" y="-367" font-family="FreeSans" font-size="10.00">VolumeMapperComputeGradientsStartEvtRelay</text>
<text text-anchor="middle" x="278.5" y="-355" font-family="FreeSans" font-size="10.00">ErrorEvtRelay</text>
<text text-anchor="middle" x="278.5" y="-343" font-family="FreeSans" font-size="10.00">VolumeMapperRenderStartEvtRelay</text>
<text text-anchor="middle" x="278.5" y="-331" font-family="FreeSans" font-size="10.00">StartEvtRelay</text>
<text text-anchor="middle" x="278.5" y="-319" font-family="FreeSans" font-size="10.00">ResetCameraEvtRelay</text>
<text text-anchor="middle" x="278.5" y="-307" font-family="FreeSans" font-size="10.00">EnableEvtRelay</text>
<text text-anchor="middle" x="278.5" y="-295" font-family="FreeSans" font-size="10.00">DeleteEvtRelay</text>
<text text-anchor="middle" x="278.5" y="-283" font-family="FreeSans" font-size="10.00">...</text>
</g>
<!-- Node8&#45;&gt;Node9 -->
<g id="edge22" class="edge"><title>Node8&#45;&gt;Node9</title>
<path fill="none" stroke="#9a32cd" stroke-dasharray="5,2" d="M176.028,-461.231C175.649,-464.169 175.293,-467.159 175,-470 169.144,-526.853 165.636,-595.333 164.452,-620.807"/>
<polygon fill="#9a32cd" stroke="#9a32cd" points="179.515,-461.565 177.421,-451.179 172.582,-460.604 179.515,-461.565"/>
<text text-anchor="middle" x="288.5" y="-593" font-family="FreeSans" font-size="10.00"> LeftButtonReleaseEvtRelay</text>
<text text-anchor="middle" x="288.5" y="-581" font-family="FreeSans" font-size="10.00">KeyPressEvtRelay</text>
<text text-anchor="middle" x="288.5" y="-569" font-family="FreeSans" font-size="10.00">DomainModifiedEvtRelay</text>
<text text-anchor="middle" x="288.5" y="-557" font-family="FreeSans" font-size="10.00">VolumeMapperComputeGradientsStartEvtRelay</text>
<text text-anchor="middle" x="288.5" y="-545" font-family="FreeSans" font-size="10.00">ErrorEvtRelay</text>
<text text-anchor="middle" x="288.5" y="-533" font-family="FreeSans" font-size="10.00">VolumeMapperRenderStartEvtRelay</text>
<text text-anchor="middle" x="288.5" y="-521" font-family="FreeSans" font-size="10.00">StartEvtRelay</text>
<text text-anchor="middle" x="288.5" y="-509" font-family="FreeSans" font-size="10.00">ResetCameraEvtRelay</text>
<text text-anchor="middle" x="288.5" y="-497" font-family="FreeSans" font-size="10.00">EnableEvtRelay</text>
<text text-anchor="middle" x="288.5" y="-485" font-family="FreeSans" font-size="10.00">DeleteEvtRelay</text>
<text text-anchor="middle" x="288.5" y="-473" font-family="FreeSans" font-size="10.00">...</text>
</g>
<!-- Node9&#45;&gt;Node8 -->
<g id="edge18" class="edge"><title>Node9&#45;&gt;Node8</title>
<path fill="none" stroke="#9a32cd" stroke-dasharray="5,2" d="M117.979,-615.818C112.439,-612.138 107.51,-607.596 104,-602 72.8229,-552.303 70.8299,-518.389 104,-470 108.736,-463.091 125.511,-456.287 141.999,-451.008"/>
<polygon fill="#9a32cd" stroke="#9a32cd" points="116.639,-619.079 127.072,-620.919 120.064,-612.974 116.639,-619.079"/>
<text text-anchor="middle" x="128" y="-539" font-family="FreeSans" font-size="10.00"> Sender</text>
<text text-anchor="middle" x="128" y="-527" font-family="FreeSans" font-size="10.00">EventImpl</text>
</g>
</g>
</svg>
