<?xml version="1.0" encoding="UTF-8" standalone="no"?>
<!DOCTYPE svg PUBLIC "-//W3C//DTD SVG 1.1//EN"
 "http://www.w3.org/Graphics/SVG/1.1/DTD/svg11.dtd">
<!-- Generated by graphviz version 2.26.3 (20100126.1600)
 -->
<!-- Title: G Pages: 1 -->
<svg width="477pt" height="890pt"
 viewBox="0.00 0.00 477.46 890.00" xmlns="http://www.w3.org/2000/svg" xmlns:xlink="http://www.w3.org/1999/xlink">
<g id="graph1" class="graph" transform="scale(1 1) rotate(0) translate(4 886)">
<title>G</title>
<!-- Node1 -->
<g id="node1" class="node"><title>Node1</title>
<polygon fill="#bfbfbf" stroke="black" points="-0.5,-1 -0.5,-21 282.5,-21 282.5,-1 -0.5,-1"/>
<text text-anchor="middle" x="141" y="-8" font-family="FreeSans" font-size="10.00">Kitware.VTK.vtkUnstructuredGridVolumeZSweepMapper</text>
</g>
<!-- Node2 -->
<g id="node2" class="node"><title>Node2</title>
<a xlink:href="class_kitware_1_1_v_t_k_1_1vtk_unstructured_grid_volume_mapper.html" target="_top" xlink:title="vtkUnstructuredGridVolumeMapper &#45; Abstract class for a unstructured grid volume mapper">
<polygon fill="none" stroke="black" points="48.5,-61 48.5,-81 233.5,-81 233.5,-61 48.5,-61"/>
<text text-anchor="middle" x="141" y="-68" font-family="FreeSans" font-size="10.00">vtkUnstructuredGridVolumeMapper</text>
</a>
</g>
<!-- Node2&#45;&gt;Node1 -->
<g id="edge2" class="edge"><title>Node2&#45;&gt;Node1</title>
<path fill="none" stroke="midnightblue" d="M141,-50.5155C141,-40.562 141,-29.0495 141,-21.0279"/>
<polygon fill="midnightblue" stroke="midnightblue" points="137.5,-50.8218 141,-60.8218 144.5,-50.8219 137.5,-50.8218"/>
</g>
<!-- Node3 -->
<g id="node4" class="node"><title>Node3</title>
<a xlink:href="class_kitware_1_1_v_t_k_1_1vtk_abstract_volume_mapper.html" target="_top" xlink:title="vtkAbstractVolumeMapper &#45; Abstract class for a volume mapper">
<polygon fill="none" stroke="black" points="69.5,-121 69.5,-141 212.5,-141 212.5,-121 69.5,-121"/>
<text text-anchor="middle" x="141" y="-128" font-family="FreeSans" font-size="10.00">vtkAbstractVolumeMapper</text>
</a>
</g>
<!-- Node3&#45;&gt;Node2 -->
<g id="edge4" class="edge"><title>Node3&#45;&gt;Node2</title>
<path fill="none" stroke="midnightblue" d="M141,-110.516C141,-100.562 141,-89.0495 141,-81.0279"/>
<polygon fill="midnightblue" stroke="midnightblue" points="137.5,-110.822 141,-120.822 144.5,-110.822 137.5,-110.822"/>
</g>
<!-- Node4 -->
<g id="node6" class="node"><title>Node4</title>
<a xlink:href="class_kitware_1_1_v_t_k_1_1vtk_abstract_mapper3_d.html" target="_top" xlink:title="vtkAbstractMapper3D &#45; abstract class specifies interface to map 3D data">
<polygon fill="none" stroke="black" points="80.5,-181 80.5,-201 201.5,-201 201.5,-181 80.5,-181"/>
<text text-anchor="middle" x="141" y="-188" font-family="FreeSans" font-size="10.00">vtkAbstractMapper3D</text>
</a>
</g>
<!-- Node4&#45;&gt;Node3 -->
<g id="edge6" class="edge"><title>Node4&#45;&gt;Node3</title>
<path fill="none" stroke="midnightblue" d="M141,-170.516C141,-160.562 141,-149.05 141,-141.028"/>
<polygon fill="midnightblue" stroke="midnightblue" points="137.5,-170.822 141,-180.822 144.5,-170.822 137.5,-170.822"/>
</g>
<!-- Node5 -->
<g id="node8" class="node"><title>Node5</title>
<a xlink:href="class_kitware_1_1_v_t_k_1_1vtk_abstract_mapper.html" target="_top" xlink:title="vtkAbstractMapper &#45; abstract class specifies interface to map data">
<polygon fill="none" stroke="black" points="87.5,-241 87.5,-261 194.5,-261 194.5,-241 87.5,-241"/>
<text text-anchor="middle" x="141" y="-248" font-family="FreeSans" font-size="10.00">vtkAbstractMapper</text>
</a>
</g>
<!-- Node5&#45;&gt;Node4 -->
<g id="edge8" class="edge"><title>Node5&#45;&gt;Node4</title>
<path fill="none" stroke="midnightblue" d="M141,-230.516C141,-220.562 141,-209.05 141,-201.028"/>
<polygon fill="midnightblue" stroke="midnightblue" points="137.5,-230.822 141,-240.822 144.5,-230.822 137.5,-230.822"/>
</g>
<!-- Node6 -->
<g id="node10" class="node"><title>Node6</title>
<a xlink:href="class_kitware_1_1_v_t_k_1_1vtk_algorithm.html" target="_top" xlink:title="vtkAlgorithm &#45; Superclass for all sources, filters, and sinks in VTK.">
<polygon fill="none" stroke="black" points="102.5,-301 102.5,-321 179.5,-321 179.5,-301 102.5,-301"/>
<text text-anchor="middle" x="141" y="-308" font-family="FreeSans" font-size="10.00">vtkAlgorithm</text>
</a>
</g>
<!-- Node6&#45;&gt;Node5 -->
<g id="edge10" class="edge"><title>Node6&#45;&gt;Node5</title>
<path fill="none" stroke="midnightblue" d="M141,-290.516C141,-280.562 141,-269.05 141,-261.028"/>
<polygon fill="midnightblue" stroke="midnightblue" points="137.5,-290.822 141,-300.822 144.5,-290.822 137.5,-290.822"/>
</g>
<!-- Node7 -->
<g id="node12" class="node"><title>Node7</title>
<a xlink:href="class_kitware_1_1_v_t_k_1_1vtk_object.html" target="_top" xlink:title="vtkObject &#45; abstract base class for most VTK objects">
<polygon fill="none" stroke="black" points="110,-361 110,-381 172,-381 172,-361 110,-361"/>
<text text-anchor="middle" x="141" y="-368" font-family="FreeSans" font-size="10.00">vtkObject</text>
</a>
</g>
<!-- Node7&#45;&gt;Node6 -->
<g id="edge12" class="edge"><title>Node7&#45;&gt;Node6</title>
<path fill="none" stroke="midnightblue" d="M141,-350.516C141,-340.562 141,-329.05 141,-321.028"/>
<polygon fill="midnightblue" stroke="midnightblue" points="137.5,-350.822 141,-360.822 144.5,-350.822 137.5,-350.822"/>
</g>
<!-- Node8 -->
<g id="node14" class="node"><title>Node8</title>
<a xlink:href="class_kitware_1_1_v_t_k_1_1vtk_object_base.html" target="_top" xlink:title="vtkObjectBase &#45; abstract base class for most VTK objects">
<polygon fill="none" stroke="black" points="161,-801 161,-821 247,-821 247,-801 161,-801"/>
<text text-anchor="middle" x="204" y="-808" font-family="FreeSans" font-size="10.00">vtkObjectBase</text>
</a>
</g>
<!-- Node8&#45;&gt;Node7 -->
<g id="edge14" class="edge"><title>Node8&#45;&gt;Node7</title>
<path fill="none" stroke="midnightblue" d="M175.423,-795.886C161.687,-787.44 145.884,-775.826 135,-762 123.156,-746.955 122.621,-740.802 119,-722 93.4248,-589.199 128.577,-423.437 138.516,-381.17"/>
<polygon fill="midnightblue" stroke="midnightblue" points="173.683,-798.923 184.079,-800.97 177.229,-792.887 173.683,-798.923"/>
</g>
<!-- Node11 -->
<g id="node21" class="node"><title>Node11</title>
<a xlink:href="class_kitware_1_1_v_t_k_1_1vtk_object.html" target="_top" xlink:title="vtkObject &#45; abstract base class for most VTK objects">
<polygon fill="none" stroke="black" points="144,-741 144,-761 264,-761 264,-741 144,-741"/>
<text text-anchor="middle" x="204" y="-748" font-family="FreeSans" font-size="10.00">Kitware.VTK.vtkObject</text>
</a>
</g>
<!-- Node8&#45;&gt;Node11 -->
<g id="edge24" class="edge"><title>Node8&#45;&gt;Node11</title>
<path fill="none" stroke="midnightblue" d="M204,-790.516C204,-780.562 204,-769.05 204,-761.028"/>
<polygon fill="midnightblue" stroke="midnightblue" points="200.5,-790.822 204,-800.822 207.5,-790.822 200.5,-790.822"/>
</g>
<!-- Node9 -->
<g id="node16" class="node"><title>Node9</title>
<a xlink:href="class_kitware_1_1_v_t_k_1_1_wrapped_object.html" target="_top" xlink:title="Base class for all the mummy wrapped classes in Kitware.VTK.">
<polygon fill="none" stroke="black" points="342.5,-861 342.5,-881 431.5,-881 431.5,-861 342.5,-861"/>
<text text-anchor="middle" x="387" y="-868" font-family="FreeSans" font-size="10.00">WrappedObject</text>
</a>
</g>
<!-- Node9&#45;&gt;Node8 -->
<g id="edge16" class="edge"><title>Node9&#45;&gt;Node8</title>
<path fill="none" stroke="midnightblue" d="M346.804,-857.821C313.042,-846.752 265.512,-831.168 234.73,-821.075"/>
<polygon fill="midnightblue" stroke="midnightblue" points="345.777,-861.168 356.37,-860.957 347.958,-854.516 345.777,-861.168"/>
</g>
<!-- Node10 -->
<g id="node18" class="node"><title>Node10</title>
<a xlink:href="class_kitware_1_1_v_t_k_1_1vtk_object_event_relay.html" target="_top" xlink:title="Implement a relay handler for VTK events. This is a class that receives events directly from the VTK ...">
<polygon fill="none" stroke="black" points="133,-551 133,-571 305,-571 305,-551 133,-551"/>
<text text-anchor="middle" x="219" y="-558" font-family="FreeSans" font-size="10.00">Kitware.VTK.vtkObjectEventRelay</text>
</a>
</g>
<!-- Node9&#45;&gt;Node10 -->
<g id="edge20" class="edge"><title>Node9&#45;&gt;Node10</title>
<path fill="none" stroke="midnightblue" d="M399.888,-852.325C432.276,-802.899 509.803,-667.191 442,-590 432.773,-579.495 364.047,-571.666 305.298,-566.808"/>
<polygon fill="midnightblue" stroke="midnightblue" points="396.891,-850.509 394.239,-860.767 402.709,-854.402 396.891,-850.509"/>
</g>
<!-- Node10&#45;&gt;Node7 -->
<g id="edge18" class="edge"><title>Node10&#45;&gt;Node7</title>
<path fill="none" stroke="#9a32cd" stroke-dasharray="5,2" d="M210.921,-541.321C194.489,-501.293 157.674,-411.616 145.214,-381.266"/>
<polygon fill="#9a32cd" stroke="#9a32cd" points="207.771,-542.863 214.806,-550.785 214.246,-540.205 207.771,-542.863"/>
<text text-anchor="middle" x="318.5" y="-523" font-family="FreeSans" font-size="10.00"> LeftButtonReleaseEvtRelay</text>
<text text-anchor="middle" x="318.5" y="-511" font-family="FreeSans" font-size="10.00">KeyPressEvtRelay</text>
<text text-anchor="middle" x="318.5" y="-499" font-family="FreeSans" font-size="10.00">DomainModifiedEvtRelay</text>
<text text-anchor="middle" x="318.5" y="-487" font-family="FreeSans" font-size="10.00">VolumeMapperComputeGradientsStartEvtRelay</text>
<text text-anchor="middle" x="318.5" y="-475" font-family="FreeSans" font-size="10.00">ErrorEvtRelay</text>
<text text-anchor="middle" x="318.5" y="-463" font-family="FreeSans" font-size="10.00">VolumeMapperRenderStartEvtRelay</text>
<text text-anchor="middle" x="318.5" y="-451" font-family="FreeSans" font-size="10.00">StartEvtRelay</text>
<text text-anchor="middle" x="318.5" y="-439" font-family="FreeSans" font-size="10.00">ResetCameraEvtRelay</text>
<text text-anchor="middle" x="318.5" y="-427" font-family="FreeSans" font-size="10.00">EnableEvtRelay</text>
<text text-anchor="middle" x="318.5" y="-415" font-family="FreeSans" font-size="10.00">DeleteEvtRelay</text>
<text text-anchor="middle" x="318.5" y="-403" font-family="FreeSans" font-size="10.00">...</text>
</g>
<!-- Node10&#45;&gt;Node11 -->
<g id="edge26" class="edge"><title>Node10&#45;&gt;Node11</title>
<path fill="none" stroke="#9a32cd" stroke-dasharray="5,2" d="M216.028,-581.231C215.649,-584.169 215.293,-587.159 215,-590 209.144,-646.853 205.636,-715.333 204.452,-740.807"/>
<polygon fill="#9a32cd" stroke="#9a32cd" points="219.515,-581.565 217.421,-571.179 212.582,-580.604 219.515,-581.565"/>
<text text-anchor="middle" x="328.5" y="-713" font-family="FreeSans" font-size="10.00"> LeftButtonReleaseEvtRelay</text>
<text text-anchor="middle" x="328.5" y="-701" font-family="FreeSans" font-size="10.00">KeyPressEvtRelay</text>
<text text-anchor="middle" x="328.5" y="-689" font-family="FreeSans" font-size="10.00">DomainModifiedEvtRelay</text>
<text text-anchor="middle" x="328.5" y="-677" font-family="FreeSans" font-size="10.00">VolumeMapperComputeGradientsStartEvtRelay</text>
<text text-anchor="middle" x="328.5" y="-665" font-family="FreeSans" font-size="10.00">ErrorEvtRelay</text>
<text text-anchor="middle" x="328.5" y="-653" font-family="FreeSans" font-size="10.00">VolumeMapperRenderStartEvtRelay</text>
<text text-anchor="middle" x="328.5" y="-641" font-family="FreeSans" font-size="10.00">StartEvtRelay</text>
<text text-anchor="middle" x="328.5" y="-629" font-family="FreeSans" font-size="10.00">ResetCameraEvtRelay</text>
<text text-anchor="middle" x="328.5" y="-617" font-family="FreeSans" font-size="10.00">EnableEvtRelay</text>
<text text-anchor="middle" x="328.5" y="-605" font-family="FreeSans" font-size="10.00">DeleteEvtRelay</text>
<text text-anchor="middle" x="328.5" y="-593" font-family="FreeSans" font-size="10.00">...</text>
</g>
<!-- Node11&#45;&gt;Node10 -->
<g id="edge22" class="edge"><title>Node11&#45;&gt;Node10</title>
<path fill="none" stroke="#9a32cd" stroke-dasharray="5,2" d="M157.979,-735.818C152.439,-732.138 147.51,-727.596 144,-722 112.823,-672.303 110.83,-638.389 144,-590 148.736,-583.091 165.511,-576.287 181.999,-571.008"/>
<polygon fill="#9a32cd" stroke="#9a32cd" points="156.639,-739.079 167.072,-740.919 160.064,-732.974 156.639,-739.079"/>
<text text-anchor="middle" x="168" y="-659" font-family="FreeSans" font-size="10.00"> Sender</text>
<text text-anchor="middle" x="168" y="-647" font-family="FreeSans" font-size="10.00">EventImpl</text>
</g>
</g>
</svg>
