<?xml version="1.0" encoding="UTF-8" standalone="no"?>
<!DOCTYPE svg PUBLIC "-//W3C//DTD SVG 1.1//EN"
 "http://www.w3.org/Graphics/SVG/1.1/DTD/svg11.dtd">
<!-- Generated by graphviz version 2.26.3 (20100126.1600)
 -->
<!-- Title: G Pages: 1 -->
<svg width="1346pt" height="28pt"
 viewBox="0.00 0.00 1346.00 28.00" xmlns="http://www.w3.org/2000/svg" xmlns:xlink="http://www.w3.org/1999/xlink">
<g id="graph1" class="graph" transform="scale(1 1) rotate(0) translate(4 24)">
<title>G</title>
<!-- Node1 -->
<g id="node1" class="node"><title>Node1</title>
<polygon fill="#bfbfbf" stroke="black" points="0,-0 0,-20 274,-20 274,-0 0,-0"/>
<text text-anchor="middle" x="137" y="-7" font-family="FreeSans" font-size="10.00">Kitware.VTK.vtkObject.RemoveAllHandlersForAllEvents</text>
</g>
<!-- Node2 -->
<g id="node3" class="node"><title>Node2</title>
<a xlink:href="classvtk_object_event_relay.html#a4a9e2aefba19e78f25e80dac4c61e7e6" target="_top" xlink:title="RemoveAllHandlers forcibly removes all existing handlers from its list. Sender should call this metho...">
<polygon fill="none" stroke="black" points="310.5,-0 310.5,-20 517.5,-20 517.5,-0 310.5,-0"/>
<text text-anchor="middle" x="414" y="-7" font-family="FreeSans" font-size="10.00">vtkObjectEventRelay.RemoveAllHandlers</text>
</a>
</g>
<!-- Node1&#45;&gt;Node2 -->
<g id="edge2" class="edge"><title>Node1&#45;&gt;Node2</title>
<path fill="none" stroke="midnightblue" d="M274.283,-10C282.985,-10 291.694,-10 300.272,-10"/>
<polygon fill="midnightblue" stroke="midnightblue" points="300.273,-13.5001 310.273,-10 300.273,-6.5001 300.273,-13.5001"/>
</g>
<!-- Node3 -->
<g id="node5" class="node"><title>Node3</title>
<a xlink:href="classvtk_object_event_relay.html#a2f2c24dda11c561ddda97c2e27285f8d" target="_top" xlink:title="vtkObjectEventRelay.CallRemoveObserver">
<polygon fill="none" stroke="black" points="554,-0 554,-20 768,-20 768,-0 554,-0"/>
<text text-anchor="middle" x="661" y="-7" font-family="FreeSans" font-size="10.00">vtkObjectEventRelay.CallRemoveObserver</text>
</a>
</g>
<!-- Node2&#45;&gt;Node3 -->
<g id="edge4" class="edge"><title>Node2&#45;&gt;Node3</title>
<path fill="none" stroke="midnightblue" d="M517.677,-10C526.217,-10 534.887,-10 543.517,-10"/>
<polygon fill="midnightblue" stroke="midnightblue" points="543.621,-13.5001 553.621,-10 543.621,-6.5001 543.621,-13.5001"/>
</g>
<!-- Node4 -->
<g id="node7" class="node"><title>Node4</title>
<a xlink:href="classvtk_object_event_relay.html#a56c6cc0c785de5a11e9327ae0749cbe7" target="_top" xlink:title="vtkObjectEventRelay.RemoveObserver">
<polygon fill="none" stroke="black" points="804.5,-0 804.5,-20 1001.5,-20 1001.5,-0 804.5,-0"/>
<text text-anchor="middle" x="903" y="-7" font-family="FreeSans" font-size="10.00">vtkObjectEventRelay.RemoveObserver</text>
</a>
</g>
<!-- Node3&#45;&gt;Node4 -->
<g id="edge6" class="edge"><title>Node3&#45;&gt;Node4</title>
<path fill="none" stroke="midnightblue" d="M768.202,-10C776.834,-10 785.562,-10 794.205,-10"/>
<polygon fill="midnightblue" stroke="midnightblue" points="794.303,-13.5001 804.303,-10 794.303,-6.5001 794.303,-13.5001"/>
</g>
<!-- Node5 -->
<g id="node9" class="node"><title>Node5</title>
<a xlink:href="classvtk_object_event_relay.html#a90748605e39608c46f67844b608d2ad6" target="_top" xlink:title="vtkObjectEventRelay.vtkObjectEventRelay_RemoveObserver">
<polygon fill="none" stroke="black" points="1038.5,-0 1038.5,-20 1337.5,-20 1337.5,-0 1038.5,-0"/>
<text text-anchor="middle" x="1188" y="-7" font-family="FreeSans" font-size="10.00">vtkObjectEventRelay.vtkObjectEventRelay_RemoveObserver</text>
</a>
</g>
<!-- Node4&#45;&gt;Node5 -->
<g id="edge8" class="edge"><title>Node4&#45;&gt;Node5</title>
<path fill="none" stroke="midnightblue" d="M1001.88,-10C1010.46,-10 1019.28,-10 1028.2,-10"/>
<polygon fill="midnightblue" stroke="midnightblue" points="1028.29,-13.5001 1038.29,-10 1028.29,-6.5001 1028.29,-13.5001"/>
</g>
</g>
</svg>
