<?xml version="1.0" encoding="UTF-8" standalone="no"?>
<!DOCTYPE svg PUBLIC "-//W3C//DTD SVG 1.1//EN"
 "http://www.w3.org/Graphics/SVG/1.1/DTD/svg11.dtd">
<!-- Generated by graphviz version 2.26.3 (20100126.1600)
 -->
<!-- Title: G Pages: 1 -->
<svg width="427pt" height="830pt"
 viewBox="0.00 0.00 427.46 830.00" xmlns="http://www.w3.org/2000/svg" xmlns:xlink="http://www.w3.org/1999/xlink">
<g id="graph1" class="graph" transform="scale(1 1) rotate(0) translate(4 826)">
<title>G</title>
<!-- Node1 -->
<g id="node1" class="node"><title>Node1</title>
<polygon fill="#bfbfbf" stroke="black" points="0,-1 0,-21 182,-21 182,-1 0,-1"/>
<text text-anchor="middle" x="91" y="-8" font-family="FreeSans" font-size="10.00">Kitware.VTK.vtkImageToImageFilter</text>
</g>
<!-- Node2 -->
<g id="node2" class="node"><title>Node2</title>
<a xlink:href="class_kitware_1_1_v_t_k_1_1vtk_image_source.html" target="_top" xlink:title="vtkImageSource &#45; Source of data for the imaging pipeline">
<polygon fill="none" stroke="black" points="43.5,-61 43.5,-81 138.5,-81 138.5,-61 43.5,-61"/>
<text text-anchor="middle" x="91" y="-68" font-family="FreeSans" font-size="10.00">vtkImageSource</text>
</a>
</g>
<!-- Node2&#45;&gt;Node1 -->
<g id="edge2" class="edge"><title>Node2&#45;&gt;Node1</title>
<path fill="none" stroke="midnightblue" d="M91,-50.5155C91,-40.562 91,-29.0495 91,-21.0279"/>
<polygon fill="midnightblue" stroke="midnightblue" points="87.5001,-50.8218 91,-60.8218 94.5001,-50.8219 87.5001,-50.8218"/>
</g>
<!-- Node3 -->
<g id="node4" class="node"><title>Node3</title>
<a xlink:href="class_kitware_1_1_v_t_k_1_1vtk_source.html" target="_top" xlink:title="vtkSource &#45; abstract class specifies interface for visualization network source">
<polygon fill="none" stroke="black" points="58.5,-121 58.5,-141 123.5,-141 123.5,-121 58.5,-121"/>
<text text-anchor="middle" x="91" y="-128" font-family="FreeSans" font-size="10.00">vtkSource</text>
</a>
</g>
<!-- Node3&#45;&gt;Node2 -->
<g id="edge4" class="edge"><title>Node3&#45;&gt;Node2</title>
<path fill="none" stroke="midnightblue" d="M91,-110.516C91,-100.562 91,-89.0495 91,-81.0279"/>
<polygon fill="midnightblue" stroke="midnightblue" points="87.5001,-110.822 91,-120.822 94.5001,-110.822 87.5001,-110.822"/>
</g>
<!-- Node4 -->
<g id="node6" class="node"><title>Node4</title>
<a xlink:href="class_kitware_1_1_v_t_k_1_1vtk_process_object.html" target="_top" xlink:title="vtkProcessObject &#45; abstract class specifies interface for visualization filters">
<polygon fill="none" stroke="black" points="41.5,-181 41.5,-201 140.5,-201 140.5,-181 41.5,-181"/>
<text text-anchor="middle" x="91" y="-188" font-family="FreeSans" font-size="10.00">vtkProcessObject</text>
</a>
</g>
<!-- Node4&#45;&gt;Node3 -->
<g id="edge6" class="edge"><title>Node4&#45;&gt;Node3</title>
<path fill="none" stroke="midnightblue" d="M91,-170.516C91,-160.562 91,-149.05 91,-141.028"/>
<polygon fill="midnightblue" stroke="midnightblue" points="87.5001,-170.822 91,-180.822 94.5001,-170.822 87.5001,-170.822"/>
</g>
<!-- Node5 -->
<g id="node8" class="node"><title>Node5</title>
<a xlink:href="class_kitware_1_1_v_t_k_1_1vtk_algorithm.html" target="_top" xlink:title="vtkAlgorithm &#45; Superclass for all sources, filters, and sinks in VTK.">
<polygon fill="none" stroke="black" points="52.5,-241 52.5,-261 129.5,-261 129.5,-241 52.5,-241"/>
<text text-anchor="middle" x="91" y="-248" font-family="FreeSans" font-size="10.00">vtkAlgorithm</text>
</a>
</g>
<!-- Node5&#45;&gt;Node4 -->
<g id="edge8" class="edge"><title>Node5&#45;&gt;Node4</title>
<path fill="none" stroke="midnightblue" d="M91,-230.516C91,-220.562 91,-209.05 91,-201.028"/>
<polygon fill="midnightblue" stroke="midnightblue" points="87.5001,-230.822 91,-240.822 94.5001,-230.822 87.5001,-230.822"/>
</g>
<!-- Node6 -->
<g id="node10" class="node"><title>Node6</title>
<a xlink:href="class_kitware_1_1_v_t_k_1_1vtk_object.html" target="_top" xlink:title="vtkObject &#45; abstract base class for most VTK objects">
<polygon fill="none" stroke="black" points="60,-301 60,-321 122,-321 122,-301 60,-301"/>
<text text-anchor="middle" x="91" y="-308" font-family="FreeSans" font-size="10.00">vtkObject</text>
</a>
</g>
<!-- Node6&#45;&gt;Node5 -->
<g id="edge10" class="edge"><title>Node6&#45;&gt;Node5</title>
<path fill="none" stroke="midnightblue" d="M91,-290.516C91,-280.562 91,-269.05 91,-261.028"/>
<polygon fill="midnightblue" stroke="midnightblue" points="87.5001,-290.822 91,-300.822 94.5001,-290.822 87.5001,-290.822"/>
</g>
<!-- Node7 -->
<g id="node12" class="node"><title>Node7</title>
<a xlink:href="class_kitware_1_1_v_t_k_1_1vtk_object_base.html" target="_top" xlink:title="vtkObjectBase &#45; abstract base class for most VTK objects">
<polygon fill="none" stroke="black" points="111,-741 111,-761 197,-761 197,-741 111,-741"/>
<text text-anchor="middle" x="154" y="-748" font-family="FreeSans" font-size="10.00">vtkObjectBase</text>
</a>
</g>
<!-- Node7&#45;&gt;Node6 -->
<g id="edge12" class="edge"><title>Node7&#45;&gt;Node6</title>
<path fill="none" stroke="midnightblue" d="M125.423,-735.886C111.687,-727.44 95.8844,-715.826 85,-702 73.1564,-686.955 72.6209,-680.802 69,-662 43.4248,-529.199 78.5766,-363.437 88.5155,-321.17"/>
<polygon fill="midnightblue" stroke="midnightblue" points="123.683,-738.923 134.079,-740.97 127.229,-732.887 123.683,-738.923"/>
</g>
<!-- Node10 -->
<g id="node19" class="node"><title>Node10</title>
<a xlink:href="class_kitware_1_1_v_t_k_1_1vtk_object.html" target="_top" xlink:title="vtkObject &#45; abstract base class for most VTK objects">
<polygon fill="none" stroke="black" points="94,-681 94,-701 214,-701 214,-681 94,-681"/>
<text text-anchor="middle" x="154" y="-688" font-family="FreeSans" font-size="10.00">Kitware.VTK.vtkObject</text>
</a>
</g>
<!-- Node7&#45;&gt;Node10 -->
<g id="edge22" class="edge"><title>Node7&#45;&gt;Node10</title>
<path fill="none" stroke="midnightblue" d="M154,-730.516C154,-720.562 154,-709.05 154,-701.028"/>
<polygon fill="midnightblue" stroke="midnightblue" points="150.5,-730.822 154,-740.822 157.5,-730.822 150.5,-730.822"/>
</g>
<!-- Node8 -->
<g id="node14" class="node"><title>Node8</title>
<a xlink:href="class_kitware_1_1_v_t_k_1_1_wrapped_object.html" target="_top" xlink:title="Base class for all the mummy wrapped classes in Kitware.VTK.">
<polygon fill="none" stroke="black" points="292.5,-801 292.5,-821 381.5,-821 381.5,-801 292.5,-801"/>
<text text-anchor="middle" x="337" y="-808" font-family="FreeSans" font-size="10.00">WrappedObject</text>
</a>
</g>
<!-- Node8&#45;&gt;Node7 -->
<g id="edge14" class="edge"><title>Node8&#45;&gt;Node7</title>
<path fill="none" stroke="midnightblue" d="M296.804,-797.821C263.042,-786.752 215.512,-771.168 184.73,-761.075"/>
<polygon fill="midnightblue" stroke="midnightblue" points="295.777,-801.168 306.37,-800.957 297.958,-794.516 295.777,-801.168"/>
</g>
<!-- Node9 -->
<g id="node16" class="node"><title>Node9</title>
<a xlink:href="class_kitware_1_1_v_t_k_1_1vtk_object_event_relay.html" target="_top" xlink:title="Implement a relay handler for VTK events. This is a class that receives events directly from the VTK ...">
<polygon fill="none" stroke="black" points="83,-491 83,-511 255,-511 255,-491 83,-491"/>
<text text-anchor="middle" x="169" y="-498" font-family="FreeSans" font-size="10.00">Kitware.VTK.vtkObjectEventRelay</text>
</a>
</g>
<!-- Node8&#45;&gt;Node9 -->
<g id="edge18" class="edge"><title>Node8&#45;&gt;Node9</title>
<path fill="none" stroke="midnightblue" d="M349.888,-792.325C382.276,-742.899 459.803,-607.191 392,-530 382.773,-519.495 314.047,-511.666 255.298,-506.808"/>
<polygon fill="midnightblue" stroke="midnightblue" points="346.891,-790.509 344.239,-800.767 352.709,-794.402 346.891,-790.509"/>
</g>
<!-- Node9&#45;&gt;Node6 -->
<g id="edge16" class="edge"><title>Node9&#45;&gt;Node6</title>
<path fill="none" stroke="#9a32cd" stroke-dasharray="5,2" d="M160.921,-481.321C144.489,-441.293 107.674,-351.616 95.2144,-321.266"/>
<polygon fill="#9a32cd" stroke="#9a32cd" points="157.771,-482.863 164.806,-490.785 164.246,-480.205 157.771,-482.863"/>
<text text-anchor="middle" x="268.5" y="-463" font-family="FreeSans" font-size="10.00"> LeftButtonReleaseEvtRelay</text>
<text text-anchor="middle" x="268.5" y="-451" font-family="FreeSans" font-size="10.00">KeyPressEvtRelay</text>
<text text-anchor="middle" x="268.5" y="-439" font-family="FreeSans" font-size="10.00">DomainModifiedEvtRelay</text>
<text text-anchor="middle" x="268.5" y="-427" font-family="FreeSans" font-size="10.00">VolumeMapperComputeGradientsStartEvtRelay</text>
<text text-anchor="middle" x="268.5" y="-415" font-family="FreeSans" font-size="10.00">ErrorEvtRelay</text>
<text text-anchor="middle" x="268.5" y="-403" font-family="FreeSans" font-size="10.00">VolumeMapperRenderStartEvtRelay</text>
<text text-anchor="middle" x="268.5" y="-391" font-family="FreeSans" font-size="10.00">StartEvtRelay</text>
<text text-anchor="middle" x="268.5" y="-379" font-family="FreeSans" font-size="10.00">ResetCameraEvtRelay</text>
<text text-anchor="middle" x="268.5" y="-367" font-family="FreeSans" font-size="10.00">EnableEvtRelay</text>
<text text-anchor="middle" x="268.5" y="-355" font-family="FreeSans" font-size="10.00">DeleteEvtRelay</text>
<text text-anchor="middle" x="268.5" y="-343" font-family="FreeSans" font-size="10.00">...</text>
</g>
<!-- Node9&#45;&gt;Node10 -->
<g id="edge24" class="edge"><title>Node9&#45;&gt;Node10</title>
<path fill="none" stroke="#9a32cd" stroke-dasharray="5,2" d="M166.028,-521.231C165.649,-524.169 165.293,-527.159 165,-530 159.144,-586.853 155.636,-655.333 154.452,-680.807"/>
<polygon fill="#9a32cd" stroke="#9a32cd" points="169.515,-521.565 167.421,-511.179 162.582,-520.604 169.515,-521.565"/>
<text text-anchor="middle" x="278.5" y="-653" font-family="FreeSans" font-size="10.00"> LeftButtonReleaseEvtRelay</text>
<text text-anchor="middle" x="278.5" y="-641" font-family="FreeSans" font-size="10.00">KeyPressEvtRelay</text>
<text text-anchor="middle" x="278.5" y="-629" font-family="FreeSans" font-size="10.00">DomainModifiedEvtRelay</text>
<text text-anchor="middle" x="278.5" y="-617" font-family="FreeSans" font-size="10.00">VolumeMapperComputeGradientsStartEvtRelay</text>
<text text-anchor="middle" x="278.5" y="-605" font-family="FreeSans" font-size="10.00">ErrorEvtRelay</text>
<text text-anchor="middle" x="278.5" y="-593" font-family="FreeSans" font-size="10.00">VolumeMapperRenderStartEvtRelay</text>
<text text-anchor="middle" x="278.5" y="-581" font-family="FreeSans" font-size="10.00">StartEvtRelay</text>
<text text-anchor="middle" x="278.5" y="-569" font-family="FreeSans" font-size="10.00">ResetCameraEvtRelay</text>
<text text-anchor="middle" x="278.5" y="-557" font-family="FreeSans" font-size="10.00">EnableEvtRelay</text>
<text text-anchor="middle" x="278.5" y="-545" font-family="FreeSans" font-size="10.00">DeleteEvtRelay</text>
<text text-anchor="middle" x="278.5" y="-533" font-family="FreeSans" font-size="10.00">...</text>
</g>
<!-- Node10&#45;&gt;Node9 -->
<g id="edge20" class="edge"><title>Node10&#45;&gt;Node9</title>
<path fill="none" stroke="#9a32cd" stroke-dasharray="5,2" d="M107.979,-675.818C102.439,-672.138 97.5104,-667.596 94,-662 62.8229,-612.303 60.8299,-578.389 94,-530 98.7359,-523.091 115.511,-516.287 131.999,-511.008"/>
<polygon fill="#9a32cd" stroke="#9a32cd" points="106.639,-679.079 117.072,-680.919 110.064,-672.974 106.639,-679.079"/>
<text text-anchor="middle" x="118" y="-599" font-family="FreeSans" font-size="10.00"> Sender</text>
<text text-anchor="middle" x="118" y="-587" font-family="FreeSans" font-size="10.00">EventImpl</text>
</g>
</g>
</svg>
