<?xml version="1.0" encoding="UTF-8" standalone="no"?>
<!DOCTYPE svg PUBLIC "-//W3C//DTD SVG 1.1//EN"
 "http://www.w3.org/Graphics/SVG/1.1/DTD/svg11.dtd">
<!-- Generated by graphviz version 2.26.3 (20100126.1600)
 -->
<!-- Title: G Pages: 1 -->
<svg width="408pt" height="320pt"
 viewBox="0.00 0.00 408.00 320.00" xmlns="http://www.w3.org/2000/svg" xmlns:xlink="http://www.w3.org/1999/xlink">
<g id="graph1" class="graph" transform="scale(1 1) rotate(0) translate(4 316)">
<title>G</title>
<!-- Node1 -->
<g id="node1" class="node"><title>Node1</title>
<polygon fill="#bfbfbf" stroke="black" points="107.5,-59 107.5,-79 334.5,-79 334.5,-59 107.5,-59"/>
<text text-anchor="middle" x="221" y="-66" font-family="FreeSans" font-size="10.00">Kitware.VTK.vtkCompositeDataSetAlgorithm</text>
</g>
<!-- Node6 -->
<g id="node11" class="node"><title>Node6</title>
<a xlink:href="class_kitware_1_1_v_t_k_1_1vtk_append_composite_data_leaves.html" target="_top" xlink:title="vtkAppendCompositeDataLeaves &#45; appends one or more composite datasets with the same structure togethe...">
<polygon fill="none" stroke="black" points="-0.5,-1 -0.5,-21 234.5,-21 234.5,-1 -0.5,-1"/>
<text text-anchor="middle" x="117" y="-8" font-family="FreeSans" font-size="10.00">Kitware.VTK.vtkAppendCompositeDataLeaves</text>
</a>
</g>
<!-- Node1&#45;&gt;Node6 -->
<g id="edge10" class="edge"><title>Node1&#45;&gt;Node6</title>
<path fill="none" stroke="midnightblue" d="M194.055,-53.9728C175.569,-43.6634 151.532,-30.2582 135.257,-21.1817"/>
<polygon fill="midnightblue" stroke="midnightblue" points="192.446,-57.0832 202.885,-58.8972 195.856,-50.9697 192.446,-57.0832"/>
</g>
<!-- Node7 -->
<g id="node13" class="node"><title>Node7</title>
<a xlink:href="class_kitware_1_1_v_t_k_1_1vtk_extract_piece.html" target="_top" xlink:title="vtkExtractPiece">
<polygon fill="none" stroke="black" points="251.5,-1 251.5,-21 400.5,-21 400.5,-1 251.5,-1"/>
<text text-anchor="middle" x="326" y="-8" font-family="FreeSans" font-size="10.00">Kitware.VTK.vtkExtractPiece</text>
</a>
</g>
<!-- Node1&#45;&gt;Node7 -->
<g id="edge12" class="edge"><title>Node1&#45;&gt;Node7</title>
<path fill="none" stroke="midnightblue" d="M248.204,-53.9728C266.868,-43.6634 291.136,-30.2582 307.568,-21.1817"/>
<polygon fill="midnightblue" stroke="midnightblue" points="246.351,-50.9983 239.29,-58.8972 249.735,-57.1256 246.351,-50.9983"/>
</g>
<!-- Node2 -->
<g id="node2" class="node"><title>Node2</title>
<a xlink:href="class_kitware_1_1_v_t_k_1_1vtk_algorithm.html" target="_top" xlink:title="vtkAlgorithm &#45; Superclass for all sources, filters, and sinks in VTK.">
<polygon fill="none" stroke="black" points="182.5,-117 182.5,-137 259.5,-137 259.5,-117 182.5,-117"/>
<text text-anchor="middle" x="221" y="-124" font-family="FreeSans" font-size="10.00">vtkAlgorithm</text>
</a>
</g>
<!-- Node2&#45;&gt;Node1 -->
<g id="edge2" class="edge"><title>Node2&#45;&gt;Node1</title>
<path fill="none" stroke="midnightblue" d="M221,-106.89C221,-97.6201 221,-87.0083 221,-79.3776"/>
<polygon fill="midnightblue" stroke="midnightblue" points="217.5,-106.897 221,-116.897 224.5,-106.897 217.5,-106.897"/>
</g>
<!-- Node3 -->
<g id="node4" class="node"><title>Node3</title>
<a xlink:href="class_kitware_1_1_v_t_k_1_1vtk_object.html" target="_top" xlink:title="vtkObject &#45; abstract base class for most VTK objects">
<polygon fill="none" stroke="black" points="190,-175 190,-195 252,-195 252,-175 190,-175"/>
<text text-anchor="middle" x="221" y="-182" font-family="FreeSans" font-size="10.00">vtkObject</text>
</a>
</g>
<!-- Node3&#45;&gt;Node2 -->
<g id="edge4" class="edge"><title>Node3&#45;&gt;Node2</title>
<path fill="none" stroke="midnightblue" d="M221,-164.89C221,-155.62 221,-145.008 221,-137.378"/>
<polygon fill="midnightblue" stroke="midnightblue" points="217.5,-164.897 221,-174.897 224.5,-164.897 217.5,-164.897"/>
</g>
<!-- Node4 -->
<g id="node6" class="node"><title>Node4</title>
<a xlink:href="class_kitware_1_1_v_t_k_1_1vtk_object_base.html" target="_top" xlink:title="vtkObjectBase &#45; abstract base class for most VTK objects">
<polygon fill="none" stroke="black" points="178,-233 178,-253 264,-253 264,-233 178,-233"/>
<text text-anchor="middle" x="221" y="-240" font-family="FreeSans" font-size="10.00">vtkObjectBase</text>
</a>
</g>
<!-- Node4&#45;&gt;Node3 -->
<g id="edge6" class="edge"><title>Node4&#45;&gt;Node3</title>
<path fill="none" stroke="midnightblue" d="M221,-222.89C221,-213.62 221,-203.008 221,-195.378"/>
<polygon fill="midnightblue" stroke="midnightblue" points="217.5,-222.897 221,-232.897 224.5,-222.897 217.5,-222.897"/>
</g>
<!-- Node5 -->
<g id="node8" class="node"><title>Node5</title>
<a xlink:href="class_kitware_1_1_v_t_k_1_1_wrapped_object.html" target="_top" xlink:title="Base class for all the mummy wrapped classes in Kitware.VTK.">
<polygon fill="none" stroke="black" points="176.5,-291 176.5,-311 265.5,-311 265.5,-291 176.5,-291"/>
<text text-anchor="middle" x="221" y="-298" font-family="FreeSans" font-size="10.00">WrappedObject</text>
</a>
</g>
<!-- Node5&#45;&gt;Node4 -->
<g id="edge8" class="edge"><title>Node5&#45;&gt;Node4</title>
<path fill="none" stroke="midnightblue" d="M221,-280.89C221,-271.62 221,-261.008 221,-253.378"/>
<polygon fill="midnightblue" stroke="midnightblue" points="217.5,-280.897 221,-290.897 224.5,-280.897 217.5,-280.897"/>
</g>
</g>
</svg>
