<?xml version="1.0" encoding="UTF-8" standalone="no"?>
<!DOCTYPE svg PUBLIC "-//W3C//DTD SVG 1.1//EN"
 "http://www.w3.org/Graphics/SVG/1.1/DTD/svg11.dtd">
<!-- Generated by graphviz version 2.26.3 (20100126.1600)
 -->
<!-- Title: G Pages: 1 -->
<svg width="1016pt" height="503pt"
 viewBox="0.00 0.00 1016.00 503.00" xmlns="http://www.w3.org/2000/svg" xmlns:xlink="http://www.w3.org/1999/xlink">
<g id="graph1" class="graph" transform="scale(1 1) rotate(0) translate(4 499)">
<title>G</title>
<!-- Node1 -->
<g id="node1" class="node"><title>Node1</title>
<polygon fill="#bfbfbf" stroke="black" points="436.5,-190 436.5,-210 561.5,-210 561.5,-190 436.5,-190"/>
<text text-anchor="middle" x="499" y="-197" font-family="FreeSans" font-size="10.00">Kitware.VTK.vtkProp3D</text>
</g>
<!-- Node6 -->
<g id="node11" class="node"><title>Node6</title>
<a xlink:href="class_kitware_1_1_v_t_k_1_1vtk_actor.html" target="_top" xlink:title="vtkActor &#45; represents an object (geometry &amp; properties) in a rendered scene">
<polygon fill="none" stroke="black" points="635.5,-380 635.5,-400 750.5,-400 750.5,-380 635.5,-380"/>
<text text-anchor="middle" x="693" y="-387" font-family="FreeSans" font-size="10.00">Kitware.VTK.vtkActor</text>
</a>
</g>
<!-- Node1&#45;&gt;Node6 -->
<g id="edge10" class="edge"><title>Node1&#45;&gt;Node6</title>
<path fill="none" stroke="midnightblue" d="M504.567,-219.969C515.778,-256.259 544.678,-332.796 598,-371 608.801,-378.739 621.983,-383.511 635.047,-386.41"/>
<polygon fill="midnightblue" stroke="midnightblue" points="507.837,-218.685 501.647,-210.086 501.124,-220.668 507.837,-218.685"/>
</g>
<!-- Node13 -->
<g id="node25" class="node"><title>Node13</title>
<a xlink:href="class_kitware_1_1_v_t_k_1_1vtk_annotated_cube_actor.html" target="_top" xlink:title="vtkAnnotatedCubeActor &#45; a 3D cube with face labels">
<polygon fill="none" stroke="black" points="598,-342 598,-362 788,-362 788,-342 598,-342"/>
<text text-anchor="middle" x="693" y="-349" font-family="FreeSans" font-size="10.00">Kitware.VTK.vtkAnnotatedCubeActor</text>
</a>
</g>
<!-- Node1&#45;&gt;Node13 -->
<g id="edge24" class="edge"><title>Node1&#45;&gt;Node13</title>
<path fill="none" stroke="midnightblue" d="M507.822,-219.656C522.202,-249.288 553.612,-304.913 598,-333 603.685,-336.597 609.913,-339.534 616.376,-341.93"/>
<polygon fill="midnightblue" stroke="midnightblue" points="510.87,-217.912 503.453,-210.347 504.533,-220.886 510.87,-217.912"/>
</g>
<!-- Node14 -->
<g id="node27" class="node"><title>Node14</title>
<a xlink:href="class_kitware_1_1_v_t_k_1_1vtk_assembly.html" target="_top" xlink:title="vtkAssembly &#45; create hierarchies of vtkProp3Ds (transformable props)">
<polygon fill="none" stroke="black" points="625,-304 625,-324 761,-324 761,-304 625,-304"/>
<text text-anchor="middle" x="693" y="-311" font-family="FreeSans" font-size="10.00">Kitware.VTK.vtkAssembly</text>
</a>
</g>
<!-- Node1&#45;&gt;Node14 -->
<g id="edge26" class="edge"><title>Node1&#45;&gt;Node14</title>
<path fill="none" stroke="midnightblue" d="M512.702,-218.42C530.033,-240.303 561.994,-276.205 598,-295 606.35,-299.359 615.593,-302.719 624.938,-305.311"/>
<polygon fill="midnightblue" stroke="midnightblue" points="515.28,-216.032 506.399,-210.255 509.739,-220.309 515.28,-216.032"/>
</g>
<!-- Node15 -->
<g id="node29" class="node"><title>Node15</title>
<a xlink:href="class_kitware_1_1_v_t_k_1_1vtk_axes_actor.html" target="_top" xlink:title="vtkAxesActor &#45; a 3D axes representation">
<polygon fill="none" stroke="black" points="624,-266 624,-286 762,-286 762,-266 624,-266"/>
<text text-anchor="middle" x="693" y="-273" font-family="FreeSans" font-size="10.00">Kitware.VTK.vtkAxesActor</text>
</a>
</g>
<!-- Node1&#45;&gt;Node15 -->
<g id="edge28" class="edge"><title>Node1&#45;&gt;Node15</title>
<path fill="none" stroke="midnightblue" d="M521.461,-215.781C540.871,-228.704 570.118,-246.508 598,-257 607.524,-260.584 617.852,-263.535 628.073,-265.952"/>
<polygon fill="midnightblue" stroke="midnightblue" points="523.264,-212.775 513.024,-210.057 519.334,-218.568 523.264,-212.775"/>
</g>
<!-- Node16 -->
<g id="node31" class="node"><title>Node16</title>
<a xlink:href="class_kitware_1_1_v_t_k_1_1vtk_camera_actor.html" target="_top" xlink:title="vtkCameraActor &#45; a frustum to represent a camera.">
<polygon fill="none" stroke="black" points="616.5,-228 616.5,-248 769.5,-248 769.5,-228 616.5,-228"/>
<text text-anchor="middle" x="693" y="-235" font-family="FreeSans" font-size="10.00">Kitware.VTK.vtkCameraActor</text>
</a>
</g>
<!-- Node1&#45;&gt;Node16 -->
<g id="edge30" class="edge"><title>Node1&#45;&gt;Node16</title>
<path fill="none" stroke="midnightblue" d="M560.079,-211.964C586.364,-217.113 616.747,-223.064 641.825,-227.976"/>
<polygon fill="midnightblue" stroke="midnightblue" points="560.711,-208.521 550.225,-210.034 559.366,-215.391 560.711,-208.521"/>
</g>
<!-- Node17 -->
<g id="node33" class="node"><title>Node17</title>
<a xlink:href="class_kitware_1_1_v_t_k_1_1vtk_image_actor.html" target="_top" xlink:title="vtkImageActor &#45; draw an image (data &amp; properties) in a rendered 3D scene">
<polygon fill="none" stroke="black" points="620.5,-190 620.5,-210 765.5,-210 765.5,-190 620.5,-190"/>
<text text-anchor="middle" x="693" y="-197" font-family="FreeSans" font-size="10.00">Kitware.VTK.vtkImageActor</text>
</a>
</g>
<!-- Node1&#45;&gt;Node17 -->
<g id="edge32" class="edge"><title>Node1&#45;&gt;Node17</title>
<path fill="none" stroke="midnightblue" d="M571.973,-200C587.808,-200 604.554,-200 620.375,-200"/>
<polygon fill="midnightblue" stroke="midnightblue" points="571.718,-196.5 561.718,-200 571.718,-203.5 571.718,-196.5"/>
</g>
<!-- Node19 -->
<g id="node37" class="node"><title>Node19</title>
<a xlink:href="class_kitware_1_1_v_t_k_1_1vtk_light_actor.html" target="_top" xlink:title="vtkLightActor &#45; a cone and a frustum to represent a spotlight.">
<polygon fill="none" stroke="black" points="624,-152 624,-172 762,-172 762,-152 624,-152"/>
<text text-anchor="middle" x="693" y="-159" font-family="FreeSans" font-size="10.00">Kitware.VTK.vtkLightActor</text>
</a>
</g>
<!-- Node1&#45;&gt;Node19 -->
<g id="edge36" class="edge"><title>Node1&#45;&gt;Node19</title>
<path fill="none" stroke="midnightblue" d="M560.079,-188.036C586.364,-182.887 616.747,-176.936 641.825,-172.024"/>
<polygon fill="midnightblue" stroke="midnightblue" points="559.366,-184.609 550.225,-189.966 560.711,-191.479 559.366,-184.609"/>
</g>
<!-- Node20 -->
<g id="node39" class="node"><title>Node20</title>
<a xlink:href="class_kitware_1_1_v_t_k_1_1vtk_l_o_d_prop3_d.html" target="_top" xlink:title="vtkLODProp3D &#45; level of detail 3D prop">
<polygon fill="none" stroke="black" points="620.5,-114 620.5,-134 765.5,-134 765.5,-114 620.5,-114"/>
<text text-anchor="middle" x="693" y="-121" font-family="FreeSans" font-size="10.00">Kitware.VTK.vtkLODProp3D</text>
</a>
</g>
<!-- Node1&#45;&gt;Node20 -->
<g id="edge38" class="edge"><title>Node1&#45;&gt;Node20</title>
<path fill="none" stroke="midnightblue" d="M521.461,-184.219C540.871,-171.296 570.118,-153.492 598,-143 607.524,-139.416 617.852,-136.465 628.073,-134.048"/>
<polygon fill="midnightblue" stroke="midnightblue" points="519.334,-181.432 513.024,-189.943 523.264,-187.225 519.334,-181.432"/>
</g>
<!-- Node21 -->
<g id="node41" class="node"><title>Node21</title>
<a xlink:href="class_kitware_1_1_v_t_k_1_1vtk_prop3_d_follower.html" target="_top" xlink:title="vtkProp3DFollower &#45; a vtkProp3D that always faces the camera">
<polygon fill="none" stroke="black" points="611.5,-76 611.5,-96 774.5,-96 774.5,-76 611.5,-76"/>
<text text-anchor="middle" x="693" y="-83" font-family="FreeSans" font-size="10.00">Kitware.VTK.vtkProp3DFollower</text>
</a>
</g>
<!-- Node1&#45;&gt;Node21 -->
<g id="edge40" class="edge"><title>Node1&#45;&gt;Node21</title>
<path fill="none" stroke="midnightblue" d="M512.702,-181.58C530.033,-159.697 561.994,-123.795 598,-105 604.859,-101.42 612.32,-98.5126 619.946,-96.1524"/>
<polygon fill="midnightblue" stroke="midnightblue" points="509.739,-179.691 506.399,-189.745 515.28,-183.968 509.739,-179.691"/>
</g>
<!-- Node22 -->
<g id="node43" class="node"><title>Node22</title>
<a xlink:href="class_kitware_1_1_v_t_k_1_1vtk_text_actor3_d.html" target="_top" xlink:title="vtkTextActor3D &#45; An actor that displays text.">
<polygon fill="none" stroke="black" points="619.5,-38 619.5,-58 766.5,-58 766.5,-38 619.5,-38"/>
<text text-anchor="middle" x="693" y="-45" font-family="FreeSans" font-size="10.00">Kitware.VTK.vtkTextActor3D</text>
</a>
</g>
<!-- Node1&#45;&gt;Node22 -->
<g id="edge42" class="edge"><title>Node1&#45;&gt;Node22</title>
<path fill="none" stroke="midnightblue" d="M507.822,-180.344C522.202,-150.712 553.612,-95.0868 598,-67 604.538,-62.863 611.794,-59.5992 619.298,-57.0285"/>
<polygon fill="midnightblue" stroke="midnightblue" points="504.533,-179.114 503.453,-189.653 510.87,-182.088 504.533,-179.114"/>
</g>
<!-- Node23 -->
<g id="node45" class="node"><title>Node23</title>
<a xlink:href="class_kitware_1_1_v_t_k_1_1vtk_volume.html" target="_top" xlink:title="vtkVolume &#45; represents a volume (data &amp; properties) in a rendered scene">
<polygon fill="none" stroke="black" points="630.5,-0 630.5,-20 755.5,-20 755.5,-0 630.5,-0"/>
<text text-anchor="middle" x="693" y="-7" font-family="FreeSans" font-size="10.00">Kitware.VTK.vtkVolume</text>
</a>
</g>
<!-- Node1&#45;&gt;Node23 -->
<g id="edge44" class="edge"><title>Node1&#45;&gt;Node23</title>
<path fill="none" stroke="midnightblue" d="M504.567,-180.031C515.778,-143.741 544.678,-67.2039 598,-29 607.434,-22.2407 618.684,-17.7448 630.086,-14.7832"/>
<polygon fill="midnightblue" stroke="midnightblue" points="501.124,-179.332 501.647,-189.914 507.837,-181.315 501.124,-179.332"/>
</g>
<!-- Node2 -->
<g id="node2" class="node"><title>Node2</title>
<a xlink:href="class_kitware_1_1_v_t_k_1_1vtk_prop.html" target="_top" xlink:title="vtkProp &#45; abstract superclass for all actors, volumes and annotations">
<polygon fill="none" stroke="black" points="346.5,-190 346.5,-210 399.5,-210 399.5,-190 346.5,-190"/>
<text text-anchor="middle" x="373" y="-197" font-family="FreeSans" font-size="10.00">vtkProp</text>
</a>
</g>
<!-- Node2&#45;&gt;Node1 -->
<g id="edge2" class="edge"><title>Node2&#45;&gt;Node1</title>
<path fill="none" stroke="midnightblue" d="M409.818,-200C418.147,-200 427.219,-200 436.283,-200"/>
<polygon fill="midnightblue" stroke="midnightblue" points="409.721,-196.5 399.721,-200 409.721,-203.5 409.721,-196.5"/>
</g>
<!-- Node3 -->
<g id="node4" class="node"><title>Node3</title>
<a xlink:href="class_kitware_1_1_v_t_k_1_1vtk_object.html" target="_top" xlink:title="vtkObject &#45; abstract base class for most VTK objects">
<polygon fill="none" stroke="black" points="248,-190 248,-210 310,-210 310,-190 248,-190"/>
<text text-anchor="middle" x="279" y="-197" font-family="FreeSans" font-size="10.00">vtkObject</text>
</a>
</g>
<!-- Node3&#45;&gt;Node2 -->
<g id="edge4" class="edge"><title>Node3&#45;&gt;Node2</title>
<path fill="none" stroke="midnightblue" d="M320.248,-200C329.119,-200 338.267,-200 346.403,-200"/>
<polygon fill="midnightblue" stroke="midnightblue" points="320.04,-196.5 310.04,-200 320.04,-203.5 320.04,-196.5"/>
</g>
<!-- Node4 -->
<g id="node6" class="node"><title>Node4</title>
<a xlink:href="class_kitware_1_1_v_t_k_1_1vtk_object_base.html" target="_top" xlink:title="vtkObjectBase &#45; abstract base class for most VTK objects">
<polygon fill="none" stroke="black" points="126,-190 126,-210 212,-210 212,-190 126,-190"/>
<text text-anchor="middle" x="169" y="-197" font-family="FreeSans" font-size="10.00">vtkObjectBase</text>
</a>
</g>
<!-- Node4&#45;&gt;Node3 -->
<g id="edge6" class="edge"><title>Node4&#45;&gt;Node3</title>
<path fill="none" stroke="midnightblue" d="M222.346,-200C231.091,-200 239.892,-200 247.863,-200"/>
<polygon fill="midnightblue" stroke="midnightblue" points="222.159,-196.5 212.159,-200 222.159,-203.5 222.159,-196.5"/>
</g>
<!-- Node5 -->
<g id="node8" class="node"><title>Node5</title>
<a xlink:href="class_kitware_1_1_v_t_k_1_1_wrapped_object.html" target="_top" xlink:title="Base class for all the mummy wrapped classes in Kitware.VTK.">
<polygon fill="none" stroke="black" points="0.5,-190 0.5,-210 89.5,-210 89.5,-190 0.5,-190"/>
<text text-anchor="middle" x="45" y="-197" font-family="FreeSans" font-size="10.00">WrappedObject</text>
</a>
</g>
<!-- Node5&#45;&gt;Node4 -->
<g id="edge8" class="edge"><title>Node5&#45;&gt;Node4</title>
<path fill="none" stroke="midnightblue" d="M99.8895,-200C108.623,-200 117.548,-200 125.957,-200"/>
<polygon fill="midnightblue" stroke="midnightblue" points="99.7669,-196.5 89.7668,-200 99.7668,-203.5 99.7669,-196.5"/>
</g>
<!-- Node7 -->
<g id="node13" class="node"><title>Node7</title>
<a xlink:href="class_kitware_1_1_v_t_k_1_1vtk_axis_actor.html" target="_top" xlink:title="vtkAxisActor &#45; Create an axis with tick marks and labels">
<polygon fill="none" stroke="black" points="849,-475 849,-495 983,-495 983,-475 849,-475"/>
<text text-anchor="middle" x="916" y="-482" font-family="FreeSans" font-size="10.00">Kitware.VTK.vtkAxisActor</text>
</a>
</g>
<!-- Node6&#45;&gt;Node7 -->
<g id="edge12" class="edge"><title>Node6&#45;&gt;Node7</title>
<path fill="none" stroke="midnightblue" d="M715.226,-405.911C740.425,-423.212 783.308,-450.466 824,-466 833.294,-469.548 843.383,-472.484 853.36,-474.898"/>
<polygon fill="midnightblue" stroke="midnightblue" points="716.985,-402.871 706.779,-400.027 712.984,-408.615 716.985,-402.871"/>
</g>
<!-- Node8 -->
<g id="node15" class="node"><title>Node8</title>
<a xlink:href="class_kitware_1_1_v_t_k_1_1vtk_cube_axes_actor.html" target="_top" xlink:title="vtkCubeAxesActor &#45; create a plot of a bounding box edges &#45; used for navigation">
<polygon fill="none" stroke="black" points="834.5,-437 834.5,-457 997.5,-457 997.5,-437 834.5,-437"/>
<text text-anchor="middle" x="916" y="-444" font-family="FreeSans" font-size="10.00">Kitware.VTK.vtkCubeAxesActor</text>
</a>
</g>
<!-- Node6&#45;&gt;Node8 -->
<g id="edge14" class="edge"><title>Node6&#45;&gt;Node8</title>
<path fill="none" stroke="midnightblue" d="M734.863,-403.055C760.469,-410.812 793.969,-420.556 824,-428 836.822,-431.179 850.741,-434.248 863.778,-436.959"/>
<polygon fill="midnightblue" stroke="midnightblue" points="735.696,-399.65 725.11,-400.081 733.654,-406.345 735.696,-399.65"/>
</g>
<!-- Node9 -->
<g id="node17" class="node"><title>Node9</title>
<a xlink:href="class_kitware_1_1_v_t_k_1_1vtk_follower.html" target="_top" xlink:title="vtkFollower &#45; a subclass of actor that always faces the camera">
<polygon fill="none" stroke="black" points="852,-399 852,-419 980,-419 980,-399 852,-399"/>
<text text-anchor="middle" x="916" y="-406" font-family="FreeSans" font-size="10.00">Kitware.VTK.vtkFollower</text>
</a>
</g>
<!-- Node6&#45;&gt;Node9 -->
<g id="edge16" class="edge"><title>Node6&#45;&gt;Node9</title>
<path fill="none" stroke="midnightblue" d="M760.745,-395.772C789.689,-398.238 823.308,-401.102 851.845,-403.534"/>
<polygon fill="midnightblue" stroke="midnightblue" points="760.979,-392.279 750.718,-394.918 760.385,-399.254 760.979,-392.279"/>
</g>
<!-- Node10 -->
<g id="node19" class="node"><title>Node10</title>
<a xlink:href="class_kitware_1_1_v_t_k_1_1vtk_l_o_d_actor.html" target="_top" xlink:title="vtkLODActor &#45; an actor that supports multiple levels of detail">
<polygon fill="none" stroke="black" points="848.5,-361 848.5,-381 983.5,-381 983.5,-361 848.5,-361"/>
<text text-anchor="middle" x="916" y="-368" font-family="FreeSans" font-size="10.00">Kitware.VTK.vtkLODActor</text>
</a>
</g>
<!-- Node6&#45;&gt;Node10 -->
<g id="edge18" class="edge"><title>Node6&#45;&gt;Node10</title>
<path fill="none" stroke="midnightblue" d="M760.726,-384.23C788.461,-381.867 820.491,-379.138 848.23,-376.774"/>
<polygon fill="midnightblue" stroke="midnightblue" points="760.385,-380.746 750.718,-385.082 760.979,-387.721 760.385,-380.746"/>
</g>
<!-- Node11 -->
<g id="node21" class="node"><title>Node11</title>
<a xlink:href="class_kitware_1_1_v_t_k_1_1vtk_open_g_l_actor.html" target="_top" xlink:title="vtkOpenGLActor &#45; OpenGL actor">
<polygon fill="none" stroke="black" points="839.5,-323 839.5,-343 992.5,-343 992.5,-323 839.5,-323"/>
<text text-anchor="middle" x="916" y="-330" font-family="FreeSans" font-size="10.00">Kitware.VTK.vtkOpenGLActor</text>
</a>
</g>
<!-- Node6&#45;&gt;Node11 -->
<g id="edge20" class="edge"><title>Node6&#45;&gt;Node11</title>
<path fill="none" stroke="midnightblue" d="M760.756,-378.949C770.026,-376.714 779.329,-374.082 788,-371 805.047,-364.941 806.972,-358.112 824,-352 833.824,-348.473 844.486,-345.523 854.953,-343.08"/>
<polygon fill="midnightblue" stroke="midnightblue" points="759.72,-375.595 750.741,-381.219 761.268,-382.421 759.72,-375.595"/>
</g>
<!-- Node12 -->
<g id="node23" class="node"><title>Node12</title>
<a xlink:href="class_kitware_1_1_v_t_k_1_1vtk_quadric_l_o_d_actor.html" target="_top" xlink:title="vtkQuadricLODActor &#45; a specific level&#45;of&#45;detail strategy using the quadric clustering decimation algo...">
<polygon fill="none" stroke="black" points="830,-285 830,-305 1002,-305 1002,-285 830,-285"/>
<text text-anchor="middle" x="916" y="-292" font-family="FreeSans" font-size="10.00">Kitware.VTK.vtkQuadricLODActor</text>
</a>
</g>
<!-- Node6&#45;&gt;Node12 -->
<g id="edge22" class="edge"><title>Node6&#45;&gt;Node12</title>
<path fill="none" stroke="midnightblue" d="M760.538,-383.589C770.29,-380.698 779.789,-376.647 788,-371 812.688,-354.021 799.365,-331.056 824,-314 829.23,-310.379 835.001,-307.421 841.028,-305.007"/>
<polygon fill="midnightblue" stroke="midnightblue" points="759.554,-380.228 750.742,-386.11 761.298,-387.007 759.554,-380.228"/>
</g>
<!-- Node18 -->
<g id="node35" class="node"><title>Node18</title>
<a xlink:href="class_kitware_1_1_v_t_k_1_1vtk_open_g_l_image_actor.html" target="_top" xlink:title="vtkOpenGLImageActor &#45; OpenGL texture map">
<polygon fill="none" stroke="black" points="824.5,-190 824.5,-210 1007.5,-210 1007.5,-190 824.5,-190"/>
<text text-anchor="middle" x="916" y="-197" font-family="FreeSans" font-size="10.00">Kitware.VTK.vtkOpenGLImageActor</text>
</a>
</g>
<!-- Node17&#45;&gt;Node18 -->
<g id="edge34" class="edge"><title>Node17&#45;&gt;Node18</title>
<path fill="none" stroke="midnightblue" d="M775.928,-200C791.678,-200 808.244,-200 824.248,-200"/>
<polygon fill="midnightblue" stroke="midnightblue" points="775.71,-196.5 765.71,-200 775.71,-203.5 775.71,-196.5"/>
</g>
</g>
</svg>
