<?xml version="1.0" encoding="UTF-8" standalone="no"?>
<!DOCTYPE svg PUBLIC "-//W3C//DTD SVG 1.1//EN"
 "http://www.w3.org/Graphics/SVG/1.1/DTD/svg11.dtd">
<!-- Generated by graphviz version 2.26.3 (20100126.1600)
 -->
<!-- Title: G Pages: 1 -->
<svg width="1340pt" height="66pt"
 viewBox="0.00 0.00 1340.00 66.00" xmlns="http://www.w3.org/2000/svg" xmlns:xlink="http://www.w3.org/1999/xlink">
<g id="graph1" class="graph" transform="scale(1 1) rotate(0) translate(4 62)">
<title>G</title>
<!-- Node1 -->
<g id="node1" class="node"><title>Node1</title>
<polygon fill="#bfbfbf" stroke="black" points="574.5,-19 574.5,-39 785.5,-39 785.5,-19 574.5,-19"/>
<text text-anchor="middle" x="680" y="-26" font-family="FreeSans" font-size="10.00">Kitware.VTK.vtkXMLCompositeDataWriter</text>
</g>
<!-- Node7 -->
<g id="node13" class="node"><title>Node7</title>
<a xlink:href="class_kitware_1_1_v_t_k_1_1vtk_x_m_l_hierarchical_box_data_writer.html" target="_top" xlink:title="vtkXMLHierarchicalBoxDataWriter &#45; writer for vtkHierarchicalBoxDataSet.">
<polygon fill="none" stroke="black" points="822.5,-38 822.5,-58 1055.5,-58 1055.5,-38 822.5,-38"/>
<text text-anchor="middle" x="939" y="-45" font-family="FreeSans" font-size="10.00">Kitware.VTK.vtkXMLHierarchicalBoxDataWriter</text>
</a>
</g>
<!-- Node1&#45;&gt;Node7 -->
<g id="edge12" class="edge"><title>Node1&#45;&gt;Node7</title>
<path fill="none" stroke="midnightblue" d="M795.926,-37.5042C804.662,-38.1451 813.481,-38.7921 822.223,-39.4333"/>
<polygon fill="midnightblue" stroke="midnightblue" points="795.948,-33.9965 785.719,-36.7554 795.436,-40.9778 795.948,-33.9965"/>
</g>
<!-- Node9 -->
<g id="node17" class="node"><title>Node9</title>
<a xlink:href="class_kitware_1_1_v_t_k_1_1vtk_x_m_l_multi_block_data_writer.html" target="_top" xlink:title="vtkXMLMultiBlockDataWriter &#45; writer for vtkMultiBlockDataSet.">
<polygon fill="none" stroke="black" points="835.5,-0 835.5,-20 1042.5,-20 1042.5,-0 835.5,-0"/>
<text text-anchor="middle" x="939" y="-7" font-family="FreeSans" font-size="10.00">Kitware.VTK.vtkXMLMultiBlockDataWriter</text>
</a>
</g>
<!-- Node1&#45;&gt;Node9 -->
<g id="edge16" class="edge"><title>Node1&#45;&gt;Node9</title>
<path fill="none" stroke="midnightblue" d="M795.747,-20.5089C808.922,-19.5424 822.289,-18.5618 835.295,-17.6077"/>
<polygon fill="midnightblue" stroke="midnightblue" points="795.436,-17.0222 785.719,-21.2446 795.948,-24.0035 795.436,-17.0222"/>
</g>
<!-- Node2 -->
<g id="node2" class="node"><title>Node2</title>
<a xlink:href="class_kitware_1_1_v_t_k_1_1vtk_x_m_l_writer.html" target="_top" xlink:title="vtkXMLWriter &#45; Superclass for VTK&#39;s XML file writers.">
<polygon fill="none" stroke="black" points="460.5,-19 460.5,-39 537.5,-39 537.5,-19 460.5,-19"/>
<text text-anchor="middle" x="499" y="-26" font-family="FreeSans" font-size="10.00">vtkXMLWriter</text>
</a>
</g>
<!-- Node2&#45;&gt;Node1 -->
<g id="edge2" class="edge"><title>Node2&#45;&gt;Node1</title>
<path fill="none" stroke="midnightblue" d="M548.012,-29C556.326,-29 565.236,-29 574.358,-29"/>
<polygon fill="midnightblue" stroke="midnightblue" points="547.829,-25.5001 537.829,-29 547.829,-32.5001 547.829,-25.5001"/>
</g>
<!-- Node3 -->
<g id="node4" class="node"><title>Node3</title>
<a xlink:href="class_kitware_1_1_v_t_k_1_1vtk_algorithm.html" target="_top" xlink:title="vtkAlgorithm &#45; Superclass for all sources, filters, and sinks in VTK.">
<polygon fill="none" stroke="black" points="346.5,-19 346.5,-39 423.5,-39 423.5,-19 346.5,-19"/>
<text text-anchor="middle" x="385" y="-26" font-family="FreeSans" font-size="10.00">vtkAlgorithm</text>
</a>
</g>
<!-- Node3&#45;&gt;Node2 -->
<g id="edge4" class="edge"><title>Node3&#45;&gt;Node2</title>
<path fill="none" stroke="midnightblue" d="M433.854,-29C442.744,-29 451.904,-29 460.445,-29"/>
<polygon fill="midnightblue" stroke="midnightblue" points="433.595,-25.5001 423.595,-29 433.595,-32.5001 433.595,-25.5001"/>
</g>
<!-- Node4 -->
<g id="node6" class="node"><title>Node4</title>
<a xlink:href="class_kitware_1_1_v_t_k_1_1vtk_object.html" target="_top" xlink:title="vtkObject &#45; abstract base class for most VTK objects">
<polygon fill="none" stroke="black" points="248,-19 248,-39 310,-39 310,-19 248,-19"/>
<text text-anchor="middle" x="279" y="-26" font-family="FreeSans" font-size="10.00">vtkObject</text>
</a>
</g>
<!-- Node4&#45;&gt;Node3 -->
<g id="edge6" class="edge"><title>Node4&#45;&gt;Node3</title>
<path fill="none" stroke="midnightblue" d="M320.421,-29C329.001,-29 338.007,-29 346.479,-29"/>
<polygon fill="midnightblue" stroke="midnightblue" points="320.23,-25.5001 310.23,-29 320.23,-32.5001 320.23,-25.5001"/>
</g>
<!-- Node5 -->
<g id="node8" class="node"><title>Node5</title>
<a xlink:href="class_kitware_1_1_v_t_k_1_1vtk_object_base.html" target="_top" xlink:title="vtkObjectBase &#45; abstract base class for most VTK objects">
<polygon fill="none" stroke="black" points="126,-19 126,-39 212,-39 212,-19 126,-19"/>
<text text-anchor="middle" x="169" y="-26" font-family="FreeSans" font-size="10.00">vtkObjectBase</text>
</a>
</g>
<!-- Node5&#45;&gt;Node4 -->
<g id="edge8" class="edge"><title>Node5&#45;&gt;Node4</title>
<path fill="none" stroke="midnightblue" d="M222.346,-29C231.091,-29 239.892,-29 247.863,-29"/>
<polygon fill="midnightblue" stroke="midnightblue" points="222.159,-25.5001 212.159,-29 222.159,-32.5001 222.159,-25.5001"/>
</g>
<!-- Node6 -->
<g id="node10" class="node"><title>Node6</title>
<a xlink:href="class_kitware_1_1_v_t_k_1_1_wrapped_object.html" target="_top" xlink:title="Base class for all the mummy wrapped classes in Kitware.VTK.">
<polygon fill="none" stroke="black" points="0.5,-19 0.5,-39 89.5,-39 89.5,-19 0.5,-19"/>
<text text-anchor="middle" x="45" y="-26" font-family="FreeSans" font-size="10.00">WrappedObject</text>
</a>
</g>
<!-- Node6&#45;&gt;Node5 -->
<g id="edge10" class="edge"><title>Node6&#45;&gt;Node5</title>
<path fill="none" stroke="midnightblue" d="M99.8895,-29C108.623,-29 117.548,-29 125.957,-29"/>
<polygon fill="midnightblue" stroke="midnightblue" points="99.7669,-25.5001 89.7668,-29 99.7668,-32.5001 99.7669,-25.5001"/>
</g>
<!-- Node8 -->
<g id="node15" class="node"><title>Node8</title>
<a xlink:href="class_kitware_1_1_v_t_k_1_1vtk_x_m_l_p_hierarchical_box_data_writer.html" target="_top" xlink:title="vtkXMLPHierarchicalBoxDataWriter &#45; parallel writer for vtkHierarchicalBoxDataSet.">
<polygon fill="none" stroke="black" points="1092.5,-38 1092.5,-58 1331.5,-58 1331.5,-38 1092.5,-38"/>
<text text-anchor="middle" x="1212" y="-45" font-family="FreeSans" font-size="10.00">Kitware.VTK.vtkXMLPHierarchicalBoxDataWriter</text>
</a>
</g>
<!-- Node7&#45;&gt;Node8 -->
<g id="edge14" class="edge"><title>Node7&#45;&gt;Node8</title>
<path fill="none" stroke="midnightblue" d="M1065.59,-48C1074.5,-48 1083.47,-48 1092.34,-48"/>
<polygon fill="midnightblue" stroke="midnightblue" points="1065.57,-44.5001 1055.57,-48 1065.57,-51.5001 1065.57,-44.5001"/>
</g>
<!-- Node10 -->
<g id="node19" class="node"><title>Node10</title>
<a xlink:href="class_kitware_1_1_v_t_k_1_1vtk_x_m_l_p_multi_block_data_writer.html" target="_top" xlink:title="vtkXMLPMultiBlockDataWriter &#45; parallel writer for vtkHierarchicalBoxDataSet.">
<polygon fill="none" stroke="black" points="1105.5,-0 1105.5,-20 1318.5,-20 1318.5,-0 1105.5,-0"/>
<text text-anchor="middle" x="1212" y="-7" font-family="FreeSans" font-size="10.00">Kitware.VTK.vtkXMLPMultiBlockDataWriter</text>
</a>
</g>
<!-- Node9&#45;&gt;Node10 -->
<g id="edge18" class="edge"><title>Node9&#45;&gt;Node10</title>
<path fill="none" stroke="midnightblue" d="M1052.77,-10C1070.16,-10 1088.06,-10 1105.3,-10"/>
<polygon fill="midnightblue" stroke="midnightblue" points="1052.6,-6.5001 1042.6,-10 1052.6,-13.5001 1052.6,-6.5001"/>
</g>
</g>
</svg>
