<?xml version="1.0" encoding="UTF-8" standalone="no"?>
<!DOCTYPE svg PUBLIC "-//W3C//DTD SVG 1.1//EN"
 "http://www.w3.org/Graphics/SVG/1.1/DTD/svg11.dtd">
<!-- Generated by graphviz version 2.26.3 (20100126.1600)
 -->
<!-- Title: G Pages: 1 -->
<svg width="441pt" height="590pt"
 viewBox="0.00 0.00 441.46 590.00" xmlns="http://www.w3.org/2000/svg" xmlns:xlink="http://www.w3.org/1999/xlink">
<g id="graph1" class="graph" transform="scale(1 1) rotate(0) translate(4 586)">
<title>G</title>
<!-- Node1 -->
<g id="node1" class="node"><title>Node1</title>
<polygon fill="#bfbfbf" stroke="black" points="0,-1 0,-21 210,-21 210,-1 0,-1"/>
<text text-anchor="middle" x="105" y="-8" font-family="FreeSans" font-size="10.00">Kitware.VTK.vtkInitialValueProblemSolver</text>
</g>
<!-- Node2 -->
<g id="node2" class="node"><title>Node2</title>
<a xlink:href="class_kitware_1_1_v_t_k_1_1vtk_object.html" target="_top" xlink:title="vtkObject &#45; abstract base class for most VTK objects">
<polygon fill="none" stroke="black" points="74,-61 74,-81 136,-81 136,-61 74,-61"/>
<text text-anchor="middle" x="105" y="-68" font-family="FreeSans" font-size="10.00">vtkObject</text>
</a>
</g>
<!-- Node2&#45;&gt;Node1 -->
<g id="edge2" class="edge"><title>Node2&#45;&gt;Node1</title>
<path fill="none" stroke="midnightblue" d="M105,-50.5155C105,-40.562 105,-29.0495 105,-21.0279"/>
<polygon fill="midnightblue" stroke="midnightblue" points="101.5,-50.8218 105,-60.8218 108.5,-50.8219 101.5,-50.8218"/>
</g>
<!-- Node3 -->
<g id="node4" class="node"><title>Node3</title>
<a xlink:href="class_kitware_1_1_v_t_k_1_1vtk_object_base.html" target="_top" xlink:title="vtkObjectBase &#45; abstract base class for most VTK objects">
<polygon fill="none" stroke="black" points="125,-501 125,-521 211,-521 211,-501 125,-501"/>
<text text-anchor="middle" x="168" y="-508" font-family="FreeSans" font-size="10.00">vtkObjectBase</text>
</a>
</g>
<!-- Node3&#45;&gt;Node2 -->
<g id="edge4" class="edge"><title>Node3&#45;&gt;Node2</title>
<path fill="none" stroke="midnightblue" d="M139.423,-495.886C125.687,-487.44 109.884,-475.826 99,-462 87.1564,-446.955 86.6209,-440.802 83,-422 57.4248,-289.199 92.5766,-123.437 102.516,-81.1704"/>
<polygon fill="midnightblue" stroke="midnightblue" points="137.683,-498.923 148.079,-500.97 141.229,-492.887 137.683,-498.923"/>
</g>
<!-- Node6 -->
<g id="node11" class="node"><title>Node6</title>
<a xlink:href="class_kitware_1_1_v_t_k_1_1vtk_object.html" target="_top" xlink:title="vtkObject &#45; abstract base class for most VTK objects">
<polygon fill="none" stroke="black" points="108,-441 108,-461 228,-461 228,-441 108,-441"/>
<text text-anchor="middle" x="168" y="-448" font-family="FreeSans" font-size="10.00">Kitware.VTK.vtkObject</text>
</a>
</g>
<!-- Node3&#45;&gt;Node6 -->
<g id="edge14" class="edge"><title>Node3&#45;&gt;Node6</title>
<path fill="none" stroke="midnightblue" d="M168,-490.516C168,-480.562 168,-469.05 168,-461.028"/>
<polygon fill="midnightblue" stroke="midnightblue" points="164.5,-490.822 168,-500.822 171.5,-490.822 164.5,-490.822"/>
</g>
<!-- Node4 -->
<g id="node6" class="node"><title>Node4</title>
<a xlink:href="class_kitware_1_1_v_t_k_1_1_wrapped_object.html" target="_top" xlink:title="Base class for all the mummy wrapped classes in Kitware.VTK.">
<polygon fill="none" stroke="black" points="306.5,-561 306.5,-581 395.5,-581 395.5,-561 306.5,-561"/>
<text text-anchor="middle" x="351" y="-568" font-family="FreeSans" font-size="10.00">WrappedObject</text>
</a>
</g>
<!-- Node4&#45;&gt;Node3 -->
<g id="edge6" class="edge"><title>Node4&#45;&gt;Node3</title>
<path fill="none" stroke="midnightblue" d="M310.804,-557.821C277.042,-546.752 229.512,-531.168 198.73,-521.075"/>
<polygon fill="midnightblue" stroke="midnightblue" points="309.777,-561.168 320.37,-560.957 311.958,-554.516 309.777,-561.168"/>
</g>
<!-- Node5 -->
<g id="node8" class="node"><title>Node5</title>
<a xlink:href="class_kitware_1_1_v_t_k_1_1vtk_object_event_relay.html" target="_top" xlink:title="Implement a relay handler for VTK events. This is a class that receives events directly from the VTK ...">
<polygon fill="none" stroke="black" points="97,-251 97,-271 269,-271 269,-251 97,-251"/>
<text text-anchor="middle" x="183" y="-258" font-family="FreeSans" font-size="10.00">Kitware.VTK.vtkObjectEventRelay</text>
</a>
</g>
<!-- Node4&#45;&gt;Node5 -->
<g id="edge10" class="edge"><title>Node4&#45;&gt;Node5</title>
<path fill="none" stroke="midnightblue" d="M363.888,-552.325C396.276,-502.899 473.803,-367.191 406,-290 396.773,-279.495 328.047,-271.666 269.298,-266.808"/>
<polygon fill="midnightblue" stroke="midnightblue" points="360.891,-550.509 358.239,-560.767 366.709,-554.402 360.891,-550.509"/>
</g>
<!-- Node5&#45;&gt;Node2 -->
<g id="edge8" class="edge"><title>Node5&#45;&gt;Node2</title>
<path fill="none" stroke="#9a32cd" stroke-dasharray="5,2" d="M174.921,-241.321C158.489,-201.293 121.674,-111.616 109.214,-81.2657"/>
<polygon fill="#9a32cd" stroke="#9a32cd" points="171.771,-242.863 178.806,-250.785 178.246,-240.205 171.771,-242.863"/>
<text text-anchor="middle" x="282.5" y="-223" font-family="FreeSans" font-size="10.00"> LeftButtonReleaseEvtRelay</text>
<text text-anchor="middle" x="282.5" y="-211" font-family="FreeSans" font-size="10.00">KeyPressEvtRelay</text>
<text text-anchor="middle" x="282.5" y="-199" font-family="FreeSans" font-size="10.00">DomainModifiedEvtRelay</text>
<text text-anchor="middle" x="282.5" y="-187" font-family="FreeSans" font-size="10.00">VolumeMapperComputeGradientsStartEvtRelay</text>
<text text-anchor="middle" x="282.5" y="-175" font-family="FreeSans" font-size="10.00">ErrorEvtRelay</text>
<text text-anchor="middle" x="282.5" y="-163" font-family="FreeSans" font-size="10.00">VolumeMapperRenderStartEvtRelay</text>
<text text-anchor="middle" x="282.5" y="-151" font-family="FreeSans" font-size="10.00">StartEvtRelay</text>
<text text-anchor="middle" x="282.5" y="-139" font-family="FreeSans" font-size="10.00">ResetCameraEvtRelay</text>
<text text-anchor="middle" x="282.5" y="-127" font-family="FreeSans" font-size="10.00">EnableEvtRelay</text>
<text text-anchor="middle" x="282.5" y="-115" font-family="FreeSans" font-size="10.00">DeleteEvtRelay</text>
<text text-anchor="middle" x="282.5" y="-103" font-family="FreeSans" font-size="10.00">...</text>
</g>
<!-- Node5&#45;&gt;Node6 -->
<g id="edge16" class="edge"><title>Node5&#45;&gt;Node6</title>
<path fill="none" stroke="#9a32cd" stroke-dasharray="5,2" d="M180.028,-281.231C179.649,-284.169 179.293,-287.159 179,-290 173.144,-346.853 169.636,-415.333 168.452,-440.807"/>
<polygon fill="#9a32cd" stroke="#9a32cd" points="183.515,-281.565 181.421,-271.179 176.582,-280.604 183.515,-281.565"/>
<text text-anchor="middle" x="292.5" y="-413" font-family="FreeSans" font-size="10.00"> LeftButtonReleaseEvtRelay</text>
<text text-anchor="middle" x="292.5" y="-401" font-family="FreeSans" font-size="10.00">KeyPressEvtRelay</text>
<text text-anchor="middle" x="292.5" y="-389" font-family="FreeSans" font-size="10.00">DomainModifiedEvtRelay</text>
<text text-anchor="middle" x="292.5" y="-377" font-family="FreeSans" font-size="10.00">VolumeMapperComputeGradientsStartEvtRelay</text>
<text text-anchor="middle" x="292.5" y="-365" font-family="FreeSans" font-size="10.00">ErrorEvtRelay</text>
<text text-anchor="middle" x="292.5" y="-353" font-family="FreeSans" font-size="10.00">VolumeMapperRenderStartEvtRelay</text>
<text text-anchor="middle" x="292.5" y="-341" font-family="FreeSans" font-size="10.00">StartEvtRelay</text>
<text text-anchor="middle" x="292.5" y="-329" font-family="FreeSans" font-size="10.00">ResetCameraEvtRelay</text>
<text text-anchor="middle" x="292.5" y="-317" font-family="FreeSans" font-size="10.00">EnableEvtRelay</text>
<text text-anchor="middle" x="292.5" y="-305" font-family="FreeSans" font-size="10.00">DeleteEvtRelay</text>
<text text-anchor="middle" x="292.5" y="-293" font-family="FreeSans" font-size="10.00">...</text>
</g>
<!-- Node6&#45;&gt;Node5 -->
<g id="edge12" class="edge"><title>Node6&#45;&gt;Node5</title>
<path fill="none" stroke="#9a32cd" stroke-dasharray="5,2" d="M121.979,-435.818C116.439,-432.138 111.51,-427.596 108,-422 76.8229,-372.303 74.8299,-338.389 108,-290 112.736,-283.091 129.511,-276.287 145.999,-271.008"/>
<polygon fill="#9a32cd" stroke="#9a32cd" points="120.639,-439.079 131.072,-440.919 124.064,-432.974 120.639,-439.079"/>
<text text-anchor="middle" x="132" y="-359" font-family="FreeSans" font-size="10.00"> Sender</text>
<text text-anchor="middle" x="132" y="-347" font-family="FreeSans" font-size="10.00">EventImpl</text>
</g>
</g>
</svg>
