<?xml version="1.0" encoding="UTF-8" standalone="no"?>
<!DOCTYPE svg PUBLIC "-//W3C//DTD SVG 1.1//EN"
 "http://www.w3.org/Graphics/SVG/1.1/DTD/svg11.dtd">
<!-- Generated by graphviz version 2.26.3 (20100126.1600)
 -->
<!-- Title: G Pages: 1 -->
<svg width="304pt" height="262pt"
 viewBox="0.00 0.00 304.00 262.00" xmlns="http://www.w3.org/2000/svg" xmlns:xlink="http://www.w3.org/1999/xlink">
<g id="graph1" class="graph" transform="scale(1 1) rotate(0) translate(4 258)">
<title>G</title>
<!-- Node1 -->
<g id="node1" class="node"><title>Node1</title>
<polygon fill="#bfbfbf" stroke="black" points="0,-1 0,-21 296,-21 296,-1 0,-1"/>
<text text-anchor="middle" x="148" y="-8" font-family="FreeSans" font-size="10.00">Kitware.VTK.vtkFixedPointVolumeRayCastCompositeHelper</text>
</g>
<!-- Node2 -->
<g id="node2" class="node"><title>Node2</title>
<a xlink:href="class_kitware_1_1_v_t_k_1_1vtk_fixed_point_volume_ray_cast_helper.html" target="_top" xlink:title="vtkFixedPointVolumeRayCastHelper &#45; An abstract helper that generates images for the volume ray cast m...">
<polygon fill="none" stroke="black" points="55.5,-59 55.5,-79 240.5,-79 240.5,-59 55.5,-59"/>
<text text-anchor="middle" x="148" y="-66" font-family="FreeSans" font-size="10.00">vtkFixedPointVolumeRayCastHelper</text>
</a>
</g>
<!-- Node2&#45;&gt;Node1 -->
<g id="edge2" class="edge"><title>Node2&#45;&gt;Node1</title>
<path fill="none" stroke="midnightblue" d="M148,-48.8902C148,-39.6201 148,-29.0083 148,-21.3776"/>
<polygon fill="midnightblue" stroke="midnightblue" points="144.5,-48.8971 148,-58.8972 151.5,-48.8972 144.5,-48.8971"/>
</g>
<!-- Node3 -->
<g id="node4" class="node"><title>Node3</title>
<a xlink:href="class_kitware_1_1_v_t_k_1_1vtk_object.html" target="_top" xlink:title="vtkObject &#45; abstract base class for most VTK objects">
<polygon fill="none" stroke="black" points="117,-117 117,-137 179,-137 179,-117 117,-117"/>
<text text-anchor="middle" x="148" y="-124" font-family="FreeSans" font-size="10.00">vtkObject</text>
</a>
</g>
<!-- Node3&#45;&gt;Node2 -->
<g id="edge4" class="edge"><title>Node3&#45;&gt;Node2</title>
<path fill="none" stroke="midnightblue" d="M148,-106.89C148,-97.6201 148,-87.0083 148,-79.3776"/>
<polygon fill="midnightblue" stroke="midnightblue" points="144.5,-106.897 148,-116.897 151.5,-106.897 144.5,-106.897"/>
</g>
<!-- Node4 -->
<g id="node6" class="node"><title>Node4</title>
<a xlink:href="class_kitware_1_1_v_t_k_1_1vtk_object_base.html" target="_top" xlink:title="vtkObjectBase &#45; abstract base class for most VTK objects">
<polygon fill="none" stroke="black" points="105,-175 105,-195 191,-195 191,-175 105,-175"/>
<text text-anchor="middle" x="148" y="-182" font-family="FreeSans" font-size="10.00">vtkObjectBase</text>
</a>
</g>
<!-- Node4&#45;&gt;Node3 -->
<g id="edge6" class="edge"><title>Node4&#45;&gt;Node3</title>
<path fill="none" stroke="midnightblue" d="M148,-164.89C148,-155.62 148,-145.008 148,-137.378"/>
<polygon fill="midnightblue" stroke="midnightblue" points="144.5,-164.897 148,-174.897 151.5,-164.897 144.5,-164.897"/>
</g>
<!-- Node5 -->
<g id="node8" class="node"><title>Node5</title>
<a xlink:href="class_kitware_1_1_v_t_k_1_1_wrapped_object.html" target="_top" xlink:title="Base class for all the mummy wrapped classes in Kitware.VTK.">
<polygon fill="none" stroke="black" points="103.5,-233 103.5,-253 192.5,-253 192.5,-233 103.5,-233"/>
<text text-anchor="middle" x="148" y="-240" font-family="FreeSans" font-size="10.00">WrappedObject</text>
</a>
</g>
<!-- Node5&#45;&gt;Node4 -->
<g id="edge8" class="edge"><title>Node5&#45;&gt;Node4</title>
<path fill="none" stroke="midnightblue" d="M148,-222.89C148,-213.62 148,-203.008 148,-195.378"/>
<polygon fill="midnightblue" stroke="midnightblue" points="144.5,-222.897 148,-232.897 151.5,-222.897 144.5,-222.897"/>
</g>
</g>
</svg>
