<?xml version="1.0" encoding="UTF-8" standalone="no"?>
<!DOCTYPE svg PUBLIC "-//W3C//DTD SVG 1.1//EN"
 "http://www.w3.org/Graphics/SVG/1.1/DTD/svg11.dtd">
<!-- Generated by graphviz version 2.26.3 (20100126.1600)
 -->
<!-- Title: G Pages: 1 -->
<svg width="394pt" height="710pt"
 viewBox="0.00 0.00 394.46 710.00" xmlns="http://www.w3.org/2000/svg" xmlns:xlink="http://www.w3.org/1999/xlink">
<g id="graph1" class="graph" transform="scale(1 1) rotate(0) translate(4 706)">
<title>G</title>
<!-- Node1 -->
<g id="node1" class="node"><title>Node1</title>
<polygon fill="#bfbfbf" stroke="black" points="1,-1 1,-21 115,-21 115,-1 1,-1"/>
<text text-anchor="middle" x="58" y="-8" font-family="FreeSans" font-size="10.00">Kitware.VTK.vtkDicer</text>
</g>
<!-- Node2 -->
<g id="node2" class="node"><title>Node2</title>
<a xlink:href="class_kitware_1_1_v_t_k_1_1vtk_data_set_algorithm.html" target="_top" xlink:title="vtkDataSetAlgorithm &#45; Superclass for algorithms that produce output of the same type as input...">
<polygon fill="none" stroke="black" points="-0.5,-61 -0.5,-81 116.5,-81 116.5,-61 -0.5,-61"/>
<text text-anchor="middle" x="58" y="-68" font-family="FreeSans" font-size="10.00">vtkDataSetAlgorithm</text>
</a>
</g>
<!-- Node2&#45;&gt;Node1 -->
<g id="edge2" class="edge"><title>Node2&#45;&gt;Node1</title>
<path fill="none" stroke="midnightblue" d="M58,-50.5155C58,-40.562 58,-29.0495 58,-21.0279"/>
<polygon fill="midnightblue" stroke="midnightblue" points="54.5001,-50.8218 58,-60.8218 61.5001,-50.8219 54.5001,-50.8218"/>
</g>
<!-- Node3 -->
<g id="node4" class="node"><title>Node3</title>
<a xlink:href="class_kitware_1_1_v_t_k_1_1vtk_algorithm.html" target="_top" xlink:title="vtkAlgorithm &#45; Superclass for all sources, filters, and sinks in VTK.">
<polygon fill="none" stroke="black" points="19.5,-121 19.5,-141 96.5,-141 96.5,-121 19.5,-121"/>
<text text-anchor="middle" x="58" y="-128" font-family="FreeSans" font-size="10.00">vtkAlgorithm</text>
</a>
</g>
<!-- Node3&#45;&gt;Node2 -->
<g id="edge4" class="edge"><title>Node3&#45;&gt;Node2</title>
<path fill="none" stroke="midnightblue" d="M58,-110.516C58,-100.562 58,-89.0495 58,-81.0279"/>
<polygon fill="midnightblue" stroke="midnightblue" points="54.5001,-110.822 58,-120.822 61.5001,-110.822 54.5001,-110.822"/>
</g>
<!-- Node4 -->
<g id="node6" class="node"><title>Node4</title>
<a xlink:href="class_kitware_1_1_v_t_k_1_1vtk_object.html" target="_top" xlink:title="vtkObject &#45; abstract base class for most VTK objects">
<polygon fill="none" stroke="black" points="27,-181 27,-201 89,-201 89,-181 27,-181"/>
<text text-anchor="middle" x="58" y="-188" font-family="FreeSans" font-size="10.00">vtkObject</text>
</a>
</g>
<!-- Node4&#45;&gt;Node3 -->
<g id="edge6" class="edge"><title>Node4&#45;&gt;Node3</title>
<path fill="none" stroke="midnightblue" d="M58,-170.516C58,-160.562 58,-149.05 58,-141.028"/>
<polygon fill="midnightblue" stroke="midnightblue" points="54.5001,-170.822 58,-180.822 61.5001,-170.822 54.5001,-170.822"/>
</g>
<!-- Node5 -->
<g id="node8" class="node"><title>Node5</title>
<a xlink:href="class_kitware_1_1_v_t_k_1_1vtk_object_base.html" target="_top" xlink:title="vtkObjectBase &#45; abstract base class for most VTK objects">
<polygon fill="none" stroke="black" points="78,-621 78,-641 164,-641 164,-621 78,-621"/>
<text text-anchor="middle" x="121" y="-628" font-family="FreeSans" font-size="10.00">vtkObjectBase</text>
</a>
</g>
<!-- Node5&#45;&gt;Node4 -->
<g id="edge8" class="edge"><title>Node5&#45;&gt;Node4</title>
<path fill="none" stroke="midnightblue" d="M92.4228,-615.886C78.6866,-607.44 62.8844,-595.826 52,-582 40.1564,-566.955 39.6209,-560.802 36,-542 10.4248,-409.199 45.5766,-243.437 55.5155,-201.17"/>
<polygon fill="midnightblue" stroke="midnightblue" points="90.6834,-618.923 101.079,-620.97 94.2285,-612.887 90.6834,-618.923"/>
</g>
<!-- Node8 -->
<g id="node15" class="node"><title>Node8</title>
<a xlink:href="class_kitware_1_1_v_t_k_1_1vtk_object.html" target="_top" xlink:title="vtkObject &#45; abstract base class for most VTK objects">
<polygon fill="none" stroke="black" points="61,-561 61,-581 181,-581 181,-561 61,-561"/>
<text text-anchor="middle" x="121" y="-568" font-family="FreeSans" font-size="10.00">Kitware.VTK.vtkObject</text>
</a>
</g>
<!-- Node5&#45;&gt;Node8 -->
<g id="edge18" class="edge"><title>Node5&#45;&gt;Node8</title>
<path fill="none" stroke="midnightblue" d="M121,-610.516C121,-600.562 121,-589.05 121,-581.028"/>
<polygon fill="midnightblue" stroke="midnightblue" points="117.5,-610.822 121,-620.822 124.5,-610.822 117.5,-610.822"/>
</g>
<!-- Node6 -->
<g id="node10" class="node"><title>Node6</title>
<a xlink:href="class_kitware_1_1_v_t_k_1_1_wrapped_object.html" target="_top" xlink:title="Base class for all the mummy wrapped classes in Kitware.VTK.">
<polygon fill="none" stroke="black" points="259.5,-681 259.5,-701 348.5,-701 348.5,-681 259.5,-681"/>
<text text-anchor="middle" x="304" y="-688" font-family="FreeSans" font-size="10.00">WrappedObject</text>
</a>
</g>
<!-- Node6&#45;&gt;Node5 -->
<g id="edge10" class="edge"><title>Node6&#45;&gt;Node5</title>
<path fill="none" stroke="midnightblue" d="M263.804,-677.821C230.042,-666.752 182.512,-651.168 151.73,-641.075"/>
<polygon fill="midnightblue" stroke="midnightblue" points="262.777,-681.168 273.37,-680.957 264.958,-674.516 262.777,-681.168"/>
</g>
<!-- Node7 -->
<g id="node12" class="node"><title>Node7</title>
<a xlink:href="class_kitware_1_1_v_t_k_1_1vtk_object_event_relay.html" target="_top" xlink:title="Implement a relay handler for VTK events. This is a class that receives events directly from the VTK ...">
<polygon fill="none" stroke="black" points="50,-371 50,-391 222,-391 222,-371 50,-371"/>
<text text-anchor="middle" x="136" y="-378" font-family="FreeSans" font-size="10.00">Kitware.VTK.vtkObjectEventRelay</text>
</a>
</g>
<!-- Node6&#45;&gt;Node7 -->
<g id="edge14" class="edge"><title>Node6&#45;&gt;Node7</title>
<path fill="none" stroke="midnightblue" d="M316.888,-672.325C349.276,-622.899 426.803,-487.191 359,-410 349.773,-399.495 281.047,-391.666 222.298,-386.808"/>
<polygon fill="midnightblue" stroke="midnightblue" points="313.891,-670.509 311.239,-680.767 319.709,-674.402 313.891,-670.509"/>
</g>
<!-- Node7&#45;&gt;Node4 -->
<g id="edge12" class="edge"><title>Node7&#45;&gt;Node4</title>
<path fill="none" stroke="#9a32cd" stroke-dasharray="5,2" d="M127.921,-361.321C111.489,-321.293 74.6738,-231.616 62.2144,-201.266"/>
<polygon fill="#9a32cd" stroke="#9a32cd" points="124.771,-362.863 131.806,-370.785 131.246,-360.205 124.771,-362.863"/>
<text text-anchor="middle" x="235.5" y="-343" font-family="FreeSans" font-size="10.00"> LeftButtonReleaseEvtRelay</text>
<text text-anchor="middle" x="235.5" y="-331" font-family="FreeSans" font-size="10.00">KeyPressEvtRelay</text>
<text text-anchor="middle" x="235.5" y="-319" font-family="FreeSans" font-size="10.00">DomainModifiedEvtRelay</text>
<text text-anchor="middle" x="235.5" y="-307" font-family="FreeSans" font-size="10.00">VolumeMapperComputeGradientsStartEvtRelay</text>
<text text-anchor="middle" x="235.5" y="-295" font-family="FreeSans" font-size="10.00">ErrorEvtRelay</text>
<text text-anchor="middle" x="235.5" y="-283" font-family="FreeSans" font-size="10.00">VolumeMapperRenderStartEvtRelay</text>
<text text-anchor="middle" x="235.5" y="-271" font-family="FreeSans" font-size="10.00">StartEvtRelay</text>
<text text-anchor="middle" x="235.5" y="-259" font-family="FreeSans" font-size="10.00">ResetCameraEvtRelay</text>
<text text-anchor="middle" x="235.5" y="-247" font-family="FreeSans" font-size="10.00">EnableEvtRelay</text>
<text text-anchor="middle" x="235.5" y="-235" font-family="FreeSans" font-size="10.00">DeleteEvtRelay</text>
<text text-anchor="middle" x="235.5" y="-223" font-family="FreeSans" font-size="10.00">...</text>
</g>
<!-- Node7&#45;&gt;Node8 -->
<g id="edge20" class="edge"><title>Node7&#45;&gt;Node8</title>
<path fill="none" stroke="#9a32cd" stroke-dasharray="5,2" d="M133.028,-401.231C132.649,-404.169 132.293,-407.159 132,-410 126.144,-466.853 122.636,-535.333 121.452,-560.807"/>
<polygon fill="#9a32cd" stroke="#9a32cd" points="136.515,-401.565 134.421,-391.179 129.582,-400.604 136.515,-401.565"/>
<text text-anchor="middle" x="245.5" y="-533" font-family="FreeSans" font-size="10.00"> LeftButtonReleaseEvtRelay</text>
<text text-anchor="middle" x="245.5" y="-521" font-family="FreeSans" font-size="10.00">KeyPressEvtRelay</text>
<text text-anchor="middle" x="245.5" y="-509" font-family="FreeSans" font-size="10.00">DomainModifiedEvtRelay</text>
<text text-anchor="middle" x="245.5" y="-497" font-family="FreeSans" font-size="10.00">VolumeMapperComputeGradientsStartEvtRelay</text>
<text text-anchor="middle" x="245.5" y="-485" font-family="FreeSans" font-size="10.00">ErrorEvtRelay</text>
<text text-anchor="middle" x="245.5" y="-473" font-family="FreeSans" font-size="10.00">VolumeMapperRenderStartEvtRelay</text>
<text text-anchor="middle" x="245.5" y="-461" font-family="FreeSans" font-size="10.00">StartEvtRelay</text>
<text text-anchor="middle" x="245.5" y="-449" font-family="FreeSans" font-size="10.00">ResetCameraEvtRelay</text>
<text text-anchor="middle" x="245.5" y="-437" font-family="FreeSans" font-size="10.00">EnableEvtRelay</text>
<text text-anchor="middle" x="245.5" y="-425" font-family="FreeSans" font-size="10.00">DeleteEvtRelay</text>
<text text-anchor="middle" x="245.5" y="-413" font-family="FreeSans" font-size="10.00">...</text>
</g>
<!-- Node8&#45;&gt;Node7 -->
<g id="edge16" class="edge"><title>Node8&#45;&gt;Node7</title>
<path fill="none" stroke="#9a32cd" stroke-dasharray="5,2" d="M74.9794,-555.818C69.4393,-552.138 64.5104,-547.596 61,-542 29.8229,-492.303 27.8299,-458.389 61,-410 65.7359,-403.091 82.5114,-396.287 98.9987,-391.008"/>
<polygon fill="#9a32cd" stroke="#9a32cd" points="73.6386,-559.079 84.0724,-560.919 77.0636,-552.974 73.6386,-559.079"/>
<text text-anchor="middle" x="85" y="-479" font-family="FreeSans" font-size="10.00"> Sender</text>
<text text-anchor="middle" x="85" y="-467" font-family="FreeSans" font-size="10.00">EventImpl</text>
</g>
</g>
</svg>
