<?xml version="1.0" encoding="UTF-8" standalone="no"?>
<!DOCTYPE svg PUBLIC "-//W3C//DTD SVG 1.1//EN"
 "http://www.w3.org/Graphics/SVG/1.1/DTD/svg11.dtd">
<!-- Generated by graphviz version 2.26.3 (20100126.1600)
 -->
<!-- Title: G Pages: 1 -->
<svg width="448pt" height="650pt"
 viewBox="0.00 0.00 448.46 650.00" xmlns="http://www.w3.org/2000/svg" xmlns:xlink="http://www.w3.org/1999/xlink">
<g id="graph1" class="graph" transform="scale(1 1) rotate(0) translate(4 646)">
<title>G</title>
<!-- Node1 -->
<g id="node1" class="node"><title>Node1</title>
<polygon fill="#bfbfbf" stroke="black" points="0,-1 0,-21 224,-21 224,-1 0,-1"/>
<text text-anchor="middle" x="112" y="-8" font-family="FreeSans" font-size="10.00">Kitware.VTK.vtkPassThroughLayoutStrategy</text>
</g>
<!-- Node2 -->
<g id="node2" class="node"><title>Node2</title>
<a xlink:href="class_kitware_1_1_v_t_k_1_1vtk_graph_layout_strategy.html" target="_top" xlink:title="vtkGraphLayoutStrategy &#45; abstract superclass for all graph layout strategies">
<polygon fill="none" stroke="black" points="45,-61 45,-81 179,-81 179,-61 45,-61"/>
<text text-anchor="middle" x="112" y="-68" font-family="FreeSans" font-size="10.00">vtkGraphLayoutStrategy</text>
</a>
</g>
<!-- Node2&#45;&gt;Node1 -->
<g id="edge2" class="edge"><title>Node2&#45;&gt;Node1</title>
<path fill="none" stroke="midnightblue" d="M112,-50.5155C112,-40.562 112,-29.0495 112,-21.0279"/>
<polygon fill="midnightblue" stroke="midnightblue" points="108.5,-50.8218 112,-60.8218 115.5,-50.8219 108.5,-50.8218"/>
</g>
<!-- Node3 -->
<g id="node4" class="node"><title>Node3</title>
<a xlink:href="class_kitware_1_1_v_t_k_1_1vtk_object.html" target="_top" xlink:title="vtkObject &#45; abstract base class for most VTK objects">
<polygon fill="none" stroke="black" points="81,-121 81,-141 143,-141 143,-121 81,-121"/>
<text text-anchor="middle" x="112" y="-128" font-family="FreeSans" font-size="10.00">vtkObject</text>
</a>
</g>
<!-- Node3&#45;&gt;Node2 -->
<g id="edge4" class="edge"><title>Node3&#45;&gt;Node2</title>
<path fill="none" stroke="midnightblue" d="M112,-110.516C112,-100.562 112,-89.0495 112,-81.0279"/>
<polygon fill="midnightblue" stroke="midnightblue" points="108.5,-110.822 112,-120.822 115.5,-110.822 108.5,-110.822"/>
</g>
<!-- Node4 -->
<g id="node6" class="node"><title>Node4</title>
<a xlink:href="class_kitware_1_1_v_t_k_1_1vtk_object_base.html" target="_top" xlink:title="vtkObjectBase &#45; abstract base class for most VTK objects">
<polygon fill="none" stroke="black" points="132,-561 132,-581 218,-581 218,-561 132,-561"/>
<text text-anchor="middle" x="175" y="-568" font-family="FreeSans" font-size="10.00">vtkObjectBase</text>
</a>
</g>
<!-- Node4&#45;&gt;Node3 -->
<g id="edge6" class="edge"><title>Node4&#45;&gt;Node3</title>
<path fill="none" stroke="midnightblue" d="M146.423,-555.886C132.687,-547.44 116.884,-535.826 106,-522 94.1564,-506.955 93.6209,-500.802 90,-482 64.4248,-349.199 99.5766,-183.437 109.516,-141.17"/>
<polygon fill="midnightblue" stroke="midnightblue" points="144.683,-558.923 155.079,-560.97 148.229,-552.887 144.683,-558.923"/>
</g>
<!-- Node7 -->
<g id="node13" class="node"><title>Node7</title>
<a xlink:href="class_kitware_1_1_v_t_k_1_1vtk_object.html" target="_top" xlink:title="vtkObject &#45; abstract base class for most VTK objects">
<polygon fill="none" stroke="black" points="115,-501 115,-521 235,-521 235,-501 115,-501"/>
<text text-anchor="middle" x="175" y="-508" font-family="FreeSans" font-size="10.00">Kitware.VTK.vtkObject</text>
</a>
</g>
<!-- Node4&#45;&gt;Node7 -->
<g id="edge16" class="edge"><title>Node4&#45;&gt;Node7</title>
<path fill="none" stroke="midnightblue" d="M175,-550.516C175,-540.562 175,-529.05 175,-521.028"/>
<polygon fill="midnightblue" stroke="midnightblue" points="171.5,-550.822 175,-560.822 178.5,-550.822 171.5,-550.822"/>
</g>
<!-- Node5 -->
<g id="node8" class="node"><title>Node5</title>
<a xlink:href="class_kitware_1_1_v_t_k_1_1_wrapped_object.html" target="_top" xlink:title="Base class for all the mummy wrapped classes in Kitware.VTK.">
<polygon fill="none" stroke="black" points="313.5,-621 313.5,-641 402.5,-641 402.5,-621 313.5,-621"/>
<text text-anchor="middle" x="358" y="-628" font-family="FreeSans" font-size="10.00">WrappedObject</text>
</a>
</g>
<!-- Node5&#45;&gt;Node4 -->
<g id="edge8" class="edge"><title>Node5&#45;&gt;Node4</title>
<path fill="none" stroke="midnightblue" d="M317.804,-617.821C284.042,-606.752 236.512,-591.168 205.73,-581.075"/>
<polygon fill="midnightblue" stroke="midnightblue" points="316.777,-621.168 327.37,-620.957 318.958,-614.516 316.777,-621.168"/>
</g>
<!-- Node6 -->
<g id="node10" class="node"><title>Node6</title>
<a xlink:href="class_kitware_1_1_v_t_k_1_1vtk_object_event_relay.html" target="_top" xlink:title="Implement a relay handler for VTK events. This is a class that receives events directly from the VTK ...">
<polygon fill="none" stroke="black" points="104,-311 104,-331 276,-331 276,-311 104,-311"/>
<text text-anchor="middle" x="190" y="-318" font-family="FreeSans" font-size="10.00">Kitware.VTK.vtkObjectEventRelay</text>
</a>
</g>
<!-- Node5&#45;&gt;Node6 -->
<g id="edge12" class="edge"><title>Node5&#45;&gt;Node6</title>
<path fill="none" stroke="midnightblue" d="M370.888,-612.325C403.276,-562.899 480.803,-427.191 413,-350 403.773,-339.495 335.047,-331.666 276.298,-326.808"/>
<polygon fill="midnightblue" stroke="midnightblue" points="367.891,-610.509 365.239,-620.767 373.709,-614.402 367.891,-610.509"/>
</g>
<!-- Node6&#45;&gt;Node3 -->
<g id="edge10" class="edge"><title>Node6&#45;&gt;Node3</title>
<path fill="none" stroke="#9a32cd" stroke-dasharray="5,2" d="M181.921,-301.321C165.489,-261.293 128.674,-171.616 116.214,-141.266"/>
<polygon fill="#9a32cd" stroke="#9a32cd" points="178.771,-302.863 185.806,-310.785 185.246,-300.205 178.771,-302.863"/>
<text text-anchor="middle" x="289.5" y="-283" font-family="FreeSans" font-size="10.00"> LeftButtonReleaseEvtRelay</text>
<text text-anchor="middle" x="289.5" y="-271" font-family="FreeSans" font-size="10.00">KeyPressEvtRelay</text>
<text text-anchor="middle" x="289.5" y="-259" font-family="FreeSans" font-size="10.00">DomainModifiedEvtRelay</text>
<text text-anchor="middle" x="289.5" y="-247" font-family="FreeSans" font-size="10.00">VolumeMapperComputeGradientsStartEvtRelay</text>
<text text-anchor="middle" x="289.5" y="-235" font-family="FreeSans" font-size="10.00">ErrorEvtRelay</text>
<text text-anchor="middle" x="289.5" y="-223" font-family="FreeSans" font-size="10.00">VolumeMapperRenderStartEvtRelay</text>
<text text-anchor="middle" x="289.5" y="-211" font-family="FreeSans" font-size="10.00">StartEvtRelay</text>
<text text-anchor="middle" x="289.5" y="-199" font-family="FreeSans" font-size="10.00">ResetCameraEvtRelay</text>
<text text-anchor="middle" x="289.5" y="-187" font-family="FreeSans" font-size="10.00">EnableEvtRelay</text>
<text text-anchor="middle" x="289.5" y="-175" font-family="FreeSans" font-size="10.00">DeleteEvtRelay</text>
<text text-anchor="middle" x="289.5" y="-163" font-family="FreeSans" font-size="10.00">...</text>
</g>
<!-- Node6&#45;&gt;Node7 -->
<g id="edge18" class="edge"><title>Node6&#45;&gt;Node7</title>
<path fill="none" stroke="#9a32cd" stroke-dasharray="5,2" d="M187.028,-341.231C186.649,-344.169 186.293,-347.159 186,-350 180.144,-406.853 176.636,-475.333 175.452,-500.807"/>
<polygon fill="#9a32cd" stroke="#9a32cd" points="190.515,-341.565 188.421,-331.179 183.582,-340.604 190.515,-341.565"/>
<text text-anchor="middle" x="299.5" y="-473" font-family="FreeSans" font-size="10.00"> LeftButtonReleaseEvtRelay</text>
<text text-anchor="middle" x="299.5" y="-461" font-family="FreeSans" font-size="10.00">KeyPressEvtRelay</text>
<text text-anchor="middle" x="299.5" y="-449" font-family="FreeSans" font-size="10.00">DomainModifiedEvtRelay</text>
<text text-anchor="middle" x="299.5" y="-437" font-family="FreeSans" font-size="10.00">VolumeMapperComputeGradientsStartEvtRelay</text>
<text text-anchor="middle" x="299.5" y="-425" font-family="FreeSans" font-size="10.00">ErrorEvtRelay</text>
<text text-anchor="middle" x="299.5" y="-413" font-family="FreeSans" font-size="10.00">VolumeMapperRenderStartEvtRelay</text>
<text text-anchor="middle" x="299.5" y="-401" font-family="FreeSans" font-size="10.00">StartEvtRelay</text>
<text text-anchor="middle" x="299.5" y="-389" font-family="FreeSans" font-size="10.00">ResetCameraEvtRelay</text>
<text text-anchor="middle" x="299.5" y="-377" font-family="FreeSans" font-size="10.00">EnableEvtRelay</text>
<text text-anchor="middle" x="299.5" y="-365" font-family="FreeSans" font-size="10.00">DeleteEvtRelay</text>
<text text-anchor="middle" x="299.5" y="-353" font-family="FreeSans" font-size="10.00">...</text>
</g>
<!-- Node7&#45;&gt;Node6 -->
<g id="edge14" class="edge"><title>Node7&#45;&gt;Node6</title>
<path fill="none" stroke="#9a32cd" stroke-dasharray="5,2" d="M128.979,-495.818C123.439,-492.138 118.51,-487.596 115,-482 83.8229,-432.303 81.8299,-398.389 115,-350 119.736,-343.091 136.511,-336.287 152.999,-331.008"/>
<polygon fill="#9a32cd" stroke="#9a32cd" points="127.639,-499.079 138.072,-500.919 131.064,-492.974 127.639,-499.079"/>
<text text-anchor="middle" x="139" y="-419" font-family="FreeSans" font-size="10.00"> Sender</text>
<text text-anchor="middle" x="139" y="-407" font-family="FreeSans" font-size="10.00">EventImpl</text>
</g>
</g>
</svg>
