<?xml version="1.0" encoding="UTF-8" standalone="no"?>
<!DOCTYPE svg PUBLIC "-//W3C//DTD SVG 1.1//EN"
 "http://www.w3.org/Graphics/SVG/1.1/DTD/svg11.dtd">
<!-- Generated by graphviz version 2.26.3 (20100126.1600)
 -->
<!-- Title: G Pages: 1 -->
<svg width="478pt" height="436pt"
 viewBox="0.00 0.00 478.00 436.00" xmlns="http://www.w3.org/2000/svg" xmlns:xlink="http://www.w3.org/1999/xlink">
<g id="graph1" class="graph" transform="scale(1 1) rotate(0) translate(4 432)">
<title>G</title>
<!-- Node1 -->
<g id="node1" class="node"><title>Node1</title>
<polygon fill="#bfbfbf" stroke="black" points="150.5,-59 150.5,-79 303.5,-79 303.5,-59 150.5,-59"/>
<text text-anchor="middle" x="227" y="-66" font-family="FreeSans" font-size="10.00">Kitware.VTK.vtkTreeAreaView</text>
</g>
<!-- Node8 -->
<g id="node15" class="node"><title>Node8</title>
<a xlink:href="class_kitware_1_1_v_t_k_1_1vtk_icicle_view.html" target="_top" xlink:title="vtkIcicleView &#45; Displays a tree in a stacked &quot;icicle&quot; view">
<polygon fill="none" stroke="black" points="0,-1 0,-21 134,-21 134,-1 0,-1"/>
<text text-anchor="middle" x="67" y="-8" font-family="FreeSans" font-size="10.00">Kitware.VTK.vtkIcicleView</text>
</a>
</g>
<!-- Node1&#45;&gt;Node8 -->
<g id="edge14" class="edge"><title>Node1&#45;&gt;Node8</title>
<path fill="none" stroke="midnightblue" d="M189.355,-55.3536C160.381,-44.8504 120.991,-30.5716 94.8185,-21.0842"/>
<polygon fill="midnightblue" stroke="midnightblue" points="188.536,-58.7796 199.13,-58.8972 190.922,-52.1986 188.536,-58.7796"/>
</g>
<!-- Node9 -->
<g id="node17" class="node"><title>Node9</title>
<a xlink:href="class_kitware_1_1_v_t_k_1_1vtk_tree_map_view.html" target="_top" xlink:title="vtkTreeMapView &#45; Displays a tree as a tree map.">
<polygon fill="none" stroke="black" points="151.5,-1 151.5,-21 302.5,-21 302.5,-1 151.5,-1"/>
<text text-anchor="middle" x="227" y="-8" font-family="FreeSans" font-size="10.00">Kitware.VTK.vtkTreeMapView</text>
</a>
</g>
<!-- Node1&#45;&gt;Node9 -->
<g id="edge16" class="edge"><title>Node1&#45;&gt;Node9</title>
<path fill="none" stroke="midnightblue" d="M227,-48.8902C227,-39.6201 227,-29.0083 227,-21.3776"/>
<polygon fill="midnightblue" stroke="midnightblue" points="223.5,-48.8971 227,-58.8972 230.5,-48.8972 223.5,-48.8971"/>
</g>
<!-- Node10 -->
<g id="node19" class="node"><title>Node10</title>
<a xlink:href="class_kitware_1_1_v_t_k_1_1vtk_tree_ring_view.html" target="_top" xlink:title="vtkTreeRingView &#45; Displays a tree in concentric rings.">
<polygon fill="none" stroke="black" points="319.5,-1 319.5,-21 470.5,-21 470.5,-1 319.5,-1"/>
<text text-anchor="middle" x="395" y="-8" font-family="FreeSans" font-size="10.00">Kitware.VTK.vtkTreeRingView</text>
</a>
</g>
<!-- Node1&#45;&gt;Node10 -->
<g id="edge18" class="edge"><title>Node1&#45;&gt;Node10</title>
<path fill="none" stroke="midnightblue" d="M265.733,-55.6279C296.227,-45.1002 338.07,-30.6545 365.791,-21.0842"/>
<polygon fill="midnightblue" stroke="midnightblue" points="264.574,-52.3253 256.263,-58.8972 266.858,-58.9421 264.574,-52.3253"/>
</g>
<!-- Node2 -->
<g id="node2" class="node"><title>Node2</title>
<a xlink:href="class_kitware_1_1_v_t_k_1_1vtk_render_view.html" target="_top" xlink:title="vtkRenderView &#45; A view containing a renderer.">
<polygon fill="none" stroke="black" points="184,-117 184,-137 270,-137 270,-117 184,-117"/>
<text text-anchor="middle" x="227" y="-124" font-family="FreeSans" font-size="10.00">vtkRenderView</text>
</a>
</g>
<!-- Node2&#45;&gt;Node1 -->
<g id="edge2" class="edge"><title>Node2&#45;&gt;Node1</title>
<path fill="none" stroke="midnightblue" d="M227,-106.89C227,-97.6201 227,-87.0083 227,-79.3776"/>
<polygon fill="midnightblue" stroke="midnightblue" points="223.5,-106.897 227,-116.897 230.5,-106.897 223.5,-106.897"/>
</g>
<!-- Node3 -->
<g id="node4" class="node"><title>Node3</title>
<a xlink:href="class_kitware_1_1_v_t_k_1_1vtk_render_view_base.html" target="_top" xlink:title="vtkRenderViewBase &#45; A base view containing a renderer.">
<polygon fill="none" stroke="black" points="172,-175 172,-195 282,-195 282,-175 172,-175"/>
<text text-anchor="middle" x="227" y="-182" font-family="FreeSans" font-size="10.00">vtkRenderViewBase</text>
</a>
</g>
<!-- Node3&#45;&gt;Node2 -->
<g id="edge4" class="edge"><title>Node3&#45;&gt;Node2</title>
<path fill="none" stroke="midnightblue" d="M227,-164.89C227,-155.62 227,-145.008 227,-137.378"/>
<polygon fill="midnightblue" stroke="midnightblue" points="223.5,-164.897 227,-174.897 230.5,-164.897 223.5,-164.897"/>
</g>
<!-- Node4 -->
<g id="node6" class="node"><title>Node4</title>
<a xlink:href="class_kitware_1_1_v_t_k_1_1vtk_view.html" target="_top" xlink:title="vtkView &#45; The superclass for all views.">
<polygon fill="none" stroke="black" points="200.5,-233 200.5,-253 253.5,-253 253.5,-233 200.5,-233"/>
<text text-anchor="middle" x="227" y="-240" font-family="FreeSans" font-size="10.00">vtkView</text>
</a>
</g>
<!-- Node4&#45;&gt;Node3 -->
<g id="edge6" class="edge"><title>Node4&#45;&gt;Node3</title>
<path fill="none" stroke="midnightblue" d="M227,-222.89C227,-213.62 227,-203.008 227,-195.378"/>
<polygon fill="midnightblue" stroke="midnightblue" points="223.5,-222.897 227,-232.897 230.5,-222.897 223.5,-222.897"/>
</g>
<!-- Node5 -->
<g id="node8" class="node"><title>Node5</title>
<a xlink:href="class_kitware_1_1_v_t_k_1_1vtk_object.html" target="_top" xlink:title="vtkObject &#45; abstract base class for most VTK objects">
<polygon fill="none" stroke="black" points="196,-291 196,-311 258,-311 258,-291 196,-291"/>
<text text-anchor="middle" x="227" y="-298" font-family="FreeSans" font-size="10.00">vtkObject</text>
</a>
</g>
<!-- Node5&#45;&gt;Node4 -->
<g id="edge8" class="edge"><title>Node5&#45;&gt;Node4</title>
<path fill="none" stroke="midnightblue" d="M227,-280.89C227,-271.62 227,-261.008 227,-253.378"/>
<polygon fill="midnightblue" stroke="midnightblue" points="223.5,-280.897 227,-290.897 230.5,-280.897 223.5,-280.897"/>
</g>
<!-- Node6 -->
<g id="node10" class="node"><title>Node6</title>
<a xlink:href="class_kitware_1_1_v_t_k_1_1vtk_object_base.html" target="_top" xlink:title="vtkObjectBase &#45; abstract base class for most VTK objects">
<polygon fill="none" stroke="black" points="184,-349 184,-369 270,-369 270,-349 184,-349"/>
<text text-anchor="middle" x="227" y="-356" font-family="FreeSans" font-size="10.00">vtkObjectBase</text>
</a>
</g>
<!-- Node6&#45;&gt;Node5 -->
<g id="edge10" class="edge"><title>Node6&#45;&gt;Node5</title>
<path fill="none" stroke="midnightblue" d="M227,-338.89C227,-329.62 227,-319.008 227,-311.378"/>
<polygon fill="midnightblue" stroke="midnightblue" points="223.5,-338.897 227,-348.897 230.5,-338.897 223.5,-338.897"/>
</g>
<!-- Node7 -->
<g id="node12" class="node"><title>Node7</title>
<a xlink:href="class_kitware_1_1_v_t_k_1_1_wrapped_object.html" target="_top" xlink:title="Base class for all the mummy wrapped classes in Kitware.VTK.">
<polygon fill="none" stroke="black" points="182.5,-407 182.5,-427 271.5,-427 271.5,-407 182.5,-407"/>
<text text-anchor="middle" x="227" y="-414" font-family="FreeSans" font-size="10.00">WrappedObject</text>
</a>
</g>
<!-- Node7&#45;&gt;Node6 -->
<g id="edge12" class="edge"><title>Node7&#45;&gt;Node6</title>
<path fill="none" stroke="midnightblue" d="M227,-396.89C227,-387.62 227,-377.008 227,-369.378"/>
<polygon fill="midnightblue" stroke="midnightblue" points="223.5,-396.897 227,-406.897 230.5,-396.897 223.5,-396.897"/>
</g>
</g>
</svg>
