<?xml version="1.0" encoding="UTF-8" standalone="no"?>
<!DOCTYPE svg PUBLIC "-//W3C//DTD SVG 1.1//EN"
 "http://www.w3.org/Graphics/SVG/1.1/DTD/svg11.dtd">
<!-- Generated by graphviz version 2.26.3 (20100126.1600)
 -->
<!-- Title: G Pages: 1 -->
<svg width="194pt" height="320pt"
 viewBox="0.00 0.00 194.00 320.00" xmlns="http://www.w3.org/2000/svg" xmlns:xlink="http://www.w3.org/1999/xlink">
<g id="graph1" class="graph" transform="scale(1 1) rotate(0) translate(4 316)">
<title>G</title>
<!-- Node1 -->
<g id="node1" class="node"><title>Node1</title>
<polygon fill="#bfbfbf" stroke="black" points="-0.5,-1 -0.5,-21 186.5,-21 186.5,-1 -0.5,-1"/>
<text text-anchor="middle" x="93" y="-8" font-family="FreeSans" font-size="10.00">Kitware.VTK.vtkGenericContourFilter</text>
</g>
<!-- Node2 -->
<g id="node2" class="node"><title>Node2</title>
<a xlink:href="class_kitware_1_1_v_t_k_1_1vtk_poly_data_algorithm.html" target="_top" xlink:title="vtkPolyDataAlgorithm &#45; Superclass for algorithms that produce only polydata as output">
<polygon fill="none" stroke="black" points="33,-59 33,-79 153,-79 153,-59 33,-59"/>
<text text-anchor="middle" x="93" y="-66" font-family="FreeSans" font-size="10.00">vtkPolyDataAlgorithm</text>
</a>
</g>
<!-- Node2&#45;&gt;Node1 -->
<g id="edge2" class="edge"><title>Node2&#45;&gt;Node1</title>
<path fill="none" stroke="midnightblue" d="M93,-48.8902C93,-39.6201 93,-29.0083 93,-21.3776"/>
<polygon fill="midnightblue" stroke="midnightblue" points="89.5001,-48.8971 93,-58.8972 96.5001,-48.8972 89.5001,-48.8971"/>
</g>
<!-- Node3 -->
<g id="node4" class="node"><title>Node3</title>
<a xlink:href="class_kitware_1_1_v_t_k_1_1vtk_algorithm.html" target="_top" xlink:title="vtkAlgorithm &#45; Superclass for all sources, filters, and sinks in VTK.">
<polygon fill="none" stroke="black" points="54.5,-117 54.5,-137 131.5,-137 131.5,-117 54.5,-117"/>
<text text-anchor="middle" x="93" y="-124" font-family="FreeSans" font-size="10.00">vtkAlgorithm</text>
</a>
</g>
<!-- Node3&#45;&gt;Node2 -->
<g id="edge4" class="edge"><title>Node3&#45;&gt;Node2</title>
<path fill="none" stroke="midnightblue" d="M93,-106.89C93,-97.6201 93,-87.0083 93,-79.3776"/>
<polygon fill="midnightblue" stroke="midnightblue" points="89.5001,-106.897 93,-116.897 96.5001,-106.897 89.5001,-106.897"/>
</g>
<!-- Node4 -->
<g id="node6" class="node"><title>Node4</title>
<a xlink:href="class_kitware_1_1_v_t_k_1_1vtk_object.html" target="_top" xlink:title="vtkObject &#45; abstract base class for most VTK objects">
<polygon fill="none" stroke="black" points="62,-175 62,-195 124,-195 124,-175 62,-175"/>
<text text-anchor="middle" x="93" y="-182" font-family="FreeSans" font-size="10.00">vtkObject</text>
</a>
</g>
<!-- Node4&#45;&gt;Node3 -->
<g id="edge6" class="edge"><title>Node4&#45;&gt;Node3</title>
<path fill="none" stroke="midnightblue" d="M93,-164.89C93,-155.62 93,-145.008 93,-137.378"/>
<polygon fill="midnightblue" stroke="midnightblue" points="89.5001,-164.897 93,-174.897 96.5001,-164.897 89.5001,-164.897"/>
</g>
<!-- Node5 -->
<g id="node8" class="node"><title>Node5</title>
<a xlink:href="class_kitware_1_1_v_t_k_1_1vtk_object_base.html" target="_top" xlink:title="vtkObjectBase &#45; abstract base class for most VTK objects">
<polygon fill="none" stroke="black" points="50,-233 50,-253 136,-253 136,-233 50,-233"/>
<text text-anchor="middle" x="93" y="-240" font-family="FreeSans" font-size="10.00">vtkObjectBase</text>
</a>
</g>
<!-- Node5&#45;&gt;Node4 -->
<g id="edge8" class="edge"><title>Node5&#45;&gt;Node4</title>
<path fill="none" stroke="midnightblue" d="M93,-222.89C93,-213.62 93,-203.008 93,-195.378"/>
<polygon fill="midnightblue" stroke="midnightblue" points="89.5001,-222.897 93,-232.897 96.5001,-222.897 89.5001,-222.897"/>
</g>
<!-- Node6 -->
<g id="node10" class="node"><title>Node6</title>
<a xlink:href="class_kitware_1_1_v_t_k_1_1_wrapped_object.html" target="_top" xlink:title="Base class for all the mummy wrapped classes in Kitware.VTK.">
<polygon fill="none" stroke="black" points="48.5,-291 48.5,-311 137.5,-311 137.5,-291 48.5,-291"/>
<text text-anchor="middle" x="93" y="-298" font-family="FreeSans" font-size="10.00">WrappedObject</text>
</a>
</g>
<!-- Node6&#45;&gt;Node5 -->
<g id="edge10" class="edge"><title>Node6&#45;&gt;Node5</title>
<path fill="none" stroke="midnightblue" d="M93,-280.89C93,-271.62 93,-261.008 93,-253.378"/>
<polygon fill="midnightblue" stroke="midnightblue" points="89.5001,-280.897 93,-290.897 96.5001,-280.897 89.5001,-280.897"/>
</g>
</g>
</svg>
