<?xml version="1.0" encoding="UTF-8" standalone="no"?>
<!DOCTYPE svg PUBLIC "-//W3C//DTD SVG 1.1//EN"
 "http://www.w3.org/Graphics/SVG/1.1/DTD/svg11.dtd">
<!-- Generated by graphviz version 2.26.3 (20100126.1600)
 -->
<!-- Title: G Pages: 1 -->
<svg width="1134pt" height="180pt"
 viewBox="0.00 0.00 1134.00 180.00" xmlns="http://www.w3.org/2000/svg" xmlns:xlink="http://www.w3.org/1999/xlink">
<g id="graph1" class="graph" transform="scale(1 1) rotate(0) translate(4 176)">
<title>G</title>
<!-- Node1 -->
<g id="node1" class="node"><title>Node1</title>
<polygon fill="#bfbfbf" stroke="black" points="688,-76 688,-96 854,-96 854,-76 688,-76"/>
<text text-anchor="middle" x="771" y="-83" font-family="FreeSans" font-size="10.00">Kitware.VTK.vtkLinearTransform</text>
</g>
<!-- Node7 -->
<g id="node13" class="node"><title>Node7</title>
<a xlink:href="class_kitware_1_1_v_t_k_1_1vtk_identity_transform.html" target="_top" xlink:title="vtkIdentityTransform &#45; a transform that doesn&#39;t do anything">
<polygon fill="none" stroke="black" points="922,-152 922,-172 1094,-172 1094,-152 922,-152"/>
<text text-anchor="middle" x="1008" y="-159" font-family="FreeSans" font-size="10.00">Kitware.VTK.vtkIdentityTransform</text>
</a>
</g>
<!-- Node1&#45;&gt;Node7 -->
<g id="edge12" class="edge"><title>Node1&#45;&gt;Node7</title>
<path fill="none" stroke="midnightblue" d="M797.078,-101.193C820.61,-114.237 856.565,-132.541 890,-143 901.585,-146.624 914.037,-149.584 926.355,-151.994"/>
<polygon fill="midnightblue" stroke="midnightblue" points="798.528,-97.9929 788.097,-96.1353 795.093,-104.092 798.528,-97.9929"/>
</g>
<!-- Node8 -->
<g id="node15" class="node"><title>Node8</title>
<a xlink:href="class_kitware_1_1_v_t_k_1_1vtk_iterative_closest_point_transform.html" target="_top" xlink:title="vtkIterativeClosestPointTransform &#45; Implementation of the ICP algorithm.">
<polygon fill="none" stroke="black" points="890.5,-114 890.5,-134 1125.5,-134 1125.5,-114 890.5,-114"/>
<text text-anchor="middle" x="1008" y="-121" font-family="FreeSans" font-size="10.00">Kitware.VTK.vtkIterativeClosestPointTransform</text>
</a>
</g>
<!-- Node1&#45;&gt;Node8 -->
<g id="edge14" class="edge"><title>Node1&#45;&gt;Node8</title>
<path fill="none" stroke="midnightblue" d="M843.502,-97.6249C876.09,-102.85 914.171,-108.956 945.482,-113.976"/>
<polygon fill="midnightblue" stroke="midnightblue" points="844.007,-94.1611 833.579,-96.0338 842.899,-101.073 844.007,-94.1611"/>
</g>
<!-- Node9 -->
<g id="node17" class="node"><title>Node9</title>
<a xlink:href="class_kitware_1_1_v_t_k_1_1vtk_landmark_transform.html" target="_top" xlink:title="vtkLandmarkTransform &#45; a linear transform specified by two corresponding point sets">
<polygon fill="none" stroke="black" points="915.5,-76 915.5,-96 1100.5,-96 1100.5,-76 915.5,-76"/>
<text text-anchor="middle" x="1008" y="-83" font-family="FreeSans" font-size="10.00">Kitware.VTK.vtkLandmarkTransform</text>
</a>
</g>
<!-- Node1&#45;&gt;Node9 -->
<g id="edge16" class="edge"><title>Node1&#45;&gt;Node9</title>
<path fill="none" stroke="midnightblue" d="M864.517,-86C881.213,-86 898.601,-86 915.274,-86"/>
<polygon fill="midnightblue" stroke="midnightblue" points="864.224,-82.5001 854.224,-86 864.224,-89.5001 864.224,-82.5001"/>
</g>
<!-- Node10 -->
<g id="node19" class="node"><title>Node10</title>
<a xlink:href="class_kitware_1_1_v_t_k_1_1vtk_matrix_to_linear_transform.html" target="_top" xlink:title="vtkMatrixToLinearTransform &#45; convert a matrix to a transform">
<polygon fill="none" stroke="black" points="905.5,-38 905.5,-58 1110.5,-58 1110.5,-38 905.5,-38"/>
<text text-anchor="middle" x="1008" y="-45" font-family="FreeSans" font-size="10.00">Kitware.VTK.vtkMatrixToLinearTransform</text>
</a>
</g>
<!-- Node1&#45;&gt;Node10 -->
<g id="edge18" class="edge"><title>Node1&#45;&gt;Node10</title>
<path fill="none" stroke="midnightblue" d="M843.502,-74.3751C876.09,-69.1502 914.171,-63.0443 945.482,-58.024"/>
<polygon fill="midnightblue" stroke="midnightblue" points="842.899,-70.9271 833.579,-75.9662 844.007,-77.8389 842.899,-70.9271"/>
</g>
<!-- Node11 -->
<g id="node21" class="node"><title>Node11</title>
<a xlink:href="class_kitware_1_1_v_t_k_1_1vtk_transform.html" target="_top" xlink:title="vtkTransform &#45; describes linear transformations via a 4x4 matrix">
<polygon fill="none" stroke="black" points="939.5,-0 939.5,-20 1076.5,-20 1076.5,-0 939.5,-0"/>
<text text-anchor="middle" x="1008" y="-7" font-family="FreeSans" font-size="10.00">Kitware.VTK.vtkTransform</text>
</a>
</g>
<!-- Node1&#45;&gt;Node11 -->
<g id="edge20" class="edge"><title>Node1&#45;&gt;Node11</title>
<path fill="none" stroke="midnightblue" d="M797.078,-70.8071C820.61,-57.7632 856.565,-39.4589 890,-29 905.645,-24.106 922.871,-20.4232 939.213,-17.67"/>
<polygon fill="midnightblue" stroke="midnightblue" points="795.093,-67.9078 788.097,-75.8647 798.528,-74.0071 795.093,-67.9078"/>
</g>
<!-- Node2 -->
<g id="node2" class="node"><title>Node2</title>
<a xlink:href="class_kitware_1_1_v_t_k_1_1vtk_homogeneous_transform.html" target="_top" xlink:title="vtkHomogeneousTransform &#45; superclass for homogeneous transformations">
<polygon fill="none" stroke="black" points="502.5,-76 502.5,-96 651.5,-96 651.5,-76 502.5,-76"/>
<text text-anchor="middle" x="577" y="-83" font-family="FreeSans" font-size="10.00">vtkHomogeneousTransform</text>
</a>
</g>
<!-- Node2&#45;&gt;Node1 -->
<g id="edge2" class="edge"><title>Node2&#45;&gt;Node1</title>
<path fill="none" stroke="midnightblue" d="M661.819,-86C670.481,-86 679.275,-86 687.918,-86"/>
<polygon fill="midnightblue" stroke="midnightblue" points="661.728,-82.5001 651.728,-86 661.728,-89.5001 661.728,-82.5001"/>
</g>
<!-- Node3 -->
<g id="node4" class="node"><title>Node3</title>
<a xlink:href="class_kitware_1_1_v_t_k_1_1vtk_abstract_transform.html" target="_top" xlink:title="vtkAbstractTransform &#45; superclass for all geometric transformations">
<polygon fill="none" stroke="black" points="346.5,-76 346.5,-96 465.5,-96 465.5,-76 346.5,-76"/>
<text text-anchor="middle" x="406" y="-83" font-family="FreeSans" font-size="10.00">vtkAbstractTransform</text>
</a>
</g>
<!-- Node3&#45;&gt;Node2 -->
<g id="edge4" class="edge"><title>Node3&#45;&gt;Node2</title>
<path fill="none" stroke="midnightblue" d="M475.952,-86C484.701,-86 493.675,-86 502.49,-86"/>
<polygon fill="midnightblue" stroke="midnightblue" points="475.808,-82.5001 465.808,-86 475.807,-89.5001 475.808,-82.5001"/>
</g>
<!-- Node4 -->
<g id="node6" class="node"><title>Node4</title>
<a xlink:href="class_kitware_1_1_v_t_k_1_1vtk_object.html" target="_top" xlink:title="vtkObject &#45; abstract base class for most VTK objects">
<polygon fill="none" stroke="black" points="248,-76 248,-96 310,-96 310,-76 248,-76"/>
<text text-anchor="middle" x="279" y="-83" font-family="FreeSans" font-size="10.00">vtkObject</text>
</a>
</g>
<!-- Node4&#45;&gt;Node3 -->
<g id="edge6" class="edge"><title>Node4&#45;&gt;Node3</title>
<path fill="none" stroke="midnightblue" d="M320.297,-86C328.661,-86 337.614,-86 346.464,-86"/>
<polygon fill="midnightblue" stroke="midnightblue" points="320.068,-82.5001 310.068,-86 320.068,-89.5001 320.068,-82.5001"/>
</g>
<!-- Node5 -->
<g id="node8" class="node"><title>Node5</title>
<a xlink:href="class_kitware_1_1_v_t_k_1_1vtk_object_base.html" target="_top" xlink:title="vtkObjectBase &#45; abstract base class for most VTK objects">
<polygon fill="none" stroke="black" points="126,-76 126,-96 212,-96 212,-76 126,-76"/>
<text text-anchor="middle" x="169" y="-83" font-family="FreeSans" font-size="10.00">vtkObjectBase</text>
</a>
</g>
<!-- Node5&#45;&gt;Node4 -->
<g id="edge8" class="edge"><title>Node5&#45;&gt;Node4</title>
<path fill="none" stroke="midnightblue" d="M222.346,-86C231.091,-86 239.892,-86 247.863,-86"/>
<polygon fill="midnightblue" stroke="midnightblue" points="222.159,-82.5001 212.159,-86 222.159,-89.5001 222.159,-82.5001"/>
</g>
<!-- Node6 -->
<g id="node10" class="node"><title>Node6</title>
<a xlink:href="class_kitware_1_1_v_t_k_1_1_wrapped_object.html" target="_top" xlink:title="Base class for all the mummy wrapped classes in Kitware.VTK.">
<polygon fill="none" stroke="black" points="0.5,-76 0.5,-96 89.5,-96 89.5,-76 0.5,-76"/>
<text text-anchor="middle" x="45" y="-83" font-family="FreeSans" font-size="10.00">WrappedObject</text>
</a>
</g>
<!-- Node6&#45;&gt;Node5 -->
<g id="edge10" class="edge"><title>Node6&#45;&gt;Node5</title>
<path fill="none" stroke="midnightblue" d="M99.8895,-86C108.623,-86 117.548,-86 125.957,-86"/>
<polygon fill="midnightblue" stroke="midnightblue" points="99.7669,-82.5001 89.7668,-86 99.7668,-89.5001 99.7669,-82.5001"/>
</g>
</g>
</svg>
