<?xml version="1.0" encoding="UTF-8" standalone="no"?>
<!DOCTYPE svg PUBLIC "-//W3C//DTD SVG 1.1//EN"
 "http://www.w3.org/Graphics/SVG/1.1/DTD/svg11.dtd">
<!-- Generated by graphviz version 2.26.3 (20100126.1600)
 -->
<!-- Title: G Pages: 1 -->
<svg width="354pt" height="340pt"
 viewBox="0.00 0.00 354.30 340.00" xmlns="http://www.w3.org/2000/svg" xmlns:xlink="http://www.w3.org/1999/xlink">
<g id="graph1" class="graph" transform="scale(1 1) rotate(0) translate(4 336)">
<title>G</title>
<!-- Node1 -->
<g id="node1" class="node"><title>Node1</title>
<polygon fill="#bfbfbf" stroke="black" points="26,-191 26,-211 146,-211 146,-191 26,-191"/>
<text text-anchor="middle" x="86" y="-198" font-family="FreeSans" font-size="10.00">Kitware.VTK.vtkObject</text>
</g>
<!-- Node4 -->
<g id="node6" class="node"><title>Node4</title>
<a xlink:href="class_kitware_1_1_v_t_k_1_1vtk_object_event_relay.html" target="_top" xlink:title="Implement a relay handler for VTK events. This is a class that receives events directly from the VTK ...">
<polygon fill="none" stroke="black" points="0,-1 0,-21 172,-21 172,-1 0,-1"/>
<text text-anchor="middle" x="86" y="-8" font-family="FreeSans" font-size="10.00">Kitware.VTK.vtkObjectEventRelay</text>
</a>
</g>
<!-- Node1&#45;&gt;Node4 -->
<g id="edge10" class="edge"><title>Node1&#45;&gt;Node4</title>
<path fill="none" stroke="#9a32cd" stroke-dasharray="5,2" d="M47.1844,-185.743C41.9215,-182.031 37.2292,-177.498 34,-172 4.28976,-121.413 4.28976,-90.5873 34,-40 38.9207,-31.6215 47.2388,-25.486 55.7958,-21.076"/>
<polygon fill="#9a32cd" stroke="#9a32cd" points="45.4226,-188.768 55.7958,-190.924 49.0311,-182.77 45.4226,-188.768"/>
<text text-anchor="middle" x="58" y="-109" font-family="FreeSans" font-size="10.00"> Sender</text>
<text text-anchor="middle" x="58" y="-97" font-family="FreeSans" font-size="10.00">EventImpl</text>
</g>
<!-- Node2 -->
<g id="node2" class="node"><title>Node2</title>
<a xlink:href="class_kitware_1_1_v_t_k_1_1vtk_object_base.html" target="_top" xlink:title="vtkObjectBase &#45; abstract base class for most VTK objects">
<polygon fill="none" stroke="black" points="171,-251 171,-271 257,-271 257,-251 171,-251"/>
<text text-anchor="middle" x="214" y="-258" font-family="FreeSans" font-size="10.00">vtkObjectBase</text>
</a>
</g>
<!-- Node2&#45;&gt;Node1 -->
<g id="edge2" class="edge"><title>Node2&#45;&gt;Node1</title>
<path fill="none" stroke="midnightblue" d="M183.419,-246.665C160.001,-235.688 128.286,-220.821 107.494,-211.075"/>
<polygon fill="midnightblue" stroke="midnightblue" points="182.036,-249.882 192.576,-250.957 185.007,-243.544 182.036,-249.882"/>
</g>
<!-- Node3 -->
<g id="node4" class="node"><title>Node3</title>
<a xlink:href="class_kitware_1_1_v_t_k_1_1_wrapped_object.html" target="_top" xlink:title="Base class for all the mummy wrapped classes in Kitware.VTK.">
<polygon fill="none" stroke="black" points="248.5,-311 248.5,-331 337.5,-331 337.5,-311 248.5,-311"/>
<text text-anchor="middle" x="293" y="-318" font-family="FreeSans" font-size="10.00">WrappedObject</text>
</a>
</g>
<!-- Node3&#45;&gt;Node2 -->
<g id="edge4" class="edge"><title>Node3&#45;&gt;Node2</title>
<path fill="none" stroke="midnightblue" d="M271.386,-304.584C257.251,-293.849 239.242,-280.171 227.203,-271.028"/>
<polygon fill="midnightblue" stroke="midnightblue" points="269.518,-307.561 279.599,-310.822 273.752,-301.986 269.518,-307.561"/>
</g>
<!-- Node3&#45;&gt;Node4 -->
<g id="edge8" class="edge"><title>Node3&#45;&gt;Node4</title>
<path fill="none" stroke="midnightblue" d="M302.614,-301.894C326.271,-251.874 380.706,-115.728 314,-40 304.439,-29.1459 232.563,-21.2838 172.03,-16.5065"/>
<polygon fill="midnightblue" stroke="midnightblue" points="299.433,-300.433 298.213,-310.958 305.73,-303.491 299.433,-300.433"/>
</g>
<!-- Node4&#45;&gt;Node1 -->
<g id="edge6" class="edge"><title>Node4&#45;&gt;Node1</title>
<path fill="none" stroke="#9a32cd" stroke-dasharray="5,2" d="M86,-31.5192C86,-71.9709 86,-160.694 86,-190.785"/>
<polygon fill="#9a32cd" stroke="#9a32cd" points="89.5001,-31.2657 86,-21.2657 82.5001,-31.2658 89.5001,-31.2657"/>
<text text-anchor="middle" x="199.5" y="-163" font-family="FreeSans" font-size="10.00"> LeftButtonReleaseEvtRelay</text>
<text text-anchor="middle" x="199.5" y="-151" font-family="FreeSans" font-size="10.00">KeyPressEvtRelay</text>
<text text-anchor="middle" x="199.5" y="-139" font-family="FreeSans" font-size="10.00">DomainModifiedEvtRelay</text>
<text text-anchor="middle" x="199.5" y="-127" font-family="FreeSans" font-size="10.00">VolumeMapperComputeGradientsStartEvtRelay</text>
<text text-anchor="middle" x="199.5" y="-115" font-family="FreeSans" font-size="10.00">ErrorEvtRelay</text>
<text text-anchor="middle" x="199.5" y="-103" font-family="FreeSans" font-size="10.00">VolumeMapperRenderStartEvtRelay</text>
<text text-anchor="middle" x="199.5" y="-91" font-family="FreeSans" font-size="10.00">StartEvtRelay</text>
<text text-anchor="middle" x="199.5" y="-79" font-family="FreeSans" font-size="10.00">ResetCameraEvtRelay</text>
<text text-anchor="middle" x="199.5" y="-67" font-family="FreeSans" font-size="10.00">EnableEvtRelay</text>
<text text-anchor="middle" x="199.5" y="-55" font-family="FreeSans" font-size="10.00">DeleteEvtRelay</text>
<text text-anchor="middle" x="199.5" y="-43" font-family="FreeSans" font-size="10.00">...</text>
</g>
</g>
</svg>
