<?xml version="1.0" encoding="UTF-8" standalone="no"?>
<!DOCTYPE svg PUBLIC "-//W3C//DTD SVG 1.1//EN"
 "http://www.w3.org/Graphics/SVG/1.1/DTD/svg11.dtd">
<!-- Generated by graphviz version 2.26.3 (20100126.1600)
 -->
<!-- Title: G Pages: 1 -->
<svg width="406pt" height="770pt"
 viewBox="0.00 0.00 406.46 770.00" xmlns="http://www.w3.org/2000/svg" xmlns:xlink="http://www.w3.org/1999/xlink">
<g id="graph1" class="graph" transform="scale(1 1) rotate(0) translate(4 766)">
<title>G</title>
<!-- Node1 -->
<g id="node1" class="node"><title>Node1</title>
<polygon fill="#bfbfbf" stroke="black" points="0,-1 0,-21 140,-21 140,-1 0,-1"/>
<text text-anchor="middle" x="70" y="-8" font-family="FreeSans" font-size="10.00">Kitware.VTK.vtkTableWriter</text>
</g>
<!-- Node2 -->
<g id="node2" class="node"><title>Node2</title>
<a xlink:href="class_kitware_1_1_v_t_k_1_1vtk_data_writer.html" target="_top" xlink:title="vtkDataWriter &#45; helper class for objects that write vtk data files">
<polygon fill="none" stroke="black" points="29.5,-61 29.5,-81 110.5,-81 110.5,-61 29.5,-61"/>
<text text-anchor="middle" x="70" y="-68" font-family="FreeSans" font-size="10.00">vtkDataWriter</text>
</a>
</g>
<!-- Node2&#45;&gt;Node1 -->
<g id="edge2" class="edge"><title>Node2&#45;&gt;Node1</title>
<path fill="none" stroke="midnightblue" d="M70,-50.5155C70,-40.562 70,-29.0495 70,-21.0279"/>
<polygon fill="midnightblue" stroke="midnightblue" points="66.5001,-50.8218 70,-60.8218 73.5001,-50.8219 66.5001,-50.8218"/>
</g>
<!-- Node3 -->
<g id="node4" class="node"><title>Node3</title>
<a xlink:href="class_kitware_1_1_v_t_k_1_1vtk_writer.html" target="_top" xlink:title="vtkWriter &#45; abstract class to write data to file(s)">
<polygon fill="none" stroke="black" points="41,-121 41,-141 99,-141 99,-121 41,-121"/>
<text text-anchor="middle" x="70" y="-128" font-family="FreeSans" font-size="10.00">vtkWriter</text>
</a>
</g>
<!-- Node3&#45;&gt;Node2 -->
<g id="edge4" class="edge"><title>Node3&#45;&gt;Node2</title>
<path fill="none" stroke="midnightblue" d="M70,-110.516C70,-100.562 70,-89.0495 70,-81.0279"/>
<polygon fill="midnightblue" stroke="midnightblue" points="66.5001,-110.822 70,-120.822 73.5001,-110.822 66.5001,-110.822"/>
</g>
<!-- Node4 -->
<g id="node6" class="node"><title>Node4</title>
<a xlink:href="class_kitware_1_1_v_t_k_1_1vtk_algorithm.html" target="_top" xlink:title="vtkAlgorithm &#45; Superclass for all sources, filters, and sinks in VTK.">
<polygon fill="none" stroke="black" points="31.5,-181 31.5,-201 108.5,-201 108.5,-181 31.5,-181"/>
<text text-anchor="middle" x="70" y="-188" font-family="FreeSans" font-size="10.00">vtkAlgorithm</text>
</a>
</g>
<!-- Node4&#45;&gt;Node3 -->
<g id="edge6" class="edge"><title>Node4&#45;&gt;Node3</title>
<path fill="none" stroke="midnightblue" d="M70,-170.516C70,-160.562 70,-149.05 70,-141.028"/>
<polygon fill="midnightblue" stroke="midnightblue" points="66.5001,-170.822 70,-180.822 73.5001,-170.822 66.5001,-170.822"/>
</g>
<!-- Node5 -->
<g id="node8" class="node"><title>Node5</title>
<a xlink:href="class_kitware_1_1_v_t_k_1_1vtk_object.html" target="_top" xlink:title="vtkObject &#45; abstract base class for most VTK objects">
<polygon fill="none" stroke="black" points="39,-241 39,-261 101,-261 101,-241 39,-241"/>
<text text-anchor="middle" x="70" y="-248" font-family="FreeSans" font-size="10.00">vtkObject</text>
</a>
</g>
<!-- Node5&#45;&gt;Node4 -->
<g id="edge8" class="edge"><title>Node5&#45;&gt;Node4</title>
<path fill="none" stroke="midnightblue" d="M70,-230.516C70,-220.562 70,-209.05 70,-201.028"/>
<polygon fill="midnightblue" stroke="midnightblue" points="66.5001,-230.822 70,-240.822 73.5001,-230.822 66.5001,-230.822"/>
</g>
<!-- Node6 -->
<g id="node10" class="node"><title>Node6</title>
<a xlink:href="class_kitware_1_1_v_t_k_1_1vtk_object_base.html" target="_top" xlink:title="vtkObjectBase &#45; abstract base class for most VTK objects">
<polygon fill="none" stroke="black" points="90,-681 90,-701 176,-701 176,-681 90,-681"/>
<text text-anchor="middle" x="133" y="-688" font-family="FreeSans" font-size="10.00">vtkObjectBase</text>
</a>
</g>
<!-- Node6&#45;&gt;Node5 -->
<g id="edge10" class="edge"><title>Node6&#45;&gt;Node5</title>
<path fill="none" stroke="midnightblue" d="M104.423,-675.886C90.6866,-667.44 74.8844,-655.826 64,-642 52.1564,-626.955 51.6209,-620.802 48,-602 22.4248,-469.199 57.5766,-303.437 67.5155,-261.17"/>
<polygon fill="midnightblue" stroke="midnightblue" points="102.683,-678.923 113.079,-680.97 106.229,-672.887 102.683,-678.923"/>
</g>
<!-- Node9 -->
<g id="node17" class="node"><title>Node9</title>
<a xlink:href="class_kitware_1_1_v_t_k_1_1vtk_object.html" target="_top" xlink:title="vtkObject &#45; abstract base class for most VTK objects">
<polygon fill="none" stroke="black" points="73,-621 73,-641 193,-641 193,-621 73,-621"/>
<text text-anchor="middle" x="133" y="-628" font-family="FreeSans" font-size="10.00">Kitware.VTK.vtkObject</text>
</a>
</g>
<!-- Node6&#45;&gt;Node9 -->
<g id="edge20" class="edge"><title>Node6&#45;&gt;Node9</title>
<path fill="none" stroke="midnightblue" d="M133,-670.516C133,-660.562 133,-649.05 133,-641.028"/>
<polygon fill="midnightblue" stroke="midnightblue" points="129.5,-670.822 133,-680.822 136.5,-670.822 129.5,-670.822"/>
</g>
<!-- Node7 -->
<g id="node12" class="node"><title>Node7</title>
<a xlink:href="class_kitware_1_1_v_t_k_1_1_wrapped_object.html" target="_top" xlink:title="Base class for all the mummy wrapped classes in Kitware.VTK.">
<polygon fill="none" stroke="black" points="271.5,-741 271.5,-761 360.5,-761 360.5,-741 271.5,-741"/>
<text text-anchor="middle" x="316" y="-748" font-family="FreeSans" font-size="10.00">WrappedObject</text>
</a>
</g>
<!-- Node7&#45;&gt;Node6 -->
<g id="edge12" class="edge"><title>Node7&#45;&gt;Node6</title>
<path fill="none" stroke="midnightblue" d="M275.804,-737.821C242.042,-726.752 194.512,-711.168 163.73,-701.075"/>
<polygon fill="midnightblue" stroke="midnightblue" points="274.777,-741.168 285.37,-740.957 276.958,-734.516 274.777,-741.168"/>
</g>
<!-- Node8 -->
<g id="node14" class="node"><title>Node8</title>
<a xlink:href="class_kitware_1_1_v_t_k_1_1vtk_object_event_relay.html" target="_top" xlink:title="Implement a relay handler for VTK events. This is a class that receives events directly from the VTK ...">
<polygon fill="none" stroke="black" points="62,-431 62,-451 234,-451 234,-431 62,-431"/>
<text text-anchor="middle" x="148" y="-438" font-family="FreeSans" font-size="10.00">Kitware.VTK.vtkObjectEventRelay</text>
</a>
</g>
<!-- Node7&#45;&gt;Node8 -->
<g id="edge16" class="edge"><title>Node7&#45;&gt;Node8</title>
<path fill="none" stroke="midnightblue" d="M328.888,-732.325C361.276,-682.899 438.803,-547.191 371,-470 361.773,-459.495 293.047,-451.666 234.298,-446.808"/>
<polygon fill="midnightblue" stroke="midnightblue" points="325.891,-730.509 323.239,-740.767 331.709,-734.402 325.891,-730.509"/>
</g>
<!-- Node8&#45;&gt;Node5 -->
<g id="edge14" class="edge"><title>Node8&#45;&gt;Node5</title>
<path fill="none" stroke="#9a32cd" stroke-dasharray="5,2" d="M139.921,-421.321C123.489,-381.293 86.6738,-291.616 74.2144,-261.266"/>
<polygon fill="#9a32cd" stroke="#9a32cd" points="136.771,-422.863 143.806,-430.785 143.246,-420.205 136.771,-422.863"/>
<text text-anchor="middle" x="247.5" y="-403" font-family="FreeSans" font-size="10.00"> LeftButtonReleaseEvtRelay</text>
<text text-anchor="middle" x="247.5" y="-391" font-family="FreeSans" font-size="10.00">KeyPressEvtRelay</text>
<text text-anchor="middle" x="247.5" y="-379" font-family="FreeSans" font-size="10.00">DomainModifiedEvtRelay</text>
<text text-anchor="middle" x="247.5" y="-367" font-family="FreeSans" font-size="10.00">VolumeMapperComputeGradientsStartEvtRelay</text>
<text text-anchor="middle" x="247.5" y="-355" font-family="FreeSans" font-size="10.00">ErrorEvtRelay</text>
<text text-anchor="middle" x="247.5" y="-343" font-family="FreeSans" font-size="10.00">VolumeMapperRenderStartEvtRelay</text>
<text text-anchor="middle" x="247.5" y="-331" font-family="FreeSans" font-size="10.00">StartEvtRelay</text>
<text text-anchor="middle" x="247.5" y="-319" font-family="FreeSans" font-size="10.00">ResetCameraEvtRelay</text>
<text text-anchor="middle" x="247.5" y="-307" font-family="FreeSans" font-size="10.00">EnableEvtRelay</text>
<text text-anchor="middle" x="247.5" y="-295" font-family="FreeSans" font-size="10.00">DeleteEvtRelay</text>
<text text-anchor="middle" x="247.5" y="-283" font-family="FreeSans" font-size="10.00">...</text>
</g>
<!-- Node8&#45;&gt;Node9 -->
<g id="edge22" class="edge"><title>Node8&#45;&gt;Node9</title>
<path fill="none" stroke="#9a32cd" stroke-dasharray="5,2" d="M145.028,-461.231C144.649,-464.169 144.293,-467.159 144,-470 138.144,-526.853 134.636,-595.333 133.452,-620.807"/>
<polygon fill="#9a32cd" stroke="#9a32cd" points="148.515,-461.565 146.421,-451.179 141.582,-460.604 148.515,-461.565"/>
<text text-anchor="middle" x="257.5" y="-593" font-family="FreeSans" font-size="10.00"> LeftButtonReleaseEvtRelay</text>
<text text-anchor="middle" x="257.5" y="-581" font-family="FreeSans" font-size="10.00">KeyPressEvtRelay</text>
<text text-anchor="middle" x="257.5" y="-569" font-family="FreeSans" font-size="10.00">DomainModifiedEvtRelay</text>
<text text-anchor="middle" x="257.5" y="-557" font-family="FreeSans" font-size="10.00">VolumeMapperComputeGradientsStartEvtRelay</text>
<text text-anchor="middle" x="257.5" y="-545" font-family="FreeSans" font-size="10.00">ErrorEvtRelay</text>
<text text-anchor="middle" x="257.5" y="-533" font-family="FreeSans" font-size="10.00">VolumeMapperRenderStartEvtRelay</text>
<text text-anchor="middle" x="257.5" y="-521" font-family="FreeSans" font-size="10.00">StartEvtRelay</text>
<text text-anchor="middle" x="257.5" y="-509" font-family="FreeSans" font-size="10.00">ResetCameraEvtRelay</text>
<text text-anchor="middle" x="257.5" y="-497" font-family="FreeSans" font-size="10.00">EnableEvtRelay</text>
<text text-anchor="middle" x="257.5" y="-485" font-family="FreeSans" font-size="10.00">DeleteEvtRelay</text>
<text text-anchor="middle" x="257.5" y="-473" font-family="FreeSans" font-size="10.00">...</text>
</g>
<!-- Node9&#45;&gt;Node8 -->
<g id="edge18" class="edge"><title>Node9&#45;&gt;Node8</title>
<path fill="none" stroke="#9a32cd" stroke-dasharray="5,2" d="M86.9794,-615.818C81.4393,-612.138 76.5104,-607.596 73,-602 41.8229,-552.303 39.8299,-518.389 73,-470 77.7359,-463.091 94.5114,-456.287 110.999,-451.008"/>
<polygon fill="#9a32cd" stroke="#9a32cd" points="85.6386,-619.079 96.0724,-620.919 89.0636,-612.974 85.6386,-619.079"/>
<text text-anchor="middle" x="97" y="-539" font-family="FreeSans" font-size="10.00"> Sender</text>
<text text-anchor="middle" x="97" y="-527" font-family="FreeSans" font-size="10.00">EventImpl</text>
</g>
</g>
</svg>
