<?xml version="1.0" encoding="UTF-8" standalone="no"?>
<!DOCTYPE svg PUBLIC "-//W3C//DTD SVG 1.1//EN"
 "http://www.w3.org/Graphics/SVG/1.1/DTD/svg11.dtd">
<!-- Generated by graphviz version 2.26.3 (20100126.1600)
 -->
<!-- Title: G Pages: 1 -->
<svg width="206pt" height="494pt"
 viewBox="0.00 0.00 206.00 494.00" xmlns="http://www.w3.org/2000/svg" xmlns:xlink="http://www.w3.org/1999/xlink">
<g id="graph1" class="graph" transform="scale(1 1) rotate(0) translate(4 490)">
<title>G</title>
<!-- Node1 -->
<g id="node1" class="node"><title>Node1</title>
<polygon fill="#bfbfbf" stroke="black" points="2.5,-59 2.5,-79 195.5,-79 195.5,-59 2.5,-59"/>
<text text-anchor="middle" x="99" y="-66" font-family="FreeSans" font-size="10.00">Kitware.VTK.vtkContingencyStatistics</text>
</g>
<!-- Node9 -->
<g id="node17" class="node"><title>Node9</title>
<a xlink:href="class_kitware_1_1_v_t_k_1_1vtk_p_contingency_statistics.html" target="_top" xlink:title="vtkPContingencyStatistics &#45; A class for parallel bivariate contingency statistics">
<polygon fill="none" stroke="black" points="-0.5,-1 -0.5,-21 198.5,-21 198.5,-1 -0.5,-1"/>
<text text-anchor="middle" x="99" y="-8" font-family="FreeSans" font-size="10.00">Kitware.VTK.vtkPContingencyStatistics</text>
</a>
</g>
<!-- Node1&#45;&gt;Node9 -->
<g id="edge16" class="edge"><title>Node1&#45;&gt;Node9</title>
<path fill="none" stroke="midnightblue" d="M99,-48.8902C99,-39.6201 99,-29.0083 99,-21.3776"/>
<polygon fill="midnightblue" stroke="midnightblue" points="95.5001,-48.8971 99,-58.8972 102.5,-48.8972 95.5001,-48.8971"/>
</g>
<!-- Node2 -->
<g id="node2" class="node"><title>Node2</title>
<a xlink:href="class_kitware_1_1_v_t_k_1_1vtk_bivariate_statistics_algorithm.html" target="_top" xlink:title="vtkBivariateStatistics &#45; Base class for bivariate statistics algorithms">
<polygon fill="none" stroke="black" points="17,-117 17,-137 181,-137 181,-117 17,-117"/>
<text text-anchor="middle" x="99" y="-124" font-family="FreeSans" font-size="10.00">vtkBivariateStatisticsAlgorithm</text>
</a>
</g>
<!-- Node2&#45;&gt;Node1 -->
<g id="edge2" class="edge"><title>Node2&#45;&gt;Node1</title>
<path fill="none" stroke="midnightblue" d="M99,-106.89C99,-97.6201 99,-87.0083 99,-79.3776"/>
<polygon fill="midnightblue" stroke="midnightblue" points="95.5001,-106.897 99,-116.897 102.5,-106.897 95.5001,-106.897"/>
</g>
<!-- Node3 -->
<g id="node4" class="node"><title>Node3</title>
<a xlink:href="class_kitware_1_1_v_t_k_1_1vtk_statistics_algorithm.html" target="_top" xlink:title="vtkStatisticsAlgorithm &#45; Base class for statistics algorithms">
<polygon fill="none" stroke="black" points="38,-175 38,-195 160,-195 160,-175 38,-175"/>
<text text-anchor="middle" x="99" y="-182" font-family="FreeSans" font-size="10.00">vtkStatisticsAlgorithm</text>
</a>
</g>
<!-- Node3&#45;&gt;Node2 -->
<g id="edge4" class="edge"><title>Node3&#45;&gt;Node2</title>
<path fill="none" stroke="midnightblue" d="M99,-164.89C99,-155.62 99,-145.008 99,-137.378"/>
<polygon fill="midnightblue" stroke="midnightblue" points="95.5001,-164.897 99,-174.897 102.5,-164.897 95.5001,-164.897"/>
</g>
<!-- Node4 -->
<g id="node6" class="node"><title>Node4</title>
<a xlink:href="class_kitware_1_1_v_t_k_1_1vtk_table_algorithm.html" target="_top" xlink:title="vtkTableAlgorithm &#45; Superclass for algorithms that produce only vtkTables as output">
<polygon fill="none" stroke="black" points="48.5,-233 48.5,-253 149.5,-253 149.5,-233 48.5,-233"/>
<text text-anchor="middle" x="99" y="-240" font-family="FreeSans" font-size="10.00">vtkTableAlgorithm</text>
</a>
</g>
<!-- Node4&#45;&gt;Node3 -->
<g id="edge6" class="edge"><title>Node4&#45;&gt;Node3</title>
<path fill="none" stroke="midnightblue" d="M99,-222.89C99,-213.62 99,-203.008 99,-195.378"/>
<polygon fill="midnightblue" stroke="midnightblue" points="95.5001,-222.897 99,-232.897 102.5,-222.897 95.5001,-222.897"/>
</g>
<!-- Node5 -->
<g id="node8" class="node"><title>Node5</title>
<a xlink:href="class_kitware_1_1_v_t_k_1_1vtk_algorithm.html" target="_top" xlink:title="vtkAlgorithm &#45; Superclass for all sources, filters, and sinks in VTK.">
<polygon fill="none" stroke="black" points="60.5,-291 60.5,-311 137.5,-311 137.5,-291 60.5,-291"/>
<text text-anchor="middle" x="99" y="-298" font-family="FreeSans" font-size="10.00">vtkAlgorithm</text>
</a>
</g>
<!-- Node5&#45;&gt;Node4 -->
<g id="edge8" class="edge"><title>Node5&#45;&gt;Node4</title>
<path fill="none" stroke="midnightblue" d="M99,-280.89C99,-271.62 99,-261.008 99,-253.378"/>
<polygon fill="midnightblue" stroke="midnightblue" points="95.5001,-280.897 99,-290.897 102.5,-280.897 95.5001,-280.897"/>
</g>
<!-- Node6 -->
<g id="node10" class="node"><title>Node6</title>
<a xlink:href="class_kitware_1_1_v_t_k_1_1vtk_object.html" target="_top" xlink:title="vtkObject &#45; abstract base class for most VTK objects">
<polygon fill="none" stroke="black" points="68,-349 68,-369 130,-369 130,-349 68,-349"/>
<text text-anchor="middle" x="99" y="-356" font-family="FreeSans" font-size="10.00">vtkObject</text>
</a>
</g>
<!-- Node6&#45;&gt;Node5 -->
<g id="edge10" class="edge"><title>Node6&#45;&gt;Node5</title>
<path fill="none" stroke="midnightblue" d="M99,-338.89C99,-329.62 99,-319.008 99,-311.378"/>
<polygon fill="midnightblue" stroke="midnightblue" points="95.5001,-338.897 99,-348.897 102.5,-338.897 95.5001,-338.897"/>
</g>
<!-- Node7 -->
<g id="node12" class="node"><title>Node7</title>
<a xlink:href="class_kitware_1_1_v_t_k_1_1vtk_object_base.html" target="_top" xlink:title="vtkObjectBase &#45; abstract base class for most VTK objects">
<polygon fill="none" stroke="black" points="56,-407 56,-427 142,-427 142,-407 56,-407"/>
<text text-anchor="middle" x="99" y="-414" font-family="FreeSans" font-size="10.00">vtkObjectBase</text>
</a>
</g>
<!-- Node7&#45;&gt;Node6 -->
<g id="edge12" class="edge"><title>Node7&#45;&gt;Node6</title>
<path fill="none" stroke="midnightblue" d="M99,-396.89C99,-387.62 99,-377.008 99,-369.378"/>
<polygon fill="midnightblue" stroke="midnightblue" points="95.5001,-396.897 99,-406.897 102.5,-396.897 95.5001,-396.897"/>
</g>
<!-- Node8 -->
<g id="node14" class="node"><title>Node8</title>
<a xlink:href="class_kitware_1_1_v_t_k_1_1_wrapped_object.html" target="_top" xlink:title="Base class for all the mummy wrapped classes in Kitware.VTK.">
<polygon fill="none" stroke="black" points="54.5,-465 54.5,-485 143.5,-485 143.5,-465 54.5,-465"/>
<text text-anchor="middle" x="99" y="-472" font-family="FreeSans" font-size="10.00">WrappedObject</text>
</a>
</g>
<!-- Node8&#45;&gt;Node7 -->
<g id="edge14" class="edge"><title>Node8&#45;&gt;Node7</title>
<path fill="none" stroke="midnightblue" d="M99,-454.89C99,-445.62 99,-435.008 99,-427.378"/>
<polygon fill="midnightblue" stroke="midnightblue" points="95.5001,-454.897 99,-464.897 102.5,-454.897 95.5001,-454.897"/>
</g>
</g>
</svg>
