<?xml version="1.0" encoding="UTF-8" standalone="no"?>
<!DOCTYPE svg PUBLIC "-//W3C//DTD SVG 1.1//EN"
 "http://www.w3.org/Graphics/SVG/1.1/DTD/svg11.dtd">
<!-- Generated by graphviz version 2.26.3 (20100126.1600)
 -->
<!-- Title: G Pages: 1 -->
<svg width="404pt" height="770pt"
 viewBox="0.00 0.00 404.46 770.00" xmlns="http://www.w3.org/2000/svg" xmlns:xlink="http://www.w3.org/1999/xlink">
<g id="graph1" class="graph" transform="scale(1 1) rotate(0) translate(4 766)">
<title>G</title>
<!-- Node1 -->
<g id="node1" class="node"><title>Node1</title>
<polygon fill="#bfbfbf" stroke="black" points="-0.5,-1 -0.5,-21 136.5,-21 136.5,-1 -0.5,-1"/>
<text text-anchor="middle" x="68" y="-8" font-family="FreeSans" font-size="10.00">Kitware.VTK.vtkBMPWriter</text>
</g>
<!-- Node2 -->
<g id="node2" class="node"><title>Node2</title>
<a xlink:href="class_kitware_1_1_v_t_k_1_1vtk_image_writer.html" target="_top" xlink:title="vtkImageWriter &#45; Writes images to files.">
<polygon fill="none" stroke="black" points="24,-61 24,-81 112,-81 112,-61 24,-61"/>
<text text-anchor="middle" x="68" y="-68" font-family="FreeSans" font-size="10.00">vtkImageWriter</text>
</a>
</g>
<!-- Node2&#45;&gt;Node1 -->
<g id="edge2" class="edge"><title>Node2&#45;&gt;Node1</title>
<path fill="none" stroke="midnightblue" d="M68,-50.5155C68,-40.562 68,-29.0495 68,-21.0279"/>
<polygon fill="midnightblue" stroke="midnightblue" points="64.5001,-50.8218 68,-60.8218 71.5001,-50.8219 64.5001,-50.8218"/>
</g>
<!-- Node3 -->
<g id="node4" class="node"><title>Node3</title>
<a xlink:href="class_kitware_1_1_v_t_k_1_1vtk_image_algorithm.html" target="_top" xlink:title="vtkImageAlgorithm &#45; Generic algorithm superclass for image algs">
<polygon fill="none" stroke="black" points="14.5,-121 14.5,-141 121.5,-141 121.5,-121 14.5,-121"/>
<text text-anchor="middle" x="68" y="-128" font-family="FreeSans" font-size="10.00">vtkImageAlgorithm</text>
</a>
</g>
<!-- Node3&#45;&gt;Node2 -->
<g id="edge4" class="edge"><title>Node3&#45;&gt;Node2</title>
<path fill="none" stroke="midnightblue" d="M68,-110.516C68,-100.562 68,-89.0495 68,-81.0279"/>
<polygon fill="midnightblue" stroke="midnightblue" points="64.5001,-110.822 68,-120.822 71.5001,-110.822 64.5001,-110.822"/>
</g>
<!-- Node4 -->
<g id="node6" class="node"><title>Node4</title>
<a xlink:href="class_kitware_1_1_v_t_k_1_1vtk_algorithm.html" target="_top" xlink:title="vtkAlgorithm &#45; Superclass for all sources, filters, and sinks in VTK.">
<polygon fill="none" stroke="black" points="29.5,-181 29.5,-201 106.5,-201 106.5,-181 29.5,-181"/>
<text text-anchor="middle" x="68" y="-188" font-family="FreeSans" font-size="10.00">vtkAlgorithm</text>
</a>
</g>
<!-- Node4&#45;&gt;Node3 -->
<g id="edge6" class="edge"><title>Node4&#45;&gt;Node3</title>
<path fill="none" stroke="midnightblue" d="M68,-170.516C68,-160.562 68,-149.05 68,-141.028"/>
<polygon fill="midnightblue" stroke="midnightblue" points="64.5001,-170.822 68,-180.822 71.5001,-170.822 64.5001,-170.822"/>
</g>
<!-- Node5 -->
<g id="node8" class="node"><title>Node5</title>
<a xlink:href="class_kitware_1_1_v_t_k_1_1vtk_object.html" target="_top" xlink:title="vtkObject &#45; abstract base class for most VTK objects">
<polygon fill="none" stroke="black" points="37,-241 37,-261 99,-261 99,-241 37,-241"/>
<text text-anchor="middle" x="68" y="-248" font-family="FreeSans" font-size="10.00">vtkObject</text>
</a>
</g>
<!-- Node5&#45;&gt;Node4 -->
<g id="edge8" class="edge"><title>Node5&#45;&gt;Node4</title>
<path fill="none" stroke="midnightblue" d="M68,-230.516C68,-220.562 68,-209.05 68,-201.028"/>
<polygon fill="midnightblue" stroke="midnightblue" points="64.5001,-230.822 68,-240.822 71.5001,-230.822 64.5001,-230.822"/>
</g>
<!-- Node6 -->
<g id="node10" class="node"><title>Node6</title>
<a xlink:href="class_kitware_1_1_v_t_k_1_1vtk_object_base.html" target="_top" xlink:title="vtkObjectBase &#45; abstract base class for most VTK objects">
<polygon fill="none" stroke="black" points="88,-681 88,-701 174,-701 174,-681 88,-681"/>
<text text-anchor="middle" x="131" y="-688" font-family="FreeSans" font-size="10.00">vtkObjectBase</text>
</a>
</g>
<!-- Node6&#45;&gt;Node5 -->
<g id="edge10" class="edge"><title>Node6&#45;&gt;Node5</title>
<path fill="none" stroke="midnightblue" d="M102.423,-675.886C88.6866,-667.44 72.8844,-655.826 62,-642 50.1564,-626.955 49.6209,-620.802 46,-602 20.4248,-469.199 55.5766,-303.437 65.5155,-261.17"/>
<polygon fill="midnightblue" stroke="midnightblue" points="100.683,-678.923 111.079,-680.97 104.229,-672.887 100.683,-678.923"/>
</g>
<!-- Node9 -->
<g id="node17" class="node"><title>Node9</title>
<a xlink:href="class_kitware_1_1_v_t_k_1_1vtk_object.html" target="_top" xlink:title="vtkObject &#45; abstract base class for most VTK objects">
<polygon fill="none" stroke="black" points="71,-621 71,-641 191,-641 191,-621 71,-621"/>
<text text-anchor="middle" x="131" y="-628" font-family="FreeSans" font-size="10.00">Kitware.VTK.vtkObject</text>
</a>
</g>
<!-- Node6&#45;&gt;Node9 -->
<g id="edge20" class="edge"><title>Node6&#45;&gt;Node9</title>
<path fill="none" stroke="midnightblue" d="M131,-670.516C131,-660.562 131,-649.05 131,-641.028"/>
<polygon fill="midnightblue" stroke="midnightblue" points="127.5,-670.822 131,-680.822 134.5,-670.822 127.5,-670.822"/>
</g>
<!-- Node7 -->
<g id="node12" class="node"><title>Node7</title>
<a xlink:href="class_kitware_1_1_v_t_k_1_1_wrapped_object.html" target="_top" xlink:title="Base class for all the mummy wrapped classes in Kitware.VTK.">
<polygon fill="none" stroke="black" points="269.5,-741 269.5,-761 358.5,-761 358.5,-741 269.5,-741"/>
<text text-anchor="middle" x="314" y="-748" font-family="FreeSans" font-size="10.00">WrappedObject</text>
</a>
</g>
<!-- Node7&#45;&gt;Node6 -->
<g id="edge12" class="edge"><title>Node7&#45;&gt;Node6</title>
<path fill="none" stroke="midnightblue" d="M273.804,-737.821C240.042,-726.752 192.512,-711.168 161.73,-701.075"/>
<polygon fill="midnightblue" stroke="midnightblue" points="272.777,-741.168 283.37,-740.957 274.958,-734.516 272.777,-741.168"/>
</g>
<!-- Node8 -->
<g id="node14" class="node"><title>Node8</title>
<a xlink:href="class_kitware_1_1_v_t_k_1_1vtk_object_event_relay.html" target="_top" xlink:title="Implement a relay handler for VTK events. This is a class that receives events directly from the VTK ...">
<polygon fill="none" stroke="black" points="60,-431 60,-451 232,-451 232,-431 60,-431"/>
<text text-anchor="middle" x="146" y="-438" font-family="FreeSans" font-size="10.00">Kitware.VTK.vtkObjectEventRelay</text>
</a>
</g>
<!-- Node7&#45;&gt;Node8 -->
<g id="edge16" class="edge"><title>Node7&#45;&gt;Node8</title>
<path fill="none" stroke="midnightblue" d="M326.888,-732.325C359.276,-682.899 436.803,-547.191 369,-470 359.773,-459.495 291.047,-451.666 232.298,-446.808"/>
<polygon fill="midnightblue" stroke="midnightblue" points="323.891,-730.509 321.239,-740.767 329.709,-734.402 323.891,-730.509"/>
</g>
<!-- Node8&#45;&gt;Node5 -->
<g id="edge14" class="edge"><title>Node8&#45;&gt;Node5</title>
<path fill="none" stroke="#9a32cd" stroke-dasharray="5,2" d="M137.921,-421.321C121.489,-381.293 84.6738,-291.616 72.2144,-261.266"/>
<polygon fill="#9a32cd" stroke="#9a32cd" points="134.771,-422.863 141.806,-430.785 141.246,-420.205 134.771,-422.863"/>
<text text-anchor="middle" x="245.5" y="-403" font-family="FreeSans" font-size="10.00"> LeftButtonReleaseEvtRelay</text>
<text text-anchor="middle" x="245.5" y="-391" font-family="FreeSans" font-size="10.00">KeyPressEvtRelay</text>
<text text-anchor="middle" x="245.5" y="-379" font-family="FreeSans" font-size="10.00">DomainModifiedEvtRelay</text>
<text text-anchor="middle" x="245.5" y="-367" font-family="FreeSans" font-size="10.00">VolumeMapperComputeGradientsStartEvtRelay</text>
<text text-anchor="middle" x="245.5" y="-355" font-family="FreeSans" font-size="10.00">ErrorEvtRelay</text>
<text text-anchor="middle" x="245.5" y="-343" font-family="FreeSans" font-size="10.00">VolumeMapperRenderStartEvtRelay</text>
<text text-anchor="middle" x="245.5" y="-331" font-family="FreeSans" font-size="10.00">StartEvtRelay</text>
<text text-anchor="middle" x="245.5" y="-319" font-family="FreeSans" font-size="10.00">ResetCameraEvtRelay</text>
<text text-anchor="middle" x="245.5" y="-307" font-family="FreeSans" font-size="10.00">EnableEvtRelay</text>
<text text-anchor="middle" x="245.5" y="-295" font-family="FreeSans" font-size="10.00">DeleteEvtRelay</text>
<text text-anchor="middle" x="245.5" y="-283" font-family="FreeSans" font-size="10.00">...</text>
</g>
<!-- Node8&#45;&gt;Node9 -->
<g id="edge22" class="edge"><title>Node8&#45;&gt;Node9</title>
<path fill="none" stroke="#9a32cd" stroke-dasharray="5,2" d="M143.028,-461.231C142.649,-464.169 142.293,-467.159 142,-470 136.144,-526.853 132.636,-595.333 131.452,-620.807"/>
<polygon fill="#9a32cd" stroke="#9a32cd" points="146.515,-461.565 144.421,-451.179 139.582,-460.604 146.515,-461.565"/>
<text text-anchor="middle" x="255.5" y="-593" font-family="FreeSans" font-size="10.00"> LeftButtonReleaseEvtRelay</text>
<text text-anchor="middle" x="255.5" y="-581" font-family="FreeSans" font-size="10.00">KeyPressEvtRelay</text>
<text text-anchor="middle" x="255.5" y="-569" font-family="FreeSans" font-size="10.00">DomainModifiedEvtRelay</text>
<text text-anchor="middle" x="255.5" y="-557" font-family="FreeSans" font-size="10.00">VolumeMapperComputeGradientsStartEvtRelay</text>
<text text-anchor="middle" x="255.5" y="-545" font-family="FreeSans" font-size="10.00">ErrorEvtRelay</text>
<text text-anchor="middle" x="255.5" y="-533" font-family="FreeSans" font-size="10.00">VolumeMapperRenderStartEvtRelay</text>
<text text-anchor="middle" x="255.5" y="-521" font-family="FreeSans" font-size="10.00">StartEvtRelay</text>
<text text-anchor="middle" x="255.5" y="-509" font-family="FreeSans" font-size="10.00">ResetCameraEvtRelay</text>
<text text-anchor="middle" x="255.5" y="-497" font-family="FreeSans" font-size="10.00">EnableEvtRelay</text>
<text text-anchor="middle" x="255.5" y="-485" font-family="FreeSans" font-size="10.00">DeleteEvtRelay</text>
<text text-anchor="middle" x="255.5" y="-473" font-family="FreeSans" font-size="10.00">...</text>
</g>
<!-- Node9&#45;&gt;Node8 -->
<g id="edge18" class="edge"><title>Node9&#45;&gt;Node8</title>
<path fill="none" stroke="#9a32cd" stroke-dasharray="5,2" d="M84.9794,-615.818C79.4393,-612.138 74.5104,-607.596 71,-602 39.8229,-552.303 37.8299,-518.389 71,-470 75.7359,-463.091 92.5114,-456.287 108.999,-451.008"/>
<polygon fill="#9a32cd" stroke="#9a32cd" points="83.6386,-619.079 94.0724,-620.919 87.0636,-612.974 83.6386,-619.079"/>
<text text-anchor="middle" x="95" y="-539" font-family="FreeSans" font-size="10.00"> Sender</text>
<text text-anchor="middle" x="95" y="-527" font-family="FreeSans" font-size="10.00">EventImpl</text>
</g>
</g>
</svg>
