<?xml version="1.0" encoding="UTF-8" standalone="no"?>
<!DOCTYPE svg PUBLIC "-//W3C//DTD SVG 1.1//EN"
 "http://www.w3.org/Graphics/SVG/1.1/DTD/svg11.dtd">
<!-- Generated by graphviz version 2.26.3 (20100126.1600)
 -->
<!-- Title: G Pages: 1 -->
<svg width="451pt" height="770pt"
 viewBox="0.00 0.00 451.46 770.00" xmlns="http://www.w3.org/2000/svg" xmlns:xlink="http://www.w3.org/1999/xlink">
<g id="graph1" class="graph" transform="scale(1 1) rotate(0) translate(4 766)">
<title>G</title>
<!-- Node1 -->
<g id="node1" class="node"><title>Node1</title>
<polygon fill="#bfbfbf" stroke="black" points="0,-1 0,-21 230,-21 230,-1 0,-1"/>
<text text-anchor="middle" x="115" y="-8" font-family="FreeSans" font-size="10.00">Kitware.VTK.vtkSphereHandleRepresentation</text>
</g>
<!-- Node2 -->
<g id="node2" class="node"><title>Node2</title>
<a xlink:href="class_kitware_1_1_v_t_k_1_1vtk_handle_representation.html" target="_top" xlink:title="vtkHandleRepresentation &#45; abstract class for representing widget handles">
<polygon fill="none" stroke="black" points="46.5,-61 46.5,-81 183.5,-81 183.5,-61 46.5,-61"/>
<text text-anchor="middle" x="115" y="-68" font-family="FreeSans" font-size="10.00">vtkHandleRepresentation</text>
</a>
</g>
<!-- Node2&#45;&gt;Node1 -->
<g id="edge2" class="edge"><title>Node2&#45;&gt;Node1</title>
<path fill="none" stroke="midnightblue" d="M115,-50.5155C115,-40.562 115,-29.0495 115,-21.0279"/>
<polygon fill="midnightblue" stroke="midnightblue" points="111.5,-50.8218 115,-60.8218 118.5,-50.8219 111.5,-50.8218"/>
</g>
<!-- Node3 -->
<g id="node4" class="node"><title>Node3</title>
<a xlink:href="class_kitware_1_1_v_t_k_1_1vtk_widget_representation.html" target="_top" xlink:title="vtkWidgetRepresentation &#45; abstract class defines interface between the widget and widget representati...">
<polygon fill="none" stroke="black" points="47.5,-121 47.5,-141 182.5,-141 182.5,-121 47.5,-121"/>
<text text-anchor="middle" x="115" y="-128" font-family="FreeSans" font-size="10.00">vtkWidgetRepresentation</text>
</a>
</g>
<!-- Node3&#45;&gt;Node2 -->
<g id="edge4" class="edge"><title>Node3&#45;&gt;Node2</title>
<path fill="none" stroke="midnightblue" d="M115,-110.516C115,-100.562 115,-89.0495 115,-81.0279"/>
<polygon fill="midnightblue" stroke="midnightblue" points="111.5,-110.822 115,-120.822 118.5,-110.822 111.5,-110.822"/>
</g>
<!-- Node4 -->
<g id="node6" class="node"><title>Node4</title>
<a xlink:href="class_kitware_1_1_v_t_k_1_1vtk_prop.html" target="_top" xlink:title="vtkProp &#45; abstract superclass for all actors, volumes and annotations">
<polygon fill="none" stroke="black" points="88.5,-181 88.5,-201 141.5,-201 141.5,-181 88.5,-181"/>
<text text-anchor="middle" x="115" y="-188" font-family="FreeSans" font-size="10.00">vtkProp</text>
</a>
</g>
<!-- Node4&#45;&gt;Node3 -->
<g id="edge6" class="edge"><title>Node4&#45;&gt;Node3</title>
<path fill="none" stroke="midnightblue" d="M115,-170.516C115,-160.562 115,-149.05 115,-141.028"/>
<polygon fill="midnightblue" stroke="midnightblue" points="111.5,-170.822 115,-180.822 118.5,-170.822 111.5,-170.822"/>
</g>
<!-- Node5 -->
<g id="node8" class="node"><title>Node5</title>
<a xlink:href="class_kitware_1_1_v_t_k_1_1vtk_object.html" target="_top" xlink:title="vtkObject &#45; abstract base class for most VTK objects">
<polygon fill="none" stroke="black" points="84,-241 84,-261 146,-261 146,-241 84,-241"/>
<text text-anchor="middle" x="115" y="-248" font-family="FreeSans" font-size="10.00">vtkObject</text>
</a>
</g>
<!-- Node5&#45;&gt;Node4 -->
<g id="edge8" class="edge"><title>Node5&#45;&gt;Node4</title>
<path fill="none" stroke="midnightblue" d="M115,-230.516C115,-220.562 115,-209.05 115,-201.028"/>
<polygon fill="midnightblue" stroke="midnightblue" points="111.5,-230.822 115,-240.822 118.5,-230.822 111.5,-230.822"/>
</g>
<!-- Node6 -->
<g id="node10" class="node"><title>Node6</title>
<a xlink:href="class_kitware_1_1_v_t_k_1_1vtk_object_base.html" target="_top" xlink:title="vtkObjectBase &#45; abstract base class for most VTK objects">
<polygon fill="none" stroke="black" points="135,-681 135,-701 221,-701 221,-681 135,-681"/>
<text text-anchor="middle" x="178" y="-688" font-family="FreeSans" font-size="10.00">vtkObjectBase</text>
</a>
</g>
<!-- Node6&#45;&gt;Node5 -->
<g id="edge10" class="edge"><title>Node6&#45;&gt;Node5</title>
<path fill="none" stroke="midnightblue" d="M149.423,-675.886C135.687,-667.44 119.884,-655.826 109,-642 97.1564,-626.955 96.6209,-620.802 93,-602 67.4248,-469.199 102.577,-303.437 112.516,-261.17"/>
<polygon fill="midnightblue" stroke="midnightblue" points="147.683,-678.923 158.079,-680.97 151.229,-672.887 147.683,-678.923"/>
</g>
<!-- Node9 -->
<g id="node17" class="node"><title>Node9</title>
<a xlink:href="class_kitware_1_1_v_t_k_1_1vtk_object.html" target="_top" xlink:title="vtkObject &#45; abstract base class for most VTK objects">
<polygon fill="none" stroke="black" points="118,-621 118,-641 238,-641 238,-621 118,-621"/>
<text text-anchor="middle" x="178" y="-628" font-family="FreeSans" font-size="10.00">Kitware.VTK.vtkObject</text>
</a>
</g>
<!-- Node6&#45;&gt;Node9 -->
<g id="edge20" class="edge"><title>Node6&#45;&gt;Node9</title>
<path fill="none" stroke="midnightblue" d="M178,-670.516C178,-660.562 178,-649.05 178,-641.028"/>
<polygon fill="midnightblue" stroke="midnightblue" points="174.5,-670.822 178,-680.822 181.5,-670.822 174.5,-670.822"/>
</g>
<!-- Node7 -->
<g id="node12" class="node"><title>Node7</title>
<a xlink:href="class_kitware_1_1_v_t_k_1_1_wrapped_object.html" target="_top" xlink:title="Base class for all the mummy wrapped classes in Kitware.VTK.">
<polygon fill="none" stroke="black" points="316.5,-741 316.5,-761 405.5,-761 405.5,-741 316.5,-741"/>
<text text-anchor="middle" x="361" y="-748" font-family="FreeSans" font-size="10.00">WrappedObject</text>
</a>
</g>
<!-- Node7&#45;&gt;Node6 -->
<g id="edge12" class="edge"><title>Node7&#45;&gt;Node6</title>
<path fill="none" stroke="midnightblue" d="M320.804,-737.821C287.042,-726.752 239.512,-711.168 208.73,-701.075"/>
<polygon fill="midnightblue" stroke="midnightblue" points="319.777,-741.168 330.37,-740.957 321.958,-734.516 319.777,-741.168"/>
</g>
<!-- Node8 -->
<g id="node14" class="node"><title>Node8</title>
<a xlink:href="class_kitware_1_1_v_t_k_1_1vtk_object_event_relay.html" target="_top" xlink:title="Implement a relay handler for VTK events. This is a class that receives events directly from the VTK ...">
<polygon fill="none" stroke="black" points="107,-431 107,-451 279,-451 279,-431 107,-431"/>
<text text-anchor="middle" x="193" y="-438" font-family="FreeSans" font-size="10.00">Kitware.VTK.vtkObjectEventRelay</text>
</a>
</g>
<!-- Node7&#45;&gt;Node8 -->
<g id="edge16" class="edge"><title>Node7&#45;&gt;Node8</title>
<path fill="none" stroke="midnightblue" d="M373.888,-732.325C406.276,-682.899 483.803,-547.191 416,-470 406.773,-459.495 338.047,-451.666 279.298,-446.808"/>
<polygon fill="midnightblue" stroke="midnightblue" points="370.891,-730.509 368.239,-740.767 376.709,-734.402 370.891,-730.509"/>
</g>
<!-- Node8&#45;&gt;Node5 -->
<g id="edge14" class="edge"><title>Node8&#45;&gt;Node5</title>
<path fill="none" stroke="#9a32cd" stroke-dasharray="5,2" d="M184.921,-421.321C168.489,-381.293 131.674,-291.616 119.214,-261.266"/>
<polygon fill="#9a32cd" stroke="#9a32cd" points="181.771,-422.863 188.806,-430.785 188.246,-420.205 181.771,-422.863"/>
<text text-anchor="middle" x="292.5" y="-403" font-family="FreeSans" font-size="10.00"> LeftButtonReleaseEvtRelay</text>
<text text-anchor="middle" x="292.5" y="-391" font-family="FreeSans" font-size="10.00">KeyPressEvtRelay</text>
<text text-anchor="middle" x="292.5" y="-379" font-family="FreeSans" font-size="10.00">DomainModifiedEvtRelay</text>
<text text-anchor="middle" x="292.5" y="-367" font-family="FreeSans" font-size="10.00">VolumeMapperComputeGradientsStartEvtRelay</text>
<text text-anchor="middle" x="292.5" y="-355" font-family="FreeSans" font-size="10.00">ErrorEvtRelay</text>
<text text-anchor="middle" x="292.5" y="-343" font-family="FreeSans" font-size="10.00">VolumeMapperRenderStartEvtRelay</text>
<text text-anchor="middle" x="292.5" y="-331" font-family="FreeSans" font-size="10.00">StartEvtRelay</text>
<text text-anchor="middle" x="292.5" y="-319" font-family="FreeSans" font-size="10.00">ResetCameraEvtRelay</text>
<text text-anchor="middle" x="292.5" y="-307" font-family="FreeSans" font-size="10.00">EnableEvtRelay</text>
<text text-anchor="middle" x="292.5" y="-295" font-family="FreeSans" font-size="10.00">DeleteEvtRelay</text>
<text text-anchor="middle" x="292.5" y="-283" font-family="FreeSans" font-size="10.00">...</text>
</g>
<!-- Node8&#45;&gt;Node9 -->
<g id="edge22" class="edge"><title>Node8&#45;&gt;Node9</title>
<path fill="none" stroke="#9a32cd" stroke-dasharray="5,2" d="M190.028,-461.231C189.649,-464.169 189.293,-467.159 189,-470 183.144,-526.853 179.636,-595.333 178.452,-620.807"/>
<polygon fill="#9a32cd" stroke="#9a32cd" points="193.515,-461.565 191.421,-451.179 186.582,-460.604 193.515,-461.565"/>
<text text-anchor="middle" x="302.5" y="-593" font-family="FreeSans" font-size="10.00"> LeftButtonReleaseEvtRelay</text>
<text text-anchor="middle" x="302.5" y="-581" font-family="FreeSans" font-size="10.00">KeyPressEvtRelay</text>
<text text-anchor="middle" x="302.5" y="-569" font-family="FreeSans" font-size="10.00">DomainModifiedEvtRelay</text>
<text text-anchor="middle" x="302.5" y="-557" font-family="FreeSans" font-size="10.00">VolumeMapperComputeGradientsStartEvtRelay</text>
<text text-anchor="middle" x="302.5" y="-545" font-family="FreeSans" font-size="10.00">ErrorEvtRelay</text>
<text text-anchor="middle" x="302.5" y="-533" font-family="FreeSans" font-size="10.00">VolumeMapperRenderStartEvtRelay</text>
<text text-anchor="middle" x="302.5" y="-521" font-family="FreeSans" font-size="10.00">StartEvtRelay</text>
<text text-anchor="middle" x="302.5" y="-509" font-family="FreeSans" font-size="10.00">ResetCameraEvtRelay</text>
<text text-anchor="middle" x="302.5" y="-497" font-family="FreeSans" font-size="10.00">EnableEvtRelay</text>
<text text-anchor="middle" x="302.5" y="-485" font-family="FreeSans" font-size="10.00">DeleteEvtRelay</text>
<text text-anchor="middle" x="302.5" y="-473" font-family="FreeSans" font-size="10.00">...</text>
</g>
<!-- Node9&#45;&gt;Node8 -->
<g id="edge18" class="edge"><title>Node9&#45;&gt;Node8</title>
<path fill="none" stroke="#9a32cd" stroke-dasharray="5,2" d="M131.979,-615.818C126.439,-612.138 121.51,-607.596 118,-602 86.8229,-552.303 84.8299,-518.389 118,-470 122.736,-463.091 139.511,-456.287 155.999,-451.008"/>
<polygon fill="#9a32cd" stroke="#9a32cd" points="130.639,-619.079 141.072,-620.919 134.064,-612.974 130.639,-619.079"/>
<text text-anchor="middle" x="142" y="-539" font-family="FreeSans" font-size="10.00"> Sender</text>
<text text-anchor="middle" x="142" y="-527" font-family="FreeSans" font-size="10.00">EventImpl</text>
</g>
</g>
</svg>
