<?xml version="1.0" encoding="UTF-8" standalone="no"?>
<!DOCTYPE svg PUBLIC "-//W3C//DTD SVG 1.1//EN"
 "http://www.w3.org/Graphics/SVG/1.1/DTD/svg11.dtd">
<!-- Generated by graphviz version 2.26.3 (20100126.1600)
 -->
<!-- Title: G Pages: 1 -->
<svg width="1100pt" height="256pt"
 viewBox="0.00 0.00 1100.00 256.00" xmlns="http://www.w3.org/2000/svg" xmlns:xlink="http://www.w3.org/1999/xlink">
<g id="graph1" class="graph" transform="scale(1 1) rotate(0) translate(4 252)">
<title>G</title>
<!-- Node1 -->
<g id="node1" class="node"><title>Node1</title>
<polygon fill="#bfbfbf" stroke="black" points="504.5,-114 504.5,-134 639.5,-134 639.5,-114 504.5,-114"/>
<text text-anchor="middle" x="572" y="-121" font-family="FreeSans" font-size="10.00">Kitware.VTK.vtk3DWidget</text>
</g>
<!-- Node6 -->
<g id="node11" class="node"><title>Node6</title>
<a xlink:href="class_kitware_1_1_v_t_k_1_1vtk_box_widget.html" target="_top" xlink:title="vtkBoxWidget &#45; orthogonal hexahedron 3D widget">
<polygon fill="none" stroke="black" points="705,-228 705,-248 845,-248 845,-228 705,-228"/>
<text text-anchor="middle" x="775" y="-235" font-family="FreeSans" font-size="10.00">Kitware.VTK.vtkBoxWidget</text>
</a>
</g>
<!-- Node1&#45;&gt;Node6 -->
<g id="edge10" class="edge"><title>Node1&#45;&gt;Node6</title>
<path fill="none" stroke="midnightblue" d="M586.335,-142.162C604.67,-164.05 638.563,-200.223 676,-219 684.995,-223.512 694.944,-226.955 704.964,-229.583"/>
<polygon fill="midnightblue" stroke="midnightblue" points="588.924,-139.8 579.884,-134.275 583.505,-144.231 588.924,-139.8"/>
</g>
<!-- Node7 -->
<g id="node13" class="node"><title>Node7</title>
<a xlink:href="class_kitware_1_1_v_t_k_1_1vtk_image_tracer_widget.html" target="_top" xlink:title="vtkImageTracerWidget &#45; 3D widget for tracing on planar props.">
<polygon fill="none" stroke="black" points="685,-190 685,-210 865,-210 865,-190 685,-190"/>
<text text-anchor="middle" x="775" y="-197" font-family="FreeSans" font-size="10.00">Kitware.VTK.vtkImageTracerWidget</text>
</a>
</g>
<!-- Node1&#45;&gt;Node7 -->
<g id="edge12" class="edge"><title>Node1&#45;&gt;Node7</title>
<path fill="none" stroke="midnightblue" d="M595.416,-139.615C615.865,-152.558 646.768,-170.479 676,-181 685.963,-184.586 696.745,-187.538 707.405,-189.956"/>
<polygon fill="midnightblue" stroke="midnightblue" points="597.102,-136.538 586.8,-134.064 593.31,-142.422 597.102,-136.538"/>
</g>
<!-- Node8 -->
<g id="node15" class="node"><title>Node8</title>
<a xlink:href="class_kitware_1_1_v_t_k_1_1vtk_line_widget.html" target="_top" xlink:title="vtkLineWidget &#45; 3D widget for manipulating a line">
<polygon fill="none" stroke="black" points="704.5,-152 704.5,-172 845.5,-172 845.5,-152 704.5,-152"/>
<text text-anchor="middle" x="775" y="-159" font-family="FreeSans" font-size="10.00">Kitware.VTK.vtkLineWidget</text>
</a>
</g>
<!-- Node1&#45;&gt;Node8 -->
<g id="edge14" class="edge"><title>Node1&#45;&gt;Node8</title>
<path fill="none" stroke="midnightblue" d="M635.549,-135.896C663.137,-141.06 695.094,-147.042 721.45,-151.976"/>
<polygon fill="midnightblue" stroke="midnightblue" points="636.075,-132.434 625.601,-134.034 634.787,-139.314 636.075,-132.434"/>
</g>
<!-- Node9 -->
<g id="node17" class="node"><title>Node9</title>
<a xlink:href="class_kitware_1_1_v_t_k_1_1vtk_point_widget.html" target="_top" xlink:title="vtkPointWidget &#45; position a point in 3D space">
<polygon fill="none" stroke="black" points="702,-114 702,-134 848,-134 848,-114 702,-114"/>
<text text-anchor="middle" x="775" y="-121" font-family="FreeSans" font-size="10.00">Kitware.VTK.vtkPointWidget</text>
</a>
</g>
<!-- Node1&#45;&gt;Node9 -->
<g id="edge16" class="edge"><title>Node1&#45;&gt;Node9</title>
<path fill="none" stroke="midnightblue" d="M650.041,-124C667.039,-124 684.965,-124 701.768,-124"/>
<polygon fill="midnightblue" stroke="midnightblue" points="649.596,-120.5 639.596,-124 649.596,-127.5 649.596,-120.5"/>
</g>
<!-- Node10 -->
<g id="node19" class="node"><title>Node10</title>
<a xlink:href="class_kitware_1_1_v_t_k_1_1vtk_poly_data_source_widget.html" target="_top" xlink:title="vtkPolyDataSourceWidget &#45; abstract PolyDataSource&#45;based 3D widget">
<polygon fill="none" stroke="black" points="676,-76 676,-96 874,-96 874,-76 676,-76"/>
<text text-anchor="middle" x="775" y="-83" font-family="FreeSans" font-size="10.00">Kitware.VTK.vtkPolyDataSourceWidget</text>
</a>
</g>
<!-- Node1&#45;&gt;Node10 -->
<g id="edge18" class="edge"><title>Node1&#45;&gt;Node10</title>
<path fill="none" stroke="midnightblue" d="M635.549,-112.104C663.137,-106.94 695.094,-100.958 721.45,-96.024"/>
<polygon fill="midnightblue" stroke="midnightblue" points="634.787,-108.686 625.601,-113.966 636.075,-115.566 634.787,-108.686"/>
</g>
<!-- Node14 -->
<g id="node27" class="node"><title>Node14</title>
<a xlink:href="class_kitware_1_1_v_t_k_1_1vtk_sphere_widget.html" target="_top" xlink:title="vtkSphereWidget &#45; 3D widget for manipulating a sphere">
<polygon fill="none" stroke="black" points="697,-38 697,-58 853,-58 853,-38 697,-38"/>
<text text-anchor="middle" x="775" y="-45" font-family="FreeSans" font-size="10.00">Kitware.VTK.vtkSphereWidget</text>
</a>
</g>
<!-- Node1&#45;&gt;Node14 -->
<g id="edge26" class="edge"><title>Node1&#45;&gt;Node14</title>
<path fill="none" stroke="midnightblue" d="M595.416,-108.385C615.865,-95.4422 646.768,-77.5213 676,-67 685.963,-63.4142 696.745,-60.4621 707.405,-58.0444"/>
<polygon fill="midnightblue" stroke="midnightblue" points="593.31,-105.578 586.8,-113.936 597.102,-111.462 593.31,-105.578"/>
</g>
<!-- Node15 -->
<g id="node29" class="node"><title>Node15</title>
<a xlink:href="class_kitware_1_1_v_t_k_1_1vtk_spline_widget.html" target="_top" xlink:title="vtkSplineWidget &#45; 3D widget for manipulating a spline">
<polygon fill="none" stroke="black" points="699.5,-0 699.5,-20 850.5,-20 850.5,-0 699.5,-0"/>
<text text-anchor="middle" x="775" y="-7" font-family="FreeSans" font-size="10.00">Kitware.VTK.vtkSplineWidget</text>
</a>
</g>
<!-- Node1&#45;&gt;Node15 -->
<g id="edge28" class="edge"><title>Node1&#45;&gt;Node15</title>
<path fill="none" stroke="midnightblue" d="M586.335,-105.838C604.67,-83.9496 638.563,-47.7775 676,-29 683.353,-25.3122 691.342,-22.338 699.487,-19.9398"/>
<polygon fill="midnightblue" stroke="midnightblue" points="583.505,-103.769 579.884,-113.725 588.924,-108.2 583.505,-103.769"/>
</g>
<!-- Node2 -->
<g id="node2" class="node"><title>Node2</title>
<a xlink:href="class_kitware_1_1_v_t_k_1_1vtk_interactor_observer.html" target="_top" xlink:title="vtkInteractorObserver &#45; an abstract superclass for classes observing events invoked by vtkRenderWindo...">
<polygon fill="none" stroke="black" points="346.5,-114 346.5,-134 467.5,-134 467.5,-114 346.5,-114"/>
<text text-anchor="middle" x="407" y="-121" font-family="FreeSans" font-size="10.00">vtkInteractorObserver</text>
</a>
</g>
<!-- Node2&#45;&gt;Node1 -->
<g id="edge2" class="edge"><title>Node2&#45;&gt;Node1</title>
<path fill="none" stroke="midnightblue" d="M477.725,-124C486.524,-124 495.506,-124 504.26,-124"/>
<polygon fill="midnightblue" stroke="midnightblue" points="477.503,-120.5 467.503,-124 477.503,-127.5 477.503,-120.5"/>
</g>
<!-- Node3 -->
<g id="node4" class="node"><title>Node3</title>
<a xlink:href="class_kitware_1_1_v_t_k_1_1vtk_object.html" target="_top" xlink:title="vtkObject &#45; abstract base class for most VTK objects">
<polygon fill="none" stroke="black" points="248,-114 248,-134 310,-134 310,-114 248,-114"/>
<text text-anchor="middle" x="279" y="-121" font-family="FreeSans" font-size="10.00">vtkObject</text>
</a>
</g>
<!-- Node3&#45;&gt;Node2 -->
<g id="edge4" class="edge"><title>Node3&#45;&gt;Node2</title>
<path fill="none" stroke="midnightblue" d="M320.479,-124C328.791,-124 337.684,-124 346.488,-124"/>
<polygon fill="midnightblue" stroke="midnightblue" points="320.312,-120.5 310.312,-124 320.312,-127.5 320.312,-120.5"/>
</g>
<!-- Node4 -->
<g id="node6" class="node"><title>Node4</title>
<a xlink:href="class_kitware_1_1_v_t_k_1_1vtk_object_base.html" target="_top" xlink:title="vtkObjectBase &#45; abstract base class for most VTK objects">
<polygon fill="none" stroke="black" points="126,-114 126,-134 212,-134 212,-114 126,-114"/>
<text text-anchor="middle" x="169" y="-121" font-family="FreeSans" font-size="10.00">vtkObjectBase</text>
</a>
</g>
<!-- Node4&#45;&gt;Node3 -->
<g id="edge6" class="edge"><title>Node4&#45;&gt;Node3</title>
<path fill="none" stroke="midnightblue" d="M222.346,-124C231.091,-124 239.892,-124 247.863,-124"/>
<polygon fill="midnightblue" stroke="midnightblue" points="222.159,-120.5 212.159,-124 222.159,-127.5 222.159,-120.5"/>
</g>
<!-- Node5 -->
<g id="node8" class="node"><title>Node5</title>
<a xlink:href="class_kitware_1_1_v_t_k_1_1_wrapped_object.html" target="_top" xlink:title="Base class for all the mummy wrapped classes in Kitware.VTK.">
<polygon fill="none" stroke="black" points="0.5,-114 0.5,-134 89.5,-134 89.5,-114 0.5,-114"/>
<text text-anchor="middle" x="45" y="-121" font-family="FreeSans" font-size="10.00">WrappedObject</text>
</a>
</g>
<!-- Node5&#45;&gt;Node4 -->
<g id="edge8" class="edge"><title>Node5&#45;&gt;Node4</title>
<path fill="none" stroke="midnightblue" d="M99.8895,-124C108.623,-124 117.548,-124 125.957,-124"/>
<polygon fill="midnightblue" stroke="midnightblue" points="99.7669,-120.5 89.7668,-124 99.7668,-127.5 99.7669,-120.5"/>
</g>
<!-- Node11 -->
<g id="node21" class="node"><title>Node11</title>
<a xlink:href="class_kitware_1_1_v_t_k_1_1vtk_image_plane_widget.html" target="_top" xlink:title="vtkImagePlaneWidget &#45; 3D widget for reslicing image data">
<polygon fill="none" stroke="black" points="912,-114 912,-134 1090,-134 1090,-114 912,-114"/>
<text text-anchor="middle" x="1001" y="-121" font-family="FreeSans" font-size="10.00">Kitware.VTK.vtkImagePlaneWidget</text>
</a>
</g>
<!-- Node10&#45;&gt;Node11 -->
<g id="edge20" class="edge"><title>Node10&#45;&gt;Node11</title>
<path fill="none" stroke="midnightblue" d="M844.539,-97.6925C875.525,-102.902 911.654,-108.977 941.383,-113.976"/>
<polygon fill="midnightblue" stroke="midnightblue" points="845.116,-94.2404 834.674,-96.0338 843.956,-101.144 845.116,-94.2404"/>
</g>
<!-- Node12 -->
<g id="node23" class="node"><title>Node12</title>
<a xlink:href="class_kitware_1_1_v_t_k_1_1vtk_implicit_plane_widget.html" target="_top" xlink:title="vtkImplicitPlaneWidget &#45; 3D widget for manipulating an infinite plane">
<polygon fill="none" stroke="black" points="910,-76 910,-96 1092,-96 1092,-76 910,-76"/>
<text text-anchor="middle" x="1001" y="-83" font-family="FreeSans" font-size="10.00">Kitware.VTK.vtkImplicitPlaneWidget</text>
</a>
</g>
<!-- Node10&#45;&gt;Node12 -->
<g id="edge22" class="edge"><title>Node10&#45;&gt;Node12</title>
<path fill="none" stroke="midnightblue" d="M884.171,-86C892.749,-86 901.356,-86 909.795,-86"/>
<polygon fill="midnightblue" stroke="midnightblue" points="884.127,-82.5001 874.127,-86 884.127,-89.5001 884.127,-82.5001"/>
</g>
<!-- Node13 -->
<g id="node25" class="node"><title>Node13</title>
<a xlink:href="class_kitware_1_1_v_t_k_1_1vtk_plane_widget.html" target="_top" xlink:title="vtkPlaneWidget &#45; 3D widget for manipulating a finite plane">
<polygon fill="none" stroke="black" points="927,-38 927,-58 1075,-58 1075,-38 927,-38"/>
<text text-anchor="middle" x="1001" y="-45" font-family="FreeSans" font-size="10.00">Kitware.VTK.vtkPlaneWidget</text>
</a>
</g>
<!-- Node10&#45;&gt;Node13 -->
<g id="edge24" class="edge"><title>Node10&#45;&gt;Node13</title>
<path fill="none" stroke="midnightblue" d="M844.539,-74.3075C875.525,-69.0975 911.654,-63.0227 941.383,-58.024"/>
<polygon fill="midnightblue" stroke="midnightblue" points="843.956,-70.8565 834.674,-75.9662 845.116,-77.7596 843.956,-70.8565"/>
</g>
</g>
</svg>
