<?xml version="1.0" encoding="UTF-8" standalone="no"?>
<!DOCTYPE svg PUBLIC "-//W3C//DTD SVG 1.1//EN"
 "http://www.w3.org/Graphics/SVG/1.1/DTD/svg11.dtd">
<!-- Generated by graphviz version 2.26.3 (20100126.1600)
 -->
<!-- Title: G Pages: 1 -->
<svg width="162pt" height="436pt"
 viewBox="0.00 0.00 162.00 436.00" xmlns="http://www.w3.org/2000/svg" xmlns:xlink="http://www.w3.org/1999/xlink">
<g id="graph1" class="graph" transform="scale(1 1) rotate(0) translate(4 432)">
<title>G</title>
<!-- Node1 -->
<g id="node1" class="node"><title>Node1</title>
<polygon fill="#bfbfbf" stroke="black" points="-0.5,-1 -0.5,-21 154.5,-21 154.5,-1 -0.5,-1"/>
<text text-anchor="middle" x="77" y="-8" font-family="FreeSans" font-size="10.00">Kitware.VTK.vtkMCubesWriter</text>
</g>
<!-- Node2 -->
<g id="node2" class="node"><title>Node2</title>
<a xlink:href="class_kitware_1_1_v_t_k_1_1vtk_poly_data_writer.html" target="_top" xlink:title="vtkPolyDataWriter &#45; write vtk polygonal data">
<polygon fill="none" stroke="black" points="26.5,-59 26.5,-79 127.5,-79 127.5,-59 26.5,-59"/>
<text text-anchor="middle" x="77" y="-66" font-family="FreeSans" font-size="10.00">vtkPolyDataWriter</text>
</a>
</g>
<!-- Node2&#45;&gt;Node1 -->
<g id="edge2" class="edge"><title>Node2&#45;&gt;Node1</title>
<path fill="none" stroke="midnightblue" d="M77,-48.8902C77,-39.6201 77,-29.0083 77,-21.3776"/>
<polygon fill="midnightblue" stroke="midnightblue" points="73.5001,-48.8971 77,-58.8972 80.5001,-48.8972 73.5001,-48.8971"/>
</g>
<!-- Node3 -->
<g id="node4" class="node"><title>Node3</title>
<a xlink:href="class_kitware_1_1_v_t_k_1_1vtk_data_writer.html" target="_top" xlink:title="vtkDataWriter &#45; helper class for objects that write vtk data files">
<polygon fill="none" stroke="black" points="36.5,-117 36.5,-137 117.5,-137 117.5,-117 36.5,-117"/>
<text text-anchor="middle" x="77" y="-124" font-family="FreeSans" font-size="10.00">vtkDataWriter</text>
</a>
</g>
<!-- Node3&#45;&gt;Node2 -->
<g id="edge4" class="edge"><title>Node3&#45;&gt;Node2</title>
<path fill="none" stroke="midnightblue" d="M77,-106.89C77,-97.6201 77,-87.0083 77,-79.3776"/>
<polygon fill="midnightblue" stroke="midnightblue" points="73.5001,-106.897 77,-116.897 80.5001,-106.897 73.5001,-106.897"/>
</g>
<!-- Node4 -->
<g id="node6" class="node"><title>Node4</title>
<a xlink:href="class_kitware_1_1_v_t_k_1_1vtk_writer.html" target="_top" xlink:title="vtkWriter &#45; abstract class to write data to file(s)">
<polygon fill="none" stroke="black" points="48,-175 48,-195 106,-195 106,-175 48,-175"/>
<text text-anchor="middle" x="77" y="-182" font-family="FreeSans" font-size="10.00">vtkWriter</text>
</a>
</g>
<!-- Node4&#45;&gt;Node3 -->
<g id="edge6" class="edge"><title>Node4&#45;&gt;Node3</title>
<path fill="none" stroke="midnightblue" d="M77,-164.89C77,-155.62 77,-145.008 77,-137.378"/>
<polygon fill="midnightblue" stroke="midnightblue" points="73.5001,-164.897 77,-174.897 80.5001,-164.897 73.5001,-164.897"/>
</g>
<!-- Node5 -->
<g id="node8" class="node"><title>Node5</title>
<a xlink:href="class_kitware_1_1_v_t_k_1_1vtk_algorithm.html" target="_top" xlink:title="vtkAlgorithm &#45; Superclass for all sources, filters, and sinks in VTK.">
<polygon fill="none" stroke="black" points="38.5,-233 38.5,-253 115.5,-253 115.5,-233 38.5,-233"/>
<text text-anchor="middle" x="77" y="-240" font-family="FreeSans" font-size="10.00">vtkAlgorithm</text>
</a>
</g>
<!-- Node5&#45;&gt;Node4 -->
<g id="edge8" class="edge"><title>Node5&#45;&gt;Node4</title>
<path fill="none" stroke="midnightblue" d="M77,-222.89C77,-213.62 77,-203.008 77,-195.378"/>
<polygon fill="midnightblue" stroke="midnightblue" points="73.5001,-222.897 77,-232.897 80.5001,-222.897 73.5001,-222.897"/>
</g>
<!-- Node6 -->
<g id="node10" class="node"><title>Node6</title>
<a xlink:href="class_kitware_1_1_v_t_k_1_1vtk_object.html" target="_top" xlink:title="vtkObject &#45; abstract base class for most VTK objects">
<polygon fill="none" stroke="black" points="46,-291 46,-311 108,-311 108,-291 46,-291"/>
<text text-anchor="middle" x="77" y="-298" font-family="FreeSans" font-size="10.00">vtkObject</text>
</a>
</g>
<!-- Node6&#45;&gt;Node5 -->
<g id="edge10" class="edge"><title>Node6&#45;&gt;Node5</title>
<path fill="none" stroke="midnightblue" d="M77,-280.89C77,-271.62 77,-261.008 77,-253.378"/>
<polygon fill="midnightblue" stroke="midnightblue" points="73.5001,-280.897 77,-290.897 80.5001,-280.897 73.5001,-280.897"/>
</g>
<!-- Node7 -->
<g id="node12" class="node"><title>Node7</title>
<a xlink:href="class_kitware_1_1_v_t_k_1_1vtk_object_base.html" target="_top" xlink:title="vtkObjectBase &#45; abstract base class for most VTK objects">
<polygon fill="none" stroke="black" points="34,-349 34,-369 120,-369 120,-349 34,-349"/>
<text text-anchor="middle" x="77" y="-356" font-family="FreeSans" font-size="10.00">vtkObjectBase</text>
</a>
</g>
<!-- Node7&#45;&gt;Node6 -->
<g id="edge12" class="edge"><title>Node7&#45;&gt;Node6</title>
<path fill="none" stroke="midnightblue" d="M77,-338.89C77,-329.62 77,-319.008 77,-311.378"/>
<polygon fill="midnightblue" stroke="midnightblue" points="73.5001,-338.897 77,-348.897 80.5001,-338.897 73.5001,-338.897"/>
</g>
<!-- Node8 -->
<g id="node14" class="node"><title>Node8</title>
<a xlink:href="class_kitware_1_1_v_t_k_1_1_wrapped_object.html" target="_top" xlink:title="Base class for all the mummy wrapped classes in Kitware.VTK.">
<polygon fill="none" stroke="black" points="32.5,-407 32.5,-427 121.5,-427 121.5,-407 32.5,-407"/>
<text text-anchor="middle" x="77" y="-414" font-family="FreeSans" font-size="10.00">WrappedObject</text>
</a>
</g>
<!-- Node8&#45;&gt;Node7 -->
<g id="edge14" class="edge"><title>Node8&#45;&gt;Node7</title>
<path fill="none" stroke="midnightblue" d="M77,-396.89C77,-387.62 77,-377.008 77,-369.378"/>
<polygon fill="midnightblue" stroke="midnightblue" points="73.5001,-396.897 77,-406.897 80.5001,-396.897 73.5001,-396.897"/>
</g>
</g>
</svg>
