<?xml version="1.0" encoding="UTF-8" standalone="no"?>
<!DOCTYPE svg PUBLIC "-//W3C//DTD SVG 1.1//EN"
 "http://www.w3.org/Graphics/SVG/1.1/DTD/svg11.dtd">
<!-- Generated by graphviz version 2.26.3 (20100126.1600)
 -->
<!-- Title: G Pages: 1 -->
<svg width="428pt" height="770pt"
 viewBox="0.00 0.00 428.46 770.00" xmlns="http://www.w3.org/2000/svg" xmlns:xlink="http://www.w3.org/1999/xlink">
<g id="graph1" class="graph" transform="scale(1 1) rotate(0) translate(4 766)">
<title>G</title>
<!-- Node1 -->
<g id="node1" class="node"><title>Node1</title>
<polygon fill="#bfbfbf" stroke="black" points="0,-1 0,-21 184,-21 184,-1 0,-1"/>
<text text-anchor="middle" x="92" y="-8" font-family="FreeSans" font-size="10.00">Kitware.VTK.vtkGraphGeodesicPath</text>
</g>
<!-- Node2 -->
<g id="node2" class="node"><title>Node2</title>
<a xlink:href="class_kitware_1_1_v_t_k_1_1vtk_geodesic_path.html" target="_top" xlink:title="vtkGeodesicPath &#45; Abstract base for classes that generate a geodesic path">
<polygon fill="none" stroke="black" points="44,-61 44,-81 140,-81 140,-61 44,-61"/>
<text text-anchor="middle" x="92" y="-68" font-family="FreeSans" font-size="10.00">vtkGeodesicPath</text>
</a>
</g>
<!-- Node2&#45;&gt;Node1 -->
<g id="edge2" class="edge"><title>Node2&#45;&gt;Node1</title>
<path fill="none" stroke="midnightblue" d="M92,-50.5155C92,-40.562 92,-29.0495 92,-21.0279"/>
<polygon fill="midnightblue" stroke="midnightblue" points="88.5001,-50.8218 92,-60.8218 95.5001,-50.8219 88.5001,-50.8218"/>
</g>
<!-- Node3 -->
<g id="node4" class="node"><title>Node3</title>
<a xlink:href="class_kitware_1_1_v_t_k_1_1vtk_poly_data_algorithm.html" target="_top" xlink:title="vtkPolyDataAlgorithm &#45; Superclass for algorithms that produce only polydata as output">
<polygon fill="none" stroke="black" points="32,-121 32,-141 152,-141 152,-121 32,-121"/>
<text text-anchor="middle" x="92" y="-128" font-family="FreeSans" font-size="10.00">vtkPolyDataAlgorithm</text>
</a>
</g>
<!-- Node3&#45;&gt;Node2 -->
<g id="edge4" class="edge"><title>Node3&#45;&gt;Node2</title>
<path fill="none" stroke="midnightblue" d="M92,-110.516C92,-100.562 92,-89.0495 92,-81.0279"/>
<polygon fill="midnightblue" stroke="midnightblue" points="88.5001,-110.822 92,-120.822 95.5001,-110.822 88.5001,-110.822"/>
</g>
<!-- Node4 -->
<g id="node6" class="node"><title>Node4</title>
<a xlink:href="class_kitware_1_1_v_t_k_1_1vtk_algorithm.html" target="_top" xlink:title="vtkAlgorithm &#45; Superclass for all sources, filters, and sinks in VTK.">
<polygon fill="none" stroke="black" points="53.5,-181 53.5,-201 130.5,-201 130.5,-181 53.5,-181"/>
<text text-anchor="middle" x="92" y="-188" font-family="FreeSans" font-size="10.00">vtkAlgorithm</text>
</a>
</g>
<!-- Node4&#45;&gt;Node3 -->
<g id="edge6" class="edge"><title>Node4&#45;&gt;Node3</title>
<path fill="none" stroke="midnightblue" d="M92,-170.516C92,-160.562 92,-149.05 92,-141.028"/>
<polygon fill="midnightblue" stroke="midnightblue" points="88.5001,-170.822 92,-180.822 95.5001,-170.822 88.5001,-170.822"/>
</g>
<!-- Node5 -->
<g id="node8" class="node"><title>Node5</title>
<a xlink:href="class_kitware_1_1_v_t_k_1_1vtk_object.html" target="_top" xlink:title="vtkObject &#45; abstract base class for most VTK objects">
<polygon fill="none" stroke="black" points="61,-241 61,-261 123,-261 123,-241 61,-241"/>
<text text-anchor="middle" x="92" y="-248" font-family="FreeSans" font-size="10.00">vtkObject</text>
</a>
</g>
<!-- Node5&#45;&gt;Node4 -->
<g id="edge8" class="edge"><title>Node5&#45;&gt;Node4</title>
<path fill="none" stroke="midnightblue" d="M92,-230.516C92,-220.562 92,-209.05 92,-201.028"/>
<polygon fill="midnightblue" stroke="midnightblue" points="88.5001,-230.822 92,-240.822 95.5001,-230.822 88.5001,-230.822"/>
</g>
<!-- Node6 -->
<g id="node10" class="node"><title>Node6</title>
<a xlink:href="class_kitware_1_1_v_t_k_1_1vtk_object_base.html" target="_top" xlink:title="vtkObjectBase &#45; abstract base class for most VTK objects">
<polygon fill="none" stroke="black" points="112,-681 112,-701 198,-701 198,-681 112,-681"/>
<text text-anchor="middle" x="155" y="-688" font-family="FreeSans" font-size="10.00">vtkObjectBase</text>
</a>
</g>
<!-- Node6&#45;&gt;Node5 -->
<g id="edge10" class="edge"><title>Node6&#45;&gt;Node5</title>
<path fill="none" stroke="midnightblue" d="M126.423,-675.886C112.687,-667.44 96.8844,-655.826 86,-642 74.1564,-626.955 73.6209,-620.802 70,-602 44.4248,-469.199 79.5766,-303.437 89.5155,-261.17"/>
<polygon fill="midnightblue" stroke="midnightblue" points="124.683,-678.923 135.079,-680.97 128.229,-672.887 124.683,-678.923"/>
</g>
<!-- Node9 -->
<g id="node17" class="node"><title>Node9</title>
<a xlink:href="class_kitware_1_1_v_t_k_1_1vtk_object.html" target="_top" xlink:title="vtkObject &#45; abstract base class for most VTK objects">
<polygon fill="none" stroke="black" points="95,-621 95,-641 215,-641 215,-621 95,-621"/>
<text text-anchor="middle" x="155" y="-628" font-family="FreeSans" font-size="10.00">Kitware.VTK.vtkObject</text>
</a>
</g>
<!-- Node6&#45;&gt;Node9 -->
<g id="edge20" class="edge"><title>Node6&#45;&gt;Node9</title>
<path fill="none" stroke="midnightblue" d="M155,-670.516C155,-660.562 155,-649.05 155,-641.028"/>
<polygon fill="midnightblue" stroke="midnightblue" points="151.5,-670.822 155,-680.822 158.5,-670.822 151.5,-670.822"/>
</g>
<!-- Node7 -->
<g id="node12" class="node"><title>Node7</title>
<a xlink:href="class_kitware_1_1_v_t_k_1_1_wrapped_object.html" target="_top" xlink:title="Base class for all the mummy wrapped classes in Kitware.VTK.">
<polygon fill="none" stroke="black" points="293.5,-741 293.5,-761 382.5,-761 382.5,-741 293.5,-741"/>
<text text-anchor="middle" x="338" y="-748" font-family="FreeSans" font-size="10.00">WrappedObject</text>
</a>
</g>
<!-- Node7&#45;&gt;Node6 -->
<g id="edge12" class="edge"><title>Node7&#45;&gt;Node6</title>
<path fill="none" stroke="midnightblue" d="M297.804,-737.821C264.042,-726.752 216.512,-711.168 185.73,-701.075"/>
<polygon fill="midnightblue" stroke="midnightblue" points="296.777,-741.168 307.37,-740.957 298.958,-734.516 296.777,-741.168"/>
</g>
<!-- Node8 -->
<g id="node14" class="node"><title>Node8</title>
<a xlink:href="class_kitware_1_1_v_t_k_1_1vtk_object_event_relay.html" target="_top" xlink:title="Implement a relay handler for VTK events. This is a class that receives events directly from the VTK ...">
<polygon fill="none" stroke="black" points="84,-431 84,-451 256,-451 256,-431 84,-431"/>
<text text-anchor="middle" x="170" y="-438" font-family="FreeSans" font-size="10.00">Kitware.VTK.vtkObjectEventRelay</text>
</a>
</g>
<!-- Node7&#45;&gt;Node8 -->
<g id="edge16" class="edge"><title>Node7&#45;&gt;Node8</title>
<path fill="none" stroke="midnightblue" d="M350.888,-732.325C383.276,-682.899 460.803,-547.191 393,-470 383.773,-459.495 315.047,-451.666 256.298,-446.808"/>
<polygon fill="midnightblue" stroke="midnightblue" points="347.891,-730.509 345.239,-740.767 353.709,-734.402 347.891,-730.509"/>
</g>
<!-- Node8&#45;&gt;Node5 -->
<g id="edge14" class="edge"><title>Node8&#45;&gt;Node5</title>
<path fill="none" stroke="#9a32cd" stroke-dasharray="5,2" d="M161.921,-421.321C145.489,-381.293 108.674,-291.616 96.2144,-261.266"/>
<polygon fill="#9a32cd" stroke="#9a32cd" points="158.771,-422.863 165.806,-430.785 165.246,-420.205 158.771,-422.863"/>
<text text-anchor="middle" x="269.5" y="-403" font-family="FreeSans" font-size="10.00"> LeftButtonReleaseEvtRelay</text>
<text text-anchor="middle" x="269.5" y="-391" font-family="FreeSans" font-size="10.00">KeyPressEvtRelay</text>
<text text-anchor="middle" x="269.5" y="-379" font-family="FreeSans" font-size="10.00">DomainModifiedEvtRelay</text>
<text text-anchor="middle" x="269.5" y="-367" font-family="FreeSans" font-size="10.00">VolumeMapperComputeGradientsStartEvtRelay</text>
<text text-anchor="middle" x="269.5" y="-355" font-family="FreeSans" font-size="10.00">ErrorEvtRelay</text>
<text text-anchor="middle" x="269.5" y="-343" font-family="FreeSans" font-size="10.00">VolumeMapperRenderStartEvtRelay</text>
<text text-anchor="middle" x="269.5" y="-331" font-family="FreeSans" font-size="10.00">StartEvtRelay</text>
<text text-anchor="middle" x="269.5" y="-319" font-family="FreeSans" font-size="10.00">ResetCameraEvtRelay</text>
<text text-anchor="middle" x="269.5" y="-307" font-family="FreeSans" font-size="10.00">EnableEvtRelay</text>
<text text-anchor="middle" x="269.5" y="-295" font-family="FreeSans" font-size="10.00">DeleteEvtRelay</text>
<text text-anchor="middle" x="269.5" y="-283" font-family="FreeSans" font-size="10.00">...</text>
</g>
<!-- Node8&#45;&gt;Node9 -->
<g id="edge22" class="edge"><title>Node8&#45;&gt;Node9</title>
<path fill="none" stroke="#9a32cd" stroke-dasharray="5,2" d="M167.028,-461.231C166.649,-464.169 166.293,-467.159 166,-470 160.144,-526.853 156.636,-595.333 155.452,-620.807"/>
<polygon fill="#9a32cd" stroke="#9a32cd" points="170.515,-461.565 168.421,-451.179 163.582,-460.604 170.515,-461.565"/>
<text text-anchor="middle" x="279.5" y="-593" font-family="FreeSans" font-size="10.00"> LeftButtonReleaseEvtRelay</text>
<text text-anchor="middle" x="279.5" y="-581" font-family="FreeSans" font-size="10.00">KeyPressEvtRelay</text>
<text text-anchor="middle" x="279.5" y="-569" font-family="FreeSans" font-size="10.00">DomainModifiedEvtRelay</text>
<text text-anchor="middle" x="279.5" y="-557" font-family="FreeSans" font-size="10.00">VolumeMapperComputeGradientsStartEvtRelay</text>
<text text-anchor="middle" x="279.5" y="-545" font-family="FreeSans" font-size="10.00">ErrorEvtRelay</text>
<text text-anchor="middle" x="279.5" y="-533" font-family="FreeSans" font-size="10.00">VolumeMapperRenderStartEvtRelay</text>
<text text-anchor="middle" x="279.5" y="-521" font-family="FreeSans" font-size="10.00">StartEvtRelay</text>
<text text-anchor="middle" x="279.5" y="-509" font-family="FreeSans" font-size="10.00">ResetCameraEvtRelay</text>
<text text-anchor="middle" x="279.5" y="-497" font-family="FreeSans" font-size="10.00">EnableEvtRelay</text>
<text text-anchor="middle" x="279.5" y="-485" font-family="FreeSans" font-size="10.00">DeleteEvtRelay</text>
<text text-anchor="middle" x="279.5" y="-473" font-family="FreeSans" font-size="10.00">...</text>
</g>
<!-- Node9&#45;&gt;Node8 -->
<g id="edge18" class="edge"><title>Node9&#45;&gt;Node8</title>
<path fill="none" stroke="#9a32cd" stroke-dasharray="5,2" d="M108.979,-615.818C103.439,-612.138 98.5104,-607.596 95,-602 63.8229,-552.303 61.8299,-518.389 95,-470 99.7359,-463.091 116.511,-456.287 132.999,-451.008"/>
<polygon fill="#9a32cd" stroke="#9a32cd" points="107.639,-619.079 118.072,-620.919 111.064,-612.974 107.639,-619.079"/>
<text text-anchor="middle" x="119" y="-539" font-family="FreeSans" font-size="10.00"> Sender</text>
<text text-anchor="middle" x="119" y="-527" font-family="FreeSans" font-size="10.00">EventImpl</text>
</g>
</g>
</svg>
