<?xml version="1.0" encoding="UTF-8" standalone="no"?>
<!DOCTYPE svg PUBLIC "-//W3C//DTD SVG 1.1//EN"
 "http://www.w3.org/Graphics/SVG/1.1/DTD/svg11.dtd">
<!-- Generated by graphviz version 2.26.3 (20100126.1600)
 -->
<!-- Title: G Pages: 1 -->
<svg width="1348pt" height="427pt"
 viewBox="0.00 0.00 1348.00 427.00" xmlns="http://www.w3.org/2000/svg" xmlns:xlink="http://www.w3.org/1999/xlink">
<g id="graph1" class="graph" transform="scale(1 1) rotate(0) translate(4 423)">
<title>G</title>
<!-- Node1 -->
<g id="node1" class="node"><title>Node1</title>
<polygon fill="#bfbfbf" stroke="black" points="346,-266 346,-286 468,-286 468,-266 346,-266"/>
<text text-anchor="middle" x="407" y="-273" font-family="FreeSans" font-size="10.00">Kitware.VTK.vtkPainter</text>
</g>
<!-- Node5 -->
<g id="node9" class="node"><title>Node5</title>
<a xlink:href="class_kitware_1_1_v_t_k_1_1vtk_clip_planes_painter.html" target="_top" xlink:title="vtkClipPlanesPainter &#45; abstract class defining interface for painter that manages clipping...">
<polygon fill="none" stroke="black" points="517.5,-389 517.5,-409 688.5,-409 688.5,-389 517.5,-389"/>
<text text-anchor="middle" x="603" y="-396" font-family="FreeSans" font-size="10.00">Kitware.VTK.vtkClipPlanesPainter</text>
</a>
</g>
<!-- Node1&#45;&gt;Node5 -->
<g id="edge8" class="edge"><title>Node1&#45;&gt;Node5</title>
<path fill="none" stroke="midnightblue" d="M420.861,-294.297C438.069,-315.76 469.407,-350.949 504,-371 517.754,-378.972 533.91,-384.785 549.136,-388.977"/>
<polygon fill="midnightblue" stroke="midnightblue" points="423.504,-291.996 414.581,-286.284 417.994,-296.314 423.504,-291.996"/>
</g>
<!-- Node7 -->
<g id="node13" class="node"><title>Node7</title>
<a xlink:href="class_kitware_1_1_v_t_k_1_1vtk_composite_painter.html" target="_top" xlink:title="vtkCompositePainter &#45; painter that can be inserted before any vtkDataSet painting chain to handle com...">
<polygon fill="none" stroke="black" points="516,-342 516,-362 690,-362 690,-342 516,-342"/>
<text text-anchor="middle" x="603" y="-349" font-family="FreeSans" font-size="10.00">Kitware.VTK.vtkCompositePainter</text>
</a>
</g>
<!-- Node1&#45;&gt;Node7 -->
<g id="edge12" class="edge"><title>Node1&#45;&gt;Node7</title>
<path fill="none" stroke="midnightblue" d="M428.938,-291.855C447.913,-304.823 476.545,-322.652 504,-333 513.58,-336.611 523.952,-339.564 534.253,-341.971"/>
<polygon fill="midnightblue" stroke="midnightblue" points="430.898,-288.955 420.692,-286.109 426.895,-294.698 430.898,-288.955"/>
</g>
<!-- Node8 -->
<g id="node15" class="node"><title>Node8</title>
<a xlink:href="class_kitware_1_1_v_t_k_1_1vtk_default_painter.html" target="_top" xlink:title="vtkDefaultPainter &#45; sets up a default chain of painters.">
<polygon fill="none" stroke="black" points="524.5,-304 524.5,-324 681.5,-324 681.5,-304 524.5,-304"/>
<text text-anchor="middle" x="603" y="-311" font-family="FreeSans" font-size="10.00">Kitware.VTK.vtkDefaultPainter</text>
</a>
</g>
<!-- Node1&#45;&gt;Node8 -->
<g id="edge14" class="edge"><title>Node1&#45;&gt;Node8</title>
<path fill="none" stroke="midnightblue" d="M467.978,-287.981C479.921,-290.317 492.352,-292.742 504,-295 519.119,-297.932 535.543,-301.093 550.586,-303.979"/>
<polygon fill="midnightblue" stroke="midnightblue" points="468.576,-284.532 458.089,-286.045 467.231,-291.401 468.576,-284.532"/>
</g>
<!-- Node10 -->
<g id="node19" class="node"><title>Node10</title>
<a xlink:href="class_kitware_1_1_v_t_k_1_1vtk_display_list_painter.html" target="_top" xlink:title="vtkDisplayListPainter &#45; abstract superclass for painter that builds/uses display lists.">
<polygon fill="none" stroke="black" points="516.5,-266 516.5,-286 689.5,-286 689.5,-266 516.5,-266"/>
<text text-anchor="middle" x="603" y="-273" font-family="FreeSans" font-size="10.00">Kitware.VTK.vtkDisplayListPainter</text>
</a>
</g>
<!-- Node1&#45;&gt;Node10 -->
<g id="edge18" class="edge"><title>Node1&#45;&gt;Node10</title>
<path fill="none" stroke="midnightblue" d="M478.415,-276C490.758,-276 503.71,-276 516.403,-276"/>
<polygon fill="midnightblue" stroke="midnightblue" points="478.209,-272.5 468.209,-276 478.209,-279.5 478.209,-272.5"/>
</g>
<!-- Node12 -->
<g id="node23" class="node"><title>Node12</title>
<a xlink:href="class_kitware_1_1_v_t_k_1_1vtk_poly_data_painter.html" target="_top" xlink:title="vtkPolyDataPainter &#45; Abstract class for drawing poly data.">
<polygon fill="none" stroke="black" points="520.5,-209 520.5,-229 685.5,-229 685.5,-209 520.5,-209"/>
<text text-anchor="middle" x="603" y="-216" font-family="FreeSans" font-size="10.00">Kitware.VTK.vtkPolyDataPainter</text>
</a>
</g>
<!-- Node1&#45;&gt;Node12 -->
<g id="edge22" class="edge"><title>Node1&#45;&gt;Node12</title>
<path fill="none" stroke="midnightblue" d="M451.209,-263.143C486.685,-252.826 535.785,-238.547 568.427,-229.054"/>
<polygon fill="midnightblue" stroke="midnightblue" points="450.214,-259.787 441.59,-265.941 452.169,-266.509 450.214,-259.787"/>
</g>
<!-- Node28 -->
<g id="node55" class="node"><title>Node28</title>
<a xlink:href="class_kitware_1_1_v_t_k_1_1vtk_scalars_to_colors_painter.html" target="_top" xlink:title="vtkScalarsToColorsPainter &#45; painter that converts scalars to colors. It enable/disables coloring stat...">
<polygon fill="none" stroke="black" points="504.5,-171 504.5,-191 701.5,-191 701.5,-171 504.5,-171"/>
<text text-anchor="middle" x="603" y="-178" font-family="FreeSans" font-size="10.00">Kitware.VTK.vtkScalarsToColorsPainter</text>
</a>
</g>
<!-- Node1&#45;&gt;Node28 -->
<g id="edge54" class="edge"><title>Node1&#45;&gt;Node28</title>
<path fill="none" stroke="midnightblue" d="M424.108,-258.362C442.255,-240.747 472.593,-214.294 504,-200 511.964,-196.375 520.594,-193.441 529.326,-191.067"/>
<polygon fill="midnightblue" stroke="midnightblue" points="421.292,-256.226 416.668,-265.758 426.227,-261.19 421.292,-256.226"/>
</g>
<!-- Node30 -->
<g id="node59" class="node"><title>Node30</title>
<a xlink:href="class_kitware_1_1_v_t_k_1_1vtk_surface_l_i_c_painter.html" target="_top" xlink:title="vtkSurfaceLICPainter &#45; painter that performs LIC on the surface of arbitrary geometry.">
<polygon fill="none" stroke="black" points="516.5,-133 516.5,-153 689.5,-153 689.5,-133 516.5,-133"/>
<text text-anchor="middle" x="603" y="-140" font-family="FreeSans" font-size="10.00">Kitware.VTK.vtkSurfaceLICPainter</text>
</a>
</g>
<!-- Node1&#45;&gt;Node30 -->
<g id="edge58" class="edge"><title>Node1&#45;&gt;Node30</title>
<path fill="none" stroke="midnightblue" d="M417.568,-256.9C432.982,-230.969 464.184,-185.206 504,-162 510.199,-158.387 516.952,-155.444 523.923,-153.048"/>
<polygon fill="midnightblue" stroke="midnightblue" points="414.411,-255.367 412.448,-265.778 420.476,-258.864 414.411,-255.367"/>
</g>
<!-- Node2 -->
<g id="node2" class="node"><title>Node2</title>
<a xlink:href="class_kitware_1_1_v_t_k_1_1vtk_object.html" target="_top" xlink:title="vtkObject &#45; abstract base class for most VTK objects">
<polygon fill="none" stroke="black" points="248,-266 248,-286 310,-286 310,-266 248,-266"/>
<text text-anchor="middle" x="279" y="-273" font-family="FreeSans" font-size="10.00">vtkObject</text>
</a>
</g>
<!-- Node2&#45;&gt;Node1 -->
<g id="edge2" class="edge"><title>Node2&#45;&gt;Node1</title>
<path fill="none" stroke="midnightblue" d="M320.337,-276C328.53,-276 337.292,-276 345.98,-276"/>
<polygon fill="midnightblue" stroke="midnightblue" points="320.312,-272.5 310.312,-276 320.312,-279.5 320.312,-272.5"/>
</g>
<!-- Node3 -->
<g id="node4" class="node"><title>Node3</title>
<a xlink:href="class_kitware_1_1_v_t_k_1_1vtk_object_base.html" target="_top" xlink:title="vtkObjectBase &#45; abstract base class for most VTK objects">
<polygon fill="none" stroke="black" points="126,-266 126,-286 212,-286 212,-266 126,-266"/>
<text text-anchor="middle" x="169" y="-273" font-family="FreeSans" font-size="10.00">vtkObjectBase</text>
</a>
</g>
<!-- Node3&#45;&gt;Node2 -->
<g id="edge4" class="edge"><title>Node3&#45;&gt;Node2</title>
<path fill="none" stroke="midnightblue" d="M222.346,-276C231.091,-276 239.892,-276 247.863,-276"/>
<polygon fill="midnightblue" stroke="midnightblue" points="222.159,-272.5 212.159,-276 222.159,-279.5 222.159,-272.5"/>
</g>
<!-- Node4 -->
<g id="node6" class="node"><title>Node4</title>
<a xlink:href="class_kitware_1_1_v_t_k_1_1_wrapped_object.html" target="_top" xlink:title="Base class for all the mummy wrapped classes in Kitware.VTK.">
<polygon fill="none" stroke="black" points="0.5,-266 0.5,-286 89.5,-286 89.5,-266 0.5,-266"/>
<text text-anchor="middle" x="45" y="-273" font-family="FreeSans" font-size="10.00">WrappedObject</text>
</a>
</g>
<!-- Node4&#45;&gt;Node3 -->
<g id="edge6" class="edge"><title>Node4&#45;&gt;Node3</title>
<path fill="none" stroke="midnightblue" d="M99.8895,-276C108.623,-276 117.548,-276 125.957,-276"/>
<polygon fill="midnightblue" stroke="midnightblue" points="99.7669,-272.5 89.7668,-276 99.7668,-279.5 99.7669,-272.5"/>
</g>
<!-- Node6 -->
<g id="node11" class="node"><title>Node6</title>
<a xlink:href="class_kitware_1_1_v_t_k_1_1vtk_open_g_l_clip_planes_painter.html" target="_top" xlink:title="vtkOpenGLClipPlanesPainter &#45; painter that manages clipping">
<polygon fill="none" stroke="black" points="765.5,-399 765.5,-419 974.5,-419 974.5,-399 765.5,-399"/>
<text text-anchor="middle" x="870" y="-406" font-family="FreeSans" font-size="10.00">Kitware.VTK.vtkOpenGLClipPlanesPainter</text>
</a>
</g>
<!-- Node5&#45;&gt;Node6 -->
<g id="edge10" class="edge"><title>Node5&#45;&gt;Node6</title>
<path fill="none" stroke="midnightblue" d="M698.72,-402.585C720.307,-403.394 743.33,-404.256 765.265,-405.077"/>
<polygon fill="midnightblue" stroke="midnightblue" points="698.706,-399.082 688.582,-402.205 698.444,-406.077 698.706,-399.082"/>
</g>
<!-- Node9 -->
<g id="node17" class="node"><title>Node9</title>
<a xlink:href="class_kitware_1_1_v_t_k_1_1vtk_surface_l_i_c_default_painter.html" target="_top" xlink:title="vtkSurfaceLICDefaultPainter &#45; vtkDefaultPainter replacement that inserts the vtkSurfaceLICPainter at ...">
<polygon fill="none" stroke="black" points="766,-361 766,-381 974,-381 974,-361 766,-361"/>
<text text-anchor="middle" x="870" y="-368" font-family="FreeSans" font-size="10.00">Kitware.VTK.vtkSurfaceLICDefaultPainter</text>
</a>
</g>
<!-- Node8&#45;&gt;Node9 -->
<g id="edge16" class="edge"><title>Node8&#45;&gt;Node9</title>
<path fill="none" stroke="midnightblue" d="M679.498,-326.315C687.183,-328.255 694.801,-330.473 702,-333 719.07,-338.993 720.795,-346.407 738,-352 749.23,-355.65 761.224,-358.6 773.232,-360.984"/>
<polygon fill="midnightblue" stroke="midnightblue" points="680.291,-322.907 669.753,-324.004 678.676,-329.718 680.291,-322.907"/>
</g>
<!-- Node11 -->
<g id="node21" class="node"><title>Node11</title>
<a xlink:href="class_kitware_1_1_v_t_k_1_1vtk_open_g_l_display_list_painter.html" target="_top" xlink:title="vtkOpenGLDisplayListPainter &#45; display list painter using OpenGL.">
<polygon fill="none" stroke="black" points="764,-323 764,-343 976,-343 976,-323 764,-323"/>
<text text-anchor="middle" x="870" y="-330" font-family="FreeSans" font-size="10.00">Kitware.VTK.vtkOpenGLDisplayListPainter</text>
</a>
</g>
<!-- Node10&#45;&gt;Node11 -->
<g id="edge20" class="edge"><title>Node10&#45;&gt;Node11</title>
<path fill="none" stroke="midnightblue" d="M679.498,-288.315C687.183,-290.255 694.801,-292.473 702,-295 719.07,-300.993 720.795,-308.407 738,-314 749.23,-317.65 761.224,-320.6 773.232,-322.984"/>
<polygon fill="midnightblue" stroke="midnightblue" points="680.291,-284.907 669.753,-286.004 678.676,-291.718 680.291,-284.907"/>
</g>
<!-- Node13 -->
<g id="node25" class="node"><title>Node13</title>
<a xlink:href="class_kitware_1_1_v_t_k_1_1vtk_chooser_painter.html" target="_top" xlink:title="vtkChooserPainter &#45; Painter that selects painters to render primitives.">
<polygon fill="none" stroke="black" points="789,-285 789,-305 951,-305 951,-285 789,-285"/>
<text text-anchor="middle" x="870" y="-292" font-family="FreeSans" font-size="10.00">Kitware.VTK.vtkChooserPainter</text>
</a>
</g>
<!-- Node12&#45;&gt;Node13 -->
<g id="edge24" class="edge"><title>Node12&#45;&gt;Node13</title>
<path fill="none" stroke="midnightblue" d="M641.529,-232.574C660.03,-239.399 682.39,-248.1 702,-257 718.474,-264.477 720.795,-270.407 738,-276 754.074,-281.225 771.714,-285.015 788.72,-287.764"/>
<polygon fill="midnightblue" stroke="midnightblue" points="642.559,-229.224 631.965,-229.085 640.16,-235.8 642.559,-229.224"/>
</g>
<!-- Node14 -->
<g id="node27" class="node"><title>Node14</title>
<a xlink:href="class_kitware_1_1_v_t_k_1_1vtk_coincident_topology_resolution_painter.html" target="_top" xlink:title="vtkCoincidentTopologyResolutionPainter &#45; painter that resolves conicident topology.">
<polygon fill="none" stroke="black" points="738.5,-247 738.5,-267 1001.5,-267 1001.5,-247 738.5,-247"/>
<text text-anchor="middle" x="870" y="-254" font-family="FreeSans" font-size="10.00">Kitware.VTK.vtkCoincidentTopologyResolutionPainter</text>
</a>
</g>
<!-- Node12&#45;&gt;Node14 -->
<g id="edge26" class="edge"><title>Node12&#45;&gt;Node14</title>
<path fill="none" stroke="midnightblue" d="M683.732,-230.49C720.652,-235.744 763.99,-241.912 799.568,-246.976"/>
<polygon fill="midnightblue" stroke="midnightblue" points="683.894,-226.978 673.5,-229.034 682.907,-233.908 683.894,-226.978"/>
</g>
<!-- Node16 -->
<g id="node31" class="node"><title>Node16</title>
<a xlink:href="class_kitware_1_1_v_t_k_1_1vtk_ident_colored_painter.html" target="_top" xlink:title="vtkIdentColoredPainter &#45; DEPRECATED A vtkPolyDataPainter that colors each polygon with a color coded ...">
<polygon fill="none" stroke="black" points="778.5,-209 778.5,-229 961.5,-229 961.5,-209 778.5,-209"/>
<text text-anchor="middle" x="870" y="-216" font-family="FreeSans" font-size="10.00">Kitware.VTK.vtkIdentColoredPainter</text>
</a>
</g>
<!-- Node12&#45;&gt;Node16 -->
<g id="edge30" class="edge"><title>Node12&#45;&gt;Node16</title>
<path fill="none" stroke="midnightblue" d="M695.784,-219C722.556,-219 751.744,-219 778.441,-219"/>
<polygon fill="midnightblue" stroke="midnightblue" points="695.652,-215.5 685.652,-219 695.652,-222.5 695.652,-215.5"/>
</g>
<!-- Node17 -->
<g id="node33" class="node"><title>Node17</title>
<a xlink:href="class_kitware_1_1_v_t_k_1_1vtk_lighting_painter.html" target="_top" xlink:title="vtkLightingPainter &#45; abstract class defining interface for painter that can handle lightin...">
<polygon fill="none" stroke="black" points="790,-171 790,-191 950,-191 950,-171 790,-171"/>
<text text-anchor="middle" x="870" y="-178" font-family="FreeSans" font-size="10.00">Kitware.VTK.vtkLightingPainter</text>
</a>
</g>
<!-- Node12&#45;&gt;Node17 -->
<g id="edge32" class="edge"><title>Node12&#45;&gt;Node17</title>
<path fill="none" stroke="midnightblue" d="M683.732,-207.51C720.652,-202.256 763.99,-196.088 799.568,-191.024"/>
<polygon fill="midnightblue" stroke="midnightblue" points="682.907,-204.092 673.5,-208.966 683.894,-211.022 682.907,-204.092"/>
</g>
<!-- Node19 -->
<g id="node37" class="node"><title>Node19</title>
<a xlink:href="class_kitware_1_1_v_t_k_1_1vtk_primitive_painter.html" target="_top" xlink:title="vtkPrimitivePainter &#45; superclass for class that handle single privmitives.">
<polygon fill="none" stroke="black" points="788,-133 788,-153 952,-153 952,-133 788,-133"/>
<text text-anchor="middle" x="870" y="-140" font-family="FreeSans" font-size="10.00">Kitware.VTK.vtkPrimitivePainter</text>
</a>
</g>
<!-- Node12&#45;&gt;Node19 -->
<g id="edge36" class="edge"><title>Node12&#45;&gt;Node19</title>
<path fill="none" stroke="midnightblue" d="M690.383,-205.478C694.392,-203.852 698.287,-202.033 702,-200 722.405,-188.826 717.34,-172.695 738,-162 753.215,-154.123 770.664,-149.213 787.783,-146.212"/>
<polygon fill="midnightblue" stroke="midnightblue" points="689.058,-202.235 680.851,-208.935 691.445,-208.816 689.058,-202.235"/>
</g>
<!-- Node24 -->
<g id="node47" class="node"><title>Node24</title>
<a xlink:href="class_kitware_1_1_v_t_k_1_1vtk_representation_painter.html" target="_top" xlink:title="vtkRepresentationPainter &#45; painter that handles representation.">
<polygon fill="none" stroke="black" points="773,-95 773,-115 967,-115 967,-95 773,-95"/>
<text text-anchor="middle" x="870" y="-102" font-family="FreeSans" font-size="10.00">Kitware.VTK.vtkRepresentationPainter</text>
</a>
</g>
<!-- Node12&#45;&gt;Node24 -->
<g id="edge46" class="edge"><title>Node12&#45;&gt;Node24</title>
<path fill="none" stroke="midnightblue" d="M694.655,-204.97C697.208,-203.461 699.665,-201.808 702,-200 731.549,-177.113 707.925,-146.191 738,-124 748.34,-116.371 760.4,-111.156 772.95,-107.668"/>
<polygon fill="midnightblue" stroke="midnightblue" points="692.958,-201.907 685.641,-209.569 696.14,-208.142 692.958,-201.907"/>
</g>
<!-- Node26 -->
<g id="node51" class="node"><title>Node26</title>
<a xlink:href="class_kitware_1_1_v_t_k_1_1vtk_standard_poly_data_painter.html" target="_top" xlink:title="vtkStandardPolyDataPainter &#45; A standard implementation of vtkPolyDataPainter.">
<polygon fill="none" stroke="black" points="765.5,-57 765.5,-77 974.5,-77 974.5,-57 765.5,-57"/>
<text text-anchor="middle" x="870" y="-64" font-family="FreeSans" font-size="10.00">Kitware.VTK.vtkStandardPolyDataPainter</text>
</a>
</g>
<!-- Node12&#45;&gt;Node26 -->
<g id="edge50" class="edge"><title>Node12&#45;&gt;Node26</title>
<path fill="none" stroke="midnightblue" d="M694.533,-205.677C697.157,-203.972 699.657,-202.085 702,-200 741.69,-164.676 697.497,-120.389 738,-86 746.03,-79.1818 755.376,-74.187 765.316,-70.5829"/>
<polygon fill="midnightblue" stroke="midnightblue" points="692.826,-202.621 685.774,-210.528 696.218,-208.745 692.826,-202.621"/>
</g>
<!-- Node15 -->
<g id="node29" class="node"><title>Node15</title>
<a xlink:href="class_kitware_1_1_v_t_k_1_1vtk_open_g_l_coincident_topology_resolution_painter.html" target="_top" xlink:title="vtkOpenGLCoincidentTopologyResolutionPainter">
<polygon fill="none" stroke="black" points="1038.5,-266 1038.5,-286 1339.5,-286 1339.5,-266 1038.5,-266"/>
<text text-anchor="middle" x="1189" y="-273" font-family="FreeSans" font-size="10.00">Kitware.VTK.vtkOpenGLCoincidentTopologyResolutionPainter</text>
</a>
</g>
<!-- Node14&#45;&gt;Node15 -->
<g id="edge28" class="edge"><title>Node14&#45;&gt;Node15</title>
<path fill="none" stroke="midnightblue" d="M1011.85,-265.449C1020.62,-265.971 1029.46,-266.497 1038.26,-267.022"/>
<polygon fill="midnightblue" stroke="midnightblue" points="1011.78,-261.939 1001.59,-264.838 1011.37,-268.926 1011.78,-261.939"/>
</g>
<!-- Node18 -->
<g id="node35" class="node"><title>Node18</title>
<a xlink:href="class_kitware_1_1_v_t_k_1_1vtk_open_g_l_lighting_painter.html" target="_top" xlink:title="vtkOpenGLLightingPainter &#45; painter that manages lighting.">
<polygon fill="none" stroke="black" points="1090,-228 1090,-248 1288,-248 1288,-228 1090,-228"/>
<text text-anchor="middle" x="1189" y="-235" font-family="FreeSans" font-size="10.00">Kitware.VTK.vtkOpenGLLightingPainter</text>
</a>
</g>
<!-- Node17&#45;&gt;Node18 -->
<g id="edge34" class="edge"><title>Node17&#45;&gt;Node18</title>
<path fill="none" stroke="midnightblue" d="M960.449,-189.813C974.543,-192.386 988.8,-195.709 1002,-200 1019.21,-205.593 1020.75,-213.56 1038,-219 1054.38,-224.164 1072.18,-227.93 1089.61,-230.676"/>
<polygon fill="midnightblue" stroke="midnightblue" points="960.679,-186.301 950.233,-188.068 959.501,-193.201 960.679,-186.301"/>
</g>
<!-- Node20 -->
<g id="node39" class="node"><title>Node20</title>
<a xlink:href="class_kitware_1_1_v_t_k_1_1vtk_lines_painter.html" target="_top" xlink:title="vtkLinesPainter &#45; painter that paints lines.">
<polygon fill="none" stroke="black" points="1115.5,-190 1115.5,-210 1262.5,-210 1262.5,-190 1115.5,-190"/>
<text text-anchor="middle" x="1189" y="-197" font-family="FreeSans" font-size="10.00">Kitware.VTK.vtkLinesPainter</text>
</a>
</g>
<!-- Node19&#45;&gt;Node20 -->
<g id="edge38" class="edge"><title>Node19&#45;&gt;Node20</title>
<path fill="none" stroke="midnightblue" d="M962.547,-152.201C975.955,-154.718 989.454,-157.922 1002,-162 1019.21,-167.593 1020.75,-175.56 1038,-181 1062.57,-188.746 1090.33,-193.347 1115.28,-196.076"/>
<polygon fill="midnightblue" stroke="midnightblue" points="962.784,-148.689 952.329,-150.407 961.573,-155.584 962.784,-148.689"/>
</g>
<!-- Node21 -->
<g id="node41" class="node"><title>Node21</title>
<a xlink:href="class_kitware_1_1_v_t_k_1_1vtk_points_painter.html" target="_top" xlink:title="vtkPointsPainter &#45; this painter paints verts.">
<polygon fill="none" stroke="black" points="1113,-152 1113,-172 1265,-172 1265,-152 1113,-152"/>
<text text-anchor="middle" x="1189" y="-159" font-family="FreeSans" font-size="10.00">Kitware.VTK.vtkPointsPainter</text>
</a>
</g>
<!-- Node19&#45;&gt;Node21 -->
<g id="edge40" class="edge"><title>Node19&#45;&gt;Node21</title>
<path fill="none" stroke="midnightblue" d="M962.191,-148.491C1009.98,-151.338 1067.65,-154.772 1112.88,-157.466"/>
<polygon fill="midnightblue" stroke="midnightblue" points="962.341,-144.994 952.15,-147.893 961.925,-151.981 962.341,-144.994"/>
</g>
<!-- Node22 -->
<g id="node43" class="node"><title>Node22</title>
<a xlink:href="class_kitware_1_1_v_t_k_1_1vtk_polygons_painter.html" target="_top" xlink:title="vtkPolygonsPainter &#45; this painter paints polygons.">
<polygon fill="none" stroke="black" points="1106.5,-114 1106.5,-134 1271.5,-134 1271.5,-114 1106.5,-114"/>
<text text-anchor="middle" x="1189" y="-121" font-family="FreeSans" font-size="10.00">Kitware.VTK.vtkPolygonsPainter</text>
</a>
</g>
<!-- Node19&#45;&gt;Node22 -->
<g id="edge42" class="edge"><title>Node19&#45;&gt;Node22</title>
<path fill="none" stroke="midnightblue" d="M962.308,-137.502C1007.79,-134.793 1062.19,-131.553 1106.3,-128.926"/>
<polygon fill="midnightblue" stroke="midnightblue" points="961.925,-134.019 952.15,-138.107 962.341,-141.006 961.925,-134.019"/>
</g>
<!-- Node23 -->
<g id="node45" class="node"><title>Node23</title>
<a xlink:href="class_kitware_1_1_v_t_k_1_1vtk_t_strips_painter.html" target="_top" xlink:title="vtkTStripsPainter &#45; painter for triangle strips.">
<polygon fill="none" stroke="black" points="1111.5,-76 1111.5,-96 1266.5,-96 1266.5,-76 1111.5,-76"/>
<text text-anchor="middle" x="1189" y="-83" font-family="FreeSans" font-size="10.00">Kitware.VTK.vtkTStripsPainter</text>
</a>
</g>
<!-- Node19&#45;&gt;Node23 -->
<g id="edge44" class="edge"><title>Node19&#45;&gt;Node23</title>
<path fill="none" stroke="midnightblue" d="M962.547,-133.799C975.955,-131.282 989.454,-128.078 1002,-124 1019.21,-118.407 1020.75,-110.44 1038,-105 1061.31,-97.6515 1087.49,-93.1328 1111.42,-90.3584"/>
<polygon fill="midnightblue" stroke="midnightblue" points="961.573,-130.416 952.329,-135.593 962.784,-137.311 961.573,-130.416"/>
</g>
<!-- Node25 -->
<g id="node49" class="node"><title>Node25</title>
<a xlink:href="class_kitware_1_1_v_t_k_1_1vtk_open_g_l_representation_painter.html" target="_top" xlink:title="vtkOpenGLRepresentationPainter &#45; painter handling representation using OpenGL.">
<polygon fill="none" stroke="black" points="1072.5,-38 1072.5,-58 1305.5,-58 1305.5,-38 1072.5,-38"/>
<text text-anchor="middle" x="1189" y="-45" font-family="FreeSans" font-size="10.00">Kitware.VTK.vtkOpenGLRepresentationPainter</text>
</a>
</g>
<!-- Node24&#45;&gt;Node25 -->
<g id="edge48" class="edge"><title>Node24&#45;&gt;Node25</title>
<path fill="none" stroke="midnightblue" d="M976.6,-92.8989C985.278,-90.9347 993.841,-88.6522 1002,-86 1019.21,-80.4071 1020.75,-72.4396 1038,-67 1049.59,-63.3456 1061.89,-60.3911 1074.27,-58.0028"/>
<polygon fill="midnightblue" stroke="midnightblue" points="975.824,-89.4855 966.768,-94.9841 977.277,-96.3332 975.824,-89.4855"/>
</g>
<!-- Node27 -->
<g id="node53" class="node"><title>Node27</title>
<a xlink:href="class_kitware_1_1_v_t_k_1_1vtk_hardware_selection_poly_data_painter.html" target="_top" xlink:title="vtkHardwareSelectionPolyDataPainter &#45; painter used to render polydata for selection passes...">
<polygon fill="none" stroke="black" points="1061.5,-0 1061.5,-20 1316.5,-20 1316.5,-0 1061.5,-0"/>
<text text-anchor="middle" x="1189" y="-7" font-family="FreeSans" font-size="10.00">Kitware.VTK.vtkHardwareSelectionPolyDataPainter</text>
</a>
</g>
<!-- Node26&#45;&gt;Node27 -->
<g id="edge52" class="edge"><title>Node26&#45;&gt;Node27</title>
<path fill="none" stroke="midnightblue" d="M976.6,-54.8989C985.278,-52.9347 993.841,-50.6522 1002,-48 1019.21,-42.4071 1020.75,-34.4396 1038,-29 1049.59,-25.3456 1061.89,-22.3911 1074.27,-20.0028"/>
<polygon fill="midnightblue" stroke="midnightblue" points="975.824,-51.4855 966.768,-56.9841 977.277,-58.3332 975.824,-51.4855"/>
</g>
<!-- Node29 -->
<g id="node57" class="node"><title>Node29</title>
<a xlink:href="class_kitware_1_1_v_t_k_1_1vtk_open_g_l_scalars_to_colors_painter.html" target="_top" xlink:title="vtkOpenGLScalarsToColorsPainter &#45; implementation of vtkScalarsToColorsPainter for OpenGL...">
<polygon fill="none" stroke="black" points="752,-19 752,-39 988,-39 988,-19 752,-19"/>
<text text-anchor="middle" x="870" y="-26" font-family="FreeSans" font-size="10.00">Kitware.VTK.vtkOpenGLScalarsToColorsPainter</text>
</a>
</g>
<!-- Node28&#45;&gt;Node29 -->
<g id="edge56" class="edge"><title>Node28&#45;&gt;Node29</title>
<path fill="none" stroke="midnightblue" d="M697.806,-165.406C699.252,-164.334 700.652,-163.2 702,-162 741.69,-126.676 697.497,-82.3889 738,-48 742.236,-44.4036 746.838,-41.3145 751.7,-38.6692"/>
<polygon fill="midnightblue" stroke="midnightblue" points="695.683,-162.605 689.07,-170.883 699.402,-168.536 695.683,-162.605"/>
</g>
</g>
</svg>
