<?xml version="1.0" encoding="UTF-8" standalone="no"?>
<!DOCTYPE svg PUBLIC "-//W3C//DTD SVG 1.1//EN"
 "http://www.w3.org/Graphics/SVG/1.1/DTD/svg11.dtd">
<!-- Generated by graphviz version 2.26.3 (20100126.1600)
 -->
<!-- Title: G Pages: 1 -->
<svg width="414pt" height="830pt"
 viewBox="0.00 0.00 414.46 830.00" xmlns="http://www.w3.org/2000/svg" xmlns:xlink="http://www.w3.org/1999/xlink">
<g id="graph1" class="graph" transform="scale(1 1) rotate(0) translate(4 826)">
<title>G</title>
<!-- Node1 -->
<g id="node1" class="node"><title>Node1</title>
<polygon fill="#bfbfbf" stroke="black" points="5,-1 5,-21 151,-21 151,-1 5,-1"/>
<text text-anchor="middle" x="78" y="-8" font-family="FreeSans" font-size="10.00">Kitware.VTK.vtkPProbeFilter</text>
</g>
<!-- Node2 -->
<g id="node2" class="node"><title>Node2</title>
<a xlink:href="class_kitware_1_1_v_t_k_1_1vtk_composite_data_probe_filter.html" target="_top" xlink:title="vtkCompositeDataProbeFilter &#45; subclass of vtkProbeFilter which supports composite datasets in the inp...">
<polygon fill="none" stroke="black" points="0,-61 0,-81 156,-81 156,-61 0,-61"/>
<text text-anchor="middle" x="78" y="-68" font-family="FreeSans" font-size="10.00">vtkCompositeDataProbeFilter</text>
</a>
</g>
<!-- Node2&#45;&gt;Node1 -->
<g id="edge2" class="edge"><title>Node2&#45;&gt;Node1</title>
<path fill="none" stroke="midnightblue" d="M78,-50.5155C78,-40.562 78,-29.0495 78,-21.0279"/>
<polygon fill="midnightblue" stroke="midnightblue" points="74.5001,-50.8218 78,-60.8218 81.5001,-50.8219 74.5001,-50.8218"/>
</g>
<!-- Node3 -->
<g id="node4" class="node"><title>Node3</title>
<a xlink:href="class_kitware_1_1_v_t_k_1_1vtk_probe_filter.html" target="_top" xlink:title="vtkProbeFilter &#45; sample data values at specified point locations">
<polygon fill="none" stroke="black" points="37.5,-121 37.5,-141 118.5,-141 118.5,-121 37.5,-121"/>
<text text-anchor="middle" x="78" y="-128" font-family="FreeSans" font-size="10.00">vtkProbeFilter</text>
</a>
</g>
<!-- Node3&#45;&gt;Node2 -->
<g id="edge4" class="edge"><title>Node3&#45;&gt;Node2</title>
<path fill="none" stroke="midnightblue" d="M78,-110.516C78,-100.562 78,-89.0495 78,-81.0279"/>
<polygon fill="midnightblue" stroke="midnightblue" points="74.5001,-110.822 78,-120.822 81.5001,-110.822 74.5001,-110.822"/>
</g>
<!-- Node4 -->
<g id="node6" class="node"><title>Node4</title>
<a xlink:href="class_kitware_1_1_v_t_k_1_1vtk_data_set_algorithm.html" target="_top" xlink:title="vtkDataSetAlgorithm &#45; Superclass for algorithms that produce output of the same type as input...">
<polygon fill="none" stroke="black" points="19.5,-181 19.5,-201 136.5,-201 136.5,-181 19.5,-181"/>
<text text-anchor="middle" x="78" y="-188" font-family="FreeSans" font-size="10.00">vtkDataSetAlgorithm</text>
</a>
</g>
<!-- Node4&#45;&gt;Node3 -->
<g id="edge6" class="edge"><title>Node4&#45;&gt;Node3</title>
<path fill="none" stroke="midnightblue" d="M78,-170.516C78,-160.562 78,-149.05 78,-141.028"/>
<polygon fill="midnightblue" stroke="midnightblue" points="74.5001,-170.822 78,-180.822 81.5001,-170.822 74.5001,-170.822"/>
</g>
<!-- Node5 -->
<g id="node8" class="node"><title>Node5</title>
<a xlink:href="class_kitware_1_1_v_t_k_1_1vtk_algorithm.html" target="_top" xlink:title="vtkAlgorithm &#45; Superclass for all sources, filters, and sinks in VTK.">
<polygon fill="none" stroke="black" points="39.5,-241 39.5,-261 116.5,-261 116.5,-241 39.5,-241"/>
<text text-anchor="middle" x="78" y="-248" font-family="FreeSans" font-size="10.00">vtkAlgorithm</text>
</a>
</g>
<!-- Node5&#45;&gt;Node4 -->
<g id="edge8" class="edge"><title>Node5&#45;&gt;Node4</title>
<path fill="none" stroke="midnightblue" d="M78,-230.516C78,-220.562 78,-209.05 78,-201.028"/>
<polygon fill="midnightblue" stroke="midnightblue" points="74.5001,-230.822 78,-240.822 81.5001,-230.822 74.5001,-230.822"/>
</g>
<!-- Node6 -->
<g id="node10" class="node"><title>Node6</title>
<a xlink:href="class_kitware_1_1_v_t_k_1_1vtk_object.html" target="_top" xlink:title="vtkObject &#45; abstract base class for most VTK objects">
<polygon fill="none" stroke="black" points="47,-301 47,-321 109,-321 109,-301 47,-301"/>
<text text-anchor="middle" x="78" y="-308" font-family="FreeSans" font-size="10.00">vtkObject</text>
</a>
</g>
<!-- Node6&#45;&gt;Node5 -->
<g id="edge10" class="edge"><title>Node6&#45;&gt;Node5</title>
<path fill="none" stroke="midnightblue" d="M78,-290.516C78,-280.562 78,-269.05 78,-261.028"/>
<polygon fill="midnightblue" stroke="midnightblue" points="74.5001,-290.822 78,-300.822 81.5001,-290.822 74.5001,-290.822"/>
</g>
<!-- Node7 -->
<g id="node12" class="node"><title>Node7</title>
<a xlink:href="class_kitware_1_1_v_t_k_1_1vtk_object_base.html" target="_top" xlink:title="vtkObjectBase &#45; abstract base class for most VTK objects">
<polygon fill="none" stroke="black" points="98,-741 98,-761 184,-761 184,-741 98,-741"/>
<text text-anchor="middle" x="141" y="-748" font-family="FreeSans" font-size="10.00">vtkObjectBase</text>
</a>
</g>
<!-- Node7&#45;&gt;Node6 -->
<g id="edge12" class="edge"><title>Node7&#45;&gt;Node6</title>
<path fill="none" stroke="midnightblue" d="M112.423,-735.886C98.6866,-727.44 82.8844,-715.826 72,-702 60.1564,-686.955 59.6209,-680.802 56,-662 30.4248,-529.199 65.5766,-363.437 75.5155,-321.17"/>
<polygon fill="midnightblue" stroke="midnightblue" points="110.683,-738.923 121.079,-740.97 114.229,-732.887 110.683,-738.923"/>
</g>
<!-- Node10 -->
<g id="node19" class="node"><title>Node10</title>
<a xlink:href="class_kitware_1_1_v_t_k_1_1vtk_object.html" target="_top" xlink:title="vtkObject &#45; abstract base class for most VTK objects">
<polygon fill="none" stroke="black" points="81,-681 81,-701 201,-701 201,-681 81,-681"/>
<text text-anchor="middle" x="141" y="-688" font-family="FreeSans" font-size="10.00">Kitware.VTK.vtkObject</text>
</a>
</g>
<!-- Node7&#45;&gt;Node10 -->
<g id="edge22" class="edge"><title>Node7&#45;&gt;Node10</title>
<path fill="none" stroke="midnightblue" d="M141,-730.516C141,-720.562 141,-709.05 141,-701.028"/>
<polygon fill="midnightblue" stroke="midnightblue" points="137.5,-730.822 141,-740.822 144.5,-730.822 137.5,-730.822"/>
</g>
<!-- Node8 -->
<g id="node14" class="node"><title>Node8</title>
<a xlink:href="class_kitware_1_1_v_t_k_1_1_wrapped_object.html" target="_top" xlink:title="Base class for all the mummy wrapped classes in Kitware.VTK.">
<polygon fill="none" stroke="black" points="279.5,-801 279.5,-821 368.5,-821 368.5,-801 279.5,-801"/>
<text text-anchor="middle" x="324" y="-808" font-family="FreeSans" font-size="10.00">WrappedObject</text>
</a>
</g>
<!-- Node8&#45;&gt;Node7 -->
<g id="edge14" class="edge"><title>Node8&#45;&gt;Node7</title>
<path fill="none" stroke="midnightblue" d="M283.804,-797.821C250.042,-786.752 202.512,-771.168 171.73,-761.075"/>
<polygon fill="midnightblue" stroke="midnightblue" points="282.777,-801.168 293.37,-800.957 284.958,-794.516 282.777,-801.168"/>
</g>
<!-- Node9 -->
<g id="node16" class="node"><title>Node9</title>
<a xlink:href="class_kitware_1_1_v_t_k_1_1vtk_object_event_relay.html" target="_top" xlink:title="Implement a relay handler for VTK events. This is a class that receives events directly from the VTK ...">
<polygon fill="none" stroke="black" points="70,-491 70,-511 242,-511 242,-491 70,-491"/>
<text text-anchor="middle" x="156" y="-498" font-family="FreeSans" font-size="10.00">Kitware.VTK.vtkObjectEventRelay</text>
</a>
</g>
<!-- Node8&#45;&gt;Node9 -->
<g id="edge18" class="edge"><title>Node8&#45;&gt;Node9</title>
<path fill="none" stroke="midnightblue" d="M336.888,-792.325C369.276,-742.899 446.803,-607.191 379,-530 369.773,-519.495 301.047,-511.666 242.298,-506.808"/>
<polygon fill="midnightblue" stroke="midnightblue" points="333.891,-790.509 331.239,-800.767 339.709,-794.402 333.891,-790.509"/>
</g>
<!-- Node9&#45;&gt;Node6 -->
<g id="edge16" class="edge"><title>Node9&#45;&gt;Node6</title>
<path fill="none" stroke="#9a32cd" stroke-dasharray="5,2" d="M147.921,-481.321C131.489,-441.293 94.6738,-351.616 82.2144,-321.266"/>
<polygon fill="#9a32cd" stroke="#9a32cd" points="144.771,-482.863 151.806,-490.785 151.246,-480.205 144.771,-482.863"/>
<text text-anchor="middle" x="255.5" y="-463" font-family="FreeSans" font-size="10.00"> LeftButtonReleaseEvtRelay</text>
<text text-anchor="middle" x="255.5" y="-451" font-family="FreeSans" font-size="10.00">KeyPressEvtRelay</text>
<text text-anchor="middle" x="255.5" y="-439" font-family="FreeSans" font-size="10.00">DomainModifiedEvtRelay</text>
<text text-anchor="middle" x="255.5" y="-427" font-family="FreeSans" font-size="10.00">VolumeMapperComputeGradientsStartEvtRelay</text>
<text text-anchor="middle" x="255.5" y="-415" font-family="FreeSans" font-size="10.00">ErrorEvtRelay</text>
<text text-anchor="middle" x="255.5" y="-403" font-family="FreeSans" font-size="10.00">VolumeMapperRenderStartEvtRelay</text>
<text text-anchor="middle" x="255.5" y="-391" font-family="FreeSans" font-size="10.00">StartEvtRelay</text>
<text text-anchor="middle" x="255.5" y="-379" font-family="FreeSans" font-size="10.00">ResetCameraEvtRelay</text>
<text text-anchor="middle" x="255.5" y="-367" font-family="FreeSans" font-size="10.00">EnableEvtRelay</text>
<text text-anchor="middle" x="255.5" y="-355" font-family="FreeSans" font-size="10.00">DeleteEvtRelay</text>
<text text-anchor="middle" x="255.5" y="-343" font-family="FreeSans" font-size="10.00">...</text>
</g>
<!-- Node9&#45;&gt;Node10 -->
<g id="edge24" class="edge"><title>Node9&#45;&gt;Node10</title>
<path fill="none" stroke="#9a32cd" stroke-dasharray="5,2" d="M153.028,-521.231C152.649,-524.169 152.293,-527.159 152,-530 146.144,-586.853 142.636,-655.333 141.452,-680.807"/>
<polygon fill="#9a32cd" stroke="#9a32cd" points="156.515,-521.565 154.421,-511.179 149.582,-520.604 156.515,-521.565"/>
<text text-anchor="middle" x="265.5" y="-653" font-family="FreeSans" font-size="10.00"> LeftButtonReleaseEvtRelay</text>
<text text-anchor="middle" x="265.5" y="-641" font-family="FreeSans" font-size="10.00">KeyPressEvtRelay</text>
<text text-anchor="middle" x="265.5" y="-629" font-family="FreeSans" font-size="10.00">DomainModifiedEvtRelay</text>
<text text-anchor="middle" x="265.5" y="-617" font-family="FreeSans" font-size="10.00">VolumeMapperComputeGradientsStartEvtRelay</text>
<text text-anchor="middle" x="265.5" y="-605" font-family="FreeSans" font-size="10.00">ErrorEvtRelay</text>
<text text-anchor="middle" x="265.5" y="-593" font-family="FreeSans" font-size="10.00">VolumeMapperRenderStartEvtRelay</text>
<text text-anchor="middle" x="265.5" y="-581" font-family="FreeSans" font-size="10.00">StartEvtRelay</text>
<text text-anchor="middle" x="265.5" y="-569" font-family="FreeSans" font-size="10.00">ResetCameraEvtRelay</text>
<text text-anchor="middle" x="265.5" y="-557" font-family="FreeSans" font-size="10.00">EnableEvtRelay</text>
<text text-anchor="middle" x="265.5" y="-545" font-family="FreeSans" font-size="10.00">DeleteEvtRelay</text>
<text text-anchor="middle" x="265.5" y="-533" font-family="FreeSans" font-size="10.00">...</text>
</g>
<!-- Node10&#45;&gt;Node9 -->
<g id="edge20" class="edge"><title>Node10&#45;&gt;Node9</title>
<path fill="none" stroke="#9a32cd" stroke-dasharray="5,2" d="M94.9794,-675.818C89.4393,-672.138 84.5104,-667.596 81,-662 49.8229,-612.303 47.8299,-578.389 81,-530 85.7359,-523.091 102.511,-516.287 118.999,-511.008"/>
<polygon fill="#9a32cd" stroke="#9a32cd" points="93.6386,-679.079 104.072,-680.919 97.0636,-672.974 93.6386,-679.079"/>
<text text-anchor="middle" x="105" y="-599" font-family="FreeSans" font-size="10.00"> Sender</text>
<text text-anchor="middle" x="105" y="-587" font-family="FreeSans" font-size="10.00">EventImpl</text>
</g>
</g>
</svg>
