<?xml version="1.0" encoding="UTF-8" standalone="no"?>
<!DOCTYPE svg PUBLIC "-//W3C//DTD SVG 1.1//EN"
 "http://www.w3.org/Graphics/SVG/1.1/DTD/svg11.dtd">
<!-- Generated by graphviz version 2.26.3 (20100126.1600)
 -->
<!-- Title: G Pages: 1 -->
<svg width="430pt" height="650pt"
 viewBox="0.00 0.00 430.46 650.00" xmlns="http://www.w3.org/2000/svg" xmlns:xlink="http://www.w3.org/1999/xlink">
<g id="graph1" class="graph" transform="scale(1 1) rotate(0) translate(4 646)">
<title>G</title>
<!-- Node1 -->
<g id="node1" class="node"><title>Node1</title>
<polygon fill="#bfbfbf" stroke="black" points="0,-1 0,-21 188,-21 188,-1 0,-1"/>
<text text-anchor="middle" x="94" y="-8" font-family="FreeSans" font-size="10.00">Kitware.VTK.vtkCellCenterDepthSort</text>
</g>
<!-- Node2 -->
<g id="node2" class="node"><title>Node2</title>
<a xlink:href="class_kitware_1_1_v_t_k_1_1vtk_visibility_sort.html" target="_top" xlink:title="vtkVisibilitySort &#45; Abstract class that can sort cell data along a viewpoint.">
<polygon fill="none" stroke="black" points="49.5,-61 49.5,-81 138.5,-81 138.5,-61 49.5,-61"/>
<text text-anchor="middle" x="94" y="-68" font-family="FreeSans" font-size="10.00">vtkVisibilitySort</text>
</a>
</g>
<!-- Node2&#45;&gt;Node1 -->
<g id="edge2" class="edge"><title>Node2&#45;&gt;Node1</title>
<path fill="none" stroke="midnightblue" d="M94,-50.5155C94,-40.562 94,-29.0495 94,-21.0279"/>
<polygon fill="midnightblue" stroke="midnightblue" points="90.5001,-50.8218 94,-60.8218 97.5001,-50.8219 90.5001,-50.8218"/>
</g>
<!-- Node3 -->
<g id="node4" class="node"><title>Node3</title>
<a xlink:href="class_kitware_1_1_v_t_k_1_1vtk_object.html" target="_top" xlink:title="vtkObject &#45; abstract base class for most VTK objects">
<polygon fill="none" stroke="black" points="63,-121 63,-141 125,-141 125,-121 63,-121"/>
<text text-anchor="middle" x="94" y="-128" font-family="FreeSans" font-size="10.00">vtkObject</text>
</a>
</g>
<!-- Node3&#45;&gt;Node2 -->
<g id="edge4" class="edge"><title>Node3&#45;&gt;Node2</title>
<path fill="none" stroke="midnightblue" d="M94,-110.516C94,-100.562 94,-89.0495 94,-81.0279"/>
<polygon fill="midnightblue" stroke="midnightblue" points="90.5001,-110.822 94,-120.822 97.5001,-110.822 90.5001,-110.822"/>
</g>
<!-- Node4 -->
<g id="node6" class="node"><title>Node4</title>
<a xlink:href="class_kitware_1_1_v_t_k_1_1vtk_object_base.html" target="_top" xlink:title="vtkObjectBase &#45; abstract base class for most VTK objects">
<polygon fill="none" stroke="black" points="114,-561 114,-581 200,-581 200,-561 114,-561"/>
<text text-anchor="middle" x="157" y="-568" font-family="FreeSans" font-size="10.00">vtkObjectBase</text>
</a>
</g>
<!-- Node4&#45;&gt;Node3 -->
<g id="edge6" class="edge"><title>Node4&#45;&gt;Node3</title>
<path fill="none" stroke="midnightblue" d="M128.423,-555.886C114.687,-547.44 98.8844,-535.826 88,-522 76.1564,-506.955 75.6209,-500.802 72,-482 46.4248,-349.199 81.5766,-183.437 91.5155,-141.17"/>
<polygon fill="midnightblue" stroke="midnightblue" points="126.683,-558.923 137.079,-560.97 130.229,-552.887 126.683,-558.923"/>
</g>
<!-- Node7 -->
<g id="node13" class="node"><title>Node7</title>
<a xlink:href="class_kitware_1_1_v_t_k_1_1vtk_object.html" target="_top" xlink:title="vtkObject &#45; abstract base class for most VTK objects">
<polygon fill="none" stroke="black" points="97,-501 97,-521 217,-521 217,-501 97,-501"/>
<text text-anchor="middle" x="157" y="-508" font-family="FreeSans" font-size="10.00">Kitware.VTK.vtkObject</text>
</a>
</g>
<!-- Node4&#45;&gt;Node7 -->
<g id="edge16" class="edge"><title>Node4&#45;&gt;Node7</title>
<path fill="none" stroke="midnightblue" d="M157,-550.516C157,-540.562 157,-529.05 157,-521.028"/>
<polygon fill="midnightblue" stroke="midnightblue" points="153.5,-550.822 157,-560.822 160.5,-550.822 153.5,-550.822"/>
</g>
<!-- Node5 -->
<g id="node8" class="node"><title>Node5</title>
<a xlink:href="class_kitware_1_1_v_t_k_1_1_wrapped_object.html" target="_top" xlink:title="Base class for all the mummy wrapped classes in Kitware.VTK.">
<polygon fill="none" stroke="black" points="295.5,-621 295.5,-641 384.5,-641 384.5,-621 295.5,-621"/>
<text text-anchor="middle" x="340" y="-628" font-family="FreeSans" font-size="10.00">WrappedObject</text>
</a>
</g>
<!-- Node5&#45;&gt;Node4 -->
<g id="edge8" class="edge"><title>Node5&#45;&gt;Node4</title>
<path fill="none" stroke="midnightblue" d="M299.804,-617.821C266.042,-606.752 218.512,-591.168 187.73,-581.075"/>
<polygon fill="midnightblue" stroke="midnightblue" points="298.777,-621.168 309.37,-620.957 300.958,-614.516 298.777,-621.168"/>
</g>
<!-- Node6 -->
<g id="node10" class="node"><title>Node6</title>
<a xlink:href="class_kitware_1_1_v_t_k_1_1vtk_object_event_relay.html" target="_top" xlink:title="Implement a relay handler for VTK events. This is a class that receives events directly from the VTK ...">
<polygon fill="none" stroke="black" points="86,-311 86,-331 258,-331 258,-311 86,-311"/>
<text text-anchor="middle" x="172" y="-318" font-family="FreeSans" font-size="10.00">Kitware.VTK.vtkObjectEventRelay</text>
</a>
</g>
<!-- Node5&#45;&gt;Node6 -->
<g id="edge12" class="edge"><title>Node5&#45;&gt;Node6</title>
<path fill="none" stroke="midnightblue" d="M352.888,-612.325C385.276,-562.899 462.803,-427.191 395,-350 385.773,-339.495 317.047,-331.666 258.298,-326.808"/>
<polygon fill="midnightblue" stroke="midnightblue" points="349.891,-610.509 347.239,-620.767 355.709,-614.402 349.891,-610.509"/>
</g>
<!-- Node6&#45;&gt;Node3 -->
<g id="edge10" class="edge"><title>Node6&#45;&gt;Node3</title>
<path fill="none" stroke="#9a32cd" stroke-dasharray="5,2" d="M163.921,-301.321C147.489,-261.293 110.674,-171.616 98.2144,-141.266"/>
<polygon fill="#9a32cd" stroke="#9a32cd" points="160.771,-302.863 167.806,-310.785 167.246,-300.205 160.771,-302.863"/>
<text text-anchor="middle" x="271.5" y="-283" font-family="FreeSans" font-size="10.00"> LeftButtonReleaseEvtRelay</text>
<text text-anchor="middle" x="271.5" y="-271" font-family="FreeSans" font-size="10.00">KeyPressEvtRelay</text>
<text text-anchor="middle" x="271.5" y="-259" font-family="FreeSans" font-size="10.00">DomainModifiedEvtRelay</text>
<text text-anchor="middle" x="271.5" y="-247" font-family="FreeSans" font-size="10.00">VolumeMapperComputeGradientsStartEvtRelay</text>
<text text-anchor="middle" x="271.5" y="-235" font-family="FreeSans" font-size="10.00">ErrorEvtRelay</text>
<text text-anchor="middle" x="271.5" y="-223" font-family="FreeSans" font-size="10.00">VolumeMapperRenderStartEvtRelay</text>
<text text-anchor="middle" x="271.5" y="-211" font-family="FreeSans" font-size="10.00">StartEvtRelay</text>
<text text-anchor="middle" x="271.5" y="-199" font-family="FreeSans" font-size="10.00">ResetCameraEvtRelay</text>
<text text-anchor="middle" x="271.5" y="-187" font-family="FreeSans" font-size="10.00">EnableEvtRelay</text>
<text text-anchor="middle" x="271.5" y="-175" font-family="FreeSans" font-size="10.00">DeleteEvtRelay</text>
<text text-anchor="middle" x="271.5" y="-163" font-family="FreeSans" font-size="10.00">...</text>
</g>
<!-- Node6&#45;&gt;Node7 -->
<g id="edge18" class="edge"><title>Node6&#45;&gt;Node7</title>
<path fill="none" stroke="#9a32cd" stroke-dasharray="5,2" d="M169.028,-341.231C168.649,-344.169 168.293,-347.159 168,-350 162.144,-406.853 158.636,-475.333 157.452,-500.807"/>
<polygon fill="#9a32cd" stroke="#9a32cd" points="172.515,-341.565 170.421,-331.179 165.582,-340.604 172.515,-341.565"/>
<text text-anchor="middle" x="281.5" y="-473" font-family="FreeSans" font-size="10.00"> LeftButtonReleaseEvtRelay</text>
<text text-anchor="middle" x="281.5" y="-461" font-family="FreeSans" font-size="10.00">KeyPressEvtRelay</text>
<text text-anchor="middle" x="281.5" y="-449" font-family="FreeSans" font-size="10.00">DomainModifiedEvtRelay</text>
<text text-anchor="middle" x="281.5" y="-437" font-family="FreeSans" font-size="10.00">VolumeMapperComputeGradientsStartEvtRelay</text>
<text text-anchor="middle" x="281.5" y="-425" font-family="FreeSans" font-size="10.00">ErrorEvtRelay</text>
<text text-anchor="middle" x="281.5" y="-413" font-family="FreeSans" font-size="10.00">VolumeMapperRenderStartEvtRelay</text>
<text text-anchor="middle" x="281.5" y="-401" font-family="FreeSans" font-size="10.00">StartEvtRelay</text>
<text text-anchor="middle" x="281.5" y="-389" font-family="FreeSans" font-size="10.00">ResetCameraEvtRelay</text>
<text text-anchor="middle" x="281.5" y="-377" font-family="FreeSans" font-size="10.00">EnableEvtRelay</text>
<text text-anchor="middle" x="281.5" y="-365" font-family="FreeSans" font-size="10.00">DeleteEvtRelay</text>
<text text-anchor="middle" x="281.5" y="-353" font-family="FreeSans" font-size="10.00">...</text>
</g>
<!-- Node7&#45;&gt;Node6 -->
<g id="edge14" class="edge"><title>Node7&#45;&gt;Node6</title>
<path fill="none" stroke="#9a32cd" stroke-dasharray="5,2" d="M110.979,-495.818C105.439,-492.138 100.51,-487.596 97,-482 65.8229,-432.303 63.8299,-398.389 97,-350 101.736,-343.091 118.511,-336.287 134.999,-331.008"/>
<polygon fill="#9a32cd" stroke="#9a32cd" points="109.639,-499.079 120.072,-500.919 113.064,-492.974 109.639,-499.079"/>
<text text-anchor="middle" x="121" y="-419" font-family="FreeSans" font-size="10.00"> Sender</text>
<text text-anchor="middle" x="121" y="-407" font-family="FreeSans" font-size="10.00">EventImpl</text>
</g>
</g>
</svg>
