<?xml version="1.0" encoding="UTF-8" standalone="no"?>
<!DOCTYPE svg PUBLIC "-//W3C//DTD SVG 1.1//EN"
 "http://www.w3.org/Graphics/SVG/1.1/DTD/svg11.dtd">
<!-- Generated by graphviz version 2.26.3 (20100126.1600)
 -->
<!-- Title: G Pages: 1 -->
<svg width="976pt" height="180pt"
 viewBox="0.00 0.00 976.00 180.00" xmlns="http://www.w3.org/2000/svg" xmlns:xlink="http://www.w3.org/1999/xlink">
<g id="graph1" class="graph" transform="scale(1 1) rotate(0) translate(4 176)">
<title>G</title>
<!-- Node1 -->
<g id="node1" class="node"><title>Node1</title>
<polygon fill="#bfbfbf" stroke="black" points="346,-76 346,-96 590,-96 590,-76 346,-76"/>
<text text-anchor="middle" x="468" y="-83" font-family="FreeSans" font-size="10.00">Kitware.VTK.vtkFixedPointVolumeRayCastHelper</text>
</g>
<!-- Node5 -->
<g id="node9" class="node"><title>Node5</title>
<a xlink:href="class_kitware_1_1_v_t_k_1_1vtk_fixed_point_volume_ray_cast_composite_g_o_helper.html" target="_top" xlink:title="vtkFixedPointVolumeRayCastCompositeGOHelper &#45; A helper that generates composite images for the volume...">
<polygon fill="none" stroke="black" points="641.5,-152 641.5,-172 952.5,-172 952.5,-152 641.5,-152"/>
<text text-anchor="middle" x="797" y="-159" font-family="FreeSans" font-size="10.00">Kitware.VTK.vtkFixedPointVolumeRayCastCompositeGOHelper</text>
</a>
</g>
<!-- Node1&#45;&gt;Node5 -->
<g id="edge8" class="edge"><title>Node1&#45;&gt;Node5</title>
<path fill="none" stroke="midnightblue" d="M500.059,-100.099C531.512,-113.321 581.148,-132.572 626,-143 641.565,-146.619 658.093,-149.555 674.502,-151.936"/>
<polygon fill="midnightblue" stroke="midnightblue" points="501.087,-96.7331 490.515,-96.0373 498.346,-103.174 501.087,-96.7331"/>
</g>
<!-- Node6 -->
<g id="node11" class="node"><title>Node6</title>
<a xlink:href="class_kitware_1_1_v_t_k_1_1vtk_fixed_point_volume_ray_cast_composite_g_o_shade_helper.html" target="_top" xlink:title="vtkFixedPointVolumeRayCastCompositeGOShadeHelper &#45; A helper that generates composite images for the v...">
<polygon fill="none" stroke="black" points="626.5,-114 626.5,-134 967.5,-134 967.5,-114 626.5,-114"/>
<text text-anchor="middle" x="797" y="-121" font-family="FreeSans" font-size="10.00">Kitware.VTK.vtkFixedPointVolumeRayCastCompositeGOShadeHelper</text>
</a>
</g>
<!-- Node1&#45;&gt;Node6 -->
<g id="edge10" class="edge"><title>Node1&#45;&gt;Node6</title>
<path fill="none" stroke="midnightblue" d="M560.14,-97.2221C581.743,-99.8138 604.676,-102.533 626,-105 651.815,-107.986 679.833,-111.137 705.576,-113.996"/>
<polygon fill="midnightblue" stroke="midnightblue" points="560.335,-93.7203 549.988,-96.0019 559.499,-100.67 560.335,-93.7203"/>
</g>
<!-- Node7 -->
<g id="node13" class="node"><title>Node7</title>
<a xlink:href="class_kitware_1_1_v_t_k_1_1vtk_fixed_point_volume_ray_cast_composite_helper.html" target="_top" xlink:title="vtkFixedPointVolumeRayCastCompositeHelper &#45; A helper that generates composite images for the volume r...">
<polygon fill="none" stroke="black" points="649,-76 649,-96 945,-96 945,-76 649,-76"/>
<text text-anchor="middle" x="797" y="-83" font-family="FreeSans" font-size="10.00">Kitware.VTK.vtkFixedPointVolumeRayCastCompositeHelper</text>
</a>
</g>
<!-- Node1&#45;&gt;Node7 -->
<g id="edge12" class="edge"><title>Node1&#45;&gt;Node7</title>
<path fill="none" stroke="midnightblue" d="M600.464,-86C616.429,-86 632.813,-86 648.983,-86"/>
<polygon fill="midnightblue" stroke="midnightblue" points="600.04,-82.5001 590.04,-86 600.04,-89.5001 600.04,-82.5001"/>
</g>
<!-- Node8 -->
<g id="node15" class="node"><title>Node8</title>
<a xlink:href="class_kitware_1_1_v_t_k_1_1vtk_fixed_point_volume_ray_cast_composite_shade_helper.html" target="_top" xlink:title="vtkFixedPointVolumeRayCastCompositeShadeHelper &#45; A helper that generates composite images for the vol...">
<polygon fill="none" stroke="black" points="634,-38 634,-58 960,-58 960,-38 634,-38"/>
<text text-anchor="middle" x="797" y="-45" font-family="FreeSans" font-size="10.00">Kitware.VTK.vtkFixedPointVolumeRayCastCompositeShadeHelper</text>
</a>
</g>
<!-- Node1&#45;&gt;Node8 -->
<g id="edge14" class="edge"><title>Node1&#45;&gt;Node8</title>
<path fill="none" stroke="midnightblue" d="M560.14,-74.7779C581.743,-72.1862 604.676,-69.4667 626,-67 651.815,-64.0137 679.833,-60.8628 705.576,-58.0041"/>
<polygon fill="midnightblue" stroke="midnightblue" points="559.499,-71.3297 549.988,-75.9981 560.335,-78.2797 559.499,-71.3297"/>
</g>
<!-- Node9 -->
<g id="node17" class="node"><title>Node9</title>
<a xlink:href="class_kitware_1_1_v_t_k_1_1vtk_fixed_point_volume_ray_cast_m_i_p_helper.html" target="_top" xlink:title="vtkFixedPointVolumeRayCastMIPHelper &#45; A helper that generates MIP images for the volume ray cast mapp...">
<polygon fill="none" stroke="black" points="667,-0 667,-20 927,-20 927,-0 667,-0"/>
<text text-anchor="middle" x="797" y="-7" font-family="FreeSans" font-size="10.00">Kitware.VTK.vtkFixedPointVolumeRayCastMIPHelper</text>
</a>
</g>
<!-- Node1&#45;&gt;Node9 -->
<g id="edge16" class="edge"><title>Node1&#45;&gt;Node9</title>
<path fill="none" stroke="midnightblue" d="M500.059,-71.9007C531.512,-58.6791 581.148,-39.4281 626,-29 641.565,-25.381 658.093,-22.4449 674.502,-20.0642"/>
<polygon fill="midnightblue" stroke="midnightblue" points="498.346,-68.826 490.515,-75.9627 501.087,-75.2669 498.346,-68.826"/>
</g>
<!-- Node2 -->
<g id="node2" class="node"><title>Node2</title>
<a xlink:href="class_kitware_1_1_v_t_k_1_1vtk_object.html" target="_top" xlink:title="vtkObject &#45; abstract base class for most VTK objects">
<polygon fill="none" stroke="black" points="248,-76 248,-96 310,-96 310,-76 248,-76"/>
<text text-anchor="middle" x="279" y="-83" font-family="FreeSans" font-size="10.00">vtkObject</text>
</a>
</g>
<!-- Node2&#45;&gt;Node1 -->
<g id="edge2" class="edge"><title>Node2&#45;&gt;Node1</title>
<path fill="none" stroke="midnightblue" d="M320.459,-86C328.33,-86 336.927,-86 345.888,-86"/>
<polygon fill="midnightblue" stroke="midnightblue" points="320.21,-82.5001 310.21,-86 320.209,-89.5001 320.21,-82.5001"/>
</g>
<!-- Node3 -->
<g id="node4" class="node"><title>Node3</title>
<a xlink:href="class_kitware_1_1_v_t_k_1_1vtk_object_base.html" target="_top" xlink:title="vtkObjectBase &#45; abstract base class for most VTK objects">
<polygon fill="none" stroke="black" points="126,-76 126,-96 212,-96 212,-76 126,-76"/>
<text text-anchor="middle" x="169" y="-83" font-family="FreeSans" font-size="10.00">vtkObjectBase</text>
</a>
</g>
<!-- Node3&#45;&gt;Node2 -->
<g id="edge4" class="edge"><title>Node3&#45;&gt;Node2</title>
<path fill="none" stroke="midnightblue" d="M222.346,-86C231.091,-86 239.892,-86 247.863,-86"/>
<polygon fill="midnightblue" stroke="midnightblue" points="222.159,-82.5001 212.159,-86 222.159,-89.5001 222.159,-82.5001"/>
</g>
<!-- Node4 -->
<g id="node6" class="node"><title>Node4</title>
<a xlink:href="class_kitware_1_1_v_t_k_1_1_wrapped_object.html" target="_top" xlink:title="Base class for all the mummy wrapped classes in Kitware.VTK.">
<polygon fill="none" stroke="black" points="0.5,-76 0.5,-96 89.5,-96 89.5,-76 0.5,-76"/>
<text text-anchor="middle" x="45" y="-83" font-family="FreeSans" font-size="10.00">WrappedObject</text>
</a>
</g>
<!-- Node4&#45;&gt;Node3 -->
<g id="edge6" class="edge"><title>Node4&#45;&gt;Node3</title>
<path fill="none" stroke="midnightblue" d="M99.8895,-86C108.623,-86 117.548,-86 125.957,-86"/>
<polygon fill="midnightblue" stroke="midnightblue" points="99.7669,-82.5001 89.7668,-86 99.7668,-89.5001 99.7669,-82.5001"/>
</g>
</g>
</svg>
