<?xml version="1.0" encoding="UTF-8" standalone="no"?>
<!DOCTYPE svg PUBLIC "-//W3C//DTD SVG 1.1//EN"
 "http://www.w3.org/Graphics/SVG/1.1/DTD/svg11.dtd">
<!-- Generated by graphviz version 2.26.3 (20100126.1600)
 -->
<!-- Title: G Pages: 1 -->
<svg width="462pt" height="890pt"
 viewBox="0.00 0.00 462.46 890.00" xmlns="http://www.w3.org/2000/svg" xmlns:xlink="http://www.w3.org/1999/xlink">
<g id="graph1" class="graph" transform="scale(1 1) rotate(0) translate(4 886)">
<title>G</title>
<!-- Node1 -->
<g id="node1" class="node"><title>Node1</title>
<polygon fill="#bfbfbf" stroke="black" points="0,-1 0,-21 252,-21 252,-1 0,-1"/>
<text text-anchor="middle" x="126" y="-8" font-family="FreeSans" font-size="10.00">Kitware.VTK.vtkRenderedHierarchyRepresentation</text>
</g>
<!-- Node2 -->
<g id="node2" class="node"><title>Node2</title>
<a xlink:href="class_kitware_1_1_v_t_k_1_1vtk_rendered_graph_representation.html" target="_top" xlink:title="vtkRenderedGraphRepresentation &#45;">
<polygon fill="none" stroke="black" points="37.5,-61 37.5,-81 214.5,-81 214.5,-61 37.5,-61"/>
<text text-anchor="middle" x="126" y="-68" font-family="FreeSans" font-size="10.00">vtkRenderedGraphRepresentation</text>
</a>
</g>
<!-- Node2&#45;&gt;Node1 -->
<g id="edge2" class="edge"><title>Node2&#45;&gt;Node1</title>
<path fill="none" stroke="midnightblue" d="M126,-50.5155C126,-40.562 126,-29.0495 126,-21.0279"/>
<polygon fill="midnightblue" stroke="midnightblue" points="122.5,-50.8218 126,-60.8218 129.5,-50.8219 122.5,-50.8218"/>
</g>
<!-- Node3 -->
<g id="node4" class="node"><title>Node3</title>
<a xlink:href="class_kitware_1_1_v_t_k_1_1vtk_rendered_representation.html" target="_top" xlink:title="vtkRenderedRepresentation &#45;">
<polygon fill="none" stroke="black" points="52,-121 52,-141 200,-141 200,-121 52,-121"/>
<text text-anchor="middle" x="126" y="-128" font-family="FreeSans" font-size="10.00">vtkRenderedRepresentation</text>
</a>
</g>
<!-- Node3&#45;&gt;Node2 -->
<g id="edge4" class="edge"><title>Node3&#45;&gt;Node2</title>
<path fill="none" stroke="midnightblue" d="M126,-110.516C126,-100.562 126,-89.0495 126,-81.0279"/>
<polygon fill="midnightblue" stroke="midnightblue" points="122.5,-110.822 126,-120.822 129.5,-110.822 122.5,-110.822"/>
</g>
<!-- Node4 -->
<g id="node6" class="node"><title>Node4</title>
<a xlink:href="class_kitware_1_1_v_t_k_1_1vtk_data_representation.html" target="_top" xlink:title="vtkDataRepresentation &#45; The superclass for all representations">
<polygon fill="none" stroke="black" points="63,-181 63,-201 189,-201 189,-181 63,-181"/>
<text text-anchor="middle" x="126" y="-188" font-family="FreeSans" font-size="10.00">vtkDataRepresentation</text>
</a>
</g>
<!-- Node4&#45;&gt;Node3 -->
<g id="edge6" class="edge"><title>Node4&#45;&gt;Node3</title>
<path fill="none" stroke="midnightblue" d="M126,-170.516C126,-160.562 126,-149.05 126,-141.028"/>
<polygon fill="midnightblue" stroke="midnightblue" points="122.5,-170.822 126,-180.822 129.5,-170.822 122.5,-170.822"/>
</g>
<!-- Node5 -->
<g id="node8" class="node"><title>Node5</title>
<a xlink:href="class_kitware_1_1_v_t_k_1_1vtk_pass_input_type_algorithm.html" target="_top" xlink:title="vtkPassInputTypeAlgorithm &#45; Superclass for algorithms that produce output of the same type as input...">
<polygon fill="none" stroke="black" points="54,-241 54,-261 198,-261 198,-241 54,-241"/>
<text text-anchor="middle" x="126" y="-248" font-family="FreeSans" font-size="10.00">vtkPassInputTypeAlgorithm</text>
</a>
</g>
<!-- Node5&#45;&gt;Node4 -->
<g id="edge8" class="edge"><title>Node5&#45;&gt;Node4</title>
<path fill="none" stroke="midnightblue" d="M126,-230.516C126,-220.562 126,-209.05 126,-201.028"/>
<polygon fill="midnightblue" stroke="midnightblue" points="122.5,-230.822 126,-240.822 129.5,-230.822 122.5,-230.822"/>
</g>
<!-- Node6 -->
<g id="node10" class="node"><title>Node6</title>
<a xlink:href="class_kitware_1_1_v_t_k_1_1vtk_algorithm.html" target="_top" xlink:title="vtkAlgorithm &#45; Superclass for all sources, filters, and sinks in VTK.">
<polygon fill="none" stroke="black" points="87.5,-301 87.5,-321 164.5,-321 164.5,-301 87.5,-301"/>
<text text-anchor="middle" x="126" y="-308" font-family="FreeSans" font-size="10.00">vtkAlgorithm</text>
</a>
</g>
<!-- Node6&#45;&gt;Node5 -->
<g id="edge10" class="edge"><title>Node6&#45;&gt;Node5</title>
<path fill="none" stroke="midnightblue" d="M126,-290.516C126,-280.562 126,-269.05 126,-261.028"/>
<polygon fill="midnightblue" stroke="midnightblue" points="122.5,-290.822 126,-300.822 129.5,-290.822 122.5,-290.822"/>
</g>
<!-- Node7 -->
<g id="node12" class="node"><title>Node7</title>
<a xlink:href="class_kitware_1_1_v_t_k_1_1vtk_object.html" target="_top" xlink:title="vtkObject &#45; abstract base class for most VTK objects">
<polygon fill="none" stroke="black" points="95,-361 95,-381 157,-381 157,-361 95,-361"/>
<text text-anchor="middle" x="126" y="-368" font-family="FreeSans" font-size="10.00">vtkObject</text>
</a>
</g>
<!-- Node7&#45;&gt;Node6 -->
<g id="edge12" class="edge"><title>Node7&#45;&gt;Node6</title>
<path fill="none" stroke="midnightblue" d="M126,-350.516C126,-340.562 126,-329.05 126,-321.028"/>
<polygon fill="midnightblue" stroke="midnightblue" points="122.5,-350.822 126,-360.822 129.5,-350.822 122.5,-350.822"/>
</g>
<!-- Node8 -->
<g id="node14" class="node"><title>Node8</title>
<a xlink:href="class_kitware_1_1_v_t_k_1_1vtk_object_base.html" target="_top" xlink:title="vtkObjectBase &#45; abstract base class for most VTK objects">
<polygon fill="none" stroke="black" points="146,-801 146,-821 232,-821 232,-801 146,-801"/>
<text text-anchor="middle" x="189" y="-808" font-family="FreeSans" font-size="10.00">vtkObjectBase</text>
</a>
</g>
<!-- Node8&#45;&gt;Node7 -->
<g id="edge14" class="edge"><title>Node8&#45;&gt;Node7</title>
<path fill="none" stroke="midnightblue" d="M160.423,-795.886C146.687,-787.44 130.884,-775.826 120,-762 108.156,-746.955 107.621,-740.802 104,-722 78.4248,-589.199 113.577,-423.437 123.516,-381.17"/>
<polygon fill="midnightblue" stroke="midnightblue" points="158.683,-798.923 169.079,-800.97 162.229,-792.887 158.683,-798.923"/>
</g>
<!-- Node11 -->
<g id="node21" class="node"><title>Node11</title>
<a xlink:href="class_kitware_1_1_v_t_k_1_1vtk_object.html" target="_top" xlink:title="vtkObject &#45; abstract base class for most VTK objects">
<polygon fill="none" stroke="black" points="129,-741 129,-761 249,-761 249,-741 129,-741"/>
<text text-anchor="middle" x="189" y="-748" font-family="FreeSans" font-size="10.00">Kitware.VTK.vtkObject</text>
</a>
</g>
<!-- Node8&#45;&gt;Node11 -->
<g id="edge24" class="edge"><title>Node8&#45;&gt;Node11</title>
<path fill="none" stroke="midnightblue" d="M189,-790.516C189,-780.562 189,-769.05 189,-761.028"/>
<polygon fill="midnightblue" stroke="midnightblue" points="185.5,-790.822 189,-800.822 192.5,-790.822 185.5,-790.822"/>
</g>
<!-- Node9 -->
<g id="node16" class="node"><title>Node9</title>
<a xlink:href="class_kitware_1_1_v_t_k_1_1_wrapped_object.html" target="_top" xlink:title="Base class for all the mummy wrapped classes in Kitware.VTK.">
<polygon fill="none" stroke="black" points="327.5,-861 327.5,-881 416.5,-881 416.5,-861 327.5,-861"/>
<text text-anchor="middle" x="372" y="-868" font-family="FreeSans" font-size="10.00">WrappedObject</text>
</a>
</g>
<!-- Node9&#45;&gt;Node8 -->
<g id="edge16" class="edge"><title>Node9&#45;&gt;Node8</title>
<path fill="none" stroke="midnightblue" d="M331.804,-857.821C298.042,-846.752 250.512,-831.168 219.73,-821.075"/>
<polygon fill="midnightblue" stroke="midnightblue" points="330.777,-861.168 341.37,-860.957 332.958,-854.516 330.777,-861.168"/>
</g>
<!-- Node10 -->
<g id="node18" class="node"><title>Node10</title>
<a xlink:href="class_kitware_1_1_v_t_k_1_1vtk_object_event_relay.html" target="_top" xlink:title="Implement a relay handler for VTK events. This is a class that receives events directly from the VTK ...">
<polygon fill="none" stroke="black" points="118,-551 118,-571 290,-571 290,-551 118,-551"/>
<text text-anchor="middle" x="204" y="-558" font-family="FreeSans" font-size="10.00">Kitware.VTK.vtkObjectEventRelay</text>
</a>
</g>
<!-- Node9&#45;&gt;Node10 -->
<g id="edge20" class="edge"><title>Node9&#45;&gt;Node10</title>
<path fill="none" stroke="midnightblue" d="M384.888,-852.325C417.276,-802.899 494.803,-667.191 427,-590 417.773,-579.495 349.047,-571.666 290.298,-566.808"/>
<polygon fill="midnightblue" stroke="midnightblue" points="381.891,-850.509 379.239,-860.767 387.709,-854.402 381.891,-850.509"/>
</g>
<!-- Node10&#45;&gt;Node7 -->
<g id="edge18" class="edge"><title>Node10&#45;&gt;Node7</title>
<path fill="none" stroke="#9a32cd" stroke-dasharray="5,2" d="M195.921,-541.321C179.489,-501.293 142.674,-411.616 130.214,-381.266"/>
<polygon fill="#9a32cd" stroke="#9a32cd" points="192.771,-542.863 199.806,-550.785 199.246,-540.205 192.771,-542.863"/>
<text text-anchor="middle" x="303.5" y="-523" font-family="FreeSans" font-size="10.00"> LeftButtonReleaseEvtRelay</text>
<text text-anchor="middle" x="303.5" y="-511" font-family="FreeSans" font-size="10.00">KeyPressEvtRelay</text>
<text text-anchor="middle" x="303.5" y="-499" font-family="FreeSans" font-size="10.00">DomainModifiedEvtRelay</text>
<text text-anchor="middle" x="303.5" y="-487" font-family="FreeSans" font-size="10.00">VolumeMapperComputeGradientsStartEvtRelay</text>
<text text-anchor="middle" x="303.5" y="-475" font-family="FreeSans" font-size="10.00">ErrorEvtRelay</text>
<text text-anchor="middle" x="303.5" y="-463" font-family="FreeSans" font-size="10.00">VolumeMapperRenderStartEvtRelay</text>
<text text-anchor="middle" x="303.5" y="-451" font-family="FreeSans" font-size="10.00">StartEvtRelay</text>
<text text-anchor="middle" x="303.5" y="-439" font-family="FreeSans" font-size="10.00">ResetCameraEvtRelay</text>
<text text-anchor="middle" x="303.5" y="-427" font-family="FreeSans" font-size="10.00">EnableEvtRelay</text>
<text text-anchor="middle" x="303.5" y="-415" font-family="FreeSans" font-size="10.00">DeleteEvtRelay</text>
<text text-anchor="middle" x="303.5" y="-403" font-family="FreeSans" font-size="10.00">...</text>
</g>
<!-- Node10&#45;&gt;Node11 -->
<g id="edge26" class="edge"><title>Node10&#45;&gt;Node11</title>
<path fill="none" stroke="#9a32cd" stroke-dasharray="5,2" d="M201.028,-581.231C200.649,-584.169 200.293,-587.159 200,-590 194.144,-646.853 190.636,-715.333 189.452,-740.807"/>
<polygon fill="#9a32cd" stroke="#9a32cd" points="204.515,-581.565 202.421,-571.179 197.582,-580.604 204.515,-581.565"/>
<text text-anchor="middle" x="313.5" y="-713" font-family="FreeSans" font-size="10.00"> LeftButtonReleaseEvtRelay</text>
<text text-anchor="middle" x="313.5" y="-701" font-family="FreeSans" font-size="10.00">KeyPressEvtRelay</text>
<text text-anchor="middle" x="313.5" y="-689" font-family="FreeSans" font-size="10.00">DomainModifiedEvtRelay</text>
<text text-anchor="middle" x="313.5" y="-677" font-family="FreeSans" font-size="10.00">VolumeMapperComputeGradientsStartEvtRelay</text>
<text text-anchor="middle" x="313.5" y="-665" font-family="FreeSans" font-size="10.00">ErrorEvtRelay</text>
<text text-anchor="middle" x="313.5" y="-653" font-family="FreeSans" font-size="10.00">VolumeMapperRenderStartEvtRelay</text>
<text text-anchor="middle" x="313.5" y="-641" font-family="FreeSans" font-size="10.00">StartEvtRelay</text>
<text text-anchor="middle" x="313.5" y="-629" font-family="FreeSans" font-size="10.00">ResetCameraEvtRelay</text>
<text text-anchor="middle" x="313.5" y="-617" font-family="FreeSans" font-size="10.00">EnableEvtRelay</text>
<text text-anchor="middle" x="313.5" y="-605" font-family="FreeSans" font-size="10.00">DeleteEvtRelay</text>
<text text-anchor="middle" x="313.5" y="-593" font-family="FreeSans" font-size="10.00">...</text>
</g>
<!-- Node11&#45;&gt;Node10 -->
<g id="edge22" class="edge"><title>Node11&#45;&gt;Node10</title>
<path fill="none" stroke="#9a32cd" stroke-dasharray="5,2" d="M142.979,-735.818C137.439,-732.138 132.51,-727.596 129,-722 97.8229,-672.303 95.8299,-638.389 129,-590 133.736,-583.091 150.511,-576.287 166.999,-571.008"/>
<polygon fill="#9a32cd" stroke="#9a32cd" points="141.639,-739.079 152.072,-740.919 145.064,-732.974 141.639,-739.079"/>
<text text-anchor="middle" x="153" y="-659" font-family="FreeSans" font-size="10.00"> Sender</text>
<text text-anchor="middle" x="153" y="-647" font-family="FreeSans" font-size="10.00">EventImpl</text>
</g>
</g>
</svg>
