<?xml version="1.0" encoding="UTF-8" standalone="no"?>
<!DOCTYPE svg PUBLIC "-//W3C//DTD SVG 1.1//EN"
 "http://www.w3.org/Graphics/SVG/1.1/DTD/svg11.dtd">
<!-- Generated by graphviz version 2.26.3 (20100126.1600)
 -->
<!-- Title: G Pages: 1 -->
<svg width="465pt" height="650pt"
 viewBox="0.00 0.00 465.46 650.00" xmlns="http://www.w3.org/2000/svg" xmlns:xlink="http://www.w3.org/1999/xlink">
<g id="graph1" class="graph" transform="scale(1 1) rotate(0) translate(4 646)">
<title>G</title>
<!-- Node1 -->
<g id="node1" class="node"><title>Node1</title>
<polygon fill="#bfbfbf" stroke="black" points="0,-1 0,-21 258,-21 258,-1 0,-1"/>
<text text-anchor="middle" x="129" y="-8" font-family="FreeSans" font-size="10.00">Kitware.VTK.vtkMinimalStandardRandomSequence</text>
</g>
<!-- Node2 -->
<g id="node2" class="node"><title>Node2</title>
<a xlink:href="class_kitware_1_1_v_t_k_1_1vtk_random_sequence.html" target="_top" xlink:title="vtkRandomSequence &#45; Sequence of random numbers.">
<polygon fill="none" stroke="black" points="69.5,-61 69.5,-81 188.5,-81 188.5,-61 69.5,-61"/>
<text text-anchor="middle" x="129" y="-68" font-family="FreeSans" font-size="10.00">vtkRandomSequence</text>
</a>
</g>
<!-- Node2&#45;&gt;Node1 -->
<g id="edge2" class="edge"><title>Node2&#45;&gt;Node1</title>
<path fill="none" stroke="midnightblue" d="M129,-50.5155C129,-40.562 129,-29.0495 129,-21.0279"/>
<polygon fill="midnightblue" stroke="midnightblue" points="125.5,-50.8218 129,-60.8218 132.5,-50.8219 125.5,-50.8218"/>
</g>
<!-- Node3 -->
<g id="node4" class="node"><title>Node3</title>
<a xlink:href="class_kitware_1_1_v_t_k_1_1vtk_object.html" target="_top" xlink:title="vtkObject &#45; abstract base class for most VTK objects">
<polygon fill="none" stroke="black" points="98,-121 98,-141 160,-141 160,-121 98,-121"/>
<text text-anchor="middle" x="129" y="-128" font-family="FreeSans" font-size="10.00">vtkObject</text>
</a>
</g>
<!-- Node3&#45;&gt;Node2 -->
<g id="edge4" class="edge"><title>Node3&#45;&gt;Node2</title>
<path fill="none" stroke="midnightblue" d="M129,-110.516C129,-100.562 129,-89.0495 129,-81.0279"/>
<polygon fill="midnightblue" stroke="midnightblue" points="125.5,-110.822 129,-120.822 132.5,-110.822 125.5,-110.822"/>
</g>
<!-- Node4 -->
<g id="node6" class="node"><title>Node4</title>
<a xlink:href="class_kitware_1_1_v_t_k_1_1vtk_object_base.html" target="_top" xlink:title="vtkObjectBase &#45; abstract base class for most VTK objects">
<polygon fill="none" stroke="black" points="149,-561 149,-581 235,-581 235,-561 149,-561"/>
<text text-anchor="middle" x="192" y="-568" font-family="FreeSans" font-size="10.00">vtkObjectBase</text>
</a>
</g>
<!-- Node4&#45;&gt;Node3 -->
<g id="edge6" class="edge"><title>Node4&#45;&gt;Node3</title>
<path fill="none" stroke="midnightblue" d="M163.423,-555.886C149.687,-547.44 133.884,-535.826 123,-522 111.156,-506.955 110.621,-500.802 107,-482 81.4248,-349.199 116.577,-183.437 126.516,-141.17"/>
<polygon fill="midnightblue" stroke="midnightblue" points="161.683,-558.923 172.079,-560.97 165.229,-552.887 161.683,-558.923"/>
</g>
<!-- Node7 -->
<g id="node13" class="node"><title>Node7</title>
<a xlink:href="class_kitware_1_1_v_t_k_1_1vtk_object.html" target="_top" xlink:title="vtkObject &#45; abstract base class for most VTK objects">
<polygon fill="none" stroke="black" points="132,-501 132,-521 252,-521 252,-501 132,-501"/>
<text text-anchor="middle" x="192" y="-508" font-family="FreeSans" font-size="10.00">Kitware.VTK.vtkObject</text>
</a>
</g>
<!-- Node4&#45;&gt;Node7 -->
<g id="edge16" class="edge"><title>Node4&#45;&gt;Node7</title>
<path fill="none" stroke="midnightblue" d="M192,-550.516C192,-540.562 192,-529.05 192,-521.028"/>
<polygon fill="midnightblue" stroke="midnightblue" points="188.5,-550.822 192,-560.822 195.5,-550.822 188.5,-550.822"/>
</g>
<!-- Node5 -->
<g id="node8" class="node"><title>Node5</title>
<a xlink:href="class_kitware_1_1_v_t_k_1_1_wrapped_object.html" target="_top" xlink:title="Base class for all the mummy wrapped classes in Kitware.VTK.">
<polygon fill="none" stroke="black" points="330.5,-621 330.5,-641 419.5,-641 419.5,-621 330.5,-621"/>
<text text-anchor="middle" x="375" y="-628" font-family="FreeSans" font-size="10.00">WrappedObject</text>
</a>
</g>
<!-- Node5&#45;&gt;Node4 -->
<g id="edge8" class="edge"><title>Node5&#45;&gt;Node4</title>
<path fill="none" stroke="midnightblue" d="M334.804,-617.821C301.042,-606.752 253.512,-591.168 222.73,-581.075"/>
<polygon fill="midnightblue" stroke="midnightblue" points="333.777,-621.168 344.37,-620.957 335.958,-614.516 333.777,-621.168"/>
</g>
<!-- Node6 -->
<g id="node10" class="node"><title>Node6</title>
<a xlink:href="class_kitware_1_1_v_t_k_1_1vtk_object_event_relay.html" target="_top" xlink:title="Implement a relay handler for VTK events. This is a class that receives events directly from the VTK ...">
<polygon fill="none" stroke="black" points="121,-311 121,-331 293,-331 293,-311 121,-311"/>
<text text-anchor="middle" x="207" y="-318" font-family="FreeSans" font-size="10.00">Kitware.VTK.vtkObjectEventRelay</text>
</a>
</g>
<!-- Node5&#45;&gt;Node6 -->
<g id="edge12" class="edge"><title>Node5&#45;&gt;Node6</title>
<path fill="none" stroke="midnightblue" d="M387.888,-612.325C420.276,-562.899 497.803,-427.191 430,-350 420.773,-339.495 352.047,-331.666 293.298,-326.808"/>
<polygon fill="midnightblue" stroke="midnightblue" points="384.891,-610.509 382.239,-620.767 390.709,-614.402 384.891,-610.509"/>
</g>
<!-- Node6&#45;&gt;Node3 -->
<g id="edge10" class="edge"><title>Node6&#45;&gt;Node3</title>
<path fill="none" stroke="#9a32cd" stroke-dasharray="5,2" d="M198.921,-301.321C182.489,-261.293 145.674,-171.616 133.214,-141.266"/>
<polygon fill="#9a32cd" stroke="#9a32cd" points="195.771,-302.863 202.806,-310.785 202.246,-300.205 195.771,-302.863"/>
<text text-anchor="middle" x="306.5" y="-283" font-family="FreeSans" font-size="10.00"> LeftButtonReleaseEvtRelay</text>
<text text-anchor="middle" x="306.5" y="-271" font-family="FreeSans" font-size="10.00">KeyPressEvtRelay</text>
<text text-anchor="middle" x="306.5" y="-259" font-family="FreeSans" font-size="10.00">DomainModifiedEvtRelay</text>
<text text-anchor="middle" x="306.5" y="-247" font-family="FreeSans" font-size="10.00">VolumeMapperComputeGradientsStartEvtRelay</text>
<text text-anchor="middle" x="306.5" y="-235" font-family="FreeSans" font-size="10.00">ErrorEvtRelay</text>
<text text-anchor="middle" x="306.5" y="-223" font-family="FreeSans" font-size="10.00">VolumeMapperRenderStartEvtRelay</text>
<text text-anchor="middle" x="306.5" y="-211" font-family="FreeSans" font-size="10.00">StartEvtRelay</text>
<text text-anchor="middle" x="306.5" y="-199" font-family="FreeSans" font-size="10.00">ResetCameraEvtRelay</text>
<text text-anchor="middle" x="306.5" y="-187" font-family="FreeSans" font-size="10.00">EnableEvtRelay</text>
<text text-anchor="middle" x="306.5" y="-175" font-family="FreeSans" font-size="10.00">DeleteEvtRelay</text>
<text text-anchor="middle" x="306.5" y="-163" font-family="FreeSans" font-size="10.00">...</text>
</g>
<!-- Node6&#45;&gt;Node7 -->
<g id="edge18" class="edge"><title>Node6&#45;&gt;Node7</title>
<path fill="none" stroke="#9a32cd" stroke-dasharray="5,2" d="M204.028,-341.231C203.649,-344.169 203.293,-347.159 203,-350 197.144,-406.853 193.636,-475.333 192.452,-500.807"/>
<polygon fill="#9a32cd" stroke="#9a32cd" points="207.515,-341.565 205.421,-331.179 200.582,-340.604 207.515,-341.565"/>
<text text-anchor="middle" x="316.5" y="-473" font-family="FreeSans" font-size="10.00"> LeftButtonReleaseEvtRelay</text>
<text text-anchor="middle" x="316.5" y="-461" font-family="FreeSans" font-size="10.00">KeyPressEvtRelay</text>
<text text-anchor="middle" x="316.5" y="-449" font-family="FreeSans" font-size="10.00">DomainModifiedEvtRelay</text>
<text text-anchor="middle" x="316.5" y="-437" font-family="FreeSans" font-size="10.00">VolumeMapperComputeGradientsStartEvtRelay</text>
<text text-anchor="middle" x="316.5" y="-425" font-family="FreeSans" font-size="10.00">ErrorEvtRelay</text>
<text text-anchor="middle" x="316.5" y="-413" font-family="FreeSans" font-size="10.00">VolumeMapperRenderStartEvtRelay</text>
<text text-anchor="middle" x="316.5" y="-401" font-family="FreeSans" font-size="10.00">StartEvtRelay</text>
<text text-anchor="middle" x="316.5" y="-389" font-family="FreeSans" font-size="10.00">ResetCameraEvtRelay</text>
<text text-anchor="middle" x="316.5" y="-377" font-family="FreeSans" font-size="10.00">EnableEvtRelay</text>
<text text-anchor="middle" x="316.5" y="-365" font-family="FreeSans" font-size="10.00">DeleteEvtRelay</text>
<text text-anchor="middle" x="316.5" y="-353" font-family="FreeSans" font-size="10.00">...</text>
</g>
<!-- Node7&#45;&gt;Node6 -->
<g id="edge14" class="edge"><title>Node7&#45;&gt;Node6</title>
<path fill="none" stroke="#9a32cd" stroke-dasharray="5,2" d="M145.979,-495.818C140.439,-492.138 135.51,-487.596 132,-482 100.823,-432.303 98.8299,-398.389 132,-350 136.736,-343.091 153.511,-336.287 169.999,-331.008"/>
<polygon fill="#9a32cd" stroke="#9a32cd" points="144.639,-499.079 155.072,-500.919 148.064,-492.974 144.639,-499.079"/>
<text text-anchor="middle" x="156" y="-419" font-family="FreeSans" font-size="10.00"> Sender</text>
<text text-anchor="middle" x="156" y="-407" font-family="FreeSans" font-size="10.00">EventImpl</text>
</g>
</g>
</svg>
