<?xml version="1.0" encoding="UTF-8" standalone="no"?>
<!DOCTYPE svg PUBLIC "-//W3C//DTD SVG 1.1//EN"
 "http://www.w3.org/Graphics/SVG/1.1/DTD/svg11.dtd">
<!-- Generated by graphviz version 2.26.3 (20100126.1600)
 -->
<!-- Title: G Pages: 1 -->
<svg width="1116pt" height="902pt"
 viewBox="0.00 0.00 1116.00 902.00" xmlns="http://www.w3.org/2000/svg" xmlns:xlink="http://www.w3.org/1999/xlink">
<g id="graph1" class="graph" transform="scale(1 1) rotate(0) translate(4 898)">
<title>G</title>
<!-- Node1 -->
<g id="node1" class="node"><title>Node1</title>
<polygon fill="#bfbfbf" stroke="black" points="504,-437 504,-457 666,-457 666,-437 504,-437"/>
<text text-anchor="middle" x="585" y="-444" font-family="FreeSans" font-size="10.00">Kitware.VTK.vtkAbstractWidget</text>
</g>
<!-- Node6 -->
<g id="node11" class="node"><title>Node6</title>
<a xlink:href="class_kitware_1_1_v_t_k_1_1vtk_affine_widget.html" target="_top" xlink:title="vtkAffineWidget &#45; perform affine transformations">
<polygon fill="none" stroke="black" points="728.5,-874 728.5,-894 877.5,-894 877.5,-874 728.5,-874"/>
<text text-anchor="middle" x="803" y="-881" font-family="FreeSans" font-size="10.00">Kitware.VTK.vtkAffineWidget</text>
</a>
</g>
<!-- Node1&#45;&gt;Node6 -->
<g id="edge10" class="edge"><title>Node1&#45;&gt;Node6</title>
<path fill="none" stroke="midnightblue" d="M587.848,-467.417C598.882,-543.539 641.234,-809.302 702,-865 709.497,-871.872 718.663,-876.626 728.383,-879.864"/>
<polygon fill="midnightblue" stroke="midnightblue" points="591.275,-466.653 586.398,-457.247 584.345,-467.641 591.275,-466.653"/>
</g>
<!-- Node7 -->
<g id="node13" class="node"><title>Node7</title>
<a xlink:href="class_kitware_1_1_v_t_k_1_1vtk_angle_widget.html" target="_top" xlink:title="vtkAngleWidget &#45; measure the angle between two rays (defined by three points)">
<polygon fill="none" stroke="black" points="728.5,-836 728.5,-856 877.5,-856 877.5,-836 728.5,-836"/>
<text text-anchor="middle" x="803" y="-843" font-family="FreeSans" font-size="10.00">Kitware.VTK.vtkAngleWidget</text>
</a>
</g>
<!-- Node1&#45;&gt;Node7 -->
<g id="edge12" class="edge"><title>Node1&#45;&gt;Node7</title>
<path fill="none" stroke="midnightblue" d="M588.366,-466.932C600.759,-537.945 646.045,-777.023 702,-827 709.519,-833.715 718.638,-838.392 728.286,-841.603"/>
<polygon fill="midnightblue" stroke="midnightblue" points="591.808,-466.294 586.663,-457.032 584.909,-467.481 591.808,-466.294"/>
</g>
<!-- Node8 -->
<g id="node15" class="node"><title>Node8</title>
<a xlink:href="class_kitware_1_1_v_t_k_1_1vtk_axes_transform_widget.html" target="_top" xlink:title="vtkAxesTransformWidget &#45; 3D widget for performing 3D transformations around an axes">
<polygon fill="none" stroke="black" points="707,-798 707,-818 899,-818 899,-798 707,-798"/>
<text text-anchor="middle" x="803" y="-805" font-family="FreeSans" font-size="10.00">Kitware.VTK.vtkAxesTransformWidget</text>
</a>
</g>
<!-- Node1&#45;&gt;Node8 -->
<g id="edge14" class="edge"><title>Node1&#45;&gt;Node8</title>
<path fill="none" stroke="midnightblue" d="M589.106,-467.055C603.113,-533.516 650.984,-744.834 702,-789 706.047,-792.503 710.532,-795.447 715.298,-797.913"/>
<polygon fill="midnightblue" stroke="midnightblue" points="592.485,-466.112 587.021,-457.035 585.632,-467.539 592.485,-466.112"/>
</g>
<!-- Node9 -->
<g id="node17" class="node"><title>Node9</title>
<a xlink:href="class_kitware_1_1_v_t_k_1_1vtk_bi_dimensional_widget.html" target="_top" xlink:title="vtkBiDimensionalWidget &#45; measure the bi&#45;dimensional lengths of an object">
<polygon fill="none" stroke="black" points="708,-760 708,-780 898,-780 898,-760 708,-760"/>
<text text-anchor="middle" x="803" y="-767" font-family="FreeSans" font-size="10.00">Kitware.VTK.vtkBiDimensionalWidget</text>
</a>
</g>
<!-- Node1&#45;&gt;Node9 -->
<g id="edge16" class="edge"><title>Node1&#45;&gt;Node9</title>
<path fill="none" stroke="midnightblue" d="M586.285,-467.332C590.929,-522.483 611.751,-675.802 702,-751 706.249,-754.541 710.951,-757.502 715.932,-759.974"/>
<polygon fill="midnightblue" stroke="midnightblue" points="589.757,-466.828 585.52,-457.117 582.776,-467.35 589.757,-466.828"/>
</g>
<!-- Node10 -->
<g id="node19" class="node"><title>Node10</title>
<a xlink:href="class_kitware_1_1_v_t_k_1_1vtk_border_widget.html" target="_top" xlink:title="vtkBorderWidget &#45; place a border around a 2D rectangular region">
<polygon fill="none" stroke="black" points="726,-722 726,-742 880,-742 880,-722 726,-722"/>
<text text-anchor="middle" x="803" y="-729" font-family="FreeSans" font-size="10.00">Kitware.VTK.vtkBorderWidget</text>
</a>
</g>
<!-- Node1&#45;&gt;Node10 -->
<g id="edge18" class="edge"><title>Node1&#45;&gt;Node10</title>
<path fill="none" stroke="midnightblue" d="M587.488,-467.151C594.825,-517.403 621.196,-648.827 702,-713 709.056,-718.604 717.258,-722.736 725.88,-725.759"/>
<polygon fill="midnightblue" stroke="midnightblue" points="590.951,-466.643 586.134,-457.206 584.015,-467.587 590.951,-466.643"/>
</g>
<!-- Node17 -->
<g id="node33" class="node"><title>Node17</title>
<a xlink:href="class_kitware_1_1_v_t_k_1_1vtk_box_widget2.html" target="_top" xlink:title="vtkBoxWidget2 &#45; 3D widget for manipulating a box">
<polygon fill="none" stroke="black" points="730,-684 730,-704 876,-704 876,-684 730,-684"/>
<text text-anchor="middle" x="803" y="-691" font-family="FreeSans" font-size="10.00">Kitware.VTK.vtkBoxWidget2</text>
</a>
</g>
<!-- Node1&#45;&gt;Node17 -->
<g id="edge32" class="edge"><title>Node1&#45;&gt;Node17</title>
<path fill="none" stroke="midnightblue" d="M589.104,-467.284C599.38,-512.499 630.681,-621.754 702,-675 710.221,-681.138 719.844,-685.477 729.825,-688.515"/>
<polygon fill="midnightblue" stroke="midnightblue" points="592.467,-466.276 586.932,-457.241 585.625,-467.755 592.467,-466.276"/>
</g>
<!-- Node18 -->
<g id="node35" class="node"><title>Node18</title>
<a xlink:href="class_kitware_1_1_v_t_k_1_1vtk_button_widget.html" target="_top" xlink:title="vtkButtonWidget &#45; activate an n&#45;state button">
<polygon fill="none" stroke="black" points="726,-646 726,-666 880,-666 880,-646 726,-646"/>
<text text-anchor="middle" x="803" y="-653" font-family="FreeSans" font-size="10.00">Kitware.VTK.vtkButtonWidget</text>
</a>
</g>
<!-- Node1&#45;&gt;Node18 -->
<g id="edge34" class="edge"><title>Node1&#45;&gt;Node18</title>
<path fill="none" stroke="midnightblue" d="M591.138,-466.864C604.411,-506.261 639.721,-594.173 702,-637 709.204,-641.954 717.35,-645.707 725.814,-648.539"/>
<polygon fill="midnightblue" stroke="midnightblue" points="594.458,-465.753 588.039,-457.324 587.8,-467.916 594.458,-465.753"/>
</g>
<!-- Node19 -->
<g id="node37" class="node"><title>Node19</title>
<a xlink:href="class_kitware_1_1_v_t_k_1_1vtk_centered_slider_widget.html" target="_top" xlink:title="vtkCenteredSliderWidget &#45; set a value by manipulating a slider">
<polygon fill="none" stroke="black" points="706.5,-608 706.5,-628 899.5,-628 899.5,-608 706.5,-608"/>
<text text-anchor="middle" x="803" y="-615" font-family="FreeSans" font-size="10.00">Kitware.VTK.vtkCenteredSliderWidget</text>
</a>
</g>
<!-- Node1&#45;&gt;Node19 -->
<g id="edge36" class="edge"><title>Node1&#45;&gt;Node19</title>
<path fill="none" stroke="midnightblue" d="M593.954,-466.282C610.35,-499.276 648.497,-566.17 702,-599 707.855,-602.593 714.233,-605.534 720.845,-607.94"/>
<polygon fill="midnightblue" stroke="midnightblue" points="597.071,-464.689 589.571,-457.207 590.768,-467.734 597.071,-464.689"/>
</g>
<!-- Node20 -->
<g id="node39" class="node"><title>Node20</title>
<a xlink:href="class_kitware_1_1_v_t_k_1_1vtk_checkerboard_widget.html" target="_top" xlink:title="vtkCheckerboardWidget &#45; interactively set the number of divisions in 2D image checkerboard">
<polygon fill="none" stroke="black" points="709,-570 709,-590 897,-590 897,-570 709,-570"/>
<text text-anchor="middle" x="803" y="-577" font-family="FreeSans" font-size="10.00">Kitware.VTK.vtkCheckerboardWidget</text>
</a>
</g>
<!-- Node1&#45;&gt;Node20 -->
<g id="edge38" class="edge"><title>Node1&#45;&gt;Node20</title>
<path fill="none" stroke="midnightblue" d="M598.192,-465.424C617.74,-491.234 656.976,-537.607 702,-561 708.966,-564.62 716.522,-567.556 724.258,-569.938"/>
<polygon fill="midnightblue" stroke="midnightblue" points="600.884,-463.179 592.121,-457.225 595.258,-467.344 600.884,-463.179"/>
</g>
<!-- Node21 -->
<g id="node41" class="node"><title>Node21</title>
<a xlink:href="class_kitware_1_1_v_t_k_1_1vtk_compass_widget.html" target="_top" xlink:title="vtkCompassWidget &#45; set a value by manipulating something">
<polygon fill="none" stroke="black" points="719.5,-532 719.5,-552 886.5,-552 886.5,-532 719.5,-532"/>
<text text-anchor="middle" x="803" y="-539" font-family="FreeSans" font-size="10.00">Kitware.VTK.vtkCompassWidget</text>
</a>
</g>
<!-- Node1&#45;&gt;Node21 -->
<g id="edge40" class="edge"><title>Node1&#45;&gt;Node21</title>
<path fill="none" stroke="midnightblue" d="M605.101,-463.603C627.386,-481.126 665.079,-508.21 702,-523 711.027,-526.616 720.788,-529.553 730.561,-531.937"/>
<polygon fill="midnightblue" stroke="midnightblue" points="607.073,-460.698 597.079,-457.182 602.699,-466.163 607.073,-460.698"/>
</g>
<!-- Node22 -->
<g id="node43" class="node"><title>Node22</title>
<a xlink:href="class_kitware_1_1_v_t_k_1_1vtk_continuous_value_widget.html" target="_top" xlink:title="vtkContinuousValueWidget &#45; set a value by manipulating something">
<polygon fill="none" stroke="black" points="702,-494 702,-514 904,-514 904,-494 702,-494"/>
<text text-anchor="middle" x="803" y="-501" font-family="FreeSans" font-size="10.00">Kitware.VTK.vtkContinuousValueWidget</text>
</a>
</g>
<!-- Node1&#45;&gt;Node22 -->
<g id="edge42" class="edge"><title>Node1&#45;&gt;Node22</title>
<path fill="none" stroke="midnightblue" d="M622.23,-460.442C645.044,-468.34 674.962,-478.096 702,-485 715.052,-488.333 729.19,-491.352 742.639,-493.953"/>
<polygon fill="midnightblue" stroke="midnightblue" points="623.196,-457.072 612.601,-457.073 620.885,-463.68 623.196,-457.072"/>
</g>
<!-- Node23 -->
<g id="node45" class="node"><title>Node23</title>
<a xlink:href="class_kitware_1_1_v_t_k_1_1vtk_contour_widget.html" target="_top" xlink:title="vtkContourWidget &#45; create a contour with a set of points">
<polygon fill="none" stroke="black" points="723,-456 723,-476 883,-476 883,-456 723,-456"/>
<text text-anchor="middle" x="803" y="-463" font-family="FreeSans" font-size="10.00">Kitware.VTK.vtkContourWidget</text>
</a>
</g>
<!-- Node1&#45;&gt;Node23 -->
<g id="edge44" class="edge"><title>Node1&#45;&gt;Node23</title>
<path fill="none" stroke="midnightblue" d="M676.257,-454.954C691.727,-456.302 707.687,-457.693 722.845,-459.014"/>
<polygon fill="midnightblue" stroke="midnightblue" points="676.441,-451.456 666.175,-454.075 675.833,-458.43 676.441,-451.456"/>
</g>
<!-- Node24 -->
<g id="node47" class="node"><title>Node24</title>
<a xlink:href="class_kitware_1_1_v_t_k_1_1vtk_distance_widget.html" target="_top" xlink:title="vtkDistanceWidget &#45; measure the distance between two points">
<polygon fill="none" stroke="black" points="721,-418 721,-438 885,-438 885,-418 721,-418"/>
<text text-anchor="middle" x="803" y="-425" font-family="FreeSans" font-size="10.00">Kitware.VTK.vtkDistanceWidget</text>
</a>
</g>
<!-- Node1&#45;&gt;Node24 -->
<g id="edge46" class="edge"><title>Node1&#45;&gt;Node24</title>
<path fill="none" stroke="midnightblue" d="M676.283,-439.044C691.005,-437.761 706.171,-436.439 720.666,-435.176"/>
<polygon fill="midnightblue" stroke="midnightblue" points="675.833,-435.57 666.175,-439.925 676.441,-442.544 675.833,-435.57"/>
</g>
<!-- Node25 -->
<g id="node49" class="node"><title>Node25</title>
<a xlink:href="class_kitware_1_1_v_t_k_1_1vtk_handle_widget.html" target="_top" xlink:title="vtkHandleWidget &#45; a general widget for moving handles">
<polygon fill="none" stroke="black" points="725.5,-380 725.5,-400 880.5,-400 880.5,-380 725.5,-380"/>
<text text-anchor="middle" x="803" y="-387" font-family="FreeSans" font-size="10.00">Kitware.VTK.vtkHandleWidget</text>
</a>
</g>
<!-- Node1&#45;&gt;Node25 -->
<g id="edge48" class="edge"><title>Node1&#45;&gt;Node25</title>
<path fill="none" stroke="midnightblue" d="M622.23,-433.558C645.044,-425.66 674.962,-415.904 702,-409 715.052,-405.667 729.19,-402.648 742.639,-400.047"/>
<polygon fill="midnightblue" stroke="midnightblue" points="620.885,-430.32 612.601,-436.927 623.196,-436.928 620.885,-430.32"/>
</g>
<!-- Node26 -->
<g id="node51" class="node"><title>Node26</title>
<a xlink:href="class_kitware_1_1_v_t_k_1_1vtk_hover_widget.html" target="_top" xlink:title="vtkHoverWidget &#45; invoke a vtkTimerEvent when hovering">
<polygon fill="none" stroke="black" points="728,-342 728,-362 878,-362 878,-342 728,-342"/>
<text text-anchor="middle" x="803" y="-349" font-family="FreeSans" font-size="10.00">Kitware.VTK.vtkHoverWidget</text>
</a>
</g>
<!-- Node1&#45;&gt;Node26 -->
<g id="edge50" class="edge"><title>Node1&#45;&gt;Node26</title>
<path fill="none" stroke="midnightblue" d="M605.101,-430.397C627.386,-412.874 665.079,-385.79 702,-371 711.027,-367.384 720.788,-364.447 730.561,-362.063"/>
<polygon fill="midnightblue" stroke="midnightblue" points="602.699,-427.837 597.079,-436.818 607.073,-433.302 602.699,-427.837"/>
</g>
<!-- Node28 -->
<g id="node55" class="node"><title>Node28</title>
<a xlink:href="class_kitware_1_1_v_t_k_1_1vtk_implicit_plane_widget2.html" target="_top" xlink:title="vtkImplicitPlaneWidget2 &#45; 3D widget for manipulating an infinite plane">
<polygon fill="none" stroke="black" points="709,-304 709,-324 897,-324 897,-304 709,-304"/>
<text text-anchor="middle" x="803" y="-311" font-family="FreeSans" font-size="10.00">Kitware.VTK.vtkImplicitPlaneWidget2</text>
</a>
</g>
<!-- Node1&#45;&gt;Node28 -->
<g id="edge54" class="edge"><title>Node1&#45;&gt;Node28</title>
<path fill="none" stroke="midnightblue" d="M598.192,-428.576C617.74,-402.766 656.976,-356.393 702,-333 708.966,-329.38 716.522,-326.444 724.258,-324.062"/>
<polygon fill="midnightblue" stroke="midnightblue" points="595.258,-426.656 592.121,-436.775 600.884,-430.821 595.258,-426.656"/>
</g>
<!-- Node29 -->
<g id="node57" class="node"><title>Node29</title>
<a xlink:href="class_kitware_1_1_v_t_k_1_1vtk_line_widget2.html" target="_top" xlink:title="vtkLineWidget2 &#45; 3D widget for manipulating a finite, straight line">
<polygon fill="none" stroke="black" points="729.5,-266 729.5,-286 876.5,-286 876.5,-266 729.5,-266"/>
<text text-anchor="middle" x="803" y="-273" font-family="FreeSans" font-size="10.00">Kitware.VTK.vtkLineWidget2</text>
</a>
</g>
<!-- Node1&#45;&gt;Node29 -->
<g id="edge56" class="edge"><title>Node1&#45;&gt;Node29</title>
<path fill="none" stroke="midnightblue" d="M593.954,-427.718C610.35,-394.724 648.497,-327.83 702,-295 710.364,-289.868 719.796,-286.064 729.451,-283.254"/>
<polygon fill="midnightblue" stroke="midnightblue" points="590.768,-426.266 589.571,-436.793 597.071,-429.311 590.768,-426.266"/>
</g>
<!-- Node30 -->
<g id="node59" class="node"><title>Node30</title>
<a xlink:href="class_kitware_1_1_v_t_k_1_1vtk_parallelopiped_widget.html" target="_top" xlink:title="vtkParallelopipedWidget &#45; a widget to manipulate 3D parallelopipeds">
<polygon fill="none" stroke="black" points="709,-228 709,-248 897,-248 897,-228 709,-228"/>
<text text-anchor="middle" x="803" y="-235" font-family="FreeSans" font-size="10.00">Kitware.VTK.vtkParallelopipedWidget</text>
</a>
</g>
<!-- Node1&#45;&gt;Node30 -->
<g id="edge58" class="edge"><title>Node1&#45;&gt;Node30</title>
<path fill="none" stroke="midnightblue" d="M591.138,-427.136C604.411,-387.739 639.721,-299.827 702,-257 707.219,-253.411 712.933,-250.452 718.904,-248.017"/>
<polygon fill="midnightblue" stroke="midnightblue" points="587.8,-426.084 588.039,-436.676 594.458,-428.247 587.8,-426.084"/>
</g>
<!-- Node31 -->
<g id="node61" class="node"><title>Node31</title>
<a xlink:href="class_kitware_1_1_v_t_k_1_1vtk_rectilinear_wipe_widget.html" target="_top" xlink:title="vtkRectilinearWipeWidget &#45; interactively control an instance of vtkImageRectilinearWipe filter...">
<polygon fill="none" stroke="black" points="706.5,-190 706.5,-210 899.5,-210 899.5,-190 706.5,-190"/>
<text text-anchor="middle" x="803" y="-197" font-family="FreeSans" font-size="10.00">Kitware.VTK.vtkRectilinearWipeWidget</text>
</a>
</g>
<!-- Node1&#45;&gt;Node31 -->
<g id="edge60" class="edge"><title>Node1&#45;&gt;Node31</title>
<path fill="none" stroke="midnightblue" d="M589.104,-426.716C599.38,-381.501 630.681,-272.246 702,-219 706.718,-215.478 711.898,-212.548 717.343,-210.116"/>
<polygon fill="midnightblue" stroke="midnightblue" points="585.625,-426.245 586.932,-436.759 592.467,-427.724 585.625,-426.245"/>
</g>
<!-- Node32 -->
<g id="node63" class="node"><title>Node32</title>
<a xlink:href="class_kitware_1_1_v_t_k_1_1vtk_seed_widget.html" target="_top" xlink:title="vtkSeedWidget &#45; place multiple seed points">
<polygon fill="none" stroke="black" points="730,-152 730,-172 876,-172 876,-152 730,-152"/>
<text text-anchor="middle" x="803" y="-159" font-family="FreeSans" font-size="10.00">Kitware.VTK.vtkSeedWidget</text>
</a>
</g>
<!-- Node1&#45;&gt;Node32 -->
<g id="edge62" class="edge"><title>Node1&#45;&gt;Node32</title>
<path fill="none" stroke="midnightblue" d="M587.488,-426.849C594.825,-376.597 621.196,-245.173 702,-181 710.104,-174.564 719.72,-170.069 729.747,-166.966"/>
<polygon fill="midnightblue" stroke="midnightblue" points="584.015,-426.413 586.134,-436.794 590.951,-427.357 584.015,-426.413"/>
</g>
<!-- Node33 -->
<g id="node65" class="node"><title>Node33</title>
<a xlink:href="class_kitware_1_1_v_t_k_1_1vtk_slider_widget.html" target="_top" xlink:title="vtkSliderWidget &#45; set a value by manipulating a slider">
<polygon fill="none" stroke="black" points="728.5,-114 728.5,-134 877.5,-134 877.5,-114 728.5,-114"/>
<text text-anchor="middle" x="803" y="-121" font-family="FreeSans" font-size="10.00">Kitware.VTK.vtkSliderWidget</text>
</a>
</g>
<!-- Node1&#45;&gt;Node33 -->
<g id="edge64" class="edge"><title>Node1&#45;&gt;Node33</title>
<path fill="none" stroke="midnightblue" d="M586.285,-426.668C590.929,-371.517 611.751,-218.198 702,-143 709.676,-136.604 718.827,-132.097 728.44,-128.959"/>
<polygon fill="midnightblue" stroke="midnightblue" points="582.776,-426.65 585.52,-436.883 589.757,-427.172 582.776,-426.65"/>
</g>
<!-- Node34 -->
<g id="node67" class="node"><title>Node34</title>
<a xlink:href="class_kitware_1_1_v_t_k_1_1vtk_sphere_widget2.html" target="_top" xlink:title="vtkSphereWidget2 &#45; 3D widget for manipulating a point on a sphere">
<polygon fill="none" stroke="black" points="722,-76 722,-96 884,-96 884,-76 722,-76"/>
<text text-anchor="middle" x="803" y="-83" font-family="FreeSans" font-size="10.00">Kitware.VTK.vtkSphereWidget2</text>
</a>
</g>
<!-- Node1&#45;&gt;Node34 -->
<g id="edge66" class="edge"><title>Node1&#45;&gt;Node34</title>
<path fill="none" stroke="midnightblue" d="M589.106,-426.945C603.113,-360.484 650.984,-149.166 702,-105 707.8,-99.9783 714.502,-96.1076 721.638,-93.1428"/>
<polygon fill="midnightblue" stroke="midnightblue" points="585.632,-426.461 587.021,-436.965 592.485,-427.888 585.632,-426.461"/>
</g>
<!-- Node35 -->
<g id="node69" class="node"><title>Node35</title>
<a xlink:href="class_kitware_1_1_v_t_k_1_1vtk_spline_widget2.html" target="_top" xlink:title="vtkSplineWidget2 &#45; widget for vtkSplineRepresentation.">
<polygon fill="none" stroke="black" points="724.5,-38 724.5,-58 881.5,-58 881.5,-38 724.5,-38"/>
<text text-anchor="middle" x="803" y="-45" font-family="FreeSans" font-size="10.00">Kitware.VTK.vtkSplineWidget2</text>
</a>
</g>
<!-- Node1&#45;&gt;Node35 -->
<g id="edge68" class="edge"><title>Node1&#45;&gt;Node35</title>
<path fill="none" stroke="midnightblue" d="M588.366,-427.068C600.759,-356.055 646.045,-116.977 702,-67 708.521,-61.1761 716.245,-56.8855 724.474,-53.7547"/>
<polygon fill="midnightblue" stroke="midnightblue" points="584.909,-426.519 586.663,-436.968 591.808,-427.706 584.909,-426.519"/>
</g>
<!-- Node36 -->
<g id="node71" class="node"><title>Node36</title>
<a xlink:href="class_kitware_1_1_v_t_k_1_1vtk_tensor_probe_widget.html" target="_top" xlink:title="vtkTensorProbeWidget &#45; a widget to probe tensors on a polyline">
<polygon fill="none" stroke="black" points="713,-0 713,-20 893,-20 893,-0 713,-0"/>
<text text-anchor="middle" x="803" y="-7" font-family="FreeSans" font-size="10.00">Kitware.VTK.vtkTensorProbeWidget</text>
</a>
</g>
<!-- Node1&#45;&gt;Node36 -->
<g id="edge70" class="edge"><title>Node1&#45;&gt;Node36</title>
<path fill="none" stroke="midnightblue" d="M587.848,-426.583C598.882,-350.461 641.234,-84.6984 702,-29 705.814,-25.5038 710.061,-22.5558 714.592,-20.0768"/>
<polygon fill="midnightblue" stroke="midnightblue" points="584.345,-426.359 586.398,-436.753 591.275,-427.347 584.345,-426.359"/>
</g>
<!-- Node2 -->
<g id="node2" class="node"><title>Node2</title>
<a xlink:href="class_kitware_1_1_v_t_k_1_1vtk_interactor_observer.html" target="_top" xlink:title="vtkInteractorObserver &#45; an abstract superclass for classes observing events invoked by vtkRenderWindo...">
<polygon fill="none" stroke="black" points="346.5,-437 346.5,-457 467.5,-457 467.5,-437 346.5,-437"/>
<text text-anchor="middle" x="407" y="-444" font-family="FreeSans" font-size="10.00">vtkInteractorObserver</text>
</a>
</g>
<!-- Node2&#45;&gt;Node1 -->
<g id="edge2" class="edge"><title>Node2&#45;&gt;Node1</title>
<path fill="none" stroke="midnightblue" d="M477.96,-447C486.433,-447 495.134,-447 503.737,-447"/>
<polygon fill="midnightblue" stroke="midnightblue" points="477.76,-443.5 467.76,-447 477.76,-450.5 477.76,-443.5"/>
</g>
<!-- Node3 -->
<g id="node4" class="node"><title>Node3</title>
<a xlink:href="class_kitware_1_1_v_t_k_1_1vtk_object.html" target="_top" xlink:title="vtkObject &#45; abstract base class for most VTK objects">
<polygon fill="none" stroke="black" points="248,-437 248,-457 310,-457 310,-437 248,-437"/>
<text text-anchor="middle" x="279" y="-444" font-family="FreeSans" font-size="10.00">vtkObject</text>
</a>
</g>
<!-- Node3&#45;&gt;Node2 -->
<g id="edge4" class="edge"><title>Node3&#45;&gt;Node2</title>
<path fill="none" stroke="midnightblue" d="M320.479,-447C328.791,-447 337.684,-447 346.488,-447"/>
<polygon fill="midnightblue" stroke="midnightblue" points="320.312,-443.5 310.312,-447 320.312,-450.5 320.312,-443.5"/>
</g>
<!-- Node4 -->
<g id="node6" class="node"><title>Node4</title>
<a xlink:href="class_kitware_1_1_v_t_k_1_1vtk_object_base.html" target="_top" xlink:title="vtkObjectBase &#45; abstract base class for most VTK objects">
<polygon fill="none" stroke="black" points="126,-437 126,-457 212,-457 212,-437 126,-437"/>
<text text-anchor="middle" x="169" y="-444" font-family="FreeSans" font-size="10.00">vtkObjectBase</text>
</a>
</g>
<!-- Node4&#45;&gt;Node3 -->
<g id="edge6" class="edge"><title>Node4&#45;&gt;Node3</title>
<path fill="none" stroke="midnightblue" d="M222.346,-447C231.091,-447 239.892,-447 247.863,-447"/>
<polygon fill="midnightblue" stroke="midnightblue" points="222.159,-443.5 212.159,-447 222.159,-450.5 222.159,-443.5"/>
</g>
<!-- Node5 -->
<g id="node8" class="node"><title>Node5</title>
<a xlink:href="class_kitware_1_1_v_t_k_1_1_wrapped_object.html" target="_top" xlink:title="Base class for all the mummy wrapped classes in Kitware.VTK.">
<polygon fill="none" stroke="black" points="0.5,-437 0.5,-457 89.5,-457 89.5,-437 0.5,-437"/>
<text text-anchor="middle" x="45" y="-444" font-family="FreeSans" font-size="10.00">WrappedObject</text>
</a>
</g>
<!-- Node5&#45;&gt;Node4 -->
<g id="edge8" class="edge"><title>Node5&#45;&gt;Node4</title>
<path fill="none" stroke="midnightblue" d="M99.8895,-447C108.623,-447 117.548,-447 125.957,-447"/>
<polygon fill="midnightblue" stroke="midnightblue" points="99.7669,-443.5 89.7668,-447 99.7668,-450.5 99.7669,-443.5"/>
</g>
<!-- Node11 -->
<g id="node21" class="node"><title>Node11</title>
<a xlink:href="class_kitware_1_1_v_t_k_1_1vtk_camera_widget.html" target="_top" xlink:title="vtkCameraWidget &#45; 2D widget for saving a series of camera views">
<polygon fill="none" stroke="black" points="944,-817 944,-837 1104,-837 1104,-817 944,-817"/>
<text text-anchor="middle" x="1024" y="-824" font-family="FreeSans" font-size="10.00">Kitware.VTK.vtkCameraWidget</text>
</a>
</g>
<!-- Node10&#45;&gt;Node11 -->
<g id="edge20" class="edge"><title>Node10&#45;&gt;Node11</title>
<path fill="none" stroke="midnightblue" d="M889.5,-743.11C894.596,-745.322 899.48,-747.93 904,-751 928.785,-767.837 915.526,-790.714 940,-808 945.129,-811.623 950.836,-814.569 956.794,-816.962"/>
<polygon fill="midnightblue" stroke="midnightblue" points="890.722,-739.83 880.131,-739.542 888.23,-746.372 890.722,-739.83"/>
</g>
<!-- Node12 -->
<g id="node23" class="node"><title>Node12</title>
<a xlink:href="class_kitware_1_1_v_t_k_1_1vtk_caption_widget.html" target="_top" xlink:title="vtkCaptionWidget &#45; widget for placing a caption (text plus leader)">
<polygon fill="none" stroke="black" points="945,-779 945,-799 1103,-799 1103,-779 945,-779"/>
<text text-anchor="middle" x="1024" y="-786" font-family="FreeSans" font-size="10.00">Kitware.VTK.vtkCaptionWidget</text>
</a>
</g>
<!-- Node10&#45;&gt;Node12 -->
<g id="edge22" class="edge"><title>Node10&#45;&gt;Node12</title>
<path fill="none" stroke="midnightblue" d="M881.424,-744.336C889.135,-746.268 896.775,-748.478 904,-751 921.081,-756.961 923.03,-763.728 940,-770 949.396,-773.473 959.628,-776.43 969.614,-778.902"/>
<polygon fill="midnightblue" stroke="midnightblue" points="882.178,-740.918 871.642,-742.035 880.575,-747.732 882.178,-740.918"/>
</g>
<!-- Node13 -->
<g id="node25" class="node"><title>Node13</title>
<a xlink:href="class_kitware_1_1_v_t_k_1_1vtk_logo_widget.html" target="_top" xlink:title="vtkLogoWidget &#45; 2D widget for placing and manipulating a logo">
<polygon fill="none" stroke="black" points="951.5,-741 951.5,-761 1096.5,-761 1096.5,-741 951.5,-741"/>
<text text-anchor="middle" x="1024" y="-748" font-family="FreeSans" font-size="10.00">Kitware.VTK.vtkLogoWidget</text>
</a>
</g>
<!-- Node10&#45;&gt;Node13 -->
<g id="edge24" class="edge"><title>Node10&#45;&gt;Node13</title>
<path fill="none" stroke="midnightblue" d="M890.399,-739.514C910.541,-741.246 931.756,-743.07 951.201,-744.741"/>
<polygon fill="midnightblue" stroke="midnightblue" points="890.558,-736.015 880.295,-738.645 889.958,-742.989 890.558,-736.015"/>
</g>
<!-- Node14 -->
<g id="node27" class="node"><title>Node14</title>
<a xlink:href="class_kitware_1_1_v_t_k_1_1vtk_playback_widget.html" target="_top" xlink:title="vtkPlaybackWidget &#45; 2D widget for controlling a playback stream">
<polygon fill="none" stroke="black" points="942,-703 942,-723 1106,-723 1106,-703 942,-703"/>
<text text-anchor="middle" x="1024" y="-710" font-family="FreeSans" font-size="10.00">Kitware.VTK.vtkPlaybackWidget</text>
</a>
</g>
<!-- Node10&#45;&gt;Node14 -->
<g id="edge26" class="edge"><title>Node10&#45;&gt;Node14</title>
<path fill="none" stroke="midnightblue" d="M890.69,-724.461C907.562,-723.01 925.176,-721.496 941.865,-720.061"/>
<polygon fill="midnightblue" stroke="midnightblue" points="889.958,-721.011 880.295,-725.355 890.558,-727.985 889.958,-721.011"/>
</g>
<!-- Node15 -->
<g id="node29" class="node"><title>Node15</title>
<a xlink:href="class_kitware_1_1_v_t_k_1_1vtk_scalar_bar_widget.html" target="_top" xlink:title="vtkScalarBarWidget &#45; 2D widget for manipulating a scalar bar">
<polygon fill="none" stroke="black" points="940,-665 940,-685 1108,-685 1108,-665 940,-665"/>
<text text-anchor="middle" x="1024" y="-672" font-family="FreeSans" font-size="10.00">Kitware.VTK.vtkScalarBarWidget</text>
</a>
</g>
<!-- Node10&#45;&gt;Node15 -->
<g id="edge28" class="edge"><title>Node10&#45;&gt;Node15</title>
<path fill="none" stroke="midnightblue" d="M881.424,-719.664C889.135,-717.732 896.775,-715.522 904,-713 921.081,-707.039 923.03,-700.272 940,-694 949.396,-690.527 959.628,-687.57 969.614,-685.098"/>
<polygon fill="midnightblue" stroke="midnightblue" points="880.575,-716.268 871.642,-721.965 882.178,-723.082 880.575,-716.268"/>
</g>
<!-- Node16 -->
<g id="node31" class="node"><title>Node16</title>
<a xlink:href="class_kitware_1_1_v_t_k_1_1vtk_text_widget.html" target="_top" xlink:title="vtkTextWidget &#45; widget for placing text on overlay plane">
<polygon fill="none" stroke="black" points="954,-627 954,-647 1094,-647 1094,-627 954,-627"/>
<text text-anchor="middle" x="1024" y="-634" font-family="FreeSans" font-size="10.00">Kitware.VTK.vtkTextWidget</text>
</a>
</g>
<!-- Node10&#45;&gt;Node16 -->
<g id="edge30" class="edge"><title>Node10&#45;&gt;Node16</title>
<path fill="none" stroke="midnightblue" d="M889.5,-720.89C894.596,-718.678 899.48,-716.07 904,-713 928.785,-696.163 915.526,-673.286 940,-656 945.129,-652.377 950.836,-649.431 956.794,-647.038"/>
<polygon fill="midnightblue" stroke="midnightblue" points="888.23,-717.628 880.131,-724.458 890.722,-724.17 888.23,-717.628"/>
</g>
<!-- Node27 -->
<g id="node53" class="node"><title>Node27</title>
<a xlink:href="class_kitware_1_1_v_t_k_1_1vtk_balloon_widget.html" target="_top" xlink:title="vtkBalloonWidget &#45; popup text balloons above instance of vtkProp when hovering occurs">
<polygon fill="none" stroke="black" points="945.5,-342 945.5,-362 1102.5,-362 1102.5,-342 945.5,-342"/>
<text text-anchor="middle" x="1024" y="-349" font-family="FreeSans" font-size="10.00">Kitware.VTK.vtkBalloonWidget</text>
</a>
</g>
<!-- Node26&#45;&gt;Node27 -->
<g id="edge52" class="edge"><title>Node26&#45;&gt;Node27</title>
<path fill="none" stroke="midnightblue" d="M888.15,-352C906.948,-352 926.78,-352 945.308,-352"/>
<polygon fill="midnightblue" stroke="midnightblue" points="888.129,-348.5 878.129,-352 888.129,-355.5 888.129,-348.5"/>
</g>
</g>
</svg>
