<?xml version="1.0" encoding="UTF-8" standalone="no"?>
<!DOCTYPE svg PUBLIC "-//W3C//DTD SVG 1.1//EN"
 "http://www.w3.org/Graphics/SVG/1.1/DTD/svg11.dtd">
<!-- Generated by graphviz version 2.26.3 (20100126.1600)
 -->
<!-- Title: G Pages: 1 -->
<svg width="806pt" height="142pt"
 viewBox="0.00 0.00 806.00 142.00" xmlns="http://www.w3.org/2000/svg" xmlns:xlink="http://www.w3.org/1999/xlink">
<g id="graph1" class="graph" transform="scale(1 1) rotate(0) translate(4 138)">
<title>G</title>
<!-- Node1 -->
<g id="node1" class="node"><title>Node1</title>
<polygon fill="#bfbfbf" stroke="black" points="346.5,-57 346.5,-77 513.5,-77 513.5,-57 346.5,-57"/>
<text text-anchor="middle" x="430" y="-64" font-family="FreeSans" font-size="10.00">Kitware.VTK.vtkExtentTranslator</text>
</g>
<!-- Node5 -->
<g id="node9" class="node"><title>Node5</title>
<a xlink:href="class_kitware_1_1_v_t_k_1_1vtk_branch_extent_translator.html" target="_top" xlink:title="vtkBranchExtentTranslator &#45; Uses alternative source for whole extent.">
<polygon fill="none" stroke="black" points="574,-114 574,-134 774,-134 774,-114 574,-114"/>
<text text-anchor="middle" x="674" y="-121" font-family="FreeSans" font-size="10.00">Kitware.VTK.vtkBranchExtentTranslator</text>
</a>
</g>
<!-- Node1&#45;&gt;Node5 -->
<g id="edge8" class="edge"><title>Node1&#45;&gt;Node5</title>
<path fill="none" stroke="midnightblue" d="M467.35,-80.4707C490.824,-88.5249 521.883,-98.4356 550,-105 564.846,-108.466 580.844,-111.457 596.255,-113.974"/>
<polygon fill="midnightblue" stroke="midnightblue" points="468.38,-77.1232 457.785,-77.1478 466.082,-83.7356 468.38,-77.1232"/>
</g>
<!-- Node6 -->
<g id="node11" class="node"><title>Node6</title>
<a xlink:href="class_kitware_1_1_v_t_k_1_1vtk_image_data_l_i_c2_d_extent_translator.html" target="_top" xlink:title="vtkImageDataLIC2DExtentTranslator">
<polygon fill="none" stroke="black" points="550,-76 550,-96 798,-96 798,-76 550,-76"/>
<text text-anchor="middle" x="674" y="-83" font-family="FreeSans" font-size="10.00">Kitware.VTK.vtkImageDataLIC2DExtentTranslator</text>
</a>
</g>
<!-- Node1&#45;&gt;Node6 -->
<g id="edge10" class="edge"><title>Node1&#45;&gt;Node6</title>
<path fill="none" stroke="midnightblue" d="M523.637,-74.2914C532.25,-74.9621 541.063,-75.6483 549.89,-76.3357"/>
<polygon fill="midnightblue" stroke="midnightblue" points="523.871,-70.7991 513.63,-73.5121 523.328,-77.778 523.871,-70.7991"/>
</g>
<!-- Node7 -->
<g id="node13" class="node"><title>Node7</title>
<a xlink:href="class_kitware_1_1_v_t_k_1_1vtk_one_piece_extent_translator.html" target="_top" xlink:title="vtkOnePieceExtentTranslator &#45; Returns the whole extent for any piece.. vtkOnePieceExtentTranslator re...">
<polygon fill="none" stroke="black" points="568,-38 568,-58 780,-58 780,-38 568,-38"/>
<text text-anchor="middle" x="674" y="-45" font-family="FreeSans" font-size="10.00">Kitware.VTK.vtkOnePieceExtentTranslator</text>
</a>
</g>
<!-- Node1&#45;&gt;Node7 -->
<g id="edge12" class="edge"><title>Node1&#45;&gt;Node7</title>
<path fill="none" stroke="midnightblue" d="M523.935,-59.6854C538.236,-58.5718 553.081,-57.4158 567.625,-56.2833"/>
<polygon fill="midnightblue" stroke="midnightblue" points="523.328,-56.222 513.63,-60.4879 523.871,-63.2009 523.328,-56.222"/>
</g>
<!-- Node8 -->
<g id="node15" class="node"><title>Node8</title>
<a xlink:href="class_kitware_1_1_v_t_k_1_1vtk_table_extent_translator.html" target="_top" xlink:title="vtkTableExtentTranslator &#45; Extent translation through lookup table.">
<polygon fill="none" stroke="black" points="578.5,-0 578.5,-20 769.5,-20 769.5,-0 578.5,-0"/>
<text text-anchor="middle" x="674" y="-7" font-family="FreeSans" font-size="10.00">Kitware.VTK.vtkTableExtentTranslator</text>
</a>
</g>
<!-- Node1&#45;&gt;Node8 -->
<g id="edge14" class="edge"><title>Node1&#45;&gt;Node8</title>
<path fill="none" stroke="midnightblue" d="M467.35,-53.5293C490.824,-45.4751 521.883,-35.5644 550,-29 564.846,-25.5339 580.844,-22.5428 596.255,-20.0259"/>
<polygon fill="midnightblue" stroke="midnightblue" points="466.082,-50.2644 457.785,-56.8522 468.38,-56.8768 466.082,-50.2644"/>
</g>
<!-- Node2 -->
<g id="node2" class="node"><title>Node2</title>
<a xlink:href="class_kitware_1_1_v_t_k_1_1vtk_object.html" target="_top" xlink:title="vtkObject &#45; abstract base class for most VTK objects">
<polygon fill="none" stroke="black" points="248,-57 248,-77 310,-77 310,-57 248,-57"/>
<text text-anchor="middle" x="279" y="-64" font-family="FreeSans" font-size="10.00">vtkObject</text>
</a>
</g>
<!-- Node2&#45;&gt;Node1 -->
<g id="edge2" class="edge"><title>Node2&#45;&gt;Node1</title>
<path fill="none" stroke="midnightblue" d="M320.546,-67C328.673,-67 337.463,-67 346.406,-67"/>
<polygon fill="midnightblue" stroke="midnightblue" points="320.287,-63.5001 310.287,-67 320.287,-70.5001 320.287,-63.5001"/>
</g>
<!-- Node3 -->
<g id="node4" class="node"><title>Node3</title>
<a xlink:href="class_kitware_1_1_v_t_k_1_1vtk_object_base.html" target="_top" xlink:title="vtkObjectBase &#45; abstract base class for most VTK objects">
<polygon fill="none" stroke="black" points="126,-57 126,-77 212,-77 212,-57 126,-57"/>
<text text-anchor="middle" x="169" y="-64" font-family="FreeSans" font-size="10.00">vtkObjectBase</text>
</a>
</g>
<!-- Node3&#45;&gt;Node2 -->
<g id="edge4" class="edge"><title>Node3&#45;&gt;Node2</title>
<path fill="none" stroke="midnightblue" d="M222.346,-67C231.091,-67 239.892,-67 247.863,-67"/>
<polygon fill="midnightblue" stroke="midnightblue" points="222.159,-63.5001 212.159,-67 222.159,-70.5001 222.159,-63.5001"/>
</g>
<!-- Node4 -->
<g id="node6" class="node"><title>Node4</title>
<a xlink:href="class_kitware_1_1_v_t_k_1_1_wrapped_object.html" target="_top" xlink:title="Base class for all the mummy wrapped classes in Kitware.VTK.">
<polygon fill="none" stroke="black" points="0.5,-57 0.5,-77 89.5,-77 89.5,-57 0.5,-57"/>
<text text-anchor="middle" x="45" y="-64" font-family="FreeSans" font-size="10.00">WrappedObject</text>
</a>
</g>
<!-- Node4&#45;&gt;Node3 -->
<g id="edge6" class="edge"><title>Node4&#45;&gt;Node3</title>
<path fill="none" stroke="midnightblue" d="M99.8895,-67C108.623,-67 117.548,-67 125.957,-67"/>
<polygon fill="midnightblue" stroke="midnightblue" points="99.7669,-63.5001 89.7668,-67 99.7668,-70.5001 99.7669,-63.5001"/>
</g>
</g>
</svg>
