<?xml version="1.0" encoding="UTF-8" standalone="no"?>
<!DOCTYPE svg PUBLIC "-//W3C//DTD SVG 1.1//EN"
 "http://www.w3.org/Graphics/SVG/1.1/DTD/svg11.dtd">
<!-- Generated by graphviz version 2.26.3 (20100126.1600)
 -->
<!-- Title: G Pages: 1 -->
<svg width="486pt" height="770pt"
 viewBox="0.00 0.00 486.46 770.00" xmlns="http://www.w3.org/2000/svg" xmlns:xlink="http://www.w3.org/1999/xlink">
<g id="graph1" class="graph" transform="scale(1 1) rotate(0) translate(4 766)">
<title>G</title>
<!-- Node1 -->
<g id="node1" class="node"><title>Node1</title>
<polygon fill="#bfbfbf" stroke="black" points="-0.5,-1 -0.5,-21 300.5,-21 300.5,-1 -0.5,-1"/>
<text text-anchor="middle" x="150" y="-8" font-family="FreeSans" font-size="10.00">Kitware.VTK.vtkOpenGLCoincidentTopologyResolutionPainter</text>
</g>
<!-- Node2 -->
<g id="node2" class="node"><title>Node2</title>
<a xlink:href="class_kitware_1_1_v_t_k_1_1vtk_coincident_topology_resolution_painter.html" target="_top" xlink:title="vtkCoincidentTopologyResolutionPainter &#45; painter that resolves conicident topology.">
<polygon fill="none" stroke="black" points="48,-61 48,-81 252,-81 252,-61 48,-61"/>
<text text-anchor="middle" x="150" y="-68" font-family="FreeSans" font-size="10.00">vtkCoincidentTopologyResolutionPainter</text>
</a>
</g>
<!-- Node2&#45;&gt;Node1 -->
<g id="edge2" class="edge"><title>Node2&#45;&gt;Node1</title>
<path fill="none" stroke="midnightblue" d="M150,-50.5155C150,-40.562 150,-29.0495 150,-21.0279"/>
<polygon fill="midnightblue" stroke="midnightblue" points="146.5,-50.8218 150,-60.8218 153.5,-50.8219 146.5,-50.8218"/>
</g>
<!-- Node3 -->
<g id="node4" class="node"><title>Node3</title>
<a xlink:href="class_kitware_1_1_v_t_k_1_1vtk_poly_data_painter.html" target="_top" xlink:title="vtkPolyDataPainter &#45; Abstract class for drawing poly data.">
<polygon fill="none" stroke="black" points="96.5,-121 96.5,-141 203.5,-141 203.5,-121 96.5,-121"/>
<text text-anchor="middle" x="150" y="-128" font-family="FreeSans" font-size="10.00">vtkPolyDataPainter</text>
</a>
</g>
<!-- Node3&#45;&gt;Node2 -->
<g id="edge4" class="edge"><title>Node3&#45;&gt;Node2</title>
<path fill="none" stroke="midnightblue" d="M150,-110.516C150,-100.562 150,-89.0495 150,-81.0279"/>
<polygon fill="midnightblue" stroke="midnightblue" points="146.5,-110.822 150,-120.822 153.5,-110.822 146.5,-110.822"/>
</g>
<!-- Node4 -->
<g id="node6" class="node"><title>Node4</title>
<a xlink:href="class_kitware_1_1_v_t_k_1_1vtk_painter.html" target="_top" xlink:title="vtkPainter &#45; Abstract class for drawing poly data.">
<polygon fill="none" stroke="black" points="118,-181 118,-201 182,-201 182,-181 118,-181"/>
<text text-anchor="middle" x="150" y="-188" font-family="FreeSans" font-size="10.00">vtkPainter</text>
</a>
</g>
<!-- Node4&#45;&gt;Node3 -->
<g id="edge6" class="edge"><title>Node4&#45;&gt;Node3</title>
<path fill="none" stroke="midnightblue" d="M150,-170.516C150,-160.562 150,-149.05 150,-141.028"/>
<polygon fill="midnightblue" stroke="midnightblue" points="146.5,-170.822 150,-180.822 153.5,-170.822 146.5,-170.822"/>
</g>
<!-- Node5 -->
<g id="node8" class="node"><title>Node5</title>
<a xlink:href="class_kitware_1_1_v_t_k_1_1vtk_object.html" target="_top" xlink:title="vtkObject &#45; abstract base class for most VTK objects">
<polygon fill="none" stroke="black" points="119,-241 119,-261 181,-261 181,-241 119,-241"/>
<text text-anchor="middle" x="150" y="-248" font-family="FreeSans" font-size="10.00">vtkObject</text>
</a>
</g>
<!-- Node5&#45;&gt;Node4 -->
<g id="edge8" class="edge"><title>Node5&#45;&gt;Node4</title>
<path fill="none" stroke="midnightblue" d="M150,-230.516C150,-220.562 150,-209.05 150,-201.028"/>
<polygon fill="midnightblue" stroke="midnightblue" points="146.5,-230.822 150,-240.822 153.5,-230.822 146.5,-230.822"/>
</g>
<!-- Node6 -->
<g id="node10" class="node"><title>Node6</title>
<a xlink:href="class_kitware_1_1_v_t_k_1_1vtk_object_base.html" target="_top" xlink:title="vtkObjectBase &#45; abstract base class for most VTK objects">
<polygon fill="none" stroke="black" points="170,-681 170,-701 256,-701 256,-681 170,-681"/>
<text text-anchor="middle" x="213" y="-688" font-family="FreeSans" font-size="10.00">vtkObjectBase</text>
</a>
</g>
<!-- Node6&#45;&gt;Node5 -->
<g id="edge10" class="edge"><title>Node6&#45;&gt;Node5</title>
<path fill="none" stroke="midnightblue" d="M184.423,-675.886C170.687,-667.44 154.884,-655.826 144,-642 132.156,-626.955 131.621,-620.802 128,-602 102.425,-469.199 137.577,-303.437 147.516,-261.17"/>
<polygon fill="midnightblue" stroke="midnightblue" points="182.683,-678.923 193.079,-680.97 186.229,-672.887 182.683,-678.923"/>
</g>
<!-- Node9 -->
<g id="node17" class="node"><title>Node9</title>
<a xlink:href="class_kitware_1_1_v_t_k_1_1vtk_object.html" target="_top" xlink:title="vtkObject &#45; abstract base class for most VTK objects">
<polygon fill="none" stroke="black" points="153,-621 153,-641 273,-641 273,-621 153,-621"/>
<text text-anchor="middle" x="213" y="-628" font-family="FreeSans" font-size="10.00">Kitware.VTK.vtkObject</text>
</a>
</g>
<!-- Node6&#45;&gt;Node9 -->
<g id="edge20" class="edge"><title>Node6&#45;&gt;Node9</title>
<path fill="none" stroke="midnightblue" d="M213,-670.516C213,-660.562 213,-649.05 213,-641.028"/>
<polygon fill="midnightblue" stroke="midnightblue" points="209.5,-670.822 213,-680.822 216.5,-670.822 209.5,-670.822"/>
</g>
<!-- Node7 -->
<g id="node12" class="node"><title>Node7</title>
<a xlink:href="class_kitware_1_1_v_t_k_1_1_wrapped_object.html" target="_top" xlink:title="Base class for all the mummy wrapped classes in Kitware.VTK.">
<polygon fill="none" stroke="black" points="351.5,-741 351.5,-761 440.5,-761 440.5,-741 351.5,-741"/>
<text text-anchor="middle" x="396" y="-748" font-family="FreeSans" font-size="10.00">WrappedObject</text>
</a>
</g>
<!-- Node7&#45;&gt;Node6 -->
<g id="edge12" class="edge"><title>Node7&#45;&gt;Node6</title>
<path fill="none" stroke="midnightblue" d="M355.804,-737.821C322.042,-726.752 274.512,-711.168 243.73,-701.075"/>
<polygon fill="midnightblue" stroke="midnightblue" points="354.777,-741.168 365.37,-740.957 356.958,-734.516 354.777,-741.168"/>
</g>
<!-- Node8 -->
<g id="node14" class="node"><title>Node8</title>
<a xlink:href="class_kitware_1_1_v_t_k_1_1vtk_object_event_relay.html" target="_top" xlink:title="Implement a relay handler for VTK events. This is a class that receives events directly from the VTK ...">
<polygon fill="none" stroke="black" points="142,-431 142,-451 314,-451 314,-431 142,-431"/>
<text text-anchor="middle" x="228" y="-438" font-family="FreeSans" font-size="10.00">Kitware.VTK.vtkObjectEventRelay</text>
</a>
</g>
<!-- Node7&#45;&gt;Node8 -->
<g id="edge16" class="edge"><title>Node7&#45;&gt;Node8</title>
<path fill="none" stroke="midnightblue" d="M408.888,-732.325C441.276,-682.899 518.803,-547.191 451,-470 441.773,-459.495 373.047,-451.666 314.298,-446.808"/>
<polygon fill="midnightblue" stroke="midnightblue" points="405.891,-730.509 403.239,-740.767 411.709,-734.402 405.891,-730.509"/>
</g>
<!-- Node8&#45;&gt;Node5 -->
<g id="edge14" class="edge"><title>Node8&#45;&gt;Node5</title>
<path fill="none" stroke="#9a32cd" stroke-dasharray="5,2" d="M219.921,-421.321C203.489,-381.293 166.674,-291.616 154.214,-261.266"/>
<polygon fill="#9a32cd" stroke="#9a32cd" points="216.771,-422.863 223.806,-430.785 223.246,-420.205 216.771,-422.863"/>
<text text-anchor="middle" x="327.5" y="-403" font-family="FreeSans" font-size="10.00"> LeftButtonReleaseEvtRelay</text>
<text text-anchor="middle" x="327.5" y="-391" font-family="FreeSans" font-size="10.00">KeyPressEvtRelay</text>
<text text-anchor="middle" x="327.5" y="-379" font-family="FreeSans" font-size="10.00">DomainModifiedEvtRelay</text>
<text text-anchor="middle" x="327.5" y="-367" font-family="FreeSans" font-size="10.00">VolumeMapperComputeGradientsStartEvtRelay</text>
<text text-anchor="middle" x="327.5" y="-355" font-family="FreeSans" font-size="10.00">ErrorEvtRelay</text>
<text text-anchor="middle" x="327.5" y="-343" font-family="FreeSans" font-size="10.00">VolumeMapperRenderStartEvtRelay</text>
<text text-anchor="middle" x="327.5" y="-331" font-family="FreeSans" font-size="10.00">StartEvtRelay</text>
<text text-anchor="middle" x="327.5" y="-319" font-family="FreeSans" font-size="10.00">ResetCameraEvtRelay</text>
<text text-anchor="middle" x="327.5" y="-307" font-family="FreeSans" font-size="10.00">EnableEvtRelay</text>
<text text-anchor="middle" x="327.5" y="-295" font-family="FreeSans" font-size="10.00">DeleteEvtRelay</text>
<text text-anchor="middle" x="327.5" y="-283" font-family="FreeSans" font-size="10.00">...</text>
</g>
<!-- Node8&#45;&gt;Node9 -->
<g id="edge22" class="edge"><title>Node8&#45;&gt;Node9</title>
<path fill="none" stroke="#9a32cd" stroke-dasharray="5,2" d="M225.028,-461.231C224.649,-464.169 224.293,-467.159 224,-470 218.144,-526.853 214.636,-595.333 213.452,-620.807"/>
<polygon fill="#9a32cd" stroke="#9a32cd" points="228.515,-461.565 226.421,-451.179 221.582,-460.604 228.515,-461.565"/>
<text text-anchor="middle" x="337.5" y="-593" font-family="FreeSans" font-size="10.00"> LeftButtonReleaseEvtRelay</text>
<text text-anchor="middle" x="337.5" y="-581" font-family="FreeSans" font-size="10.00">KeyPressEvtRelay</text>
<text text-anchor="middle" x="337.5" y="-569" font-family="FreeSans" font-size="10.00">DomainModifiedEvtRelay</text>
<text text-anchor="middle" x="337.5" y="-557" font-family="FreeSans" font-size="10.00">VolumeMapperComputeGradientsStartEvtRelay</text>
<text text-anchor="middle" x="337.5" y="-545" font-family="FreeSans" font-size="10.00">ErrorEvtRelay</text>
<text text-anchor="middle" x="337.5" y="-533" font-family="FreeSans" font-size="10.00">VolumeMapperRenderStartEvtRelay</text>
<text text-anchor="middle" x="337.5" y="-521" font-family="FreeSans" font-size="10.00">StartEvtRelay</text>
<text text-anchor="middle" x="337.5" y="-509" font-family="FreeSans" font-size="10.00">ResetCameraEvtRelay</text>
<text text-anchor="middle" x="337.5" y="-497" font-family="FreeSans" font-size="10.00">EnableEvtRelay</text>
<text text-anchor="middle" x="337.5" y="-485" font-family="FreeSans" font-size="10.00">DeleteEvtRelay</text>
<text text-anchor="middle" x="337.5" y="-473" font-family="FreeSans" font-size="10.00">...</text>
</g>
<!-- Node9&#45;&gt;Node8 -->
<g id="edge18" class="edge"><title>Node9&#45;&gt;Node8</title>
<path fill="none" stroke="#9a32cd" stroke-dasharray="5,2" d="M166.979,-615.818C161.439,-612.138 156.51,-607.596 153,-602 121.823,-552.303 119.83,-518.389 153,-470 157.736,-463.091 174.511,-456.287 190.999,-451.008"/>
<polygon fill="#9a32cd" stroke="#9a32cd" points="165.639,-619.079 176.072,-620.919 169.064,-612.974 165.639,-619.079"/>
<text text-anchor="middle" x="177" y="-539" font-family="FreeSans" font-size="10.00"> Sender</text>
<text text-anchor="middle" x="177" y="-527" font-family="FreeSans" font-size="10.00">EventImpl</text>
</g>
</g>
</svg>
