<?xml version="1.0" encoding="UTF-8" standalone="no"?>
<!DOCTYPE svg PUBLIC "-//W3C//DTD SVG 1.1//EN"
 "http://www.w3.org/Graphics/SVG/1.1/DTD/svg11.dtd">
<!-- Generated by graphviz version 2.26.3 (20100126.1600)
 -->
<!-- Title: G Pages: 1 -->
<svg width="424pt" height="890pt"
 viewBox="0.00 0.00 424.46 890.00" xmlns="http://www.w3.org/2000/svg" xmlns:xlink="http://www.w3.org/1999/xlink">
<g id="graph1" class="graph" transform="scale(1 1) rotate(0) translate(4 886)">
<title>G</title>
<!-- Node1 -->
<g id="node1" class="node"><title>Node1</title>
<polygon fill="#bfbfbf" stroke="black" points="-0.5,-1 -0.5,-21 176.5,-21 176.5,-1 -0.5,-1"/>
<text text-anchor="middle" x="88" y="-8" font-family="FreeSans" font-size="10.00">Kitware.VTK.vtkVolumeProMapper</text>
</g>
<!-- Node2 -->
<g id="node2" class="node"><title>Node2</title>
<a xlink:href="class_kitware_1_1_v_t_k_1_1vtk_volume_mapper.html" target="_top" xlink:title="vtkVolumeMapper &#45; Abstract class for a volume mapper">
<polygon fill="none" stroke="black" points="36.5,-61 36.5,-81 139.5,-81 139.5,-61 36.5,-61"/>
<text text-anchor="middle" x="88" y="-68" font-family="FreeSans" font-size="10.00">vtkVolumeMapper</text>
</a>
</g>
<!-- Node2&#45;&gt;Node1 -->
<g id="edge2" class="edge"><title>Node2&#45;&gt;Node1</title>
<path fill="none" stroke="midnightblue" d="M88,-50.5155C88,-40.562 88,-29.0495 88,-21.0279"/>
<polygon fill="midnightblue" stroke="midnightblue" points="84.5001,-50.8218 88,-60.8218 91.5001,-50.8219 84.5001,-50.8218"/>
</g>
<!-- Node3 -->
<g id="node4" class="node"><title>Node3</title>
<a xlink:href="class_kitware_1_1_v_t_k_1_1vtk_abstract_volume_mapper.html" target="_top" xlink:title="vtkAbstractVolumeMapper &#45; Abstract class for a volume mapper">
<polygon fill="none" stroke="black" points="16.5,-121 16.5,-141 159.5,-141 159.5,-121 16.5,-121"/>
<text text-anchor="middle" x="88" y="-128" font-family="FreeSans" font-size="10.00">vtkAbstractVolumeMapper</text>
</a>
</g>
<!-- Node3&#45;&gt;Node2 -->
<g id="edge4" class="edge"><title>Node3&#45;&gt;Node2</title>
<path fill="none" stroke="midnightblue" d="M88,-110.516C88,-100.562 88,-89.0495 88,-81.0279"/>
<polygon fill="midnightblue" stroke="midnightblue" points="84.5001,-110.822 88,-120.822 91.5001,-110.822 84.5001,-110.822"/>
</g>
<!-- Node4 -->
<g id="node6" class="node"><title>Node4</title>
<a xlink:href="class_kitware_1_1_v_t_k_1_1vtk_abstract_mapper3_d.html" target="_top" xlink:title="vtkAbstractMapper3D &#45; abstract class specifies interface to map 3D data">
<polygon fill="none" stroke="black" points="27.5,-181 27.5,-201 148.5,-201 148.5,-181 27.5,-181"/>
<text text-anchor="middle" x="88" y="-188" font-family="FreeSans" font-size="10.00">vtkAbstractMapper3D</text>
</a>
</g>
<!-- Node4&#45;&gt;Node3 -->
<g id="edge6" class="edge"><title>Node4&#45;&gt;Node3</title>
<path fill="none" stroke="midnightblue" d="M88,-170.516C88,-160.562 88,-149.05 88,-141.028"/>
<polygon fill="midnightblue" stroke="midnightblue" points="84.5001,-170.822 88,-180.822 91.5001,-170.822 84.5001,-170.822"/>
</g>
<!-- Node5 -->
<g id="node8" class="node"><title>Node5</title>
<a xlink:href="class_kitware_1_1_v_t_k_1_1vtk_abstract_mapper.html" target="_top" xlink:title="vtkAbstractMapper &#45; abstract class specifies interface to map data">
<polygon fill="none" stroke="black" points="34.5,-241 34.5,-261 141.5,-261 141.5,-241 34.5,-241"/>
<text text-anchor="middle" x="88" y="-248" font-family="FreeSans" font-size="10.00">vtkAbstractMapper</text>
</a>
</g>
<!-- Node5&#45;&gt;Node4 -->
<g id="edge8" class="edge"><title>Node5&#45;&gt;Node4</title>
<path fill="none" stroke="midnightblue" d="M88,-230.516C88,-220.562 88,-209.05 88,-201.028"/>
<polygon fill="midnightblue" stroke="midnightblue" points="84.5001,-230.822 88,-240.822 91.5001,-230.822 84.5001,-230.822"/>
</g>
<!-- Node6 -->
<g id="node10" class="node"><title>Node6</title>
<a xlink:href="class_kitware_1_1_v_t_k_1_1vtk_algorithm.html" target="_top" xlink:title="vtkAlgorithm &#45; Superclass for all sources, filters, and sinks in VTK.">
<polygon fill="none" stroke="black" points="49.5,-301 49.5,-321 126.5,-321 126.5,-301 49.5,-301"/>
<text text-anchor="middle" x="88" y="-308" font-family="FreeSans" font-size="10.00">vtkAlgorithm</text>
</a>
</g>
<!-- Node6&#45;&gt;Node5 -->
<g id="edge10" class="edge"><title>Node6&#45;&gt;Node5</title>
<path fill="none" stroke="midnightblue" d="M88,-290.516C88,-280.562 88,-269.05 88,-261.028"/>
<polygon fill="midnightblue" stroke="midnightblue" points="84.5001,-290.822 88,-300.822 91.5001,-290.822 84.5001,-290.822"/>
</g>
<!-- Node7 -->
<g id="node12" class="node"><title>Node7</title>
<a xlink:href="class_kitware_1_1_v_t_k_1_1vtk_object.html" target="_top" xlink:title="vtkObject &#45; abstract base class for most VTK objects">
<polygon fill="none" stroke="black" points="57,-361 57,-381 119,-381 119,-361 57,-361"/>
<text text-anchor="middle" x="88" y="-368" font-family="FreeSans" font-size="10.00">vtkObject</text>
</a>
</g>
<!-- Node7&#45;&gt;Node6 -->
<g id="edge12" class="edge"><title>Node7&#45;&gt;Node6</title>
<path fill="none" stroke="midnightblue" d="M88,-350.516C88,-340.562 88,-329.05 88,-321.028"/>
<polygon fill="midnightblue" stroke="midnightblue" points="84.5001,-350.822 88,-360.822 91.5001,-350.822 84.5001,-350.822"/>
</g>
<!-- Node8 -->
<g id="node14" class="node"><title>Node8</title>
<a xlink:href="class_kitware_1_1_v_t_k_1_1vtk_object_base.html" target="_top" xlink:title="vtkObjectBase &#45; abstract base class for most VTK objects">
<polygon fill="none" stroke="black" points="108,-801 108,-821 194,-821 194,-801 108,-801"/>
<text text-anchor="middle" x="151" y="-808" font-family="FreeSans" font-size="10.00">vtkObjectBase</text>
</a>
</g>
<!-- Node8&#45;&gt;Node7 -->
<g id="edge14" class="edge"><title>Node8&#45;&gt;Node7</title>
<path fill="none" stroke="midnightblue" d="M122.423,-795.886C108.687,-787.44 92.8844,-775.826 82,-762 70.1564,-746.955 69.6209,-740.802 66,-722 40.4248,-589.199 75.5766,-423.437 85.5155,-381.17"/>
<polygon fill="midnightblue" stroke="midnightblue" points="120.683,-798.923 131.079,-800.97 124.229,-792.887 120.683,-798.923"/>
</g>
<!-- Node11 -->
<g id="node21" class="node"><title>Node11</title>
<a xlink:href="class_kitware_1_1_v_t_k_1_1vtk_object.html" target="_top" xlink:title="vtkObject &#45; abstract base class for most VTK objects">
<polygon fill="none" stroke="black" points="91,-741 91,-761 211,-761 211,-741 91,-741"/>
<text text-anchor="middle" x="151" y="-748" font-family="FreeSans" font-size="10.00">Kitware.VTK.vtkObject</text>
</a>
</g>
<!-- Node8&#45;&gt;Node11 -->
<g id="edge24" class="edge"><title>Node8&#45;&gt;Node11</title>
<path fill="none" stroke="midnightblue" d="M151,-790.516C151,-780.562 151,-769.05 151,-761.028"/>
<polygon fill="midnightblue" stroke="midnightblue" points="147.5,-790.822 151,-800.822 154.5,-790.822 147.5,-790.822"/>
</g>
<!-- Node9 -->
<g id="node16" class="node"><title>Node9</title>
<a xlink:href="class_kitware_1_1_v_t_k_1_1_wrapped_object.html" target="_top" xlink:title="Base class for all the mummy wrapped classes in Kitware.VTK.">
<polygon fill="none" stroke="black" points="289.5,-861 289.5,-881 378.5,-881 378.5,-861 289.5,-861"/>
<text text-anchor="middle" x="334" y="-868" font-family="FreeSans" font-size="10.00">WrappedObject</text>
</a>
</g>
<!-- Node9&#45;&gt;Node8 -->
<g id="edge16" class="edge"><title>Node9&#45;&gt;Node8</title>
<path fill="none" stroke="midnightblue" d="M293.804,-857.821C260.042,-846.752 212.512,-831.168 181.73,-821.075"/>
<polygon fill="midnightblue" stroke="midnightblue" points="292.777,-861.168 303.37,-860.957 294.958,-854.516 292.777,-861.168"/>
</g>
<!-- Node10 -->
<g id="node18" class="node"><title>Node10</title>
<a xlink:href="class_kitware_1_1_v_t_k_1_1vtk_object_event_relay.html" target="_top" xlink:title="Implement a relay handler for VTK events. This is a class that receives events directly from the VTK ...">
<polygon fill="none" stroke="black" points="80,-551 80,-571 252,-571 252,-551 80,-551"/>
<text text-anchor="middle" x="166" y="-558" font-family="FreeSans" font-size="10.00">Kitware.VTK.vtkObjectEventRelay</text>
</a>
</g>
<!-- Node9&#45;&gt;Node10 -->
<g id="edge20" class="edge"><title>Node9&#45;&gt;Node10</title>
<path fill="none" stroke="midnightblue" d="M346.888,-852.325C379.276,-802.899 456.803,-667.191 389,-590 379.773,-579.495 311.047,-571.666 252.298,-566.808"/>
<polygon fill="midnightblue" stroke="midnightblue" points="343.891,-850.509 341.239,-860.767 349.709,-854.402 343.891,-850.509"/>
</g>
<!-- Node10&#45;&gt;Node7 -->
<g id="edge18" class="edge"><title>Node10&#45;&gt;Node7</title>
<path fill="none" stroke="#9a32cd" stroke-dasharray="5,2" d="M157.921,-541.321C141.489,-501.293 104.674,-411.616 92.2144,-381.266"/>
<polygon fill="#9a32cd" stroke="#9a32cd" points="154.771,-542.863 161.806,-550.785 161.246,-540.205 154.771,-542.863"/>
<text text-anchor="middle" x="265.5" y="-523" font-family="FreeSans" font-size="10.00"> LeftButtonReleaseEvtRelay</text>
<text text-anchor="middle" x="265.5" y="-511" font-family="FreeSans" font-size="10.00">KeyPressEvtRelay</text>
<text text-anchor="middle" x="265.5" y="-499" font-family="FreeSans" font-size="10.00">DomainModifiedEvtRelay</text>
<text text-anchor="middle" x="265.5" y="-487" font-family="FreeSans" font-size="10.00">VolumeMapperComputeGradientsStartEvtRelay</text>
<text text-anchor="middle" x="265.5" y="-475" font-family="FreeSans" font-size="10.00">ErrorEvtRelay</text>
<text text-anchor="middle" x="265.5" y="-463" font-family="FreeSans" font-size="10.00">VolumeMapperRenderStartEvtRelay</text>
<text text-anchor="middle" x="265.5" y="-451" font-family="FreeSans" font-size="10.00">StartEvtRelay</text>
<text text-anchor="middle" x="265.5" y="-439" font-family="FreeSans" font-size="10.00">ResetCameraEvtRelay</text>
<text text-anchor="middle" x="265.5" y="-427" font-family="FreeSans" font-size="10.00">EnableEvtRelay</text>
<text text-anchor="middle" x="265.5" y="-415" font-family="FreeSans" font-size="10.00">DeleteEvtRelay</text>
<text text-anchor="middle" x="265.5" y="-403" font-family="FreeSans" font-size="10.00">...</text>
</g>
<!-- Node10&#45;&gt;Node11 -->
<g id="edge26" class="edge"><title>Node10&#45;&gt;Node11</title>
<path fill="none" stroke="#9a32cd" stroke-dasharray="5,2" d="M163.028,-581.231C162.649,-584.169 162.293,-587.159 162,-590 156.144,-646.853 152.636,-715.333 151.452,-740.807"/>
<polygon fill="#9a32cd" stroke="#9a32cd" points="166.515,-581.565 164.421,-571.179 159.582,-580.604 166.515,-581.565"/>
<text text-anchor="middle" x="275.5" y="-713" font-family="FreeSans" font-size="10.00"> LeftButtonReleaseEvtRelay</text>
<text text-anchor="middle" x="275.5" y="-701" font-family="FreeSans" font-size="10.00">KeyPressEvtRelay</text>
<text text-anchor="middle" x="275.5" y="-689" font-family="FreeSans" font-size="10.00">DomainModifiedEvtRelay</text>
<text text-anchor="middle" x="275.5" y="-677" font-family="FreeSans" font-size="10.00">VolumeMapperComputeGradientsStartEvtRelay</text>
<text text-anchor="middle" x="275.5" y="-665" font-family="FreeSans" font-size="10.00">ErrorEvtRelay</text>
<text text-anchor="middle" x="275.5" y="-653" font-family="FreeSans" font-size="10.00">VolumeMapperRenderStartEvtRelay</text>
<text text-anchor="middle" x="275.5" y="-641" font-family="FreeSans" font-size="10.00">StartEvtRelay</text>
<text text-anchor="middle" x="275.5" y="-629" font-family="FreeSans" font-size="10.00">ResetCameraEvtRelay</text>
<text text-anchor="middle" x="275.5" y="-617" font-family="FreeSans" font-size="10.00">EnableEvtRelay</text>
<text text-anchor="middle" x="275.5" y="-605" font-family="FreeSans" font-size="10.00">DeleteEvtRelay</text>
<text text-anchor="middle" x="275.5" y="-593" font-family="FreeSans" font-size="10.00">...</text>
</g>
<!-- Node11&#45;&gt;Node10 -->
<g id="edge22" class="edge"><title>Node11&#45;&gt;Node10</title>
<path fill="none" stroke="#9a32cd" stroke-dasharray="5,2" d="M104.979,-735.818C99.4393,-732.138 94.5104,-727.596 91,-722 59.8229,-672.303 57.8299,-638.389 91,-590 95.7359,-583.091 112.511,-576.287 128.999,-571.008"/>
<polygon fill="#9a32cd" stroke="#9a32cd" points="103.639,-739.079 114.072,-740.919 107.064,-732.974 103.639,-739.079"/>
<text text-anchor="middle" x="115" y="-659" font-family="FreeSans" font-size="10.00"> Sender</text>
<text text-anchor="middle" x="115" y="-647" font-family="FreeSans" font-size="10.00">EventImpl</text>
</g>
</g>
</svg>
