<?xml version="1.0" encoding="UTF-8" standalone="no"?>
<!DOCTYPE svg PUBLIC "-//W3C//DTD SVG 1.1//EN"
 "http://www.w3.org/Graphics/SVG/1.1/DTD/svg11.dtd">
<!-- Generated by graphviz version 2.26.3 (20100126.1600)
 -->
<!-- Title: G Pages: 1 -->
<svg width="491pt" height="650pt"
 viewBox="0.00 0.00 491.46 650.00" xmlns="http://www.w3.org/2000/svg" xmlns:xlink="http://www.w3.org/1999/xlink">
<g id="graph1" class="graph" transform="scale(1 1) rotate(0) translate(4 646)">
<title>G</title>
<!-- Node1 -->
<g id="node1" class="node"><title>Node1</title>
<polygon fill="#bfbfbf" stroke="black" points="-0.5,-1 -0.5,-21 310.5,-21 310.5,-1 -0.5,-1"/>
<text text-anchor="middle" x="155" y="-8" font-family="FreeSans" font-size="10.00">Kitware.VTK.vtkFixedPointVolumeRayCastCompositeGOHelper</text>
</g>
<!-- Node2 -->
<g id="node2" class="node"><title>Node2</title>
<a xlink:href="class_kitware_1_1_v_t_k_1_1vtk_fixed_point_volume_ray_cast_helper.html" target="_top" xlink:title="vtkFixedPointVolumeRayCastHelper &#45; An abstract helper that generates images for the volume ray cast m...">
<polygon fill="none" stroke="black" points="62.5,-61 62.5,-81 247.5,-81 247.5,-61 62.5,-61"/>
<text text-anchor="middle" x="155" y="-68" font-family="FreeSans" font-size="10.00">vtkFixedPointVolumeRayCastHelper</text>
</a>
</g>
<!-- Node2&#45;&gt;Node1 -->
<g id="edge2" class="edge"><title>Node2&#45;&gt;Node1</title>
<path fill="none" stroke="midnightblue" d="M155,-50.5155C155,-40.562 155,-29.0495 155,-21.0279"/>
<polygon fill="midnightblue" stroke="midnightblue" points="151.5,-50.8218 155,-60.8218 158.5,-50.8219 151.5,-50.8218"/>
</g>
<!-- Node3 -->
<g id="node4" class="node"><title>Node3</title>
<a xlink:href="class_kitware_1_1_v_t_k_1_1vtk_object.html" target="_top" xlink:title="vtkObject &#45; abstract base class for most VTK objects">
<polygon fill="none" stroke="black" points="124,-121 124,-141 186,-141 186,-121 124,-121"/>
<text text-anchor="middle" x="155" y="-128" font-family="FreeSans" font-size="10.00">vtkObject</text>
</a>
</g>
<!-- Node3&#45;&gt;Node2 -->
<g id="edge4" class="edge"><title>Node3&#45;&gt;Node2</title>
<path fill="none" stroke="midnightblue" d="M155,-110.516C155,-100.562 155,-89.0495 155,-81.0279"/>
<polygon fill="midnightblue" stroke="midnightblue" points="151.5,-110.822 155,-120.822 158.5,-110.822 151.5,-110.822"/>
</g>
<!-- Node4 -->
<g id="node6" class="node"><title>Node4</title>
<a xlink:href="class_kitware_1_1_v_t_k_1_1vtk_object_base.html" target="_top" xlink:title="vtkObjectBase &#45; abstract base class for most VTK objects">
<polygon fill="none" stroke="black" points="175,-561 175,-581 261,-581 261,-561 175,-561"/>
<text text-anchor="middle" x="218" y="-568" font-family="FreeSans" font-size="10.00">vtkObjectBase</text>
</a>
</g>
<!-- Node4&#45;&gt;Node3 -->
<g id="edge6" class="edge"><title>Node4&#45;&gt;Node3</title>
<path fill="none" stroke="midnightblue" d="M189.423,-555.886C175.687,-547.44 159.884,-535.826 149,-522 137.156,-506.955 136.621,-500.802 133,-482 107.425,-349.199 142.577,-183.437 152.516,-141.17"/>
<polygon fill="midnightblue" stroke="midnightblue" points="187.683,-558.923 198.079,-560.97 191.229,-552.887 187.683,-558.923"/>
</g>
<!-- Node7 -->
<g id="node13" class="node"><title>Node7</title>
<a xlink:href="class_kitware_1_1_v_t_k_1_1vtk_object.html" target="_top" xlink:title="vtkObject &#45; abstract base class for most VTK objects">
<polygon fill="none" stroke="black" points="158,-501 158,-521 278,-521 278,-501 158,-501"/>
<text text-anchor="middle" x="218" y="-508" font-family="FreeSans" font-size="10.00">Kitware.VTK.vtkObject</text>
</a>
</g>
<!-- Node4&#45;&gt;Node7 -->
<g id="edge16" class="edge"><title>Node4&#45;&gt;Node7</title>
<path fill="none" stroke="midnightblue" d="M218,-550.516C218,-540.562 218,-529.05 218,-521.028"/>
<polygon fill="midnightblue" stroke="midnightblue" points="214.5,-550.822 218,-560.822 221.5,-550.822 214.5,-550.822"/>
</g>
<!-- Node5 -->
<g id="node8" class="node"><title>Node5</title>
<a xlink:href="class_kitware_1_1_v_t_k_1_1_wrapped_object.html" target="_top" xlink:title="Base class for all the mummy wrapped classes in Kitware.VTK.">
<polygon fill="none" stroke="black" points="356.5,-621 356.5,-641 445.5,-641 445.5,-621 356.5,-621"/>
<text text-anchor="middle" x="401" y="-628" font-family="FreeSans" font-size="10.00">WrappedObject</text>
</a>
</g>
<!-- Node5&#45;&gt;Node4 -->
<g id="edge8" class="edge"><title>Node5&#45;&gt;Node4</title>
<path fill="none" stroke="midnightblue" d="M360.804,-617.821C327.042,-606.752 279.512,-591.168 248.73,-581.075"/>
<polygon fill="midnightblue" stroke="midnightblue" points="359.777,-621.168 370.37,-620.957 361.958,-614.516 359.777,-621.168"/>
</g>
<!-- Node6 -->
<g id="node10" class="node"><title>Node6</title>
<a xlink:href="class_kitware_1_1_v_t_k_1_1vtk_object_event_relay.html" target="_top" xlink:title="Implement a relay handler for VTK events. This is a class that receives events directly from the VTK ...">
<polygon fill="none" stroke="black" points="147,-311 147,-331 319,-331 319,-311 147,-311"/>
<text text-anchor="middle" x="233" y="-318" font-family="FreeSans" font-size="10.00">Kitware.VTK.vtkObjectEventRelay</text>
</a>
</g>
<!-- Node5&#45;&gt;Node6 -->
<g id="edge12" class="edge"><title>Node5&#45;&gt;Node6</title>
<path fill="none" stroke="midnightblue" d="M413.888,-612.325C446.276,-562.899 523.803,-427.191 456,-350 446.773,-339.495 378.047,-331.666 319.298,-326.808"/>
<polygon fill="midnightblue" stroke="midnightblue" points="410.891,-610.509 408.239,-620.767 416.709,-614.402 410.891,-610.509"/>
</g>
<!-- Node6&#45;&gt;Node3 -->
<g id="edge10" class="edge"><title>Node6&#45;&gt;Node3</title>
<path fill="none" stroke="#9a32cd" stroke-dasharray="5,2" d="M224.921,-301.321C208.489,-261.293 171.674,-171.616 159.214,-141.266"/>
<polygon fill="#9a32cd" stroke="#9a32cd" points="221.771,-302.863 228.806,-310.785 228.246,-300.205 221.771,-302.863"/>
<text text-anchor="middle" x="332.5" y="-283" font-family="FreeSans" font-size="10.00"> LeftButtonReleaseEvtRelay</text>
<text text-anchor="middle" x="332.5" y="-271" font-family="FreeSans" font-size="10.00">KeyPressEvtRelay</text>
<text text-anchor="middle" x="332.5" y="-259" font-family="FreeSans" font-size="10.00">DomainModifiedEvtRelay</text>
<text text-anchor="middle" x="332.5" y="-247" font-family="FreeSans" font-size="10.00">VolumeMapperComputeGradientsStartEvtRelay</text>
<text text-anchor="middle" x="332.5" y="-235" font-family="FreeSans" font-size="10.00">ErrorEvtRelay</text>
<text text-anchor="middle" x="332.5" y="-223" font-family="FreeSans" font-size="10.00">VolumeMapperRenderStartEvtRelay</text>
<text text-anchor="middle" x="332.5" y="-211" font-family="FreeSans" font-size="10.00">StartEvtRelay</text>
<text text-anchor="middle" x="332.5" y="-199" font-family="FreeSans" font-size="10.00">ResetCameraEvtRelay</text>
<text text-anchor="middle" x="332.5" y="-187" font-family="FreeSans" font-size="10.00">EnableEvtRelay</text>
<text text-anchor="middle" x="332.5" y="-175" font-family="FreeSans" font-size="10.00">DeleteEvtRelay</text>
<text text-anchor="middle" x="332.5" y="-163" font-family="FreeSans" font-size="10.00">...</text>
</g>
<!-- Node6&#45;&gt;Node7 -->
<g id="edge18" class="edge"><title>Node6&#45;&gt;Node7</title>
<path fill="none" stroke="#9a32cd" stroke-dasharray="5,2" d="M230.028,-341.231C229.649,-344.169 229.293,-347.159 229,-350 223.144,-406.853 219.636,-475.333 218.452,-500.807"/>
<polygon fill="#9a32cd" stroke="#9a32cd" points="233.515,-341.565 231.421,-331.179 226.582,-340.604 233.515,-341.565"/>
<text text-anchor="middle" x="342.5" y="-473" font-family="FreeSans" font-size="10.00"> LeftButtonReleaseEvtRelay</text>
<text text-anchor="middle" x="342.5" y="-461" font-family="FreeSans" font-size="10.00">KeyPressEvtRelay</text>
<text text-anchor="middle" x="342.5" y="-449" font-family="FreeSans" font-size="10.00">DomainModifiedEvtRelay</text>
<text text-anchor="middle" x="342.5" y="-437" font-family="FreeSans" font-size="10.00">VolumeMapperComputeGradientsStartEvtRelay</text>
<text text-anchor="middle" x="342.5" y="-425" font-family="FreeSans" font-size="10.00">ErrorEvtRelay</text>
<text text-anchor="middle" x="342.5" y="-413" font-family="FreeSans" font-size="10.00">VolumeMapperRenderStartEvtRelay</text>
<text text-anchor="middle" x="342.5" y="-401" font-family="FreeSans" font-size="10.00">StartEvtRelay</text>
<text text-anchor="middle" x="342.5" y="-389" font-family="FreeSans" font-size="10.00">ResetCameraEvtRelay</text>
<text text-anchor="middle" x="342.5" y="-377" font-family="FreeSans" font-size="10.00">EnableEvtRelay</text>
<text text-anchor="middle" x="342.5" y="-365" font-family="FreeSans" font-size="10.00">DeleteEvtRelay</text>
<text text-anchor="middle" x="342.5" y="-353" font-family="FreeSans" font-size="10.00">...</text>
</g>
<!-- Node7&#45;&gt;Node6 -->
<g id="edge14" class="edge"><title>Node7&#45;&gt;Node6</title>
<path fill="none" stroke="#9a32cd" stroke-dasharray="5,2" d="M171.979,-495.818C166.439,-492.138 161.51,-487.596 158,-482 126.823,-432.303 124.83,-398.389 158,-350 162.736,-343.091 179.511,-336.287 195.999,-331.008"/>
<polygon fill="#9a32cd" stroke="#9a32cd" points="170.639,-499.079 181.072,-500.919 174.064,-492.974 170.639,-499.079"/>
<text text-anchor="middle" x="182" y="-419" font-family="FreeSans" font-size="10.00"> Sender</text>
<text text-anchor="middle" x="182" y="-407" font-family="FreeSans" font-size="10.00">EventImpl</text>
</g>
</g>
</svg>
