<?xml version="1.0" encoding="UTF-8" standalone="no"?>
<!DOCTYPE svg PUBLIC "-//W3C//DTD SVG 1.1//EN"
 "http://www.w3.org/Graphics/SVG/1.1/DTD/svg11.dtd">
<!-- Generated by graphviz version 2.26.3 (20100126.1600)
 -->
<!-- Title: G Pages: 1 -->
<svg width="425pt" height="590pt"
 viewBox="0.00 0.00 425.46 590.00" xmlns="http://www.w3.org/2000/svg" xmlns:xlink="http://www.w3.org/1999/xlink">
<g id="graph1" class="graph" transform="scale(1 1) rotate(0) translate(4 586)">
<title>G</title>
<!-- Node1 -->
<g id="node1" class="node"><title>Node1</title>
<polygon fill="#bfbfbf" stroke="black" points="-0.5,-1 -0.5,-21 178.5,-21 178.5,-1 -0.5,-1"/>
<text text-anchor="middle" x="89" y="-8" font-family="FreeSans" font-size="10.00">Kitware.VTK.vtkInformationIterator</text>
</g>
<!-- Node2 -->
<g id="node2" class="node"><title>Node2</title>
<a xlink:href="class_kitware_1_1_v_t_k_1_1vtk_object.html" target="_top" xlink:title="vtkObject &#45; abstract base class for most VTK objects">
<polygon fill="none" stroke="black" points="58,-61 58,-81 120,-81 120,-61 58,-61"/>
<text text-anchor="middle" x="89" y="-68" font-family="FreeSans" font-size="10.00">vtkObject</text>
</a>
</g>
<!-- Node2&#45;&gt;Node1 -->
<g id="edge2" class="edge"><title>Node2&#45;&gt;Node1</title>
<path fill="none" stroke="midnightblue" d="M89,-50.5155C89,-40.562 89,-29.0495 89,-21.0279"/>
<polygon fill="midnightblue" stroke="midnightblue" points="85.5001,-50.8218 89,-60.8218 92.5001,-50.8219 85.5001,-50.8218"/>
</g>
<!-- Node3 -->
<g id="node4" class="node"><title>Node3</title>
<a xlink:href="class_kitware_1_1_v_t_k_1_1vtk_object_base.html" target="_top" xlink:title="vtkObjectBase &#45; abstract base class for most VTK objects">
<polygon fill="none" stroke="black" points="109,-501 109,-521 195,-521 195,-501 109,-501"/>
<text text-anchor="middle" x="152" y="-508" font-family="FreeSans" font-size="10.00">vtkObjectBase</text>
</a>
</g>
<!-- Node3&#45;&gt;Node2 -->
<g id="edge4" class="edge"><title>Node3&#45;&gt;Node2</title>
<path fill="none" stroke="midnightblue" d="M123.423,-495.886C109.687,-487.44 93.8844,-475.826 83,-462 71.1564,-446.955 70.6209,-440.802 67,-422 41.4248,-289.199 76.5766,-123.437 86.5155,-81.1704"/>
<polygon fill="midnightblue" stroke="midnightblue" points="121.683,-498.923 132.079,-500.97 125.229,-492.887 121.683,-498.923"/>
</g>
<!-- Node6 -->
<g id="node11" class="node"><title>Node6</title>
<a xlink:href="class_kitware_1_1_v_t_k_1_1vtk_object.html" target="_top" xlink:title="vtkObject &#45; abstract base class for most VTK objects">
<polygon fill="none" stroke="black" points="92,-441 92,-461 212,-461 212,-441 92,-441"/>
<text text-anchor="middle" x="152" y="-448" font-family="FreeSans" font-size="10.00">Kitware.VTK.vtkObject</text>
</a>
</g>
<!-- Node3&#45;&gt;Node6 -->
<g id="edge14" class="edge"><title>Node3&#45;&gt;Node6</title>
<path fill="none" stroke="midnightblue" d="M152,-490.516C152,-480.562 152,-469.05 152,-461.028"/>
<polygon fill="midnightblue" stroke="midnightblue" points="148.5,-490.822 152,-500.822 155.5,-490.822 148.5,-490.822"/>
</g>
<!-- Node4 -->
<g id="node6" class="node"><title>Node4</title>
<a xlink:href="class_kitware_1_1_v_t_k_1_1_wrapped_object.html" target="_top" xlink:title="Base class for all the mummy wrapped classes in Kitware.VTK.">
<polygon fill="none" stroke="black" points="290.5,-561 290.5,-581 379.5,-581 379.5,-561 290.5,-561"/>
<text text-anchor="middle" x="335" y="-568" font-family="FreeSans" font-size="10.00">WrappedObject</text>
</a>
</g>
<!-- Node4&#45;&gt;Node3 -->
<g id="edge6" class="edge"><title>Node4&#45;&gt;Node3</title>
<path fill="none" stroke="midnightblue" d="M294.804,-557.821C261.042,-546.752 213.512,-531.168 182.73,-521.075"/>
<polygon fill="midnightblue" stroke="midnightblue" points="293.777,-561.168 304.37,-560.957 295.958,-554.516 293.777,-561.168"/>
</g>
<!-- Node5 -->
<g id="node8" class="node"><title>Node5</title>
<a xlink:href="class_kitware_1_1_v_t_k_1_1vtk_object_event_relay.html" target="_top" xlink:title="Implement a relay handler for VTK events. This is a class that receives events directly from the VTK ...">
<polygon fill="none" stroke="black" points="81,-251 81,-271 253,-271 253,-251 81,-251"/>
<text text-anchor="middle" x="167" y="-258" font-family="FreeSans" font-size="10.00">Kitware.VTK.vtkObjectEventRelay</text>
</a>
</g>
<!-- Node4&#45;&gt;Node5 -->
<g id="edge10" class="edge"><title>Node4&#45;&gt;Node5</title>
<path fill="none" stroke="midnightblue" d="M347.888,-552.325C380.276,-502.899 457.803,-367.191 390,-290 380.773,-279.495 312.047,-271.666 253.298,-266.808"/>
<polygon fill="midnightblue" stroke="midnightblue" points="344.891,-550.509 342.239,-560.767 350.709,-554.402 344.891,-550.509"/>
</g>
<!-- Node5&#45;&gt;Node2 -->
<g id="edge8" class="edge"><title>Node5&#45;&gt;Node2</title>
<path fill="none" stroke="#9a32cd" stroke-dasharray="5,2" d="M158.921,-241.321C142.489,-201.293 105.674,-111.616 93.2144,-81.2657"/>
<polygon fill="#9a32cd" stroke="#9a32cd" points="155.771,-242.863 162.806,-250.785 162.246,-240.205 155.771,-242.863"/>
<text text-anchor="middle" x="266.5" y="-223" font-family="FreeSans" font-size="10.00"> LeftButtonReleaseEvtRelay</text>
<text text-anchor="middle" x="266.5" y="-211" font-family="FreeSans" font-size="10.00">KeyPressEvtRelay</text>
<text text-anchor="middle" x="266.5" y="-199" font-family="FreeSans" font-size="10.00">DomainModifiedEvtRelay</text>
<text text-anchor="middle" x="266.5" y="-187" font-family="FreeSans" font-size="10.00">VolumeMapperComputeGradientsStartEvtRelay</text>
<text text-anchor="middle" x="266.5" y="-175" font-family="FreeSans" font-size="10.00">ErrorEvtRelay</text>
<text text-anchor="middle" x="266.5" y="-163" font-family="FreeSans" font-size="10.00">VolumeMapperRenderStartEvtRelay</text>
<text text-anchor="middle" x="266.5" y="-151" font-family="FreeSans" font-size="10.00">StartEvtRelay</text>
<text text-anchor="middle" x="266.5" y="-139" font-family="FreeSans" font-size="10.00">ResetCameraEvtRelay</text>
<text text-anchor="middle" x="266.5" y="-127" font-family="FreeSans" font-size="10.00">EnableEvtRelay</text>
<text text-anchor="middle" x="266.5" y="-115" font-family="FreeSans" font-size="10.00">DeleteEvtRelay</text>
<text text-anchor="middle" x="266.5" y="-103" font-family="FreeSans" font-size="10.00">...</text>
</g>
<!-- Node5&#45;&gt;Node6 -->
<g id="edge16" class="edge"><title>Node5&#45;&gt;Node6</title>
<path fill="none" stroke="#9a32cd" stroke-dasharray="5,2" d="M164.028,-281.231C163.649,-284.169 163.293,-287.159 163,-290 157.144,-346.853 153.636,-415.333 152.452,-440.807"/>
<polygon fill="#9a32cd" stroke="#9a32cd" points="167.515,-281.565 165.421,-271.179 160.582,-280.604 167.515,-281.565"/>
<text text-anchor="middle" x="276.5" y="-413" font-family="FreeSans" font-size="10.00"> LeftButtonReleaseEvtRelay</text>
<text text-anchor="middle" x="276.5" y="-401" font-family="FreeSans" font-size="10.00">KeyPressEvtRelay</text>
<text text-anchor="middle" x="276.5" y="-389" font-family="FreeSans" font-size="10.00">DomainModifiedEvtRelay</text>
<text text-anchor="middle" x="276.5" y="-377" font-family="FreeSans" font-size="10.00">VolumeMapperComputeGradientsStartEvtRelay</text>
<text text-anchor="middle" x="276.5" y="-365" font-family="FreeSans" font-size="10.00">ErrorEvtRelay</text>
<text text-anchor="middle" x="276.5" y="-353" font-family="FreeSans" font-size="10.00">VolumeMapperRenderStartEvtRelay</text>
<text text-anchor="middle" x="276.5" y="-341" font-family="FreeSans" font-size="10.00">StartEvtRelay</text>
<text text-anchor="middle" x="276.5" y="-329" font-family="FreeSans" font-size="10.00">ResetCameraEvtRelay</text>
<text text-anchor="middle" x="276.5" y="-317" font-family="FreeSans" font-size="10.00">EnableEvtRelay</text>
<text text-anchor="middle" x="276.5" y="-305" font-family="FreeSans" font-size="10.00">DeleteEvtRelay</text>
<text text-anchor="middle" x="276.5" y="-293" font-family="FreeSans" font-size="10.00">...</text>
</g>
<!-- Node6&#45;&gt;Node5 -->
<g id="edge12" class="edge"><title>Node6&#45;&gt;Node5</title>
<path fill="none" stroke="#9a32cd" stroke-dasharray="5,2" d="M105.979,-435.818C100.439,-432.138 95.5104,-427.596 92,-422 60.8229,-372.303 58.8299,-338.389 92,-290 96.7359,-283.091 113.511,-276.287 129.999,-271.008"/>
<polygon fill="#9a32cd" stroke="#9a32cd" points="104.639,-439.079 115.072,-440.919 108.064,-432.974 104.639,-439.079"/>
<text text-anchor="middle" x="116" y="-359" font-family="FreeSans" font-size="10.00"> Sender</text>
<text text-anchor="middle" x="116" y="-347" font-family="FreeSans" font-size="10.00">EventImpl</text>
</g>
</g>
</svg>
