<?xml version="1.0" encoding="UTF-8" standalone="no"?>
<!DOCTYPE svg PUBLIC "-//W3C//DTD SVG 1.1//EN"
 "http://www.w3.org/Graphics/SVG/1.1/DTD/svg11.dtd">
<!-- Generated by graphviz version 2.26.3 (20100126.1600)
 -->
<!-- Title: G Pages: 1 -->
<svg width="469pt" height="650pt"
 viewBox="0.00 0.00 469.46 650.00" xmlns="http://www.w3.org/2000/svg" xmlns:xlink="http://www.w3.org/1999/xlink">
<g id="graph1" class="graph" transform="scale(1 1) rotate(0) translate(4 646)">
<title>G</title>
<!-- Node1 -->
<g id="node1" class="node"><title>Node1</title>
<polygon fill="#bfbfbf" stroke="black" points="0,-1 0,-21 266,-21 266,-1 0,-1"/>
<text text-anchor="middle" x="133" y="-8" font-family="FreeSans" font-size="10.00">Kitware.VTK.vtkAttributeClustering2DLayoutStrategy</text>
</g>
<!-- Node2 -->
<g id="node2" class="node"><title>Node2</title>
<a xlink:href="class_kitware_1_1_v_t_k_1_1vtk_graph_layout_strategy.html" target="_top" xlink:title="vtkGraphLayoutStrategy &#45; abstract superclass for all graph layout strategies">
<polygon fill="none" stroke="black" points="66,-61 66,-81 200,-81 200,-61 66,-61"/>
<text text-anchor="middle" x="133" y="-68" font-family="FreeSans" font-size="10.00">vtkGraphLayoutStrategy</text>
</a>
</g>
<!-- Node2&#45;&gt;Node1 -->
<g id="edge2" class="edge"><title>Node2&#45;&gt;Node1</title>
<path fill="none" stroke="midnightblue" d="M133,-50.5155C133,-40.562 133,-29.0495 133,-21.0279"/>
<polygon fill="midnightblue" stroke="midnightblue" points="129.5,-50.8218 133,-60.8218 136.5,-50.8219 129.5,-50.8218"/>
</g>
<!-- Node3 -->
<g id="node4" class="node"><title>Node3</title>
<a xlink:href="class_kitware_1_1_v_t_k_1_1vtk_object.html" target="_top" xlink:title="vtkObject &#45; abstract base class for most VTK objects">
<polygon fill="none" stroke="black" points="102,-121 102,-141 164,-141 164,-121 102,-121"/>
<text text-anchor="middle" x="133" y="-128" font-family="FreeSans" font-size="10.00">vtkObject</text>
</a>
</g>
<!-- Node3&#45;&gt;Node2 -->
<g id="edge4" class="edge"><title>Node3&#45;&gt;Node2</title>
<path fill="none" stroke="midnightblue" d="M133,-110.516C133,-100.562 133,-89.0495 133,-81.0279"/>
<polygon fill="midnightblue" stroke="midnightblue" points="129.5,-110.822 133,-120.822 136.5,-110.822 129.5,-110.822"/>
</g>
<!-- Node4 -->
<g id="node6" class="node"><title>Node4</title>
<a xlink:href="class_kitware_1_1_v_t_k_1_1vtk_object_base.html" target="_top" xlink:title="vtkObjectBase &#45; abstract base class for most VTK objects">
<polygon fill="none" stroke="black" points="153,-561 153,-581 239,-581 239,-561 153,-561"/>
<text text-anchor="middle" x="196" y="-568" font-family="FreeSans" font-size="10.00">vtkObjectBase</text>
</a>
</g>
<!-- Node4&#45;&gt;Node3 -->
<g id="edge6" class="edge"><title>Node4&#45;&gt;Node3</title>
<path fill="none" stroke="midnightblue" d="M167.423,-555.886C153.687,-547.44 137.884,-535.826 127,-522 115.156,-506.955 114.621,-500.802 111,-482 85.4248,-349.199 120.577,-183.437 130.516,-141.17"/>
<polygon fill="midnightblue" stroke="midnightblue" points="165.683,-558.923 176.079,-560.97 169.229,-552.887 165.683,-558.923"/>
</g>
<!-- Node7 -->
<g id="node13" class="node"><title>Node7</title>
<a xlink:href="class_kitware_1_1_v_t_k_1_1vtk_object.html" target="_top" xlink:title="vtkObject &#45; abstract base class for most VTK objects">
<polygon fill="none" stroke="black" points="136,-501 136,-521 256,-521 256,-501 136,-501"/>
<text text-anchor="middle" x="196" y="-508" font-family="FreeSans" font-size="10.00">Kitware.VTK.vtkObject</text>
</a>
</g>
<!-- Node4&#45;&gt;Node7 -->
<g id="edge16" class="edge"><title>Node4&#45;&gt;Node7</title>
<path fill="none" stroke="midnightblue" d="M196,-550.516C196,-540.562 196,-529.05 196,-521.028"/>
<polygon fill="midnightblue" stroke="midnightblue" points="192.5,-550.822 196,-560.822 199.5,-550.822 192.5,-550.822"/>
</g>
<!-- Node5 -->
<g id="node8" class="node"><title>Node5</title>
<a xlink:href="class_kitware_1_1_v_t_k_1_1_wrapped_object.html" target="_top" xlink:title="Base class for all the mummy wrapped classes in Kitware.VTK.">
<polygon fill="none" stroke="black" points="334.5,-621 334.5,-641 423.5,-641 423.5,-621 334.5,-621"/>
<text text-anchor="middle" x="379" y="-628" font-family="FreeSans" font-size="10.00">WrappedObject</text>
</a>
</g>
<!-- Node5&#45;&gt;Node4 -->
<g id="edge8" class="edge"><title>Node5&#45;&gt;Node4</title>
<path fill="none" stroke="midnightblue" d="M338.804,-617.821C305.042,-606.752 257.512,-591.168 226.73,-581.075"/>
<polygon fill="midnightblue" stroke="midnightblue" points="337.777,-621.168 348.37,-620.957 339.958,-614.516 337.777,-621.168"/>
</g>
<!-- Node6 -->
<g id="node10" class="node"><title>Node6</title>
<a xlink:href="class_kitware_1_1_v_t_k_1_1vtk_object_event_relay.html" target="_top" xlink:title="Implement a relay handler for VTK events. This is a class that receives events directly from the VTK ...">
<polygon fill="none" stroke="black" points="125,-311 125,-331 297,-331 297,-311 125,-311"/>
<text text-anchor="middle" x="211" y="-318" font-family="FreeSans" font-size="10.00">Kitware.VTK.vtkObjectEventRelay</text>
</a>
</g>
<!-- Node5&#45;&gt;Node6 -->
<g id="edge12" class="edge"><title>Node5&#45;&gt;Node6</title>
<path fill="none" stroke="midnightblue" d="M391.888,-612.325C424.276,-562.899 501.803,-427.191 434,-350 424.773,-339.495 356.047,-331.666 297.298,-326.808"/>
<polygon fill="midnightblue" stroke="midnightblue" points="388.891,-610.509 386.239,-620.767 394.709,-614.402 388.891,-610.509"/>
</g>
<!-- Node6&#45;&gt;Node3 -->
<g id="edge10" class="edge"><title>Node6&#45;&gt;Node3</title>
<path fill="none" stroke="#9a32cd" stroke-dasharray="5,2" d="M202.921,-301.321C186.489,-261.293 149.674,-171.616 137.214,-141.266"/>
<polygon fill="#9a32cd" stroke="#9a32cd" points="199.771,-302.863 206.806,-310.785 206.246,-300.205 199.771,-302.863"/>
<text text-anchor="middle" x="310.5" y="-283" font-family="FreeSans" font-size="10.00"> LeftButtonReleaseEvtRelay</text>
<text text-anchor="middle" x="310.5" y="-271" font-family="FreeSans" font-size="10.00">KeyPressEvtRelay</text>
<text text-anchor="middle" x="310.5" y="-259" font-family="FreeSans" font-size="10.00">DomainModifiedEvtRelay</text>
<text text-anchor="middle" x="310.5" y="-247" font-family="FreeSans" font-size="10.00">VolumeMapperComputeGradientsStartEvtRelay</text>
<text text-anchor="middle" x="310.5" y="-235" font-family="FreeSans" font-size="10.00">ErrorEvtRelay</text>
<text text-anchor="middle" x="310.5" y="-223" font-family="FreeSans" font-size="10.00">VolumeMapperRenderStartEvtRelay</text>
<text text-anchor="middle" x="310.5" y="-211" font-family="FreeSans" font-size="10.00">StartEvtRelay</text>
<text text-anchor="middle" x="310.5" y="-199" font-family="FreeSans" font-size="10.00">ResetCameraEvtRelay</text>
<text text-anchor="middle" x="310.5" y="-187" font-family="FreeSans" font-size="10.00">EnableEvtRelay</text>
<text text-anchor="middle" x="310.5" y="-175" font-family="FreeSans" font-size="10.00">DeleteEvtRelay</text>
<text text-anchor="middle" x="310.5" y="-163" font-family="FreeSans" font-size="10.00">...</text>
</g>
<!-- Node6&#45;&gt;Node7 -->
<g id="edge18" class="edge"><title>Node6&#45;&gt;Node7</title>
<path fill="none" stroke="#9a32cd" stroke-dasharray="5,2" d="M208.028,-341.231C207.649,-344.169 207.293,-347.159 207,-350 201.144,-406.853 197.636,-475.333 196.452,-500.807"/>
<polygon fill="#9a32cd" stroke="#9a32cd" points="211.515,-341.565 209.421,-331.179 204.582,-340.604 211.515,-341.565"/>
<text text-anchor="middle" x="320.5" y="-473" font-family="FreeSans" font-size="10.00"> LeftButtonReleaseEvtRelay</text>
<text text-anchor="middle" x="320.5" y="-461" font-family="FreeSans" font-size="10.00">KeyPressEvtRelay</text>
<text text-anchor="middle" x="320.5" y="-449" font-family="FreeSans" font-size="10.00">DomainModifiedEvtRelay</text>
<text text-anchor="middle" x="320.5" y="-437" font-family="FreeSans" font-size="10.00">VolumeMapperComputeGradientsStartEvtRelay</text>
<text text-anchor="middle" x="320.5" y="-425" font-family="FreeSans" font-size="10.00">ErrorEvtRelay</text>
<text text-anchor="middle" x="320.5" y="-413" font-family="FreeSans" font-size="10.00">VolumeMapperRenderStartEvtRelay</text>
<text text-anchor="middle" x="320.5" y="-401" font-family="FreeSans" font-size="10.00">StartEvtRelay</text>
<text text-anchor="middle" x="320.5" y="-389" font-family="FreeSans" font-size="10.00">ResetCameraEvtRelay</text>
<text text-anchor="middle" x="320.5" y="-377" font-family="FreeSans" font-size="10.00">EnableEvtRelay</text>
<text text-anchor="middle" x="320.5" y="-365" font-family="FreeSans" font-size="10.00">DeleteEvtRelay</text>
<text text-anchor="middle" x="320.5" y="-353" font-family="FreeSans" font-size="10.00">...</text>
</g>
<!-- Node7&#45;&gt;Node6 -->
<g id="edge14" class="edge"><title>Node7&#45;&gt;Node6</title>
<path fill="none" stroke="#9a32cd" stroke-dasharray="5,2" d="M149.979,-495.818C144.439,-492.138 139.51,-487.596 136,-482 104.823,-432.303 102.83,-398.389 136,-350 140.736,-343.091 157.511,-336.287 173.999,-331.008"/>
<polygon fill="#9a32cd" stroke="#9a32cd" points="148.639,-499.079 159.072,-500.919 152.064,-492.974 148.639,-499.079"/>
<text text-anchor="middle" x="160" y="-419" font-family="FreeSans" font-size="10.00"> Sender</text>
<text text-anchor="middle" x="160" y="-407" font-family="FreeSans" font-size="10.00">EventImpl</text>
</g>
</g>
</svg>
