<?xml version="1.0" encoding="UTF-8" standalone="no"?>
<!DOCTYPE svg PUBLIC "-//W3C//DTD SVG 1.1//EN"
 "http://www.w3.org/Graphics/SVG/1.1/DTD/svg11.dtd">
<!-- Generated by graphviz version 2.26.3 (20100126.1600)
 -->
<!-- Title: G Pages: 1 -->
<svg width="391pt" height="650pt"
 viewBox="0.00 0.00 391.46 650.00" xmlns="http://www.w3.org/2000/svg" xmlns:xlink="http://www.w3.org/1999/xlink">
<g id="graph1" class="graph" transform="scale(1 1) rotate(0) translate(4 646)">
<title>G</title>
<!-- Node1 -->
<g id="node1" class="node"><title>Node1</title>
<polygon fill="#bfbfbf" stroke="black" points="-0.5,-1 -0.5,-21 110.5,-21 110.5,-1 -0.5,-1"/>
<text text-anchor="middle" x="55" y="-8" font-family="FreeSans" font-size="10.00">Kitware.VTK.vtkPixel</text>
</g>
<!-- Node2 -->
<g id="node2" class="node"><title>Node2</title>
<a xlink:href="class_kitware_1_1_v_t_k_1_1vtk_cell.html" target="_top" xlink:title="vtkCell &#45; abstract class to specify cell behavior">
<polygon fill="none" stroke="black" points="31,-61 31,-81 79,-81 79,-61 31,-61"/>
<text text-anchor="middle" x="55" y="-68" font-family="FreeSans" font-size="10.00">vtkCell</text>
</a>
</g>
<!-- Node2&#45;&gt;Node1 -->
<g id="edge2" class="edge"><title>Node2&#45;&gt;Node1</title>
<path fill="none" stroke="midnightblue" d="M55,-50.5155C55,-40.562 55,-29.0495 55,-21.0279"/>
<polygon fill="midnightblue" stroke="midnightblue" points="51.5001,-50.8218 55,-60.8218 58.5001,-50.8219 51.5001,-50.8218"/>
</g>
<!-- Node3 -->
<g id="node4" class="node"><title>Node3</title>
<a xlink:href="class_kitware_1_1_v_t_k_1_1vtk_object.html" target="_top" xlink:title="vtkObject &#45; abstract base class for most VTK objects">
<polygon fill="none" stroke="black" points="24,-121 24,-141 86,-141 86,-121 24,-121"/>
<text text-anchor="middle" x="55" y="-128" font-family="FreeSans" font-size="10.00">vtkObject</text>
</a>
</g>
<!-- Node3&#45;&gt;Node2 -->
<g id="edge4" class="edge"><title>Node3&#45;&gt;Node2</title>
<path fill="none" stroke="midnightblue" d="M55,-110.516C55,-100.562 55,-89.0495 55,-81.0279"/>
<polygon fill="midnightblue" stroke="midnightblue" points="51.5001,-110.822 55,-120.822 58.5001,-110.822 51.5001,-110.822"/>
</g>
<!-- Node4 -->
<g id="node6" class="node"><title>Node4</title>
<a xlink:href="class_kitware_1_1_v_t_k_1_1vtk_object_base.html" target="_top" xlink:title="vtkObjectBase &#45; abstract base class for most VTK objects">
<polygon fill="none" stroke="black" points="75,-561 75,-581 161,-581 161,-561 75,-561"/>
<text text-anchor="middle" x="118" y="-568" font-family="FreeSans" font-size="10.00">vtkObjectBase</text>
</a>
</g>
<!-- Node4&#45;&gt;Node3 -->
<g id="edge6" class="edge"><title>Node4&#45;&gt;Node3</title>
<path fill="none" stroke="midnightblue" d="M89.4228,-555.886C75.6866,-547.44 59.8844,-535.826 49,-522 37.1564,-506.955 36.6209,-500.802 33,-482 7.42483,-349.199 42.5766,-183.437 52.5155,-141.17"/>
<polygon fill="midnightblue" stroke="midnightblue" points="87.6834,-558.923 98.0788,-560.97 91.2285,-552.887 87.6834,-558.923"/>
</g>
<!-- Node7 -->
<g id="node13" class="node"><title>Node7</title>
<a xlink:href="class_kitware_1_1_v_t_k_1_1vtk_object.html" target="_top" xlink:title="vtkObject &#45; abstract base class for most VTK objects">
<polygon fill="none" stroke="black" points="58,-501 58,-521 178,-521 178,-501 58,-501"/>
<text text-anchor="middle" x="118" y="-508" font-family="FreeSans" font-size="10.00">Kitware.VTK.vtkObject</text>
</a>
</g>
<!-- Node4&#45;&gt;Node7 -->
<g id="edge16" class="edge"><title>Node4&#45;&gt;Node7</title>
<path fill="none" stroke="midnightblue" d="M118,-550.516C118,-540.562 118,-529.05 118,-521.028"/>
<polygon fill="midnightblue" stroke="midnightblue" points="114.5,-550.822 118,-560.822 121.5,-550.822 114.5,-550.822"/>
</g>
<!-- Node5 -->
<g id="node8" class="node"><title>Node5</title>
<a xlink:href="class_kitware_1_1_v_t_k_1_1_wrapped_object.html" target="_top" xlink:title="Base class for all the mummy wrapped classes in Kitware.VTK.">
<polygon fill="none" stroke="black" points="256.5,-621 256.5,-641 345.5,-641 345.5,-621 256.5,-621"/>
<text text-anchor="middle" x="301" y="-628" font-family="FreeSans" font-size="10.00">WrappedObject</text>
</a>
</g>
<!-- Node5&#45;&gt;Node4 -->
<g id="edge8" class="edge"><title>Node5&#45;&gt;Node4</title>
<path fill="none" stroke="midnightblue" d="M260.804,-617.821C227.042,-606.752 179.512,-591.168 148.73,-581.075"/>
<polygon fill="midnightblue" stroke="midnightblue" points="259.777,-621.168 270.37,-620.957 261.958,-614.516 259.777,-621.168"/>
</g>
<!-- Node6 -->
<g id="node10" class="node"><title>Node6</title>
<a xlink:href="class_kitware_1_1_v_t_k_1_1vtk_object_event_relay.html" target="_top" xlink:title="Implement a relay handler for VTK events. This is a class that receives events directly from the VTK ...">
<polygon fill="none" stroke="black" points="47,-311 47,-331 219,-331 219,-311 47,-311"/>
<text text-anchor="middle" x="133" y="-318" font-family="FreeSans" font-size="10.00">Kitware.VTK.vtkObjectEventRelay</text>
</a>
</g>
<!-- Node5&#45;&gt;Node6 -->
<g id="edge12" class="edge"><title>Node5&#45;&gt;Node6</title>
<path fill="none" stroke="midnightblue" d="M313.888,-612.325C346.276,-562.899 423.803,-427.191 356,-350 346.773,-339.495 278.047,-331.666 219.298,-326.808"/>
<polygon fill="midnightblue" stroke="midnightblue" points="310.891,-610.509 308.239,-620.767 316.709,-614.402 310.891,-610.509"/>
</g>
<!-- Node6&#45;&gt;Node3 -->
<g id="edge10" class="edge"><title>Node6&#45;&gt;Node3</title>
<path fill="none" stroke="#9a32cd" stroke-dasharray="5,2" d="M124.921,-301.321C108.489,-261.293 71.6738,-171.616 59.2144,-141.266"/>
<polygon fill="#9a32cd" stroke="#9a32cd" points="121.771,-302.863 128.806,-310.785 128.246,-300.205 121.771,-302.863"/>
<text text-anchor="middle" x="232.5" y="-283" font-family="FreeSans" font-size="10.00"> LeftButtonReleaseEvtRelay</text>
<text text-anchor="middle" x="232.5" y="-271" font-family="FreeSans" font-size="10.00">KeyPressEvtRelay</text>
<text text-anchor="middle" x="232.5" y="-259" font-family="FreeSans" font-size="10.00">DomainModifiedEvtRelay</text>
<text text-anchor="middle" x="232.5" y="-247" font-family="FreeSans" font-size="10.00">VolumeMapperComputeGradientsStartEvtRelay</text>
<text text-anchor="middle" x="232.5" y="-235" font-family="FreeSans" font-size="10.00">ErrorEvtRelay</text>
<text text-anchor="middle" x="232.5" y="-223" font-family="FreeSans" font-size="10.00">VolumeMapperRenderStartEvtRelay</text>
<text text-anchor="middle" x="232.5" y="-211" font-family="FreeSans" font-size="10.00">StartEvtRelay</text>
<text text-anchor="middle" x="232.5" y="-199" font-family="FreeSans" font-size="10.00">ResetCameraEvtRelay</text>
<text text-anchor="middle" x="232.5" y="-187" font-family="FreeSans" font-size="10.00">EnableEvtRelay</text>
<text text-anchor="middle" x="232.5" y="-175" font-family="FreeSans" font-size="10.00">DeleteEvtRelay</text>
<text text-anchor="middle" x="232.5" y="-163" font-family="FreeSans" font-size="10.00">...</text>
</g>
<!-- Node6&#45;&gt;Node7 -->
<g id="edge18" class="edge"><title>Node6&#45;&gt;Node7</title>
<path fill="none" stroke="#9a32cd" stroke-dasharray="5,2" d="M130.028,-341.231C129.649,-344.169 129.293,-347.159 129,-350 123.144,-406.853 119.636,-475.333 118.452,-500.807"/>
<polygon fill="#9a32cd" stroke="#9a32cd" points="133.515,-341.565 131.421,-331.179 126.582,-340.604 133.515,-341.565"/>
<text text-anchor="middle" x="242.5" y="-473" font-family="FreeSans" font-size="10.00"> LeftButtonReleaseEvtRelay</text>
<text text-anchor="middle" x="242.5" y="-461" font-family="FreeSans" font-size="10.00">KeyPressEvtRelay</text>
<text text-anchor="middle" x="242.5" y="-449" font-family="FreeSans" font-size="10.00">DomainModifiedEvtRelay</text>
<text text-anchor="middle" x="242.5" y="-437" font-family="FreeSans" font-size="10.00">VolumeMapperComputeGradientsStartEvtRelay</text>
<text text-anchor="middle" x="242.5" y="-425" font-family="FreeSans" font-size="10.00">ErrorEvtRelay</text>
<text text-anchor="middle" x="242.5" y="-413" font-family="FreeSans" font-size="10.00">VolumeMapperRenderStartEvtRelay</text>
<text text-anchor="middle" x="242.5" y="-401" font-family="FreeSans" font-size="10.00">StartEvtRelay</text>
<text text-anchor="middle" x="242.5" y="-389" font-family="FreeSans" font-size="10.00">ResetCameraEvtRelay</text>
<text text-anchor="middle" x="242.5" y="-377" font-family="FreeSans" font-size="10.00">EnableEvtRelay</text>
<text text-anchor="middle" x="242.5" y="-365" font-family="FreeSans" font-size="10.00">DeleteEvtRelay</text>
<text text-anchor="middle" x="242.5" y="-353" font-family="FreeSans" font-size="10.00">...</text>
</g>
<!-- Node7&#45;&gt;Node6 -->
<g id="edge14" class="edge"><title>Node7&#45;&gt;Node6</title>
<path fill="none" stroke="#9a32cd" stroke-dasharray="5,2" d="M71.9794,-495.818C66.4393,-492.138 61.5104,-487.596 58,-482 26.8229,-432.303 24.8299,-398.389 58,-350 62.7359,-343.091 79.5114,-336.287 95.9987,-331.008"/>
<polygon fill="#9a32cd" stroke="#9a32cd" points="70.6386,-499.079 81.0724,-500.919 74.0636,-492.974 70.6386,-499.079"/>
<text text-anchor="middle" x="82" y="-419" font-family="FreeSans" font-size="10.00"> Sender</text>
<text text-anchor="middle" x="82" y="-407" font-family="FreeSans" font-size="10.00">EventImpl</text>
</g>
</g>
</svg>
