<?xml version="1.0" encoding="UTF-8" standalone="no"?>
<!DOCTYPE svg PUBLIC "-//W3C//DTD SVG 1.1//EN"
 "http://www.w3.org/Graphics/SVG/1.1/DTD/svg11.dtd">
<!-- Generated by graphviz version 2.26.3 (20100126.1600)
 -->
<!-- Title: G Pages: 1 -->
<svg width="256pt" height="262pt"
 viewBox="0.00 0.00 256.00 262.00" xmlns="http://www.w3.org/2000/svg" xmlns:xlink="http://www.w3.org/1999/xlink">
<g id="graph1" class="graph" transform="scale(1 1) rotate(0) translate(4 258)">
<title>G</title>
<!-- Node1 -->
<g id="node1" class="node"><title>Node1</title>
<polygon fill="#bfbfbf" stroke="black" points="26,-59 26,-79 222,-79 222,-59 26,-59"/>
<text text-anchor="middle" x="124" y="-66" font-family="FreeSans" font-size="10.00">Kitware.VTK.vtkLabelHierarchyIterator</text>
</g>
<!-- Node5 -->
<g id="node9" class="node"><title>Node5</title>
<a xlink:href="class_kitware_1_1_v_t_k_1_1vtk_label_hierarchy_composite_iterator.html" target="_top" xlink:title="vtkLabelHierarchyCompositeIterator &#45; Iterator over sub&#45;iterators">
<polygon fill="none" stroke="black" points="0,-1 0,-21 248,-21 248,-1 0,-1"/>
<text text-anchor="middle" x="124" y="-8" font-family="FreeSans" font-size="10.00">Kitware.VTK.vtkLabelHierarchyCompositeIterator</text>
</a>
</g>
<!-- Node1&#45;&gt;Node5 -->
<g id="edge8" class="edge"><title>Node1&#45;&gt;Node5</title>
<path fill="none" stroke="midnightblue" d="M124,-48.8902C124,-39.6201 124,-29.0083 124,-21.3776"/>
<polygon fill="midnightblue" stroke="midnightblue" points="120.5,-48.8971 124,-58.8972 127.5,-48.8972 120.5,-48.8971"/>
</g>
<!-- Node2 -->
<g id="node2" class="node"><title>Node2</title>
<a xlink:href="class_kitware_1_1_v_t_k_1_1vtk_object.html" target="_top" xlink:title="vtkObject &#45; abstract base class for most VTK objects">
<polygon fill="none" stroke="black" points="93,-117 93,-137 155,-137 155,-117 93,-117"/>
<text text-anchor="middle" x="124" y="-124" font-family="FreeSans" font-size="10.00">vtkObject</text>
</a>
</g>
<!-- Node2&#45;&gt;Node1 -->
<g id="edge2" class="edge"><title>Node2&#45;&gt;Node1</title>
<path fill="none" stroke="midnightblue" d="M124,-106.89C124,-97.6201 124,-87.0083 124,-79.3776"/>
<polygon fill="midnightblue" stroke="midnightblue" points="120.5,-106.897 124,-116.897 127.5,-106.897 120.5,-106.897"/>
</g>
<!-- Node3 -->
<g id="node4" class="node"><title>Node3</title>
<a xlink:href="class_kitware_1_1_v_t_k_1_1vtk_object_base.html" target="_top" xlink:title="vtkObjectBase &#45; abstract base class for most VTK objects">
<polygon fill="none" stroke="black" points="81,-175 81,-195 167,-195 167,-175 81,-175"/>
<text text-anchor="middle" x="124" y="-182" font-family="FreeSans" font-size="10.00">vtkObjectBase</text>
</a>
</g>
<!-- Node3&#45;&gt;Node2 -->
<g id="edge4" class="edge"><title>Node3&#45;&gt;Node2</title>
<path fill="none" stroke="midnightblue" d="M124,-164.89C124,-155.62 124,-145.008 124,-137.378"/>
<polygon fill="midnightblue" stroke="midnightblue" points="120.5,-164.897 124,-174.897 127.5,-164.897 120.5,-164.897"/>
</g>
<!-- Node4 -->
<g id="node6" class="node"><title>Node4</title>
<a xlink:href="class_kitware_1_1_v_t_k_1_1_wrapped_object.html" target="_top" xlink:title="Base class for all the mummy wrapped classes in Kitware.VTK.">
<polygon fill="none" stroke="black" points="79.5,-233 79.5,-253 168.5,-253 168.5,-233 79.5,-233"/>
<text text-anchor="middle" x="124" y="-240" font-family="FreeSans" font-size="10.00">WrappedObject</text>
</a>
</g>
<!-- Node4&#45;&gt;Node3 -->
<g id="edge6" class="edge"><title>Node4&#45;&gt;Node3</title>
<path fill="none" stroke="midnightblue" d="M124,-222.89C124,-213.62 124,-203.008 124,-195.378"/>
<polygon fill="midnightblue" stroke="midnightblue" points="120.5,-222.897 124,-232.897 127.5,-222.897 120.5,-222.897"/>
</g>
</g>
</svg>
