<?xml version="1.0" encoding="UTF-8" standalone="no"?>
<!DOCTYPE svg PUBLIC "-//W3C//DTD SVG 1.1//EN"
 "http://www.w3.org/Graphics/SVG/1.1/DTD/svg11.dtd">
<!-- Generated by graphviz version 2.26.3 (20100126.1600)
 -->
<!-- Title: G Pages: 1 -->
<svg width="432pt" height="378pt"
 viewBox="0.00 0.00 432.00 378.00" xmlns="http://www.w3.org/2000/svg" xmlns:xlink="http://www.w3.org/1999/xlink">
<g id="graph1" class="graph" transform="scale(1 1) rotate(0) translate(4 374)">
<title>G</title>
<!-- Node1 -->
<g id="node1" class="node"><title>Node1</title>
<polygon fill="#bfbfbf" stroke="black" points="129.5,-59 129.5,-79 284.5,-79 284.5,-59 129.5,-59"/>
<text text-anchor="middle" x="207" y="-66" font-family="FreeSans" font-size="10.00">Kitware.VTK.vtkButtonSource</text>
</g>
<!-- Node7 -->
<g id="node13" class="node"><title>Node7</title>
<a xlink:href="class_kitware_1_1_v_t_k_1_1vtk_elliptical_button_source.html" target="_top" xlink:title="vtkEllipticalButtonSource &#45; create a ellipsoidal&#45;shaped button">
<polygon fill="none" stroke="black" points="0,-1 0,-21 194,-21 194,-1 0,-1"/>
<text text-anchor="middle" x="97" y="-8" font-family="FreeSans" font-size="10.00">Kitware.VTK.vtkEllipticalButtonSource</text>
</a>
</g>
<!-- Node1&#45;&gt;Node7 -->
<g id="edge12" class="edge"><title>Node1&#45;&gt;Node7</title>
<path fill="none" stroke="midnightblue" d="M178.768,-54.1138C159.18,-43.7859 133.603,-30.2996 116.31,-21.1817"/>
<polygon fill="midnightblue" stroke="midnightblue" points="177.361,-57.329 187.839,-58.8972 180.626,-51.137 177.361,-57.329"/>
</g>
<!-- Node8 -->
<g id="node15" class="node"><title>Node8</title>
<a xlink:href="class_kitware_1_1_v_t_k_1_1vtk_rectangular_button_source.html" target="_top" xlink:title="vtkRectangularButtonSource &#45; create a rectangular button">
<polygon fill="none" stroke="black" points="212,-1 212,-21 424,-21 424,-1 212,-1"/>
<text text-anchor="middle" x="318" y="-8" font-family="FreeSans" font-size="10.00">Kitware.VTK.vtkRectangularButtonSource</text>
</a>
</g>
<!-- Node1&#45;&gt;Node8 -->
<g id="edge14" class="edge"><title>Node1&#45;&gt;Node8</title>
<path fill="none" stroke="midnightblue" d="M235.22,-54.2544C255.02,-43.9086 280.985,-30.3411 298.514,-21.1817"/>
<polygon fill="midnightblue" stroke="midnightblue" points="233.577,-51.1639 226.335,-58.8972 236.819,-57.3681 233.577,-51.1639"/>
</g>
<!-- Node2 -->
<g id="node2" class="node"><title>Node2</title>
<a xlink:href="class_kitware_1_1_v_t_k_1_1vtk_poly_data_algorithm.html" target="_top" xlink:title="vtkPolyDataAlgorithm &#45; Superclass for algorithms that produce only polydata as output">
<polygon fill="none" stroke="black" points="147,-117 147,-137 267,-137 267,-117 147,-117"/>
<text text-anchor="middle" x="207" y="-124" font-family="FreeSans" font-size="10.00">vtkPolyDataAlgorithm</text>
</a>
</g>
<!-- Node2&#45;&gt;Node1 -->
<g id="edge2" class="edge"><title>Node2&#45;&gt;Node1</title>
<path fill="none" stroke="midnightblue" d="M207,-106.89C207,-97.6201 207,-87.0083 207,-79.3776"/>
<polygon fill="midnightblue" stroke="midnightblue" points="203.5,-106.897 207,-116.897 210.5,-106.897 203.5,-106.897"/>
</g>
<!-- Node3 -->
<g id="node4" class="node"><title>Node3</title>
<a xlink:href="class_kitware_1_1_v_t_k_1_1vtk_algorithm.html" target="_top" xlink:title="vtkAlgorithm &#45; Superclass for all sources, filters, and sinks in VTK.">
<polygon fill="none" stroke="black" points="168.5,-175 168.5,-195 245.5,-195 245.5,-175 168.5,-175"/>
<text text-anchor="middle" x="207" y="-182" font-family="FreeSans" font-size="10.00">vtkAlgorithm</text>
</a>
</g>
<!-- Node3&#45;&gt;Node2 -->
<g id="edge4" class="edge"><title>Node3&#45;&gt;Node2</title>
<path fill="none" stroke="midnightblue" d="M207,-164.89C207,-155.62 207,-145.008 207,-137.378"/>
<polygon fill="midnightblue" stroke="midnightblue" points="203.5,-164.897 207,-174.897 210.5,-164.897 203.5,-164.897"/>
</g>
<!-- Node4 -->
<g id="node6" class="node"><title>Node4</title>
<a xlink:href="class_kitware_1_1_v_t_k_1_1vtk_object.html" target="_top" xlink:title="vtkObject &#45; abstract base class for most VTK objects">
<polygon fill="none" stroke="black" points="176,-233 176,-253 238,-253 238,-233 176,-233"/>
<text text-anchor="middle" x="207" y="-240" font-family="FreeSans" font-size="10.00">vtkObject</text>
</a>
</g>
<!-- Node4&#45;&gt;Node3 -->
<g id="edge6" class="edge"><title>Node4&#45;&gt;Node3</title>
<path fill="none" stroke="midnightblue" d="M207,-222.89C207,-213.62 207,-203.008 207,-195.378"/>
<polygon fill="midnightblue" stroke="midnightblue" points="203.5,-222.897 207,-232.897 210.5,-222.897 203.5,-222.897"/>
</g>
<!-- Node5 -->
<g id="node8" class="node"><title>Node5</title>
<a xlink:href="class_kitware_1_1_v_t_k_1_1vtk_object_base.html" target="_top" xlink:title="vtkObjectBase &#45; abstract base class for most VTK objects">
<polygon fill="none" stroke="black" points="164,-291 164,-311 250,-311 250,-291 164,-291"/>
<text text-anchor="middle" x="207" y="-298" font-family="FreeSans" font-size="10.00">vtkObjectBase</text>
</a>
</g>
<!-- Node5&#45;&gt;Node4 -->
<g id="edge8" class="edge"><title>Node5&#45;&gt;Node4</title>
<path fill="none" stroke="midnightblue" d="M207,-280.89C207,-271.62 207,-261.008 207,-253.378"/>
<polygon fill="midnightblue" stroke="midnightblue" points="203.5,-280.897 207,-290.897 210.5,-280.897 203.5,-280.897"/>
</g>
<!-- Node6 -->
<g id="node10" class="node"><title>Node6</title>
<a xlink:href="class_kitware_1_1_v_t_k_1_1_wrapped_object.html" target="_top" xlink:title="Base class for all the mummy wrapped classes in Kitware.VTK.">
<polygon fill="none" stroke="black" points="162.5,-349 162.5,-369 251.5,-369 251.5,-349 162.5,-349"/>
<text text-anchor="middle" x="207" y="-356" font-family="FreeSans" font-size="10.00">WrappedObject</text>
</a>
</g>
<!-- Node6&#45;&gt;Node5 -->
<g id="edge10" class="edge"><title>Node6&#45;&gt;Node5</title>
<path fill="none" stroke="midnightblue" d="M207,-338.89C207,-329.62 207,-319.008 207,-311.378"/>
<polygon fill="midnightblue" stroke="midnightblue" points="203.5,-338.897 207,-348.897 210.5,-338.897 203.5,-338.897"/>
</g>
</g>
</svg>
