<?xml version="1.0" encoding="UTF-8" standalone="no"?>
<!DOCTYPE svg PUBLIC "-//W3C//DTD SVG 1.1//EN"
 "http://www.w3.org/Graphics/SVG/1.1/DTD/svg11.dtd">
<!-- Generated by graphviz version 2.26.3 (20100126.1600)
 -->
<!-- Title: G Pages: 1 -->
<svg width="447pt" height="650pt"
 viewBox="0.00 0.00 447.46 650.00" xmlns="http://www.w3.org/2000/svg" xmlns:xlink="http://www.w3.org/1999/xlink">
<g id="graph1" class="graph" transform="scale(1 1) rotate(0) translate(4 646)">
<title>G</title>
<!-- Node1 -->
<g id="node1" class="node"><title>Node1</title>
<polygon fill="#bfbfbf" stroke="black" points="0,-1 0,-21 222,-21 222,-1 0,-1"/>
<text text-anchor="middle" x="111" y="-8" font-family="FreeSans" font-size="10.00">Kitware.VTK.vtkHierarchicalBoxDataIterator</text>
</g>
<!-- Node2 -->
<g id="node2" class="node"><title>Node2</title>
<a xlink:href="class_kitware_1_1_v_t_k_1_1vtk_composite_data_iterator.html" target="_top" xlink:title="vtkCompositeDataIterator &#45; superclass for composite data iterators">
<polygon fill="none" stroke="black" points="40.5,-61 40.5,-81 181.5,-81 181.5,-61 40.5,-61"/>
<text text-anchor="middle" x="111" y="-68" font-family="FreeSans" font-size="10.00">vtkCompositeDataIterator</text>
</a>
</g>
<!-- Node2&#45;&gt;Node1 -->
<g id="edge2" class="edge"><title>Node2&#45;&gt;Node1</title>
<path fill="none" stroke="midnightblue" d="M111,-50.5155C111,-40.562 111,-29.0495 111,-21.0279"/>
<polygon fill="midnightblue" stroke="midnightblue" points="107.5,-50.8218 111,-60.8218 114.5,-50.8219 107.5,-50.8218"/>
</g>
<!-- Node3 -->
<g id="node4" class="node"><title>Node3</title>
<a xlink:href="class_kitware_1_1_v_t_k_1_1vtk_object.html" target="_top" xlink:title="vtkObject &#45; abstract base class for most VTK objects">
<polygon fill="none" stroke="black" points="80,-121 80,-141 142,-141 142,-121 80,-121"/>
<text text-anchor="middle" x="111" y="-128" font-family="FreeSans" font-size="10.00">vtkObject</text>
</a>
</g>
<!-- Node3&#45;&gt;Node2 -->
<g id="edge4" class="edge"><title>Node3&#45;&gt;Node2</title>
<path fill="none" stroke="midnightblue" d="M111,-110.516C111,-100.562 111,-89.0495 111,-81.0279"/>
<polygon fill="midnightblue" stroke="midnightblue" points="107.5,-110.822 111,-120.822 114.5,-110.822 107.5,-110.822"/>
</g>
<!-- Node4 -->
<g id="node6" class="node"><title>Node4</title>
<a xlink:href="class_kitware_1_1_v_t_k_1_1vtk_object_base.html" target="_top" xlink:title="vtkObjectBase &#45; abstract base class for most VTK objects">
<polygon fill="none" stroke="black" points="131,-561 131,-581 217,-581 217,-561 131,-561"/>
<text text-anchor="middle" x="174" y="-568" font-family="FreeSans" font-size="10.00">vtkObjectBase</text>
</a>
</g>
<!-- Node4&#45;&gt;Node3 -->
<g id="edge6" class="edge"><title>Node4&#45;&gt;Node3</title>
<path fill="none" stroke="midnightblue" d="M145.423,-555.886C131.687,-547.44 115.884,-535.826 105,-522 93.1564,-506.955 92.6209,-500.802 89,-482 63.4248,-349.199 98.5766,-183.437 108.516,-141.17"/>
<polygon fill="midnightblue" stroke="midnightblue" points="143.683,-558.923 154.079,-560.97 147.229,-552.887 143.683,-558.923"/>
</g>
<!-- Node7 -->
<g id="node13" class="node"><title>Node7</title>
<a xlink:href="class_kitware_1_1_v_t_k_1_1vtk_object.html" target="_top" xlink:title="vtkObject &#45; abstract base class for most VTK objects">
<polygon fill="none" stroke="black" points="114,-501 114,-521 234,-521 234,-501 114,-501"/>
<text text-anchor="middle" x="174" y="-508" font-family="FreeSans" font-size="10.00">Kitware.VTK.vtkObject</text>
</a>
</g>
<!-- Node4&#45;&gt;Node7 -->
<g id="edge16" class="edge"><title>Node4&#45;&gt;Node7</title>
<path fill="none" stroke="midnightblue" d="M174,-550.516C174,-540.562 174,-529.05 174,-521.028"/>
<polygon fill="midnightblue" stroke="midnightblue" points="170.5,-550.822 174,-560.822 177.5,-550.822 170.5,-550.822"/>
</g>
<!-- Node5 -->
<g id="node8" class="node"><title>Node5</title>
<a xlink:href="class_kitware_1_1_v_t_k_1_1_wrapped_object.html" target="_top" xlink:title="Base class for all the mummy wrapped classes in Kitware.VTK.">
<polygon fill="none" stroke="black" points="312.5,-621 312.5,-641 401.5,-641 401.5,-621 312.5,-621"/>
<text text-anchor="middle" x="357" y="-628" font-family="FreeSans" font-size="10.00">WrappedObject</text>
</a>
</g>
<!-- Node5&#45;&gt;Node4 -->
<g id="edge8" class="edge"><title>Node5&#45;&gt;Node4</title>
<path fill="none" stroke="midnightblue" d="M316.804,-617.821C283.042,-606.752 235.512,-591.168 204.73,-581.075"/>
<polygon fill="midnightblue" stroke="midnightblue" points="315.777,-621.168 326.37,-620.957 317.958,-614.516 315.777,-621.168"/>
</g>
<!-- Node6 -->
<g id="node10" class="node"><title>Node6</title>
<a xlink:href="class_kitware_1_1_v_t_k_1_1vtk_object_event_relay.html" target="_top" xlink:title="Implement a relay handler for VTK events. This is a class that receives events directly from the VTK ...">
<polygon fill="none" stroke="black" points="103,-311 103,-331 275,-331 275,-311 103,-311"/>
<text text-anchor="middle" x="189" y="-318" font-family="FreeSans" font-size="10.00">Kitware.VTK.vtkObjectEventRelay</text>
</a>
</g>
<!-- Node5&#45;&gt;Node6 -->
<g id="edge12" class="edge"><title>Node5&#45;&gt;Node6</title>
<path fill="none" stroke="midnightblue" d="M369.888,-612.325C402.276,-562.899 479.803,-427.191 412,-350 402.773,-339.495 334.047,-331.666 275.298,-326.808"/>
<polygon fill="midnightblue" stroke="midnightblue" points="366.891,-610.509 364.239,-620.767 372.709,-614.402 366.891,-610.509"/>
</g>
<!-- Node6&#45;&gt;Node3 -->
<g id="edge10" class="edge"><title>Node6&#45;&gt;Node3</title>
<path fill="none" stroke="#9a32cd" stroke-dasharray="5,2" d="M180.921,-301.321C164.489,-261.293 127.674,-171.616 115.214,-141.266"/>
<polygon fill="#9a32cd" stroke="#9a32cd" points="177.771,-302.863 184.806,-310.785 184.246,-300.205 177.771,-302.863"/>
<text text-anchor="middle" x="288.5" y="-283" font-family="FreeSans" font-size="10.00"> LeftButtonReleaseEvtRelay</text>
<text text-anchor="middle" x="288.5" y="-271" font-family="FreeSans" font-size="10.00">KeyPressEvtRelay</text>
<text text-anchor="middle" x="288.5" y="-259" font-family="FreeSans" font-size="10.00">DomainModifiedEvtRelay</text>
<text text-anchor="middle" x="288.5" y="-247" font-family="FreeSans" font-size="10.00">VolumeMapperComputeGradientsStartEvtRelay</text>
<text text-anchor="middle" x="288.5" y="-235" font-family="FreeSans" font-size="10.00">ErrorEvtRelay</text>
<text text-anchor="middle" x="288.5" y="-223" font-family="FreeSans" font-size="10.00">VolumeMapperRenderStartEvtRelay</text>
<text text-anchor="middle" x="288.5" y="-211" font-family="FreeSans" font-size="10.00">StartEvtRelay</text>
<text text-anchor="middle" x="288.5" y="-199" font-family="FreeSans" font-size="10.00">ResetCameraEvtRelay</text>
<text text-anchor="middle" x="288.5" y="-187" font-family="FreeSans" font-size="10.00">EnableEvtRelay</text>
<text text-anchor="middle" x="288.5" y="-175" font-family="FreeSans" font-size="10.00">DeleteEvtRelay</text>
<text text-anchor="middle" x="288.5" y="-163" font-family="FreeSans" font-size="10.00">...</text>
</g>
<!-- Node6&#45;&gt;Node7 -->
<g id="edge18" class="edge"><title>Node6&#45;&gt;Node7</title>
<path fill="none" stroke="#9a32cd" stroke-dasharray="5,2" d="M186.028,-341.231C185.649,-344.169 185.293,-347.159 185,-350 179.144,-406.853 175.636,-475.333 174.452,-500.807"/>
<polygon fill="#9a32cd" stroke="#9a32cd" points="189.515,-341.565 187.421,-331.179 182.582,-340.604 189.515,-341.565"/>
<text text-anchor="middle" x="298.5" y="-473" font-family="FreeSans" font-size="10.00"> LeftButtonReleaseEvtRelay</text>
<text text-anchor="middle" x="298.5" y="-461" font-family="FreeSans" font-size="10.00">KeyPressEvtRelay</text>
<text text-anchor="middle" x="298.5" y="-449" font-family="FreeSans" font-size="10.00">DomainModifiedEvtRelay</text>
<text text-anchor="middle" x="298.5" y="-437" font-family="FreeSans" font-size="10.00">VolumeMapperComputeGradientsStartEvtRelay</text>
<text text-anchor="middle" x="298.5" y="-425" font-family="FreeSans" font-size="10.00">ErrorEvtRelay</text>
<text text-anchor="middle" x="298.5" y="-413" font-family="FreeSans" font-size="10.00">VolumeMapperRenderStartEvtRelay</text>
<text text-anchor="middle" x="298.5" y="-401" font-family="FreeSans" font-size="10.00">StartEvtRelay</text>
<text text-anchor="middle" x="298.5" y="-389" font-family="FreeSans" font-size="10.00">ResetCameraEvtRelay</text>
<text text-anchor="middle" x="298.5" y="-377" font-family="FreeSans" font-size="10.00">EnableEvtRelay</text>
<text text-anchor="middle" x="298.5" y="-365" font-family="FreeSans" font-size="10.00">DeleteEvtRelay</text>
<text text-anchor="middle" x="298.5" y="-353" font-family="FreeSans" font-size="10.00">...</text>
</g>
<!-- Node7&#45;&gt;Node6 -->
<g id="edge14" class="edge"><title>Node7&#45;&gt;Node6</title>
<path fill="none" stroke="#9a32cd" stroke-dasharray="5,2" d="M127.979,-495.818C122.439,-492.138 117.51,-487.596 114,-482 82.8229,-432.303 80.8299,-398.389 114,-350 118.736,-343.091 135.511,-336.287 151.999,-331.008"/>
<polygon fill="#9a32cd" stroke="#9a32cd" points="126.639,-499.079 137.072,-500.919 130.064,-492.974 126.639,-499.079"/>
<text text-anchor="middle" x="138" y="-419" font-family="FreeSans" font-size="10.00"> Sender</text>
<text text-anchor="middle" x="138" y="-407" font-family="FreeSans" font-size="10.00">EventImpl</text>
</g>
</g>
</svg>
