<?xml version="1.0" encoding="UTF-8" standalone="no"?>
<!DOCTYPE svg PUBLIC "-//W3C//DTD SVG 1.1//EN"
 "http://www.w3.org/Graphics/SVG/1.1/DTD/svg11.dtd">
<!-- Generated by graphviz version 2.26.3 (20100126.1600)
 -->
<!-- Title: G Pages: 1 -->
<svg width="184pt" height="262pt"
 viewBox="0.00 0.00 184.00 262.00" xmlns="http://www.w3.org/2000/svg" xmlns:xlink="http://www.w3.org/1999/xlink">
<g id="graph1" class="graph" transform="scale(1 1) rotate(0) translate(4 258)">
<title>G</title>
<!-- Node1 -->
<g id="node1" class="node"><title>Node1</title>
<polygon fill="#bfbfbf" stroke="black" points="0,-1 0,-21 176,-21 176,-1 0,-1"/>
<text text-anchor="middle" x="88" y="-8" font-family="FreeSans" font-size="10.00">Kitware.VTK.vtkXMLFileReadTester</text>
</g>
<!-- Node2 -->
<g id="node2" class="node"><title>Node2</title>
<a xlink:href="class_kitware_1_1_v_t_k_1_1vtk_x_m_l_parser.html" target="_top" xlink:title="vtkXMLParser &#45; Parse XML to handle element tags and attributes.">
<polygon fill="none" stroke="black" points="48,-59 48,-79 128,-79 128,-59 48,-59"/>
<text text-anchor="middle" x="88" y="-66" font-family="FreeSans" font-size="10.00">vtkXMLParser</text>
</a>
</g>
<!-- Node2&#45;&gt;Node1 -->
<g id="edge2" class="edge"><title>Node2&#45;&gt;Node1</title>
<path fill="none" stroke="midnightblue" d="M88,-48.8902C88,-39.6201 88,-29.0083 88,-21.3776"/>
<polygon fill="midnightblue" stroke="midnightblue" points="84.5001,-48.8971 88,-58.8972 91.5001,-48.8972 84.5001,-48.8971"/>
</g>
<!-- Node3 -->
<g id="node4" class="node"><title>Node3</title>
<a xlink:href="class_kitware_1_1_v_t_k_1_1vtk_object.html" target="_top" xlink:title="vtkObject &#45; abstract base class for most VTK objects">
<polygon fill="none" stroke="black" points="57,-117 57,-137 119,-137 119,-117 57,-117"/>
<text text-anchor="middle" x="88" y="-124" font-family="FreeSans" font-size="10.00">vtkObject</text>
</a>
</g>
<!-- Node3&#45;&gt;Node2 -->
<g id="edge4" class="edge"><title>Node3&#45;&gt;Node2</title>
<path fill="none" stroke="midnightblue" d="M88,-106.89C88,-97.6201 88,-87.0083 88,-79.3776"/>
<polygon fill="midnightblue" stroke="midnightblue" points="84.5001,-106.897 88,-116.897 91.5001,-106.897 84.5001,-106.897"/>
</g>
<!-- Node4 -->
<g id="node6" class="node"><title>Node4</title>
<a xlink:href="class_kitware_1_1_v_t_k_1_1vtk_object_base.html" target="_top" xlink:title="vtkObjectBase &#45; abstract base class for most VTK objects">
<polygon fill="none" stroke="black" points="45,-175 45,-195 131,-195 131,-175 45,-175"/>
<text text-anchor="middle" x="88" y="-182" font-family="FreeSans" font-size="10.00">vtkObjectBase</text>
</a>
</g>
<!-- Node4&#45;&gt;Node3 -->
<g id="edge6" class="edge"><title>Node4&#45;&gt;Node3</title>
<path fill="none" stroke="midnightblue" d="M88,-164.89C88,-155.62 88,-145.008 88,-137.378"/>
<polygon fill="midnightblue" stroke="midnightblue" points="84.5001,-164.897 88,-174.897 91.5001,-164.897 84.5001,-164.897"/>
</g>
<!-- Node5 -->
<g id="node8" class="node"><title>Node5</title>
<a xlink:href="class_kitware_1_1_v_t_k_1_1_wrapped_object.html" target="_top" xlink:title="Base class for all the mummy wrapped classes in Kitware.VTK.">
<polygon fill="none" stroke="black" points="43.5,-233 43.5,-253 132.5,-253 132.5,-233 43.5,-233"/>
<text text-anchor="middle" x="88" y="-240" font-family="FreeSans" font-size="10.00">WrappedObject</text>
</a>
</g>
<!-- Node5&#45;&gt;Node4 -->
<g id="edge8" class="edge"><title>Node5&#45;&gt;Node4</title>
<path fill="none" stroke="midnightblue" d="M88,-222.89C88,-213.62 88,-203.008 88,-195.378"/>
<polygon fill="midnightblue" stroke="midnightblue" points="84.5001,-222.897 88,-232.897 91.5001,-222.897 84.5001,-222.897"/>
</g>
</g>
</svg>
