<?xml version="1.0" encoding="UTF-8" standalone="no"?>
<!DOCTYPE svg PUBLIC "-//W3C//DTD SVG 1.1//EN"
 "http://www.w3.org/Graphics/SVG/1.1/DTD/svg11.dtd">
<!-- Generated by graphviz version 2.26.3 (20100126.1600)
 -->
<!-- Title: G Pages: 1 -->
<svg width="1162pt" height="902pt"
 viewBox="0.00 0.00 1162.00 902.00" xmlns="http://www.w3.org/2000/svg" xmlns:xlink="http://www.w3.org/1999/xlink">
<g id="graph1" class="graph" transform="scale(1 1) rotate(0) translate(4 898)">
<title>G</title>
<!-- Node1 -->
<g id="node1" class="node"><title>Node1</title>
<polygon fill="#bfbfbf" stroke="black" points="460.5,-437 460.5,-457 625.5,-457 625.5,-437 460.5,-437"/>
<text text-anchor="middle" x="543" y="-444" font-family="FreeSans" font-size="10.00">Kitware.VTK.vtkGraphAlgorithm</text>
</g>
<!-- Node6 -->
<g id="node11" class="node"><title>Node6</title>
<a xlink:href="class_kitware_1_1_v_t_k_1_1vtk_boost_betweenness_clustering.html" target="_top" xlink:title="vtkBoostBetweennessClustering &#45; Implements graph clustering based on edge betweenness centrality...">
<polygon fill="none" stroke="black" points="669.5,-874 669.5,-894 898.5,-894 898.5,-874 669.5,-874"/>
<text text-anchor="middle" x="784" y="-881" font-family="FreeSans" font-size="10.00">Kitware.VTK.vtkBoostBetweennessClustering</text>
</a>
</g>
<!-- Node1&#45;&gt;Node6 -->
<g id="edge10" class="edge"><title>Node1&#45;&gt;Node6</title>
<path fill="none" stroke="midnightblue" d="M545.895,-467.482C557.111,-543.839 600.167,-810.332 662,-865 665.854,-868.408 670.058,-871.343 674.512,-873.866"/>
<polygon fill="midnightblue" stroke="midnightblue" points="549.315,-466.677 544.421,-457.281 542.387,-467.678 549.315,-466.677"/>
</g>
<!-- Node7 -->
<g id="node13" class="node"><title>Node7</title>
<a xlink:href="class_kitware_1_1_v_t_k_1_1vtk_boost_brandes_centrality.html" target="_top" xlink:title="vtkBoostBrandesCentrality &#45; Compute Brandes betweenness centrality on a vtkGraph">
<polygon fill="none" stroke="black" points="682.5,-836 682.5,-856 885.5,-856 885.5,-836 682.5,-836"/>
<text text-anchor="middle" x="784" y="-843" font-family="FreeSans" font-size="10.00">Kitware.VTK.vtkBoostBrandesCentrality</text>
</a>
</g>
<!-- Node1&#45;&gt;Node7 -->
<g id="edge12" class="edge"><title>Node1&#45;&gt;Node7</title>
<path fill="none" stroke="midnightblue" d="M546.422,-466.997C559.021,-538.231 605.064,-777.972 662,-827 668.091,-832.245 675.016,-836.361 682.399,-839.567"/>
<polygon fill="midnightblue" stroke="midnightblue" points="549.856,-466.316 544.69,-457.066 542.96,-467.518 549.856,-466.316"/>
</g>
<!-- Node8 -->
<g id="node15" class="node"><title>Node8</title>
<a xlink:href="class_kitware_1_1_v_t_k_1_1vtk_boost_breadth_first_search.html" target="_top" xlink:title="vtkBoostBreadthFirstSearch &#45; Boost breadth_first_search on a vtkGraph">
<polygon fill="none" stroke="black" points="679.5,-798 679.5,-818 888.5,-818 888.5,-798 679.5,-798"/>
<text text-anchor="middle" x="784" y="-805" font-family="FreeSans" font-size="10.00">Kitware.VTK.vtkBoostBreadthFirstSearch</text>
</a>
</g>
<!-- Node1&#45;&gt;Node8 -->
<g id="edge14" class="edge"><title>Node1&#45;&gt;Node8</title>
<path fill="none" stroke="midnightblue" d="M547.174,-467.121C561.415,-533.793 610.089,-745.698 662,-789 667.267,-793.394 673.124,-796.986 679.341,-799.909"/>
<polygon fill="midnightblue" stroke="midnightblue" points="550.543,-466.132 545.054,-457.069 543.693,-467.576 550.543,-466.132"/>
</g>
<!-- Node9 -->
<g id="node17" class="node"><title>Node9</title>
<a xlink:href="class_kitware_1_1_v_t_k_1_1vtk_boost_connected_components.html" target="_top" xlink:title="vtkBoostConnectedComponents &#45; Find the connected components of a graph">
<polygon fill="none" stroke="black" points="669,-760 669,-780 899,-780 899,-760 669,-760"/>
<text text-anchor="middle" x="784" y="-767" font-family="FreeSans" font-size="10.00">Kitware.VTK.vtkBoostConnectedComponents</text>
</a>
</g>
<!-- Node1&#45;&gt;Node9 -->
<g id="edge16" class="edge"><title>Node1&#45;&gt;Node9</title>
<path fill="none" stroke="midnightblue" d="M544.302,-467.495C549.014,-523.058 570.166,-677.329 662,-751 666.347,-754.488 671.07,-757.463 676.047,-759.993"/>
<polygon fill="midnightblue" stroke="midnightblue" points="547.768,-466.91 543.527,-457.201 540.788,-467.436 547.768,-466.91"/>
</g>
<!-- Node10 -->
<g id="node19" class="node"><title>Node10</title>
<a xlink:href="class_kitware_1_1_v_t_k_1_1vtk_boost_extract_largest_component.html" target="_top" xlink:title="vtkBoostExtractLargestComponent &#45; Extract the largest connected component of a graph">
<polygon fill="none" stroke="black" points="662.5,-722 662.5,-742 905.5,-742 905.5,-722 662.5,-722"/>
<text text-anchor="middle" x="784" y="-729" font-family="FreeSans" font-size="10.00">Kitware.VTK.vtkBoostExtractLargestComponent</text>
</a>
</g>
<!-- Node1&#45;&gt;Node10 -->
<g id="edge18" class="edge"><title>Node1&#45;&gt;Node10</title>
<path fill="none" stroke="midnightblue" d="M545.474,-466.972C552.854,-517.348 579.584,-650.045 662,-713 666.514,-716.448 671.401,-719.386 676.535,-721.882"/>
<polygon fill="midnightblue" stroke="midnightblue" points="548.936,-466.455 544.116,-457.02 542.001,-467.402 548.936,-466.455"/>
</g>
<!-- Node11 -->
<g id="node21" class="node"><title>Node11</title>
<a xlink:href="class_kitware_1_1_v_t_k_1_1vtk_collapse_graph.html" target="_top" xlink:title="vtkCollapseGraph &#45; &quot;Collapses&quot; vertices onto their neighbors.">
<polygon fill="none" stroke="black" points="704.5,-684 704.5,-704 863.5,-704 863.5,-684 704.5,-684"/>
<text text-anchor="middle" x="784" y="-691" font-family="FreeSans" font-size="10.00">Kitware.VTK.vtkCollapseGraph</text>
</a>
</g>
<!-- Node1&#45;&gt;Node11 -->
<g id="edge20" class="edge"><title>Node1&#45;&gt;Node11</title>
<path fill="none" stroke="midnightblue" d="M547.029,-466.853C557.323,-512.046 589.092,-622.716 662,-675 674.368,-683.869 689.26,-689.281 704.324,-692.469"/>
<polygon fill="midnightblue" stroke="midnightblue" points="550.45,-466.11 544.91,-457.079 543.609,-467.594 550.45,-466.11"/>
</g>
<!-- Node12 -->
<g id="node23" class="node"><title>Node12</title>
<a xlink:href="class_kitware_1_1_v_t_k_1_1vtk_collapse_vertices_by_array.html" target="_top" xlink:title="vtkCollapseVerticesByArray &#45; Collapse the graph given a vertex array">
<polygon fill="none" stroke="black" points="681,-646 681,-666 887,-666 887,-646 681,-646"/>
<text text-anchor="middle" x="784" y="-653" font-family="FreeSans" font-size="10.00">Kitware.VTK.vtkCollapseVerticesByArray</text>
</a>
</g>
<!-- Node1&#45;&gt;Node12 -->
<g id="edge22" class="edge"><title>Node1&#45;&gt;Node12</title>
<path fill="none" stroke="midnightblue" d="M549.233,-467.038C562.716,-506.749 598.598,-595.2 662,-637 667.816,-640.835 674.122,-644.002 680.699,-646.609"/>
<polygon fill="midnightblue" stroke="midnightblue" points="552.522,-465.834 546.086,-457.419 545.869,-468.011 552.522,-465.834"/>
</g>
<!-- Node13 -->
<g id="node25" class="node"><title>Node13</title>
<a xlink:href="class_kitware_1_1_v_t_k_1_1vtk_collect_graph.html" target="_top" xlink:title="vtkCollectGraph &#45; Collect distributed graph.">
<polygon fill="none" stroke="black" points="708.5,-608 708.5,-628 859.5,-628 859.5,-608 708.5,-608"/>
<text text-anchor="middle" x="784" y="-615" font-family="FreeSans" font-size="10.00">Kitware.VTK.vtkCollectGraph</text>
</a>
</g>
<!-- Node1&#45;&gt;Node13 -->
<g id="edge24" class="edge"><title>Node1&#45;&gt;Node13</title>
<path fill="none" stroke="midnightblue" d="M552.092,-466.463C568.746,-499.732 607.51,-567.034 662,-599 675.959,-607.189 692.296,-612.2 708.394,-615.196"/>
<polygon fill="midnightblue" stroke="midnightblue" points="555.161,-464.77 547.64,-457.307 548.865,-467.831 555.161,-464.77"/>
</g>
<!-- Node14 -->
<g id="node27" class="node"><title>Node14</title>
<a xlink:href="class_kitware_1_1_v_t_k_1_1vtk_d_i_m_a_c_s_graph_reader.html" target="_top" xlink:title="vtkDIMACSGraphReader &#45; reads vtkGraph data from a DIMACS formatted file">
<polygon fill="none" stroke="black" points="689,-570 689,-590 879,-590 879,-570 689,-570"/>
<text text-anchor="middle" x="784" y="-577" font-family="FreeSans" font-size="10.00">Kitware.VTK.vtkDIMACSGraphReader</text>
</a>
</g>
<!-- Node1&#45;&gt;Node14 -->
<g id="edge26" class="edge"><title>Node1&#45;&gt;Node14</title>
<path fill="none" stroke="midnightblue" d="M556.393,-465.616C576.246,-491.658 616.118,-538.312 662,-561 670.455,-565.181 679.607,-568.485 688.967,-571.092"/>
<polygon fill="midnightblue" stroke="midnightblue" points="559.008,-463.268 550.229,-457.338 553.394,-467.449 559.008,-463.268"/>
</g>
<!-- Node15 -->
<g id="node29" class="node"><title>Node15</title>
<a xlink:href="class_kitware_1_1_v_t_k_1_1vtk_edge_layout.html" target="_top" xlink:title="vtkEdgeLayout &#45; layout graph edges">
<polygon fill="none" stroke="black" points="711,-532 711,-552 857,-552 857,-532 711,-532"/>
<text text-anchor="middle" x="784" y="-539" font-family="FreeSans" font-size="10.00">Kitware.VTK.vtkEdgeLayout</text>
</a>
</g>
<!-- Node1&#45;&gt;Node15 -->
<g id="edge28" class="edge"><title>Node1&#45;&gt;Node15</title>
<path fill="none" stroke="midnightblue" d="M562.744,-463.299C585.286,-480.988 623.979,-508.627 662,-523 677.339,-528.799 694.405,-532.828 710.796,-535.629"/>
<polygon fill="midnightblue" stroke="midnightblue" points="564.927,-460.563 554.93,-457.055 560.557,-466.031 564.927,-460.563"/>
</g>
<!-- Node16 -->
<g id="node31" class="node"><title>Node16</title>
<a xlink:href="class_kitware_1_1_v_t_k_1_1vtk_extract_selected_graph.html" target="_top" xlink:title="vtkExtractSelectedGraph &#45; return a subgraph of a vtkGraph">
<polygon fill="none" stroke="black" points="687,-494 687,-514 881,-514 881,-494 687,-494"/>
<text text-anchor="middle" x="784" y="-501" font-family="FreeSans" font-size="10.00">Kitware.VTK.vtkExtractSelectedGraph</text>
</a>
</g>
<!-- Node1&#45;&gt;Node16 -->
<g id="edge30" class="edge"><title>Node1&#45;&gt;Node16</title>
<path fill="none" stroke="midnightblue" d="M580.035,-460.458C603.312,-468.507 634.112,-478.417 662,-485 676.708,-488.472 692.568,-491.472 707.829,-493.998"/>
<polygon fill="midnightblue" stroke="midnightblue" points="581.145,-457.138 570.55,-457.137 578.832,-463.745 581.145,-457.138"/>
</g>
<!-- Node17 -->
<g id="node33" class="node"><title>Node17</title>
<a xlink:href="class_kitware_1_1_v_t_k_1_1vtk_graph_hierarchical_bundle_edges.html" target="_top" xlink:title="vtkGraphHierarchicalBundleEdges &#45; layout graph arcs in bundles">
<polygon fill="none" stroke="black" points="665.5,-456 665.5,-476 902.5,-476 902.5,-456 665.5,-456"/>
<text text-anchor="middle" x="784" y="-463" font-family="FreeSans" font-size="10.00">Kitware.VTK.vtkGraphHierarchicalBundleEdges</text>
</a>
</g>
<!-- Node1&#45;&gt;Node17 -->
<g id="edge32" class="edge"><title>Node1&#45;&gt;Node17</title>
<path fill="none" stroke="midnightblue" d="M635.623,-454.302C645.34,-455.068 655.313,-455.855 665.269,-456.639"/>
<polygon fill="midnightblue" stroke="midnightblue" points="635.846,-450.809 625.601,-453.512 635.295,-457.787 635.846,-450.809"/>
</g>
<!-- Node18 -->
<g id="node35" class="node"><title>Node18</title>
<a xlink:href="class_kitware_1_1_v_t_k_1_1vtk_graph_layout.html" target="_top" xlink:title="vtkGraphLayout &#45; layout a graph in 2 or 3 dimensions">
<polygon fill="none" stroke="black" points="708.5,-418 708.5,-438 859.5,-438 859.5,-418 708.5,-418"/>
<text text-anchor="middle" x="784" y="-425" font-family="FreeSans" font-size="10.00">Kitware.VTK.vtkGraphLayout</text>
</a>
</g>
<!-- Node1&#45;&gt;Node18 -->
<g id="edge34" class="edge"><title>Node1&#45;&gt;Node18</title>
<path fill="none" stroke="midnightblue" d="M635.786,-439.685C659.801,-437.792 685.369,-435.776 708.387,-433.961"/>
<polygon fill="midnightblue" stroke="midnightblue" points="635.295,-436.213 625.601,-440.488 635.846,-443.191 635.295,-436.213"/>
</g>
<!-- Node19 -->
<g id="node37" class="node"><title>Node19</title>
<a xlink:href="class_kitware_1_1_v_t_k_1_1vtk_merge_graphs.html" target="_top" xlink:title="vtkMergeGraphs &#45; combines two graphs">
<polygon fill="none" stroke="black" points="707,-380 707,-400 861,-400 861,-380 707,-380"/>
<text text-anchor="middle" x="784" y="-387" font-family="FreeSans" font-size="10.00">Kitware.VTK.vtkMergeGraphs</text>
</a>
</g>
<!-- Node1&#45;&gt;Node19 -->
<g id="edge36" class="edge"><title>Node1&#45;&gt;Node19</title>
<path fill="none" stroke="midnightblue" d="M580.035,-433.542C603.312,-425.493 634.112,-415.583 662,-409 676.708,-405.528 692.568,-402.528 707.829,-400.002"/>
<polygon fill="midnightblue" stroke="midnightblue" points="578.832,-430.255 570.55,-436.863 581.145,-436.862 578.832,-430.255"/>
</g>
<!-- Node20 -->
<g id="node39" class="node"><title>Node20</title>
<a xlink:href="class_kitware_1_1_v_t_k_1_1vtk_perturb_coincident_vertices.html" target="_top" xlink:title="vtkPerturbCoincidentVertices &#45; Perturbs vertices that are coincident.">
<polygon fill="none" stroke="black" points="677.5,-342 677.5,-362 890.5,-362 890.5,-342 677.5,-342"/>
<text text-anchor="middle" x="784" y="-349" font-family="FreeSans" font-size="10.00">Kitware.VTK.vtkPerturbCoincidentVertices</text>
</a>
</g>
<!-- Node1&#45;&gt;Node20 -->
<g id="edge38" class="edge"><title>Node1&#45;&gt;Node20</title>
<path fill="none" stroke="midnightblue" d="M562.744,-430.701C585.286,-413.012 623.979,-385.373 662,-371 671.624,-367.362 681.929,-364.42 692.32,-362.041"/>
<polygon fill="midnightblue" stroke="midnightblue" points="560.557,-427.969 554.93,-436.945 564.927,-433.437 560.557,-427.969"/>
</g>
<!-- Node21 -->
<g id="node41" class="node"><title>Node21</title>
<a xlink:href="class_kitware_1_1_v_t_k_1_1vtk_random_graph_source.html" target="_top" xlink:title="vtkRandomGraphSource &#45; a graph with random edges">
<polygon fill="none" stroke="black" points="688,-304 688,-324 880,-324 880,-304 688,-304"/>
<text text-anchor="middle" x="784" y="-311" font-family="FreeSans" font-size="10.00">Kitware.VTK.vtkRandomGraphSource</text>
</a>
</g>
<!-- Node1&#45;&gt;Node21 -->
<g id="edge40" class="edge"><title>Node1&#45;&gt;Node21</title>
<path fill="none" stroke="midnightblue" d="M556.393,-428.384C576.246,-402.342 616.118,-355.688 662,-333 670.07,-329.009 678.776,-325.817 687.692,-323.268"/>
<polygon fill="midnightblue" stroke="midnightblue" points="553.394,-426.551 550.229,-436.662 559.008,-430.732 553.394,-426.551"/>
</g>
<!-- Node23 -->
<g id="node45" class="node"><title>Node23</title>
<a xlink:href="class_kitware_1_1_v_t_k_1_1vtk_remove_isolated_vertices.html" target="_top" xlink:title="vtkRemoveIsolatedVertices &#45; remove vertices of a vtkGraph with degree zero.">
<polygon fill="none" stroke="black" points="682.5,-266 682.5,-286 885.5,-286 885.5,-266 682.5,-266"/>
<text text-anchor="middle" x="784" y="-273" font-family="FreeSans" font-size="10.00">Kitware.VTK.vtkRemoveIsolatedVertices</text>
</a>
</g>
<!-- Node1&#45;&gt;Node23 -->
<g id="edge44" class="edge"><title>Node1&#45;&gt;Node23</title>
<path fill="none" stroke="midnightblue" d="M552.092,-427.537C568.746,-394.268 607.51,-326.966 662,-295 668.379,-291.258 675.254,-288.179 682.376,-285.654"/>
<polygon fill="midnightblue" stroke="midnightblue" points="548.865,-426.169 547.64,-436.693 555.161,-429.23 548.865,-426.169"/>
</g>
<!-- Node24 -->
<g id="node47" class="node"><title>Node24</title>
<a xlink:href="class_kitware_1_1_v_t_k_1_1vtk_spline_graph_edges.html" target="_top" xlink:title="vtkSplineGraphEdges &#45; subsample graph edges to make smooth curves">
<polygon fill="none" stroke="black" points="695.5,-228 695.5,-248 872.5,-248 872.5,-228 695.5,-228"/>
<text text-anchor="middle" x="784" y="-235" font-family="FreeSans" font-size="10.00">Kitware.VTK.vtkSplineGraphEdges</text>
</a>
</g>
<!-- Node1&#45;&gt;Node24 -->
<g id="edge46" class="edge"><title>Node1&#45;&gt;Node24</title>
<path fill="none" stroke="midnightblue" d="M549.233,-426.962C562.716,-387.251 598.598,-298.8 662,-257 672.022,-250.393 683.497,-245.767 695.31,-242.572"/>
<polygon fill="midnightblue" stroke="midnightblue" points="545.869,-425.989 546.086,-436.581 552.522,-428.166 545.869,-425.989"/>
</g>
<!-- Node25 -->
<g id="node49" class="node"><title>Node25</title>
<a xlink:href="class_kitware_1_1_v_t_k_1_1vtk_s_q_l_database_graph_source.html" target="_top" xlink:title="vtkSQLDatabaseGraphSource &#45; Generates a vtkGraph based on an SQL query.">
<polygon fill="none" stroke="black" points="675,-190 675,-210 893,-210 893,-190 675,-190"/>
<text text-anchor="middle" x="784" y="-197" font-family="FreeSans" font-size="10.00">Kitware.VTK.vtkSQLDatabaseGraphSource</text>
</a>
</g>
<!-- Node1&#45;&gt;Node25 -->
<g id="edge48" class="edge"><title>Node1&#45;&gt;Node25</title>
<path fill="none" stroke="midnightblue" d="M547.029,-427.147C557.323,-381.954 589.092,-271.284 662,-219 666.878,-215.502 672.148,-212.542 677.666,-210.044"/>
<polygon fill="midnightblue" stroke="midnightblue" points="543.609,-426.406 544.91,-436.921 550.45,-427.89 543.609,-426.406"/>
</g>
<!-- Node26 -->
<g id="node51" class="node"><title>Node26</title>
<a xlink:href="class_kitware_1_1_v_t_k_1_1vtk_s_q_l_graph_reader.html" target="_top" xlink:title="vtkSQLGraphReader &#45; read a vtkGraph from a database">
<polygon fill="none" stroke="black" points="698.5,-152 698.5,-172 869.5,-172 869.5,-152 698.5,-152"/>
<text text-anchor="middle" x="784" y="-159" font-family="FreeSans" font-size="10.00">Kitware.VTK.vtkSQLGraphReader</text>
</a>
</g>
<!-- Node1&#45;&gt;Node26 -->
<g id="edge50" class="edge"><title>Node1&#45;&gt;Node26</title>
<path fill="none" stroke="midnightblue" d="M545.474,-427.028C552.854,-376.652 579.584,-243.955 662,-181 672.562,-172.932 685.163,-167.658 698.197,-164.297"/>
<polygon fill="midnightblue" stroke="midnightblue" points="542.001,-426.598 544.116,-436.98 548.936,-427.545 542.001,-426.598"/>
</g>
<!-- Node27 -->
<g id="node53" class="node"><title>Node27</title>
<a xlink:href="class_kitware_1_1_v_t_k_1_1vtk_stream_graph.html" target="_top" xlink:title="vtkStreamGraph &#45; combines two graphs">
<polygon fill="none" stroke="black" points="706.5,-114 706.5,-134 861.5,-134 861.5,-114 706.5,-114"/>
<text text-anchor="middle" x="784" y="-121" font-family="FreeSans" font-size="10.00">Kitware.VTK.vtkStreamGraph</text>
</a>
</g>
<!-- Node1&#45;&gt;Node27 -->
<g id="edge52" class="edge"><title>Node1&#45;&gt;Node27</title>
<path fill="none" stroke="midnightblue" d="M544.302,-426.505C549.014,-370.942 570.166,-216.671 662,-143 674.624,-132.873 690.413,-127.067 706.403,-123.913"/>
<polygon fill="midnightblue" stroke="midnightblue" points="540.788,-426.564 543.527,-436.799 547.768,-427.09 540.788,-426.564"/>
</g>
<!-- Node28 -->
<g id="node55" class="node"><title>Node28</title>
<a xlink:href="class_kitware_1_1_v_t_k_1_1vtk_table_to_graph.html" target="_top" xlink:title="vtkTableToGraph &#45; convert a vtkTable into a vtkGraph">
<polygon fill="none" stroke="black" points="708,-76 708,-96 860,-96 860,-76 708,-76"/>
<text text-anchor="middle" x="784" y="-83" font-family="FreeSans" font-size="10.00">Kitware.VTK.vtkTableToGraph</text>
</a>
</g>
<!-- Node1&#45;&gt;Node28 -->
<g id="edge54" class="edge"><title>Node1&#45;&gt;Node28</title>
<path fill="none" stroke="midnightblue" d="M547.174,-426.879C561.415,-360.207 610.089,-148.302 662,-105 674.839,-94.2899 691.181,-88.3424 707.698,-85.2496"/>
<polygon fill="midnightblue" stroke="midnightblue" points="543.693,-426.424 545.054,-436.931 550.543,-427.868 543.693,-426.424"/>
</g>
<!-- Node29 -->
<g id="node57" class="node"><title>Node29</title>
<a xlink:href="class_kitware_1_1_v_t_k_1_1vtk_threshold_graph.html" target="_top" xlink:title="vtkThresholdGraph &#45; Returns a subgraph of a vtkGraph.">
<polygon fill="none" stroke="black" points="701.5,-38 701.5,-58 866.5,-58 866.5,-38 701.5,-38"/>
<text text-anchor="middle" x="784" y="-45" font-family="FreeSans" font-size="10.00">Kitware.VTK.vtkThresholdGraph</text>
</a>
</g>
<!-- Node1&#45;&gt;Node29 -->
<g id="edge56" class="edge"><title>Node1&#45;&gt;Node29</title>
<path fill="none" stroke="midnightblue" d="M546.422,-427.003C559.021,-355.769 605.064,-116.028 662,-67 673.127,-57.4187 687.034,-51.6045 701.437,-48.2275"/>
<polygon fill="midnightblue" stroke="midnightblue" points="542.96,-426.482 544.69,-436.934 549.856,-427.684 542.96,-426.482"/>
</g>
<!-- Node30 -->
<g id="node59" class="node"><title>Node30</title>
<a xlink:href="class_kitware_1_1_v_t_k_1_1vtk_vertex_degree.html" target="_top" xlink:title="vtkVertexDegree &#45; Adds an attribute array with the degree of each vertex">
<polygon fill="none" stroke="black" points="706.5,-0 706.5,-20 861.5,-20 861.5,-0 706.5,-0"/>
<text text-anchor="middle" x="784" y="-7" font-family="FreeSans" font-size="10.00">Kitware.VTK.vtkVertexDegree</text>
</a>
</g>
<!-- Node1&#45;&gt;Node30 -->
<g id="edge58" class="edge"><title>Node1&#45;&gt;Node30</title>
<path fill="none" stroke="midnightblue" d="M545.895,-426.518C557.111,-350.161 600.167,-83.6676 662,-29 674.285,-18.1382 690.123,-12.0714 706.292,-8.90374"/>
<polygon fill="midnightblue" stroke="midnightblue" points="542.387,-426.322 544.421,-436.719 549.315,-427.323 542.387,-426.322"/>
</g>
<!-- Node2 -->
<g id="node2" class="node"><title>Node2</title>
<a xlink:href="class_kitware_1_1_v_t_k_1_1vtk_algorithm.html" target="_top" xlink:title="vtkAlgorithm &#45; Superclass for all sources, filters, and sinks in VTK.">
<polygon fill="none" stroke="black" points="346.5,-437 346.5,-457 423.5,-457 423.5,-437 346.5,-437"/>
<text text-anchor="middle" x="385" y="-444" font-family="FreeSans" font-size="10.00">vtkAlgorithm</text>
</a>
</g>
<!-- Node2&#45;&gt;Node1 -->
<g id="edge2" class="edge"><title>Node2&#45;&gt;Node1</title>
<path fill="none" stroke="midnightblue" d="M433.736,-447C442.256,-447 451.329,-447 460.465,-447"/>
<polygon fill="midnightblue" stroke="midnightblue" points="433.651,-443.5 423.651,-447 433.651,-450.5 433.651,-443.5"/>
</g>
<!-- Node3 -->
<g id="node4" class="node"><title>Node3</title>
<a xlink:href="class_kitware_1_1_v_t_k_1_1vtk_object.html" target="_top" xlink:title="vtkObject &#45; abstract base class for most VTK objects">
<polygon fill="none" stroke="black" points="248,-437 248,-457 310,-457 310,-437 248,-437"/>
<text text-anchor="middle" x="279" y="-444" font-family="FreeSans" font-size="10.00">vtkObject</text>
</a>
</g>
<!-- Node3&#45;&gt;Node2 -->
<g id="edge4" class="edge"><title>Node3&#45;&gt;Node2</title>
<path fill="none" stroke="midnightblue" d="M320.421,-447C329.001,-447 338.007,-447 346.479,-447"/>
<polygon fill="midnightblue" stroke="midnightblue" points="320.23,-443.5 310.23,-447 320.23,-450.5 320.23,-443.5"/>
</g>
<!-- Node4 -->
<g id="node6" class="node"><title>Node4</title>
<a xlink:href="class_kitware_1_1_v_t_k_1_1vtk_object_base.html" target="_top" xlink:title="vtkObjectBase &#45; abstract base class for most VTK objects">
<polygon fill="none" stroke="black" points="126,-437 126,-457 212,-457 212,-437 126,-437"/>
<text text-anchor="middle" x="169" y="-444" font-family="FreeSans" font-size="10.00">vtkObjectBase</text>
</a>
</g>
<!-- Node4&#45;&gt;Node3 -->
<g id="edge6" class="edge"><title>Node4&#45;&gt;Node3</title>
<path fill="none" stroke="midnightblue" d="M222.346,-447C231.091,-447 239.892,-447 247.863,-447"/>
<polygon fill="midnightblue" stroke="midnightblue" points="222.159,-443.5 212.159,-447 222.159,-450.5 222.159,-443.5"/>
</g>
<!-- Node5 -->
<g id="node8" class="node"><title>Node5</title>
<a xlink:href="class_kitware_1_1_v_t_k_1_1_wrapped_object.html" target="_top" xlink:title="Base class for all the mummy wrapped classes in Kitware.VTK.">
<polygon fill="none" stroke="black" points="0.5,-437 0.5,-457 89.5,-457 89.5,-437 0.5,-437"/>
<text text-anchor="middle" x="45" y="-444" font-family="FreeSans" font-size="10.00">WrappedObject</text>
</a>
</g>
<!-- Node5&#45;&gt;Node4 -->
<g id="edge8" class="edge"><title>Node5&#45;&gt;Node4</title>
<path fill="none" stroke="midnightblue" d="M99.8895,-447C108.623,-447 117.548,-447 125.957,-447"/>
<polygon fill="midnightblue" stroke="midnightblue" points="99.7669,-443.5 89.7668,-447 99.7668,-450.5 99.7669,-443.5"/>
</g>
<!-- Node22 -->
<g id="node43" class="node"><title>Node22</title>
<a xlink:href="class_kitware_1_1_v_t_k_1_1vtk_geo_random_graph_source.html" target="_top" xlink:title="vtkGeoRandomGraphSource &#45; A geospatial graph with random edges">
<polygon fill="none" stroke="black" points="942,-304 942,-324 1154,-324 1154,-304 942,-304"/>
<text text-anchor="middle" x="1048" y="-311" font-family="FreeSans" font-size="10.00">Kitware.VTK.vtkGeoRandomGraphSource</text>
</a>
</g>
<!-- Node21&#45;&gt;Node22 -->
<g id="edge42" class="edge"><title>Node21&#45;&gt;Node22</title>
<path fill="none" stroke="midnightblue" d="M890.491,-314C907.386,-314 924.861,-314 941.75,-314"/>
<polygon fill="midnightblue" stroke="midnightblue" points="890.057,-310.5 880.057,-314 890.057,-317.5 890.057,-310.5"/>
</g>
</g>
</svg>
