<?xml version="1.0" encoding="UTF-8" standalone="no"?>
<!DOCTYPE svg PUBLIC "-//W3C//DTD SVG 1.1//EN"
 "http://www.w3.org/Graphics/SVG/1.1/DTD/svg11.dtd">
<!-- Generated by graphviz version 2.26.3 (20100126.1600)
 -->
<!-- Title: G Pages: 1 -->
<svg width="1408pt" height="389pt"
 viewBox="0.00 0.00 1408.00 389.00" xmlns="http://www.w3.org/2000/svg" xmlns:xlink="http://www.w3.org/1999/xlink">
<g id="graph1" class="graph" transform="scale(1 1) rotate(0) translate(4 385)">
<title>G</title>
<!-- Node1 -->
<g id="node1" class="node"><title>Node1</title>
<polygon fill="#bfbfbf" stroke="black" points="460.5,-209 460.5,-229 595.5,-229 595.5,-209 460.5,-209"/>
<text text-anchor="middle" x="528" y="-216" font-family="FreeSans" font-size="10.00">Kitware.VTK.vtkXMLWriter</text>
</g>
<!-- Node6 -->
<g id="node11" class="node"><title>Node6</title>
<a xlink:href="class_kitware_1_1_v_t_k_1_1vtk_x_m_l_composite_data_writer.html" target="_top" xlink:title="vtkXMLCompositeDataWriter &#45; Writer for multi&#45;group datasets">
<polygon fill="none" stroke="black" points="637.5,-323 637.5,-343 848.5,-343 848.5,-323 637.5,-323"/>
<text text-anchor="middle" x="743" y="-330" font-family="FreeSans" font-size="10.00">Kitware.VTK.vtkXMLCompositeDataWriter</text>
</a>
</g>
<!-- Node1&#45;&gt;Node6 -->
<g id="edge10" class="edge"><title>Node1&#45;&gt;Node6</title>
<path fill="none" stroke="midnightblue" d="M547.146,-235.756C567.169,-252.59 600.072,-278.359 632,-295 655.03,-307.003 682.654,-316.476 704.582,-322.961"/>
<polygon fill="midnightblue" stroke="midnightblue" points="549.272,-232.969 539.393,-229.141 544.729,-238.294 549.272,-232.969"/>
</g>
<!-- Node11 -->
<g id="node21" class="node"><title>Node11</title>
<a xlink:href="class_kitware_1_1_v_t_k_1_1vtk_x_m_l_data_set_writer.html" target="_top" xlink:title="vtkXMLDataSetWriter &#45; Write any type of VTK XML file.">
<polygon fill="none" stroke="black" points="655,-266 655,-286 831,-286 831,-266 655,-266"/>
<text text-anchor="middle" x="743" y="-273" font-family="FreeSans" font-size="10.00">Kitware.VTK.vtkXMLDataSetWriter</text>
</a>
</g>
<!-- Node1&#45;&gt;Node11 -->
<g id="edge20" class="edge"><title>Node1&#45;&gt;Node11</title>
<path fill="none" stroke="midnightblue" d="M560.939,-232.772C581.154,-240.785 607.733,-250.547 632,-257 645.037,-260.467 659.11,-263.445 672.714,-265.947"/>
<polygon fill="midnightblue" stroke="midnightblue" points="562.149,-229.486 551.565,-229.001 559.536,-235.98 562.149,-229.486"/>
</g>
<!-- Node12 -->
<g id="node23" class="node"><title>Node12</title>
<a xlink:href="class_kitware_1_1_v_t_k_1_1vtk_x_m_l_hyper_octree_writer.html" target="_top" xlink:title="vtkXMLHyperOctreeWriter &#45; Write VTK XML HyperOctree files.">
<polygon fill="none" stroke="black" points="644.5,-228 644.5,-248 841.5,-248 841.5,-228 644.5,-228"/>
<text text-anchor="middle" x="743" y="-235" font-family="FreeSans" font-size="10.00">Kitware.VTK.vtkXMLHyperOctreeWriter</text>
</a>
</g>
<!-- Node1&#45;&gt;Node12 -->
<g id="edge22" class="edge"><title>Node1&#45;&gt;Node12</title>
<path fill="none" stroke="midnightblue" d="M605.995,-225.893C618.39,-226.988 631.353,-228.133 644.151,-229.264"/>
<polygon fill="midnightblue" stroke="midnightblue" points="606.002,-222.38 595.732,-224.986 605.385,-229.352 606.002,-222.38"/>
</g>
<!-- Node13 -->
<g id="node25" class="node"><title>Node13</title>
<a xlink:href="class_kitware_1_1_v_t_k_1_1vtk_x_m_l_p_data_writer.html" target="_top" xlink:title="vtkXMLPDataWriter &#45; Write data in a parallel XML format.">
<polygon fill="none" stroke="black" points="660.5,-190 660.5,-210 825.5,-210 825.5,-190 660.5,-190"/>
<text text-anchor="middle" x="743" y="-197" font-family="FreeSans" font-size="10.00">Kitware.VTK.vtkXMLPDataWriter</text>
</a>
</g>
<!-- Node1&#45;&gt;Node13 -->
<g id="edge24" class="edge"><title>Node1&#45;&gt;Node13</title>
<path fill="none" stroke="midnightblue" d="M605.953,-212.111C623.565,-210.555 642.323,-208.897 660.129,-207.323"/>
<polygon fill="midnightblue" stroke="midnightblue" points="605.385,-208.648 595.732,-213.014 606.002,-215.62 605.385,-208.648"/>
</g>
<!-- Node22 -->
<g id="node43" class="node"><title>Node22</title>
<a xlink:href="class_kitware_1_1_v_t_k_1_1vtk_x_m_l_structured_data_writer.html" target="_top" xlink:title="vtkXMLStructuredDataWriter &#45; Superclass for VTK XML structured data writers.">
<polygon fill="none" stroke="black" points="638,-133 638,-153 848,-153 848,-133 638,-133"/>
<text text-anchor="middle" x="743" y="-140" font-family="FreeSans" font-size="10.00">Kitware.VTK.vtkXMLStructuredDataWriter</text>
</a>
</g>
<!-- Node1&#45;&gt;Node22 -->
<g id="edge42" class="edge"><title>Node1&#45;&gt;Node22</title>
<path fill="none" stroke="midnightblue" d="M564.905,-205.307C584.755,-197.995 609.676,-188.899 632,-181 659.267,-171.352 690.437,-160.716 712.791,-153.156"/>
<polygon fill="midnightblue" stroke="midnightblue" points="563.486,-202.1 555.316,-208.846 565.909,-208.667 563.486,-202.1"/>
</g>
<!-- Node26 -->
<g id="node51" class="node"><title>Node26</title>
<a xlink:href="class_kitware_1_1_v_t_k_1_1vtk_x_m_l_unstructured_data_writer.html" target="_top" xlink:title="vtkXMLUnstructuredDataWriter &#45; Superclass for VTK XML unstructured data writers.">
<polygon fill="none" stroke="black" points="632.5,-38 632.5,-58 853.5,-58 853.5,-38 632.5,-38"/>
<text text-anchor="middle" x="743" y="-45" font-family="FreeSans" font-size="10.00">Kitware.VTK.vtkXMLUnstructuredDataWriter</text>
</a>
</g>
<!-- Node1&#45;&gt;Node26 -->
<g id="edge50" class="edge"><title>Node1&#45;&gt;Node26</title>
<path fill="none" stroke="midnightblue" d="M545.419,-201.684C565.552,-182.009 600.025,-149.347 632,-124 664.212,-98.4652 704.597,-72.1189 726.692,-58.146"/>
<polygon fill="midnightblue" stroke="midnightblue" points="542.875,-199.277 538.199,-208.785 547.783,-204.268 542.875,-199.277"/>
</g>
<!-- Node2 -->
<g id="node2" class="node"><title>Node2</title>
<a xlink:href="class_kitware_1_1_v_t_k_1_1vtk_algorithm.html" target="_top" xlink:title="vtkAlgorithm &#45; Superclass for all sources, filters, and sinks in VTK.">
<polygon fill="none" stroke="black" points="346.5,-209 346.5,-229 423.5,-229 423.5,-209 346.5,-209"/>
<text text-anchor="middle" x="385" y="-216" font-family="FreeSans" font-size="10.00">vtkAlgorithm</text>
</a>
</g>
<!-- Node2&#45;&gt;Node1 -->
<g id="edge2" class="edge"><title>Node2&#45;&gt;Node1</title>
<path fill="none" stroke="midnightblue" d="M433.839,-219C442.379,-219 451.401,-219 460.342,-219"/>
<polygon fill="midnightblue" stroke="midnightblue" points="433.698,-215.5 423.698,-219 433.698,-222.5 433.698,-215.5"/>
</g>
<!-- Node3 -->
<g id="node4" class="node"><title>Node3</title>
<a xlink:href="class_kitware_1_1_v_t_k_1_1vtk_object.html" target="_top" xlink:title="vtkObject &#45; abstract base class for most VTK objects">
<polygon fill="none" stroke="black" points="248,-209 248,-229 310,-229 310,-209 248,-209"/>
<text text-anchor="middle" x="279" y="-216" font-family="FreeSans" font-size="10.00">vtkObject</text>
</a>
</g>
<!-- Node3&#45;&gt;Node2 -->
<g id="edge4" class="edge"><title>Node3&#45;&gt;Node2</title>
<path fill="none" stroke="midnightblue" d="M320.421,-219C329.001,-219 338.007,-219 346.479,-219"/>
<polygon fill="midnightblue" stroke="midnightblue" points="320.23,-215.5 310.23,-219 320.23,-222.5 320.23,-215.5"/>
</g>
<!-- Node4 -->
<g id="node6" class="node"><title>Node4</title>
<a xlink:href="class_kitware_1_1_v_t_k_1_1vtk_object_base.html" target="_top" xlink:title="vtkObjectBase &#45; abstract base class for most VTK objects">
<polygon fill="none" stroke="black" points="126,-209 126,-229 212,-229 212,-209 126,-209"/>
<text text-anchor="middle" x="169" y="-216" font-family="FreeSans" font-size="10.00">vtkObjectBase</text>
</a>
</g>
<!-- Node4&#45;&gt;Node3 -->
<g id="edge6" class="edge"><title>Node4&#45;&gt;Node3</title>
<path fill="none" stroke="midnightblue" d="M222.346,-219C231.091,-219 239.892,-219 247.863,-219"/>
<polygon fill="midnightblue" stroke="midnightblue" points="222.159,-215.5 212.159,-219 222.159,-222.5 222.159,-215.5"/>
</g>
<!-- Node5 -->
<g id="node8" class="node"><title>Node5</title>
<a xlink:href="class_kitware_1_1_v_t_k_1_1_wrapped_object.html" target="_top" xlink:title="Base class for all the mummy wrapped classes in Kitware.VTK.">
<polygon fill="none" stroke="black" points="0.5,-209 0.5,-229 89.5,-229 89.5,-209 0.5,-209"/>
<text text-anchor="middle" x="45" y="-216" font-family="FreeSans" font-size="10.00">WrappedObject</text>
</a>
</g>
<!-- Node5&#45;&gt;Node4 -->
<g id="edge8" class="edge"><title>Node5&#45;&gt;Node4</title>
<path fill="none" stroke="midnightblue" d="M99.8895,-219C108.623,-219 117.548,-219 125.957,-219"/>
<polygon fill="midnightblue" stroke="midnightblue" points="99.7669,-215.5 89.7668,-219 99.7668,-222.5 99.7669,-215.5"/>
</g>
<!-- Node7 -->
<g id="node13" class="node"><title>Node7</title>
<a xlink:href="class_kitware_1_1_v_t_k_1_1vtk_x_m_l_hierarchical_box_data_writer.html" target="_top" xlink:title="vtkXMLHierarchicalBoxDataWriter &#45; writer for vtkHierarchicalBoxDataSet.">
<polygon fill="none" stroke="black" points="890.5,-361 890.5,-381 1123.5,-381 1123.5,-361 890.5,-361"/>
<text text-anchor="middle" x="1007" y="-368" font-family="FreeSans" font-size="10.00">Kitware.VTK.vtkXMLHierarchicalBoxDataWriter</text>
</a>
</g>
<!-- Node6&#45;&gt;Node7 -->
<g id="edge12" class="edge"><title>Node6&#45;&gt;Node7</title>
<path fill="none" stroke="midnightblue" d="M822.825,-344.49C859.33,-349.744 902.181,-355.912 937.359,-360.976"/>
<polygon fill="midnightblue" stroke="midnightblue" points="823.105,-340.994 812.708,-343.034 822.108,-347.923 823.105,-340.994"/>
</g>
<!-- Node9 -->
<g id="node17" class="node"><title>Node9</title>
<a xlink:href="class_kitware_1_1_v_t_k_1_1vtk_x_m_l_multi_block_data_writer.html" target="_top" xlink:title="vtkXMLMultiBlockDataWriter &#45; writer for vtkMultiBlockDataSet.">
<polygon fill="none" stroke="black" points="903.5,-323 903.5,-343 1110.5,-343 1110.5,-323 903.5,-323"/>
<text text-anchor="middle" x="1007" y="-330" font-family="FreeSans" font-size="10.00">Kitware.VTK.vtkXMLMultiBlockDataWriter</text>
</a>
</g>
<!-- Node6&#45;&gt;Node9 -->
<g id="edge16" class="edge"><title>Node6&#45;&gt;Node9</title>
<path fill="none" stroke="midnightblue" d="M859.006,-333C873.739,-333 888.743,-333 903.267,-333"/>
<polygon fill="midnightblue" stroke="midnightblue" points="858.858,-329.5 848.858,-333 858.858,-336.5 858.858,-329.5"/>
</g>
<!-- Node8 -->
<g id="node15" class="node"><title>Node8</title>
<a xlink:href="class_kitware_1_1_v_t_k_1_1vtk_x_m_l_p_hierarchical_box_data_writer.html" target="_top" xlink:title="vtkXMLPHierarchicalBoxDataWriter &#45; parallel writer for vtkHierarchicalBoxDataSet.">
<polygon fill="none" stroke="black" points="1160.5,-361 1160.5,-381 1399.5,-381 1399.5,-361 1160.5,-361"/>
<text text-anchor="middle" x="1280" y="-368" font-family="FreeSans" font-size="10.00">Kitware.VTK.vtkXMLPHierarchicalBoxDataWriter</text>
</a>
</g>
<!-- Node7&#45;&gt;Node8 -->
<g id="edge14" class="edge"><title>Node7&#45;&gt;Node8</title>
<path fill="none" stroke="midnightblue" d="M1133.59,-371C1142.5,-371 1151.47,-371 1160.34,-371"/>
<polygon fill="midnightblue" stroke="midnightblue" points="1133.57,-367.5 1123.57,-371 1133.57,-374.5 1133.57,-367.5"/>
</g>
<!-- Node10 -->
<g id="node19" class="node"><title>Node10</title>
<a xlink:href="class_kitware_1_1_v_t_k_1_1vtk_x_m_l_p_multi_block_data_writer.html" target="_top" xlink:title="vtkXMLPMultiBlockDataWriter &#45; parallel writer for vtkHierarchicalBoxDataSet.">
<polygon fill="none" stroke="black" points="1173.5,-323 1173.5,-343 1386.5,-343 1386.5,-323 1173.5,-323"/>
<text text-anchor="middle" x="1280" y="-330" font-family="FreeSans" font-size="10.00">Kitware.VTK.vtkXMLPMultiBlockDataWriter</text>
</a>
</g>
<!-- Node9&#45;&gt;Node10 -->
<g id="edge18" class="edge"><title>Node9&#45;&gt;Node10</title>
<path fill="none" stroke="midnightblue" d="M1120.77,-333C1138.16,-333 1156.06,-333 1173.3,-333"/>
<polygon fill="midnightblue" stroke="midnightblue" points="1120.6,-329.5 1110.6,-333 1120.6,-336.5 1120.6,-329.5"/>
</g>
<!-- Node14 -->
<g id="node27" class="node"><title>Node14</title>
<a xlink:href="class_kitware_1_1_v_t_k_1_1vtk_x_m_l_p_data_set_writer.html" target="_top" xlink:title="vtkXMLPDataSetWriter &#45; Write any type of PVTK XML file.">
<polygon fill="none" stroke="black" points="916,-266 916,-286 1098,-286 1098,-266 916,-266"/>
<text text-anchor="middle" x="1007" y="-273" font-family="FreeSans" font-size="10.00">Kitware.VTK.vtkXMLPDataSetWriter</text>
</a>
</g>
<!-- Node13&#45;&gt;Node14 -->
<g id="edge26" class="edge"><title>Node13&#45;&gt;Node14</title>
<path fill="none" stroke="midnightblue" d="M835.27,-210.961C841.777,-213.188 848.092,-215.841 854,-219 874.516,-229.969 869.437,-246.119 890,-257 898.094,-261.283 906.91,-264.651 915.951,-267.293"/>
<polygon fill="midnightblue" stroke="midnightblue" points="836.21,-207.589 825.623,-207.994 834.152,-214.279 836.21,-207.589"/>
</g>
<!-- Node15 -->
<g id="node29" class="node"><title>Node15</title>
<a xlink:href="class_kitware_1_1_v_t_k_1_1vtk_x_m_l_p_structured_data_writer.html" target="_top" xlink:title="vtkXMLPStructuredDataWriter &#45; Superclass for PVTK XML structured data writers.">
<polygon fill="none" stroke="black" points="899,-228 899,-248 1115,-248 1115,-228 899,-228"/>
<text text-anchor="middle" x="1007" y="-235" font-family="FreeSans" font-size="10.00">Kitware.VTK.vtkXMLPStructuredDataWriter</text>
</a>
</g>
<!-- Node13&#45;&gt;Node15 -->
<g id="edge28" class="edge"><title>Node13&#45;&gt;Node15</title>
<path fill="none" stroke="midnightblue" d="M822.825,-211.49C859.33,-216.744 902.181,-222.912 937.359,-227.976"/>
<polygon fill="midnightblue" stroke="midnightblue" points="823.105,-207.994 812.708,-210.034 822.108,-214.923 823.105,-207.994"/>
</g>
<!-- Node19 -->
<g id="node37" class="node"><title>Node19</title>
<a xlink:href="class_kitware_1_1_v_t_k_1_1vtk_x_m_l_p_unstructured_data_writer.html" target="_top" xlink:title="vtkXMLPUnstructuredDataWriter &#45; Superclass for PVTK XML unstructured data writers.">
<polygon fill="none" stroke="black" points="893,-190 893,-210 1121,-210 1121,-190 893,-190"/>
<text text-anchor="middle" x="1007" y="-197" font-family="FreeSans" font-size="10.00">Kitware.VTK.vtkXMLPUnstructuredDataWriter</text>
</a>
</g>
<!-- Node13&#45;&gt;Node19 -->
<g id="edge36" class="edge"><title>Node13&#45;&gt;Node19</title>
<path fill="none" stroke="midnightblue" d="M835.865,-200C854.192,-200 873.625,-200 892.567,-200"/>
<polygon fill="midnightblue" stroke="midnightblue" points="835.807,-196.5 825.807,-200 835.807,-203.5 835.807,-196.5"/>
</g>
<!-- Node16 -->
<g id="node31" class="node"><title>Node16</title>
<a xlink:href="class_kitware_1_1_v_t_k_1_1vtk_x_m_l_p_image_data_writer.html" target="_top" xlink:title="vtkXMLPImageDataWriter &#45; Write PVTK XML ImageData files.">
<polygon fill="none" stroke="black" points="1182.5,-285 1182.5,-305 1377.5,-305 1377.5,-285 1182.5,-285"/>
<text text-anchor="middle" x="1280" y="-292" font-family="FreeSans" font-size="10.00">Kitware.VTK.vtkXMLPImageDataWriter</text>
</a>
</g>
<!-- Node15&#45;&gt;Node16 -->
<g id="edge30" class="edge"><title>Node15&#45;&gt;Node16</title>
<path fill="none" stroke="midnightblue" d="M1099.99,-250.248C1108.2,-252.185 1116.3,-254.42 1124,-257 1141.15,-262.748 1142.83,-270.286 1160,-276 1170.91,-279.631 1182.61,-282.576 1194.27,-284.965"/>
<polygon fill="midnightblue" stroke="midnightblue" points="1100.48,-246.771 1089.96,-248.031 1098.97,-253.606 1100.48,-246.771"/>
</g>
<!-- Node17 -->
<g id="node33" class="node"><title>Node17</title>
<a xlink:href="class_kitware_1_1_v_t_k_1_1vtk_x_m_l_p_rectilinear_grid_writer.html" target="_top" xlink:title="vtkXMLPRectilinearGridWriter &#45; Write PVTK XML RectilinearGrid files.">
<polygon fill="none" stroke="black" points="1175,-247 1175,-267 1385,-267 1385,-247 1175,-247"/>
<text text-anchor="middle" x="1280" y="-254" font-family="FreeSans" font-size="10.00">Kitware.VTK.vtkXMLPRectilinearGridWriter</text>
</a>
</g>
<!-- Node15&#45;&gt;Node17 -->
<g id="edge32" class="edge"><title>Node15&#45;&gt;Node17</title>
<path fill="none" stroke="midnightblue" d="M1125.48,-246.246C1141.95,-247.392 1158.77,-248.563 1174.96,-249.69"/>
<polygon fill="midnightblue" stroke="midnightblue" points="1125.51,-242.739 1115.29,-245.537 1125.02,-249.723 1125.51,-242.739"/>
</g>
<!-- Node18 -->
<g id="node35" class="node"><title>Node18</title>
<a xlink:href="class_kitware_1_1_v_t_k_1_1vtk_x_m_l_p_structured_grid_writer.html" target="_top" xlink:title="vtkXMLPStructuredGridWriter &#45; Write PVTK XML StructuredGrid files.">
<polygon fill="none" stroke="black" points="1174,-209 1174,-229 1386,-229 1386,-209 1174,-209"/>
<text text-anchor="middle" x="1280" y="-216" font-family="FreeSans" font-size="10.00">Kitware.VTK.vtkXMLPStructuredGridWriter</text>
</a>
</g>
<!-- Node15&#45;&gt;Node18 -->
<g id="edge34" class="edge"><title>Node15&#45;&gt;Node18</title>
<path fill="none" stroke="midnightblue" d="M1125.71,-229.738C1141.65,-228.629 1157.92,-227.497 1173.63,-226.403"/>
<polygon fill="midnightblue" stroke="midnightblue" points="1125.02,-226.277 1115.29,-230.463 1125.51,-233.261 1125.02,-226.277"/>
</g>
<!-- Node20 -->
<g id="node39" class="node"><title>Node20</title>
<a xlink:href="class_kitware_1_1_v_t_k_1_1vtk_x_m_l_p_poly_data_writer.html" target="_top" xlink:title="vtkXMLPPolyDataWriter &#45; Write PVTK XML PolyData files.">
<polygon fill="none" stroke="black" points="1187.5,-171 1187.5,-191 1372.5,-191 1372.5,-171 1187.5,-171"/>
<text text-anchor="middle" x="1280" y="-178" font-family="FreeSans" font-size="10.00">Kitware.VTK.vtkXMLPPolyDataWriter</text>
</a>
</g>
<!-- Node19&#45;&gt;Node20 -->
<g id="edge38" class="edge"><title>Node19&#45;&gt;Node20</title>
<path fill="none" stroke="midnightblue" d="M1131.33,-191.347C1150.19,-190.035 1169.36,-188.7 1187.39,-187.445"/>
<polygon fill="midnightblue" stroke="midnightblue" points="1130.93,-187.866 1121.19,-192.052 1131.41,-194.85 1130.93,-187.866"/>
</g>
<!-- Node21 -->
<g id="node41" class="node"><title>Node21</title>
<a xlink:href="class_kitware_1_1_v_t_k_1_1vtk_x_m_l_p_unstructured_grid_writer.html" target="_top" xlink:title="vtkXMLPUnstructuredGridWriter &#45; Write PVTK XML UnstructuredGrid files.">
<polygon fill="none" stroke="black" points="1168,-133 1168,-153 1392,-153 1392,-133 1168,-133"/>
<text text-anchor="middle" x="1280" y="-140" font-family="FreeSans" font-size="10.00">Kitware.VTK.vtkXMLPUnstructuredGridWriter</text>
</a>
</g>
<!-- Node19&#45;&gt;Node21 -->
<g id="edge40" class="edge"><title>Node19&#45;&gt;Node21</title>
<path fill="none" stroke="midnightblue" d="M1099.99,-187.752C1108.2,-185.815 1116.3,-183.58 1124,-181 1141.15,-175.252 1142.83,-167.714 1160,-162 1170.91,-158.369 1182.61,-155.424 1194.27,-153.035"/>
<polygon fill="midnightblue" stroke="midnightblue" points="1098.97,-184.394 1089.96,-189.969 1100.48,-191.229 1098.97,-184.394"/>
</g>
<!-- Node23 -->
<g id="node45" class="node"><title>Node23</title>
<a xlink:href="class_kitware_1_1_v_t_k_1_1vtk_x_m_l_image_data_writer.html" target="_top" xlink:title="vtkXMLImageDataWriter &#45; Write VTK XML ImageData files.">
<polygon fill="none" stroke="black" points="912.5,-152 912.5,-172 1101.5,-172 1101.5,-152 912.5,-152"/>
<text text-anchor="middle" x="1007" y="-159" font-family="FreeSans" font-size="10.00">Kitware.VTK.vtkXMLImageDataWriter</text>
</a>
</g>
<!-- Node22&#45;&gt;Node23 -->
<g id="edge44" class="edge"><title>Node22&#45;&gt;Node23</title>
<path fill="none" stroke="midnightblue" d="M858.319,-151.299C876.28,-152.592 894.66,-153.915 912.099,-155.17"/>
<polygon fill="midnightblue" stroke="midnightblue" points="858.324,-147.791 848.098,-150.564 857.821,-154.773 858.324,-147.791"/>
</g>
<!-- Node24 -->
<g id="node47" class="node"><title>Node24</title>
<a xlink:href="class_kitware_1_1_v_t_k_1_1vtk_x_m_l_rectilinear_grid_writer.html" target="_top" xlink:title="vtkXMLRectilinearGridWriter &#45; Write VTK XML RectilinearGrid files.">
<polygon fill="none" stroke="black" points="905,-114 905,-134 1109,-134 1109,-114 905,-114"/>
<text text-anchor="middle" x="1007" y="-121" font-family="FreeSans" font-size="10.00">Kitware.VTK.vtkXMLRectilinearGridWriter</text>
</a>
</g>
<!-- Node22&#45;&gt;Node24 -->
<g id="edge46" class="edge"><title>Node22&#45;&gt;Node24</title>
<path fill="none" stroke="midnightblue" d="M858.239,-134.706C873.752,-133.59 889.58,-132.451 904.845,-131.352"/>
<polygon fill="midnightblue" stroke="midnightblue" points="857.821,-131.227 848.098,-135.436 858.324,-138.209 857.821,-131.227"/>
</g>
<!-- Node25 -->
<g id="node49" class="node"><title>Node25</title>
<a xlink:href="class_kitware_1_1_v_t_k_1_1vtk_x_m_l_structured_grid_writer.html" target="_top" xlink:title="vtkXMLStructuredGridWriter &#45; Write VTK XML StructuredGrid files.">
<polygon fill="none" stroke="black" points="904,-76 904,-96 1110,-96 1110,-76 904,-76"/>
<text text-anchor="middle" x="1007" y="-83" font-family="FreeSans" font-size="10.00">Kitware.VTK.vtkXMLStructuredGridWriter</text>
</a>
</g>
<!-- Node22&#45;&gt;Node25 -->
<g id="edge48" class="edge"><title>Node22&#45;&gt;Node25</title>
<path fill="none" stroke="midnightblue" d="M787.957,-130.233C816.931,-122.29 855.501,-112.244 890,-105 905.608,-101.723 922.489,-98.6882 938.441,-96.0501"/>
<polygon fill="midnightblue" stroke="midnightblue" points="786.839,-126.911 778.131,-132.947 788.702,-133.658 786.839,-126.911"/>
</g>
<!-- Node27 -->
<g id="node53" class="node"><title>Node27</title>
<a xlink:href="class_kitware_1_1_v_t_k_1_1vtk_x_m_l_poly_data_writer.html" target="_top" xlink:title="vtkXMLPolyDataWriter &#45; Write VTK XML PolyData files.">
<polygon fill="none" stroke="black" points="917.5,-38 917.5,-58 1096.5,-58 1096.5,-38 917.5,-38"/>
<text text-anchor="middle" x="1007" y="-45" font-family="FreeSans" font-size="10.00">Kitware.VTK.vtkXMLPolyDataWriter</text>
</a>
</g>
<!-- Node26&#45;&gt;Node27 -->
<g id="edge52" class="edge"><title>Node26&#45;&gt;Node27</title>
<path fill="none" stroke="midnightblue" d="M864.03,-48C881.958,-48 900.158,-48 917.295,-48"/>
<polygon fill="midnightblue" stroke="midnightblue" points="863.812,-44.5001 853.812,-48 863.812,-51.5001 863.812,-44.5001"/>
</g>
<!-- Node28 -->
<g id="node55" class="node"><title>Node28</title>
<a xlink:href="class_kitware_1_1_v_t_k_1_1vtk_x_m_l_unstructured_grid_writer.html" target="_top" xlink:title="vtkXMLUnstructuredGridWriter &#45; Write VTK XML UnstructuredGrid files.">
<polygon fill="none" stroke="black" points="898,-0 898,-20 1116,-20 1116,-0 898,-0"/>
<text text-anchor="middle" x="1007" y="-7" font-family="FreeSans" font-size="10.00">Kitware.VTK.vtkXMLUnstructuredGridWriter</text>
</a>
</g>
<!-- Node26&#45;&gt;Node28 -->
<g id="edge54" class="edge"><title>Node26&#45;&gt;Node28</title>
<path fill="none" stroke="midnightblue" d="M822.825,-36.5101C859.33,-31.2555 902.181,-25.0876 937.359,-20.024"/>
<polygon fill="midnightblue" stroke="midnightblue" points="822.108,-33.0771 812.708,-37.9662 823.105,-40.0057 822.108,-33.0771"/>
</g>
</g>
</svg>
