<?xml version="1.0" encoding="UTF-8" standalone="no"?>
<!DOCTYPE svg PUBLIC "-//W3C//DTD SVG 1.1//EN"
 "http://www.w3.org/Graphics/SVG/1.1/DTD/svg11.dtd">
<!-- Generated by graphviz version 2.26.3 (20100126.1600)
 -->
<!-- Title: G Pages: 1 -->
<svg width="1296pt" height="180pt"
 viewBox="0.00 0.00 1296.00 180.00" xmlns="http://www.w3.org/2000/svg" xmlns:xlink="http://www.w3.org/1999/xlink">
<g id="graph1" class="graph" transform="scale(1 1) rotate(0) translate(4 176)">
<title>G</title>
<!-- Node1 -->
<g id="node1" class="node"><title>Node1</title>
<polygon fill="#bfbfbf" stroke="black" points="580.5,-57 580.5,-77 751.5,-77 751.5,-57 580.5,-57"/>
<text text-anchor="middle" x="666" y="-64" font-family="FreeSans" font-size="10.00">Kitware.VTK.vtkXMLPDataReader</text>
</g>
<!-- Node7 -->
<g id="node13" class="node"><title>Node7</title>
<a xlink:href="class_kitware_1_1_v_t_k_1_1vtk_x_m_l_p_structured_data_reader.html" target="_top" xlink:title="vtkXMLPStructuredDataReader &#45; Superclass for parallel structured data XML readers.">
<polygon fill="none" stroke="black" points="794,-95 794,-115 1016,-115 1016,-95 794,-95"/>
<text text-anchor="middle" x="905" y="-102" font-family="FreeSans" font-size="10.00">Kitware.VTK.vtkXMLPStructuredDataReader</text>
</a>
</g>
<!-- Node1&#45;&gt;Node7 -->
<g id="edge12" class="edge"><title>Node1&#45;&gt;Node7</title>
<path fill="none" stroke="midnightblue" d="M739.114,-78.6249C771.977,-83.8498 810.379,-89.9557 841.954,-94.976"/>
<polygon fill="midnightblue" stroke="midnightblue" points="739.533,-75.1475 729.107,-77.0338 738.433,-82.0607 739.533,-75.1475"/>
</g>
<!-- Node11 -->
<g id="node21" class="node"><title>Node11</title>
<a xlink:href="class_kitware_1_1_v_t_k_1_1vtk_x_m_l_p_unstructured_data_reader.html" target="_top" xlink:title="vtkXMLPUnstructuredDataReader &#45; Superclass for parallel unstructured data XML readers.">
<polygon fill="none" stroke="black" points="788,-38 788,-58 1022,-58 1022,-38 788,-38"/>
<text text-anchor="middle" x="905" y="-45" font-family="FreeSans" font-size="10.00">Kitware.VTK.vtkXMLPUnstructuredDataReader</text>
</a>
</g>
<!-- Node1&#45;&gt;Node11 -->
<g id="edge20" class="edge"><title>Node1&#45;&gt;Node11</title>
<path fill="none" stroke="midnightblue" d="M761.657,-59.3955C770.294,-58.7089 779.103,-58.0085 787.896,-57.3095"/>
<polygon fill="midnightblue" stroke="midnightblue" points="761.301,-55.9127 751.609,-60.1942 761.855,-62.8907 761.301,-55.9127"/>
</g>
<!-- Node2 -->
<g id="node2" class="node"><title>Node2</title>
<a xlink:href="class_kitware_1_1_v_t_k_1_1vtk_x_m_l_reader.html" target="_top" xlink:title="vtkXMLReader &#45; Superclass for VTK&#39;s XML format readers.">
<polygon fill="none" stroke="black" points="460.5,-57 460.5,-77 543.5,-77 543.5,-57 460.5,-57"/>
<text text-anchor="middle" x="502" y="-64" font-family="FreeSans" font-size="10.00">vtkXMLReader</text>
</a>
</g>
<!-- Node2&#45;&gt;Node1 -->
<g id="edge2" class="edge"><title>Node2&#45;&gt;Node1</title>
<path fill="none" stroke="midnightblue" d="M553.823,-67C562.259,-67 571.19,-67 580.182,-67"/>
<polygon fill="midnightblue" stroke="midnightblue" points="553.808,-63.5001 543.808,-67 553.808,-70.5001 553.808,-63.5001"/>
</g>
<!-- Node3 -->
<g id="node4" class="node"><title>Node3</title>
<a xlink:href="class_kitware_1_1_v_t_k_1_1vtk_algorithm.html" target="_top" xlink:title="vtkAlgorithm &#45; Superclass for all sources, filters, and sinks in VTK.">
<polygon fill="none" stroke="black" points="346.5,-57 346.5,-77 423.5,-77 423.5,-57 346.5,-57"/>
<text text-anchor="middle" x="385" y="-64" font-family="FreeSans" font-size="10.00">vtkAlgorithm</text>
</a>
</g>
<!-- Node3&#45;&gt;Node2 -->
<g id="edge4" class="edge"><title>Node3&#45;&gt;Node2</title>
<path fill="none" stroke="midnightblue" d="M433.756,-67C442.538,-67 451.621,-67 460.184,-67"/>
<polygon fill="midnightblue" stroke="midnightblue" points="433.634,-63.5001 423.634,-67 433.634,-70.5001 433.634,-63.5001"/>
</g>
<!-- Node4 -->
<g id="node6" class="node"><title>Node4</title>
<a xlink:href="class_kitware_1_1_v_t_k_1_1vtk_object.html" target="_top" xlink:title="vtkObject &#45; abstract base class for most VTK objects">
<polygon fill="none" stroke="black" points="248,-57 248,-77 310,-77 310,-57 248,-57"/>
<text text-anchor="middle" x="279" y="-64" font-family="FreeSans" font-size="10.00">vtkObject</text>
</a>
</g>
<!-- Node4&#45;&gt;Node3 -->
<g id="edge6" class="edge"><title>Node4&#45;&gt;Node3</title>
<path fill="none" stroke="midnightblue" d="M320.421,-67C329.001,-67 338.007,-67 346.479,-67"/>
<polygon fill="midnightblue" stroke="midnightblue" points="320.23,-63.5001 310.23,-67 320.23,-70.5001 320.23,-63.5001"/>
</g>
<!-- Node5 -->
<g id="node8" class="node"><title>Node5</title>
<a xlink:href="class_kitware_1_1_v_t_k_1_1vtk_object_base.html" target="_top" xlink:title="vtkObjectBase &#45; abstract base class for most VTK objects">
<polygon fill="none" stroke="black" points="126,-57 126,-77 212,-77 212,-57 126,-57"/>
<text text-anchor="middle" x="169" y="-64" font-family="FreeSans" font-size="10.00">vtkObjectBase</text>
</a>
</g>
<!-- Node5&#45;&gt;Node4 -->
<g id="edge8" class="edge"><title>Node5&#45;&gt;Node4</title>
<path fill="none" stroke="midnightblue" d="M222.346,-67C231.091,-67 239.892,-67 247.863,-67"/>
<polygon fill="midnightblue" stroke="midnightblue" points="222.159,-63.5001 212.159,-67 222.159,-70.5001 222.159,-63.5001"/>
</g>
<!-- Node6 -->
<g id="node10" class="node"><title>Node6</title>
<a xlink:href="class_kitware_1_1_v_t_k_1_1_wrapped_object.html" target="_top" xlink:title="Base class for all the mummy wrapped classes in Kitware.VTK.">
<polygon fill="none" stroke="black" points="0.5,-57 0.5,-77 89.5,-77 89.5,-57 0.5,-57"/>
<text text-anchor="middle" x="45" y="-64" font-family="FreeSans" font-size="10.00">WrappedObject</text>
</a>
</g>
<!-- Node6&#45;&gt;Node5 -->
<g id="edge10" class="edge"><title>Node6&#45;&gt;Node5</title>
<path fill="none" stroke="midnightblue" d="M99.8895,-67C108.623,-67 117.548,-67 125.957,-67"/>
<polygon fill="midnightblue" stroke="midnightblue" points="99.7669,-63.5001 89.7668,-67 99.7668,-70.5001 99.7669,-63.5001"/>
</g>
<!-- Node8 -->
<g id="node15" class="node"><title>Node8</title>
<a xlink:href="class_kitware_1_1_v_t_k_1_1vtk_x_m_l_p_image_data_reader.html" target="_top" xlink:title="vtkXMLPImageDataReader &#45; Read PVTK XML ImageData files.">
<polygon fill="none" stroke="black" points="1072.5,-152 1072.5,-172 1273.5,-172 1273.5,-152 1072.5,-152"/>
<text text-anchor="middle" x="1173" y="-159" font-family="FreeSans" font-size="10.00">Kitware.VTK.vtkXMLPImageDataReader</text>
</a>
</g>
<!-- Node7&#45;&gt;Node8 -->
<g id="edge14" class="edge"><title>Node7&#45;&gt;Node8</title>
<path fill="none" stroke="midnightblue" d="M951.743,-117.636C981.926,-125.541 1022.12,-135.592 1058,-143 1073.76,-146.253 1090.82,-149.317 1106.85,-151.997"/>
<polygon fill="midnightblue" stroke="midnightblue" points="952.473,-114.209 941.911,-115.045 950.689,-120.978 952.473,-114.209"/>
</g>
<!-- Node9 -->
<g id="node17" class="node"><title>Node9</title>
<a xlink:href="class_kitware_1_1_v_t_k_1_1vtk_x_m_l_p_rectilinear_grid_reader.html" target="_top" xlink:title="vtkXMLPRectilinearGridReader &#45; Read PVTK XML RectilinearGrid files.">
<polygon fill="none" stroke="black" points="1065,-114 1065,-134 1281,-134 1281,-114 1065,-114"/>
<text text-anchor="middle" x="1173" y="-121" font-family="FreeSans" font-size="10.00">Kitware.VTK.vtkXMLPRectilinearGridReader</text>
</a>
</g>
<!-- Node7&#45;&gt;Node9 -->
<g id="edge16" class="edge"><title>Node7&#45;&gt;Node9</title>
<path fill="none" stroke="midnightblue" d="M1026.48,-113.612C1039.19,-114.513 1052.05,-115.425 1064.6,-116.315"/>
<polygon fill="midnightblue" stroke="midnightblue" points="1026.55,-110.109 1016.33,-112.893 1026.06,-117.091 1026.55,-110.109"/>
</g>
<!-- Node10 -->
<g id="node19" class="node"><title>Node10</title>
<a xlink:href="class_kitware_1_1_v_t_k_1_1vtk_x_m_l_p_structured_grid_reader.html" target="_top" xlink:title="vtkXMLPStructuredGridReader &#45; Read PVTK XML StructuredGrid files.">
<polygon fill="none" stroke="black" points="1064,-76 1064,-96 1282,-96 1282,-76 1064,-76"/>
<text text-anchor="middle" x="1173" y="-83" font-family="FreeSans" font-size="10.00">Kitware.VTK.vtkXMLPStructuredGridReader</text>
</a>
</g>
<!-- Node7&#45;&gt;Node10 -->
<g id="edge18" class="edge"><title>Node7&#45;&gt;Node10</title>
<path fill="none" stroke="midnightblue" d="M1026.67,-96.3744C1039.03,-95.4982 1051.53,-94.612 1063.74,-93.7459"/>
<polygon fill="midnightblue" stroke="midnightblue" points="1026.06,-92.9088 1016.33,-97.1074 1026.55,-99.8913 1026.06,-92.9088"/>
</g>
<!-- Node12 -->
<g id="node23" class="node"><title>Node12</title>
<a xlink:href="class_kitware_1_1_v_t_k_1_1vtk_x_m_l_p_poly_data_reader.html" target="_top" xlink:title="vtkXMLPPolyDataReader &#45; Read PVTK XML PolyData files.">
<polygon fill="none" stroke="black" points="1077.5,-38 1077.5,-58 1268.5,-58 1268.5,-38 1077.5,-38"/>
<text text-anchor="middle" x="1173" y="-45" font-family="FreeSans" font-size="10.00">Kitware.VTK.vtkXMLPPolyDataReader</text>
</a>
</g>
<!-- Node11&#45;&gt;Node12 -->
<g id="edge22" class="edge"><title>Node11&#45;&gt;Node12</title>
<path fill="none" stroke="midnightblue" d="M1032.57,-48C1047.66,-48 1062.85,-48 1077.38,-48"/>
<polygon fill="midnightblue" stroke="midnightblue" points="1032.16,-44.5001 1022.16,-48 1032.16,-51.5001 1032.16,-44.5001"/>
</g>
<!-- Node13 -->
<g id="node25" class="node"><title>Node13</title>
<a xlink:href="class_kitware_1_1_v_t_k_1_1vtk_x_m_l_p_unstructured_grid_reader.html" target="_top" xlink:title="vtkXMLPUnstructuredGridReader &#45; Read PVTK XML UnstructuredGrid files.">
<polygon fill="none" stroke="black" points="1058,-0 1058,-20 1288,-20 1288,-0 1058,-0"/>
<text text-anchor="middle" x="1173" y="-7" font-family="FreeSans" font-size="10.00">Kitware.VTK.vtkXMLPUnstructuredGridReader</text>
</a>
</g>
<!-- Node11&#45;&gt;Node13 -->
<g id="edge24" class="edge"><title>Node11&#45;&gt;Node13</title>
<path fill="none" stroke="midnightblue" d="M986.034,-36.5101C1023.09,-31.2555 1066.59,-25.0876 1102.3,-20.024"/>
<polygon fill="midnightblue" stroke="midnightblue" points="985.174,-33.097 975.764,-37.9662 986.157,-40.0276 985.174,-33.097"/>
</g>
</g>
</svg>
