<?xml version="1.0" encoding="UTF-8" standalone="no"?>
<!DOCTYPE svg PUBLIC "-//W3C//DTD SVG 1.1//EN"
 "http://www.w3.org/Graphics/SVG/1.1/DTD/svg11.dtd">
<!-- Generated by graphviz version 2.26.3 (20100126.1600)
 -->
<!-- Title: G Pages: 1 -->
<svg width="732pt" height="104pt"
 viewBox="0.00 0.00 732.00 104.00" xmlns="http://www.w3.org/2000/svg" xmlns:xlink="http://www.w3.org/1999/xlink">
<g id="graph1" class="graph" transform="scale(1 1) rotate(0) translate(4 100)">
<title>G</title>
<!-- Node1 -->
<g id="node1" class="node"><title>Node1</title>
<polygon fill="#bfbfbf" stroke="black" points="0,-38 0,-58 194,-58 194,-38 0,-38"/>
<text text-anchor="middle" x="97" y="-45" font-family="FreeSans" font-size="10.00">vtkObjectEventRelay.CallAddObserver</text>
</g>
<!-- Node2 -->
<g id="node3" class="node"><title>Node2</title>
<a xlink:href="classvtk_object_event_relay.html#a2082c7d1c7b4a9362c54fac1018a024e" target="_top" xlink:title="vtkObjectEventRelay.AddObserver">
<polygon fill="none" stroke="black" points="230.5,-38 230.5,-58 407.5,-58 407.5,-38 230.5,-38"/>
<text text-anchor="middle" x="319" y="-45" font-family="FreeSans" font-size="10.00">vtkObjectEventRelay.AddObserver</text>
</a>
</g>
<!-- Node1&#45;&gt;Node2 -->
<g id="edge2" class="edge"><title>Node1&#45;&gt;Node2</title>
<path fill="none" stroke="midnightblue" d="M194.049,-48C202.687,-48 211.439,-48 220.092,-48"/>
<polygon fill="midnightblue" stroke="midnightblue" points="220.191,-51.5001 230.191,-48 220.191,-44.5001 220.191,-51.5001"/>
</g>
<!-- Node3 -->
<g id="node5" class="node"><title>Node3</title>
<a xlink:href="classvtk_object_event_relay.html#acbabca11f1e57d9f3b269c00c418b994" target="_top" xlink:title="Signature for method that vtkObject can call for VTK events.">
<polygon fill="none" stroke="black" points="495.5,-76 495.5,-96 672.5,-96 672.5,-76 495.5,-76"/>
<text text-anchor="middle" x="584" y="-83" font-family="FreeSans" font-size="10.00">vtkObjectEventRelay.RelayHandler</text>
</a>
</g>
<!-- Node2&#45;&gt;Node3 -->
<g id="edge4" class="edge"><title>Node2&#45;&gt;Node3</title>
<path fill="none" stroke="midnightblue" d="M383.526,-58.009C402.955,-60.9684 424.337,-64.1715 444,-67 461.536,-69.5224 480.32,-72.134 498.254,-74.5835"/>
<polygon fill="midnightblue" stroke="midnightblue" points="498.025,-78.0845 508.406,-75.9654 498.969,-71.1485 498.025,-78.0845"/>
</g>
<!-- Node4 -->
<g id="node7" class="node"><title>Node4</title>
<a xlink:href="classvtk_object_event_relay.html#a0160764cf1acea5e7e782ce33fcca031" target="_top" xlink:title="Do not call directly. This method is called from VTK library code when InvokeEvent is called on a vtk...">
<polygon fill="none" stroke="black" points="507.5,-38 507.5,-58 660.5,-58 660.5,-38 507.5,-38"/>
<text text-anchor="middle" x="584" y="-45" font-family="FreeSans" font-size="10.00">vtkObjectEventRelay.Execute</text>
</a>
</g>
<!-- Node2&#45;&gt;Node4 -->
<g id="edge6" class="edge"><title>Node2&#45;&gt;Node4</title>
<path fill="none" stroke="midnightblue" d="M407.61,-48C436.547,-48 468.634,-48 497.421,-48"/>
<polygon fill="midnightblue" stroke="midnightblue" points="497.455,-51.5001 507.455,-48 497.454,-44.5001 497.455,-51.5001"/>
</g>
<!-- Node5 -->
<g id="node9" class="node"><title>Node5</title>
<a xlink:href="classvtk_object_event_relay.html#ae01db545f4d5c18e8c86ae1b2cdaec6f" target="_top" xlink:title="vtkObjectEventRelay.vtkObjectEventRelay_AddObserver">
<polygon fill="none" stroke="black" points="444.5,-0 444.5,-20 723.5,-20 723.5,-0 444.5,-0"/>
<text text-anchor="middle" x="584" y="-7" font-family="FreeSans" font-size="10.00">vtkObjectEventRelay.vtkObjectEventRelay_AddObserver</text>
</a>
</g>
<!-- Node2&#45;&gt;Node5 -->
<g id="edge8" class="edge"><title>Node2&#45;&gt;Node5</title>
<path fill="none" stroke="midnightblue" d="M383.526,-37.991C402.955,-35.0316 424.337,-31.8285 444,-29 461.536,-26.4776 480.32,-23.866 498.254,-21.4165"/>
<polygon fill="midnightblue" stroke="midnightblue" points="498.969,-24.8515 508.406,-20.0346 498.025,-17.9155 498.969,-24.8515"/>
</g>
</g>
</svg>
