<?xml version="1.0" encoding="UTF-8" standalone="no"?>
<!DOCTYPE svg PUBLIC "-//W3C//DTD SVG 1.1//EN"
 "http://www.w3.org/Graphics/SVG/1.1/DTD/svg11.dtd">
<!-- Generated by graphviz version 2.26.3 (20100126.1600)
 -->
<!-- Title: G Pages: 1 -->
<svg width="146pt" height="320pt"
 viewBox="0.00 0.00 146.00 320.00" xmlns="http://www.w3.org/2000/svg" xmlns:xlink="http://www.w3.org/1999/xlink">
<g id="graph1" class="graph" transform="scale(1 1) rotate(0) translate(4 316)">
<title>G</title>
<!-- Node1 -->
<g id="node1" class="node"><title>Node1</title>
<polygon fill="#bfbfbf" stroke="black" points="0,-1 0,-21 138,-21 138,-1 0,-1"/>
<text text-anchor="middle" x="69" y="-8" font-family="FreeSans" font-size="10.00">Kitware.VTK.vtkLongArray</text>
</g>
<!-- Node2 -->
<g id="node2" class="node"><title>Node2</title>
<a xlink:href="class_kitware_1_1_v_t_k_1_1vtk_data_array.html" target="_top" xlink:title="vtkDataArray &#45; abstract superclass for arrays of numeric data">
<polygon fill="none" stroke="black" points="29,-59 29,-79 109,-79 109,-59 29,-59"/>
<text text-anchor="middle" x="69" y="-66" font-family="FreeSans" font-size="10.00">vtkDataArray</text>
</a>
</g>
<!-- Node2&#45;&gt;Node1 -->
<g id="edge2" class="edge"><title>Node2&#45;&gt;Node1</title>
<path fill="none" stroke="midnightblue" d="M69,-48.8902C69,-39.6201 69,-29.0083 69,-21.3776"/>
<polygon fill="midnightblue" stroke="midnightblue" points="65.5001,-48.8971 69,-58.8972 72.5001,-48.8972 65.5001,-48.8971"/>
</g>
<!-- Node3 -->
<g id="node4" class="node"><title>Node3</title>
<a xlink:href="class_kitware_1_1_v_t_k_1_1vtk_abstract_array.html" target="_top" xlink:title="vtkAbstractArray &#45; Abstract superclass for all arrays">
<polygon fill="none" stroke="black" points="20.5,-117 20.5,-137 117.5,-137 117.5,-117 20.5,-117"/>
<text text-anchor="middle" x="69" y="-124" font-family="FreeSans" font-size="10.00">vtkAbstractArray</text>
</a>
</g>
<!-- Node3&#45;&gt;Node2 -->
<g id="edge4" class="edge"><title>Node3&#45;&gt;Node2</title>
<path fill="none" stroke="midnightblue" d="M69,-106.89C69,-97.6201 69,-87.0083 69,-79.3776"/>
<polygon fill="midnightblue" stroke="midnightblue" points="65.5001,-106.897 69,-116.897 72.5001,-106.897 65.5001,-106.897"/>
</g>
<!-- Node4 -->
<g id="node6" class="node"><title>Node4</title>
<a xlink:href="class_kitware_1_1_v_t_k_1_1vtk_object.html" target="_top" xlink:title="vtkObject &#45; abstract base class for most VTK objects">
<polygon fill="none" stroke="black" points="38,-175 38,-195 100,-195 100,-175 38,-175"/>
<text text-anchor="middle" x="69" y="-182" font-family="FreeSans" font-size="10.00">vtkObject</text>
</a>
</g>
<!-- Node4&#45;&gt;Node3 -->
<g id="edge6" class="edge"><title>Node4&#45;&gt;Node3</title>
<path fill="none" stroke="midnightblue" d="M69,-164.89C69,-155.62 69,-145.008 69,-137.378"/>
<polygon fill="midnightblue" stroke="midnightblue" points="65.5001,-164.897 69,-174.897 72.5001,-164.897 65.5001,-164.897"/>
</g>
<!-- Node5 -->
<g id="node8" class="node"><title>Node5</title>
<a xlink:href="class_kitware_1_1_v_t_k_1_1vtk_object_base.html" target="_top" xlink:title="vtkObjectBase &#45; abstract base class for most VTK objects">
<polygon fill="none" stroke="black" points="26,-233 26,-253 112,-253 112,-233 26,-233"/>
<text text-anchor="middle" x="69" y="-240" font-family="FreeSans" font-size="10.00">vtkObjectBase</text>
</a>
</g>
<!-- Node5&#45;&gt;Node4 -->
<g id="edge8" class="edge"><title>Node5&#45;&gt;Node4</title>
<path fill="none" stroke="midnightblue" d="M69,-222.89C69,-213.62 69,-203.008 69,-195.378"/>
<polygon fill="midnightblue" stroke="midnightblue" points="65.5001,-222.897 69,-232.897 72.5001,-222.897 65.5001,-222.897"/>
</g>
<!-- Node6 -->
<g id="node10" class="node"><title>Node6</title>
<a xlink:href="class_kitware_1_1_v_t_k_1_1_wrapped_object.html" target="_top" xlink:title="Base class for all the mummy wrapped classes in Kitware.VTK.">
<polygon fill="none" stroke="black" points="24.5,-291 24.5,-311 113.5,-311 113.5,-291 24.5,-291"/>
<text text-anchor="middle" x="69" y="-298" font-family="FreeSans" font-size="10.00">WrappedObject</text>
</a>
</g>
<!-- Node6&#45;&gt;Node5 -->
<g id="edge10" class="edge"><title>Node6&#45;&gt;Node5</title>
<path fill="none" stroke="midnightblue" d="M69,-280.89C69,-271.62 69,-261.008 69,-253.378"/>
<polygon fill="midnightblue" stroke="midnightblue" points="65.5001,-280.897 69,-290.897 72.5001,-280.897 65.5001,-280.897"/>
</g>
</g>
</svg>
