<?xml version="1.0" encoding="UTF-8" standalone="no"?>
<!DOCTYPE svg PUBLIC "-//W3C//DTD SVG 1.1//EN"
 "http://www.w3.org/Graphics/SVG/1.1/DTD/svg11.dtd">
<!-- Generated by graphviz version 2.26.3 (20100126.1600)
 -->
<!-- Title: G Pages: 1 -->
<svg width="248pt" height="378pt"
 viewBox="0.00 0.00 248.00 378.00" xmlns="http://www.w3.org/2000/svg" xmlns:xlink="http://www.w3.org/1999/xlink">
<g id="graph1" class="graph" transform="scale(1 1) rotate(0) translate(4 374)">
<title>G</title>
<!-- Node1 -->
<g id="node1" class="node"><title>Node1</title>
<polygon fill="#bfbfbf" stroke="black" points="3,-59 3,-79 237,-79 237,-59 3,-59"/>
<text text-anchor="middle" x="120" y="-66" font-family="FreeSans" font-size="10.00">Kitware.VTK.vtkComputeHistogram2DOutliers</text>
</g>
<!-- Node7 -->
<g id="node13" class="node"><title>Node7</title>
<a xlink:href="class_kitware_1_1_v_t_k_1_1vtk_p_compute_histogram2_d_outliers.html" target="_top" xlink:title="vtkPComputeHistogram2DOutliers &#45; extract outlier rows from a vtkTable based on input 2D histograms...">
<polygon fill="none" stroke="black" points="0,-1 0,-21 240,-21 240,-1 0,-1"/>
<text text-anchor="middle" x="120" y="-8" font-family="FreeSans" font-size="10.00">Kitware.VTK.vtkPComputeHistogram2DOutliers</text>
</a>
</g>
<!-- Node1&#45;&gt;Node7 -->
<g id="edge12" class="edge"><title>Node1&#45;&gt;Node7</title>
<path fill="none" stroke="midnightblue" d="M120,-48.8902C120,-39.6201 120,-29.0083 120,-21.3776"/>
<polygon fill="midnightblue" stroke="midnightblue" points="116.5,-48.8971 120,-58.8972 123.5,-48.8972 116.5,-48.8971"/>
</g>
<!-- Node2 -->
<g id="node2" class="node"><title>Node2</title>
<a xlink:href="class_kitware_1_1_v_t_k_1_1vtk_selection_algorithm.html" target="_top" xlink:title="vtkSelectionAlgorithm &#45; Superclass for algorithms that produce only Selection as output">
<polygon fill="none" stroke="black" points="59,-117 59,-137 181,-137 181,-117 59,-117"/>
<text text-anchor="middle" x="120" y="-124" font-family="FreeSans" font-size="10.00">vtkSelectionAlgorithm</text>
</a>
</g>
<!-- Node2&#45;&gt;Node1 -->
<g id="edge2" class="edge"><title>Node2&#45;&gt;Node1</title>
<path fill="none" stroke="midnightblue" d="M120,-106.89C120,-97.6201 120,-87.0083 120,-79.3776"/>
<polygon fill="midnightblue" stroke="midnightblue" points="116.5,-106.897 120,-116.897 123.5,-106.897 116.5,-106.897"/>
</g>
<!-- Node3 -->
<g id="node4" class="node"><title>Node3</title>
<a xlink:href="class_kitware_1_1_v_t_k_1_1vtk_algorithm.html" target="_top" xlink:title="vtkAlgorithm &#45; Superclass for all sources, filters, and sinks in VTK.">
<polygon fill="none" stroke="black" points="81.5,-175 81.5,-195 158.5,-195 158.5,-175 81.5,-175"/>
<text text-anchor="middle" x="120" y="-182" font-family="FreeSans" font-size="10.00">vtkAlgorithm</text>
</a>
</g>
<!-- Node3&#45;&gt;Node2 -->
<g id="edge4" class="edge"><title>Node3&#45;&gt;Node2</title>
<path fill="none" stroke="midnightblue" d="M120,-164.89C120,-155.62 120,-145.008 120,-137.378"/>
<polygon fill="midnightblue" stroke="midnightblue" points="116.5,-164.897 120,-174.897 123.5,-164.897 116.5,-164.897"/>
</g>
<!-- Node4 -->
<g id="node6" class="node"><title>Node4</title>
<a xlink:href="class_kitware_1_1_v_t_k_1_1vtk_object.html" target="_top" xlink:title="vtkObject &#45; abstract base class for most VTK objects">
<polygon fill="none" stroke="black" points="89,-233 89,-253 151,-253 151,-233 89,-233"/>
<text text-anchor="middle" x="120" y="-240" font-family="FreeSans" font-size="10.00">vtkObject</text>
</a>
</g>
<!-- Node4&#45;&gt;Node3 -->
<g id="edge6" class="edge"><title>Node4&#45;&gt;Node3</title>
<path fill="none" stroke="midnightblue" d="M120,-222.89C120,-213.62 120,-203.008 120,-195.378"/>
<polygon fill="midnightblue" stroke="midnightblue" points="116.5,-222.897 120,-232.897 123.5,-222.897 116.5,-222.897"/>
</g>
<!-- Node5 -->
<g id="node8" class="node"><title>Node5</title>
<a xlink:href="class_kitware_1_1_v_t_k_1_1vtk_object_base.html" target="_top" xlink:title="vtkObjectBase &#45; abstract base class for most VTK objects">
<polygon fill="none" stroke="black" points="77,-291 77,-311 163,-311 163,-291 77,-291"/>
<text text-anchor="middle" x="120" y="-298" font-family="FreeSans" font-size="10.00">vtkObjectBase</text>
</a>
</g>
<!-- Node5&#45;&gt;Node4 -->
<g id="edge8" class="edge"><title>Node5&#45;&gt;Node4</title>
<path fill="none" stroke="midnightblue" d="M120,-280.89C120,-271.62 120,-261.008 120,-253.378"/>
<polygon fill="midnightblue" stroke="midnightblue" points="116.5,-280.897 120,-290.897 123.5,-280.897 116.5,-280.897"/>
</g>
<!-- Node6 -->
<g id="node10" class="node"><title>Node6</title>
<a xlink:href="class_kitware_1_1_v_t_k_1_1_wrapped_object.html" target="_top" xlink:title="Base class for all the mummy wrapped classes in Kitware.VTK.">
<polygon fill="none" stroke="black" points="75.5,-349 75.5,-369 164.5,-369 164.5,-349 75.5,-349"/>
<text text-anchor="middle" x="120" y="-356" font-family="FreeSans" font-size="10.00">WrappedObject</text>
</a>
</g>
<!-- Node6&#45;&gt;Node5 -->
<g id="edge10" class="edge"><title>Node6&#45;&gt;Node5</title>
<path fill="none" stroke="midnightblue" d="M120,-338.89C120,-329.62 120,-319.008 120,-311.378"/>
<polygon fill="midnightblue" stroke="midnightblue" points="116.5,-338.897 120,-348.897 123.5,-338.897 116.5,-338.897"/>
</g>
</g>
</svg>
