<?xml version="1.0" encoding="UTF-8" standalone="no"?>
<!DOCTYPE svg PUBLIC "-//W3C//DTD SVG 1.1//EN"
 "http://www.w3.org/Graphics/SVG/1.1/DTD/svg11.dtd">
<!-- Generated by graphviz version 2.26.3 (20100126.1600)
 -->
<!-- Title: G Pages: 1 -->
<svg width="467pt" height="830pt"
 viewBox="0.00 0.00 467.46 830.00" xmlns="http://www.w3.org/2000/svg" xmlns:xlink="http://www.w3.org/1999/xlink">
<g id="graph1" class="graph" transform="scale(1 1) rotate(0) translate(4 826)">
<title>G</title>
<!-- Node1 -->
<g id="node1" class="node"><title>Node1</title>
<polygon fill="#bfbfbf" stroke="black" points="-0.5,-1 -0.5,-21 262.5,-21 262.5,-1 -0.5,-1"/>
<text text-anchor="middle" x="131" y="-8" font-family="FreeSans" font-size="10.00">Kitware.VTK.vtkStructuredGridToStructuredGridFilter</text>
</g>
<!-- Node2 -->
<g id="node2" class="node"><title>Node2</title>
<a xlink:href="class_kitware_1_1_v_t_k_1_1vtk_structured_grid_source.html" target="_top" xlink:title="vtkStructuredGridSource &#45; Abstract class whose subclasses generates structured grid data...">
<polygon fill="none" stroke="black" points="63.5,-61 63.5,-81 198.5,-81 198.5,-61 63.5,-61"/>
<text text-anchor="middle" x="131" y="-68" font-family="FreeSans" font-size="10.00">vtkStructuredGridSource</text>
</a>
</g>
<!-- Node2&#45;&gt;Node1 -->
<g id="edge2" class="edge"><title>Node2&#45;&gt;Node1</title>
<path fill="none" stroke="midnightblue" d="M131,-50.5155C131,-40.562 131,-29.0495 131,-21.0279"/>
<polygon fill="midnightblue" stroke="midnightblue" points="127.5,-50.8218 131,-60.8218 134.5,-50.8219 127.5,-50.8218"/>
</g>
<!-- Node3 -->
<g id="node4" class="node"><title>Node3</title>
<a xlink:href="class_kitware_1_1_v_t_k_1_1vtk_source.html" target="_top" xlink:title="vtkSource &#45; abstract class specifies interface for visualization network source">
<polygon fill="none" stroke="black" points="98.5,-121 98.5,-141 163.5,-141 163.5,-121 98.5,-121"/>
<text text-anchor="middle" x="131" y="-128" font-family="FreeSans" font-size="10.00">vtkSource</text>
</a>
</g>
<!-- Node3&#45;&gt;Node2 -->
<g id="edge4" class="edge"><title>Node3&#45;&gt;Node2</title>
<path fill="none" stroke="midnightblue" d="M131,-110.516C131,-100.562 131,-89.0495 131,-81.0279"/>
<polygon fill="midnightblue" stroke="midnightblue" points="127.5,-110.822 131,-120.822 134.5,-110.822 127.5,-110.822"/>
</g>
<!-- Node4 -->
<g id="node6" class="node"><title>Node4</title>
<a xlink:href="class_kitware_1_1_v_t_k_1_1vtk_process_object.html" target="_top" xlink:title="vtkProcessObject &#45; abstract class specifies interface for visualization filters">
<polygon fill="none" stroke="black" points="81.5,-181 81.5,-201 180.5,-201 180.5,-181 81.5,-181"/>
<text text-anchor="middle" x="131" y="-188" font-family="FreeSans" font-size="10.00">vtkProcessObject</text>
</a>
</g>
<!-- Node4&#45;&gt;Node3 -->
<g id="edge6" class="edge"><title>Node4&#45;&gt;Node3</title>
<path fill="none" stroke="midnightblue" d="M131,-170.516C131,-160.562 131,-149.05 131,-141.028"/>
<polygon fill="midnightblue" stroke="midnightblue" points="127.5,-170.822 131,-180.822 134.5,-170.822 127.5,-170.822"/>
</g>
<!-- Node5 -->
<g id="node8" class="node"><title>Node5</title>
<a xlink:href="class_kitware_1_1_v_t_k_1_1vtk_algorithm.html" target="_top" xlink:title="vtkAlgorithm &#45; Superclass for all sources, filters, and sinks in VTK.">
<polygon fill="none" stroke="black" points="92.5,-241 92.5,-261 169.5,-261 169.5,-241 92.5,-241"/>
<text text-anchor="middle" x="131" y="-248" font-family="FreeSans" font-size="10.00">vtkAlgorithm</text>
</a>
</g>
<!-- Node5&#45;&gt;Node4 -->
<g id="edge8" class="edge"><title>Node5&#45;&gt;Node4</title>
<path fill="none" stroke="midnightblue" d="M131,-230.516C131,-220.562 131,-209.05 131,-201.028"/>
<polygon fill="midnightblue" stroke="midnightblue" points="127.5,-230.822 131,-240.822 134.5,-230.822 127.5,-230.822"/>
</g>
<!-- Node6 -->
<g id="node10" class="node"><title>Node6</title>
<a xlink:href="class_kitware_1_1_v_t_k_1_1vtk_object.html" target="_top" xlink:title="vtkObject &#45; abstract base class for most VTK objects">
<polygon fill="none" stroke="black" points="100,-301 100,-321 162,-321 162,-301 100,-301"/>
<text text-anchor="middle" x="131" y="-308" font-family="FreeSans" font-size="10.00">vtkObject</text>
</a>
</g>
<!-- Node6&#45;&gt;Node5 -->
<g id="edge10" class="edge"><title>Node6&#45;&gt;Node5</title>
<path fill="none" stroke="midnightblue" d="M131,-290.516C131,-280.562 131,-269.05 131,-261.028"/>
<polygon fill="midnightblue" stroke="midnightblue" points="127.5,-290.822 131,-300.822 134.5,-290.822 127.5,-290.822"/>
</g>
<!-- Node7 -->
<g id="node12" class="node"><title>Node7</title>
<a xlink:href="class_kitware_1_1_v_t_k_1_1vtk_object_base.html" target="_top" xlink:title="vtkObjectBase &#45; abstract base class for most VTK objects">
<polygon fill="none" stroke="black" points="151,-741 151,-761 237,-761 237,-741 151,-741"/>
<text text-anchor="middle" x="194" y="-748" font-family="FreeSans" font-size="10.00">vtkObjectBase</text>
</a>
</g>
<!-- Node7&#45;&gt;Node6 -->
<g id="edge12" class="edge"><title>Node7&#45;&gt;Node6</title>
<path fill="none" stroke="midnightblue" d="M165.423,-735.886C151.687,-727.44 135.884,-715.826 125,-702 113.156,-686.955 112.621,-680.802 109,-662 83.4248,-529.199 118.577,-363.437 128.516,-321.17"/>
<polygon fill="midnightblue" stroke="midnightblue" points="163.683,-738.923 174.079,-740.97 167.229,-732.887 163.683,-738.923"/>
</g>
<!-- Node10 -->
<g id="node19" class="node"><title>Node10</title>
<a xlink:href="class_kitware_1_1_v_t_k_1_1vtk_object.html" target="_top" xlink:title="vtkObject &#45; abstract base class for most VTK objects">
<polygon fill="none" stroke="black" points="134,-681 134,-701 254,-701 254,-681 134,-681"/>
<text text-anchor="middle" x="194" y="-688" font-family="FreeSans" font-size="10.00">Kitware.VTK.vtkObject</text>
</a>
</g>
<!-- Node7&#45;&gt;Node10 -->
<g id="edge22" class="edge"><title>Node7&#45;&gt;Node10</title>
<path fill="none" stroke="midnightblue" d="M194,-730.516C194,-720.562 194,-709.05 194,-701.028"/>
<polygon fill="midnightblue" stroke="midnightblue" points="190.5,-730.822 194,-740.822 197.5,-730.822 190.5,-730.822"/>
</g>
<!-- Node8 -->
<g id="node14" class="node"><title>Node8</title>
<a xlink:href="class_kitware_1_1_v_t_k_1_1_wrapped_object.html" target="_top" xlink:title="Base class for all the mummy wrapped classes in Kitware.VTK.">
<polygon fill="none" stroke="black" points="332.5,-801 332.5,-821 421.5,-821 421.5,-801 332.5,-801"/>
<text text-anchor="middle" x="377" y="-808" font-family="FreeSans" font-size="10.00">WrappedObject</text>
</a>
</g>
<!-- Node8&#45;&gt;Node7 -->
<g id="edge14" class="edge"><title>Node8&#45;&gt;Node7</title>
<path fill="none" stroke="midnightblue" d="M336.804,-797.821C303.042,-786.752 255.512,-771.168 224.73,-761.075"/>
<polygon fill="midnightblue" stroke="midnightblue" points="335.777,-801.168 346.37,-800.957 337.958,-794.516 335.777,-801.168"/>
</g>
<!-- Node9 -->
<g id="node16" class="node"><title>Node9</title>
<a xlink:href="class_kitware_1_1_v_t_k_1_1vtk_object_event_relay.html" target="_top" xlink:title="Implement a relay handler for VTK events. This is a class that receives events directly from the VTK ...">
<polygon fill="none" stroke="black" points="123,-491 123,-511 295,-511 295,-491 123,-491"/>
<text text-anchor="middle" x="209" y="-498" font-family="FreeSans" font-size="10.00">Kitware.VTK.vtkObjectEventRelay</text>
</a>
</g>
<!-- Node8&#45;&gt;Node9 -->
<g id="edge18" class="edge"><title>Node8&#45;&gt;Node9</title>
<path fill="none" stroke="midnightblue" d="M389.888,-792.325C422.276,-742.899 499.803,-607.191 432,-530 422.773,-519.495 354.047,-511.666 295.298,-506.808"/>
<polygon fill="midnightblue" stroke="midnightblue" points="386.891,-790.509 384.239,-800.767 392.709,-794.402 386.891,-790.509"/>
</g>
<!-- Node9&#45;&gt;Node6 -->
<g id="edge16" class="edge"><title>Node9&#45;&gt;Node6</title>
<path fill="none" stroke="#9a32cd" stroke-dasharray="5,2" d="M200.921,-481.321C184.489,-441.293 147.674,-351.616 135.214,-321.266"/>
<polygon fill="#9a32cd" stroke="#9a32cd" points="197.771,-482.863 204.806,-490.785 204.246,-480.205 197.771,-482.863"/>
<text text-anchor="middle" x="308.5" y="-463" font-family="FreeSans" font-size="10.00"> LeftButtonReleaseEvtRelay</text>
<text text-anchor="middle" x="308.5" y="-451" font-family="FreeSans" font-size="10.00">KeyPressEvtRelay</text>
<text text-anchor="middle" x="308.5" y="-439" font-family="FreeSans" font-size="10.00">DomainModifiedEvtRelay</text>
<text text-anchor="middle" x="308.5" y="-427" font-family="FreeSans" font-size="10.00">VolumeMapperComputeGradientsStartEvtRelay</text>
<text text-anchor="middle" x="308.5" y="-415" font-family="FreeSans" font-size="10.00">ErrorEvtRelay</text>
<text text-anchor="middle" x="308.5" y="-403" font-family="FreeSans" font-size="10.00">VolumeMapperRenderStartEvtRelay</text>
<text text-anchor="middle" x="308.5" y="-391" font-family="FreeSans" font-size="10.00">StartEvtRelay</text>
<text text-anchor="middle" x="308.5" y="-379" font-family="FreeSans" font-size="10.00">ResetCameraEvtRelay</text>
<text text-anchor="middle" x="308.5" y="-367" font-family="FreeSans" font-size="10.00">EnableEvtRelay</text>
<text text-anchor="middle" x="308.5" y="-355" font-family="FreeSans" font-size="10.00">DeleteEvtRelay</text>
<text text-anchor="middle" x="308.5" y="-343" font-family="FreeSans" font-size="10.00">...</text>
</g>
<!-- Node9&#45;&gt;Node10 -->
<g id="edge24" class="edge"><title>Node9&#45;&gt;Node10</title>
<path fill="none" stroke="#9a32cd" stroke-dasharray="5,2" d="M206.028,-521.231C205.649,-524.169 205.293,-527.159 205,-530 199.144,-586.853 195.636,-655.333 194.452,-680.807"/>
<polygon fill="#9a32cd" stroke="#9a32cd" points="209.515,-521.565 207.421,-511.179 202.582,-520.604 209.515,-521.565"/>
<text text-anchor="middle" x="318.5" y="-653" font-family="FreeSans" font-size="10.00"> LeftButtonReleaseEvtRelay</text>
<text text-anchor="middle" x="318.5" y="-641" font-family="FreeSans" font-size="10.00">KeyPressEvtRelay</text>
<text text-anchor="middle" x="318.5" y="-629" font-family="FreeSans" font-size="10.00">DomainModifiedEvtRelay</text>
<text text-anchor="middle" x="318.5" y="-617" font-family="FreeSans" font-size="10.00">VolumeMapperComputeGradientsStartEvtRelay</text>
<text text-anchor="middle" x="318.5" y="-605" font-family="FreeSans" font-size="10.00">ErrorEvtRelay</text>
<text text-anchor="middle" x="318.5" y="-593" font-family="FreeSans" font-size="10.00">VolumeMapperRenderStartEvtRelay</text>
<text text-anchor="middle" x="318.5" y="-581" font-family="FreeSans" font-size="10.00">StartEvtRelay</text>
<text text-anchor="middle" x="318.5" y="-569" font-family="FreeSans" font-size="10.00">ResetCameraEvtRelay</text>
<text text-anchor="middle" x="318.5" y="-557" font-family="FreeSans" font-size="10.00">EnableEvtRelay</text>
<text text-anchor="middle" x="318.5" y="-545" font-family="FreeSans" font-size="10.00">DeleteEvtRelay</text>
<text text-anchor="middle" x="318.5" y="-533" font-family="FreeSans" font-size="10.00">...</text>
</g>
<!-- Node10&#45;&gt;Node9 -->
<g id="edge20" class="edge"><title>Node10&#45;&gt;Node9</title>
<path fill="none" stroke="#9a32cd" stroke-dasharray="5,2" d="M147.979,-675.818C142.439,-672.138 137.51,-667.596 134,-662 102.823,-612.303 100.83,-578.389 134,-530 138.736,-523.091 155.511,-516.287 171.999,-511.008"/>
<polygon fill="#9a32cd" stroke="#9a32cd" points="146.639,-679.079 157.072,-680.919 150.064,-672.974 146.639,-679.079"/>
<text text-anchor="middle" x="158" y="-599" font-family="FreeSans" font-size="10.00"> Sender</text>
<text text-anchor="middle" x="158" y="-587" font-family="FreeSans" font-size="10.00">EventImpl</text>
</g>
</g>
</svg>
