<?xml version="1.0" encoding="UTF-8" standalone="no"?>
<!DOCTYPE svg PUBLIC "-//W3C//DTD SVG 1.1//EN"
 "http://www.w3.org/Graphics/SVG/1.1/DTD/svg11.dtd">
<!-- Generated by graphviz version 2.26.3 (20100126.1600)
 -->
<!-- Title: G Pages: 1 -->
<svg width="1516pt" height="199pt"
 viewBox="0.00 0.00 1516.00 199.00" xmlns="http://www.w3.org/2000/svg" xmlns:xlink="http://www.w3.org/1999/xlink">
<g id="graph1" class="graph" transform="scale(1 1) rotate(0) translate(4 195)">
<title>G</title>
<!-- Node1 -->
<g id="node1" class="node"><title>Node1</title>
<polygon fill="#bfbfbf" stroke="black" points="580.5,-114 580.5,-134 745.5,-134 745.5,-114 580.5,-114"/>
<text text-anchor="middle" x="663" y="-121" font-family="FreeSans" font-size="10.00">Kitware.VTK.vtkXMLDataReader</text>
</g>
<!-- Node7 -->
<g id="node13" class="node"><title>Node7</title>
<a xlink:href="class_kitware_1_1_v_t_k_1_1vtk_x_m_l_generic_data_object_reader.html" target="_top" xlink:title="vtkXMLGenericDataObjectReader &#45; Read any type of vtk data object">
<polygon fill="none" stroke="black" points="782.5,-171 782.5,-191 1015.5,-191 1015.5,-171 782.5,-171"/>
<text text-anchor="middle" x="899" y="-178" font-family="FreeSans" font-size="10.00">Kitware.VTK.vtkXMLGenericDataObjectReader</text>
</a>
</g>
<!-- Node1&#45;&gt;Node7 -->
<g id="edge12" class="edge"><title>Node1&#45;&gt;Node7</title>
<path fill="none" stroke="midnightblue" d="M700.05,-137.394C723.333,-145.42 754.133,-155.327 782,-162 796.309,-165.427 811.752,-168.421 826.579,-170.958"/>
<polygon fill="midnightblue" stroke="midnightblue" points="701.157,-134.074 690.562,-134.085 698.852,-140.683 701.157,-134.074"/>
</g>
<!-- Node8 -->
<g id="node15" class="node"><title>Node8</title>
<a xlink:href="class_kitware_1_1_v_t_k_1_1vtk_x_m_l_hyper_octree_reader.html" target="_top" xlink:title="vtkXMLHyperOctreeReader &#45; Read VTK XML HyperOctree files.">
<polygon fill="none" stroke="black" points="797.5,-133 797.5,-153 1000.5,-153 1000.5,-133 797.5,-133"/>
<text text-anchor="middle" x="899" y="-140" font-family="FreeSans" font-size="10.00">Kitware.VTK.vtkXMLHyperOctreeReader</text>
</a>
</g>
<!-- Node1&#45;&gt;Node8 -->
<g id="edge14" class="edge"><title>Node1&#45;&gt;Node8</title>
<path fill="none" stroke="midnightblue" d="M755.864,-131.476C769.5,-132.574 783.606,-133.71 797.406,-134.821"/>
<polygon fill="midnightblue" stroke="midnightblue" points="755.79,-127.959 745.541,-130.645 755.228,-134.937 755.79,-127.959"/>
</g>
<!-- Node9 -->
<g id="node17" class="node"><title>Node9</title>
<a xlink:href="class_kitware_1_1_v_t_k_1_1vtk_x_m_l_structured_data_reader.html" target="_top" xlink:title="vtkXMLStructuredDataReader &#45; Superclass for structured data XML readers.">
<polygon fill="none" stroke="black" points="791,-95 791,-115 1007,-115 1007,-95 791,-95"/>
<text text-anchor="middle" x="899" y="-102" font-family="FreeSans" font-size="10.00">Kitware.VTK.vtkXMLStructuredDataReader</text>
</a>
</g>
<!-- Node1&#45;&gt;Node9 -->
<g id="edge16" class="edge"><title>Node1&#45;&gt;Node9</title>
<path fill="none" stroke="midnightblue" d="M755.591,-116.546C767.14,-115.616 779.029,-114.659 790.789,-113.712"/>
<polygon fill="midnightblue" stroke="midnightblue" points="755.228,-113.063 745.541,-117.355 755.79,-120.041 755.228,-113.063"/>
</g>
<!-- Node13 -->
<g id="node25" class="node"><title>Node13</title>
<a xlink:href="class_kitware_1_1_v_t_k_1_1vtk_x_m_l_unstructured_data_reader.html" target="_top" xlink:title="vtkXMLUnstructuredDataReader &#45; Superclass for unstructured data XML readers.">
<polygon fill="none" stroke="black" points="785.5,-38 785.5,-58 1012.5,-58 1012.5,-38 785.5,-38"/>
<text text-anchor="middle" x="899" y="-45" font-family="FreeSans" font-size="10.00">Kitware.VTK.vtkXMLUnstructuredDataReader</text>
</a>
</g>
<!-- Node1&#45;&gt;Node13 -->
<g id="edge24" class="edge"><title>Node1&#45;&gt;Node13</title>
<path fill="none" stroke="midnightblue" d="M704.129,-110.755C750.797,-95.7264 825.866,-71.5515 867.907,-58.0129"/>
<polygon fill="midnightblue" stroke="midnightblue" points="702.785,-107.511 694.339,-113.908 704.93,-114.174 702.785,-107.511"/>
</g>
<!-- Node2 -->
<g id="node2" class="node"><title>Node2</title>
<a xlink:href="class_kitware_1_1_v_t_k_1_1vtk_x_m_l_reader.html" target="_top" xlink:title="vtkXMLReader &#45; Superclass for VTK&#39;s XML format readers.">
<polygon fill="none" stroke="black" points="460.5,-114 460.5,-134 543.5,-134 543.5,-114 460.5,-114"/>
<text text-anchor="middle" x="502" y="-121" font-family="FreeSans" font-size="10.00">vtkXMLReader</text>
</a>
</g>
<!-- Node2&#45;&gt;Node1 -->
<g id="edge2" class="edge"><title>Node2&#45;&gt;Node1</title>
<path fill="none" stroke="midnightblue" d="M553.959,-124C562.443,-124 571.414,-124 580.419,-124"/>
<polygon fill="midnightblue" stroke="midnightblue" points="553.881,-120.5 543.881,-124 553.881,-127.5 553.881,-120.5"/>
</g>
<!-- Node3 -->
<g id="node4" class="node"><title>Node3</title>
<a xlink:href="class_kitware_1_1_v_t_k_1_1vtk_algorithm.html" target="_top" xlink:title="vtkAlgorithm &#45; Superclass for all sources, filters, and sinks in VTK.">
<polygon fill="none" stroke="black" points="346.5,-114 346.5,-134 423.5,-134 423.5,-114 346.5,-114"/>
<text text-anchor="middle" x="385" y="-121" font-family="FreeSans" font-size="10.00">vtkAlgorithm</text>
</a>
</g>
<!-- Node3&#45;&gt;Node2 -->
<g id="edge4" class="edge"><title>Node3&#45;&gt;Node2</title>
<path fill="none" stroke="midnightblue" d="M433.756,-124C442.538,-124 451.621,-124 460.184,-124"/>
<polygon fill="midnightblue" stroke="midnightblue" points="433.634,-120.5 423.634,-124 433.634,-127.5 433.634,-120.5"/>
</g>
<!-- Node4 -->
<g id="node6" class="node"><title>Node4</title>
<a xlink:href="class_kitware_1_1_v_t_k_1_1vtk_object.html" target="_top" xlink:title="vtkObject &#45; abstract base class for most VTK objects">
<polygon fill="none" stroke="black" points="248,-114 248,-134 310,-134 310,-114 248,-114"/>
<text text-anchor="middle" x="279" y="-121" font-family="FreeSans" font-size="10.00">vtkObject</text>
</a>
</g>
<!-- Node4&#45;&gt;Node3 -->
<g id="edge6" class="edge"><title>Node4&#45;&gt;Node3</title>
<path fill="none" stroke="midnightblue" d="M320.421,-124C329.001,-124 338.007,-124 346.479,-124"/>
<polygon fill="midnightblue" stroke="midnightblue" points="320.23,-120.5 310.23,-124 320.23,-127.5 320.23,-120.5"/>
</g>
<!-- Node5 -->
<g id="node8" class="node"><title>Node5</title>
<a xlink:href="class_kitware_1_1_v_t_k_1_1vtk_object_base.html" target="_top" xlink:title="vtkObjectBase &#45; abstract base class for most VTK objects">
<polygon fill="none" stroke="black" points="126,-114 126,-134 212,-134 212,-114 126,-114"/>
<text text-anchor="middle" x="169" y="-121" font-family="FreeSans" font-size="10.00">vtkObjectBase</text>
</a>
</g>
<!-- Node5&#45;&gt;Node4 -->
<g id="edge8" class="edge"><title>Node5&#45;&gt;Node4</title>
<path fill="none" stroke="midnightblue" d="M222.346,-124C231.091,-124 239.892,-124 247.863,-124"/>
<polygon fill="midnightblue" stroke="midnightblue" points="222.159,-120.5 212.159,-124 222.159,-127.5 222.159,-120.5"/>
</g>
<!-- Node6 -->
<g id="node10" class="node"><title>Node6</title>
<a xlink:href="class_kitware_1_1_v_t_k_1_1_wrapped_object.html" target="_top" xlink:title="Base class for all the mummy wrapped classes in Kitware.VTK.">
<polygon fill="none" stroke="black" points="0.5,-114 0.5,-134 89.5,-134 89.5,-114 0.5,-114"/>
<text text-anchor="middle" x="45" y="-121" font-family="FreeSans" font-size="10.00">WrappedObject</text>
</a>
</g>
<!-- Node6&#45;&gt;Node5 -->
<g id="edge10" class="edge"><title>Node6&#45;&gt;Node5</title>
<path fill="none" stroke="midnightblue" d="M99.8895,-124C108.623,-124 117.548,-124 125.957,-124"/>
<polygon fill="midnightblue" stroke="midnightblue" points="99.7669,-120.5 89.7668,-124 99.7668,-127.5 99.7669,-120.5"/>
</g>
<!-- Node10 -->
<g id="node19" class="node"><title>Node10</title>
<a xlink:href="class_kitware_1_1_v_t_k_1_1vtk_x_m_l_image_data_reader.html" target="_top" xlink:title="vtkXMLImageDataReader &#45; Read VTK XML ImageData files.">
<polygon fill="none" stroke="black" points="1066.5,-152 1066.5,-172 1261.5,-172 1261.5,-152 1066.5,-152"/>
<text text-anchor="middle" x="1164" y="-159" font-family="FreeSans" font-size="10.00">Kitware.VTK.vtkXMLImageDataReader</text>
</a>
</g>
<!-- Node9&#45;&gt;Node10 -->
<g id="edge18" class="edge"><title>Node9&#45;&gt;Node10</title>
<path fill="none" stroke="midnightblue" d="M991.993,-117.248C1000.2,-119.185 1008.3,-121.42 1016,-124 1033.15,-129.748 1034.87,-137.192 1052,-143 1062.65,-146.609 1074.1,-149.553 1085.48,-151.949"/>
<polygon fill="midnightblue" stroke="midnightblue" points="992.478,-113.771 981.959,-115.031 990.968,-120.606 992.478,-113.771"/>
</g>
<!-- Node11 -->
<g id="node21" class="node"><title>Node11</title>
<a xlink:href="class_kitware_1_1_v_t_k_1_1vtk_x_m_l_rectilinear_grid_reader.html" target="_top" xlink:title="vtkXMLRectilinearGridReader &#45; Read VTK XML RectilinearGrid files.">
<polygon fill="none" stroke="black" points="1059,-114 1059,-134 1269,-134 1269,-114 1059,-114"/>
<text text-anchor="middle" x="1164" y="-121" font-family="FreeSans" font-size="10.00">Kitware.VTK.vtkXMLRectilinearGridReader</text>
</a>
</g>
<!-- Node9&#45;&gt;Node11 -->
<g id="edge20" class="edge"><title>Node9&#45;&gt;Node11</title>
<path fill="none" stroke="midnightblue" d="M1017.2,-113.475C1031.04,-114.467 1045.1,-115.475 1058.75,-116.454"/>
<polygon fill="midnightblue" stroke="midnightblue" points="1017.39,-109.98 1007.17,-112.755 1016.89,-116.962 1017.39,-109.98"/>
</g>
<!-- Node12 -->
<g id="node23" class="node"><title>Node12</title>
<a xlink:href="class_kitware_1_1_v_t_k_1_1vtk_x_m_l_structured_grid_reader.html" target="_top" xlink:title="vtkXMLStructuredGridReader &#45; Read VTK XML StructuredGrid files.">
<polygon fill="none" stroke="black" points="1058,-76 1058,-96 1270,-96 1270,-76 1058,-76"/>
<text text-anchor="middle" x="1164" y="-83" font-family="FreeSans" font-size="10.00">Kitware.VTK.vtkXMLStructuredGridReader</text>
</a>
</g>
<!-- Node9&#45;&gt;Node12 -->
<g id="edge22" class="edge"><title>Node9&#45;&gt;Node12</title>
<path fill="none" stroke="midnightblue" d="M1017.43,-96.5089C1030.91,-95.5424 1044.59,-94.5618 1057.89,-93.6077"/>
<polygon fill="midnightblue" stroke="midnightblue" points="1016.89,-93.0383 1007.17,-97.2446 1017.39,-100.02 1016.89,-93.0383"/>
</g>
<!-- Node14 -->
<g id="node27" class="node"><title>Node14</title>
<a xlink:href="class_kitware_1_1_v_t_k_1_1vtk_x_m_l_poly_data_reader.html" target="_top" xlink:title="vtkXMLPolyDataReader &#45; Read VTK XML PolyData files.">
<polygon fill="none" stroke="black" points="1071.5,-38 1071.5,-58 1256.5,-58 1256.5,-38 1071.5,-38"/>
<text text-anchor="middle" x="1164" y="-45" font-family="FreeSans" font-size="10.00">Kitware.VTK.vtkXMLPolyDataReader</text>
</a>
</g>
<!-- Node13&#45;&gt;Node14 -->
<g id="edge26" class="edge"><title>Node13&#45;&gt;Node14</title>
<path fill="none" stroke="midnightblue" d="M1022.72,-48C1039.12,-48 1055.71,-48 1071.46,-48"/>
<polygon fill="midnightblue" stroke="midnightblue" points="1022.54,-44.5001 1012.54,-48 1022.54,-51.5001 1022.54,-44.5001"/>
</g>
<!-- Node16 -->
<g id="node31" class="node"><title>Node16</title>
<a xlink:href="class_kitware_1_1_v_t_k_1_1vtk_x_m_l_unstructured_grid_reader.html" target="_top" xlink:title="vtkXMLUnstructuredGridReader &#45; Read VTK XML UnstructuredGrid files.">
<polygon fill="none" stroke="black" points="1052,-0 1052,-20 1276,-20 1276,-0 1052,-0"/>
<text text-anchor="middle" x="1164" y="-7" font-family="FreeSans" font-size="10.00">Kitware.VTK.vtkXMLUnstructuredGridReader</text>
</a>
</g>
<!-- Node13&#45;&gt;Node16 -->
<g id="edge30" class="edge"><title>Node13&#45;&gt;Node16</title>
<path fill="none" stroke="midnightblue" d="M979.127,-36.5101C1015.77,-31.2555 1058.78,-25.0876 1094.1,-20.024"/>
<polygon fill="midnightblue" stroke="midnightblue" points="978.374,-33.0822 968.972,-37.9662 979.368,-40.0113 978.374,-33.0822"/>
</g>
<!-- Node15 -->
<g id="node29" class="node"><title>Node15</title>
<a xlink:href="class_kitware_1_1_v_t_k_1_1vtk_r_t_x_m_l_poly_data_reader.html" target="_top" xlink:title="vtkRTXMLPolyDataReader &#45; Read RealTime VTK XML PolyData files.">
<polygon fill="none" stroke="black" points="1312.5,-38 1312.5,-58 1507.5,-58 1507.5,-38 1312.5,-38"/>
<text text-anchor="middle" x="1410" y="-45" font-family="FreeSans" font-size="10.00">Kitware.VTK.vtkRTXMLPolyDataReader</text>
</a>
</g>
<!-- Node14&#45;&gt;Node15 -->
<g id="edge28" class="edge"><title>Node14&#45;&gt;Node15</title>
<path fill="none" stroke="midnightblue" d="M1266.93,-48C1281.88,-48 1297.24,-48 1312.1,-48"/>
<polygon fill="midnightblue" stroke="midnightblue" points="1266.65,-44.5001 1256.65,-48 1266.65,-51.5001 1266.65,-44.5001"/>
</g>
</g>
</svg>
