<?xml version="1.0" encoding="UTF-8" standalone="no"?>
<!DOCTYPE svg PUBLIC "-//W3C//DTD SVG 1.1//EN"
 "http://www.w3.org/Graphics/SVG/1.1/DTD/svg11.dtd">
<!-- Generated by graphviz version 2.26.3 (20100126.1600)
 -->
<!-- Title: G Pages: 1 -->
<svg width="436pt" height="770pt"
 viewBox="0.00 0.00 436.46 770.00" xmlns="http://www.w3.org/2000/svg" xmlns:xlink="http://www.w3.org/1999/xlink">
<g id="graph1" class="graph" transform="scale(1 1) rotate(0) translate(4 766)">
<title>G</title>
<!-- Node1 -->
<g id="node1" class="node"><title>Node1</title>
<polygon fill="#bfbfbf" stroke="black" points="0,-1 0,-21 200,-21 200,-1 0,-1"/>
<text text-anchor="middle" x="100" y="-8" font-family="FreeSans" font-size="10.00">Kitware.VTK.vtkCameraRepresentation</text>
</g>
<!-- Node2 -->
<g id="node2" class="node"><title>Node2</title>
<a xlink:href="class_kitware_1_1_v_t_k_1_1vtk_border_representation.html" target="_top" xlink:title="vtkBorderRepresentation &#45; represent a vtkBorderWidget">
<polygon fill="none" stroke="black" points="32.5,-61 32.5,-81 167.5,-81 167.5,-61 32.5,-61"/>
<text text-anchor="middle" x="100" y="-68" font-family="FreeSans" font-size="10.00">vtkBorderRepresentation</text>
</a>
</g>
<!-- Node2&#45;&gt;Node1 -->
<g id="edge2" class="edge"><title>Node2&#45;&gt;Node1</title>
<path fill="none" stroke="midnightblue" d="M100,-50.5155C100,-40.562 100,-29.0495 100,-21.0279"/>
<polygon fill="midnightblue" stroke="midnightblue" points="96.5001,-50.8218 100,-60.8218 103.5,-50.8219 96.5001,-50.8218"/>
</g>
<!-- Node3 -->
<g id="node4" class="node"><title>Node3</title>
<a xlink:href="class_kitware_1_1_v_t_k_1_1vtk_widget_representation.html" target="_top" xlink:title="vtkWidgetRepresentation &#45; abstract class defines interface between the widget and widget representati...">
<polygon fill="none" stroke="black" points="32.5,-121 32.5,-141 167.5,-141 167.5,-121 32.5,-121"/>
<text text-anchor="middle" x="100" y="-128" font-family="FreeSans" font-size="10.00">vtkWidgetRepresentation</text>
</a>
</g>
<!-- Node3&#45;&gt;Node2 -->
<g id="edge4" class="edge"><title>Node3&#45;&gt;Node2</title>
<path fill="none" stroke="midnightblue" d="M100,-110.516C100,-100.562 100,-89.0495 100,-81.0279"/>
<polygon fill="midnightblue" stroke="midnightblue" points="96.5001,-110.822 100,-120.822 103.5,-110.822 96.5001,-110.822"/>
</g>
<!-- Node4 -->
<g id="node6" class="node"><title>Node4</title>
<a xlink:href="class_kitware_1_1_v_t_k_1_1vtk_prop.html" target="_top" xlink:title="vtkProp &#45; abstract superclass for all actors, volumes and annotations">
<polygon fill="none" stroke="black" points="73.5,-181 73.5,-201 126.5,-201 126.5,-181 73.5,-181"/>
<text text-anchor="middle" x="100" y="-188" font-family="FreeSans" font-size="10.00">vtkProp</text>
</a>
</g>
<!-- Node4&#45;&gt;Node3 -->
<g id="edge6" class="edge"><title>Node4&#45;&gt;Node3</title>
<path fill="none" stroke="midnightblue" d="M100,-170.516C100,-160.562 100,-149.05 100,-141.028"/>
<polygon fill="midnightblue" stroke="midnightblue" points="96.5001,-170.822 100,-180.822 103.5,-170.822 96.5001,-170.822"/>
</g>
<!-- Node5 -->
<g id="node8" class="node"><title>Node5</title>
<a xlink:href="class_kitware_1_1_v_t_k_1_1vtk_object.html" target="_top" xlink:title="vtkObject &#45; abstract base class for most VTK objects">
<polygon fill="none" stroke="black" points="69,-241 69,-261 131,-261 131,-241 69,-241"/>
<text text-anchor="middle" x="100" y="-248" font-family="FreeSans" font-size="10.00">vtkObject</text>
</a>
</g>
<!-- Node5&#45;&gt;Node4 -->
<g id="edge8" class="edge"><title>Node5&#45;&gt;Node4</title>
<path fill="none" stroke="midnightblue" d="M100,-230.516C100,-220.562 100,-209.05 100,-201.028"/>
<polygon fill="midnightblue" stroke="midnightblue" points="96.5001,-230.822 100,-240.822 103.5,-230.822 96.5001,-230.822"/>
</g>
<!-- Node6 -->
<g id="node10" class="node"><title>Node6</title>
<a xlink:href="class_kitware_1_1_v_t_k_1_1vtk_object_base.html" target="_top" xlink:title="vtkObjectBase &#45; abstract base class for most VTK objects">
<polygon fill="none" stroke="black" points="120,-681 120,-701 206,-701 206,-681 120,-681"/>
<text text-anchor="middle" x="163" y="-688" font-family="FreeSans" font-size="10.00">vtkObjectBase</text>
</a>
</g>
<!-- Node6&#45;&gt;Node5 -->
<g id="edge10" class="edge"><title>Node6&#45;&gt;Node5</title>
<path fill="none" stroke="midnightblue" d="M134.423,-675.886C120.687,-667.44 104.884,-655.826 94,-642 82.1564,-626.955 81.6209,-620.802 78,-602 52.4248,-469.199 87.5766,-303.437 97.5155,-261.17"/>
<polygon fill="midnightblue" stroke="midnightblue" points="132.683,-678.923 143.079,-680.97 136.229,-672.887 132.683,-678.923"/>
</g>
<!-- Node9 -->
<g id="node17" class="node"><title>Node9</title>
<a xlink:href="class_kitware_1_1_v_t_k_1_1vtk_object.html" target="_top" xlink:title="vtkObject &#45; abstract base class for most VTK objects">
<polygon fill="none" stroke="black" points="103,-621 103,-641 223,-641 223,-621 103,-621"/>
<text text-anchor="middle" x="163" y="-628" font-family="FreeSans" font-size="10.00">Kitware.VTK.vtkObject</text>
</a>
</g>
<!-- Node6&#45;&gt;Node9 -->
<g id="edge20" class="edge"><title>Node6&#45;&gt;Node9</title>
<path fill="none" stroke="midnightblue" d="M163,-670.516C163,-660.562 163,-649.05 163,-641.028"/>
<polygon fill="midnightblue" stroke="midnightblue" points="159.5,-670.822 163,-680.822 166.5,-670.822 159.5,-670.822"/>
</g>
<!-- Node7 -->
<g id="node12" class="node"><title>Node7</title>
<a xlink:href="class_kitware_1_1_v_t_k_1_1_wrapped_object.html" target="_top" xlink:title="Base class for all the mummy wrapped classes in Kitware.VTK.">
<polygon fill="none" stroke="black" points="301.5,-741 301.5,-761 390.5,-761 390.5,-741 301.5,-741"/>
<text text-anchor="middle" x="346" y="-748" font-family="FreeSans" font-size="10.00">WrappedObject</text>
</a>
</g>
<!-- Node7&#45;&gt;Node6 -->
<g id="edge12" class="edge"><title>Node7&#45;&gt;Node6</title>
<path fill="none" stroke="midnightblue" d="M305.804,-737.821C272.042,-726.752 224.512,-711.168 193.73,-701.075"/>
<polygon fill="midnightblue" stroke="midnightblue" points="304.777,-741.168 315.37,-740.957 306.958,-734.516 304.777,-741.168"/>
</g>
<!-- Node8 -->
<g id="node14" class="node"><title>Node8</title>
<a xlink:href="class_kitware_1_1_v_t_k_1_1vtk_object_event_relay.html" target="_top" xlink:title="Implement a relay handler for VTK events. This is a class that receives events directly from the VTK ...">
<polygon fill="none" stroke="black" points="92,-431 92,-451 264,-451 264,-431 92,-431"/>
<text text-anchor="middle" x="178" y="-438" font-family="FreeSans" font-size="10.00">Kitware.VTK.vtkObjectEventRelay</text>
</a>
</g>
<!-- Node7&#45;&gt;Node8 -->
<g id="edge16" class="edge"><title>Node7&#45;&gt;Node8</title>
<path fill="none" stroke="midnightblue" d="M358.888,-732.325C391.276,-682.899 468.803,-547.191 401,-470 391.773,-459.495 323.047,-451.666 264.298,-446.808"/>
<polygon fill="midnightblue" stroke="midnightblue" points="355.891,-730.509 353.239,-740.767 361.709,-734.402 355.891,-730.509"/>
</g>
<!-- Node8&#45;&gt;Node5 -->
<g id="edge14" class="edge"><title>Node8&#45;&gt;Node5</title>
<path fill="none" stroke="#9a32cd" stroke-dasharray="5,2" d="M169.921,-421.321C153.489,-381.293 116.674,-291.616 104.214,-261.266"/>
<polygon fill="#9a32cd" stroke="#9a32cd" points="166.771,-422.863 173.806,-430.785 173.246,-420.205 166.771,-422.863"/>
<text text-anchor="middle" x="277.5" y="-403" font-family="FreeSans" font-size="10.00"> LeftButtonReleaseEvtRelay</text>
<text text-anchor="middle" x="277.5" y="-391" font-family="FreeSans" font-size="10.00">KeyPressEvtRelay</text>
<text text-anchor="middle" x="277.5" y="-379" font-family="FreeSans" font-size="10.00">DomainModifiedEvtRelay</text>
<text text-anchor="middle" x="277.5" y="-367" font-family="FreeSans" font-size="10.00">VolumeMapperComputeGradientsStartEvtRelay</text>
<text text-anchor="middle" x="277.5" y="-355" font-family="FreeSans" font-size="10.00">ErrorEvtRelay</text>
<text text-anchor="middle" x="277.5" y="-343" font-family="FreeSans" font-size="10.00">VolumeMapperRenderStartEvtRelay</text>
<text text-anchor="middle" x="277.5" y="-331" font-family="FreeSans" font-size="10.00">StartEvtRelay</text>
<text text-anchor="middle" x="277.5" y="-319" font-family="FreeSans" font-size="10.00">ResetCameraEvtRelay</text>
<text text-anchor="middle" x="277.5" y="-307" font-family="FreeSans" font-size="10.00">EnableEvtRelay</text>
<text text-anchor="middle" x="277.5" y="-295" font-family="FreeSans" font-size="10.00">DeleteEvtRelay</text>
<text text-anchor="middle" x="277.5" y="-283" font-family="FreeSans" font-size="10.00">...</text>
</g>
<!-- Node8&#45;&gt;Node9 -->
<g id="edge22" class="edge"><title>Node8&#45;&gt;Node9</title>
<path fill="none" stroke="#9a32cd" stroke-dasharray="5,2" d="M175.028,-461.231C174.649,-464.169 174.293,-467.159 174,-470 168.144,-526.853 164.636,-595.333 163.452,-620.807"/>
<polygon fill="#9a32cd" stroke="#9a32cd" points="178.515,-461.565 176.421,-451.179 171.582,-460.604 178.515,-461.565"/>
<text text-anchor="middle" x="287.5" y="-593" font-family="FreeSans" font-size="10.00"> LeftButtonReleaseEvtRelay</text>
<text text-anchor="middle" x="287.5" y="-581" font-family="FreeSans" font-size="10.00">KeyPressEvtRelay</text>
<text text-anchor="middle" x="287.5" y="-569" font-family="FreeSans" font-size="10.00">DomainModifiedEvtRelay</text>
<text text-anchor="middle" x="287.5" y="-557" font-family="FreeSans" font-size="10.00">VolumeMapperComputeGradientsStartEvtRelay</text>
<text text-anchor="middle" x="287.5" y="-545" font-family="FreeSans" font-size="10.00">ErrorEvtRelay</text>
<text text-anchor="middle" x="287.5" y="-533" font-family="FreeSans" font-size="10.00">VolumeMapperRenderStartEvtRelay</text>
<text text-anchor="middle" x="287.5" y="-521" font-family="FreeSans" font-size="10.00">StartEvtRelay</text>
<text text-anchor="middle" x="287.5" y="-509" font-family="FreeSans" font-size="10.00">ResetCameraEvtRelay</text>
<text text-anchor="middle" x="287.5" y="-497" font-family="FreeSans" font-size="10.00">EnableEvtRelay</text>
<text text-anchor="middle" x="287.5" y="-485" font-family="FreeSans" font-size="10.00">DeleteEvtRelay</text>
<text text-anchor="middle" x="287.5" y="-473" font-family="FreeSans" font-size="10.00">...</text>
</g>
<!-- Node9&#45;&gt;Node8 -->
<g id="edge18" class="edge"><title>Node9&#45;&gt;Node8</title>
<path fill="none" stroke="#9a32cd" stroke-dasharray="5,2" d="M116.979,-615.818C111.439,-612.138 106.51,-607.596 103,-602 71.8229,-552.303 69.8299,-518.389 103,-470 107.736,-463.091 124.511,-456.287 140.999,-451.008"/>
<polygon fill="#9a32cd" stroke="#9a32cd" points="115.639,-619.079 126.072,-620.919 119.064,-612.974 115.639,-619.079"/>
<text text-anchor="middle" x="127" y="-539" font-family="FreeSans" font-size="10.00"> Sender</text>
<text text-anchor="middle" x="127" y="-527" font-family="FreeSans" font-size="10.00">EventImpl</text>
</g>
</g>
</svg>
