<?xml version="1.0" encoding="UTF-8" standalone="no"?>
<!DOCTYPE svg PUBLIC "-//W3C//DTD SVG 1.1//EN"
 "http://www.w3.org/Graphics/SVG/1.1/DTD/svg11.dtd">
<!-- Generated by graphviz version 2.26.3 (20100126.1600)
 -->
<!-- Title: G Pages: 1 -->
<svg width="1074pt" height="104pt"
 viewBox="0.00 0.00 1074.00 104.00" xmlns="http://www.w3.org/2000/svg" xmlns:xlink="http://www.w3.org/1999/xlink">
<g id="graph1" class="graph" transform="scale(1 1) rotate(0) translate(4 100)">
<title>G</title>
<!-- Node1 -->
<g id="node1" class="node"><title>Node1</title>
<polygon fill="#bfbfbf" stroke="black" points="608,-38 608,-58 796,-58 796,-38 608,-38"/>
<text text-anchor="middle" x="702" y="-45" font-family="FreeSans" font-size="10.00">Kitware.VTK.vtkSliderRepresentation</text>
</g>
<!-- Node7 -->
<g id="node13" class="node"><title>Node7</title>
<a xlink:href="class_kitware_1_1_v_t_k_1_1vtk_centered_slider_representation.html" target="_top" xlink:title="vtkCenteredSliderRepresentation &#45; provide the representation for a vtkCenteredSliderWidget">
<polygon fill="none" stroke="black" points="832.5,-76 832.5,-96 1065.5,-96 1065.5,-76 832.5,-76"/>
<text text-anchor="middle" x="949" y="-83" font-family="FreeSans" font-size="10.00">Kitware.VTK.vtkCenteredSliderRepresentation</text>
</a>
</g>
<!-- Node1&#45;&gt;Node7 -->
<g id="edge12" class="edge"><title>Node1&#45;&gt;Node7</title>
<path fill="none" stroke="midnightblue" d="M777.123,-59.5573C811.182,-64.7972 851.071,-70.934 883.844,-75.976"/>
<polygon fill="midnightblue" stroke="midnightblue" points="777.635,-56.0951 767.219,-58.0338 776.571,-63.0137 777.635,-56.0951"/>
</g>
<!-- Node8 -->
<g id="node15" class="node"><title>Node8</title>
<a xlink:href="class_kitware_1_1_v_t_k_1_1vtk_slider_representation2_d.html" target="_top" xlink:title="vtkSliderRepresentation2D &#45; provide the representation for a vtkSliderWidget with a 3D skin...">
<polygon fill="none" stroke="black" points="848,-38 848,-58 1050,-58 1050,-38 848,-38"/>
<text text-anchor="middle" x="949" y="-45" font-family="FreeSans" font-size="10.00">Kitware.VTK.vtkSliderRepresentation2D</text>
</a>
</g>
<!-- Node1&#45;&gt;Node8 -->
<g id="edge14" class="edge"><title>Node1&#45;&gt;Node8</title>
<path fill="none" stroke="midnightblue" d="M806.471,-48C820.151,-48 834.149,-48 847.773,-48"/>
<polygon fill="midnightblue" stroke="midnightblue" points="806.085,-44.5001 796.085,-48 806.085,-51.5001 806.085,-44.5001"/>
</g>
<!-- Node9 -->
<g id="node17" class="node"><title>Node9</title>
<a xlink:href="class_kitware_1_1_v_t_k_1_1vtk_slider_representation3_d.html" target="_top" xlink:title="vtkSliderRepresentation3D &#45; provide the representation for a vtkSliderWidget with a 3D skin...">
<polygon fill="none" stroke="black" points="848,-0 848,-20 1050,-20 1050,-0 848,-0"/>
<text text-anchor="middle" x="949" y="-7" font-family="FreeSans" font-size="10.00">Kitware.VTK.vtkSliderRepresentation3D</text>
</a>
</g>
<!-- Node1&#45;&gt;Node9 -->
<g id="edge16" class="edge"><title>Node1&#45;&gt;Node9</title>
<path fill="none" stroke="midnightblue" d="M777.123,-36.4427C811.182,-31.2028 851.071,-25.066 883.844,-20.024"/>
<polygon fill="midnightblue" stroke="midnightblue" points="776.571,-32.9863 767.219,-37.9662 777.635,-39.9049 776.571,-32.9863"/>
</g>
<!-- Node2 -->
<g id="node2" class="node"><title>Node2</title>
<a xlink:href="class_kitware_1_1_v_t_k_1_1vtk_widget_representation.html" target="_top" xlink:title="vtkWidgetRepresentation &#45; abstract class defines interface between the widget and widget representati...">
<polygon fill="none" stroke="black" points="436.5,-38 436.5,-58 571.5,-58 571.5,-38 436.5,-38"/>
<text text-anchor="middle" x="504" y="-45" font-family="FreeSans" font-size="10.00">vtkWidgetRepresentation</text>
</a>
</g>
<!-- Node2&#45;&gt;Node1 -->
<g id="edge2" class="edge"><title>Node2&#45;&gt;Node1</title>
<path fill="none" stroke="midnightblue" d="M581.835,-48C590.34,-48 599.064,-48 607.739,-48"/>
<polygon fill="midnightblue" stroke="midnightblue" points="581.587,-44.5001 571.587,-48 581.587,-51.5001 581.587,-44.5001"/>
</g>
<!-- Node3 -->
<g id="node4" class="node"><title>Node3</title>
<a xlink:href="class_kitware_1_1_v_t_k_1_1vtk_prop.html" target="_top" xlink:title="vtkProp &#45; abstract superclass for all actors, volumes and annotations">
<polygon fill="none" stroke="black" points="346.5,-38 346.5,-58 399.5,-58 399.5,-38 346.5,-38"/>
<text text-anchor="middle" x="373" y="-45" font-family="FreeSans" font-size="10.00">vtkProp</text>
</a>
</g>
<!-- Node3&#45;&gt;Node2 -->
<g id="edge4" class="edge"><title>Node3&#45;&gt;Node2</title>
<path fill="none" stroke="midnightblue" d="M409.628,-48C417.99,-48 427.137,-48 436.342,-48"/>
<polygon fill="midnightblue" stroke="midnightblue" points="409.51,-44.5001 399.51,-48 409.51,-51.5001 409.51,-44.5001"/>
</g>
<!-- Node4 -->
<g id="node6" class="node"><title>Node4</title>
<a xlink:href="class_kitware_1_1_v_t_k_1_1vtk_object.html" target="_top" xlink:title="vtkObject &#45; abstract base class for most VTK objects">
<polygon fill="none" stroke="black" points="248,-38 248,-58 310,-58 310,-38 248,-38"/>
<text text-anchor="middle" x="279" y="-45" font-family="FreeSans" font-size="10.00">vtkObject</text>
</a>
</g>
<!-- Node4&#45;&gt;Node3 -->
<g id="edge6" class="edge"><title>Node4&#45;&gt;Node3</title>
<path fill="none" stroke="midnightblue" d="M320.248,-48C329.119,-48 338.267,-48 346.403,-48"/>
<polygon fill="midnightblue" stroke="midnightblue" points="320.04,-44.5001 310.04,-48 320.04,-51.5001 320.04,-44.5001"/>
</g>
<!-- Node5 -->
<g id="node8" class="node"><title>Node5</title>
<a xlink:href="class_kitware_1_1_v_t_k_1_1vtk_object_base.html" target="_top" xlink:title="vtkObjectBase &#45; abstract base class for most VTK objects">
<polygon fill="none" stroke="black" points="126,-38 126,-58 212,-58 212,-38 126,-38"/>
<text text-anchor="middle" x="169" y="-45" font-family="FreeSans" font-size="10.00">vtkObjectBase</text>
</a>
</g>
<!-- Node5&#45;&gt;Node4 -->
<g id="edge8" class="edge"><title>Node5&#45;&gt;Node4</title>
<path fill="none" stroke="midnightblue" d="M222.346,-48C231.091,-48 239.892,-48 247.863,-48"/>
<polygon fill="midnightblue" stroke="midnightblue" points="222.159,-44.5001 212.159,-48 222.159,-51.5001 222.159,-44.5001"/>
</g>
<!-- Node6 -->
<g id="node10" class="node"><title>Node6</title>
<a xlink:href="class_kitware_1_1_v_t_k_1_1_wrapped_object.html" target="_top" xlink:title="Base class for all the mummy wrapped classes in Kitware.VTK.">
<polygon fill="none" stroke="black" points="0.5,-38 0.5,-58 89.5,-58 89.5,-38 0.5,-38"/>
<text text-anchor="middle" x="45" y="-45" font-family="FreeSans" font-size="10.00">WrappedObject</text>
</a>
</g>
<!-- Node6&#45;&gt;Node5 -->
<g id="edge10" class="edge"><title>Node6&#45;&gt;Node5</title>
<path fill="none" stroke="midnightblue" d="M99.8895,-48C108.623,-48 117.548,-48 125.957,-48"/>
<polygon fill="midnightblue" stroke="midnightblue" points="99.7669,-44.5001 89.7668,-48 99.7668,-51.5001 99.7669,-44.5001"/>
</g>
</g>
</svg>
