<?xml version="1.0" encoding="UTF-8" standalone="no"?>
<!DOCTYPE svg PUBLIC "-//W3C//DTD SVG 1.1//EN"
 "http://www.w3.org/Graphics/SVG/1.1/DTD/svg11.dtd">
<!-- Generated by graphviz version 2.26.3 (20100126.1600)
 -->
<!-- Title: G Pages: 1 -->
<svg width="1190pt" height="104pt"
 viewBox="0.00 0.00 1190.00 104.00" xmlns="http://www.w3.org/2000/svg" xmlns:xlink="http://www.w3.org/1999/xlink">
<g id="graph1" class="graph" transform="scale(1 1) rotate(0) translate(4 100)">
<title>G</title>
<!-- Node1 -->
<g id="node1" class="node"><title>Node1</title>
<polygon fill="#bfbfbf" stroke="black" points="718,-38 718,-58 934,-58 934,-38 718,-38"/>
<text text-anchor="middle" x="826" y="-45" font-family="FreeSans" font-size="10.00">Kitware.VTK.vtkXMLPStructuredDataWriter</text>
</g>
<!-- Node8 -->
<g id="node15" class="node"><title>Node8</title>
<a xlink:href="class_kitware_1_1_v_t_k_1_1vtk_x_m_l_p_image_data_writer.html" target="_top" xlink:title="vtkXMLPImageDataWriter &#45; Write PVTK XML ImageData files.">
<polygon fill="none" stroke="black" points="978.5,-76 978.5,-96 1173.5,-96 1173.5,-76 978.5,-76"/>
<text text-anchor="middle" x="1076" y="-83" font-family="FreeSans" font-size="10.00">Kitware.VTK.vtkXMLPImageDataWriter</text>
</a>
</g>
<!-- Node1&#45;&gt;Node8 -->
<g id="edge14" class="edge"><title>Node1&#45;&gt;Node8</title>
<path fill="none" stroke="midnightblue" d="M902.035,-59.5573C936.508,-64.7972 976.882,-70.934 1010.05,-75.976"/>
<polygon fill="midnightblue" stroke="midnightblue" points="902.424,-56.0763 892.012,-58.0338 901.372,-62.9968 902.424,-56.0763"/>
</g>
<!-- Node9 -->
<g id="node17" class="node"><title>Node9</title>
<a xlink:href="class_kitware_1_1_v_t_k_1_1vtk_x_m_l_p_rectilinear_grid_writer.html" target="_top" xlink:title="vtkXMLPRectilinearGridWriter &#45; Write PVTK XML RectilinearGrid files.">
<polygon fill="none" stroke="black" points="971,-38 971,-58 1181,-58 1181,-38 971,-38"/>
<text text-anchor="middle" x="1076" y="-45" font-family="FreeSans" font-size="10.00">Kitware.VTK.vtkXMLPRectilinearGridWriter</text>
</a>
</g>
<!-- Node1&#45;&gt;Node9 -->
<g id="edge16" class="edge"><title>Node1&#45;&gt;Node9</title>
<path fill="none" stroke="midnightblue" d="M944.484,-48C953.27,-48 962.1,-48 970.798,-48"/>
<polygon fill="midnightblue" stroke="midnightblue" points="944.2,-44.5001 934.2,-48 944.2,-51.5001 944.2,-44.5001"/>
</g>
<!-- Node10 -->
<g id="node19" class="node"><title>Node10</title>
<a xlink:href="class_kitware_1_1_v_t_k_1_1vtk_x_m_l_p_structured_grid_writer.html" target="_top" xlink:title="vtkXMLPStructuredGridWriter &#45; Write PVTK XML StructuredGrid files.">
<polygon fill="none" stroke="black" points="970,-0 970,-20 1182,-20 1182,-0 970,-0"/>
<text text-anchor="middle" x="1076" y="-7" font-family="FreeSans" font-size="10.00">Kitware.VTK.vtkXMLPStructuredGridWriter</text>
</a>
</g>
<!-- Node1&#45;&gt;Node10 -->
<g id="edge18" class="edge"><title>Node1&#45;&gt;Node10</title>
<path fill="none" stroke="midnightblue" d="M902.035,-36.4427C936.508,-31.2028 976.882,-25.066 1010.05,-20.024"/>
<polygon fill="midnightblue" stroke="midnightblue" points="901.372,-33.0032 892.012,-37.9662 902.424,-39.9237 901.372,-33.0032"/>
</g>
<!-- Node2 -->
<g id="node2" class="node"><title>Node2</title>
<a xlink:href="class_kitware_1_1_v_t_k_1_1vtk_x_m_l_p_data_writer.html" target="_top" xlink:title="vtkXMLPDataWriter &#45; Write data in a parallel XML format.">
<polygon fill="none" stroke="black" points="574.5,-38 574.5,-58 681.5,-58 681.5,-38 574.5,-38"/>
<text text-anchor="middle" x="628" y="-45" font-family="FreeSans" font-size="10.00">vtkXMLPDataWriter</text>
</a>
</g>
<!-- Node2&#45;&gt;Node1 -->
<g id="edge2" class="edge"><title>Node2&#45;&gt;Node1</title>
<path fill="none" stroke="midnightblue" d="M691.649,-48C700.078,-48 708.901,-48 717.825,-48"/>
<polygon fill="midnightblue" stroke="midnightblue" points="691.582,-44.5001 681.582,-48 691.582,-51.5001 691.582,-44.5001"/>
</g>
<!-- Node3 -->
<g id="node4" class="node"><title>Node3</title>
<a xlink:href="class_kitware_1_1_v_t_k_1_1vtk_x_m_l_writer.html" target="_top" xlink:title="vtkXMLWriter &#45; Superclass for VTK&#39;s XML file writers.">
<polygon fill="none" stroke="black" points="460.5,-38 460.5,-58 537.5,-58 537.5,-38 460.5,-38"/>
<text text-anchor="middle" x="499" y="-45" font-family="FreeSans" font-size="10.00">vtkXMLWriter</text>
</a>
</g>
<!-- Node3&#45;&gt;Node2 -->
<g id="edge4" class="edge"><title>Node3&#45;&gt;Node2</title>
<path fill="none" stroke="midnightblue" d="M547.896,-48C556.445,-48 565.384,-48 574.06,-48"/>
<polygon fill="midnightblue" stroke="midnightblue" points="547.704,-44.5001 537.704,-48 547.704,-51.5001 547.704,-44.5001"/>
</g>
<!-- Node4 -->
<g id="node6" class="node"><title>Node4</title>
<a xlink:href="class_kitware_1_1_v_t_k_1_1vtk_algorithm.html" target="_top" xlink:title="vtkAlgorithm &#45; Superclass for all sources, filters, and sinks in VTK.">
<polygon fill="none" stroke="black" points="346.5,-38 346.5,-58 423.5,-58 423.5,-38 346.5,-38"/>
<text text-anchor="middle" x="385" y="-45" font-family="FreeSans" font-size="10.00">vtkAlgorithm</text>
</a>
</g>
<!-- Node4&#45;&gt;Node3 -->
<g id="edge6" class="edge"><title>Node4&#45;&gt;Node3</title>
<path fill="none" stroke="midnightblue" d="M433.854,-48C442.744,-48 451.904,-48 460.445,-48"/>
<polygon fill="midnightblue" stroke="midnightblue" points="433.595,-44.5001 423.595,-48 433.595,-51.5001 433.595,-44.5001"/>
</g>
<!-- Node5 -->
<g id="node8" class="node"><title>Node5</title>
<a xlink:href="class_kitware_1_1_v_t_k_1_1vtk_object.html" target="_top" xlink:title="vtkObject &#45; abstract base class for most VTK objects">
<polygon fill="none" stroke="black" points="248,-38 248,-58 310,-58 310,-38 248,-38"/>
<text text-anchor="middle" x="279" y="-45" font-family="FreeSans" font-size="10.00">vtkObject</text>
</a>
</g>
<!-- Node5&#45;&gt;Node4 -->
<g id="edge8" class="edge"><title>Node5&#45;&gt;Node4</title>
<path fill="none" stroke="midnightblue" d="M320.421,-48C329.001,-48 338.007,-48 346.479,-48"/>
<polygon fill="midnightblue" stroke="midnightblue" points="320.23,-44.5001 310.23,-48 320.23,-51.5001 320.23,-44.5001"/>
</g>
<!-- Node6 -->
<g id="node10" class="node"><title>Node6</title>
<a xlink:href="class_kitware_1_1_v_t_k_1_1vtk_object_base.html" target="_top" xlink:title="vtkObjectBase &#45; abstract base class for most VTK objects">
<polygon fill="none" stroke="black" points="126,-38 126,-58 212,-58 212,-38 126,-38"/>
<text text-anchor="middle" x="169" y="-45" font-family="FreeSans" font-size="10.00">vtkObjectBase</text>
</a>
</g>
<!-- Node6&#45;&gt;Node5 -->
<g id="edge10" class="edge"><title>Node6&#45;&gt;Node5</title>
<path fill="none" stroke="midnightblue" d="M222.346,-48C231.091,-48 239.892,-48 247.863,-48"/>
<polygon fill="midnightblue" stroke="midnightblue" points="222.159,-44.5001 212.159,-48 222.159,-51.5001 222.159,-44.5001"/>
</g>
<!-- Node7 -->
<g id="node12" class="node"><title>Node7</title>
<a xlink:href="class_kitware_1_1_v_t_k_1_1_wrapped_object.html" target="_top" xlink:title="Base class for all the mummy wrapped classes in Kitware.VTK.">
<polygon fill="none" stroke="black" points="0.5,-38 0.5,-58 89.5,-58 89.5,-38 0.5,-38"/>
<text text-anchor="middle" x="45" y="-45" font-family="FreeSans" font-size="10.00">WrappedObject</text>
</a>
</g>
<!-- Node7&#45;&gt;Node6 -->
<g id="edge12" class="edge"><title>Node7&#45;&gt;Node6</title>
<path fill="none" stroke="midnightblue" d="M99.8895,-48C108.623,-48 117.548,-48 125.957,-48"/>
<polygon fill="midnightblue" stroke="midnightblue" points="99.7669,-44.5001 89.7668,-48 99.7668,-51.5001 99.7669,-44.5001"/>
</g>
</g>
</svg>
