<?xml version="1.0" encoding="UTF-8" standalone="no"?>
<!DOCTYPE svg PUBLIC "-//W3C//DTD SVG 1.1//EN"
 "http://www.w3.org/Graphics/SVG/1.1/DTD/svg11.dtd">
<!-- Generated by graphviz version 2.26.3 (20100126.1600)
 -->
<!-- Title: G Pages: 1 -->
<svg width="1076pt" height="560pt"
 viewBox="0.00 0.00 1076.00 560.00" xmlns="http://www.w3.org/2000/svg" xmlns:xlink="http://www.w3.org/1999/xlink">
<g id="graph1" class="graph" transform="scale(1 1) rotate(0) translate(4 556)">
<title>G</title>
<!-- Node1 -->
<g id="node1" class="node"><title>Node1</title>
<polygon fill="#bfbfbf" stroke="black" points="480,-266 480,-286 618,-286 618,-266 480,-266"/>
<text text-anchor="middle" x="549" y="-273" font-family="FreeSans" font-size="10.00">Kitware.VTK.vtkDataArray</text>
</g>
<!-- Node6 -->
<g id="node11" class="node"><title>Node6</title>
<a xlink:href="class_kitware_1_1_v_t_k_1_1vtk_bit_array.html" target="_top" xlink:title="vtkBitArray &#45; dynamic, self&#45;adjusting array of bits">
<polygon fill="none" stroke="black" points="693,-532 693,-552 821,-552 821,-532 693,-532"/>
<text text-anchor="middle" x="757" y="-539" font-family="FreeSans" font-size="10.00">Kitware.VTK.vtkBitArray</text>
</a>
</g>
<!-- Node1&#45;&gt;Node6 -->
<g id="edge10" class="edge"><title>Node1&#45;&gt;Node6</title>
<path fill="none" stroke="midnightblue" d="M551.214,-296.276C557.576,-344.044 580.451,-464.054 654,-523 665.067,-531.87 678.953,-537.099 692.911,-540.082"/>
<polygon fill="midnightblue" stroke="midnightblue" points="554.676,-295.748 549.985,-286.249 547.728,-296.6 554.676,-295.748"/>
</g>
<!-- Node7 -->
<g id="node13" class="node"><title>Node7</title>
<a xlink:href="class_kitware_1_1_v_t_k_1_1vtk_char_array.html" target="_top" xlink:title="vtkCharArray &#45; dynamic, self&#45;adjusting array of char">
<polygon fill="none" stroke="black" points="688.5,-494 688.5,-514 825.5,-514 825.5,-494 688.5,-494"/>
<text text-anchor="middle" x="757" y="-501" font-family="FreeSans" font-size="10.00">Kitware.VTK.vtkCharArray</text>
</a>
</g>
<!-- Node1&#45;&gt;Node7 -->
<g id="edge12" class="edge"><title>Node1&#45;&gt;Node7</title>
<path fill="none" stroke="midnightblue" d="M552.914,-296.3C562.228,-338.74 589.902,-436.894 654,-485 664.035,-492.531 676.143,-497.383 688.478,-500.453"/>
<polygon fill="midnightblue" stroke="midnightblue" points="556.304,-295.412 550.844,-286.333 549.451,-296.836 556.304,-295.412"/>
</g>
<!-- Node9 -->
<g id="node17" class="node"><title>Node9</title>
<a xlink:href="class_kitware_1_1_v_t_k_1_1vtk_double_array.html" target="_top" xlink:title="vtkDoubleArray &#45; dynamic, self&#45;adjusting array of double">
<polygon fill="none" stroke="black" points="682.5,-456 682.5,-476 831.5,-476 831.5,-456 682.5,-456"/>
<text text-anchor="middle" x="757" y="-463" font-family="FreeSans" font-size="10.00">Kitware.VTK.vtkDoubleArray</text>
</a>
</g>
<!-- Node1&#45;&gt;Node9 -->
<g id="edge16" class="edge"><title>Node1&#45;&gt;Node9</title>
<path fill="none" stroke="midnightblue" d="M555.215,-296.069C567.616,-332.522 599.067,-409.316 654,-447 662.472,-452.812 672.221,-456.984 682.272,-459.956"/>
<polygon fill="midnightblue" stroke="midnightblue" points="558.404,-294.559 551.974,-286.139 551.75,-296.732 558.404,-294.559"/>
</g>
<!-- Node11 -->
<g id="node21" class="node"><title>Node11</title>
<a xlink:href="class_kitware_1_1_v_t_k_1_1vtk_float_array.html" target="_top" xlink:title="vtkFloatArray &#45; dynamic, self&#45;adjusting array of float">
<polygon fill="none" stroke="black" points="688,-418 688,-438 826,-438 826,-418 688,-418"/>
<text text-anchor="middle" x="757" y="-425" font-family="FreeSans" font-size="10.00">Kitware.VTK.vtkFloatArray</text>
</a>
</g>
<!-- Node1&#45;&gt;Node11 -->
<g id="edge20" class="edge"><title>Node1&#45;&gt;Node11</title>
<path fill="none" stroke="midnightblue" d="M558.401,-295.313C573.909,-324.954 607.797,-381.15 654,-409 664.278,-415.196 676.103,-419.459 687.994,-422.376"/>
<polygon fill="midnightblue" stroke="midnightblue" points="561.336,-293.362 553.692,-286.025 555.092,-296.527 561.336,-293.362"/>
</g>
<!-- Node13 -->
<g id="node25" class="node"><title>Node13</title>
<a xlink:href="class_kitware_1_1_v_t_k_1_1vtk_id_type_array.html" target="_top" xlink:title="vtkIdTypeArray &#45; dynamic, self&#45;adjusting array of vtkIdType">
<polygon fill="none" stroke="black" points="685,-380 685,-400 829,-400 829,-380 685,-380"/>
<text text-anchor="middle" x="757" y="-387" font-family="FreeSans" font-size="10.00">Kitware.VTK.vtkIdTypeArray</text>
</a>
</g>
<!-- Node1&#45;&gt;Node13 -->
<g id="edge24" class="edge"><title>Node1&#45;&gt;Node13</title>
<path fill="none" stroke="midnightblue" d="M563.489,-294.204C582.018,-316.134 616.254,-352.349 654,-371 663.618,-375.753 674.274,-379.324 684.978,-382.005"/>
<polygon fill="midnightblue" stroke="midnightblue" points="566.033,-291.787 556.97,-286.3 560.633,-296.241 566.033,-291.787"/>
</g>
<!-- Node14 -->
<g id="node27" class="node"><title>Node14</title>
<a xlink:href="class_kitware_1_1_v_t_k_1_1vtk_int_array.html" target="_top" xlink:title="vtkIntArray &#45; dynamic, self&#45;adjusting array of int">
<polygon fill="none" stroke="black" points="693.5,-342 693.5,-362 820.5,-362 820.5,-342 693.5,-342"/>
<text text-anchor="middle" x="757" y="-349" font-family="FreeSans" font-size="10.00">Kitware.VTK.vtkIntArray</text>
</a>
</g>
<!-- Node1&#45;&gt;Node14 -->
<g id="edge26" class="edge"><title>Node1&#45;&gt;Node14</title>
<path fill="none" stroke="midnightblue" d="M572.644,-291.66C593.291,-304.63 624.493,-322.566 654,-333 666.429,-337.395 680.079,-340.824 693.262,-343.483"/>
<polygon fill="midnightblue" stroke="midnightblue" points="574.254,-288.535 563.944,-286.095 570.482,-294.432 574.254,-288.535"/>
</g>
<!-- Node16 -->
<g id="node31" class="node"><title>Node16</title>
<a xlink:href="class_kitware_1_1_v_t_k_1_1vtk_long_array.html" target="_top" xlink:title="vtkLongArray &#45; dynamic, self&#45;adjusting array of long">
<polygon fill="none" stroke="black" points="688,-304 688,-324 826,-324 826,-304 688,-304"/>
<text text-anchor="middle" x="757" y="-311" font-family="FreeSans" font-size="10.00">Kitware.VTK.vtkLongArray</text>
</a>
</g>
<!-- Node1&#45;&gt;Node16 -->
<g id="edge30" class="edge"><title>Node1&#45;&gt;Node16</title>
<path fill="none" stroke="midnightblue" d="M614.114,-287.896C642.381,-293.06 675.126,-299.042 702.132,-303.976"/>
<polygon fill="midnightblue" stroke="midnightblue" points="614.388,-284.388 603.922,-286.034 613.13,-291.274 614.388,-284.388"/>
</g>
<!-- Node17 -->
<g id="node33" class="node"><title>Node17</title>
<a xlink:href="class_kitware_1_1_v_t_k_1_1vtk_long_long_array.html" target="_top" xlink:title="vtkLongLongArray &#45; dynamic, self&#45;adjusting array of long long">
<polygon fill="none" stroke="black" points="676.5,-266 676.5,-286 837.5,-286 837.5,-266 676.5,-266"/>
<text text-anchor="middle" x="757" y="-273" font-family="FreeSans" font-size="10.00">Kitware.VTK.vtkLongLongArray</text>
</a>
</g>
<!-- Node1&#45;&gt;Node17 -->
<g id="edge32" class="edge"><title>Node1&#45;&gt;Node17</title>
<path fill="none" stroke="midnightblue" d="M628.408,-276C644.046,-276 660.471,-276 676.156,-276"/>
<polygon fill="midnightblue" stroke="midnightblue" points="628.261,-272.5 618.261,-276 628.261,-279.5 628.261,-272.5"/>
</g>
<!-- Node19 -->
<g id="node37" class="node"><title>Node19</title>
<a xlink:href="class_kitware_1_1_v_t_k_1_1vtk_short_array.html" target="_top" xlink:title="vtkShortArray &#45; dynamic, self&#45;adjusting array of short">
<polygon fill="none" stroke="black" points="686.5,-228 686.5,-248 827.5,-248 827.5,-228 686.5,-228"/>
<text text-anchor="middle" x="757" y="-235" font-family="FreeSans" font-size="10.00">Kitware.VTK.vtkShortArray</text>
</a>
</g>
<!-- Node1&#45;&gt;Node19 -->
<g id="edge36" class="edge"><title>Node1&#45;&gt;Node19</title>
<path fill="none" stroke="midnightblue" d="M614.114,-264.104C642.381,-258.94 675.126,-252.958 702.132,-248.024"/>
<polygon fill="midnightblue" stroke="midnightblue" points="613.13,-260.726 603.922,-265.966 614.388,-267.612 613.13,-260.726"/>
</g>
<!-- Node21 -->
<g id="node41" class="node"><title>Node21</title>
<a xlink:href="class_kitware_1_1_v_t_k_1_1vtk_signed_char_array.html" target="_top" xlink:title="vtkSignedCharArray &#45; dynamic, self&#45;adjusting array of signed char">
<polygon fill="none" stroke="black" points="672,-190 672,-210 842,-210 842,-190 672,-190"/>
<text text-anchor="middle" x="757" y="-197" font-family="FreeSans" font-size="10.00">Kitware.VTK.vtkSignedCharArray</text>
</a>
</g>
<!-- Node1&#45;&gt;Node21 -->
<g id="edge40" class="edge"><title>Node1&#45;&gt;Node21</title>
<path fill="none" stroke="midnightblue" d="M572.644,-260.34C593.291,-247.37 624.493,-229.434 654,-219 664.2,-215.393 675.223,-212.437 686.135,-210.023"/>
<polygon fill="midnightblue" stroke="midnightblue" points="570.482,-257.568 563.944,-265.905 574.254,-263.465 570.482,-257.568"/>
</g>
<!-- Node22 -->
<g id="node43" class="node"><title>Node22</title>
<a xlink:href="class_kitware_1_1_v_t_k_1_1vtk_unsigned_char_array.html" target="_top" xlink:title="vtkUnsignedCharArray &#45; dynamic, self&#45;adjusting array of unsigned char">
<polygon fill="none" stroke="black" points="666,-152 666,-172 848,-172 848,-152 666,-152"/>
<text text-anchor="middle" x="757" y="-159" font-family="FreeSans" font-size="10.00">Kitware.VTK.vtkUnsignedCharArray</text>
</a>
</g>
<!-- Node1&#45;&gt;Node22 -->
<g id="edge42" class="edge"><title>Node1&#45;&gt;Node22</title>
<path fill="none" stroke="midnightblue" d="M563.489,-257.796C582.018,-235.866 616.254,-199.651 654,-181 661.336,-177.375 669.275,-174.438 677.38,-172.058"/>
<polygon fill="midnightblue" stroke="midnightblue" points="560.633,-255.759 556.97,-265.7 566.033,-260.213 560.633,-255.759"/>
</g>
<!-- Node24 -->
<g id="node47" class="node"><title>Node24</title>
<a xlink:href="class_kitware_1_1_v_t_k_1_1vtk_unsigned_int_array.html" target="_top" xlink:title="vtkUnsignedIntArray &#45; dynamic, self&#45;adjusting array of unsigned int">
<polygon fill="none" stroke="black" points="671,-114 671,-134 843,-134 843,-114 671,-114"/>
<text text-anchor="middle" x="757" y="-121" font-family="FreeSans" font-size="10.00">Kitware.VTK.vtkUnsignedIntArray</text>
</a>
</g>
<!-- Node1&#45;&gt;Node24 -->
<g id="edge46" class="edge"><title>Node1&#45;&gt;Node24</title>
<path fill="none" stroke="midnightblue" d="M558.401,-256.687C573.909,-227.046 607.797,-170.85 654,-143 659.996,-139.386 666.518,-136.429 673.272,-134.014"/>
<polygon fill="midnightblue" stroke="midnightblue" points="555.092,-255.473 553.692,-265.975 561.336,-258.638 555.092,-255.473"/>
</g>
<!-- Node26 -->
<g id="node51" class="node"><title>Node26</title>
<a xlink:href="class_kitware_1_1_v_t_k_1_1vtk_unsigned_long_array.html" target="_top" xlink:title="vtkUnsignedLongArray &#45; dynamic, self&#45;adjusting array of unsigned long">
<polygon fill="none" stroke="black" points="665.5,-76 665.5,-96 848.5,-96 848.5,-76 665.5,-76"/>
<text text-anchor="middle" x="757" y="-83" font-family="FreeSans" font-size="10.00">Kitware.VTK.vtkUnsignedLongArray</text>
</a>
</g>
<!-- Node1&#45;&gt;Node26 -->
<g id="edge50" class="edge"><title>Node1&#45;&gt;Node26</title>
<path fill="none" stroke="midnightblue" d="M555.215,-255.931C567.616,-219.478 599.067,-142.684 654,-105 659.173,-101.451 664.823,-98.5139 670.726,-96.0876"/>
<polygon fill="midnightblue" stroke="midnightblue" points="551.75,-255.268 551.974,-265.861 558.404,-257.441 551.75,-255.268"/>
</g>
<!-- Node27 -->
<g id="node53" class="node"><title>Node27</title>
<a xlink:href="class_kitware_1_1_v_t_k_1_1vtk_unsigned_long_long_array.html" target="_top" xlink:title="vtkUnsignedLongLongArray &#45; dynamic, self&#45;adjusting array of unsigned long long">
<polygon fill="none" stroke="black" points="654,-38 654,-58 860,-58 860,-38 654,-38"/>
<text text-anchor="middle" x="757" y="-45" font-family="FreeSans" font-size="10.00">Kitware.VTK.vtkUnsignedLongLongArray</text>
</a>
</g>
<!-- Node1&#45;&gt;Node27 -->
<g id="edge52" class="edge"><title>Node1&#45;&gt;Node27</title>
<path fill="none" stroke="midnightblue" d="M552.914,-255.7C562.228,-213.26 589.902,-115.106 654,-67 658.727,-63.4527 663.913,-60.4998 669.367,-58.0476"/>
<polygon fill="midnightblue" stroke="midnightblue" points="549.451,-255.164 550.844,-265.667 556.304,-256.588 549.451,-255.164"/>
</g>
<!-- Node29 -->
<g id="node57" class="node"><title>Node29</title>
<a xlink:href="class_kitware_1_1_v_t_k_1_1vtk_unsigned_short_array.html" target="_top" xlink:title="vtkUnsignedShortArray &#45; dynamic, self&#45;adjusting array of unsigned short">
<polygon fill="none" stroke="black" points="664,-0 664,-20 850,-20 850,-0 664,-0"/>
<text text-anchor="middle" x="757" y="-7" font-family="FreeSans" font-size="10.00">Kitware.VTK.vtkUnsignedShortArray</text>
</a>
</g>
<!-- Node1&#45;&gt;Node29 -->
<g id="edge56" class="edge"><title>Node1&#45;&gt;Node29</title>
<path fill="none" stroke="midnightblue" d="M551.214,-255.724C557.576,-207.956 580.451,-87.9461 654,-29 658.399,-25.4747 663.242,-22.5246 668.359,-20.0621"/>
<polygon fill="midnightblue" stroke="midnightblue" points="547.728,-255.4 549.985,-265.751 554.676,-256.252 547.728,-255.4"/>
</g>
<!-- Node2 -->
<g id="node2" class="node"><title>Node2</title>
<a xlink:href="class_kitware_1_1_v_t_k_1_1vtk_abstract_array.html" target="_top" xlink:title="vtkAbstractArray &#45; Abstract superclass for all arrays">
<polygon fill="none" stroke="black" points="346.5,-266 346.5,-286 443.5,-286 443.5,-266 346.5,-266"/>
<text text-anchor="middle" x="395" y="-273" font-family="FreeSans" font-size="10.00">vtkAbstractArray</text>
</a>
</g>
<!-- Node2&#45;&gt;Node1 -->
<g id="edge2" class="edge"><title>Node2&#45;&gt;Node1</title>
<path fill="none" stroke="midnightblue" d="M453.874,-276C462.344,-276 471.123,-276 479.771,-276"/>
<polygon fill="midnightblue" stroke="midnightblue" points="453.727,-272.5 443.727,-276 453.727,-279.5 453.727,-272.5"/>
</g>
<!-- Node3 -->
<g id="node4" class="node"><title>Node3</title>
<a xlink:href="class_kitware_1_1_v_t_k_1_1vtk_object.html" target="_top" xlink:title="vtkObject &#45; abstract base class for most VTK objects">
<polygon fill="none" stroke="black" points="248,-266 248,-286 310,-286 310,-266 248,-266"/>
<text text-anchor="middle" x="279" y="-273" font-family="FreeSans" font-size="10.00">vtkObject</text>
</a>
</g>
<!-- Node3&#45;&gt;Node2 -->
<g id="edge4" class="edge"><title>Node3&#45;&gt;Node2</title>
<path fill="none" stroke="midnightblue" d="M320.118,-276C328.603,-276 337.616,-276 346.339,-276"/>
<polygon fill="midnightblue" stroke="midnightblue" points="320.086,-272.5 310.086,-276 320.086,-279.5 320.086,-272.5"/>
</g>
<!-- Node4 -->
<g id="node6" class="node"><title>Node4</title>
<a xlink:href="class_kitware_1_1_v_t_k_1_1vtk_object_base.html" target="_top" xlink:title="vtkObjectBase &#45; abstract base class for most VTK objects">
<polygon fill="none" stroke="black" points="126,-266 126,-286 212,-286 212,-266 126,-266"/>
<text text-anchor="middle" x="169" y="-273" font-family="FreeSans" font-size="10.00">vtkObjectBase</text>
</a>
</g>
<!-- Node4&#45;&gt;Node3 -->
<g id="edge6" class="edge"><title>Node4&#45;&gt;Node3</title>
<path fill="none" stroke="midnightblue" d="M222.346,-276C231.091,-276 239.892,-276 247.863,-276"/>
<polygon fill="midnightblue" stroke="midnightblue" points="222.159,-272.5 212.159,-276 222.159,-279.5 222.159,-272.5"/>
</g>
<!-- Node5 -->
<g id="node8" class="node"><title>Node5</title>
<a xlink:href="class_kitware_1_1_v_t_k_1_1_wrapped_object.html" target="_top" xlink:title="Base class for all the mummy wrapped classes in Kitware.VTK.">
<polygon fill="none" stroke="black" points="0.5,-266 0.5,-286 89.5,-286 89.5,-266 0.5,-266"/>
<text text-anchor="middle" x="45" y="-273" font-family="FreeSans" font-size="10.00">WrappedObject</text>
</a>
</g>
<!-- Node5&#45;&gt;Node4 -->
<g id="edge8" class="edge"><title>Node5&#45;&gt;Node4</title>
<path fill="none" stroke="midnightblue" d="M99.8895,-276C108.623,-276 117.548,-276 125.957,-276"/>
<polygon fill="midnightblue" stroke="midnightblue" points="99.7669,-272.5 89.7668,-276 99.7668,-279.5 99.7669,-272.5"/>
</g>
<!-- Node8 -->
<g id="node15" class="node"><title>Node8</title>
<a xlink:href="class_kitware_1_1_v_t_k_1_1vtk_type_int8_array.html" target="_top" xlink:title="vtkTypeInt8Array &#45; dynamic, self&#45;adjusting array of vtkTypeInt8">
<polygon fill="none" stroke="black" points="905,-494 905,-514 1059,-514 1059,-494 905,-494"/>
<text text-anchor="middle" x="982" y="-501" font-family="FreeSans" font-size="10.00">Kitware.VTK.vtkTypeInt8Array</text>
</a>
</g>
<!-- Node7&#45;&gt;Node8 -->
<g id="edge14" class="edge"><title>Node7&#45;&gt;Node8</title>
<path fill="none" stroke="midnightblue" d="M835.834,-504C858.153,-504 882.42,-504 904.651,-504"/>
<polygon fill="midnightblue" stroke="midnightblue" points="835.73,-500.5 825.73,-504 835.73,-507.5 835.73,-500.5"/>
</g>
<!-- Node10 -->
<g id="node19" class="node"><title>Node10</title>
<a xlink:href="class_kitware_1_1_v_t_k_1_1vtk_type_float64_array.html" target="_top" xlink:title="vtkTypeFloat64Array &#45; dynamic, self&#45;adjusting array of vtkTypeFloat64">
<polygon fill="none" stroke="black" points="896.5,-456 896.5,-476 1067.5,-476 1067.5,-456 896.5,-456"/>
<text text-anchor="middle" x="982" y="-463" font-family="FreeSans" font-size="10.00">Kitware.VTK.vtkTypeFloat64Array</text>
</a>
</g>
<!-- Node9&#45;&gt;Node10 -->
<g id="edge18" class="edge"><title>Node9&#45;&gt;Node10</title>
<path fill="none" stroke="midnightblue" d="M841.951,-466C859.733,-466 878.493,-466 896.302,-466"/>
<polygon fill="midnightblue" stroke="midnightblue" points="841.609,-462.5 831.609,-466 841.609,-469.5 841.609,-462.5"/>
</g>
<!-- Node12 -->
<g id="node23" class="node"><title>Node12</title>
<a xlink:href="class_kitware_1_1_v_t_k_1_1vtk_type_float32_array.html" target="_top" xlink:title="vtkTypeFloat32Array &#45; dynamic, self&#45;adjusting array of vtkTypeFloat32">
<polygon fill="none" stroke="black" points="896.5,-418 896.5,-438 1067.5,-438 1067.5,-418 896.5,-418"/>
<text text-anchor="middle" x="982" y="-425" font-family="FreeSans" font-size="10.00">Kitware.VTK.vtkTypeFloat32Array</text>
</a>
</g>
<!-- Node11&#45;&gt;Node12 -->
<g id="edge22" class="edge"><title>Node11&#45;&gt;Node12</title>
<path fill="none" stroke="midnightblue" d="M836.093,-428C855.609,-428 876.6,-428 896.408,-428"/>
<polygon fill="midnightblue" stroke="midnightblue" points="836.037,-424.5 826.037,-428 836.036,-431.5 836.037,-424.5"/>
</g>
<!-- Node15 -->
<g id="node29" class="node"><title>Node15</title>
<a xlink:href="class_kitware_1_1_v_t_k_1_1vtk_type_int32_array.html" target="_top" xlink:title="vtkTypeInt32Array &#45; dynamic, self&#45;adjusting array of vtkTypeInt32">
<polygon fill="none" stroke="black" points="902,-342 902,-362 1062,-362 1062,-342 902,-342"/>
<text text-anchor="middle" x="982" y="-349" font-family="FreeSans" font-size="10.00">Kitware.VTK.vtkTypeInt32Array</text>
</a>
</g>
<!-- Node14&#45;&gt;Node15 -->
<g id="edge28" class="edge"><title>Node14&#45;&gt;Node15</title>
<path fill="none" stroke="midnightblue" d="M830.818,-352C853.516,-352 878.605,-352 901.714,-352"/>
<polygon fill="midnightblue" stroke="midnightblue" points="830.574,-348.5 820.574,-352 830.574,-355.5 830.574,-348.5"/>
</g>
<!-- Node18 -->
<g id="node35" class="node"><title>Node18</title>
<a xlink:href="class_kitware_1_1_v_t_k_1_1vtk_type_int64_array.html" target="_top" xlink:title="vtkTypeInt64Array &#45; dynamic, self&#45;adjusting array of vtkTypeInt64">
<polygon fill="none" stroke="black" points="902,-266 902,-286 1062,-286 1062,-266 902,-266"/>
<text text-anchor="middle" x="982" y="-273" font-family="FreeSans" font-size="10.00">Kitware.VTK.vtkTypeInt64Array</text>
</a>
</g>
<!-- Node17&#45;&gt;Node18 -->
<g id="edge34" class="edge"><title>Node17&#45;&gt;Node18</title>
<path fill="none" stroke="midnightblue" d="M847.762,-276C865.704,-276 884.413,-276 901.968,-276"/>
<polygon fill="midnightblue" stroke="midnightblue" points="847.595,-272.5 837.595,-276 847.595,-279.5 847.595,-272.5"/>
</g>
<!-- Node20 -->
<g id="node39" class="node"><title>Node20</title>
<a xlink:href="class_kitware_1_1_v_t_k_1_1vtk_type_int16_array.html" target="_top" xlink:title="vtkTypeInt16Array &#45; dynamic, self&#45;adjusting array of vtkTypeInt16">
<polygon fill="none" stroke="black" points="902,-228 902,-248 1062,-248 1062,-228 902,-228"/>
<text text-anchor="middle" x="982" y="-235" font-family="FreeSans" font-size="10.00">Kitware.VTK.vtkTypeInt16Array</text>
</a>
</g>
<!-- Node19&#45;&gt;Node20 -->
<g id="edge38" class="edge"><title>Node19&#45;&gt;Node20</title>
<path fill="none" stroke="midnightblue" d="M837.68,-238C858.555,-238 881.023,-238 901.87,-238"/>
<polygon fill="midnightblue" stroke="midnightblue" points="837.574,-234.5 827.574,-238 837.574,-241.5 837.574,-234.5"/>
</g>
<!-- Node23 -->
<g id="node45" class="node"><title>Node23</title>
<a xlink:href="class_kitware_1_1_v_t_k_1_1vtk_type_u_int8_array.html" target="_top" xlink:title="vtkTypeUInt8Array &#45; dynamic, self&#45;adjusting array of vtkTypeUInt8">
<polygon fill="none" stroke="black" points="901.5,-152 901.5,-172 1062.5,-172 1062.5,-152 901.5,-152"/>
<text text-anchor="middle" x="982" y="-159" font-family="FreeSans" font-size="10.00">Kitware.VTK.vtkTypeUInt8Array</text>
</a>
</g>
<!-- Node22&#45;&gt;Node23 -->
<g id="edge44" class="edge"><title>Node22&#45;&gt;Node23</title>
<path fill="none" stroke="midnightblue" d="M858.539,-162C872.825,-162 887.348,-162 901.177,-162"/>
<polygon fill="midnightblue" stroke="midnightblue" points="858.192,-158.5 848.192,-162 858.192,-165.5 858.192,-158.5"/>
</g>
<!-- Node25 -->
<g id="node49" class="node"><title>Node25</title>
<a xlink:href="class_kitware_1_1_v_t_k_1_1vtk_type_u_int32_array.html" target="_top" xlink:title="vtkTypeUInt32Array &#45; dynamic, self&#45;adjusting array of vtkTypeUInt32">
<polygon fill="none" stroke="black" points="898.5,-114 898.5,-134 1065.5,-134 1065.5,-114 898.5,-114"/>
<text text-anchor="middle" x="982" y="-121" font-family="FreeSans" font-size="10.00">Kitware.VTK.vtkTypeUInt32Array</text>
</a>
</g>
<!-- Node24&#45;&gt;Node25 -->
<g id="edge48" class="edge"><title>Node24&#45;&gt;Node25</title>
<path fill="none" stroke="midnightblue" d="M853.303,-124C868.258,-124 883.602,-124 898.25,-124"/>
<polygon fill="midnightblue" stroke="midnightblue" points="853.026,-120.5 843.026,-124 853.026,-127.5 853.026,-120.5"/>
</g>
<!-- Node28 -->
<g id="node55" class="node"><title>Node28</title>
<a xlink:href="class_kitware_1_1_v_t_k_1_1vtk_type_u_int64_array.html" target="_top" xlink:title="vtkTypeUInt64Array &#45; dynamic, self&#45;adjusting array of vtkTypeUInt64">
<polygon fill="none" stroke="black" points="898.5,-38 898.5,-58 1065.5,-58 1065.5,-38 898.5,-38"/>
<text text-anchor="middle" x="982" y="-45" font-family="FreeSans" font-size="10.00">Kitware.VTK.vtkTypeUInt64Array</text>
</a>
</g>
<!-- Node27&#45;&gt;Node28 -->
<g id="edge54" class="edge"><title>Node27&#45;&gt;Node28</title>
<path fill="none" stroke="midnightblue" d="M870.428,-48C879.788,-48 889.14,-48 898.223,-48"/>
<polygon fill="midnightblue" stroke="midnightblue" points="870.281,-44.5001 860.281,-48 870.281,-51.5001 870.281,-44.5001"/>
</g>
<!-- Node30 -->
<g id="node59" class="node"><title>Node30</title>
<a xlink:href="class_kitware_1_1_v_t_k_1_1vtk_type_u_int16_array.html" target="_top" xlink:title="vtkTypeUInt16Array &#45; dynamic, self&#45;adjusting array of vtkTypeUInt16">
<polygon fill="none" stroke="black" points="898.5,-0 898.5,-20 1065.5,-20 1065.5,-0 898.5,-0"/>
<text text-anchor="middle" x="982" y="-7" font-family="FreeSans" font-size="10.00">Kitware.VTK.vtkTypeUInt16Array</text>
</a>
</g>
<!-- Node29&#45;&gt;Node30 -->
<g id="edge58" class="edge"><title>Node29&#45;&gt;Node30</title>
<path fill="none" stroke="midnightblue" d="M860.298,-10C873.021,-10 885.903,-10 898.286,-10"/>
<polygon fill="midnightblue" stroke="midnightblue" points="860.14,-6.5001 850.14,-10 860.14,-13.5001 860.14,-6.5001"/>
</g>
</g>
</svg>
