<?xml version="1.0" encoding="UTF-8" standalone="no"?>
<!DOCTYPE svg PUBLIC "-//W3C//DTD SVG 1.1//EN"
 "http://www.w3.org/Graphics/SVG/1.1/DTD/svg11.dtd">
<!-- Generated by graphviz version 2.26.3 (20100126.1600)
 -->
<!-- Title: G Pages: 1 -->
<svg width="438pt" height="770pt"
 viewBox="0.00 0.00 438.46 770.00" xmlns="http://www.w3.org/2000/svg" xmlns:xlink="http://www.w3.org/1999/xlink">
<g id="graph1" class="graph" transform="scale(1 1) rotate(0) translate(4 766)">
<title>G</title>
<!-- Node1 -->
<g id="node1" class="node"><title>Node1</title>
<polygon fill="#bfbfbf" stroke="black" points="0,-1 0,-21 204,-21 204,-1 0,-1"/>
<text text-anchor="middle" x="102" y="-8" font-family="FreeSans" font-size="10.00">Kitware.VTK.vtkXMLRectilinearGridWriter</text>
</g>
<!-- Node2 -->
<g id="node2" class="node"><title>Node2</title>
<a xlink:href="class_kitware_1_1_v_t_k_1_1vtk_x_m_l_structured_data_writer.html" target="_top" xlink:title="vtkXMLStructuredDataWriter &#45; Superclass for VTK XML structured data writers.">
<polygon fill="none" stroke="black" points="26,-61 26,-81 178,-81 178,-61 26,-61"/>
<text text-anchor="middle" x="102" y="-68" font-family="FreeSans" font-size="10.00">vtkXMLStructuredDataWriter</text>
</a>
</g>
<!-- Node2&#45;&gt;Node1 -->
<g id="edge2" class="edge"><title>Node2&#45;&gt;Node1</title>
<path fill="none" stroke="midnightblue" d="M102,-50.5155C102,-40.562 102,-29.0495 102,-21.0279"/>
<polygon fill="midnightblue" stroke="midnightblue" points="98.5001,-50.8218 102,-60.8218 105.5,-50.8219 98.5001,-50.8218"/>
</g>
<!-- Node3 -->
<g id="node4" class="node"><title>Node3</title>
<a xlink:href="class_kitware_1_1_v_t_k_1_1vtk_x_m_l_writer.html" target="_top" xlink:title="vtkXMLWriter &#45; Superclass for VTK&#39;s XML file writers.">
<polygon fill="none" stroke="black" points="63.5,-121 63.5,-141 140.5,-141 140.5,-121 63.5,-121"/>
<text text-anchor="middle" x="102" y="-128" font-family="FreeSans" font-size="10.00">vtkXMLWriter</text>
</a>
</g>
<!-- Node3&#45;&gt;Node2 -->
<g id="edge4" class="edge"><title>Node3&#45;&gt;Node2</title>
<path fill="none" stroke="midnightblue" d="M102,-110.516C102,-100.562 102,-89.0495 102,-81.0279"/>
<polygon fill="midnightblue" stroke="midnightblue" points="98.5001,-110.822 102,-120.822 105.5,-110.822 98.5001,-110.822"/>
</g>
<!-- Node4 -->
<g id="node6" class="node"><title>Node4</title>
<a xlink:href="class_kitware_1_1_v_t_k_1_1vtk_algorithm.html" target="_top" xlink:title="vtkAlgorithm &#45; Superclass for all sources, filters, and sinks in VTK.">
<polygon fill="none" stroke="black" points="63.5,-181 63.5,-201 140.5,-201 140.5,-181 63.5,-181"/>
<text text-anchor="middle" x="102" y="-188" font-family="FreeSans" font-size="10.00">vtkAlgorithm</text>
</a>
</g>
<!-- Node4&#45;&gt;Node3 -->
<g id="edge6" class="edge"><title>Node4&#45;&gt;Node3</title>
<path fill="none" stroke="midnightblue" d="M102,-170.516C102,-160.562 102,-149.05 102,-141.028"/>
<polygon fill="midnightblue" stroke="midnightblue" points="98.5001,-170.822 102,-180.822 105.5,-170.822 98.5001,-170.822"/>
</g>
<!-- Node5 -->
<g id="node8" class="node"><title>Node5</title>
<a xlink:href="class_kitware_1_1_v_t_k_1_1vtk_object.html" target="_top" xlink:title="vtkObject &#45; abstract base class for most VTK objects">
<polygon fill="none" stroke="black" points="71,-241 71,-261 133,-261 133,-241 71,-241"/>
<text text-anchor="middle" x="102" y="-248" font-family="FreeSans" font-size="10.00">vtkObject</text>
</a>
</g>
<!-- Node5&#45;&gt;Node4 -->
<g id="edge8" class="edge"><title>Node5&#45;&gt;Node4</title>
<path fill="none" stroke="midnightblue" d="M102,-230.516C102,-220.562 102,-209.05 102,-201.028"/>
<polygon fill="midnightblue" stroke="midnightblue" points="98.5001,-230.822 102,-240.822 105.5,-230.822 98.5001,-230.822"/>
</g>
<!-- Node6 -->
<g id="node10" class="node"><title>Node6</title>
<a xlink:href="class_kitware_1_1_v_t_k_1_1vtk_object_base.html" target="_top" xlink:title="vtkObjectBase &#45; abstract base class for most VTK objects">
<polygon fill="none" stroke="black" points="122,-681 122,-701 208,-701 208,-681 122,-681"/>
<text text-anchor="middle" x="165" y="-688" font-family="FreeSans" font-size="10.00">vtkObjectBase</text>
</a>
</g>
<!-- Node6&#45;&gt;Node5 -->
<g id="edge10" class="edge"><title>Node6&#45;&gt;Node5</title>
<path fill="none" stroke="midnightblue" d="M136.423,-675.886C122.687,-667.44 106.884,-655.826 96,-642 84.1564,-626.955 83.6209,-620.802 80,-602 54.4248,-469.199 89.5766,-303.437 99.5155,-261.17"/>
<polygon fill="midnightblue" stroke="midnightblue" points="134.683,-678.923 145.079,-680.97 138.229,-672.887 134.683,-678.923"/>
</g>
<!-- Node9 -->
<g id="node17" class="node"><title>Node9</title>
<a xlink:href="class_kitware_1_1_v_t_k_1_1vtk_object.html" target="_top" xlink:title="vtkObject &#45; abstract base class for most VTK objects">
<polygon fill="none" stroke="black" points="105,-621 105,-641 225,-641 225,-621 105,-621"/>
<text text-anchor="middle" x="165" y="-628" font-family="FreeSans" font-size="10.00">Kitware.VTK.vtkObject</text>
</a>
</g>
<!-- Node6&#45;&gt;Node9 -->
<g id="edge20" class="edge"><title>Node6&#45;&gt;Node9</title>
<path fill="none" stroke="midnightblue" d="M165,-670.516C165,-660.562 165,-649.05 165,-641.028"/>
<polygon fill="midnightblue" stroke="midnightblue" points="161.5,-670.822 165,-680.822 168.5,-670.822 161.5,-670.822"/>
</g>
<!-- Node7 -->
<g id="node12" class="node"><title>Node7</title>
<a xlink:href="class_kitware_1_1_v_t_k_1_1_wrapped_object.html" target="_top" xlink:title="Base class for all the mummy wrapped classes in Kitware.VTK.">
<polygon fill="none" stroke="black" points="303.5,-741 303.5,-761 392.5,-761 392.5,-741 303.5,-741"/>
<text text-anchor="middle" x="348" y="-748" font-family="FreeSans" font-size="10.00">WrappedObject</text>
</a>
</g>
<!-- Node7&#45;&gt;Node6 -->
<g id="edge12" class="edge"><title>Node7&#45;&gt;Node6</title>
<path fill="none" stroke="midnightblue" d="M307.804,-737.821C274.042,-726.752 226.512,-711.168 195.73,-701.075"/>
<polygon fill="midnightblue" stroke="midnightblue" points="306.777,-741.168 317.37,-740.957 308.958,-734.516 306.777,-741.168"/>
</g>
<!-- Node8 -->
<g id="node14" class="node"><title>Node8</title>
<a xlink:href="class_kitware_1_1_v_t_k_1_1vtk_object_event_relay.html" target="_top" xlink:title="Implement a relay handler for VTK events. This is a class that receives events directly from the VTK ...">
<polygon fill="none" stroke="black" points="94,-431 94,-451 266,-451 266,-431 94,-431"/>
<text text-anchor="middle" x="180" y="-438" font-family="FreeSans" font-size="10.00">Kitware.VTK.vtkObjectEventRelay</text>
</a>
</g>
<!-- Node7&#45;&gt;Node8 -->
<g id="edge16" class="edge"><title>Node7&#45;&gt;Node8</title>
<path fill="none" stroke="midnightblue" d="M360.888,-732.325C393.276,-682.899 470.803,-547.191 403,-470 393.773,-459.495 325.047,-451.666 266.298,-446.808"/>
<polygon fill="midnightblue" stroke="midnightblue" points="357.891,-730.509 355.239,-740.767 363.709,-734.402 357.891,-730.509"/>
</g>
<!-- Node8&#45;&gt;Node5 -->
<g id="edge14" class="edge"><title>Node8&#45;&gt;Node5</title>
<path fill="none" stroke="#9a32cd" stroke-dasharray="5,2" d="M171.921,-421.321C155.489,-381.293 118.674,-291.616 106.214,-261.266"/>
<polygon fill="#9a32cd" stroke="#9a32cd" points="168.771,-422.863 175.806,-430.785 175.246,-420.205 168.771,-422.863"/>
<text text-anchor="middle" x="279.5" y="-403" font-family="FreeSans" font-size="10.00"> LeftButtonReleaseEvtRelay</text>
<text text-anchor="middle" x="279.5" y="-391" font-family="FreeSans" font-size="10.00">KeyPressEvtRelay</text>
<text text-anchor="middle" x="279.5" y="-379" font-family="FreeSans" font-size="10.00">DomainModifiedEvtRelay</text>
<text text-anchor="middle" x="279.5" y="-367" font-family="FreeSans" font-size="10.00">VolumeMapperComputeGradientsStartEvtRelay</text>
<text text-anchor="middle" x="279.5" y="-355" font-family="FreeSans" font-size="10.00">ErrorEvtRelay</text>
<text text-anchor="middle" x="279.5" y="-343" font-family="FreeSans" font-size="10.00">VolumeMapperRenderStartEvtRelay</text>
<text text-anchor="middle" x="279.5" y="-331" font-family="FreeSans" font-size="10.00">StartEvtRelay</text>
<text text-anchor="middle" x="279.5" y="-319" font-family="FreeSans" font-size="10.00">ResetCameraEvtRelay</text>
<text text-anchor="middle" x="279.5" y="-307" font-family="FreeSans" font-size="10.00">EnableEvtRelay</text>
<text text-anchor="middle" x="279.5" y="-295" font-family="FreeSans" font-size="10.00">DeleteEvtRelay</text>
<text text-anchor="middle" x="279.5" y="-283" font-family="FreeSans" font-size="10.00">...</text>
</g>
<!-- Node8&#45;&gt;Node9 -->
<g id="edge22" class="edge"><title>Node8&#45;&gt;Node9</title>
<path fill="none" stroke="#9a32cd" stroke-dasharray="5,2" d="M177.028,-461.231C176.649,-464.169 176.293,-467.159 176,-470 170.144,-526.853 166.636,-595.333 165.452,-620.807"/>
<polygon fill="#9a32cd" stroke="#9a32cd" points="180.515,-461.565 178.421,-451.179 173.582,-460.604 180.515,-461.565"/>
<text text-anchor="middle" x="289.5" y="-593" font-family="FreeSans" font-size="10.00"> LeftButtonReleaseEvtRelay</text>
<text text-anchor="middle" x="289.5" y="-581" font-family="FreeSans" font-size="10.00">KeyPressEvtRelay</text>
<text text-anchor="middle" x="289.5" y="-569" font-family="FreeSans" font-size="10.00">DomainModifiedEvtRelay</text>
<text text-anchor="middle" x="289.5" y="-557" font-family="FreeSans" font-size="10.00">VolumeMapperComputeGradientsStartEvtRelay</text>
<text text-anchor="middle" x="289.5" y="-545" font-family="FreeSans" font-size="10.00">ErrorEvtRelay</text>
<text text-anchor="middle" x="289.5" y="-533" font-family="FreeSans" font-size="10.00">VolumeMapperRenderStartEvtRelay</text>
<text text-anchor="middle" x="289.5" y="-521" font-family="FreeSans" font-size="10.00">StartEvtRelay</text>
<text text-anchor="middle" x="289.5" y="-509" font-family="FreeSans" font-size="10.00">ResetCameraEvtRelay</text>
<text text-anchor="middle" x="289.5" y="-497" font-family="FreeSans" font-size="10.00">EnableEvtRelay</text>
<text text-anchor="middle" x="289.5" y="-485" font-family="FreeSans" font-size="10.00">DeleteEvtRelay</text>
<text text-anchor="middle" x="289.5" y="-473" font-family="FreeSans" font-size="10.00">...</text>
</g>
<!-- Node9&#45;&gt;Node8 -->
<g id="edge18" class="edge"><title>Node9&#45;&gt;Node8</title>
<path fill="none" stroke="#9a32cd" stroke-dasharray="5,2" d="M118.979,-615.818C113.439,-612.138 108.51,-607.596 105,-602 73.8229,-552.303 71.8299,-518.389 105,-470 109.736,-463.091 126.511,-456.287 142.999,-451.008"/>
<polygon fill="#9a32cd" stroke="#9a32cd" points="117.639,-619.079 128.072,-620.919 121.064,-612.974 117.639,-619.079"/>
<text text-anchor="middle" x="129" y="-539" font-family="FreeSans" font-size="10.00"> Sender</text>
<text text-anchor="middle" x="129" y="-527" font-family="FreeSans" font-size="10.00">EventImpl</text>
</g>
</g>
</svg>
