<?xml version="1.0" encoding="UTF-8" standalone="no"?>
<!DOCTYPE svg PUBLIC "-//W3C//DTD SVG 1.1//EN"
 "http://www.w3.org/Graphics/SVG/1.1/DTD/svg11.dtd">
<!-- Generated by graphviz version 2.26.3 (20100126.1600)
 -->
<!-- Title: G Pages: 1 -->
<svg width="1976pt" height="256pt"
 viewBox="0.00 0.00 1976.00 256.00" xmlns="http://www.w3.org/2000/svg" xmlns:xlink="http://www.w3.org/1999/xlink">
<g id="graph1" class="graph" transform="scale(1 1) rotate(0) translate(4 252)">
<title>G</title>
<!-- Node1 -->
<g id="node1" class="node"><title>Node1</title>
<polygon fill="#bfbfbf" stroke="black" points="942.5,-114 942.5,-134 1103.5,-134 1103.5,-114 942.5,-114"/>
<text text-anchor="middle" x="1023" y="-121" font-family="FreeSans" font-size="10.00">Kitware.VTK.vtkVolumeMapper</text>
</g>
<!-- Node9 -->
<g id="node17" class="node"><title>Node9</title>
<a xlink:href="class_kitware_1_1_v_t_k_1_1vtk_fixed_point_volume_ray_cast_mapper.html" target="_top" xlink:title="vtkFixedPointVolumeRayCastMapper &#45; A fixed point mapper for volumes">
<polygon fill="none" stroke="black" points="1140,-228 1140,-248 1388,-248 1388,-228 1140,-228"/>
<text text-anchor="middle" x="1264" y="-235" font-family="FreeSans" font-size="10.00">Kitware.VTK.vtkFixedPointVolumeRayCastMapper</text>
</a>
</g>
<!-- Node1&#45;&gt;Node9 -->
<g id="edge16" class="edge"><title>Node1&#45;&gt;Node9</title>
<path fill="none" stroke="midnightblue" d="M1038.63,-141.445C1059.43,-163.44 1098.45,-200.594 1140,-219 1148.16,-222.617 1156.89,-225.562 1165.8,-227.959"/>
<polygon fill="midnightblue" stroke="midnightblue" points="1041.18,-139.05 1031.82,-134.091 1036.04,-143.806 1041.18,-139.05"/>
</g>
<!-- Node10 -->
<g id="node19" class="node"><title>Node10</title>
<a xlink:href="class_kitware_1_1_v_t_k_1_1vtk_g_p_u_volume_ray_cast_mapper.html" target="_top" xlink:title="vtkGPUVolumeRayCastMapper &#45; Ray casting performed on the GPU.">
<polygon fill="none" stroke="black" points="1153.5,-190 1153.5,-210 1374.5,-210 1374.5,-190 1153.5,-190"/>
<text text-anchor="middle" x="1264" y="-197" font-family="FreeSans" font-size="10.00">Kitware.VTK.vtkGPUVolumeRayCastMapper</text>
</a>
</g>
<!-- Node1&#45;&gt;Node10 -->
<g id="edge18" class="edge"><title>Node1&#45;&gt;Node10</title>
<path fill="none" stroke="midnightblue" d="M1048.59,-139.27C1071.69,-152.365 1107.02,-170.7 1140,-181 1151.64,-184.636 1164.12,-187.59 1176.52,-189.987"/>
<polygon fill="midnightblue" stroke="midnightblue" points="1050.18,-136.151 1039.77,-134.191 1046.69,-142.216 1050.18,-136.151"/>
</g>
<!-- Node12 -->
<g id="node23" class="node"><title>Node12</title>
<a xlink:href="class_kitware_1_1_v_t_k_1_1vtk_smart_volume_mapper.html" target="_top" xlink:title="vtkSmartVolumeMapper &#45; Adaptive volume mapper">
<polygon fill="none" stroke="black" points="1168.5,-152 1168.5,-172 1359.5,-172 1359.5,-152 1168.5,-152"/>
<text text-anchor="middle" x="1264" y="-159" font-family="FreeSans" font-size="10.00">Kitware.VTK.vtkSmartVolumeMapper</text>
</a>
</g>
<!-- Node1&#45;&gt;Node12 -->
<g id="edge22" class="edge"><title>Node1&#45;&gt;Node12</title>
<path fill="none" stroke="midnightblue" d="M1094.31,-135.685C1109.39,-138.127 1125.22,-140.667 1140,-143 1158.72,-145.954 1179.03,-149.094 1197.7,-151.953"/>
<polygon fill="midnightblue" stroke="midnightblue" points="1094.44,-132.16 1084.01,-134.014 1093.32,-139.07 1094.44,-132.16"/>
</g>
<!-- Node13 -->
<g id="node25" class="node"><title>Node13</title>
<a xlink:href="class_kitware_1_1_v_t_k_1_1vtk_volume_pro_mapper.html" target="_top" xlink:title="vtkVolumeProMapper &#45; Superclass for VolumePRO volume rendering mappers">
<polygon fill="none" stroke="black" points="1175.5,-114 1175.5,-134 1352.5,-134 1352.5,-114 1175.5,-114"/>
<text text-anchor="middle" x="1264" y="-121" font-family="FreeSans" font-size="10.00">Kitware.VTK.vtkVolumeProMapper</text>
</a>
</g>
<!-- Node1&#45;&gt;Node13 -->
<g id="edge24" class="edge"><title>Node1&#45;&gt;Node13</title>
<path fill="none" stroke="midnightblue" d="M1113.68,-124C1133.81,-124 1155.14,-124 1175.2,-124"/>
<polygon fill="midnightblue" stroke="midnightblue" points="1113.58,-120.5 1103.58,-124 1113.58,-127.5 1113.58,-120.5"/>
</g>
<!-- Node14 -->
<g id="node27" class="node"><title>Node14</title>
<a xlink:href="class_kitware_1_1_v_t_k_1_1vtk_volume_ray_cast_mapper.html" target="_top" xlink:title="vtkVolumeRayCastMapper &#45; A slow but accurate mapper for rendering volumes">
<polygon fill="none" stroke="black" points="1164,-76 1164,-96 1364,-96 1364,-76 1164,-76"/>
<text text-anchor="middle" x="1264" y="-83" font-family="FreeSans" font-size="10.00">Kitware.VTK.vtkVolumeRayCastMapper</text>
</a>
</g>
<!-- Node1&#45;&gt;Node14 -->
<g id="edge26" class="edge"><title>Node1&#45;&gt;Node14</title>
<path fill="none" stroke="midnightblue" d="M1094.31,-112.315C1109.39,-109.873 1125.22,-107.333 1140,-105 1158.72,-102.046 1179.03,-98.906 1197.7,-96.0469"/>
<polygon fill="midnightblue" stroke="midnightblue" points="1093.32,-108.93 1084.01,-113.986 1094.44,-115.84 1093.32,-108.93"/>
</g>
<!-- Node15 -->
<g id="node29" class="node"><title>Node15</title>
<a xlink:href="class_kitware_1_1_v_t_k_1_1vtk_volume_texture_mapper.html" target="_top" xlink:title="vtkVolumeTextureMapper &#45; Abstract class for a volume mapper">
<polygon fill="none" stroke="black" points="1166,-38 1166,-58 1362,-58 1362,-38 1166,-38"/>
<text text-anchor="middle" x="1264" y="-45" font-family="FreeSans" font-size="10.00">Kitware.VTK.vtkVolumeTextureMapper</text>
</a>
</g>
<!-- Node1&#45;&gt;Node15 -->
<g id="edge28" class="edge"><title>Node1&#45;&gt;Node15</title>
<path fill="none" stroke="midnightblue" d="M1048.59,-108.73C1071.69,-95.6354 1107.02,-77.3002 1140,-67 1151.64,-63.3644 1164.12,-60.4102 1176.52,-58.0133"/>
<polygon fill="midnightblue" stroke="midnightblue" points="1046.69,-105.784 1039.77,-113.809 1050.18,-111.849 1046.69,-105.784"/>
</g>
<!-- Node18 -->
<g id="node35" class="node"><title>Node18</title>
<a xlink:href="class_kitware_1_1_v_t_k_1_1vtk_volume_texture_mapper3_d.html" target="_top" xlink:title="vtkVolumeTextureMapper3D &#45; volume render with 3D texture mapping">
<polygon fill="none" stroke="black" points="1159.5,-0 1159.5,-20 1368.5,-20 1368.5,-0 1159.5,-0"/>
<text text-anchor="middle" x="1264" y="-7" font-family="FreeSans" font-size="10.00">Kitware.VTK.vtkVolumeTextureMapper3D</text>
</a>
</g>
<!-- Node1&#45;&gt;Node18 -->
<g id="edge34" class="edge"><title>Node1&#45;&gt;Node18</title>
<path fill="none" stroke="midnightblue" d="M1038.63,-106.555C1059.43,-84.5605 1098.45,-47.4055 1140,-29 1148.16,-25.3833 1156.89,-22.4377 1165.8,-20.041"/>
<polygon fill="midnightblue" stroke="midnightblue" points="1036.04,-104.194 1031.82,-113.909 1041.18,-108.95 1036.04,-104.194"/>
</g>
<!-- Node2 -->
<g id="node2" class="node"><title>Node2</title>
<a xlink:href="class_kitware_1_1_v_t_k_1_1vtk_abstract_volume_mapper.html" target="_top" xlink:title="vtkAbstractVolumeMapper &#45; Abstract class for a volume mapper">
<polygon fill="none" stroke="black" points="762.5,-114 762.5,-134 905.5,-134 905.5,-114 762.5,-114"/>
<text text-anchor="middle" x="834" y="-121" font-family="FreeSans" font-size="10.00">vtkAbstractVolumeMapper</text>
</a>
</g>
<!-- Node2&#45;&gt;Node1 -->
<g id="edge2" class="edge"><title>Node2&#45;&gt;Node1</title>
<path fill="none" stroke="midnightblue" d="M915.96,-124C924.755,-124 933.697,-124 942.475,-124"/>
<polygon fill="midnightblue" stroke="midnightblue" points="915.722,-120.5 905.722,-124 915.722,-127.5 915.722,-120.5"/>
</g>
<!-- Node3 -->
<g id="node4" class="node"><title>Node3</title>
<a xlink:href="class_kitware_1_1_v_t_k_1_1vtk_abstract_mapper3_d.html" target="_top" xlink:title="vtkAbstractMapper3D &#45; abstract class specifies interface to map 3D data">
<polygon fill="none" stroke="black" points="604.5,-114 604.5,-134 725.5,-134 725.5,-114 604.5,-114"/>
<text text-anchor="middle" x="665" y="-121" font-family="FreeSans" font-size="10.00">vtkAbstractMapper3D</text>
</a>
</g>
<!-- Node3&#45;&gt;Node2 -->
<g id="edge4" class="edge"><title>Node3&#45;&gt;Node2</title>
<path fill="none" stroke="midnightblue" d="M735.746,-124C744.544,-124 753.546,-124 762.357,-124"/>
<polygon fill="midnightblue" stroke="midnightblue" points="735.536,-120.5 725.536,-124 735.535,-127.5 735.536,-120.5"/>
</g>
<!-- Node4 -->
<g id="node6" class="node"><title>Node4</title>
<a xlink:href="class_kitware_1_1_v_t_k_1_1vtk_abstract_mapper.html" target="_top" xlink:title="vtkAbstractMapper &#45; abstract class specifies interface to map data">
<polygon fill="none" stroke="black" points="460.5,-114 460.5,-134 567.5,-134 567.5,-114 460.5,-114"/>
<text text-anchor="middle" x="514" y="-121" font-family="FreeSans" font-size="10.00">vtkAbstractMapper</text>
</a>
</g>
<!-- Node4&#45;&gt;Node3 -->
<g id="edge6" class="edge"><title>Node4&#45;&gt;Node3</title>
<path fill="none" stroke="midnightblue" d="M577.833,-124C586.606,-124 595.595,-124 604.31,-124"/>
<polygon fill="midnightblue" stroke="midnightblue" points="577.662,-120.5 567.662,-124 577.662,-127.5 577.662,-120.5"/>
</g>
<!-- Node5 -->
<g id="node8" class="node"><title>Node5</title>
<a xlink:href="class_kitware_1_1_v_t_k_1_1vtk_algorithm.html" target="_top" xlink:title="vtkAlgorithm &#45; Superclass for all sources, filters, and sinks in VTK.">
<polygon fill="none" stroke="black" points="346.5,-114 346.5,-134 423.5,-134 423.5,-114 346.5,-114"/>
<text text-anchor="middle" x="385" y="-121" font-family="FreeSans" font-size="10.00">vtkAlgorithm</text>
</a>
</g>
<!-- Node5&#45;&gt;Node4 -->
<g id="edge8" class="edge"><title>Node5&#45;&gt;Node4</title>
<path fill="none" stroke="midnightblue" d="M433.896,-124C442.445,-124 451.384,-124 460.06,-124"/>
<polygon fill="midnightblue" stroke="midnightblue" points="433.704,-120.5 423.704,-124 433.704,-127.5 433.704,-120.5"/>
</g>
<!-- Node6 -->
<g id="node10" class="node"><title>Node6</title>
<a xlink:href="class_kitware_1_1_v_t_k_1_1vtk_object.html" target="_top" xlink:title="vtkObject &#45; abstract base class for most VTK objects">
<polygon fill="none" stroke="black" points="248,-114 248,-134 310,-134 310,-114 248,-114"/>
<text text-anchor="middle" x="279" y="-121" font-family="FreeSans" font-size="10.00">vtkObject</text>
</a>
</g>
<!-- Node6&#45;&gt;Node5 -->
<g id="edge10" class="edge"><title>Node6&#45;&gt;Node5</title>
<path fill="none" stroke="midnightblue" d="M320.421,-124C329.001,-124 338.007,-124 346.479,-124"/>
<polygon fill="midnightblue" stroke="midnightblue" points="320.23,-120.5 310.23,-124 320.23,-127.5 320.23,-120.5"/>
</g>
<!-- Node7 -->
<g id="node12" class="node"><title>Node7</title>
<a xlink:href="class_kitware_1_1_v_t_k_1_1vtk_object_base.html" target="_top" xlink:title="vtkObjectBase &#45; abstract base class for most VTK objects">
<polygon fill="none" stroke="black" points="126,-114 126,-134 212,-134 212,-114 126,-114"/>
<text text-anchor="middle" x="169" y="-121" font-family="FreeSans" font-size="10.00">vtkObjectBase</text>
</a>
</g>
<!-- Node7&#45;&gt;Node6 -->
<g id="edge12" class="edge"><title>Node7&#45;&gt;Node6</title>
<path fill="none" stroke="midnightblue" d="M222.346,-124C231.091,-124 239.892,-124 247.863,-124"/>
<polygon fill="midnightblue" stroke="midnightblue" points="222.159,-120.5 212.159,-124 222.159,-127.5 222.159,-120.5"/>
</g>
<!-- Node8 -->
<g id="node14" class="node"><title>Node8</title>
<a xlink:href="class_kitware_1_1_v_t_k_1_1_wrapped_object.html" target="_top" xlink:title="Base class for all the mummy wrapped classes in Kitware.VTK.">
<polygon fill="none" stroke="black" points="0.5,-114 0.5,-134 89.5,-134 89.5,-114 0.5,-114"/>
<text text-anchor="middle" x="45" y="-121" font-family="FreeSans" font-size="10.00">WrappedObject</text>
</a>
</g>
<!-- Node8&#45;&gt;Node7 -->
<g id="edge14" class="edge"><title>Node8&#45;&gt;Node7</title>
<path fill="none" stroke="midnightblue" d="M99.8895,-124C108.623,-124 117.548,-124 125.957,-124"/>
<polygon fill="midnightblue" stroke="midnightblue" points="99.7669,-120.5 89.7668,-124 99.7668,-127.5 99.7669,-120.5"/>
</g>
<!-- Node11 -->
<g id="node21" class="node"><title>Node11</title>
<a xlink:href="class_kitware_1_1_v_t_k_1_1vtk_open_g_l_g_p_u_volume_ray_cast_mapper.html" target="_top" xlink:title="vtkOpenGLGPUVolumeRayCastMapper &#45; OpenGL subclass that draws the image to the screen">
<polygon fill="none" stroke="black" points="1424,-190 1424,-210 1684,-210 1684,-190 1424,-190"/>
<text text-anchor="middle" x="1554" y="-197" font-family="FreeSans" font-size="10.00">Kitware.VTK.vtkOpenGLGPUVolumeRayCastMapper</text>
</a>
</g>
<!-- Node10&#45;&gt;Node11 -->
<g id="edge20" class="edge"><title>Node10&#45;&gt;Node11</title>
<path fill="none" stroke="midnightblue" d="M1385.07,-200C1397.85,-200 1410.89,-200 1423.77,-200"/>
<polygon fill="midnightblue" stroke="midnightblue" points="1384.88,-196.5 1374.88,-200 1384.88,-203.5 1384.88,-196.5"/>
</g>
<!-- Node16 -->
<g id="node31" class="node"><title>Node16</title>
<a xlink:href="class_kitware_1_1_v_t_k_1_1vtk_volume_texture_mapper2_d.html" target="_top" xlink:title="vtkVolumeTextureMapper2D &#45; Abstract class for a volume mapper">
<polygon fill="none" stroke="black" points="1449.5,-38 1449.5,-58 1658.5,-58 1658.5,-38 1449.5,-38"/>
<text text-anchor="middle" x="1554" y="-45" font-family="FreeSans" font-size="10.00">Kitware.VTK.vtkVolumeTextureMapper2D</text>
</a>
</g>
<!-- Node15&#45;&gt;Node16 -->
<g id="edge30" class="edge"><title>Node15&#45;&gt;Node16</title>
<path fill="none" stroke="midnightblue" d="M1372.5,-48C1397.69,-48 1424.45,-48 1449.47,-48"/>
<polygon fill="midnightblue" stroke="midnightblue" points="1372.18,-44.5001 1362.18,-48 1372.18,-51.5001 1372.18,-44.5001"/>
</g>
<!-- Node17 -->
<g id="node33" class="node"><title>Node17</title>
<a xlink:href="class_kitware_1_1_v_t_k_1_1vtk_open_g_l_volume_texture_mapper2_d.html" target="_top" xlink:title="vtkOpenGLVolumeTextureMapper2D &#45; Abstract class for a volume mapper">
<polygon fill="none" stroke="black" points="1720.5,-38 1720.5,-58 1967.5,-58 1967.5,-38 1720.5,-38"/>
<text text-anchor="middle" x="1844" y="-45" font-family="FreeSans" font-size="10.00">Kitware.VTK.vtkOpenGLVolumeTextureMapper2D</text>
</a>
</g>
<!-- Node16&#45;&gt;Node17 -->
<g id="edge32" class="edge"><title>Node16&#45;&gt;Node17</title>
<path fill="none" stroke="midnightblue" d="M1669.08,-48C1685.88,-48 1703.23,-48 1720.2,-48"/>
<polygon fill="midnightblue" stroke="midnightblue" points="1668.7,-44.5001 1658.7,-48 1668.7,-51.5001 1668.7,-44.5001"/>
</g>
<!-- Node19 -->
<g id="node37" class="node"><title>Node19</title>
<a xlink:href="class_kitware_1_1_v_t_k_1_1vtk_open_g_l_volume_texture_mapper3_d.html" target="_top" xlink:title="vtkOpenGLVolumeTextureMapper3D &#45; concrete implementation of 3D volume texture mapping">
<polygon fill="none" stroke="black" points="1430.5,-0 1430.5,-20 1677.5,-20 1677.5,-0 1430.5,-0"/>
<text text-anchor="middle" x="1554" y="-7" font-family="FreeSans" font-size="10.00">Kitware.VTK.vtkOpenGLVolumeTextureMapper3D</text>
</a>
</g>
<!-- Node18&#45;&gt;Node19 -->
<g id="edge36" class="edge"><title>Node18&#45;&gt;Node19</title>
<path fill="none" stroke="midnightblue" d="M1379.08,-10C1395.88,-10 1413.23,-10 1430.2,-10"/>
<polygon fill="midnightblue" stroke="midnightblue" points="1378.7,-6.5001 1368.7,-10 1378.7,-13.5001 1378.7,-6.5001"/>
</g>
</g>
</svg>
