<?xml version="1.0" encoding="UTF-8" standalone="no"?>
<!DOCTYPE svg PUBLIC "-//W3C//DTD SVG 1.1//EN"
 "http://www.w3.org/Graphics/SVG/1.1/DTD/svg11.dtd">
<!-- Generated by graphviz version 2.26.3 (20100126.1600)
 -->
<!-- Title: G Pages: 1 -->
<svg width="406pt" height="710pt"
 viewBox="0.00 0.00 406.46 710.00" xmlns="http://www.w3.org/2000/svg" xmlns:xlink="http://www.w3.org/1999/xlink">
<g id="graph1" class="graph" transform="scale(1 1) rotate(0) translate(4 706)">
<title>G</title>
<!-- Node1 -->
<g id="node1" class="node"><title>Node1</title>
<polygon fill="#bfbfbf" stroke="black" points="0,-1 0,-21 140,-21 140,-1 0,-1"/>
<text text-anchor="middle" x="70" y="-8" font-family="FreeSans" font-size="10.00">Kitware.VTK.vtkExplicitCell</text>
</g>
<!-- Node2 -->
<g id="node2" class="node"><title>Node2</title>
<a xlink:href="class_kitware_1_1_v_t_k_1_1vtk_non_linear_cell.html" target="_top" xlink:title="vtkNonLinearCell &#45; abstract superclass for non&#45;linear cells">
<polygon fill="none" stroke="black" points="21.5,-61 21.5,-81 118.5,-81 118.5,-61 21.5,-61"/>
<text text-anchor="middle" x="70" y="-68" font-family="FreeSans" font-size="10.00">vtkNonLinearCell</text>
</a>
</g>
<!-- Node2&#45;&gt;Node1 -->
<g id="edge2" class="edge"><title>Node2&#45;&gt;Node1</title>
<path fill="none" stroke="midnightblue" d="M70,-50.5155C70,-40.562 70,-29.0495 70,-21.0279"/>
<polygon fill="midnightblue" stroke="midnightblue" points="66.5001,-50.8218 70,-60.8218 73.5001,-50.8219 66.5001,-50.8218"/>
</g>
<!-- Node3 -->
<g id="node4" class="node"><title>Node3</title>
<a xlink:href="class_kitware_1_1_v_t_k_1_1vtk_cell.html" target="_top" xlink:title="vtkCell &#45; abstract class to specify cell behavior">
<polygon fill="none" stroke="black" points="46,-121 46,-141 94,-141 94,-121 46,-121"/>
<text text-anchor="middle" x="70" y="-128" font-family="FreeSans" font-size="10.00">vtkCell</text>
</a>
</g>
<!-- Node3&#45;&gt;Node2 -->
<g id="edge4" class="edge"><title>Node3&#45;&gt;Node2</title>
<path fill="none" stroke="midnightblue" d="M70,-110.516C70,-100.562 70,-89.0495 70,-81.0279"/>
<polygon fill="midnightblue" stroke="midnightblue" points="66.5001,-110.822 70,-120.822 73.5001,-110.822 66.5001,-110.822"/>
</g>
<!-- Node4 -->
<g id="node6" class="node"><title>Node4</title>
<a xlink:href="class_kitware_1_1_v_t_k_1_1vtk_object.html" target="_top" xlink:title="vtkObject &#45; abstract base class for most VTK objects">
<polygon fill="none" stroke="black" points="39,-181 39,-201 101,-201 101,-181 39,-181"/>
<text text-anchor="middle" x="70" y="-188" font-family="FreeSans" font-size="10.00">vtkObject</text>
</a>
</g>
<!-- Node4&#45;&gt;Node3 -->
<g id="edge6" class="edge"><title>Node4&#45;&gt;Node3</title>
<path fill="none" stroke="midnightblue" d="M70,-170.516C70,-160.562 70,-149.05 70,-141.028"/>
<polygon fill="midnightblue" stroke="midnightblue" points="66.5001,-170.822 70,-180.822 73.5001,-170.822 66.5001,-170.822"/>
</g>
<!-- Node5 -->
<g id="node8" class="node"><title>Node5</title>
<a xlink:href="class_kitware_1_1_v_t_k_1_1vtk_object_base.html" target="_top" xlink:title="vtkObjectBase &#45; abstract base class for most VTK objects">
<polygon fill="none" stroke="black" points="90,-621 90,-641 176,-641 176,-621 90,-621"/>
<text text-anchor="middle" x="133" y="-628" font-family="FreeSans" font-size="10.00">vtkObjectBase</text>
</a>
</g>
<!-- Node5&#45;&gt;Node4 -->
<g id="edge8" class="edge"><title>Node5&#45;&gt;Node4</title>
<path fill="none" stroke="midnightblue" d="M104.423,-615.886C90.6866,-607.44 74.8844,-595.826 64,-582 52.1564,-566.955 51.6209,-560.802 48,-542 22.4248,-409.199 57.5766,-243.437 67.5155,-201.17"/>
<polygon fill="midnightblue" stroke="midnightblue" points="102.683,-618.923 113.079,-620.97 106.229,-612.887 102.683,-618.923"/>
</g>
<!-- Node8 -->
<g id="node15" class="node"><title>Node8</title>
<a xlink:href="class_kitware_1_1_v_t_k_1_1vtk_object.html" target="_top" xlink:title="vtkObject &#45; abstract base class for most VTK objects">
<polygon fill="none" stroke="black" points="73,-561 73,-581 193,-581 193,-561 73,-561"/>
<text text-anchor="middle" x="133" y="-568" font-family="FreeSans" font-size="10.00">Kitware.VTK.vtkObject</text>
</a>
</g>
<!-- Node5&#45;&gt;Node8 -->
<g id="edge18" class="edge"><title>Node5&#45;&gt;Node8</title>
<path fill="none" stroke="midnightblue" d="M133,-610.516C133,-600.562 133,-589.05 133,-581.028"/>
<polygon fill="midnightblue" stroke="midnightblue" points="129.5,-610.822 133,-620.822 136.5,-610.822 129.5,-610.822"/>
</g>
<!-- Node6 -->
<g id="node10" class="node"><title>Node6</title>
<a xlink:href="class_kitware_1_1_v_t_k_1_1_wrapped_object.html" target="_top" xlink:title="Base class for all the mummy wrapped classes in Kitware.VTK.">
<polygon fill="none" stroke="black" points="271.5,-681 271.5,-701 360.5,-701 360.5,-681 271.5,-681"/>
<text text-anchor="middle" x="316" y="-688" font-family="FreeSans" font-size="10.00">WrappedObject</text>
</a>
</g>
<!-- Node6&#45;&gt;Node5 -->
<g id="edge10" class="edge"><title>Node6&#45;&gt;Node5</title>
<path fill="none" stroke="midnightblue" d="M275.804,-677.821C242.042,-666.752 194.512,-651.168 163.73,-641.075"/>
<polygon fill="midnightblue" stroke="midnightblue" points="274.777,-681.168 285.37,-680.957 276.958,-674.516 274.777,-681.168"/>
</g>
<!-- Node7 -->
<g id="node12" class="node"><title>Node7</title>
<a xlink:href="class_kitware_1_1_v_t_k_1_1vtk_object_event_relay.html" target="_top" xlink:title="Implement a relay handler for VTK events. This is a class that receives events directly from the VTK ...">
<polygon fill="none" stroke="black" points="62,-371 62,-391 234,-391 234,-371 62,-371"/>
<text text-anchor="middle" x="148" y="-378" font-family="FreeSans" font-size="10.00">Kitware.VTK.vtkObjectEventRelay</text>
</a>
</g>
<!-- Node6&#45;&gt;Node7 -->
<g id="edge14" class="edge"><title>Node6&#45;&gt;Node7</title>
<path fill="none" stroke="midnightblue" d="M328.888,-672.325C361.276,-622.899 438.803,-487.191 371,-410 361.773,-399.495 293.047,-391.666 234.298,-386.808"/>
<polygon fill="midnightblue" stroke="midnightblue" points="325.891,-670.509 323.239,-680.767 331.709,-674.402 325.891,-670.509"/>
</g>
<!-- Node7&#45;&gt;Node4 -->
<g id="edge12" class="edge"><title>Node7&#45;&gt;Node4</title>
<path fill="none" stroke="#9a32cd" stroke-dasharray="5,2" d="M139.921,-361.321C123.489,-321.293 86.6738,-231.616 74.2144,-201.266"/>
<polygon fill="#9a32cd" stroke="#9a32cd" points="136.771,-362.863 143.806,-370.785 143.246,-360.205 136.771,-362.863"/>
<text text-anchor="middle" x="247.5" y="-343" font-family="FreeSans" font-size="10.00"> LeftButtonReleaseEvtRelay</text>
<text text-anchor="middle" x="247.5" y="-331" font-family="FreeSans" font-size="10.00">KeyPressEvtRelay</text>
<text text-anchor="middle" x="247.5" y="-319" font-family="FreeSans" font-size="10.00">DomainModifiedEvtRelay</text>
<text text-anchor="middle" x="247.5" y="-307" font-family="FreeSans" font-size="10.00">VolumeMapperComputeGradientsStartEvtRelay</text>
<text text-anchor="middle" x="247.5" y="-295" font-family="FreeSans" font-size="10.00">ErrorEvtRelay</text>
<text text-anchor="middle" x="247.5" y="-283" font-family="FreeSans" font-size="10.00">VolumeMapperRenderStartEvtRelay</text>
<text text-anchor="middle" x="247.5" y="-271" font-family="FreeSans" font-size="10.00">StartEvtRelay</text>
<text text-anchor="middle" x="247.5" y="-259" font-family="FreeSans" font-size="10.00">ResetCameraEvtRelay</text>
<text text-anchor="middle" x="247.5" y="-247" font-family="FreeSans" font-size="10.00">EnableEvtRelay</text>
<text text-anchor="middle" x="247.5" y="-235" font-family="FreeSans" font-size="10.00">DeleteEvtRelay</text>
<text text-anchor="middle" x="247.5" y="-223" font-family="FreeSans" font-size="10.00">...</text>
</g>
<!-- Node7&#45;&gt;Node8 -->
<g id="edge20" class="edge"><title>Node7&#45;&gt;Node8</title>
<path fill="none" stroke="#9a32cd" stroke-dasharray="5,2" d="M145.028,-401.231C144.649,-404.169 144.293,-407.159 144,-410 138.144,-466.853 134.636,-535.333 133.452,-560.807"/>
<polygon fill="#9a32cd" stroke="#9a32cd" points="148.515,-401.565 146.421,-391.179 141.582,-400.604 148.515,-401.565"/>
<text text-anchor="middle" x="257.5" y="-533" font-family="FreeSans" font-size="10.00"> LeftButtonReleaseEvtRelay</text>
<text text-anchor="middle" x="257.5" y="-521" font-family="FreeSans" font-size="10.00">KeyPressEvtRelay</text>
<text text-anchor="middle" x="257.5" y="-509" font-family="FreeSans" font-size="10.00">DomainModifiedEvtRelay</text>
<text text-anchor="middle" x="257.5" y="-497" font-family="FreeSans" font-size="10.00">VolumeMapperComputeGradientsStartEvtRelay</text>
<text text-anchor="middle" x="257.5" y="-485" font-family="FreeSans" font-size="10.00">ErrorEvtRelay</text>
<text text-anchor="middle" x="257.5" y="-473" font-family="FreeSans" font-size="10.00">VolumeMapperRenderStartEvtRelay</text>
<text text-anchor="middle" x="257.5" y="-461" font-family="FreeSans" font-size="10.00">StartEvtRelay</text>
<text text-anchor="middle" x="257.5" y="-449" font-family="FreeSans" font-size="10.00">ResetCameraEvtRelay</text>
<text text-anchor="middle" x="257.5" y="-437" font-family="FreeSans" font-size="10.00">EnableEvtRelay</text>
<text text-anchor="middle" x="257.5" y="-425" font-family="FreeSans" font-size="10.00">DeleteEvtRelay</text>
<text text-anchor="middle" x="257.5" y="-413" font-family="FreeSans" font-size="10.00">...</text>
</g>
<!-- Node8&#45;&gt;Node7 -->
<g id="edge16" class="edge"><title>Node8&#45;&gt;Node7</title>
<path fill="none" stroke="#9a32cd" stroke-dasharray="5,2" d="M86.9794,-555.818C81.4393,-552.138 76.5104,-547.596 73,-542 41.8229,-492.303 39.8299,-458.389 73,-410 77.7359,-403.091 94.5114,-396.287 110.999,-391.008"/>
<polygon fill="#9a32cd" stroke="#9a32cd" points="85.6386,-559.079 96.0724,-560.919 89.0636,-552.974 85.6386,-559.079"/>
<text text-anchor="middle" x="97" y="-479" font-family="FreeSans" font-size="10.00"> Sender</text>
<text text-anchor="middle" x="97" y="-467" font-family="FreeSans" font-size="10.00">EventImpl</text>
</g>
</g>
</svg>
