<?xml version="1.0" encoding="UTF-8" standalone="no"?>
<!DOCTYPE svg PUBLIC "-//W3C//DTD SVG 1.1//EN"
 "http://www.w3.org/Graphics/SVG/1.1/DTD/svg11.dtd">
<!-- Generated by graphviz version 2.26.3 (20100126.1600)
 -->
<!-- Title: G Pages: 1 -->
<svg width="1410pt" height="123pt"
 viewBox="0.00 0.00 1410.00 123.00" xmlns="http://www.w3.org/2000/svg" xmlns:xlink="http://www.w3.org/1999/xlink">
<g id="graph1" class="graph" transform="scale(1 1) rotate(0) translate(4 119)">
<title>G</title>
<!-- Node1 -->
<g id="node1" class="node"><title>Node1</title>
<polygon fill="#bfbfbf" stroke="black" points="450,-38 450,-58 640,-58 640,-38 450,-38"/>
<text text-anchor="middle" x="545" y="-45" font-family="FreeSans" font-size="10.00">Kitware.VTK.vtkAbstractPointLocator</text>
</g>
<!-- Node6 -->
<g id="node11" class="node"><title>Node6</title>
<a xlink:href="class_kitware_1_1_v_t_k_1_1vtk_incremental_point_locator.html" target="_top" xlink:title="vtkIncrementalPointLocator &#45; Abstract class in support of both point location and point insertion...">
<polygon fill="none" stroke="black" points="676,-76 676,-96 882,-96 882,-76 676,-76"/>
<text text-anchor="middle" x="779" y="-83" font-family="FreeSans" font-size="10.00">Kitware.VTK.vtkIncrementalPointLocator</text>
</a>
</g>
<!-- Node1&#45;&gt;Node6 -->
<g id="edge10" class="edge"><title>Node1&#45;&gt;Node6</title>
<path fill="none" stroke="midnightblue" d="M617.001,-59.6925C649.084,-64.9025 686.492,-70.9773 717.273,-75.976"/>
<polygon fill="midnightblue" stroke="midnightblue" points="617.219,-56.182 606.787,-58.0338 616.096,-63.0915 617.219,-56.182"/>
</g>
<!-- Node11 -->
<g id="node21" class="node"><title>Node11</title>
<a xlink:href="class_kitware_1_1_v_t_k_1_1vtk_kd_tree_point_locator.html" target="_top" xlink:title="vtkKdTreePointLocator &#45; class to quickly locate points in 3&#45;space">
<polygon fill="none" stroke="black" points="688.5,-38 688.5,-58 869.5,-58 869.5,-38 688.5,-38"/>
<text text-anchor="middle" x="779" y="-45" font-family="FreeSans" font-size="10.00">Kitware.VTK.vtkKdTreePointLocator</text>
</a>
</g>
<!-- Node1&#45;&gt;Node11 -->
<g id="edge20" class="edge"><title>Node1&#45;&gt;Node11</title>
<path fill="none" stroke="midnightblue" d="M650.329,-48C663.052,-48 675.961,-48 688.446,-48"/>
<polygon fill="midnightblue" stroke="midnightblue" points="650.177,-44.5001 640.177,-48 650.177,-51.5001 650.177,-44.5001"/>
</g>
<!-- Node12 -->
<g id="node23" class="node"><title>Node12</title>
<a xlink:href="class_kitware_1_1_v_t_k_1_1vtk_octree_point_locator.html" target="_top" xlink:title="vtkOctreePointLocator &#45; a octree spatial decomposition of a set of points">
<polygon fill="none" stroke="black" points="688,-0 688,-20 870,-20 870,-0 688,-0"/>
<text text-anchor="middle" x="779" y="-7" font-family="FreeSans" font-size="10.00">Kitware.VTK.vtkOctreePointLocator</text>
</a>
</g>
<!-- Node1&#45;&gt;Node12 -->
<g id="edge22" class="edge"><title>Node1&#45;&gt;Node12</title>
<path fill="none" stroke="midnightblue" d="M617.001,-36.3075C649.084,-31.0975 686.492,-25.0227 717.273,-20.024"/>
<polygon fill="midnightblue" stroke="midnightblue" points="616.096,-32.9085 606.787,-37.9662 617.219,-39.818 616.096,-32.9085"/>
</g>
<!-- Node2 -->
<g id="node2" class="node"><title>Node2</title>
<a xlink:href="class_kitware_1_1_v_t_k_1_1vtk_locator.html" target="_top" xlink:title="vtkLocator &#45; abstract base class for objects that accelerate spatial searches">
<polygon fill="none" stroke="black" points="346.5,-38 346.5,-58 413.5,-58 413.5,-38 346.5,-38"/>
<text text-anchor="middle" x="380" y="-45" font-family="FreeSans" font-size="10.00">vtkLocator</text>
</a>
</g>
<!-- Node2&#45;&gt;Node1 -->
<g id="edge2" class="edge"><title>Node2&#45;&gt;Node1</title>
<path fill="none" stroke="midnightblue" d="M424.055,-48C432.173,-48 440.93,-48 449.891,-48"/>
<polygon fill="midnightblue" stroke="midnightblue" points="423.788,-44.5001 413.788,-48 423.788,-51.5001 423.788,-44.5001"/>
</g>
<!-- Node3 -->
<g id="node4" class="node"><title>Node3</title>
<a xlink:href="class_kitware_1_1_v_t_k_1_1vtk_object.html" target="_top" xlink:title="vtkObject &#45; abstract base class for most VTK objects">
<polygon fill="none" stroke="black" points="248,-38 248,-58 310,-58 310,-38 248,-38"/>
<text text-anchor="middle" x="279" y="-45" font-family="FreeSans" font-size="10.00">vtkObject</text>
</a>
</g>
<!-- Node3&#45;&gt;Node2 -->
<g id="edge4" class="edge"><title>Node3&#45;&gt;Node2</title>
<path fill="none" stroke="midnightblue" d="M320.403,-48C329.035,-48 338.033,-48 346.343,-48"/>
<polygon fill="midnightblue" stroke="midnightblue" points="320.127,-44.5001 310.127,-48 320.127,-51.5001 320.127,-44.5001"/>
</g>
<!-- Node4 -->
<g id="node6" class="node"><title>Node4</title>
<a xlink:href="class_kitware_1_1_v_t_k_1_1vtk_object_base.html" target="_top" xlink:title="vtkObjectBase &#45; abstract base class for most VTK objects">
<polygon fill="none" stroke="black" points="126,-38 126,-58 212,-58 212,-38 126,-38"/>
<text text-anchor="middle" x="169" y="-45" font-family="FreeSans" font-size="10.00">vtkObjectBase</text>
</a>
</g>
<!-- Node4&#45;&gt;Node3 -->
<g id="edge6" class="edge"><title>Node4&#45;&gt;Node3</title>
<path fill="none" stroke="midnightblue" d="M222.346,-48C231.091,-48 239.892,-48 247.863,-48"/>
<polygon fill="midnightblue" stroke="midnightblue" points="222.159,-44.5001 212.159,-48 222.159,-51.5001 222.159,-44.5001"/>
</g>
<!-- Node5 -->
<g id="node8" class="node"><title>Node5</title>
<a xlink:href="class_kitware_1_1_v_t_k_1_1_wrapped_object.html" target="_top" xlink:title="Base class for all the mummy wrapped classes in Kitware.VTK.">
<polygon fill="none" stroke="black" points="0.5,-38 0.5,-58 89.5,-58 89.5,-38 0.5,-38"/>
<text text-anchor="middle" x="45" y="-45" font-family="FreeSans" font-size="10.00">WrappedObject</text>
</a>
</g>
<!-- Node5&#45;&gt;Node4 -->
<g id="edge8" class="edge"><title>Node5&#45;&gt;Node4</title>
<path fill="none" stroke="midnightblue" d="M99.8895,-48C108.623,-48 117.548,-48 125.957,-48"/>
<polygon fill="midnightblue" stroke="midnightblue" points="99.7669,-44.5001 89.7668,-48 99.7668,-51.5001 99.7669,-44.5001"/>
</g>
<!-- Node7 -->
<g id="node13" class="node"><title>Node7</title>
<a xlink:href="class_kitware_1_1_v_t_k_1_1vtk_incremental_octree_point_locator.html" target="_top" xlink:title="vtkIncrementalOctreePointLocator &#45; Incremental octree in support of both point location and point ins...">
<polygon fill="none" stroke="black" points="918.5,-95 918.5,-115 1157.5,-115 1157.5,-95 918.5,-95"/>
<text text-anchor="middle" x="1038" y="-102" font-family="FreeSans" font-size="10.00">Kitware.VTK.vtkIncrementalOctreePointLocator</text>
</a>
</g>
<!-- Node6&#45;&gt;Node7 -->
<g id="edge12" class="edge"><title>Node6&#45;&gt;Node7</title>
<path fill="none" stroke="midnightblue" d="M892.17,-94.302C900.787,-94.9342 909.503,-95.5736 918.161,-96.2087"/>
<polygon fill="midnightblue" stroke="midnightblue" points="892.337,-90.805 882.108,-93.5639 891.825,-97.7862 892.337,-90.805"/>
</g>
<!-- Node8 -->
<g id="node15" class="node"><title>Node8</title>
<a xlink:href="class_kitware_1_1_v_t_k_1_1vtk_point_locator.html" target="_top" xlink:title="vtkPointLocator &#45; quickly locate points in 3&#45;space">
<polygon fill="none" stroke="black" points="963.5,-57 963.5,-77 1112.5,-77 1112.5,-57 963.5,-57"/>
<text text-anchor="middle" x="1038" y="-64" font-family="FreeSans" font-size="10.00">Kitware.VTK.vtkPointLocator</text>
</a>
</g>
<!-- Node6&#45;&gt;Node8 -->
<g id="edge14" class="edge"><title>Node6&#45;&gt;Node8</title>
<path fill="none" stroke="midnightblue" d="M892.33,-77.6862C916.313,-75.9268 941.047,-74.1124 963.173,-72.4892"/>
<polygon fill="midnightblue" stroke="midnightblue" points="891.825,-74.2138 882.108,-78.4361 892.337,-81.195 891.825,-74.2138"/>
</g>
<!-- Node9 -->
<g id="node17" class="node"><title>Node9</title>
<a xlink:href="class_kitware_1_1_v_t_k_1_1vtk_merge_points.html" target="_top" xlink:title="vtkMergePoints &#45; merge exactly coincident points">
<polygon fill="none" stroke="black" points="1223.5,-76 1223.5,-96 1372.5,-96 1372.5,-76 1223.5,-76"/>
<text text-anchor="middle" x="1298" y="-83" font-family="FreeSans" font-size="10.00">Kitware.VTK.vtkMergePoints</text>
</a>
</g>
<!-- Node8&#45;&gt;Node9 -->
<g id="edge16" class="edge"><title>Node8&#45;&gt;Node9</title>
<path fill="none" stroke="midnightblue" d="M1122.88,-73.2027C1155.33,-75.5743 1192.07,-78.2589 1223.48,-80.5546"/>
<polygon fill="midnightblue" stroke="midnightblue" points="1122.73,-69.6829 1112.51,-72.4446 1122.22,-76.6642 1122.73,-69.6829"/>
</g>
<!-- Node10 -->
<g id="node19" class="node"><title>Node10</title>
<a xlink:href="class_kitware_1_1_v_t_k_1_1vtk_non_merging_point_locator.html" target="_top" xlink:title="vtkNonMergingPointLocator &#45; direct / check&#45;free point insertion.">
<polygon fill="none" stroke="black" points="1194.5,-38 1194.5,-58 1401.5,-58 1401.5,-38 1194.5,-38"/>
<text text-anchor="middle" x="1298" y="-45" font-family="FreeSans" font-size="10.00">Kitware.VTK.vtkNonMergingPointLocator</text>
</a>
</g>
<!-- Node8&#45;&gt;Node10 -->
<g id="edge18" class="edge"><title>Node8&#45;&gt;Node10</title>
<path fill="none" stroke="midnightblue" d="M1122.53,-60.8225C1145.47,-59.1464 1170.57,-57.3126 1194.42,-55.5692"/>
<polygon fill="midnightblue" stroke="midnightblue" points="1122.22,-57.3358 1112.51,-61.5554 1122.73,-64.3171 1122.22,-57.3358"/>
</g>
</g>
</svg>
