<?xml version="1.0" encoding="UTF-8" standalone="no"?>
<!DOCTYPE svg PUBLIC "-//W3C//DTD SVG 1.1//EN"
 "http://www.w3.org/Graphics/SVG/1.1/DTD/svg11.dtd">
<!-- Generated by graphviz version 2.26.3 (20100126.1600)
 -->
<!-- Title: G Pages: 1 -->
<svg width="1220pt" height="256pt"
 viewBox="0.00 0.00 1220.00 256.00" xmlns="http://www.w3.org/2000/svg" xmlns:xlink="http://www.w3.org/1999/xlink">
<g id="graph1" class="graph" transform="scale(1 1) rotate(0) translate(4 252)">
<title>G</title>
<!-- Node1 -->
<g id="node1" class="node"><title>Node1</title>
<polygon fill="#bfbfbf" stroke="black" points="460,-114 460,-134 640,-134 640,-114 460,-114"/>
<text text-anchor="middle" x="550" y="-121" font-family="FreeSans" font-size="10.00">Kitware.VTK.vtkSelectionAlgorithm</text>
</g>
<!-- Node6 -->
<g id="node11" class="node"><title>Node6</title>
<a xlink:href="class_kitware_1_1_v_t_k_1_1vtk_append_selection.html" target="_top" xlink:title="vtkAppendSelection &#45; appends one or more selections together">
<polygon fill="none" stroke="black" points="721,-228 721,-248 891,-248 891,-228 721,-228"/>
<text text-anchor="middle" x="806" y="-235" font-family="FreeSans" font-size="10.00">Kitware.VTK.vtkAppendSelection</text>
</a>
</g>
<!-- Node1&#45;&gt;Node6 -->
<g id="edge10" class="edge"><title>Node1&#45;&gt;Node6</title>
<path fill="none" stroke="midnightblue" d="M566.793,-141.179C589.4,-163.159 631.903,-200.585 676,-219 689.997,-224.845 705.494,-228.935 720.767,-231.788"/>
<polygon fill="midnightblue" stroke="midnightblue" points="569.222,-138.659 559.656,-134.105 564.294,-143.63 569.222,-138.659"/>
</g>
<!-- Node7 -->
<g id="node13" class="node"><title>Node7</title>
<a xlink:href="class_kitware_1_1_v_t_k_1_1vtk_boost_kruskal_minimum_spanning_tree.html" target="_top" xlink:title="vtkBoostKruskalMinimumSpanningTree &#45; Contructs a minimum spanning tree from a graph and the weighting...">
<polygon fill="none" stroke="black" points="676,-190 676,-210 936,-210 936,-190 676,-190"/>
<text text-anchor="middle" x="806" y="-197" font-family="FreeSans" font-size="10.00">Kitware.VTK.vtkBoostKruskalMinimumSpanningTree</text>
</a>
</g>
<!-- Node1&#45;&gt;Node7 -->
<g id="edge12" class="edge"><title>Node1&#45;&gt;Node7</title>
<path fill="none" stroke="midnightblue" d="M577.029,-138.911C601.984,-152.02 640.45,-170.586 676,-181 688.367,-184.623 701.608,-187.572 714.734,-189.969"/>
<polygon fill="midnightblue" stroke="midnightblue" points="578.632,-135.8 568.161,-134.183 575.338,-141.976 578.632,-135.8"/>
</g>
<!-- Node8 -->
<g id="node15" class="node"><title>Node8</title>
<a xlink:href="class_kitware_1_1_v_t_k_1_1vtk_compute_histogram2_d_outliers.html" target="_top" xlink:title="vtkComputeHistogram2DOutliers &#45; compute the outliers in a set of 2D histograms and extract the corres...">
<polygon fill="none" stroke="black" points="689,-152 689,-172 923,-172 923,-152 689,-152"/>
<text text-anchor="middle" x="806" y="-159" font-family="FreeSans" font-size="10.00">Kitware.VTK.vtkComputeHistogram2DOutliers</text>
</a>
</g>
<!-- Node1&#45;&gt;Node8 -->
<g id="edge14" class="edge"><title>Node1&#45;&gt;Node8</title>
<path fill="none" stroke="midnightblue" d="M626.147,-135.539C642.587,-138.015 659.872,-140.605 676,-143 695.742,-145.931 717.175,-149.078 736.838,-151.951"/>
<polygon fill="midnightblue" stroke="midnightblue" points="626.449,-132.045 616.039,-134.016 625.405,-138.967 626.449,-132.045"/>
</g>
<!-- Node10 -->
<g id="node19" class="node"><title>Node10</title>
<a xlink:href="class_kitware_1_1_v_t_k_1_1vtk_convert_selection.html" target="_top" xlink:title="vtkConvertSelection &#45; Convert a selection from one type to another">
<polygon fill="none" stroke="black" points="720.5,-114 720.5,-134 891.5,-134 891.5,-114 720.5,-114"/>
<text text-anchor="middle" x="806" y="-121" font-family="FreeSans" font-size="10.00">Kitware.VTK.vtkConvertSelection</text>
</a>
</g>
<!-- Node1&#45;&gt;Node10 -->
<g id="edge18" class="edge"><title>Node1&#45;&gt;Node10</title>
<path fill="none" stroke="midnightblue" d="M650.436,-124C673.577,-124 697.979,-124 720.421,-124"/>
<polygon fill="midnightblue" stroke="midnightblue" points="650.256,-120.5 640.256,-124 650.256,-127.5 650.256,-120.5"/>
</g>
<!-- Node11 -->
<g id="node21" class="node"><title>Node11</title>
<a xlink:href="class_kitware_1_1_v_t_k_1_1vtk_expand_selected_graph.html" target="_top" xlink:title="vtkExpandSelectedGraph &#45; expands a selection set of a vtkGraph">
<polygon fill="none" stroke="black" points="708,-76 708,-96 904,-96 904,-76 708,-76"/>
<text text-anchor="middle" x="806" y="-83" font-family="FreeSans" font-size="10.00">Kitware.VTK.vtkExpandSelectedGraph</text>
</a>
</g>
<!-- Node1&#45;&gt;Node11 -->
<g id="edge20" class="edge"><title>Node1&#45;&gt;Node11</title>
<path fill="none" stroke="midnightblue" d="M626.147,-112.461C642.587,-109.985 659.872,-107.395 676,-105 695.742,-102.069 717.175,-98.9218 736.838,-96.0488"/>
<polygon fill="midnightblue" stroke="midnightblue" points="625.405,-109.033 616.039,-113.984 626.449,-115.955 625.405,-109.033"/>
</g>
<!-- Node12 -->
<g id="node23" class="node"><title>Node12</title>
<a xlink:href="class_kitware_1_1_v_t_k_1_1vtk_kd_tree_selector.html" target="_top" xlink:title="vtkKdTreeSelector &#45; Selects point ids using a kd&#45;tree.">
<polygon fill="none" stroke="black" points="725.5,-38 725.5,-58 886.5,-58 886.5,-38 725.5,-38"/>
<text text-anchor="middle" x="806" y="-45" font-family="FreeSans" font-size="10.00">Kitware.VTK.vtkKdTreeSelector</text>
</a>
</g>
<!-- Node1&#45;&gt;Node12 -->
<g id="edge22" class="edge"><title>Node1&#45;&gt;Node12</title>
<path fill="none" stroke="midnightblue" d="M577.029,-109.089C601.984,-95.9799 640.45,-77.4144 676,-67 691.76,-62.383 708.939,-58.8601 725.491,-56.1811"/>
<polygon fill="midnightblue" stroke="midnightblue" points="575.338,-106.024 568.161,-113.817 578.632,-112.2 575.338,-106.024"/>
</g>
<!-- Node13 -->
<g id="node25" class="node"><title>Node13</title>
<a xlink:href="class_kitware_1_1_v_t_k_1_1vtk_selection_source.html" target="_top" xlink:title="vtkSelectionSource &#45; Generate selection from given set of ids vtkSelectionSource generates a vtkSelec...">
<polygon fill="none" stroke="black" points="722.5,-0 722.5,-20 889.5,-20 889.5,-0 722.5,-0"/>
<text text-anchor="middle" x="806" y="-7" font-family="FreeSans" font-size="10.00">Kitware.VTK.vtkSelectionSource</text>
</a>
</g>
<!-- Node1&#45;&gt;Node13 -->
<g id="edge24" class="edge"><title>Node1&#45;&gt;Node13</title>
<path fill="none" stroke="midnightblue" d="M566.793,-106.821C589.4,-84.8412 631.903,-47.4147 676,-29 690.523,-22.9353 706.661,-18.7596 722.489,-15.8951"/>
<polygon fill="midnightblue" stroke="midnightblue" points="564.294,-104.37 559.656,-113.895 569.222,-109.341 564.294,-104.37"/>
</g>
<!-- Node2 -->
<g id="node2" class="node"><title>Node2</title>
<a xlink:href="class_kitware_1_1_v_t_k_1_1vtk_algorithm.html" target="_top" xlink:title="vtkAlgorithm &#45; Superclass for all sources, filters, and sinks in VTK.">
<polygon fill="none" stroke="black" points="346.5,-114 346.5,-134 423.5,-134 423.5,-114 346.5,-114"/>
<text text-anchor="middle" x="385" y="-121" font-family="FreeSans" font-size="10.00">vtkAlgorithm</text>
</a>
</g>
<!-- Node2&#45;&gt;Node1 -->
<g id="edge2" class="edge"><title>Node2&#45;&gt;Node1</title>
<path fill="none" stroke="midnightblue" d="M433.793,-124C442.027,-124 450.801,-124 459.698,-124"/>
<polygon fill="midnightblue" stroke="midnightblue" points="433.685,-120.5 423.685,-124 433.685,-127.5 433.685,-120.5"/>
</g>
<!-- Node3 -->
<g id="node4" class="node"><title>Node3</title>
<a xlink:href="class_kitware_1_1_v_t_k_1_1vtk_object.html" target="_top" xlink:title="vtkObject &#45; abstract base class for most VTK objects">
<polygon fill="none" stroke="black" points="248,-114 248,-134 310,-134 310,-114 248,-114"/>
<text text-anchor="middle" x="279" y="-121" font-family="FreeSans" font-size="10.00">vtkObject</text>
</a>
</g>
<!-- Node3&#45;&gt;Node2 -->
<g id="edge4" class="edge"><title>Node3&#45;&gt;Node2</title>
<path fill="none" stroke="midnightblue" d="M320.421,-124C329.001,-124 338.007,-124 346.479,-124"/>
<polygon fill="midnightblue" stroke="midnightblue" points="320.23,-120.5 310.23,-124 320.23,-127.5 320.23,-120.5"/>
</g>
<!-- Node4 -->
<g id="node6" class="node"><title>Node4</title>
<a xlink:href="class_kitware_1_1_v_t_k_1_1vtk_object_base.html" target="_top" xlink:title="vtkObjectBase &#45; abstract base class for most VTK objects">
<polygon fill="none" stroke="black" points="126,-114 126,-134 212,-134 212,-114 126,-114"/>
<text text-anchor="middle" x="169" y="-121" font-family="FreeSans" font-size="10.00">vtkObjectBase</text>
</a>
</g>
<!-- Node4&#45;&gt;Node3 -->
<g id="edge6" class="edge"><title>Node4&#45;&gt;Node3</title>
<path fill="none" stroke="midnightblue" d="M222.346,-124C231.091,-124 239.892,-124 247.863,-124"/>
<polygon fill="midnightblue" stroke="midnightblue" points="222.159,-120.5 212.159,-124 222.159,-127.5 222.159,-120.5"/>
</g>
<!-- Node5 -->
<g id="node8" class="node"><title>Node5</title>
<a xlink:href="class_kitware_1_1_v_t_k_1_1_wrapped_object.html" target="_top" xlink:title="Base class for all the mummy wrapped classes in Kitware.VTK.">
<polygon fill="none" stroke="black" points="0.5,-114 0.5,-134 89.5,-134 89.5,-114 0.5,-114"/>
<text text-anchor="middle" x="45" y="-121" font-family="FreeSans" font-size="10.00">WrappedObject</text>
</a>
</g>
<!-- Node5&#45;&gt;Node4 -->
<g id="edge8" class="edge"><title>Node5&#45;&gt;Node4</title>
<path fill="none" stroke="midnightblue" d="M99.8895,-124C108.623,-124 117.548,-124 125.957,-124"/>
<polygon fill="midnightblue" stroke="midnightblue" points="99.7669,-120.5 89.7668,-124 99.7668,-127.5 99.7669,-120.5"/>
</g>
<!-- Node9 -->
<g id="node17" class="node"><title>Node9</title>
<a xlink:href="class_kitware_1_1_v_t_k_1_1vtk_p_compute_histogram2_d_outliers.html" target="_top" xlink:title="vtkPComputeHistogram2DOutliers &#45; extract outlier rows from a vtkTable based on input 2D histograms...">
<polygon fill="none" stroke="black" points="972,-152 972,-172 1212,-172 1212,-152 972,-152"/>
<text text-anchor="middle" x="1092" y="-159" font-family="FreeSans" font-size="10.00">Kitware.VTK.vtkPComputeHistogram2DOutliers</text>
</a>
</g>
<!-- Node8&#45;&gt;Node9 -->
<g id="edge16" class="edge"><title>Node8&#45;&gt;Node9</title>
<path fill="none" stroke="midnightblue" d="M933.357,-162C946.136,-162 959.084,-162 971.785,-162"/>
<polygon fill="midnightblue" stroke="midnightblue" points="933.152,-158.5 923.152,-162 933.152,-165.5 933.152,-158.5"/>
</g>
</g>
</svg>
