<?xml version="1.0" encoding="UTF-8" standalone="no"?>
<!DOCTYPE svg PUBLIC "-//W3C//DTD SVG 1.1//EN"
 "http://www.w3.org/Graphics/SVG/1.1/DTD/svg11.dtd">
<!-- Generated by graphviz version 2.26.3 (20100126.1600)
 -->
<!-- Title: G Pages: 1 -->
<svg width="230pt" height="262pt"
 viewBox="0.00 0.00 230.00 262.00" xmlns="http://www.w3.org/2000/svg" xmlns:xlink="http://www.w3.org/1999/xlink">
<g id="graph1" class="graph" transform="scale(1 1) rotate(0) translate(4 258)">
<title>G</title>
<!-- Node1 -->
<g id="node1" class="node"><title>Node1</title>
<polygon fill="#bfbfbf" stroke="black" points="11,-59 11,-79 211,-79 211,-59 11,-59"/>
<text text-anchor="middle" x="111" y="-66" font-family="FreeSans" font-size="10.00">Kitware.VTK.vtkCompositeDataIterator</text>
</g>
<!-- Node5 -->
<g id="node9" class="node"><title>Node5</title>
<a xlink:href="class_kitware_1_1_v_t_k_1_1vtk_hierarchical_box_data_iterator.html" target="_top" xlink:title="vtkHierarchicalBoxDataIterator &#45; subclass of vtkCompositeDataIterator with API to get current level a...">
<polygon fill="none" stroke="black" points="0,-1 0,-21 222,-21 222,-1 0,-1"/>
<text text-anchor="middle" x="111" y="-8" font-family="FreeSans" font-size="10.00">Kitware.VTK.vtkHierarchicalBoxDataIterator</text>
</a>
</g>
<!-- Node1&#45;&gt;Node5 -->
<g id="edge8" class="edge"><title>Node1&#45;&gt;Node5</title>
<path fill="none" stroke="midnightblue" d="M111,-48.8902C111,-39.6201 111,-29.0083 111,-21.3776"/>
<polygon fill="midnightblue" stroke="midnightblue" points="107.5,-48.8971 111,-58.8972 114.5,-48.8972 107.5,-48.8971"/>
</g>
<!-- Node2 -->
<g id="node2" class="node"><title>Node2</title>
<a xlink:href="class_kitware_1_1_v_t_k_1_1vtk_object.html" target="_top" xlink:title="vtkObject &#45; abstract base class for most VTK objects">
<polygon fill="none" stroke="black" points="80,-117 80,-137 142,-137 142,-117 80,-117"/>
<text text-anchor="middle" x="111" y="-124" font-family="FreeSans" font-size="10.00">vtkObject</text>
</a>
</g>
<!-- Node2&#45;&gt;Node1 -->
<g id="edge2" class="edge"><title>Node2&#45;&gt;Node1</title>
<path fill="none" stroke="midnightblue" d="M111,-106.89C111,-97.6201 111,-87.0083 111,-79.3776"/>
<polygon fill="midnightblue" stroke="midnightblue" points="107.5,-106.897 111,-116.897 114.5,-106.897 107.5,-106.897"/>
</g>
<!-- Node3 -->
<g id="node4" class="node"><title>Node3</title>
<a xlink:href="class_kitware_1_1_v_t_k_1_1vtk_object_base.html" target="_top" xlink:title="vtkObjectBase &#45; abstract base class for most VTK objects">
<polygon fill="none" stroke="black" points="68,-175 68,-195 154,-195 154,-175 68,-175"/>
<text text-anchor="middle" x="111" y="-182" font-family="FreeSans" font-size="10.00">vtkObjectBase</text>
</a>
</g>
<!-- Node3&#45;&gt;Node2 -->
<g id="edge4" class="edge"><title>Node3&#45;&gt;Node2</title>
<path fill="none" stroke="midnightblue" d="M111,-164.89C111,-155.62 111,-145.008 111,-137.378"/>
<polygon fill="midnightblue" stroke="midnightblue" points="107.5,-164.897 111,-174.897 114.5,-164.897 107.5,-164.897"/>
</g>
<!-- Node4 -->
<g id="node6" class="node"><title>Node4</title>
<a xlink:href="class_kitware_1_1_v_t_k_1_1_wrapped_object.html" target="_top" xlink:title="Base class for all the mummy wrapped classes in Kitware.VTK.">
<polygon fill="none" stroke="black" points="66.5,-233 66.5,-253 155.5,-253 155.5,-233 66.5,-233"/>
<text text-anchor="middle" x="111" y="-240" font-family="FreeSans" font-size="10.00">WrappedObject</text>
</a>
</g>
<!-- Node4&#45;&gt;Node3 -->
<g id="edge6" class="edge"><title>Node4&#45;&gt;Node3</title>
<path fill="none" stroke="midnightblue" d="M111,-222.89C111,-213.62 111,-203.008 111,-195.378"/>
<polygon fill="midnightblue" stroke="midnightblue" points="107.5,-222.897 111,-232.897 114.5,-222.897 107.5,-222.897"/>
</g>
</g>
</svg>
