<?xml version="1.0" encoding="UTF-8" standalone="no"?>
<!DOCTYPE svg PUBLIC "-//W3C//DTD SVG 1.1//EN"
 "http://www.w3.org/Graphics/SVG/1.1/DTD/svg11.dtd">
<!-- Generated by graphviz version 2.26.3 (20100126.1600)
 -->
<!-- Title: G Pages: 1 -->
<svg width="338pt" height="204pt"
 viewBox="0.00 0.00 338.00 204.00" xmlns="http://www.w3.org/2000/svg" xmlns:xlink="http://www.w3.org/1999/xlink">
<g id="graph1" class="graph" transform="scale(1 1) rotate(0) translate(4 200)">
<title>G</title>
<!-- Node1 -->
<g id="node1" class="node"><title>Node1</title>
<polygon fill="#bfbfbf" stroke="black" points="-0.5,-1 -0.5,-21 330.5,-21 330.5,-1 -0.5,-1"/>
<text text-anchor="middle" x="165" y="-8" font-family="FreeSans" font-size="10.00">Kitware.VTK.vtkInformationQuadratureSchemeDefinitionVectorKey</text>
</g>
<!-- Node2 -->
<g id="node2" class="node"><title>Node2</title>
<a xlink:href="class_kitware_1_1_v_t_k_1_1vtk_information_key.html" target="_top" xlink:title="vtkInformationKey &#45; Superclass for vtkInformation keys.">
<polygon fill="none" stroke="black" points="114,-59 114,-79 216,-79 216,-59 114,-59"/>
<text text-anchor="middle" x="165" y="-66" font-family="FreeSans" font-size="10.00">vtkInformationKey</text>
</a>
</g>
<!-- Node2&#45;&gt;Node1 -->
<g id="edge2" class="edge"><title>Node2&#45;&gt;Node1</title>
<path fill="none" stroke="midnightblue" d="M165,-48.8902C165,-39.6201 165,-29.0083 165,-21.3776"/>
<polygon fill="midnightblue" stroke="midnightblue" points="161.5,-48.8971 165,-58.8972 168.5,-48.8972 161.5,-48.8971"/>
</g>
<!-- Node3 -->
<g id="node4" class="node"><title>Node3</title>
<a xlink:href="class_kitware_1_1_v_t_k_1_1vtk_object_base.html" target="_top" xlink:title="vtkObjectBase &#45; abstract base class for most VTK objects">
<polygon fill="none" stroke="black" points="122,-117 122,-137 208,-137 208,-117 122,-117"/>
<text text-anchor="middle" x="165" y="-124" font-family="FreeSans" font-size="10.00">vtkObjectBase</text>
</a>
</g>
<!-- Node3&#45;&gt;Node2 -->
<g id="edge4" class="edge"><title>Node3&#45;&gt;Node2</title>
<path fill="none" stroke="midnightblue" d="M165,-106.89C165,-97.6201 165,-87.0083 165,-79.3776"/>
<polygon fill="midnightblue" stroke="midnightblue" points="161.5,-106.897 165,-116.897 168.5,-106.897 161.5,-106.897"/>
</g>
<!-- Node4 -->
<g id="node6" class="node"><title>Node4</title>
<a xlink:href="class_kitware_1_1_v_t_k_1_1_wrapped_object.html" target="_top" xlink:title="Base class for all the mummy wrapped classes in Kitware.VTK.">
<polygon fill="none" stroke="black" points="120.5,-175 120.5,-195 209.5,-195 209.5,-175 120.5,-175"/>
<text text-anchor="middle" x="165" y="-182" font-family="FreeSans" font-size="10.00">WrappedObject</text>
</a>
</g>
<!-- Node4&#45;&gt;Node3 -->
<g id="edge6" class="edge"><title>Node4&#45;&gt;Node3</title>
<path fill="none" stroke="midnightblue" d="M165,-164.89C165,-155.62 165,-145.008 165,-137.378"/>
<polygon fill="midnightblue" stroke="midnightblue" points="161.5,-164.897 165,-174.897 168.5,-164.897 161.5,-164.897"/>
</g>
</g>
</svg>
