<?xml version="1.0" encoding="UTF-8" standalone="no"?>
<!DOCTYPE svg PUBLIC "-//W3C//DTD SVG 1.1//EN"
 "http://www.w3.org/Graphics/SVG/1.1/DTD/svg11.dtd">
<!-- Generated by graphviz version 2.26.3 (20100126.1600)
 -->
<!-- Title: G Pages: 1 -->
<svg width="432pt" height="890pt"
 viewBox="0.00 0.00 432.46 890.00" xmlns="http://www.w3.org/2000/svg" xmlns:xlink="http://www.w3.org/1999/xlink">
<g id="graph1" class="graph" transform="scale(1 1) rotate(0) translate(4 886)">
<title>G</title>
<!-- Node1 -->
<g id="node1" class="node"><title>Node1</title>
<polygon fill="#bfbfbf" stroke="black" points="-0.5,-1 -0.5,-21 192.5,-21 192.5,-1 -0.5,-1"/>
<text text-anchor="middle" x="96" y="-8" font-family="FreeSans" font-size="10.00">Kitware.VTK.vtkPExtractHistogram2D</text>
</g>
<!-- Node2 -->
<g id="node2" class="node"><title>Node2</title>
<a xlink:href="class_kitware_1_1_v_t_k_1_1vtk_extract_histogram2_d.html" target="_top" xlink:title="vtkExtractHistogram2D &#45; compute a 2D histogram between two columns of an input vtkTable.">
<polygon fill="none" stroke="black" points="32,-61 32,-81 160,-81 160,-61 32,-61"/>
<text text-anchor="middle" x="96" y="-68" font-family="FreeSans" font-size="10.00">vtkExtractHistogram2D</text>
</a>
</g>
<!-- Node2&#45;&gt;Node1 -->
<g id="edge2" class="edge"><title>Node2&#45;&gt;Node1</title>
<path fill="none" stroke="midnightblue" d="M96,-50.5155C96,-40.562 96,-29.0495 96,-21.0279"/>
<polygon fill="midnightblue" stroke="midnightblue" points="92.5001,-50.8218 96,-60.8218 99.5001,-50.8219 92.5001,-50.8218"/>
</g>
<!-- Node3 -->
<g id="node4" class="node"><title>Node3</title>
<a xlink:href="class_kitware_1_1_v_t_k_1_1vtk_bivariate_statistics_algorithm.html" target="_top" xlink:title="vtkBivariateStatistics &#45; Base class for bivariate statistics algorithms">
<polygon fill="none" stroke="black" points="14,-121 14,-141 178,-141 178,-121 14,-121"/>
<text text-anchor="middle" x="96" y="-128" font-family="FreeSans" font-size="10.00">vtkBivariateStatisticsAlgorithm</text>
</a>
</g>
<!-- Node3&#45;&gt;Node2 -->
<g id="edge4" class="edge"><title>Node3&#45;&gt;Node2</title>
<path fill="none" stroke="midnightblue" d="M96,-110.516C96,-100.562 96,-89.0495 96,-81.0279"/>
<polygon fill="midnightblue" stroke="midnightblue" points="92.5001,-110.822 96,-120.822 99.5001,-110.822 92.5001,-110.822"/>
</g>
<!-- Node4 -->
<g id="node6" class="node"><title>Node4</title>
<a xlink:href="class_kitware_1_1_v_t_k_1_1vtk_statistics_algorithm.html" target="_top" xlink:title="vtkStatisticsAlgorithm &#45; Base class for statistics algorithms">
<polygon fill="none" stroke="black" points="35,-181 35,-201 157,-201 157,-181 35,-181"/>
<text text-anchor="middle" x="96" y="-188" font-family="FreeSans" font-size="10.00">vtkStatisticsAlgorithm</text>
</a>
</g>
<!-- Node4&#45;&gt;Node3 -->
<g id="edge6" class="edge"><title>Node4&#45;&gt;Node3</title>
<path fill="none" stroke="midnightblue" d="M96,-170.516C96,-160.562 96,-149.05 96,-141.028"/>
<polygon fill="midnightblue" stroke="midnightblue" points="92.5001,-170.822 96,-180.822 99.5001,-170.822 92.5001,-170.822"/>
</g>
<!-- Node5 -->
<g id="node8" class="node"><title>Node5</title>
<a xlink:href="class_kitware_1_1_v_t_k_1_1vtk_table_algorithm.html" target="_top" xlink:title="vtkTableAlgorithm &#45; Superclass for algorithms that produce only vtkTables as output">
<polygon fill="none" stroke="black" points="45.5,-241 45.5,-261 146.5,-261 146.5,-241 45.5,-241"/>
<text text-anchor="middle" x="96" y="-248" font-family="FreeSans" font-size="10.00">vtkTableAlgorithm</text>
</a>
</g>
<!-- Node5&#45;&gt;Node4 -->
<g id="edge8" class="edge"><title>Node5&#45;&gt;Node4</title>
<path fill="none" stroke="midnightblue" d="M96,-230.516C96,-220.562 96,-209.05 96,-201.028"/>
<polygon fill="midnightblue" stroke="midnightblue" points="92.5001,-230.822 96,-240.822 99.5001,-230.822 92.5001,-230.822"/>
</g>
<!-- Node6 -->
<g id="node10" class="node"><title>Node6</title>
<a xlink:href="class_kitware_1_1_v_t_k_1_1vtk_algorithm.html" target="_top" xlink:title="vtkAlgorithm &#45; Superclass for all sources, filters, and sinks in VTK.">
<polygon fill="none" stroke="black" points="57.5,-301 57.5,-321 134.5,-321 134.5,-301 57.5,-301"/>
<text text-anchor="middle" x="96" y="-308" font-family="FreeSans" font-size="10.00">vtkAlgorithm</text>
</a>
</g>
<!-- Node6&#45;&gt;Node5 -->
<g id="edge10" class="edge"><title>Node6&#45;&gt;Node5</title>
<path fill="none" stroke="midnightblue" d="M96,-290.516C96,-280.562 96,-269.05 96,-261.028"/>
<polygon fill="midnightblue" stroke="midnightblue" points="92.5001,-290.822 96,-300.822 99.5001,-290.822 92.5001,-290.822"/>
</g>
<!-- Node7 -->
<g id="node12" class="node"><title>Node7</title>
<a xlink:href="class_kitware_1_1_v_t_k_1_1vtk_object.html" target="_top" xlink:title="vtkObject &#45; abstract base class for most VTK objects">
<polygon fill="none" stroke="black" points="65,-361 65,-381 127,-381 127,-361 65,-361"/>
<text text-anchor="middle" x="96" y="-368" font-family="FreeSans" font-size="10.00">vtkObject</text>
</a>
</g>
<!-- Node7&#45;&gt;Node6 -->
<g id="edge12" class="edge"><title>Node7&#45;&gt;Node6</title>
<path fill="none" stroke="midnightblue" d="M96,-350.516C96,-340.562 96,-329.05 96,-321.028"/>
<polygon fill="midnightblue" stroke="midnightblue" points="92.5001,-350.822 96,-360.822 99.5001,-350.822 92.5001,-350.822"/>
</g>
<!-- Node8 -->
<g id="node14" class="node"><title>Node8</title>
<a xlink:href="class_kitware_1_1_v_t_k_1_1vtk_object_base.html" target="_top" xlink:title="vtkObjectBase &#45; abstract base class for most VTK objects">
<polygon fill="none" stroke="black" points="116,-801 116,-821 202,-821 202,-801 116,-801"/>
<text text-anchor="middle" x="159" y="-808" font-family="FreeSans" font-size="10.00">vtkObjectBase</text>
</a>
</g>
<!-- Node8&#45;&gt;Node7 -->
<g id="edge14" class="edge"><title>Node8&#45;&gt;Node7</title>
<path fill="none" stroke="midnightblue" d="M130.423,-795.886C116.687,-787.44 100.884,-775.826 90,-762 78.1564,-746.955 77.6209,-740.802 74,-722 48.4248,-589.199 83.5766,-423.437 93.5155,-381.17"/>
<polygon fill="midnightblue" stroke="midnightblue" points="128.683,-798.923 139.079,-800.97 132.229,-792.887 128.683,-798.923"/>
</g>
<!-- Node11 -->
<g id="node21" class="node"><title>Node11</title>
<a xlink:href="class_kitware_1_1_v_t_k_1_1vtk_object.html" target="_top" xlink:title="vtkObject &#45; abstract base class for most VTK objects">
<polygon fill="none" stroke="black" points="99,-741 99,-761 219,-761 219,-741 99,-741"/>
<text text-anchor="middle" x="159" y="-748" font-family="FreeSans" font-size="10.00">Kitware.VTK.vtkObject</text>
</a>
</g>
<!-- Node8&#45;&gt;Node11 -->
<g id="edge24" class="edge"><title>Node8&#45;&gt;Node11</title>
<path fill="none" stroke="midnightblue" d="M159,-790.516C159,-780.562 159,-769.05 159,-761.028"/>
<polygon fill="midnightblue" stroke="midnightblue" points="155.5,-790.822 159,-800.822 162.5,-790.822 155.5,-790.822"/>
</g>
<!-- Node9 -->
<g id="node16" class="node"><title>Node9</title>
<a xlink:href="class_kitware_1_1_v_t_k_1_1_wrapped_object.html" target="_top" xlink:title="Base class for all the mummy wrapped classes in Kitware.VTK.">
<polygon fill="none" stroke="black" points="297.5,-861 297.5,-881 386.5,-881 386.5,-861 297.5,-861"/>
<text text-anchor="middle" x="342" y="-868" font-family="FreeSans" font-size="10.00">WrappedObject</text>
</a>
</g>
<!-- Node9&#45;&gt;Node8 -->
<g id="edge16" class="edge"><title>Node9&#45;&gt;Node8</title>
<path fill="none" stroke="midnightblue" d="M301.804,-857.821C268.042,-846.752 220.512,-831.168 189.73,-821.075"/>
<polygon fill="midnightblue" stroke="midnightblue" points="300.777,-861.168 311.37,-860.957 302.958,-854.516 300.777,-861.168"/>
</g>
<!-- Node10 -->
<g id="node18" class="node"><title>Node10</title>
<a xlink:href="class_kitware_1_1_v_t_k_1_1vtk_object_event_relay.html" target="_top" xlink:title="Implement a relay handler for VTK events. This is a class that receives events directly from the VTK ...">
<polygon fill="none" stroke="black" points="88,-551 88,-571 260,-571 260,-551 88,-551"/>
<text text-anchor="middle" x="174" y="-558" font-family="FreeSans" font-size="10.00">Kitware.VTK.vtkObjectEventRelay</text>
</a>
</g>
<!-- Node9&#45;&gt;Node10 -->
<g id="edge20" class="edge"><title>Node9&#45;&gt;Node10</title>
<path fill="none" stroke="midnightblue" d="M354.888,-852.325C387.276,-802.899 464.803,-667.191 397,-590 387.773,-579.495 319.047,-571.666 260.298,-566.808"/>
<polygon fill="midnightblue" stroke="midnightblue" points="351.891,-850.509 349.239,-860.767 357.709,-854.402 351.891,-850.509"/>
</g>
<!-- Node10&#45;&gt;Node7 -->
<g id="edge18" class="edge"><title>Node10&#45;&gt;Node7</title>
<path fill="none" stroke="#9a32cd" stroke-dasharray="5,2" d="M165.921,-541.321C149.489,-501.293 112.674,-411.616 100.214,-381.266"/>
<polygon fill="#9a32cd" stroke="#9a32cd" points="162.771,-542.863 169.806,-550.785 169.246,-540.205 162.771,-542.863"/>
<text text-anchor="middle" x="273.5" y="-523" font-family="FreeSans" font-size="10.00"> LeftButtonReleaseEvtRelay</text>
<text text-anchor="middle" x="273.5" y="-511" font-family="FreeSans" font-size="10.00">KeyPressEvtRelay</text>
<text text-anchor="middle" x="273.5" y="-499" font-family="FreeSans" font-size="10.00">DomainModifiedEvtRelay</text>
<text text-anchor="middle" x="273.5" y="-487" font-family="FreeSans" font-size="10.00">VolumeMapperComputeGradientsStartEvtRelay</text>
<text text-anchor="middle" x="273.5" y="-475" font-family="FreeSans" font-size="10.00">ErrorEvtRelay</text>
<text text-anchor="middle" x="273.5" y="-463" font-family="FreeSans" font-size="10.00">VolumeMapperRenderStartEvtRelay</text>
<text text-anchor="middle" x="273.5" y="-451" font-family="FreeSans" font-size="10.00">StartEvtRelay</text>
<text text-anchor="middle" x="273.5" y="-439" font-family="FreeSans" font-size="10.00">ResetCameraEvtRelay</text>
<text text-anchor="middle" x="273.5" y="-427" font-family="FreeSans" font-size="10.00">EnableEvtRelay</text>
<text text-anchor="middle" x="273.5" y="-415" font-family="FreeSans" font-size="10.00">DeleteEvtRelay</text>
<text text-anchor="middle" x="273.5" y="-403" font-family="FreeSans" font-size="10.00">...</text>
</g>
<!-- Node10&#45;&gt;Node11 -->
<g id="edge26" class="edge"><title>Node10&#45;&gt;Node11</title>
<path fill="none" stroke="#9a32cd" stroke-dasharray="5,2" d="M171.028,-581.231C170.649,-584.169 170.293,-587.159 170,-590 164.144,-646.853 160.636,-715.333 159.452,-740.807"/>
<polygon fill="#9a32cd" stroke="#9a32cd" points="174.515,-581.565 172.421,-571.179 167.582,-580.604 174.515,-581.565"/>
<text text-anchor="middle" x="283.5" y="-713" font-family="FreeSans" font-size="10.00"> LeftButtonReleaseEvtRelay</text>
<text text-anchor="middle" x="283.5" y="-701" font-family="FreeSans" font-size="10.00">KeyPressEvtRelay</text>
<text text-anchor="middle" x="283.5" y="-689" font-family="FreeSans" font-size="10.00">DomainModifiedEvtRelay</text>
<text text-anchor="middle" x="283.5" y="-677" font-family="FreeSans" font-size="10.00">VolumeMapperComputeGradientsStartEvtRelay</text>
<text text-anchor="middle" x="283.5" y="-665" font-family="FreeSans" font-size="10.00">ErrorEvtRelay</text>
<text text-anchor="middle" x="283.5" y="-653" font-family="FreeSans" font-size="10.00">VolumeMapperRenderStartEvtRelay</text>
<text text-anchor="middle" x="283.5" y="-641" font-family="FreeSans" font-size="10.00">StartEvtRelay</text>
<text text-anchor="middle" x="283.5" y="-629" font-family="FreeSans" font-size="10.00">ResetCameraEvtRelay</text>
<text text-anchor="middle" x="283.5" y="-617" font-family="FreeSans" font-size="10.00">EnableEvtRelay</text>
<text text-anchor="middle" x="283.5" y="-605" font-family="FreeSans" font-size="10.00">DeleteEvtRelay</text>
<text text-anchor="middle" x="283.5" y="-593" font-family="FreeSans" font-size="10.00">...</text>
</g>
<!-- Node11&#45;&gt;Node10 -->
<g id="edge22" class="edge"><title>Node11&#45;&gt;Node10</title>
<path fill="none" stroke="#9a32cd" stroke-dasharray="5,2" d="M112.979,-735.818C107.439,-732.138 102.51,-727.596 99,-722 67.8229,-672.303 65.8299,-638.389 99,-590 103.736,-583.091 120.511,-576.287 136.999,-571.008"/>
<polygon fill="#9a32cd" stroke="#9a32cd" points="111.639,-739.079 122.072,-740.919 115.064,-732.974 111.639,-739.079"/>
<text text-anchor="middle" x="123" y="-659" font-family="FreeSans" font-size="10.00"> Sender</text>
<text text-anchor="middle" x="123" y="-647" font-family="FreeSans" font-size="10.00">EventImpl</text>
</g>
</g>
</svg>
