<?xml version="1.0" encoding="UTF-8" standalone="no"?>
<!DOCTYPE svg PUBLIC "-//W3C//DTD SVG 1.1//EN"
 "http://www.w3.org/Graphics/SVG/1.1/DTD/svg11.dtd">
<!-- Generated by graphviz version 2.26.3 (20100126.1600)
 -->
<!-- Title: G Pages: 1 -->
<svg width="461pt" height="770pt"
 viewBox="0.00 0.00 461.46 770.00" xmlns="http://www.w3.org/2000/svg" xmlns:xlink="http://www.w3.org/1999/xlink">
<g id="graph1" class="graph" transform="scale(1 1) rotate(0) translate(4 766)">
<title>G</title>
<!-- Node1 -->
<g id="node1" class="node"><title>Node1</title>
<polygon fill="#bfbfbf" stroke="black" points="-0.5,-1 -0.5,-21 250.5,-21 250.5,-1 -0.5,-1"/>
<text text-anchor="middle" x="125" y="-8" font-family="FreeSans" font-size="10.00">Kitware.VTK.vtkParallelCoordinatesInteractorStyle</text>
</g>
<!-- Node2 -->
<g id="node2" class="node"><title>Node2</title>
<a xlink:href="class_kitware_1_1_v_t_k_1_1vtk_interactor_style_trackball_camera.html" target="_top" xlink:title="vtkInteractorStyleTrackballCamera &#45; interactive manipulation of the camera">
<polygon fill="none" stroke="black" points="35,-61 35,-81 215,-81 215,-61 35,-61"/>
<text text-anchor="middle" x="125" y="-68" font-family="FreeSans" font-size="10.00">vtkInteractorStyleTrackballCamera</text>
</a>
</g>
<!-- Node2&#45;&gt;Node1 -->
<g id="edge2" class="edge"><title>Node2&#45;&gt;Node1</title>
<path fill="none" stroke="midnightblue" d="M125,-50.5155C125,-40.562 125,-29.0495 125,-21.0279"/>
<polygon fill="midnightblue" stroke="midnightblue" points="121.5,-50.8218 125,-60.8218 128.5,-50.8219 121.5,-50.8218"/>
</g>
<!-- Node3 -->
<g id="node4" class="node"><title>Node3</title>
<a xlink:href="class_kitware_1_1_v_t_k_1_1vtk_interactor_style.html" target="_top" xlink:title="vtkInteractorStyle &#45; provide event&#45;driven interface to the rendering window (defines trackball mode)...">
<polygon fill="none" stroke="black" points="74.5,-121 74.5,-141 175.5,-141 175.5,-121 74.5,-121"/>
<text text-anchor="middle" x="125" y="-128" font-family="FreeSans" font-size="10.00">vtkInteractorStyle</text>
</a>
</g>
<!-- Node3&#45;&gt;Node2 -->
<g id="edge4" class="edge"><title>Node3&#45;&gt;Node2</title>
<path fill="none" stroke="midnightblue" d="M125,-110.516C125,-100.562 125,-89.0495 125,-81.0279"/>
<polygon fill="midnightblue" stroke="midnightblue" points="121.5,-110.822 125,-120.822 128.5,-110.822 121.5,-110.822"/>
</g>
<!-- Node4 -->
<g id="node6" class="node"><title>Node4</title>
<a xlink:href="class_kitware_1_1_v_t_k_1_1vtk_interactor_observer.html" target="_top" xlink:title="vtkInteractorObserver &#45; an abstract superclass for classes observing events invoked by vtkRenderWindo...">
<polygon fill="none" stroke="black" points="64.5,-181 64.5,-201 185.5,-201 185.5,-181 64.5,-181"/>
<text text-anchor="middle" x="125" y="-188" font-family="FreeSans" font-size="10.00">vtkInteractorObserver</text>
</a>
</g>
<!-- Node4&#45;&gt;Node3 -->
<g id="edge6" class="edge"><title>Node4&#45;&gt;Node3</title>
<path fill="none" stroke="midnightblue" d="M125,-170.516C125,-160.562 125,-149.05 125,-141.028"/>
<polygon fill="midnightblue" stroke="midnightblue" points="121.5,-170.822 125,-180.822 128.5,-170.822 121.5,-170.822"/>
</g>
<!-- Node5 -->
<g id="node8" class="node"><title>Node5</title>
<a xlink:href="class_kitware_1_1_v_t_k_1_1vtk_object.html" target="_top" xlink:title="vtkObject &#45; abstract base class for most VTK objects">
<polygon fill="none" stroke="black" points="94,-241 94,-261 156,-261 156,-241 94,-241"/>
<text text-anchor="middle" x="125" y="-248" font-family="FreeSans" font-size="10.00">vtkObject</text>
</a>
</g>
<!-- Node5&#45;&gt;Node4 -->
<g id="edge8" class="edge"><title>Node5&#45;&gt;Node4</title>
<path fill="none" stroke="midnightblue" d="M125,-230.516C125,-220.562 125,-209.05 125,-201.028"/>
<polygon fill="midnightblue" stroke="midnightblue" points="121.5,-230.822 125,-240.822 128.5,-230.822 121.5,-230.822"/>
</g>
<!-- Node6 -->
<g id="node10" class="node"><title>Node6</title>
<a xlink:href="class_kitware_1_1_v_t_k_1_1vtk_object_base.html" target="_top" xlink:title="vtkObjectBase &#45; abstract base class for most VTK objects">
<polygon fill="none" stroke="black" points="145,-681 145,-701 231,-701 231,-681 145,-681"/>
<text text-anchor="middle" x="188" y="-688" font-family="FreeSans" font-size="10.00">vtkObjectBase</text>
</a>
</g>
<!-- Node6&#45;&gt;Node5 -->
<g id="edge10" class="edge"><title>Node6&#45;&gt;Node5</title>
<path fill="none" stroke="midnightblue" d="M159.423,-675.886C145.687,-667.44 129.884,-655.826 119,-642 107.156,-626.955 106.621,-620.802 103,-602 77.4248,-469.199 112.577,-303.437 122.516,-261.17"/>
<polygon fill="midnightblue" stroke="midnightblue" points="157.683,-678.923 168.079,-680.97 161.229,-672.887 157.683,-678.923"/>
</g>
<!-- Node9 -->
<g id="node17" class="node"><title>Node9</title>
<a xlink:href="class_kitware_1_1_v_t_k_1_1vtk_object.html" target="_top" xlink:title="vtkObject &#45; abstract base class for most VTK objects">
<polygon fill="none" stroke="black" points="128,-621 128,-641 248,-641 248,-621 128,-621"/>
<text text-anchor="middle" x="188" y="-628" font-family="FreeSans" font-size="10.00">Kitware.VTK.vtkObject</text>
</a>
</g>
<!-- Node6&#45;&gt;Node9 -->
<g id="edge20" class="edge"><title>Node6&#45;&gt;Node9</title>
<path fill="none" stroke="midnightblue" d="M188,-670.516C188,-660.562 188,-649.05 188,-641.028"/>
<polygon fill="midnightblue" stroke="midnightblue" points="184.5,-670.822 188,-680.822 191.5,-670.822 184.5,-670.822"/>
</g>
<!-- Node7 -->
<g id="node12" class="node"><title>Node7</title>
<a xlink:href="class_kitware_1_1_v_t_k_1_1_wrapped_object.html" target="_top" xlink:title="Base class for all the mummy wrapped classes in Kitware.VTK.">
<polygon fill="none" stroke="black" points="326.5,-741 326.5,-761 415.5,-761 415.5,-741 326.5,-741"/>
<text text-anchor="middle" x="371" y="-748" font-family="FreeSans" font-size="10.00">WrappedObject</text>
</a>
</g>
<!-- Node7&#45;&gt;Node6 -->
<g id="edge12" class="edge"><title>Node7&#45;&gt;Node6</title>
<path fill="none" stroke="midnightblue" d="M330.804,-737.821C297.042,-726.752 249.512,-711.168 218.73,-701.075"/>
<polygon fill="midnightblue" stroke="midnightblue" points="329.777,-741.168 340.37,-740.957 331.958,-734.516 329.777,-741.168"/>
</g>
<!-- Node8 -->
<g id="node14" class="node"><title>Node8</title>
<a xlink:href="class_kitware_1_1_v_t_k_1_1vtk_object_event_relay.html" target="_top" xlink:title="Implement a relay handler for VTK events. This is a class that receives events directly from the VTK ...">
<polygon fill="none" stroke="black" points="117,-431 117,-451 289,-451 289,-431 117,-431"/>
<text text-anchor="middle" x="203" y="-438" font-family="FreeSans" font-size="10.00">Kitware.VTK.vtkObjectEventRelay</text>
</a>
</g>
<!-- Node7&#45;&gt;Node8 -->
<g id="edge16" class="edge"><title>Node7&#45;&gt;Node8</title>
<path fill="none" stroke="midnightblue" d="M383.888,-732.325C416.276,-682.899 493.803,-547.191 426,-470 416.773,-459.495 348.047,-451.666 289.298,-446.808"/>
<polygon fill="midnightblue" stroke="midnightblue" points="380.891,-730.509 378.239,-740.767 386.709,-734.402 380.891,-730.509"/>
</g>
<!-- Node8&#45;&gt;Node5 -->
<g id="edge14" class="edge"><title>Node8&#45;&gt;Node5</title>
<path fill="none" stroke="#9a32cd" stroke-dasharray="5,2" d="M194.921,-421.321C178.489,-381.293 141.674,-291.616 129.214,-261.266"/>
<polygon fill="#9a32cd" stroke="#9a32cd" points="191.771,-422.863 198.806,-430.785 198.246,-420.205 191.771,-422.863"/>
<text text-anchor="middle" x="302.5" y="-403" font-family="FreeSans" font-size="10.00"> LeftButtonReleaseEvtRelay</text>
<text text-anchor="middle" x="302.5" y="-391" font-family="FreeSans" font-size="10.00">KeyPressEvtRelay</text>
<text text-anchor="middle" x="302.5" y="-379" font-family="FreeSans" font-size="10.00">DomainModifiedEvtRelay</text>
<text text-anchor="middle" x="302.5" y="-367" font-family="FreeSans" font-size="10.00">VolumeMapperComputeGradientsStartEvtRelay</text>
<text text-anchor="middle" x="302.5" y="-355" font-family="FreeSans" font-size="10.00">ErrorEvtRelay</text>
<text text-anchor="middle" x="302.5" y="-343" font-family="FreeSans" font-size="10.00">VolumeMapperRenderStartEvtRelay</text>
<text text-anchor="middle" x="302.5" y="-331" font-family="FreeSans" font-size="10.00">StartEvtRelay</text>
<text text-anchor="middle" x="302.5" y="-319" font-family="FreeSans" font-size="10.00">ResetCameraEvtRelay</text>
<text text-anchor="middle" x="302.5" y="-307" font-family="FreeSans" font-size="10.00">EnableEvtRelay</text>
<text text-anchor="middle" x="302.5" y="-295" font-family="FreeSans" font-size="10.00">DeleteEvtRelay</text>
<text text-anchor="middle" x="302.5" y="-283" font-family="FreeSans" font-size="10.00">...</text>
</g>
<!-- Node8&#45;&gt;Node9 -->
<g id="edge22" class="edge"><title>Node8&#45;&gt;Node9</title>
<path fill="none" stroke="#9a32cd" stroke-dasharray="5,2" d="M200.028,-461.231C199.649,-464.169 199.293,-467.159 199,-470 193.144,-526.853 189.636,-595.333 188.452,-620.807"/>
<polygon fill="#9a32cd" stroke="#9a32cd" points="203.515,-461.565 201.421,-451.179 196.582,-460.604 203.515,-461.565"/>
<text text-anchor="middle" x="312.5" y="-593" font-family="FreeSans" font-size="10.00"> LeftButtonReleaseEvtRelay</text>
<text text-anchor="middle" x="312.5" y="-581" font-family="FreeSans" font-size="10.00">KeyPressEvtRelay</text>
<text text-anchor="middle" x="312.5" y="-569" font-family="FreeSans" font-size="10.00">DomainModifiedEvtRelay</text>
<text text-anchor="middle" x="312.5" y="-557" font-family="FreeSans" font-size="10.00">VolumeMapperComputeGradientsStartEvtRelay</text>
<text text-anchor="middle" x="312.5" y="-545" font-family="FreeSans" font-size="10.00">ErrorEvtRelay</text>
<text text-anchor="middle" x="312.5" y="-533" font-family="FreeSans" font-size="10.00">VolumeMapperRenderStartEvtRelay</text>
<text text-anchor="middle" x="312.5" y="-521" font-family="FreeSans" font-size="10.00">StartEvtRelay</text>
<text text-anchor="middle" x="312.5" y="-509" font-family="FreeSans" font-size="10.00">ResetCameraEvtRelay</text>
<text text-anchor="middle" x="312.5" y="-497" font-family="FreeSans" font-size="10.00">EnableEvtRelay</text>
<text text-anchor="middle" x="312.5" y="-485" font-family="FreeSans" font-size="10.00">DeleteEvtRelay</text>
<text text-anchor="middle" x="312.5" y="-473" font-family="FreeSans" font-size="10.00">...</text>
</g>
<!-- Node9&#45;&gt;Node8 -->
<g id="edge18" class="edge"><title>Node9&#45;&gt;Node8</title>
<path fill="none" stroke="#9a32cd" stroke-dasharray="5,2" d="M141.979,-615.818C136.439,-612.138 131.51,-607.596 128,-602 96.8229,-552.303 94.8299,-518.389 128,-470 132.736,-463.091 149.511,-456.287 165.999,-451.008"/>
<polygon fill="#9a32cd" stroke="#9a32cd" points="140.639,-619.079 151.072,-620.919 144.064,-612.974 140.639,-619.079"/>
<text text-anchor="middle" x="152" y="-539" font-family="FreeSans" font-size="10.00"> Sender</text>
<text text-anchor="middle" x="152" y="-527" font-family="FreeSans" font-size="10.00">EventImpl</text>
</g>
</g>
</svg>
