<?xml version="1.0" encoding="UTF-8" standalone="no"?>
<!DOCTYPE svg PUBLIC "-//W3C//DTD SVG 1.1//EN"
 "http://www.w3.org/Graphics/SVG/1.1/DTD/svg11.dtd">
<!-- Generated by graphviz version 2.26.3 (20100126.1600)
 -->
<!-- Title: G Pages: 1 -->
<svg width="246pt" height="204pt"
 viewBox="0.00 0.00 246.00 204.00" xmlns="http://www.w3.org/2000/svg" xmlns:xlink="http://www.w3.org/1999/xlink">
<g id="graph1" class="graph" transform="scale(1 1) rotate(0) translate(4 200)">
<title>G</title>
<!-- Node1 -->
<g id="node1" class="node"><title>Node1</title>
<polygon fill="#bfbfbf" stroke="black" points="-0.5,-1 -0.5,-21 238.5,-21 238.5,-1 -0.5,-1"/>
<text text-anchor="middle" x="119" y="-8" font-family="FreeSans" font-size="10.00">Kitware.VTK.vtkGenericVertexAttributeMapping</text>
</g>
<!-- Node2 -->
<g id="node2" class="node"><title>Node2</title>
<a xlink:href="class_kitware_1_1_v_t_k_1_1vtk_object.html" target="_top" xlink:title="vtkObject &#45; abstract base class for most VTK objects">
<polygon fill="none" stroke="black" points="88,-59 88,-79 150,-79 150,-59 88,-59"/>
<text text-anchor="middle" x="119" y="-66" font-family="FreeSans" font-size="10.00">vtkObject</text>
</a>
</g>
<!-- Node2&#45;&gt;Node1 -->
<g id="edge2" class="edge"><title>Node2&#45;&gt;Node1</title>
<path fill="none" stroke="midnightblue" d="M119,-48.8902C119,-39.6201 119,-29.0083 119,-21.3776"/>
<polygon fill="midnightblue" stroke="midnightblue" points="115.5,-48.8971 119,-58.8972 122.5,-48.8972 115.5,-48.8971"/>
</g>
<!-- Node3 -->
<g id="node4" class="node"><title>Node3</title>
<a xlink:href="class_kitware_1_1_v_t_k_1_1vtk_object_base.html" target="_top" xlink:title="vtkObjectBase &#45; abstract base class for most VTK objects">
<polygon fill="none" stroke="black" points="76,-117 76,-137 162,-137 162,-117 76,-117"/>
<text text-anchor="middle" x="119" y="-124" font-family="FreeSans" font-size="10.00">vtkObjectBase</text>
</a>
</g>
<!-- Node3&#45;&gt;Node2 -->
<g id="edge4" class="edge"><title>Node3&#45;&gt;Node2</title>
<path fill="none" stroke="midnightblue" d="M119,-106.89C119,-97.6201 119,-87.0083 119,-79.3776"/>
<polygon fill="midnightblue" stroke="midnightblue" points="115.5,-106.897 119,-116.897 122.5,-106.897 115.5,-106.897"/>
</g>
<!-- Node4 -->
<g id="node6" class="node"><title>Node4</title>
<a xlink:href="class_kitware_1_1_v_t_k_1_1_wrapped_object.html" target="_top" xlink:title="Base class for all the mummy wrapped classes in Kitware.VTK.">
<polygon fill="none" stroke="black" points="74.5,-175 74.5,-195 163.5,-195 163.5,-175 74.5,-175"/>
<text text-anchor="middle" x="119" y="-182" font-family="FreeSans" font-size="10.00">WrappedObject</text>
</a>
</g>
<!-- Node4&#45;&gt;Node3 -->
<g id="edge6" class="edge"><title>Node4&#45;&gt;Node3</title>
<path fill="none" stroke="midnightblue" d="M119,-164.89C119,-155.62 119,-145.008 119,-137.378"/>
<polygon fill="midnightblue" stroke="midnightblue" points="115.5,-164.897 119,-174.897 122.5,-164.897 115.5,-164.897"/>
</g>
</g>
</svg>
