<?xml version="1.0" encoding="UTF-8" standalone="no"?>
<!DOCTYPE svg PUBLIC "-//W3C//DTD SVG 1.1//EN"
 "http://www.w3.org/Graphics/SVG/1.1/DTD/svg11.dtd">
<!-- Generated by graphviz version 2.26.3 (20100126.1600)
 -->
<!-- Title: G Pages: 1 -->
<svg width="1214pt" height="104pt"
 viewBox="0.00 0.00 1214.00 104.00" xmlns="http://www.w3.org/2000/svg" xmlns:xlink="http://www.w3.org/1999/xlink">
<g id="graph1" class="graph" transform="scale(1 1) rotate(0) translate(4 100)">
<title>G</title>
<!-- Node1 -->
<g id="node1" class="node"><title>Node1</title>
<polygon fill="#bfbfbf" stroke="black" points="730,-38 730,-58 952,-58 952,-38 730,-38"/>
<text text-anchor="middle" x="841" y="-45" font-family="FreeSans" font-size="10.00">Kitware.VTK.vtkXMLPStructuredDataReader</text>
</g>
<!-- Node8 -->
<g id="node15" class="node"><title>Node8</title>
<a xlink:href="class_kitware_1_1_v_t_k_1_1vtk_x_m_l_p_image_data_reader.html" target="_top" xlink:title="vtkXMLPImageDataReader &#45; Read PVTK XML ImageData files.">
<polygon fill="none" stroke="black" points="996.5,-76 996.5,-96 1197.5,-96 1197.5,-76 996.5,-76"/>
<text text-anchor="middle" x="1097" y="-83" font-family="FreeSans" font-size="10.00">Kitware.VTK.vtkXMLPImageDataReader</text>
</a>
</g>
<!-- Node1&#45;&gt;Node8 -->
<g id="edge14" class="edge"><title>Node1&#45;&gt;Node8</title>
<path fill="none" stroke="midnightblue" d="M918.86,-59.5573C954.16,-64.7972 995.503,-70.934 1029.47,-75.976"/>
<polygon fill="midnightblue" stroke="midnightblue" points="919.001,-56.0401 908.596,-58.0338 917.974,-62.9642 919.001,-56.0401"/>
</g>
<!-- Node9 -->
<g id="node17" class="node"><title>Node9</title>
<a xlink:href="class_kitware_1_1_v_t_k_1_1vtk_x_m_l_p_rectilinear_grid_reader.html" target="_top" xlink:title="vtkXMLPRectilinearGridReader &#45; Read PVTK XML RectilinearGrid files.">
<polygon fill="none" stroke="black" points="989,-38 989,-58 1205,-58 1205,-38 989,-38"/>
<text text-anchor="middle" x="1097" y="-45" font-family="FreeSans" font-size="10.00">Kitware.VTK.vtkXMLPRectilinearGridReader</text>
</a>
</g>
<!-- Node1&#45;&gt;Node9 -->
<g id="edge16" class="edge"><title>Node1&#45;&gt;Node9</title>
<path fill="none" stroke="midnightblue" d="M962.454,-48C971.24,-48 980.068,-48 988.771,-48"/>
<polygon fill="midnightblue" stroke="midnightblue" points="962.168,-44.5001 952.168,-48 962.168,-51.5001 962.168,-44.5001"/>
</g>
<!-- Node10 -->
<g id="node19" class="node"><title>Node10</title>
<a xlink:href="class_kitware_1_1_v_t_k_1_1vtk_x_m_l_p_structured_grid_reader.html" target="_top" xlink:title="vtkXMLPStructuredGridReader &#45; Read PVTK XML StructuredGrid files.">
<polygon fill="none" stroke="black" points="988,-0 988,-20 1206,-20 1206,-0 988,-0"/>
<text text-anchor="middle" x="1097" y="-7" font-family="FreeSans" font-size="10.00">Kitware.VTK.vtkXMLPStructuredGridReader</text>
</a>
</g>
<!-- Node1&#45;&gt;Node10 -->
<g id="edge18" class="edge"><title>Node1&#45;&gt;Node10</title>
<path fill="none" stroke="midnightblue" d="M918.86,-36.4427C954.16,-31.2028 995.503,-25.066 1029.47,-20.024"/>
<polygon fill="midnightblue" stroke="midnightblue" points="917.974,-33.0358 908.596,-37.9662 919.001,-39.9599 917.974,-33.0358"/>
</g>
<!-- Node2 -->
<g id="node2" class="node"><title>Node2</title>
<a xlink:href="class_kitware_1_1_v_t_k_1_1vtk_x_m_l_p_data_reader.html" target="_top" xlink:title="vtkXMLPDataReader &#45; Superclass for PVTK XML file readers.">
<polygon fill="none" stroke="black" points="580.5,-38 580.5,-58 693.5,-58 693.5,-38 580.5,-38"/>
<text text-anchor="middle" x="637" y="-45" font-family="FreeSans" font-size="10.00">vtkXMLPDataReader</text>
</a>
</g>
<!-- Node2&#45;&gt;Node1 -->
<g id="edge2" class="edge"><title>Node2&#45;&gt;Node1</title>
<path fill="none" stroke="midnightblue" d="M703.695,-48C712.174,-48 721.025,-48 729.969,-48"/>
<polygon fill="midnightblue" stroke="midnightblue" points="703.554,-44.5001 693.554,-48 703.554,-51.5001 703.554,-44.5001"/>
</g>
<!-- Node3 -->
<g id="node4" class="node"><title>Node3</title>
<a xlink:href="class_kitware_1_1_v_t_k_1_1vtk_x_m_l_reader.html" target="_top" xlink:title="vtkXMLReader &#45; Superclass for VTK&#39;s XML format readers.">
<polygon fill="none" stroke="black" points="460.5,-38 460.5,-58 543.5,-58 543.5,-38 460.5,-38"/>
<text text-anchor="middle" x="502" y="-45" font-family="FreeSans" font-size="10.00">vtkXMLReader</text>
</a>
</g>
<!-- Node3&#45;&gt;Node2 -->
<g id="edge4" class="edge"><title>Node3&#45;&gt;Node2</title>
<path fill="none" stroke="midnightblue" d="M553.66,-48C562.403,-48 571.523,-48 580.385,-48"/>
<polygon fill="midnightblue" stroke="midnightblue" points="553.606,-44.5001 543.606,-48 553.606,-51.5001 553.606,-44.5001"/>
</g>
<!-- Node4 -->
<g id="node6" class="node"><title>Node4</title>
<a xlink:href="class_kitware_1_1_v_t_k_1_1vtk_algorithm.html" target="_top" xlink:title="vtkAlgorithm &#45; Superclass for all sources, filters, and sinks in VTK.">
<polygon fill="none" stroke="black" points="346.5,-38 346.5,-58 423.5,-58 423.5,-38 346.5,-38"/>
<text text-anchor="middle" x="385" y="-45" font-family="FreeSans" font-size="10.00">vtkAlgorithm</text>
</a>
</g>
<!-- Node4&#45;&gt;Node3 -->
<g id="edge6" class="edge"><title>Node4&#45;&gt;Node3</title>
<path fill="none" stroke="midnightblue" d="M433.756,-48C442.538,-48 451.621,-48 460.184,-48"/>
<polygon fill="midnightblue" stroke="midnightblue" points="433.634,-44.5001 423.634,-48 433.634,-51.5001 433.634,-44.5001"/>
</g>
<!-- Node5 -->
<g id="node8" class="node"><title>Node5</title>
<a xlink:href="class_kitware_1_1_v_t_k_1_1vtk_object.html" target="_top" xlink:title="vtkObject &#45; abstract base class for most VTK objects">
<polygon fill="none" stroke="black" points="248,-38 248,-58 310,-58 310,-38 248,-38"/>
<text text-anchor="middle" x="279" y="-45" font-family="FreeSans" font-size="10.00">vtkObject</text>
</a>
</g>
<!-- Node5&#45;&gt;Node4 -->
<g id="edge8" class="edge"><title>Node5&#45;&gt;Node4</title>
<path fill="none" stroke="midnightblue" d="M320.421,-48C329.001,-48 338.007,-48 346.479,-48"/>
<polygon fill="midnightblue" stroke="midnightblue" points="320.23,-44.5001 310.23,-48 320.23,-51.5001 320.23,-44.5001"/>
</g>
<!-- Node6 -->
<g id="node10" class="node"><title>Node6</title>
<a xlink:href="class_kitware_1_1_v_t_k_1_1vtk_object_base.html" target="_top" xlink:title="vtkObjectBase &#45; abstract base class for most VTK objects">
<polygon fill="none" stroke="black" points="126,-38 126,-58 212,-58 212,-38 126,-38"/>
<text text-anchor="middle" x="169" y="-45" font-family="FreeSans" font-size="10.00">vtkObjectBase</text>
</a>
</g>
<!-- Node6&#45;&gt;Node5 -->
<g id="edge10" class="edge"><title>Node6&#45;&gt;Node5</title>
<path fill="none" stroke="midnightblue" d="M222.346,-48C231.091,-48 239.892,-48 247.863,-48"/>
<polygon fill="midnightblue" stroke="midnightblue" points="222.159,-44.5001 212.159,-48 222.159,-51.5001 222.159,-44.5001"/>
</g>
<!-- Node7 -->
<g id="node12" class="node"><title>Node7</title>
<a xlink:href="class_kitware_1_1_v_t_k_1_1_wrapped_object.html" target="_top" xlink:title="Base class for all the mummy wrapped classes in Kitware.VTK.">
<polygon fill="none" stroke="black" points="0.5,-38 0.5,-58 89.5,-58 89.5,-38 0.5,-38"/>
<text text-anchor="middle" x="45" y="-45" font-family="FreeSans" font-size="10.00">WrappedObject</text>
</a>
</g>
<!-- Node7&#45;&gt;Node6 -->
<g id="edge12" class="edge"><title>Node7&#45;&gt;Node6</title>
<path fill="none" stroke="midnightblue" d="M99.8895,-48C108.623,-48 117.548,-48 125.957,-48"/>
<polygon fill="midnightblue" stroke="midnightblue" points="99.7669,-44.5001 89.7668,-48 99.7668,-51.5001 99.7669,-44.5001"/>
</g>
</g>
</svg>
