<?xml version="1.0" encoding="UTF-8" standalone="no"?>
<!DOCTYPE svg PUBLIC "-//W3C//DTD SVG 1.1//EN"
 "http://www.w3.org/Graphics/SVG/1.1/DTD/svg11.dtd">
<!-- Generated by graphviz version 2.26.3 (20100126.1600)
 -->
<!-- Title: G Pages: 1 -->
<svg width="1682pt" height="788pt"
 viewBox="0.00 0.00 1682.00 788.00" xmlns="http://www.w3.org/2000/svg" xmlns:xlink="http://www.w3.org/1999/xlink">
<g id="graph1" class="graph" transform="scale(1 1) rotate(0) translate(4 784)">
<title>G</title>
<!-- Node1 -->
<g id="node1" class="node"><title>Node1</title>
<polygon fill="#bfbfbf" stroke="black" points="460,-508 460,-528 618,-528 618,-508 460,-508"/>
<text text-anchor="middle" x="539" y="-515" font-family="FreeSans" font-size="10.00">Kitware.VTK.vtkProcessObject</text>
</g>
<!-- Node6 -->
<g id="node11" class="node"><title>Node6</title>
<a xlink:href="class_kitware_1_1_v_t_k_1_1vtk_generic_movie_writer.html" target="_top" xlink:title="vtkGenericMovieWriter &#45; an abstract movie writer class.">
<polygon fill="none" stroke="black" points="654.5,-603 654.5,-623 835.5,-623 835.5,-603 654.5,-603"/>
<text text-anchor="middle" x="745" y="-610" font-family="FreeSans" font-size="10.00">Kitware.VTK.vtkGenericMovieWriter</text>
</a>
</g>
<!-- Node1&#45;&gt;Node6 -->
<g id="edge10" class="edge"><title>Node1&#45;&gt;Node6</title>
<path fill="none" stroke="midnightblue" d="M570.286,-532.428C612.448,-551.872 686.436,-585.992 723.113,-602.906"/>
<polygon fill="midnightblue" stroke="midnightblue" points="571.592,-529.176 561.046,-528.167 568.661,-535.533 571.592,-529.176"/>
</g>
<!-- Node8 -->
<g id="node15" class="node"><title>Node8</title>
<a xlink:href="class_kitware_1_1_v_t_k_1_1vtk_source.html" target="_top" xlink:title="vtkSource &#45; abstract class specifies interface for visualization network source">
<polygon fill="none" stroke="black" points="683.5,-489 683.5,-509 806.5,-509 806.5,-489 683.5,-489"/>
<text text-anchor="middle" x="745" y="-496" font-family="FreeSans" font-size="10.00">Kitware.VTK.vtkSource</text>
</a>
</g>
<!-- Node1&#45;&gt;Node8 -->
<g id="edge14" class="edge"><title>Node1&#45;&gt;Node8</title>
<path fill="none" stroke="midnightblue" d="M628.05,-509.787C646.725,-508.064 666.024,-506.284 683.429,-504.679"/>
<polygon fill="midnightblue" stroke="midnightblue" points="627.692,-506.305 618.056,-510.708 628.335,-513.275 627.692,-506.305"/>
</g>
<!-- Node2 -->
<g id="node2" class="node"><title>Node2</title>
<a xlink:href="class_kitware_1_1_v_t_k_1_1vtk_algorithm.html" target="_top" xlink:title="vtkAlgorithm &#45; Superclass for all sources, filters, and sinks in VTK.">
<polygon fill="none" stroke="black" points="346.5,-508 346.5,-528 423.5,-528 423.5,-508 346.5,-508"/>
<text text-anchor="middle" x="385" y="-515" font-family="FreeSans" font-size="10.00">vtkAlgorithm</text>
</a>
</g>
<!-- Node2&#45;&gt;Node1 -->
<g id="edge2" class="edge"><title>Node2&#45;&gt;Node1</title>
<path fill="none" stroke="midnightblue" d="M434.037,-518C442.309,-518 451.079,-518 459.885,-518"/>
<polygon fill="midnightblue" stroke="midnightblue" points="433.861,-514.5 423.861,-518 433.861,-521.5 433.861,-514.5"/>
</g>
<!-- Node3 -->
<g id="node4" class="node"><title>Node3</title>
<a xlink:href="class_kitware_1_1_v_t_k_1_1vtk_object.html" target="_top" xlink:title="vtkObject &#45; abstract base class for most VTK objects">
<polygon fill="none" stroke="black" points="248,-508 248,-528 310,-528 310,-508 248,-508"/>
<text text-anchor="middle" x="279" y="-515" font-family="FreeSans" font-size="10.00">vtkObject</text>
</a>
</g>
<!-- Node3&#45;&gt;Node2 -->
<g id="edge4" class="edge"><title>Node3&#45;&gt;Node2</title>
<path fill="none" stroke="midnightblue" d="M320.421,-518C329.001,-518 338.007,-518 346.479,-518"/>
<polygon fill="midnightblue" stroke="midnightblue" points="320.23,-514.5 310.23,-518 320.23,-521.5 320.23,-514.5"/>
</g>
<!-- Node4 -->
<g id="node6" class="node"><title>Node4</title>
<a xlink:href="class_kitware_1_1_v_t_k_1_1vtk_object_base.html" target="_top" xlink:title="vtkObjectBase &#45; abstract base class for most VTK objects">
<polygon fill="none" stroke="black" points="126,-508 126,-528 212,-528 212,-508 126,-508"/>
<text text-anchor="middle" x="169" y="-515" font-family="FreeSans" font-size="10.00">vtkObjectBase</text>
</a>
</g>
<!-- Node4&#45;&gt;Node3 -->
<g id="edge6" class="edge"><title>Node4&#45;&gt;Node3</title>
<path fill="none" stroke="midnightblue" d="M222.346,-518C231.091,-518 239.892,-518 247.863,-518"/>
<polygon fill="midnightblue" stroke="midnightblue" points="222.159,-514.5 212.159,-518 222.159,-521.5 222.159,-514.5"/>
</g>
<!-- Node5 -->
<g id="node8" class="node"><title>Node5</title>
<a xlink:href="class_kitware_1_1_v_t_k_1_1_wrapped_object.html" target="_top" xlink:title="Base class for all the mummy wrapped classes in Kitware.VTK.">
<polygon fill="none" stroke="black" points="0.5,-508 0.5,-528 89.5,-528 89.5,-508 0.5,-508"/>
<text text-anchor="middle" x="45" y="-515" font-family="FreeSans" font-size="10.00">WrappedObject</text>
</a>
</g>
<!-- Node5&#45;&gt;Node4 -->
<g id="edge8" class="edge"><title>Node5&#45;&gt;Node4</title>
<path fill="none" stroke="midnightblue" d="M99.8895,-518C108.623,-518 117.548,-518 125.957,-518"/>
<polygon fill="midnightblue" stroke="midnightblue" points="99.7669,-514.5 89.7668,-518 99.7668,-521.5 99.7669,-514.5"/>
</g>
<!-- Node7 -->
<g id="node13" class="node"><title>Node7</title>
<a xlink:href="class_kitware_1_1_v_t_k_1_1vtk_f_f_m_p_e_g_writer.html" target="_top" xlink:title="vtkFFMPEGWriter &#45; Uses the FFMPEG library to write video files.">
<polygon fill="none" stroke="black" points="897.5,-745 897.5,-765 1052.5,-765 1052.5,-745 897.5,-745"/>
<text text-anchor="middle" x="975" y="-752" font-family="FreeSans" font-size="10.00">Kitware.VTK.vtkFFMPEGWriter</text>
</a>
</g>
<!-- Node6&#45;&gt;Node7 -->
<g id="edge12" class="edge"><title>Node6&#45;&gt;Node7</title>
<path fill="none" stroke="midnightblue" d="M758.431,-631.71C779.348,-659.326 822.485,-710.479 872,-736 879.92,-740.082 888.581,-743.298 897.411,-745.829"/>
<polygon fill="midnightblue" stroke="midnightblue" points="760.978,-629.269 752.212,-623.318 755.354,-633.436 760.978,-629.269"/>
</g>
<!-- Node9 -->
<g id="node17" class="node"><title>Node9</title>
<a xlink:href="class_kitware_1_1_v_t_k_1_1vtk_data_object_source.html" target="_top" xlink:title="vtkDataObjectSource &#45; abstract class specifies interface for field source (or objects that generate f...">
<polygon fill="none" stroke="black" points="886.5,-707 886.5,-727 1063.5,-727 1063.5,-707 886.5,-707"/>
<text text-anchor="middle" x="975" y="-714" font-family="FreeSans" font-size="10.00">Kitware.VTK.vtkDataObjectSource</text>
</a>
</g>
<!-- Node8&#45;&gt;Node9 -->
<g id="edge16" class="edge"><title>Node8&#45;&gt;Node9</title>
<path fill="none" stroke="midnightblue" d="M765.433,-515.628C785.838,-533.198 816.844,-562.656 836,-594 861.507,-635.736 834.906,-666.117 872,-698 876.275,-701.674 881.025,-704.737 886.072,-707.283"/>
<polygon fill="midnightblue" stroke="midnightblue" points="767.561,-512.844 757.662,-509.069 763.047,-518.194 767.561,-512.844"/>
</g>
<!-- Node10 -->
<g id="node19" class="node"><title>Node10</title>
<a xlink:href="class_kitware_1_1_v_t_k_1_1vtk_data_set_source.html" target="_top" xlink:title="vtkDataSetSource &#45; abstract class whose subclasses generate datasets">
<polygon fill="none" stroke="black" points="893.5,-669 893.5,-689 1056.5,-689 1056.5,-669 893.5,-669"/>
<text text-anchor="middle" x="975" y="-676" font-family="FreeSans" font-size="10.00">Kitware.VTK.vtkDataSetSource</text>
</a>
</g>
<!-- Node8&#45;&gt;Node10 -->
<g id="edge18" class="edge"><title>Node8&#45;&gt;Node10</title>
<path fill="none" stroke="midnightblue" d="M764.063,-516.036C783.622,-534.133 814.192,-564.191 836,-594 855.729,-620.967 844.941,-640.398 872,-660 878.479,-664.694 885.774,-668.335 893.413,-671.148"/>
<polygon fill="midnightblue" stroke="midnightblue" points="766.401,-513.43 756.657,-509.269 761.679,-518.598 766.401,-513.43"/>
</g>
<!-- Node12 -->
<g id="node23" class="node"><title>Node12</title>
<a xlink:href="class_kitware_1_1_v_t_k_1_1vtk_image_source.html" target="_top" xlink:title="vtkImageSource &#45; Source of data for the imaging pipeline">
<polygon fill="none" stroke="black" points="898.5,-631 898.5,-651 1051.5,-651 1051.5,-631 898.5,-631"/>
<text text-anchor="middle" x="975" y="-638" font-family="FreeSans" font-size="10.00">Kitware.VTK.vtkImageSource</text>
</a>
</g>
<!-- Node8&#45;&gt;Node12 -->
<g id="edge22" class="edge"><title>Node8&#45;&gt;Node12</title>
<path fill="none" stroke="midnightblue" d="M764.372,-515.574C788.512,-535.725 831.533,-570.008 872,-594 897.023,-608.836 927.539,-622.226 948.833,-630.884"/>
<polygon fill="midnightblue" stroke="midnightblue" points="766.559,-512.841 756.655,-509.076 762.05,-518.195 766.559,-512.841"/>
</g>
<!-- Node19 -->
<g id="node37" class="node"><title>Node19</title>
<a xlink:href="class_kitware_1_1_v_t_k_1_1vtk_point_set_source.html" target="_top" xlink:title="vtkPointSetSource &#45; abstract class whose subclasses generate point data">
<polygon fill="none" stroke="black" points="893,-565 893,-585 1057,-585 1057,-565 893,-565"/>
<text text-anchor="middle" x="975" y="-572" font-family="FreeSans" font-size="10.00">Kitware.VTK.vtkPointSetSource</text>
</a>
</g>
<!-- Node8&#45;&gt;Node19 -->
<g id="edge36" class="edge"><title>Node8&#45;&gt;Node19</title>
<path fill="none" stroke="midnightblue" d="M785.083,-512.245C830.565,-527.274 903.726,-551.449 944.698,-564.987"/>
<polygon fill="midnightblue" stroke="midnightblue" points="786.135,-508.907 775.542,-509.092 783.939,-515.553 786.135,-508.907"/>
</g>
<!-- Node21 -->
<g id="node41" class="node"><title>Node21</title>
<a xlink:href="class_kitware_1_1_v_t_k_1_1vtk_poly_data_source.html" target="_top" xlink:title="vtkPolyDataSource &#45; abstract class whose subclasses generate polygonal data">
<polygon fill="none" stroke="black" points="892,-470 892,-490 1058,-490 1058,-470 892,-470"/>
<text text-anchor="middle" x="975" y="-477" font-family="FreeSans" font-size="10.00">Kitware.VTK.vtkPolyDataSource</text>
</a>
</g>
<!-- Node8&#45;&gt;Node21 -->
<g id="edge40" class="edge"><title>Node8&#45;&gt;Node21</title>
<path fill="none" stroke="midnightblue" d="M816.674,-493.079C840.548,-491.107 867.339,-488.894 891.998,-486.857"/>
<polygon fill="midnightblue" stroke="midnightblue" points="816.314,-489.597 806.636,-493.908 816.89,-496.573 816.314,-489.597"/>
</g>
<!-- Node29 -->
<g id="node57" class="node"><title>Node29</title>
<a xlink:href="class_kitware_1_1_v_t_k_1_1vtk_rectilinear_grid_source.html" target="_top" xlink:title="vtkRectilinearGridSource &#45; Abstract class whose subclasses generates rectilinear grid data...">
<polygon fill="none" stroke="black" points="879.5,-375 879.5,-395 1070.5,-395 1070.5,-375 879.5,-375"/>
<text text-anchor="middle" x="975" y="-382" font-family="FreeSans" font-size="10.00">Kitware.VTK.vtkRectilinearGridSource</text>
</a>
</g>
<!-- Node8&#45;&gt;Node29 -->
<g id="edge56" class="edge"><title>Node8&#45;&gt;Node29</title>
<path fill="none" stroke="midnightblue" d="M774.546,-484.355C821.96,-460.855 913.84,-415.314 954.635,-395.094"/>
<polygon fill="midnightblue" stroke="midnightblue" points="772.816,-481.306 765.411,-488.883 775.925,-487.578 772.816,-481.306"/>
</g>
<!-- Node31 -->
<g id="node61" class="node"><title>Node31</title>
<a xlink:href="class_kitware_1_1_v_t_k_1_1vtk_structured_grid_source.html" target="_top" xlink:title="vtkStructuredGridSource &#45; Abstract class whose subclasses generates structured grid data...">
<polygon fill="none" stroke="black" points="878,-247 878,-267 1072,-267 1072,-247 878,-247"/>
<text text-anchor="middle" x="975" y="-254" font-family="FreeSans" font-size="10.00">Kitware.VTK.vtkStructuredGridSource</text>
</a>
</g>
<!-- Node8&#45;&gt;Node31 -->
<g id="edge60" class="edge"><title>Node8&#45;&gt;Node31</title>
<path fill="none" stroke="midnightblue" d="M761.579,-481.556C806.567,-434.221 929.939,-304.412 965.369,-267.133"/>
<polygon fill="midnightblue" stroke="midnightblue" points="758.942,-479.25 754.59,-488.91 764.016,-484.072 758.942,-479.25"/>
</g>
<!-- Node35 -->
<g id="node69" class="node"><title>Node35</title>
<a xlink:href="class_kitware_1_1_v_t_k_1_1vtk_structured_points_source.html" target="_top" xlink:title="vtkStructuredPointsSource &#45; Abstract class whose subclasses generates structured Points data...">
<polygon fill="none" stroke="black" points="873.5,-152 873.5,-172 1076.5,-172 1076.5,-152 873.5,-152"/>
<text text-anchor="middle" x="975" y="-159" font-family="FreeSans" font-size="10.00">Kitware.VTK.vtkStructuredPointsSource</text>
</a>
</g>
<!-- Node8&#45;&gt;Node35 -->
<g id="edge68" class="edge"><title>Node8&#45;&gt;Node35</title>
<path fill="none" stroke="midnightblue" d="M751.018,-479.064C765.724,-432.769 807.1,-315.999 872,-238 896.164,-208.959 933.656,-184.974 956.119,-172.136"/>
<polygon fill="midnightblue" stroke="midnightblue" points="747.623,-478.195 747.997,-488.783 754.307,-480.273 747.623,-478.195"/>
</g>
<!-- Node38 -->
<g id="node75" class="node"><title>Node38</title>
<a xlink:href="class_kitware_1_1_v_t_k_1_1vtk_unstructured_grid_source.html" target="_top" xlink:title="vtkUnstructuredGridSource &#45; abstract class whose subclasses generate unstructured grid data...">
<polygon fill="none" stroke="black" points="872,-57 872,-77 1078,-77 1078,-57 872,-57"/>
<text text-anchor="middle" x="975" y="-64" font-family="FreeSans" font-size="10.00">Kitware.VTK.vtkUnstructuredGridSource</text>
</a>
</g>
<!-- Node8&#45;&gt;Node38 -->
<g id="edge74" class="edge"><title>Node8&#45;&gt;Node38</title>
<path fill="none" stroke="midnightblue" d="M747.93,-478.979C757.156,-421.559 790.011,-253.376 872,-143 894.263,-113.029 931.664,-89.6647 954.747,-77.143"/>
<polygon fill="midnightblue" stroke="midnightblue" points="744.46,-478.519 746.392,-488.936 751.378,-479.588 744.46,-478.519"/>
</g>
<!-- Node11 -->
<g id="node21" class="node"><title>Node11</title>
<a xlink:href="class_kitware_1_1_v_t_k_1_1vtk_data_set_to_data_set_filter.html" target="_top" xlink:title="vtkDataSetToDataSetFilter &#45; abstract filter class">
<polygon fill="none" stroke="black" points="1157.5,-760 1157.5,-780 1358.5,-780 1358.5,-760 1157.5,-760"/>
<text text-anchor="middle" x="1258" y="-767" font-family="FreeSans" font-size="10.00">Kitware.VTK.vtkDataSetToDataSetFilter</text>
</a>
</g>
<!-- Node10&#45;&gt;Node11 -->
<g id="edge20" class="edge"><title>Node10&#45;&gt;Node11</title>
<path fill="none" stroke="midnightblue" d="M1066.02,-691.455C1070.19,-693.359 1074.21,-695.529 1078,-698 1101.85,-713.564 1089.76,-736.052 1114,-751 1127.09,-759.075 1142.12,-764.38 1157.42,-767.778"/>
<polygon fill="midnightblue" stroke="midnightblue" points="1067.24,-688.176 1056.66,-687.696 1064.63,-694.671 1067.24,-688.176"/>
</g>
<!-- Node13 -->
<g id="node25" class="node"><title>Node13</title>
<a xlink:href="class_kitware_1_1_v_t_k_1_1vtk_data_set_to_image_filter.html" target="_top" xlink:title="vtkDataSetToImageFilter &#45; abstract filter class">
<polygon fill="none" stroke="black" points="1162.5,-722 1162.5,-742 1353.5,-742 1353.5,-722 1162.5,-722"/>
<text text-anchor="middle" x="1258" y="-729" font-family="FreeSans" font-size="10.00">Kitware.VTK.vtkDataSetToImageFilter</text>
</a>
</g>
<!-- Node12&#45;&gt;Node13 -->
<g id="edge24" class="edge"><title>Node12&#45;&gt;Node13</title>
<path fill="none" stroke="midnightblue" d="M1061.12,-651.366C1067.05,-653.729 1072.75,-656.576 1078,-660 1101.85,-675.564 1089.76,-698.052 1114,-713 1128.49,-721.935 1145.35,-727.48 1162.32,-730.8"/>
<polygon fill="midnightblue" stroke="midnightblue" points="1062.22,-648.044 1051.63,-648.039 1059.91,-654.65 1062.22,-648.044"/>
</g>
<!-- Node14 -->
<g id="node27" class="node"><title>Node14</title>
<a xlink:href="class_kitware_1_1_v_t_k_1_1vtk_image_multiple_input_filter.html" target="_top" xlink:title="vtkImageMultipleInputFilter &#45; Generic filter that has N inputs.">
<polygon fill="none" stroke="black" points="1156.5,-684 1156.5,-704 1359.5,-704 1359.5,-684 1156.5,-684"/>
<text text-anchor="middle" x="1258" y="-691" font-family="FreeSans" font-size="10.00">Kitware.VTK.vtkImageMultipleInputFilter</text>
</a>
</g>
<!-- Node12&#45;&gt;Node14 -->
<g id="edge26" class="edge"><title>Node12&#45;&gt;Node14</title>
<path fill="none" stroke="midnightblue" d="M1051.05,-653.134C1060.2,-655.15 1069.36,-657.435 1078,-660 1094.62,-664.933 1097.26,-670.494 1114,-675 1127.51,-678.638 1141.94,-681.592 1156.24,-683.987"/>
<polygon fill="midnightblue" stroke="midnightblue" points="1051.66,-649.686 1041.16,-651.052 1050.22,-656.536 1051.66,-649.686"/>
</g>
<!-- Node17 -->
<g id="node33" class="node"><title>Node17</title>
<a xlink:href="class_kitware_1_1_v_t_k_1_1vtk_image_to_image_filter.html" target="_top" xlink:title="vtkImageToImageFilter &#45; Generic filter that has one input of type vtkImageData">
<polygon fill="none" stroke="black" points="1167,-646 1167,-666 1349,-666 1349,-646 1167,-646"/>
<text text-anchor="middle" x="1258" y="-653" font-family="FreeSans" font-size="10.00">Kitware.VTK.vtkImageToImageFilter</text>
</a>
</g>
<!-- Node12&#45;&gt;Node17 -->
<g id="edge32" class="edge"><title>Node12&#45;&gt;Node17</title>
<path fill="none" stroke="midnightblue" d="M1061.75,-645.598C1095.03,-647.362 1133.08,-649.379 1166.77,-651.164"/>
<polygon fill="midnightblue" stroke="midnightblue" points="1061.76,-642.094 1051.58,-645.059 1061.38,-649.084 1061.76,-642.094"/>
</g>
<!-- Node15 -->
<g id="node29" class="node"><title>Node15</title>
<a xlink:href="class_kitware_1_1_v_t_k_1_1vtk_image_multiple_input_output_filter.html" target="_top" xlink:title="vtkImageMultipleInputOutputFilter &#45; Generic filter that has N inputs.">
<polygon fill="none" stroke="black" points="1438,-722 1438,-742 1674,-742 1674,-722 1438,-722"/>
<text text-anchor="middle" x="1556" y="-729" font-family="FreeSans" font-size="10.00">Kitware.VTK.vtkImageMultipleInputOutputFilter</text>
</a>
</g>
<!-- Node14&#45;&gt;Node15 -->
<g id="edge28" class="edge"><title>Node14&#45;&gt;Node15</title>
<path fill="none" stroke="midnightblue" d="M1346.79,-705.322C1388.28,-710.613 1437.26,-716.858 1477.39,-721.976"/>
<polygon fill="midnightblue" stroke="midnightblue" points="1347.05,-701.827 1336.69,-704.034 1346.16,-708.771 1347.05,-701.827"/>
</g>
<!-- Node16 -->
<g id="node31" class="node"><title>Node16</title>
<a xlink:href="class_kitware_1_1_v_t_k_1_1vtk_image_two_input_filter.html" target="_top" xlink:title="vtkImageTwoInputFilter &#45; Generic superclass for filters that have two inputs.">
<polygon fill="none" stroke="black" points="1465,-684 1465,-704 1647,-704 1647,-684 1465,-684"/>
<text text-anchor="middle" x="1556" y="-691" font-family="FreeSans" font-size="10.00">Kitware.VTK.vtkImageTwoInputFilter</text>
</a>
</g>
<!-- Node14&#45;&gt;Node16 -->
<g id="edge30" class="edge"><title>Node14&#45;&gt;Node16</title>
<path fill="none" stroke="midnightblue" d="M1369.8,-694C1401.11,-694 1434.76,-694 1464.73,-694"/>
<polygon fill="midnightblue" stroke="midnightblue" points="1369.72,-690.5 1359.72,-694 1369.72,-697.5 1369.72,-690.5"/>
</g>
<!-- Node18 -->
<g id="node35" class="node"><title>Node18</title>
<a xlink:href="class_kitware_1_1_v_t_k_1_1vtk_image_spatial_filter.html" target="_top" xlink:title="vtkImageSpatialFilter &#45; Filters that operate on pixel neighborhoods.">
<polygon fill="none" stroke="black" points="1468.5,-646 1468.5,-666 1643.5,-666 1643.5,-646 1468.5,-646"/>
<text text-anchor="middle" x="1556" y="-653" font-family="FreeSans" font-size="10.00">Kitware.VTK.vtkImageSpatialFilter</text>
</a>
</g>
<!-- Node17&#45;&gt;Node18 -->
<g id="edge34" class="edge"><title>Node17&#45;&gt;Node18</title>
<path fill="none" stroke="midnightblue" d="M1359.38,-656C1394.77,-656 1434.16,-656 1468.34,-656"/>
<polygon fill="midnightblue" stroke="midnightblue" points="1359.03,-652.5 1349.03,-656 1359.03,-659.5 1359.03,-652.5"/>
</g>
<!-- Node20 -->
<g id="node39" class="node"><title>Node20</title>
<a xlink:href="class_kitware_1_1_v_t_k_1_1vtk_point_set_to_point_set_filter.html" target="_top" xlink:title="vtkPointSetToPointSetFilter &#45; abstract filter class">
<polygon fill="none" stroke="black" points="1156.5,-608 1156.5,-628 1359.5,-628 1359.5,-608 1156.5,-608"/>
<text text-anchor="middle" x="1258" y="-615" font-family="FreeSans" font-size="10.00">Kitware.VTK.vtkPointSetToPointSetFilter</text>
</a>
</g>
<!-- Node19&#45;&gt;Node20 -->
<g id="edge38" class="edge"><title>Node19&#45;&gt;Node20</title>
<path fill="none" stroke="midnightblue" d="M1040.15,-586.8C1063.42,-590.869 1089.85,-595.324 1114,-599 1134.57,-602.131 1156.83,-605.217 1177.57,-607.963"/>
<polygon fill="midnightblue" stroke="midnightblue" points="1040.5,-583.308 1030.05,-585.023 1039.29,-590.203 1040.5,-583.308"/>
</g>
<!-- Node22 -->
<g id="node43" class="node"><title>Node22</title>
<a xlink:href="class_kitware_1_1_v_t_k_1_1vtk_data_set_to_poly_data_filter.html" target="_top" xlink:title="vtkDataSetToPolyDataFilter &#45; abstract filter class">
<polygon fill="none" stroke="black" points="1156,-570 1156,-590 1360,-590 1360,-570 1156,-570"/>
<text text-anchor="middle" x="1258" y="-577" font-family="FreeSans" font-size="10.00">Kitware.VTK.vtkDataSetToPolyDataFilter</text>
</a>
</g>
<!-- Node21&#45;&gt;Node22 -->
<g id="edge42" class="edge"><title>Node21&#45;&gt;Node22</title>
<path fill="none" stroke="midnightblue" d="M996.4,-496.147C1022.62,-515.032 1069.12,-545.658 1114,-561 1127.24,-565.527 1141.51,-568.984 1155.74,-571.623"/>
<polygon fill="midnightblue" stroke="midnightblue" points="998.452,-493.312 988.315,-490.232 994.319,-498.961 998.452,-493.312"/>
</g>
<!-- Node23 -->
<g id="node45" class="node"><title>Node23</title>
<a xlink:href="class_kitware_1_1_v_t_k_1_1vtk_poly_data_to_poly_data_filter.html" target="_top" xlink:title="vtkPolyDataToPolyDataFilter &#45; abstract filter class">
<polygon fill="none" stroke="black" points="1154.5,-532 1154.5,-552 1361.5,-552 1361.5,-532 1154.5,-532"/>
<text text-anchor="middle" x="1258" y="-539" font-family="FreeSans" font-size="10.00">Kitware.VTK.vtkPolyDataToPolyDataFilter</text>
</a>
</g>
<!-- Node21&#45;&gt;Node23 -->
<g id="edge44" class="edge"><title>Node21&#45;&gt;Node23</title>
<path fill="none" stroke="midnightblue" d="M1012.27,-493.411C1040,-502.926 1078.95,-515.323 1114,-523 1130.13,-526.534 1147.44,-529.503 1164.26,-531.965"/>
<polygon fill="midnightblue" stroke="midnightblue" points="1013.18,-490.023 1002.59,-490.049 1010.88,-496.636 1013.18,-490.023"/>
</g>
<!-- Node24 -->
<g id="node47" class="node"><title>Node24</title>
<a xlink:href="class_kitware_1_1_v_t_k_1_1vtk_rectilinear_grid_to_poly_data_filter.html" target="_top" xlink:title="vtkRectilinearGridToPolyDataFilter &#45; abstract filter class">
<polygon fill="none" stroke="black" points="1141.5,-494 1141.5,-514 1374.5,-514 1374.5,-494 1141.5,-494"/>
<text text-anchor="middle" x="1258" y="-501" font-family="FreeSans" font-size="10.00">Kitware.VTK.vtkRectilinearGridToPolyDataFilter</text>
</a>
</g>
<!-- Node21&#45;&gt;Node24 -->
<g id="edge46" class="edge"><title>Node21&#45;&gt;Node24</title>
<path fill="none" stroke="midnightblue" d="M1068.58,-487.936C1091.88,-489.912 1117.15,-492.055 1141.41,-494.112"/>
<polygon fill="midnightblue" stroke="midnightblue" points="1068.64,-484.429 1058.38,-487.071 1068.05,-491.404 1068.64,-484.429"/>
</g>
<!-- Node25 -->
<g id="node49" class="node"><title>Node25</title>
<a xlink:href="class_kitware_1_1_v_t_k_1_1vtk_spatial_representation_filter.html" target="_top" xlink:title="vtkSpatialRepresentationFilter &#45; generate polygonal model of spatial search object (i...">
<polygon fill="none" stroke="black" points="1149.5,-456 1149.5,-476 1366.5,-476 1366.5,-456 1149.5,-456"/>
<text text-anchor="middle" x="1258" y="-463" font-family="FreeSans" font-size="10.00">Kitware.VTK.vtkSpatialRepresentationFilter</text>
</a>
</g>
<!-- Node21&#45;&gt;Node25 -->
<g id="edge48" class="edge"><title>Node21&#45;&gt;Node25</title>
<path fill="none" stroke="midnightblue" d="M1068.56,-475.372C1094.46,-474.09 1122.8,-472.688 1149.48,-471.368"/>
<polygon fill="midnightblue" stroke="midnightblue" points="1068.19,-471.885 1058.38,-475.875 1068.54,-478.877 1068.19,-471.885"/>
</g>
<!-- Node26 -->
<g id="node51" class="node"><title>Node26</title>
<a xlink:href="class_kitware_1_1_v_t_k_1_1vtk_structured_grid_to_poly_data_filter.html" target="_top" xlink:title="vtkStructuredGridToPolyDataFilter &#45; abstract filter class">
<polygon fill="none" stroke="black" points="1140.5,-418 1140.5,-438 1375.5,-438 1375.5,-418 1140.5,-418"/>
<text text-anchor="middle" x="1258" y="-425" font-family="FreeSans" font-size="10.00">Kitware.VTK.vtkStructuredGridToPolyDataFilter</text>
</a>
</g>
<!-- Node21&#45;&gt;Node26 -->
<g id="edge50" class="edge"><title>Node21&#45;&gt;Node26</title>
<path fill="none" stroke="midnightblue" d="M1022.41,-467.479C1049.16,-460.732 1083.29,-452.657 1114,-447 1132.35,-443.62 1152.13,-440.606 1170.97,-438.03"/>
<polygon fill="midnightblue" stroke="midnightblue" points="1021.36,-464.132 1012.54,-469.991 1023.09,-470.916 1021.36,-464.132"/>
</g>
<!-- Node27 -->
<g id="node53" class="node"><title>Node27</title>
<a xlink:href="class_kitware_1_1_v_t_k_1_1vtk_structured_points_to_poly_data_filter.html" target="_top" xlink:title="vtkStructuredPointsToPolyDataFilter &#45; abstract filter class">
<polygon fill="none" stroke="black" points="1135.5,-380 1135.5,-400 1380.5,-400 1380.5,-380 1135.5,-380"/>
<text text-anchor="middle" x="1258" y="-387" font-family="FreeSans" font-size="10.00">Kitware.VTK.vtkStructuredPointsToPolyDataFilter</text>
</a>
</g>
<!-- Node21&#45;&gt;Node27 -->
<g id="edge52" class="edge"><title>Node21&#45;&gt;Node27</title>
<path fill="none" stroke="midnightblue" d="M999.22,-464.378C1026.13,-447.814 1071.41,-422.254 1114,-409 1125.68,-405.366 1138.1,-402.427 1150.56,-400.05"/>
<polygon fill="midnightblue" stroke="midnightblue" points="997.128,-461.558 990.503,-469.826 1000.84,-467.494 997.128,-461.558"/>
</g>
<!-- Node28 -->
<g id="node55" class="node"><title>Node28</title>
<a xlink:href="class_kitware_1_1_v_t_k_1_1vtk_unstructured_grid_to_poly_data_filter.html" target="_top" xlink:title="vtkUnstructuredGridToPolyDataFilter &#45; abstract filter class">
<polygon fill="none" stroke="black" points="1134.5,-342 1134.5,-362 1381.5,-362 1381.5,-342 1134.5,-342"/>
<text text-anchor="middle" x="1258" y="-349" font-family="FreeSans" font-size="10.00">Kitware.VTK.vtkUnstructuredGridToPolyDataFilter</text>
</a>
</g>
<!-- Node21&#45;&gt;Node28 -->
<g id="edge54" class="edge"><title>Node21&#45;&gt;Node28</title>
<path fill="none" stroke="midnightblue" d="M998.081,-464.033C1019.31,-449.1 1051.43,-425.877 1078,-404 1094.76,-390.204 1094.33,-380.178 1114,-371 1121.66,-367.428 1129.77,-364.466 1138.1,-362.014"/>
<polygon fill="midnightblue" stroke="midnightblue" points="995.885,-461.297 989.697,-469.897 999.897,-467.033 995.885,-461.297"/>
</g>
<!-- Node30 -->
<g id="node59" class="node"><title>Node30</title>
<a xlink:href="class_kitware_1_1_v_t_k_1_1vtk_s_e_s_a_m_e_reader.html" target="_top" xlink:title="vtkSESAMEReader &#45; read SESAME files">
<polygon fill="none" stroke="black" points="1176.5,-304 1176.5,-324 1339.5,-324 1339.5,-304 1176.5,-304"/>
<text text-anchor="middle" x="1258" y="-311" font-family="FreeSans" font-size="10.00">Kitware.VTK.vtkSESAMEReader</text>
</a>
</g>
<!-- Node29&#45;&gt;Node30 -->
<g id="edge58" class="edge"><title>Node29&#45;&gt;Node30</title>
<path fill="none" stroke="midnightblue" d="M1006.33,-370.939C1034.09,-359.053 1075.98,-342.488 1114,-333 1133.94,-328.023 1155.78,-324.29 1176.29,-321.512"/>
<polygon fill="midnightblue" stroke="midnightblue" points="1004.91,-367.738 997.133,-374.929 1007.7,-374.16 1004.91,-367.738"/>
</g>
<!-- Node32 -->
<g id="node63" class="node"><title>Node32</title>
<a xlink:href="class_kitware_1_1_v_t_k_1_1vtk_data_set_to_structured_grid_filter.html" target="_top" xlink:title="vtkDataSetToStructuredGridFilter &#45; abstract filter class">
<polygon fill="none" stroke="black" points="1142,-266 1142,-286 1374,-286 1374,-266 1142,-266"/>
<text text-anchor="middle" x="1258" y="-273" font-family="FreeSans" font-size="10.00">Kitware.VTK.vtkDataSetToStructuredGridFilter</text>
</a>
</g>
<!-- Node31&#45;&gt;Node32 -->
<g id="edge62" class="edge"><title>Node31&#45;&gt;Node32</title>
<path fill="none" stroke="midnightblue" d="M1082.46,-264.215C1101.89,-265.519 1122.22,-266.884 1141.89,-268.204"/>
<polygon fill="midnightblue" stroke="midnightblue" points="1082.6,-260.717 1072.39,-263.539 1082.14,-267.701 1082.6,-260.717"/>
</g>
<!-- Node33 -->
<g id="node65" class="node"><title>Node33</title>
<a xlink:href="class_kitware_1_1_v_t_k_1_1vtk_p_l_o_t3_d_reader.html" target="_top" xlink:title="vtkPLOT3DReader &#45; read PLOT3D data files">
<polygon fill="none" stroke="black" points="1178,-228 1178,-248 1338,-248 1338,-228 1178,-228"/>
<text text-anchor="middle" x="1258" y="-235" font-family="FreeSans" font-size="10.00">Kitware.VTK.vtkPLOT3DReader</text>
</a>
</g>
<!-- Node31&#45;&gt;Node33 -->
<g id="edge64" class="edge"><title>Node31&#45;&gt;Node33</title>
<path fill="none" stroke="midnightblue" d="M1082.57,-249.778C1114.18,-247.656 1148.2,-245.371 1177.79,-243.385"/>
<polygon fill="midnightblue" stroke="midnightblue" points="1082.14,-246.299 1072.39,-250.461 1082.6,-253.283 1082.14,-246.299"/>
</g>
<!-- Node34 -->
<g id="node67" class="node"><title>Node34</title>
<a xlink:href="class_kitware_1_1_v_t_k_1_1vtk_structured_grid_to_structured_grid_filter.html" target="_top" xlink:title="vtkStructuredGridToStructuredGridFilter &#45; abstract filter class">
<polygon fill="none" stroke="black" points="1126.5,-190 1126.5,-210 1389.5,-210 1389.5,-190 1126.5,-190"/>
<text text-anchor="middle" x="1258" y="-197" font-family="FreeSans" font-size="10.00">Kitware.VTK.vtkStructuredGridToStructuredGridFilter</text>
</a>
</g>
<!-- Node31&#45;&gt;Node34 -->
<g id="edge66" class="edge"><title>Node31&#45;&gt;Node34</title>
<path fill="none" stroke="midnightblue" d="M1016.66,-244.02C1044.09,-235.869 1080.91,-225.674 1114,-219 1131.18,-215.535 1149.64,-212.551 1167.43,-210.042"/>
<polygon fill="midnightblue" stroke="midnightblue" points="1015.57,-240.691 1007,-246.92 1017.59,-247.395 1015.57,-240.691"/>
</g>
<!-- Node36 -->
<g id="node71" class="node"><title>Node36</title>
<a xlink:href="class_kitware_1_1_v_t_k_1_1vtk_data_set_to_structured_points_filter.html" target="_top" xlink:title="vtkDataSetToStructuredPointsFilter &#45; abstract filter class">
<polygon fill="none" stroke="black" points="1137,-152 1137,-172 1379,-172 1379,-152 1137,-152"/>
<text text-anchor="middle" x="1258" y="-159" font-family="FreeSans" font-size="10.00">Kitware.VTK.vtkDataSetToStructuredPointsFilter</text>
</a>
</g>
<!-- Node35&#45;&gt;Node36 -->
<g id="edge70" class="edge"><title>Node35&#45;&gt;Node36</title>
<path fill="none" stroke="midnightblue" d="M1086.91,-162C1103.32,-162 1120.29,-162 1136.88,-162"/>
<polygon fill="midnightblue" stroke="midnightblue" points="1086.77,-158.5 1076.77,-162 1086.77,-165.5 1086.77,-158.5"/>
</g>
<!-- Node37 -->
<g id="node73" class="node"><title>Node37</title>
<a xlink:href="class_kitware_1_1_v_t_k_1_1vtk_structured_points_to_structured_points_filter.html" target="_top" xlink:title="vtkStructuredPointsToStructuredPointsFilter &#45; abstract filter class">
<polygon fill="none" stroke="black" points="1117,-114 1117,-134 1399,-134 1399,-114 1117,-114"/>
<text text-anchor="middle" x="1258" y="-121" font-family="FreeSans" font-size="10.00">Kitware.VTK.vtkStructuredPointsToStructuredPointsFilter</text>
</a>
</g>
<!-- Node35&#45;&gt;Node37 -->
<g id="edge72" class="edge"><title>Node35&#45;&gt;Node37</title>
<path fill="none" stroke="midnightblue" d="M1057.98,-150.593C1076.42,-148.076 1095.87,-145.435 1114,-143 1135.87,-140.063 1159.61,-136.914 1181.39,-134.041"/>
<polygon fill="midnightblue" stroke="midnightblue" points="1057.29,-147.155 1047.85,-151.977 1058.23,-154.091 1057.29,-147.155"/>
</g>
<!-- Node39 -->
<g id="node77" class="node"><title>Node39</title>
<a xlink:href="class_kitware_1_1_v_t_k_1_1vtk_data_set_to_unstructured_grid_filter.html" target="_top" xlink:title="vtkDataSetToUnstructuredGridFilter &#45; abstract filter class">
<polygon fill="none" stroke="black" points="1136,-76 1136,-96 1380,-96 1380,-76 1136,-76"/>
<text text-anchor="middle" x="1258" y="-83" font-family="FreeSans" font-size="10.00">Kitware.VTK.vtkDataSetToUnstructuredGridFilter</text>
</a>
</g>
<!-- Node38&#45;&gt;Node39 -->
<g id="edge76" class="edge"><title>Node38&#45;&gt;Node39</title>
<path fill="none" stroke="midnightblue" d="M1088.5,-74.62C1104.03,-75.6625 1120.02,-76.7364 1135.7,-77.7888"/>
<polygon fill="midnightblue" stroke="midnightblue" points="1088.58,-71.1179 1078.37,-73.9401 1088.11,-78.1022 1088.58,-71.1179"/>
</g>
<!-- Node40 -->
<g id="node79" class="node"><title>Node40</title>
<a xlink:href="class_kitware_1_1_v_t_k_1_1vtk_structured_points_to_unstructured_grid_filter.html" target="_top" xlink:title="vtkStructuredPointsToUnstructuredGridFilter &#45; abstract filter class">
<polygon fill="none" stroke="black" points="1116,-38 1116,-58 1400,-58 1400,-38 1116,-38"/>
<text text-anchor="middle" x="1258" y="-45" font-family="FreeSans" font-size="10.00">Kitware.VTK.vtkStructuredPointsToUnstructuredGridFilter</text>
</a>
</g>
<!-- Node38&#45;&gt;Node40 -->
<g id="edge78" class="edge"><title>Node38&#45;&gt;Node40</title>
<path fill="none" stroke="midnightblue" d="M1088.43,-59.3848C1097.4,-58.7823 1106.53,-58.1693 1115.67,-57.556"/>
<polygon fill="midnightblue" stroke="midnightblue" points="1088.11,-55.8978 1078.37,-60.0599 1088.58,-62.8821 1088.11,-55.8978"/>
</g>
<!-- Node41 -->
<g id="node81" class="node"><title>Node41</title>
<a xlink:href="class_kitware_1_1_v_t_k_1_1vtk_unstructured_grid_to_unstructured_grid_filter.html" target="_top" xlink:title="vtkUnstructuredGridToUnstructuredGridFilter &#45; abstract filter class">
<polygon fill="none" stroke="black" points="1114.5,-0 1114.5,-20 1401.5,-20 1401.5,-0 1114.5,-0"/>
<text text-anchor="middle" x="1258" y="-7" font-family="FreeSans" font-size="10.00">Kitware.VTK.vtkUnstructuredGridToUnstructuredGridFilter</text>
</a>
</g>
<!-- Node38&#45;&gt;Node41 -->
<g id="edge80" class="edge"><title>Node38&#45;&gt;Node41</title>
<path fill="none" stroke="midnightblue" d="M1016.66,-54.0196C1044.09,-45.8691 1080.91,-35.674 1114,-29 1131.18,-25.535 1149.64,-22.551 1167.43,-20.0422"/>
<polygon fill="midnightblue" stroke="midnightblue" points="1015.57,-50.691 1007,-56.9196 1017.59,-57.3952 1015.57,-50.691"/>
</g>
</g>
</svg>
