<?xml version="1.0" encoding="UTF-8" standalone="no"?>
<!DOCTYPE svg PUBLIC "-//W3C//DTD SVG 1.1//EN"
 "http://www.w3.org/Graphics/SVG/1.1/DTD/svg11.dtd">
<!-- Generated by graphviz version 2.26.3 (20100126.1600)
 -->
<!-- Title: G Pages: 1 -->
<svg width="1448pt" height="66pt"
 viewBox="0.00 0.00 1448.00 66.00" xmlns="http://www.w3.org/2000/svg" xmlns:xlink="http://www.w3.org/1999/xlink">
<g id="graph1" class="graph" transform="scale(1 1) rotate(0) translate(4 62)">
<title>G</title>
<!-- Node1 -->
<g id="node1" class="node"><title>Node1</title>
<polygon fill="#bfbfbf" stroke="black" points="726.5,-19 726.5,-39 901.5,-39 901.5,-19 726.5,-19"/>
<text text-anchor="middle" x="814" y="-26" font-family="FreeSans" font-size="10.00">Kitware.VTK.vtkControlPointsItem</text>
</g>
<!-- Node8 -->
<g id="node15" class="node"><title>Node8</title>
<a xlink:href="class_kitware_1_1_v_t_k_1_1vtk_color_transfer_control_points_item.html" target="_top" xlink:title="vtkColorTransferControlPointsItem &#45; Control points for vtkColorTransferFunction.">
<polygon fill="none" stroke="black" points="938.5,-38 938.5,-58 1175.5,-58 1175.5,-38 938.5,-38"/>
<text text-anchor="middle" x="1057" y="-45" font-family="FreeSans" font-size="10.00">Kitware.VTK.vtkColorTransferControlPointsItem</text>
</a>
</g>
<!-- Node1&#45;&gt;Node8 -->
<g id="edge14" class="edge"><title>Node1&#45;&gt;Node8</title>
<path fill="none" stroke="midnightblue" d="M911.807,-36.6474C920.467,-37.3246 929.294,-38.0148 938.103,-38.7035"/>
<polygon fill="midnightblue" stroke="midnightblue" points="911.971,-33.1497 901.729,-35.8594 911.425,-40.1284 911.971,-33.1497"/>
</g>
<!-- Node10 -->
<g id="node19" class="node"><title>Node10</title>
<a xlink:href="class_kitware_1_1_v_t_k_1_1vtk_piecewise_control_points_item.html" target="_top" xlink:title="vtkPiecewiseControlPointsItem &#45; Control points for vtkPiecewiseFunction.">
<polygon fill="none" stroke="black" points="946.5,-0 946.5,-20 1167.5,-20 1167.5,-0 946.5,-0"/>
<text text-anchor="middle" x="1057" y="-7" font-family="FreeSans" font-size="10.00">Kitware.VTK.vtkPiecewiseControlPointsItem</text>
</a>
</g>
<!-- Node1&#45;&gt;Node10 -->
<g id="edge18" class="edge"><title>Node1&#45;&gt;Node10</title>
<path fill="none" stroke="midnightblue" d="M911.963,-21.3404C923.205,-20.4614 934.726,-19.5605 946.122,-18.6695"/>
<polygon fill="midnightblue" stroke="midnightblue" points="911.425,-17.8716 901.729,-22.1406 911.971,-24.8503 911.425,-17.8716"/>
</g>
<!-- Node2 -->
<g id="node2" class="node"><title>Node2</title>
<a xlink:href="class_kitware_1_1_v_t_k_1_1vtk_plot.html" target="_top" xlink:title="vtkPlot &#45; Abstract class for 2D plots.">
<polygon fill="none" stroke="black" points="640.5,-19 640.5,-39 689.5,-39 689.5,-19 640.5,-19"/>
<text text-anchor="middle" x="665" y="-26" font-family="FreeSans" font-size="10.00">vtkPlot</text>
</a>
</g>
<!-- Node2&#45;&gt;Node1 -->
<g id="edge2" class="edge"><title>Node2&#45;&gt;Node1</title>
<path fill="none" stroke="midnightblue" d="M699.743,-29C707.888,-29 716.929,-29 726.256,-29"/>
<polygon fill="midnightblue" stroke="midnightblue" points="699.604,-25.5001 689.604,-29 699.604,-32.5001 699.604,-25.5001"/>
</g>
<!-- Node3 -->
<g id="node4" class="node"><title>Node3</title>
<a xlink:href="class_kitware_1_1_v_t_k_1_1vtk_context_item.html" target="_top" xlink:title="vtkContextItem &#45; base class for items that are part of a vtkContextScene.">
<polygon fill="none" stroke="black" points="514,-19 514,-39 604,-39 604,-19 514,-19"/>
<text text-anchor="middle" x="559" y="-26" font-family="FreeSans" font-size="10.00">vtkContextItem</text>
</a>
</g>
<!-- Node3&#45;&gt;Node2 -->
<g id="edge4" class="edge"><title>Node3&#45;&gt;Node2</title>
<path fill="none" stroke="midnightblue" d="M614.488,-29C623.561,-29 632.535,-29 640.346,-29"/>
<polygon fill="midnightblue" stroke="midnightblue" points="614.261,-25.5001 604.261,-29 614.261,-32.5001 614.261,-25.5001"/>
</g>
<!-- Node4 -->
<g id="node6" class="node"><title>Node4</title>
<a xlink:href="class_kitware_1_1_v_t_k_1_1vtk_abstract_context_item.html" target="_top" xlink:title="vtkAbstractContextItem &#45; base class for items that are part of a vtkContextScene.">
<polygon fill="none" stroke="black" points="346.5,-19 346.5,-39 477.5,-39 477.5,-19 346.5,-19"/>
<text text-anchor="middle" x="412" y="-26" font-family="FreeSans" font-size="10.00">vtkAbstractContextItem</text>
</a>
</g>
<!-- Node4&#45;&gt;Node3 -->
<g id="edge6" class="edge"><title>Node4&#45;&gt;Node3</title>
<path fill="none" stroke="midnightblue" d="M487.831,-29C496.758,-29 505.639,-29 513.946,-29"/>
<polygon fill="midnightblue" stroke="midnightblue" points="487.761,-25.5001 477.761,-29 487.761,-32.5001 487.761,-25.5001"/>
</g>
<!-- Node5 -->
<g id="node8" class="node"><title>Node5</title>
<a xlink:href="class_kitware_1_1_v_t_k_1_1vtk_object.html" target="_top" xlink:title="vtkObject &#45; abstract base class for most VTK objects">
<polygon fill="none" stroke="black" points="248,-19 248,-39 310,-39 310,-19 248,-19"/>
<text text-anchor="middle" x="279" y="-26" font-family="FreeSans" font-size="10.00">vtkObject</text>
</a>
</g>
<!-- Node5&#45;&gt;Node4 -->
<g id="edge8" class="edge"><title>Node5&#45;&gt;Node4</title>
<path fill="none" stroke="midnightblue" d="M320.317,-29C328.614,-29 337.525,-29 346.415,-29"/>
<polygon fill="midnightblue" stroke="midnightblue" points="320.183,-25.5001 310.183,-29 320.183,-32.5001 320.183,-25.5001"/>
</g>
<!-- Node6 -->
<g id="node10" class="node"><title>Node6</title>
<a xlink:href="class_kitware_1_1_v_t_k_1_1vtk_object_base.html" target="_top" xlink:title="vtkObjectBase &#45; abstract base class for most VTK objects">
<polygon fill="none" stroke="black" points="126,-19 126,-39 212,-39 212,-19 126,-19"/>
<text text-anchor="middle" x="169" y="-26" font-family="FreeSans" font-size="10.00">vtkObjectBase</text>
</a>
</g>
<!-- Node6&#45;&gt;Node5 -->
<g id="edge10" class="edge"><title>Node6&#45;&gt;Node5</title>
<path fill="none" stroke="midnightblue" d="M222.346,-29C231.091,-29 239.892,-29 247.863,-29"/>
<polygon fill="midnightblue" stroke="midnightblue" points="222.159,-25.5001 212.159,-29 222.159,-32.5001 222.159,-25.5001"/>
</g>
<!-- Node7 -->
<g id="node12" class="node"><title>Node7</title>
<a xlink:href="class_kitware_1_1_v_t_k_1_1_wrapped_object.html" target="_top" xlink:title="Base class for all the mummy wrapped classes in Kitware.VTK.">
<polygon fill="none" stroke="black" points="0.5,-19 0.5,-39 89.5,-39 89.5,-19 0.5,-19"/>
<text text-anchor="middle" x="45" y="-26" font-family="FreeSans" font-size="10.00">WrappedObject</text>
</a>
</g>
<!-- Node7&#45;&gt;Node6 -->
<g id="edge12" class="edge"><title>Node7&#45;&gt;Node6</title>
<path fill="none" stroke="midnightblue" d="M99.8895,-29C108.623,-29 117.548,-29 125.957,-29"/>
<polygon fill="midnightblue" stroke="midnightblue" points="99.7669,-25.5001 89.7668,-29 99.7668,-32.5001 99.7669,-25.5001"/>
</g>
<!-- Node9 -->
<g id="node17" class="node"><title>Node9</title>
<a xlink:href="class_kitware_1_1_v_t_k_1_1vtk_composite_control_points_item.html" target="_top" xlink:title="vtkCompositeControlPointsItem &#45; Control points for vtkCompositeFunction.">
<polygon fill="none" stroke="black" points="1212.5,-38 1212.5,-58 1439.5,-58 1439.5,-38 1212.5,-38"/>
<text text-anchor="middle" x="1326" y="-45" font-family="FreeSans" font-size="10.00">Kitware.VTK.vtkCompositeControlPointsItem</text>
</a>
</g>
<!-- Node8&#45;&gt;Node9 -->
<g id="edge16" class="edge"><title>Node8&#45;&gt;Node9</title>
<path fill="none" stroke="midnightblue" d="M1186.02,-48C1194.76,-48 1203.54,-48 1212.2,-48"/>
<polygon fill="midnightblue" stroke="midnightblue" points="1185.77,-44.5001 1175.77,-48 1185.77,-51.5001 1185.77,-44.5001"/>
</g>
</g>
</svg>
