<?xml version="1.0" encoding="UTF-8" standalone="no"?>
<!DOCTYPE svg PUBLIC "-//W3C//DTD SVG 1.1//EN"
 "http://www.w3.org/Graphics/SVG/1.1/DTD/svg11.dtd">
<!-- Generated by graphviz version 2.26.3 (20100126.1600)
 -->
<!-- Title: G Pages: 1 -->
<svg width="476pt" height="650pt"
 viewBox="0.00 0.00 476.46 650.00" xmlns="http://www.w3.org/2000/svg" xmlns:xlink="http://www.w3.org/1999/xlink">
<g id="graph1" class="graph" transform="scale(1 1) rotate(0) translate(4 646)">
<title>G</title>
<!-- Node1 -->
<g id="node1" class="node"><title>Node1</title>
<polygon fill="#bfbfbf" stroke="black" points="0,-1 0,-21 280,-21 280,-1 0,-1"/>
<text text-anchor="middle" x="140" y="-8" font-family="FreeSans" font-size="10.00">Kitware.VTK.vtkUnstructuredGridBunykRayCastFunction</text>
</g>
<!-- Node2 -->
<g id="node2" class="node"><title>Node2</title>
<a xlink:href="class_kitware_1_1_v_t_k_1_1vtk_unstructured_grid_volume_ray_cast_function.html" target="_top" xlink:title="vtkUnstructuredGridVolumeRayCastFunction &#45; a superclass for ray casting functions">
<polygon fill="none" stroke="black" points="26,-61 26,-81 254,-81 254,-61 26,-61"/>
<text text-anchor="middle" x="140" y="-68" font-family="FreeSans" font-size="10.00">vtkUnstructuredGridVolumeRayCastFunction</text>
</a>
</g>
<!-- Node2&#45;&gt;Node1 -->
<g id="edge2" class="edge"><title>Node2&#45;&gt;Node1</title>
<path fill="none" stroke="midnightblue" d="M140,-50.5155C140,-40.562 140,-29.0495 140,-21.0279"/>
<polygon fill="midnightblue" stroke="midnightblue" points="136.5,-50.8218 140,-60.8218 143.5,-50.8219 136.5,-50.8218"/>
</g>
<!-- Node3 -->
<g id="node4" class="node"><title>Node3</title>
<a xlink:href="class_kitware_1_1_v_t_k_1_1vtk_object.html" target="_top" xlink:title="vtkObject &#45; abstract base class for most VTK objects">
<polygon fill="none" stroke="black" points="109,-121 109,-141 171,-141 171,-121 109,-121"/>
<text text-anchor="middle" x="140" y="-128" font-family="FreeSans" font-size="10.00">vtkObject</text>
</a>
</g>
<!-- Node3&#45;&gt;Node2 -->
<g id="edge4" class="edge"><title>Node3&#45;&gt;Node2</title>
<path fill="none" stroke="midnightblue" d="M140,-110.516C140,-100.562 140,-89.0495 140,-81.0279"/>
<polygon fill="midnightblue" stroke="midnightblue" points="136.5,-110.822 140,-120.822 143.5,-110.822 136.5,-110.822"/>
</g>
<!-- Node4 -->
<g id="node6" class="node"><title>Node4</title>
<a xlink:href="class_kitware_1_1_v_t_k_1_1vtk_object_base.html" target="_top" xlink:title="vtkObjectBase &#45; abstract base class for most VTK objects">
<polygon fill="none" stroke="black" points="160,-561 160,-581 246,-581 246,-561 160,-561"/>
<text text-anchor="middle" x="203" y="-568" font-family="FreeSans" font-size="10.00">vtkObjectBase</text>
</a>
</g>
<!-- Node4&#45;&gt;Node3 -->
<g id="edge6" class="edge"><title>Node4&#45;&gt;Node3</title>
<path fill="none" stroke="midnightblue" d="M174.423,-555.886C160.687,-547.44 144.884,-535.826 134,-522 122.156,-506.955 121.621,-500.802 118,-482 92.4248,-349.199 127.577,-183.437 137.516,-141.17"/>
<polygon fill="midnightblue" stroke="midnightblue" points="172.683,-558.923 183.079,-560.97 176.229,-552.887 172.683,-558.923"/>
</g>
<!-- Node7 -->
<g id="node13" class="node"><title>Node7</title>
<a xlink:href="class_kitware_1_1_v_t_k_1_1vtk_object.html" target="_top" xlink:title="vtkObject &#45; abstract base class for most VTK objects">
<polygon fill="none" stroke="black" points="143,-501 143,-521 263,-521 263,-501 143,-501"/>
<text text-anchor="middle" x="203" y="-508" font-family="FreeSans" font-size="10.00">Kitware.VTK.vtkObject</text>
</a>
</g>
<!-- Node4&#45;&gt;Node7 -->
<g id="edge16" class="edge"><title>Node4&#45;&gt;Node7</title>
<path fill="none" stroke="midnightblue" d="M203,-550.516C203,-540.562 203,-529.05 203,-521.028"/>
<polygon fill="midnightblue" stroke="midnightblue" points="199.5,-550.822 203,-560.822 206.5,-550.822 199.5,-550.822"/>
</g>
<!-- Node5 -->
<g id="node8" class="node"><title>Node5</title>
<a xlink:href="class_kitware_1_1_v_t_k_1_1_wrapped_object.html" target="_top" xlink:title="Base class for all the mummy wrapped classes in Kitware.VTK.">
<polygon fill="none" stroke="black" points="341.5,-621 341.5,-641 430.5,-641 430.5,-621 341.5,-621"/>
<text text-anchor="middle" x="386" y="-628" font-family="FreeSans" font-size="10.00">WrappedObject</text>
</a>
</g>
<!-- Node5&#45;&gt;Node4 -->
<g id="edge8" class="edge"><title>Node5&#45;&gt;Node4</title>
<path fill="none" stroke="midnightblue" d="M345.804,-617.821C312.042,-606.752 264.512,-591.168 233.73,-581.075"/>
<polygon fill="midnightblue" stroke="midnightblue" points="344.777,-621.168 355.37,-620.957 346.958,-614.516 344.777,-621.168"/>
</g>
<!-- Node6 -->
<g id="node10" class="node"><title>Node6</title>
<a xlink:href="class_kitware_1_1_v_t_k_1_1vtk_object_event_relay.html" target="_top" xlink:title="Implement a relay handler for VTK events. This is a class that receives events directly from the VTK ...">
<polygon fill="none" stroke="black" points="132,-311 132,-331 304,-331 304,-311 132,-311"/>
<text text-anchor="middle" x="218" y="-318" font-family="FreeSans" font-size="10.00">Kitware.VTK.vtkObjectEventRelay</text>
</a>
</g>
<!-- Node5&#45;&gt;Node6 -->
<g id="edge12" class="edge"><title>Node5&#45;&gt;Node6</title>
<path fill="none" stroke="midnightblue" d="M398.888,-612.325C431.276,-562.899 508.803,-427.191 441,-350 431.773,-339.495 363.047,-331.666 304.298,-326.808"/>
<polygon fill="midnightblue" stroke="midnightblue" points="395.891,-610.509 393.239,-620.767 401.709,-614.402 395.891,-610.509"/>
</g>
<!-- Node6&#45;&gt;Node3 -->
<g id="edge10" class="edge"><title>Node6&#45;&gt;Node3</title>
<path fill="none" stroke="#9a32cd" stroke-dasharray="5,2" d="M209.921,-301.321C193.489,-261.293 156.674,-171.616 144.214,-141.266"/>
<polygon fill="#9a32cd" stroke="#9a32cd" points="206.771,-302.863 213.806,-310.785 213.246,-300.205 206.771,-302.863"/>
<text text-anchor="middle" x="317.5" y="-283" font-family="FreeSans" font-size="10.00"> LeftButtonReleaseEvtRelay</text>
<text text-anchor="middle" x="317.5" y="-271" font-family="FreeSans" font-size="10.00">KeyPressEvtRelay</text>
<text text-anchor="middle" x="317.5" y="-259" font-family="FreeSans" font-size="10.00">DomainModifiedEvtRelay</text>
<text text-anchor="middle" x="317.5" y="-247" font-family="FreeSans" font-size="10.00">VolumeMapperComputeGradientsStartEvtRelay</text>
<text text-anchor="middle" x="317.5" y="-235" font-family="FreeSans" font-size="10.00">ErrorEvtRelay</text>
<text text-anchor="middle" x="317.5" y="-223" font-family="FreeSans" font-size="10.00">VolumeMapperRenderStartEvtRelay</text>
<text text-anchor="middle" x="317.5" y="-211" font-family="FreeSans" font-size="10.00">StartEvtRelay</text>
<text text-anchor="middle" x="317.5" y="-199" font-family="FreeSans" font-size="10.00">ResetCameraEvtRelay</text>
<text text-anchor="middle" x="317.5" y="-187" font-family="FreeSans" font-size="10.00">EnableEvtRelay</text>
<text text-anchor="middle" x="317.5" y="-175" font-family="FreeSans" font-size="10.00">DeleteEvtRelay</text>
<text text-anchor="middle" x="317.5" y="-163" font-family="FreeSans" font-size="10.00">...</text>
</g>
<!-- Node6&#45;&gt;Node7 -->
<g id="edge18" class="edge"><title>Node6&#45;&gt;Node7</title>
<path fill="none" stroke="#9a32cd" stroke-dasharray="5,2" d="M215.028,-341.231C214.649,-344.169 214.293,-347.159 214,-350 208.144,-406.853 204.636,-475.333 203.452,-500.807"/>
<polygon fill="#9a32cd" stroke="#9a32cd" points="218.515,-341.565 216.421,-331.179 211.582,-340.604 218.515,-341.565"/>
<text text-anchor="middle" x="327.5" y="-473" font-family="FreeSans" font-size="10.00"> LeftButtonReleaseEvtRelay</text>
<text text-anchor="middle" x="327.5" y="-461" font-family="FreeSans" font-size="10.00">KeyPressEvtRelay</text>
<text text-anchor="middle" x="327.5" y="-449" font-family="FreeSans" font-size="10.00">DomainModifiedEvtRelay</text>
<text text-anchor="middle" x="327.5" y="-437" font-family="FreeSans" font-size="10.00">VolumeMapperComputeGradientsStartEvtRelay</text>
<text text-anchor="middle" x="327.5" y="-425" font-family="FreeSans" font-size="10.00">ErrorEvtRelay</text>
<text text-anchor="middle" x="327.5" y="-413" font-family="FreeSans" font-size="10.00">VolumeMapperRenderStartEvtRelay</text>
<text text-anchor="middle" x="327.5" y="-401" font-family="FreeSans" font-size="10.00">StartEvtRelay</text>
<text text-anchor="middle" x="327.5" y="-389" font-family="FreeSans" font-size="10.00">ResetCameraEvtRelay</text>
<text text-anchor="middle" x="327.5" y="-377" font-family="FreeSans" font-size="10.00">EnableEvtRelay</text>
<text text-anchor="middle" x="327.5" y="-365" font-family="FreeSans" font-size="10.00">DeleteEvtRelay</text>
<text text-anchor="middle" x="327.5" y="-353" font-family="FreeSans" font-size="10.00">...</text>
</g>
<!-- Node7&#45;&gt;Node6 -->
<g id="edge14" class="edge"><title>Node7&#45;&gt;Node6</title>
<path fill="none" stroke="#9a32cd" stroke-dasharray="5,2" d="M156.979,-495.818C151.439,-492.138 146.51,-487.596 143,-482 111.823,-432.303 109.83,-398.389 143,-350 147.736,-343.091 164.511,-336.287 180.999,-331.008"/>
<polygon fill="#9a32cd" stroke="#9a32cd" points="155.639,-499.079 166.072,-500.919 159.064,-492.974 155.639,-499.079"/>
<text text-anchor="middle" x="167" y="-419" font-family="FreeSans" font-size="10.00"> Sender</text>
<text text-anchor="middle" x="167" y="-407" font-family="FreeSans" font-size="10.00">EventImpl</text>
</g>
</g>
</svg>
