<?xml version="1.0" encoding="UTF-8" standalone="no"?>
<!DOCTYPE svg PUBLIC "-//W3C//DTD SVG 1.1//EN"
 "http://www.w3.org/Graphics/SVG/1.1/DTD/svg11.dtd">
<!-- Generated by graphviz version 2.26.3 (20100126.1600)
 -->
<!-- Title: G Pages: 1 -->
<svg width="304pt" height="262pt"
 viewBox="0.00 0.00 304.00 262.00" xmlns="http://www.w3.org/2000/svg" xmlns:xlink="http://www.w3.org/1999/xlink">
<g id="graph1" class="graph" transform="scale(1 1) rotate(0) translate(4 258)">
<title>G</title>
<!-- Node1 -->
<g id="node1" class="node"><title>Node1</title>
<polygon fill="#bfbfbf" stroke="black" points="96.5,-59 96.5,-79 209.5,-79 209.5,-59 96.5,-59"/>
<text text-anchor="middle" x="153" y="-66" font-family="FreeSans" font-size="10.00">Kitware.VTK.vtkLight</text>
</g>
<!-- Node5 -->
<g id="node9" class="node"><title>Node5</title>
<a xlink:href="class_kitware_1_1_v_t_k_1_1vtk_open_g_l_light.html" target="_top" xlink:title="vtkOpenGLLight &#45; OpenGL light">
<polygon fill="none" stroke="black" points="-0.5,-1 -0.5,-21 150.5,-21 150.5,-1 -0.5,-1"/>
<text text-anchor="middle" x="75" y="-8" font-family="FreeSans" font-size="10.00">Kitware.VTK.vtkOpenGLLight</text>
</a>
</g>
<!-- Node1&#45;&gt;Node5 -->
<g id="edge8" class="edge"><title>Node1&#45;&gt;Node5</title>
<path fill="none" stroke="midnightblue" d="M131.061,-52.6866C117.455,-42.5689 100.397,-29.8852 88.6926,-21.1817"/>
<polygon fill="midnightblue" stroke="midnightblue" points="129.3,-55.7387 139.413,-58.8972 133.477,-50.1215 129.3,-55.7387"/>
</g>
<!-- Node6 -->
<g id="node11" class="node"><title>Node6</title>
<a xlink:href="class_kitware_1_1_v_t_k_1_1vtk_r_i_b_light.html" target="_top" xlink:title="vtkRIBLight &#45; RIP Light">
<polygon fill="none" stroke="black" points="168,-1 168,-21 296,-21 296,-1 168,-1"/>
<text text-anchor="middle" x="232" y="-8" font-family="FreeSans" font-size="10.00">Kitware.VTK.vtkRIBLight</text>
</a>
</g>
<!-- Node1&#45;&gt;Node6 -->
<g id="edge10" class="edge"><title>Node1&#45;&gt;Node6</title>
<path fill="none" stroke="midnightblue" d="M174.827,-52.975C188.671,-42.8109 206.164,-29.9681 218.132,-21.1817"/>
<polygon fill="midnightblue" stroke="midnightblue" points="172.75,-50.1578 166.761,-58.8972 176.893,-55.8004 172.75,-50.1578"/>
</g>
<!-- Node2 -->
<g id="node2" class="node"><title>Node2</title>
<a xlink:href="class_kitware_1_1_v_t_k_1_1vtk_object.html" target="_top" xlink:title="vtkObject &#45; abstract base class for most VTK objects">
<polygon fill="none" stroke="black" points="122,-117 122,-137 184,-137 184,-117 122,-117"/>
<text text-anchor="middle" x="153" y="-124" font-family="FreeSans" font-size="10.00">vtkObject</text>
</a>
</g>
<!-- Node2&#45;&gt;Node1 -->
<g id="edge2" class="edge"><title>Node2&#45;&gt;Node1</title>
<path fill="none" stroke="midnightblue" d="M153,-106.89C153,-97.6201 153,-87.0083 153,-79.3776"/>
<polygon fill="midnightblue" stroke="midnightblue" points="149.5,-106.897 153,-116.897 156.5,-106.897 149.5,-106.897"/>
</g>
<!-- Node3 -->
<g id="node4" class="node"><title>Node3</title>
<a xlink:href="class_kitware_1_1_v_t_k_1_1vtk_object_base.html" target="_top" xlink:title="vtkObjectBase &#45; abstract base class for most VTK objects">
<polygon fill="none" stroke="black" points="110,-175 110,-195 196,-195 196,-175 110,-175"/>
<text text-anchor="middle" x="153" y="-182" font-family="FreeSans" font-size="10.00">vtkObjectBase</text>
</a>
</g>
<!-- Node3&#45;&gt;Node2 -->
<g id="edge4" class="edge"><title>Node3&#45;&gt;Node2</title>
<path fill="none" stroke="midnightblue" d="M153,-164.89C153,-155.62 153,-145.008 153,-137.378"/>
<polygon fill="midnightblue" stroke="midnightblue" points="149.5,-164.897 153,-174.897 156.5,-164.897 149.5,-164.897"/>
</g>
<!-- Node4 -->
<g id="node6" class="node"><title>Node4</title>
<a xlink:href="class_kitware_1_1_v_t_k_1_1_wrapped_object.html" target="_top" xlink:title="Base class for all the mummy wrapped classes in Kitware.VTK.">
<polygon fill="none" stroke="black" points="108.5,-233 108.5,-253 197.5,-253 197.5,-233 108.5,-233"/>
<text text-anchor="middle" x="153" y="-240" font-family="FreeSans" font-size="10.00">WrappedObject</text>
</a>
</g>
<!-- Node4&#45;&gt;Node3 -->
<g id="edge6" class="edge"><title>Node4&#45;&gt;Node3</title>
<path fill="none" stroke="midnightblue" d="M153,-222.89C153,-213.62 153,-203.008 153,-195.378"/>
<polygon fill="midnightblue" stroke="midnightblue" points="149.5,-222.897 153,-232.897 156.5,-222.897 149.5,-222.897"/>
</g>
</g>
</svg>
