<?xml version="1.0" encoding="UTF-8" standalone="no"?>
<!DOCTYPE svg PUBLIC "-//W3C//DTD SVG 1.1//EN"
 "http://www.w3.org/Graphics/SVG/1.1/DTD/svg11.dtd">
<!-- Generated by graphviz version 2.26.3 (20100126.1600)
 -->
<!-- Title: G Pages: 1 -->
<svg width="398pt" height="770pt"
 viewBox="0.00 0.00 398.46 770.00" xmlns="http://www.w3.org/2000/svg" xmlns:xlink="http://www.w3.org/1999/xlink">
<g id="graph1" class="graph" transform="scale(1 1) rotate(0) translate(4 766)">
<title>G</title>
<!-- Node1 -->
<g id="node1" class="node"><title>Node1</title>
<polygon fill="#bfbfbf" stroke="black" points="-0.5,-1 -0.5,-21 124.5,-21 124.5,-1 -0.5,-1"/>
<text text-anchor="middle" x="62" y="-8" font-family="FreeSans" font-size="10.00">Kitware.VTK.vtkMapper</text>
</g>
<!-- Node2 -->
<g id="node2" class="node"><title>Node2</title>
<a xlink:href="class_kitware_1_1_v_t_k_1_1vtk_abstract_mapper3_d.html" target="_top" xlink:title="vtkAbstractMapper3D &#45; abstract class specifies interface to map 3D data">
<polygon fill="none" stroke="black" points="1.5,-61 1.5,-81 122.5,-81 122.5,-61 1.5,-61"/>
<text text-anchor="middle" x="62" y="-68" font-family="FreeSans" font-size="10.00">vtkAbstractMapper3D</text>
</a>
</g>
<!-- Node2&#45;&gt;Node1 -->
<g id="edge2" class="edge"><title>Node2&#45;&gt;Node1</title>
<path fill="none" stroke="midnightblue" d="M62,-50.5155C62,-40.562 62,-29.0495 62,-21.0279"/>
<polygon fill="midnightblue" stroke="midnightblue" points="58.5001,-50.8218 62,-60.8218 65.5001,-50.8219 58.5001,-50.8218"/>
</g>
<!-- Node3 -->
<g id="node4" class="node"><title>Node3</title>
<a xlink:href="class_kitware_1_1_v_t_k_1_1vtk_abstract_mapper.html" target="_top" xlink:title="vtkAbstractMapper &#45; abstract class specifies interface to map data">
<polygon fill="none" stroke="black" points="8.5,-121 8.5,-141 115.5,-141 115.5,-121 8.5,-121"/>
<text text-anchor="middle" x="62" y="-128" font-family="FreeSans" font-size="10.00">vtkAbstractMapper</text>
</a>
</g>
<!-- Node3&#45;&gt;Node2 -->
<g id="edge4" class="edge"><title>Node3&#45;&gt;Node2</title>
<path fill="none" stroke="midnightblue" d="M62,-110.516C62,-100.562 62,-89.0495 62,-81.0279"/>
<polygon fill="midnightblue" stroke="midnightblue" points="58.5001,-110.822 62,-120.822 65.5001,-110.822 58.5001,-110.822"/>
</g>
<!-- Node4 -->
<g id="node6" class="node"><title>Node4</title>
<a xlink:href="class_kitware_1_1_v_t_k_1_1vtk_algorithm.html" target="_top" xlink:title="vtkAlgorithm &#45; Superclass for all sources, filters, and sinks in VTK.">
<polygon fill="none" stroke="black" points="23.5,-181 23.5,-201 100.5,-201 100.5,-181 23.5,-181"/>
<text text-anchor="middle" x="62" y="-188" font-family="FreeSans" font-size="10.00">vtkAlgorithm</text>
</a>
</g>
<!-- Node4&#45;&gt;Node3 -->
<g id="edge6" class="edge"><title>Node4&#45;&gt;Node3</title>
<path fill="none" stroke="midnightblue" d="M62,-170.516C62,-160.562 62,-149.05 62,-141.028"/>
<polygon fill="midnightblue" stroke="midnightblue" points="58.5001,-170.822 62,-180.822 65.5001,-170.822 58.5001,-170.822"/>
</g>
<!-- Node5 -->
<g id="node8" class="node"><title>Node5</title>
<a xlink:href="class_kitware_1_1_v_t_k_1_1vtk_object.html" target="_top" xlink:title="vtkObject &#45; abstract base class for most VTK objects">
<polygon fill="none" stroke="black" points="31,-241 31,-261 93,-261 93,-241 31,-241"/>
<text text-anchor="middle" x="62" y="-248" font-family="FreeSans" font-size="10.00">vtkObject</text>
</a>
</g>
<!-- Node5&#45;&gt;Node4 -->
<g id="edge8" class="edge"><title>Node5&#45;&gt;Node4</title>
<path fill="none" stroke="midnightblue" d="M62,-230.516C62,-220.562 62,-209.05 62,-201.028"/>
<polygon fill="midnightblue" stroke="midnightblue" points="58.5001,-230.822 62,-240.822 65.5001,-230.822 58.5001,-230.822"/>
</g>
<!-- Node6 -->
<g id="node10" class="node"><title>Node6</title>
<a xlink:href="class_kitware_1_1_v_t_k_1_1vtk_object_base.html" target="_top" xlink:title="vtkObjectBase &#45; abstract base class for most VTK objects">
<polygon fill="none" stroke="black" points="82,-681 82,-701 168,-701 168,-681 82,-681"/>
<text text-anchor="middle" x="125" y="-688" font-family="FreeSans" font-size="10.00">vtkObjectBase</text>
</a>
</g>
<!-- Node6&#45;&gt;Node5 -->
<g id="edge10" class="edge"><title>Node6&#45;&gt;Node5</title>
<path fill="none" stroke="midnightblue" d="M96.4228,-675.886C82.6866,-667.44 66.8844,-655.826 56,-642 44.1564,-626.955 43.6209,-620.802 40,-602 14.4248,-469.199 49.5766,-303.437 59.5155,-261.17"/>
<polygon fill="midnightblue" stroke="midnightblue" points="94.6834,-678.923 105.079,-680.97 98.2285,-672.887 94.6834,-678.923"/>
</g>
<!-- Node9 -->
<g id="node17" class="node"><title>Node9</title>
<a xlink:href="class_kitware_1_1_v_t_k_1_1vtk_object.html" target="_top" xlink:title="vtkObject &#45; abstract base class for most VTK objects">
<polygon fill="none" stroke="black" points="65,-621 65,-641 185,-641 185,-621 65,-621"/>
<text text-anchor="middle" x="125" y="-628" font-family="FreeSans" font-size="10.00">Kitware.VTK.vtkObject</text>
</a>
</g>
<!-- Node6&#45;&gt;Node9 -->
<g id="edge20" class="edge"><title>Node6&#45;&gt;Node9</title>
<path fill="none" stroke="midnightblue" d="M125,-670.516C125,-660.562 125,-649.05 125,-641.028"/>
<polygon fill="midnightblue" stroke="midnightblue" points="121.5,-670.822 125,-680.822 128.5,-670.822 121.5,-670.822"/>
</g>
<!-- Node7 -->
<g id="node12" class="node"><title>Node7</title>
<a xlink:href="class_kitware_1_1_v_t_k_1_1_wrapped_object.html" target="_top" xlink:title="Base class for all the mummy wrapped classes in Kitware.VTK.">
<polygon fill="none" stroke="black" points="263.5,-741 263.5,-761 352.5,-761 352.5,-741 263.5,-741"/>
<text text-anchor="middle" x="308" y="-748" font-family="FreeSans" font-size="10.00">WrappedObject</text>
</a>
</g>
<!-- Node7&#45;&gt;Node6 -->
<g id="edge12" class="edge"><title>Node7&#45;&gt;Node6</title>
<path fill="none" stroke="midnightblue" d="M267.804,-737.821C234.042,-726.752 186.512,-711.168 155.73,-701.075"/>
<polygon fill="midnightblue" stroke="midnightblue" points="266.777,-741.168 277.37,-740.957 268.958,-734.516 266.777,-741.168"/>
</g>
<!-- Node8 -->
<g id="node14" class="node"><title>Node8</title>
<a xlink:href="class_kitware_1_1_v_t_k_1_1vtk_object_event_relay.html" target="_top" xlink:title="Implement a relay handler for VTK events. This is a class that receives events directly from the VTK ...">
<polygon fill="none" stroke="black" points="54,-431 54,-451 226,-451 226,-431 54,-431"/>
<text text-anchor="middle" x="140" y="-438" font-family="FreeSans" font-size="10.00">Kitware.VTK.vtkObjectEventRelay</text>
</a>
</g>
<!-- Node7&#45;&gt;Node8 -->
<g id="edge16" class="edge"><title>Node7&#45;&gt;Node8</title>
<path fill="none" stroke="midnightblue" d="M320.888,-732.325C353.276,-682.899 430.803,-547.191 363,-470 353.773,-459.495 285.047,-451.666 226.298,-446.808"/>
<polygon fill="midnightblue" stroke="midnightblue" points="317.891,-730.509 315.239,-740.767 323.709,-734.402 317.891,-730.509"/>
</g>
<!-- Node8&#45;&gt;Node5 -->
<g id="edge14" class="edge"><title>Node8&#45;&gt;Node5</title>
<path fill="none" stroke="#9a32cd" stroke-dasharray="5,2" d="M131.921,-421.321C115.489,-381.293 78.6738,-291.616 66.2144,-261.266"/>
<polygon fill="#9a32cd" stroke="#9a32cd" points="128.771,-422.863 135.806,-430.785 135.246,-420.205 128.771,-422.863"/>
<text text-anchor="middle" x="239.5" y="-403" font-family="FreeSans" font-size="10.00"> LeftButtonReleaseEvtRelay</text>
<text text-anchor="middle" x="239.5" y="-391" font-family="FreeSans" font-size="10.00">KeyPressEvtRelay</text>
<text text-anchor="middle" x="239.5" y="-379" font-family="FreeSans" font-size="10.00">DomainModifiedEvtRelay</text>
<text text-anchor="middle" x="239.5" y="-367" font-family="FreeSans" font-size="10.00">VolumeMapperComputeGradientsStartEvtRelay</text>
<text text-anchor="middle" x="239.5" y="-355" font-family="FreeSans" font-size="10.00">ErrorEvtRelay</text>
<text text-anchor="middle" x="239.5" y="-343" font-family="FreeSans" font-size="10.00">VolumeMapperRenderStartEvtRelay</text>
<text text-anchor="middle" x="239.5" y="-331" font-family="FreeSans" font-size="10.00">StartEvtRelay</text>
<text text-anchor="middle" x="239.5" y="-319" font-family="FreeSans" font-size="10.00">ResetCameraEvtRelay</text>
<text text-anchor="middle" x="239.5" y="-307" font-family="FreeSans" font-size="10.00">EnableEvtRelay</text>
<text text-anchor="middle" x="239.5" y="-295" font-family="FreeSans" font-size="10.00">DeleteEvtRelay</text>
<text text-anchor="middle" x="239.5" y="-283" font-family="FreeSans" font-size="10.00">...</text>
</g>
<!-- Node8&#45;&gt;Node9 -->
<g id="edge22" class="edge"><title>Node8&#45;&gt;Node9</title>
<path fill="none" stroke="#9a32cd" stroke-dasharray="5,2" d="M137.028,-461.231C136.649,-464.169 136.293,-467.159 136,-470 130.144,-526.853 126.636,-595.333 125.452,-620.807"/>
<polygon fill="#9a32cd" stroke="#9a32cd" points="140.515,-461.565 138.421,-451.179 133.582,-460.604 140.515,-461.565"/>
<text text-anchor="middle" x="249.5" y="-593" font-family="FreeSans" font-size="10.00"> LeftButtonReleaseEvtRelay</text>
<text text-anchor="middle" x="249.5" y="-581" font-family="FreeSans" font-size="10.00">KeyPressEvtRelay</text>
<text text-anchor="middle" x="249.5" y="-569" font-family="FreeSans" font-size="10.00">DomainModifiedEvtRelay</text>
<text text-anchor="middle" x="249.5" y="-557" font-family="FreeSans" font-size="10.00">VolumeMapperComputeGradientsStartEvtRelay</text>
<text text-anchor="middle" x="249.5" y="-545" font-family="FreeSans" font-size="10.00">ErrorEvtRelay</text>
<text text-anchor="middle" x="249.5" y="-533" font-family="FreeSans" font-size="10.00">VolumeMapperRenderStartEvtRelay</text>
<text text-anchor="middle" x="249.5" y="-521" font-family="FreeSans" font-size="10.00">StartEvtRelay</text>
<text text-anchor="middle" x="249.5" y="-509" font-family="FreeSans" font-size="10.00">ResetCameraEvtRelay</text>
<text text-anchor="middle" x="249.5" y="-497" font-family="FreeSans" font-size="10.00">EnableEvtRelay</text>
<text text-anchor="middle" x="249.5" y="-485" font-family="FreeSans" font-size="10.00">DeleteEvtRelay</text>
<text text-anchor="middle" x="249.5" y="-473" font-family="FreeSans" font-size="10.00">...</text>
</g>
<!-- Node9&#45;&gt;Node8 -->
<g id="edge18" class="edge"><title>Node9&#45;&gt;Node8</title>
<path fill="none" stroke="#9a32cd" stroke-dasharray="5,2" d="M78.9794,-615.818C73.4393,-612.138 68.5104,-607.596 65,-602 33.8229,-552.303 31.8299,-518.389 65,-470 69.7359,-463.091 86.5114,-456.287 102.999,-451.008"/>
<polygon fill="#9a32cd" stroke="#9a32cd" points="77.6386,-619.079 88.0724,-620.919 81.0636,-612.974 77.6386,-619.079"/>
<text text-anchor="middle" x="89" y="-539" font-family="FreeSans" font-size="10.00"> Sender</text>
<text text-anchor="middle" x="89" y="-527" font-family="FreeSans" font-size="10.00">EventImpl</text>
</g>
</g>
</svg>
