<?xml version="1.0" encoding="UTF-8" standalone="no"?>
<!DOCTYPE svg PUBLIC "-//W3C//DTD SVG 1.1//EN"
 "http://www.w3.org/Graphics/SVG/1.1/DTD/svg11.dtd">
<!-- Generated by graphviz version 2.26.3 (20100126.1600)
 -->
<!-- Title: G Pages: 1 -->
<svg width="443pt" height="650pt"
 viewBox="0.00 0.00 443.46 650.00" xmlns="http://www.w3.org/2000/svg" xmlns:xlink="http://www.w3.org/1999/xlink">
<g id="graph1" class="graph" transform="scale(1 1) rotate(0) translate(4 646)">
<title>G</title>
<!-- Node1 -->
<g id="node1" class="node"><title>Node1</title>
<polygon fill="#bfbfbf" stroke="black" points="-0.5,-1 -0.5,-21 214.5,-21 214.5,-1 -0.5,-1"/>
<text text-anchor="middle" x="107" y="-8" font-family="FreeSans" font-size="10.00">Kitware.VTK.vtkPassThroughEdgeStrategy</text>
</g>
<!-- Node2 -->
<g id="node2" class="node"><title>Node2</title>
<a xlink:href="class_kitware_1_1_v_t_k_1_1vtk_edge_layout_strategy.html" target="_top" xlink:title="vtkEdgeLayoutStrategy &#45; abstract superclass for all edge layout strategies">
<polygon fill="none" stroke="black" points="43,-61 43,-81 171,-81 171,-61 43,-61"/>
<text text-anchor="middle" x="107" y="-68" font-family="FreeSans" font-size="10.00">vtkEdgeLayoutStrategy</text>
</a>
</g>
<!-- Node2&#45;&gt;Node1 -->
<g id="edge2" class="edge"><title>Node2&#45;&gt;Node1</title>
<path fill="none" stroke="midnightblue" d="M107,-50.5155C107,-40.562 107,-29.0495 107,-21.0279"/>
<polygon fill="midnightblue" stroke="midnightblue" points="103.5,-50.8218 107,-60.8218 110.5,-50.8219 103.5,-50.8218"/>
</g>
<!-- Node3 -->
<g id="node4" class="node"><title>Node3</title>
<a xlink:href="class_kitware_1_1_v_t_k_1_1vtk_object.html" target="_top" xlink:title="vtkObject &#45; abstract base class for most VTK objects">
<polygon fill="none" stroke="black" points="76,-121 76,-141 138,-141 138,-121 76,-121"/>
<text text-anchor="middle" x="107" y="-128" font-family="FreeSans" font-size="10.00">vtkObject</text>
</a>
</g>
<!-- Node3&#45;&gt;Node2 -->
<g id="edge4" class="edge"><title>Node3&#45;&gt;Node2</title>
<path fill="none" stroke="midnightblue" d="M107,-110.516C107,-100.562 107,-89.0495 107,-81.0279"/>
<polygon fill="midnightblue" stroke="midnightblue" points="103.5,-110.822 107,-120.822 110.5,-110.822 103.5,-110.822"/>
</g>
<!-- Node4 -->
<g id="node6" class="node"><title>Node4</title>
<a xlink:href="class_kitware_1_1_v_t_k_1_1vtk_object_base.html" target="_top" xlink:title="vtkObjectBase &#45; abstract base class for most VTK objects">
<polygon fill="none" stroke="black" points="127,-561 127,-581 213,-581 213,-561 127,-561"/>
<text text-anchor="middle" x="170" y="-568" font-family="FreeSans" font-size="10.00">vtkObjectBase</text>
</a>
</g>
<!-- Node4&#45;&gt;Node3 -->
<g id="edge6" class="edge"><title>Node4&#45;&gt;Node3</title>
<path fill="none" stroke="midnightblue" d="M141.423,-555.886C127.687,-547.44 111.884,-535.826 101,-522 89.1564,-506.955 88.6209,-500.802 85,-482 59.4248,-349.199 94.5766,-183.437 104.516,-141.17"/>
<polygon fill="midnightblue" stroke="midnightblue" points="139.683,-558.923 150.079,-560.97 143.229,-552.887 139.683,-558.923"/>
</g>
<!-- Node7 -->
<g id="node13" class="node"><title>Node7</title>
<a xlink:href="class_kitware_1_1_v_t_k_1_1vtk_object.html" target="_top" xlink:title="vtkObject &#45; abstract base class for most VTK objects">
<polygon fill="none" stroke="black" points="110,-501 110,-521 230,-521 230,-501 110,-501"/>
<text text-anchor="middle" x="170" y="-508" font-family="FreeSans" font-size="10.00">Kitware.VTK.vtkObject</text>
</a>
</g>
<!-- Node4&#45;&gt;Node7 -->
<g id="edge16" class="edge"><title>Node4&#45;&gt;Node7</title>
<path fill="none" stroke="midnightblue" d="M170,-550.516C170,-540.562 170,-529.05 170,-521.028"/>
<polygon fill="midnightblue" stroke="midnightblue" points="166.5,-550.822 170,-560.822 173.5,-550.822 166.5,-550.822"/>
</g>
<!-- Node5 -->
<g id="node8" class="node"><title>Node5</title>
<a xlink:href="class_kitware_1_1_v_t_k_1_1_wrapped_object.html" target="_top" xlink:title="Base class for all the mummy wrapped classes in Kitware.VTK.">
<polygon fill="none" stroke="black" points="308.5,-621 308.5,-641 397.5,-641 397.5,-621 308.5,-621"/>
<text text-anchor="middle" x="353" y="-628" font-family="FreeSans" font-size="10.00">WrappedObject</text>
</a>
</g>
<!-- Node5&#45;&gt;Node4 -->
<g id="edge8" class="edge"><title>Node5&#45;&gt;Node4</title>
<path fill="none" stroke="midnightblue" d="M312.804,-617.821C279.042,-606.752 231.512,-591.168 200.73,-581.075"/>
<polygon fill="midnightblue" stroke="midnightblue" points="311.777,-621.168 322.37,-620.957 313.958,-614.516 311.777,-621.168"/>
</g>
<!-- Node6 -->
<g id="node10" class="node"><title>Node6</title>
<a xlink:href="class_kitware_1_1_v_t_k_1_1vtk_object_event_relay.html" target="_top" xlink:title="Implement a relay handler for VTK events. This is a class that receives events directly from the VTK ...">
<polygon fill="none" stroke="black" points="99,-311 99,-331 271,-331 271,-311 99,-311"/>
<text text-anchor="middle" x="185" y="-318" font-family="FreeSans" font-size="10.00">Kitware.VTK.vtkObjectEventRelay</text>
</a>
</g>
<!-- Node5&#45;&gt;Node6 -->
<g id="edge12" class="edge"><title>Node5&#45;&gt;Node6</title>
<path fill="none" stroke="midnightblue" d="M365.888,-612.325C398.276,-562.899 475.803,-427.191 408,-350 398.773,-339.495 330.047,-331.666 271.298,-326.808"/>
<polygon fill="midnightblue" stroke="midnightblue" points="362.891,-610.509 360.239,-620.767 368.709,-614.402 362.891,-610.509"/>
</g>
<!-- Node6&#45;&gt;Node3 -->
<g id="edge10" class="edge"><title>Node6&#45;&gt;Node3</title>
<path fill="none" stroke="#9a32cd" stroke-dasharray="5,2" d="M176.921,-301.321C160.489,-261.293 123.674,-171.616 111.214,-141.266"/>
<polygon fill="#9a32cd" stroke="#9a32cd" points="173.771,-302.863 180.806,-310.785 180.246,-300.205 173.771,-302.863"/>
<text text-anchor="middle" x="284.5" y="-283" font-family="FreeSans" font-size="10.00"> LeftButtonReleaseEvtRelay</text>
<text text-anchor="middle" x="284.5" y="-271" font-family="FreeSans" font-size="10.00">KeyPressEvtRelay</text>
<text text-anchor="middle" x="284.5" y="-259" font-family="FreeSans" font-size="10.00">DomainModifiedEvtRelay</text>
<text text-anchor="middle" x="284.5" y="-247" font-family="FreeSans" font-size="10.00">VolumeMapperComputeGradientsStartEvtRelay</text>
<text text-anchor="middle" x="284.5" y="-235" font-family="FreeSans" font-size="10.00">ErrorEvtRelay</text>
<text text-anchor="middle" x="284.5" y="-223" font-family="FreeSans" font-size="10.00">VolumeMapperRenderStartEvtRelay</text>
<text text-anchor="middle" x="284.5" y="-211" font-family="FreeSans" font-size="10.00">StartEvtRelay</text>
<text text-anchor="middle" x="284.5" y="-199" font-family="FreeSans" font-size="10.00">ResetCameraEvtRelay</text>
<text text-anchor="middle" x="284.5" y="-187" font-family="FreeSans" font-size="10.00">EnableEvtRelay</text>
<text text-anchor="middle" x="284.5" y="-175" font-family="FreeSans" font-size="10.00">DeleteEvtRelay</text>
<text text-anchor="middle" x="284.5" y="-163" font-family="FreeSans" font-size="10.00">...</text>
</g>
<!-- Node6&#45;&gt;Node7 -->
<g id="edge18" class="edge"><title>Node6&#45;&gt;Node7</title>
<path fill="none" stroke="#9a32cd" stroke-dasharray="5,2" d="M182.028,-341.231C181.649,-344.169 181.293,-347.159 181,-350 175.144,-406.853 171.636,-475.333 170.452,-500.807"/>
<polygon fill="#9a32cd" stroke="#9a32cd" points="185.515,-341.565 183.421,-331.179 178.582,-340.604 185.515,-341.565"/>
<text text-anchor="middle" x="294.5" y="-473" font-family="FreeSans" font-size="10.00"> LeftButtonReleaseEvtRelay</text>
<text text-anchor="middle" x="294.5" y="-461" font-family="FreeSans" font-size="10.00">KeyPressEvtRelay</text>
<text text-anchor="middle" x="294.5" y="-449" font-family="FreeSans" font-size="10.00">DomainModifiedEvtRelay</text>
<text text-anchor="middle" x="294.5" y="-437" font-family="FreeSans" font-size="10.00">VolumeMapperComputeGradientsStartEvtRelay</text>
<text text-anchor="middle" x="294.5" y="-425" font-family="FreeSans" font-size="10.00">ErrorEvtRelay</text>
<text text-anchor="middle" x="294.5" y="-413" font-family="FreeSans" font-size="10.00">VolumeMapperRenderStartEvtRelay</text>
<text text-anchor="middle" x="294.5" y="-401" font-family="FreeSans" font-size="10.00">StartEvtRelay</text>
<text text-anchor="middle" x="294.5" y="-389" font-family="FreeSans" font-size="10.00">ResetCameraEvtRelay</text>
<text text-anchor="middle" x="294.5" y="-377" font-family="FreeSans" font-size="10.00">EnableEvtRelay</text>
<text text-anchor="middle" x="294.5" y="-365" font-family="FreeSans" font-size="10.00">DeleteEvtRelay</text>
<text text-anchor="middle" x="294.5" y="-353" font-family="FreeSans" font-size="10.00">...</text>
</g>
<!-- Node7&#45;&gt;Node6 -->
<g id="edge14" class="edge"><title>Node7&#45;&gt;Node6</title>
<path fill="none" stroke="#9a32cd" stroke-dasharray="5,2" d="M123.979,-495.818C118.439,-492.138 113.51,-487.596 110,-482 78.8229,-432.303 76.8299,-398.389 110,-350 114.736,-343.091 131.511,-336.287 147.999,-331.008"/>
<polygon fill="#9a32cd" stroke="#9a32cd" points="122.639,-499.079 133.072,-500.919 126.064,-492.974 122.639,-499.079"/>
<text text-anchor="middle" x="134" y="-419" font-family="FreeSans" font-size="10.00"> Sender</text>
<text text-anchor="middle" x="134" y="-407" font-family="FreeSans" font-size="10.00">EventImpl</text>
</g>
</g>
</svg>
