<?xml version="1.0" encoding="UTF-8" standalone="no"?>
<!DOCTYPE svg PUBLIC "-//W3C//DTD SVG 1.1//EN"
 "http://www.w3.org/Graphics/SVG/1.1/DTD/svg11.dtd">
<!-- Generated by graphviz version 2.26.3 (20100126.1600)
 -->
<!-- Title: G Pages: 1 -->
<svg width="434pt" height="590pt"
 viewBox="0.00 0.00 434.46 590.00" xmlns="http://www.w3.org/2000/svg" xmlns:xlink="http://www.w3.org/1999/xlink">
<g id="graph1" class="graph" transform="scale(1 1) rotate(0) translate(4 586)">
<title>G</title>
<!-- Node1 -->
<g id="node1" class="node"><title>Node1</title>
<polygon fill="#bfbfbf" stroke="black" points="0,-1 0,-21 196,-21 196,-1 0,-1"/>
<text text-anchor="middle" x="98" y="-8" font-family="FreeSans" font-size="10.00">Kitware.VTK.vtkMultiProcessController</text>
</g>
<!-- Node2 -->
<g id="node2" class="node"><title>Node2</title>
<a xlink:href="class_kitware_1_1_v_t_k_1_1vtk_object.html" target="_top" xlink:title="vtkObject &#45; abstract base class for most VTK objects">
<polygon fill="none" stroke="black" points="67,-61 67,-81 129,-81 129,-61 67,-61"/>
<text text-anchor="middle" x="98" y="-68" font-family="FreeSans" font-size="10.00">vtkObject</text>
</a>
</g>
<!-- Node2&#45;&gt;Node1 -->
<g id="edge2" class="edge"><title>Node2&#45;&gt;Node1</title>
<path fill="none" stroke="midnightblue" d="M98,-50.5155C98,-40.562 98,-29.0495 98,-21.0279"/>
<polygon fill="midnightblue" stroke="midnightblue" points="94.5001,-50.8218 98,-60.8218 101.5,-50.8219 94.5001,-50.8218"/>
</g>
<!-- Node3 -->
<g id="node4" class="node"><title>Node3</title>
<a xlink:href="class_kitware_1_1_v_t_k_1_1vtk_object_base.html" target="_top" xlink:title="vtkObjectBase &#45; abstract base class for most VTK objects">
<polygon fill="none" stroke="black" points="118,-501 118,-521 204,-521 204,-501 118,-501"/>
<text text-anchor="middle" x="161" y="-508" font-family="FreeSans" font-size="10.00">vtkObjectBase</text>
</a>
</g>
<!-- Node3&#45;&gt;Node2 -->
<g id="edge4" class="edge"><title>Node3&#45;&gt;Node2</title>
<path fill="none" stroke="midnightblue" d="M132.423,-495.886C118.687,-487.44 102.884,-475.826 92,-462 80.1564,-446.955 79.6209,-440.802 76,-422 50.4248,-289.199 85.5766,-123.437 95.5155,-81.1704"/>
<polygon fill="midnightblue" stroke="midnightblue" points="130.683,-498.923 141.079,-500.97 134.229,-492.887 130.683,-498.923"/>
</g>
<!-- Node6 -->
<g id="node11" class="node"><title>Node6</title>
<a xlink:href="class_kitware_1_1_v_t_k_1_1vtk_object.html" target="_top" xlink:title="vtkObject &#45; abstract base class for most VTK objects">
<polygon fill="none" stroke="black" points="101,-441 101,-461 221,-461 221,-441 101,-441"/>
<text text-anchor="middle" x="161" y="-448" font-family="FreeSans" font-size="10.00">Kitware.VTK.vtkObject</text>
</a>
</g>
<!-- Node3&#45;&gt;Node6 -->
<g id="edge14" class="edge"><title>Node3&#45;&gt;Node6</title>
<path fill="none" stroke="midnightblue" d="M161,-490.516C161,-480.562 161,-469.05 161,-461.028"/>
<polygon fill="midnightblue" stroke="midnightblue" points="157.5,-490.822 161,-500.822 164.5,-490.822 157.5,-490.822"/>
</g>
<!-- Node4 -->
<g id="node6" class="node"><title>Node4</title>
<a xlink:href="class_kitware_1_1_v_t_k_1_1_wrapped_object.html" target="_top" xlink:title="Base class for all the mummy wrapped classes in Kitware.VTK.">
<polygon fill="none" stroke="black" points="299.5,-561 299.5,-581 388.5,-581 388.5,-561 299.5,-561"/>
<text text-anchor="middle" x="344" y="-568" font-family="FreeSans" font-size="10.00">WrappedObject</text>
</a>
</g>
<!-- Node4&#45;&gt;Node3 -->
<g id="edge6" class="edge"><title>Node4&#45;&gt;Node3</title>
<path fill="none" stroke="midnightblue" d="M303.804,-557.821C270.042,-546.752 222.512,-531.168 191.73,-521.075"/>
<polygon fill="midnightblue" stroke="midnightblue" points="302.777,-561.168 313.37,-560.957 304.958,-554.516 302.777,-561.168"/>
</g>
<!-- Node5 -->
<g id="node8" class="node"><title>Node5</title>
<a xlink:href="class_kitware_1_1_v_t_k_1_1vtk_object_event_relay.html" target="_top" xlink:title="Implement a relay handler for VTK events. This is a class that receives events directly from the VTK ...">
<polygon fill="none" stroke="black" points="90,-251 90,-271 262,-271 262,-251 90,-251"/>
<text text-anchor="middle" x="176" y="-258" font-family="FreeSans" font-size="10.00">Kitware.VTK.vtkObjectEventRelay</text>
</a>
</g>
<!-- Node4&#45;&gt;Node5 -->
<g id="edge10" class="edge"><title>Node4&#45;&gt;Node5</title>
<path fill="none" stroke="midnightblue" d="M356.888,-552.325C389.276,-502.899 466.803,-367.191 399,-290 389.773,-279.495 321.047,-271.666 262.298,-266.808"/>
<polygon fill="midnightblue" stroke="midnightblue" points="353.891,-550.509 351.239,-560.767 359.709,-554.402 353.891,-550.509"/>
</g>
<!-- Node5&#45;&gt;Node2 -->
<g id="edge8" class="edge"><title>Node5&#45;&gt;Node2</title>
<path fill="none" stroke="#9a32cd" stroke-dasharray="5,2" d="M167.921,-241.321C151.489,-201.293 114.674,-111.616 102.214,-81.2657"/>
<polygon fill="#9a32cd" stroke="#9a32cd" points="164.771,-242.863 171.806,-250.785 171.246,-240.205 164.771,-242.863"/>
<text text-anchor="middle" x="275.5" y="-223" font-family="FreeSans" font-size="10.00"> LeftButtonReleaseEvtRelay</text>
<text text-anchor="middle" x="275.5" y="-211" font-family="FreeSans" font-size="10.00">KeyPressEvtRelay</text>
<text text-anchor="middle" x="275.5" y="-199" font-family="FreeSans" font-size="10.00">DomainModifiedEvtRelay</text>
<text text-anchor="middle" x="275.5" y="-187" font-family="FreeSans" font-size="10.00">VolumeMapperComputeGradientsStartEvtRelay</text>
<text text-anchor="middle" x="275.5" y="-175" font-family="FreeSans" font-size="10.00">ErrorEvtRelay</text>
<text text-anchor="middle" x="275.5" y="-163" font-family="FreeSans" font-size="10.00">VolumeMapperRenderStartEvtRelay</text>
<text text-anchor="middle" x="275.5" y="-151" font-family="FreeSans" font-size="10.00">StartEvtRelay</text>
<text text-anchor="middle" x="275.5" y="-139" font-family="FreeSans" font-size="10.00">ResetCameraEvtRelay</text>
<text text-anchor="middle" x="275.5" y="-127" font-family="FreeSans" font-size="10.00">EnableEvtRelay</text>
<text text-anchor="middle" x="275.5" y="-115" font-family="FreeSans" font-size="10.00">DeleteEvtRelay</text>
<text text-anchor="middle" x="275.5" y="-103" font-family="FreeSans" font-size="10.00">...</text>
</g>
<!-- Node5&#45;&gt;Node6 -->
<g id="edge16" class="edge"><title>Node5&#45;&gt;Node6</title>
<path fill="none" stroke="#9a32cd" stroke-dasharray="5,2" d="M173.028,-281.231C172.649,-284.169 172.293,-287.159 172,-290 166.144,-346.853 162.636,-415.333 161.452,-440.807"/>
<polygon fill="#9a32cd" stroke="#9a32cd" points="176.515,-281.565 174.421,-271.179 169.582,-280.604 176.515,-281.565"/>
<text text-anchor="middle" x="285.5" y="-413" font-family="FreeSans" font-size="10.00"> LeftButtonReleaseEvtRelay</text>
<text text-anchor="middle" x="285.5" y="-401" font-family="FreeSans" font-size="10.00">KeyPressEvtRelay</text>
<text text-anchor="middle" x="285.5" y="-389" font-family="FreeSans" font-size="10.00">DomainModifiedEvtRelay</text>
<text text-anchor="middle" x="285.5" y="-377" font-family="FreeSans" font-size="10.00">VolumeMapperComputeGradientsStartEvtRelay</text>
<text text-anchor="middle" x="285.5" y="-365" font-family="FreeSans" font-size="10.00">ErrorEvtRelay</text>
<text text-anchor="middle" x="285.5" y="-353" font-family="FreeSans" font-size="10.00">VolumeMapperRenderStartEvtRelay</text>
<text text-anchor="middle" x="285.5" y="-341" font-family="FreeSans" font-size="10.00">StartEvtRelay</text>
<text text-anchor="middle" x="285.5" y="-329" font-family="FreeSans" font-size="10.00">ResetCameraEvtRelay</text>
<text text-anchor="middle" x="285.5" y="-317" font-family="FreeSans" font-size="10.00">EnableEvtRelay</text>
<text text-anchor="middle" x="285.5" y="-305" font-family="FreeSans" font-size="10.00">DeleteEvtRelay</text>
<text text-anchor="middle" x="285.5" y="-293" font-family="FreeSans" font-size="10.00">...</text>
</g>
<!-- Node6&#45;&gt;Node5 -->
<g id="edge12" class="edge"><title>Node6&#45;&gt;Node5</title>
<path fill="none" stroke="#9a32cd" stroke-dasharray="5,2" d="M114.979,-435.818C109.439,-432.138 104.51,-427.596 101,-422 69.8229,-372.303 67.8299,-338.389 101,-290 105.736,-283.091 122.511,-276.287 138.999,-271.008"/>
<polygon fill="#9a32cd" stroke="#9a32cd" points="113.639,-439.079 124.072,-440.919 117.064,-432.974 113.639,-439.079"/>
<text text-anchor="middle" x="125" y="-359" font-family="FreeSans" font-size="10.00"> Sender</text>
<text text-anchor="middle" x="125" y="-347" font-family="FreeSans" font-size="10.00">EventImpl</text>
</g>
</g>
</svg>
