<?xml version="1.0" encoding="UTF-8" standalone="no"?>
<!DOCTYPE svg PUBLIC "-//W3C//DTD SVG 1.1//EN"
 "http://www.w3.org/Graphics/SVG/1.1/DTD/svg11.dtd">
<!-- Generated by graphviz version 2.26.3 (20100126.1600)
 -->
<!-- Title: G Pages: 1 -->
<svg width="240pt" height="378pt"
 viewBox="0.00 0.00 240.00 378.00" xmlns="http://www.w3.org/2000/svg" xmlns:xlink="http://www.w3.org/1999/xlink">
<g id="graph1" class="graph" transform="scale(1 1) rotate(0) translate(4 374)">
<title>G</title>
<!-- Node1 -->
<g id="node1" class="node"><title>Node1</title>
<polygon fill="#bfbfbf" stroke="black" points="19,-59 19,-79 213,-79 213,-59 19,-59"/>
<text text-anchor="middle" x="116" y="-66" font-family="FreeSans" font-size="10.00">Kitware.VTK.vtkRepresentationPainter</text>
</g>
<!-- Node7 -->
<g id="node13" class="node"><title>Node7</title>
<a xlink:href="class_kitware_1_1_v_t_k_1_1vtk_open_g_l_representation_painter.html" target="_top" xlink:title="vtkOpenGLRepresentationPainter &#45; painter handling representation using OpenGL.">
<polygon fill="none" stroke="black" points="-0.5,-1 -0.5,-21 232.5,-21 232.5,-1 -0.5,-1"/>
<text text-anchor="middle" x="116" y="-8" font-family="FreeSans" font-size="10.00">Kitware.VTK.vtkOpenGLRepresentationPainter</text>
</a>
</g>
<!-- Node1&#45;&gt;Node7 -->
<g id="edge12" class="edge"><title>Node1&#45;&gt;Node7</title>
<path fill="none" stroke="midnightblue" d="M116,-48.8902C116,-39.6201 116,-29.0083 116,-21.3776"/>
<polygon fill="midnightblue" stroke="midnightblue" points="112.5,-48.8971 116,-58.8972 119.5,-48.8972 112.5,-48.8971"/>
</g>
<!-- Node2 -->
<g id="node2" class="node"><title>Node2</title>
<a xlink:href="class_kitware_1_1_v_t_k_1_1vtk_poly_data_painter.html" target="_top" xlink:title="vtkPolyDataPainter &#45; Abstract class for drawing poly data.">
<polygon fill="none" stroke="black" points="62.5,-117 62.5,-137 169.5,-137 169.5,-117 62.5,-117"/>
<text text-anchor="middle" x="116" y="-124" font-family="FreeSans" font-size="10.00">vtkPolyDataPainter</text>
</a>
</g>
<!-- Node2&#45;&gt;Node1 -->
<g id="edge2" class="edge"><title>Node2&#45;&gt;Node1</title>
<path fill="none" stroke="midnightblue" d="M116,-106.89C116,-97.6201 116,-87.0083 116,-79.3776"/>
<polygon fill="midnightblue" stroke="midnightblue" points="112.5,-106.897 116,-116.897 119.5,-106.897 112.5,-106.897"/>
</g>
<!-- Node3 -->
<g id="node4" class="node"><title>Node3</title>
<a xlink:href="class_kitware_1_1_v_t_k_1_1vtk_painter.html" target="_top" xlink:title="vtkPainter &#45; Abstract class for drawing poly data.">
<polygon fill="none" stroke="black" points="84,-175 84,-195 148,-195 148,-175 84,-175"/>
<text text-anchor="middle" x="116" y="-182" font-family="FreeSans" font-size="10.00">vtkPainter</text>
</a>
</g>
<!-- Node3&#45;&gt;Node2 -->
<g id="edge4" class="edge"><title>Node3&#45;&gt;Node2</title>
<path fill="none" stroke="midnightblue" d="M116,-164.89C116,-155.62 116,-145.008 116,-137.378"/>
<polygon fill="midnightblue" stroke="midnightblue" points="112.5,-164.897 116,-174.897 119.5,-164.897 112.5,-164.897"/>
</g>
<!-- Node4 -->
<g id="node6" class="node"><title>Node4</title>
<a xlink:href="class_kitware_1_1_v_t_k_1_1vtk_object.html" target="_top" xlink:title="vtkObject &#45; abstract base class for most VTK objects">
<polygon fill="none" stroke="black" points="85,-233 85,-253 147,-253 147,-233 85,-233"/>
<text text-anchor="middle" x="116" y="-240" font-family="FreeSans" font-size="10.00">vtkObject</text>
</a>
</g>
<!-- Node4&#45;&gt;Node3 -->
<g id="edge6" class="edge"><title>Node4&#45;&gt;Node3</title>
<path fill="none" stroke="midnightblue" d="M116,-222.89C116,-213.62 116,-203.008 116,-195.378"/>
<polygon fill="midnightblue" stroke="midnightblue" points="112.5,-222.897 116,-232.897 119.5,-222.897 112.5,-222.897"/>
</g>
<!-- Node5 -->
<g id="node8" class="node"><title>Node5</title>
<a xlink:href="class_kitware_1_1_v_t_k_1_1vtk_object_base.html" target="_top" xlink:title="vtkObjectBase &#45; abstract base class for most VTK objects">
<polygon fill="none" stroke="black" points="73,-291 73,-311 159,-311 159,-291 73,-291"/>
<text text-anchor="middle" x="116" y="-298" font-family="FreeSans" font-size="10.00">vtkObjectBase</text>
</a>
</g>
<!-- Node5&#45;&gt;Node4 -->
<g id="edge8" class="edge"><title>Node5&#45;&gt;Node4</title>
<path fill="none" stroke="midnightblue" d="M116,-280.89C116,-271.62 116,-261.008 116,-253.378"/>
<polygon fill="midnightblue" stroke="midnightblue" points="112.5,-280.897 116,-290.897 119.5,-280.897 112.5,-280.897"/>
</g>
<!-- Node6 -->
<g id="node10" class="node"><title>Node6</title>
<a xlink:href="class_kitware_1_1_v_t_k_1_1_wrapped_object.html" target="_top" xlink:title="Base class for all the mummy wrapped classes in Kitware.VTK.">
<polygon fill="none" stroke="black" points="71.5,-349 71.5,-369 160.5,-369 160.5,-349 71.5,-349"/>
<text text-anchor="middle" x="116" y="-356" font-family="FreeSans" font-size="10.00">WrappedObject</text>
</a>
</g>
<!-- Node6&#45;&gt;Node5 -->
<g id="edge10" class="edge"><title>Node6&#45;&gt;Node5</title>
<path fill="none" stroke="midnightblue" d="M116,-338.89C116,-329.62 116,-319.008 116,-311.378"/>
<polygon fill="midnightblue" stroke="midnightblue" points="112.5,-338.897 116,-348.897 119.5,-338.897 112.5,-338.897"/>
</g>
</g>
</svg>
