<?xml version="1.0" encoding="UTF-8" standalone="no"?>
<!DOCTYPE svg PUBLIC "-//W3C//DTD SVG 1.1//EN"
 "http://www.w3.org/Graphics/SVG/1.1/DTD/svg11.dtd">
<!-- Generated by graphviz version 2.26.3 (20100126.1600)
 -->
<!-- Title: G Pages: 1 -->
<svg width="438pt" height="710pt"
 viewBox="0.00 0.00 438.46 710.00" xmlns="http://www.w3.org/2000/svg" xmlns:xlink="http://www.w3.org/1999/xlink">
<g id="graph1" class="graph" transform="scale(1 1) rotate(0) translate(4 706)">
<title>G</title>
<!-- Node1 -->
<g id="node1" class="node"><title>Node1</title>
<polygon fill="#bfbfbf" stroke="black" points="-0.5,-1 -0.5,-21 204.5,-21 204.5,-1 -0.5,-1"/>
<text text-anchor="middle" x="102" y="-8" font-family="FreeSans" font-size="10.00">Kitware.VTK.vtkTransformTextureCoords</text>
</g>
<!-- Node2 -->
<g id="node2" class="node"><title>Node2</title>
<a xlink:href="class_kitware_1_1_v_t_k_1_1vtk_data_set_algorithm.html" target="_top" xlink:title="vtkDataSetAlgorithm &#45; Superclass for algorithms that produce output of the same type as input...">
<polygon fill="none" stroke="black" points="43.5,-61 43.5,-81 160.5,-81 160.5,-61 43.5,-61"/>
<text text-anchor="middle" x="102" y="-68" font-family="FreeSans" font-size="10.00">vtkDataSetAlgorithm</text>
</a>
</g>
<!-- Node2&#45;&gt;Node1 -->
<g id="edge2" class="edge"><title>Node2&#45;&gt;Node1</title>
<path fill="none" stroke="midnightblue" d="M102,-50.5155C102,-40.562 102,-29.0495 102,-21.0279"/>
<polygon fill="midnightblue" stroke="midnightblue" points="98.5001,-50.8218 102,-60.8218 105.5,-50.8219 98.5001,-50.8218"/>
</g>
<!-- Node3 -->
<g id="node4" class="node"><title>Node3</title>
<a xlink:href="class_kitware_1_1_v_t_k_1_1vtk_algorithm.html" target="_top" xlink:title="vtkAlgorithm &#45; Superclass for all sources, filters, and sinks in VTK.">
<polygon fill="none" stroke="black" points="63.5,-121 63.5,-141 140.5,-141 140.5,-121 63.5,-121"/>
<text text-anchor="middle" x="102" y="-128" font-family="FreeSans" font-size="10.00">vtkAlgorithm</text>
</a>
</g>
<!-- Node3&#45;&gt;Node2 -->
<g id="edge4" class="edge"><title>Node3&#45;&gt;Node2</title>
<path fill="none" stroke="midnightblue" d="M102,-110.516C102,-100.562 102,-89.0495 102,-81.0279"/>
<polygon fill="midnightblue" stroke="midnightblue" points="98.5001,-110.822 102,-120.822 105.5,-110.822 98.5001,-110.822"/>
</g>
<!-- Node4 -->
<g id="node6" class="node"><title>Node4</title>
<a xlink:href="class_kitware_1_1_v_t_k_1_1vtk_object.html" target="_top" xlink:title="vtkObject &#45; abstract base class for most VTK objects">
<polygon fill="none" stroke="black" points="71,-181 71,-201 133,-201 133,-181 71,-181"/>
<text text-anchor="middle" x="102" y="-188" font-family="FreeSans" font-size="10.00">vtkObject</text>
</a>
</g>
<!-- Node4&#45;&gt;Node3 -->
<g id="edge6" class="edge"><title>Node4&#45;&gt;Node3</title>
<path fill="none" stroke="midnightblue" d="M102,-170.516C102,-160.562 102,-149.05 102,-141.028"/>
<polygon fill="midnightblue" stroke="midnightblue" points="98.5001,-170.822 102,-180.822 105.5,-170.822 98.5001,-170.822"/>
</g>
<!-- Node5 -->
<g id="node8" class="node"><title>Node5</title>
<a xlink:href="class_kitware_1_1_v_t_k_1_1vtk_object_base.html" target="_top" xlink:title="vtkObjectBase &#45; abstract base class for most VTK objects">
<polygon fill="none" stroke="black" points="122,-621 122,-641 208,-641 208,-621 122,-621"/>
<text text-anchor="middle" x="165" y="-628" font-family="FreeSans" font-size="10.00">vtkObjectBase</text>
</a>
</g>
<!-- Node5&#45;&gt;Node4 -->
<g id="edge8" class="edge"><title>Node5&#45;&gt;Node4</title>
<path fill="none" stroke="midnightblue" d="M136.423,-615.886C122.687,-607.44 106.884,-595.826 96,-582 84.1564,-566.955 83.6209,-560.802 80,-542 54.4248,-409.199 89.5766,-243.437 99.5155,-201.17"/>
<polygon fill="midnightblue" stroke="midnightblue" points="134.683,-618.923 145.079,-620.97 138.229,-612.887 134.683,-618.923"/>
</g>
<!-- Node8 -->
<g id="node15" class="node"><title>Node8</title>
<a xlink:href="class_kitware_1_1_v_t_k_1_1vtk_object.html" target="_top" xlink:title="vtkObject &#45; abstract base class for most VTK objects">
<polygon fill="none" stroke="black" points="105,-561 105,-581 225,-581 225,-561 105,-561"/>
<text text-anchor="middle" x="165" y="-568" font-family="FreeSans" font-size="10.00">Kitware.VTK.vtkObject</text>
</a>
</g>
<!-- Node5&#45;&gt;Node8 -->
<g id="edge18" class="edge"><title>Node5&#45;&gt;Node8</title>
<path fill="none" stroke="midnightblue" d="M165,-610.516C165,-600.562 165,-589.05 165,-581.028"/>
<polygon fill="midnightblue" stroke="midnightblue" points="161.5,-610.822 165,-620.822 168.5,-610.822 161.5,-610.822"/>
</g>
<!-- Node6 -->
<g id="node10" class="node"><title>Node6</title>
<a xlink:href="class_kitware_1_1_v_t_k_1_1_wrapped_object.html" target="_top" xlink:title="Base class for all the mummy wrapped classes in Kitware.VTK.">
<polygon fill="none" stroke="black" points="303.5,-681 303.5,-701 392.5,-701 392.5,-681 303.5,-681"/>
<text text-anchor="middle" x="348" y="-688" font-family="FreeSans" font-size="10.00">WrappedObject</text>
</a>
</g>
<!-- Node6&#45;&gt;Node5 -->
<g id="edge10" class="edge"><title>Node6&#45;&gt;Node5</title>
<path fill="none" stroke="midnightblue" d="M307.804,-677.821C274.042,-666.752 226.512,-651.168 195.73,-641.075"/>
<polygon fill="midnightblue" stroke="midnightblue" points="306.777,-681.168 317.37,-680.957 308.958,-674.516 306.777,-681.168"/>
</g>
<!-- Node7 -->
<g id="node12" class="node"><title>Node7</title>
<a xlink:href="class_kitware_1_1_v_t_k_1_1vtk_object_event_relay.html" target="_top" xlink:title="Implement a relay handler for VTK events. This is a class that receives events directly from the VTK ...">
<polygon fill="none" stroke="black" points="94,-371 94,-391 266,-391 266,-371 94,-371"/>
<text text-anchor="middle" x="180" y="-378" font-family="FreeSans" font-size="10.00">Kitware.VTK.vtkObjectEventRelay</text>
</a>
</g>
<!-- Node6&#45;&gt;Node7 -->
<g id="edge14" class="edge"><title>Node6&#45;&gt;Node7</title>
<path fill="none" stroke="midnightblue" d="M360.888,-672.325C393.276,-622.899 470.803,-487.191 403,-410 393.773,-399.495 325.047,-391.666 266.298,-386.808"/>
<polygon fill="midnightblue" stroke="midnightblue" points="357.891,-670.509 355.239,-680.767 363.709,-674.402 357.891,-670.509"/>
</g>
<!-- Node7&#45;&gt;Node4 -->
<g id="edge12" class="edge"><title>Node7&#45;&gt;Node4</title>
<path fill="none" stroke="#9a32cd" stroke-dasharray="5,2" d="M171.921,-361.321C155.489,-321.293 118.674,-231.616 106.214,-201.266"/>
<polygon fill="#9a32cd" stroke="#9a32cd" points="168.771,-362.863 175.806,-370.785 175.246,-360.205 168.771,-362.863"/>
<text text-anchor="middle" x="279.5" y="-343" font-family="FreeSans" font-size="10.00"> LeftButtonReleaseEvtRelay</text>
<text text-anchor="middle" x="279.5" y="-331" font-family="FreeSans" font-size="10.00">KeyPressEvtRelay</text>
<text text-anchor="middle" x="279.5" y="-319" font-family="FreeSans" font-size="10.00">DomainModifiedEvtRelay</text>
<text text-anchor="middle" x="279.5" y="-307" font-family="FreeSans" font-size="10.00">VolumeMapperComputeGradientsStartEvtRelay</text>
<text text-anchor="middle" x="279.5" y="-295" font-family="FreeSans" font-size="10.00">ErrorEvtRelay</text>
<text text-anchor="middle" x="279.5" y="-283" font-family="FreeSans" font-size="10.00">VolumeMapperRenderStartEvtRelay</text>
<text text-anchor="middle" x="279.5" y="-271" font-family="FreeSans" font-size="10.00">StartEvtRelay</text>
<text text-anchor="middle" x="279.5" y="-259" font-family="FreeSans" font-size="10.00">ResetCameraEvtRelay</text>
<text text-anchor="middle" x="279.5" y="-247" font-family="FreeSans" font-size="10.00">EnableEvtRelay</text>
<text text-anchor="middle" x="279.5" y="-235" font-family="FreeSans" font-size="10.00">DeleteEvtRelay</text>
<text text-anchor="middle" x="279.5" y="-223" font-family="FreeSans" font-size="10.00">...</text>
</g>
<!-- Node7&#45;&gt;Node8 -->
<g id="edge20" class="edge"><title>Node7&#45;&gt;Node8</title>
<path fill="none" stroke="#9a32cd" stroke-dasharray="5,2" d="M177.028,-401.231C176.649,-404.169 176.293,-407.159 176,-410 170.144,-466.853 166.636,-535.333 165.452,-560.807"/>
<polygon fill="#9a32cd" stroke="#9a32cd" points="180.515,-401.565 178.421,-391.179 173.582,-400.604 180.515,-401.565"/>
<text text-anchor="middle" x="289.5" y="-533" font-family="FreeSans" font-size="10.00"> LeftButtonReleaseEvtRelay</text>
<text text-anchor="middle" x="289.5" y="-521" font-family="FreeSans" font-size="10.00">KeyPressEvtRelay</text>
<text text-anchor="middle" x="289.5" y="-509" font-family="FreeSans" font-size="10.00">DomainModifiedEvtRelay</text>
<text text-anchor="middle" x="289.5" y="-497" font-family="FreeSans" font-size="10.00">VolumeMapperComputeGradientsStartEvtRelay</text>
<text text-anchor="middle" x="289.5" y="-485" font-family="FreeSans" font-size="10.00">ErrorEvtRelay</text>
<text text-anchor="middle" x="289.5" y="-473" font-family="FreeSans" font-size="10.00">VolumeMapperRenderStartEvtRelay</text>
<text text-anchor="middle" x="289.5" y="-461" font-family="FreeSans" font-size="10.00">StartEvtRelay</text>
<text text-anchor="middle" x="289.5" y="-449" font-family="FreeSans" font-size="10.00">ResetCameraEvtRelay</text>
<text text-anchor="middle" x="289.5" y="-437" font-family="FreeSans" font-size="10.00">EnableEvtRelay</text>
<text text-anchor="middle" x="289.5" y="-425" font-family="FreeSans" font-size="10.00">DeleteEvtRelay</text>
<text text-anchor="middle" x="289.5" y="-413" font-family="FreeSans" font-size="10.00">...</text>
</g>
<!-- Node8&#45;&gt;Node7 -->
<g id="edge16" class="edge"><title>Node8&#45;&gt;Node7</title>
<path fill="none" stroke="#9a32cd" stroke-dasharray="5,2" d="M118.979,-555.818C113.439,-552.138 108.51,-547.596 105,-542 73.8229,-492.303 71.8299,-458.389 105,-410 109.736,-403.091 126.511,-396.287 142.999,-391.008"/>
<polygon fill="#9a32cd" stroke="#9a32cd" points="117.639,-559.079 128.072,-560.919 121.064,-552.974 117.639,-559.079"/>
<text text-anchor="middle" x="129" y="-479" font-family="FreeSans" font-size="10.00"> Sender</text>
<text text-anchor="middle" x="129" y="-467" font-family="FreeSans" font-size="10.00">EventImpl</text>
</g>
</g>
</svg>
