<?xml version="1.0" encoding="UTF-8" standalone="no"?>
<!DOCTYPE svg PUBLIC "-//W3C//DTD SVG 1.1//EN"
 "http://www.w3.org/Graphics/SVG/1.1/DTD/svg11.dtd">
<!-- Generated by graphviz version 2.26.3 (20100126.1600)
 -->
<!-- Title: G Pages: 1 -->
<svg width="166pt" height="262pt"
 viewBox="0.00 0.00 166.00 262.00" xmlns="http://www.w3.org/2000/svg" xmlns:xlink="http://www.w3.org/1999/xlink">
<g id="graph1" class="graph" transform="scale(1 1) rotate(0) translate(4 258)">
<title>G</title>
<!-- Node1 -->
<g id="node1" class="node"><title>Node1</title>
<polygon fill="#bfbfbf" stroke="black" points="-0.5,-1 -0.5,-21 158.5,-21 158.5,-1 -0.5,-1"/>
<text text-anchor="middle" x="79" y="-8" font-family="FreeSans" font-size="10.00">Kitware.VTK.vtkParametricDini</text>
</g>
<!-- Node2 -->
<g id="node2" class="node"><title>Node2</title>
<a xlink:href="class_kitware_1_1_v_t_k_1_1vtk_parametric_function.html" target="_top" xlink:title="vtkParametricFunction &#45; abstract interface for parametric functions">
<polygon fill="none" stroke="black" points="18,-59 18,-79 140,-79 140,-59 18,-59"/>
<text text-anchor="middle" x="79" y="-66" font-family="FreeSans" font-size="10.00">vtkParametricFunction</text>
</a>
</g>
<!-- Node2&#45;&gt;Node1 -->
<g id="edge2" class="edge"><title>Node2&#45;&gt;Node1</title>
<path fill="none" stroke="midnightblue" d="M79,-48.8902C79,-39.6201 79,-29.0083 79,-21.3776"/>
<polygon fill="midnightblue" stroke="midnightblue" points="75.5001,-48.8971 79,-58.8972 82.5001,-48.8972 75.5001,-48.8971"/>
</g>
<!-- Node3 -->
<g id="node4" class="node"><title>Node3</title>
<a xlink:href="class_kitware_1_1_v_t_k_1_1vtk_object.html" target="_top" xlink:title="vtkObject &#45; abstract base class for most VTK objects">
<polygon fill="none" stroke="black" points="48,-117 48,-137 110,-137 110,-117 48,-117"/>
<text text-anchor="middle" x="79" y="-124" font-family="FreeSans" font-size="10.00">vtkObject</text>
</a>
</g>
<!-- Node3&#45;&gt;Node2 -->
<g id="edge4" class="edge"><title>Node3&#45;&gt;Node2</title>
<path fill="none" stroke="midnightblue" d="M79,-106.89C79,-97.6201 79,-87.0083 79,-79.3776"/>
<polygon fill="midnightblue" stroke="midnightblue" points="75.5001,-106.897 79,-116.897 82.5001,-106.897 75.5001,-106.897"/>
</g>
<!-- Node4 -->
<g id="node6" class="node"><title>Node4</title>
<a xlink:href="class_kitware_1_1_v_t_k_1_1vtk_object_base.html" target="_top" xlink:title="vtkObjectBase &#45; abstract base class for most VTK objects">
<polygon fill="none" stroke="black" points="36,-175 36,-195 122,-195 122,-175 36,-175"/>
<text text-anchor="middle" x="79" y="-182" font-family="FreeSans" font-size="10.00">vtkObjectBase</text>
</a>
</g>
<!-- Node4&#45;&gt;Node3 -->
<g id="edge6" class="edge"><title>Node4&#45;&gt;Node3</title>
<path fill="none" stroke="midnightblue" d="M79,-164.89C79,-155.62 79,-145.008 79,-137.378"/>
<polygon fill="midnightblue" stroke="midnightblue" points="75.5001,-164.897 79,-174.897 82.5001,-164.897 75.5001,-164.897"/>
</g>
<!-- Node5 -->
<g id="node8" class="node"><title>Node5</title>
<a xlink:href="class_kitware_1_1_v_t_k_1_1_wrapped_object.html" target="_top" xlink:title="Base class for all the mummy wrapped classes in Kitware.VTK.">
<polygon fill="none" stroke="black" points="34.5,-233 34.5,-253 123.5,-253 123.5,-233 34.5,-233"/>
<text text-anchor="middle" x="79" y="-240" font-family="FreeSans" font-size="10.00">WrappedObject</text>
</a>
</g>
<!-- Node5&#45;&gt;Node4 -->
<g id="edge8" class="edge"><title>Node5&#45;&gt;Node4</title>
<path fill="none" stroke="midnightblue" d="M79,-222.89C79,-213.62 79,-203.008 79,-195.378"/>
<polygon fill="midnightblue" stroke="midnightblue" points="75.5001,-222.897 79,-232.897 82.5001,-222.897 75.5001,-222.897"/>
</g>
</g>
</svg>
