<?xml version="1.0" encoding="UTF-8" standalone="no"?>
<!DOCTYPE svg PUBLIC "-//W3C//DTD SVG 1.1//EN"
 "http://www.w3.org/Graphics/SVG/1.1/DTD/svg11.dtd">
<!-- Generated by graphviz version 2.26.3 (20100126.1600)
 -->
<!-- Title: G Pages: 1 -->
<svg width="398pt" height="830pt"
 viewBox="0.00 0.00 398.46 830.00" xmlns="http://www.w3.org/2000/svg" xmlns:xlink="http://www.w3.org/1999/xlink">
<g id="graph1" class="graph" transform="scale(1 1) rotate(0) translate(4 826)">
<title>G</title>
<!-- Node1 -->
<g id="node1" class="node"><title>Node1</title>
<polygon fill="#bfbfbf" stroke="black" points="-0.5,-1 -0.5,-21 124.5,-21 124.5,-1 -0.5,-1"/>
<text text-anchor="middle" x="62" y="-8" font-family="FreeSans" font-size="10.00">Kitware.VTK.vtkIVWriter</text>
</g>
<!-- Node2 -->
<g id="node2" class="node"><title>Node2</title>
<a xlink:href="class_kitware_1_1_v_t_k_1_1vtk_poly_data_writer.html" target="_top" xlink:title="vtkPolyDataWriter &#45; write vtk polygonal data">
<polygon fill="none" stroke="black" points="11.5,-61 11.5,-81 112.5,-81 112.5,-61 11.5,-61"/>
<text text-anchor="middle" x="62" y="-68" font-family="FreeSans" font-size="10.00">vtkPolyDataWriter</text>
</a>
</g>
<!-- Node2&#45;&gt;Node1 -->
<g id="edge2" class="edge"><title>Node2&#45;&gt;Node1</title>
<path fill="none" stroke="midnightblue" d="M62,-50.5155C62,-40.562 62,-29.0495 62,-21.0279"/>
<polygon fill="midnightblue" stroke="midnightblue" points="58.5001,-50.8218 62,-60.8218 65.5001,-50.8219 58.5001,-50.8218"/>
</g>
<!-- Node3 -->
<g id="node4" class="node"><title>Node3</title>
<a xlink:href="class_kitware_1_1_v_t_k_1_1vtk_data_writer.html" target="_top" xlink:title="vtkDataWriter &#45; helper class for objects that write vtk data files">
<polygon fill="none" stroke="black" points="21.5,-121 21.5,-141 102.5,-141 102.5,-121 21.5,-121"/>
<text text-anchor="middle" x="62" y="-128" font-family="FreeSans" font-size="10.00">vtkDataWriter</text>
</a>
</g>
<!-- Node3&#45;&gt;Node2 -->
<g id="edge4" class="edge"><title>Node3&#45;&gt;Node2</title>
<path fill="none" stroke="midnightblue" d="M62,-110.516C62,-100.562 62,-89.0495 62,-81.0279"/>
<polygon fill="midnightblue" stroke="midnightblue" points="58.5001,-110.822 62,-120.822 65.5001,-110.822 58.5001,-110.822"/>
</g>
<!-- Node4 -->
<g id="node6" class="node"><title>Node4</title>
<a xlink:href="class_kitware_1_1_v_t_k_1_1vtk_writer.html" target="_top" xlink:title="vtkWriter &#45; abstract class to write data to file(s)">
<polygon fill="none" stroke="black" points="33,-181 33,-201 91,-201 91,-181 33,-181"/>
<text text-anchor="middle" x="62" y="-188" font-family="FreeSans" font-size="10.00">vtkWriter</text>
</a>
</g>
<!-- Node4&#45;&gt;Node3 -->
<g id="edge6" class="edge"><title>Node4&#45;&gt;Node3</title>
<path fill="none" stroke="midnightblue" d="M62,-170.516C62,-160.562 62,-149.05 62,-141.028"/>
<polygon fill="midnightblue" stroke="midnightblue" points="58.5001,-170.822 62,-180.822 65.5001,-170.822 58.5001,-170.822"/>
</g>
<!-- Node5 -->
<g id="node8" class="node"><title>Node5</title>
<a xlink:href="class_kitware_1_1_v_t_k_1_1vtk_algorithm.html" target="_top" xlink:title="vtkAlgorithm &#45; Superclass for all sources, filters, and sinks in VTK.">
<polygon fill="none" stroke="black" points="23.5,-241 23.5,-261 100.5,-261 100.5,-241 23.5,-241"/>
<text text-anchor="middle" x="62" y="-248" font-family="FreeSans" font-size="10.00">vtkAlgorithm</text>
</a>
</g>
<!-- Node5&#45;&gt;Node4 -->
<g id="edge8" class="edge"><title>Node5&#45;&gt;Node4</title>
<path fill="none" stroke="midnightblue" d="M62,-230.516C62,-220.562 62,-209.05 62,-201.028"/>
<polygon fill="midnightblue" stroke="midnightblue" points="58.5001,-230.822 62,-240.822 65.5001,-230.822 58.5001,-230.822"/>
</g>
<!-- Node6 -->
<g id="node10" class="node"><title>Node6</title>
<a xlink:href="class_kitware_1_1_v_t_k_1_1vtk_object.html" target="_top" xlink:title="vtkObject &#45; abstract base class for most VTK objects">
<polygon fill="none" stroke="black" points="31,-301 31,-321 93,-321 93,-301 31,-301"/>
<text text-anchor="middle" x="62" y="-308" font-family="FreeSans" font-size="10.00">vtkObject</text>
</a>
</g>
<!-- Node6&#45;&gt;Node5 -->
<g id="edge10" class="edge"><title>Node6&#45;&gt;Node5</title>
<path fill="none" stroke="midnightblue" d="M62,-290.516C62,-280.562 62,-269.05 62,-261.028"/>
<polygon fill="midnightblue" stroke="midnightblue" points="58.5001,-290.822 62,-300.822 65.5001,-290.822 58.5001,-290.822"/>
</g>
<!-- Node7 -->
<g id="node12" class="node"><title>Node7</title>
<a xlink:href="class_kitware_1_1_v_t_k_1_1vtk_object_base.html" target="_top" xlink:title="vtkObjectBase &#45; abstract base class for most VTK objects">
<polygon fill="none" stroke="black" points="82,-741 82,-761 168,-761 168,-741 82,-741"/>
<text text-anchor="middle" x="125" y="-748" font-family="FreeSans" font-size="10.00">vtkObjectBase</text>
</a>
</g>
<!-- Node7&#45;&gt;Node6 -->
<g id="edge12" class="edge"><title>Node7&#45;&gt;Node6</title>
<path fill="none" stroke="midnightblue" d="M96.4228,-735.886C82.6866,-727.44 66.8844,-715.826 56,-702 44.1564,-686.955 43.6209,-680.802 40,-662 14.4248,-529.199 49.5766,-363.437 59.5155,-321.17"/>
<polygon fill="midnightblue" stroke="midnightblue" points="94.6834,-738.923 105.079,-740.97 98.2285,-732.887 94.6834,-738.923"/>
</g>
<!-- Node10 -->
<g id="node19" class="node"><title>Node10</title>
<a xlink:href="class_kitware_1_1_v_t_k_1_1vtk_object.html" target="_top" xlink:title="vtkObject &#45; abstract base class for most VTK objects">
<polygon fill="none" stroke="black" points="65,-681 65,-701 185,-701 185,-681 65,-681"/>
<text text-anchor="middle" x="125" y="-688" font-family="FreeSans" font-size="10.00">Kitware.VTK.vtkObject</text>
</a>
</g>
<!-- Node7&#45;&gt;Node10 -->
<g id="edge22" class="edge"><title>Node7&#45;&gt;Node10</title>
<path fill="none" stroke="midnightblue" d="M125,-730.516C125,-720.562 125,-709.05 125,-701.028"/>
<polygon fill="midnightblue" stroke="midnightblue" points="121.5,-730.822 125,-740.822 128.5,-730.822 121.5,-730.822"/>
</g>
<!-- Node8 -->
<g id="node14" class="node"><title>Node8</title>
<a xlink:href="class_kitware_1_1_v_t_k_1_1_wrapped_object.html" target="_top" xlink:title="Base class for all the mummy wrapped classes in Kitware.VTK.">
<polygon fill="none" stroke="black" points="263.5,-801 263.5,-821 352.5,-821 352.5,-801 263.5,-801"/>
<text text-anchor="middle" x="308" y="-808" font-family="FreeSans" font-size="10.00">WrappedObject</text>
</a>
</g>
<!-- Node8&#45;&gt;Node7 -->
<g id="edge14" class="edge"><title>Node8&#45;&gt;Node7</title>
<path fill="none" stroke="midnightblue" d="M267.804,-797.821C234.042,-786.752 186.512,-771.168 155.73,-761.075"/>
<polygon fill="midnightblue" stroke="midnightblue" points="266.777,-801.168 277.37,-800.957 268.958,-794.516 266.777,-801.168"/>
</g>
<!-- Node9 -->
<g id="node16" class="node"><title>Node9</title>
<a xlink:href="class_kitware_1_1_v_t_k_1_1vtk_object_event_relay.html" target="_top" xlink:title="Implement a relay handler for VTK events. This is a class that receives events directly from the VTK ...">
<polygon fill="none" stroke="black" points="54,-491 54,-511 226,-511 226,-491 54,-491"/>
<text text-anchor="middle" x="140" y="-498" font-family="FreeSans" font-size="10.00">Kitware.VTK.vtkObjectEventRelay</text>
</a>
</g>
<!-- Node8&#45;&gt;Node9 -->
<g id="edge18" class="edge"><title>Node8&#45;&gt;Node9</title>
<path fill="none" stroke="midnightblue" d="M320.888,-792.325C353.276,-742.899 430.803,-607.191 363,-530 353.773,-519.495 285.047,-511.666 226.298,-506.808"/>
<polygon fill="midnightblue" stroke="midnightblue" points="317.891,-790.509 315.239,-800.767 323.709,-794.402 317.891,-790.509"/>
</g>
<!-- Node9&#45;&gt;Node6 -->
<g id="edge16" class="edge"><title>Node9&#45;&gt;Node6</title>
<path fill="none" stroke="#9a32cd" stroke-dasharray="5,2" d="M131.921,-481.321C115.489,-441.293 78.6738,-351.616 66.2144,-321.266"/>
<polygon fill="#9a32cd" stroke="#9a32cd" points="128.771,-482.863 135.806,-490.785 135.246,-480.205 128.771,-482.863"/>
<text text-anchor="middle" x="239.5" y="-463" font-family="FreeSans" font-size="10.00"> LeftButtonReleaseEvtRelay</text>
<text text-anchor="middle" x="239.5" y="-451" font-family="FreeSans" font-size="10.00">KeyPressEvtRelay</text>
<text text-anchor="middle" x="239.5" y="-439" font-family="FreeSans" font-size="10.00">DomainModifiedEvtRelay</text>
<text text-anchor="middle" x="239.5" y="-427" font-family="FreeSans" font-size="10.00">VolumeMapperComputeGradientsStartEvtRelay</text>
<text text-anchor="middle" x="239.5" y="-415" font-family="FreeSans" font-size="10.00">ErrorEvtRelay</text>
<text text-anchor="middle" x="239.5" y="-403" font-family="FreeSans" font-size="10.00">VolumeMapperRenderStartEvtRelay</text>
<text text-anchor="middle" x="239.5" y="-391" font-family="FreeSans" font-size="10.00">StartEvtRelay</text>
<text text-anchor="middle" x="239.5" y="-379" font-family="FreeSans" font-size="10.00">ResetCameraEvtRelay</text>
<text text-anchor="middle" x="239.5" y="-367" font-family="FreeSans" font-size="10.00">EnableEvtRelay</text>
<text text-anchor="middle" x="239.5" y="-355" font-family="FreeSans" font-size="10.00">DeleteEvtRelay</text>
<text text-anchor="middle" x="239.5" y="-343" font-family="FreeSans" font-size="10.00">...</text>
</g>
<!-- Node9&#45;&gt;Node10 -->
<g id="edge24" class="edge"><title>Node9&#45;&gt;Node10</title>
<path fill="none" stroke="#9a32cd" stroke-dasharray="5,2" d="M137.028,-521.231C136.649,-524.169 136.293,-527.159 136,-530 130.144,-586.853 126.636,-655.333 125.452,-680.807"/>
<polygon fill="#9a32cd" stroke="#9a32cd" points="140.515,-521.565 138.421,-511.179 133.582,-520.604 140.515,-521.565"/>
<text text-anchor="middle" x="249.5" y="-653" font-family="FreeSans" font-size="10.00"> LeftButtonReleaseEvtRelay</text>
<text text-anchor="middle" x="249.5" y="-641" font-family="FreeSans" font-size="10.00">KeyPressEvtRelay</text>
<text text-anchor="middle" x="249.5" y="-629" font-family="FreeSans" font-size="10.00">DomainModifiedEvtRelay</text>
<text text-anchor="middle" x="249.5" y="-617" font-family="FreeSans" font-size="10.00">VolumeMapperComputeGradientsStartEvtRelay</text>
<text text-anchor="middle" x="249.5" y="-605" font-family="FreeSans" font-size="10.00">ErrorEvtRelay</text>
<text text-anchor="middle" x="249.5" y="-593" font-family="FreeSans" font-size="10.00">VolumeMapperRenderStartEvtRelay</text>
<text text-anchor="middle" x="249.5" y="-581" font-family="FreeSans" font-size="10.00">StartEvtRelay</text>
<text text-anchor="middle" x="249.5" y="-569" font-family="FreeSans" font-size="10.00">ResetCameraEvtRelay</text>
<text text-anchor="middle" x="249.5" y="-557" font-family="FreeSans" font-size="10.00">EnableEvtRelay</text>
<text text-anchor="middle" x="249.5" y="-545" font-family="FreeSans" font-size="10.00">DeleteEvtRelay</text>
<text text-anchor="middle" x="249.5" y="-533" font-family="FreeSans" font-size="10.00">...</text>
</g>
<!-- Node10&#45;&gt;Node9 -->
<g id="edge20" class="edge"><title>Node10&#45;&gt;Node9</title>
<path fill="none" stroke="#9a32cd" stroke-dasharray="5,2" d="M78.9794,-675.818C73.4393,-672.138 68.5104,-667.596 65,-662 33.8229,-612.303 31.8299,-578.389 65,-530 69.7359,-523.091 86.5114,-516.287 102.999,-511.008"/>
<polygon fill="#9a32cd" stroke="#9a32cd" points="77.6386,-679.079 88.0724,-680.919 81.0636,-672.974 77.6386,-679.079"/>
<text text-anchor="middle" x="89" y="-599" font-family="FreeSans" font-size="10.00"> Sender</text>
<text text-anchor="middle" x="89" y="-587" font-family="FreeSans" font-size="10.00">EventImpl</text>
</g>
</g>
</svg>
