<?xml version="1.0" encoding="UTF-8" standalone="no"?>
<!DOCTYPE svg PUBLIC "-//W3C//DTD SVG 1.1//EN"
 "http://www.w3.org/Graphics/SVG/1.1/DTD/svg11.dtd">
<!-- Generated by graphviz version 2.26.3 (20100126.1600)
 -->
<!-- Title: G Pages: 1 -->
<svg width="444pt" height="494pt"
 viewBox="0.00 0.00 444.00 494.00" xmlns="http://www.w3.org/2000/svg" xmlns:xlink="http://www.w3.org/1999/xlink">
<g id="graph1" class="graph" transform="scale(1 1) rotate(0) translate(4 490)">
<title>G</title>
<!-- Node1 -->
<g id="node1" class="node"><title>Node1</title>
<polygon fill="#bfbfbf" stroke="black" points="129.5,-59 129.5,-79 332.5,-79 332.5,-59 129.5,-59"/>
<text text-anchor="middle" x="231" y="-66" font-family="FreeSans" font-size="10.00">Kitware.VTK.vtkImageMultipleInputFilter</text>
</g>
<!-- Node9 -->
<g id="node17" class="node"><title>Node9</title>
<a xlink:href="class_kitware_1_1_v_t_k_1_1vtk_image_multiple_input_output_filter.html" target="_top" xlink:title="vtkImageMultipleInputOutputFilter &#45; Generic filter that has N inputs.">
<polygon fill="none" stroke="black" points="0,-1 0,-21 236,-21 236,-1 0,-1"/>
<text text-anchor="middle" x="118" y="-8" font-family="FreeSans" font-size="10.00">Kitware.VTK.vtkImageMultipleInputOutputFilter</text>
</a>
</g>
<!-- Node1&#45;&gt;Node9 -->
<g id="edge16" class="edge"><title>Node1&#45;&gt;Node9</title>
<path fill="none" stroke="midnightblue" d="M202.272,-54.2544C182.115,-43.9086 155.682,-30.3411 137.837,-21.1817"/>
<polygon fill="midnightblue" stroke="midnightblue" points="200.822,-57.4445 211.317,-58.8972 204.019,-51.217 200.822,-57.4445"/>
</g>
<!-- Node10 -->
<g id="node19" class="node"><title>Node10</title>
<a xlink:href="class_kitware_1_1_v_t_k_1_1vtk_image_two_input_filter.html" target="_top" xlink:title="vtkImageTwoInputFilter &#45; Generic superclass for filters that have two inputs.">
<polygon fill="none" stroke="black" points="254,-1 254,-21 436,-21 436,-1 254,-1"/>
<text text-anchor="middle" x="345" y="-8" font-family="FreeSans" font-size="10.00">Kitware.VTK.vtkImageTwoInputFilter</text>
</a>
</g>
<!-- Node1&#45;&gt;Node10 -->
<g id="edge18" class="edge"><title>Node1&#45;&gt;Node10</title>
<path fill="none" stroke="midnightblue" d="M259.983,-54.2544C280.318,-43.9086 306.985,-30.3411 324.988,-21.1817"/>
<polygon fill="midnightblue" stroke="midnightblue" points="258.183,-51.2431 250.857,-58.8972 261.357,-57.482 258.183,-51.2431"/>
</g>
<!-- Node2 -->
<g id="node2" class="node"><title>Node2</title>
<a xlink:href="class_kitware_1_1_v_t_k_1_1vtk_image_source.html" target="_top" xlink:title="vtkImageSource &#45; Source of data for the imaging pipeline">
<polygon fill="none" stroke="black" points="183.5,-117 183.5,-137 278.5,-137 278.5,-117 183.5,-117"/>
<text text-anchor="middle" x="231" y="-124" font-family="FreeSans" font-size="10.00">vtkImageSource</text>
</a>
</g>
<!-- Node2&#45;&gt;Node1 -->
<g id="edge2" class="edge"><title>Node2&#45;&gt;Node1</title>
<path fill="none" stroke="midnightblue" d="M231,-106.89C231,-97.6201 231,-87.0083 231,-79.3776"/>
<polygon fill="midnightblue" stroke="midnightblue" points="227.5,-106.897 231,-116.897 234.5,-106.897 227.5,-106.897"/>
</g>
<!-- Node3 -->
<g id="node4" class="node"><title>Node3</title>
<a xlink:href="class_kitware_1_1_v_t_k_1_1vtk_source.html" target="_top" xlink:title="vtkSource &#45; abstract class specifies interface for visualization network source">
<polygon fill="none" stroke="black" points="198.5,-175 198.5,-195 263.5,-195 263.5,-175 198.5,-175"/>
<text text-anchor="middle" x="231" y="-182" font-family="FreeSans" font-size="10.00">vtkSource</text>
</a>
</g>
<!-- Node3&#45;&gt;Node2 -->
<g id="edge4" class="edge"><title>Node3&#45;&gt;Node2</title>
<path fill="none" stroke="midnightblue" d="M231,-164.89C231,-155.62 231,-145.008 231,-137.378"/>
<polygon fill="midnightblue" stroke="midnightblue" points="227.5,-164.897 231,-174.897 234.5,-164.897 227.5,-164.897"/>
</g>
<!-- Node4 -->
<g id="node6" class="node"><title>Node4</title>
<a xlink:href="class_kitware_1_1_v_t_k_1_1vtk_process_object.html" target="_top" xlink:title="vtkProcessObject &#45; abstract class specifies interface for visualization filters">
<polygon fill="none" stroke="black" points="181.5,-233 181.5,-253 280.5,-253 280.5,-233 181.5,-233"/>
<text text-anchor="middle" x="231" y="-240" font-family="FreeSans" font-size="10.00">vtkProcessObject</text>
</a>
</g>
<!-- Node4&#45;&gt;Node3 -->
<g id="edge6" class="edge"><title>Node4&#45;&gt;Node3</title>
<path fill="none" stroke="midnightblue" d="M231,-222.89C231,-213.62 231,-203.008 231,-195.378"/>
<polygon fill="midnightblue" stroke="midnightblue" points="227.5,-222.897 231,-232.897 234.5,-222.897 227.5,-222.897"/>
</g>
<!-- Node5 -->
<g id="node8" class="node"><title>Node5</title>
<a xlink:href="class_kitware_1_1_v_t_k_1_1vtk_algorithm.html" target="_top" xlink:title="vtkAlgorithm &#45; Superclass for all sources, filters, and sinks in VTK.">
<polygon fill="none" stroke="black" points="192.5,-291 192.5,-311 269.5,-311 269.5,-291 192.5,-291"/>
<text text-anchor="middle" x="231" y="-298" font-family="FreeSans" font-size="10.00">vtkAlgorithm</text>
</a>
</g>
<!-- Node5&#45;&gt;Node4 -->
<g id="edge8" class="edge"><title>Node5&#45;&gt;Node4</title>
<path fill="none" stroke="midnightblue" d="M231,-280.89C231,-271.62 231,-261.008 231,-253.378"/>
<polygon fill="midnightblue" stroke="midnightblue" points="227.5,-280.897 231,-290.897 234.5,-280.897 227.5,-280.897"/>
</g>
<!-- Node6 -->
<g id="node10" class="node"><title>Node6</title>
<a xlink:href="class_kitware_1_1_v_t_k_1_1vtk_object.html" target="_top" xlink:title="vtkObject &#45; abstract base class for most VTK objects">
<polygon fill="none" stroke="black" points="200,-349 200,-369 262,-369 262,-349 200,-349"/>
<text text-anchor="middle" x="231" y="-356" font-family="FreeSans" font-size="10.00">vtkObject</text>
</a>
</g>
<!-- Node6&#45;&gt;Node5 -->
<g id="edge10" class="edge"><title>Node6&#45;&gt;Node5</title>
<path fill="none" stroke="midnightblue" d="M231,-338.89C231,-329.62 231,-319.008 231,-311.378"/>
<polygon fill="midnightblue" stroke="midnightblue" points="227.5,-338.897 231,-348.897 234.5,-338.897 227.5,-338.897"/>
</g>
<!-- Node7 -->
<g id="node12" class="node"><title>Node7</title>
<a xlink:href="class_kitware_1_1_v_t_k_1_1vtk_object_base.html" target="_top" xlink:title="vtkObjectBase &#45; abstract base class for most VTK objects">
<polygon fill="none" stroke="black" points="188,-407 188,-427 274,-427 274,-407 188,-407"/>
<text text-anchor="middle" x="231" y="-414" font-family="FreeSans" font-size="10.00">vtkObjectBase</text>
</a>
</g>
<!-- Node7&#45;&gt;Node6 -->
<g id="edge12" class="edge"><title>Node7&#45;&gt;Node6</title>
<path fill="none" stroke="midnightblue" d="M231,-396.89C231,-387.62 231,-377.008 231,-369.378"/>
<polygon fill="midnightblue" stroke="midnightblue" points="227.5,-396.897 231,-406.897 234.5,-396.897 227.5,-396.897"/>
</g>
<!-- Node8 -->
<g id="node14" class="node"><title>Node8</title>
<a xlink:href="class_kitware_1_1_v_t_k_1_1_wrapped_object.html" target="_top" xlink:title="Base class for all the mummy wrapped classes in Kitware.VTK.">
<polygon fill="none" stroke="black" points="186.5,-465 186.5,-485 275.5,-485 275.5,-465 186.5,-465"/>
<text text-anchor="middle" x="231" y="-472" font-family="FreeSans" font-size="10.00">WrappedObject</text>
</a>
</g>
<!-- Node8&#45;&gt;Node7 -->
<g id="edge14" class="edge"><title>Node8&#45;&gt;Node7</title>
<path fill="none" stroke="midnightblue" d="M231,-454.89C231,-445.62 231,-435.008 231,-427.378"/>
<polygon fill="midnightblue" stroke="midnightblue" points="227.5,-454.897 231,-464.897 234.5,-454.897 227.5,-454.897"/>
</g>
</g>
</svg>
