<?xml version="1.0" encoding="UTF-8" standalone="no"?>
<!DOCTYPE svg PUBLIC "-//W3C//DTD SVG 1.1//EN"
 "http://www.w3.org/Graphics/SVG/1.1/DTD/svg11.dtd">
<!-- Generated by graphviz version 2.26.3 (20100126.1600)
 -->
<!-- Title: G Pages: 1 -->
<svg width="444pt" height="650pt"
 viewBox="0.00 0.00 444.46 650.00" xmlns="http://www.w3.org/2000/svg" xmlns:xlink="http://www.w3.org/1999/xlink">
<g id="graph1" class="graph" transform="scale(1 1) rotate(0) translate(4 646)">
<title>G</title>
<!-- Node1 -->
<g id="node1" class="node"><title>Node1</title>
<polygon fill="#bfbfbf" stroke="black" points="0,-1 0,-21 216,-21 216,-1 0,-1"/>
<text text-anchor="middle" x="108" y="-8" font-family="FreeSans" font-size="10.00">Kitware.VTK.vtkCompositeRenderManager</text>
</g>
<!-- Node2 -->
<g id="node2" class="node"><title>Node2</title>
<a xlink:href="class_kitware_1_1_v_t_k_1_1vtk_parallel_render_manager.html" target="_top" xlink:title="vtkParallelRenderManager &#45; An object to control parallel rendering.">
<polygon fill="none" stroke="black" points="38,-61 38,-81 178,-81 178,-61 38,-61"/>
<text text-anchor="middle" x="108" y="-68" font-family="FreeSans" font-size="10.00">vtkParallelRenderManager</text>
</a>
</g>
<!-- Node2&#45;&gt;Node1 -->
<g id="edge2" class="edge"><title>Node2&#45;&gt;Node1</title>
<path fill="none" stroke="midnightblue" d="M108,-50.5155C108,-40.562 108,-29.0495 108,-21.0279"/>
<polygon fill="midnightblue" stroke="midnightblue" points="104.5,-50.8218 108,-60.8218 111.5,-50.8219 104.5,-50.8218"/>
</g>
<!-- Node3 -->
<g id="node4" class="node"><title>Node3</title>
<a xlink:href="class_kitware_1_1_v_t_k_1_1vtk_object.html" target="_top" xlink:title="vtkObject &#45; abstract base class for most VTK objects">
<polygon fill="none" stroke="black" points="77,-121 77,-141 139,-141 139,-121 77,-121"/>
<text text-anchor="middle" x="108" y="-128" font-family="FreeSans" font-size="10.00">vtkObject</text>
</a>
</g>
<!-- Node3&#45;&gt;Node2 -->
<g id="edge4" class="edge"><title>Node3&#45;&gt;Node2</title>
<path fill="none" stroke="midnightblue" d="M108,-110.516C108,-100.562 108,-89.0495 108,-81.0279"/>
<polygon fill="midnightblue" stroke="midnightblue" points="104.5,-110.822 108,-120.822 111.5,-110.822 104.5,-110.822"/>
</g>
<!-- Node4 -->
<g id="node6" class="node"><title>Node4</title>
<a xlink:href="class_kitware_1_1_v_t_k_1_1vtk_object_base.html" target="_top" xlink:title="vtkObjectBase &#45; abstract base class for most VTK objects">
<polygon fill="none" stroke="black" points="128,-561 128,-581 214,-581 214,-561 128,-561"/>
<text text-anchor="middle" x="171" y="-568" font-family="FreeSans" font-size="10.00">vtkObjectBase</text>
</a>
</g>
<!-- Node4&#45;&gt;Node3 -->
<g id="edge6" class="edge"><title>Node4&#45;&gt;Node3</title>
<path fill="none" stroke="midnightblue" d="M142.423,-555.886C128.687,-547.44 112.884,-535.826 102,-522 90.1564,-506.955 89.6209,-500.802 86,-482 60.4248,-349.199 95.5766,-183.437 105.516,-141.17"/>
<polygon fill="midnightblue" stroke="midnightblue" points="140.683,-558.923 151.079,-560.97 144.229,-552.887 140.683,-558.923"/>
</g>
<!-- Node7 -->
<g id="node13" class="node"><title>Node7</title>
<a xlink:href="class_kitware_1_1_v_t_k_1_1vtk_object.html" target="_top" xlink:title="vtkObject &#45; abstract base class for most VTK objects">
<polygon fill="none" stroke="black" points="111,-501 111,-521 231,-521 231,-501 111,-501"/>
<text text-anchor="middle" x="171" y="-508" font-family="FreeSans" font-size="10.00">Kitware.VTK.vtkObject</text>
</a>
</g>
<!-- Node4&#45;&gt;Node7 -->
<g id="edge16" class="edge"><title>Node4&#45;&gt;Node7</title>
<path fill="none" stroke="midnightblue" d="M171,-550.516C171,-540.562 171,-529.05 171,-521.028"/>
<polygon fill="midnightblue" stroke="midnightblue" points="167.5,-550.822 171,-560.822 174.5,-550.822 167.5,-550.822"/>
</g>
<!-- Node5 -->
<g id="node8" class="node"><title>Node5</title>
<a xlink:href="class_kitware_1_1_v_t_k_1_1_wrapped_object.html" target="_top" xlink:title="Base class for all the mummy wrapped classes in Kitware.VTK.">
<polygon fill="none" stroke="black" points="309.5,-621 309.5,-641 398.5,-641 398.5,-621 309.5,-621"/>
<text text-anchor="middle" x="354" y="-628" font-family="FreeSans" font-size="10.00">WrappedObject</text>
</a>
</g>
<!-- Node5&#45;&gt;Node4 -->
<g id="edge8" class="edge"><title>Node5&#45;&gt;Node4</title>
<path fill="none" stroke="midnightblue" d="M313.804,-617.821C280.042,-606.752 232.512,-591.168 201.73,-581.075"/>
<polygon fill="midnightblue" stroke="midnightblue" points="312.777,-621.168 323.37,-620.957 314.958,-614.516 312.777,-621.168"/>
</g>
<!-- Node6 -->
<g id="node10" class="node"><title>Node6</title>
<a xlink:href="class_kitware_1_1_v_t_k_1_1vtk_object_event_relay.html" target="_top" xlink:title="Implement a relay handler for VTK events. This is a class that receives events directly from the VTK ...">
<polygon fill="none" stroke="black" points="100,-311 100,-331 272,-331 272,-311 100,-311"/>
<text text-anchor="middle" x="186" y="-318" font-family="FreeSans" font-size="10.00">Kitware.VTK.vtkObjectEventRelay</text>
</a>
</g>
<!-- Node5&#45;&gt;Node6 -->
<g id="edge12" class="edge"><title>Node5&#45;&gt;Node6</title>
<path fill="none" stroke="midnightblue" d="M366.888,-612.325C399.276,-562.899 476.803,-427.191 409,-350 399.773,-339.495 331.047,-331.666 272.298,-326.808"/>
<polygon fill="midnightblue" stroke="midnightblue" points="363.891,-610.509 361.239,-620.767 369.709,-614.402 363.891,-610.509"/>
</g>
<!-- Node6&#45;&gt;Node3 -->
<g id="edge10" class="edge"><title>Node6&#45;&gt;Node3</title>
<path fill="none" stroke="#9a32cd" stroke-dasharray="5,2" d="M177.921,-301.321C161.489,-261.293 124.674,-171.616 112.214,-141.266"/>
<polygon fill="#9a32cd" stroke="#9a32cd" points="174.771,-302.863 181.806,-310.785 181.246,-300.205 174.771,-302.863"/>
<text text-anchor="middle" x="285.5" y="-283" font-family="FreeSans" font-size="10.00"> LeftButtonReleaseEvtRelay</text>
<text text-anchor="middle" x="285.5" y="-271" font-family="FreeSans" font-size="10.00">KeyPressEvtRelay</text>
<text text-anchor="middle" x="285.5" y="-259" font-family="FreeSans" font-size="10.00">DomainModifiedEvtRelay</text>
<text text-anchor="middle" x="285.5" y="-247" font-family="FreeSans" font-size="10.00">VolumeMapperComputeGradientsStartEvtRelay</text>
<text text-anchor="middle" x="285.5" y="-235" font-family="FreeSans" font-size="10.00">ErrorEvtRelay</text>
<text text-anchor="middle" x="285.5" y="-223" font-family="FreeSans" font-size="10.00">VolumeMapperRenderStartEvtRelay</text>
<text text-anchor="middle" x="285.5" y="-211" font-family="FreeSans" font-size="10.00">StartEvtRelay</text>
<text text-anchor="middle" x="285.5" y="-199" font-family="FreeSans" font-size="10.00">ResetCameraEvtRelay</text>
<text text-anchor="middle" x="285.5" y="-187" font-family="FreeSans" font-size="10.00">EnableEvtRelay</text>
<text text-anchor="middle" x="285.5" y="-175" font-family="FreeSans" font-size="10.00">DeleteEvtRelay</text>
<text text-anchor="middle" x="285.5" y="-163" font-family="FreeSans" font-size="10.00">...</text>
</g>
<!-- Node6&#45;&gt;Node7 -->
<g id="edge18" class="edge"><title>Node6&#45;&gt;Node7</title>
<path fill="none" stroke="#9a32cd" stroke-dasharray="5,2" d="M183.028,-341.231C182.649,-344.169 182.293,-347.159 182,-350 176.144,-406.853 172.636,-475.333 171.452,-500.807"/>
<polygon fill="#9a32cd" stroke="#9a32cd" points="186.515,-341.565 184.421,-331.179 179.582,-340.604 186.515,-341.565"/>
<text text-anchor="middle" x="295.5" y="-473" font-family="FreeSans" font-size="10.00"> LeftButtonReleaseEvtRelay</text>
<text text-anchor="middle" x="295.5" y="-461" font-family="FreeSans" font-size="10.00">KeyPressEvtRelay</text>
<text text-anchor="middle" x="295.5" y="-449" font-family="FreeSans" font-size="10.00">DomainModifiedEvtRelay</text>
<text text-anchor="middle" x="295.5" y="-437" font-family="FreeSans" font-size="10.00">VolumeMapperComputeGradientsStartEvtRelay</text>
<text text-anchor="middle" x="295.5" y="-425" font-family="FreeSans" font-size="10.00">ErrorEvtRelay</text>
<text text-anchor="middle" x="295.5" y="-413" font-family="FreeSans" font-size="10.00">VolumeMapperRenderStartEvtRelay</text>
<text text-anchor="middle" x="295.5" y="-401" font-family="FreeSans" font-size="10.00">StartEvtRelay</text>
<text text-anchor="middle" x="295.5" y="-389" font-family="FreeSans" font-size="10.00">ResetCameraEvtRelay</text>
<text text-anchor="middle" x="295.5" y="-377" font-family="FreeSans" font-size="10.00">EnableEvtRelay</text>
<text text-anchor="middle" x="295.5" y="-365" font-family="FreeSans" font-size="10.00">DeleteEvtRelay</text>
<text text-anchor="middle" x="295.5" y="-353" font-family="FreeSans" font-size="10.00">...</text>
</g>
<!-- Node7&#45;&gt;Node6 -->
<g id="edge14" class="edge"><title>Node7&#45;&gt;Node6</title>
<path fill="none" stroke="#9a32cd" stroke-dasharray="5,2" d="M124.979,-495.818C119.439,-492.138 114.51,-487.596 111,-482 79.8229,-432.303 77.8299,-398.389 111,-350 115.736,-343.091 132.511,-336.287 148.999,-331.008"/>
<polygon fill="#9a32cd" stroke="#9a32cd" points="123.639,-499.079 134.072,-500.919 127.064,-492.974 123.639,-499.079"/>
<text text-anchor="middle" x="135" y="-419" font-family="FreeSans" font-size="10.00"> Sender</text>
<text text-anchor="middle" x="135" y="-407" font-family="FreeSans" font-size="10.00">EventImpl</text>
</g>
</g>
</svg>
