<?xml version="1.0" encoding="UTF-8" standalone="no"?>
<!DOCTYPE svg PUBLIC "-//W3C//DTD SVG 1.1//EN"
 "http://www.w3.org/Graphics/SVG/1.1/DTD/svg11.dtd">
<!-- Generated by graphviz version 2.26.3 (20100126.1600)
 -->
<!-- Title: G Pages: 1 -->
<svg width="419pt" height="830pt"
 viewBox="0.00 0.00 419.46 830.00" xmlns="http://www.w3.org/2000/svg" xmlns:xlink="http://www.w3.org/1999/xlink">
<g id="graph1" class="graph" transform="scale(1 1) rotate(0) translate(4 826)">
<title>G</title>
<!-- Node1 -->
<g id="node1" class="node"><title>Node1</title>
<polygon fill="#bfbfbf" stroke="black" points="0,-1 0,-21 166,-21 166,-1 0,-1"/>
<text text-anchor="middle" x="83" y="-8" font-family="FreeSans" font-size="10.00">Kitware.VTK.vtkGlyph3DMapper</text>
</g>
<!-- Node2 -->
<g id="node2" class="node"><title>Node2</title>
<a xlink:href="class_kitware_1_1_v_t_k_1_1vtk_mapper.html" target="_top" xlink:title="vtkMapper &#45; abstract class specifies interface to map data to graphics primitives">
<polygon fill="none" stroke="black" points="49.5,-61 49.5,-81 116.5,-81 116.5,-61 49.5,-61"/>
<text text-anchor="middle" x="83" y="-68" font-family="FreeSans" font-size="10.00">vtkMapper</text>
</a>
</g>
<!-- Node2&#45;&gt;Node1 -->
<g id="edge2" class="edge"><title>Node2&#45;&gt;Node1</title>
<path fill="none" stroke="midnightblue" d="M83,-50.5155C83,-40.562 83,-29.0495 83,-21.0279"/>
<polygon fill="midnightblue" stroke="midnightblue" points="79.5001,-50.8218 83,-60.8218 86.5001,-50.8219 79.5001,-50.8218"/>
</g>
<!-- Node3 -->
<g id="node4" class="node"><title>Node3</title>
<a xlink:href="class_kitware_1_1_v_t_k_1_1vtk_abstract_mapper3_d.html" target="_top" xlink:title="vtkAbstractMapper3D &#45; abstract class specifies interface to map 3D data">
<polygon fill="none" stroke="black" points="22.5,-121 22.5,-141 143.5,-141 143.5,-121 22.5,-121"/>
<text text-anchor="middle" x="83" y="-128" font-family="FreeSans" font-size="10.00">vtkAbstractMapper3D</text>
</a>
</g>
<!-- Node3&#45;&gt;Node2 -->
<g id="edge4" class="edge"><title>Node3&#45;&gt;Node2</title>
<path fill="none" stroke="midnightblue" d="M83,-110.516C83,-100.562 83,-89.0495 83,-81.0279"/>
<polygon fill="midnightblue" stroke="midnightblue" points="79.5001,-110.822 83,-120.822 86.5001,-110.822 79.5001,-110.822"/>
</g>
<!-- Node4 -->
<g id="node6" class="node"><title>Node4</title>
<a xlink:href="class_kitware_1_1_v_t_k_1_1vtk_abstract_mapper.html" target="_top" xlink:title="vtkAbstractMapper &#45; abstract class specifies interface to map data">
<polygon fill="none" stroke="black" points="29.5,-181 29.5,-201 136.5,-201 136.5,-181 29.5,-181"/>
<text text-anchor="middle" x="83" y="-188" font-family="FreeSans" font-size="10.00">vtkAbstractMapper</text>
</a>
</g>
<!-- Node4&#45;&gt;Node3 -->
<g id="edge6" class="edge"><title>Node4&#45;&gt;Node3</title>
<path fill="none" stroke="midnightblue" d="M83,-170.516C83,-160.562 83,-149.05 83,-141.028"/>
<polygon fill="midnightblue" stroke="midnightblue" points="79.5001,-170.822 83,-180.822 86.5001,-170.822 79.5001,-170.822"/>
</g>
<!-- Node5 -->
<g id="node8" class="node"><title>Node5</title>
<a xlink:href="class_kitware_1_1_v_t_k_1_1vtk_algorithm.html" target="_top" xlink:title="vtkAlgorithm &#45; Superclass for all sources, filters, and sinks in VTK.">
<polygon fill="none" stroke="black" points="44.5,-241 44.5,-261 121.5,-261 121.5,-241 44.5,-241"/>
<text text-anchor="middle" x="83" y="-248" font-family="FreeSans" font-size="10.00">vtkAlgorithm</text>
</a>
</g>
<!-- Node5&#45;&gt;Node4 -->
<g id="edge8" class="edge"><title>Node5&#45;&gt;Node4</title>
<path fill="none" stroke="midnightblue" d="M83,-230.516C83,-220.562 83,-209.05 83,-201.028"/>
<polygon fill="midnightblue" stroke="midnightblue" points="79.5001,-230.822 83,-240.822 86.5001,-230.822 79.5001,-230.822"/>
</g>
<!-- Node6 -->
<g id="node10" class="node"><title>Node6</title>
<a xlink:href="class_kitware_1_1_v_t_k_1_1vtk_object.html" target="_top" xlink:title="vtkObject &#45; abstract base class for most VTK objects">
<polygon fill="none" stroke="black" points="52,-301 52,-321 114,-321 114,-301 52,-301"/>
<text text-anchor="middle" x="83" y="-308" font-family="FreeSans" font-size="10.00">vtkObject</text>
</a>
</g>
<!-- Node6&#45;&gt;Node5 -->
<g id="edge10" class="edge"><title>Node6&#45;&gt;Node5</title>
<path fill="none" stroke="midnightblue" d="M83,-290.516C83,-280.562 83,-269.05 83,-261.028"/>
<polygon fill="midnightblue" stroke="midnightblue" points="79.5001,-290.822 83,-300.822 86.5001,-290.822 79.5001,-290.822"/>
</g>
<!-- Node7 -->
<g id="node12" class="node"><title>Node7</title>
<a xlink:href="class_kitware_1_1_v_t_k_1_1vtk_object_base.html" target="_top" xlink:title="vtkObjectBase &#45; abstract base class for most VTK objects">
<polygon fill="none" stroke="black" points="103,-741 103,-761 189,-761 189,-741 103,-741"/>
<text text-anchor="middle" x="146" y="-748" font-family="FreeSans" font-size="10.00">vtkObjectBase</text>
</a>
</g>
<!-- Node7&#45;&gt;Node6 -->
<g id="edge12" class="edge"><title>Node7&#45;&gt;Node6</title>
<path fill="none" stroke="midnightblue" d="M117.423,-735.886C103.687,-727.44 87.8844,-715.826 77,-702 65.1564,-686.955 64.6209,-680.802 61,-662 35.4248,-529.199 70.5766,-363.437 80.5155,-321.17"/>
<polygon fill="midnightblue" stroke="midnightblue" points="115.683,-738.923 126.079,-740.97 119.229,-732.887 115.683,-738.923"/>
</g>
<!-- Node10 -->
<g id="node19" class="node"><title>Node10</title>
<a xlink:href="class_kitware_1_1_v_t_k_1_1vtk_object.html" target="_top" xlink:title="vtkObject &#45; abstract base class for most VTK objects">
<polygon fill="none" stroke="black" points="86,-681 86,-701 206,-701 206,-681 86,-681"/>
<text text-anchor="middle" x="146" y="-688" font-family="FreeSans" font-size="10.00">Kitware.VTK.vtkObject</text>
</a>
</g>
<!-- Node7&#45;&gt;Node10 -->
<g id="edge22" class="edge"><title>Node7&#45;&gt;Node10</title>
<path fill="none" stroke="midnightblue" d="M146,-730.516C146,-720.562 146,-709.05 146,-701.028"/>
<polygon fill="midnightblue" stroke="midnightblue" points="142.5,-730.822 146,-740.822 149.5,-730.822 142.5,-730.822"/>
</g>
<!-- Node8 -->
<g id="node14" class="node"><title>Node8</title>
<a xlink:href="class_kitware_1_1_v_t_k_1_1_wrapped_object.html" target="_top" xlink:title="Base class for all the mummy wrapped classes in Kitware.VTK.">
<polygon fill="none" stroke="black" points="284.5,-801 284.5,-821 373.5,-821 373.5,-801 284.5,-801"/>
<text text-anchor="middle" x="329" y="-808" font-family="FreeSans" font-size="10.00">WrappedObject</text>
</a>
</g>
<!-- Node8&#45;&gt;Node7 -->
<g id="edge14" class="edge"><title>Node8&#45;&gt;Node7</title>
<path fill="none" stroke="midnightblue" d="M288.804,-797.821C255.042,-786.752 207.512,-771.168 176.73,-761.075"/>
<polygon fill="midnightblue" stroke="midnightblue" points="287.777,-801.168 298.37,-800.957 289.958,-794.516 287.777,-801.168"/>
</g>
<!-- Node9 -->
<g id="node16" class="node"><title>Node9</title>
<a xlink:href="class_kitware_1_1_v_t_k_1_1vtk_object_event_relay.html" target="_top" xlink:title="Implement a relay handler for VTK events. This is a class that receives events directly from the VTK ...">
<polygon fill="none" stroke="black" points="75,-491 75,-511 247,-511 247,-491 75,-491"/>
<text text-anchor="middle" x="161" y="-498" font-family="FreeSans" font-size="10.00">Kitware.VTK.vtkObjectEventRelay</text>
</a>
</g>
<!-- Node8&#45;&gt;Node9 -->
<g id="edge18" class="edge"><title>Node8&#45;&gt;Node9</title>
<path fill="none" stroke="midnightblue" d="M341.888,-792.325C374.276,-742.899 451.803,-607.191 384,-530 374.773,-519.495 306.047,-511.666 247.298,-506.808"/>
<polygon fill="midnightblue" stroke="midnightblue" points="338.891,-790.509 336.239,-800.767 344.709,-794.402 338.891,-790.509"/>
</g>
<!-- Node9&#45;&gt;Node6 -->
<g id="edge16" class="edge"><title>Node9&#45;&gt;Node6</title>
<path fill="none" stroke="#9a32cd" stroke-dasharray="5,2" d="M152.921,-481.321C136.489,-441.293 99.6738,-351.616 87.2144,-321.266"/>
<polygon fill="#9a32cd" stroke="#9a32cd" points="149.771,-482.863 156.806,-490.785 156.246,-480.205 149.771,-482.863"/>
<text text-anchor="middle" x="260.5" y="-463" font-family="FreeSans" font-size="10.00"> LeftButtonReleaseEvtRelay</text>
<text text-anchor="middle" x="260.5" y="-451" font-family="FreeSans" font-size="10.00">KeyPressEvtRelay</text>
<text text-anchor="middle" x="260.5" y="-439" font-family="FreeSans" font-size="10.00">DomainModifiedEvtRelay</text>
<text text-anchor="middle" x="260.5" y="-427" font-family="FreeSans" font-size="10.00">VolumeMapperComputeGradientsStartEvtRelay</text>
<text text-anchor="middle" x="260.5" y="-415" font-family="FreeSans" font-size="10.00">ErrorEvtRelay</text>
<text text-anchor="middle" x="260.5" y="-403" font-family="FreeSans" font-size="10.00">VolumeMapperRenderStartEvtRelay</text>
<text text-anchor="middle" x="260.5" y="-391" font-family="FreeSans" font-size="10.00">StartEvtRelay</text>
<text text-anchor="middle" x="260.5" y="-379" font-family="FreeSans" font-size="10.00">ResetCameraEvtRelay</text>
<text text-anchor="middle" x="260.5" y="-367" font-family="FreeSans" font-size="10.00">EnableEvtRelay</text>
<text text-anchor="middle" x="260.5" y="-355" font-family="FreeSans" font-size="10.00">DeleteEvtRelay</text>
<text text-anchor="middle" x="260.5" y="-343" font-family="FreeSans" font-size="10.00">...</text>
</g>
<!-- Node9&#45;&gt;Node10 -->
<g id="edge24" class="edge"><title>Node9&#45;&gt;Node10</title>
<path fill="none" stroke="#9a32cd" stroke-dasharray="5,2" d="M158.028,-521.231C157.649,-524.169 157.293,-527.159 157,-530 151.144,-586.853 147.636,-655.333 146.452,-680.807"/>
<polygon fill="#9a32cd" stroke="#9a32cd" points="161.515,-521.565 159.421,-511.179 154.582,-520.604 161.515,-521.565"/>
<text text-anchor="middle" x="270.5" y="-653" font-family="FreeSans" font-size="10.00"> LeftButtonReleaseEvtRelay</text>
<text text-anchor="middle" x="270.5" y="-641" font-family="FreeSans" font-size="10.00">KeyPressEvtRelay</text>
<text text-anchor="middle" x="270.5" y="-629" font-family="FreeSans" font-size="10.00">DomainModifiedEvtRelay</text>
<text text-anchor="middle" x="270.5" y="-617" font-family="FreeSans" font-size="10.00">VolumeMapperComputeGradientsStartEvtRelay</text>
<text text-anchor="middle" x="270.5" y="-605" font-family="FreeSans" font-size="10.00">ErrorEvtRelay</text>
<text text-anchor="middle" x="270.5" y="-593" font-family="FreeSans" font-size="10.00">VolumeMapperRenderStartEvtRelay</text>
<text text-anchor="middle" x="270.5" y="-581" font-family="FreeSans" font-size="10.00">StartEvtRelay</text>
<text text-anchor="middle" x="270.5" y="-569" font-family="FreeSans" font-size="10.00">ResetCameraEvtRelay</text>
<text text-anchor="middle" x="270.5" y="-557" font-family="FreeSans" font-size="10.00">EnableEvtRelay</text>
<text text-anchor="middle" x="270.5" y="-545" font-family="FreeSans" font-size="10.00">DeleteEvtRelay</text>
<text text-anchor="middle" x="270.5" y="-533" font-family="FreeSans" font-size="10.00">...</text>
</g>
<!-- Node10&#45;&gt;Node9 -->
<g id="edge20" class="edge"><title>Node10&#45;&gt;Node9</title>
<path fill="none" stroke="#9a32cd" stroke-dasharray="5,2" d="M99.9794,-675.818C94.4393,-672.138 89.5104,-667.596 86,-662 54.8229,-612.303 52.8299,-578.389 86,-530 90.7359,-523.091 107.511,-516.287 123.999,-511.008"/>
<polygon fill="#9a32cd" stroke="#9a32cd" points="98.6386,-679.079 109.072,-680.919 102.064,-672.974 98.6386,-679.079"/>
<text text-anchor="middle" x="110" y="-599" font-family="FreeSans" font-size="10.00"> Sender</text>
<text text-anchor="middle" x="110" y="-587" font-family="FreeSans" font-size="10.00">EventImpl</text>
</g>
</g>
</svg>
