<?xml version="1.0" encoding="UTF-8" standalone="no"?>
<!DOCTYPE svg PUBLIC "-//W3C//DTD SVG 1.1//EN"
 "http://www.w3.org/Graphics/SVG/1.1/DTD/svg11.dtd">
<!-- Generated by graphviz version 2.26.3 (20100126.1600)
 -->
<!-- Title: G Pages: 1 -->
<svg width="1054pt" height="218pt"
 viewBox="0.00 0.00 1054.00 218.00" xmlns="http://www.w3.org/2000/svg" xmlns:xlink="http://www.w3.org/1999/xlink">
<g id="graph1" class="graph" transform="scale(1 1) rotate(0) translate(4 214)">
<title>G</title>
<!-- Node1 -->
<g id="node1" class="node"><title>Node1</title>
<polygon fill="#bfbfbf" stroke="black" points="608,-95 608,-115 802,-115 802,-95 608,-95"/>
<text text-anchor="middle" x="705" y="-102" font-family="FreeSans" font-size="10.00">Kitware.VTK.vtkBorderRepresentation</text>
</g>
<!-- Node7 -->
<g id="node13" class="node"><title>Node7</title>
<a xlink:href="class_kitware_1_1_v_t_k_1_1vtk_camera_representation.html" target="_top" xlink:title="vtkCameraRepresentation &#45; represent the vtkCameraWidget">
<polygon fill="none" stroke="black" points="842,-190 842,-210 1042,-210 1042,-190 842,-190"/>
<text text-anchor="middle" x="942" y="-197" font-family="FreeSans" font-size="10.00">Kitware.VTK.vtkCameraRepresentation</text>
</a>
</g>
<!-- Node1&#45;&gt;Node7 -->
<g id="edge12" class="edge"><title>Node1&#45;&gt;Node7</title>
<path fill="none" stroke="midnightblue" d="M727.203,-120.843C752.717,-138.276 796.433,-165.831 838,-181 847.914,-184.618 858.622,-187.569 869.265,-189.971"/>
<polygon fill="midnightblue" stroke="midnightblue" points="729.184,-117.957 718.971,-115.136 725.195,-123.71 729.184,-117.957"/>
</g>
<!-- Node8 -->
<g id="node15" class="node"><title>Node8</title>
<a xlink:href="class_kitware_1_1_v_t_k_1_1vtk_caption_representation.html" target="_top" xlink:title="vtkCaptionRepresentation &#45; represents vtkCaptionWidget in the scene">
<polygon fill="none" stroke="black" points="843,-152 843,-172 1041,-172 1041,-152 843,-152"/>
<text text-anchor="middle" x="942" y="-159" font-family="FreeSans" font-size="10.00">Kitware.VTK.vtkCaptionRepresentation</text>
</a>
</g>
<!-- Node1&#45;&gt;Node8 -->
<g id="edge14" class="edge"><title>Node1&#45;&gt;Node8</title>
<path fill="none" stroke="midnightblue" d="M746.323,-117.933C772.442,-125.827 807,-135.758 838,-143 852.03,-146.278 867.235,-149.332 881.575,-151.991"/>
<polygon fill="midnightblue" stroke="midnightblue" points="747.337,-114.583 736.751,-115.017 745.297,-121.279 747.337,-114.583"/>
</g>
<!-- Node9 -->
<g id="node17" class="node"><title>Node9</title>
<a xlink:href="class_kitware_1_1_v_t_k_1_1vtk_logo_representation.html" target="_top" xlink:title="vtkLogoRepresentation &#45; represent the vtkLogoWidget">
<polygon fill="none" stroke="black" points="849.5,-114 849.5,-134 1034.5,-134 1034.5,-114 849.5,-114"/>
<text text-anchor="middle" x="942" y="-121" font-family="FreeSans" font-size="10.00">Kitware.VTK.vtkLogoRepresentation</text>
</a>
</g>
<!-- Node1&#45;&gt;Node9 -->
<g id="edge16" class="edge"><title>Node1&#45;&gt;Node9</title>
<path fill="none" stroke="midnightblue" d="M812.377,-113.608C824.694,-114.596 837.173,-115.596 849.274,-116.566"/>
<polygon fill="midnightblue" stroke="midnightblue" points="812.329,-110.093 802.081,-112.783 811.769,-117.071 812.329,-110.093"/>
</g>
<!-- Node10 -->
<g id="node19" class="node"><title>Node10</title>
<a xlink:href="class_kitware_1_1_v_t_k_1_1vtk_playback_representation.html" target="_top" xlink:title="vtkPlaybackRepresentation &#45; represent the vtkPlaybackWidget">
<polygon fill="none" stroke="black" points="840.5,-76 840.5,-96 1043.5,-96 1043.5,-76 840.5,-76"/>
<text text-anchor="middle" x="942" y="-83" font-family="FreeSans" font-size="10.00">Kitware.VTK.vtkPlaybackRepresentation</text>
</a>
</g>
<!-- Node1&#45;&gt;Node10 -->
<g id="edge18" class="edge"><title>Node1&#45;&gt;Node10</title>
<path fill="none" stroke="midnightblue" d="M812.226,-96.4038C821.62,-95.6507 831.109,-94.89 840.455,-94.1407"/>
<polygon fill="midnightblue" stroke="midnightblue" points="811.769,-92.9291 802.081,-97.2172 812.329,-99.9067 811.769,-92.9291"/>
</g>
<!-- Node11 -->
<g id="node21" class="node"><title>Node11</title>
<a xlink:href="class_kitware_1_1_v_t_k_1_1vtk_scalar_bar_representation.html" target="_top" xlink:title="vtkScalarBarRepresentation &#45; represent scalar bar for vtkScalarBarWidget">
<polygon fill="none" stroke="black" points="838,-38 838,-58 1046,-58 1046,-38 838,-38"/>
<text text-anchor="middle" x="942" y="-45" font-family="FreeSans" font-size="10.00">Kitware.VTK.vtkScalarBarRepresentation</text>
</a>
</g>
<!-- Node1&#45;&gt;Node11 -->
<g id="edge20" class="edge"><title>Node1&#45;&gt;Node11</title>
<path fill="none" stroke="midnightblue" d="M746.323,-92.0669C772.442,-84.1734 807,-74.242 838,-67 852.03,-63.7223 867.235,-60.6682 881.575,-58.0088"/>
<polygon fill="midnightblue" stroke="midnightblue" points="745.297,-88.7205 736.751,-94.9826 747.337,-95.4168 745.297,-88.7205"/>
</g>
<!-- Node12 -->
<g id="node23" class="node"><title>Node12</title>
<a xlink:href="class_kitware_1_1_v_t_k_1_1vtk_text_representation.html" target="_top" xlink:title="vtkTextRepresentation &#45; represent text for vtkTextWidget">
<polygon fill="none" stroke="black" points="852,-0 852,-20 1032,-20 1032,-0 852,-0"/>
<text text-anchor="middle" x="942" y="-7" font-family="FreeSans" font-size="10.00">Kitware.VTK.vtkTextRepresentation</text>
</a>
</g>
<!-- Node1&#45;&gt;Node12 -->
<g id="edge22" class="edge"><title>Node1&#45;&gt;Node12</title>
<path fill="none" stroke="midnightblue" d="M727.203,-89.1569C752.717,-71.724 796.433,-44.1694 838,-29 847.914,-25.3819 858.622,-22.4306 869.265,-20.029"/>
<polygon fill="midnightblue" stroke="midnightblue" points="725.195,-86.2902 718.971,-94.8642 729.184,-92.0428 725.195,-86.2902"/>
</g>
<!-- Node2 -->
<g id="node2" class="node"><title>Node2</title>
<a xlink:href="class_kitware_1_1_v_t_k_1_1vtk_widget_representation.html" target="_top" xlink:title="vtkWidgetRepresentation &#45; abstract class defines interface between the widget and widget representati...">
<polygon fill="none" stroke="black" points="436.5,-95 436.5,-115 571.5,-115 571.5,-95 436.5,-95"/>
<text text-anchor="middle" x="504" y="-102" font-family="FreeSans" font-size="10.00">vtkWidgetRepresentation</text>
</a>
</g>
<!-- Node2&#45;&gt;Node1 -->
<g id="edge2" class="edge"><title>Node2&#45;&gt;Node1</title>
<path fill="none" stroke="midnightblue" d="M581.997,-105C590.488,-105 599.205,-105 607.889,-105"/>
<polygon fill="midnightblue" stroke="midnightblue" points="581.769,-101.5 571.769,-105 581.769,-108.5 581.769,-101.5"/>
</g>
<!-- Node3 -->
<g id="node4" class="node"><title>Node3</title>
<a xlink:href="class_kitware_1_1_v_t_k_1_1vtk_prop.html" target="_top" xlink:title="vtkProp &#45; abstract superclass for all actors, volumes and annotations">
<polygon fill="none" stroke="black" points="346.5,-95 346.5,-115 399.5,-115 399.5,-95 346.5,-95"/>
<text text-anchor="middle" x="373" y="-102" font-family="FreeSans" font-size="10.00">vtkProp</text>
</a>
</g>
<!-- Node3&#45;&gt;Node2 -->
<g id="edge4" class="edge"><title>Node3&#45;&gt;Node2</title>
<path fill="none" stroke="midnightblue" d="M409.628,-105C417.99,-105 427.137,-105 436.342,-105"/>
<polygon fill="midnightblue" stroke="midnightblue" points="409.51,-101.5 399.51,-105 409.51,-108.5 409.51,-101.5"/>
</g>
<!-- Node4 -->
<g id="node6" class="node"><title>Node4</title>
<a xlink:href="class_kitware_1_1_v_t_k_1_1vtk_object.html" target="_top" xlink:title="vtkObject &#45; abstract base class for most VTK objects">
<polygon fill="none" stroke="black" points="248,-95 248,-115 310,-115 310,-95 248,-95"/>
<text text-anchor="middle" x="279" y="-102" font-family="FreeSans" font-size="10.00">vtkObject</text>
</a>
</g>
<!-- Node4&#45;&gt;Node3 -->
<g id="edge6" class="edge"><title>Node4&#45;&gt;Node3</title>
<path fill="none" stroke="midnightblue" d="M320.248,-105C329.119,-105 338.267,-105 346.403,-105"/>
<polygon fill="midnightblue" stroke="midnightblue" points="320.04,-101.5 310.04,-105 320.04,-108.5 320.04,-101.5"/>
</g>
<!-- Node5 -->
<g id="node8" class="node"><title>Node5</title>
<a xlink:href="class_kitware_1_1_v_t_k_1_1vtk_object_base.html" target="_top" xlink:title="vtkObjectBase &#45; abstract base class for most VTK objects">
<polygon fill="none" stroke="black" points="126,-95 126,-115 212,-115 212,-95 126,-95"/>
<text text-anchor="middle" x="169" y="-102" font-family="FreeSans" font-size="10.00">vtkObjectBase</text>
</a>
</g>
<!-- Node5&#45;&gt;Node4 -->
<g id="edge8" class="edge"><title>Node5&#45;&gt;Node4</title>
<path fill="none" stroke="midnightblue" d="M222.346,-105C231.091,-105 239.892,-105 247.863,-105"/>
<polygon fill="midnightblue" stroke="midnightblue" points="222.159,-101.5 212.159,-105 222.159,-108.5 222.159,-101.5"/>
</g>
<!-- Node6 -->
<g id="node10" class="node"><title>Node6</title>
<a xlink:href="class_kitware_1_1_v_t_k_1_1_wrapped_object.html" target="_top" xlink:title="Base class for all the mummy wrapped classes in Kitware.VTK.">
<polygon fill="none" stroke="black" points="0.5,-95 0.5,-115 89.5,-115 89.5,-95 0.5,-95"/>
<text text-anchor="middle" x="45" y="-102" font-family="FreeSans" font-size="10.00">WrappedObject</text>
</a>
</g>
<!-- Node6&#45;&gt;Node5 -->
<g id="edge10" class="edge"><title>Node6&#45;&gt;Node5</title>
<path fill="none" stroke="midnightblue" d="M99.8895,-105C108.623,-105 117.548,-105 125.957,-105"/>
<polygon fill="midnightblue" stroke="midnightblue" points="99.7669,-101.5 89.7668,-105 99.7668,-108.5 99.7669,-101.5"/>
</g>
</g>
</svg>
