<?xml version="1.0" encoding="UTF-8" standalone="no"?>
<!DOCTYPE svg PUBLIC "-//W3C//DTD SVG 1.1//EN"
 "http://www.w3.org/Graphics/SVG/1.1/DTD/svg11.dtd">
<!-- Generated by graphviz version 2.26.3 (20100126.1600)
 -->
<!-- Title: G Pages: 1 -->
<svg width="416pt" height="830pt"
 viewBox="0.00 0.00 416.46 830.00" xmlns="http://www.w3.org/2000/svg" xmlns:xlink="http://www.w3.org/1999/xlink">
<g id="graph1" class="graph" transform="scale(1 1) rotate(0) translate(4 826)">
<title>G</title>
<!-- Node1 -->
<g id="node1" class="node"><title>Node1</title>
<polygon fill="#bfbfbf" stroke="black" points="0,-1 0,-21 160,-21 160,-1 0,-1"/>
<text text-anchor="middle" x="80" y="-8" font-family="FreeSans" font-size="10.00">Kitware.VTK.vtkImageSobel3D</text>
</g>
<!-- Node2 -->
<g id="node2" class="node"><title>Node2</title>
<a xlink:href="class_kitware_1_1_v_t_k_1_1vtk_image_spatial_algorithm.html" target="_top" xlink:title="vtkImageSpatialAlgorithm &#45; Filters that operate on pixel neighborhoods.">
<polygon fill="none" stroke="black" points="10,-61 10,-81 150,-81 150,-61 10,-61"/>
<text text-anchor="middle" x="80" y="-68" font-family="FreeSans" font-size="10.00">vtkImageSpatialAlgorithm</text>
</a>
</g>
<!-- Node2&#45;&gt;Node1 -->
<g id="edge2" class="edge"><title>Node2&#45;&gt;Node1</title>
<path fill="none" stroke="midnightblue" d="M80,-50.5155C80,-40.562 80,-29.0495 80,-21.0279"/>
<polygon fill="midnightblue" stroke="midnightblue" points="76.5001,-50.8218 80,-60.8218 83.5001,-50.8219 76.5001,-50.8218"/>
</g>
<!-- Node3 -->
<g id="node4" class="node"><title>Node3</title>
<a xlink:href="class_kitware_1_1_v_t_k_1_1vtk_threaded_image_algorithm.html" target="_top" xlink:title="vtkThreadedImageAlgorithm &#45; Generic filter that has one input..">
<polygon fill="none" stroke="black" points="4,-121 4,-141 156,-141 156,-121 4,-121"/>
<text text-anchor="middle" x="80" y="-128" font-family="FreeSans" font-size="10.00">vtkThreadedImageAlgorithm</text>
</a>
</g>
<!-- Node3&#45;&gt;Node2 -->
<g id="edge4" class="edge"><title>Node3&#45;&gt;Node2</title>
<path fill="none" stroke="midnightblue" d="M80,-110.516C80,-100.562 80,-89.0495 80,-81.0279"/>
<polygon fill="midnightblue" stroke="midnightblue" points="76.5001,-110.822 80,-120.822 83.5001,-110.822 76.5001,-110.822"/>
</g>
<!-- Node4 -->
<g id="node6" class="node"><title>Node4</title>
<a xlink:href="class_kitware_1_1_v_t_k_1_1vtk_image_algorithm.html" target="_top" xlink:title="vtkImageAlgorithm &#45; Generic algorithm superclass for image algs">
<polygon fill="none" stroke="black" points="26.5,-181 26.5,-201 133.5,-201 133.5,-181 26.5,-181"/>
<text text-anchor="middle" x="80" y="-188" font-family="FreeSans" font-size="10.00">vtkImageAlgorithm</text>
</a>
</g>
<!-- Node4&#45;&gt;Node3 -->
<g id="edge6" class="edge"><title>Node4&#45;&gt;Node3</title>
<path fill="none" stroke="midnightblue" d="M80,-170.516C80,-160.562 80,-149.05 80,-141.028"/>
<polygon fill="midnightblue" stroke="midnightblue" points="76.5001,-170.822 80,-180.822 83.5001,-170.822 76.5001,-170.822"/>
</g>
<!-- Node5 -->
<g id="node8" class="node"><title>Node5</title>
<a xlink:href="class_kitware_1_1_v_t_k_1_1vtk_algorithm.html" target="_top" xlink:title="vtkAlgorithm &#45; Superclass for all sources, filters, and sinks in VTK.">
<polygon fill="none" stroke="black" points="41.5,-241 41.5,-261 118.5,-261 118.5,-241 41.5,-241"/>
<text text-anchor="middle" x="80" y="-248" font-family="FreeSans" font-size="10.00">vtkAlgorithm</text>
</a>
</g>
<!-- Node5&#45;&gt;Node4 -->
<g id="edge8" class="edge"><title>Node5&#45;&gt;Node4</title>
<path fill="none" stroke="midnightblue" d="M80,-230.516C80,-220.562 80,-209.05 80,-201.028"/>
<polygon fill="midnightblue" stroke="midnightblue" points="76.5001,-230.822 80,-240.822 83.5001,-230.822 76.5001,-230.822"/>
</g>
<!-- Node6 -->
<g id="node10" class="node"><title>Node6</title>
<a xlink:href="class_kitware_1_1_v_t_k_1_1vtk_object.html" target="_top" xlink:title="vtkObject &#45; abstract base class for most VTK objects">
<polygon fill="none" stroke="black" points="49,-301 49,-321 111,-321 111,-301 49,-301"/>
<text text-anchor="middle" x="80" y="-308" font-family="FreeSans" font-size="10.00">vtkObject</text>
</a>
</g>
<!-- Node6&#45;&gt;Node5 -->
<g id="edge10" class="edge"><title>Node6&#45;&gt;Node5</title>
<path fill="none" stroke="midnightblue" d="M80,-290.516C80,-280.562 80,-269.05 80,-261.028"/>
<polygon fill="midnightblue" stroke="midnightblue" points="76.5001,-290.822 80,-300.822 83.5001,-290.822 76.5001,-290.822"/>
</g>
<!-- Node7 -->
<g id="node12" class="node"><title>Node7</title>
<a xlink:href="class_kitware_1_1_v_t_k_1_1vtk_object_base.html" target="_top" xlink:title="vtkObjectBase &#45; abstract base class for most VTK objects">
<polygon fill="none" stroke="black" points="100,-741 100,-761 186,-761 186,-741 100,-741"/>
<text text-anchor="middle" x="143" y="-748" font-family="FreeSans" font-size="10.00">vtkObjectBase</text>
</a>
</g>
<!-- Node7&#45;&gt;Node6 -->
<g id="edge12" class="edge"><title>Node7&#45;&gt;Node6</title>
<path fill="none" stroke="midnightblue" d="M114.423,-735.886C100.687,-727.44 84.8844,-715.826 74,-702 62.1564,-686.955 61.6209,-680.802 58,-662 32.4248,-529.199 67.5766,-363.437 77.5155,-321.17"/>
<polygon fill="midnightblue" stroke="midnightblue" points="112.683,-738.923 123.079,-740.97 116.229,-732.887 112.683,-738.923"/>
</g>
<!-- Node10 -->
<g id="node19" class="node"><title>Node10</title>
<a xlink:href="class_kitware_1_1_v_t_k_1_1vtk_object.html" target="_top" xlink:title="vtkObject &#45; abstract base class for most VTK objects">
<polygon fill="none" stroke="black" points="83,-681 83,-701 203,-701 203,-681 83,-681"/>
<text text-anchor="middle" x="143" y="-688" font-family="FreeSans" font-size="10.00">Kitware.VTK.vtkObject</text>
</a>
</g>
<!-- Node7&#45;&gt;Node10 -->
<g id="edge22" class="edge"><title>Node7&#45;&gt;Node10</title>
<path fill="none" stroke="midnightblue" d="M143,-730.516C143,-720.562 143,-709.05 143,-701.028"/>
<polygon fill="midnightblue" stroke="midnightblue" points="139.5,-730.822 143,-740.822 146.5,-730.822 139.5,-730.822"/>
</g>
<!-- Node8 -->
<g id="node14" class="node"><title>Node8</title>
<a xlink:href="class_kitware_1_1_v_t_k_1_1_wrapped_object.html" target="_top" xlink:title="Base class for all the mummy wrapped classes in Kitware.VTK.">
<polygon fill="none" stroke="black" points="281.5,-801 281.5,-821 370.5,-821 370.5,-801 281.5,-801"/>
<text text-anchor="middle" x="326" y="-808" font-family="FreeSans" font-size="10.00">WrappedObject</text>
</a>
</g>
<!-- Node8&#45;&gt;Node7 -->
<g id="edge14" class="edge"><title>Node8&#45;&gt;Node7</title>
<path fill="none" stroke="midnightblue" d="M285.804,-797.821C252.042,-786.752 204.512,-771.168 173.73,-761.075"/>
<polygon fill="midnightblue" stroke="midnightblue" points="284.777,-801.168 295.37,-800.957 286.958,-794.516 284.777,-801.168"/>
</g>
<!-- Node9 -->
<g id="node16" class="node"><title>Node9</title>
<a xlink:href="class_kitware_1_1_v_t_k_1_1vtk_object_event_relay.html" target="_top" xlink:title="Implement a relay handler for VTK events. This is a class that receives events directly from the VTK ...">
<polygon fill="none" stroke="black" points="72,-491 72,-511 244,-511 244,-491 72,-491"/>
<text text-anchor="middle" x="158" y="-498" font-family="FreeSans" font-size="10.00">Kitware.VTK.vtkObjectEventRelay</text>
</a>
</g>
<!-- Node8&#45;&gt;Node9 -->
<g id="edge18" class="edge"><title>Node8&#45;&gt;Node9</title>
<path fill="none" stroke="midnightblue" d="M338.888,-792.325C371.276,-742.899 448.803,-607.191 381,-530 371.773,-519.495 303.047,-511.666 244.298,-506.808"/>
<polygon fill="midnightblue" stroke="midnightblue" points="335.891,-790.509 333.239,-800.767 341.709,-794.402 335.891,-790.509"/>
</g>
<!-- Node9&#45;&gt;Node6 -->
<g id="edge16" class="edge"><title>Node9&#45;&gt;Node6</title>
<path fill="none" stroke="#9a32cd" stroke-dasharray="5,2" d="M149.921,-481.321C133.489,-441.293 96.6738,-351.616 84.2144,-321.266"/>
<polygon fill="#9a32cd" stroke="#9a32cd" points="146.771,-482.863 153.806,-490.785 153.246,-480.205 146.771,-482.863"/>
<text text-anchor="middle" x="257.5" y="-463" font-family="FreeSans" font-size="10.00"> LeftButtonReleaseEvtRelay</text>
<text text-anchor="middle" x="257.5" y="-451" font-family="FreeSans" font-size="10.00">KeyPressEvtRelay</text>
<text text-anchor="middle" x="257.5" y="-439" font-family="FreeSans" font-size="10.00">DomainModifiedEvtRelay</text>
<text text-anchor="middle" x="257.5" y="-427" font-family="FreeSans" font-size="10.00">VolumeMapperComputeGradientsStartEvtRelay</text>
<text text-anchor="middle" x="257.5" y="-415" font-family="FreeSans" font-size="10.00">ErrorEvtRelay</text>
<text text-anchor="middle" x="257.5" y="-403" font-family="FreeSans" font-size="10.00">VolumeMapperRenderStartEvtRelay</text>
<text text-anchor="middle" x="257.5" y="-391" font-family="FreeSans" font-size="10.00">StartEvtRelay</text>
<text text-anchor="middle" x="257.5" y="-379" font-family="FreeSans" font-size="10.00">ResetCameraEvtRelay</text>
<text text-anchor="middle" x="257.5" y="-367" font-family="FreeSans" font-size="10.00">EnableEvtRelay</text>
<text text-anchor="middle" x="257.5" y="-355" font-family="FreeSans" font-size="10.00">DeleteEvtRelay</text>
<text text-anchor="middle" x="257.5" y="-343" font-family="FreeSans" font-size="10.00">...</text>
</g>
<!-- Node9&#45;&gt;Node10 -->
<g id="edge24" class="edge"><title>Node9&#45;&gt;Node10</title>
<path fill="none" stroke="#9a32cd" stroke-dasharray="5,2" d="M155.028,-521.231C154.649,-524.169 154.293,-527.159 154,-530 148.144,-586.853 144.636,-655.333 143.452,-680.807"/>
<polygon fill="#9a32cd" stroke="#9a32cd" points="158.515,-521.565 156.421,-511.179 151.582,-520.604 158.515,-521.565"/>
<text text-anchor="middle" x="267.5" y="-653" font-family="FreeSans" font-size="10.00"> LeftButtonReleaseEvtRelay</text>
<text text-anchor="middle" x="267.5" y="-641" font-family="FreeSans" font-size="10.00">KeyPressEvtRelay</text>
<text text-anchor="middle" x="267.5" y="-629" font-family="FreeSans" font-size="10.00">DomainModifiedEvtRelay</text>
<text text-anchor="middle" x="267.5" y="-617" font-family="FreeSans" font-size="10.00">VolumeMapperComputeGradientsStartEvtRelay</text>
<text text-anchor="middle" x="267.5" y="-605" font-family="FreeSans" font-size="10.00">ErrorEvtRelay</text>
<text text-anchor="middle" x="267.5" y="-593" font-family="FreeSans" font-size="10.00">VolumeMapperRenderStartEvtRelay</text>
<text text-anchor="middle" x="267.5" y="-581" font-family="FreeSans" font-size="10.00">StartEvtRelay</text>
<text text-anchor="middle" x="267.5" y="-569" font-family="FreeSans" font-size="10.00">ResetCameraEvtRelay</text>
<text text-anchor="middle" x="267.5" y="-557" font-family="FreeSans" font-size="10.00">EnableEvtRelay</text>
<text text-anchor="middle" x="267.5" y="-545" font-family="FreeSans" font-size="10.00">DeleteEvtRelay</text>
<text text-anchor="middle" x="267.5" y="-533" font-family="FreeSans" font-size="10.00">...</text>
</g>
<!-- Node10&#45;&gt;Node9 -->
<g id="edge20" class="edge"><title>Node10&#45;&gt;Node9</title>
<path fill="none" stroke="#9a32cd" stroke-dasharray="5,2" d="M96.9794,-675.818C91.4393,-672.138 86.5104,-667.596 83,-662 51.8229,-612.303 49.8299,-578.389 83,-530 87.7359,-523.091 104.511,-516.287 120.999,-511.008"/>
<polygon fill="#9a32cd" stroke="#9a32cd" points="95.6386,-679.079 106.072,-680.919 99.0636,-672.974 95.6386,-679.079"/>
<text text-anchor="middle" x="107" y="-599" font-family="FreeSans" font-size="10.00"> Sender</text>
<text text-anchor="middle" x="107" y="-587" font-family="FreeSans" font-size="10.00">EventImpl</text>
</g>
</g>
</svg>
