<?xml version="1.0" encoding="UTF-8" standalone="no"?>
<!DOCTYPE svg PUBLIC "-//W3C//DTD SVG 1.1//EN"
 "http://www.w3.org/Graphics/SVG/1.1/DTD/svg11.dtd">
<!-- Generated by graphviz version 2.26.3 (20100126.1600)
 -->
<!-- Title: G Pages: 1 -->
<svg width="178pt" height="262pt"
 viewBox="0.00 0.00 178.00 262.00" xmlns="http://www.w3.org/2000/svg" xmlns:xlink="http://www.w3.org/1999/xlink">
<g id="graph1" class="graph" transform="scale(1 1) rotate(0) translate(4 258)">
<title>G</title>
<!-- Node1 -->
<g id="node1" class="node"><title>Node1</title>
<polygon fill="#bfbfbf" stroke="black" points="0,-1 0,-21 170,-21 170,-1 0,-1"/>
<text text-anchor="middle" x="85" y="-8" font-family="FreeSans" font-size="10.00">Kitware.VTK.vtkParametricSpline</text>
</g>
<!-- Node2 -->
<g id="node2" class="node"><title>Node2</title>
<a xlink:href="class_kitware_1_1_v_t_k_1_1vtk_parametric_function.html" target="_top" xlink:title="vtkParametricFunction &#45; abstract interface for parametric functions">
<polygon fill="none" stroke="black" points="24,-59 24,-79 146,-79 146,-59 24,-59"/>
<text text-anchor="middle" x="85" y="-66" font-family="FreeSans" font-size="10.00">vtkParametricFunction</text>
</a>
</g>
<!-- Node2&#45;&gt;Node1 -->
<g id="edge2" class="edge"><title>Node2&#45;&gt;Node1</title>
<path fill="none" stroke="midnightblue" d="M85,-48.8902C85,-39.6201 85,-29.0083 85,-21.3776"/>
<polygon fill="midnightblue" stroke="midnightblue" points="81.5001,-48.8971 85,-58.8972 88.5001,-48.8972 81.5001,-48.8971"/>
</g>
<!-- Node3 -->
<g id="node4" class="node"><title>Node3</title>
<a xlink:href="class_kitware_1_1_v_t_k_1_1vtk_object.html" target="_top" xlink:title="vtkObject &#45; abstract base class for most VTK objects">
<polygon fill="none" stroke="black" points="54,-117 54,-137 116,-137 116,-117 54,-117"/>
<text text-anchor="middle" x="85" y="-124" font-family="FreeSans" font-size="10.00">vtkObject</text>
</a>
</g>
<!-- Node3&#45;&gt;Node2 -->
<g id="edge4" class="edge"><title>Node3&#45;&gt;Node2</title>
<path fill="none" stroke="midnightblue" d="M85,-106.89C85,-97.6201 85,-87.0083 85,-79.3776"/>
<polygon fill="midnightblue" stroke="midnightblue" points="81.5001,-106.897 85,-116.897 88.5001,-106.897 81.5001,-106.897"/>
</g>
<!-- Node4 -->
<g id="node6" class="node"><title>Node4</title>
<a xlink:href="class_kitware_1_1_v_t_k_1_1vtk_object_base.html" target="_top" xlink:title="vtkObjectBase &#45; abstract base class for most VTK objects">
<polygon fill="none" stroke="black" points="42,-175 42,-195 128,-195 128,-175 42,-175"/>
<text text-anchor="middle" x="85" y="-182" font-family="FreeSans" font-size="10.00">vtkObjectBase</text>
</a>
</g>
<!-- Node4&#45;&gt;Node3 -->
<g id="edge6" class="edge"><title>Node4&#45;&gt;Node3</title>
<path fill="none" stroke="midnightblue" d="M85,-164.89C85,-155.62 85,-145.008 85,-137.378"/>
<polygon fill="midnightblue" stroke="midnightblue" points="81.5001,-164.897 85,-174.897 88.5001,-164.897 81.5001,-164.897"/>
</g>
<!-- Node5 -->
<g id="node8" class="node"><title>Node5</title>
<a xlink:href="class_kitware_1_1_v_t_k_1_1_wrapped_object.html" target="_top" xlink:title="Base class for all the mummy wrapped classes in Kitware.VTK.">
<polygon fill="none" stroke="black" points="40.5,-233 40.5,-253 129.5,-253 129.5,-233 40.5,-233"/>
<text text-anchor="middle" x="85" y="-240" font-family="FreeSans" font-size="10.00">WrappedObject</text>
</a>
</g>
<!-- Node5&#45;&gt;Node4 -->
<g id="edge8" class="edge"><title>Node5&#45;&gt;Node4</title>
<path fill="none" stroke="midnightblue" d="M85,-222.89C85,-213.62 85,-203.008 85,-195.378"/>
<polygon fill="midnightblue" stroke="midnightblue" points="81.5001,-222.897 85,-232.897 88.5001,-222.897 81.5001,-222.897"/>
</g>
</g>
</svg>
