<?xml version="1.0" encoding="UTF-8" standalone="no"?>
<!DOCTYPE svg PUBLIC "-//W3C//DTD SVG 1.1//EN"
 "http://www.w3.org/Graphics/SVG/1.1/DTD/svg11.dtd">
<!-- Generated by graphviz version 2.26.3 (20100126.1600)
 -->
<!-- Title: G Pages: 1 -->
<svg width="244pt" height="378pt"
 viewBox="0.00 0.00 244.00 378.00" xmlns="http://www.w3.org/2000/svg" xmlns:xlink="http://www.w3.org/1999/xlink">
<g id="graph1" class="graph" transform="scale(1 1) rotate(0) translate(4 374)">
<title>G</title>
<!-- Node1 -->
<g id="node1" class="node"><title>Node1</title>
<polygon fill="#bfbfbf" stroke="black" points="2.5,-59 2.5,-79 233.5,-79 233.5,-59 2.5,-59"/>
<text text-anchor="middle" x="118" y="-66" font-family="FreeSans" font-size="10.00">Kitware.VTK.vtkBivariateLinearTableThreshold</text>
</g>
<!-- Node7 -->
<g id="node13" class="node"><title>Node7</title>
<a xlink:href="class_kitware_1_1_v_t_k_1_1vtk_p_bivariate_linear_table_threshold.html" target="_top" xlink:title="vtkPBivariateLinearTableThreshold &#45; performs line&#45;based thresholding for vtkTable data in parallel...">
<polygon fill="none" stroke="black" points="-0.5,-1 -0.5,-21 236.5,-21 236.5,-1 -0.5,-1"/>
<text text-anchor="middle" x="118" y="-8" font-family="FreeSans" font-size="10.00">Kitware.VTK.vtkPBivariateLinearTableThreshold</text>
</a>
</g>
<!-- Node1&#45;&gt;Node7 -->
<g id="edge12" class="edge"><title>Node1&#45;&gt;Node7</title>
<path fill="none" stroke="midnightblue" d="M118,-48.8902C118,-39.6201 118,-29.0083 118,-21.3776"/>
<polygon fill="midnightblue" stroke="midnightblue" points="114.5,-48.8971 118,-58.8972 121.5,-48.8972 114.5,-48.8971"/>
</g>
<!-- Node2 -->
<g id="node2" class="node"><title>Node2</title>
<a xlink:href="class_kitware_1_1_v_t_k_1_1vtk_table_algorithm.html" target="_top" xlink:title="vtkTableAlgorithm &#45; Superclass for algorithms that produce only vtkTables as output">
<polygon fill="none" stroke="black" points="67.5,-117 67.5,-137 168.5,-137 168.5,-117 67.5,-117"/>
<text text-anchor="middle" x="118" y="-124" font-family="FreeSans" font-size="10.00">vtkTableAlgorithm</text>
</a>
</g>
<!-- Node2&#45;&gt;Node1 -->
<g id="edge2" class="edge"><title>Node2&#45;&gt;Node1</title>
<path fill="none" stroke="midnightblue" d="M118,-106.89C118,-97.6201 118,-87.0083 118,-79.3776"/>
<polygon fill="midnightblue" stroke="midnightblue" points="114.5,-106.897 118,-116.897 121.5,-106.897 114.5,-106.897"/>
</g>
<!-- Node3 -->
<g id="node4" class="node"><title>Node3</title>
<a xlink:href="class_kitware_1_1_v_t_k_1_1vtk_algorithm.html" target="_top" xlink:title="vtkAlgorithm &#45; Superclass for all sources, filters, and sinks in VTK.">
<polygon fill="none" stroke="black" points="79.5,-175 79.5,-195 156.5,-195 156.5,-175 79.5,-175"/>
<text text-anchor="middle" x="118" y="-182" font-family="FreeSans" font-size="10.00">vtkAlgorithm</text>
</a>
</g>
<!-- Node3&#45;&gt;Node2 -->
<g id="edge4" class="edge"><title>Node3&#45;&gt;Node2</title>
<path fill="none" stroke="midnightblue" d="M118,-164.89C118,-155.62 118,-145.008 118,-137.378"/>
<polygon fill="midnightblue" stroke="midnightblue" points="114.5,-164.897 118,-174.897 121.5,-164.897 114.5,-164.897"/>
</g>
<!-- Node4 -->
<g id="node6" class="node"><title>Node4</title>
<a xlink:href="class_kitware_1_1_v_t_k_1_1vtk_object.html" target="_top" xlink:title="vtkObject &#45; abstract base class for most VTK objects">
<polygon fill="none" stroke="black" points="87,-233 87,-253 149,-253 149,-233 87,-233"/>
<text text-anchor="middle" x="118" y="-240" font-family="FreeSans" font-size="10.00">vtkObject</text>
</a>
</g>
<!-- Node4&#45;&gt;Node3 -->
<g id="edge6" class="edge"><title>Node4&#45;&gt;Node3</title>
<path fill="none" stroke="midnightblue" d="M118,-222.89C118,-213.62 118,-203.008 118,-195.378"/>
<polygon fill="midnightblue" stroke="midnightblue" points="114.5,-222.897 118,-232.897 121.5,-222.897 114.5,-222.897"/>
</g>
<!-- Node5 -->
<g id="node8" class="node"><title>Node5</title>
<a xlink:href="class_kitware_1_1_v_t_k_1_1vtk_object_base.html" target="_top" xlink:title="vtkObjectBase &#45; abstract base class for most VTK objects">
<polygon fill="none" stroke="black" points="75,-291 75,-311 161,-311 161,-291 75,-291"/>
<text text-anchor="middle" x="118" y="-298" font-family="FreeSans" font-size="10.00">vtkObjectBase</text>
</a>
</g>
<!-- Node5&#45;&gt;Node4 -->
<g id="edge8" class="edge"><title>Node5&#45;&gt;Node4</title>
<path fill="none" stroke="midnightblue" d="M118,-280.89C118,-271.62 118,-261.008 118,-253.378"/>
<polygon fill="midnightblue" stroke="midnightblue" points="114.5,-280.897 118,-290.897 121.5,-280.897 114.5,-280.897"/>
</g>
<!-- Node6 -->
<g id="node10" class="node"><title>Node6</title>
<a xlink:href="class_kitware_1_1_v_t_k_1_1_wrapped_object.html" target="_top" xlink:title="Base class for all the mummy wrapped classes in Kitware.VTK.">
<polygon fill="none" stroke="black" points="73.5,-349 73.5,-369 162.5,-369 162.5,-349 73.5,-349"/>
<text text-anchor="middle" x="118" y="-356" font-family="FreeSans" font-size="10.00">WrappedObject</text>
</a>
</g>
<!-- Node6&#45;&gt;Node5 -->
<g id="edge10" class="edge"><title>Node6&#45;&gt;Node5</title>
<path fill="none" stroke="midnightblue" d="M118,-338.89C118,-329.62 118,-319.008 118,-311.378"/>
<polygon fill="midnightblue" stroke="midnightblue" points="114.5,-338.897 118,-348.897 121.5,-338.897 114.5,-338.897"/>
</g>
</g>
</svg>
