<?xml version="1.0" encoding="UTF-8" standalone="no"?>
<!DOCTYPE svg PUBLIC "-//W3C//DTD SVG 1.1//EN"
 "http://www.w3.org/Graphics/SVG/1.1/DTD/svg11.dtd">
<!-- Generated by graphviz version 2.26.3 (20100126.1600)
 -->
<!-- Title: G Pages: 1 -->
<svg width="428pt" height="830pt"
 viewBox="0.00 0.00 428.46 830.00" xmlns="http://www.w3.org/2000/svg" xmlns:xlink="http://www.w3.org/1999/xlink">
<g id="graph1" class="graph" transform="scale(1 1) rotate(0) translate(4 826)">
<title>G</title>
<!-- Node1 -->
<g id="node1" class="node"><title>Node1</title>
<polygon fill="#bfbfbf" stroke="black" points="-0.5,-1 -0.5,-21 184.5,-21 184.5,-1 -0.5,-1"/>
<text text-anchor="middle" x="92" y="-8" font-family="FreeSans" font-size="10.00">Kitware.VTK.vtkXMLPolyDataReader</text>
</g>
<!-- Node2 -->
<g id="node2" class="node"><title>Node2</title>
<a xlink:href="class_kitware_1_1_v_t_k_1_1vtk_x_m_l_unstructured_data_reader.html" target="_top" xlink:title="vtkXMLUnstructuredDataReader &#45; Superclass for unstructured data XML readers.">
<polygon fill="none" stroke="black" points="7.5,-61 7.5,-81 176.5,-81 176.5,-61 7.5,-61"/>
<text text-anchor="middle" x="92" y="-68" font-family="FreeSans" font-size="10.00">vtkXMLUnstructuredDataReader</text>
</a>
</g>
<!-- Node2&#45;&gt;Node1 -->
<g id="edge2" class="edge"><title>Node2&#45;&gt;Node1</title>
<path fill="none" stroke="midnightblue" d="M92,-50.5155C92,-40.562 92,-29.0495 92,-21.0279"/>
<polygon fill="midnightblue" stroke="midnightblue" points="88.5001,-50.8218 92,-60.8218 95.5001,-50.8219 88.5001,-50.8218"/>
</g>
<!-- Node3 -->
<g id="node4" class="node"><title>Node3</title>
<a xlink:href="class_kitware_1_1_v_t_k_1_1vtk_x_m_l_data_reader.html" target="_top" xlink:title="vtkXMLDataReader &#45; Superclass for VTK XML file readers.">
<polygon fill="none" stroke="black" points="38.5,-121 38.5,-141 145.5,-141 145.5,-121 38.5,-121"/>
<text text-anchor="middle" x="92" y="-128" font-family="FreeSans" font-size="10.00">vtkXMLDataReader</text>
</a>
</g>
<!-- Node3&#45;&gt;Node2 -->
<g id="edge4" class="edge"><title>Node3&#45;&gt;Node2</title>
<path fill="none" stroke="midnightblue" d="M92,-110.516C92,-100.562 92,-89.0495 92,-81.0279"/>
<polygon fill="midnightblue" stroke="midnightblue" points="88.5001,-110.822 92,-120.822 95.5001,-110.822 88.5001,-110.822"/>
</g>
<!-- Node4 -->
<g id="node6" class="node"><title>Node4</title>
<a xlink:href="class_kitware_1_1_v_t_k_1_1vtk_x_m_l_reader.html" target="_top" xlink:title="vtkXMLReader &#45; Superclass for VTK&#39;s XML format readers.">
<polygon fill="none" stroke="black" points="50.5,-181 50.5,-201 133.5,-201 133.5,-181 50.5,-181"/>
<text text-anchor="middle" x="92" y="-188" font-family="FreeSans" font-size="10.00">vtkXMLReader</text>
</a>
</g>
<!-- Node4&#45;&gt;Node3 -->
<g id="edge6" class="edge"><title>Node4&#45;&gt;Node3</title>
<path fill="none" stroke="midnightblue" d="M92,-170.516C92,-160.562 92,-149.05 92,-141.028"/>
<polygon fill="midnightblue" stroke="midnightblue" points="88.5001,-170.822 92,-180.822 95.5001,-170.822 88.5001,-170.822"/>
</g>
<!-- Node5 -->
<g id="node8" class="node"><title>Node5</title>
<a xlink:href="class_kitware_1_1_v_t_k_1_1vtk_algorithm.html" target="_top" xlink:title="vtkAlgorithm &#45; Superclass for all sources, filters, and sinks in VTK.">
<polygon fill="none" stroke="black" points="53.5,-241 53.5,-261 130.5,-261 130.5,-241 53.5,-241"/>
<text text-anchor="middle" x="92" y="-248" font-family="FreeSans" font-size="10.00">vtkAlgorithm</text>
</a>
</g>
<!-- Node5&#45;&gt;Node4 -->
<g id="edge8" class="edge"><title>Node5&#45;&gt;Node4</title>
<path fill="none" stroke="midnightblue" d="M92,-230.516C92,-220.562 92,-209.05 92,-201.028"/>
<polygon fill="midnightblue" stroke="midnightblue" points="88.5001,-230.822 92,-240.822 95.5001,-230.822 88.5001,-230.822"/>
</g>
<!-- Node6 -->
<g id="node10" class="node"><title>Node6</title>
<a xlink:href="class_kitware_1_1_v_t_k_1_1vtk_object.html" target="_top" xlink:title="vtkObject &#45; abstract base class for most VTK objects">
<polygon fill="none" stroke="black" points="61,-301 61,-321 123,-321 123,-301 61,-301"/>
<text text-anchor="middle" x="92" y="-308" font-family="FreeSans" font-size="10.00">vtkObject</text>
</a>
</g>
<!-- Node6&#45;&gt;Node5 -->
<g id="edge10" class="edge"><title>Node6&#45;&gt;Node5</title>
<path fill="none" stroke="midnightblue" d="M92,-290.516C92,-280.562 92,-269.05 92,-261.028"/>
<polygon fill="midnightblue" stroke="midnightblue" points="88.5001,-290.822 92,-300.822 95.5001,-290.822 88.5001,-290.822"/>
</g>
<!-- Node7 -->
<g id="node12" class="node"><title>Node7</title>
<a xlink:href="class_kitware_1_1_v_t_k_1_1vtk_object_base.html" target="_top" xlink:title="vtkObjectBase &#45; abstract base class for most VTK objects">
<polygon fill="none" stroke="black" points="112,-741 112,-761 198,-761 198,-741 112,-741"/>
<text text-anchor="middle" x="155" y="-748" font-family="FreeSans" font-size="10.00">vtkObjectBase</text>
</a>
</g>
<!-- Node7&#45;&gt;Node6 -->
<g id="edge12" class="edge"><title>Node7&#45;&gt;Node6</title>
<path fill="none" stroke="midnightblue" d="M126.423,-735.886C112.687,-727.44 96.8844,-715.826 86,-702 74.1564,-686.955 73.6209,-680.802 70,-662 44.4248,-529.199 79.5766,-363.437 89.5155,-321.17"/>
<polygon fill="midnightblue" stroke="midnightblue" points="124.683,-738.923 135.079,-740.97 128.229,-732.887 124.683,-738.923"/>
</g>
<!-- Node10 -->
<g id="node19" class="node"><title>Node10</title>
<a xlink:href="class_kitware_1_1_v_t_k_1_1vtk_object.html" target="_top" xlink:title="vtkObject &#45; abstract base class for most VTK objects">
<polygon fill="none" stroke="black" points="95,-681 95,-701 215,-701 215,-681 95,-681"/>
<text text-anchor="middle" x="155" y="-688" font-family="FreeSans" font-size="10.00">Kitware.VTK.vtkObject</text>
</a>
</g>
<!-- Node7&#45;&gt;Node10 -->
<g id="edge22" class="edge"><title>Node7&#45;&gt;Node10</title>
<path fill="none" stroke="midnightblue" d="M155,-730.516C155,-720.562 155,-709.05 155,-701.028"/>
<polygon fill="midnightblue" stroke="midnightblue" points="151.5,-730.822 155,-740.822 158.5,-730.822 151.5,-730.822"/>
</g>
<!-- Node8 -->
<g id="node14" class="node"><title>Node8</title>
<a xlink:href="class_kitware_1_1_v_t_k_1_1_wrapped_object.html" target="_top" xlink:title="Base class for all the mummy wrapped classes in Kitware.VTK.">
<polygon fill="none" stroke="black" points="293.5,-801 293.5,-821 382.5,-821 382.5,-801 293.5,-801"/>
<text text-anchor="middle" x="338" y="-808" font-family="FreeSans" font-size="10.00">WrappedObject</text>
</a>
</g>
<!-- Node8&#45;&gt;Node7 -->
<g id="edge14" class="edge"><title>Node8&#45;&gt;Node7</title>
<path fill="none" stroke="midnightblue" d="M297.804,-797.821C264.042,-786.752 216.512,-771.168 185.73,-761.075"/>
<polygon fill="midnightblue" stroke="midnightblue" points="296.777,-801.168 307.37,-800.957 298.958,-794.516 296.777,-801.168"/>
</g>
<!-- Node9 -->
<g id="node16" class="node"><title>Node9</title>
<a xlink:href="class_kitware_1_1_v_t_k_1_1vtk_object_event_relay.html" target="_top" xlink:title="Implement a relay handler for VTK events. This is a class that receives events directly from the VTK ...">
<polygon fill="none" stroke="black" points="84,-491 84,-511 256,-511 256,-491 84,-491"/>
<text text-anchor="middle" x="170" y="-498" font-family="FreeSans" font-size="10.00">Kitware.VTK.vtkObjectEventRelay</text>
</a>
</g>
<!-- Node8&#45;&gt;Node9 -->
<g id="edge18" class="edge"><title>Node8&#45;&gt;Node9</title>
<path fill="none" stroke="midnightblue" d="M350.888,-792.325C383.276,-742.899 460.803,-607.191 393,-530 383.773,-519.495 315.047,-511.666 256.298,-506.808"/>
<polygon fill="midnightblue" stroke="midnightblue" points="347.891,-790.509 345.239,-800.767 353.709,-794.402 347.891,-790.509"/>
</g>
<!-- Node9&#45;&gt;Node6 -->
<g id="edge16" class="edge"><title>Node9&#45;&gt;Node6</title>
<path fill="none" stroke="#9a32cd" stroke-dasharray="5,2" d="M161.921,-481.321C145.489,-441.293 108.674,-351.616 96.2144,-321.266"/>
<polygon fill="#9a32cd" stroke="#9a32cd" points="158.771,-482.863 165.806,-490.785 165.246,-480.205 158.771,-482.863"/>
<text text-anchor="middle" x="269.5" y="-463" font-family="FreeSans" font-size="10.00"> LeftButtonReleaseEvtRelay</text>
<text text-anchor="middle" x="269.5" y="-451" font-family="FreeSans" font-size="10.00">KeyPressEvtRelay</text>
<text text-anchor="middle" x="269.5" y="-439" font-family="FreeSans" font-size="10.00">DomainModifiedEvtRelay</text>
<text text-anchor="middle" x="269.5" y="-427" font-family="FreeSans" font-size="10.00">VolumeMapperComputeGradientsStartEvtRelay</text>
<text text-anchor="middle" x="269.5" y="-415" font-family="FreeSans" font-size="10.00">ErrorEvtRelay</text>
<text text-anchor="middle" x="269.5" y="-403" font-family="FreeSans" font-size="10.00">VolumeMapperRenderStartEvtRelay</text>
<text text-anchor="middle" x="269.5" y="-391" font-family="FreeSans" font-size="10.00">StartEvtRelay</text>
<text text-anchor="middle" x="269.5" y="-379" font-family="FreeSans" font-size="10.00">ResetCameraEvtRelay</text>
<text text-anchor="middle" x="269.5" y="-367" font-family="FreeSans" font-size="10.00">EnableEvtRelay</text>
<text text-anchor="middle" x="269.5" y="-355" font-family="FreeSans" font-size="10.00">DeleteEvtRelay</text>
<text text-anchor="middle" x="269.5" y="-343" font-family="FreeSans" font-size="10.00">...</text>
</g>
<!-- Node9&#45;&gt;Node10 -->
<g id="edge24" class="edge"><title>Node9&#45;&gt;Node10</title>
<path fill="none" stroke="#9a32cd" stroke-dasharray="5,2" d="M167.028,-521.231C166.649,-524.169 166.293,-527.159 166,-530 160.144,-586.853 156.636,-655.333 155.452,-680.807"/>
<polygon fill="#9a32cd" stroke="#9a32cd" points="170.515,-521.565 168.421,-511.179 163.582,-520.604 170.515,-521.565"/>
<text text-anchor="middle" x="279.5" y="-653" font-family="FreeSans" font-size="10.00"> LeftButtonReleaseEvtRelay</text>
<text text-anchor="middle" x="279.5" y="-641" font-family="FreeSans" font-size="10.00">KeyPressEvtRelay</text>
<text text-anchor="middle" x="279.5" y="-629" font-family="FreeSans" font-size="10.00">DomainModifiedEvtRelay</text>
<text text-anchor="middle" x="279.5" y="-617" font-family="FreeSans" font-size="10.00">VolumeMapperComputeGradientsStartEvtRelay</text>
<text text-anchor="middle" x="279.5" y="-605" font-family="FreeSans" font-size="10.00">ErrorEvtRelay</text>
<text text-anchor="middle" x="279.5" y="-593" font-family="FreeSans" font-size="10.00">VolumeMapperRenderStartEvtRelay</text>
<text text-anchor="middle" x="279.5" y="-581" font-family="FreeSans" font-size="10.00">StartEvtRelay</text>
<text text-anchor="middle" x="279.5" y="-569" font-family="FreeSans" font-size="10.00">ResetCameraEvtRelay</text>
<text text-anchor="middle" x="279.5" y="-557" font-family="FreeSans" font-size="10.00">EnableEvtRelay</text>
<text text-anchor="middle" x="279.5" y="-545" font-family="FreeSans" font-size="10.00">DeleteEvtRelay</text>
<text text-anchor="middle" x="279.5" y="-533" font-family="FreeSans" font-size="10.00">...</text>
</g>
<!-- Node10&#45;&gt;Node9 -->
<g id="edge20" class="edge"><title>Node10&#45;&gt;Node9</title>
<path fill="none" stroke="#9a32cd" stroke-dasharray="5,2" d="M108.979,-675.818C103.439,-672.138 98.5104,-667.596 95,-662 63.8229,-612.303 61.8299,-578.389 95,-530 99.7359,-523.091 116.511,-516.287 132.999,-511.008"/>
<polygon fill="#9a32cd" stroke="#9a32cd" points="107.639,-679.079 118.072,-680.919 111.064,-672.974 107.639,-679.079"/>
<text text-anchor="middle" x="119" y="-599" font-family="FreeSans" font-size="10.00"> Sender</text>
<text text-anchor="middle" x="119" y="-587" font-family="FreeSans" font-size="10.00">EventImpl</text>
</g>
</g>
</svg>
