<?xml version="1.0" encoding="UTF-8" standalone="no"?>
<!DOCTYPE svg PUBLIC "-//W3C//DTD SVG 1.1//EN"
 "http://www.w3.org/Graphics/SVG/1.1/DTD/svg11.dtd">
<!-- Generated by graphviz version 2.26.3 (20100126.1600)
 -->
<!-- Title: G Pages: 1 -->
<svg width="435pt" height="890pt"
 viewBox="0.00 0.00 435.46 890.00" xmlns="http://www.w3.org/2000/svg" xmlns:xlink="http://www.w3.org/1999/xlink">
<g id="graph1" class="graph" transform="scale(1 1) rotate(0) translate(4 886)">
<title>G</title>
<!-- Node1 -->
<g id="node1" class="node"><title>Node1</title>
<polygon fill="#bfbfbf" stroke="black" points="-0.5,-1 -0.5,-21 198.5,-21 198.5,-1 -0.5,-1"/>
<text text-anchor="middle" x="99" y="-8" font-family="FreeSans" font-size="10.00">Kitware.VTK.vtkPContingencyStatistics</text>
</g>
<!-- Node2 -->
<g id="node2" class="node"><title>Node2</title>
<a xlink:href="class_kitware_1_1_v_t_k_1_1vtk_contingency_statistics.html" target="_top" xlink:title="vtkContingencyStatistics &#45; A class for correlation with contigency tables.">
<polygon fill="none" stroke="black" points="32,-61 32,-81 166,-81 166,-61 32,-61"/>
<text text-anchor="middle" x="99" y="-68" font-family="FreeSans" font-size="10.00">vtkContingencyStatistics</text>
</a>
</g>
<!-- Node2&#45;&gt;Node1 -->
<g id="edge2" class="edge"><title>Node2&#45;&gt;Node1</title>
<path fill="none" stroke="midnightblue" d="M99,-50.5155C99,-40.562 99,-29.0495 99,-21.0279"/>
<polygon fill="midnightblue" stroke="midnightblue" points="95.5001,-50.8218 99,-60.8218 102.5,-50.8219 95.5001,-50.8218"/>
</g>
<!-- Node3 -->
<g id="node4" class="node"><title>Node3</title>
<a xlink:href="class_kitware_1_1_v_t_k_1_1vtk_bivariate_statistics_algorithm.html" target="_top" xlink:title="vtkBivariateStatistics &#45; Base class for bivariate statistics algorithms">
<polygon fill="none" stroke="black" points="17,-121 17,-141 181,-141 181,-121 17,-121"/>
<text text-anchor="middle" x="99" y="-128" font-family="FreeSans" font-size="10.00">vtkBivariateStatisticsAlgorithm</text>
</a>
</g>
<!-- Node3&#45;&gt;Node2 -->
<g id="edge4" class="edge"><title>Node3&#45;&gt;Node2</title>
<path fill="none" stroke="midnightblue" d="M99,-110.516C99,-100.562 99,-89.0495 99,-81.0279"/>
<polygon fill="midnightblue" stroke="midnightblue" points="95.5001,-110.822 99,-120.822 102.5,-110.822 95.5001,-110.822"/>
</g>
<!-- Node4 -->
<g id="node6" class="node"><title>Node4</title>
<a xlink:href="class_kitware_1_1_v_t_k_1_1vtk_statistics_algorithm.html" target="_top" xlink:title="vtkStatisticsAlgorithm &#45; Base class for statistics algorithms">
<polygon fill="none" stroke="black" points="38,-181 38,-201 160,-201 160,-181 38,-181"/>
<text text-anchor="middle" x="99" y="-188" font-family="FreeSans" font-size="10.00">vtkStatisticsAlgorithm</text>
</a>
</g>
<!-- Node4&#45;&gt;Node3 -->
<g id="edge6" class="edge"><title>Node4&#45;&gt;Node3</title>
<path fill="none" stroke="midnightblue" d="M99,-170.516C99,-160.562 99,-149.05 99,-141.028"/>
<polygon fill="midnightblue" stroke="midnightblue" points="95.5001,-170.822 99,-180.822 102.5,-170.822 95.5001,-170.822"/>
</g>
<!-- Node5 -->
<g id="node8" class="node"><title>Node5</title>
<a xlink:href="class_kitware_1_1_v_t_k_1_1vtk_table_algorithm.html" target="_top" xlink:title="vtkTableAlgorithm &#45; Superclass for algorithms that produce only vtkTables as output">
<polygon fill="none" stroke="black" points="48.5,-241 48.5,-261 149.5,-261 149.5,-241 48.5,-241"/>
<text text-anchor="middle" x="99" y="-248" font-family="FreeSans" font-size="10.00">vtkTableAlgorithm</text>
</a>
</g>
<!-- Node5&#45;&gt;Node4 -->
<g id="edge8" class="edge"><title>Node5&#45;&gt;Node4</title>
<path fill="none" stroke="midnightblue" d="M99,-230.516C99,-220.562 99,-209.05 99,-201.028"/>
<polygon fill="midnightblue" stroke="midnightblue" points="95.5001,-230.822 99,-240.822 102.5,-230.822 95.5001,-230.822"/>
</g>
<!-- Node6 -->
<g id="node10" class="node"><title>Node6</title>
<a xlink:href="class_kitware_1_1_v_t_k_1_1vtk_algorithm.html" target="_top" xlink:title="vtkAlgorithm &#45; Superclass for all sources, filters, and sinks in VTK.">
<polygon fill="none" stroke="black" points="60.5,-301 60.5,-321 137.5,-321 137.5,-301 60.5,-301"/>
<text text-anchor="middle" x="99" y="-308" font-family="FreeSans" font-size="10.00">vtkAlgorithm</text>
</a>
</g>
<!-- Node6&#45;&gt;Node5 -->
<g id="edge10" class="edge"><title>Node6&#45;&gt;Node5</title>
<path fill="none" stroke="midnightblue" d="M99,-290.516C99,-280.562 99,-269.05 99,-261.028"/>
<polygon fill="midnightblue" stroke="midnightblue" points="95.5001,-290.822 99,-300.822 102.5,-290.822 95.5001,-290.822"/>
</g>
<!-- Node7 -->
<g id="node12" class="node"><title>Node7</title>
<a xlink:href="class_kitware_1_1_v_t_k_1_1vtk_object.html" target="_top" xlink:title="vtkObject &#45; abstract base class for most VTK objects">
<polygon fill="none" stroke="black" points="68,-361 68,-381 130,-381 130,-361 68,-361"/>
<text text-anchor="middle" x="99" y="-368" font-family="FreeSans" font-size="10.00">vtkObject</text>
</a>
</g>
<!-- Node7&#45;&gt;Node6 -->
<g id="edge12" class="edge"><title>Node7&#45;&gt;Node6</title>
<path fill="none" stroke="midnightblue" d="M99,-350.516C99,-340.562 99,-329.05 99,-321.028"/>
<polygon fill="midnightblue" stroke="midnightblue" points="95.5001,-350.822 99,-360.822 102.5,-350.822 95.5001,-350.822"/>
</g>
<!-- Node8 -->
<g id="node14" class="node"><title>Node8</title>
<a xlink:href="class_kitware_1_1_v_t_k_1_1vtk_object_base.html" target="_top" xlink:title="vtkObjectBase &#45; abstract base class for most VTK objects">
<polygon fill="none" stroke="black" points="119,-801 119,-821 205,-821 205,-801 119,-801"/>
<text text-anchor="middle" x="162" y="-808" font-family="FreeSans" font-size="10.00">vtkObjectBase</text>
</a>
</g>
<!-- Node8&#45;&gt;Node7 -->
<g id="edge14" class="edge"><title>Node8&#45;&gt;Node7</title>
<path fill="none" stroke="midnightblue" d="M133.423,-795.886C119.687,-787.44 103.884,-775.826 93,-762 81.1564,-746.955 80.6209,-740.802 77,-722 51.4248,-589.199 86.5766,-423.437 96.5155,-381.17"/>
<polygon fill="midnightblue" stroke="midnightblue" points="131.683,-798.923 142.079,-800.97 135.229,-792.887 131.683,-798.923"/>
</g>
<!-- Node11 -->
<g id="node21" class="node"><title>Node11</title>
<a xlink:href="class_kitware_1_1_v_t_k_1_1vtk_object.html" target="_top" xlink:title="vtkObject &#45; abstract base class for most VTK objects">
<polygon fill="none" stroke="black" points="102,-741 102,-761 222,-761 222,-741 102,-741"/>
<text text-anchor="middle" x="162" y="-748" font-family="FreeSans" font-size="10.00">Kitware.VTK.vtkObject</text>
</a>
</g>
<!-- Node8&#45;&gt;Node11 -->
<g id="edge24" class="edge"><title>Node8&#45;&gt;Node11</title>
<path fill="none" stroke="midnightblue" d="M162,-790.516C162,-780.562 162,-769.05 162,-761.028"/>
<polygon fill="midnightblue" stroke="midnightblue" points="158.5,-790.822 162,-800.822 165.5,-790.822 158.5,-790.822"/>
</g>
<!-- Node9 -->
<g id="node16" class="node"><title>Node9</title>
<a xlink:href="class_kitware_1_1_v_t_k_1_1_wrapped_object.html" target="_top" xlink:title="Base class for all the mummy wrapped classes in Kitware.VTK.">
<polygon fill="none" stroke="black" points="300.5,-861 300.5,-881 389.5,-881 389.5,-861 300.5,-861"/>
<text text-anchor="middle" x="345" y="-868" font-family="FreeSans" font-size="10.00">WrappedObject</text>
</a>
</g>
<!-- Node9&#45;&gt;Node8 -->
<g id="edge16" class="edge"><title>Node9&#45;&gt;Node8</title>
<path fill="none" stroke="midnightblue" d="M304.804,-857.821C271.042,-846.752 223.512,-831.168 192.73,-821.075"/>
<polygon fill="midnightblue" stroke="midnightblue" points="303.777,-861.168 314.37,-860.957 305.958,-854.516 303.777,-861.168"/>
</g>
<!-- Node10 -->
<g id="node18" class="node"><title>Node10</title>
<a xlink:href="class_kitware_1_1_v_t_k_1_1vtk_object_event_relay.html" target="_top" xlink:title="Implement a relay handler for VTK events. This is a class that receives events directly from the VTK ...">
<polygon fill="none" stroke="black" points="91,-551 91,-571 263,-571 263,-551 91,-551"/>
<text text-anchor="middle" x="177" y="-558" font-family="FreeSans" font-size="10.00">Kitware.VTK.vtkObjectEventRelay</text>
</a>
</g>
<!-- Node9&#45;&gt;Node10 -->
<g id="edge20" class="edge"><title>Node9&#45;&gt;Node10</title>
<path fill="none" stroke="midnightblue" d="M357.888,-852.325C390.276,-802.899 467.803,-667.191 400,-590 390.773,-579.495 322.047,-571.666 263.298,-566.808"/>
<polygon fill="midnightblue" stroke="midnightblue" points="354.891,-850.509 352.239,-860.767 360.709,-854.402 354.891,-850.509"/>
</g>
<!-- Node10&#45;&gt;Node7 -->
<g id="edge18" class="edge"><title>Node10&#45;&gt;Node7</title>
<path fill="none" stroke="#9a32cd" stroke-dasharray="5,2" d="M168.921,-541.321C152.489,-501.293 115.674,-411.616 103.214,-381.266"/>
<polygon fill="#9a32cd" stroke="#9a32cd" points="165.771,-542.863 172.806,-550.785 172.246,-540.205 165.771,-542.863"/>
<text text-anchor="middle" x="276.5" y="-523" font-family="FreeSans" font-size="10.00"> LeftButtonReleaseEvtRelay</text>
<text text-anchor="middle" x="276.5" y="-511" font-family="FreeSans" font-size="10.00">KeyPressEvtRelay</text>
<text text-anchor="middle" x="276.5" y="-499" font-family="FreeSans" font-size="10.00">DomainModifiedEvtRelay</text>
<text text-anchor="middle" x="276.5" y="-487" font-family="FreeSans" font-size="10.00">VolumeMapperComputeGradientsStartEvtRelay</text>
<text text-anchor="middle" x="276.5" y="-475" font-family="FreeSans" font-size="10.00">ErrorEvtRelay</text>
<text text-anchor="middle" x="276.5" y="-463" font-family="FreeSans" font-size="10.00">VolumeMapperRenderStartEvtRelay</text>
<text text-anchor="middle" x="276.5" y="-451" font-family="FreeSans" font-size="10.00">StartEvtRelay</text>
<text text-anchor="middle" x="276.5" y="-439" font-family="FreeSans" font-size="10.00">ResetCameraEvtRelay</text>
<text text-anchor="middle" x="276.5" y="-427" font-family="FreeSans" font-size="10.00">EnableEvtRelay</text>
<text text-anchor="middle" x="276.5" y="-415" font-family="FreeSans" font-size="10.00">DeleteEvtRelay</text>
<text text-anchor="middle" x="276.5" y="-403" font-family="FreeSans" font-size="10.00">...</text>
</g>
<!-- Node10&#45;&gt;Node11 -->
<g id="edge26" class="edge"><title>Node10&#45;&gt;Node11</title>
<path fill="none" stroke="#9a32cd" stroke-dasharray="5,2" d="M174.028,-581.231C173.649,-584.169 173.293,-587.159 173,-590 167.144,-646.853 163.636,-715.333 162.452,-740.807"/>
<polygon fill="#9a32cd" stroke="#9a32cd" points="177.515,-581.565 175.421,-571.179 170.582,-580.604 177.515,-581.565"/>
<text text-anchor="middle" x="286.5" y="-713" font-family="FreeSans" font-size="10.00"> LeftButtonReleaseEvtRelay</text>
<text text-anchor="middle" x="286.5" y="-701" font-family="FreeSans" font-size="10.00">KeyPressEvtRelay</text>
<text text-anchor="middle" x="286.5" y="-689" font-family="FreeSans" font-size="10.00">DomainModifiedEvtRelay</text>
<text text-anchor="middle" x="286.5" y="-677" font-family="FreeSans" font-size="10.00">VolumeMapperComputeGradientsStartEvtRelay</text>
<text text-anchor="middle" x="286.5" y="-665" font-family="FreeSans" font-size="10.00">ErrorEvtRelay</text>
<text text-anchor="middle" x="286.5" y="-653" font-family="FreeSans" font-size="10.00">VolumeMapperRenderStartEvtRelay</text>
<text text-anchor="middle" x="286.5" y="-641" font-family="FreeSans" font-size="10.00">StartEvtRelay</text>
<text text-anchor="middle" x="286.5" y="-629" font-family="FreeSans" font-size="10.00">ResetCameraEvtRelay</text>
<text text-anchor="middle" x="286.5" y="-617" font-family="FreeSans" font-size="10.00">EnableEvtRelay</text>
<text text-anchor="middle" x="286.5" y="-605" font-family="FreeSans" font-size="10.00">DeleteEvtRelay</text>
<text text-anchor="middle" x="286.5" y="-593" font-family="FreeSans" font-size="10.00">...</text>
</g>
<!-- Node11&#45;&gt;Node10 -->
<g id="edge22" class="edge"><title>Node11&#45;&gt;Node10</title>
<path fill="none" stroke="#9a32cd" stroke-dasharray="5,2" d="M115.979,-735.818C110.439,-732.138 105.51,-727.596 102,-722 70.8229,-672.303 68.8299,-638.389 102,-590 106.736,-583.091 123.511,-576.287 139.999,-571.008"/>
<polygon fill="#9a32cd" stroke="#9a32cd" points="114.639,-739.079 125.072,-740.919 118.064,-732.974 114.639,-739.079"/>
<text text-anchor="middle" x="126" y="-659" font-family="FreeSans" font-size="10.00"> Sender</text>
<text text-anchor="middle" x="126" y="-647" font-family="FreeSans" font-size="10.00">EventImpl</text>
</g>
</g>
</svg>
