<?xml version="1.0" encoding="UTF-8" standalone="no"?>
<!DOCTYPE svg PUBLIC "-//W3C//DTD SVG 1.1//EN"
 "http://www.w3.org/Graphics/SVG/1.1/DTD/svg11.dtd">
<!-- Generated by graphviz version 2.26.3 (20100126.1600)
 -->
<!-- Title: G Pages: 1 -->
<svg width="178pt" height="494pt"
 viewBox="0.00 0.00 178.00 494.00" xmlns="http://www.w3.org/2000/svg" xmlns:xlink="http://www.w3.org/1999/xlink">
<g id="graph1" class="graph" transform="scale(1 1) rotate(0) translate(4 490)">
<title>G</title>
<!-- Node1 -->
<g id="node1" class="node"><title>Node1</title>
<polygon fill="#bfbfbf" stroke="black" points="1.5,-1 1.5,-21 168.5,-21 168.5,-1 1.5,-1"/>
<text text-anchor="middle" x="85" y="-8" font-family="FreeSans" font-size="10.00">Kitware.VTK.vtkPOrderStatistics</text>
</g>
<!-- Node2 -->
<g id="node2" class="node"><title>Node2</title>
<a xlink:href="class_kitware_1_1_v_t_k_1_1vtk_order_statistics.html" target="_top" xlink:title="vtkOrderStatistics &#45; A class for univariate order statistics">
<polygon fill="none" stroke="black" points="34,-59 34,-79 136,-79 136,-59 34,-59"/>
<text text-anchor="middle" x="85" y="-66" font-family="FreeSans" font-size="10.00">vtkOrderStatistics</text>
</a>
</g>
<!-- Node2&#45;&gt;Node1 -->
<g id="edge2" class="edge"><title>Node2&#45;&gt;Node1</title>
<path fill="none" stroke="midnightblue" d="M85,-48.8902C85,-39.6201 85,-29.0083 85,-21.3776"/>
<polygon fill="midnightblue" stroke="midnightblue" points="81.5001,-48.8971 85,-58.8972 88.5001,-48.8972 81.5001,-48.8971"/>
</g>
<!-- Node3 -->
<g id="node4" class="node"><title>Node3</title>
<a xlink:href="class_kitware_1_1_v_t_k_1_1vtk_univariate_statistics_algorithm.html" target="_top" xlink:title="vtkUnivariateStatistics &#45; Base class for univariate statistics algorithms">
<polygon fill="none" stroke="black" points="0,-117 0,-137 170,-137 170,-117 0,-117"/>
<text text-anchor="middle" x="85" y="-124" font-family="FreeSans" font-size="10.00">vtkUnivariateStatisticsAlgorithm</text>
</a>
</g>
<!-- Node3&#45;&gt;Node2 -->
<g id="edge4" class="edge"><title>Node3&#45;&gt;Node2</title>
<path fill="none" stroke="midnightblue" d="M85,-106.89C85,-97.6201 85,-87.0083 85,-79.3776"/>
<polygon fill="midnightblue" stroke="midnightblue" points="81.5001,-106.897 85,-116.897 88.5001,-106.897 81.5001,-106.897"/>
</g>
<!-- Node4 -->
<g id="node6" class="node"><title>Node4</title>
<a xlink:href="class_kitware_1_1_v_t_k_1_1vtk_statistics_algorithm.html" target="_top" xlink:title="vtkStatisticsAlgorithm &#45; Base class for statistics algorithms">
<polygon fill="none" stroke="black" points="24,-175 24,-195 146,-195 146,-175 24,-175"/>
<text text-anchor="middle" x="85" y="-182" font-family="FreeSans" font-size="10.00">vtkStatisticsAlgorithm</text>
</a>
</g>
<!-- Node4&#45;&gt;Node3 -->
<g id="edge6" class="edge"><title>Node4&#45;&gt;Node3</title>
<path fill="none" stroke="midnightblue" d="M85,-164.89C85,-155.62 85,-145.008 85,-137.378"/>
<polygon fill="midnightblue" stroke="midnightblue" points="81.5001,-164.897 85,-174.897 88.5001,-164.897 81.5001,-164.897"/>
</g>
<!-- Node5 -->
<g id="node8" class="node"><title>Node5</title>
<a xlink:href="class_kitware_1_1_v_t_k_1_1vtk_table_algorithm.html" target="_top" xlink:title="vtkTableAlgorithm &#45; Superclass for algorithms that produce only vtkTables as output">
<polygon fill="none" stroke="black" points="34.5,-233 34.5,-253 135.5,-253 135.5,-233 34.5,-233"/>
<text text-anchor="middle" x="85" y="-240" font-family="FreeSans" font-size="10.00">vtkTableAlgorithm</text>
</a>
</g>
<!-- Node5&#45;&gt;Node4 -->
<g id="edge8" class="edge"><title>Node5&#45;&gt;Node4</title>
<path fill="none" stroke="midnightblue" d="M85,-222.89C85,-213.62 85,-203.008 85,-195.378"/>
<polygon fill="midnightblue" stroke="midnightblue" points="81.5001,-222.897 85,-232.897 88.5001,-222.897 81.5001,-222.897"/>
</g>
<!-- Node6 -->
<g id="node10" class="node"><title>Node6</title>
<a xlink:href="class_kitware_1_1_v_t_k_1_1vtk_algorithm.html" target="_top" xlink:title="vtkAlgorithm &#45; Superclass for all sources, filters, and sinks in VTK.">
<polygon fill="none" stroke="black" points="46.5,-291 46.5,-311 123.5,-311 123.5,-291 46.5,-291"/>
<text text-anchor="middle" x="85" y="-298" font-family="FreeSans" font-size="10.00">vtkAlgorithm</text>
</a>
</g>
<!-- Node6&#45;&gt;Node5 -->
<g id="edge10" class="edge"><title>Node6&#45;&gt;Node5</title>
<path fill="none" stroke="midnightblue" d="M85,-280.89C85,-271.62 85,-261.008 85,-253.378"/>
<polygon fill="midnightblue" stroke="midnightblue" points="81.5001,-280.897 85,-290.897 88.5001,-280.897 81.5001,-280.897"/>
</g>
<!-- Node7 -->
<g id="node12" class="node"><title>Node7</title>
<a xlink:href="class_kitware_1_1_v_t_k_1_1vtk_object.html" target="_top" xlink:title="vtkObject &#45; abstract base class for most VTK objects">
<polygon fill="none" stroke="black" points="54,-349 54,-369 116,-369 116,-349 54,-349"/>
<text text-anchor="middle" x="85" y="-356" font-family="FreeSans" font-size="10.00">vtkObject</text>
</a>
</g>
<!-- Node7&#45;&gt;Node6 -->
<g id="edge12" class="edge"><title>Node7&#45;&gt;Node6</title>
<path fill="none" stroke="midnightblue" d="M85,-338.89C85,-329.62 85,-319.008 85,-311.378"/>
<polygon fill="midnightblue" stroke="midnightblue" points="81.5001,-338.897 85,-348.897 88.5001,-338.897 81.5001,-338.897"/>
</g>
<!-- Node8 -->
<g id="node14" class="node"><title>Node8</title>
<a xlink:href="class_kitware_1_1_v_t_k_1_1vtk_object_base.html" target="_top" xlink:title="vtkObjectBase &#45; abstract base class for most VTK objects">
<polygon fill="none" stroke="black" points="42,-407 42,-427 128,-427 128,-407 42,-407"/>
<text text-anchor="middle" x="85" y="-414" font-family="FreeSans" font-size="10.00">vtkObjectBase</text>
</a>
</g>
<!-- Node8&#45;&gt;Node7 -->
<g id="edge14" class="edge"><title>Node8&#45;&gt;Node7</title>
<path fill="none" stroke="midnightblue" d="M85,-396.89C85,-387.62 85,-377.008 85,-369.378"/>
<polygon fill="midnightblue" stroke="midnightblue" points="81.5001,-396.897 85,-406.897 88.5001,-396.897 81.5001,-396.897"/>
</g>
<!-- Node9 -->
<g id="node16" class="node"><title>Node9</title>
<a xlink:href="class_kitware_1_1_v_t_k_1_1_wrapped_object.html" target="_top" xlink:title="Base class for all the mummy wrapped classes in Kitware.VTK.">
<polygon fill="none" stroke="black" points="40.5,-465 40.5,-485 129.5,-485 129.5,-465 40.5,-465"/>
<text text-anchor="middle" x="85" y="-472" font-family="FreeSans" font-size="10.00">WrappedObject</text>
</a>
</g>
<!-- Node9&#45;&gt;Node8 -->
<g id="edge16" class="edge"><title>Node9&#45;&gt;Node8</title>
<path fill="none" stroke="midnightblue" d="M85,-454.89C85,-445.62 85,-435.008 85,-427.378"/>
<polygon fill="midnightblue" stroke="midnightblue" points="81.5001,-454.897 85,-464.897 88.5001,-454.897 81.5001,-454.897"/>
</g>
</g>
</svg>
