<?xml version="1.0" encoding="UTF-8" standalone="no"?>
<!DOCTYPE svg PUBLIC "-//W3C//DTD SVG 1.1//EN"
 "http://www.w3.org/Graphics/SVG/1.1/DTD/svg11.dtd">
<!-- Generated by graphviz version 2.26.3 (20100126.1600)
 -->
<!-- Title: G Pages: 1 -->
<svg width="1374pt" height="142pt"
 viewBox="0.00 0.00 1374.00 142.00" xmlns="http://www.w3.org/2000/svg" xmlns:xlink="http://www.w3.org/1999/xlink">
<g id="graph1" class="graph" transform="scale(1 1) rotate(0) translate(4 138)">
<title>G</title>
<!-- Node1 -->
<g id="node1" class="node"><title>Node1</title>
<polygon fill="#bfbfbf" stroke="black" points="662,-76 662,-96 858,-96 858,-76 662,-76"/>
<text text-anchor="middle" x="760" y="-83" font-family="FreeSans" font-size="10.00">Kitware.VTK.vtkGenericEnSightReader</text>
</g>
<!-- Node7 -->
<g id="node13" class="node"><title>Node7</title>
<a xlink:href="class_kitware_1_1_v_t_k_1_1vtk_en_sight_master_server_reader.html" target="_top" xlink:title="vtkEnSightMasterServerReader &#45; reader for compund EnSight files">
<polygon fill="none" stroke="black" points="894,-95 894,-115 1118,-115 1118,-95 894,-95"/>
<text text-anchor="middle" x="1006" y="-102" font-family="FreeSans" font-size="10.00">Kitware.VTK.vtkEnSightMasterServerReader</text>
</a>
</g>
<!-- Node1&#45;&gt;Node7 -->
<g id="edge12" class="edge"><title>Node1&#45;&gt;Node7</title>
<path fill="none" stroke="midnightblue" d="M868.45,-94.3762C876.828,-95.0233 885.297,-95.6774 893.699,-96.3264"/>
<polygon fill="midnightblue" stroke="midnightblue" points="868.526,-90.8718 858.286,-93.5912 867.987,-97.851 868.526,-90.8718"/>
</g>
<!-- Node8 -->
<g id="node15" class="node"><title>Node8</title>
<a xlink:href="class_kitware_1_1_v_t_k_1_1vtk_en_sight_reader.html" target="_top" xlink:title="vtkEnSightReader &#45; superclass for EnSight file readers">
<polygon fill="none" stroke="black" points="926.5,-57 926.5,-77 1085.5,-77 1085.5,-57 926.5,-57"/>
<text text-anchor="middle" x="1006" y="-64" font-family="FreeSans" font-size="10.00">Kitware.VTK.vtkEnSightReader</text>
</a>
</g>
<!-- Node1&#45;&gt;Node8 -->
<g id="edge14" class="edge"><title>Node1&#45;&gt;Node8</title>
<path fill="none" stroke="midnightblue" d="M868.424,-77.6258C887.918,-76.1202 907.906,-74.5764 926.394,-73.1484"/>
<polygon fill="midnightblue" stroke="midnightblue" points="867.987,-74.149 858.286,-78.4088 868.526,-81.1282 867.987,-74.149"/>
</g>
<!-- Node2 -->
<g id="node2" class="node"><title>Node2</title>
<a xlink:href="class_kitware_1_1_v_t_k_1_1vtk_multi_block_data_set_algorithm.html" target="_top" xlink:title="vtkMultiBlockDataSetAlgorithm &#45; Superclass for algorithms that produce only vtkMultiBlockDataSet as o...">
<polygon fill="none" stroke="black" points="460.5,-76 460.5,-96 625.5,-96 625.5,-76 460.5,-76"/>
<text text-anchor="middle" x="543" y="-83" font-family="FreeSans" font-size="10.00">vtkMultiBlockDataSetAlgorithm</text>
</a>
</g>
<!-- Node2&#45;&gt;Node1 -->
<g id="edge2" class="edge"><title>Node2&#45;&gt;Node1</title>
<path fill="none" stroke="midnightblue" d="M635.752,-86C644.417,-86 653.218,-86 661.929,-86"/>
<polygon fill="midnightblue" stroke="midnightblue" points="635.657,-82.5001 625.657,-86 635.657,-89.5001 635.657,-82.5001"/>
</g>
<!-- Node3 -->
<g id="node4" class="node"><title>Node3</title>
<a xlink:href="class_kitware_1_1_v_t_k_1_1vtk_algorithm.html" target="_top" xlink:title="vtkAlgorithm &#45; Superclass for all sources, filters, and sinks in VTK.">
<polygon fill="none" stroke="black" points="346.5,-76 346.5,-96 423.5,-96 423.5,-76 346.5,-76"/>
<text text-anchor="middle" x="385" y="-83" font-family="FreeSans" font-size="10.00">vtkAlgorithm</text>
</a>
</g>
<!-- Node3&#45;&gt;Node2 -->
<g id="edge4" class="edge"><title>Node3&#45;&gt;Node2</title>
<path fill="none" stroke="midnightblue" d="M433.736,-86C442.256,-86 451.329,-86 460.465,-86"/>
<polygon fill="midnightblue" stroke="midnightblue" points="433.651,-82.5001 423.651,-86 433.651,-89.5001 433.651,-82.5001"/>
</g>
<!-- Node4 -->
<g id="node6" class="node"><title>Node4</title>
<a xlink:href="class_kitware_1_1_v_t_k_1_1vtk_object.html" target="_top" xlink:title="vtkObject &#45; abstract base class for most VTK objects">
<polygon fill="none" stroke="black" points="248,-76 248,-96 310,-96 310,-76 248,-76"/>
<text text-anchor="middle" x="279" y="-83" font-family="FreeSans" font-size="10.00">vtkObject</text>
</a>
</g>
<!-- Node4&#45;&gt;Node3 -->
<g id="edge6" class="edge"><title>Node4&#45;&gt;Node3</title>
<path fill="none" stroke="midnightblue" d="M320.421,-86C329.001,-86 338.007,-86 346.479,-86"/>
<polygon fill="midnightblue" stroke="midnightblue" points="320.23,-82.5001 310.23,-86 320.23,-89.5001 320.23,-82.5001"/>
</g>
<!-- Node5 -->
<g id="node8" class="node"><title>Node5</title>
<a xlink:href="class_kitware_1_1_v_t_k_1_1vtk_object_base.html" target="_top" xlink:title="vtkObjectBase &#45; abstract base class for most VTK objects">
<polygon fill="none" stroke="black" points="126,-76 126,-96 212,-96 212,-76 126,-76"/>
<text text-anchor="middle" x="169" y="-83" font-family="FreeSans" font-size="10.00">vtkObjectBase</text>
</a>
</g>
<!-- Node5&#45;&gt;Node4 -->
<g id="edge8" class="edge"><title>Node5&#45;&gt;Node4</title>
<path fill="none" stroke="midnightblue" d="M222.346,-86C231.091,-86 239.892,-86 247.863,-86"/>
<polygon fill="midnightblue" stroke="midnightblue" points="222.159,-82.5001 212.159,-86 222.159,-89.5001 222.159,-82.5001"/>
</g>
<!-- Node6 -->
<g id="node10" class="node"><title>Node6</title>
<a xlink:href="class_kitware_1_1_v_t_k_1_1_wrapped_object.html" target="_top" xlink:title="Base class for all the mummy wrapped classes in Kitware.VTK.">
<polygon fill="none" stroke="black" points="0.5,-76 0.5,-96 89.5,-96 89.5,-76 0.5,-76"/>
<text text-anchor="middle" x="45" y="-83" font-family="FreeSans" font-size="10.00">WrappedObject</text>
</a>
</g>
<!-- Node6&#45;&gt;Node5 -->
<g id="edge10" class="edge"><title>Node6&#45;&gt;Node5</title>
<path fill="none" stroke="midnightblue" d="M99.8895,-86C108.623,-86 117.548,-86 125.957,-86"/>
<polygon fill="midnightblue" stroke="midnightblue" points="99.7669,-82.5001 89.7668,-86 99.7668,-89.5001 99.7669,-82.5001"/>
</g>
<!-- Node9 -->
<g id="node17" class="node"><title>Node9</title>
<a xlink:href="class_kitware_1_1_v_t_k_1_1vtk_en_sight6_binary_reader.html" target="_top" xlink:title="vtkEnSight6BinaryReader &#45; class to read binary EnSight6 files">
<polygon fill="none" stroke="black" points="1162.5,-114 1162.5,-134 1357.5,-134 1357.5,-114 1162.5,-114"/>
<text text-anchor="middle" x="1260" y="-121" font-family="FreeSans" font-size="10.00">Kitware.VTK.vtkEnSight6BinaryReader</text>
</a>
</g>
<!-- Node8&#45;&gt;Node9 -->
<g id="edge16" class="edge"><title>Node8&#45;&gt;Node9</title>
<path fill="none" stroke="midnightblue" d="M1094.38,-79.269C1102.45,-81.2046 1110.43,-83.4342 1118,-86 1135.13,-91.8082 1136.89,-99.112 1154,-105 1164.43,-108.59 1175.68,-111.534 1186.83,-113.94"/>
<polygon fill="midnightblue" stroke="midnightblue" points="1095.04,-75.8295 1084.52,-77.0511 1093.5,-82.6591 1095.04,-75.8295"/>
</g>
<!-- Node10 -->
<g id="node19" class="node"><title>Node10</title>
<a xlink:href="class_kitware_1_1_v_t_k_1_1vtk_en_sight6_reader.html" target="_top" xlink:title="vtkEnSight6Reader &#45; class to read EnSight6 files">
<polygon fill="none" stroke="black" points="1177.5,-76 1177.5,-96 1342.5,-96 1342.5,-76 1177.5,-76"/>
<text text-anchor="middle" x="1260" y="-83" font-family="FreeSans" font-size="10.00">Kitware.VTK.vtkEnSight6Reader</text>
</a>
</g>
<!-- Node8&#45;&gt;Node10 -->
<g id="edge18" class="edge"><title>Node8&#45;&gt;Node10</title>
<path fill="none" stroke="midnightblue" d="M1095.7,-73.7096C1122.19,-75.6914 1151.06,-77.851 1177.11,-79.7992"/>
<polygon fill="midnightblue" stroke="midnightblue" points="1095.9,-70.2154 1085.67,-72.9596 1095.38,-77.1959 1095.9,-70.2154"/>
</g>
<!-- Node11 -->
<g id="node21" class="node"><title>Node11</title>
<a xlink:href="class_kitware_1_1_v_t_k_1_1vtk_en_sight_gold_binary_reader.html" target="_top" xlink:title="vtkEnSightGoldBinaryReader &#45; class to read binary EnSight Gold files">
<polygon fill="none" stroke="black" points="1154.5,-38 1154.5,-58 1365.5,-58 1365.5,-38 1154.5,-38"/>
<text text-anchor="middle" x="1260" y="-45" font-family="FreeSans" font-size="10.00">Kitware.VTK.vtkEnSightGoldBinaryReader</text>
</a>
</g>
<!-- Node8&#45;&gt;Node11 -->
<g id="edge20" class="edge"><title>Node8&#45;&gt;Node11</title>
<path fill="none" stroke="midnightblue" d="M1095.72,-60.2889C1114.59,-58.8775 1134.66,-57.3759 1154.06,-55.9247"/>
<polygon fill="midnightblue" stroke="midnightblue" points="1095.38,-56.8041 1085.67,-61.0404 1095.9,-63.7846 1095.38,-56.8041"/>
</g>
<!-- Node12 -->
<g id="node23" class="node"><title>Node12</title>
<a xlink:href="class_kitware_1_1_v_t_k_1_1vtk_en_sight_gold_reader.html" target="_top" xlink:title="vtkEnSightGoldReader &#45; class to read EnSight Gold files">
<polygon fill="none" stroke="black" points="1169.5,-0 1169.5,-20 1350.5,-20 1350.5,-0 1169.5,-0"/>
<text text-anchor="middle" x="1260" y="-7" font-family="FreeSans" font-size="10.00">Kitware.VTK.vtkEnSightGoldReader</text>
</a>
</g>
<!-- Node8&#45;&gt;Node12 -->
<g id="edge22" class="edge"><title>Node8&#45;&gt;Node12</title>
<path fill="none" stroke="midnightblue" d="M1051.9,-54.2815C1081.02,-46.444 1119.57,-36.4956 1154,-29 1168.71,-25.7987 1184.64,-22.732 1199.59,-20.0317"/>
<polygon fill="midnightblue" stroke="midnightblue" points="1050.75,-50.9661 1042.01,-56.9581 1052.58,-57.7228 1050.75,-50.9661"/>
</g>
</g>
</svg>
