<?xml version="1.0" encoding="UTF-8" standalone="no"?>
<!DOCTYPE svg PUBLIC "-//W3C//DTD SVG 1.1//EN"
 "http://www.w3.org/Graphics/SVG/1.1/DTD/svg11.dtd">
<!-- Generated by graphviz version 2.26.3 (20100126.1600)
 -->
<!-- Title: G Pages: 1 -->
<svg width="458pt" height="830pt"
 viewBox="0.00 0.00 458.46 830.00" xmlns="http://www.w3.org/2000/svg" xmlns:xlink="http://www.w3.org/1999/xlink">
<g id="graph1" class="graph" transform="scale(1 1) rotate(0) translate(4 826)">
<title>G</title>
<!-- Node1 -->
<g id="node1" class="node"><title>Node1</title>
<polygon fill="#bfbfbf" stroke="black" points="0,-1 0,-21 244,-21 244,-1 0,-1"/>
<text text-anchor="middle" x="122" y="-8" font-family="FreeSans" font-size="10.00">Kitware.VTK.vtkDataSetToUnstructuredGridFilter</text>
</g>
<!-- Node2 -->
<g id="node2" class="node"><title>Node2</title>
<a xlink:href="class_kitware_1_1_v_t_k_1_1vtk_unstructured_grid_source.html" target="_top" xlink:title="vtkUnstructuredGridSource &#45; abstract class whose subclasses generate unstructured grid data...">
<polygon fill="none" stroke="black" points="48.5,-61 48.5,-81 195.5,-81 195.5,-61 48.5,-61"/>
<text text-anchor="middle" x="122" y="-68" font-family="FreeSans" font-size="10.00">vtkUnstructuredGridSource</text>
</a>
</g>
<!-- Node2&#45;&gt;Node1 -->
<g id="edge2" class="edge"><title>Node2&#45;&gt;Node1</title>
<path fill="none" stroke="midnightblue" d="M122,-50.5155C122,-40.562 122,-29.0495 122,-21.0279"/>
<polygon fill="midnightblue" stroke="midnightblue" points="118.5,-50.8218 122,-60.8218 125.5,-50.8219 118.5,-50.8218"/>
</g>
<!-- Node3 -->
<g id="node4" class="node"><title>Node3</title>
<a xlink:href="class_kitware_1_1_v_t_k_1_1vtk_source.html" target="_top" xlink:title="vtkSource &#45; abstract class specifies interface for visualization network source">
<polygon fill="none" stroke="black" points="89.5,-121 89.5,-141 154.5,-141 154.5,-121 89.5,-121"/>
<text text-anchor="middle" x="122" y="-128" font-family="FreeSans" font-size="10.00">vtkSource</text>
</a>
</g>
<!-- Node3&#45;&gt;Node2 -->
<g id="edge4" class="edge"><title>Node3&#45;&gt;Node2</title>
<path fill="none" stroke="midnightblue" d="M122,-110.516C122,-100.562 122,-89.0495 122,-81.0279"/>
<polygon fill="midnightblue" stroke="midnightblue" points="118.5,-110.822 122,-120.822 125.5,-110.822 118.5,-110.822"/>
</g>
<!-- Node4 -->
<g id="node6" class="node"><title>Node4</title>
<a xlink:href="class_kitware_1_1_v_t_k_1_1vtk_process_object.html" target="_top" xlink:title="vtkProcessObject &#45; abstract class specifies interface for visualization filters">
<polygon fill="none" stroke="black" points="72.5,-181 72.5,-201 171.5,-201 171.5,-181 72.5,-181"/>
<text text-anchor="middle" x="122" y="-188" font-family="FreeSans" font-size="10.00">vtkProcessObject</text>
</a>
</g>
<!-- Node4&#45;&gt;Node3 -->
<g id="edge6" class="edge"><title>Node4&#45;&gt;Node3</title>
<path fill="none" stroke="midnightblue" d="M122,-170.516C122,-160.562 122,-149.05 122,-141.028"/>
<polygon fill="midnightblue" stroke="midnightblue" points="118.5,-170.822 122,-180.822 125.5,-170.822 118.5,-170.822"/>
</g>
<!-- Node5 -->
<g id="node8" class="node"><title>Node5</title>
<a xlink:href="class_kitware_1_1_v_t_k_1_1vtk_algorithm.html" target="_top" xlink:title="vtkAlgorithm &#45; Superclass for all sources, filters, and sinks in VTK.">
<polygon fill="none" stroke="black" points="83.5,-241 83.5,-261 160.5,-261 160.5,-241 83.5,-241"/>
<text text-anchor="middle" x="122" y="-248" font-family="FreeSans" font-size="10.00">vtkAlgorithm</text>
</a>
</g>
<!-- Node5&#45;&gt;Node4 -->
<g id="edge8" class="edge"><title>Node5&#45;&gt;Node4</title>
<path fill="none" stroke="midnightblue" d="M122,-230.516C122,-220.562 122,-209.05 122,-201.028"/>
<polygon fill="midnightblue" stroke="midnightblue" points="118.5,-230.822 122,-240.822 125.5,-230.822 118.5,-230.822"/>
</g>
<!-- Node6 -->
<g id="node10" class="node"><title>Node6</title>
<a xlink:href="class_kitware_1_1_v_t_k_1_1vtk_object.html" target="_top" xlink:title="vtkObject &#45; abstract base class for most VTK objects">
<polygon fill="none" stroke="black" points="91,-301 91,-321 153,-321 153,-301 91,-301"/>
<text text-anchor="middle" x="122" y="-308" font-family="FreeSans" font-size="10.00">vtkObject</text>
</a>
</g>
<!-- Node6&#45;&gt;Node5 -->
<g id="edge10" class="edge"><title>Node6&#45;&gt;Node5</title>
<path fill="none" stroke="midnightblue" d="M122,-290.516C122,-280.562 122,-269.05 122,-261.028"/>
<polygon fill="midnightblue" stroke="midnightblue" points="118.5,-290.822 122,-300.822 125.5,-290.822 118.5,-290.822"/>
</g>
<!-- Node7 -->
<g id="node12" class="node"><title>Node7</title>
<a xlink:href="class_kitware_1_1_v_t_k_1_1vtk_object_base.html" target="_top" xlink:title="vtkObjectBase &#45; abstract base class for most VTK objects">
<polygon fill="none" stroke="black" points="142,-741 142,-761 228,-761 228,-741 142,-741"/>
<text text-anchor="middle" x="185" y="-748" font-family="FreeSans" font-size="10.00">vtkObjectBase</text>
</a>
</g>
<!-- Node7&#45;&gt;Node6 -->
<g id="edge12" class="edge"><title>Node7&#45;&gt;Node6</title>
<path fill="none" stroke="midnightblue" d="M156.423,-735.886C142.687,-727.44 126.884,-715.826 116,-702 104.156,-686.955 103.621,-680.802 100,-662 74.4248,-529.199 109.577,-363.437 119.516,-321.17"/>
<polygon fill="midnightblue" stroke="midnightblue" points="154.683,-738.923 165.079,-740.97 158.229,-732.887 154.683,-738.923"/>
</g>
<!-- Node10 -->
<g id="node19" class="node"><title>Node10</title>
<a xlink:href="class_kitware_1_1_v_t_k_1_1vtk_object.html" target="_top" xlink:title="vtkObject &#45; abstract base class for most VTK objects">
<polygon fill="none" stroke="black" points="125,-681 125,-701 245,-701 245,-681 125,-681"/>
<text text-anchor="middle" x="185" y="-688" font-family="FreeSans" font-size="10.00">Kitware.VTK.vtkObject</text>
</a>
</g>
<!-- Node7&#45;&gt;Node10 -->
<g id="edge22" class="edge"><title>Node7&#45;&gt;Node10</title>
<path fill="none" stroke="midnightblue" d="M185,-730.516C185,-720.562 185,-709.05 185,-701.028"/>
<polygon fill="midnightblue" stroke="midnightblue" points="181.5,-730.822 185,-740.822 188.5,-730.822 181.5,-730.822"/>
</g>
<!-- Node8 -->
<g id="node14" class="node"><title>Node8</title>
<a xlink:href="class_kitware_1_1_v_t_k_1_1_wrapped_object.html" target="_top" xlink:title="Base class for all the mummy wrapped classes in Kitware.VTK.">
<polygon fill="none" stroke="black" points="323.5,-801 323.5,-821 412.5,-821 412.5,-801 323.5,-801"/>
<text text-anchor="middle" x="368" y="-808" font-family="FreeSans" font-size="10.00">WrappedObject</text>
</a>
</g>
<!-- Node8&#45;&gt;Node7 -->
<g id="edge14" class="edge"><title>Node8&#45;&gt;Node7</title>
<path fill="none" stroke="midnightblue" d="M327.804,-797.821C294.042,-786.752 246.512,-771.168 215.73,-761.075"/>
<polygon fill="midnightblue" stroke="midnightblue" points="326.777,-801.168 337.37,-800.957 328.958,-794.516 326.777,-801.168"/>
</g>
<!-- Node9 -->
<g id="node16" class="node"><title>Node9</title>
<a xlink:href="class_kitware_1_1_v_t_k_1_1vtk_object_event_relay.html" target="_top" xlink:title="Implement a relay handler for VTK events. This is a class that receives events directly from the VTK ...">
<polygon fill="none" stroke="black" points="114,-491 114,-511 286,-511 286,-491 114,-491"/>
<text text-anchor="middle" x="200" y="-498" font-family="FreeSans" font-size="10.00">Kitware.VTK.vtkObjectEventRelay</text>
</a>
</g>
<!-- Node8&#45;&gt;Node9 -->
<g id="edge18" class="edge"><title>Node8&#45;&gt;Node9</title>
<path fill="none" stroke="midnightblue" d="M380.888,-792.325C413.276,-742.899 490.803,-607.191 423,-530 413.773,-519.495 345.047,-511.666 286.298,-506.808"/>
<polygon fill="midnightblue" stroke="midnightblue" points="377.891,-790.509 375.239,-800.767 383.709,-794.402 377.891,-790.509"/>
</g>
<!-- Node9&#45;&gt;Node6 -->
<g id="edge16" class="edge"><title>Node9&#45;&gt;Node6</title>
<path fill="none" stroke="#9a32cd" stroke-dasharray="5,2" d="M191.921,-481.321C175.489,-441.293 138.674,-351.616 126.214,-321.266"/>
<polygon fill="#9a32cd" stroke="#9a32cd" points="188.771,-482.863 195.806,-490.785 195.246,-480.205 188.771,-482.863"/>
<text text-anchor="middle" x="299.5" y="-463" font-family="FreeSans" font-size="10.00"> LeftButtonReleaseEvtRelay</text>
<text text-anchor="middle" x="299.5" y="-451" font-family="FreeSans" font-size="10.00">KeyPressEvtRelay</text>
<text text-anchor="middle" x="299.5" y="-439" font-family="FreeSans" font-size="10.00">DomainModifiedEvtRelay</text>
<text text-anchor="middle" x="299.5" y="-427" font-family="FreeSans" font-size="10.00">VolumeMapperComputeGradientsStartEvtRelay</text>
<text text-anchor="middle" x="299.5" y="-415" font-family="FreeSans" font-size="10.00">ErrorEvtRelay</text>
<text text-anchor="middle" x="299.5" y="-403" font-family="FreeSans" font-size="10.00">VolumeMapperRenderStartEvtRelay</text>
<text text-anchor="middle" x="299.5" y="-391" font-family="FreeSans" font-size="10.00">StartEvtRelay</text>
<text text-anchor="middle" x="299.5" y="-379" font-family="FreeSans" font-size="10.00">ResetCameraEvtRelay</text>
<text text-anchor="middle" x="299.5" y="-367" font-family="FreeSans" font-size="10.00">EnableEvtRelay</text>
<text text-anchor="middle" x="299.5" y="-355" font-family="FreeSans" font-size="10.00">DeleteEvtRelay</text>
<text text-anchor="middle" x="299.5" y="-343" font-family="FreeSans" font-size="10.00">...</text>
</g>
<!-- Node9&#45;&gt;Node10 -->
<g id="edge24" class="edge"><title>Node9&#45;&gt;Node10</title>
<path fill="none" stroke="#9a32cd" stroke-dasharray="5,2" d="M197.028,-521.231C196.649,-524.169 196.293,-527.159 196,-530 190.144,-586.853 186.636,-655.333 185.452,-680.807"/>
<polygon fill="#9a32cd" stroke="#9a32cd" points="200.515,-521.565 198.421,-511.179 193.582,-520.604 200.515,-521.565"/>
<text text-anchor="middle" x="309.5" y="-653" font-family="FreeSans" font-size="10.00"> LeftButtonReleaseEvtRelay</text>
<text text-anchor="middle" x="309.5" y="-641" font-family="FreeSans" font-size="10.00">KeyPressEvtRelay</text>
<text text-anchor="middle" x="309.5" y="-629" font-family="FreeSans" font-size="10.00">DomainModifiedEvtRelay</text>
<text text-anchor="middle" x="309.5" y="-617" font-family="FreeSans" font-size="10.00">VolumeMapperComputeGradientsStartEvtRelay</text>
<text text-anchor="middle" x="309.5" y="-605" font-family="FreeSans" font-size="10.00">ErrorEvtRelay</text>
<text text-anchor="middle" x="309.5" y="-593" font-family="FreeSans" font-size="10.00">VolumeMapperRenderStartEvtRelay</text>
<text text-anchor="middle" x="309.5" y="-581" font-family="FreeSans" font-size="10.00">StartEvtRelay</text>
<text text-anchor="middle" x="309.5" y="-569" font-family="FreeSans" font-size="10.00">ResetCameraEvtRelay</text>
<text text-anchor="middle" x="309.5" y="-557" font-family="FreeSans" font-size="10.00">EnableEvtRelay</text>
<text text-anchor="middle" x="309.5" y="-545" font-family="FreeSans" font-size="10.00">DeleteEvtRelay</text>
<text text-anchor="middle" x="309.5" y="-533" font-family="FreeSans" font-size="10.00">...</text>
</g>
<!-- Node10&#45;&gt;Node9 -->
<g id="edge20" class="edge"><title>Node10&#45;&gt;Node9</title>
<path fill="none" stroke="#9a32cd" stroke-dasharray="5,2" d="M138.979,-675.818C133.439,-672.138 128.51,-667.596 125,-662 93.8229,-612.303 91.8299,-578.389 125,-530 129.736,-523.091 146.511,-516.287 162.999,-511.008"/>
<polygon fill="#9a32cd" stroke="#9a32cd" points="137.639,-679.079 148.072,-680.919 141.064,-672.974 137.639,-679.079"/>
<text text-anchor="middle" x="149" y="-599" font-family="FreeSans" font-size="10.00"> Sender</text>
<text text-anchor="middle" x="149" y="-587" font-family="FreeSans" font-size="10.00">EventImpl</text>
</g>
</g>
</svg>
