<?xml version="1.0" encoding="UTF-8" standalone="no"?>
<!DOCTYPE svg PUBLIC "-//W3C//DTD SVG 1.1//EN"
 "http://www.w3.org/Graphics/SVG/1.1/DTD/svg11.dtd">
<!-- Generated by graphviz version 2.26.3 (20100126.1600)
 -->
<!-- Title: G Pages: 1 -->
<svg width="466pt" height="710pt"
 viewBox="0.00 0.00 466.46 710.00" xmlns="http://www.w3.org/2000/svg" xmlns:xlink="http://www.w3.org/1999/xlink">
<g id="graph1" class="graph" transform="scale(1 1) rotate(0) translate(4 706)">
<title>G</title>
<!-- Node1 -->
<g id="node1" class="node"><title>Node1</title>
<polygon fill="#bfbfbf" stroke="black" points="0,-1 0,-21 260,-21 260,-1 0,-1"/>
<text text-anchor="middle" x="130" y="-8" font-family="FreeSans" font-size="10.00">Kitware.VTK.vtkBoostKruskalMinimumSpanningTree</text>
</g>
<!-- Node2 -->
<g id="node2" class="node"><title>Node2</title>
<a xlink:href="class_kitware_1_1_v_t_k_1_1vtk_selection_algorithm.html" target="_top" xlink:title="vtkSelectionAlgorithm &#45; Superclass for algorithms that produce only Selection as output">
<polygon fill="none" stroke="black" points="69,-61 69,-81 191,-81 191,-61 69,-61"/>
<text text-anchor="middle" x="130" y="-68" font-family="FreeSans" font-size="10.00">vtkSelectionAlgorithm</text>
</a>
</g>
<!-- Node2&#45;&gt;Node1 -->
<g id="edge2" class="edge"><title>Node2&#45;&gt;Node1</title>
<path fill="none" stroke="midnightblue" d="M130,-50.5155C130,-40.562 130,-29.0495 130,-21.0279"/>
<polygon fill="midnightblue" stroke="midnightblue" points="126.5,-50.8218 130,-60.8218 133.5,-50.8219 126.5,-50.8218"/>
</g>
<!-- Node3 -->
<g id="node4" class="node"><title>Node3</title>
<a xlink:href="class_kitware_1_1_v_t_k_1_1vtk_algorithm.html" target="_top" xlink:title="vtkAlgorithm &#45; Superclass for all sources, filters, and sinks in VTK.">
<polygon fill="none" stroke="black" points="91.5,-121 91.5,-141 168.5,-141 168.5,-121 91.5,-121"/>
<text text-anchor="middle" x="130" y="-128" font-family="FreeSans" font-size="10.00">vtkAlgorithm</text>
</a>
</g>
<!-- Node3&#45;&gt;Node2 -->
<g id="edge4" class="edge"><title>Node3&#45;&gt;Node2</title>
<path fill="none" stroke="midnightblue" d="M130,-110.516C130,-100.562 130,-89.0495 130,-81.0279"/>
<polygon fill="midnightblue" stroke="midnightblue" points="126.5,-110.822 130,-120.822 133.5,-110.822 126.5,-110.822"/>
</g>
<!-- Node4 -->
<g id="node6" class="node"><title>Node4</title>
<a xlink:href="class_kitware_1_1_v_t_k_1_1vtk_object.html" target="_top" xlink:title="vtkObject &#45; abstract base class for most VTK objects">
<polygon fill="none" stroke="black" points="99,-181 99,-201 161,-201 161,-181 99,-181"/>
<text text-anchor="middle" x="130" y="-188" font-family="FreeSans" font-size="10.00">vtkObject</text>
</a>
</g>
<!-- Node4&#45;&gt;Node3 -->
<g id="edge6" class="edge"><title>Node4&#45;&gt;Node3</title>
<path fill="none" stroke="midnightblue" d="M130,-170.516C130,-160.562 130,-149.05 130,-141.028"/>
<polygon fill="midnightblue" stroke="midnightblue" points="126.5,-170.822 130,-180.822 133.5,-170.822 126.5,-170.822"/>
</g>
<!-- Node5 -->
<g id="node8" class="node"><title>Node5</title>
<a xlink:href="class_kitware_1_1_v_t_k_1_1vtk_object_base.html" target="_top" xlink:title="vtkObjectBase &#45; abstract base class for most VTK objects">
<polygon fill="none" stroke="black" points="150,-621 150,-641 236,-641 236,-621 150,-621"/>
<text text-anchor="middle" x="193" y="-628" font-family="FreeSans" font-size="10.00">vtkObjectBase</text>
</a>
</g>
<!-- Node5&#45;&gt;Node4 -->
<g id="edge8" class="edge"><title>Node5&#45;&gt;Node4</title>
<path fill="none" stroke="midnightblue" d="M164.423,-615.886C150.687,-607.44 134.884,-595.826 124,-582 112.156,-566.955 111.621,-560.802 108,-542 82.4248,-409.199 117.577,-243.437 127.516,-201.17"/>
<polygon fill="midnightblue" stroke="midnightblue" points="162.683,-618.923 173.079,-620.97 166.229,-612.887 162.683,-618.923"/>
</g>
<!-- Node8 -->
<g id="node15" class="node"><title>Node8</title>
<a xlink:href="class_kitware_1_1_v_t_k_1_1vtk_object.html" target="_top" xlink:title="vtkObject &#45; abstract base class for most VTK objects">
<polygon fill="none" stroke="black" points="133,-561 133,-581 253,-581 253,-561 133,-561"/>
<text text-anchor="middle" x="193" y="-568" font-family="FreeSans" font-size="10.00">Kitware.VTK.vtkObject</text>
</a>
</g>
<!-- Node5&#45;&gt;Node8 -->
<g id="edge18" class="edge"><title>Node5&#45;&gt;Node8</title>
<path fill="none" stroke="midnightblue" d="M193,-610.516C193,-600.562 193,-589.05 193,-581.028"/>
<polygon fill="midnightblue" stroke="midnightblue" points="189.5,-610.822 193,-620.822 196.5,-610.822 189.5,-610.822"/>
</g>
<!-- Node6 -->
<g id="node10" class="node"><title>Node6</title>
<a xlink:href="class_kitware_1_1_v_t_k_1_1_wrapped_object.html" target="_top" xlink:title="Base class for all the mummy wrapped classes in Kitware.VTK.">
<polygon fill="none" stroke="black" points="331.5,-681 331.5,-701 420.5,-701 420.5,-681 331.5,-681"/>
<text text-anchor="middle" x="376" y="-688" font-family="FreeSans" font-size="10.00">WrappedObject</text>
</a>
</g>
<!-- Node6&#45;&gt;Node5 -->
<g id="edge10" class="edge"><title>Node6&#45;&gt;Node5</title>
<path fill="none" stroke="midnightblue" d="M335.804,-677.821C302.042,-666.752 254.512,-651.168 223.73,-641.075"/>
<polygon fill="midnightblue" stroke="midnightblue" points="334.777,-681.168 345.37,-680.957 336.958,-674.516 334.777,-681.168"/>
</g>
<!-- Node7 -->
<g id="node12" class="node"><title>Node7</title>
<a xlink:href="class_kitware_1_1_v_t_k_1_1vtk_object_event_relay.html" target="_top" xlink:title="Implement a relay handler for VTK events. This is a class that receives events directly from the VTK ...">
<polygon fill="none" stroke="black" points="122,-371 122,-391 294,-391 294,-371 122,-371"/>
<text text-anchor="middle" x="208" y="-378" font-family="FreeSans" font-size="10.00">Kitware.VTK.vtkObjectEventRelay</text>
</a>
</g>
<!-- Node6&#45;&gt;Node7 -->
<g id="edge14" class="edge"><title>Node6&#45;&gt;Node7</title>
<path fill="none" stroke="midnightblue" d="M388.888,-672.325C421.276,-622.899 498.803,-487.191 431,-410 421.773,-399.495 353.047,-391.666 294.298,-386.808"/>
<polygon fill="midnightblue" stroke="midnightblue" points="385.891,-670.509 383.239,-680.767 391.709,-674.402 385.891,-670.509"/>
</g>
<!-- Node7&#45;&gt;Node4 -->
<g id="edge12" class="edge"><title>Node7&#45;&gt;Node4</title>
<path fill="none" stroke="#9a32cd" stroke-dasharray="5,2" d="M199.921,-361.321C183.489,-321.293 146.674,-231.616 134.214,-201.266"/>
<polygon fill="#9a32cd" stroke="#9a32cd" points="196.771,-362.863 203.806,-370.785 203.246,-360.205 196.771,-362.863"/>
<text text-anchor="middle" x="307.5" y="-343" font-family="FreeSans" font-size="10.00"> LeftButtonReleaseEvtRelay</text>
<text text-anchor="middle" x="307.5" y="-331" font-family="FreeSans" font-size="10.00">KeyPressEvtRelay</text>
<text text-anchor="middle" x="307.5" y="-319" font-family="FreeSans" font-size="10.00">DomainModifiedEvtRelay</text>
<text text-anchor="middle" x="307.5" y="-307" font-family="FreeSans" font-size="10.00">VolumeMapperComputeGradientsStartEvtRelay</text>
<text text-anchor="middle" x="307.5" y="-295" font-family="FreeSans" font-size="10.00">ErrorEvtRelay</text>
<text text-anchor="middle" x="307.5" y="-283" font-family="FreeSans" font-size="10.00">VolumeMapperRenderStartEvtRelay</text>
<text text-anchor="middle" x="307.5" y="-271" font-family="FreeSans" font-size="10.00">StartEvtRelay</text>
<text text-anchor="middle" x="307.5" y="-259" font-family="FreeSans" font-size="10.00">ResetCameraEvtRelay</text>
<text text-anchor="middle" x="307.5" y="-247" font-family="FreeSans" font-size="10.00">EnableEvtRelay</text>
<text text-anchor="middle" x="307.5" y="-235" font-family="FreeSans" font-size="10.00">DeleteEvtRelay</text>
<text text-anchor="middle" x="307.5" y="-223" font-family="FreeSans" font-size="10.00">...</text>
</g>
<!-- Node7&#45;&gt;Node8 -->
<g id="edge20" class="edge"><title>Node7&#45;&gt;Node8</title>
<path fill="none" stroke="#9a32cd" stroke-dasharray="5,2" d="M205.028,-401.231C204.649,-404.169 204.293,-407.159 204,-410 198.144,-466.853 194.636,-535.333 193.452,-560.807"/>
<polygon fill="#9a32cd" stroke="#9a32cd" points="208.515,-401.565 206.421,-391.179 201.582,-400.604 208.515,-401.565"/>
<text text-anchor="middle" x="317.5" y="-533" font-family="FreeSans" font-size="10.00"> LeftButtonReleaseEvtRelay</text>
<text text-anchor="middle" x="317.5" y="-521" font-family="FreeSans" font-size="10.00">KeyPressEvtRelay</text>
<text text-anchor="middle" x="317.5" y="-509" font-family="FreeSans" font-size="10.00">DomainModifiedEvtRelay</text>
<text text-anchor="middle" x="317.5" y="-497" font-family="FreeSans" font-size="10.00">VolumeMapperComputeGradientsStartEvtRelay</text>
<text text-anchor="middle" x="317.5" y="-485" font-family="FreeSans" font-size="10.00">ErrorEvtRelay</text>
<text text-anchor="middle" x="317.5" y="-473" font-family="FreeSans" font-size="10.00">VolumeMapperRenderStartEvtRelay</text>
<text text-anchor="middle" x="317.5" y="-461" font-family="FreeSans" font-size="10.00">StartEvtRelay</text>
<text text-anchor="middle" x="317.5" y="-449" font-family="FreeSans" font-size="10.00">ResetCameraEvtRelay</text>
<text text-anchor="middle" x="317.5" y="-437" font-family="FreeSans" font-size="10.00">EnableEvtRelay</text>
<text text-anchor="middle" x="317.5" y="-425" font-family="FreeSans" font-size="10.00">DeleteEvtRelay</text>
<text text-anchor="middle" x="317.5" y="-413" font-family="FreeSans" font-size="10.00">...</text>
</g>
<!-- Node8&#45;&gt;Node7 -->
<g id="edge16" class="edge"><title>Node8&#45;&gt;Node7</title>
<path fill="none" stroke="#9a32cd" stroke-dasharray="5,2" d="M146.979,-555.818C141.439,-552.138 136.51,-547.596 133,-542 101.823,-492.303 99.8299,-458.389 133,-410 137.736,-403.091 154.511,-396.287 170.999,-391.008"/>
<polygon fill="#9a32cd" stroke="#9a32cd" points="145.639,-559.079 156.072,-560.919 149.064,-552.974 145.639,-559.079"/>
<text text-anchor="middle" x="157" y="-479" font-family="FreeSans" font-size="10.00"> Sender</text>
<text text-anchor="middle" x="157" y="-467" font-family="FreeSans" font-size="10.00">EventImpl</text>
</g>
</g>
</svg>
