<?xml version="1.0" encoding="UTF-8" standalone="no"?>
<!DOCTYPE svg PUBLIC "-//W3C//DTD SVG 1.1//EN"
 "http://www.w3.org/Graphics/SVG/1.1/DTD/svg11.dtd">
<!-- Generated by graphviz version 2.26.3 (20100126.1600)
 -->
<!-- Title: G Pages: 1 -->
<svg width="417pt" height="770pt"
 viewBox="0.00 0.00 417.46 770.00" xmlns="http://www.w3.org/2000/svg" xmlns:xlink="http://www.w3.org/1999/xlink">
<g id="graph1" class="graph" transform="scale(1 1) rotate(0) translate(4 766)">
<title>G</title>
<!-- Node1 -->
<g id="node1" class="node"><title>Node1</title>
<polygon fill="#bfbfbf" stroke="black" points="-0.5,-1 -0.5,-21 162.5,-21 162.5,-1 -0.5,-1"/>
<text text-anchor="middle" x="81" y="-8" font-family="FreeSans" font-size="10.00">Kitware.VTK.vtkPExodusReader</text>
</g>
<!-- Node2 -->
<g id="node2" class="node"><title>Node2</title>
<a xlink:href="class_kitware_1_1_v_t_k_1_1vtk_exodus_reader.html" target="_top" xlink:title="vtkExodusReader &#45; Read exodus 2 files .ex2">
<polygon fill="none" stroke="black" points="32,-61 32,-81 130,-81 130,-61 32,-61"/>
<text text-anchor="middle" x="81" y="-68" font-family="FreeSans" font-size="10.00">vtkExodusReader</text>
</a>
</g>
<!-- Node2&#45;&gt;Node1 -->
<g id="edge2" class="edge"><title>Node2&#45;&gt;Node1</title>
<path fill="none" stroke="midnightblue" d="M81,-50.5155C81,-40.562 81,-29.0495 81,-21.0279"/>
<polygon fill="midnightblue" stroke="midnightblue" points="77.5001,-50.8218 81,-60.8218 84.5001,-50.8219 77.5001,-50.8218"/>
</g>
<!-- Node3 -->
<g id="node4" class="node"><title>Node3</title>
<a xlink:href="class_kitware_1_1_v_t_k_1_1vtk_unstructured_grid_algorithm.html" target="_top" xlink:title="vtkUnstructuredGridAlgorithm &#45; Superclass for algorithms that produce only unstructured grid as outpu...">
<polygon fill="none" stroke="black" points="1,-121 1,-141 161,-141 161,-121 1,-121"/>
<text text-anchor="middle" x="81" y="-128" font-family="FreeSans" font-size="10.00">vtkUnstructuredGridAlgorithm</text>
</a>
</g>
<!-- Node3&#45;&gt;Node2 -->
<g id="edge4" class="edge"><title>Node3&#45;&gt;Node2</title>
<path fill="none" stroke="midnightblue" d="M81,-110.516C81,-100.562 81,-89.0495 81,-81.0279"/>
<polygon fill="midnightblue" stroke="midnightblue" points="77.5001,-110.822 81,-120.822 84.5001,-110.822 77.5001,-110.822"/>
</g>
<!-- Node4 -->
<g id="node6" class="node"><title>Node4</title>
<a xlink:href="class_kitware_1_1_v_t_k_1_1vtk_algorithm.html" target="_top" xlink:title="vtkAlgorithm &#45; Superclass for all sources, filters, and sinks in VTK.">
<polygon fill="none" stroke="black" points="42.5,-181 42.5,-201 119.5,-201 119.5,-181 42.5,-181"/>
<text text-anchor="middle" x="81" y="-188" font-family="FreeSans" font-size="10.00">vtkAlgorithm</text>
</a>
</g>
<!-- Node4&#45;&gt;Node3 -->
<g id="edge6" class="edge"><title>Node4&#45;&gt;Node3</title>
<path fill="none" stroke="midnightblue" d="M81,-170.516C81,-160.562 81,-149.05 81,-141.028"/>
<polygon fill="midnightblue" stroke="midnightblue" points="77.5001,-170.822 81,-180.822 84.5001,-170.822 77.5001,-170.822"/>
</g>
<!-- Node5 -->
<g id="node8" class="node"><title>Node5</title>
<a xlink:href="class_kitware_1_1_v_t_k_1_1vtk_object.html" target="_top" xlink:title="vtkObject &#45; abstract base class for most VTK objects">
<polygon fill="none" stroke="black" points="50,-241 50,-261 112,-261 112,-241 50,-241"/>
<text text-anchor="middle" x="81" y="-248" font-family="FreeSans" font-size="10.00">vtkObject</text>
</a>
</g>
<!-- Node5&#45;&gt;Node4 -->
<g id="edge8" class="edge"><title>Node5&#45;&gt;Node4</title>
<path fill="none" stroke="midnightblue" d="M81,-230.516C81,-220.562 81,-209.05 81,-201.028"/>
<polygon fill="midnightblue" stroke="midnightblue" points="77.5001,-230.822 81,-240.822 84.5001,-230.822 77.5001,-230.822"/>
</g>
<!-- Node6 -->
<g id="node10" class="node"><title>Node6</title>
<a xlink:href="class_kitware_1_1_v_t_k_1_1vtk_object_base.html" target="_top" xlink:title="vtkObjectBase &#45; abstract base class for most VTK objects">
<polygon fill="none" stroke="black" points="101,-681 101,-701 187,-701 187,-681 101,-681"/>
<text text-anchor="middle" x="144" y="-688" font-family="FreeSans" font-size="10.00">vtkObjectBase</text>
</a>
</g>
<!-- Node6&#45;&gt;Node5 -->
<g id="edge10" class="edge"><title>Node6&#45;&gt;Node5</title>
<path fill="none" stroke="midnightblue" d="M115.423,-675.886C101.687,-667.44 85.8844,-655.826 75,-642 63.1564,-626.955 62.6209,-620.802 59,-602 33.4248,-469.199 68.5766,-303.437 78.5155,-261.17"/>
<polygon fill="midnightblue" stroke="midnightblue" points="113.683,-678.923 124.079,-680.97 117.229,-672.887 113.683,-678.923"/>
</g>
<!-- Node9 -->
<g id="node17" class="node"><title>Node9</title>
<a xlink:href="class_kitware_1_1_v_t_k_1_1vtk_object.html" target="_top" xlink:title="vtkObject &#45; abstract base class for most VTK objects">
<polygon fill="none" stroke="black" points="84,-621 84,-641 204,-641 204,-621 84,-621"/>
<text text-anchor="middle" x="144" y="-628" font-family="FreeSans" font-size="10.00">Kitware.VTK.vtkObject</text>
</a>
</g>
<!-- Node6&#45;&gt;Node9 -->
<g id="edge20" class="edge"><title>Node6&#45;&gt;Node9</title>
<path fill="none" stroke="midnightblue" d="M144,-670.516C144,-660.562 144,-649.05 144,-641.028"/>
<polygon fill="midnightblue" stroke="midnightblue" points="140.5,-670.822 144,-680.822 147.5,-670.822 140.5,-670.822"/>
</g>
<!-- Node7 -->
<g id="node12" class="node"><title>Node7</title>
<a xlink:href="class_kitware_1_1_v_t_k_1_1_wrapped_object.html" target="_top" xlink:title="Base class for all the mummy wrapped classes in Kitware.VTK.">
<polygon fill="none" stroke="black" points="282.5,-741 282.5,-761 371.5,-761 371.5,-741 282.5,-741"/>
<text text-anchor="middle" x="327" y="-748" font-family="FreeSans" font-size="10.00">WrappedObject</text>
</a>
</g>
<!-- Node7&#45;&gt;Node6 -->
<g id="edge12" class="edge"><title>Node7&#45;&gt;Node6</title>
<path fill="none" stroke="midnightblue" d="M286.804,-737.821C253.042,-726.752 205.512,-711.168 174.73,-701.075"/>
<polygon fill="midnightblue" stroke="midnightblue" points="285.777,-741.168 296.37,-740.957 287.958,-734.516 285.777,-741.168"/>
</g>
<!-- Node8 -->
<g id="node14" class="node"><title>Node8</title>
<a xlink:href="class_kitware_1_1_v_t_k_1_1vtk_object_event_relay.html" target="_top" xlink:title="Implement a relay handler for VTK events. This is a class that receives events directly from the VTK ...">
<polygon fill="none" stroke="black" points="73,-431 73,-451 245,-451 245,-431 73,-431"/>
<text text-anchor="middle" x="159" y="-438" font-family="FreeSans" font-size="10.00">Kitware.VTK.vtkObjectEventRelay</text>
</a>
</g>
<!-- Node7&#45;&gt;Node8 -->
<g id="edge16" class="edge"><title>Node7&#45;&gt;Node8</title>
<path fill="none" stroke="midnightblue" d="M339.888,-732.325C372.276,-682.899 449.803,-547.191 382,-470 372.773,-459.495 304.047,-451.666 245.298,-446.808"/>
<polygon fill="midnightblue" stroke="midnightblue" points="336.891,-730.509 334.239,-740.767 342.709,-734.402 336.891,-730.509"/>
</g>
<!-- Node8&#45;&gt;Node5 -->
<g id="edge14" class="edge"><title>Node8&#45;&gt;Node5</title>
<path fill="none" stroke="#9a32cd" stroke-dasharray="5,2" d="M150.921,-421.321C134.489,-381.293 97.6738,-291.616 85.2144,-261.266"/>
<polygon fill="#9a32cd" stroke="#9a32cd" points="147.771,-422.863 154.806,-430.785 154.246,-420.205 147.771,-422.863"/>
<text text-anchor="middle" x="258.5" y="-403" font-family="FreeSans" font-size="10.00"> LeftButtonReleaseEvtRelay</text>
<text text-anchor="middle" x="258.5" y="-391" font-family="FreeSans" font-size="10.00">KeyPressEvtRelay</text>
<text text-anchor="middle" x="258.5" y="-379" font-family="FreeSans" font-size="10.00">DomainModifiedEvtRelay</text>
<text text-anchor="middle" x="258.5" y="-367" font-family="FreeSans" font-size="10.00">VolumeMapperComputeGradientsStartEvtRelay</text>
<text text-anchor="middle" x="258.5" y="-355" font-family="FreeSans" font-size="10.00">ErrorEvtRelay</text>
<text text-anchor="middle" x="258.5" y="-343" font-family="FreeSans" font-size="10.00">VolumeMapperRenderStartEvtRelay</text>
<text text-anchor="middle" x="258.5" y="-331" font-family="FreeSans" font-size="10.00">StartEvtRelay</text>
<text text-anchor="middle" x="258.5" y="-319" font-family="FreeSans" font-size="10.00">ResetCameraEvtRelay</text>
<text text-anchor="middle" x="258.5" y="-307" font-family="FreeSans" font-size="10.00">EnableEvtRelay</text>
<text text-anchor="middle" x="258.5" y="-295" font-family="FreeSans" font-size="10.00">DeleteEvtRelay</text>
<text text-anchor="middle" x="258.5" y="-283" font-family="FreeSans" font-size="10.00">...</text>
</g>
<!-- Node8&#45;&gt;Node9 -->
<g id="edge22" class="edge"><title>Node8&#45;&gt;Node9</title>
<path fill="none" stroke="#9a32cd" stroke-dasharray="5,2" d="M156.028,-461.231C155.649,-464.169 155.293,-467.159 155,-470 149.144,-526.853 145.636,-595.333 144.452,-620.807"/>
<polygon fill="#9a32cd" stroke="#9a32cd" points="159.515,-461.565 157.421,-451.179 152.582,-460.604 159.515,-461.565"/>
<text text-anchor="middle" x="268.5" y="-593" font-family="FreeSans" font-size="10.00"> LeftButtonReleaseEvtRelay</text>
<text text-anchor="middle" x="268.5" y="-581" font-family="FreeSans" font-size="10.00">KeyPressEvtRelay</text>
<text text-anchor="middle" x="268.5" y="-569" font-family="FreeSans" font-size="10.00">DomainModifiedEvtRelay</text>
<text text-anchor="middle" x="268.5" y="-557" font-family="FreeSans" font-size="10.00">VolumeMapperComputeGradientsStartEvtRelay</text>
<text text-anchor="middle" x="268.5" y="-545" font-family="FreeSans" font-size="10.00">ErrorEvtRelay</text>
<text text-anchor="middle" x="268.5" y="-533" font-family="FreeSans" font-size="10.00">VolumeMapperRenderStartEvtRelay</text>
<text text-anchor="middle" x="268.5" y="-521" font-family="FreeSans" font-size="10.00">StartEvtRelay</text>
<text text-anchor="middle" x="268.5" y="-509" font-family="FreeSans" font-size="10.00">ResetCameraEvtRelay</text>
<text text-anchor="middle" x="268.5" y="-497" font-family="FreeSans" font-size="10.00">EnableEvtRelay</text>
<text text-anchor="middle" x="268.5" y="-485" font-family="FreeSans" font-size="10.00">DeleteEvtRelay</text>
<text text-anchor="middle" x="268.5" y="-473" font-family="FreeSans" font-size="10.00">...</text>
</g>
<!-- Node9&#45;&gt;Node8 -->
<g id="edge18" class="edge"><title>Node9&#45;&gt;Node8</title>
<path fill="none" stroke="#9a32cd" stroke-dasharray="5,2" d="M97.9794,-615.818C92.4393,-612.138 87.5104,-607.596 84,-602 52.8229,-552.303 50.8299,-518.389 84,-470 88.7359,-463.091 105.511,-456.287 121.999,-451.008"/>
<polygon fill="#9a32cd" stroke="#9a32cd" points="96.6386,-619.079 107.072,-620.919 100.064,-612.974 96.6386,-619.079"/>
<text text-anchor="middle" x="108" y="-539" font-family="FreeSans" font-size="10.00"> Sender</text>
<text text-anchor="middle" x="108" y="-527" font-family="FreeSans" font-size="10.00">EventImpl</text>
</g>
</g>
</svg>
