<?xml version="1.0" encoding="UTF-8" standalone="no"?>
<!DOCTYPE svg PUBLIC "-//W3C//DTD SVG 1.1//EN"
 "http://www.w3.org/Graphics/SVG/1.1/DTD/svg11.dtd">
<!-- Generated by graphviz version 2.26.3 (20100126.1600)
 -->
<!-- Title: G Pages: 1 -->
<svg width="405pt" height="436pt"
 viewBox="0.00 0.00 405.00 436.00" xmlns="http://www.w3.org/2000/svg" xmlns:xlink="http://www.w3.org/1999/xlink">
<g id="graph1" class="graph" transform="scale(1 1) rotate(0) translate(4 432)">
<title>G</title>
<!-- Node1 -->
<g id="node1" class="node"><title>Node1</title>
<polygon fill="#bfbfbf" stroke="black" points="124,-117 124,-137 278,-137 278,-117 124,-117"/>
<text text-anchor="middle" x="201" y="-124" font-family="FreeSans" font-size="10.00">Kitware.VTK.vtkStreamTracer</text>
</g>
<!-- Node7 -->
<g id="node13" class="node"><title>Node7</title>
<a xlink:href="class_kitware_1_1_v_t_k_1_1vtk_p_stream_tracer.html" target="_top" xlink:title="vtkPStreamTracer &#45; Abstract superclass for parallel streamline generators">
<polygon fill="none" stroke="black" points="23,-59 23,-79 183,-79 183,-59 23,-59"/>
<text text-anchor="middle" x="103" y="-66" font-family="FreeSans" font-size="10.00">Kitware.VTK.vtkPStreamTracer</text>
</a>
</g>
<!-- Node1&#45;&gt;Node7 -->
<g id="edge12" class="edge"><title>Node1&#45;&gt;Node7</title>
<path fill="none" stroke="midnightblue" d="M174.89,-111.547C157.571,-101.297 135.33,-88.1339 120.203,-79.1817"/>
<polygon fill="midnightblue" stroke="midnightblue" points="173.541,-114.816 183.93,-116.897 177.107,-108.792 173.541,-114.816"/>
</g>
<!-- Node9 -->
<g id="node17" class="node"><title>Node9</title>
<a xlink:href="class_kitware_1_1_v_t_k_1_1vtk_temporal_stream_tracer.html" target="_top" xlink:title="vtkTemporalStreamTracer &#45; A Parallel Particle tracer for unsteady vector fields">
<polygon fill="none" stroke="black" points="200.5,-59 200.5,-79 397.5,-79 397.5,-59 200.5,-59"/>
<text text-anchor="middle" x="299" y="-66" font-family="FreeSans" font-size="10.00">Kitware.VTK.vtkTemporalStreamTracer</text>
</a>
</g>
<!-- Node1&#45;&gt;Node9 -->
<g id="edge16" class="edge"><title>Node1&#45;&gt;Node9</title>
<path fill="none" stroke="midnightblue" d="M227.11,-111.547C244.429,-101.297 266.67,-88.1339 281.797,-79.1817"/>
<polygon fill="midnightblue" stroke="midnightblue" points="224.893,-108.792 218.07,-116.897 228.459,-114.816 224.893,-108.792"/>
</g>
<!-- Node2 -->
<g id="node2" class="node"><title>Node2</title>
<a xlink:href="class_kitware_1_1_v_t_k_1_1vtk_poly_data_algorithm.html" target="_top" xlink:title="vtkPolyDataAlgorithm &#45; Superclass for algorithms that produce only polydata as output">
<polygon fill="none" stroke="black" points="141,-175 141,-195 261,-195 261,-175 141,-175"/>
<text text-anchor="middle" x="201" y="-182" font-family="FreeSans" font-size="10.00">vtkPolyDataAlgorithm</text>
</a>
</g>
<!-- Node2&#45;&gt;Node1 -->
<g id="edge2" class="edge"><title>Node2&#45;&gt;Node1</title>
<path fill="none" stroke="midnightblue" d="M201,-164.89C201,-155.62 201,-145.008 201,-137.378"/>
<polygon fill="midnightblue" stroke="midnightblue" points="197.5,-164.897 201,-174.897 204.5,-164.897 197.5,-164.897"/>
</g>
<!-- Node3 -->
<g id="node4" class="node"><title>Node3</title>
<a xlink:href="class_kitware_1_1_v_t_k_1_1vtk_algorithm.html" target="_top" xlink:title="vtkAlgorithm &#45; Superclass for all sources, filters, and sinks in VTK.">
<polygon fill="none" stroke="black" points="162.5,-233 162.5,-253 239.5,-253 239.5,-233 162.5,-233"/>
<text text-anchor="middle" x="201" y="-240" font-family="FreeSans" font-size="10.00">vtkAlgorithm</text>
</a>
</g>
<!-- Node3&#45;&gt;Node2 -->
<g id="edge4" class="edge"><title>Node3&#45;&gt;Node2</title>
<path fill="none" stroke="midnightblue" d="M201,-222.89C201,-213.62 201,-203.008 201,-195.378"/>
<polygon fill="midnightblue" stroke="midnightblue" points="197.5,-222.897 201,-232.897 204.5,-222.897 197.5,-222.897"/>
</g>
<!-- Node4 -->
<g id="node6" class="node"><title>Node4</title>
<a xlink:href="class_kitware_1_1_v_t_k_1_1vtk_object.html" target="_top" xlink:title="vtkObject &#45; abstract base class for most VTK objects">
<polygon fill="none" stroke="black" points="170,-291 170,-311 232,-311 232,-291 170,-291"/>
<text text-anchor="middle" x="201" y="-298" font-family="FreeSans" font-size="10.00">vtkObject</text>
</a>
</g>
<!-- Node4&#45;&gt;Node3 -->
<g id="edge6" class="edge"><title>Node4&#45;&gt;Node3</title>
<path fill="none" stroke="midnightblue" d="M201,-280.89C201,-271.62 201,-261.008 201,-253.378"/>
<polygon fill="midnightblue" stroke="midnightblue" points="197.5,-280.897 201,-290.897 204.5,-280.897 197.5,-280.897"/>
</g>
<!-- Node5 -->
<g id="node8" class="node"><title>Node5</title>
<a xlink:href="class_kitware_1_1_v_t_k_1_1vtk_object_base.html" target="_top" xlink:title="vtkObjectBase &#45; abstract base class for most VTK objects">
<polygon fill="none" stroke="black" points="158,-349 158,-369 244,-369 244,-349 158,-349"/>
<text text-anchor="middle" x="201" y="-356" font-family="FreeSans" font-size="10.00">vtkObjectBase</text>
</a>
</g>
<!-- Node5&#45;&gt;Node4 -->
<g id="edge8" class="edge"><title>Node5&#45;&gt;Node4</title>
<path fill="none" stroke="midnightblue" d="M201,-338.89C201,-329.62 201,-319.008 201,-311.378"/>
<polygon fill="midnightblue" stroke="midnightblue" points="197.5,-338.897 201,-348.897 204.5,-338.897 197.5,-338.897"/>
</g>
<!-- Node6 -->
<g id="node10" class="node"><title>Node6</title>
<a xlink:href="class_kitware_1_1_v_t_k_1_1_wrapped_object.html" target="_top" xlink:title="Base class for all the mummy wrapped classes in Kitware.VTK.">
<polygon fill="none" stroke="black" points="156.5,-407 156.5,-427 245.5,-427 245.5,-407 156.5,-407"/>
<text text-anchor="middle" x="201" y="-414" font-family="FreeSans" font-size="10.00">WrappedObject</text>
</a>
</g>
<!-- Node6&#45;&gt;Node5 -->
<g id="edge10" class="edge"><title>Node6&#45;&gt;Node5</title>
<path fill="none" stroke="midnightblue" d="M201,-396.89C201,-387.62 201,-377.008 201,-369.378"/>
<polygon fill="midnightblue" stroke="midnightblue" points="197.5,-396.897 201,-406.897 204.5,-396.897 197.5,-396.897"/>
</g>
<!-- Node8 -->
<g id="node15" class="node"><title>Node8</title>
<a xlink:href="class_kitware_1_1_v_t_k_1_1vtk_distributed_stream_tracer.html" target="_top" xlink:title="vtkDistributedStreamTracer &#45; Distributed streamline generator">
<polygon fill="none" stroke="black" points="0,-1 0,-21 206,-21 206,-1 0,-1"/>
<text text-anchor="middle" x="103" y="-8" font-family="FreeSans" font-size="10.00">Kitware.VTK.vtkDistributedStreamTracer</text>
</a>
</g>
<!-- Node7&#45;&gt;Node8 -->
<g id="edge14" class="edge"><title>Node7&#45;&gt;Node8</title>
<path fill="none" stroke="midnightblue" d="M103,-48.8902C103,-39.6201 103,-29.0083 103,-21.3776"/>
<polygon fill="midnightblue" stroke="midnightblue" points="99.5001,-48.8971 103,-58.8972 106.5,-48.8972 99.5001,-48.8971"/>
</g>
</g>
</svg>
