<?xml version="1.0" encoding="UTF-8" standalone="no"?>
<!DOCTYPE svg PUBLIC "-//W3C//DTD SVG 1.1//EN"
 "http://www.w3.org/Graphics/SVG/1.1/DTD/svg11.dtd">
<!-- Generated by graphviz version 2.26.3 (20100126.1600)
 -->
<!-- Title: G Pages: 1 -->
<svg width="1452pt" height="104pt"
 viewBox="0.00 0.00 1452.00 104.00" xmlns="http://www.w3.org/2000/svg" xmlns:xlink="http://www.w3.org/1999/xlink">
<g id="graph1" class="graph" transform="scale(1 1) rotate(0) translate(4 100)">
<title>G</title>
<!-- Node1 -->
<g id="node1" class="node"><title>Node1</title>
<polygon fill="#bfbfbf" stroke="black" points="756,-38 756,-58 978,-58 978,-38 756,-38"/>
<text text-anchor="middle" x="867" y="-45" font-family="FreeSans" font-size="10.00">Kitware.VTK.vtkBivariateStatisticsAlgorithm</text>
</g>
<!-- Node8 -->
<g id="node15" class="node"><title>Node8</title>
<a xlink:href="class_kitware_1_1_v_t_k_1_1vtk_contingency_statistics.html" target="_top" xlink:title="vtkContingencyStatistics &#45; A class for correlation with contigency tables.">
<polygon fill="none" stroke="black" points="1014.5,-76 1014.5,-96 1207.5,-96 1207.5,-76 1014.5,-76"/>
<text text-anchor="middle" x="1111" y="-83" font-family="FreeSans" font-size="10.00">Kitware.VTK.vtkContingencyStatistics</text>
</a>
</g>
<!-- Node1&#45;&gt;Node8 -->
<g id="edge14" class="edge"><title>Node1&#45;&gt;Node8</title>
<path fill="none" stroke="midnightblue" d="M941.644,-59.6249C975.194,-64.8498 1014.4,-70.9557 1046.64,-75.976"/>
<polygon fill="midnightblue" stroke="midnightblue" points="941.847,-56.1144 931.427,-58.0338 940.77,-63.031 941.847,-56.1144"/>
</g>
<!-- Node10 -->
<g id="node19" class="node"><title>Node10</title>
<a xlink:href="class_kitware_1_1_v_t_k_1_1vtk_correlative_statistics.html" target="_top" xlink:title="vtkCorrelativeStatistics &#45; A class for linear correlation">
<polygon fill="none" stroke="black" points="1018.5,-38 1018.5,-58 1203.5,-58 1203.5,-38 1018.5,-38"/>
<text text-anchor="middle" x="1111" y="-45" font-family="FreeSans" font-size="10.00">Kitware.VTK.vtkCorrelativeStatistics</text>
</a>
</g>
<!-- Node1&#45;&gt;Node10 -->
<g id="edge18" class="edge"><title>Node1&#45;&gt;Node10</title>
<path fill="none" stroke="midnightblue" d="M988.399,-48C998.52,-48 1008.65,-48 1018.5,-48"/>
<polygon fill="midnightblue" stroke="midnightblue" points="988.29,-44.5001 978.29,-48 988.29,-51.5001 988.29,-44.5001"/>
</g>
<!-- Node12 -->
<g id="node23" class="node"><title>Node12</title>
<a xlink:href="class_kitware_1_1_v_t_k_1_1vtk_extract_histogram2_d.html" target="_top" xlink:title="vtkExtractHistogram2D &#45; compute a 2D histogram between two columns of an input vtkTable.">
<polygon fill="none" stroke="black" points="1017.5,-0 1017.5,-20 1204.5,-20 1204.5,-0 1017.5,-0"/>
<text text-anchor="middle" x="1111" y="-7" font-family="FreeSans" font-size="10.00">Kitware.VTK.vtkExtractHistogram2D</text>
</a>
</g>
<!-- Node1&#45;&gt;Node12 -->
<g id="edge22" class="edge"><title>Node1&#45;&gt;Node12</title>
<path fill="none" stroke="midnightblue" d="M941.644,-36.3751C975.194,-31.1502 1014.4,-25.0443 1046.64,-20.024"/>
<polygon fill="midnightblue" stroke="midnightblue" points="940.77,-32.969 931.427,-37.9662 941.847,-39.8856 940.77,-32.969"/>
</g>
<!-- Node2 -->
<g id="node2" class="node"><title>Node2</title>
<a xlink:href="class_kitware_1_1_v_t_k_1_1vtk_statistics_algorithm.html" target="_top" xlink:title="vtkStatisticsAlgorithm &#45; Base class for statistics algorithms">
<polygon fill="none" stroke="black" points="598,-38 598,-58 720,-58 720,-38 598,-38"/>
<text text-anchor="middle" x="659" y="-45" font-family="FreeSans" font-size="10.00">vtkStatisticsAlgorithm</text>
</a>
</g>
<!-- Node2&#45;&gt;Node1 -->
<g id="edge2" class="edge"><title>Node2&#45;&gt;Node1</title>
<path fill="none" stroke="midnightblue" d="M730.069,-48C738.467,-48 747.184,-48 755.968,-48"/>
<polygon fill="midnightblue" stroke="midnightblue" points="730.001,-44.5001 720.001,-48 730.001,-51.5001 730.001,-44.5001"/>
</g>
<!-- Node3 -->
<g id="node4" class="node"><title>Node3</title>
<a xlink:href="class_kitware_1_1_v_t_k_1_1vtk_table_algorithm.html" target="_top" xlink:title="vtkTableAlgorithm &#45; Superclass for algorithms that produce only vtkTables as output">
<polygon fill="none" stroke="black" points="460.5,-38 460.5,-58 561.5,-58 561.5,-38 460.5,-38"/>
<text text-anchor="middle" x="511" y="-45" font-family="FreeSans" font-size="10.00">vtkTableAlgorithm</text>
</a>
</g>
<!-- Node3&#45;&gt;Node2 -->
<g id="edge4" class="edge"><title>Node3&#45;&gt;Node2</title>
<path fill="none" stroke="midnightblue" d="M571.589,-48C580.293,-48 589.253,-48 597.965,-48"/>
<polygon fill="midnightblue" stroke="midnightblue" points="571.519,-44.5001 561.519,-48 571.519,-51.5001 571.519,-44.5001"/>
</g>
<!-- Node4 -->
<g id="node6" class="node"><title>Node4</title>
<a xlink:href="class_kitware_1_1_v_t_k_1_1vtk_algorithm.html" target="_top" xlink:title="vtkAlgorithm &#45; Superclass for all sources, filters, and sinks in VTK.">
<polygon fill="none" stroke="black" points="346.5,-38 346.5,-58 423.5,-58 423.5,-38 346.5,-38"/>
<text text-anchor="middle" x="385" y="-45" font-family="FreeSans" font-size="10.00">vtkAlgorithm</text>
</a>
</g>
<!-- Node4&#45;&gt;Node3 -->
<g id="edge6" class="edge"><title>Node4&#45;&gt;Node3</title>
<path fill="none" stroke="midnightblue" d="M433.855,-48C442.579,-48 451.684,-48 460.454,-48"/>
<polygon fill="midnightblue" stroke="midnightblue" points="433.832,-44.5001 423.832,-48 433.832,-51.5001 433.832,-44.5001"/>
</g>
<!-- Node5 -->
<g id="node8" class="node"><title>Node5</title>
<a xlink:href="class_kitware_1_1_v_t_k_1_1vtk_object.html" target="_top" xlink:title="vtkObject &#45; abstract base class for most VTK objects">
<polygon fill="none" stroke="black" points="248,-38 248,-58 310,-58 310,-38 248,-38"/>
<text text-anchor="middle" x="279" y="-45" font-family="FreeSans" font-size="10.00">vtkObject</text>
</a>
</g>
<!-- Node5&#45;&gt;Node4 -->
<g id="edge8" class="edge"><title>Node5&#45;&gt;Node4</title>
<path fill="none" stroke="midnightblue" d="M320.421,-48C329.001,-48 338.007,-48 346.479,-48"/>
<polygon fill="midnightblue" stroke="midnightblue" points="320.23,-44.5001 310.23,-48 320.23,-51.5001 320.23,-44.5001"/>
</g>
<!-- Node6 -->
<g id="node10" class="node"><title>Node6</title>
<a xlink:href="class_kitware_1_1_v_t_k_1_1vtk_object_base.html" target="_top" xlink:title="vtkObjectBase &#45; abstract base class for most VTK objects">
<polygon fill="none" stroke="black" points="126,-38 126,-58 212,-58 212,-38 126,-38"/>
<text text-anchor="middle" x="169" y="-45" font-family="FreeSans" font-size="10.00">vtkObjectBase</text>
</a>
</g>
<!-- Node6&#45;&gt;Node5 -->
<g id="edge10" class="edge"><title>Node6&#45;&gt;Node5</title>
<path fill="none" stroke="midnightblue" d="M222.346,-48C231.091,-48 239.892,-48 247.863,-48"/>
<polygon fill="midnightblue" stroke="midnightblue" points="222.159,-44.5001 212.159,-48 222.159,-51.5001 222.159,-44.5001"/>
</g>
<!-- Node7 -->
<g id="node12" class="node"><title>Node7</title>
<a xlink:href="class_kitware_1_1_v_t_k_1_1_wrapped_object.html" target="_top" xlink:title="Base class for all the mummy wrapped classes in Kitware.VTK.">
<polygon fill="none" stroke="black" points="0.5,-38 0.5,-58 89.5,-58 89.5,-38 0.5,-38"/>
<text text-anchor="middle" x="45" y="-45" font-family="FreeSans" font-size="10.00">WrappedObject</text>
</a>
</g>
<!-- Node7&#45;&gt;Node6 -->
<g id="edge12" class="edge"><title>Node7&#45;&gt;Node6</title>
<path fill="none" stroke="midnightblue" d="M99.8895,-48C108.623,-48 117.548,-48 125.957,-48"/>
<polygon fill="midnightblue" stroke="midnightblue" points="99.7669,-44.5001 89.7668,-48 99.7668,-51.5001 99.7669,-44.5001"/>
</g>
<!-- Node9 -->
<g id="node17" class="node"><title>Node9</title>
<a xlink:href="class_kitware_1_1_v_t_k_1_1vtk_p_contingency_statistics.html" target="_top" xlink:title="vtkPContingencyStatistics &#45; A class for parallel bivariate contingency statistics">
<polygon fill="none" stroke="black" points="1244.5,-76 1244.5,-96 1443.5,-96 1443.5,-76 1244.5,-76"/>
<text text-anchor="middle" x="1344" y="-83" font-family="FreeSans" font-size="10.00">Kitware.VTK.vtkPContingencyStatistics</text>
</a>
</g>
<!-- Node8&#45;&gt;Node9 -->
<g id="edge16" class="edge"><title>Node8&#45;&gt;Node9</title>
<path fill="none" stroke="midnightblue" d="M1217.97,-86C1226.69,-86 1235.47,-86 1244.13,-86"/>
<polygon fill="midnightblue" stroke="midnightblue" points="1217.79,-82.5001 1207.79,-86 1217.79,-89.5001 1217.79,-82.5001"/>
</g>
<!-- Node11 -->
<g id="node21" class="node"><title>Node11</title>
<a xlink:href="class_kitware_1_1_v_t_k_1_1vtk_p_correlative_statistics.html" target="_top" xlink:title="vtkPCorrelativeStatistics &#45; A class for parallel bivariate correlative statistics">
<polygon fill="none" stroke="black" points="1248.5,-38 1248.5,-58 1439.5,-58 1439.5,-38 1248.5,-38"/>
<text text-anchor="middle" x="1344" y="-45" font-family="FreeSans" font-size="10.00">Kitware.VTK.vtkPCorrelativeStatistics</text>
</a>
</g>
<!-- Node10&#45;&gt;Node11 -->
<g id="edge20" class="edge"><title>Node10&#45;&gt;Node11</title>
<path fill="none" stroke="midnightblue" d="M1214.09,-48C1225.41,-48 1236.9,-48 1248.13,-48"/>
<polygon fill="midnightblue" stroke="midnightblue" points="1213.76,-44.5001 1203.76,-48 1213.76,-51.5001 1213.76,-44.5001"/>
</g>
<!-- Node13 -->
<g id="node25" class="node"><title>Node13</title>
<a xlink:href="class_kitware_1_1_v_t_k_1_1vtk_p_extract_histogram2_d.html" target="_top" xlink:title="vtkPExtractHistogram2D &#45; compute a 2D histogram between two columns of an input vtkTable in parallel...">
<polygon fill="none" stroke="black" points="1247.5,-0 1247.5,-20 1440.5,-20 1440.5,-0 1247.5,-0"/>
<text text-anchor="middle" x="1344" y="-7" font-family="FreeSans" font-size="10.00">Kitware.VTK.vtkPExtractHistogram2D</text>
</a>
</g>
<!-- Node12&#45;&gt;Node13 -->
<g id="edge24" class="edge"><title>Node12&#45;&gt;Node13</title>
<path fill="none" stroke="midnightblue" d="M1215.03,-10C1225.8,-10 1236.71,-10 1247.39,-10"/>
<polygon fill="midnightblue" stroke="midnightblue" points="1214.76,-6.5001 1204.76,-10 1214.76,-13.5001 1214.76,-6.5001"/>
</g>
</g>
</svg>
