<?xml version="1.0" encoding="UTF-8" standalone="no"?>
<!DOCTYPE svg PUBLIC "-//W3C//DTD SVG 1.1//EN"
 "http://www.w3.org/Graphics/SVG/1.1/DTD/svg11.dtd">
<!-- Generated by graphviz version 2.26.3 (20100126.1600)
 -->
<!-- Title: G Pages: 1 -->
<svg width="1566pt" height="788pt"
 viewBox="0.00 0.00 1566.00 788.00" xmlns="http://www.w3.org/2000/svg" xmlns:xlink="http://www.w3.org/1999/xlink">
<g id="graph1" class="graph" transform="scale(1 1) rotate(0) translate(4 784)">
<title>G</title>
<!-- Node1 -->
<g id="node1" class="node"><title>Node1</title>
<polygon fill="#bfbfbf" stroke="black" points="596.5,-456 596.5,-476 719.5,-476 719.5,-456 596.5,-456"/>
<text text-anchor="middle" x="658" y="-463" font-family="FreeSans" font-size="10.00">Kitware.VTK.vtkSource</text>
</g>
<!-- Node7 -->
<g id="node13" class="node"><title>Node7</title>
<a xlink:href="class_kitware_1_1_v_t_k_1_1vtk_data_object_source.html" target="_top" xlink:title="vtkDataObjectSource &#45; abstract class specifies interface for field source (or objects that generate f...">
<polygon fill="none" stroke="black" points="770.5,-722 770.5,-742 947.5,-742 947.5,-722 770.5,-722"/>
<text text-anchor="middle" x="859" y="-729" font-family="FreeSans" font-size="10.00">Kitware.VTK.vtkDataObjectSource</text>
</a>
</g>
<!-- Node1&#45;&gt;Node7 -->
<g id="edge12" class="edge"><title>Node1&#45;&gt;Node7</title>
<path fill="none" stroke="midnightblue" d="M659.609,-486.237C664.551,-533.921 683.893,-653.76 756,-713 760.356,-716.578 765.167,-719.569 770.259,-722.061"/>
<polygon fill="midnightblue" stroke="midnightblue" points="663.09,-485.861 658.679,-476.228 656.12,-486.509 663.09,-485.861"/>
</g>
<!-- Node8 -->
<g id="node15" class="node"><title>Node8</title>
<a xlink:href="class_kitware_1_1_v_t_k_1_1vtk_data_set_source.html" target="_top" xlink:title="vtkDataSetSource &#45; abstract class whose subclasses generate datasets">
<polygon fill="none" stroke="black" points="777.5,-684 777.5,-704 940.5,-704 940.5,-684 777.5,-684"/>
<text text-anchor="middle" x="859" y="-691" font-family="FreeSans" font-size="10.00">Kitware.VTK.vtkDataSetSource</text>
</a>
</g>
<!-- Node1&#45;&gt;Node8 -->
<g id="edge14" class="edge"><title>Node1&#45;&gt;Node8</title>
<path fill="none" stroke="midnightblue" d="M661.215,-486.265C669.07,-528.638 693.389,-626.67 756,-675 762.405,-679.944 769.696,-683.744 777.371,-686.647"/>
<polygon fill="midnightblue" stroke="midnightblue" points="664.646,-485.568 659.487,-476.314 657.749,-486.765 664.646,-485.568"/>
</g>
<!-- Node10 -->
<g id="node19" class="node"><title>Node10</title>
<a xlink:href="class_kitware_1_1_v_t_k_1_1vtk_image_source.html" target="_top" xlink:title="vtkImageSource &#45; Source of data for the imaging pipeline">
<polygon fill="none" stroke="black" points="782.5,-646 782.5,-666 935.5,-666 935.5,-646 782.5,-646"/>
<text text-anchor="middle" x="859" y="-653" font-family="FreeSans" font-size="10.00">Kitware.VTK.vtkImageSource</text>
</a>
</g>
<!-- Node1&#45;&gt;Node10 -->
<g id="edge18" class="edge"><title>Node1&#45;&gt;Node10</title>
<path fill="none" stroke="midnightblue" d="M671.541,-484.169C689.482,-507.639 722.755,-549.14 756,-580 784.503,-606.458 822.169,-632.258 843.151,-645.935"/>
<polygon fill="midnightblue" stroke="midnightblue" points="674.273,-481.979 665.448,-476.116 668.691,-486.202 674.273,-481.979"/>
</g>
<!-- Node17 -->
<g id="node33" class="node"><title>Node17</title>
<a xlink:href="class_kitware_1_1_v_t_k_1_1vtk_point_set_source.html" target="_top" xlink:title="vtkPointSetSource &#45; abstract class whose subclasses generate point data">
<polygon fill="none" stroke="black" points="777,-551 777,-571 941,-571 941,-551 777,-551"/>
<text text-anchor="middle" x="859" y="-558" font-family="FreeSans" font-size="10.00">Kitware.VTK.vtkPointSetSource</text>
</a>
</g>
<!-- Node1&#45;&gt;Node17 -->
<g id="edge32" class="edge"><title>Node1&#45;&gt;Node17</title>
<path fill="none" stroke="midnightblue" d="M688.787,-480.551C729.969,-500.015 801.933,-534.028 837.644,-550.906"/>
<polygon fill="midnightblue" stroke="midnightblue" points="690.047,-477.275 679.511,-476.167 687.056,-483.604 690.047,-477.275"/>
</g>
<!-- Node19 -->
<g id="node37" class="node"><title>Node19</title>
<a xlink:href="class_kitware_1_1_v_t_k_1_1vtk_poly_data_source.html" target="_top" xlink:title="vtkPolyDataSource &#45; abstract class whose subclasses generate polygonal data">
<polygon fill="none" stroke="black" points="776,-456 776,-476 942,-476 942,-456 776,-456"/>
<text text-anchor="middle" x="859" y="-463" font-family="FreeSans" font-size="10.00">Kitware.VTK.vtkPolyDataSource</text>
</a>
</g>
<!-- Node1&#45;&gt;Node19 -->
<g id="edge36" class="edge"><title>Node1&#45;&gt;Node19</title>
<path fill="none" stroke="midnightblue" d="M729.853,-466C744.797,-466 760.663,-466 775.971,-466"/>
<polygon fill="midnightblue" stroke="midnightblue" points="729.673,-462.5 719.673,-466 729.673,-469.5 729.673,-462.5"/>
</g>
<!-- Node27 -->
<g id="node53" class="node"><title>Node27</title>
<a xlink:href="class_kitware_1_1_v_t_k_1_1vtk_rectilinear_grid_source.html" target="_top" xlink:title="vtkRectilinearGridSource &#45; Abstract class whose subclasses generates rectilinear grid data...">
<polygon fill="none" stroke="black" points="763.5,-361 763.5,-381 954.5,-381 954.5,-361 763.5,-361"/>
<text text-anchor="middle" x="859" y="-368" font-family="FreeSans" font-size="10.00">Kitware.VTK.vtkRectilinearGridSource</text>
</a>
</g>
<!-- Node1&#45;&gt;Node27 -->
<g id="edge52" class="edge"><title>Node1&#45;&gt;Node27</title>
<path fill="none" stroke="midnightblue" d="M688.787,-451.449C729.969,-431.985 801.933,-397.972 837.644,-381.094"/>
<polygon fill="midnightblue" stroke="midnightblue" points="687.056,-448.396 679.511,-455.833 690.047,-454.725 687.056,-448.396"/>
</g>
<!-- Node29 -->
<g id="node57" class="node"><title>Node29</title>
<a xlink:href="class_kitware_1_1_v_t_k_1_1vtk_structured_grid_source.html" target="_top" xlink:title="vtkStructuredGridSource &#45; Abstract class whose subclasses generates structured grid data...">
<polygon fill="none" stroke="black" points="762,-247 762,-267 956,-267 956,-247 762,-247"/>
<text text-anchor="middle" x="859" y="-254" font-family="FreeSans" font-size="10.00">Kitware.VTK.vtkStructuredGridSource</text>
</a>
</g>
<!-- Node1&#45;&gt;Node29 -->
<g id="edge56" class="edge"><title>Node1&#45;&gt;Node29</title>
<path fill="none" stroke="midnightblue" d="M672.363,-448.027C690.942,-425.081 724.652,-384.463 756,-352 787.431,-319.451 827.562,-284.05 847.158,-267.124"/>
<polygon fill="midnightblue" stroke="midnightblue" points="669.566,-445.919 666.019,-455.903 675.018,-450.31 669.566,-445.919"/>
</g>
<!-- Node33 -->
<g id="node65" class="node"><title>Node33</title>
<a xlink:href="class_kitware_1_1_v_t_k_1_1vtk_structured_points_source.html" target="_top" xlink:title="vtkStructuredPointsSource &#45; Abstract class whose subclasses generates structured Points data...">
<polygon fill="none" stroke="black" points="757.5,-152 757.5,-172 960.5,-172 960.5,-152 757.5,-152"/>
<text text-anchor="middle" x="859" y="-159" font-family="FreeSans" font-size="10.00">Kitware.VTK.vtkStructuredPointsSource</text>
</a>
</g>
<!-- Node1&#45;&gt;Node33 -->
<g id="edge64" class="edge"><title>Node1&#45;&gt;Node33</title>
<path fill="none" stroke="midnightblue" d="M662.752,-446.08C673.546,-404.035 703.16,-304.623 756,-238 779.338,-208.575 816.75,-184.879 839.484,-172.171"/>
<polygon fill="midnightblue" stroke="midnightblue" points="659.324,-445.364 660.307,-455.913 666.117,-447.054 659.324,-445.364"/>
</g>
<!-- Node36 -->
<g id="node71" class="node"><title>Node36</title>
<a xlink:href="class_kitware_1_1_v_t_k_1_1vtk_unstructured_grid_source.html" target="_top" xlink:title="vtkUnstructuredGridSource &#45; abstract class whose subclasses generate unstructured grid data...">
<polygon fill="none" stroke="black" points="756,-57 756,-77 962,-77 962,-57 756,-57"/>
<text text-anchor="middle" x="859" y="-64" font-family="FreeSans" font-size="10.00">Kitware.VTK.vtkUnstructuredGridSource</text>
</a>
</g>
<!-- Node1&#45;&gt;Node36 -->
<g id="edge70" class="edge"><title>Node1&#45;&gt;Node36</title>
<path fill="none" stroke="midnightblue" d="M659.723,-445.757C665.182,-391.814 686.099,-241.988 756,-143 777.407,-112.684 814.717,-89.5792 838.071,-77.1779"/>
<polygon fill="midnightblue" stroke="midnightblue" points="656.234,-445.475 658.78,-455.759 663.203,-446.132 656.234,-445.475"/>
</g>
<!-- Node2 -->
<g id="node2" class="node"><title>Node2</title>
<a xlink:href="class_kitware_1_1_v_t_k_1_1vtk_process_object.html" target="_top" xlink:title="vtkProcessObject &#45; abstract class specifies interface for visualization filters">
<polygon fill="none" stroke="black" points="460.5,-456 460.5,-476 559.5,-476 559.5,-456 460.5,-456"/>
<text text-anchor="middle" x="510" y="-463" font-family="FreeSans" font-size="10.00">vtkProcessObject</text>
</a>
</g>
<!-- Node2&#45;&gt;Node1 -->
<g id="edge2" class="edge"><title>Node2&#45;&gt;Node1</title>
<path fill="none" stroke="midnightblue" d="M569.801,-466C578.545,-466 587.563,-466 596.343,-466"/>
<polygon fill="midnightblue" stroke="midnightblue" points="569.694,-462.5 559.694,-466 569.694,-469.5 569.694,-462.5"/>
</g>
<!-- Node3 -->
<g id="node4" class="node"><title>Node3</title>
<a xlink:href="class_kitware_1_1_v_t_k_1_1vtk_algorithm.html" target="_top" xlink:title="vtkAlgorithm &#45; Superclass for all sources, filters, and sinks in VTK.">
<polygon fill="none" stroke="black" points="346.5,-456 346.5,-476 423.5,-476 423.5,-456 346.5,-456"/>
<text text-anchor="middle" x="385" y="-463" font-family="FreeSans" font-size="10.00">vtkAlgorithm</text>
</a>
</g>
<!-- Node3&#45;&gt;Node2 -->
<g id="edge4" class="edge"><title>Node3&#45;&gt;Node2</title>
<path fill="none" stroke="midnightblue" d="M433.594,-466C442.361,-466 451.512,-466 460.309,-466"/>
<polygon fill="midnightblue" stroke="midnightblue" points="433.524,-462.5 423.524,-466 433.524,-469.5 433.524,-462.5"/>
</g>
<!-- Node4 -->
<g id="node6" class="node"><title>Node4</title>
<a xlink:href="class_kitware_1_1_v_t_k_1_1vtk_object.html" target="_top" xlink:title="vtkObject &#45; abstract base class for most VTK objects">
<polygon fill="none" stroke="black" points="248,-456 248,-476 310,-476 310,-456 248,-456"/>
<text text-anchor="middle" x="279" y="-463" font-family="FreeSans" font-size="10.00">vtkObject</text>
</a>
</g>
<!-- Node4&#45;&gt;Node3 -->
<g id="edge6" class="edge"><title>Node4&#45;&gt;Node3</title>
<path fill="none" stroke="midnightblue" d="M320.421,-466C329.001,-466 338.007,-466 346.479,-466"/>
<polygon fill="midnightblue" stroke="midnightblue" points="320.23,-462.5 310.23,-466 320.23,-469.5 320.23,-462.5"/>
</g>
<!-- Node5 -->
<g id="node8" class="node"><title>Node5</title>
<a xlink:href="class_kitware_1_1_v_t_k_1_1vtk_object_base.html" target="_top" xlink:title="vtkObjectBase &#45; abstract base class for most VTK objects">
<polygon fill="none" stroke="black" points="126,-456 126,-476 212,-476 212,-456 126,-456"/>
<text text-anchor="middle" x="169" y="-463" font-family="FreeSans" font-size="10.00">vtkObjectBase</text>
</a>
</g>
<!-- Node5&#45;&gt;Node4 -->
<g id="edge8" class="edge"><title>Node5&#45;&gt;Node4</title>
<path fill="none" stroke="midnightblue" d="M222.346,-466C231.091,-466 239.892,-466 247.863,-466"/>
<polygon fill="midnightblue" stroke="midnightblue" points="222.159,-462.5 212.159,-466 222.159,-469.5 222.159,-462.5"/>
</g>
<!-- Node6 -->
<g id="node10" class="node"><title>Node6</title>
<a xlink:href="class_kitware_1_1_v_t_k_1_1_wrapped_object.html" target="_top" xlink:title="Base class for all the mummy wrapped classes in Kitware.VTK.">
<polygon fill="none" stroke="black" points="0.5,-456 0.5,-476 89.5,-476 89.5,-456 0.5,-456"/>
<text text-anchor="middle" x="45" y="-463" font-family="FreeSans" font-size="10.00">WrappedObject</text>
</a>
</g>
<!-- Node6&#45;&gt;Node5 -->
<g id="edge10" class="edge"><title>Node6&#45;&gt;Node5</title>
<path fill="none" stroke="midnightblue" d="M99.8895,-466C108.623,-466 117.548,-466 125.957,-466"/>
<polygon fill="midnightblue" stroke="midnightblue" points="99.7669,-462.5 89.7668,-466 99.7668,-469.5 99.7669,-462.5"/>
</g>
<!-- Node9 -->
<g id="node17" class="node"><title>Node9</title>
<a xlink:href="class_kitware_1_1_v_t_k_1_1vtk_data_set_to_data_set_filter.html" target="_top" xlink:title="vtkDataSetToDataSetFilter &#45; abstract filter class">
<polygon fill="none" stroke="black" points="1041.5,-760 1041.5,-780 1242.5,-780 1242.5,-760 1041.5,-760"/>
<text text-anchor="middle" x="1142" y="-767" font-family="FreeSans" font-size="10.00">Kitware.VTK.vtkDataSetToDataSetFilter</text>
</a>
</g>
<!-- Node8&#45;&gt;Node9 -->
<g id="edge16" class="edge"><title>Node8&#45;&gt;Node9</title>
<path fill="none" stroke="midnightblue" d="M950.198,-707.478C954.269,-709.117 958.225,-710.95 962,-713 982.445,-724.101 977.277,-740.426 998,-751 1011.36,-757.819 1026.3,-762.495 1041.34,-765.655"/>
<polygon fill="midnightblue" stroke="midnightblue" points="951.117,-704.088 940.522,-703.994 948.746,-710.675 951.117,-704.088"/>
</g>
<!-- Node11 -->
<g id="node21" class="node"><title>Node11</title>
<a xlink:href="class_kitware_1_1_v_t_k_1_1vtk_data_set_to_image_filter.html" target="_top" xlink:title="vtkDataSetToImageFilter &#45; abstract filter class">
<polygon fill="none" stroke="black" points="1046.5,-722 1046.5,-742 1237.5,-742 1237.5,-722 1046.5,-722"/>
<text text-anchor="middle" x="1142" y="-729" font-family="FreeSans" font-size="10.00">Kitware.VTK.vtkDataSetToImageFilter</text>
</a>
</g>
<!-- Node10&#45;&gt;Node11 -->
<g id="edge20" class="edge"><title>Node10&#45;&gt;Node11</title>
<path fill="none" stroke="midnightblue" d="M945.475,-667.678C951.213,-669.745 956.779,-672.165 962,-675 982.445,-686.101 977.277,-702.426 998,-713 1012.82,-720.564 1029.58,-725.491 1046.28,-728.637"/>
<polygon fill="midnightblue" stroke="midnightblue" points="946.278,-664.26 935.687,-664.526 944.132,-670.923 946.278,-664.26"/>
</g>
<!-- Node12 -->
<g id="node23" class="node"><title>Node12</title>
<a xlink:href="class_kitware_1_1_v_t_k_1_1vtk_image_multiple_input_filter.html" target="_top" xlink:title="vtkImageMultipleInputFilter &#45; Generic filter that has N inputs.">
<polygon fill="none" stroke="black" points="1040.5,-684 1040.5,-704 1243.5,-704 1243.5,-684 1040.5,-684"/>
<text text-anchor="middle" x="1142" y="-691" font-family="FreeSans" font-size="10.00">Kitware.VTK.vtkImageMultipleInputFilter</text>
</a>
</g>
<!-- Node10&#45;&gt;Node12 -->
<g id="edge22" class="edge"><title>Node10&#45;&gt;Node12</title>
<path fill="none" stroke="midnightblue" d="M941.979,-667.407C960.42,-669.924 979.873,-672.565 998,-675 1019.87,-677.937 1043.61,-681.086 1065.39,-683.959"/>
<polygon fill="midnightblue" stroke="midnightblue" points="942.235,-663.909 931.853,-666.023 941.287,-670.845 942.235,-663.909"/>
</g>
<!-- Node15 -->
<g id="node29" class="node"><title>Node15</title>
<a xlink:href="class_kitware_1_1_v_t_k_1_1vtk_image_to_image_filter.html" target="_top" xlink:title="vtkImageToImageFilter &#45; Generic filter that has one input of type vtkImageData">
<polygon fill="none" stroke="black" points="1051,-646 1051,-666 1233,-666 1233,-646 1051,-646"/>
<text text-anchor="middle" x="1142" y="-653" font-family="FreeSans" font-size="10.00">Kitware.VTK.vtkImageToImageFilter</text>
</a>
</g>
<!-- Node10&#45;&gt;Node15 -->
<g id="edge28" class="edge"><title>Node10&#45;&gt;Node15</title>
<path fill="none" stroke="midnightblue" d="M945.748,-656C979.026,-656 1017.08,-656 1050.77,-656"/>
<polygon fill="midnightblue" stroke="midnightblue" points="945.584,-652.5 935.584,-656 945.584,-659.5 945.584,-652.5"/>
</g>
<!-- Node13 -->
<g id="node25" class="node"><title>Node13</title>
<a xlink:href="class_kitware_1_1_v_t_k_1_1vtk_image_multiple_input_output_filter.html" target="_top" xlink:title="vtkImageMultipleInputOutputFilter &#45; Generic filter that has N inputs.">
<polygon fill="none" stroke="black" points="1322,-722 1322,-742 1558,-742 1558,-722 1322,-722"/>
<text text-anchor="middle" x="1440" y="-729" font-family="FreeSans" font-size="10.00">Kitware.VTK.vtkImageMultipleInputOutputFilter</text>
</a>
</g>
<!-- Node12&#45;&gt;Node13 -->
<g id="edge24" class="edge"><title>Node12&#45;&gt;Node13</title>
<path fill="none" stroke="midnightblue" d="M1230.79,-705.322C1272.28,-710.613 1321.26,-716.858 1361.39,-721.976"/>
<polygon fill="midnightblue" stroke="midnightblue" points="1231.05,-701.827 1220.69,-704.034 1230.16,-708.771 1231.05,-701.827"/>
</g>
<!-- Node14 -->
<g id="node27" class="node"><title>Node14</title>
<a xlink:href="class_kitware_1_1_v_t_k_1_1vtk_image_two_input_filter.html" target="_top" xlink:title="vtkImageTwoInputFilter &#45; Generic superclass for filters that have two inputs.">
<polygon fill="none" stroke="black" points="1349,-684 1349,-704 1531,-704 1531,-684 1349,-684"/>
<text text-anchor="middle" x="1440" y="-691" font-family="FreeSans" font-size="10.00">Kitware.VTK.vtkImageTwoInputFilter</text>
</a>
</g>
<!-- Node12&#45;&gt;Node14 -->
<g id="edge26" class="edge"><title>Node12&#45;&gt;Node14</title>
<path fill="none" stroke="midnightblue" d="M1253.8,-694C1285.11,-694 1318.76,-694 1348.73,-694"/>
<polygon fill="midnightblue" stroke="midnightblue" points="1253.72,-690.5 1243.72,-694 1253.72,-697.5 1253.72,-690.5"/>
</g>
<!-- Node16 -->
<g id="node31" class="node"><title>Node16</title>
<a xlink:href="class_kitware_1_1_v_t_k_1_1vtk_image_spatial_filter.html" target="_top" xlink:title="vtkImageSpatialFilter &#45; Filters that operate on pixel neighborhoods.">
<polygon fill="none" stroke="black" points="1352.5,-646 1352.5,-666 1527.5,-666 1527.5,-646 1352.5,-646"/>
<text text-anchor="middle" x="1440" y="-653" font-family="FreeSans" font-size="10.00">Kitware.VTK.vtkImageSpatialFilter</text>
</a>
</g>
<!-- Node15&#45;&gt;Node16 -->
<g id="edge30" class="edge"><title>Node15&#45;&gt;Node16</title>
<path fill="none" stroke="midnightblue" d="M1243.38,-656C1278.77,-656 1318.16,-656 1352.34,-656"/>
<polygon fill="midnightblue" stroke="midnightblue" points="1243.03,-652.5 1233.03,-656 1243.03,-659.5 1243.03,-652.5"/>
</g>
<!-- Node18 -->
<g id="node35" class="node"><title>Node18</title>
<a xlink:href="class_kitware_1_1_v_t_k_1_1vtk_point_set_to_point_set_filter.html" target="_top" xlink:title="vtkPointSetToPointSetFilter &#45; abstract filter class">
<polygon fill="none" stroke="black" points="1040.5,-608 1040.5,-628 1243.5,-628 1243.5,-608 1040.5,-608"/>
<text text-anchor="middle" x="1142" y="-615" font-family="FreeSans" font-size="10.00">Kitware.VTK.vtkPointSetToPointSetFilter</text>
</a>
</g>
<!-- Node17&#45;&gt;Node18 -->
<g id="edge34" class="edge"><title>Node17&#45;&gt;Node18</title>
<path fill="none" stroke="midnightblue" d="M900.659,-573.98C928.087,-582.131 964.91,-592.326 998,-599 1015.18,-602.465 1033.64,-605.449 1051.43,-607.958"/>
<polygon fill="midnightblue" stroke="midnightblue" points="901.587,-570.605 891.003,-571.08 899.573,-577.309 901.587,-570.605"/>
</g>
<!-- Node20 -->
<g id="node39" class="node"><title>Node20</title>
<a xlink:href="class_kitware_1_1_v_t_k_1_1vtk_data_set_to_poly_data_filter.html" target="_top" xlink:title="vtkDataSetToPolyDataFilter &#45; abstract filter class">
<polygon fill="none" stroke="black" points="1040,-570 1040,-590 1244,-590 1244,-570 1040,-570"/>
<text text-anchor="middle" x="1142" y="-577" font-family="FreeSans" font-size="10.00">Kitware.VTK.vtkDataSetToPolyDataFilter</text>
</a>
</g>
<!-- Node19&#45;&gt;Node20 -->
<g id="edge38" class="edge"><title>Node19&#45;&gt;Node20</title>
<path fill="none" stroke="midnightblue" d="M880.468,-482.513C912.848,-507.096 973.046,-551.454 998,-561 1011.19,-566.045 1025.5,-569.793 1039.81,-572.568"/>
<polygon fill="midnightblue" stroke="midnightblue" points="882.199,-479.432 872.125,-476.15 877.953,-484.997 882.199,-479.432"/>
</g>
<!-- Node21 -->
<g id="node41" class="node"><title>Node21</title>
<a xlink:href="class_kitware_1_1_v_t_k_1_1vtk_poly_data_to_poly_data_filter.html" target="_top" xlink:title="vtkPolyDataToPolyDataFilter &#45; abstract filter class">
<polygon fill="none" stroke="black" points="1038.5,-532 1038.5,-552 1245.5,-552 1245.5,-532 1038.5,-532"/>
<text text-anchor="middle" x="1142" y="-539" font-family="FreeSans" font-size="10.00">Kitware.VTK.vtkPolyDataToPolyDataFilter</text>
</a>
</g>
<!-- Node19&#45;&gt;Node21 -->
<g id="edge40" class="edge"><title>Node19&#45;&gt;Node21</title>
<path fill="none" stroke="midnightblue" d="M888.247,-480.595C915.86,-493.741 958.77,-512.557 998,-523 1011.65,-526.633 1026.21,-529.585 1040.64,-531.981"/>
<polygon fill="midnightblue" stroke="midnightblue" points="889.677,-477.399 879.149,-476.205 886.634,-483.703 889.677,-477.399"/>
</g>
<!-- Node22 -->
<g id="node43" class="node"><title>Node22</title>
<a xlink:href="class_kitware_1_1_v_t_k_1_1vtk_rectilinear_grid_to_poly_data_filter.html" target="_top" xlink:title="vtkRectilinearGridToPolyDataFilter &#45; abstract filter class">
<polygon fill="none" stroke="black" points="1025.5,-494 1025.5,-514 1258.5,-514 1258.5,-494 1025.5,-494"/>
<text text-anchor="middle" x="1142" y="-501" font-family="FreeSans" font-size="10.00">Kitware.VTK.vtkRectilinearGridToPolyDataFilter</text>
</a>
</g>
<!-- Node19&#45;&gt;Node22 -->
<g id="edge42" class="edge"><title>Node19&#45;&gt;Node22</title>
<path fill="none" stroke="midnightblue" d="M941.979,-477.407C960.42,-479.924 979.873,-482.565 998,-485 1019.87,-487.937 1043.61,-491.086 1065.39,-493.959"/>
<polygon fill="midnightblue" stroke="midnightblue" points="942.235,-473.909 931.853,-476.023 941.287,-480.845 942.235,-473.909"/>
</g>
<!-- Node23 -->
<g id="node45" class="node"><title>Node23</title>
<a xlink:href="class_kitware_1_1_v_t_k_1_1vtk_spatial_representation_filter.html" target="_top" xlink:title="vtkSpatialRepresentationFilter &#45; generate polygonal model of spatial search object (i...">
<polygon fill="none" stroke="black" points="1033.5,-456 1033.5,-476 1250.5,-476 1250.5,-456 1033.5,-456"/>
<text text-anchor="middle" x="1142" y="-463" font-family="FreeSans" font-size="10.00">Kitware.VTK.vtkSpatialRepresentationFilter</text>
</a>
</g>
<!-- Node19&#45;&gt;Node23 -->
<g id="edge44" class="edge"><title>Node19&#45;&gt;Node23</title>
<path fill="none" stroke="midnightblue" d="M952.557,-466C978.464,-466 1006.8,-466 1033.48,-466"/>
<polygon fill="midnightblue" stroke="midnightblue" points="952.379,-462.5 942.379,-466 952.379,-469.5 952.379,-462.5"/>
</g>
<!-- Node24 -->
<g id="node47" class="node"><title>Node24</title>
<a xlink:href="class_kitware_1_1_v_t_k_1_1vtk_structured_grid_to_poly_data_filter.html" target="_top" xlink:title="vtkStructuredGridToPolyDataFilter &#45; abstract filter class">
<polygon fill="none" stroke="black" points="1024.5,-418 1024.5,-438 1259.5,-438 1259.5,-418 1024.5,-418"/>
<text text-anchor="middle" x="1142" y="-425" font-family="FreeSans" font-size="10.00">Kitware.VTK.vtkStructuredGridToPolyDataFilter</text>
</a>
</g>
<!-- Node19&#45;&gt;Node24 -->
<g id="edge46" class="edge"><title>Node19&#45;&gt;Node24</title>
<path fill="none" stroke="midnightblue" d="M941.979,-454.593C960.42,-452.076 979.873,-449.435 998,-447 1019.87,-444.063 1043.61,-440.914 1065.39,-438.041"/>
<polygon fill="midnightblue" stroke="midnightblue" points="941.287,-451.155 931.853,-455.977 942.235,-458.091 941.287,-451.155"/>
</g>
<!-- Node25 -->
<g id="node49" class="node"><title>Node25</title>
<a xlink:href="class_kitware_1_1_v_t_k_1_1vtk_structured_points_to_poly_data_filter.html" target="_top" xlink:title="vtkStructuredPointsToPolyDataFilter &#45; abstract filter class">
<polygon fill="none" stroke="black" points="1019.5,-380 1019.5,-400 1264.5,-400 1264.5,-380 1019.5,-380"/>
<text text-anchor="middle" x="1142" y="-387" font-family="FreeSans" font-size="10.00">Kitware.VTK.vtkStructuredPointsToPolyDataFilter</text>
</a>
</g>
<!-- Node19&#45;&gt;Node25 -->
<g id="edge48" class="edge"><title>Node19&#45;&gt;Node25</title>
<path fill="none" stroke="midnightblue" d="M888.247,-451.405C915.86,-438.259 958.77,-419.443 998,-409 1011.65,-405.367 1026.21,-402.415 1040.64,-400.019"/>
<polygon fill="midnightblue" stroke="midnightblue" points="886.634,-448.297 879.149,-455.795 889.677,-454.601 886.634,-448.297"/>
</g>
<!-- Node26 -->
<g id="node51" class="node"><title>Node26</title>
<a xlink:href="class_kitware_1_1_v_t_k_1_1vtk_unstructured_grid_to_poly_data_filter.html" target="_top" xlink:title="vtkUnstructuredGridToPolyDataFilter &#45; abstract filter class">
<polygon fill="none" stroke="black" points="1018.5,-342 1018.5,-362 1265.5,-362 1265.5,-342 1018.5,-342"/>
<text text-anchor="middle" x="1142" y="-349" font-family="FreeSans" font-size="10.00">Kitware.VTK.vtkUnstructuredGridToPolyDataFilter</text>
</a>
</g>
<!-- Node19&#45;&gt;Node26 -->
<g id="edge50" class="edge"><title>Node19&#45;&gt;Node26</title>
<path fill="none" stroke="midnightblue" d="M880.468,-449.487C912.848,-424.904 973.046,-380.546 998,-371 1007.42,-367.396 1017.41,-364.455 1027.57,-362.057"/>
<polygon fill="midnightblue" stroke="midnightblue" points="877.953,-447.003 872.125,-455.85 882.199,-452.568 877.953,-447.003"/>
</g>
<!-- Node28 -->
<g id="node55" class="node"><title>Node28</title>
<a xlink:href="class_kitware_1_1_v_t_k_1_1vtk_s_e_s_a_m_e_reader.html" target="_top" xlink:title="vtkSESAMEReader &#45; read SESAME files">
<polygon fill="none" stroke="black" points="1060.5,-304 1060.5,-324 1223.5,-324 1223.5,-304 1060.5,-304"/>
<text text-anchor="middle" x="1142" y="-311" font-family="FreeSans" font-size="10.00">Kitware.VTK.vtkSESAMEReader</text>
</a>
</g>
<!-- Node27&#45;&gt;Node28 -->
<g id="edge54" class="edge"><title>Node27&#45;&gt;Node28</title>
<path fill="none" stroke="midnightblue" d="M900.659,-358.02C928.087,-349.869 964.91,-339.674 998,-333 1018.02,-328.962 1039.79,-325.577 1060.2,-322.836"/>
<polygon fill="midnightblue" stroke="midnightblue" points="899.573,-354.691 891.003,-360.92 901.587,-361.395 899.573,-354.691"/>
</g>
<!-- Node30 -->
<g id="node59" class="node"><title>Node30</title>
<a xlink:href="class_kitware_1_1_v_t_k_1_1vtk_data_set_to_structured_grid_filter.html" target="_top" xlink:title="vtkDataSetToStructuredGridFilter &#45; abstract filter class">
<polygon fill="none" stroke="black" points="1026,-266 1026,-286 1258,-286 1258,-266 1026,-266"/>
<text text-anchor="middle" x="1142" y="-273" font-family="FreeSans" font-size="10.00">Kitware.VTK.vtkDataSetToStructuredGridFilter</text>
</a>
</g>
<!-- Node29&#45;&gt;Node30 -->
<g id="edge58" class="edge"><title>Node29&#45;&gt;Node30</title>
<path fill="none" stroke="midnightblue" d="M966.46,-264.215C985.887,-265.519 1006.22,-266.884 1025.89,-268.204"/>
<polygon fill="midnightblue" stroke="midnightblue" points="966.605,-260.717 956.393,-263.539 966.136,-267.701 966.605,-260.717"/>
</g>
<!-- Node31 -->
<g id="node61" class="node"><title>Node31</title>
<a xlink:href="class_kitware_1_1_v_t_k_1_1vtk_p_l_o_t3_d_reader.html" target="_top" xlink:title="vtkPLOT3DReader &#45; read PLOT3D data files">
<polygon fill="none" stroke="black" points="1062,-228 1062,-248 1222,-248 1222,-228 1062,-228"/>
<text text-anchor="middle" x="1142" y="-235" font-family="FreeSans" font-size="10.00">Kitware.VTK.vtkPLOT3DReader</text>
</a>
</g>
<!-- Node29&#45;&gt;Node31 -->
<g id="edge60" class="edge"><title>Node29&#45;&gt;Node31</title>
<path fill="none" stroke="midnightblue" d="M966.565,-249.778C998.184,-247.656 1032.2,-245.371 1061.79,-243.385"/>
<polygon fill="midnightblue" stroke="midnightblue" points="966.136,-246.299 956.393,-250.461 966.605,-253.283 966.136,-246.299"/>
</g>
<!-- Node32 -->
<g id="node63" class="node"><title>Node32</title>
<a xlink:href="class_kitware_1_1_v_t_k_1_1vtk_structured_grid_to_structured_grid_filter.html" target="_top" xlink:title="vtkStructuredGridToStructuredGridFilter &#45; abstract filter class">
<polygon fill="none" stroke="black" points="1010.5,-190 1010.5,-210 1273.5,-210 1273.5,-190 1010.5,-190"/>
<text text-anchor="middle" x="1142" y="-197" font-family="FreeSans" font-size="10.00">Kitware.VTK.vtkStructuredGridToStructuredGridFilter</text>
</a>
</g>
<!-- Node29&#45;&gt;Node32 -->
<g id="edge62" class="edge"><title>Node29&#45;&gt;Node32</title>
<path fill="none" stroke="midnightblue" d="M900.659,-244.02C928.087,-235.869 964.91,-225.674 998,-219 1015.18,-215.535 1033.64,-212.551 1051.43,-210.042"/>
<polygon fill="midnightblue" stroke="midnightblue" points="899.573,-240.691 891.003,-246.92 901.587,-247.395 899.573,-240.691"/>
</g>
<!-- Node34 -->
<g id="node67" class="node"><title>Node34</title>
<a xlink:href="class_kitware_1_1_v_t_k_1_1vtk_data_set_to_structured_points_filter.html" target="_top" xlink:title="vtkDataSetToStructuredPointsFilter &#45; abstract filter class">
<polygon fill="none" stroke="black" points="1021,-152 1021,-172 1263,-172 1263,-152 1021,-152"/>
<text text-anchor="middle" x="1142" y="-159" font-family="FreeSans" font-size="10.00">Kitware.VTK.vtkDataSetToStructuredPointsFilter</text>
</a>
</g>
<!-- Node33&#45;&gt;Node34 -->
<g id="edge66" class="edge"><title>Node33&#45;&gt;Node34</title>
<path fill="none" stroke="midnightblue" d="M970.908,-162C987.32,-162 1004.29,-162 1020.88,-162"/>
<polygon fill="midnightblue" stroke="midnightblue" points="970.77,-158.5 960.77,-162 970.77,-165.5 970.77,-158.5"/>
</g>
<!-- Node35 -->
<g id="node69" class="node"><title>Node35</title>
<a xlink:href="class_kitware_1_1_v_t_k_1_1vtk_structured_points_to_structured_points_filter.html" target="_top" xlink:title="vtkStructuredPointsToStructuredPointsFilter &#45; abstract filter class">
<polygon fill="none" stroke="black" points="1001,-114 1001,-134 1283,-134 1283,-114 1001,-114"/>
<text text-anchor="middle" x="1142" y="-121" font-family="FreeSans" font-size="10.00">Kitware.VTK.vtkStructuredPointsToStructuredPointsFilter</text>
</a>
</g>
<!-- Node33&#45;&gt;Node35 -->
<g id="edge68" class="edge"><title>Node33&#45;&gt;Node35</title>
<path fill="none" stroke="midnightblue" d="M941.979,-150.593C960.42,-148.076 979.873,-145.435 998,-143 1019.87,-140.063 1043.61,-136.914 1065.39,-134.041"/>
<polygon fill="midnightblue" stroke="midnightblue" points="941.287,-147.155 931.853,-151.977 942.235,-154.091 941.287,-147.155"/>
</g>
<!-- Node37 -->
<g id="node73" class="node"><title>Node37</title>
<a xlink:href="class_kitware_1_1_v_t_k_1_1vtk_data_set_to_unstructured_grid_filter.html" target="_top" xlink:title="vtkDataSetToUnstructuredGridFilter &#45; abstract filter class">
<polygon fill="none" stroke="black" points="1020,-76 1020,-96 1264,-96 1264,-76 1020,-76"/>
<text text-anchor="middle" x="1142" y="-83" font-family="FreeSans" font-size="10.00">Kitware.VTK.vtkDataSetToUnstructuredGridFilter</text>
</a>
</g>
<!-- Node36&#45;&gt;Node37 -->
<g id="edge72" class="edge"><title>Node36&#45;&gt;Node37</title>
<path fill="none" stroke="midnightblue" d="M972.498,-74.62C988.025,-75.6625 1004.02,-76.7364 1019.7,-77.7888"/>
<polygon fill="midnightblue" stroke="midnightblue" points="972.583,-71.1179 962.371,-73.9401 972.114,-78.1022 972.583,-71.1179"/>
</g>
<!-- Node38 -->
<g id="node75" class="node"><title>Node38</title>
<a xlink:href="class_kitware_1_1_v_t_k_1_1vtk_structured_points_to_unstructured_grid_filter.html" target="_top" xlink:title="vtkStructuredPointsToUnstructuredGridFilter &#45; abstract filter class">
<polygon fill="none" stroke="black" points="1000,-38 1000,-58 1284,-58 1284,-38 1000,-38"/>
<text text-anchor="middle" x="1142" y="-45" font-family="FreeSans" font-size="10.00">Kitware.VTK.vtkStructuredPointsToUnstructuredGridFilter</text>
</a>
</g>
<!-- Node36&#45;&gt;Node38 -->
<g id="edge74" class="edge"><title>Node36&#45;&gt;Node38</title>
<path fill="none" stroke="midnightblue" d="M972.427,-59.3848C981.4,-58.7823 990.53,-58.1693 999.665,-57.556"/>
<polygon fill="midnightblue" stroke="midnightblue" points="972.114,-55.8978 962.371,-60.0599 972.583,-62.8821 972.114,-55.8978"/>
</g>
<!-- Node39 -->
<g id="node77" class="node"><title>Node39</title>
<a xlink:href="class_kitware_1_1_v_t_k_1_1vtk_unstructured_grid_to_unstructured_grid_filter.html" target="_top" xlink:title="vtkUnstructuredGridToUnstructuredGridFilter &#45; abstract filter class">
<polygon fill="none" stroke="black" points="998.5,-0 998.5,-20 1285.5,-20 1285.5,-0 998.5,-0"/>
<text text-anchor="middle" x="1142" y="-7" font-family="FreeSans" font-size="10.00">Kitware.VTK.vtkUnstructuredGridToUnstructuredGridFilter</text>
</a>
</g>
<!-- Node36&#45;&gt;Node39 -->
<g id="edge76" class="edge"><title>Node36&#45;&gt;Node39</title>
<path fill="none" stroke="midnightblue" d="M900.659,-54.0196C928.087,-45.8691 964.91,-35.674 998,-29 1015.18,-25.535 1033.64,-22.551 1051.43,-20.0422"/>
<polygon fill="midnightblue" stroke="midnightblue" points="899.573,-50.691 891.003,-56.9196 901.587,-57.3952 899.573,-50.691"/>
</g>
</g>
</svg>
