<?xml version="1.0" encoding="UTF-8" standalone="no"?>
<!DOCTYPE svg PUBLIC "-//W3C//DTD SVG 1.1//EN"
 "http://www.w3.org/Graphics/SVG/1.1/DTD/svg11.dtd">
<!-- Generated by graphviz version 2.26.3 (20100126.1600)
 -->
<!-- Title: G Pages: 1 -->
<svg width="964pt" height="142pt"
 viewBox="0.00 0.00 964.00 142.00" xmlns="http://www.w3.org/2000/svg" xmlns:xlink="http://www.w3.org/1999/xlink">
<g id="graph1" class="graph" transform="scale(1 1) rotate(0) translate(4 138)">
<title>G</title>
<!-- Node1 -->
<g id="node1" class="node"><title>Node1</title>
<polygon fill="#bfbfbf" stroke="black" points="590,-57 590,-77 754,-77 754,-57 590,-57"/>
<text text-anchor="middle" x="672" y="-64" font-family="FreeSans" font-size="10.00">Kitware.VTK.vtkPrimitivePainter</text>
</g>
<!-- Node7 -->
<g id="node13" class="node"><title>Node7</title>
<a xlink:href="class_kitware_1_1_v_t_k_1_1vtk_lines_painter.html" target="_top" xlink:title="vtkLinesPainter &#45; painter that paints lines.">
<polygon fill="none" stroke="black" points="799.5,-114 799.5,-134 946.5,-134 946.5,-114 799.5,-114"/>
<text text-anchor="middle" x="873" y="-121" font-family="FreeSans" font-size="10.00">Kitware.VTK.vtkLinesPainter</text>
</a>
</g>
<!-- Node1&#45;&gt;Node7 -->
<g id="edge12" class="edge"><title>Node1&#45;&gt;Node7</title>
<path fill="none" stroke="midnightblue" d="M710.585,-80.3575C733.512,-88.0604 763.246,-97.6447 790,-105 801.545,-108.174 814.094,-111.242 825.855,-113.952"/>
<polygon fill="midnightblue" stroke="midnightblue" points="711.48,-76.9653 700.885,-77.0747 709.236,-83.5959 711.48,-76.9653"/>
</g>
<!-- Node8 -->
<g id="node15" class="node"><title>Node8</title>
<a xlink:href="class_kitware_1_1_v_t_k_1_1vtk_points_painter.html" target="_top" xlink:title="vtkPointsPainter &#45; this painter paints verts.">
<polygon fill="none" stroke="black" points="797,-76 797,-96 949,-96 949,-76 797,-76"/>
<text text-anchor="middle" x="873" y="-83" font-family="FreeSans" font-size="10.00">Kitware.VTK.vtkPointsPainter</text>
</a>
</g>
<!-- Node1&#45;&gt;Node8 -->
<g id="edge14" class="edge"><title>Node1&#45;&gt;Node8</title>
<path fill="none" stroke="midnightblue" d="M764.034,-75.6998C774.97,-76.7335 786.041,-77.78 796.723,-78.7897"/>
<polygon fill="midnightblue" stroke="midnightblue" points="764.329,-72.2121 754.044,-74.7554 763.671,-79.1811 764.329,-72.2121"/>
</g>
<!-- Node9 -->
<g id="node17" class="node"><title>Node9</title>
<a xlink:href="class_kitware_1_1_v_t_k_1_1vtk_polygons_painter.html" target="_top" xlink:title="vtkPolygonsPainter &#45; this painter paints polygons.">
<polygon fill="none" stroke="black" points="790.5,-38 790.5,-58 955.5,-58 955.5,-38 790.5,-38"/>
<text text-anchor="middle" x="873" y="-45" font-family="FreeSans" font-size="10.00">Kitware.VTK.vtkPolygonsPainter</text>
</a>
</g>
<!-- Node1&#45;&gt;Node9 -->
<g id="edge16" class="edge"><title>Node1&#45;&gt;Node9</title>
<path fill="none" stroke="midnightblue" d="M764.189,-58.2856C772.877,-57.4644 781.648,-56.6353 790.241,-55.823"/>
<polygon fill="midnightblue" stroke="midnightblue" points="763.671,-54.8189 754.044,-59.2446 764.329,-61.7879 763.671,-54.8189"/>
</g>
<!-- Node10 -->
<g id="node19" class="node"><title>Node10</title>
<a xlink:href="class_kitware_1_1_v_t_k_1_1vtk_t_strips_painter.html" target="_top" xlink:title="vtkTStripsPainter &#45; painter for triangle strips.">
<polygon fill="none" stroke="black" points="795.5,-0 795.5,-20 950.5,-20 950.5,-0 795.5,-0"/>
<text text-anchor="middle" x="873" y="-7" font-family="FreeSans" font-size="10.00">Kitware.VTK.vtkTStripsPainter</text>
</a>
</g>
<!-- Node1&#45;&gt;Node10 -->
<g id="edge18" class="edge"><title>Node1&#45;&gt;Node10</title>
<path fill="none" stroke="midnightblue" d="M710.585,-53.6425C733.512,-45.9396 763.246,-36.3553 790,-29 801.545,-25.8259 814.094,-22.7583 825.855,-20.0475"/>
<polygon fill="midnightblue" stroke="midnightblue" points="709.236,-50.4041 700.885,-56.9253 711.48,-57.0347 709.236,-50.4041"/>
</g>
<!-- Node2 -->
<g id="node2" class="node"><title>Node2</title>
<a xlink:href="class_kitware_1_1_v_t_k_1_1vtk_poly_data_painter.html" target="_top" xlink:title="vtkPolyDataPainter &#45; Abstract class for drawing poly data.">
<polygon fill="none" stroke="black" points="446.5,-57 446.5,-77 553.5,-77 553.5,-57 446.5,-57"/>
<text text-anchor="middle" x="500" y="-64" font-family="FreeSans" font-size="10.00">vtkPolyDataPainter</text>
</a>
</g>
<!-- Node2&#45;&gt;Node1 -->
<g id="edge2" class="edge"><title>Node2&#45;&gt;Node1</title>
<path fill="none" stroke="midnightblue" d="M564.057,-67C572.486,-67 581.216,-67 589.892,-67"/>
<polygon fill="midnightblue" stroke="midnightblue" points="563.95,-63.5001 553.95,-67 563.95,-70.5001 563.95,-63.5001"/>
</g>
<!-- Node3 -->
<g id="node4" class="node"><title>Node3</title>
<a xlink:href="class_kitware_1_1_v_t_k_1_1vtk_painter.html" target="_top" xlink:title="vtkPainter &#45; Abstract class for drawing poly data.">
<polygon fill="none" stroke="black" points="346,-57 346,-77 410,-77 410,-57 346,-57"/>
<text text-anchor="middle" x="378" y="-64" font-family="FreeSans" font-size="10.00">vtkPainter</text>
</a>
</g>
<!-- Node3&#45;&gt;Node2 -->
<g id="edge4" class="edge"><title>Node3&#45;&gt;Node2</title>
<path fill="none" stroke="midnightblue" d="M420.098,-67C428.594,-67 437.634,-67 446.461,-67"/>
<polygon fill="midnightblue" stroke="midnightblue" points="420.054,-63.5001 410.054,-67 420.054,-70.5001 420.054,-63.5001"/>
</g>
<!-- Node4 -->
<g id="node6" class="node"><title>Node4</title>
<a xlink:href="class_kitware_1_1_v_t_k_1_1vtk_object.html" target="_top" xlink:title="vtkObject &#45; abstract base class for most VTK objects">
<polygon fill="none" stroke="black" points="248,-57 248,-77 310,-77 310,-57 248,-57"/>
<text text-anchor="middle" x="279" y="-64" font-family="FreeSans" font-size="10.00">vtkObject</text>
</a>
</g>
<!-- Node4&#45;&gt;Node3 -->
<g id="edge6" class="edge"><title>Node4&#45;&gt;Node3</title>
<path fill="none" stroke="midnightblue" d="M320.195,-67C328.705,-67 337.552,-67 345.691,-67"/>
<polygon fill="midnightblue" stroke="midnightblue" points="320.053,-63.5001 310.053,-67 320.053,-70.5001 320.053,-63.5001"/>
</g>
<!-- Node5 -->
<g id="node8" class="node"><title>Node5</title>
<a xlink:href="class_kitware_1_1_v_t_k_1_1vtk_object_base.html" target="_top" xlink:title="vtkObjectBase &#45; abstract base class for most VTK objects">
<polygon fill="none" stroke="black" points="126,-57 126,-77 212,-77 212,-57 126,-57"/>
<text text-anchor="middle" x="169" y="-64" font-family="FreeSans" font-size="10.00">vtkObjectBase</text>
</a>
</g>
<!-- Node5&#45;&gt;Node4 -->
<g id="edge8" class="edge"><title>Node5&#45;&gt;Node4</title>
<path fill="none" stroke="midnightblue" d="M222.346,-67C231.091,-67 239.892,-67 247.863,-67"/>
<polygon fill="midnightblue" stroke="midnightblue" points="222.159,-63.5001 212.159,-67 222.159,-70.5001 222.159,-63.5001"/>
</g>
<!-- Node6 -->
<g id="node10" class="node"><title>Node6</title>
<a xlink:href="class_kitware_1_1_v_t_k_1_1_wrapped_object.html" target="_top" xlink:title="Base class for all the mummy wrapped classes in Kitware.VTK.">
<polygon fill="none" stroke="black" points="0.5,-57 0.5,-77 89.5,-77 89.5,-57 0.5,-57"/>
<text text-anchor="middle" x="45" y="-64" font-family="FreeSans" font-size="10.00">WrappedObject</text>
</a>
</g>
<!-- Node6&#45;&gt;Node5 -->
<g id="edge10" class="edge"><title>Node6&#45;&gt;Node5</title>
<path fill="none" stroke="midnightblue" d="M99.8895,-67C108.623,-67 117.548,-67 125.957,-67"/>
<polygon fill="midnightblue" stroke="midnightblue" points="99.7669,-63.5001 89.7668,-67 99.7668,-70.5001 99.7669,-63.5001"/>
</g>
</g>
</svg>
