<?xml version="1.0" encoding="UTF-8" standalone="no"?>
<!DOCTYPE svg PUBLIC "-//W3C//DTD SVG 1.1//EN"
 "http://www.w3.org/Graphics/SVG/1.1/DTD/svg11.dtd">
<!-- Generated by graphviz version 2.26.3 (20100126.1600)
 -->
<!-- Title: G Pages: 1 -->
<svg width="430pt" height="770pt"
 viewBox="0.00 0.00 430.46 770.00" xmlns="http://www.w3.org/2000/svg" xmlns:xlink="http://www.w3.org/1999/xlink">
<g id="graph1" class="graph" transform="scale(1 1) rotate(0) translate(4 766)">
<title>G</title>
<!-- Node1 -->
<g id="node1" class="node"><title>Node1</title>
<polygon fill="#bfbfbf" stroke="black" points="-0.5,-1 -0.5,-21 188.5,-21 188.5,-1 -0.5,-1"/>
<text text-anchor="middle" x="94" y="-8" font-family="FreeSans" font-size="10.00">Kitware.VTK.vtkOutlineCornerSource</text>
</g>
<!-- Node2 -->
<g id="node2" class="node"><title>Node2</title>
<a xlink:href="class_kitware_1_1_v_t_k_1_1vtk_outline_source.html" target="_top" xlink:title="vtkOutlineSource &#45; create wireframe outline around bounding box">
<polygon fill="none" stroke="black" points="45,-61 45,-81 143,-81 143,-61 45,-61"/>
<text text-anchor="middle" x="94" y="-68" font-family="FreeSans" font-size="10.00">vtkOutlineSource</text>
</a>
</g>
<!-- Node2&#45;&gt;Node1 -->
<g id="edge2" class="edge"><title>Node2&#45;&gt;Node1</title>
<path fill="none" stroke="midnightblue" d="M94,-50.5155C94,-40.562 94,-29.0495 94,-21.0279"/>
<polygon fill="midnightblue" stroke="midnightblue" points="90.5001,-50.8218 94,-60.8218 97.5001,-50.8219 90.5001,-50.8218"/>
</g>
<!-- Node3 -->
<g id="node4" class="node"><title>Node3</title>
<a xlink:href="class_kitware_1_1_v_t_k_1_1vtk_poly_data_algorithm.html" target="_top" xlink:title="vtkPolyDataAlgorithm &#45; Superclass for algorithms that produce only polydata as output">
<polygon fill="none" stroke="black" points="34,-121 34,-141 154,-141 154,-121 34,-121"/>
<text text-anchor="middle" x="94" y="-128" font-family="FreeSans" font-size="10.00">vtkPolyDataAlgorithm</text>
</a>
</g>
<!-- Node3&#45;&gt;Node2 -->
<g id="edge4" class="edge"><title>Node3&#45;&gt;Node2</title>
<path fill="none" stroke="midnightblue" d="M94,-110.516C94,-100.562 94,-89.0495 94,-81.0279"/>
<polygon fill="midnightblue" stroke="midnightblue" points="90.5001,-110.822 94,-120.822 97.5001,-110.822 90.5001,-110.822"/>
</g>
<!-- Node4 -->
<g id="node6" class="node"><title>Node4</title>
<a xlink:href="class_kitware_1_1_v_t_k_1_1vtk_algorithm.html" target="_top" xlink:title="vtkAlgorithm &#45; Superclass for all sources, filters, and sinks in VTK.">
<polygon fill="none" stroke="black" points="55.5,-181 55.5,-201 132.5,-201 132.5,-181 55.5,-181"/>
<text text-anchor="middle" x="94" y="-188" font-family="FreeSans" font-size="10.00">vtkAlgorithm</text>
</a>
</g>
<!-- Node4&#45;&gt;Node3 -->
<g id="edge6" class="edge"><title>Node4&#45;&gt;Node3</title>
<path fill="none" stroke="midnightblue" d="M94,-170.516C94,-160.562 94,-149.05 94,-141.028"/>
<polygon fill="midnightblue" stroke="midnightblue" points="90.5001,-170.822 94,-180.822 97.5001,-170.822 90.5001,-170.822"/>
</g>
<!-- Node5 -->
<g id="node8" class="node"><title>Node5</title>
<a xlink:href="class_kitware_1_1_v_t_k_1_1vtk_object.html" target="_top" xlink:title="vtkObject &#45; abstract base class for most VTK objects">
<polygon fill="none" stroke="black" points="63,-241 63,-261 125,-261 125,-241 63,-241"/>
<text text-anchor="middle" x="94" y="-248" font-family="FreeSans" font-size="10.00">vtkObject</text>
</a>
</g>
<!-- Node5&#45;&gt;Node4 -->
<g id="edge8" class="edge"><title>Node5&#45;&gt;Node4</title>
<path fill="none" stroke="midnightblue" d="M94,-230.516C94,-220.562 94,-209.05 94,-201.028"/>
<polygon fill="midnightblue" stroke="midnightblue" points="90.5001,-230.822 94,-240.822 97.5001,-230.822 90.5001,-230.822"/>
</g>
<!-- Node6 -->
<g id="node10" class="node"><title>Node6</title>
<a xlink:href="class_kitware_1_1_v_t_k_1_1vtk_object_base.html" target="_top" xlink:title="vtkObjectBase &#45; abstract base class for most VTK objects">
<polygon fill="none" stroke="black" points="114,-681 114,-701 200,-701 200,-681 114,-681"/>
<text text-anchor="middle" x="157" y="-688" font-family="FreeSans" font-size="10.00">vtkObjectBase</text>
</a>
</g>
<!-- Node6&#45;&gt;Node5 -->
<g id="edge10" class="edge"><title>Node6&#45;&gt;Node5</title>
<path fill="none" stroke="midnightblue" d="M128.423,-675.886C114.687,-667.44 98.8844,-655.826 88,-642 76.1564,-626.955 75.6209,-620.802 72,-602 46.4248,-469.199 81.5766,-303.437 91.5155,-261.17"/>
<polygon fill="midnightblue" stroke="midnightblue" points="126.683,-678.923 137.079,-680.97 130.229,-672.887 126.683,-678.923"/>
</g>
<!-- Node9 -->
<g id="node17" class="node"><title>Node9</title>
<a xlink:href="class_kitware_1_1_v_t_k_1_1vtk_object.html" target="_top" xlink:title="vtkObject &#45; abstract base class for most VTK objects">
<polygon fill="none" stroke="black" points="97,-621 97,-641 217,-641 217,-621 97,-621"/>
<text text-anchor="middle" x="157" y="-628" font-family="FreeSans" font-size="10.00">Kitware.VTK.vtkObject</text>
</a>
</g>
<!-- Node6&#45;&gt;Node9 -->
<g id="edge20" class="edge"><title>Node6&#45;&gt;Node9</title>
<path fill="none" stroke="midnightblue" d="M157,-670.516C157,-660.562 157,-649.05 157,-641.028"/>
<polygon fill="midnightblue" stroke="midnightblue" points="153.5,-670.822 157,-680.822 160.5,-670.822 153.5,-670.822"/>
</g>
<!-- Node7 -->
<g id="node12" class="node"><title>Node7</title>
<a xlink:href="class_kitware_1_1_v_t_k_1_1_wrapped_object.html" target="_top" xlink:title="Base class for all the mummy wrapped classes in Kitware.VTK.">
<polygon fill="none" stroke="black" points="295.5,-741 295.5,-761 384.5,-761 384.5,-741 295.5,-741"/>
<text text-anchor="middle" x="340" y="-748" font-family="FreeSans" font-size="10.00">WrappedObject</text>
</a>
</g>
<!-- Node7&#45;&gt;Node6 -->
<g id="edge12" class="edge"><title>Node7&#45;&gt;Node6</title>
<path fill="none" stroke="midnightblue" d="M299.804,-737.821C266.042,-726.752 218.512,-711.168 187.73,-701.075"/>
<polygon fill="midnightblue" stroke="midnightblue" points="298.777,-741.168 309.37,-740.957 300.958,-734.516 298.777,-741.168"/>
</g>
<!-- Node8 -->
<g id="node14" class="node"><title>Node8</title>
<a xlink:href="class_kitware_1_1_v_t_k_1_1vtk_object_event_relay.html" target="_top" xlink:title="Implement a relay handler for VTK events. This is a class that receives events directly from the VTK ...">
<polygon fill="none" stroke="black" points="86,-431 86,-451 258,-451 258,-431 86,-431"/>
<text text-anchor="middle" x="172" y="-438" font-family="FreeSans" font-size="10.00">Kitware.VTK.vtkObjectEventRelay</text>
</a>
</g>
<!-- Node7&#45;&gt;Node8 -->
<g id="edge16" class="edge"><title>Node7&#45;&gt;Node8</title>
<path fill="none" stroke="midnightblue" d="M352.888,-732.325C385.276,-682.899 462.803,-547.191 395,-470 385.773,-459.495 317.047,-451.666 258.298,-446.808"/>
<polygon fill="midnightblue" stroke="midnightblue" points="349.891,-730.509 347.239,-740.767 355.709,-734.402 349.891,-730.509"/>
</g>
<!-- Node8&#45;&gt;Node5 -->
<g id="edge14" class="edge"><title>Node8&#45;&gt;Node5</title>
<path fill="none" stroke="#9a32cd" stroke-dasharray="5,2" d="M163.921,-421.321C147.489,-381.293 110.674,-291.616 98.2144,-261.266"/>
<polygon fill="#9a32cd" stroke="#9a32cd" points="160.771,-422.863 167.806,-430.785 167.246,-420.205 160.771,-422.863"/>
<text text-anchor="middle" x="271.5" y="-403" font-family="FreeSans" font-size="10.00"> LeftButtonReleaseEvtRelay</text>
<text text-anchor="middle" x="271.5" y="-391" font-family="FreeSans" font-size="10.00">KeyPressEvtRelay</text>
<text text-anchor="middle" x="271.5" y="-379" font-family="FreeSans" font-size="10.00">DomainModifiedEvtRelay</text>
<text text-anchor="middle" x="271.5" y="-367" font-family="FreeSans" font-size="10.00">VolumeMapperComputeGradientsStartEvtRelay</text>
<text text-anchor="middle" x="271.5" y="-355" font-family="FreeSans" font-size="10.00">ErrorEvtRelay</text>
<text text-anchor="middle" x="271.5" y="-343" font-family="FreeSans" font-size="10.00">VolumeMapperRenderStartEvtRelay</text>
<text text-anchor="middle" x="271.5" y="-331" font-family="FreeSans" font-size="10.00">StartEvtRelay</text>
<text text-anchor="middle" x="271.5" y="-319" font-family="FreeSans" font-size="10.00">ResetCameraEvtRelay</text>
<text text-anchor="middle" x="271.5" y="-307" font-family="FreeSans" font-size="10.00">EnableEvtRelay</text>
<text text-anchor="middle" x="271.5" y="-295" font-family="FreeSans" font-size="10.00">DeleteEvtRelay</text>
<text text-anchor="middle" x="271.5" y="-283" font-family="FreeSans" font-size="10.00">...</text>
</g>
<!-- Node8&#45;&gt;Node9 -->
<g id="edge22" class="edge"><title>Node8&#45;&gt;Node9</title>
<path fill="none" stroke="#9a32cd" stroke-dasharray="5,2" d="M169.028,-461.231C168.649,-464.169 168.293,-467.159 168,-470 162.144,-526.853 158.636,-595.333 157.452,-620.807"/>
<polygon fill="#9a32cd" stroke="#9a32cd" points="172.515,-461.565 170.421,-451.179 165.582,-460.604 172.515,-461.565"/>
<text text-anchor="middle" x="281.5" y="-593" font-family="FreeSans" font-size="10.00"> LeftButtonReleaseEvtRelay</text>
<text text-anchor="middle" x="281.5" y="-581" font-family="FreeSans" font-size="10.00">KeyPressEvtRelay</text>
<text text-anchor="middle" x="281.5" y="-569" font-family="FreeSans" font-size="10.00">DomainModifiedEvtRelay</text>
<text text-anchor="middle" x="281.5" y="-557" font-family="FreeSans" font-size="10.00">VolumeMapperComputeGradientsStartEvtRelay</text>
<text text-anchor="middle" x="281.5" y="-545" font-family="FreeSans" font-size="10.00">ErrorEvtRelay</text>
<text text-anchor="middle" x="281.5" y="-533" font-family="FreeSans" font-size="10.00">VolumeMapperRenderStartEvtRelay</text>
<text text-anchor="middle" x="281.5" y="-521" font-family="FreeSans" font-size="10.00">StartEvtRelay</text>
<text text-anchor="middle" x="281.5" y="-509" font-family="FreeSans" font-size="10.00">ResetCameraEvtRelay</text>
<text text-anchor="middle" x="281.5" y="-497" font-family="FreeSans" font-size="10.00">EnableEvtRelay</text>
<text text-anchor="middle" x="281.5" y="-485" font-family="FreeSans" font-size="10.00">DeleteEvtRelay</text>
<text text-anchor="middle" x="281.5" y="-473" font-family="FreeSans" font-size="10.00">...</text>
</g>
<!-- Node9&#45;&gt;Node8 -->
<g id="edge18" class="edge"><title>Node9&#45;&gt;Node8</title>
<path fill="none" stroke="#9a32cd" stroke-dasharray="5,2" d="M110.979,-615.818C105.439,-612.138 100.51,-607.596 97,-602 65.8229,-552.303 63.8299,-518.389 97,-470 101.736,-463.091 118.511,-456.287 134.999,-451.008"/>
<polygon fill="#9a32cd" stroke="#9a32cd" points="109.639,-619.079 120.072,-620.919 113.064,-612.974 109.639,-619.079"/>
<text text-anchor="middle" x="121" y="-539" font-family="FreeSans" font-size="10.00"> Sender</text>
<text text-anchor="middle" x="121" y="-527" font-family="FreeSans" font-size="10.00">EventImpl</text>
</g>
</g>
</svg>
