<?xml version="1.0" encoding="UTF-8" standalone="no"?>
<!DOCTYPE svg PUBLIC "-//W3C//DTD SVG 1.1//EN"
 "http://www.w3.org/Graphics/SVG/1.1/DTD/svg11.dtd">
<!-- Generated by graphviz version 2.26.3 (20100126.1600)
 -->
<!-- Title: G Pages: 1 -->
<svg width="1176pt" height="104pt"
 viewBox="0.00 0.00 1176.00 104.00" xmlns="http://www.w3.org/2000/svg" xmlns:xlink="http://www.w3.org/1999/xlink">
<g id="graph1" class="graph" transform="scale(1 1) rotate(0) translate(4 100)">
<title>G</title>
<!-- Node1 -->
<g id="node1" class="node"><title>Node1</title>
<polygon fill="#bfbfbf" stroke="black" points="720,-38 720,-58 906,-58 906,-38 720,-38"/>
<text text-anchor="middle" x="813" y="-45" font-family="FreeSans" font-size="10.00">Kitware.VTK.vtkLabeledDataMapper</text>
</g>
<!-- Node8 -->
<g id="node15" class="node"><title>Node8</title>
<a xlink:href="class_kitware_1_1_v_t_k_1_1vtk_dynamic2_d_label_mapper.html" target="_top" xlink:title="vtkDynamic2DLabelMapper &#45; draw text labels at 2D dataset points">
<polygon fill="none" stroke="black" points="952,-76 952,-96 1158,-96 1158,-76 952,-76"/>
<text text-anchor="middle" x="1055" y="-83" font-family="FreeSans" font-size="10.00">Kitware.VTK.vtkDynamic2DLabelMapper</text>
</a>
</g>
<!-- Node1&#45;&gt;Node8 -->
<g id="edge14" class="edge"><title>Node1&#45;&gt;Node8</title>
<path fill="none" stroke="midnightblue" d="M887.032,-59.6249C920.307,-64.8498 959.191,-70.9557 991.163,-75.976"/>
<polygon fill="midnightblue" stroke="midnightblue" points="887.321,-56.1274 876.899,-58.0338 886.235,-63.0427 887.321,-56.1274"/>
</g>
<!-- Node9 -->
<g id="node17" class="node"><title>Node9</title>
<a xlink:href="class_kitware_1_1_v_t_k_1_1vtk_labeled_tree_map_data_mapper.html" target="_top" xlink:title="vtkLabeledTreeMapDataMapper &#45; draw text labels on a tree map">
<polygon fill="none" stroke="black" points="942,-38 942,-58 1168,-58 1168,-38 942,-38"/>
<text text-anchor="middle" x="1055" y="-45" font-family="FreeSans" font-size="10.00">Kitware.VTK.vtkLabeledTreeMapDataMapper</text>
</a>
</g>
<!-- Node1&#45;&gt;Node9 -->
<g id="edge16" class="edge"><title>Node1&#45;&gt;Node9</title>
<path fill="none" stroke="midnightblue" d="M916.459,-48C924.912,-48 933.482,-48 941.999,-48"/>
<polygon fill="midnightblue" stroke="midnightblue" points="916.217,-44.5001 906.217,-48 916.217,-51.5001 916.217,-44.5001"/>
</g>
<!-- Node10 -->
<g id="node19" class="node"><title>Node10</title>
<a xlink:href="class_kitware_1_1_v_t_k_1_1vtk_qt_tree_ring_label_mapper.html" target="_top" xlink:title="vtkQtTreeRingLabelMapper &#45; draw text labels on a tree map">
<polygon fill="none" stroke="black" points="954,-0 954,-20 1156,-20 1156,-0 954,-0"/>
<text text-anchor="middle" x="1055" y="-7" font-family="FreeSans" font-size="10.00">Kitware.VTK.vtkQtTreeRingLabelMapper</text>
</a>
</g>
<!-- Node1&#45;&gt;Node10 -->
<g id="edge18" class="edge"><title>Node1&#45;&gt;Node10</title>
<path fill="none" stroke="midnightblue" d="M887.032,-36.3751C920.307,-31.1502 959.191,-25.0443 991.163,-20.024"/>
<polygon fill="midnightblue" stroke="midnightblue" points="886.235,-32.9573 876.899,-37.9662 887.321,-39.8726 886.235,-32.9573"/>
</g>
<!-- Node2 -->
<g id="node2" class="node"><title>Node2</title>
<a xlink:href="class_kitware_1_1_v_t_k_1_1vtk_mapper2_d.html" target="_top" xlink:title="vtkMapper2D &#45; abstract class specifies interface for objects which render 2D actors">
<polygon fill="none" stroke="black" points="604,-38 604,-58 684,-58 684,-38 604,-38"/>
<text text-anchor="middle" x="644" y="-45" font-family="FreeSans" font-size="10.00">vtkMapper2D</text>
</a>
</g>
<!-- Node2&#45;&gt;Node1 -->
<g id="edge2" class="edge"><title>Node2&#45;&gt;Node1</title>
<path fill="none" stroke="midnightblue" d="M694.124,-48C702.32,-48 711.036,-48 719.88,-48"/>
<polygon fill="midnightblue" stroke="midnightblue" points="694.051,-44.5001 684.051,-48 694.051,-51.5001 694.051,-44.5001"/>
</g>
<!-- Node3 -->
<g id="node4" class="node"><title>Node3</title>
<a xlink:href="class_kitware_1_1_v_t_k_1_1vtk_abstract_mapper.html" target="_top" xlink:title="vtkAbstractMapper &#45; abstract class specifies interface to map data">
<polygon fill="none" stroke="black" points="460.5,-38 460.5,-58 567.5,-58 567.5,-38 460.5,-38"/>
<text text-anchor="middle" x="514" y="-45" font-family="FreeSans" font-size="10.00">vtkAbstractMapper</text>
</a>
</g>
<!-- Node3&#45;&gt;Node2 -->
<g id="edge4" class="edge"><title>Node3&#45;&gt;Node2</title>
<path fill="none" stroke="midnightblue" d="M577.866,-48C586.632,-48 595.425,-48 603.608,-48"/>
<polygon fill="midnightblue" stroke="midnightblue" points="577.627,-44.5001 567.627,-48 577.626,-51.5001 577.627,-44.5001"/>
</g>
<!-- Node4 -->
<g id="node6" class="node"><title>Node4</title>
<a xlink:href="class_kitware_1_1_v_t_k_1_1vtk_algorithm.html" target="_top" xlink:title="vtkAlgorithm &#45; Superclass for all sources, filters, and sinks in VTK.">
<polygon fill="none" stroke="black" points="346.5,-38 346.5,-58 423.5,-58 423.5,-38 346.5,-38"/>
<text text-anchor="middle" x="385" y="-45" font-family="FreeSans" font-size="10.00">vtkAlgorithm</text>
</a>
</g>
<!-- Node4&#45;&gt;Node3 -->
<g id="edge6" class="edge"><title>Node4&#45;&gt;Node3</title>
<path fill="none" stroke="midnightblue" d="M433.896,-48C442.445,-48 451.384,-48 460.06,-48"/>
<polygon fill="midnightblue" stroke="midnightblue" points="433.704,-44.5001 423.704,-48 433.704,-51.5001 433.704,-44.5001"/>
</g>
<!-- Node5 -->
<g id="node8" class="node"><title>Node5</title>
<a xlink:href="class_kitware_1_1_v_t_k_1_1vtk_object.html" target="_top" xlink:title="vtkObject &#45; abstract base class for most VTK objects">
<polygon fill="none" stroke="black" points="248,-38 248,-58 310,-58 310,-38 248,-38"/>
<text text-anchor="middle" x="279" y="-45" font-family="FreeSans" font-size="10.00">vtkObject</text>
</a>
</g>
<!-- Node5&#45;&gt;Node4 -->
<g id="edge8" class="edge"><title>Node5&#45;&gt;Node4</title>
<path fill="none" stroke="midnightblue" d="M320.421,-48C329.001,-48 338.007,-48 346.479,-48"/>
<polygon fill="midnightblue" stroke="midnightblue" points="320.23,-44.5001 310.23,-48 320.23,-51.5001 320.23,-44.5001"/>
</g>
<!-- Node6 -->
<g id="node10" class="node"><title>Node6</title>
<a xlink:href="class_kitware_1_1_v_t_k_1_1vtk_object_base.html" target="_top" xlink:title="vtkObjectBase &#45; abstract base class for most VTK objects">
<polygon fill="none" stroke="black" points="126,-38 126,-58 212,-58 212,-38 126,-38"/>
<text text-anchor="middle" x="169" y="-45" font-family="FreeSans" font-size="10.00">vtkObjectBase</text>
</a>
</g>
<!-- Node6&#45;&gt;Node5 -->
<g id="edge10" class="edge"><title>Node6&#45;&gt;Node5</title>
<path fill="none" stroke="midnightblue" d="M222.346,-48C231.091,-48 239.892,-48 247.863,-48"/>
<polygon fill="midnightblue" stroke="midnightblue" points="222.159,-44.5001 212.159,-48 222.159,-51.5001 222.159,-44.5001"/>
</g>
<!-- Node7 -->
<g id="node12" class="node"><title>Node7</title>
<a xlink:href="class_kitware_1_1_v_t_k_1_1_wrapped_object.html" target="_top" xlink:title="Base class for all the mummy wrapped classes in Kitware.VTK.">
<polygon fill="none" stroke="black" points="0.5,-38 0.5,-58 89.5,-58 89.5,-38 0.5,-38"/>
<text text-anchor="middle" x="45" y="-45" font-family="FreeSans" font-size="10.00">WrappedObject</text>
</a>
</g>
<!-- Node7&#45;&gt;Node6 -->
<g id="edge12" class="edge"><title>Node7&#45;&gt;Node6</title>
<path fill="none" stroke="midnightblue" d="M99.8895,-48C108.623,-48 117.548,-48 125.957,-48"/>
<polygon fill="midnightblue" stroke="midnightblue" points="99.7669,-44.5001 89.7668,-48 99.7668,-51.5001 99.7669,-44.5001"/>
</g>
</g>
</svg>
