<?xml version="1.0" encoding="UTF-8" standalone="no"?>
<!DOCTYPE svg PUBLIC "-//W3C//DTD SVG 1.1//EN"
 "http://www.w3.org/Graphics/SVG/1.1/DTD/svg11.dtd">
<!-- Generated by graphviz version 2.26.3 (20100126.1600)
 -->
<!-- Title: G Pages: 1 -->
<svg width="898pt" height="142pt"
 viewBox="0.00 0.00 898.00 142.00" xmlns="http://www.w3.org/2000/svg" xmlns:xlink="http://www.w3.org/1999/xlink">
<g id="graph1" class="graph" transform="scale(1 1) rotate(0) translate(4 138)">
<title>G</title>
<!-- Node1 -->
<g id="node1" class="node"><title>Node1</title>
<polygon fill="#bfbfbf" stroke="black" points="468.5,-57 468.5,-77 649.5,-77 649.5,-57 468.5,-57"/>
<text text-anchor="middle" x="559" y="-64" font-family="FreeSans" font-size="10.00">Kitware.VTK.vtkCompositeDataSet</text>
</g>
<!-- Node6 -->
<g id="node11" class="node"><title>Node6</title>
<a xlink:href="class_kitware_1_1_v_t_k_1_1vtk_hierarchical_box_data_set.html" target="_top" xlink:title="vtkHierarchicalBoxDataSet &#45; hierarchical dataset of vtkUniformGrids">
<polygon fill="none" stroke="black" points="686.5,-114 686.5,-134 889.5,-134 889.5,-114 686.5,-114"/>
<text text-anchor="middle" x="788" y="-121" font-family="FreeSans" font-size="10.00">Kitware.VTK.vtkHierarchicalBoxDataSet</text>
</a>
</g>
<!-- Node1&#45;&gt;Node6 -->
<g id="edge10" class="edge"><title>Node1&#45;&gt;Node6</title>
<path fill="none" stroke="midnightblue" d="M599.084,-80.1884C623.931,-88.0647 656.608,-97.8868 686,-105 699.568,-108.284 714.27,-111.321 728.174,-113.959"/>
<polygon fill="midnightblue" stroke="midnightblue" points="599.879,-76.7683 589.289,-77.0558 597.747,-83.4357 599.879,-76.7683"/>
</g>
<!-- Node7 -->
<g id="node13" class="node"><title>Node7</title>
<a xlink:href="class_kitware_1_1_v_t_k_1_1vtk_multi_block_data_set.html" target="_top" xlink:title="vtkMultiBlockDataSet &#45; Composite dataset that organizes datasets into blocks.">
<polygon fill="none" stroke="black" points="699.5,-76 699.5,-96 876.5,-96 876.5,-76 699.5,-76"/>
<text text-anchor="middle" x="788" y="-83" font-family="FreeSans" font-size="10.00">Kitware.VTK.vtkMultiBlockDataSet</text>
</a>
</g>
<!-- Node1&#45;&gt;Node7 -->
<g id="edge12" class="edge"><title>Node1&#45;&gt;Node7</title>
<path fill="none" stroke="midnightblue" d="M659.56,-75.3434C672.786,-76.4407 686.264,-77.559 699.273,-78.6384"/>
<polygon fill="midnightblue" stroke="midnightblue" points="659.762,-71.8482 649.507,-74.5093 659.183,-78.8243 659.762,-71.8482"/>
</g>
<!-- Node8 -->
<g id="node15" class="node"><title>Node8</title>
<a xlink:href="class_kitware_1_1_v_t_k_1_1vtk_multi_piece_data_set.html" target="_top" xlink:title="vtkMultiPieceDataSet &#45; composite dataset to encapsulates pieces of dataset.">
<polygon fill="none" stroke="black" points="699.5,-38 699.5,-58 876.5,-58 876.5,-38 699.5,-38"/>
<text text-anchor="middle" x="788" y="-45" font-family="FreeSans" font-size="10.00">Kitware.VTK.vtkMultiPieceDataSet</text>
</a>
</g>
<!-- Node1&#45;&gt;Node8 -->
<g id="edge14" class="edge"><title>Node1&#45;&gt;Node8</title>
<path fill="none" stroke="midnightblue" d="M659.56,-58.6566C672.786,-57.5593 686.264,-56.441 699.273,-55.3616"/>
<polygon fill="midnightblue" stroke="midnightblue" points="659.183,-55.1757 649.507,-59.4907 659.762,-62.1518 659.183,-55.1757"/>
</g>
<!-- Node9 -->
<g id="node17" class="node"><title>Node9</title>
<a xlink:href="class_kitware_1_1_v_t_k_1_1vtk_temporal_data_set.html" target="_top" xlink:title="vtkTemporalDataSet &#45; Composite dataset that holds multiple times">
<polygon fill="none" stroke="black" points="701.5,-0 701.5,-20 874.5,-20 874.5,-0 701.5,-0"/>
<text text-anchor="middle" x="788" y="-7" font-family="FreeSans" font-size="10.00">Kitware.VTK.vtkTemporalDataSet</text>
</a>
</g>
<!-- Node1&#45;&gt;Node9 -->
<g id="edge16" class="edge"><title>Node1&#45;&gt;Node9</title>
<path fill="none" stroke="midnightblue" d="M599.084,-53.8116C623.931,-45.9353 656.608,-36.1132 686,-29 699.568,-25.7163 714.27,-22.6794 728.174,-20.0409"/>
<polygon fill="midnightblue" stroke="midnightblue" points="597.747,-50.5643 589.289,-56.9442 599.879,-57.2317 597.747,-50.5643"/>
</g>
<!-- Node2 -->
<g id="node2" class="node"><title>Node2</title>
<a xlink:href="class_kitware_1_1_v_t_k_1_1vtk_data_object.html" target="_top" xlink:title="vtkDataObject &#45; general representation of visualization data">
<polygon fill="none" stroke="black" points="346.5,-57 346.5,-77 431.5,-77 431.5,-57 346.5,-57"/>
<text text-anchor="middle" x="389" y="-64" font-family="FreeSans" font-size="10.00">vtkDataObject</text>
</a>
</g>
<!-- Node2&#45;&gt;Node1 -->
<g id="edge2" class="edge"><title>Node2&#45;&gt;Node1</title>
<path fill="none" stroke="midnightblue" d="M441.922,-67C450.364,-67 459.301,-67 468.323,-67"/>
<polygon fill="midnightblue" stroke="midnightblue" points="441.898,-63.5001 431.898,-67 441.898,-70.5001 441.898,-63.5001"/>
</g>
<!-- Node3 -->
<g id="node4" class="node"><title>Node3</title>
<a xlink:href="class_kitware_1_1_v_t_k_1_1vtk_object.html" target="_top" xlink:title="vtkObject &#45; abstract base class for most VTK objects">
<polygon fill="none" stroke="black" points="248,-57 248,-77 310,-77 310,-57 248,-57"/>
<text text-anchor="middle" x="279" y="-64" font-family="FreeSans" font-size="10.00">vtkObject</text>
</a>
</g>
<!-- Node3&#45;&gt;Node2 -->
<g id="edge4" class="edge"><title>Node3&#45;&gt;Node2</title>
<path fill="none" stroke="midnightblue" d="M320.27,-67C328.739,-67 337.673,-67 346.196,-67"/>
<polygon fill="midnightblue" stroke="midnightblue" points="320.227,-63.5001 310.227,-67 320.227,-70.5001 320.227,-63.5001"/>
</g>
<!-- Node4 -->
<g id="node6" class="node"><title>Node4</title>
<a xlink:href="class_kitware_1_1_v_t_k_1_1vtk_object_base.html" target="_top" xlink:title="vtkObjectBase &#45; abstract base class for most VTK objects">
<polygon fill="none" stroke="black" points="126,-57 126,-77 212,-77 212,-57 126,-57"/>
<text text-anchor="middle" x="169" y="-64" font-family="FreeSans" font-size="10.00">vtkObjectBase</text>
</a>
</g>
<!-- Node4&#45;&gt;Node3 -->
<g id="edge6" class="edge"><title>Node4&#45;&gt;Node3</title>
<path fill="none" stroke="midnightblue" d="M222.346,-67C231.091,-67 239.892,-67 247.863,-67"/>
<polygon fill="midnightblue" stroke="midnightblue" points="222.159,-63.5001 212.159,-67 222.159,-70.5001 222.159,-63.5001"/>
</g>
<!-- Node5 -->
<g id="node8" class="node"><title>Node5</title>
<a xlink:href="class_kitware_1_1_v_t_k_1_1_wrapped_object.html" target="_top" xlink:title="Base class for all the mummy wrapped classes in Kitware.VTK.">
<polygon fill="none" stroke="black" points="0.5,-57 0.5,-77 89.5,-77 89.5,-57 0.5,-57"/>
<text text-anchor="middle" x="45" y="-64" font-family="FreeSans" font-size="10.00">WrappedObject</text>
</a>
</g>
<!-- Node5&#45;&gt;Node4 -->
<g id="edge8" class="edge"><title>Node5&#45;&gt;Node4</title>
<path fill="none" stroke="midnightblue" d="M99.8895,-67C108.623,-67 117.548,-67 125.957,-67"/>
<polygon fill="midnightblue" stroke="midnightblue" points="99.7669,-63.5001 89.7668,-67 99.7668,-70.5001 99.7669,-63.5001"/>
</g>
</g>
</svg>
