<?xml version="1.0" encoding="UTF-8" standalone="no"?>
<!DOCTYPE svg PUBLIC "-//W3C//DTD SVG 1.1//EN"
 "http://www.w3.org/Graphics/SVG/1.1/DTD/svg11.dtd">
<!-- Generated by graphviz version 2.26.3 (20100126.1600)
 -->
<!-- Title: G Pages: 1 -->
<svg width="132pt" height="436pt"
 viewBox="0.00 0.00 132.00 436.00" xmlns="http://www.w3.org/2000/svg" xmlns:xlink="http://www.w3.org/1999/xlink">
<g id="graph1" class="graph" transform="scale(1 1) rotate(0) translate(4 432)">
<title>G</title>
<!-- Node1 -->
<g id="node1" class="node"><title>Node1</title>
<polygon fill="#bfbfbf" stroke="black" points="-0.5,-1 -0.5,-21 124.5,-21 124.5,-1 -0.5,-1"/>
<text text-anchor="middle" x="62" y="-8" font-family="FreeSans" font-size="10.00">Kitware.VTK.vtkIVWriter</text>
</g>
<!-- Node2 -->
<g id="node2" class="node"><title>Node2</title>
<a xlink:href="class_kitware_1_1_v_t_k_1_1vtk_poly_data_writer.html" target="_top" xlink:title="vtkPolyDataWriter &#45; write vtk polygonal data">
<polygon fill="none" stroke="black" points="11.5,-59 11.5,-79 112.5,-79 112.5,-59 11.5,-59"/>
<text text-anchor="middle" x="62" y="-66" font-family="FreeSans" font-size="10.00">vtkPolyDataWriter</text>
</a>
</g>
<!-- Node2&#45;&gt;Node1 -->
<g id="edge2" class="edge"><title>Node2&#45;&gt;Node1</title>
<path fill="none" stroke="midnightblue" d="M62,-48.8902C62,-39.6201 62,-29.0083 62,-21.3776"/>
<polygon fill="midnightblue" stroke="midnightblue" points="58.5001,-48.8971 62,-58.8972 65.5001,-48.8972 58.5001,-48.8971"/>
</g>
<!-- Node3 -->
<g id="node4" class="node"><title>Node3</title>
<a xlink:href="class_kitware_1_1_v_t_k_1_1vtk_data_writer.html" target="_top" xlink:title="vtkDataWriter &#45; helper class for objects that write vtk data files">
<polygon fill="none" stroke="black" points="21.5,-117 21.5,-137 102.5,-137 102.5,-117 21.5,-117"/>
<text text-anchor="middle" x="62" y="-124" font-family="FreeSans" font-size="10.00">vtkDataWriter</text>
</a>
</g>
<!-- Node3&#45;&gt;Node2 -->
<g id="edge4" class="edge"><title>Node3&#45;&gt;Node2</title>
<path fill="none" stroke="midnightblue" d="M62,-106.89C62,-97.6201 62,-87.0083 62,-79.3776"/>
<polygon fill="midnightblue" stroke="midnightblue" points="58.5001,-106.897 62,-116.897 65.5001,-106.897 58.5001,-106.897"/>
</g>
<!-- Node4 -->
<g id="node6" class="node"><title>Node4</title>
<a xlink:href="class_kitware_1_1_v_t_k_1_1vtk_writer.html" target="_top" xlink:title="vtkWriter &#45; abstract class to write data to file(s)">
<polygon fill="none" stroke="black" points="33,-175 33,-195 91,-195 91,-175 33,-175"/>
<text text-anchor="middle" x="62" y="-182" font-family="FreeSans" font-size="10.00">vtkWriter</text>
</a>
</g>
<!-- Node4&#45;&gt;Node3 -->
<g id="edge6" class="edge"><title>Node4&#45;&gt;Node3</title>
<path fill="none" stroke="midnightblue" d="M62,-164.89C62,-155.62 62,-145.008 62,-137.378"/>
<polygon fill="midnightblue" stroke="midnightblue" points="58.5001,-164.897 62,-174.897 65.5001,-164.897 58.5001,-164.897"/>
</g>
<!-- Node5 -->
<g id="node8" class="node"><title>Node5</title>
<a xlink:href="class_kitware_1_1_v_t_k_1_1vtk_algorithm.html" target="_top" xlink:title="vtkAlgorithm &#45; Superclass for all sources, filters, and sinks in VTK.">
<polygon fill="none" stroke="black" points="23.5,-233 23.5,-253 100.5,-253 100.5,-233 23.5,-233"/>
<text text-anchor="middle" x="62" y="-240" font-family="FreeSans" font-size="10.00">vtkAlgorithm</text>
</a>
</g>
<!-- Node5&#45;&gt;Node4 -->
<g id="edge8" class="edge"><title>Node5&#45;&gt;Node4</title>
<path fill="none" stroke="midnightblue" d="M62,-222.89C62,-213.62 62,-203.008 62,-195.378"/>
<polygon fill="midnightblue" stroke="midnightblue" points="58.5001,-222.897 62,-232.897 65.5001,-222.897 58.5001,-222.897"/>
</g>
<!-- Node6 -->
<g id="node10" class="node"><title>Node6</title>
<a xlink:href="class_kitware_1_1_v_t_k_1_1vtk_object.html" target="_top" xlink:title="vtkObject &#45; abstract base class for most VTK objects">
<polygon fill="none" stroke="black" points="31,-291 31,-311 93,-311 93,-291 31,-291"/>
<text text-anchor="middle" x="62" y="-298" font-family="FreeSans" font-size="10.00">vtkObject</text>
</a>
</g>
<!-- Node6&#45;&gt;Node5 -->
<g id="edge10" class="edge"><title>Node6&#45;&gt;Node5</title>
<path fill="none" stroke="midnightblue" d="M62,-280.89C62,-271.62 62,-261.008 62,-253.378"/>
<polygon fill="midnightblue" stroke="midnightblue" points="58.5001,-280.897 62,-290.897 65.5001,-280.897 58.5001,-280.897"/>
</g>
<!-- Node7 -->
<g id="node12" class="node"><title>Node7</title>
<a xlink:href="class_kitware_1_1_v_t_k_1_1vtk_object_base.html" target="_top" xlink:title="vtkObjectBase &#45; abstract base class for most VTK objects">
<polygon fill="none" stroke="black" points="19,-349 19,-369 105,-369 105,-349 19,-349"/>
<text text-anchor="middle" x="62" y="-356" font-family="FreeSans" font-size="10.00">vtkObjectBase</text>
</a>
</g>
<!-- Node7&#45;&gt;Node6 -->
<g id="edge12" class="edge"><title>Node7&#45;&gt;Node6</title>
<path fill="none" stroke="midnightblue" d="M62,-338.89C62,-329.62 62,-319.008 62,-311.378"/>
<polygon fill="midnightblue" stroke="midnightblue" points="58.5001,-338.897 62,-348.897 65.5001,-338.897 58.5001,-338.897"/>
</g>
<!-- Node8 -->
<g id="node14" class="node"><title>Node8</title>
<a xlink:href="class_kitware_1_1_v_t_k_1_1_wrapped_object.html" target="_top" xlink:title="Base class for all the mummy wrapped classes in Kitware.VTK.">
<polygon fill="none" stroke="black" points="17.5,-407 17.5,-427 106.5,-427 106.5,-407 17.5,-407"/>
<text text-anchor="middle" x="62" y="-414" font-family="FreeSans" font-size="10.00">WrappedObject</text>
</a>
</g>
<!-- Node8&#45;&gt;Node7 -->
<g id="edge14" class="edge"><title>Node8&#45;&gt;Node7</title>
<path fill="none" stroke="midnightblue" d="M62,-396.89C62,-387.62 62,-377.008 62,-369.378"/>
<polygon fill="midnightblue" stroke="midnightblue" points="58.5001,-396.897 62,-406.897 65.5001,-396.897 58.5001,-396.897"/>
</g>
</g>
</svg>
