<?xml version="1.0" encoding="UTF-8" standalone="no"?>
<!DOCTYPE svg PUBLIC "-//W3C//DTD SVG 1.1//EN"
 "http://www.w3.org/Graphics/SVG/1.1/DTD/svg11.dtd">
<!-- Generated by graphviz version 2.26.3 (20100126.1600)
 -->
<!-- Title: G Pages: 1 -->
<svg width="466pt" height="950pt"
 viewBox="0.00 0.00 466.46 950.00" xmlns="http://www.w3.org/2000/svg" xmlns:xlink="http://www.w3.org/1999/xlink">
<g id="graph1" class="graph" transform="scale(1 1) rotate(0) translate(4 946)">
<title>G</title>
<!-- Node1 -->
<g id="node1" class="node"><title>Node1</title>
<polygon fill="#bfbfbf" stroke="black" points="0,-1 0,-21 260,-21 260,-1 0,-1"/>
<text text-anchor="middle" x="130" y="-8" font-family="FreeSans" font-size="10.00">Kitware.VTK.vtkOpenGLGPUVolumeRayCastMapper</text>
</g>
<!-- Node2 -->
<g id="node2" class="node"><title>Node2</title>
<a xlink:href="class_kitware_1_1_v_t_k_1_1vtk_g_p_u_volume_ray_cast_mapper.html" target="_top" xlink:title="vtkGPUVolumeRayCastMapper &#45; Ray casting performed on the GPU.">
<polygon fill="none" stroke="black" points="48.5,-61 48.5,-81 211.5,-81 211.5,-61 48.5,-61"/>
<text text-anchor="middle" x="130" y="-68" font-family="FreeSans" font-size="10.00">vtkGPUVolumeRayCastMapper</text>
</a>
</g>
<!-- Node2&#45;&gt;Node1 -->
<g id="edge2" class="edge"><title>Node2&#45;&gt;Node1</title>
<path fill="none" stroke="midnightblue" d="M130,-50.5155C130,-40.562 130,-29.0495 130,-21.0279"/>
<polygon fill="midnightblue" stroke="midnightblue" points="126.5,-50.8218 130,-60.8218 133.5,-50.8219 126.5,-50.8218"/>
</g>
<!-- Node3 -->
<g id="node4" class="node"><title>Node3</title>
<a xlink:href="class_kitware_1_1_v_t_k_1_1vtk_volume_mapper.html" target="_top" xlink:title="vtkVolumeMapper &#45; Abstract class for a volume mapper">
<polygon fill="none" stroke="black" points="78.5,-121 78.5,-141 181.5,-141 181.5,-121 78.5,-121"/>
<text text-anchor="middle" x="130" y="-128" font-family="FreeSans" font-size="10.00">vtkVolumeMapper</text>
</a>
</g>
<!-- Node3&#45;&gt;Node2 -->
<g id="edge4" class="edge"><title>Node3&#45;&gt;Node2</title>
<path fill="none" stroke="midnightblue" d="M130,-110.516C130,-100.562 130,-89.0495 130,-81.0279"/>
<polygon fill="midnightblue" stroke="midnightblue" points="126.5,-110.822 130,-120.822 133.5,-110.822 126.5,-110.822"/>
</g>
<!-- Node4 -->
<g id="node6" class="node"><title>Node4</title>
<a xlink:href="class_kitware_1_1_v_t_k_1_1vtk_abstract_volume_mapper.html" target="_top" xlink:title="vtkAbstractVolumeMapper &#45; Abstract class for a volume mapper">
<polygon fill="none" stroke="black" points="58.5,-181 58.5,-201 201.5,-201 201.5,-181 58.5,-181"/>
<text text-anchor="middle" x="130" y="-188" font-family="FreeSans" font-size="10.00">vtkAbstractVolumeMapper</text>
</a>
</g>
<!-- Node4&#45;&gt;Node3 -->
<g id="edge6" class="edge"><title>Node4&#45;&gt;Node3</title>
<path fill="none" stroke="midnightblue" d="M130,-170.516C130,-160.562 130,-149.05 130,-141.028"/>
<polygon fill="midnightblue" stroke="midnightblue" points="126.5,-170.822 130,-180.822 133.5,-170.822 126.5,-170.822"/>
</g>
<!-- Node5 -->
<g id="node8" class="node"><title>Node5</title>
<a xlink:href="class_kitware_1_1_v_t_k_1_1vtk_abstract_mapper3_d.html" target="_top" xlink:title="vtkAbstractMapper3D &#45; abstract class specifies interface to map 3D data">
<polygon fill="none" stroke="black" points="69.5,-241 69.5,-261 190.5,-261 190.5,-241 69.5,-241"/>
<text text-anchor="middle" x="130" y="-248" font-family="FreeSans" font-size="10.00">vtkAbstractMapper3D</text>
</a>
</g>
<!-- Node5&#45;&gt;Node4 -->
<g id="edge8" class="edge"><title>Node5&#45;&gt;Node4</title>
<path fill="none" stroke="midnightblue" d="M130,-230.516C130,-220.562 130,-209.05 130,-201.028"/>
<polygon fill="midnightblue" stroke="midnightblue" points="126.5,-230.822 130,-240.822 133.5,-230.822 126.5,-230.822"/>
</g>
<!-- Node6 -->
<g id="node10" class="node"><title>Node6</title>
<a xlink:href="class_kitware_1_1_v_t_k_1_1vtk_abstract_mapper.html" target="_top" xlink:title="vtkAbstractMapper &#45; abstract class specifies interface to map data">
<polygon fill="none" stroke="black" points="76.5,-301 76.5,-321 183.5,-321 183.5,-301 76.5,-301"/>
<text text-anchor="middle" x="130" y="-308" font-family="FreeSans" font-size="10.00">vtkAbstractMapper</text>
</a>
</g>
<!-- Node6&#45;&gt;Node5 -->
<g id="edge10" class="edge"><title>Node6&#45;&gt;Node5</title>
<path fill="none" stroke="midnightblue" d="M130,-290.516C130,-280.562 130,-269.05 130,-261.028"/>
<polygon fill="midnightblue" stroke="midnightblue" points="126.5,-290.822 130,-300.822 133.5,-290.822 126.5,-290.822"/>
</g>
<!-- Node7 -->
<g id="node12" class="node"><title>Node7</title>
<a xlink:href="class_kitware_1_1_v_t_k_1_1vtk_algorithm.html" target="_top" xlink:title="vtkAlgorithm &#45; Superclass for all sources, filters, and sinks in VTK.">
<polygon fill="none" stroke="black" points="91.5,-361 91.5,-381 168.5,-381 168.5,-361 91.5,-361"/>
<text text-anchor="middle" x="130" y="-368" font-family="FreeSans" font-size="10.00">vtkAlgorithm</text>
</a>
</g>
<!-- Node7&#45;&gt;Node6 -->
<g id="edge12" class="edge"><title>Node7&#45;&gt;Node6</title>
<path fill="none" stroke="midnightblue" d="M130,-350.516C130,-340.562 130,-329.05 130,-321.028"/>
<polygon fill="midnightblue" stroke="midnightblue" points="126.5,-350.822 130,-360.822 133.5,-350.822 126.5,-350.822"/>
</g>
<!-- Node8 -->
<g id="node14" class="node"><title>Node8</title>
<a xlink:href="class_kitware_1_1_v_t_k_1_1vtk_object.html" target="_top" xlink:title="vtkObject &#45; abstract base class for most VTK objects">
<polygon fill="none" stroke="black" points="99,-421 99,-441 161,-441 161,-421 99,-421"/>
<text text-anchor="middle" x="130" y="-428" font-family="FreeSans" font-size="10.00">vtkObject</text>
</a>
</g>
<!-- Node8&#45;&gt;Node7 -->
<g id="edge14" class="edge"><title>Node8&#45;&gt;Node7</title>
<path fill="none" stroke="midnightblue" d="M130,-410.516C130,-400.562 130,-389.05 130,-381.028"/>
<polygon fill="midnightblue" stroke="midnightblue" points="126.5,-410.822 130,-420.822 133.5,-410.822 126.5,-410.822"/>
</g>
<!-- Node9 -->
<g id="node16" class="node"><title>Node9</title>
<a xlink:href="class_kitware_1_1_v_t_k_1_1vtk_object_base.html" target="_top" xlink:title="vtkObjectBase &#45; abstract base class for most VTK objects">
<polygon fill="none" stroke="black" points="150,-861 150,-881 236,-881 236,-861 150,-861"/>
<text text-anchor="middle" x="193" y="-868" font-family="FreeSans" font-size="10.00">vtkObjectBase</text>
</a>
</g>
<!-- Node9&#45;&gt;Node8 -->
<g id="edge16" class="edge"><title>Node9&#45;&gt;Node8</title>
<path fill="none" stroke="midnightblue" d="M164.423,-855.886C150.687,-847.44 134.884,-835.826 124,-822 112.156,-806.955 111.621,-800.802 108,-782 82.4248,-649.199 117.577,-483.437 127.516,-441.17"/>
<polygon fill="midnightblue" stroke="midnightblue" points="162.683,-858.923 173.079,-860.97 166.229,-852.887 162.683,-858.923"/>
</g>
<!-- Node12 -->
<g id="node23" class="node"><title>Node12</title>
<a xlink:href="class_kitware_1_1_v_t_k_1_1vtk_object.html" target="_top" xlink:title="vtkObject &#45; abstract base class for most VTK objects">
<polygon fill="none" stroke="black" points="133,-801 133,-821 253,-821 253,-801 133,-801"/>
<text text-anchor="middle" x="193" y="-808" font-family="FreeSans" font-size="10.00">Kitware.VTK.vtkObject</text>
</a>
</g>
<!-- Node9&#45;&gt;Node12 -->
<g id="edge26" class="edge"><title>Node9&#45;&gt;Node12</title>
<path fill="none" stroke="midnightblue" d="M193,-850.516C193,-840.562 193,-829.05 193,-821.028"/>
<polygon fill="midnightblue" stroke="midnightblue" points="189.5,-850.822 193,-860.822 196.5,-850.822 189.5,-850.822"/>
</g>
<!-- Node10 -->
<g id="node18" class="node"><title>Node10</title>
<a xlink:href="class_kitware_1_1_v_t_k_1_1_wrapped_object.html" target="_top" xlink:title="Base class for all the mummy wrapped classes in Kitware.VTK.">
<polygon fill="none" stroke="black" points="331.5,-921 331.5,-941 420.5,-941 420.5,-921 331.5,-921"/>
<text text-anchor="middle" x="376" y="-928" font-family="FreeSans" font-size="10.00">WrappedObject</text>
</a>
</g>
<!-- Node10&#45;&gt;Node9 -->
<g id="edge18" class="edge"><title>Node10&#45;&gt;Node9</title>
<path fill="none" stroke="midnightblue" d="M335.804,-917.821C302.042,-906.752 254.512,-891.168 223.73,-881.075"/>
<polygon fill="midnightblue" stroke="midnightblue" points="334.777,-921.168 345.37,-920.957 336.958,-914.516 334.777,-921.168"/>
</g>
<!-- Node11 -->
<g id="node20" class="node"><title>Node11</title>
<a xlink:href="class_kitware_1_1_v_t_k_1_1vtk_object_event_relay.html" target="_top" xlink:title="Implement a relay handler for VTK events. This is a class that receives events directly from the VTK ...">
<polygon fill="none" stroke="black" points="122,-611 122,-631 294,-631 294,-611 122,-611"/>
<text text-anchor="middle" x="208" y="-618" font-family="FreeSans" font-size="10.00">Kitware.VTK.vtkObjectEventRelay</text>
</a>
</g>
<!-- Node10&#45;&gt;Node11 -->
<g id="edge22" class="edge"><title>Node10&#45;&gt;Node11</title>
<path fill="none" stroke="midnightblue" d="M388.888,-912.325C421.276,-862.899 498.803,-727.191 431,-650 421.773,-639.495 353.047,-631.666 294.298,-626.808"/>
<polygon fill="midnightblue" stroke="midnightblue" points="385.891,-910.509 383.239,-920.767 391.709,-914.402 385.891,-910.509"/>
</g>
<!-- Node11&#45;&gt;Node8 -->
<g id="edge20" class="edge"><title>Node11&#45;&gt;Node8</title>
<path fill="none" stroke="#9a32cd" stroke-dasharray="5,2" d="M199.921,-601.321C183.489,-561.293 146.674,-471.616 134.214,-441.266"/>
<polygon fill="#9a32cd" stroke="#9a32cd" points="196.771,-602.863 203.806,-610.785 203.246,-600.205 196.771,-602.863"/>
<text text-anchor="middle" x="307.5" y="-583" font-family="FreeSans" font-size="10.00"> LeftButtonReleaseEvtRelay</text>
<text text-anchor="middle" x="307.5" y="-571" font-family="FreeSans" font-size="10.00">KeyPressEvtRelay</text>
<text text-anchor="middle" x="307.5" y="-559" font-family="FreeSans" font-size="10.00">DomainModifiedEvtRelay</text>
<text text-anchor="middle" x="307.5" y="-547" font-family="FreeSans" font-size="10.00">VolumeMapperComputeGradientsStartEvtRelay</text>
<text text-anchor="middle" x="307.5" y="-535" font-family="FreeSans" font-size="10.00">ErrorEvtRelay</text>
<text text-anchor="middle" x="307.5" y="-523" font-family="FreeSans" font-size="10.00">VolumeMapperRenderStartEvtRelay</text>
<text text-anchor="middle" x="307.5" y="-511" font-family="FreeSans" font-size="10.00">StartEvtRelay</text>
<text text-anchor="middle" x="307.5" y="-499" font-family="FreeSans" font-size="10.00">ResetCameraEvtRelay</text>
<text text-anchor="middle" x="307.5" y="-487" font-family="FreeSans" font-size="10.00">EnableEvtRelay</text>
<text text-anchor="middle" x="307.5" y="-475" font-family="FreeSans" font-size="10.00">DeleteEvtRelay</text>
<text text-anchor="middle" x="307.5" y="-463" font-family="FreeSans" font-size="10.00">...</text>
</g>
<!-- Node11&#45;&gt;Node12 -->
<g id="edge28" class="edge"><title>Node11&#45;&gt;Node12</title>
<path fill="none" stroke="#9a32cd" stroke-dasharray="5,2" d="M205.028,-641.231C204.649,-644.169 204.293,-647.159 204,-650 198.144,-706.853 194.636,-775.333 193.452,-800.807"/>
<polygon fill="#9a32cd" stroke="#9a32cd" points="208.515,-641.565 206.421,-631.179 201.582,-640.604 208.515,-641.565"/>
<text text-anchor="middle" x="317.5" y="-773" font-family="FreeSans" font-size="10.00"> LeftButtonReleaseEvtRelay</text>
<text text-anchor="middle" x="317.5" y="-761" font-family="FreeSans" font-size="10.00">KeyPressEvtRelay</text>
<text text-anchor="middle" x="317.5" y="-749" font-family="FreeSans" font-size="10.00">DomainModifiedEvtRelay</text>
<text text-anchor="middle" x="317.5" y="-737" font-family="FreeSans" font-size="10.00">VolumeMapperComputeGradientsStartEvtRelay</text>
<text text-anchor="middle" x="317.5" y="-725" font-family="FreeSans" font-size="10.00">ErrorEvtRelay</text>
<text text-anchor="middle" x="317.5" y="-713" font-family="FreeSans" font-size="10.00">VolumeMapperRenderStartEvtRelay</text>
<text text-anchor="middle" x="317.5" y="-701" font-family="FreeSans" font-size="10.00">StartEvtRelay</text>
<text text-anchor="middle" x="317.5" y="-689" font-family="FreeSans" font-size="10.00">ResetCameraEvtRelay</text>
<text text-anchor="middle" x="317.5" y="-677" font-family="FreeSans" font-size="10.00">EnableEvtRelay</text>
<text text-anchor="middle" x="317.5" y="-665" font-family="FreeSans" font-size="10.00">DeleteEvtRelay</text>
<text text-anchor="middle" x="317.5" y="-653" font-family="FreeSans" font-size="10.00">...</text>
</g>
<!-- Node12&#45;&gt;Node11 -->
<g id="edge24" class="edge"><title>Node12&#45;&gt;Node11</title>
<path fill="none" stroke="#9a32cd" stroke-dasharray="5,2" d="M146.979,-795.818C141.439,-792.138 136.51,-787.596 133,-782 101.823,-732.303 99.8299,-698.389 133,-650 137.736,-643.091 154.511,-636.287 170.999,-631.008"/>
<polygon fill="#9a32cd" stroke="#9a32cd" points="145.639,-799.079 156.072,-800.919 149.064,-792.974 145.639,-799.079"/>
<text text-anchor="middle" x="157" y="-719" font-family="FreeSans" font-size="10.00"> Sender</text>
<text text-anchor="middle" x="157" y="-707" font-family="FreeSans" font-size="10.00">EventImpl</text>
</g>
</g>
</svg>
