<?xml version="1.0" encoding="UTF-8" standalone="no"?>
<!DOCTYPE svg PUBLIC "-//W3C//DTD SVG 1.1//EN"
 "http://www.w3.org/Graphics/SVG/1.1/DTD/svg11.dtd">
<!-- Generated by graphviz version 2.26.3 (20100126.1600)
 -->
<!-- Title: G Pages: 1 -->
<svg width="244pt" height="494pt"
 viewBox="0.00 0.00 244.00 494.00" xmlns="http://www.w3.org/2000/svg" xmlns:xlink="http://www.w3.org/1999/xlink">
<g id="graph1" class="graph" transform="scale(1 1) rotate(0) translate(4 490)">
<title>G</title>
<!-- Node1 -->
<g id="node1" class="node"><title>Node1</title>
<polygon fill="#bfbfbf" stroke="black" points="0,-1 0,-21 236,-21 236,-1 0,-1"/>
<text text-anchor="middle" x="118" y="-8" font-family="FreeSans" font-size="10.00">Kitware.VTK.vtkImageMultipleInputOutputFilter</text>
</g>
<!-- Node2 -->
<g id="node2" class="node"><title>Node2</title>
<a xlink:href="class_kitware_1_1_v_t_k_1_1vtk_image_multiple_input_filter.html" target="_top" xlink:title="vtkImageMultipleInputFilter &#45; Generic filter that has N inputs.">
<polygon fill="none" stroke="black" points="46,-59 46,-79 190,-79 190,-59 46,-59"/>
<text text-anchor="middle" x="118" y="-66" font-family="FreeSans" font-size="10.00">vtkImageMultipleInputFilter</text>
</a>
</g>
<!-- Node2&#45;&gt;Node1 -->
<g id="edge2" class="edge"><title>Node2&#45;&gt;Node1</title>
<path fill="none" stroke="midnightblue" d="M118,-48.8902C118,-39.6201 118,-29.0083 118,-21.3776"/>
<polygon fill="midnightblue" stroke="midnightblue" points="114.5,-48.8971 118,-58.8972 121.5,-48.8972 114.5,-48.8971"/>
</g>
<!-- Node3 -->
<g id="node4" class="node"><title>Node3</title>
<a xlink:href="class_kitware_1_1_v_t_k_1_1vtk_image_source.html" target="_top" xlink:title="vtkImageSource &#45; Source of data for the imaging pipeline">
<polygon fill="none" stroke="black" points="70.5,-117 70.5,-137 165.5,-137 165.5,-117 70.5,-117"/>
<text text-anchor="middle" x="118" y="-124" font-family="FreeSans" font-size="10.00">vtkImageSource</text>
</a>
</g>
<!-- Node3&#45;&gt;Node2 -->
<g id="edge4" class="edge"><title>Node3&#45;&gt;Node2</title>
<path fill="none" stroke="midnightblue" d="M118,-106.89C118,-97.6201 118,-87.0083 118,-79.3776"/>
<polygon fill="midnightblue" stroke="midnightblue" points="114.5,-106.897 118,-116.897 121.5,-106.897 114.5,-106.897"/>
</g>
<!-- Node4 -->
<g id="node6" class="node"><title>Node4</title>
<a xlink:href="class_kitware_1_1_v_t_k_1_1vtk_source.html" target="_top" xlink:title="vtkSource &#45; abstract class specifies interface for visualization network source">
<polygon fill="none" stroke="black" points="85.5,-175 85.5,-195 150.5,-195 150.5,-175 85.5,-175"/>
<text text-anchor="middle" x="118" y="-182" font-family="FreeSans" font-size="10.00">vtkSource</text>
</a>
</g>
<!-- Node4&#45;&gt;Node3 -->
<g id="edge6" class="edge"><title>Node4&#45;&gt;Node3</title>
<path fill="none" stroke="midnightblue" d="M118,-164.89C118,-155.62 118,-145.008 118,-137.378"/>
<polygon fill="midnightblue" stroke="midnightblue" points="114.5,-164.897 118,-174.897 121.5,-164.897 114.5,-164.897"/>
</g>
<!-- Node5 -->
<g id="node8" class="node"><title>Node5</title>
<a xlink:href="class_kitware_1_1_v_t_k_1_1vtk_process_object.html" target="_top" xlink:title="vtkProcessObject &#45; abstract class specifies interface for visualization filters">
<polygon fill="none" stroke="black" points="68.5,-233 68.5,-253 167.5,-253 167.5,-233 68.5,-233"/>
<text text-anchor="middle" x="118" y="-240" font-family="FreeSans" font-size="10.00">vtkProcessObject</text>
</a>
</g>
<!-- Node5&#45;&gt;Node4 -->
<g id="edge8" class="edge"><title>Node5&#45;&gt;Node4</title>
<path fill="none" stroke="midnightblue" d="M118,-222.89C118,-213.62 118,-203.008 118,-195.378"/>
<polygon fill="midnightblue" stroke="midnightblue" points="114.5,-222.897 118,-232.897 121.5,-222.897 114.5,-222.897"/>
</g>
<!-- Node6 -->
<g id="node10" class="node"><title>Node6</title>
<a xlink:href="class_kitware_1_1_v_t_k_1_1vtk_algorithm.html" target="_top" xlink:title="vtkAlgorithm &#45; Superclass for all sources, filters, and sinks in VTK.">
<polygon fill="none" stroke="black" points="79.5,-291 79.5,-311 156.5,-311 156.5,-291 79.5,-291"/>
<text text-anchor="middle" x="118" y="-298" font-family="FreeSans" font-size="10.00">vtkAlgorithm</text>
</a>
</g>
<!-- Node6&#45;&gt;Node5 -->
<g id="edge10" class="edge"><title>Node6&#45;&gt;Node5</title>
<path fill="none" stroke="midnightblue" d="M118,-280.89C118,-271.62 118,-261.008 118,-253.378"/>
<polygon fill="midnightblue" stroke="midnightblue" points="114.5,-280.897 118,-290.897 121.5,-280.897 114.5,-280.897"/>
</g>
<!-- Node7 -->
<g id="node12" class="node"><title>Node7</title>
<a xlink:href="class_kitware_1_1_v_t_k_1_1vtk_object.html" target="_top" xlink:title="vtkObject &#45; abstract base class for most VTK objects">
<polygon fill="none" stroke="black" points="87,-349 87,-369 149,-369 149,-349 87,-349"/>
<text text-anchor="middle" x="118" y="-356" font-family="FreeSans" font-size="10.00">vtkObject</text>
</a>
</g>
<!-- Node7&#45;&gt;Node6 -->
<g id="edge12" class="edge"><title>Node7&#45;&gt;Node6</title>
<path fill="none" stroke="midnightblue" d="M118,-338.89C118,-329.62 118,-319.008 118,-311.378"/>
<polygon fill="midnightblue" stroke="midnightblue" points="114.5,-338.897 118,-348.897 121.5,-338.897 114.5,-338.897"/>
</g>
<!-- Node8 -->
<g id="node14" class="node"><title>Node8</title>
<a xlink:href="class_kitware_1_1_v_t_k_1_1vtk_object_base.html" target="_top" xlink:title="vtkObjectBase &#45; abstract base class for most VTK objects">
<polygon fill="none" stroke="black" points="75,-407 75,-427 161,-427 161,-407 75,-407"/>
<text text-anchor="middle" x="118" y="-414" font-family="FreeSans" font-size="10.00">vtkObjectBase</text>
</a>
</g>
<!-- Node8&#45;&gt;Node7 -->
<g id="edge14" class="edge"><title>Node8&#45;&gt;Node7</title>
<path fill="none" stroke="midnightblue" d="M118,-396.89C118,-387.62 118,-377.008 118,-369.378"/>
<polygon fill="midnightblue" stroke="midnightblue" points="114.5,-396.897 118,-406.897 121.5,-396.897 114.5,-396.897"/>
</g>
<!-- Node9 -->
<g id="node16" class="node"><title>Node9</title>
<a xlink:href="class_kitware_1_1_v_t_k_1_1_wrapped_object.html" target="_top" xlink:title="Base class for all the mummy wrapped classes in Kitware.VTK.">
<polygon fill="none" stroke="black" points="73.5,-465 73.5,-485 162.5,-485 162.5,-465 73.5,-465"/>
<text text-anchor="middle" x="118" y="-472" font-family="FreeSans" font-size="10.00">WrappedObject</text>
</a>
</g>
<!-- Node9&#45;&gt;Node8 -->
<g id="edge16" class="edge"><title>Node9&#45;&gt;Node8</title>
<path fill="none" stroke="midnightblue" d="M118,-454.89C118,-445.62 118,-435.008 118,-427.378"/>
<polygon fill="midnightblue" stroke="midnightblue" points="114.5,-454.897 118,-464.897 121.5,-454.897 114.5,-454.897"/>
</g>
</g>
</svg>
