<?xml version="1.0" encoding="UTF-8" standalone="no"?>
<!DOCTYPE svg PUBLIC "-//W3C//DTD SVG 1.1//EN"
 "http://www.w3.org/Graphics/SVG/1.1/DTD/svg11.dtd">
<!-- Generated by graphviz version 2.26.3 (20100126.1600)
 -->
<!-- Title: G Pages: 1 -->
<svg width="448pt" height="890pt"
 viewBox="0.00 0.00 448.46 890.00" xmlns="http://www.w3.org/2000/svg" xmlns:xlink="http://www.w3.org/1999/xlink">
<g id="graph1" class="graph" transform="scale(1 1) rotate(0) translate(4 886)">
<title>G</title>
<!-- Node1 -->
<g id="node1" class="node"><title>Node1</title>
<polygon fill="#bfbfbf" stroke="black" points="0,-1 0,-21 224,-21 224,-1 0,-1"/>
<text text-anchor="middle" x="112" y="-8" font-family="FreeSans" font-size="10.00">Kitware.VTK.vtkHierarchicalPolyDataMapper</text>
</g>
<!-- Node2 -->
<g id="node2" class="node"><title>Node2</title>
<a xlink:href="class_kitware_1_1_v_t_k_1_1vtk_composite_poly_data_mapper.html" target="_top" xlink:title="vtkCompositePolyDataMapper &#45; a class that renders hierarchical polygonal data">
<polygon fill="none" stroke="black" points="31.5,-61 31.5,-81 192.5,-81 192.5,-61 31.5,-61"/>
<text text-anchor="middle" x="112" y="-68" font-family="FreeSans" font-size="10.00">vtkCompositePolyDataMapper</text>
</a>
</g>
<!-- Node2&#45;&gt;Node1 -->
<g id="edge2" class="edge"><title>Node2&#45;&gt;Node1</title>
<path fill="none" stroke="midnightblue" d="M112,-50.5155C112,-40.562 112,-29.0495 112,-21.0279"/>
<polygon fill="midnightblue" stroke="midnightblue" points="108.5,-50.8218 112,-60.8218 115.5,-50.8219 108.5,-50.8218"/>
</g>
<!-- Node3 -->
<g id="node4" class="node"><title>Node3</title>
<a xlink:href="class_kitware_1_1_v_t_k_1_1vtk_mapper.html" target="_top" xlink:title="vtkMapper &#45; abstract class specifies interface to map data to graphics primitives">
<polygon fill="none" stroke="black" points="78.5,-121 78.5,-141 145.5,-141 145.5,-121 78.5,-121"/>
<text text-anchor="middle" x="112" y="-128" font-family="FreeSans" font-size="10.00">vtkMapper</text>
</a>
</g>
<!-- Node3&#45;&gt;Node2 -->
<g id="edge4" class="edge"><title>Node3&#45;&gt;Node2</title>
<path fill="none" stroke="midnightblue" d="M112,-110.516C112,-100.562 112,-89.0495 112,-81.0279"/>
<polygon fill="midnightblue" stroke="midnightblue" points="108.5,-110.822 112,-120.822 115.5,-110.822 108.5,-110.822"/>
</g>
<!-- Node4 -->
<g id="node6" class="node"><title>Node4</title>
<a xlink:href="class_kitware_1_1_v_t_k_1_1vtk_abstract_mapper3_d.html" target="_top" xlink:title="vtkAbstractMapper3D &#45; abstract class specifies interface to map 3D data">
<polygon fill="none" stroke="black" points="51.5,-181 51.5,-201 172.5,-201 172.5,-181 51.5,-181"/>
<text text-anchor="middle" x="112" y="-188" font-family="FreeSans" font-size="10.00">vtkAbstractMapper3D</text>
</a>
</g>
<!-- Node4&#45;&gt;Node3 -->
<g id="edge6" class="edge"><title>Node4&#45;&gt;Node3</title>
<path fill="none" stroke="midnightblue" d="M112,-170.516C112,-160.562 112,-149.05 112,-141.028"/>
<polygon fill="midnightblue" stroke="midnightblue" points="108.5,-170.822 112,-180.822 115.5,-170.822 108.5,-170.822"/>
</g>
<!-- Node5 -->
<g id="node8" class="node"><title>Node5</title>
<a xlink:href="class_kitware_1_1_v_t_k_1_1vtk_abstract_mapper.html" target="_top" xlink:title="vtkAbstractMapper &#45; abstract class specifies interface to map data">
<polygon fill="none" stroke="black" points="58.5,-241 58.5,-261 165.5,-261 165.5,-241 58.5,-241"/>
<text text-anchor="middle" x="112" y="-248" font-family="FreeSans" font-size="10.00">vtkAbstractMapper</text>
</a>
</g>
<!-- Node5&#45;&gt;Node4 -->
<g id="edge8" class="edge"><title>Node5&#45;&gt;Node4</title>
<path fill="none" stroke="midnightblue" d="M112,-230.516C112,-220.562 112,-209.05 112,-201.028"/>
<polygon fill="midnightblue" stroke="midnightblue" points="108.5,-230.822 112,-240.822 115.5,-230.822 108.5,-230.822"/>
</g>
<!-- Node6 -->
<g id="node10" class="node"><title>Node6</title>
<a xlink:href="class_kitware_1_1_v_t_k_1_1vtk_algorithm.html" target="_top" xlink:title="vtkAlgorithm &#45; Superclass for all sources, filters, and sinks in VTK.">
<polygon fill="none" stroke="black" points="73.5,-301 73.5,-321 150.5,-321 150.5,-301 73.5,-301"/>
<text text-anchor="middle" x="112" y="-308" font-family="FreeSans" font-size="10.00">vtkAlgorithm</text>
</a>
</g>
<!-- Node6&#45;&gt;Node5 -->
<g id="edge10" class="edge"><title>Node6&#45;&gt;Node5</title>
<path fill="none" stroke="midnightblue" d="M112,-290.516C112,-280.562 112,-269.05 112,-261.028"/>
<polygon fill="midnightblue" stroke="midnightblue" points="108.5,-290.822 112,-300.822 115.5,-290.822 108.5,-290.822"/>
</g>
<!-- Node7 -->
<g id="node12" class="node"><title>Node7</title>
<a xlink:href="class_kitware_1_1_v_t_k_1_1vtk_object.html" target="_top" xlink:title="vtkObject &#45; abstract base class for most VTK objects">
<polygon fill="none" stroke="black" points="81,-361 81,-381 143,-381 143,-361 81,-361"/>
<text text-anchor="middle" x="112" y="-368" font-family="FreeSans" font-size="10.00">vtkObject</text>
</a>
</g>
<!-- Node7&#45;&gt;Node6 -->
<g id="edge12" class="edge"><title>Node7&#45;&gt;Node6</title>
<path fill="none" stroke="midnightblue" d="M112,-350.516C112,-340.562 112,-329.05 112,-321.028"/>
<polygon fill="midnightblue" stroke="midnightblue" points="108.5,-350.822 112,-360.822 115.5,-350.822 108.5,-350.822"/>
</g>
<!-- Node8 -->
<g id="node14" class="node"><title>Node8</title>
<a xlink:href="class_kitware_1_1_v_t_k_1_1vtk_object_base.html" target="_top" xlink:title="vtkObjectBase &#45; abstract base class for most VTK objects">
<polygon fill="none" stroke="black" points="132,-801 132,-821 218,-821 218,-801 132,-801"/>
<text text-anchor="middle" x="175" y="-808" font-family="FreeSans" font-size="10.00">vtkObjectBase</text>
</a>
</g>
<!-- Node8&#45;&gt;Node7 -->
<g id="edge14" class="edge"><title>Node8&#45;&gt;Node7</title>
<path fill="none" stroke="midnightblue" d="M146.423,-795.886C132.687,-787.44 116.884,-775.826 106,-762 94.1564,-746.955 93.6209,-740.802 90,-722 64.4248,-589.199 99.5766,-423.437 109.516,-381.17"/>
<polygon fill="midnightblue" stroke="midnightblue" points="144.683,-798.923 155.079,-800.97 148.229,-792.887 144.683,-798.923"/>
</g>
<!-- Node11 -->
<g id="node21" class="node"><title>Node11</title>
<a xlink:href="class_kitware_1_1_v_t_k_1_1vtk_object.html" target="_top" xlink:title="vtkObject &#45; abstract base class for most VTK objects">
<polygon fill="none" stroke="black" points="115,-741 115,-761 235,-761 235,-741 115,-741"/>
<text text-anchor="middle" x="175" y="-748" font-family="FreeSans" font-size="10.00">Kitware.VTK.vtkObject</text>
</a>
</g>
<!-- Node8&#45;&gt;Node11 -->
<g id="edge24" class="edge"><title>Node8&#45;&gt;Node11</title>
<path fill="none" stroke="midnightblue" d="M175,-790.516C175,-780.562 175,-769.05 175,-761.028"/>
<polygon fill="midnightblue" stroke="midnightblue" points="171.5,-790.822 175,-800.822 178.5,-790.822 171.5,-790.822"/>
</g>
<!-- Node9 -->
<g id="node16" class="node"><title>Node9</title>
<a xlink:href="class_kitware_1_1_v_t_k_1_1_wrapped_object.html" target="_top" xlink:title="Base class for all the mummy wrapped classes in Kitware.VTK.">
<polygon fill="none" stroke="black" points="313.5,-861 313.5,-881 402.5,-881 402.5,-861 313.5,-861"/>
<text text-anchor="middle" x="358" y="-868" font-family="FreeSans" font-size="10.00">WrappedObject</text>
</a>
</g>
<!-- Node9&#45;&gt;Node8 -->
<g id="edge16" class="edge"><title>Node9&#45;&gt;Node8</title>
<path fill="none" stroke="midnightblue" d="M317.804,-857.821C284.042,-846.752 236.512,-831.168 205.73,-821.075"/>
<polygon fill="midnightblue" stroke="midnightblue" points="316.777,-861.168 327.37,-860.957 318.958,-854.516 316.777,-861.168"/>
</g>
<!-- Node10 -->
<g id="node18" class="node"><title>Node10</title>
<a xlink:href="class_kitware_1_1_v_t_k_1_1vtk_object_event_relay.html" target="_top" xlink:title="Implement a relay handler for VTK events. This is a class that receives events directly from the VTK ...">
<polygon fill="none" stroke="black" points="104,-551 104,-571 276,-571 276,-551 104,-551"/>
<text text-anchor="middle" x="190" y="-558" font-family="FreeSans" font-size="10.00">Kitware.VTK.vtkObjectEventRelay</text>
</a>
</g>
<!-- Node9&#45;&gt;Node10 -->
<g id="edge20" class="edge"><title>Node9&#45;&gt;Node10</title>
<path fill="none" stroke="midnightblue" d="M370.888,-852.325C403.276,-802.899 480.803,-667.191 413,-590 403.773,-579.495 335.047,-571.666 276.298,-566.808"/>
<polygon fill="midnightblue" stroke="midnightblue" points="367.891,-850.509 365.239,-860.767 373.709,-854.402 367.891,-850.509"/>
</g>
<!-- Node10&#45;&gt;Node7 -->
<g id="edge18" class="edge"><title>Node10&#45;&gt;Node7</title>
<path fill="none" stroke="#9a32cd" stroke-dasharray="5,2" d="M181.921,-541.321C165.489,-501.293 128.674,-411.616 116.214,-381.266"/>
<polygon fill="#9a32cd" stroke="#9a32cd" points="178.771,-542.863 185.806,-550.785 185.246,-540.205 178.771,-542.863"/>
<text text-anchor="middle" x="289.5" y="-523" font-family="FreeSans" font-size="10.00"> LeftButtonReleaseEvtRelay</text>
<text text-anchor="middle" x="289.5" y="-511" font-family="FreeSans" font-size="10.00">KeyPressEvtRelay</text>
<text text-anchor="middle" x="289.5" y="-499" font-family="FreeSans" font-size="10.00">DomainModifiedEvtRelay</text>
<text text-anchor="middle" x="289.5" y="-487" font-family="FreeSans" font-size="10.00">VolumeMapperComputeGradientsStartEvtRelay</text>
<text text-anchor="middle" x="289.5" y="-475" font-family="FreeSans" font-size="10.00">ErrorEvtRelay</text>
<text text-anchor="middle" x="289.5" y="-463" font-family="FreeSans" font-size="10.00">VolumeMapperRenderStartEvtRelay</text>
<text text-anchor="middle" x="289.5" y="-451" font-family="FreeSans" font-size="10.00">StartEvtRelay</text>
<text text-anchor="middle" x="289.5" y="-439" font-family="FreeSans" font-size="10.00">ResetCameraEvtRelay</text>
<text text-anchor="middle" x="289.5" y="-427" font-family="FreeSans" font-size="10.00">EnableEvtRelay</text>
<text text-anchor="middle" x="289.5" y="-415" font-family="FreeSans" font-size="10.00">DeleteEvtRelay</text>
<text text-anchor="middle" x="289.5" y="-403" font-family="FreeSans" font-size="10.00">...</text>
</g>
<!-- Node10&#45;&gt;Node11 -->
<g id="edge26" class="edge"><title>Node10&#45;&gt;Node11</title>
<path fill="none" stroke="#9a32cd" stroke-dasharray="5,2" d="M187.028,-581.231C186.649,-584.169 186.293,-587.159 186,-590 180.144,-646.853 176.636,-715.333 175.452,-740.807"/>
<polygon fill="#9a32cd" stroke="#9a32cd" points="190.515,-581.565 188.421,-571.179 183.582,-580.604 190.515,-581.565"/>
<text text-anchor="middle" x="299.5" y="-713" font-family="FreeSans" font-size="10.00"> LeftButtonReleaseEvtRelay</text>
<text text-anchor="middle" x="299.5" y="-701" font-family="FreeSans" font-size="10.00">KeyPressEvtRelay</text>
<text text-anchor="middle" x="299.5" y="-689" font-family="FreeSans" font-size="10.00">DomainModifiedEvtRelay</text>
<text text-anchor="middle" x="299.5" y="-677" font-family="FreeSans" font-size="10.00">VolumeMapperComputeGradientsStartEvtRelay</text>
<text text-anchor="middle" x="299.5" y="-665" font-family="FreeSans" font-size="10.00">ErrorEvtRelay</text>
<text text-anchor="middle" x="299.5" y="-653" font-family="FreeSans" font-size="10.00">VolumeMapperRenderStartEvtRelay</text>
<text text-anchor="middle" x="299.5" y="-641" font-family="FreeSans" font-size="10.00">StartEvtRelay</text>
<text text-anchor="middle" x="299.5" y="-629" font-family="FreeSans" font-size="10.00">ResetCameraEvtRelay</text>
<text text-anchor="middle" x="299.5" y="-617" font-family="FreeSans" font-size="10.00">EnableEvtRelay</text>
<text text-anchor="middle" x="299.5" y="-605" font-family="FreeSans" font-size="10.00">DeleteEvtRelay</text>
<text text-anchor="middle" x="299.5" y="-593" font-family="FreeSans" font-size="10.00">...</text>
</g>
<!-- Node11&#45;&gt;Node10 -->
<g id="edge22" class="edge"><title>Node11&#45;&gt;Node10</title>
<path fill="none" stroke="#9a32cd" stroke-dasharray="5,2" d="M128.979,-735.818C123.439,-732.138 118.51,-727.596 115,-722 83.8229,-672.303 81.8299,-638.389 115,-590 119.736,-583.091 136.511,-576.287 152.999,-571.008"/>
<polygon fill="#9a32cd" stroke="#9a32cd" points="127.639,-739.079 138.072,-740.919 131.064,-732.974 127.639,-739.079"/>
<text text-anchor="middle" x="139" y="-659" font-family="FreeSans" font-size="10.00"> Sender</text>
<text text-anchor="middle" x="139" y="-647" font-family="FreeSans" font-size="10.00">EventImpl</text>
</g>
</g>
</svg>
