<?xml version="1.0" encoding="UTF-8" standalone="no"?>
<!DOCTYPE svg PUBLIC "-//W3C//DTD SVG 1.1//EN"
 "http://www.w3.org/Graphics/SVG/1.1/DTD/svg11.dtd">
<!-- Generated by graphviz version 2.26.3 (20100126.1600)
 -->
<!-- Title: G Pages: 1 -->
<svg width="1392pt" height="332pt"
 viewBox="0.00 0.00 1392.00 332.00" xmlns="http://www.w3.org/2000/svg" xmlns:xlink="http://www.w3.org/1999/xlink">
<g id="graph1" class="graph" transform="scale(1 1) rotate(0) translate(4 328)">
<title>G</title>
<!-- Node1 -->
<g id="node1" class="node"><title>Node1</title>
<polygon fill="#bfbfbf" stroke="black" points="604,-152 604,-172 762,-172 762,-152 604,-152"/>
<text text-anchor="middle" x="683" y="-159" font-family="FreeSans" font-size="10.00">Kitware.VTK.vtkImageReader2</text>
</g>
<!-- Node7 -->
<g id="node13" class="node"><title>Node7</title>
<a xlink:href="class_kitware_1_1_v_t_k_1_1vtk_d_i_c_o_m_image_reader.html" target="_top" xlink:title="vtkDICOMImageReader &#45; Reads some DICOM images">
<polygon fill="none" stroke="black" points="802.5,-304 802.5,-324 987.5,-324 987.5,-304 802.5,-304"/>
<text text-anchor="middle" x="895" y="-311" font-family="FreeSans" font-size="10.00">Kitware.VTK.vtkDICOMImageReader</text>
</a>
</g>
<!-- Node1&#45;&gt;Node7 -->
<g id="edge12" class="edge"><title>Node1&#45;&gt;Node7</title>
<path fill="none" stroke="midnightblue" d="M693.851,-181.303C711.561,-210.88 749.606,-266.928 798,-295 804.234,-298.616 811.034,-301.558 818.046,-303.948"/>
<polygon fill="midnightblue" stroke="midnightblue" points="696.701,-179.241 688.64,-172.366 690.654,-182.767 696.701,-179.241"/>
</g>
<!-- Node8 -->
<g id="node15" class="node"><title>Node8</title>
<a xlink:href="class_kitware_1_1_v_t_k_1_1vtk_image_reader.html" target="_top" xlink:title="vtkImageReader &#45; Superclass of transformable binary file readers.">
<polygon fill="none" stroke="black" points="819,-266 819,-286 971,-286 971,-266 819,-266"/>
<text text-anchor="middle" x="895" y="-273" font-family="FreeSans" font-size="10.00">Kitware.VTK.vtkImageReader</text>
</a>
</g>
<!-- Node1&#45;&gt;Node8 -->
<g id="edge14" class="edge"><title>Node1&#45;&gt;Node8</title>
<path fill="none" stroke="midnightblue" d="M699.006,-179.81C719.654,-201.604 757.732,-237.947 798,-257 805.678,-260.633 814.014,-263.571 822.465,-265.948"/>
<polygon fill="midnightblue" stroke="midnightblue" points="701.345,-177.186 691.978,-172.237 696.214,-181.947 701.345,-177.186"/>
</g>
<!-- Node13 -->
<g id="node25" class="node"><title>Node13</title>
<a xlink:href="class_kitware_1_1_v_t_k_1_1vtk_j_p_e_g_reader.html" target="_top" xlink:title="vtkJPEGReader &#45; read JPEG files">
<polygon fill="none" stroke="black" points="823,-228 823,-248 967,-248 967,-228 823,-228"/>
<text text-anchor="middle" x="895" y="-235" font-family="FreeSans" font-size="10.00">Kitware.VTK.vtkJPEGReader</text>
</a>
</g>
<!-- Node1&#45;&gt;Node13 -->
<g id="edge24" class="edge"><title>Node1&#45;&gt;Node13</title>
<path fill="none" stroke="midnightblue" d="M708.613,-177.182C731.372,-190.059 765.911,-208.124 798,-219 808.483,-222.553 819.841,-225.522 830.967,-227.975"/>
<polygon fill="midnightblue" stroke="midnightblue" points="710.328,-174.132 699.914,-172.187 706.843,-180.202 710.328,-174.132"/>
</g>
<!-- Node14 -->
<g id="node27" class="node"><title>Node14</title>
<a xlink:href="class_kitware_1_1_v_t_k_1_1vtk_medical_image_reader2.html" target="_top" xlink:title="vtkMedicalImageReader2 &#45; vtkImageReader2 with medical meta data.">
<polygon fill="none" stroke="black" points="798,-190 798,-210 992,-210 992,-190 798,-190"/>
<text text-anchor="middle" x="895" y="-197" font-family="FreeSans" font-size="10.00">Kitware.VTK.vtkMedicalImageReader2</text>
</a>
</g>
<!-- Node1&#45;&gt;Node14 -->
<g id="edge26" class="edge"><title>Node1&#45;&gt;Node14</title>
<path fill="none" stroke="midnightblue" d="M748.988,-173.828C777.884,-179.008 811.431,-185.021 839.076,-189.976"/>
<polygon fill="midnightblue" stroke="midnightblue" points="749.438,-170.353 738.978,-172.034 748.203,-177.243 749.438,-170.353"/>
</g>
<!-- Node16 -->
<g id="node31" class="node"><title>Node16</title>
<a xlink:href="class_kitware_1_1_v_t_k_1_1vtk_meta_image_reader.html" target="_top" xlink:title="vtkMetaImageReader &#45; read binary UNC meta image data">
<polygon fill="none" stroke="black" points="807,-152 807,-172 983,-172 983,-152 807,-152"/>
<text text-anchor="middle" x="895" y="-159" font-family="FreeSans" font-size="10.00">Kitware.VTK.vtkMetaImageReader</text>
</a>
</g>
<!-- Node1&#45;&gt;Node16 -->
<g id="edge30" class="edge"><title>Node1&#45;&gt;Node16</title>
<path fill="none" stroke="midnightblue" d="M772.252,-162C783.737,-162 795.491,-162 806.956,-162"/>
<polygon fill="midnightblue" stroke="midnightblue" points="772.242,-158.5 762.242,-162 772.242,-165.5 772.242,-158.5"/>
</g>
<!-- Node17 -->
<g id="node33" class="node"><title>Node17</title>
<a xlink:href="class_kitware_1_1_v_t_k_1_1vtk_m_i_n_c_image_reader.html" target="_top" xlink:title="vtkMINCImageReader &#45; A reader for MINC files.">
<polygon fill="none" stroke="black" points="806.5,-114 806.5,-134 983.5,-134 983.5,-114 806.5,-114"/>
<text text-anchor="middle" x="895" y="-121" font-family="FreeSans" font-size="10.00">Kitware.VTK.vtkMINCImageReader</text>
</a>
</g>
<!-- Node1&#45;&gt;Node17 -->
<g id="edge32" class="edge"><title>Node1&#45;&gt;Node17</title>
<path fill="none" stroke="midnightblue" d="M748.988,-150.172C777.884,-144.992 811.431,-138.979 839.076,-134.024"/>
<polygon fill="midnightblue" stroke="midnightblue" points="748.203,-146.757 738.978,-151.966 749.438,-153.647 748.203,-146.757"/>
</g>
<!-- Node18 -->
<g id="node35" class="node"><title>Node18</title>
<a xlink:href="class_kitware_1_1_v_t_k_1_1vtk_p_n_g_reader.html" target="_top" xlink:title="vtkPNGReader &#45; read PNG files">
<polygon fill="none" stroke="black" points="823.5,-76 823.5,-96 966.5,-96 966.5,-76 823.5,-76"/>
<text text-anchor="middle" x="895" y="-83" font-family="FreeSans" font-size="10.00">Kitware.VTK.vtkPNGReader</text>
</a>
</g>
<!-- Node1&#45;&gt;Node18 -->
<g id="edge34" class="edge"><title>Node1&#45;&gt;Node18</title>
<path fill="none" stroke="midnightblue" d="M708.613,-146.818C731.372,-133.941 765.911,-115.876 798,-105 808.483,-101.447 819.841,-98.4782 830.967,-96.0248"/>
<polygon fill="midnightblue" stroke="midnightblue" points="706.843,-143.798 699.914,-151.813 710.328,-149.868 706.843,-143.798"/>
</g>
<!-- Node19 -->
<g id="node37" class="node"><title>Node19</title>
<a xlink:href="class_kitware_1_1_v_t_k_1_1vtk_s_l_c_reader.html" target="_top" xlink:title="vtkSLCReader &#45; read an SLC volume file.">
<polygon fill="none" stroke="black" points="824.5,-38 824.5,-58 965.5,-58 965.5,-38 824.5,-38"/>
<text text-anchor="middle" x="895" y="-45" font-family="FreeSans" font-size="10.00">Kitware.VTK.vtkSLCReader</text>
</a>
</g>
<!-- Node1&#45;&gt;Node19 -->
<g id="edge36" class="edge"><title>Node1&#45;&gt;Node19</title>
<path fill="none" stroke="midnightblue" d="M699.006,-144.19C719.654,-122.396 757.732,-86.0529 798,-67 806.221,-63.1102 815.196,-60.0166 824.26,-57.5563"/>
<polygon fill="midnightblue" stroke="midnightblue" points="696.214,-142.053 691.978,-151.763 701.345,-146.814 696.214,-142.053"/>
</g>
<!-- Node20 -->
<g id="node39" class="node"><title>Node20</title>
<a xlink:href="class_kitware_1_1_v_t_k_1_1vtk_t_i_f_f_reader.html" target="_top" xlink:title="vtkTIFFReader &#45; read TIFF files">
<polygon fill="none" stroke="black" points="825,-0 825,-20 965,-20 965,-0 825,-0"/>
<text text-anchor="middle" x="895" y="-7" font-family="FreeSans" font-size="10.00">Kitware.VTK.vtkTIFFReader</text>
</a>
</g>
<!-- Node1&#45;&gt;Node20 -->
<g id="edge38" class="edge"><title>Node1&#45;&gt;Node20</title>
<path fill="none" stroke="midnightblue" d="M693.851,-142.697C711.561,-113.12 749.606,-57.0721 798,-29 806.238,-24.2212 815.464,-20.6214 824.861,-17.9141"/>
<polygon fill="midnightblue" stroke="midnightblue" points="690.654,-141.233 688.64,-151.634 696.701,-144.759 690.654,-141.233"/>
</g>
<!-- Node2 -->
<g id="node2" class="node"><title>Node2</title>
<a xlink:href="class_kitware_1_1_v_t_k_1_1vtk_image_algorithm.html" target="_top" xlink:title="vtkImageAlgorithm &#45; Generic algorithm superclass for image algs">
<polygon fill="none" stroke="black" points="460.5,-152 460.5,-172 567.5,-172 567.5,-152 460.5,-152"/>
<text text-anchor="middle" x="514" y="-159" font-family="FreeSans" font-size="10.00">vtkImageAlgorithm</text>
</a>
</g>
<!-- Node2&#45;&gt;Node1 -->
<g id="edge2" class="edge"><title>Node2&#45;&gt;Node1</title>
<path fill="none" stroke="midnightblue" d="M578.013,-162C586.41,-162 595.094,-162 603.705,-162"/>
<polygon fill="midnightblue" stroke="midnightblue" points="577.937,-158.5 567.937,-162 577.937,-165.5 577.937,-158.5"/>
</g>
<!-- Node3 -->
<g id="node4" class="node"><title>Node3</title>
<a xlink:href="class_kitware_1_1_v_t_k_1_1vtk_algorithm.html" target="_top" xlink:title="vtkAlgorithm &#45; Superclass for all sources, filters, and sinks in VTK.">
<polygon fill="none" stroke="black" points="346.5,-152 346.5,-172 423.5,-172 423.5,-152 346.5,-152"/>
<text text-anchor="middle" x="385" y="-159" font-family="FreeSans" font-size="10.00">vtkAlgorithm</text>
</a>
</g>
<!-- Node3&#45;&gt;Node2 -->
<g id="edge4" class="edge"><title>Node3&#45;&gt;Node2</title>
<path fill="none" stroke="midnightblue" d="M433.896,-162C442.445,-162 451.384,-162 460.06,-162"/>
<polygon fill="midnightblue" stroke="midnightblue" points="433.704,-158.5 423.704,-162 433.704,-165.5 433.704,-158.5"/>
</g>
<!-- Node4 -->
<g id="node6" class="node"><title>Node4</title>
<a xlink:href="class_kitware_1_1_v_t_k_1_1vtk_object.html" target="_top" xlink:title="vtkObject &#45; abstract base class for most VTK objects">
<polygon fill="none" stroke="black" points="248,-152 248,-172 310,-172 310,-152 248,-152"/>
<text text-anchor="middle" x="279" y="-159" font-family="FreeSans" font-size="10.00">vtkObject</text>
</a>
</g>
<!-- Node4&#45;&gt;Node3 -->
<g id="edge6" class="edge"><title>Node4&#45;&gt;Node3</title>
<path fill="none" stroke="midnightblue" d="M320.421,-162C329.001,-162 338.007,-162 346.479,-162"/>
<polygon fill="midnightblue" stroke="midnightblue" points="320.23,-158.5 310.23,-162 320.23,-165.5 320.23,-158.5"/>
</g>
<!-- Node5 -->
<g id="node8" class="node"><title>Node5</title>
<a xlink:href="class_kitware_1_1_v_t_k_1_1vtk_object_base.html" target="_top" xlink:title="vtkObjectBase &#45; abstract base class for most VTK objects">
<polygon fill="none" stroke="black" points="126,-152 126,-172 212,-172 212,-152 126,-152"/>
<text text-anchor="middle" x="169" y="-159" font-family="FreeSans" font-size="10.00">vtkObjectBase</text>
</a>
</g>
<!-- Node5&#45;&gt;Node4 -->
<g id="edge8" class="edge"><title>Node5&#45;&gt;Node4</title>
<path fill="none" stroke="midnightblue" d="M222.346,-162C231.091,-162 239.892,-162 247.863,-162"/>
<polygon fill="midnightblue" stroke="midnightblue" points="222.159,-158.5 212.159,-162 222.159,-165.5 222.159,-158.5"/>
</g>
<!-- Node6 -->
<g id="node10" class="node"><title>Node6</title>
<a xlink:href="class_kitware_1_1_v_t_k_1_1_wrapped_object.html" target="_top" xlink:title="Base class for all the mummy wrapped classes in Kitware.VTK.">
<polygon fill="none" stroke="black" points="0.5,-152 0.5,-172 89.5,-172 89.5,-152 0.5,-152"/>
<text text-anchor="middle" x="45" y="-159" font-family="FreeSans" font-size="10.00">WrappedObject</text>
</a>
</g>
<!-- Node6&#45;&gt;Node5 -->
<g id="edge10" class="edge"><title>Node6&#45;&gt;Node5</title>
<path fill="none" stroke="midnightblue" d="M99.8895,-162C108.623,-162 117.548,-162 125.957,-162"/>
<polygon fill="midnightblue" stroke="midnightblue" points="99.7669,-158.5 89.7668,-162 99.7668,-165.5 99.7669,-158.5"/>
</g>
<!-- Node9 -->
<g id="node17" class="node"><title>Node9</title>
<a xlink:href="class_kitware_1_1_v_t_k_1_1vtk_b_m_p_reader.html" target="_top" xlink:title="vtkBMPReader &#45; read Windows BMP files">
<polygon fill="none" stroke="black" points="1041.5,-304 1041.5,-324 1184.5,-324 1184.5,-304 1041.5,-304"/>
<text text-anchor="middle" x="1113" y="-311" font-family="FreeSans" font-size="10.00">Kitware.VTK.vtkBMPReader</text>
</a>
</g>
<!-- Node8&#45;&gt;Node9 -->
<g id="edge16" class="edge"><title>Node8&#45;&gt;Node9</title>
<path fill="none" stroke="midnightblue" d="M962.466,-287.76C992.268,-292.955 1026.94,-298.999 1055.49,-303.976"/>
<polygon fill="midnightblue" stroke="midnightblue" points="963.015,-284.303 952.562,-286.034 961.812,-291.199 963.015,-284.303"/>
</g>
<!-- Node10 -->
<g id="node19" class="node"><title>Node10</title>
<a xlink:href="class_kitware_1_1_v_t_k_1_1vtk_m_p_i_image_reader.html" target="_top" xlink:title="Kitware.VTK.vtkMPIImageReader">
<polygon fill="none" stroke="black" points="1028.5,-266 1028.5,-286 1197.5,-286 1197.5,-266 1028.5,-266"/>
<text text-anchor="middle" x="1113" y="-273" font-family="FreeSans" font-size="10.00">Kitware.VTK.vtkMPIImageReader</text>
</a>
</g>
<!-- Node8&#45;&gt;Node10 -->
<g id="edge18" class="edge"><title>Node8&#45;&gt;Node10</title>
<path fill="none" stroke="midnightblue" d="M981.293,-276C996.744,-276 1012.83,-276 1028.24,-276"/>
<polygon fill="midnightblue" stroke="midnightblue" points="981.246,-272.5 971.246,-276 981.246,-279.5 981.246,-272.5"/>
</g>
<!-- Node12 -->
<g id="node23" class="node"><title>Node12</title>
<a xlink:href="class_kitware_1_1_v_t_k_1_1vtk_p_n_m_reader.html" target="_top" xlink:title="vtkPNMReader &#45; read pnm (i.e., portable anymap) files">
<polygon fill="none" stroke="black" points="1041,-228 1041,-248 1185,-248 1185,-228 1041,-228"/>
<text text-anchor="middle" x="1113" y="-235" font-family="FreeSans" font-size="10.00">Kitware.VTK.vtkPNMReader</text>
</a>
</g>
<!-- Node8&#45;&gt;Node12 -->
<g id="edge22" class="edge"><title>Node8&#45;&gt;Node12</title>
<path fill="none" stroke="midnightblue" d="M962.466,-264.24C992.268,-259.045 1026.94,-253.001 1055.49,-248.024"/>
<polygon fill="midnightblue" stroke="midnightblue" points="961.812,-260.801 952.562,-265.966 963.015,-267.697 961.812,-260.801"/>
</g>
<!-- Node11 -->
<g id="node21" class="node"><title>Node11</title>
<a xlink:href="class_kitware_1_1_v_t_k_1_1vtk_p_nrrd_reader.html" target="_top" xlink:title="Kitware.VTK.vtkPNrrdReader">
<polygon fill="none" stroke="black" points="1234.5,-266 1234.5,-286 1383.5,-286 1383.5,-266 1234.5,-266"/>
<text text-anchor="middle" x="1309" y="-273" font-family="FreeSans" font-size="10.00">Kitware.VTK.vtkPNrrdReader</text>
</a>
</g>
<!-- Node10&#45;&gt;Node11 -->
<g id="edge20" class="edge"><title>Node10&#45;&gt;Node11</title>
<path fill="none" stroke="midnightblue" d="M1207.62,-276C1216.57,-276 1225.57,-276 1234.29,-276"/>
<polygon fill="midnightblue" stroke="midnightblue" points="1207.54,-272.5 1197.54,-276 1207.54,-279.5 1207.54,-272.5"/>
</g>
<!-- Node15 -->
<g id="node29" class="node"><title>Node15</title>
<a xlink:href="class_kitware_1_1_v_t_k_1_1vtk_g_e_signa_reader.html" target="_top" xlink:title="vtkGESignaReader &#45; read GE Signa ximg files">
<polygon fill="none" stroke="black" points="1031.5,-190 1031.5,-210 1194.5,-210 1194.5,-190 1031.5,-190"/>
<text text-anchor="middle" x="1113" y="-197" font-family="FreeSans" font-size="10.00">Kitware.VTK.vtkGESignaReader</text>
</a>
</g>
<!-- Node14&#45;&gt;Node15 -->
<g id="edge28" class="edge"><title>Node14&#45;&gt;Node15</title>
<path fill="none" stroke="midnightblue" d="M1002.34,-200C1012.08,-200 1021.84,-200 1031.3,-200"/>
<polygon fill="midnightblue" stroke="midnightblue" points="1002.21,-196.5 992.205,-200 1002.21,-203.5 1002.21,-196.5"/>
</g>
</g>
</svg>
