<?xml version="1.0" encoding="UTF-8" standalone="no"?>
<!DOCTYPE svg PUBLIC "-//W3C//DTD SVG 1.1//EN"
 "http://www.w3.org/Graphics/SVG/1.1/DTD/svg11.dtd">
<!-- Generated by graphviz version 2.26.3 (20100126.1600)
 -->
<!-- Title: G Pages: 1 -->
<svg width="190pt" height="494pt"
 viewBox="0.00 0.00 190.00 494.00" xmlns="http://www.w3.org/2000/svg" xmlns:xlink="http://www.w3.org/1999/xlink">
<g id="graph1" class="graph" transform="scale(1 1) rotate(0) translate(4 490)">
<title>G</title>
<!-- Node1 -->
<g id="node1" class="node"><title>Node1</title>
<polygon fill="#bfbfbf" stroke="black" points="0,-1 0,-21 182,-21 182,-1 0,-1"/>
<text text-anchor="middle" x="91" y="-8" font-family="FreeSans" font-size="10.00">Kitware.VTK.vtkTableToMySQLWriter</text>
</g>
<!-- Node2 -->
<g id="node2" class="node"><title>Node2</title>
<a xlink:href="class_kitware_1_1_v_t_k_1_1vtk_table_to_database_writer.html" target="_top" xlink:title="vtkTableToDatabaseWriter in a SQL database.">
<polygon fill="none" stroke="black" points="22,-59 22,-79 160,-79 160,-59 22,-59"/>
<text text-anchor="middle" x="91" y="-66" font-family="FreeSans" font-size="10.00">vtkTableToDatabaseWriter</text>
</a>
</g>
<!-- Node2&#45;&gt;Node1 -->
<g id="edge2" class="edge"><title>Node2&#45;&gt;Node1</title>
<path fill="none" stroke="midnightblue" d="M91,-48.8902C91,-39.6201 91,-29.0083 91,-21.3776"/>
<polygon fill="midnightblue" stroke="midnightblue" points="87.5001,-48.8971 91,-58.8972 94.5001,-48.8972 87.5001,-48.8971"/>
</g>
<!-- Node3 -->
<g id="node4" class="node"><title>Node3</title>
<a xlink:href="class_kitware_1_1_v_t_k_1_1vtk_table_writer.html" target="_top" xlink:title="vtkTableWriter &#45; write vtkTable to a file">
<polygon fill="none" stroke="black" points="50,-117 50,-137 132,-137 132,-117 50,-117"/>
<text text-anchor="middle" x="91" y="-124" font-family="FreeSans" font-size="10.00">vtkTableWriter</text>
</a>
</g>
<!-- Node3&#45;&gt;Node2 -->
<g id="edge4" class="edge"><title>Node3&#45;&gt;Node2</title>
<path fill="none" stroke="midnightblue" d="M91,-106.89C91,-97.6201 91,-87.0083 91,-79.3776"/>
<polygon fill="midnightblue" stroke="midnightblue" points="87.5001,-106.897 91,-116.897 94.5001,-106.897 87.5001,-106.897"/>
</g>
<!-- Node4 -->
<g id="node6" class="node"><title>Node4</title>
<a xlink:href="class_kitware_1_1_v_t_k_1_1vtk_data_writer.html" target="_top" xlink:title="vtkDataWriter &#45; helper class for objects that write vtk data files">
<polygon fill="none" stroke="black" points="50.5,-175 50.5,-195 131.5,-195 131.5,-175 50.5,-175"/>
<text text-anchor="middle" x="91" y="-182" font-family="FreeSans" font-size="10.00">vtkDataWriter</text>
</a>
</g>
<!-- Node4&#45;&gt;Node3 -->
<g id="edge6" class="edge"><title>Node4&#45;&gt;Node3</title>
<path fill="none" stroke="midnightblue" d="M91,-164.89C91,-155.62 91,-145.008 91,-137.378"/>
<polygon fill="midnightblue" stroke="midnightblue" points="87.5001,-164.897 91,-174.897 94.5001,-164.897 87.5001,-164.897"/>
</g>
<!-- Node5 -->
<g id="node8" class="node"><title>Node5</title>
<a xlink:href="class_kitware_1_1_v_t_k_1_1vtk_writer.html" target="_top" xlink:title="vtkWriter &#45; abstract class to write data to file(s)">
<polygon fill="none" stroke="black" points="62,-233 62,-253 120,-253 120,-233 62,-233"/>
<text text-anchor="middle" x="91" y="-240" font-family="FreeSans" font-size="10.00">vtkWriter</text>
</a>
</g>
<!-- Node5&#45;&gt;Node4 -->
<g id="edge8" class="edge"><title>Node5&#45;&gt;Node4</title>
<path fill="none" stroke="midnightblue" d="M91,-222.89C91,-213.62 91,-203.008 91,-195.378"/>
<polygon fill="midnightblue" stroke="midnightblue" points="87.5001,-222.897 91,-232.897 94.5001,-222.897 87.5001,-222.897"/>
</g>
<!-- Node6 -->
<g id="node10" class="node"><title>Node6</title>
<a xlink:href="class_kitware_1_1_v_t_k_1_1vtk_algorithm.html" target="_top" xlink:title="vtkAlgorithm &#45; Superclass for all sources, filters, and sinks in VTK.">
<polygon fill="none" stroke="black" points="52.5,-291 52.5,-311 129.5,-311 129.5,-291 52.5,-291"/>
<text text-anchor="middle" x="91" y="-298" font-family="FreeSans" font-size="10.00">vtkAlgorithm</text>
</a>
</g>
<!-- Node6&#45;&gt;Node5 -->
<g id="edge10" class="edge"><title>Node6&#45;&gt;Node5</title>
<path fill="none" stroke="midnightblue" d="M91,-280.89C91,-271.62 91,-261.008 91,-253.378"/>
<polygon fill="midnightblue" stroke="midnightblue" points="87.5001,-280.897 91,-290.897 94.5001,-280.897 87.5001,-280.897"/>
</g>
<!-- Node7 -->
<g id="node12" class="node"><title>Node7</title>
<a xlink:href="class_kitware_1_1_v_t_k_1_1vtk_object.html" target="_top" xlink:title="vtkObject &#45; abstract base class for most VTK objects">
<polygon fill="none" stroke="black" points="60,-349 60,-369 122,-369 122,-349 60,-349"/>
<text text-anchor="middle" x="91" y="-356" font-family="FreeSans" font-size="10.00">vtkObject</text>
</a>
</g>
<!-- Node7&#45;&gt;Node6 -->
<g id="edge12" class="edge"><title>Node7&#45;&gt;Node6</title>
<path fill="none" stroke="midnightblue" d="M91,-338.89C91,-329.62 91,-319.008 91,-311.378"/>
<polygon fill="midnightblue" stroke="midnightblue" points="87.5001,-338.897 91,-348.897 94.5001,-338.897 87.5001,-338.897"/>
</g>
<!-- Node8 -->
<g id="node14" class="node"><title>Node8</title>
<a xlink:href="class_kitware_1_1_v_t_k_1_1vtk_object_base.html" target="_top" xlink:title="vtkObjectBase &#45; abstract base class for most VTK objects">
<polygon fill="none" stroke="black" points="48,-407 48,-427 134,-427 134,-407 48,-407"/>
<text text-anchor="middle" x="91" y="-414" font-family="FreeSans" font-size="10.00">vtkObjectBase</text>
</a>
</g>
<!-- Node8&#45;&gt;Node7 -->
<g id="edge14" class="edge"><title>Node8&#45;&gt;Node7</title>
<path fill="none" stroke="midnightblue" d="M91,-396.89C91,-387.62 91,-377.008 91,-369.378"/>
<polygon fill="midnightblue" stroke="midnightblue" points="87.5001,-396.897 91,-406.897 94.5001,-396.897 87.5001,-396.897"/>
</g>
<!-- Node9 -->
<g id="node16" class="node"><title>Node9</title>
<a xlink:href="class_kitware_1_1_v_t_k_1_1_wrapped_object.html" target="_top" xlink:title="Base class for all the mummy wrapped classes in Kitware.VTK.">
<polygon fill="none" stroke="black" points="46.5,-465 46.5,-485 135.5,-485 135.5,-465 46.5,-465"/>
<text text-anchor="middle" x="91" y="-472" font-family="FreeSans" font-size="10.00">WrappedObject</text>
</a>
</g>
<!-- Node9&#45;&gt;Node8 -->
<g id="edge16" class="edge"><title>Node9&#45;&gt;Node8</title>
<path fill="none" stroke="midnightblue" d="M91,-454.89C91,-445.62 91,-435.008 91,-427.378"/>
<polygon fill="midnightblue" stroke="midnightblue" points="87.5001,-454.897 91,-464.897 94.5001,-454.897 87.5001,-454.897"/>
</g>
</g>
</svg>
