<?xml version="1.0" encoding="UTF-8" standalone="no"?>
<!DOCTYPE svg PUBLIC "-//W3C//DTD SVG 1.1//EN"
 "http://www.w3.org/Graphics/SVG/1.1/DTD/svg11.dtd">
<!-- Generated by graphviz version 2.26.3 (20100126.1600)
 -->
<!-- Title: G Pages: 1 -->
<svg width="445pt" height="552pt"
 viewBox="0.00 0.00 445.00 552.00" xmlns="http://www.w3.org/2000/svg" xmlns:xlink="http://www.w3.org/1999/xlink">
<g id="graph1" class="graph" transform="scale(1 1) rotate(0) translate(4 548)">
<title>G</title>
<!-- Node1 -->
<g id="node1" class="node"><title>Node1</title>
<polygon fill="#bfbfbf" stroke="black" points="129,-117 129,-137 297,-137 297,-117 129,-117"/>
<text text-anchor="middle" x="213" y="-124" font-family="FreeSans" font-size="10.00">Kitware.VTK.vtkPolyDataMapper</text>
</g>
<!-- Node9 -->
<g id="node17" class="node"><title>Node9</title>
<a xlink:href="class_kitware_1_1_v_t_k_1_1vtk_open_g_l_poly_data_mapper.html" target="_top" xlink:title="vtkOpenGLPolyDataMapper &#45; a PolyDataMapper for the OpenGL library">
<polygon fill="none" stroke="black" points="0,-59 0,-79 206,-79 206,-59 0,-59"/>
<text text-anchor="middle" x="103" y="-66" font-family="FreeSans" font-size="10.00">Kitware.VTK.vtkOpenGLPolyDataMapper</text>
</a>
</g>
<!-- Node1&#45;&gt;Node9 -->
<g id="edge16" class="edge"><title>Node1&#45;&gt;Node9</title>
<path fill="none" stroke="midnightblue" d="M184.768,-112.114C165.18,-101.786 139.603,-88.2996 122.31,-79.1817"/>
<polygon fill="midnightblue" stroke="midnightblue" points="183.361,-115.329 193.839,-116.897 186.626,-109.137 183.361,-115.329"/>
</g>
<!-- Node10 -->
<g id="node19" class="node"><title>Node10</title>
<a xlink:href="class_kitware_1_1_v_t_k_1_1vtk_painter_poly_data_mapper.html" target="_top" xlink:title="vtkPainterPolyDataMapper &#45; PolyDataMapper using painters">
<polygon fill="none" stroke="black" points="223.5,-59 223.5,-79 424.5,-79 424.5,-59 223.5,-59"/>
<text text-anchor="middle" x="324" y="-66" font-family="FreeSans" font-size="10.00">Kitware.VTK.vtkPainterPolyDataMapper</text>
</a>
</g>
<!-- Node1&#45;&gt;Node10 -->
<g id="edge18" class="edge"><title>Node1&#45;&gt;Node10</title>
<path fill="none" stroke="midnightblue" d="M241.22,-112.254C261.02,-101.909 286.985,-88.3411 304.514,-79.1817"/>
<polygon fill="midnightblue" stroke="midnightblue" points="239.577,-109.164 232.335,-116.897 242.819,-115.368 239.577,-109.164"/>
</g>
<!-- Node2 -->
<g id="node2" class="node"><title>Node2</title>
<a xlink:href="class_kitware_1_1_v_t_k_1_1vtk_mapper.html" target="_top" xlink:title="vtkMapper &#45; abstract class specifies interface to map data to graphics primitives">
<polygon fill="none" stroke="black" points="179.5,-175 179.5,-195 246.5,-195 246.5,-175 179.5,-175"/>
<text text-anchor="middle" x="213" y="-182" font-family="FreeSans" font-size="10.00">vtkMapper</text>
</a>
</g>
<!-- Node2&#45;&gt;Node1 -->
<g id="edge2" class="edge"><title>Node2&#45;&gt;Node1</title>
<path fill="none" stroke="midnightblue" d="M213,-164.89C213,-155.62 213,-145.008 213,-137.378"/>
<polygon fill="midnightblue" stroke="midnightblue" points="209.5,-164.897 213,-174.897 216.5,-164.897 209.5,-164.897"/>
</g>
<!-- Node3 -->
<g id="node4" class="node"><title>Node3</title>
<a xlink:href="class_kitware_1_1_v_t_k_1_1vtk_abstract_mapper3_d.html" target="_top" xlink:title="vtkAbstractMapper3D &#45; abstract class specifies interface to map 3D data">
<polygon fill="none" stroke="black" points="152.5,-233 152.5,-253 273.5,-253 273.5,-233 152.5,-233"/>
<text text-anchor="middle" x="213" y="-240" font-family="FreeSans" font-size="10.00">vtkAbstractMapper3D</text>
</a>
</g>
<!-- Node3&#45;&gt;Node2 -->
<g id="edge4" class="edge"><title>Node3&#45;&gt;Node2</title>
<path fill="none" stroke="midnightblue" d="M213,-222.89C213,-213.62 213,-203.008 213,-195.378"/>
<polygon fill="midnightblue" stroke="midnightblue" points="209.5,-222.897 213,-232.897 216.5,-222.897 209.5,-222.897"/>
</g>
<!-- Node4 -->
<g id="node6" class="node"><title>Node4</title>
<a xlink:href="class_kitware_1_1_v_t_k_1_1vtk_abstract_mapper.html" target="_top" xlink:title="vtkAbstractMapper &#45; abstract class specifies interface to map data">
<polygon fill="none" stroke="black" points="159.5,-291 159.5,-311 266.5,-311 266.5,-291 159.5,-291"/>
<text text-anchor="middle" x="213" y="-298" font-family="FreeSans" font-size="10.00">vtkAbstractMapper</text>
</a>
</g>
<!-- Node4&#45;&gt;Node3 -->
<g id="edge6" class="edge"><title>Node4&#45;&gt;Node3</title>
<path fill="none" stroke="midnightblue" d="M213,-280.89C213,-271.62 213,-261.008 213,-253.378"/>
<polygon fill="midnightblue" stroke="midnightblue" points="209.5,-280.897 213,-290.897 216.5,-280.897 209.5,-280.897"/>
</g>
<!-- Node5 -->
<g id="node8" class="node"><title>Node5</title>
<a xlink:href="class_kitware_1_1_v_t_k_1_1vtk_algorithm.html" target="_top" xlink:title="vtkAlgorithm &#45; Superclass for all sources, filters, and sinks in VTK.">
<polygon fill="none" stroke="black" points="174.5,-349 174.5,-369 251.5,-369 251.5,-349 174.5,-349"/>
<text text-anchor="middle" x="213" y="-356" font-family="FreeSans" font-size="10.00">vtkAlgorithm</text>
</a>
</g>
<!-- Node5&#45;&gt;Node4 -->
<g id="edge8" class="edge"><title>Node5&#45;&gt;Node4</title>
<path fill="none" stroke="midnightblue" d="M213,-338.89C213,-329.62 213,-319.008 213,-311.378"/>
<polygon fill="midnightblue" stroke="midnightblue" points="209.5,-338.897 213,-348.897 216.5,-338.897 209.5,-338.897"/>
</g>
<!-- Node6 -->
<g id="node10" class="node"><title>Node6</title>
<a xlink:href="class_kitware_1_1_v_t_k_1_1vtk_object.html" target="_top" xlink:title="vtkObject &#45; abstract base class for most VTK objects">
<polygon fill="none" stroke="black" points="182,-407 182,-427 244,-427 244,-407 182,-407"/>
<text text-anchor="middle" x="213" y="-414" font-family="FreeSans" font-size="10.00">vtkObject</text>
</a>
</g>
<!-- Node6&#45;&gt;Node5 -->
<g id="edge10" class="edge"><title>Node6&#45;&gt;Node5</title>
<path fill="none" stroke="midnightblue" d="M213,-396.89C213,-387.62 213,-377.008 213,-369.378"/>
<polygon fill="midnightblue" stroke="midnightblue" points="209.5,-396.897 213,-406.897 216.5,-396.897 209.5,-396.897"/>
</g>
<!-- Node7 -->
<g id="node12" class="node"><title>Node7</title>
<a xlink:href="class_kitware_1_1_v_t_k_1_1vtk_object_base.html" target="_top" xlink:title="vtkObjectBase &#45; abstract base class for most VTK objects">
<polygon fill="none" stroke="black" points="170,-465 170,-485 256,-485 256,-465 170,-465"/>
<text text-anchor="middle" x="213" y="-472" font-family="FreeSans" font-size="10.00">vtkObjectBase</text>
</a>
</g>
<!-- Node7&#45;&gt;Node6 -->
<g id="edge12" class="edge"><title>Node7&#45;&gt;Node6</title>
<path fill="none" stroke="midnightblue" d="M213,-454.89C213,-445.62 213,-435.008 213,-427.378"/>
<polygon fill="midnightblue" stroke="midnightblue" points="209.5,-454.897 213,-464.897 216.5,-454.897 209.5,-454.897"/>
</g>
<!-- Node8 -->
<g id="node14" class="node"><title>Node8</title>
<a xlink:href="class_kitware_1_1_v_t_k_1_1_wrapped_object.html" target="_top" xlink:title="Base class for all the mummy wrapped classes in Kitware.VTK.">
<polygon fill="none" stroke="black" points="168.5,-523 168.5,-543 257.5,-543 257.5,-523 168.5,-523"/>
<text text-anchor="middle" x="213" y="-530" font-family="FreeSans" font-size="10.00">WrappedObject</text>
</a>
</g>
<!-- Node8&#45;&gt;Node7 -->
<g id="edge14" class="edge"><title>Node8&#45;&gt;Node7</title>
<path fill="none" stroke="midnightblue" d="M213,-512.89C213,-503.62 213,-493.008 213,-485.378"/>
<polygon fill="midnightblue" stroke="midnightblue" points="209.5,-512.897 213,-522.897 216.5,-512.897 209.5,-512.897"/>
</g>
<!-- Node11 -->
<g id="node21" class="node"><title>Node11</title>
<a xlink:href="class_kitware_1_1_v_t_k_1_1vtk_composite_poly_data_mapper2.html" target="_top" xlink:title="vtkCompositePolyDataMapper2 &#45; mapper for composite dataset consisting of polygonal data...">
<polygon fill="none" stroke="black" points="211,-1 211,-21 437,-21 437,-1 211,-1"/>
<text text-anchor="middle" x="324" y="-8" font-family="FreeSans" font-size="10.00">Kitware.VTK.vtkCompositePolyDataMapper2</text>
</a>
</g>
<!-- Node10&#45;&gt;Node11 -->
<g id="edge20" class="edge"><title>Node10&#45;&gt;Node11</title>
<path fill="none" stroke="midnightblue" d="M324,-48.8902C324,-39.6201 324,-29.0083 324,-21.3776"/>
<polygon fill="midnightblue" stroke="midnightblue" points="320.5,-48.8971 324,-58.8972 327.5,-48.8972 320.5,-48.8971"/>
</g>
</g>
</svg>
