<?xml version="1.0" encoding="UTF-8" standalone="no"?>
<!DOCTYPE svg PUBLIC "-//W3C//DTD SVG 1.1//EN"
 "http://www.w3.org/Graphics/SVG/1.1/DTD/svg11.dtd">
<!-- Generated by graphviz version 2.26.3 (20100126.1600)
 -->
<!-- Title: G Pages: 1 -->
<svg width="410pt" height="830pt"
 viewBox="0.00 0.00 410.46 830.00" xmlns="http://www.w3.org/2000/svg" xmlns:xlink="http://www.w3.org/1999/xlink">
<g id="graph1" class="graph" transform="scale(1 1) rotate(0) translate(4 826)">
<title>G</title>
<!-- Node1 -->
<g id="node1" class="node"><title>Node1</title>
<polygon fill="#bfbfbf" stroke="black" points="-0.5,-1 -0.5,-21 148.5,-21 148.5,-1 -0.5,-1"/>
<text text-anchor="middle" x="74" y="-8" font-family="FreeSans" font-size="10.00">Kitware.VTK.vtkMergePoints</text>
</g>
<!-- Node2 -->
<g id="node2" class="node"><title>Node2</title>
<a xlink:href="class_kitware_1_1_v_t_k_1_1vtk_point_locator.html" target="_top" xlink:title="vtkPointLocator &#45; quickly locate points in 3&#45;space">
<polygon fill="none" stroke="black" points="28.5,-61 28.5,-81 119.5,-81 119.5,-61 28.5,-61"/>
<text text-anchor="middle" x="74" y="-68" font-family="FreeSans" font-size="10.00">vtkPointLocator</text>
</a>
</g>
<!-- Node2&#45;&gt;Node1 -->
<g id="edge2" class="edge"><title>Node2&#45;&gt;Node1</title>
<path fill="none" stroke="midnightblue" d="M74,-50.5155C74,-40.562 74,-29.0495 74,-21.0279"/>
<polygon fill="midnightblue" stroke="midnightblue" points="70.5001,-50.8218 74,-60.8218 77.5001,-50.8219 70.5001,-50.8218"/>
</g>
<!-- Node3 -->
<g id="node4" class="node"><title>Node3</title>
<a xlink:href="class_kitware_1_1_v_t_k_1_1vtk_incremental_point_locator.html" target="_top" xlink:title="vtkIncrementalPointLocator &#45; Abstract class in support of both point location and point insertion...">
<polygon fill="none" stroke="black" points="0,-121 0,-141 148,-141 148,-121 0,-121"/>
<text text-anchor="middle" x="74" y="-128" font-family="FreeSans" font-size="10.00">vtkIncrementalPointLocator</text>
</a>
</g>
<!-- Node3&#45;&gt;Node2 -->
<g id="edge4" class="edge"><title>Node3&#45;&gt;Node2</title>
<path fill="none" stroke="midnightblue" d="M74,-110.516C74,-100.562 74,-89.0495 74,-81.0279"/>
<polygon fill="midnightblue" stroke="midnightblue" points="70.5001,-110.822 74,-120.822 77.5001,-110.822 70.5001,-110.822"/>
</g>
<!-- Node4 -->
<g id="node6" class="node"><title>Node4</title>
<a xlink:href="class_kitware_1_1_v_t_k_1_1vtk_abstract_point_locator.html" target="_top" xlink:title="vtkAbstractPointLocator &#45; abstract class to quickly locate points in 3&#45;space">
<polygon fill="none" stroke="black" points="8.5,-181 8.5,-201 139.5,-201 139.5,-181 8.5,-181"/>
<text text-anchor="middle" x="74" y="-188" font-family="FreeSans" font-size="10.00">vtkAbstractPointLocator</text>
</a>
</g>
<!-- Node4&#45;&gt;Node3 -->
<g id="edge6" class="edge"><title>Node4&#45;&gt;Node3</title>
<path fill="none" stroke="midnightblue" d="M74,-170.516C74,-160.562 74,-149.05 74,-141.028"/>
<polygon fill="midnightblue" stroke="midnightblue" points="70.5001,-170.822 74,-180.822 77.5001,-170.822 70.5001,-170.822"/>
</g>
<!-- Node5 -->
<g id="node8" class="node"><title>Node5</title>
<a xlink:href="class_kitware_1_1_v_t_k_1_1vtk_locator.html" target="_top" xlink:title="vtkLocator &#45; abstract base class for objects that accelerate spatial searches">
<polygon fill="none" stroke="black" points="40.5,-241 40.5,-261 107.5,-261 107.5,-241 40.5,-241"/>
<text text-anchor="middle" x="74" y="-248" font-family="FreeSans" font-size="10.00">vtkLocator</text>
</a>
</g>
<!-- Node5&#45;&gt;Node4 -->
<g id="edge8" class="edge"><title>Node5&#45;&gt;Node4</title>
<path fill="none" stroke="midnightblue" d="M74,-230.516C74,-220.562 74,-209.05 74,-201.028"/>
<polygon fill="midnightblue" stroke="midnightblue" points="70.5001,-230.822 74,-240.822 77.5001,-230.822 70.5001,-230.822"/>
</g>
<!-- Node6 -->
<g id="node10" class="node"><title>Node6</title>
<a xlink:href="class_kitware_1_1_v_t_k_1_1vtk_object.html" target="_top" xlink:title="vtkObject &#45; abstract base class for most VTK objects">
<polygon fill="none" stroke="black" points="43,-301 43,-321 105,-321 105,-301 43,-301"/>
<text text-anchor="middle" x="74" y="-308" font-family="FreeSans" font-size="10.00">vtkObject</text>
</a>
</g>
<!-- Node6&#45;&gt;Node5 -->
<g id="edge10" class="edge"><title>Node6&#45;&gt;Node5</title>
<path fill="none" stroke="midnightblue" d="M74,-290.516C74,-280.562 74,-269.05 74,-261.028"/>
<polygon fill="midnightblue" stroke="midnightblue" points="70.5001,-290.822 74,-300.822 77.5001,-290.822 70.5001,-290.822"/>
</g>
<!-- Node7 -->
<g id="node12" class="node"><title>Node7</title>
<a xlink:href="class_kitware_1_1_v_t_k_1_1vtk_object_base.html" target="_top" xlink:title="vtkObjectBase &#45; abstract base class for most VTK objects">
<polygon fill="none" stroke="black" points="94,-741 94,-761 180,-761 180,-741 94,-741"/>
<text text-anchor="middle" x="137" y="-748" font-family="FreeSans" font-size="10.00">vtkObjectBase</text>
</a>
</g>
<!-- Node7&#45;&gt;Node6 -->
<g id="edge12" class="edge"><title>Node7&#45;&gt;Node6</title>
<path fill="none" stroke="midnightblue" d="M108.423,-735.886C94.6866,-727.44 78.8844,-715.826 68,-702 56.1564,-686.955 55.6209,-680.802 52,-662 26.4248,-529.199 61.5766,-363.437 71.5155,-321.17"/>
<polygon fill="midnightblue" stroke="midnightblue" points="106.683,-738.923 117.079,-740.97 110.229,-732.887 106.683,-738.923"/>
</g>
<!-- Node10 -->
<g id="node19" class="node"><title>Node10</title>
<a xlink:href="class_kitware_1_1_v_t_k_1_1vtk_object.html" target="_top" xlink:title="vtkObject &#45; abstract base class for most VTK objects">
<polygon fill="none" stroke="black" points="77,-681 77,-701 197,-701 197,-681 77,-681"/>
<text text-anchor="middle" x="137" y="-688" font-family="FreeSans" font-size="10.00">Kitware.VTK.vtkObject</text>
</a>
</g>
<!-- Node7&#45;&gt;Node10 -->
<g id="edge22" class="edge"><title>Node7&#45;&gt;Node10</title>
<path fill="none" stroke="midnightblue" d="M137,-730.516C137,-720.562 137,-709.05 137,-701.028"/>
<polygon fill="midnightblue" stroke="midnightblue" points="133.5,-730.822 137,-740.822 140.5,-730.822 133.5,-730.822"/>
</g>
<!-- Node8 -->
<g id="node14" class="node"><title>Node8</title>
<a xlink:href="class_kitware_1_1_v_t_k_1_1_wrapped_object.html" target="_top" xlink:title="Base class for all the mummy wrapped classes in Kitware.VTK.">
<polygon fill="none" stroke="black" points="275.5,-801 275.5,-821 364.5,-821 364.5,-801 275.5,-801"/>
<text text-anchor="middle" x="320" y="-808" font-family="FreeSans" font-size="10.00">WrappedObject</text>
</a>
</g>
<!-- Node8&#45;&gt;Node7 -->
<g id="edge14" class="edge"><title>Node8&#45;&gt;Node7</title>
<path fill="none" stroke="midnightblue" d="M279.804,-797.821C246.042,-786.752 198.512,-771.168 167.73,-761.075"/>
<polygon fill="midnightblue" stroke="midnightblue" points="278.777,-801.168 289.37,-800.957 280.958,-794.516 278.777,-801.168"/>
</g>
<!-- Node9 -->
<g id="node16" class="node"><title>Node9</title>
<a xlink:href="class_kitware_1_1_v_t_k_1_1vtk_object_event_relay.html" target="_top" xlink:title="Implement a relay handler for VTK events. This is a class that receives events directly from the VTK ...">
<polygon fill="none" stroke="black" points="66,-491 66,-511 238,-511 238,-491 66,-491"/>
<text text-anchor="middle" x="152" y="-498" font-family="FreeSans" font-size="10.00">Kitware.VTK.vtkObjectEventRelay</text>
</a>
</g>
<!-- Node8&#45;&gt;Node9 -->
<g id="edge18" class="edge"><title>Node8&#45;&gt;Node9</title>
<path fill="none" stroke="midnightblue" d="M332.888,-792.325C365.276,-742.899 442.803,-607.191 375,-530 365.773,-519.495 297.047,-511.666 238.298,-506.808"/>
<polygon fill="midnightblue" stroke="midnightblue" points="329.891,-790.509 327.239,-800.767 335.709,-794.402 329.891,-790.509"/>
</g>
<!-- Node9&#45;&gt;Node6 -->
<g id="edge16" class="edge"><title>Node9&#45;&gt;Node6</title>
<path fill="none" stroke="#9a32cd" stroke-dasharray="5,2" d="M143.921,-481.321C127.489,-441.293 90.6738,-351.616 78.2144,-321.266"/>
<polygon fill="#9a32cd" stroke="#9a32cd" points="140.771,-482.863 147.806,-490.785 147.246,-480.205 140.771,-482.863"/>
<text text-anchor="middle" x="251.5" y="-463" font-family="FreeSans" font-size="10.00"> LeftButtonReleaseEvtRelay</text>
<text text-anchor="middle" x="251.5" y="-451" font-family="FreeSans" font-size="10.00">KeyPressEvtRelay</text>
<text text-anchor="middle" x="251.5" y="-439" font-family="FreeSans" font-size="10.00">DomainModifiedEvtRelay</text>
<text text-anchor="middle" x="251.5" y="-427" font-family="FreeSans" font-size="10.00">VolumeMapperComputeGradientsStartEvtRelay</text>
<text text-anchor="middle" x="251.5" y="-415" font-family="FreeSans" font-size="10.00">ErrorEvtRelay</text>
<text text-anchor="middle" x="251.5" y="-403" font-family="FreeSans" font-size="10.00">VolumeMapperRenderStartEvtRelay</text>
<text text-anchor="middle" x="251.5" y="-391" font-family="FreeSans" font-size="10.00">StartEvtRelay</text>
<text text-anchor="middle" x="251.5" y="-379" font-family="FreeSans" font-size="10.00">ResetCameraEvtRelay</text>
<text text-anchor="middle" x="251.5" y="-367" font-family="FreeSans" font-size="10.00">EnableEvtRelay</text>
<text text-anchor="middle" x="251.5" y="-355" font-family="FreeSans" font-size="10.00">DeleteEvtRelay</text>
<text text-anchor="middle" x="251.5" y="-343" font-family="FreeSans" font-size="10.00">...</text>
</g>
<!-- Node9&#45;&gt;Node10 -->
<g id="edge24" class="edge"><title>Node9&#45;&gt;Node10</title>
<path fill="none" stroke="#9a32cd" stroke-dasharray="5,2" d="M149.028,-521.231C148.649,-524.169 148.293,-527.159 148,-530 142.144,-586.853 138.636,-655.333 137.452,-680.807"/>
<polygon fill="#9a32cd" stroke="#9a32cd" points="152.515,-521.565 150.421,-511.179 145.582,-520.604 152.515,-521.565"/>
<text text-anchor="middle" x="261.5" y="-653" font-family="FreeSans" font-size="10.00"> LeftButtonReleaseEvtRelay</text>
<text text-anchor="middle" x="261.5" y="-641" font-family="FreeSans" font-size="10.00">KeyPressEvtRelay</text>
<text text-anchor="middle" x="261.5" y="-629" font-family="FreeSans" font-size="10.00">DomainModifiedEvtRelay</text>
<text text-anchor="middle" x="261.5" y="-617" font-family="FreeSans" font-size="10.00">VolumeMapperComputeGradientsStartEvtRelay</text>
<text text-anchor="middle" x="261.5" y="-605" font-family="FreeSans" font-size="10.00">ErrorEvtRelay</text>
<text text-anchor="middle" x="261.5" y="-593" font-family="FreeSans" font-size="10.00">VolumeMapperRenderStartEvtRelay</text>
<text text-anchor="middle" x="261.5" y="-581" font-family="FreeSans" font-size="10.00">StartEvtRelay</text>
<text text-anchor="middle" x="261.5" y="-569" font-family="FreeSans" font-size="10.00">ResetCameraEvtRelay</text>
<text text-anchor="middle" x="261.5" y="-557" font-family="FreeSans" font-size="10.00">EnableEvtRelay</text>
<text text-anchor="middle" x="261.5" y="-545" font-family="FreeSans" font-size="10.00">DeleteEvtRelay</text>
<text text-anchor="middle" x="261.5" y="-533" font-family="FreeSans" font-size="10.00">...</text>
</g>
<!-- Node10&#45;&gt;Node9 -->
<g id="edge20" class="edge"><title>Node10&#45;&gt;Node9</title>
<path fill="none" stroke="#9a32cd" stroke-dasharray="5,2" d="M90.9794,-675.818C85.4393,-672.138 80.5104,-667.596 77,-662 45.8229,-612.303 43.8299,-578.389 77,-530 81.7359,-523.091 98.5114,-516.287 114.999,-511.008"/>
<polygon fill="#9a32cd" stroke="#9a32cd" points="89.6386,-679.079 100.072,-680.919 93.0636,-672.974 89.6386,-679.079"/>
<text text-anchor="middle" x="101" y="-599" font-family="FreeSans" font-size="10.00"> Sender</text>
<text text-anchor="middle" x="101" y="-587" font-family="FreeSans" font-size="10.00">EventImpl</text>
</g>
</g>
</svg>
