<?xml version="1.0" encoding="UTF-8" standalone="no"?>
<!DOCTYPE svg PUBLIC "-//W3C//DTD SVG 1.1//EN"
 "http://www.w3.org/Graphics/SVG/1.1/DTD/svg11.dtd">
<!-- Generated by graphviz version 2.26.3 (20100126.1600)
 -->
<!-- Title: G Pages: 1 -->
<svg width="132pt" height="320pt"
 viewBox="0.00 0.00 132.00 320.00" xmlns="http://www.w3.org/2000/svg" xmlns:xlink="http://www.w3.org/1999/xlink">
<g id="graph1" class="graph" transform="scale(1 1) rotate(0) translate(4 316)">
<title>G</title>
<!-- Node1 -->
<g id="node1" class="node"><title>Node1</title>
<polygon fill="#bfbfbf" stroke="black" points="-0.5,-1 -0.5,-21 124.5,-21 124.5,-1 -0.5,-1"/>
<text text-anchor="middle" x="62" y="-8" font-family="FreeSans" font-size="10.00">Kitware.VTK.vtkVolume</text>
</g>
<!-- Node2 -->
<g id="node2" class="node"><title>Node2</title>
<a xlink:href="class_kitware_1_1_v_t_k_1_1vtk_prop3_d.html" target="_top" xlink:title="vtkProp3D &#45; represents an 3D object for placement in a rendered scene">
<polygon fill="none" stroke="black" points="29,-59 29,-79 95,-79 95,-59 29,-59"/>
<text text-anchor="middle" x="62" y="-66" font-family="FreeSans" font-size="10.00">vtkProp3D</text>
</a>
</g>
<!-- Node2&#45;&gt;Node1 -->
<g id="edge2" class="edge"><title>Node2&#45;&gt;Node1</title>
<path fill="none" stroke="midnightblue" d="M62,-48.8902C62,-39.6201 62,-29.0083 62,-21.3776"/>
<polygon fill="midnightblue" stroke="midnightblue" points="58.5001,-48.8971 62,-58.8972 65.5001,-48.8972 58.5001,-48.8971"/>
</g>
<!-- Node3 -->
<g id="node4" class="node"><title>Node3</title>
<a xlink:href="class_kitware_1_1_v_t_k_1_1vtk_prop.html" target="_top" xlink:title="vtkProp &#45; abstract superclass for all actors, volumes and annotations">
<polygon fill="none" stroke="black" points="35.5,-117 35.5,-137 88.5,-137 88.5,-117 35.5,-117"/>
<text text-anchor="middle" x="62" y="-124" font-family="FreeSans" font-size="10.00">vtkProp</text>
</a>
</g>
<!-- Node3&#45;&gt;Node2 -->
<g id="edge4" class="edge"><title>Node3&#45;&gt;Node2</title>
<path fill="none" stroke="midnightblue" d="M62,-106.89C62,-97.6201 62,-87.0083 62,-79.3776"/>
<polygon fill="midnightblue" stroke="midnightblue" points="58.5001,-106.897 62,-116.897 65.5001,-106.897 58.5001,-106.897"/>
</g>
<!-- Node4 -->
<g id="node6" class="node"><title>Node4</title>
<a xlink:href="class_kitware_1_1_v_t_k_1_1vtk_object.html" target="_top" xlink:title="vtkObject &#45; abstract base class for most VTK objects">
<polygon fill="none" stroke="black" points="31,-175 31,-195 93,-195 93,-175 31,-175"/>
<text text-anchor="middle" x="62" y="-182" font-family="FreeSans" font-size="10.00">vtkObject</text>
</a>
</g>
<!-- Node4&#45;&gt;Node3 -->
<g id="edge6" class="edge"><title>Node4&#45;&gt;Node3</title>
<path fill="none" stroke="midnightblue" d="M62,-164.89C62,-155.62 62,-145.008 62,-137.378"/>
<polygon fill="midnightblue" stroke="midnightblue" points="58.5001,-164.897 62,-174.897 65.5001,-164.897 58.5001,-164.897"/>
</g>
<!-- Node5 -->
<g id="node8" class="node"><title>Node5</title>
<a xlink:href="class_kitware_1_1_v_t_k_1_1vtk_object_base.html" target="_top" xlink:title="vtkObjectBase &#45; abstract base class for most VTK objects">
<polygon fill="none" stroke="black" points="19,-233 19,-253 105,-253 105,-233 19,-233"/>
<text text-anchor="middle" x="62" y="-240" font-family="FreeSans" font-size="10.00">vtkObjectBase</text>
</a>
</g>
<!-- Node5&#45;&gt;Node4 -->
<g id="edge8" class="edge"><title>Node5&#45;&gt;Node4</title>
<path fill="none" stroke="midnightblue" d="M62,-222.89C62,-213.62 62,-203.008 62,-195.378"/>
<polygon fill="midnightblue" stroke="midnightblue" points="58.5001,-222.897 62,-232.897 65.5001,-222.897 58.5001,-222.897"/>
</g>
<!-- Node6 -->
<g id="node10" class="node"><title>Node6</title>
<a xlink:href="class_kitware_1_1_v_t_k_1_1_wrapped_object.html" target="_top" xlink:title="Base class for all the mummy wrapped classes in Kitware.VTK.">
<polygon fill="none" stroke="black" points="17.5,-291 17.5,-311 106.5,-311 106.5,-291 17.5,-291"/>
<text text-anchor="middle" x="62" y="-298" font-family="FreeSans" font-size="10.00">WrappedObject</text>
</a>
</g>
<!-- Node6&#45;&gt;Node5 -->
<g id="edge10" class="edge"><title>Node6&#45;&gt;Node5</title>
<path fill="none" stroke="midnightblue" d="M62,-280.89C62,-271.62 62,-261.008 62,-253.378"/>
<polygon fill="midnightblue" stroke="midnightblue" points="58.5001,-280.897 62,-290.897 65.5001,-280.897 58.5001,-280.897"/>
</g>
</g>
</svg>
