<?xml version="1.0" encoding="UTF-8" standalone="no"?>
<!DOCTYPE svg PUBLIC "-//W3C//DTD SVG 1.1//EN"
 "http://www.w3.org/Graphics/SVG/1.1/DTD/svg11.dtd">
<!-- Generated by graphviz version 2.26.3 (20100126.1600)
 -->
<!-- Title: G Pages: 1 -->
<svg width="184pt" height="436pt"
 viewBox="0.00 0.00 184.00 436.00" xmlns="http://www.w3.org/2000/svg" xmlns:xlink="http://www.w3.org/1999/xlink">
<g id="graph1" class="graph" transform="scale(1 1) rotate(0) translate(4 432)">
<title>G</title>
<!-- Node1 -->
<g id="node1" class="node"><title>Node1</title>
<polygon fill="#bfbfbf" stroke="black" points="0,-1 0,-21 176,-21 176,-1 0,-1"/>
<text text-anchor="middle" x="88" y="-8" font-family="FreeSans" font-size="10.00">Kitware.VTK.vtkImageMapToRGBA</text>
</g>
<!-- Node2 -->
<g id="node2" class="node"><title>Node2</title>
<a xlink:href="class_kitware_1_1_v_t_k_1_1vtk_image_map_to_colors.html" target="_top" xlink:title="vtkImageMapToColors &#45; map the input image through a lookup table">
<polygon fill="none" stroke="black" points="27.5,-59 27.5,-79 148.5,-79 148.5,-59 27.5,-59"/>
<text text-anchor="middle" x="88" y="-66" font-family="FreeSans" font-size="10.00">vtkImageMapToColors</text>
</a>
</g>
<!-- Node2&#45;&gt;Node1 -->
<g id="edge2" class="edge"><title>Node2&#45;&gt;Node1</title>
<path fill="none" stroke="midnightblue" d="M88,-48.8902C88,-39.6201 88,-29.0083 88,-21.3776"/>
<polygon fill="midnightblue" stroke="midnightblue" points="84.5001,-48.8971 88,-58.8972 91.5001,-48.8972 84.5001,-48.8971"/>
</g>
<!-- Node3 -->
<g id="node4" class="node"><title>Node3</title>
<a xlink:href="class_kitware_1_1_v_t_k_1_1vtk_threaded_image_algorithm.html" target="_top" xlink:title="vtkThreadedImageAlgorithm &#45; Generic filter that has one input..">
<polygon fill="none" stroke="black" points="12,-117 12,-137 164,-137 164,-117 12,-117"/>
<text text-anchor="middle" x="88" y="-124" font-family="FreeSans" font-size="10.00">vtkThreadedImageAlgorithm</text>
</a>
</g>
<!-- Node3&#45;&gt;Node2 -->
<g id="edge4" class="edge"><title>Node3&#45;&gt;Node2</title>
<path fill="none" stroke="midnightblue" d="M88,-106.89C88,-97.6201 88,-87.0083 88,-79.3776"/>
<polygon fill="midnightblue" stroke="midnightblue" points="84.5001,-106.897 88,-116.897 91.5001,-106.897 84.5001,-106.897"/>
</g>
<!-- Node4 -->
<g id="node6" class="node"><title>Node4</title>
<a xlink:href="class_kitware_1_1_v_t_k_1_1vtk_image_algorithm.html" target="_top" xlink:title="vtkImageAlgorithm &#45; Generic algorithm superclass for image algs">
<polygon fill="none" stroke="black" points="34.5,-175 34.5,-195 141.5,-195 141.5,-175 34.5,-175"/>
<text text-anchor="middle" x="88" y="-182" font-family="FreeSans" font-size="10.00">vtkImageAlgorithm</text>
</a>
</g>
<!-- Node4&#45;&gt;Node3 -->
<g id="edge6" class="edge"><title>Node4&#45;&gt;Node3</title>
<path fill="none" stroke="midnightblue" d="M88,-164.89C88,-155.62 88,-145.008 88,-137.378"/>
<polygon fill="midnightblue" stroke="midnightblue" points="84.5001,-164.897 88,-174.897 91.5001,-164.897 84.5001,-164.897"/>
</g>
<!-- Node5 -->
<g id="node8" class="node"><title>Node5</title>
<a xlink:href="class_kitware_1_1_v_t_k_1_1vtk_algorithm.html" target="_top" xlink:title="vtkAlgorithm &#45; Superclass for all sources, filters, and sinks in VTK.">
<polygon fill="none" stroke="black" points="49.5,-233 49.5,-253 126.5,-253 126.5,-233 49.5,-233"/>
<text text-anchor="middle" x="88" y="-240" font-family="FreeSans" font-size="10.00">vtkAlgorithm</text>
</a>
</g>
<!-- Node5&#45;&gt;Node4 -->
<g id="edge8" class="edge"><title>Node5&#45;&gt;Node4</title>
<path fill="none" stroke="midnightblue" d="M88,-222.89C88,-213.62 88,-203.008 88,-195.378"/>
<polygon fill="midnightblue" stroke="midnightblue" points="84.5001,-222.897 88,-232.897 91.5001,-222.897 84.5001,-222.897"/>
</g>
<!-- Node6 -->
<g id="node10" class="node"><title>Node6</title>
<a xlink:href="class_kitware_1_1_v_t_k_1_1vtk_object.html" target="_top" xlink:title="vtkObject &#45; abstract base class for most VTK objects">
<polygon fill="none" stroke="black" points="57,-291 57,-311 119,-311 119,-291 57,-291"/>
<text text-anchor="middle" x="88" y="-298" font-family="FreeSans" font-size="10.00">vtkObject</text>
</a>
</g>
<!-- Node6&#45;&gt;Node5 -->
<g id="edge10" class="edge"><title>Node6&#45;&gt;Node5</title>
<path fill="none" stroke="midnightblue" d="M88,-280.89C88,-271.62 88,-261.008 88,-253.378"/>
<polygon fill="midnightblue" stroke="midnightblue" points="84.5001,-280.897 88,-290.897 91.5001,-280.897 84.5001,-280.897"/>
</g>
<!-- Node7 -->
<g id="node12" class="node"><title>Node7</title>
<a xlink:href="class_kitware_1_1_v_t_k_1_1vtk_object_base.html" target="_top" xlink:title="vtkObjectBase &#45; abstract base class for most VTK objects">
<polygon fill="none" stroke="black" points="45,-349 45,-369 131,-369 131,-349 45,-349"/>
<text text-anchor="middle" x="88" y="-356" font-family="FreeSans" font-size="10.00">vtkObjectBase</text>
</a>
</g>
<!-- Node7&#45;&gt;Node6 -->
<g id="edge12" class="edge"><title>Node7&#45;&gt;Node6</title>
<path fill="none" stroke="midnightblue" d="M88,-338.89C88,-329.62 88,-319.008 88,-311.378"/>
<polygon fill="midnightblue" stroke="midnightblue" points="84.5001,-338.897 88,-348.897 91.5001,-338.897 84.5001,-338.897"/>
</g>
<!-- Node8 -->
<g id="node14" class="node"><title>Node8</title>
<a xlink:href="class_kitware_1_1_v_t_k_1_1_wrapped_object.html" target="_top" xlink:title="Base class for all the mummy wrapped classes in Kitware.VTK.">
<polygon fill="none" stroke="black" points="43.5,-407 43.5,-427 132.5,-427 132.5,-407 43.5,-407"/>
<text text-anchor="middle" x="88" y="-414" font-family="FreeSans" font-size="10.00">WrappedObject</text>
</a>
</g>
<!-- Node8&#45;&gt;Node7 -->
<g id="edge14" class="edge"><title>Node8&#45;&gt;Node7</title>
<path fill="none" stroke="midnightblue" d="M88,-396.89C88,-387.62 88,-377.008 88,-369.378"/>
<polygon fill="midnightblue" stroke="midnightblue" points="84.5001,-396.897 88,-406.897 91.5001,-396.897 84.5001,-396.897"/>
</g>
</g>
</svg>
