<?xml version="1.0" encoding="UTF-8" standalone="no"?>
<!DOCTYPE svg PUBLIC "-//W3C//DTD SVG 1.1//EN"
 "http://www.w3.org/Graphics/SVG/1.1/DTD/svg11.dtd">
<!-- Generated by graphviz version 2.26.3 (20100126.1600)
 -->
<!-- Title: G Pages: 1 -->
<svg width="470pt" height="650pt"
 viewBox="0.00 0.00 470.46 650.00" xmlns="http://www.w3.org/2000/svg" xmlns:xlink="http://www.w3.org/1999/xlink">
<g id="graph1" class="graph" transform="scale(1 1) rotate(0) translate(4 646)">
<title>G</title>
<!-- Node1 -->
<g id="node1" class="node"><title>Node1</title>
<polygon fill="#bfbfbf" stroke="black" points="-0.5,-1 -0.5,-21 268.5,-21 268.5,-1 -0.5,-1"/>
<text text-anchor="middle" x="134" y="-8" font-family="FreeSans" font-size="10.00">Kitware.VTK.vtkUnstructuredGridPartialPreIntegration</text>
</g>
<!-- Node2 -->
<g id="node2" class="node"><title>Node2</title>
<a xlink:href="class_kitware_1_1_v_t_k_1_1vtk_unstructured_grid_volume_ray_integrator.html" target="_top" xlink:title="vtkUnstructuredGridVolumeRayIntegrator &#45; a superclass for volume ray integration functions">
<polygon fill="none" stroke="black" points="27,-61 27,-81 241,-81 241,-61 27,-61"/>
<text text-anchor="middle" x="134" y="-68" font-family="FreeSans" font-size="10.00">vtkUnstructuredGridVolumeRayIntegrator</text>
</a>
</g>
<!-- Node2&#45;&gt;Node1 -->
<g id="edge2" class="edge"><title>Node2&#45;&gt;Node1</title>
<path fill="none" stroke="midnightblue" d="M134,-50.5155C134,-40.562 134,-29.0495 134,-21.0279"/>
<polygon fill="midnightblue" stroke="midnightblue" points="130.5,-50.8218 134,-60.8218 137.5,-50.8219 130.5,-50.8218"/>
</g>
<!-- Node3 -->
<g id="node4" class="node"><title>Node3</title>
<a xlink:href="class_kitware_1_1_v_t_k_1_1vtk_object.html" target="_top" xlink:title="vtkObject &#45; abstract base class for most VTK objects">
<polygon fill="none" stroke="black" points="103,-121 103,-141 165,-141 165,-121 103,-121"/>
<text text-anchor="middle" x="134" y="-128" font-family="FreeSans" font-size="10.00">vtkObject</text>
</a>
</g>
<!-- Node3&#45;&gt;Node2 -->
<g id="edge4" class="edge"><title>Node3&#45;&gt;Node2</title>
<path fill="none" stroke="midnightblue" d="M134,-110.516C134,-100.562 134,-89.0495 134,-81.0279"/>
<polygon fill="midnightblue" stroke="midnightblue" points="130.5,-110.822 134,-120.822 137.5,-110.822 130.5,-110.822"/>
</g>
<!-- Node4 -->
<g id="node6" class="node"><title>Node4</title>
<a xlink:href="class_kitware_1_1_v_t_k_1_1vtk_object_base.html" target="_top" xlink:title="vtkObjectBase &#45; abstract base class for most VTK objects">
<polygon fill="none" stroke="black" points="154,-561 154,-581 240,-581 240,-561 154,-561"/>
<text text-anchor="middle" x="197" y="-568" font-family="FreeSans" font-size="10.00">vtkObjectBase</text>
</a>
</g>
<!-- Node4&#45;&gt;Node3 -->
<g id="edge6" class="edge"><title>Node4&#45;&gt;Node3</title>
<path fill="none" stroke="midnightblue" d="M168.423,-555.886C154.687,-547.44 138.884,-535.826 128,-522 116.156,-506.955 115.621,-500.802 112,-482 86.4248,-349.199 121.577,-183.437 131.516,-141.17"/>
<polygon fill="midnightblue" stroke="midnightblue" points="166.683,-558.923 177.079,-560.97 170.229,-552.887 166.683,-558.923"/>
</g>
<!-- Node7 -->
<g id="node13" class="node"><title>Node7</title>
<a xlink:href="class_kitware_1_1_v_t_k_1_1vtk_object.html" target="_top" xlink:title="vtkObject &#45; abstract base class for most VTK objects">
<polygon fill="none" stroke="black" points="137,-501 137,-521 257,-521 257,-501 137,-501"/>
<text text-anchor="middle" x="197" y="-508" font-family="FreeSans" font-size="10.00">Kitware.VTK.vtkObject</text>
</a>
</g>
<!-- Node4&#45;&gt;Node7 -->
<g id="edge16" class="edge"><title>Node4&#45;&gt;Node7</title>
<path fill="none" stroke="midnightblue" d="M197,-550.516C197,-540.562 197,-529.05 197,-521.028"/>
<polygon fill="midnightblue" stroke="midnightblue" points="193.5,-550.822 197,-560.822 200.5,-550.822 193.5,-550.822"/>
</g>
<!-- Node5 -->
<g id="node8" class="node"><title>Node5</title>
<a xlink:href="class_kitware_1_1_v_t_k_1_1_wrapped_object.html" target="_top" xlink:title="Base class for all the mummy wrapped classes in Kitware.VTK.">
<polygon fill="none" stroke="black" points="335.5,-621 335.5,-641 424.5,-641 424.5,-621 335.5,-621"/>
<text text-anchor="middle" x="380" y="-628" font-family="FreeSans" font-size="10.00">WrappedObject</text>
</a>
</g>
<!-- Node5&#45;&gt;Node4 -->
<g id="edge8" class="edge"><title>Node5&#45;&gt;Node4</title>
<path fill="none" stroke="midnightblue" d="M339.804,-617.821C306.042,-606.752 258.512,-591.168 227.73,-581.075"/>
<polygon fill="midnightblue" stroke="midnightblue" points="338.777,-621.168 349.37,-620.957 340.958,-614.516 338.777,-621.168"/>
</g>
<!-- Node6 -->
<g id="node10" class="node"><title>Node6</title>
<a xlink:href="class_kitware_1_1_v_t_k_1_1vtk_object_event_relay.html" target="_top" xlink:title="Implement a relay handler for VTK events. This is a class that receives events directly from the VTK ...">
<polygon fill="none" stroke="black" points="126,-311 126,-331 298,-331 298,-311 126,-311"/>
<text text-anchor="middle" x="212" y="-318" font-family="FreeSans" font-size="10.00">Kitware.VTK.vtkObjectEventRelay</text>
</a>
</g>
<!-- Node5&#45;&gt;Node6 -->
<g id="edge12" class="edge"><title>Node5&#45;&gt;Node6</title>
<path fill="none" stroke="midnightblue" d="M392.888,-612.325C425.276,-562.899 502.803,-427.191 435,-350 425.773,-339.495 357.047,-331.666 298.298,-326.808"/>
<polygon fill="midnightblue" stroke="midnightblue" points="389.891,-610.509 387.239,-620.767 395.709,-614.402 389.891,-610.509"/>
</g>
<!-- Node6&#45;&gt;Node3 -->
<g id="edge10" class="edge"><title>Node6&#45;&gt;Node3</title>
<path fill="none" stroke="#9a32cd" stroke-dasharray="5,2" d="M203.921,-301.321C187.489,-261.293 150.674,-171.616 138.214,-141.266"/>
<polygon fill="#9a32cd" stroke="#9a32cd" points="200.771,-302.863 207.806,-310.785 207.246,-300.205 200.771,-302.863"/>
<text text-anchor="middle" x="311.5" y="-283" font-family="FreeSans" font-size="10.00"> LeftButtonReleaseEvtRelay</text>
<text text-anchor="middle" x="311.5" y="-271" font-family="FreeSans" font-size="10.00">KeyPressEvtRelay</text>
<text text-anchor="middle" x="311.5" y="-259" font-family="FreeSans" font-size="10.00">DomainModifiedEvtRelay</text>
<text text-anchor="middle" x="311.5" y="-247" font-family="FreeSans" font-size="10.00">VolumeMapperComputeGradientsStartEvtRelay</text>
<text text-anchor="middle" x="311.5" y="-235" font-family="FreeSans" font-size="10.00">ErrorEvtRelay</text>
<text text-anchor="middle" x="311.5" y="-223" font-family="FreeSans" font-size="10.00">VolumeMapperRenderStartEvtRelay</text>
<text text-anchor="middle" x="311.5" y="-211" font-family="FreeSans" font-size="10.00">StartEvtRelay</text>
<text text-anchor="middle" x="311.5" y="-199" font-family="FreeSans" font-size="10.00">ResetCameraEvtRelay</text>
<text text-anchor="middle" x="311.5" y="-187" font-family="FreeSans" font-size="10.00">EnableEvtRelay</text>
<text text-anchor="middle" x="311.5" y="-175" font-family="FreeSans" font-size="10.00">DeleteEvtRelay</text>
<text text-anchor="middle" x="311.5" y="-163" font-family="FreeSans" font-size="10.00">...</text>
</g>
<!-- Node6&#45;&gt;Node7 -->
<g id="edge18" class="edge"><title>Node6&#45;&gt;Node7</title>
<path fill="none" stroke="#9a32cd" stroke-dasharray="5,2" d="M209.028,-341.231C208.649,-344.169 208.293,-347.159 208,-350 202.144,-406.853 198.636,-475.333 197.452,-500.807"/>
<polygon fill="#9a32cd" stroke="#9a32cd" points="212.515,-341.565 210.421,-331.179 205.582,-340.604 212.515,-341.565"/>
<text text-anchor="middle" x="321.5" y="-473" font-family="FreeSans" font-size="10.00"> LeftButtonReleaseEvtRelay</text>
<text text-anchor="middle" x="321.5" y="-461" font-family="FreeSans" font-size="10.00">KeyPressEvtRelay</text>
<text text-anchor="middle" x="321.5" y="-449" font-family="FreeSans" font-size="10.00">DomainModifiedEvtRelay</text>
<text text-anchor="middle" x="321.5" y="-437" font-family="FreeSans" font-size="10.00">VolumeMapperComputeGradientsStartEvtRelay</text>
<text text-anchor="middle" x="321.5" y="-425" font-family="FreeSans" font-size="10.00">ErrorEvtRelay</text>
<text text-anchor="middle" x="321.5" y="-413" font-family="FreeSans" font-size="10.00">VolumeMapperRenderStartEvtRelay</text>
<text text-anchor="middle" x="321.5" y="-401" font-family="FreeSans" font-size="10.00">StartEvtRelay</text>
<text text-anchor="middle" x="321.5" y="-389" font-family="FreeSans" font-size="10.00">ResetCameraEvtRelay</text>
<text text-anchor="middle" x="321.5" y="-377" font-family="FreeSans" font-size="10.00">EnableEvtRelay</text>
<text text-anchor="middle" x="321.5" y="-365" font-family="FreeSans" font-size="10.00">DeleteEvtRelay</text>
<text text-anchor="middle" x="321.5" y="-353" font-family="FreeSans" font-size="10.00">...</text>
</g>
<!-- Node7&#45;&gt;Node6 -->
<g id="edge14" class="edge"><title>Node7&#45;&gt;Node6</title>
<path fill="none" stroke="#9a32cd" stroke-dasharray="5,2" d="M150.979,-495.818C145.439,-492.138 140.51,-487.596 137,-482 105.823,-432.303 103.83,-398.389 137,-350 141.736,-343.091 158.511,-336.287 174.999,-331.008"/>
<polygon fill="#9a32cd" stroke="#9a32cd" points="149.639,-499.079 160.072,-500.919 153.064,-492.974 149.639,-499.079"/>
<text text-anchor="middle" x="161" y="-419" font-family="FreeSans" font-size="10.00"> Sender</text>
<text text-anchor="middle" x="161" y="-407" font-family="FreeSans" font-size="10.00">EventImpl</text>
</g>
</g>
</svg>
