<?xml version="1.0" encoding="UTF-8" standalone="no"?>
<!DOCTYPE svg PUBLIC "-//W3C//DTD SVG 1.1//EN"
 "http://www.w3.org/Graphics/SVG/1.1/DTD/svg11.dtd">
<!-- Generated by graphviz version 2.26.3 (20100126.1600)
 -->
<!-- Title: G Pages: 1 -->
<svg width="960pt" height="142pt"
 viewBox="0.00 0.00 960.00 142.00" xmlns="http://www.w3.org/2000/svg" xmlns:xlink="http://www.w3.org/1999/xlink">
<g id="graph1" class="graph" transform="scale(1 1) rotate(0) translate(4 138)">
<title>G</title>
<!-- Node1 -->
<g id="node1" class="node"><title>Node1</title>
<polygon fill="#bfbfbf" stroke="black" points="460,-57 460,-77 678,-77 678,-57 460,-57"/>
<text text-anchor="middle" x="569" y="-64" font-family="FreeSans" font-size="10.00">Kitware.VTK.vtkUndirectedGraphAlgorithm</text>
</g>
<!-- Node6 -->
<g id="node11" class="node"><title>Node6</title>
<a xlink:href="class_kitware_1_1_v_t_k_1_1vtk_boost_biconnected_components.html" target="_top" xlink:title="vtkBoostBiconnectedComponents &#45; Find the biconnected components of a graph">
<polygon fill="none" stroke="black" points="714,-114 714,-134 952,-134 952,-114 714,-114"/>
<text text-anchor="middle" x="833" y="-121" font-family="FreeSans" font-size="10.00">Kitware.VTK.vtkBoostBiconnectedComponents</text>
</a>
</g>
<!-- Node1&#45;&gt;Node6 -->
<g id="edge10" class="edge"><title>Node1&#45;&gt;Node6</title>
<path fill="none" stroke="midnightblue" d="M613.04,-79.7425C641.644,-87.7201 679.829,-97.8126 714,-105 729.765,-108.316 746.812,-111.356 762.943,-113.986"/>
<polygon fill="midnightblue" stroke="midnightblue" points="613.919,-76.3538 603.345,-77.0171 612.025,-83.0927 613.919,-76.3538"/>
</g>
<!-- Node7 -->
<g id="node13" class="node"><title>Node7</title>
<a xlink:href="class_kitware_1_1_v_t_k_1_1vtk_chaco_graph_reader.html" target="_top" xlink:title="vtkChacoGraphReader &#45; Reads chaco graph files.">
<polygon fill="none" stroke="black" points="742,-76 742,-96 924,-96 924,-76 742,-76"/>
<text text-anchor="middle" x="833" y="-83" font-family="FreeSans" font-size="10.00">Kitware.VTK.vtkChacoGraphReader</text>
</a>
</g>
<!-- Node1&#45;&gt;Node7 -->
<g id="edge12" class="edge"><title>Node1&#45;&gt;Node7</title>
<path fill="none" stroke="midnightblue" d="M688.492,-75.5998C706.41,-76.8893 724.638,-78.2012 741.839,-79.4392"/>
<polygon fill="midnightblue" stroke="midnightblue" points="688.51,-72.0921 678.285,-74.8652 688.008,-79.0741 688.51,-72.0921"/>
</g>
<!-- Node8 -->
<g id="node15" class="node"><title>Node8</title>
<a xlink:href="class_kitware_1_1_v_t_k_1_1vtk_tulip_reader.html" target="_top" xlink:title="vtkTulipReader &#45; Reads tulip graph files.">
<polygon fill="none" stroke="black" points="761.5,-38 761.5,-58 904.5,-58 904.5,-38 761.5,-38"/>
<text text-anchor="middle" x="833" y="-45" font-family="FreeSans" font-size="10.00">Kitware.VTK.vtkTulipReader</text>
</a>
</g>
<!-- Node1&#45;&gt;Node8 -->
<g id="edge14" class="edge"><title>Node1&#45;&gt;Node8</title>
<path fill="none" stroke="midnightblue" d="M688.541,-58.3967C713.459,-56.6033 738.975,-54.7669 761.494,-53.1463"/>
<polygon fill="midnightblue" stroke="midnightblue" points="688.008,-54.9259 678.285,-59.1348 688.51,-61.9079 688.008,-54.9259"/>
</g>
<!-- Node9 -->
<g id="node17" class="node"><title>Node9</title>
<a xlink:href="class_kitware_1_1_v_t_k_1_1vtk_x_g_m_l_reader.html" target="_top" xlink:title="Kitware.VTK.vtkXGMLReader">
<polygon fill="none" stroke="black" points="758.5,-0 758.5,-20 907.5,-20 907.5,-0 758.5,-0"/>
<text text-anchor="middle" x="833" y="-7" font-family="FreeSans" font-size="10.00">Kitware.VTK.vtkXGMLReader</text>
</a>
</g>
<!-- Node1&#45;&gt;Node9 -->
<g id="edge16" class="edge"><title>Node1&#45;&gt;Node9</title>
<path fill="none" stroke="midnightblue" d="M613.04,-54.2575C641.644,-46.2799 679.829,-36.1874 714,-29 729.765,-25.6841 746.812,-22.644 762.943,-20.0138"/>
<polygon fill="midnightblue" stroke="midnightblue" points="612.025,-50.9073 603.345,-56.9829 613.919,-57.6462 612.025,-50.9073"/>
</g>
<!-- Node2 -->
<g id="node2" class="node"><title>Node2</title>
<a xlink:href="class_kitware_1_1_v_t_k_1_1vtk_algorithm.html" target="_top" xlink:title="vtkAlgorithm &#45; Superclass for all sources, filters, and sinks in VTK.">
<polygon fill="none" stroke="black" points="346.5,-57 346.5,-77 423.5,-77 423.5,-57 346.5,-57"/>
<text text-anchor="middle" x="385" y="-64" font-family="FreeSans" font-size="10.00">vtkAlgorithm</text>
</a>
</g>
<!-- Node2&#45;&gt;Node1 -->
<g id="edge2" class="edge"><title>Node2&#45;&gt;Node1</title>
<path fill="none" stroke="midnightblue" d="M433.613,-67C441.814,-67 450.611,-67 459.64,-67"/>
<polygon fill="midnightblue" stroke="midnightblue" points="433.572,-63.5001 423.572,-67 433.572,-70.5001 433.572,-63.5001"/>
</g>
<!-- Node3 -->
<g id="node4" class="node"><title>Node3</title>
<a xlink:href="class_kitware_1_1_v_t_k_1_1vtk_object.html" target="_top" xlink:title="vtkObject &#45; abstract base class for most VTK objects">
<polygon fill="none" stroke="black" points="248,-57 248,-77 310,-77 310,-57 248,-57"/>
<text text-anchor="middle" x="279" y="-64" font-family="FreeSans" font-size="10.00">vtkObject</text>
</a>
</g>
<!-- Node3&#45;&gt;Node2 -->
<g id="edge4" class="edge"><title>Node3&#45;&gt;Node2</title>
<path fill="none" stroke="midnightblue" d="M320.421,-67C329.001,-67 338.007,-67 346.479,-67"/>
<polygon fill="midnightblue" stroke="midnightblue" points="320.23,-63.5001 310.23,-67 320.23,-70.5001 320.23,-63.5001"/>
</g>
<!-- Node4 -->
<g id="node6" class="node"><title>Node4</title>
<a xlink:href="class_kitware_1_1_v_t_k_1_1vtk_object_base.html" target="_top" xlink:title="vtkObjectBase &#45; abstract base class for most VTK objects">
<polygon fill="none" stroke="black" points="126,-57 126,-77 212,-77 212,-57 126,-57"/>
<text text-anchor="middle" x="169" y="-64" font-family="FreeSans" font-size="10.00">vtkObjectBase</text>
</a>
</g>
<!-- Node4&#45;&gt;Node3 -->
<g id="edge6" class="edge"><title>Node4&#45;&gt;Node3</title>
<path fill="none" stroke="midnightblue" d="M222.346,-67C231.091,-67 239.892,-67 247.863,-67"/>
<polygon fill="midnightblue" stroke="midnightblue" points="222.159,-63.5001 212.159,-67 222.159,-70.5001 222.159,-63.5001"/>
</g>
<!-- Node5 -->
<g id="node8" class="node"><title>Node5</title>
<a xlink:href="class_kitware_1_1_v_t_k_1_1_wrapped_object.html" target="_top" xlink:title="Base class for all the mummy wrapped classes in Kitware.VTK.">
<polygon fill="none" stroke="black" points="0.5,-57 0.5,-77 89.5,-77 89.5,-57 0.5,-57"/>
<text text-anchor="middle" x="45" y="-64" font-family="FreeSans" font-size="10.00">WrappedObject</text>
</a>
</g>
<!-- Node5&#45;&gt;Node4 -->
<g id="edge8" class="edge"><title>Node5&#45;&gt;Node4</title>
<path fill="none" stroke="midnightblue" d="M99.8895,-67C108.623,-67 117.548,-67 125.957,-67"/>
<polygon fill="midnightblue" stroke="midnightblue" points="99.7669,-63.5001 89.7668,-67 99.7668,-70.5001 99.7669,-63.5001"/>
</g>
</g>
</svg>
