<?xml version="1.0" encoding="UTF-8" standalone="no"?>
<!DOCTYPE svg PUBLIC "-//W3C//DTD SVG 1.1//EN"
 "http://www.w3.org/Graphics/SVG/1.1/DTD/svg11.dtd">
<!-- Generated by graphviz version 2.26.3 (20100126.1600)
 -->
<!-- Title: G Pages: 1 -->
<svg width="200pt" height="320pt"
 viewBox="0.00 0.00 200.00 320.00" xmlns="http://www.w3.org/2000/svg" xmlns:xlink="http://www.w3.org/1999/xlink">
<g id="graph1" class="graph" transform="scale(1 1) rotate(0) translate(4 316)">
<title>G</title>
<!-- Node1 -->
<g id="node1" class="node"><title>Node1</title>
<polygon fill="#bfbfbf" stroke="black" points="17,-117 17,-137 175,-137 175,-117 17,-117"/>
<text text-anchor="middle" x="96" y="-124" font-family="FreeSans" font-size="10.00">Kitware.VTK.vtkOutputWindow</text>
</g>
<!-- Node5 -->
<g id="node9" class="node"><title>Node5</title>
<a xlink:href="class_kitware_1_1_v_t_k_1_1vtk_file_output_window.html" target="_top" xlink:title="vtkFileOutputWindow &#45; File Specific output window class">
<polygon fill="none" stroke="black" points="9.5,-59 9.5,-79 182.5,-79 182.5,-59 9.5,-59"/>
<text text-anchor="middle" x="96" y="-66" font-family="FreeSans" font-size="10.00">Kitware.VTK.vtkFileOutputWindow</text>
</a>
</g>
<!-- Node1&#45;&gt;Node5 -->
<g id="edge8" class="edge"><title>Node1&#45;&gt;Node5</title>
<path fill="none" stroke="midnightblue" d="M96,-106.89C96,-97.6201 96,-87.0083 96,-79.3776"/>
<polygon fill="midnightblue" stroke="midnightblue" points="92.5001,-106.897 96,-116.897 99.5001,-106.897 92.5001,-106.897"/>
</g>
<!-- Node2 -->
<g id="node2" class="node"><title>Node2</title>
<a xlink:href="class_kitware_1_1_v_t_k_1_1vtk_object.html" target="_top" xlink:title="vtkObject &#45; abstract base class for most VTK objects">
<polygon fill="none" stroke="black" points="65,-175 65,-195 127,-195 127,-175 65,-175"/>
<text text-anchor="middle" x="96" y="-182" font-family="FreeSans" font-size="10.00">vtkObject</text>
</a>
</g>
<!-- Node2&#45;&gt;Node1 -->
<g id="edge2" class="edge"><title>Node2&#45;&gt;Node1</title>
<path fill="none" stroke="midnightblue" d="M96,-164.89C96,-155.62 96,-145.008 96,-137.378"/>
<polygon fill="midnightblue" stroke="midnightblue" points="92.5001,-164.897 96,-174.897 99.5001,-164.897 92.5001,-164.897"/>
</g>
<!-- Node3 -->
<g id="node4" class="node"><title>Node3</title>
<a xlink:href="class_kitware_1_1_v_t_k_1_1vtk_object_base.html" target="_top" xlink:title="vtkObjectBase &#45; abstract base class for most VTK objects">
<polygon fill="none" stroke="black" points="53,-233 53,-253 139,-253 139,-233 53,-233"/>
<text text-anchor="middle" x="96" y="-240" font-family="FreeSans" font-size="10.00">vtkObjectBase</text>
</a>
</g>
<!-- Node3&#45;&gt;Node2 -->
<g id="edge4" class="edge"><title>Node3&#45;&gt;Node2</title>
<path fill="none" stroke="midnightblue" d="M96,-222.89C96,-213.62 96,-203.008 96,-195.378"/>
<polygon fill="midnightblue" stroke="midnightblue" points="92.5001,-222.897 96,-232.897 99.5001,-222.897 92.5001,-222.897"/>
</g>
<!-- Node4 -->
<g id="node6" class="node"><title>Node4</title>
<a xlink:href="class_kitware_1_1_v_t_k_1_1_wrapped_object.html" target="_top" xlink:title="Base class for all the mummy wrapped classes in Kitware.VTK.">
<polygon fill="none" stroke="black" points="51.5,-291 51.5,-311 140.5,-311 140.5,-291 51.5,-291"/>
<text text-anchor="middle" x="96" y="-298" font-family="FreeSans" font-size="10.00">WrappedObject</text>
</a>
</g>
<!-- Node4&#45;&gt;Node3 -->
<g id="edge6" class="edge"><title>Node4&#45;&gt;Node3</title>
<path fill="none" stroke="midnightblue" d="M96,-280.89C96,-271.62 96,-261.008 96,-253.378"/>
<polygon fill="midnightblue" stroke="midnightblue" points="92.5001,-280.897 96,-290.897 99.5001,-280.897 92.5001,-280.897"/>
</g>
<!-- Node6 -->
<g id="node11" class="node"><title>Node6</title>
<a xlink:href="class_kitware_1_1_v_t_k_1_1vtk_x_m_l_file_output_window.html" target="_top" xlink:title="vtkXMLFileOutputWindow &#45; XML File Specific output window class">
<polygon fill="none" stroke="black" points="0,-1 0,-21 192,-21 192,-1 0,-1"/>
<text text-anchor="middle" x="96" y="-8" font-family="FreeSans" font-size="10.00">Kitware.VTK.vtkXMLFileOutputWindow</text>
</a>
</g>
<!-- Node5&#45;&gt;Node6 -->
<g id="edge10" class="edge"><title>Node5&#45;&gt;Node6</title>
<path fill="none" stroke="midnightblue" d="M96,-48.8902C96,-39.6201 96,-29.0083 96,-21.3776"/>
<polygon fill="midnightblue" stroke="midnightblue" points="92.5001,-48.8971 96,-58.8972 99.5001,-48.8972 92.5001,-48.8971"/>
</g>
</g>
</svg>
