<?xml version="1.0" encoding="UTF-8" standalone="no"?>
<!DOCTYPE svg PUBLIC "-//W3C//DTD SVG 1.1//EN"
 "http://www.w3.org/Graphics/SVG/1.1/DTD/svg11.dtd">
<!-- Generated by graphviz version 2.26.3 (20100126.1600)
 -->
<!-- Title: G Pages: 1 -->
<svg width="708pt" height="104pt"
 viewBox="0.00 0.00 708.00 104.00" xmlns="http://www.w3.org/2000/svg" xmlns:xlink="http://www.w3.org/1999/xlink">
<g id="graph1" class="graph" transform="scale(1 1) rotate(0) translate(4 100)">
<title>G</title>
<!-- Node1 -->
<g id="node1" class="node"><title>Node1</title>
<polygon fill="#bfbfbf" stroke="black" points="346.5,-38 346.5,-58 485.5,-58 485.5,-38 346.5,-38"/>
<text text-anchor="middle" x="416" y="-45" font-family="FreeSans" font-size="10.00">Kitware.VTK.vtkXMLParser</text>
</g>
<!-- Node5 -->
<g id="node9" class="node"><title>Node5</title>
<a xlink:href="class_kitware_1_1_v_t_k_1_1vtk_x_m_l_data_parser.html" target="_top" xlink:title="vtkXMLDataParser &#45; Used by vtkXMLReader to parse VTK XML files.">
<polygon fill="none" stroke="black" points="530,-76 530,-96 692,-96 692,-76 530,-76"/>
<text text-anchor="middle" x="611" y="-83" font-family="FreeSans" font-size="10.00">Kitware.VTK.vtkXMLDataParser</text>
</a>
</g>
<!-- Node1&#45;&gt;Node5 -->
<g id="edge8" class="edge"><title>Node1&#45;&gt;Node5</title>
<path fill="none" stroke="midnightblue" d="M477.394,-59.9639C503.814,-65.1125 534.354,-71.0638 559.561,-75.976"/>
<polygon fill="midnightblue" stroke="midnightblue" points="477.974,-56.5112 467.489,-58.0338 476.635,-63.382 477.974,-56.5112"/>
</g>
<!-- Node6 -->
<g id="node11" class="node"><title>Node6</title>
<a xlink:href="class_kitware_1_1_v_t_k_1_1vtk_x_m_l_file_read_tester.html" target="_top" xlink:title="vtkXMLFileReadTester &#45; Utility class for vtkXMLReader and subclasses.">
<polygon fill="none" stroke="black" points="523,-38 523,-58 699,-58 699,-38 523,-38"/>
<text text-anchor="middle" x="611" y="-45" font-family="FreeSans" font-size="10.00">Kitware.VTK.vtkXMLFileReadTester</text>
</a>
</g>
<!-- Node1&#45;&gt;Node6 -->
<g id="edge10" class="edge"><title>Node1&#45;&gt;Node6</title>
<path fill="none" stroke="midnightblue" d="M495.854,-48C504.705,-48 513.758,-48 522.705,-48"/>
<polygon fill="midnightblue" stroke="midnightblue" points="495.574,-44.5001 485.574,-48 495.574,-51.5001 495.574,-44.5001"/>
</g>
<!-- Node7 -->
<g id="node13" class="node"><title>Node7</title>
<a xlink:href="class_kitware_1_1_v_t_k_1_1vtk_x_m_l_material_parser.html" target="_top" xlink:title="vtkXMLMaterialParser &#45; Parses VTK Material file">
<polygon fill="none" stroke="black" points="522.5,-0 522.5,-20 699.5,-20 699.5,-0 522.5,-0"/>
<text text-anchor="middle" x="611" y="-7" font-family="FreeSans" font-size="10.00">Kitware.VTK.vtkXMLMaterialParser</text>
</a>
</g>
<!-- Node1&#45;&gt;Node7 -->
<g id="edge12" class="edge"><title>Node1&#45;&gt;Node7</title>
<path fill="none" stroke="midnightblue" d="M477.394,-36.0361C503.814,-30.8875 534.354,-24.9362 559.561,-20.024"/>
<polygon fill="midnightblue" stroke="midnightblue" points="476.635,-32.618 467.489,-37.9662 477.974,-39.4888 476.635,-32.618"/>
</g>
<!-- Node2 -->
<g id="node2" class="node"><title>Node2</title>
<a xlink:href="class_kitware_1_1_v_t_k_1_1vtk_object.html" target="_top" xlink:title="vtkObject &#45; abstract base class for most VTK objects">
<polygon fill="none" stroke="black" points="248,-38 248,-58 310,-58 310,-38 248,-38"/>
<text text-anchor="middle" x="279" y="-45" font-family="FreeSans" font-size="10.00">vtkObject</text>
</a>
</g>
<!-- Node2&#45;&gt;Node1 -->
<g id="edge2" class="edge"><title>Node2&#45;&gt;Node1</title>
<path fill="none" stroke="midnightblue" d="M320.226,-48C328.536,-48 337.487,-48 346.462,-48"/>
<polygon fill="midnightblue" stroke="midnightblue" points="320.087,-44.5001 310.087,-48 320.087,-51.5001 320.087,-44.5001"/>
</g>
<!-- Node3 -->
<g id="node4" class="node"><title>Node3</title>
<a xlink:href="class_kitware_1_1_v_t_k_1_1vtk_object_base.html" target="_top" xlink:title="vtkObjectBase &#45; abstract base class for most VTK objects">
<polygon fill="none" stroke="black" points="126,-38 126,-58 212,-58 212,-38 126,-38"/>
<text text-anchor="middle" x="169" y="-45" font-family="FreeSans" font-size="10.00">vtkObjectBase</text>
</a>
</g>
<!-- Node3&#45;&gt;Node2 -->
<g id="edge4" class="edge"><title>Node3&#45;&gt;Node2</title>
<path fill="none" stroke="midnightblue" d="M222.346,-48C231.091,-48 239.892,-48 247.863,-48"/>
<polygon fill="midnightblue" stroke="midnightblue" points="222.159,-44.5001 212.159,-48 222.159,-51.5001 222.159,-44.5001"/>
</g>
<!-- Node4 -->
<g id="node6" class="node"><title>Node4</title>
<a xlink:href="class_kitware_1_1_v_t_k_1_1_wrapped_object.html" target="_top" xlink:title="Base class for all the mummy wrapped classes in Kitware.VTK.">
<polygon fill="none" stroke="black" points="0.5,-38 0.5,-58 89.5,-58 89.5,-38 0.5,-38"/>
<text text-anchor="middle" x="45" y="-45" font-family="FreeSans" font-size="10.00">WrappedObject</text>
</a>
</g>
<!-- Node4&#45;&gt;Node3 -->
<g id="edge6" class="edge"><title>Node4&#45;&gt;Node3</title>
<path fill="none" stroke="midnightblue" d="M99.8895,-48C108.623,-48 117.548,-48 125.957,-48"/>
<polygon fill="midnightblue" stroke="midnightblue" points="99.7669,-44.5001 89.7668,-48 99.7668,-51.5001 99.7669,-44.5001"/>
</g>
</g>
</svg>
