<?xml version="1.0" encoding="UTF-8" standalone="no"?>
<!DOCTYPE svg PUBLIC "-//W3C//DTD SVG 1.1//EN"
 "http://www.w3.org/Graphics/SVG/1.1/DTD/svg11.dtd">
<!-- Generated by graphviz version 2.26.3 (20100126.1600)
 -->
<!-- Title: G Pages: 1 -->
<svg width="433pt" height="770pt"
 viewBox="0.00 0.00 433.46 770.00" xmlns="http://www.w3.org/2000/svg" xmlns:xlink="http://www.w3.org/1999/xlink">
<g id="graph1" class="graph" transform="scale(1 1) rotate(0) translate(4 766)">
<title>G</title>
<!-- Node1 -->
<g id="node1" class="node"><title>Node1</title>
<polygon fill="#bfbfbf" stroke="black" points="0,-1 0,-21 194,-21 194,-1 0,-1"/>
<text text-anchor="middle" x="97" y="-8" font-family="FreeSans" font-size="10.00">Kitware.VTK.vtkMedicalImageReader2</text>
</g>
<!-- Node2 -->
<g id="node2" class="node"><title>Node2</title>
<a xlink:href="class_kitware_1_1_v_t_k_1_1vtk_image_reader2.html" target="_top" xlink:title="vtkImageReader2 &#45; Superclass of binary file readers.">
<polygon fill="none" stroke="black" points="47,-61 47,-81 147,-81 147,-61 47,-61"/>
<text text-anchor="middle" x="97" y="-68" font-family="FreeSans" font-size="10.00">vtkImageReader2</text>
</a>
</g>
<!-- Node2&#45;&gt;Node1 -->
<g id="edge2" class="edge"><title>Node2&#45;&gt;Node1</title>
<path fill="none" stroke="midnightblue" d="M97,-50.5155C97,-40.562 97,-29.0495 97,-21.0279"/>
<polygon fill="midnightblue" stroke="midnightblue" points="93.5001,-50.8218 97,-60.8218 100.5,-50.8219 93.5001,-50.8218"/>
</g>
<!-- Node3 -->
<g id="node4" class="node"><title>Node3</title>
<a xlink:href="class_kitware_1_1_v_t_k_1_1vtk_image_algorithm.html" target="_top" xlink:title="vtkImageAlgorithm &#45; Generic algorithm superclass for image algs">
<polygon fill="none" stroke="black" points="43.5,-121 43.5,-141 150.5,-141 150.5,-121 43.5,-121"/>
<text text-anchor="middle" x="97" y="-128" font-family="FreeSans" font-size="10.00">vtkImageAlgorithm</text>
</a>
</g>
<!-- Node3&#45;&gt;Node2 -->
<g id="edge4" class="edge"><title>Node3&#45;&gt;Node2</title>
<path fill="none" stroke="midnightblue" d="M97,-110.516C97,-100.562 97,-89.0495 97,-81.0279"/>
<polygon fill="midnightblue" stroke="midnightblue" points="93.5001,-110.822 97,-120.822 100.5,-110.822 93.5001,-110.822"/>
</g>
<!-- Node4 -->
<g id="node6" class="node"><title>Node4</title>
<a xlink:href="class_kitware_1_1_v_t_k_1_1vtk_algorithm.html" target="_top" xlink:title="vtkAlgorithm &#45; Superclass for all sources, filters, and sinks in VTK.">
<polygon fill="none" stroke="black" points="58.5,-181 58.5,-201 135.5,-201 135.5,-181 58.5,-181"/>
<text text-anchor="middle" x="97" y="-188" font-family="FreeSans" font-size="10.00">vtkAlgorithm</text>
</a>
</g>
<!-- Node4&#45;&gt;Node3 -->
<g id="edge6" class="edge"><title>Node4&#45;&gt;Node3</title>
<path fill="none" stroke="midnightblue" d="M97,-170.516C97,-160.562 97,-149.05 97,-141.028"/>
<polygon fill="midnightblue" stroke="midnightblue" points="93.5001,-170.822 97,-180.822 100.5,-170.822 93.5001,-170.822"/>
</g>
<!-- Node5 -->
<g id="node8" class="node"><title>Node5</title>
<a xlink:href="class_kitware_1_1_v_t_k_1_1vtk_object.html" target="_top" xlink:title="vtkObject &#45; abstract base class for most VTK objects">
<polygon fill="none" stroke="black" points="66,-241 66,-261 128,-261 128,-241 66,-241"/>
<text text-anchor="middle" x="97" y="-248" font-family="FreeSans" font-size="10.00">vtkObject</text>
</a>
</g>
<!-- Node5&#45;&gt;Node4 -->
<g id="edge8" class="edge"><title>Node5&#45;&gt;Node4</title>
<path fill="none" stroke="midnightblue" d="M97,-230.516C97,-220.562 97,-209.05 97,-201.028"/>
<polygon fill="midnightblue" stroke="midnightblue" points="93.5001,-230.822 97,-240.822 100.5,-230.822 93.5001,-230.822"/>
</g>
<!-- Node6 -->
<g id="node10" class="node"><title>Node6</title>
<a xlink:href="class_kitware_1_1_v_t_k_1_1vtk_object_base.html" target="_top" xlink:title="vtkObjectBase &#45; abstract base class for most VTK objects">
<polygon fill="none" stroke="black" points="117,-681 117,-701 203,-701 203,-681 117,-681"/>
<text text-anchor="middle" x="160" y="-688" font-family="FreeSans" font-size="10.00">vtkObjectBase</text>
</a>
</g>
<!-- Node6&#45;&gt;Node5 -->
<g id="edge10" class="edge"><title>Node6&#45;&gt;Node5</title>
<path fill="none" stroke="midnightblue" d="M131.423,-675.886C117.687,-667.44 101.884,-655.826 91,-642 79.1564,-626.955 78.6209,-620.802 75,-602 49.4248,-469.199 84.5766,-303.437 94.5155,-261.17"/>
<polygon fill="midnightblue" stroke="midnightblue" points="129.683,-678.923 140.079,-680.97 133.229,-672.887 129.683,-678.923"/>
</g>
<!-- Node9 -->
<g id="node17" class="node"><title>Node9</title>
<a xlink:href="class_kitware_1_1_v_t_k_1_1vtk_object.html" target="_top" xlink:title="vtkObject &#45; abstract base class for most VTK objects">
<polygon fill="none" stroke="black" points="100,-621 100,-641 220,-641 220,-621 100,-621"/>
<text text-anchor="middle" x="160" y="-628" font-family="FreeSans" font-size="10.00">Kitware.VTK.vtkObject</text>
</a>
</g>
<!-- Node6&#45;&gt;Node9 -->
<g id="edge20" class="edge"><title>Node6&#45;&gt;Node9</title>
<path fill="none" stroke="midnightblue" d="M160,-670.516C160,-660.562 160,-649.05 160,-641.028"/>
<polygon fill="midnightblue" stroke="midnightblue" points="156.5,-670.822 160,-680.822 163.5,-670.822 156.5,-670.822"/>
</g>
<!-- Node7 -->
<g id="node12" class="node"><title>Node7</title>
<a xlink:href="class_kitware_1_1_v_t_k_1_1_wrapped_object.html" target="_top" xlink:title="Base class for all the mummy wrapped classes in Kitware.VTK.">
<polygon fill="none" stroke="black" points="298.5,-741 298.5,-761 387.5,-761 387.5,-741 298.5,-741"/>
<text text-anchor="middle" x="343" y="-748" font-family="FreeSans" font-size="10.00">WrappedObject</text>
</a>
</g>
<!-- Node7&#45;&gt;Node6 -->
<g id="edge12" class="edge"><title>Node7&#45;&gt;Node6</title>
<path fill="none" stroke="midnightblue" d="M302.804,-737.821C269.042,-726.752 221.512,-711.168 190.73,-701.075"/>
<polygon fill="midnightblue" stroke="midnightblue" points="301.777,-741.168 312.37,-740.957 303.958,-734.516 301.777,-741.168"/>
</g>
<!-- Node8 -->
<g id="node14" class="node"><title>Node8</title>
<a xlink:href="class_kitware_1_1_v_t_k_1_1vtk_object_event_relay.html" target="_top" xlink:title="Implement a relay handler for VTK events. This is a class that receives events directly from the VTK ...">
<polygon fill="none" stroke="black" points="89,-431 89,-451 261,-451 261,-431 89,-431"/>
<text text-anchor="middle" x="175" y="-438" font-family="FreeSans" font-size="10.00">Kitware.VTK.vtkObjectEventRelay</text>
</a>
</g>
<!-- Node7&#45;&gt;Node8 -->
<g id="edge16" class="edge"><title>Node7&#45;&gt;Node8</title>
<path fill="none" stroke="midnightblue" d="M355.888,-732.325C388.276,-682.899 465.803,-547.191 398,-470 388.773,-459.495 320.047,-451.666 261.298,-446.808"/>
<polygon fill="midnightblue" stroke="midnightblue" points="352.891,-730.509 350.239,-740.767 358.709,-734.402 352.891,-730.509"/>
</g>
<!-- Node8&#45;&gt;Node5 -->
<g id="edge14" class="edge"><title>Node8&#45;&gt;Node5</title>
<path fill="none" stroke="#9a32cd" stroke-dasharray="5,2" d="M166.921,-421.321C150.489,-381.293 113.674,-291.616 101.214,-261.266"/>
<polygon fill="#9a32cd" stroke="#9a32cd" points="163.771,-422.863 170.806,-430.785 170.246,-420.205 163.771,-422.863"/>
<text text-anchor="middle" x="274.5" y="-403" font-family="FreeSans" font-size="10.00"> LeftButtonReleaseEvtRelay</text>
<text text-anchor="middle" x="274.5" y="-391" font-family="FreeSans" font-size="10.00">KeyPressEvtRelay</text>
<text text-anchor="middle" x="274.5" y="-379" font-family="FreeSans" font-size="10.00">DomainModifiedEvtRelay</text>
<text text-anchor="middle" x="274.5" y="-367" font-family="FreeSans" font-size="10.00">VolumeMapperComputeGradientsStartEvtRelay</text>
<text text-anchor="middle" x="274.5" y="-355" font-family="FreeSans" font-size="10.00">ErrorEvtRelay</text>
<text text-anchor="middle" x="274.5" y="-343" font-family="FreeSans" font-size="10.00">VolumeMapperRenderStartEvtRelay</text>
<text text-anchor="middle" x="274.5" y="-331" font-family="FreeSans" font-size="10.00">StartEvtRelay</text>
<text text-anchor="middle" x="274.5" y="-319" font-family="FreeSans" font-size="10.00">ResetCameraEvtRelay</text>
<text text-anchor="middle" x="274.5" y="-307" font-family="FreeSans" font-size="10.00">EnableEvtRelay</text>
<text text-anchor="middle" x="274.5" y="-295" font-family="FreeSans" font-size="10.00">DeleteEvtRelay</text>
<text text-anchor="middle" x="274.5" y="-283" font-family="FreeSans" font-size="10.00">...</text>
</g>
<!-- Node8&#45;&gt;Node9 -->
<g id="edge22" class="edge"><title>Node8&#45;&gt;Node9</title>
<path fill="none" stroke="#9a32cd" stroke-dasharray="5,2" d="M172.028,-461.231C171.649,-464.169 171.293,-467.159 171,-470 165.144,-526.853 161.636,-595.333 160.452,-620.807"/>
<polygon fill="#9a32cd" stroke="#9a32cd" points="175.515,-461.565 173.421,-451.179 168.582,-460.604 175.515,-461.565"/>
<text text-anchor="middle" x="284.5" y="-593" font-family="FreeSans" font-size="10.00"> LeftButtonReleaseEvtRelay</text>
<text text-anchor="middle" x="284.5" y="-581" font-family="FreeSans" font-size="10.00">KeyPressEvtRelay</text>
<text text-anchor="middle" x="284.5" y="-569" font-family="FreeSans" font-size="10.00">DomainModifiedEvtRelay</text>
<text text-anchor="middle" x="284.5" y="-557" font-family="FreeSans" font-size="10.00">VolumeMapperComputeGradientsStartEvtRelay</text>
<text text-anchor="middle" x="284.5" y="-545" font-family="FreeSans" font-size="10.00">ErrorEvtRelay</text>
<text text-anchor="middle" x="284.5" y="-533" font-family="FreeSans" font-size="10.00">VolumeMapperRenderStartEvtRelay</text>
<text text-anchor="middle" x="284.5" y="-521" font-family="FreeSans" font-size="10.00">StartEvtRelay</text>
<text text-anchor="middle" x="284.5" y="-509" font-family="FreeSans" font-size="10.00">ResetCameraEvtRelay</text>
<text text-anchor="middle" x="284.5" y="-497" font-family="FreeSans" font-size="10.00">EnableEvtRelay</text>
<text text-anchor="middle" x="284.5" y="-485" font-family="FreeSans" font-size="10.00">DeleteEvtRelay</text>
<text text-anchor="middle" x="284.5" y="-473" font-family="FreeSans" font-size="10.00">...</text>
</g>
<!-- Node9&#45;&gt;Node8 -->
<g id="edge18" class="edge"><title>Node9&#45;&gt;Node8</title>
<path fill="none" stroke="#9a32cd" stroke-dasharray="5,2" d="M113.979,-615.818C108.439,-612.138 103.51,-607.596 100,-602 68.8229,-552.303 66.8299,-518.389 100,-470 104.736,-463.091 121.511,-456.287 137.999,-451.008"/>
<polygon fill="#9a32cd" stroke="#9a32cd" points="112.639,-619.079 123.072,-620.919 116.064,-612.974 112.639,-619.079"/>
<text text-anchor="middle" x="124" y="-539" font-family="FreeSans" font-size="10.00"> Sender</text>
<text text-anchor="middle" x="124" y="-527" font-family="FreeSans" font-size="10.00">EventImpl</text>
</g>
</g>
</svg>
