<?xml version="1.0" encoding="UTF-8" standalone="no"?>
<!DOCTYPE svg PUBLIC "-//W3C//DTD SVG 1.1//EN"
 "http://www.w3.org/Graphics/SVG/1.1/DTD/svg11.dtd">
<!-- Generated by graphviz version 2.26.3 (20100126.1600)
 -->
<!-- Title: G Pages: 1 -->
<svg width="452pt" height="710pt"
 viewBox="0.00 0.00 452.46 710.00" xmlns="http://www.w3.org/2000/svg" xmlns:xlink="http://www.w3.org/1999/xlink">
<g id="graph1" class="graph" transform="scale(1 1) rotate(0) translate(4 706)">
<title>G</title>
<!-- Node1 -->
<g id="node1" class="node"><title>Node1</title>
<polygon fill="#bfbfbf" stroke="black" points="0,-1 0,-21 232,-21 232,-1 0,-1"/>
<text text-anchor="middle" x="116" y="-8" font-family="FreeSans" font-size="10.00">Kitware.VTK.vtkAxesTransformRepresentation</text>
</g>
<!-- Node2 -->
<g id="node2" class="node"><title>Node2</title>
<a xlink:href="class_kitware_1_1_v_t_k_1_1vtk_widget_representation.html" target="_top" xlink:title="vtkWidgetRepresentation &#45; abstract class defines interface between the widget and widget representati...">
<polygon fill="none" stroke="black" points="48.5,-61 48.5,-81 183.5,-81 183.5,-61 48.5,-61"/>
<text text-anchor="middle" x="116" y="-68" font-family="FreeSans" font-size="10.00">vtkWidgetRepresentation</text>
</a>
</g>
<!-- Node2&#45;&gt;Node1 -->
<g id="edge2" class="edge"><title>Node2&#45;&gt;Node1</title>
<path fill="none" stroke="midnightblue" d="M116,-50.5155C116,-40.562 116,-29.0495 116,-21.0279"/>
<polygon fill="midnightblue" stroke="midnightblue" points="112.5,-50.8218 116,-60.8218 119.5,-50.8219 112.5,-50.8218"/>
</g>
<!-- Node3 -->
<g id="node4" class="node"><title>Node3</title>
<a xlink:href="class_kitware_1_1_v_t_k_1_1vtk_prop.html" target="_top" xlink:title="vtkProp &#45; abstract superclass for all actors, volumes and annotations">
<polygon fill="none" stroke="black" points="89.5,-121 89.5,-141 142.5,-141 142.5,-121 89.5,-121"/>
<text text-anchor="middle" x="116" y="-128" font-family="FreeSans" font-size="10.00">vtkProp</text>
</a>
</g>
<!-- Node3&#45;&gt;Node2 -->
<g id="edge4" class="edge"><title>Node3&#45;&gt;Node2</title>
<path fill="none" stroke="midnightblue" d="M116,-110.516C116,-100.562 116,-89.0495 116,-81.0279"/>
<polygon fill="midnightblue" stroke="midnightblue" points="112.5,-110.822 116,-120.822 119.5,-110.822 112.5,-110.822"/>
</g>
<!-- Node4 -->
<g id="node6" class="node"><title>Node4</title>
<a xlink:href="class_kitware_1_1_v_t_k_1_1vtk_object.html" target="_top" xlink:title="vtkObject &#45; abstract base class for most VTK objects">
<polygon fill="none" stroke="black" points="85,-181 85,-201 147,-201 147,-181 85,-181"/>
<text text-anchor="middle" x="116" y="-188" font-family="FreeSans" font-size="10.00">vtkObject</text>
</a>
</g>
<!-- Node4&#45;&gt;Node3 -->
<g id="edge6" class="edge"><title>Node4&#45;&gt;Node3</title>
<path fill="none" stroke="midnightblue" d="M116,-170.516C116,-160.562 116,-149.05 116,-141.028"/>
<polygon fill="midnightblue" stroke="midnightblue" points="112.5,-170.822 116,-180.822 119.5,-170.822 112.5,-170.822"/>
</g>
<!-- Node5 -->
<g id="node8" class="node"><title>Node5</title>
<a xlink:href="class_kitware_1_1_v_t_k_1_1vtk_object_base.html" target="_top" xlink:title="vtkObjectBase &#45; abstract base class for most VTK objects">
<polygon fill="none" stroke="black" points="136,-621 136,-641 222,-641 222,-621 136,-621"/>
<text text-anchor="middle" x="179" y="-628" font-family="FreeSans" font-size="10.00">vtkObjectBase</text>
</a>
</g>
<!-- Node5&#45;&gt;Node4 -->
<g id="edge8" class="edge"><title>Node5&#45;&gt;Node4</title>
<path fill="none" stroke="midnightblue" d="M150.423,-615.886C136.687,-607.44 120.884,-595.826 110,-582 98.1564,-566.955 97.6209,-560.802 94,-542 68.4248,-409.199 103.577,-243.437 113.516,-201.17"/>
<polygon fill="midnightblue" stroke="midnightblue" points="148.683,-618.923 159.079,-620.97 152.229,-612.887 148.683,-618.923"/>
</g>
<!-- Node8 -->
<g id="node15" class="node"><title>Node8</title>
<a xlink:href="class_kitware_1_1_v_t_k_1_1vtk_object.html" target="_top" xlink:title="vtkObject &#45; abstract base class for most VTK objects">
<polygon fill="none" stroke="black" points="119,-561 119,-581 239,-581 239,-561 119,-561"/>
<text text-anchor="middle" x="179" y="-568" font-family="FreeSans" font-size="10.00">Kitware.VTK.vtkObject</text>
</a>
</g>
<!-- Node5&#45;&gt;Node8 -->
<g id="edge18" class="edge"><title>Node5&#45;&gt;Node8</title>
<path fill="none" stroke="midnightblue" d="M179,-610.516C179,-600.562 179,-589.05 179,-581.028"/>
<polygon fill="midnightblue" stroke="midnightblue" points="175.5,-610.822 179,-620.822 182.5,-610.822 175.5,-610.822"/>
</g>
<!-- Node6 -->
<g id="node10" class="node"><title>Node6</title>
<a xlink:href="class_kitware_1_1_v_t_k_1_1_wrapped_object.html" target="_top" xlink:title="Base class for all the mummy wrapped classes in Kitware.VTK.">
<polygon fill="none" stroke="black" points="317.5,-681 317.5,-701 406.5,-701 406.5,-681 317.5,-681"/>
<text text-anchor="middle" x="362" y="-688" font-family="FreeSans" font-size="10.00">WrappedObject</text>
</a>
</g>
<!-- Node6&#45;&gt;Node5 -->
<g id="edge10" class="edge"><title>Node6&#45;&gt;Node5</title>
<path fill="none" stroke="midnightblue" d="M321.804,-677.821C288.042,-666.752 240.512,-651.168 209.73,-641.075"/>
<polygon fill="midnightblue" stroke="midnightblue" points="320.777,-681.168 331.37,-680.957 322.958,-674.516 320.777,-681.168"/>
</g>
<!-- Node7 -->
<g id="node12" class="node"><title>Node7</title>
<a xlink:href="class_kitware_1_1_v_t_k_1_1vtk_object_event_relay.html" target="_top" xlink:title="Implement a relay handler for VTK events. This is a class that receives events directly from the VTK ...">
<polygon fill="none" stroke="black" points="108,-371 108,-391 280,-391 280,-371 108,-371"/>
<text text-anchor="middle" x="194" y="-378" font-family="FreeSans" font-size="10.00">Kitware.VTK.vtkObjectEventRelay</text>
</a>
</g>
<!-- Node6&#45;&gt;Node7 -->
<g id="edge14" class="edge"><title>Node6&#45;&gt;Node7</title>
<path fill="none" stroke="midnightblue" d="M374.888,-672.325C407.276,-622.899 484.803,-487.191 417,-410 407.773,-399.495 339.047,-391.666 280.298,-386.808"/>
<polygon fill="midnightblue" stroke="midnightblue" points="371.891,-670.509 369.239,-680.767 377.709,-674.402 371.891,-670.509"/>
</g>
<!-- Node7&#45;&gt;Node4 -->
<g id="edge12" class="edge"><title>Node7&#45;&gt;Node4</title>
<path fill="none" stroke="#9a32cd" stroke-dasharray="5,2" d="M185.921,-361.321C169.489,-321.293 132.674,-231.616 120.214,-201.266"/>
<polygon fill="#9a32cd" stroke="#9a32cd" points="182.771,-362.863 189.806,-370.785 189.246,-360.205 182.771,-362.863"/>
<text text-anchor="middle" x="293.5" y="-343" font-family="FreeSans" font-size="10.00"> LeftButtonReleaseEvtRelay</text>
<text text-anchor="middle" x="293.5" y="-331" font-family="FreeSans" font-size="10.00">KeyPressEvtRelay</text>
<text text-anchor="middle" x="293.5" y="-319" font-family="FreeSans" font-size="10.00">DomainModifiedEvtRelay</text>
<text text-anchor="middle" x="293.5" y="-307" font-family="FreeSans" font-size="10.00">VolumeMapperComputeGradientsStartEvtRelay</text>
<text text-anchor="middle" x="293.5" y="-295" font-family="FreeSans" font-size="10.00">ErrorEvtRelay</text>
<text text-anchor="middle" x="293.5" y="-283" font-family="FreeSans" font-size="10.00">VolumeMapperRenderStartEvtRelay</text>
<text text-anchor="middle" x="293.5" y="-271" font-family="FreeSans" font-size="10.00">StartEvtRelay</text>
<text text-anchor="middle" x="293.5" y="-259" font-family="FreeSans" font-size="10.00">ResetCameraEvtRelay</text>
<text text-anchor="middle" x="293.5" y="-247" font-family="FreeSans" font-size="10.00">EnableEvtRelay</text>
<text text-anchor="middle" x="293.5" y="-235" font-family="FreeSans" font-size="10.00">DeleteEvtRelay</text>
<text text-anchor="middle" x="293.5" y="-223" font-family="FreeSans" font-size="10.00">...</text>
</g>
<!-- Node7&#45;&gt;Node8 -->
<g id="edge20" class="edge"><title>Node7&#45;&gt;Node8</title>
<path fill="none" stroke="#9a32cd" stroke-dasharray="5,2" d="M191.028,-401.231C190.649,-404.169 190.293,-407.159 190,-410 184.144,-466.853 180.636,-535.333 179.452,-560.807"/>
<polygon fill="#9a32cd" stroke="#9a32cd" points="194.515,-401.565 192.421,-391.179 187.582,-400.604 194.515,-401.565"/>
<text text-anchor="middle" x="303.5" y="-533" font-family="FreeSans" font-size="10.00"> LeftButtonReleaseEvtRelay</text>
<text text-anchor="middle" x="303.5" y="-521" font-family="FreeSans" font-size="10.00">KeyPressEvtRelay</text>
<text text-anchor="middle" x="303.5" y="-509" font-family="FreeSans" font-size="10.00">DomainModifiedEvtRelay</text>
<text text-anchor="middle" x="303.5" y="-497" font-family="FreeSans" font-size="10.00">VolumeMapperComputeGradientsStartEvtRelay</text>
<text text-anchor="middle" x="303.5" y="-485" font-family="FreeSans" font-size="10.00">ErrorEvtRelay</text>
<text text-anchor="middle" x="303.5" y="-473" font-family="FreeSans" font-size="10.00">VolumeMapperRenderStartEvtRelay</text>
<text text-anchor="middle" x="303.5" y="-461" font-family="FreeSans" font-size="10.00">StartEvtRelay</text>
<text text-anchor="middle" x="303.5" y="-449" font-family="FreeSans" font-size="10.00">ResetCameraEvtRelay</text>
<text text-anchor="middle" x="303.5" y="-437" font-family="FreeSans" font-size="10.00">EnableEvtRelay</text>
<text text-anchor="middle" x="303.5" y="-425" font-family="FreeSans" font-size="10.00">DeleteEvtRelay</text>
<text text-anchor="middle" x="303.5" y="-413" font-family="FreeSans" font-size="10.00">...</text>
</g>
<!-- Node8&#45;&gt;Node7 -->
<g id="edge16" class="edge"><title>Node8&#45;&gt;Node7</title>
<path fill="none" stroke="#9a32cd" stroke-dasharray="5,2" d="M132.979,-555.818C127.439,-552.138 122.51,-547.596 119,-542 87.8229,-492.303 85.8299,-458.389 119,-410 123.736,-403.091 140.511,-396.287 156.999,-391.008"/>
<polygon fill="#9a32cd" stroke="#9a32cd" points="131.639,-559.079 142.072,-560.919 135.064,-552.974 131.639,-559.079"/>
<text text-anchor="middle" x="143" y="-479" font-family="FreeSans" font-size="10.00"> Sender</text>
<text text-anchor="middle" x="143" y="-467" font-family="FreeSans" font-size="10.00">EventImpl</text>
</g>
</g>
</svg>
