<?xml version="1.0" encoding="UTF-8" standalone="no"?>
<!DOCTYPE svg PUBLIC "-//W3C//DTD SVG 1.1//EN"
 "http://www.w3.org/Graphics/SVG/1.1/DTD/svg11.dtd">
<!-- Generated by graphviz version 2.26.3 (20100126.1600)
 -->
<!-- Title: G Pages: 1 -->
<svg width="446pt" height="890pt"
 viewBox="0.00 0.00 446.46 890.00" xmlns="http://www.w3.org/2000/svg" xmlns:xlink="http://www.w3.org/1999/xlink">
<g id="graph1" class="graph" transform="scale(1 1) rotate(0) translate(4 886)">
<title>G</title>
<!-- Node1 -->
<g id="node1" class="node"><title>Node1</title>
<polygon fill="#bfbfbf" stroke="black" points="-0.5,-1 -0.5,-21 220.5,-21 220.5,-1 -0.5,-1"/>
<text text-anchor="middle" x="110" y="-8" font-family="FreeSans" font-size="10.00">Kitware.VTK.vtkProjectedTetrahedraMapper</text>
</g>
<!-- Node2 -->
<g id="node2" class="node"><title>Node2</title>
<a xlink:href="class_kitware_1_1_v_t_k_1_1vtk_unstructured_grid_volume_mapper.html" target="_top" xlink:title="vtkUnstructuredGridVolumeMapper &#45; Abstract class for a unstructured grid volume mapper">
<polygon fill="none" stroke="black" points="17.5,-61 17.5,-81 202.5,-81 202.5,-61 17.5,-61"/>
<text text-anchor="middle" x="110" y="-68" font-family="FreeSans" font-size="10.00">vtkUnstructuredGridVolumeMapper</text>
</a>
</g>
<!-- Node2&#45;&gt;Node1 -->
<g id="edge2" class="edge"><title>Node2&#45;&gt;Node1</title>
<path fill="none" stroke="midnightblue" d="M110,-50.5155C110,-40.562 110,-29.0495 110,-21.0279"/>
<polygon fill="midnightblue" stroke="midnightblue" points="106.5,-50.8218 110,-60.8218 113.5,-50.8219 106.5,-50.8218"/>
</g>
<!-- Node3 -->
<g id="node4" class="node"><title>Node3</title>
<a xlink:href="class_kitware_1_1_v_t_k_1_1vtk_abstract_volume_mapper.html" target="_top" xlink:title="vtkAbstractVolumeMapper &#45; Abstract class for a volume mapper">
<polygon fill="none" stroke="black" points="38.5,-121 38.5,-141 181.5,-141 181.5,-121 38.5,-121"/>
<text text-anchor="middle" x="110" y="-128" font-family="FreeSans" font-size="10.00">vtkAbstractVolumeMapper</text>
</a>
</g>
<!-- Node3&#45;&gt;Node2 -->
<g id="edge4" class="edge"><title>Node3&#45;&gt;Node2</title>
<path fill="none" stroke="midnightblue" d="M110,-110.516C110,-100.562 110,-89.0495 110,-81.0279"/>
<polygon fill="midnightblue" stroke="midnightblue" points="106.5,-110.822 110,-120.822 113.5,-110.822 106.5,-110.822"/>
</g>
<!-- Node4 -->
<g id="node6" class="node"><title>Node4</title>
<a xlink:href="class_kitware_1_1_v_t_k_1_1vtk_abstract_mapper3_d.html" target="_top" xlink:title="vtkAbstractMapper3D &#45; abstract class specifies interface to map 3D data">
<polygon fill="none" stroke="black" points="49.5,-181 49.5,-201 170.5,-201 170.5,-181 49.5,-181"/>
<text text-anchor="middle" x="110" y="-188" font-family="FreeSans" font-size="10.00">vtkAbstractMapper3D</text>
</a>
</g>
<!-- Node4&#45;&gt;Node3 -->
<g id="edge6" class="edge"><title>Node4&#45;&gt;Node3</title>
<path fill="none" stroke="midnightblue" d="M110,-170.516C110,-160.562 110,-149.05 110,-141.028"/>
<polygon fill="midnightblue" stroke="midnightblue" points="106.5,-170.822 110,-180.822 113.5,-170.822 106.5,-170.822"/>
</g>
<!-- Node5 -->
<g id="node8" class="node"><title>Node5</title>
<a xlink:href="class_kitware_1_1_v_t_k_1_1vtk_abstract_mapper.html" target="_top" xlink:title="vtkAbstractMapper &#45; abstract class specifies interface to map data">
<polygon fill="none" stroke="black" points="56.5,-241 56.5,-261 163.5,-261 163.5,-241 56.5,-241"/>
<text text-anchor="middle" x="110" y="-248" font-family="FreeSans" font-size="10.00">vtkAbstractMapper</text>
</a>
</g>
<!-- Node5&#45;&gt;Node4 -->
<g id="edge8" class="edge"><title>Node5&#45;&gt;Node4</title>
<path fill="none" stroke="midnightblue" d="M110,-230.516C110,-220.562 110,-209.05 110,-201.028"/>
<polygon fill="midnightblue" stroke="midnightblue" points="106.5,-230.822 110,-240.822 113.5,-230.822 106.5,-230.822"/>
</g>
<!-- Node6 -->
<g id="node10" class="node"><title>Node6</title>
<a xlink:href="class_kitware_1_1_v_t_k_1_1vtk_algorithm.html" target="_top" xlink:title="vtkAlgorithm &#45; Superclass for all sources, filters, and sinks in VTK.">
<polygon fill="none" stroke="black" points="71.5,-301 71.5,-321 148.5,-321 148.5,-301 71.5,-301"/>
<text text-anchor="middle" x="110" y="-308" font-family="FreeSans" font-size="10.00">vtkAlgorithm</text>
</a>
</g>
<!-- Node6&#45;&gt;Node5 -->
<g id="edge10" class="edge"><title>Node6&#45;&gt;Node5</title>
<path fill="none" stroke="midnightblue" d="M110,-290.516C110,-280.562 110,-269.05 110,-261.028"/>
<polygon fill="midnightblue" stroke="midnightblue" points="106.5,-290.822 110,-300.822 113.5,-290.822 106.5,-290.822"/>
</g>
<!-- Node7 -->
<g id="node12" class="node"><title>Node7</title>
<a xlink:href="class_kitware_1_1_v_t_k_1_1vtk_object.html" target="_top" xlink:title="vtkObject &#45; abstract base class for most VTK objects">
<polygon fill="none" stroke="black" points="79,-361 79,-381 141,-381 141,-361 79,-361"/>
<text text-anchor="middle" x="110" y="-368" font-family="FreeSans" font-size="10.00">vtkObject</text>
</a>
</g>
<!-- Node7&#45;&gt;Node6 -->
<g id="edge12" class="edge"><title>Node7&#45;&gt;Node6</title>
<path fill="none" stroke="midnightblue" d="M110,-350.516C110,-340.562 110,-329.05 110,-321.028"/>
<polygon fill="midnightblue" stroke="midnightblue" points="106.5,-350.822 110,-360.822 113.5,-350.822 106.5,-350.822"/>
</g>
<!-- Node8 -->
<g id="node14" class="node"><title>Node8</title>
<a xlink:href="class_kitware_1_1_v_t_k_1_1vtk_object_base.html" target="_top" xlink:title="vtkObjectBase &#45; abstract base class for most VTK objects">
<polygon fill="none" stroke="black" points="130,-801 130,-821 216,-821 216,-801 130,-801"/>
<text text-anchor="middle" x="173" y="-808" font-family="FreeSans" font-size="10.00">vtkObjectBase</text>
</a>
</g>
<!-- Node8&#45;&gt;Node7 -->
<g id="edge14" class="edge"><title>Node8&#45;&gt;Node7</title>
<path fill="none" stroke="midnightblue" d="M144.423,-795.886C130.687,-787.44 114.884,-775.826 104,-762 92.1564,-746.955 91.6209,-740.802 88,-722 62.4248,-589.199 97.5766,-423.437 107.516,-381.17"/>
<polygon fill="midnightblue" stroke="midnightblue" points="142.683,-798.923 153.079,-800.97 146.229,-792.887 142.683,-798.923"/>
</g>
<!-- Node11 -->
<g id="node21" class="node"><title>Node11</title>
<a xlink:href="class_kitware_1_1_v_t_k_1_1vtk_object.html" target="_top" xlink:title="vtkObject &#45; abstract base class for most VTK objects">
<polygon fill="none" stroke="black" points="113,-741 113,-761 233,-761 233,-741 113,-741"/>
<text text-anchor="middle" x="173" y="-748" font-family="FreeSans" font-size="10.00">Kitware.VTK.vtkObject</text>
</a>
</g>
<!-- Node8&#45;&gt;Node11 -->
<g id="edge24" class="edge"><title>Node8&#45;&gt;Node11</title>
<path fill="none" stroke="midnightblue" d="M173,-790.516C173,-780.562 173,-769.05 173,-761.028"/>
<polygon fill="midnightblue" stroke="midnightblue" points="169.5,-790.822 173,-800.822 176.5,-790.822 169.5,-790.822"/>
</g>
<!-- Node9 -->
<g id="node16" class="node"><title>Node9</title>
<a xlink:href="class_kitware_1_1_v_t_k_1_1_wrapped_object.html" target="_top" xlink:title="Base class for all the mummy wrapped classes in Kitware.VTK.">
<polygon fill="none" stroke="black" points="311.5,-861 311.5,-881 400.5,-881 400.5,-861 311.5,-861"/>
<text text-anchor="middle" x="356" y="-868" font-family="FreeSans" font-size="10.00">WrappedObject</text>
</a>
</g>
<!-- Node9&#45;&gt;Node8 -->
<g id="edge16" class="edge"><title>Node9&#45;&gt;Node8</title>
<path fill="none" stroke="midnightblue" d="M315.804,-857.821C282.042,-846.752 234.512,-831.168 203.73,-821.075"/>
<polygon fill="midnightblue" stroke="midnightblue" points="314.777,-861.168 325.37,-860.957 316.958,-854.516 314.777,-861.168"/>
</g>
<!-- Node10 -->
<g id="node18" class="node"><title>Node10</title>
<a xlink:href="class_kitware_1_1_v_t_k_1_1vtk_object_event_relay.html" target="_top" xlink:title="Implement a relay handler for VTK events. This is a class that receives events directly from the VTK ...">
<polygon fill="none" stroke="black" points="102,-551 102,-571 274,-571 274,-551 102,-551"/>
<text text-anchor="middle" x="188" y="-558" font-family="FreeSans" font-size="10.00">Kitware.VTK.vtkObjectEventRelay</text>
</a>
</g>
<!-- Node9&#45;&gt;Node10 -->
<g id="edge20" class="edge"><title>Node9&#45;&gt;Node10</title>
<path fill="none" stroke="midnightblue" d="M368.888,-852.325C401.276,-802.899 478.803,-667.191 411,-590 401.773,-579.495 333.047,-571.666 274.298,-566.808"/>
<polygon fill="midnightblue" stroke="midnightblue" points="365.891,-850.509 363.239,-860.767 371.709,-854.402 365.891,-850.509"/>
</g>
<!-- Node10&#45;&gt;Node7 -->
<g id="edge18" class="edge"><title>Node10&#45;&gt;Node7</title>
<path fill="none" stroke="#9a32cd" stroke-dasharray="5,2" d="M179.921,-541.321C163.489,-501.293 126.674,-411.616 114.214,-381.266"/>
<polygon fill="#9a32cd" stroke="#9a32cd" points="176.771,-542.863 183.806,-550.785 183.246,-540.205 176.771,-542.863"/>
<text text-anchor="middle" x="287.5" y="-523" font-family="FreeSans" font-size="10.00"> LeftButtonReleaseEvtRelay</text>
<text text-anchor="middle" x="287.5" y="-511" font-family="FreeSans" font-size="10.00">KeyPressEvtRelay</text>
<text text-anchor="middle" x="287.5" y="-499" font-family="FreeSans" font-size="10.00">DomainModifiedEvtRelay</text>
<text text-anchor="middle" x="287.5" y="-487" font-family="FreeSans" font-size="10.00">VolumeMapperComputeGradientsStartEvtRelay</text>
<text text-anchor="middle" x="287.5" y="-475" font-family="FreeSans" font-size="10.00">ErrorEvtRelay</text>
<text text-anchor="middle" x="287.5" y="-463" font-family="FreeSans" font-size="10.00">VolumeMapperRenderStartEvtRelay</text>
<text text-anchor="middle" x="287.5" y="-451" font-family="FreeSans" font-size="10.00">StartEvtRelay</text>
<text text-anchor="middle" x="287.5" y="-439" font-family="FreeSans" font-size="10.00">ResetCameraEvtRelay</text>
<text text-anchor="middle" x="287.5" y="-427" font-family="FreeSans" font-size="10.00">EnableEvtRelay</text>
<text text-anchor="middle" x="287.5" y="-415" font-family="FreeSans" font-size="10.00">DeleteEvtRelay</text>
<text text-anchor="middle" x="287.5" y="-403" font-family="FreeSans" font-size="10.00">...</text>
</g>
<!-- Node10&#45;&gt;Node11 -->
<g id="edge26" class="edge"><title>Node10&#45;&gt;Node11</title>
<path fill="none" stroke="#9a32cd" stroke-dasharray="5,2" d="M185.028,-581.231C184.649,-584.169 184.293,-587.159 184,-590 178.144,-646.853 174.636,-715.333 173.452,-740.807"/>
<polygon fill="#9a32cd" stroke="#9a32cd" points="188.515,-581.565 186.421,-571.179 181.582,-580.604 188.515,-581.565"/>
<text text-anchor="middle" x="297.5" y="-713" font-family="FreeSans" font-size="10.00"> LeftButtonReleaseEvtRelay</text>
<text text-anchor="middle" x="297.5" y="-701" font-family="FreeSans" font-size="10.00">KeyPressEvtRelay</text>
<text text-anchor="middle" x="297.5" y="-689" font-family="FreeSans" font-size="10.00">DomainModifiedEvtRelay</text>
<text text-anchor="middle" x="297.5" y="-677" font-family="FreeSans" font-size="10.00">VolumeMapperComputeGradientsStartEvtRelay</text>
<text text-anchor="middle" x="297.5" y="-665" font-family="FreeSans" font-size="10.00">ErrorEvtRelay</text>
<text text-anchor="middle" x="297.5" y="-653" font-family="FreeSans" font-size="10.00">VolumeMapperRenderStartEvtRelay</text>
<text text-anchor="middle" x="297.5" y="-641" font-family="FreeSans" font-size="10.00">StartEvtRelay</text>
<text text-anchor="middle" x="297.5" y="-629" font-family="FreeSans" font-size="10.00">ResetCameraEvtRelay</text>
<text text-anchor="middle" x="297.5" y="-617" font-family="FreeSans" font-size="10.00">EnableEvtRelay</text>
<text text-anchor="middle" x="297.5" y="-605" font-family="FreeSans" font-size="10.00">DeleteEvtRelay</text>
<text text-anchor="middle" x="297.5" y="-593" font-family="FreeSans" font-size="10.00">...</text>
</g>
<!-- Node11&#45;&gt;Node10 -->
<g id="edge22" class="edge"><title>Node11&#45;&gt;Node10</title>
<path fill="none" stroke="#9a32cd" stroke-dasharray="5,2" d="M126.979,-735.818C121.439,-732.138 116.51,-727.596 113,-722 81.8229,-672.303 79.8299,-638.389 113,-590 117.736,-583.091 134.511,-576.287 150.999,-571.008"/>
<polygon fill="#9a32cd" stroke="#9a32cd" points="125.639,-739.079 136.072,-740.919 129.064,-732.974 125.639,-739.079"/>
<text text-anchor="middle" x="137" y="-659" font-family="FreeSans" font-size="10.00"> Sender</text>
<text text-anchor="middle" x="137" y="-647" font-family="FreeSans" font-size="10.00">EventImpl</text>
</g>
</g>
</svg>
