<?xml version="1.0" encoding="UTF-8" standalone="no"?>
<!DOCTYPE svg PUBLIC "-//W3C//DTD SVG 1.1//EN"
 "http://www.w3.org/Graphics/SVG/1.1/DTD/svg11.dtd">
<!-- Generated by graphviz version 2.26.3 (20100126.1600)
 -->
<!-- Title: G Pages: 1 -->
<svg width="1468pt" height="256pt"
 viewBox="0.00 0.00 1468.00 256.00" xmlns="http://www.w3.org/2000/svg" xmlns:xlink="http://www.w3.org/1999/xlink">
<g id="graph1" class="graph" transform="scale(1 1) rotate(0) translate(4 252)">
<title>G</title>
<!-- Node1 -->
<g id="node1" class="node"><title>Node1</title>
<polygon fill="#bfbfbf" stroke="black" points="346.5,-76 346.5,-96 471.5,-96 471.5,-76 346.5,-76"/>
<text text-anchor="middle" x="409" y="-83" font-family="FreeSans" font-size="10.00">Kitware.VTK.vtkLocator</text>
</g>
<!-- Node5 -->
<g id="node9" class="node"><title>Node5</title>
<a xlink:href="class_kitware_1_1_v_t_k_1_1vtk_abstract_cell_locator.html" target="_top" xlink:title="vtkAbstractCellLocator &#45; an abstract base class for locators which find cells">
<polygon fill="none" stroke="black" points="511.5,-171 511.5,-191 694.5,-191 694.5,-171 511.5,-171"/>
<text text-anchor="middle" x="603" y="-178" font-family="FreeSans" font-size="10.00">Kitware.VTK.vtkAbstractCellLocator</text>
</a>
</g>
<!-- Node1&#45;&gt;Node5 -->
<g id="edge8" class="edge"><title>Node1&#45;&gt;Node5</title>
<path fill="none" stroke="midnightblue" d="M438.967,-100.674C478.755,-120.159 547.993,-154.064 582.388,-170.906"/>
<polygon fill="midnightblue" stroke="midnightblue" points="440.282,-97.4213 429.761,-96.1667 437.203,-103.708 440.282,-97.4213"/>
</g>
<!-- Node9 -->
<g id="node17" class="node"><title>Node9</title>
<a xlink:href="class_kitware_1_1_v_t_k_1_1vtk_abstract_point_locator.html" target="_top" xlink:title="vtkAbstractPointLocator &#45; abstract class to quickly locate points in 3&#45;space">
<polygon fill="none" stroke="black" points="508,-76 508,-96 698,-96 698,-76 508,-76"/>
<text text-anchor="middle" x="603" y="-83" font-family="FreeSans" font-size="10.00">Kitware.VTK.vtkAbstractPointLocator</text>
</a>
</g>
<!-- Node1&#45;&gt;Node9 -->
<g id="edge16" class="edge"><title>Node1&#45;&gt;Node9</title>
<path fill="none" stroke="midnightblue" d="M481.869,-86C490.312,-86 499.015,-86 507.701,-86"/>
<polygon fill="midnightblue" stroke="midnightblue" points="481.718,-82.5001 471.718,-86 481.718,-89.5001 481.718,-82.5001"/>
</g>
<!-- Node17 -->
<g id="node33" class="node"><title>Node17</title>
<a xlink:href="class_kitware_1_1_v_t_k_1_1vtk_kd_tree.html" target="_top" xlink:title="vtkKdTree &#45; a Kd&#45;tree spatial decomposition of a set of points">
<polygon fill="none" stroke="black" points="542.5,-19 542.5,-39 663.5,-39 663.5,-19 542.5,-19"/>
<text text-anchor="middle" x="603" y="-26" font-family="FreeSans" font-size="10.00">Kitware.VTK.vtkKdTree</text>
</a>
</g>
<!-- Node1&#45;&gt;Node17 -->
<g id="edge32" class="edge"><title>Node1&#45;&gt;Node17</title>
<path fill="none" stroke="midnightblue" d="M453.209,-73.0107C488.287,-62.7045 536.609,-48.5066 568.78,-39.0544"/>
<polygon fill="midnightblue" stroke="midnightblue" points="451.845,-69.7636 443.237,-75.9408 453.818,-76.4798 451.845,-69.7636"/>
</g>
<!-- Node2 -->
<g id="node2" class="node"><title>Node2</title>
<a xlink:href="class_kitware_1_1_v_t_k_1_1vtk_object.html" target="_top" xlink:title="vtkObject &#45; abstract base class for most VTK objects">
<polygon fill="none" stroke="black" points="248,-76 248,-96 310,-96 310,-76 248,-76"/>
<text text-anchor="middle" x="279" y="-83" font-family="FreeSans" font-size="10.00">vtkObject</text>
</a>
</g>
<!-- Node2&#45;&gt;Node1 -->
<g id="edge2" class="edge"><title>Node2&#45;&gt;Node1</title>
<path fill="none" stroke="midnightblue" d="M320.327,-86C328.665,-86 337.605,-86 346.482,-86"/>
<polygon fill="midnightblue" stroke="midnightblue" points="320.138,-82.5001 310.138,-86 320.138,-89.5001 320.138,-82.5001"/>
</g>
<!-- Node3 -->
<g id="node4" class="node"><title>Node3</title>
<a xlink:href="class_kitware_1_1_v_t_k_1_1vtk_object_base.html" target="_top" xlink:title="vtkObjectBase &#45; abstract base class for most VTK objects">
<polygon fill="none" stroke="black" points="126,-76 126,-96 212,-96 212,-76 126,-76"/>
<text text-anchor="middle" x="169" y="-83" font-family="FreeSans" font-size="10.00">vtkObjectBase</text>
</a>
</g>
<!-- Node3&#45;&gt;Node2 -->
<g id="edge4" class="edge"><title>Node3&#45;&gt;Node2</title>
<path fill="none" stroke="midnightblue" d="M222.346,-86C231.091,-86 239.892,-86 247.863,-86"/>
<polygon fill="midnightblue" stroke="midnightblue" points="222.159,-82.5001 212.159,-86 222.159,-89.5001 222.159,-82.5001"/>
</g>
<!-- Node4 -->
<g id="node6" class="node"><title>Node4</title>
<a xlink:href="class_kitware_1_1_v_t_k_1_1_wrapped_object.html" target="_top" xlink:title="Base class for all the mummy wrapped classes in Kitware.VTK.">
<polygon fill="none" stroke="black" points="0.5,-76 0.5,-96 89.5,-96 89.5,-76 0.5,-76"/>
<text text-anchor="middle" x="45" y="-83" font-family="FreeSans" font-size="10.00">WrappedObject</text>
</a>
</g>
<!-- Node4&#45;&gt;Node3 -->
<g id="edge6" class="edge"><title>Node4&#45;&gt;Node3</title>
<path fill="none" stroke="midnightblue" d="M99.8895,-86C108.623,-86 117.548,-86 125.957,-86"/>
<polygon fill="midnightblue" stroke="midnightblue" points="99.7669,-82.5001 89.7668,-86 99.7668,-89.5001 99.7669,-82.5001"/>
</g>
<!-- Node6 -->
<g id="node11" class="node"><title>Node6</title>
<a xlink:href="class_kitware_1_1_v_t_k_1_1vtk_cell_locator.html" target="_top" xlink:title="vtkCellLocator &#45; octree&#45;based spatial search object to quickly locate cells">
<polygon fill="none" stroke="black" points="765.5,-228 765.5,-248 908.5,-248 908.5,-228 765.5,-228"/>
<text text-anchor="middle" x="837" y="-235" font-family="FreeSans" font-size="10.00">Kitware.VTK.vtkCellLocator</text>
</a>
</g>
<!-- Node5&#45;&gt;Node6 -->
<g id="edge10" class="edge"><title>Node5&#45;&gt;Node6</title>
<path fill="none" stroke="midnightblue" d="M644.032,-194.047C669.714,-201.926 703.586,-211.803 734,-219 747.802,-222.266 762.755,-225.306 776.877,-227.954"/>
<polygon fill="midnightblue" stroke="midnightblue" points="644.853,-190.637 634.265,-191.025 642.784,-197.324 644.853,-190.637"/>
</g>
<!-- Node7 -->
<g id="node13" class="node"><title>Node7</title>
<a xlink:href="class_kitware_1_1_v_t_k_1_1vtk_modified_b_s_p_tree.html" target="_top" xlink:title="vtkModifiedBSPTree &#45; Generate axis aligned BBox tree for raycasting and other Locator based searches...">
<polygon fill="none" stroke="black" points="753,-190 753,-210 921,-210 921,-190 753,-190"/>
<text text-anchor="middle" x="837" y="-197" font-family="FreeSans" font-size="10.00">Kitware.VTK.vtkModifiedBSPTree</text>
</a>
</g>
<!-- Node5&#45;&gt;Node7 -->
<g id="edge12" class="edge"><title>Node5&#45;&gt;Node7</title>
<path fill="none" stroke="midnightblue" d="M705.174,-189.296C721.043,-190.585 737.282,-191.903 752.698,-193.155"/>
<polygon fill="midnightblue" stroke="midnightblue" points="705.062,-185.776 694.811,-188.455 704.495,-192.753 705.062,-185.776"/>
</g>
<!-- Node8 -->
<g id="node15" class="node"><title>Node8</title>
<a xlink:href="class_kitware_1_1_v_t_k_1_1vtk_o_b_b_tree.html" target="_top" xlink:title="vtkOBBTree &#45; generate oriented bounding box (OBB) tree">
<polygon fill="none" stroke="black" points="772,-152 772,-172 902,-172 902,-152 772,-152"/>
<text text-anchor="middle" x="837" y="-159" font-family="FreeSans" font-size="10.00">Kitware.VTK.vtkOBBTree</text>
</a>
</g>
<!-- Node5&#45;&gt;Node8 -->
<g id="edge14" class="edge"><title>Node5&#45;&gt;Node8</title>
<path fill="none" stroke="midnightblue" d="M704.838,-172.731C727.563,-170.886 751.064,-168.978 771.834,-167.291"/>
<polygon fill="midnightblue" stroke="midnightblue" points="704.495,-169.247 694.811,-173.545 705.062,-176.224 704.495,-169.247"/>
</g>
<!-- Node10 -->
<g id="node19" class="node"><title>Node10</title>
<a xlink:href="class_kitware_1_1_v_t_k_1_1vtk_incremental_point_locator.html" target="_top" xlink:title="vtkIncrementalPointLocator &#45; Abstract class in support of both point location and point insertion...">
<polygon fill="none" stroke="black" points="734,-114 734,-134 940,-134 940,-114 734,-114"/>
<text text-anchor="middle" x="837" y="-121" font-family="FreeSans" font-size="10.00">Kitware.VTK.vtkIncrementalPointLocator</text>
</a>
</g>
<!-- Node9&#45;&gt;Node10 -->
<g id="edge18" class="edge"><title>Node9&#45;&gt;Node10</title>
<path fill="none" stroke="midnightblue" d="M675.001,-97.6925C707.084,-102.902 744.492,-108.977 775.273,-113.976"/>
<polygon fill="midnightblue" stroke="midnightblue" points="675.219,-94.182 664.787,-96.0338 674.096,-101.092 675.219,-94.182"/>
</g>
<!-- Node15 -->
<g id="node29" class="node"><title>Node15</title>
<a xlink:href="class_kitware_1_1_v_t_k_1_1vtk_kd_tree_point_locator.html" target="_top" xlink:title="vtkKdTreePointLocator &#45; class to quickly locate points in 3&#45;space">
<polygon fill="none" stroke="black" points="746.5,-76 746.5,-96 927.5,-96 927.5,-76 746.5,-76"/>
<text text-anchor="middle" x="837" y="-83" font-family="FreeSans" font-size="10.00">Kitware.VTK.vtkKdTreePointLocator</text>
</a>
</g>
<!-- Node9&#45;&gt;Node15 -->
<g id="edge28" class="edge"><title>Node9&#45;&gt;Node15</title>
<path fill="none" stroke="midnightblue" d="M708.329,-86C721.052,-86 733.961,-86 746.446,-86"/>
<polygon fill="midnightblue" stroke="midnightblue" points="708.177,-82.5001 698.177,-86 708.177,-89.5001 708.177,-82.5001"/>
</g>
<!-- Node16 -->
<g id="node31" class="node"><title>Node16</title>
<a xlink:href="class_kitware_1_1_v_t_k_1_1vtk_octree_point_locator.html" target="_top" xlink:title="vtkOctreePointLocator &#45; a octree spatial decomposition of a set of points">
<polygon fill="none" stroke="black" points="746,-38 746,-58 928,-58 928,-38 746,-38"/>
<text text-anchor="middle" x="837" y="-45" font-family="FreeSans" font-size="10.00">Kitware.VTK.vtkOctreePointLocator</text>
</a>
</g>
<!-- Node9&#45;&gt;Node16 -->
<g id="edge30" class="edge"><title>Node9&#45;&gt;Node16</title>
<path fill="none" stroke="midnightblue" d="M675.001,-74.3075C707.084,-69.0975 744.492,-63.0227 775.273,-58.024"/>
<polygon fill="midnightblue" stroke="midnightblue" points="674.096,-70.9085 664.787,-75.9662 675.219,-77.818 674.096,-70.9085"/>
</g>
<!-- Node11 -->
<g id="node21" class="node"><title>Node11</title>
<a xlink:href="class_kitware_1_1_v_t_k_1_1vtk_incremental_octree_point_locator.html" target="_top" xlink:title="vtkIncrementalOctreePointLocator &#45; Incremental octree in support of both point location and point ins...">
<polygon fill="none" stroke="black" points="976.5,-133 976.5,-153 1215.5,-153 1215.5,-133 976.5,-133"/>
<text text-anchor="middle" x="1096" y="-140" font-family="FreeSans" font-size="10.00">Kitware.VTK.vtkIncrementalOctreePointLocator</text>
</a>
</g>
<!-- Node10&#45;&gt;Node11 -->
<g id="edge20" class="edge"><title>Node10&#45;&gt;Node11</title>
<path fill="none" stroke="midnightblue" d="M950.17,-132.302C958.787,-132.934 967.503,-133.574 976.161,-134.209"/>
<polygon fill="midnightblue" stroke="midnightblue" points="950.337,-128.805 940.108,-131.564 949.825,-135.786 950.337,-128.805"/>
</g>
<!-- Node12 -->
<g id="node23" class="node"><title>Node12</title>
<a xlink:href="class_kitware_1_1_v_t_k_1_1vtk_point_locator.html" target="_top" xlink:title="vtkPointLocator &#45; quickly locate points in 3&#45;space">
<polygon fill="none" stroke="black" points="1021.5,-95 1021.5,-115 1170.5,-115 1170.5,-95 1021.5,-95"/>
<text text-anchor="middle" x="1096" y="-102" font-family="FreeSans" font-size="10.00">Kitware.VTK.vtkPointLocator</text>
</a>
</g>
<!-- Node10&#45;&gt;Node12 -->
<g id="edge22" class="edge"><title>Node10&#45;&gt;Node12</title>
<path fill="none" stroke="midnightblue" d="M950.33,-115.686C974.313,-113.927 999.047,-112.112 1021.17,-110.489"/>
<polygon fill="midnightblue" stroke="midnightblue" points="949.825,-112.214 940.108,-116.436 950.337,-119.195 949.825,-112.214"/>
</g>
<!-- Node13 -->
<g id="node25" class="node"><title>Node13</title>
<a xlink:href="class_kitware_1_1_v_t_k_1_1vtk_merge_points.html" target="_top" xlink:title="vtkMergePoints &#45; merge exactly coincident points">
<polygon fill="none" stroke="black" points="1281.5,-114 1281.5,-134 1430.5,-134 1430.5,-114 1281.5,-114"/>
<text text-anchor="middle" x="1356" y="-121" font-family="FreeSans" font-size="10.00">Kitware.VTK.vtkMergePoints</text>
</a>
</g>
<!-- Node12&#45;&gt;Node13 -->
<g id="edge24" class="edge"><title>Node12&#45;&gt;Node13</title>
<path fill="none" stroke="midnightblue" d="M1180.88,-111.203C1213.33,-113.574 1250.07,-116.259 1281.48,-118.555"/>
<polygon fill="midnightblue" stroke="midnightblue" points="1180.73,-107.683 1170.51,-110.445 1180.22,-114.664 1180.73,-107.683"/>
</g>
<!-- Node14 -->
<g id="node27" class="node"><title>Node14</title>
<a xlink:href="class_kitware_1_1_v_t_k_1_1vtk_non_merging_point_locator.html" target="_top" xlink:title="vtkNonMergingPointLocator &#45; direct / check&#45;free point insertion.">
<polygon fill="none" stroke="black" points="1252.5,-76 1252.5,-96 1459.5,-96 1459.5,-76 1252.5,-76"/>
<text text-anchor="middle" x="1356" y="-83" font-family="FreeSans" font-size="10.00">Kitware.VTK.vtkNonMergingPointLocator</text>
</a>
</g>
<!-- Node12&#45;&gt;Node14 -->
<g id="edge26" class="edge"><title>Node12&#45;&gt;Node14</title>
<path fill="none" stroke="midnightblue" d="M1180.53,-98.8225C1203.47,-97.1464 1228.57,-95.3126 1252.42,-93.5692"/>
<polygon fill="midnightblue" stroke="midnightblue" points="1180.22,-95.3358 1170.51,-99.5554 1180.73,-102.317 1180.22,-95.3358"/>
</g>
<!-- Node18 -->
<g id="node35" class="node"><title>Node18</title>
<a xlink:href="class_kitware_1_1_v_t_k_1_1vtk_p_kd_tree.html" target="_top" xlink:title="vtkPKdTree &#45; Build a k&#45;d tree decomposition of a list of points.">
<polygon fill="none" stroke="black" points="773.5,-0 773.5,-20 900.5,-20 900.5,-0 773.5,-0"/>
<text text-anchor="middle" x="837" y="-7" font-family="FreeSans" font-size="10.00">Kitware.VTK.vtkPKdTree</text>
</a>
</g>
<!-- Node17&#45;&gt;Node18 -->
<g id="edge34" class="edge"><title>Node17&#45;&gt;Node18</title>
<path fill="none" stroke="midnightblue" d="M673.664,-23.2623C705.402,-20.6853 742.565,-17.6678 773.418,-15.1627"/>
<polygon fill="midnightblue" stroke="midnightblue" points="673.249,-19.7844 663.565,-24.0823 673.816,-26.7614 673.249,-19.7844"/>
</g>
</g>
</svg>
