<?xml version="1.0" encoding="UTF-8" standalone="no"?>
<!DOCTYPE svg PUBLIC "-//W3C//DTD SVG 1.1//EN"
 "http://www.w3.org/Graphics/SVG/1.1/DTD/svg11.dtd">
<!-- Generated by graphviz version 2.26.3 (20100126.1600)
 -->
<!-- Title: G Pages: 1 -->
<svg width="423pt" height="890pt"
 viewBox="0.00 0.00 423.46 890.00" xmlns="http://www.w3.org/2000/svg" xmlns:xlink="http://www.w3.org/1999/xlink">
<g id="graph1" class="graph" transform="scale(1 1) rotate(0) translate(4 886)">
<title>G</title>
<!-- Node1 -->
<g id="node1" class="node"><title>Node1</title>
<polygon fill="#bfbfbf" stroke="black" points="-0.5,-1 -0.5,-21 174.5,-21 174.5,-1 -0.5,-1"/>
<text text-anchor="middle" x="87" y="-8" font-family="FreeSans" font-size="10.00">Kitware.VTK.vtkImageSpatialFilter</text>
</g>
<!-- Node2 -->
<g id="node2" class="node"><title>Node2</title>
<a xlink:href="class_kitware_1_1_v_t_k_1_1vtk_image_to_image_filter.html" target="_top" xlink:title="vtkImageToImageFilter &#45; Generic filter that has one input of type vtkImageData">
<polygon fill="none" stroke="black" points="25.5,-61 25.5,-81 148.5,-81 148.5,-61 25.5,-61"/>
<text text-anchor="middle" x="87" y="-68" font-family="FreeSans" font-size="10.00">vtkImageToImageFilter</text>
</a>
</g>
<!-- Node2&#45;&gt;Node1 -->
<g id="edge2" class="edge"><title>Node2&#45;&gt;Node1</title>
<path fill="none" stroke="midnightblue" d="M87,-50.5155C87,-40.562 87,-29.0495 87,-21.0279"/>
<polygon fill="midnightblue" stroke="midnightblue" points="83.5001,-50.8218 87,-60.8218 90.5001,-50.8219 83.5001,-50.8218"/>
</g>
<!-- Node3 -->
<g id="node4" class="node"><title>Node3</title>
<a xlink:href="class_kitware_1_1_v_t_k_1_1vtk_image_source.html" target="_top" xlink:title="vtkImageSource &#45; Source of data for the imaging pipeline">
<polygon fill="none" stroke="black" points="39.5,-121 39.5,-141 134.5,-141 134.5,-121 39.5,-121"/>
<text text-anchor="middle" x="87" y="-128" font-family="FreeSans" font-size="10.00">vtkImageSource</text>
</a>
</g>
<!-- Node3&#45;&gt;Node2 -->
<g id="edge4" class="edge"><title>Node3&#45;&gt;Node2</title>
<path fill="none" stroke="midnightblue" d="M87,-110.516C87,-100.562 87,-89.0495 87,-81.0279"/>
<polygon fill="midnightblue" stroke="midnightblue" points="83.5001,-110.822 87,-120.822 90.5001,-110.822 83.5001,-110.822"/>
</g>
<!-- Node4 -->
<g id="node6" class="node"><title>Node4</title>
<a xlink:href="class_kitware_1_1_v_t_k_1_1vtk_source.html" target="_top" xlink:title="vtkSource &#45; abstract class specifies interface for visualization network source">
<polygon fill="none" stroke="black" points="54.5,-181 54.5,-201 119.5,-201 119.5,-181 54.5,-181"/>
<text text-anchor="middle" x="87" y="-188" font-family="FreeSans" font-size="10.00">vtkSource</text>
</a>
</g>
<!-- Node4&#45;&gt;Node3 -->
<g id="edge6" class="edge"><title>Node4&#45;&gt;Node3</title>
<path fill="none" stroke="midnightblue" d="M87,-170.516C87,-160.562 87,-149.05 87,-141.028"/>
<polygon fill="midnightblue" stroke="midnightblue" points="83.5001,-170.822 87,-180.822 90.5001,-170.822 83.5001,-170.822"/>
</g>
<!-- Node5 -->
<g id="node8" class="node"><title>Node5</title>
<a xlink:href="class_kitware_1_1_v_t_k_1_1vtk_process_object.html" target="_top" xlink:title="vtkProcessObject &#45; abstract class specifies interface for visualization filters">
<polygon fill="none" stroke="black" points="37.5,-241 37.5,-261 136.5,-261 136.5,-241 37.5,-241"/>
<text text-anchor="middle" x="87" y="-248" font-family="FreeSans" font-size="10.00">vtkProcessObject</text>
</a>
</g>
<!-- Node5&#45;&gt;Node4 -->
<g id="edge8" class="edge"><title>Node5&#45;&gt;Node4</title>
<path fill="none" stroke="midnightblue" d="M87,-230.516C87,-220.562 87,-209.05 87,-201.028"/>
<polygon fill="midnightblue" stroke="midnightblue" points="83.5001,-230.822 87,-240.822 90.5001,-230.822 83.5001,-230.822"/>
</g>
<!-- Node6 -->
<g id="node10" class="node"><title>Node6</title>
<a xlink:href="class_kitware_1_1_v_t_k_1_1vtk_algorithm.html" target="_top" xlink:title="vtkAlgorithm &#45; Superclass for all sources, filters, and sinks in VTK.">
<polygon fill="none" stroke="black" points="48.5,-301 48.5,-321 125.5,-321 125.5,-301 48.5,-301"/>
<text text-anchor="middle" x="87" y="-308" font-family="FreeSans" font-size="10.00">vtkAlgorithm</text>
</a>
</g>
<!-- Node6&#45;&gt;Node5 -->
<g id="edge10" class="edge"><title>Node6&#45;&gt;Node5</title>
<path fill="none" stroke="midnightblue" d="M87,-290.516C87,-280.562 87,-269.05 87,-261.028"/>
<polygon fill="midnightblue" stroke="midnightblue" points="83.5001,-290.822 87,-300.822 90.5001,-290.822 83.5001,-290.822"/>
</g>
<!-- Node7 -->
<g id="node12" class="node"><title>Node7</title>
<a xlink:href="class_kitware_1_1_v_t_k_1_1vtk_object.html" target="_top" xlink:title="vtkObject &#45; abstract base class for most VTK objects">
<polygon fill="none" stroke="black" points="56,-361 56,-381 118,-381 118,-361 56,-361"/>
<text text-anchor="middle" x="87" y="-368" font-family="FreeSans" font-size="10.00">vtkObject</text>
</a>
</g>
<!-- Node7&#45;&gt;Node6 -->
<g id="edge12" class="edge"><title>Node7&#45;&gt;Node6</title>
<path fill="none" stroke="midnightblue" d="M87,-350.516C87,-340.562 87,-329.05 87,-321.028"/>
<polygon fill="midnightblue" stroke="midnightblue" points="83.5001,-350.822 87,-360.822 90.5001,-350.822 83.5001,-350.822"/>
</g>
<!-- Node8 -->
<g id="node14" class="node"><title>Node8</title>
<a xlink:href="class_kitware_1_1_v_t_k_1_1vtk_object_base.html" target="_top" xlink:title="vtkObjectBase &#45; abstract base class for most VTK objects">
<polygon fill="none" stroke="black" points="107,-801 107,-821 193,-821 193,-801 107,-801"/>
<text text-anchor="middle" x="150" y="-808" font-family="FreeSans" font-size="10.00">vtkObjectBase</text>
</a>
</g>
<!-- Node8&#45;&gt;Node7 -->
<g id="edge14" class="edge"><title>Node8&#45;&gt;Node7</title>
<path fill="none" stroke="midnightblue" d="M121.423,-795.886C107.687,-787.44 91.8844,-775.826 81,-762 69.1564,-746.955 68.6209,-740.802 65,-722 39.4248,-589.199 74.5766,-423.437 84.5155,-381.17"/>
<polygon fill="midnightblue" stroke="midnightblue" points="119.683,-798.923 130.079,-800.97 123.229,-792.887 119.683,-798.923"/>
</g>
<!-- Node11 -->
<g id="node21" class="node"><title>Node11</title>
<a xlink:href="class_kitware_1_1_v_t_k_1_1vtk_object.html" target="_top" xlink:title="vtkObject &#45; abstract base class for most VTK objects">
<polygon fill="none" stroke="black" points="90,-741 90,-761 210,-761 210,-741 90,-741"/>
<text text-anchor="middle" x="150" y="-748" font-family="FreeSans" font-size="10.00">Kitware.VTK.vtkObject</text>
</a>
</g>
<!-- Node8&#45;&gt;Node11 -->
<g id="edge24" class="edge"><title>Node8&#45;&gt;Node11</title>
<path fill="none" stroke="midnightblue" d="M150,-790.516C150,-780.562 150,-769.05 150,-761.028"/>
<polygon fill="midnightblue" stroke="midnightblue" points="146.5,-790.822 150,-800.822 153.5,-790.822 146.5,-790.822"/>
</g>
<!-- Node9 -->
<g id="node16" class="node"><title>Node9</title>
<a xlink:href="class_kitware_1_1_v_t_k_1_1_wrapped_object.html" target="_top" xlink:title="Base class for all the mummy wrapped classes in Kitware.VTK.">
<polygon fill="none" stroke="black" points="288.5,-861 288.5,-881 377.5,-881 377.5,-861 288.5,-861"/>
<text text-anchor="middle" x="333" y="-868" font-family="FreeSans" font-size="10.00">WrappedObject</text>
</a>
</g>
<!-- Node9&#45;&gt;Node8 -->
<g id="edge16" class="edge"><title>Node9&#45;&gt;Node8</title>
<path fill="none" stroke="midnightblue" d="M292.804,-857.821C259.042,-846.752 211.512,-831.168 180.73,-821.075"/>
<polygon fill="midnightblue" stroke="midnightblue" points="291.777,-861.168 302.37,-860.957 293.958,-854.516 291.777,-861.168"/>
</g>
<!-- Node10 -->
<g id="node18" class="node"><title>Node10</title>
<a xlink:href="class_kitware_1_1_v_t_k_1_1vtk_object_event_relay.html" target="_top" xlink:title="Implement a relay handler for VTK events. This is a class that receives events directly from the VTK ...">
<polygon fill="none" stroke="black" points="79,-551 79,-571 251,-571 251,-551 79,-551"/>
<text text-anchor="middle" x="165" y="-558" font-family="FreeSans" font-size="10.00">Kitware.VTK.vtkObjectEventRelay</text>
</a>
</g>
<!-- Node9&#45;&gt;Node10 -->
<g id="edge20" class="edge"><title>Node9&#45;&gt;Node10</title>
<path fill="none" stroke="midnightblue" d="M345.888,-852.325C378.276,-802.899 455.803,-667.191 388,-590 378.773,-579.495 310.047,-571.666 251.298,-566.808"/>
<polygon fill="midnightblue" stroke="midnightblue" points="342.891,-850.509 340.239,-860.767 348.709,-854.402 342.891,-850.509"/>
</g>
<!-- Node10&#45;&gt;Node7 -->
<g id="edge18" class="edge"><title>Node10&#45;&gt;Node7</title>
<path fill="none" stroke="#9a32cd" stroke-dasharray="5,2" d="M156.921,-541.321C140.489,-501.293 103.674,-411.616 91.2144,-381.266"/>
<polygon fill="#9a32cd" stroke="#9a32cd" points="153.771,-542.863 160.806,-550.785 160.246,-540.205 153.771,-542.863"/>
<text text-anchor="middle" x="264.5" y="-523" font-family="FreeSans" font-size="10.00"> LeftButtonReleaseEvtRelay</text>
<text text-anchor="middle" x="264.5" y="-511" font-family="FreeSans" font-size="10.00">KeyPressEvtRelay</text>
<text text-anchor="middle" x="264.5" y="-499" font-family="FreeSans" font-size="10.00">DomainModifiedEvtRelay</text>
<text text-anchor="middle" x="264.5" y="-487" font-family="FreeSans" font-size="10.00">VolumeMapperComputeGradientsStartEvtRelay</text>
<text text-anchor="middle" x="264.5" y="-475" font-family="FreeSans" font-size="10.00">ErrorEvtRelay</text>
<text text-anchor="middle" x="264.5" y="-463" font-family="FreeSans" font-size="10.00">VolumeMapperRenderStartEvtRelay</text>
<text text-anchor="middle" x="264.5" y="-451" font-family="FreeSans" font-size="10.00">StartEvtRelay</text>
<text text-anchor="middle" x="264.5" y="-439" font-family="FreeSans" font-size="10.00">ResetCameraEvtRelay</text>
<text text-anchor="middle" x="264.5" y="-427" font-family="FreeSans" font-size="10.00">EnableEvtRelay</text>
<text text-anchor="middle" x="264.5" y="-415" font-family="FreeSans" font-size="10.00">DeleteEvtRelay</text>
<text text-anchor="middle" x="264.5" y="-403" font-family="FreeSans" font-size="10.00">...</text>
</g>
<!-- Node10&#45;&gt;Node11 -->
<g id="edge26" class="edge"><title>Node10&#45;&gt;Node11</title>
<path fill="none" stroke="#9a32cd" stroke-dasharray="5,2" d="M162.028,-581.231C161.649,-584.169 161.293,-587.159 161,-590 155.144,-646.853 151.636,-715.333 150.452,-740.807"/>
<polygon fill="#9a32cd" stroke="#9a32cd" points="165.515,-581.565 163.421,-571.179 158.582,-580.604 165.515,-581.565"/>
<text text-anchor="middle" x="274.5" y="-713" font-family="FreeSans" font-size="10.00"> LeftButtonReleaseEvtRelay</text>
<text text-anchor="middle" x="274.5" y="-701" font-family="FreeSans" font-size="10.00">KeyPressEvtRelay</text>
<text text-anchor="middle" x="274.5" y="-689" font-family="FreeSans" font-size="10.00">DomainModifiedEvtRelay</text>
<text text-anchor="middle" x="274.5" y="-677" font-family="FreeSans" font-size="10.00">VolumeMapperComputeGradientsStartEvtRelay</text>
<text text-anchor="middle" x="274.5" y="-665" font-family="FreeSans" font-size="10.00">ErrorEvtRelay</text>
<text text-anchor="middle" x="274.5" y="-653" font-family="FreeSans" font-size="10.00">VolumeMapperRenderStartEvtRelay</text>
<text text-anchor="middle" x="274.5" y="-641" font-family="FreeSans" font-size="10.00">StartEvtRelay</text>
<text text-anchor="middle" x="274.5" y="-629" font-family="FreeSans" font-size="10.00">ResetCameraEvtRelay</text>
<text text-anchor="middle" x="274.5" y="-617" font-family="FreeSans" font-size="10.00">EnableEvtRelay</text>
<text text-anchor="middle" x="274.5" y="-605" font-family="FreeSans" font-size="10.00">DeleteEvtRelay</text>
<text text-anchor="middle" x="274.5" y="-593" font-family="FreeSans" font-size="10.00">...</text>
</g>
<!-- Node11&#45;&gt;Node10 -->
<g id="edge22" class="edge"><title>Node11&#45;&gt;Node10</title>
<path fill="none" stroke="#9a32cd" stroke-dasharray="5,2" d="M103.979,-735.818C98.4393,-732.138 93.5104,-727.596 90,-722 58.8229,-672.303 56.8299,-638.389 90,-590 94.7359,-583.091 111.511,-576.287 127.999,-571.008"/>
<polygon fill="#9a32cd" stroke="#9a32cd" points="102.639,-739.079 113.072,-740.919 106.064,-732.974 102.639,-739.079"/>
<text text-anchor="middle" x="114" y="-659" font-family="FreeSans" font-size="10.00"> Sender</text>
<text text-anchor="middle" x="114" y="-647" font-family="FreeSans" font-size="10.00">EventImpl</text>
</g>
</g>
</svg>
