<?xml version="1.0" encoding="UTF-8" standalone="no"?>
<!DOCTYPE svg PUBLIC "-//W3C//DTD SVG 1.1//EN"
 "http://www.w3.org/Graphics/SVG/1.1/DTD/svg11.dtd">
<!-- Generated by graphviz version 2.26.3 (20100126.1600)
 -->
<!-- Title: G Pages: 1 -->
<svg width="290pt" height="494pt"
 viewBox="0.00 0.00 290.00 494.00" xmlns="http://www.w3.org/2000/svg" xmlns:xlink="http://www.w3.org/1999/xlink">
<g id="graph1" class="graph" transform="scale(1 1) rotate(0) translate(4 490)">
<title>G</title>
<!-- Node1 -->
<g id="node1" class="node"><title>Node1</title>
<polygon fill="#bfbfbf" stroke="black" points="-0.5,-1 -0.5,-21 282.5,-21 282.5,-1 -0.5,-1"/>
<text text-anchor="middle" x="141" y="-8" font-family="FreeSans" font-size="10.00">Kitware.VTK.vtkUnstructuredGridVolumeRayCastMapper</text>
</g>
<!-- Node2 -->
<g id="node2" class="node"><title>Node2</title>
<a xlink:href="class_kitware_1_1_v_t_k_1_1vtk_unstructured_grid_volume_mapper.html" target="_top" xlink:title="vtkUnstructuredGridVolumeMapper &#45; Abstract class for a unstructured grid volume mapper">
<polygon fill="none" stroke="black" points="48.5,-59 48.5,-79 233.5,-79 233.5,-59 48.5,-59"/>
<text text-anchor="middle" x="141" y="-66" font-family="FreeSans" font-size="10.00">vtkUnstructuredGridVolumeMapper</text>
</a>
</g>
<!-- Node2&#45;&gt;Node1 -->
<g id="edge2" class="edge"><title>Node2&#45;&gt;Node1</title>
<path fill="none" stroke="midnightblue" d="M141,-48.8902C141,-39.6201 141,-29.0083 141,-21.3776"/>
<polygon fill="midnightblue" stroke="midnightblue" points="137.5,-48.8971 141,-58.8972 144.5,-48.8972 137.5,-48.8971"/>
</g>
<!-- Node3 -->
<g id="node4" class="node"><title>Node3</title>
<a xlink:href="class_kitware_1_1_v_t_k_1_1vtk_abstract_volume_mapper.html" target="_top" xlink:title="vtkAbstractVolumeMapper &#45; Abstract class for a volume mapper">
<polygon fill="none" stroke="black" points="69.5,-117 69.5,-137 212.5,-137 212.5,-117 69.5,-117"/>
<text text-anchor="middle" x="141" y="-124" font-family="FreeSans" font-size="10.00">vtkAbstractVolumeMapper</text>
</a>
</g>
<!-- Node3&#45;&gt;Node2 -->
<g id="edge4" class="edge"><title>Node3&#45;&gt;Node2</title>
<path fill="none" stroke="midnightblue" d="M141,-106.89C141,-97.6201 141,-87.0083 141,-79.3776"/>
<polygon fill="midnightblue" stroke="midnightblue" points="137.5,-106.897 141,-116.897 144.5,-106.897 137.5,-106.897"/>
</g>
<!-- Node4 -->
<g id="node6" class="node"><title>Node4</title>
<a xlink:href="class_kitware_1_1_v_t_k_1_1vtk_abstract_mapper3_d.html" target="_top" xlink:title="vtkAbstractMapper3D &#45; abstract class specifies interface to map 3D data">
<polygon fill="none" stroke="black" points="80.5,-175 80.5,-195 201.5,-195 201.5,-175 80.5,-175"/>
<text text-anchor="middle" x="141" y="-182" font-family="FreeSans" font-size="10.00">vtkAbstractMapper3D</text>
</a>
</g>
<!-- Node4&#45;&gt;Node3 -->
<g id="edge6" class="edge"><title>Node4&#45;&gt;Node3</title>
<path fill="none" stroke="midnightblue" d="M141,-164.89C141,-155.62 141,-145.008 141,-137.378"/>
<polygon fill="midnightblue" stroke="midnightblue" points="137.5,-164.897 141,-174.897 144.5,-164.897 137.5,-164.897"/>
</g>
<!-- Node5 -->
<g id="node8" class="node"><title>Node5</title>
<a xlink:href="class_kitware_1_1_v_t_k_1_1vtk_abstract_mapper.html" target="_top" xlink:title="vtkAbstractMapper &#45; abstract class specifies interface to map data">
<polygon fill="none" stroke="black" points="87.5,-233 87.5,-253 194.5,-253 194.5,-233 87.5,-233"/>
<text text-anchor="middle" x="141" y="-240" font-family="FreeSans" font-size="10.00">vtkAbstractMapper</text>
</a>
</g>
<!-- Node5&#45;&gt;Node4 -->
<g id="edge8" class="edge"><title>Node5&#45;&gt;Node4</title>
<path fill="none" stroke="midnightblue" d="M141,-222.89C141,-213.62 141,-203.008 141,-195.378"/>
<polygon fill="midnightblue" stroke="midnightblue" points="137.5,-222.897 141,-232.897 144.5,-222.897 137.5,-222.897"/>
</g>
<!-- Node6 -->
<g id="node10" class="node"><title>Node6</title>
<a xlink:href="class_kitware_1_1_v_t_k_1_1vtk_algorithm.html" target="_top" xlink:title="vtkAlgorithm &#45; Superclass for all sources, filters, and sinks in VTK.">
<polygon fill="none" stroke="black" points="102.5,-291 102.5,-311 179.5,-311 179.5,-291 102.5,-291"/>
<text text-anchor="middle" x="141" y="-298" font-family="FreeSans" font-size="10.00">vtkAlgorithm</text>
</a>
</g>
<!-- Node6&#45;&gt;Node5 -->
<g id="edge10" class="edge"><title>Node6&#45;&gt;Node5</title>
<path fill="none" stroke="midnightblue" d="M141,-280.89C141,-271.62 141,-261.008 141,-253.378"/>
<polygon fill="midnightblue" stroke="midnightblue" points="137.5,-280.897 141,-290.897 144.5,-280.897 137.5,-280.897"/>
</g>
<!-- Node7 -->
<g id="node12" class="node"><title>Node7</title>
<a xlink:href="class_kitware_1_1_v_t_k_1_1vtk_object.html" target="_top" xlink:title="vtkObject &#45; abstract base class for most VTK objects">
<polygon fill="none" stroke="black" points="110,-349 110,-369 172,-369 172,-349 110,-349"/>
<text text-anchor="middle" x="141" y="-356" font-family="FreeSans" font-size="10.00">vtkObject</text>
</a>
</g>
<!-- Node7&#45;&gt;Node6 -->
<g id="edge12" class="edge"><title>Node7&#45;&gt;Node6</title>
<path fill="none" stroke="midnightblue" d="M141,-338.89C141,-329.62 141,-319.008 141,-311.378"/>
<polygon fill="midnightblue" stroke="midnightblue" points="137.5,-338.897 141,-348.897 144.5,-338.897 137.5,-338.897"/>
</g>
<!-- Node8 -->
<g id="node14" class="node"><title>Node8</title>
<a xlink:href="class_kitware_1_1_v_t_k_1_1vtk_object_base.html" target="_top" xlink:title="vtkObjectBase &#45; abstract base class for most VTK objects">
<polygon fill="none" stroke="black" points="98,-407 98,-427 184,-427 184,-407 98,-407"/>
<text text-anchor="middle" x="141" y="-414" font-family="FreeSans" font-size="10.00">vtkObjectBase</text>
</a>
</g>
<!-- Node8&#45;&gt;Node7 -->
<g id="edge14" class="edge"><title>Node8&#45;&gt;Node7</title>
<path fill="none" stroke="midnightblue" d="M141,-396.89C141,-387.62 141,-377.008 141,-369.378"/>
<polygon fill="midnightblue" stroke="midnightblue" points="137.5,-396.897 141,-406.897 144.5,-396.897 137.5,-396.897"/>
</g>
<!-- Node9 -->
<g id="node16" class="node"><title>Node9</title>
<a xlink:href="class_kitware_1_1_v_t_k_1_1_wrapped_object.html" target="_top" xlink:title="Base class for all the mummy wrapped classes in Kitware.VTK.">
<polygon fill="none" stroke="black" points="96.5,-465 96.5,-485 185.5,-485 185.5,-465 96.5,-465"/>
<text text-anchor="middle" x="141" y="-472" font-family="FreeSans" font-size="10.00">WrappedObject</text>
</a>
</g>
<!-- Node9&#45;&gt;Node8 -->
<g id="edge16" class="edge"><title>Node9&#45;&gt;Node8</title>
<path fill="none" stroke="midnightblue" d="M141,-454.89C141,-445.62 141,-435.008 141,-427.378"/>
<polygon fill="midnightblue" stroke="midnightblue" points="137.5,-454.897 141,-464.897 144.5,-454.897 137.5,-454.897"/>
</g>
</g>
</svg>
