<?xml version="1.0" encoding="UTF-8" standalone="no"?>
<!DOCTYPE svg PUBLIC "-//W3C//DTD SVG 1.1//EN"
 "http://www.w3.org/Graphics/SVG/1.1/DTD/svg11.dtd">
<!-- Generated by graphviz version 2.26.3 (20100126.1600)
 -->
<!-- Title: G Pages: 1 -->
<svg width="443pt" height="770pt"
 viewBox="0.00 0.00 443.46 770.00" xmlns="http://www.w3.org/2000/svg" xmlns:xlink="http://www.w3.org/1999/xlink">
<g id="graph1" class="graph" transform="scale(1 1) rotate(0) translate(4 766)">
<title>G</title>
<!-- Node1 -->
<g id="node1" class="node"><title>Node1</title>
<polygon fill="#bfbfbf" stroke="black" points="-0.5,-1 -0.5,-21 214.5,-21 214.5,-1 -0.5,-1"/>
<text text-anchor="middle" x="107" y="-8" font-family="FreeSans" font-size="10.00">Kitware.VTK.vtkImageButterworthLowPass</text>
</g>
<!-- Node2 -->
<g id="node2" class="node"><title>Node2</title>
<a xlink:href="class_kitware_1_1_v_t_k_1_1vtk_threaded_image_algorithm.html" target="_top" xlink:title="vtkThreadedImageAlgorithm &#45; Generic filter that has one input..">
<polygon fill="none" stroke="black" points="31,-61 31,-81 183,-81 183,-61 31,-61"/>
<text text-anchor="middle" x="107" y="-68" font-family="FreeSans" font-size="10.00">vtkThreadedImageAlgorithm</text>
</a>
</g>
<!-- Node2&#45;&gt;Node1 -->
<g id="edge2" class="edge"><title>Node2&#45;&gt;Node1</title>
<path fill="none" stroke="midnightblue" d="M107,-50.5155C107,-40.562 107,-29.0495 107,-21.0279"/>
<polygon fill="midnightblue" stroke="midnightblue" points="103.5,-50.8218 107,-60.8218 110.5,-50.8219 103.5,-50.8218"/>
</g>
<!-- Node3 -->
<g id="node4" class="node"><title>Node3</title>
<a xlink:href="class_kitware_1_1_v_t_k_1_1vtk_image_algorithm.html" target="_top" xlink:title="vtkImageAlgorithm &#45; Generic algorithm superclass for image algs">
<polygon fill="none" stroke="black" points="53.5,-121 53.5,-141 160.5,-141 160.5,-121 53.5,-121"/>
<text text-anchor="middle" x="107" y="-128" font-family="FreeSans" font-size="10.00">vtkImageAlgorithm</text>
</a>
</g>
<!-- Node3&#45;&gt;Node2 -->
<g id="edge4" class="edge"><title>Node3&#45;&gt;Node2</title>
<path fill="none" stroke="midnightblue" d="M107,-110.516C107,-100.562 107,-89.0495 107,-81.0279"/>
<polygon fill="midnightblue" stroke="midnightblue" points="103.5,-110.822 107,-120.822 110.5,-110.822 103.5,-110.822"/>
</g>
<!-- Node4 -->
<g id="node6" class="node"><title>Node4</title>
<a xlink:href="class_kitware_1_1_v_t_k_1_1vtk_algorithm.html" target="_top" xlink:title="vtkAlgorithm &#45; Superclass for all sources, filters, and sinks in VTK.">
<polygon fill="none" stroke="black" points="68.5,-181 68.5,-201 145.5,-201 145.5,-181 68.5,-181"/>
<text text-anchor="middle" x="107" y="-188" font-family="FreeSans" font-size="10.00">vtkAlgorithm</text>
</a>
</g>
<!-- Node4&#45;&gt;Node3 -->
<g id="edge6" class="edge"><title>Node4&#45;&gt;Node3</title>
<path fill="none" stroke="midnightblue" d="M107,-170.516C107,-160.562 107,-149.05 107,-141.028"/>
<polygon fill="midnightblue" stroke="midnightblue" points="103.5,-170.822 107,-180.822 110.5,-170.822 103.5,-170.822"/>
</g>
<!-- Node5 -->
<g id="node8" class="node"><title>Node5</title>
<a xlink:href="class_kitware_1_1_v_t_k_1_1vtk_object.html" target="_top" xlink:title="vtkObject &#45; abstract base class for most VTK objects">
<polygon fill="none" stroke="black" points="76,-241 76,-261 138,-261 138,-241 76,-241"/>
<text text-anchor="middle" x="107" y="-248" font-family="FreeSans" font-size="10.00">vtkObject</text>
</a>
</g>
<!-- Node5&#45;&gt;Node4 -->
<g id="edge8" class="edge"><title>Node5&#45;&gt;Node4</title>
<path fill="none" stroke="midnightblue" d="M107,-230.516C107,-220.562 107,-209.05 107,-201.028"/>
<polygon fill="midnightblue" stroke="midnightblue" points="103.5,-230.822 107,-240.822 110.5,-230.822 103.5,-230.822"/>
</g>
<!-- Node6 -->
<g id="node10" class="node"><title>Node6</title>
<a xlink:href="class_kitware_1_1_v_t_k_1_1vtk_object_base.html" target="_top" xlink:title="vtkObjectBase &#45; abstract base class for most VTK objects">
<polygon fill="none" stroke="black" points="127,-681 127,-701 213,-701 213,-681 127,-681"/>
<text text-anchor="middle" x="170" y="-688" font-family="FreeSans" font-size="10.00">vtkObjectBase</text>
</a>
</g>
<!-- Node6&#45;&gt;Node5 -->
<g id="edge10" class="edge"><title>Node6&#45;&gt;Node5</title>
<path fill="none" stroke="midnightblue" d="M141.423,-675.886C127.687,-667.44 111.884,-655.826 101,-642 89.1564,-626.955 88.6209,-620.802 85,-602 59.4248,-469.199 94.5766,-303.437 104.516,-261.17"/>
<polygon fill="midnightblue" stroke="midnightblue" points="139.683,-678.923 150.079,-680.97 143.229,-672.887 139.683,-678.923"/>
</g>
<!-- Node9 -->
<g id="node17" class="node"><title>Node9</title>
<a xlink:href="class_kitware_1_1_v_t_k_1_1vtk_object.html" target="_top" xlink:title="vtkObject &#45; abstract base class for most VTK objects">
<polygon fill="none" stroke="black" points="110,-621 110,-641 230,-641 230,-621 110,-621"/>
<text text-anchor="middle" x="170" y="-628" font-family="FreeSans" font-size="10.00">Kitware.VTK.vtkObject</text>
</a>
</g>
<!-- Node6&#45;&gt;Node9 -->
<g id="edge20" class="edge"><title>Node6&#45;&gt;Node9</title>
<path fill="none" stroke="midnightblue" d="M170,-670.516C170,-660.562 170,-649.05 170,-641.028"/>
<polygon fill="midnightblue" stroke="midnightblue" points="166.5,-670.822 170,-680.822 173.5,-670.822 166.5,-670.822"/>
</g>
<!-- Node7 -->
<g id="node12" class="node"><title>Node7</title>
<a xlink:href="class_kitware_1_1_v_t_k_1_1_wrapped_object.html" target="_top" xlink:title="Base class for all the mummy wrapped classes in Kitware.VTK.">
<polygon fill="none" stroke="black" points="308.5,-741 308.5,-761 397.5,-761 397.5,-741 308.5,-741"/>
<text text-anchor="middle" x="353" y="-748" font-family="FreeSans" font-size="10.00">WrappedObject</text>
</a>
</g>
<!-- Node7&#45;&gt;Node6 -->
<g id="edge12" class="edge"><title>Node7&#45;&gt;Node6</title>
<path fill="none" stroke="midnightblue" d="M312.804,-737.821C279.042,-726.752 231.512,-711.168 200.73,-701.075"/>
<polygon fill="midnightblue" stroke="midnightblue" points="311.777,-741.168 322.37,-740.957 313.958,-734.516 311.777,-741.168"/>
</g>
<!-- Node8 -->
<g id="node14" class="node"><title>Node8</title>
<a xlink:href="class_kitware_1_1_v_t_k_1_1vtk_object_event_relay.html" target="_top" xlink:title="Implement a relay handler for VTK events. This is a class that receives events directly from the VTK ...">
<polygon fill="none" stroke="black" points="99,-431 99,-451 271,-451 271,-431 99,-431"/>
<text text-anchor="middle" x="185" y="-438" font-family="FreeSans" font-size="10.00">Kitware.VTK.vtkObjectEventRelay</text>
</a>
</g>
<!-- Node7&#45;&gt;Node8 -->
<g id="edge16" class="edge"><title>Node7&#45;&gt;Node8</title>
<path fill="none" stroke="midnightblue" d="M365.888,-732.325C398.276,-682.899 475.803,-547.191 408,-470 398.773,-459.495 330.047,-451.666 271.298,-446.808"/>
<polygon fill="midnightblue" stroke="midnightblue" points="362.891,-730.509 360.239,-740.767 368.709,-734.402 362.891,-730.509"/>
</g>
<!-- Node8&#45;&gt;Node5 -->
<g id="edge14" class="edge"><title>Node8&#45;&gt;Node5</title>
<path fill="none" stroke="#9a32cd" stroke-dasharray="5,2" d="M176.921,-421.321C160.489,-381.293 123.674,-291.616 111.214,-261.266"/>
<polygon fill="#9a32cd" stroke="#9a32cd" points="173.771,-422.863 180.806,-430.785 180.246,-420.205 173.771,-422.863"/>
<text text-anchor="middle" x="284.5" y="-403" font-family="FreeSans" font-size="10.00"> LeftButtonReleaseEvtRelay</text>
<text text-anchor="middle" x="284.5" y="-391" font-family="FreeSans" font-size="10.00">KeyPressEvtRelay</text>
<text text-anchor="middle" x="284.5" y="-379" font-family="FreeSans" font-size="10.00">DomainModifiedEvtRelay</text>
<text text-anchor="middle" x="284.5" y="-367" font-family="FreeSans" font-size="10.00">VolumeMapperComputeGradientsStartEvtRelay</text>
<text text-anchor="middle" x="284.5" y="-355" font-family="FreeSans" font-size="10.00">ErrorEvtRelay</text>
<text text-anchor="middle" x="284.5" y="-343" font-family="FreeSans" font-size="10.00">VolumeMapperRenderStartEvtRelay</text>
<text text-anchor="middle" x="284.5" y="-331" font-family="FreeSans" font-size="10.00">StartEvtRelay</text>
<text text-anchor="middle" x="284.5" y="-319" font-family="FreeSans" font-size="10.00">ResetCameraEvtRelay</text>
<text text-anchor="middle" x="284.5" y="-307" font-family="FreeSans" font-size="10.00">EnableEvtRelay</text>
<text text-anchor="middle" x="284.5" y="-295" font-family="FreeSans" font-size="10.00">DeleteEvtRelay</text>
<text text-anchor="middle" x="284.5" y="-283" font-family="FreeSans" font-size="10.00">...</text>
</g>
<!-- Node8&#45;&gt;Node9 -->
<g id="edge22" class="edge"><title>Node8&#45;&gt;Node9</title>
<path fill="none" stroke="#9a32cd" stroke-dasharray="5,2" d="M182.028,-461.231C181.649,-464.169 181.293,-467.159 181,-470 175.144,-526.853 171.636,-595.333 170.452,-620.807"/>
<polygon fill="#9a32cd" stroke="#9a32cd" points="185.515,-461.565 183.421,-451.179 178.582,-460.604 185.515,-461.565"/>
<text text-anchor="middle" x="294.5" y="-593" font-family="FreeSans" font-size="10.00"> LeftButtonReleaseEvtRelay</text>
<text text-anchor="middle" x="294.5" y="-581" font-family="FreeSans" font-size="10.00">KeyPressEvtRelay</text>
<text text-anchor="middle" x="294.5" y="-569" font-family="FreeSans" font-size="10.00">DomainModifiedEvtRelay</text>
<text text-anchor="middle" x="294.5" y="-557" font-family="FreeSans" font-size="10.00">VolumeMapperComputeGradientsStartEvtRelay</text>
<text text-anchor="middle" x="294.5" y="-545" font-family="FreeSans" font-size="10.00">ErrorEvtRelay</text>
<text text-anchor="middle" x="294.5" y="-533" font-family="FreeSans" font-size="10.00">VolumeMapperRenderStartEvtRelay</text>
<text text-anchor="middle" x="294.5" y="-521" font-family="FreeSans" font-size="10.00">StartEvtRelay</text>
<text text-anchor="middle" x="294.5" y="-509" font-family="FreeSans" font-size="10.00">ResetCameraEvtRelay</text>
<text text-anchor="middle" x="294.5" y="-497" font-family="FreeSans" font-size="10.00">EnableEvtRelay</text>
<text text-anchor="middle" x="294.5" y="-485" font-family="FreeSans" font-size="10.00">DeleteEvtRelay</text>
<text text-anchor="middle" x="294.5" y="-473" font-family="FreeSans" font-size="10.00">...</text>
</g>
<!-- Node9&#45;&gt;Node8 -->
<g id="edge18" class="edge"><title>Node9&#45;&gt;Node8</title>
<path fill="none" stroke="#9a32cd" stroke-dasharray="5,2" d="M123.979,-615.818C118.439,-612.138 113.51,-607.596 110,-602 78.8229,-552.303 76.8299,-518.389 110,-470 114.736,-463.091 131.511,-456.287 147.999,-451.008"/>
<polygon fill="#9a32cd" stroke="#9a32cd" points="122.639,-619.079 133.072,-620.919 126.064,-612.974 122.639,-619.079"/>
<text text-anchor="middle" x="134" y="-539" font-family="FreeSans" font-size="10.00"> Sender</text>
<text text-anchor="middle" x="134" y="-527" font-family="FreeSans" font-size="10.00">EventImpl</text>
</g>
</g>
</svg>
