<?xml version="1.0" encoding="UTF-8" standalone="no"?>
<!DOCTYPE svg PUBLIC "-//W3C//DTD SVG 1.1//EN"
 "http://www.w3.org/Graphics/SVG/1.1/DTD/svg11.dtd">
<!-- Generated by graphviz version 2.26.3 (20100126.1600)
 -->
<!-- Title: G Pages: 1 -->
<svg width="1646pt" height="142pt"
 viewBox="0.00 0.00 1646.00 142.00" xmlns="http://www.w3.org/2000/svg" xmlns:xlink="http://www.w3.org/1999/xlink">
<g id="graph1" class="graph" transform="scale(1 1) rotate(0) translate(4 138)">
<title>G</title>
<!-- Node1 -->
<g id="node1" class="node"><title>Node1</title>
<polygon fill="#bfbfbf" stroke="black" points="802,-57 802,-77 1008,-77 1008,-57 802,-57"/>
<text text-anchor="middle" x="905" y="-64" font-family="FreeSans" font-size="10.00">Kitware.VTK.vtkRenderedRepresentation</text>
</g>
<!-- Node8 -->
<g id="node15" class="node"><title>Node8</title>
<a xlink:href="class_kitware_1_1_v_t_k_1_1vtk_parallel_coordinates_representation.html" target="_top" xlink:title="vtkParallelCoordinatesRepresentation &#45; Data representation that takes generic multivariate data and p...">
<polygon fill="none" stroke="black" points="1044.5,-114 1044.5,-134 1297.5,-134 1297.5,-114 1044.5,-114"/>
<text text-anchor="middle" x="1171" y="-121" font-family="FreeSans" font-size="10.00">Kitware.VTK.vtkParallelCoordinatesRepresentation</text>
</a>
</g>
<!-- Node1&#45;&gt;Node8 -->
<g id="edge14" class="edge"><title>Node1&#45;&gt;Node8</title>
<path fill="none" stroke="midnightblue" d="M946.97,-79.8683C974.386,-87.9273 1011.08,-98.0627 1044,-105 1060.03,-108.379 1077.33,-111.383 1093.84,-113.951"/>
<polygon fill="midnightblue" stroke="midnightblue" points="947.896,-76.4922 937.314,-77.0029 945.905,-83.203 947.896,-76.4922"/>
</g>
<!-- Node10 -->
<g id="node19" class="node"><title>Node10</title>
<a xlink:href="class_kitware_1_1_v_t_k_1_1vtk_rendered_graph_representation.html" target="_top" xlink:title="vtkRenderedGraphRepresentation &#45;">
<polygon fill="none" stroke="black" points="1053,-76 1053,-96 1289,-96 1289,-76 1053,-76"/>
<text text-anchor="middle" x="1171" y="-83" font-family="FreeSans" font-size="10.00">Kitware.VTK.vtkRenderedGraphRepresentation</text>
</a>
</g>
<!-- Node1&#45;&gt;Node10 -->
<g id="edge18" class="edge"><title>Node1&#45;&gt;Node10</title>
<path fill="none" stroke="midnightblue" d="M1018.22,-75.087C1029.66,-75.9043 1041.3,-76.7359 1052.79,-77.5568"/>
<polygon fill="midnightblue" stroke="midnightblue" points="1018.45,-71.5945 1008.22,-74.3731 1017.95,-78.5768 1018.45,-71.5945"/>
</g>
<!-- Node12 -->
<g id="node23" class="node"><title>Node12</title>
<a xlink:href="class_kitware_1_1_v_t_k_1_1vtk_rendered_surface_representation.html" target="_top" xlink:title="vtkRenderedSurfaceRepresentation &#45; Displays a geometric dataset as a surface.">
<polygon fill="none" stroke="black" points="1049.5,-38 1049.5,-58 1292.5,-58 1292.5,-38 1049.5,-38"/>
<text text-anchor="middle" x="1171" y="-45" font-family="FreeSans" font-size="10.00">Kitware.VTK.vtkRenderedSurfaceRepresentation</text>
</a>
</g>
<!-- Node1&#45;&gt;Node12 -->
<g id="edge22" class="edge"><title>Node1&#45;&gt;Node12</title>
<path fill="none" stroke="midnightblue" d="M1018.37,-58.9021C1028.58,-58.1729 1038.95,-57.4324 1049.22,-56.6983"/>
<polygon fill="midnightblue" stroke="midnightblue" points="1017.95,-55.4232 1008.22,-59.6269 1018.45,-62.4055 1017.95,-55.4232"/>
</g>
<!-- Node13 -->
<g id="node25" class="node"><title>Node13</title>
<a xlink:href="class_kitware_1_1_v_t_k_1_1vtk_rendered_tree_area_representation.html" target="_top" xlink:title="vtkRenderedTreeAreaRepresentation &#45;">
<polygon fill="none" stroke="black" points="1047,-0 1047,-20 1295,-20 1295,-0 1047,-0"/>
<text text-anchor="middle" x="1171" y="-7" font-family="FreeSans" font-size="10.00">Kitware.VTK.vtkRenderedTreeAreaRepresentation</text>
</a>
</g>
<!-- Node1&#45;&gt;Node13 -->
<g id="edge24" class="edge"><title>Node1&#45;&gt;Node13</title>
<path fill="none" stroke="midnightblue" d="M946.97,-54.1317C974.386,-46.0727 1011.08,-35.9373 1044,-29 1060.03,-25.6213 1077.33,-22.6165 1093.84,-20.0494"/>
<polygon fill="midnightblue" stroke="midnightblue" points="945.905,-50.797 937.314,-56.9971 947.896,-57.5078 945.905,-50.797"/>
</g>
<!-- Node2 -->
<g id="node2" class="node"><title>Node2</title>
<a xlink:href="class_kitware_1_1_v_t_k_1_1vtk_data_representation.html" target="_top" xlink:title="vtkDataRepresentation &#45; The superclass for all representations">
<polygon fill="none" stroke="black" points="640,-57 640,-77 766,-77 766,-57 640,-57"/>
<text text-anchor="middle" x="703" y="-64" font-family="FreeSans" font-size="10.00">vtkDataRepresentation</text>
</a>
</g>
<!-- Node2&#45;&gt;Node1 -->
<g id="edge2" class="edge"><title>Node2&#45;&gt;Node1</title>
<path fill="none" stroke="midnightblue" d="M776.091,-67C784.422,-67 793.027,-67 801.655,-67"/>
<polygon fill="midnightblue" stroke="midnightblue" points="776.083,-63.5001 766.083,-67 776.083,-70.5001 776.083,-63.5001"/>
</g>
<!-- Node3 -->
<g id="node4" class="node"><title>Node3</title>
<a xlink:href="class_kitware_1_1_v_t_k_1_1vtk_pass_input_type_algorithm.html" target="_top" xlink:title="vtkPassInputTypeAlgorithm &#45; Superclass for algorithms that produce output of the same type as input...">
<polygon fill="none" stroke="black" points="460,-57 460,-77 604,-77 604,-57 460,-57"/>
<text text-anchor="middle" x="532" y="-64" font-family="FreeSans" font-size="10.00">vtkPassInputTypeAlgorithm</text>
</a>
</g>
<!-- Node3&#45;&gt;Node2 -->
<g id="edge4" class="edge"><title>Node3&#45;&gt;Node2</title>
<path fill="none" stroke="midnightblue" d="M614.099,-67C622.717,-67 631.382,-67 639.742,-67"/>
<polygon fill="midnightblue" stroke="midnightblue" points="614.024,-63.5001 604.024,-67 614.024,-70.5001 614.024,-63.5001"/>
</g>
<!-- Node4 -->
<g id="node6" class="node"><title>Node4</title>
<a xlink:href="class_kitware_1_1_v_t_k_1_1vtk_algorithm.html" target="_top" xlink:title="vtkAlgorithm &#45; Superclass for all sources, filters, and sinks in VTK.">
<polygon fill="none" stroke="black" points="346.5,-57 346.5,-77 423.5,-77 423.5,-57 346.5,-57"/>
<text text-anchor="middle" x="385" y="-64" font-family="FreeSans" font-size="10.00">vtkAlgorithm</text>
</a>
</g>
<!-- Node4&#45;&gt;Node3 -->
<g id="edge6" class="edge"><title>Node4&#45;&gt;Node3</title>
<path fill="none" stroke="midnightblue" d="M433.878,-67C442.205,-67 451.009,-67 459.789,-67"/>
<polygon fill="midnightblue" stroke="midnightblue" points="433.623,-63.5001 423.623,-67 433.622,-70.5001 433.623,-63.5001"/>
</g>
<!-- Node5 -->
<g id="node8" class="node"><title>Node5</title>
<a xlink:href="class_kitware_1_1_v_t_k_1_1vtk_object.html" target="_top" xlink:title="vtkObject &#45; abstract base class for most VTK objects">
<polygon fill="none" stroke="black" points="248,-57 248,-77 310,-77 310,-57 248,-57"/>
<text text-anchor="middle" x="279" y="-64" font-family="FreeSans" font-size="10.00">vtkObject</text>
</a>
</g>
<!-- Node5&#45;&gt;Node4 -->
<g id="edge8" class="edge"><title>Node5&#45;&gt;Node4</title>
<path fill="none" stroke="midnightblue" d="M320.421,-67C329.001,-67 338.007,-67 346.479,-67"/>
<polygon fill="midnightblue" stroke="midnightblue" points="320.23,-63.5001 310.23,-67 320.23,-70.5001 320.23,-63.5001"/>
</g>
<!-- Node6 -->
<g id="node10" class="node"><title>Node6</title>
<a xlink:href="class_kitware_1_1_v_t_k_1_1vtk_object_base.html" target="_top" xlink:title="vtkObjectBase &#45; abstract base class for most VTK objects">
<polygon fill="none" stroke="black" points="126,-57 126,-77 212,-77 212,-57 126,-57"/>
<text text-anchor="middle" x="169" y="-64" font-family="FreeSans" font-size="10.00">vtkObjectBase</text>
</a>
</g>
<!-- Node6&#45;&gt;Node5 -->
<g id="edge10" class="edge"><title>Node6&#45;&gt;Node5</title>
<path fill="none" stroke="midnightblue" d="M222.346,-67C231.091,-67 239.892,-67 247.863,-67"/>
<polygon fill="midnightblue" stroke="midnightblue" points="222.159,-63.5001 212.159,-67 222.159,-70.5001 222.159,-63.5001"/>
</g>
<!-- Node7 -->
<g id="node12" class="node"><title>Node7</title>
<a xlink:href="class_kitware_1_1_v_t_k_1_1_wrapped_object.html" target="_top" xlink:title="Base class for all the mummy wrapped classes in Kitware.VTK.">
<polygon fill="none" stroke="black" points="0.5,-57 0.5,-77 89.5,-77 89.5,-57 0.5,-57"/>
<text text-anchor="middle" x="45" y="-64" font-family="FreeSans" font-size="10.00">WrappedObject</text>
</a>
</g>
<!-- Node7&#45;&gt;Node6 -->
<g id="edge12" class="edge"><title>Node7&#45;&gt;Node6</title>
<path fill="none" stroke="midnightblue" d="M99.8895,-67C108.623,-67 117.548,-67 125.957,-67"/>
<polygon fill="midnightblue" stroke="midnightblue" points="99.7669,-63.5001 89.7668,-67 99.7668,-70.5001 99.7669,-63.5001"/>
</g>
<!-- Node9 -->
<g id="node17" class="node"><title>Node9</title>
<a xlink:href="class_kitware_1_1_v_t_k_1_1vtk_parallel_coordinates_histogram_representation.html" target="_top" xlink:title="vtkParallelCoordinatesHistogramRepresentation &#45; Data representation that takes generic multivariate d...">
<polygon fill="none" stroke="black" points="1334.5,-114 1334.5,-134 1637.5,-134 1637.5,-114 1334.5,-114"/>
<text text-anchor="middle" x="1486" y="-121" font-family="FreeSans" font-size="10.00">Kitware.VTK.vtkParallelCoordinatesHistogramRepresentation</text>
</a>
</g>
<!-- Node8&#45;&gt;Node9 -->
<g id="edge16" class="edge"><title>Node8&#45;&gt;Node9</title>
<path fill="none" stroke="midnightblue" d="M1307.98,-124C1316.73,-124 1325.56,-124 1334.37,-124"/>
<polygon fill="midnightblue" stroke="midnightblue" points="1307.76,-120.5 1297.76,-124 1307.76,-127.5 1307.76,-120.5"/>
</g>
<!-- Node11 -->
<g id="node21" class="node"><title>Node11</title>
<a xlink:href="class_kitware_1_1_v_t_k_1_1vtk_rendered_hierarchy_representation.html" target="_top" xlink:title="vtkRenderedHierarchyRepresentation &#45;">
<polygon fill="none" stroke="black" points="1360,-76 1360,-96 1612,-96 1612,-76 1360,-76"/>
<text text-anchor="middle" x="1486" y="-83" font-family="FreeSans" font-size="10.00">Kitware.VTK.vtkRenderedHierarchyRepresentation</text>
</a>
</g>
<!-- Node10&#45;&gt;Node11 -->
<g id="edge20" class="edge"><title>Node10&#45;&gt;Node11</title>
<path fill="none" stroke="midnightblue" d="M1299.25,-86C1319.22,-86 1339.84,-86 1359.77,-86"/>
<polygon fill="midnightblue" stroke="midnightblue" points="1299.19,-82.5001 1289.19,-86 1299.19,-89.5001 1299.19,-82.5001"/>
</g>
</g>
</svg>
