<?xml version="1.0" encoding="UTF-8" standalone="no"?>
<!DOCTYPE svg PUBLIC "-//W3C//DTD SVG 1.1//EN"
 "http://www.w3.org/Graphics/SVG/1.1/DTD/svg11.dtd">
<!-- Generated by graphviz version 2.26.3 (20100126.1600)
 -->
<!-- Title: G Pages: 1 -->
<svg width="764pt" height="332pt"
 viewBox="0.00 0.00 764.00 332.00" xmlns="http://www.w3.org/2000/svg" xmlns:xlink="http://www.w3.org/1999/xlink">
<g id="graph1" class="graph" transform="scale(1 1) rotate(0) translate(4 328)">
<title>G</title>
<!-- Node1 -->
<g id="node1" class="node"><title>Node1</title>
<polygon fill="#bfbfbf" stroke="black" points="430,-152 430,-172 550,-172 550,-152 430,-152"/>
<text text-anchor="middle" x="490" y="-159" font-family="FreeSans" font-size="10.00">Kitware.VTK.vtkCell3D</text>
</g>
<!-- Node6 -->
<g id="node11" class="node"><title>Node6</title>
<a xlink:href="class_kitware_1_1_v_t_k_1_1vtk_convex_point_set.html" target="_top" xlink:title="vtkConvexPointSet &#45; a 3D cell defined by a set of convex points">
<polygon fill="none" stroke="black" points="588.5,-304 588.5,-324 753.5,-324 753.5,-304 588.5,-304"/>
<text text-anchor="middle" x="671" y="-311" font-family="FreeSans" font-size="10.00">Kitware.VTK.vtkConvexPointSet</text>
</a>
</g>
<!-- Node1&#45;&gt;Node6 -->
<g id="edge10" class="edge"><title>Node1&#45;&gt;Node6</title>
<path fill="none" stroke="midnightblue" d="M498.469,-181.53C512.3,-210.994 542.611,-266.402 586,-295 591.429,-298.578 597.432,-301.49 603.664,-303.859"/>
<polygon fill="midnightblue" stroke="midnightblue" points="501.589,-179.936 494.27,-172.276 495.215,-182.829 501.589,-179.936"/>
</g>
<!-- Node7 -->
<g id="node13" class="node"><title>Node7</title>
<a xlink:href="class_kitware_1_1_v_t_k_1_1vtk_hexagonal_prism.html" target="_top" xlink:title="vtkHexagonalPrism &#45; a 3D cell that represents a prism with hexagonal base">
<polygon fill="none" stroke="black" points="587.5,-266 587.5,-286 754.5,-286 754.5,-266 587.5,-266"/>
<text text-anchor="middle" x="671" y="-273" font-family="FreeSans" font-size="10.00">Kitware.VTK.vtkHexagonalPrism</text>
</a>
</g>
<!-- Node1&#45;&gt;Node7 -->
<g id="edge12" class="edge"><title>Node1&#45;&gt;Node7</title>
<path fill="none" stroke="midnightblue" d="M503.23,-180.295C519.979,-202.053 550.915,-237.831 586,-257 592.635,-260.625 599.92,-263.559 607.35,-265.933"/>
<polygon fill="midnightblue" stroke="midnightblue" points="505.942,-178.078 497.141,-172.18 500.343,-182.279 505.942,-178.078"/>
</g>
<!-- Node8 -->
<g id="node15" class="node"><title>Node8</title>
<a xlink:href="class_kitware_1_1_v_t_k_1_1vtk_hexahedron.html" target="_top" xlink:title="vtkHexahedron &#45; a cell that represents a linear 3D hexahedron">
<polygon fill="none" stroke="black" points="597,-228 597,-248 745,-248 745,-228 597,-228"/>
<text text-anchor="middle" x="671" y="-235" font-family="FreeSans" font-size="10.00">Kitware.VTK.vtkHexahedron</text>
</a>
</g>
<!-- Node1&#45;&gt;Node8 -->
<g id="edge14" class="edge"><title>Node1&#45;&gt;Node8</title>
<path fill="none" stroke="midnightblue" d="M512.349,-178.05C531.163,-190.861 559.216,-208.368 586,-219 594.995,-222.57 604.805,-225.543 614.46,-227.994"/>
<polygon fill="midnightblue" stroke="midnightblue" points="514.113,-175.013 503.902,-172.189 510.123,-180.765 514.113,-175.013"/>
</g>
<!-- Node9 -->
<g id="node17" class="node"><title>Node9</title>
<a xlink:href="class_kitware_1_1_v_t_k_1_1vtk_pentagonal_prism.html" target="_top" xlink:title="vtkPentagonalPrism &#45; a 3D cell that represents a prism with pentagonal base">
<polygon fill="none" stroke="black" points="586,-190 586,-210 756,-210 756,-190 586,-190"/>
<text text-anchor="middle" x="671" y="-197" font-family="FreeSans" font-size="10.00">Kitware.VTK.vtkPentagonalPrism</text>
</a>
</g>
<!-- Node1&#45;&gt;Node9 -->
<g id="edge16" class="edge"><title>Node1&#45;&gt;Node9</title>
<path fill="none" stroke="midnightblue" d="M547.829,-174.141C572.09,-179.234 599.969,-185.087 623.06,-189.935"/>
<polygon fill="midnightblue" stroke="midnightblue" points="548.535,-170.713 538.029,-172.084 547.097,-177.564 548.535,-170.713"/>
</g>
<!-- Node10 -->
<g id="node19" class="node"><title>Node10</title>
<a xlink:href="class_kitware_1_1_v_t_k_1_1vtk_polyhedron.html" target="_top" xlink:title="vtkPolyhedron &#45; a 3D cell defined by a set of polygonal faces">
<polygon fill="none" stroke="black" points="599.5,-152 599.5,-172 742.5,-172 742.5,-152 599.5,-152"/>
<text text-anchor="middle" x="671" y="-159" font-family="FreeSans" font-size="10.00">Kitware.VTK.vtkPolyhedron</text>
</a>
</g>
<!-- Node1&#45;&gt;Node10 -->
<g id="edge18" class="edge"><title>Node1&#45;&gt;Node10</title>
<path fill="none" stroke="midnightblue" d="M560.147,-162C572.956,-162 586.338,-162 599.194,-162"/>
<polygon fill="midnightblue" stroke="midnightblue" points="560.019,-158.5 550.019,-162 560.019,-165.5 560.019,-158.5"/>
</g>
<!-- Node11 -->
<g id="node21" class="node"><title>Node11</title>
<a xlink:href="class_kitware_1_1_v_t_k_1_1vtk_pyramid.html" target="_top" xlink:title="vtkPyramid &#45; a 3D cell that represents a linear pyramid">
<polygon fill="none" stroke="black" points="607,-114 607,-134 735,-134 735,-114 607,-114"/>
<text text-anchor="middle" x="671" y="-121" font-family="FreeSans" font-size="10.00">Kitware.VTK.vtkPyramid</text>
</a>
</g>
<!-- Node1&#45;&gt;Node11 -->
<g id="edge20" class="edge"><title>Node1&#45;&gt;Node11</title>
<path fill="none" stroke="midnightblue" d="M547.829,-149.859C572.09,-144.766 599.969,-138.913 623.06,-134.065"/>
<polygon fill="midnightblue" stroke="midnightblue" points="547.097,-146.436 538.029,-151.916 548.535,-153.287 547.097,-146.436"/>
</g>
<!-- Node12 -->
<g id="node23" class="node"><title>Node12</title>
<a xlink:href="class_kitware_1_1_v_t_k_1_1vtk_tetra.html" target="_top" xlink:title="vtkTetra &#45; a 3D cell that represents a tetrahedron">
<polygon fill="none" stroke="black" points="614.5,-76 614.5,-96 727.5,-96 727.5,-76 614.5,-76"/>
<text text-anchor="middle" x="671" y="-83" font-family="FreeSans" font-size="10.00">Kitware.VTK.vtkTetra</text>
</a>
</g>
<!-- Node1&#45;&gt;Node12 -->
<g id="edge22" class="edge"><title>Node1&#45;&gt;Node12</title>
<path fill="none" stroke="midnightblue" d="M512.349,-145.95C531.163,-133.139 559.216,-115.632 586,-105 594.995,-101.43 604.805,-98.4569 614.46,-96.0062"/>
<polygon fill="midnightblue" stroke="midnightblue" points="510.123,-143.235 503.902,-151.811 514.113,-148.987 510.123,-143.235"/>
</g>
<!-- Node13 -->
<g id="node25" class="node"><title>Node13</title>
<a xlink:href="class_kitware_1_1_v_t_k_1_1vtk_voxel.html" target="_top" xlink:title="vtkVoxel &#45; a cell that represents a 3D orthogonal parallelepiped">
<polygon fill="none" stroke="black" points="613.5,-38 613.5,-58 728.5,-58 728.5,-38 613.5,-38"/>
<text text-anchor="middle" x="671" y="-45" font-family="FreeSans" font-size="10.00">Kitware.VTK.vtkVoxel</text>
</a>
</g>
<!-- Node1&#45;&gt;Node13 -->
<g id="edge24" class="edge"><title>Node1&#45;&gt;Node13</title>
<path fill="none" stroke="midnightblue" d="M503.23,-143.705C519.979,-121.947 550.915,-86.1689 586,-67 594.36,-62.4325 603.753,-58.9624 613.164,-56.3262"/>
<polygon fill="midnightblue" stroke="midnightblue" points="500.343,-141.721 497.141,-151.82 505.942,-145.922 500.343,-141.721"/>
</g>
<!-- Node14 -->
<g id="node27" class="node"><title>Node14</title>
<a xlink:href="class_kitware_1_1_v_t_k_1_1vtk_wedge.html" target="_top" xlink:title="vtkWedge &#45; a 3D cell that represents a linear wedge">
<polygon fill="none" stroke="black" points="610.5,-0 610.5,-20 731.5,-20 731.5,-0 610.5,-0"/>
<text text-anchor="middle" x="671" y="-7" font-family="FreeSans" font-size="10.00">Kitware.VTK.vtkWedge</text>
</a>
</g>
<!-- Node1&#45;&gt;Node14 -->
<g id="edge26" class="edge"><title>Node1&#45;&gt;Node14</title>
<path fill="none" stroke="midnightblue" d="M498.469,-142.47C512.3,-113.006 542.611,-57.5981 586,-29 593.323,-24.1735 601.69,-20.5588 610.254,-17.8544"/>
<polygon fill="midnightblue" stroke="midnightblue" points="495.215,-141.171 494.27,-151.724 501.589,-144.064 495.215,-141.171"/>
</g>
<!-- Node2 -->
<g id="node2" class="node"><title>Node2</title>
<a xlink:href="class_kitware_1_1_v_t_k_1_1vtk_cell.html" target="_top" xlink:title="vtkCell &#45; abstract class to specify cell behavior">
<polygon fill="none" stroke="black" points="346,-152 346,-172 394,-172 394,-152 346,-152"/>
<text text-anchor="middle" x="370" y="-159" font-family="FreeSans" font-size="10.00">vtkCell</text>
</a>
</g>
<!-- Node2&#45;&gt;Node1 -->
<g id="edge2" class="edge"><title>Node2&#45;&gt;Node1</title>
<path fill="none" stroke="midnightblue" d="M404.492,-162C412.352,-162 420.931,-162 429.522,-162"/>
<polygon fill="midnightblue" stroke="midnightblue" points="404.284,-158.5 394.284,-162 404.284,-165.5 404.284,-158.5"/>
</g>
<!-- Node3 -->
<g id="node4" class="node"><title>Node3</title>
<a xlink:href="class_kitware_1_1_v_t_k_1_1vtk_object.html" target="_top" xlink:title="vtkObject &#45; abstract base class for most VTK objects">
<polygon fill="none" stroke="black" points="248,-152 248,-172 310,-172 310,-152 248,-152"/>
<text text-anchor="middle" x="279" y="-159" font-family="FreeSans" font-size="10.00">vtkObject</text>
</a>
</g>
<!-- Node3&#45;&gt;Node2 -->
<g id="edge4" class="edge"><title>Node3&#45;&gt;Node2</title>
<path fill="none" stroke="midnightblue" d="M320.227,-162C329.038,-162 338.065,-162 345.97,-162"/>
<polygon fill="midnightblue" stroke="midnightblue" points="320.063,-158.5 310.063,-162 320.062,-165.5 320.063,-158.5"/>
</g>
<!-- Node4 -->
<g id="node6" class="node"><title>Node4</title>
<a xlink:href="class_kitware_1_1_v_t_k_1_1vtk_object_base.html" target="_top" xlink:title="vtkObjectBase &#45; abstract base class for most VTK objects">
<polygon fill="none" stroke="black" points="126,-152 126,-172 212,-172 212,-152 126,-152"/>
<text text-anchor="middle" x="169" y="-159" font-family="FreeSans" font-size="10.00">vtkObjectBase</text>
</a>
</g>
<!-- Node4&#45;&gt;Node3 -->
<g id="edge6" class="edge"><title>Node4&#45;&gt;Node3</title>
<path fill="none" stroke="midnightblue" d="M222.346,-162C231.091,-162 239.892,-162 247.863,-162"/>
<polygon fill="midnightblue" stroke="midnightblue" points="222.159,-158.5 212.159,-162 222.159,-165.5 222.159,-158.5"/>
</g>
<!-- Node5 -->
<g id="node8" class="node"><title>Node5</title>
<a xlink:href="class_kitware_1_1_v_t_k_1_1_wrapped_object.html" target="_top" xlink:title="Base class for all the mummy wrapped classes in Kitware.VTK.">
<polygon fill="none" stroke="black" points="0.5,-152 0.5,-172 89.5,-172 89.5,-152 0.5,-152"/>
<text text-anchor="middle" x="45" y="-159" font-family="FreeSans" font-size="10.00">WrappedObject</text>
</a>
</g>
<!-- Node5&#45;&gt;Node4 -->
<g id="edge8" class="edge"><title>Node5&#45;&gt;Node4</title>
<path fill="none" stroke="midnightblue" d="M99.8895,-162C108.623,-162 117.548,-162 125.957,-162"/>
<polygon fill="midnightblue" stroke="midnightblue" points="99.7669,-158.5 89.7668,-162 99.7668,-165.5 99.7669,-158.5"/>
</g>
</g>
</svg>
