<?xml version="1.0" encoding="UTF-8" standalone="no"?>
<!DOCTYPE svg PUBLIC "-//W3C//DTD SVG 1.1//EN"
 "http://www.w3.org/Graphics/SVG/1.1/DTD/svg11.dtd">
<!-- Generated by graphviz version 2.26.3 (20100126.1600)
 -->
<!-- Title: G Pages: 1 -->
<svg width="410pt" height="890pt"
 viewBox="0.00 0.00 410.46 890.00" xmlns="http://www.w3.org/2000/svg" xmlns:xlink="http://www.w3.org/1999/xlink">
<g id="graph1" class="graph" transform="scale(1 1) rotate(0) translate(4 886)">
<title>G</title>
<!-- Node1 -->
<g id="node1" class="node"><title>Node1</title>
<polygon fill="#bfbfbf" stroke="black" points="-0.5,-1 -0.5,-21 148.5,-21 148.5,-1 -0.5,-1"/>
<text text-anchor="middle" x="74" y="-8" font-family="FreeSans" font-size="10.00">Kitware.VTK.vtkPNrrdReader</text>
</g>
<!-- Node2 -->
<g id="node2" class="node"><title>Node2</title>
<a xlink:href="class_kitware_1_1_v_t_k_1_1vtk_m_p_i_image_reader.html" target="_top" xlink:title="vtkMPIImageReader">
<polygon fill="none" stroke="black" points="19,-61 19,-81 129,-81 129,-61 19,-61"/>
<text text-anchor="middle" x="74" y="-68" font-family="FreeSans" font-size="10.00">vtkMPIImageReader</text>
</a>
</g>
<!-- Node2&#45;&gt;Node1 -->
<g id="edge2" class="edge"><title>Node2&#45;&gt;Node1</title>
<path fill="none" stroke="midnightblue" d="M74,-50.5155C74,-40.562 74,-29.0495 74,-21.0279"/>
<polygon fill="midnightblue" stroke="midnightblue" points="70.5001,-50.8218 74,-60.8218 77.5001,-50.8219 70.5001,-50.8218"/>
</g>
<!-- Node3 -->
<g id="node4" class="node"><title>Node3</title>
<a xlink:href="class_kitware_1_1_v_t_k_1_1vtk_image_reader.html" target="_top" xlink:title="vtkImageReader &#45; Superclass of transformable binary file readers.">
<polygon fill="none" stroke="black" points="27,-121 27,-141 121,-141 121,-121 27,-121"/>
<text text-anchor="middle" x="74" y="-128" font-family="FreeSans" font-size="10.00">vtkImageReader</text>
</a>
</g>
<!-- Node3&#45;&gt;Node2 -->
<g id="edge4" class="edge"><title>Node3&#45;&gt;Node2</title>
<path fill="none" stroke="midnightblue" d="M74,-110.516C74,-100.562 74,-89.0495 74,-81.0279"/>
<polygon fill="midnightblue" stroke="midnightblue" points="70.5001,-110.822 74,-120.822 77.5001,-110.822 70.5001,-110.822"/>
</g>
<!-- Node4 -->
<g id="node6" class="node"><title>Node4</title>
<a xlink:href="class_kitware_1_1_v_t_k_1_1vtk_image_reader2.html" target="_top" xlink:title="vtkImageReader2 &#45; Superclass of binary file readers.">
<polygon fill="none" stroke="black" points="24,-181 24,-201 124,-201 124,-181 24,-181"/>
<text text-anchor="middle" x="74" y="-188" font-family="FreeSans" font-size="10.00">vtkImageReader2</text>
</a>
</g>
<!-- Node4&#45;&gt;Node3 -->
<g id="edge6" class="edge"><title>Node4&#45;&gt;Node3</title>
<path fill="none" stroke="midnightblue" d="M74,-170.516C74,-160.562 74,-149.05 74,-141.028"/>
<polygon fill="midnightblue" stroke="midnightblue" points="70.5001,-170.822 74,-180.822 77.5001,-170.822 70.5001,-170.822"/>
</g>
<!-- Node5 -->
<g id="node8" class="node"><title>Node5</title>
<a xlink:href="class_kitware_1_1_v_t_k_1_1vtk_image_algorithm.html" target="_top" xlink:title="vtkImageAlgorithm &#45; Generic algorithm superclass for image algs">
<polygon fill="none" stroke="black" points="20.5,-241 20.5,-261 127.5,-261 127.5,-241 20.5,-241"/>
<text text-anchor="middle" x="74" y="-248" font-family="FreeSans" font-size="10.00">vtkImageAlgorithm</text>
</a>
</g>
<!-- Node5&#45;&gt;Node4 -->
<g id="edge8" class="edge"><title>Node5&#45;&gt;Node4</title>
<path fill="none" stroke="midnightblue" d="M74,-230.516C74,-220.562 74,-209.05 74,-201.028"/>
<polygon fill="midnightblue" stroke="midnightblue" points="70.5001,-230.822 74,-240.822 77.5001,-230.822 70.5001,-230.822"/>
</g>
<!-- Node6 -->
<g id="node10" class="node"><title>Node6</title>
<a xlink:href="class_kitware_1_1_v_t_k_1_1vtk_algorithm.html" target="_top" xlink:title="vtkAlgorithm &#45; Superclass for all sources, filters, and sinks in VTK.">
<polygon fill="none" stroke="black" points="35.5,-301 35.5,-321 112.5,-321 112.5,-301 35.5,-301"/>
<text text-anchor="middle" x="74" y="-308" font-family="FreeSans" font-size="10.00">vtkAlgorithm</text>
</a>
</g>
<!-- Node6&#45;&gt;Node5 -->
<g id="edge10" class="edge"><title>Node6&#45;&gt;Node5</title>
<path fill="none" stroke="midnightblue" d="M74,-290.516C74,-280.562 74,-269.05 74,-261.028"/>
<polygon fill="midnightblue" stroke="midnightblue" points="70.5001,-290.822 74,-300.822 77.5001,-290.822 70.5001,-290.822"/>
</g>
<!-- Node7 -->
<g id="node12" class="node"><title>Node7</title>
<a xlink:href="class_kitware_1_1_v_t_k_1_1vtk_object.html" target="_top" xlink:title="vtkObject &#45; abstract base class for most VTK objects">
<polygon fill="none" stroke="black" points="43,-361 43,-381 105,-381 105,-361 43,-361"/>
<text text-anchor="middle" x="74" y="-368" font-family="FreeSans" font-size="10.00">vtkObject</text>
</a>
</g>
<!-- Node7&#45;&gt;Node6 -->
<g id="edge12" class="edge"><title>Node7&#45;&gt;Node6</title>
<path fill="none" stroke="midnightblue" d="M74,-350.516C74,-340.562 74,-329.05 74,-321.028"/>
<polygon fill="midnightblue" stroke="midnightblue" points="70.5001,-350.822 74,-360.822 77.5001,-350.822 70.5001,-350.822"/>
</g>
<!-- Node8 -->
<g id="node14" class="node"><title>Node8</title>
<a xlink:href="class_kitware_1_1_v_t_k_1_1vtk_object_base.html" target="_top" xlink:title="vtkObjectBase &#45; abstract base class for most VTK objects">
<polygon fill="none" stroke="black" points="94,-801 94,-821 180,-821 180,-801 94,-801"/>
<text text-anchor="middle" x="137" y="-808" font-family="FreeSans" font-size="10.00">vtkObjectBase</text>
</a>
</g>
<!-- Node8&#45;&gt;Node7 -->
<g id="edge14" class="edge"><title>Node8&#45;&gt;Node7</title>
<path fill="none" stroke="midnightblue" d="M108.423,-795.886C94.6866,-787.44 78.8844,-775.826 68,-762 56.1564,-746.955 55.6209,-740.802 52,-722 26.4248,-589.199 61.5766,-423.437 71.5155,-381.17"/>
<polygon fill="midnightblue" stroke="midnightblue" points="106.683,-798.923 117.079,-800.97 110.229,-792.887 106.683,-798.923"/>
</g>
<!-- Node11 -->
<g id="node21" class="node"><title>Node11</title>
<a xlink:href="class_kitware_1_1_v_t_k_1_1vtk_object.html" target="_top" xlink:title="vtkObject &#45; abstract base class for most VTK objects">
<polygon fill="none" stroke="black" points="77,-741 77,-761 197,-761 197,-741 77,-741"/>
<text text-anchor="middle" x="137" y="-748" font-family="FreeSans" font-size="10.00">Kitware.VTK.vtkObject</text>
</a>
</g>
<!-- Node8&#45;&gt;Node11 -->
<g id="edge24" class="edge"><title>Node8&#45;&gt;Node11</title>
<path fill="none" stroke="midnightblue" d="M137,-790.516C137,-780.562 137,-769.05 137,-761.028"/>
<polygon fill="midnightblue" stroke="midnightblue" points="133.5,-790.822 137,-800.822 140.5,-790.822 133.5,-790.822"/>
</g>
<!-- Node9 -->
<g id="node16" class="node"><title>Node9</title>
<a xlink:href="class_kitware_1_1_v_t_k_1_1_wrapped_object.html" target="_top" xlink:title="Base class for all the mummy wrapped classes in Kitware.VTK.">
<polygon fill="none" stroke="black" points="275.5,-861 275.5,-881 364.5,-881 364.5,-861 275.5,-861"/>
<text text-anchor="middle" x="320" y="-868" font-family="FreeSans" font-size="10.00">WrappedObject</text>
</a>
</g>
<!-- Node9&#45;&gt;Node8 -->
<g id="edge16" class="edge"><title>Node9&#45;&gt;Node8</title>
<path fill="none" stroke="midnightblue" d="M279.804,-857.821C246.042,-846.752 198.512,-831.168 167.73,-821.075"/>
<polygon fill="midnightblue" stroke="midnightblue" points="278.777,-861.168 289.37,-860.957 280.958,-854.516 278.777,-861.168"/>
</g>
<!-- Node10 -->
<g id="node18" class="node"><title>Node10</title>
<a xlink:href="class_kitware_1_1_v_t_k_1_1vtk_object_event_relay.html" target="_top" xlink:title="Implement a relay handler for VTK events. This is a class that receives events directly from the VTK ...">
<polygon fill="none" stroke="black" points="66,-551 66,-571 238,-571 238,-551 66,-551"/>
<text text-anchor="middle" x="152" y="-558" font-family="FreeSans" font-size="10.00">Kitware.VTK.vtkObjectEventRelay</text>
</a>
</g>
<!-- Node9&#45;&gt;Node10 -->
<g id="edge20" class="edge"><title>Node9&#45;&gt;Node10</title>
<path fill="none" stroke="midnightblue" d="M332.888,-852.325C365.276,-802.899 442.803,-667.191 375,-590 365.773,-579.495 297.047,-571.666 238.298,-566.808"/>
<polygon fill="midnightblue" stroke="midnightblue" points="329.891,-850.509 327.239,-860.767 335.709,-854.402 329.891,-850.509"/>
</g>
<!-- Node10&#45;&gt;Node7 -->
<g id="edge18" class="edge"><title>Node10&#45;&gt;Node7</title>
<path fill="none" stroke="#9a32cd" stroke-dasharray="5,2" d="M143.921,-541.321C127.489,-501.293 90.6738,-411.616 78.2144,-381.266"/>
<polygon fill="#9a32cd" stroke="#9a32cd" points="140.771,-542.863 147.806,-550.785 147.246,-540.205 140.771,-542.863"/>
<text text-anchor="middle" x="251.5" y="-523" font-family="FreeSans" font-size="10.00"> LeftButtonReleaseEvtRelay</text>
<text text-anchor="middle" x="251.5" y="-511" font-family="FreeSans" font-size="10.00">KeyPressEvtRelay</text>
<text text-anchor="middle" x="251.5" y="-499" font-family="FreeSans" font-size="10.00">DomainModifiedEvtRelay</text>
<text text-anchor="middle" x="251.5" y="-487" font-family="FreeSans" font-size="10.00">VolumeMapperComputeGradientsStartEvtRelay</text>
<text text-anchor="middle" x="251.5" y="-475" font-family="FreeSans" font-size="10.00">ErrorEvtRelay</text>
<text text-anchor="middle" x="251.5" y="-463" font-family="FreeSans" font-size="10.00">VolumeMapperRenderStartEvtRelay</text>
<text text-anchor="middle" x="251.5" y="-451" font-family="FreeSans" font-size="10.00">StartEvtRelay</text>
<text text-anchor="middle" x="251.5" y="-439" font-family="FreeSans" font-size="10.00">ResetCameraEvtRelay</text>
<text text-anchor="middle" x="251.5" y="-427" font-family="FreeSans" font-size="10.00">EnableEvtRelay</text>
<text text-anchor="middle" x="251.5" y="-415" font-family="FreeSans" font-size="10.00">DeleteEvtRelay</text>
<text text-anchor="middle" x="251.5" y="-403" font-family="FreeSans" font-size="10.00">...</text>
</g>
<!-- Node10&#45;&gt;Node11 -->
<g id="edge26" class="edge"><title>Node10&#45;&gt;Node11</title>
<path fill="none" stroke="#9a32cd" stroke-dasharray="5,2" d="M149.028,-581.231C148.649,-584.169 148.293,-587.159 148,-590 142.144,-646.853 138.636,-715.333 137.452,-740.807"/>
<polygon fill="#9a32cd" stroke="#9a32cd" points="152.515,-581.565 150.421,-571.179 145.582,-580.604 152.515,-581.565"/>
<text text-anchor="middle" x="261.5" y="-713" font-family="FreeSans" font-size="10.00"> LeftButtonReleaseEvtRelay</text>
<text text-anchor="middle" x="261.5" y="-701" font-family="FreeSans" font-size="10.00">KeyPressEvtRelay</text>
<text text-anchor="middle" x="261.5" y="-689" font-family="FreeSans" font-size="10.00">DomainModifiedEvtRelay</text>
<text text-anchor="middle" x="261.5" y="-677" font-family="FreeSans" font-size="10.00">VolumeMapperComputeGradientsStartEvtRelay</text>
<text text-anchor="middle" x="261.5" y="-665" font-family="FreeSans" font-size="10.00">ErrorEvtRelay</text>
<text text-anchor="middle" x="261.5" y="-653" font-family="FreeSans" font-size="10.00">VolumeMapperRenderStartEvtRelay</text>
<text text-anchor="middle" x="261.5" y="-641" font-family="FreeSans" font-size="10.00">StartEvtRelay</text>
<text text-anchor="middle" x="261.5" y="-629" font-family="FreeSans" font-size="10.00">ResetCameraEvtRelay</text>
<text text-anchor="middle" x="261.5" y="-617" font-family="FreeSans" font-size="10.00">EnableEvtRelay</text>
<text text-anchor="middle" x="261.5" y="-605" font-family="FreeSans" font-size="10.00">DeleteEvtRelay</text>
<text text-anchor="middle" x="261.5" y="-593" font-family="FreeSans" font-size="10.00">...</text>
</g>
<!-- Node11&#45;&gt;Node10 -->
<g id="edge22" class="edge"><title>Node11&#45;&gt;Node10</title>
<path fill="none" stroke="#9a32cd" stroke-dasharray="5,2" d="M90.9794,-735.818C85.4393,-732.138 80.5104,-727.596 77,-722 45.8229,-672.303 43.8299,-638.389 77,-590 81.7359,-583.091 98.5114,-576.287 114.999,-571.008"/>
<polygon fill="#9a32cd" stroke="#9a32cd" points="89.6386,-739.079 100.072,-740.919 93.0636,-732.974 89.6386,-739.079"/>
<text text-anchor="middle" x="101" y="-659" font-family="FreeSans" font-size="10.00"> Sender</text>
<text text-anchor="middle" x="101" y="-647" font-family="FreeSans" font-size="10.00">EventImpl</text>
</g>
</g>
</svg>
