<?xml version="1.0" encoding="UTF-8" standalone="no"?>
<!DOCTYPE svg PUBLIC "-//W3C//DTD SVG 1.1//EN"
 "http://www.w3.org/Graphics/SVG/1.1/DTD/svg11.dtd">
<!-- Generated by graphviz version 2.26.3 (20100126.1600)
 -->
<!-- Title: G Pages: 1 -->
<svg width="384pt" height="494pt"
 viewBox="0.00 0.00 384.00 494.00" xmlns="http://www.w3.org/2000/svg" xmlns:xlink="http://www.w3.org/1999/xlink">
<g id="graph1" class="graph" transform="scale(1 1) rotate(0) translate(4 490)">
<title>G</title>
<!-- Node1 -->
<g id="node1" class="node"><title>Node1</title>
<polygon fill="#bfbfbf" stroke="black" points="77.5,-117 77.5,-137 306.5,-137 306.5,-117 77.5,-117"/>
<text text-anchor="middle" x="192" y="-124" font-family="FreeSans" font-size="10.00">Kitware.VTK.vtkUnivariateStatisticsAlgorithm</text>
</g>
<!-- Node8 -->
<g id="node15" class="node"><title>Node8</title>
<a xlink:href="class_kitware_1_1_v_t_k_1_1vtk_descriptive_statistics.html" target="_top" xlink:title="vtkDescriptiveStatistics &#45; A class for univariate descriptive statistics">
<polygon fill="none" stroke="black" points="3.5,-59 3.5,-79 190.5,-79 190.5,-59 3.5,-59"/>
<text text-anchor="middle" x="97" y="-66" font-family="FreeSans" font-size="10.00">Kitware.VTK.vtkDescriptiveStatistics</text>
</a>
</g>
<!-- Node1&#45;&gt;Node8 -->
<g id="edge14" class="edge"><title>Node1&#45;&gt;Node8</title>
<path fill="none" stroke="midnightblue" d="M166.69,-111.547C149.9,-101.297 128.34,-88.1339 113.677,-79.1817"/>
<polygon fill="midnightblue" stroke="midnightblue" points="165.093,-114.674 175.452,-116.897 168.741,-108.699 165.093,-114.674"/>
</g>
<!-- Node10 -->
<g id="node19" class="node"><title>Node10</title>
<a xlink:href="class_kitware_1_1_v_t_k_1_1vtk_order_statistics.html" target="_top" xlink:title="vtkOrderStatistics &#45; A class for univariate order statistics">
<polygon fill="none" stroke="black" points="210.5,-59 210.5,-79 371.5,-79 371.5,-59 210.5,-59"/>
<text text-anchor="middle" x="291" y="-66" font-family="FreeSans" font-size="10.00">Kitware.VTK.vtkOrderStatistics</text>
</a>
</g>
<!-- Node1&#45;&gt;Node10 -->
<g id="edge18" class="edge"><title>Node1&#45;&gt;Node10</title>
<path fill="none" stroke="midnightblue" d="M217.891,-111.831C235.456,-101.541 258.199,-88.2168 273.621,-79.1817"/>
<polygon fill="midnightblue" stroke="midnightblue" points="216.104,-108.822 209.244,-116.897 219.642,-114.862 216.104,-108.822"/>
</g>
<!-- Node2 -->
<g id="node2" class="node"><title>Node2</title>
<a xlink:href="class_kitware_1_1_v_t_k_1_1vtk_statistics_algorithm.html" target="_top" xlink:title="vtkStatisticsAlgorithm &#45; Base class for statistics algorithms">
<polygon fill="none" stroke="black" points="131,-175 131,-195 253,-195 253,-175 131,-175"/>
<text text-anchor="middle" x="192" y="-182" font-family="FreeSans" font-size="10.00">vtkStatisticsAlgorithm</text>
</a>
</g>
<!-- Node2&#45;&gt;Node1 -->
<g id="edge2" class="edge"><title>Node2&#45;&gt;Node1</title>
<path fill="none" stroke="midnightblue" d="M192,-164.89C192,-155.62 192,-145.008 192,-137.378"/>
<polygon fill="midnightblue" stroke="midnightblue" points="188.5,-164.897 192,-174.897 195.5,-164.897 188.5,-164.897"/>
</g>
<!-- Node3 -->
<g id="node4" class="node"><title>Node3</title>
<a xlink:href="class_kitware_1_1_v_t_k_1_1vtk_table_algorithm.html" target="_top" xlink:title="vtkTableAlgorithm &#45; Superclass for algorithms that produce only vtkTables as output">
<polygon fill="none" stroke="black" points="141.5,-233 141.5,-253 242.5,-253 242.5,-233 141.5,-233"/>
<text text-anchor="middle" x="192" y="-240" font-family="FreeSans" font-size="10.00">vtkTableAlgorithm</text>
</a>
</g>
<!-- Node3&#45;&gt;Node2 -->
<g id="edge4" class="edge"><title>Node3&#45;&gt;Node2</title>
<path fill="none" stroke="midnightblue" d="M192,-222.89C192,-213.62 192,-203.008 192,-195.378"/>
<polygon fill="midnightblue" stroke="midnightblue" points="188.5,-222.897 192,-232.897 195.5,-222.897 188.5,-222.897"/>
</g>
<!-- Node4 -->
<g id="node6" class="node"><title>Node4</title>
<a xlink:href="class_kitware_1_1_v_t_k_1_1vtk_algorithm.html" target="_top" xlink:title="vtkAlgorithm &#45; Superclass for all sources, filters, and sinks in VTK.">
<polygon fill="none" stroke="black" points="153.5,-291 153.5,-311 230.5,-311 230.5,-291 153.5,-291"/>
<text text-anchor="middle" x="192" y="-298" font-family="FreeSans" font-size="10.00">vtkAlgorithm</text>
</a>
</g>
<!-- Node4&#45;&gt;Node3 -->
<g id="edge6" class="edge"><title>Node4&#45;&gt;Node3</title>
<path fill="none" stroke="midnightblue" d="M192,-280.89C192,-271.62 192,-261.008 192,-253.378"/>
<polygon fill="midnightblue" stroke="midnightblue" points="188.5,-280.897 192,-290.897 195.5,-280.897 188.5,-280.897"/>
</g>
<!-- Node5 -->
<g id="node8" class="node"><title>Node5</title>
<a xlink:href="class_kitware_1_1_v_t_k_1_1vtk_object.html" target="_top" xlink:title="vtkObject &#45; abstract base class for most VTK objects">
<polygon fill="none" stroke="black" points="161,-349 161,-369 223,-369 223,-349 161,-349"/>
<text text-anchor="middle" x="192" y="-356" font-family="FreeSans" font-size="10.00">vtkObject</text>
</a>
</g>
<!-- Node5&#45;&gt;Node4 -->
<g id="edge8" class="edge"><title>Node5&#45;&gt;Node4</title>
<path fill="none" stroke="midnightblue" d="M192,-338.89C192,-329.62 192,-319.008 192,-311.378"/>
<polygon fill="midnightblue" stroke="midnightblue" points="188.5,-338.897 192,-348.897 195.5,-338.897 188.5,-338.897"/>
</g>
<!-- Node6 -->
<g id="node10" class="node"><title>Node6</title>
<a xlink:href="class_kitware_1_1_v_t_k_1_1vtk_object_base.html" target="_top" xlink:title="vtkObjectBase &#45; abstract base class for most VTK objects">
<polygon fill="none" stroke="black" points="149,-407 149,-427 235,-427 235,-407 149,-407"/>
<text text-anchor="middle" x="192" y="-414" font-family="FreeSans" font-size="10.00">vtkObjectBase</text>
</a>
</g>
<!-- Node6&#45;&gt;Node5 -->
<g id="edge10" class="edge"><title>Node6&#45;&gt;Node5</title>
<path fill="none" stroke="midnightblue" d="M192,-396.89C192,-387.62 192,-377.008 192,-369.378"/>
<polygon fill="midnightblue" stroke="midnightblue" points="188.5,-396.897 192,-406.897 195.5,-396.897 188.5,-396.897"/>
</g>
<!-- Node7 -->
<g id="node12" class="node"><title>Node7</title>
<a xlink:href="class_kitware_1_1_v_t_k_1_1_wrapped_object.html" target="_top" xlink:title="Base class for all the mummy wrapped classes in Kitware.VTK.">
<polygon fill="none" stroke="black" points="147.5,-465 147.5,-485 236.5,-485 236.5,-465 147.5,-465"/>
<text text-anchor="middle" x="192" y="-472" font-family="FreeSans" font-size="10.00">WrappedObject</text>
</a>
</g>
<!-- Node7&#45;&gt;Node6 -->
<g id="edge12" class="edge"><title>Node7&#45;&gt;Node6</title>
<path fill="none" stroke="midnightblue" d="M192,-454.89C192,-445.62 192,-435.008 192,-427.378"/>
<polygon fill="midnightblue" stroke="midnightblue" points="188.5,-454.897 192,-464.897 195.5,-454.897 188.5,-454.897"/>
</g>
<!-- Node9 -->
<g id="node17" class="node"><title>Node9</title>
<a xlink:href="class_kitware_1_1_v_t_k_1_1vtk_p_descriptive_statistics.html" target="_top" xlink:title="vtkPDescriptiveStatistics &#45; A class for parallel univariate descriptive statistics">
<polygon fill="none" stroke="black" points="-0.5,-1 -0.5,-21 192.5,-21 192.5,-1 -0.5,-1"/>
<text text-anchor="middle" x="96" y="-8" font-family="FreeSans" font-size="10.00">Kitware.VTK.vtkPDescriptiveStatistics</text>
</a>
</g>
<!-- Node8&#45;&gt;Node9 -->
<g id="edge16" class="edge"><title>Node8&#45;&gt;Node9</title>
<path fill="none" stroke="midnightblue" d="M96.6533,-48.8902C96.4935,-39.6201 96.3105,-29.0083 96.1789,-21.3776"/>
<polygon fill="midnightblue" stroke="midnightblue" points="93.1538,-48.959 96.8258,-58.8972 100.153,-48.8383 93.1538,-48.959"/>
</g>
<!-- Node11 -->
<g id="node21" class="node"><title>Node11</title>
<a xlink:href="class_kitware_1_1_v_t_k_1_1vtk_p_order_statistics.html" target="_top" xlink:title="vtkPOrderStatistics &#45; A class for parallel univariate order statistics">
<polygon fill="none" stroke="black" points="209.5,-1 209.5,-21 376.5,-21 376.5,-1 209.5,-1"/>
<text text-anchor="middle" x="293" y="-8" font-family="FreeSans" font-size="10.00">Kitware.VTK.vtkPOrderStatistics</text>
</a>
</g>
<!-- Node10&#45;&gt;Node11 -->
<g id="edge20" class="edge"><title>Node10&#45;&gt;Node11</title>
<path fill="none" stroke="midnightblue" d="M291.693,-48.8902C292.013,-39.6201 292.379,-29.0083 292.642,-21.3776"/>
<polygon fill="midnightblue" stroke="midnightblue" points="288.195,-48.7825 291.348,-58.8972 295.191,-49.0238 288.195,-48.7825"/>
</g>
</g>
</svg>
