<?xml version="1.0" encoding="UTF-8" standalone="no"?>
<!DOCTYPE svg PUBLIC "-//W3C//DTD SVG 1.1//EN"
 "http://www.w3.org/Graphics/SVG/1.1/DTD/svg11.dtd">
<!-- Generated by graphviz version 2.26.3 (20100126.1600)
 -->
<!-- Title: G Pages: 1 -->
<svg width="890pt" height="104pt"
 viewBox="0.00 0.00 890.00 104.00" xmlns="http://www.w3.org/2000/svg" xmlns:xlink="http://www.w3.org/1999/xlink">
<g id="graph1" class="graph" transform="scale(1 1) rotate(0) translate(4 100)">
<title>G</title>
<!-- Node1 -->
<g id="node1" class="node"><title>Node1</title>
<polygon fill="#bfbfbf" stroke="black" points="488,-38 488,-58 636,-58 636,-38 488,-38"/>
<text text-anchor="middle" x="562" y="-45" font-family="FreeSans" font-size="10.00">Kitware.VTK.vtkLookupTable</text>
</g>
<!-- Node6 -->
<g id="node11" class="node"><title>Node6</title>
<a xlink:href="class_kitware_1_1_v_t_k_1_1vtk_log_lookup_table.html" target="_top" xlink:title="vtkLogLookupTable &#45; map scalars into colors using log (base 10) scale">
<polygon fill="none" stroke="black" points="694.5,-76 694.5,-96 859.5,-96 859.5,-76 694.5,-76"/>
<text text-anchor="middle" x="777" y="-83" font-family="FreeSans" font-size="10.00">Kitware.VTK.vtkLogLookupTable</text>
</a>
</g>
<!-- Node1&#45;&gt;Node6 -->
<g id="edge10" class="edge"><title>Node1&#45;&gt;Node6</title>
<path fill="none" stroke="midnightblue" d="M628.921,-59.828C658.227,-65.0076 692.248,-71.0206 720.285,-75.976"/>
<polygon fill="midnightblue" stroke="midnightblue" points="629.227,-56.3277 618.77,-58.0338 628.008,-63.2209 629.227,-56.3277"/>
</g>
<!-- Node7 -->
<g id="node13" class="node"><title>Node7</title>
<a xlink:href="class_kitware_1_1_v_t_k_1_1vtk_lookup_table_with_enabling.html" target="_top" xlink:title="vtkLookupTableWithEnabling &#45; A lookup table that allows for an optional array to be provided that spe...">
<polygon fill="none" stroke="black" points="672.5,-38 672.5,-58 881.5,-58 881.5,-38 672.5,-38"/>
<text text-anchor="middle" x="777" y="-45" font-family="FreeSans" font-size="10.00">Kitware.VTK.vtkLookupTableWithEnabling</text>
</a>
</g>
<!-- Node1&#45;&gt;Node7 -->
<g id="edge12" class="edge"><title>Node1&#45;&gt;Node7</title>
<path fill="none" stroke="midnightblue" d="M646.526,-48C655.01,-48 663.694,-48 672.354,-48"/>
<polygon fill="midnightblue" stroke="midnightblue" points="646.292,-44.5001 636.292,-48 646.292,-51.5001 646.292,-44.5001"/>
</g>
<!-- Node8 -->
<g id="node15" class="node"><title>Node8</title>
<a xlink:href="class_kitware_1_1_v_t_k_1_1vtk_window_level_lookup_table.html" target="_top" xlink:title="vtkWindowLevelLookupTable &#45; map scalar values into colors or colors to scalars; generate color table...">
<polygon fill="none" stroke="black" points="673,-0 673,-20 881,-20 881,-0 673,-0"/>
<text text-anchor="middle" x="777" y="-7" font-family="FreeSans" font-size="10.00">Kitware.VTK.vtkWindowLevelLookupTable</text>
</a>
</g>
<!-- Node1&#45;&gt;Node8 -->
<g id="edge14" class="edge"><title>Node1&#45;&gt;Node8</title>
<path fill="none" stroke="midnightblue" d="M628.921,-36.172C658.227,-30.9924 692.248,-24.9794 720.285,-20.024"/>
<polygon fill="midnightblue" stroke="midnightblue" points="628.008,-32.7791 618.77,-37.9662 629.227,-39.6723 628.008,-32.7791"/>
</g>
<!-- Node2 -->
<g id="node2" class="node"><title>Node2</title>
<a xlink:href="class_kitware_1_1_v_t_k_1_1vtk_scalars_to_colors.html" target="_top" xlink:title="vtkScalarsToColors &#45; Superclass for mapping scalar values into colors">
<polygon fill="none" stroke="black" points="346,-38 346,-58 452,-58 452,-38 346,-38"/>
<text text-anchor="middle" x="399" y="-45" font-family="FreeSans" font-size="10.00">vtkScalarsToColors</text>
</a>
</g>
<!-- Node2&#45;&gt;Node1 -->
<g id="edge2" class="edge"><title>Node2&#45;&gt;Node1</title>
<path fill="none" stroke="midnightblue" d="M462.377,-48C470.708,-48 479.305,-48 487.796,-48"/>
<polygon fill="midnightblue" stroke="midnightblue" points="462.372,-44.5001 452.372,-48 462.372,-51.5001 462.372,-44.5001"/>
</g>
<!-- Node3 -->
<g id="node4" class="node"><title>Node3</title>
<a xlink:href="class_kitware_1_1_v_t_k_1_1vtk_object.html" target="_top" xlink:title="vtkObject &#45; abstract base class for most VTK objects">
<polygon fill="none" stroke="black" points="248,-38 248,-58 310,-58 310,-38 248,-38"/>
<text text-anchor="middle" x="279" y="-45" font-family="FreeSans" font-size="10.00">vtkObject</text>
</a>
</g>
<!-- Node3&#45;&gt;Node2 -->
<g id="edge4" class="edge"><title>Node3&#45;&gt;Node2</title>
<path fill="none" stroke="midnightblue" d="M320.245,-48C328.423,-48 337.118,-48 345.632,-48"/>
<polygon fill="midnightblue" stroke="midnightblue" points="320.215,-44.5001 310.215,-48 320.215,-51.5001 320.215,-44.5001"/>
</g>
<!-- Node4 -->
<g id="node6" class="node"><title>Node4</title>
<a xlink:href="class_kitware_1_1_v_t_k_1_1vtk_object_base.html" target="_top" xlink:title="vtkObjectBase &#45; abstract base class for most VTK objects">
<polygon fill="none" stroke="black" points="126,-38 126,-58 212,-58 212,-38 126,-38"/>
<text text-anchor="middle" x="169" y="-45" font-family="FreeSans" font-size="10.00">vtkObjectBase</text>
</a>
</g>
<!-- Node4&#45;&gt;Node3 -->
<g id="edge6" class="edge"><title>Node4&#45;&gt;Node3</title>
<path fill="none" stroke="midnightblue" d="M222.346,-48C231.091,-48 239.892,-48 247.863,-48"/>
<polygon fill="midnightblue" stroke="midnightblue" points="222.159,-44.5001 212.159,-48 222.159,-51.5001 222.159,-44.5001"/>
</g>
<!-- Node5 -->
<g id="node8" class="node"><title>Node5</title>
<a xlink:href="class_kitware_1_1_v_t_k_1_1_wrapped_object.html" target="_top" xlink:title="Base class for all the mummy wrapped classes in Kitware.VTK.">
<polygon fill="none" stroke="black" points="0.5,-38 0.5,-58 89.5,-58 89.5,-38 0.5,-38"/>
<text text-anchor="middle" x="45" y="-45" font-family="FreeSans" font-size="10.00">WrappedObject</text>
</a>
</g>
<!-- Node5&#45;&gt;Node4 -->
<g id="edge8" class="edge"><title>Node5&#45;&gt;Node4</title>
<path fill="none" stroke="midnightblue" d="M99.8895,-48C108.623,-48 117.548,-48 125.957,-48"/>
<polygon fill="midnightblue" stroke="midnightblue" points="99.7669,-44.5001 89.7668,-48 99.7668,-51.5001 99.7669,-44.5001"/>
</g>
</g>
</svg>
