<?xml version="1.0" encoding="UTF-8" standalone="no"?>
<!DOCTYPE svg PUBLIC "-//W3C//DTD SVG 1.1//EN"
 "http://www.w3.org/Graphics/SVG/1.1/DTD/svg11.dtd">
<!-- Generated by graphviz version 2.26.3 (20100126.1600)
 -->
<!-- Title: G Pages: 1 -->
<svg width="208pt" height="436pt"
 viewBox="0.00 0.00 208.00 436.00" xmlns="http://www.w3.org/2000/svg" xmlns:xlink="http://www.w3.org/1999/xlink">
<g id="graph1" class="graph" transform="scale(1 1) rotate(0) translate(4 432)">
<title>G</title>
<!-- Node1 -->
<g id="node1" class="node"><title>Node1</title>
<polygon fill="#bfbfbf" stroke="black" points="18.5,-59 18.5,-79 181.5,-79 181.5,-59 18.5,-59"/>
<text text-anchor="middle" x="100" y="-66" font-family="FreeSans" font-size="10.00">Kitware.VTK.vtkDataSetSource</text>
</g>
<!-- Node8 -->
<g id="node15" class="node"><title>Node8</title>
<a xlink:href="class_kitware_1_1_v_t_k_1_1vtk_data_set_to_data_set_filter.html" target="_top" xlink:title="vtkDataSetToDataSetFilter &#45; abstract filter class">
<polygon fill="none" stroke="black" points="-0.5,-1 -0.5,-21 200.5,-21 200.5,-1 -0.5,-1"/>
<text text-anchor="middle" x="100" y="-8" font-family="FreeSans" font-size="10.00">Kitware.VTK.vtkDataSetToDataSetFilter</text>
</a>
</g>
<!-- Node1&#45;&gt;Node8 -->
<g id="edge14" class="edge"><title>Node1&#45;&gt;Node8</title>
<path fill="none" stroke="midnightblue" d="M100,-48.8902C100,-39.6201 100,-29.0083 100,-21.3776"/>
<polygon fill="midnightblue" stroke="midnightblue" points="96.5001,-48.8971 100,-58.8972 103.5,-48.8972 96.5001,-48.8971"/>
</g>
<!-- Node2 -->
<g id="node2" class="node"><title>Node2</title>
<a xlink:href="class_kitware_1_1_v_t_k_1_1vtk_source.html" target="_top" xlink:title="vtkSource &#45; abstract class specifies interface for visualization network source">
<polygon fill="none" stroke="black" points="67.5,-117 67.5,-137 132.5,-137 132.5,-117 67.5,-117"/>
<text text-anchor="middle" x="100" y="-124" font-family="FreeSans" font-size="10.00">vtkSource</text>
</a>
</g>
<!-- Node2&#45;&gt;Node1 -->
<g id="edge2" class="edge"><title>Node2&#45;&gt;Node1</title>
<path fill="none" stroke="midnightblue" d="M100,-106.89C100,-97.6201 100,-87.0083 100,-79.3776"/>
<polygon fill="midnightblue" stroke="midnightblue" points="96.5001,-106.897 100,-116.897 103.5,-106.897 96.5001,-106.897"/>
</g>
<!-- Node3 -->
<g id="node4" class="node"><title>Node3</title>
<a xlink:href="class_kitware_1_1_v_t_k_1_1vtk_process_object.html" target="_top" xlink:title="vtkProcessObject &#45; abstract class specifies interface for visualization filters">
<polygon fill="none" stroke="black" points="50.5,-175 50.5,-195 149.5,-195 149.5,-175 50.5,-175"/>
<text text-anchor="middle" x="100" y="-182" font-family="FreeSans" font-size="10.00">vtkProcessObject</text>
</a>
</g>
<!-- Node3&#45;&gt;Node2 -->
<g id="edge4" class="edge"><title>Node3&#45;&gt;Node2</title>
<path fill="none" stroke="midnightblue" d="M100,-164.89C100,-155.62 100,-145.008 100,-137.378"/>
<polygon fill="midnightblue" stroke="midnightblue" points="96.5001,-164.897 100,-174.897 103.5,-164.897 96.5001,-164.897"/>
</g>
<!-- Node4 -->
<g id="node6" class="node"><title>Node4</title>
<a xlink:href="class_kitware_1_1_v_t_k_1_1vtk_algorithm.html" target="_top" xlink:title="vtkAlgorithm &#45; Superclass for all sources, filters, and sinks in VTK.">
<polygon fill="none" stroke="black" points="61.5,-233 61.5,-253 138.5,-253 138.5,-233 61.5,-233"/>
<text text-anchor="middle" x="100" y="-240" font-family="FreeSans" font-size="10.00">vtkAlgorithm</text>
</a>
</g>
<!-- Node4&#45;&gt;Node3 -->
<g id="edge6" class="edge"><title>Node4&#45;&gt;Node3</title>
<path fill="none" stroke="midnightblue" d="M100,-222.89C100,-213.62 100,-203.008 100,-195.378"/>
<polygon fill="midnightblue" stroke="midnightblue" points="96.5001,-222.897 100,-232.897 103.5,-222.897 96.5001,-222.897"/>
</g>
<!-- Node5 -->
<g id="node8" class="node"><title>Node5</title>
<a xlink:href="class_kitware_1_1_v_t_k_1_1vtk_object.html" target="_top" xlink:title="vtkObject &#45; abstract base class for most VTK objects">
<polygon fill="none" stroke="black" points="69,-291 69,-311 131,-311 131,-291 69,-291"/>
<text text-anchor="middle" x="100" y="-298" font-family="FreeSans" font-size="10.00">vtkObject</text>
</a>
</g>
<!-- Node5&#45;&gt;Node4 -->
<g id="edge8" class="edge"><title>Node5&#45;&gt;Node4</title>
<path fill="none" stroke="midnightblue" d="M100,-280.89C100,-271.62 100,-261.008 100,-253.378"/>
<polygon fill="midnightblue" stroke="midnightblue" points="96.5001,-280.897 100,-290.897 103.5,-280.897 96.5001,-280.897"/>
</g>
<!-- Node6 -->
<g id="node10" class="node"><title>Node6</title>
<a xlink:href="class_kitware_1_1_v_t_k_1_1vtk_object_base.html" target="_top" xlink:title="vtkObjectBase &#45; abstract base class for most VTK objects">
<polygon fill="none" stroke="black" points="57,-349 57,-369 143,-369 143,-349 57,-349"/>
<text text-anchor="middle" x="100" y="-356" font-family="FreeSans" font-size="10.00">vtkObjectBase</text>
</a>
</g>
<!-- Node6&#45;&gt;Node5 -->
<g id="edge10" class="edge"><title>Node6&#45;&gt;Node5</title>
<path fill="none" stroke="midnightblue" d="M100,-338.89C100,-329.62 100,-319.008 100,-311.378"/>
<polygon fill="midnightblue" stroke="midnightblue" points="96.5001,-338.897 100,-348.897 103.5,-338.897 96.5001,-338.897"/>
</g>
<!-- Node7 -->
<g id="node12" class="node"><title>Node7</title>
<a xlink:href="class_kitware_1_1_v_t_k_1_1_wrapped_object.html" target="_top" xlink:title="Base class for all the mummy wrapped classes in Kitware.VTK.">
<polygon fill="none" stroke="black" points="55.5,-407 55.5,-427 144.5,-427 144.5,-407 55.5,-407"/>
<text text-anchor="middle" x="100" y="-414" font-family="FreeSans" font-size="10.00">WrappedObject</text>
</a>
</g>
<!-- Node7&#45;&gt;Node6 -->
<g id="edge12" class="edge"><title>Node7&#45;&gt;Node6</title>
<path fill="none" stroke="midnightblue" d="M100,-396.89C100,-387.62 100,-377.008 100,-369.378"/>
<polygon fill="midnightblue" stroke="midnightblue" points="96.5001,-396.897 100,-406.897 103.5,-396.897 96.5001,-396.897"/>
</g>
</g>
</svg>
