<?xml version="1.0" encoding="UTF-8" standalone="no"?>
<!DOCTYPE svg PUBLIC "-//W3C//DTD SVG 1.1//EN"
 "http://www.w3.org/Graphics/SVG/1.1/DTD/svg11.dtd">
<!-- Generated by graphviz version 2.26.3 (20100126.1600)
 -->
<!-- Title: G Pages: 1 -->
<svg width="1238pt" height="104pt"
 viewBox="0.00 0.00 1238.00 104.00" xmlns="http://www.w3.org/2000/svg" xmlns:xlink="http://www.w3.org/1999/xlink">
<g id="graph1" class="graph" transform="scale(1 1) rotate(0) translate(4 100)">
<title>G</title>
<!-- Node1 -->
<g id="node1" class="node"><title>Node1</title>
<polygon fill="#bfbfbf" stroke="black" points="790.5,-38 790.5,-58 987.5,-58 987.5,-38 790.5,-38"/>
<text text-anchor="middle" x="889" y="-45" font-family="FreeSans" font-size="10.00">Kitware.VTK.vtkTableToDatabaseWriter</text>
</g>
<!-- Node9 -->
<g id="node17" class="node"><title>Node9</title>
<a xlink:href="class_kitware_1_1_v_t_k_1_1vtk_table_to_my_s_q_l_writer.html" target="_top" xlink:title="vtkTableToMySQLWriter &#45; store a vtkTable in a MySQL database">
<polygon fill="none" stroke="black" points="1036,-76 1036,-96 1218,-96 1218,-76 1036,-76"/>
<text text-anchor="middle" x="1127" y="-83" font-family="FreeSans" font-size="10.00">Kitware.VTK.vtkTableToMySQLWriter</text>
</a>
</g>
<!-- Node1&#45;&gt;Node9 -->
<g id="edge16" class="edge"><title>Node1&#45;&gt;Node9</title>
<path fill="none" stroke="midnightblue" d="M961.808,-59.6249C994.533,-64.8498 1032.77,-70.9557 1064.22,-75.976"/>
<polygon fill="midnightblue" stroke="midnightblue" points="962.27,-56.1543 951.843,-58.0338 961.166,-63.0667 962.27,-56.1543"/>
</g>
<!-- Node10 -->
<g id="node19" class="node"><title>Node10</title>
<a xlink:href="class_kitware_1_1_v_t_k_1_1vtk_table_to_postgre_s_q_l_writer.html" target="_top" xlink:title="vtkTableToPostgreSQLWriter &#45; store a vtkTable in a PostgreSQL database">
<polygon fill="none" stroke="black" points="1024,-38 1024,-58 1230,-58 1230,-38 1024,-38"/>
<text text-anchor="middle" x="1127" y="-45" font-family="FreeSans" font-size="10.00">Kitware.VTK.vtkTableToPostgreSQLWriter</text>
</a>
</g>
<!-- Node1&#45;&gt;Node10 -->
<g id="edge18" class="edge"><title>Node1&#45;&gt;Node10</title>
<path fill="none" stroke="midnightblue" d="M997.721,-48C1006.45,-48 1015.25,-48 1023.94,-48"/>
<polygon fill="midnightblue" stroke="midnightblue" points="997.522,-44.5001 987.522,-48 997.522,-51.5001 997.522,-44.5001"/>
</g>
<!-- Node11 -->
<g id="node21" class="node"><title>Node11</title>
<a xlink:href="class_kitware_1_1_v_t_k_1_1vtk_table_to_s_q_lite_writer.html" target="_top" xlink:title="vtkTableToSQLiteWriter &#45; store a vtkTable in an SQLite database">
<polygon fill="none" stroke="black" points="1036,-0 1036,-20 1218,-20 1218,-0 1036,-0"/>
<text text-anchor="middle" x="1127" y="-7" font-family="FreeSans" font-size="10.00">Kitware.VTK.vtkTableToSQLiteWriter</text>
</a>
</g>
<!-- Node1&#45;&gt;Node11 -->
<g id="edge20" class="edge"><title>Node1&#45;&gt;Node11</title>
<path fill="none" stroke="midnightblue" d="M961.808,-36.3751C994.533,-31.1502 1032.77,-25.0443 1064.22,-20.024"/>
<polygon fill="midnightblue" stroke="midnightblue" points="961.166,-32.9333 951.843,-37.9662 962.27,-39.8457 961.166,-32.9333"/>
</g>
<!-- Node2 -->
<g id="node2" class="node"><title>Node2</title>
<a xlink:href="class_kitware_1_1_v_t_k_1_1vtk_table_writer.html" target="_top" xlink:title="vtkTableWriter &#45; write vtkTable to a file">
<polygon fill="none" stroke="black" points="672,-38 672,-58 754,-58 754,-38 672,-38"/>
<text text-anchor="middle" x="713" y="-45" font-family="FreeSans" font-size="10.00">vtkTableWriter</text>
</a>
</g>
<!-- Node2&#45;&gt;Node1 -->
<g id="edge2" class="edge"><title>Node2&#45;&gt;Node1</title>
<path fill="none" stroke="midnightblue" d="M764.37,-48C772.59,-48 781.329,-48 790.216,-48"/>
<polygon fill="midnightblue" stroke="midnightblue" points="764.264,-44.5001 754.264,-48 764.264,-51.5001 764.264,-44.5001"/>
</g>
<!-- Node3 -->
<g id="node4" class="node"><title>Node3</title>
<a xlink:href="class_kitware_1_1_v_t_k_1_1vtk_data_writer.html" target="_top" xlink:title="vtkDataWriter &#45; helper class for objects that write vtk data files">
<polygon fill="none" stroke="black" points="554.5,-38 554.5,-58 635.5,-58 635.5,-38 554.5,-38"/>
<text text-anchor="middle" x="595" y="-45" font-family="FreeSans" font-size="10.00">vtkDataWriter</text>
</a>
</g>
<!-- Node3&#45;&gt;Node2 -->
<g id="edge4" class="edge"><title>Node3&#45;&gt;Node2</title>
<path fill="none" stroke="midnightblue" d="M645.717,-48C654.466,-48 663.462,-48 671.916,-48"/>
<polygon fill="midnightblue" stroke="midnightblue" points="645.609,-44.5001 635.609,-48 645.609,-51.5001 645.609,-44.5001"/>
</g>
<!-- Node4 -->
<g id="node6" class="node"><title>Node4</title>
<a xlink:href="class_kitware_1_1_v_t_k_1_1vtk_writer.html" target="_top" xlink:title="vtkWriter &#45; abstract class to write data to file(s)">
<polygon fill="none" stroke="black" points="460,-38 460,-58 518,-58 518,-38 460,-38"/>
<text text-anchor="middle" x="489" y="-45" font-family="FreeSans" font-size="10.00">vtkWriter</text>
</a>
</g>
<!-- Node4&#45;&gt;Node3 -->
<g id="edge6" class="edge"><title>Node4&#45;&gt;Node3</title>
<path fill="none" stroke="midnightblue" d="M528.296,-48C536.794,-48 545.797,-48 554.346,-48"/>
<polygon fill="midnightblue" stroke="midnightblue" points="528.246,-44.5001 518.246,-48 528.246,-51.5001 528.246,-44.5001"/>
</g>
<!-- Node5 -->
<g id="node8" class="node"><title>Node5</title>
<a xlink:href="class_kitware_1_1_v_t_k_1_1vtk_algorithm.html" target="_top" xlink:title="vtkAlgorithm &#45; Superclass for all sources, filters, and sinks in VTK.">
<polygon fill="none" stroke="black" points="346.5,-38 346.5,-58 423.5,-58 423.5,-38 346.5,-38"/>
<text text-anchor="middle" x="385" y="-45" font-family="FreeSans" font-size="10.00">vtkAlgorithm</text>
</a>
</g>
<!-- Node5&#45;&gt;Node4 -->
<g id="edge8" class="edge"><title>Node5&#45;&gt;Node4</title>
<path fill="none" stroke="midnightblue" d="M433.749,-48C442.727,-48 451.835,-48 459.996,-48"/>
<polygon fill="midnightblue" stroke="midnightblue" points="433.726,-44.5001 423.726,-48 433.726,-51.5001 433.726,-44.5001"/>
</g>
<!-- Node6 -->
<g id="node10" class="node"><title>Node6</title>
<a xlink:href="class_kitware_1_1_v_t_k_1_1vtk_object.html" target="_top" xlink:title="vtkObject &#45; abstract base class for most VTK objects">
<polygon fill="none" stroke="black" points="248,-38 248,-58 310,-58 310,-38 248,-38"/>
<text text-anchor="middle" x="279" y="-45" font-family="FreeSans" font-size="10.00">vtkObject</text>
</a>
</g>
<!-- Node6&#45;&gt;Node5 -->
<g id="edge10" class="edge"><title>Node6&#45;&gt;Node5</title>
<path fill="none" stroke="midnightblue" d="M320.421,-48C329.001,-48 338.007,-48 346.479,-48"/>
<polygon fill="midnightblue" stroke="midnightblue" points="320.23,-44.5001 310.23,-48 320.23,-51.5001 320.23,-44.5001"/>
</g>
<!-- Node7 -->
<g id="node12" class="node"><title>Node7</title>
<a xlink:href="class_kitware_1_1_v_t_k_1_1vtk_object_base.html" target="_top" xlink:title="vtkObjectBase &#45; abstract base class for most VTK objects">
<polygon fill="none" stroke="black" points="126,-38 126,-58 212,-58 212,-38 126,-38"/>
<text text-anchor="middle" x="169" y="-45" font-family="FreeSans" font-size="10.00">vtkObjectBase</text>
</a>
</g>
<!-- Node7&#45;&gt;Node6 -->
<g id="edge12" class="edge"><title>Node7&#45;&gt;Node6</title>
<path fill="none" stroke="midnightblue" d="M222.346,-48C231.091,-48 239.892,-48 247.863,-48"/>
<polygon fill="midnightblue" stroke="midnightblue" points="222.159,-44.5001 212.159,-48 222.159,-51.5001 222.159,-44.5001"/>
</g>
<!-- Node8 -->
<g id="node14" class="node"><title>Node8</title>
<a xlink:href="class_kitware_1_1_v_t_k_1_1_wrapped_object.html" target="_top" xlink:title="Base class for all the mummy wrapped classes in Kitware.VTK.">
<polygon fill="none" stroke="black" points="0.5,-38 0.5,-58 89.5,-58 89.5,-38 0.5,-38"/>
<text text-anchor="middle" x="45" y="-45" font-family="FreeSans" font-size="10.00">WrappedObject</text>
</a>
</g>
<!-- Node8&#45;&gt;Node7 -->
<g id="edge14" class="edge"><title>Node8&#45;&gt;Node7</title>
<path fill="none" stroke="midnightblue" d="M99.8895,-48C108.623,-48 117.548,-48 125.957,-48"/>
<polygon fill="midnightblue" stroke="midnightblue" points="99.7669,-44.5001 89.7668,-48 99.7668,-51.5001 99.7669,-44.5001"/>
</g>
</g>
</svg>
