<?xml version="1.0" encoding="UTF-8" standalone="no"?>
<!DOCTYPE svg PUBLIC "-//W3C//DTD SVG 1.1//EN"
 "http://www.w3.org/Graphics/SVG/1.1/DTD/svg11.dtd">
<!-- Generated by graphviz version 2.26.3 (20100126.1600)
 -->
<!-- Title: G Pages: 1 -->
<svg width="439pt" height="710pt"
 viewBox="0.00 0.00 439.46 710.00" xmlns="http://www.w3.org/2000/svg" xmlns:xlink="http://www.w3.org/1999/xlink">
<g id="graph1" class="graph" transform="scale(1 1) rotate(0) translate(4 706)">
<title>G</title>
<!-- Node1 -->
<g id="node1" class="node"><title>Node1</title>
<polygon fill="#bfbfbf" stroke="black" points="0,-1 0,-21 206,-21 206,-1 0,-1"/>
<text text-anchor="middle" x="103" y="-8" font-family="FreeSans" font-size="10.00">Kitware.VTK.vtkUnsignedLongLongArray</text>
</g>
<!-- Node2 -->
<g id="node2" class="node"><title>Node2</title>
<a xlink:href="class_kitware_1_1_v_t_k_1_1vtk_data_array.html" target="_top" xlink:title="vtkDataArray &#45; abstract superclass for arrays of numeric data">
<polygon fill="none" stroke="black" points="63,-61 63,-81 143,-81 143,-61 63,-61"/>
<text text-anchor="middle" x="103" y="-68" font-family="FreeSans" font-size="10.00">vtkDataArray</text>
</a>
</g>
<!-- Node2&#45;&gt;Node1 -->
<g id="edge2" class="edge"><title>Node2&#45;&gt;Node1</title>
<path fill="none" stroke="midnightblue" d="M103,-50.5155C103,-40.562 103,-29.0495 103,-21.0279"/>
<polygon fill="midnightblue" stroke="midnightblue" points="99.5001,-50.8218 103,-60.8218 106.5,-50.8219 99.5001,-50.8218"/>
</g>
<!-- Node3 -->
<g id="node4" class="node"><title>Node3</title>
<a xlink:href="class_kitware_1_1_v_t_k_1_1vtk_abstract_array.html" target="_top" xlink:title="vtkAbstractArray &#45; Abstract superclass for all arrays">
<polygon fill="none" stroke="black" points="54.5,-121 54.5,-141 151.5,-141 151.5,-121 54.5,-121"/>
<text text-anchor="middle" x="103" y="-128" font-family="FreeSans" font-size="10.00">vtkAbstractArray</text>
</a>
</g>
<!-- Node3&#45;&gt;Node2 -->
<g id="edge4" class="edge"><title>Node3&#45;&gt;Node2</title>
<path fill="none" stroke="midnightblue" d="M103,-110.516C103,-100.562 103,-89.0495 103,-81.0279"/>
<polygon fill="midnightblue" stroke="midnightblue" points="99.5001,-110.822 103,-120.822 106.5,-110.822 99.5001,-110.822"/>
</g>
<!-- Node4 -->
<g id="node6" class="node"><title>Node4</title>
<a xlink:href="class_kitware_1_1_v_t_k_1_1vtk_object.html" target="_top" xlink:title="vtkObject &#45; abstract base class for most VTK objects">
<polygon fill="none" stroke="black" points="72,-181 72,-201 134,-201 134,-181 72,-181"/>
<text text-anchor="middle" x="103" y="-188" font-family="FreeSans" font-size="10.00">vtkObject</text>
</a>
</g>
<!-- Node4&#45;&gt;Node3 -->
<g id="edge6" class="edge"><title>Node4&#45;&gt;Node3</title>
<path fill="none" stroke="midnightblue" d="M103,-170.516C103,-160.562 103,-149.05 103,-141.028"/>
<polygon fill="midnightblue" stroke="midnightblue" points="99.5001,-170.822 103,-180.822 106.5,-170.822 99.5001,-170.822"/>
</g>
<!-- Node5 -->
<g id="node8" class="node"><title>Node5</title>
<a xlink:href="class_kitware_1_1_v_t_k_1_1vtk_object_base.html" target="_top" xlink:title="vtkObjectBase &#45; abstract base class for most VTK objects">
<polygon fill="none" stroke="black" points="123,-621 123,-641 209,-641 209,-621 123,-621"/>
<text text-anchor="middle" x="166" y="-628" font-family="FreeSans" font-size="10.00">vtkObjectBase</text>
</a>
</g>
<!-- Node5&#45;&gt;Node4 -->
<g id="edge8" class="edge"><title>Node5&#45;&gt;Node4</title>
<path fill="none" stroke="midnightblue" d="M137.423,-615.886C123.687,-607.44 107.884,-595.826 97,-582 85.1564,-566.955 84.6209,-560.802 81,-542 55.4248,-409.199 90.5766,-243.437 100.516,-201.17"/>
<polygon fill="midnightblue" stroke="midnightblue" points="135.683,-618.923 146.079,-620.97 139.229,-612.887 135.683,-618.923"/>
</g>
<!-- Node8 -->
<g id="node15" class="node"><title>Node8</title>
<a xlink:href="class_kitware_1_1_v_t_k_1_1vtk_object.html" target="_top" xlink:title="vtkObject &#45; abstract base class for most VTK objects">
<polygon fill="none" stroke="black" points="106,-561 106,-581 226,-581 226,-561 106,-561"/>
<text text-anchor="middle" x="166" y="-568" font-family="FreeSans" font-size="10.00">Kitware.VTK.vtkObject</text>
</a>
</g>
<!-- Node5&#45;&gt;Node8 -->
<g id="edge18" class="edge"><title>Node5&#45;&gt;Node8</title>
<path fill="none" stroke="midnightblue" d="M166,-610.516C166,-600.562 166,-589.05 166,-581.028"/>
<polygon fill="midnightblue" stroke="midnightblue" points="162.5,-610.822 166,-620.822 169.5,-610.822 162.5,-610.822"/>
</g>
<!-- Node6 -->
<g id="node10" class="node"><title>Node6</title>
<a xlink:href="class_kitware_1_1_v_t_k_1_1_wrapped_object.html" target="_top" xlink:title="Base class for all the mummy wrapped classes in Kitware.VTK.">
<polygon fill="none" stroke="black" points="304.5,-681 304.5,-701 393.5,-701 393.5,-681 304.5,-681"/>
<text text-anchor="middle" x="349" y="-688" font-family="FreeSans" font-size="10.00">WrappedObject</text>
</a>
</g>
<!-- Node6&#45;&gt;Node5 -->
<g id="edge10" class="edge"><title>Node6&#45;&gt;Node5</title>
<path fill="none" stroke="midnightblue" d="M308.804,-677.821C275.042,-666.752 227.512,-651.168 196.73,-641.075"/>
<polygon fill="midnightblue" stroke="midnightblue" points="307.777,-681.168 318.37,-680.957 309.958,-674.516 307.777,-681.168"/>
</g>
<!-- Node7 -->
<g id="node12" class="node"><title>Node7</title>
<a xlink:href="class_kitware_1_1_v_t_k_1_1vtk_object_event_relay.html" target="_top" xlink:title="Implement a relay handler for VTK events. This is a class that receives events directly from the VTK ...">
<polygon fill="none" stroke="black" points="95,-371 95,-391 267,-391 267,-371 95,-371"/>
<text text-anchor="middle" x="181" y="-378" font-family="FreeSans" font-size="10.00">Kitware.VTK.vtkObjectEventRelay</text>
</a>
</g>
<!-- Node6&#45;&gt;Node7 -->
<g id="edge14" class="edge"><title>Node6&#45;&gt;Node7</title>
<path fill="none" stroke="midnightblue" d="M361.888,-672.325C394.276,-622.899 471.803,-487.191 404,-410 394.773,-399.495 326.047,-391.666 267.298,-386.808"/>
<polygon fill="midnightblue" stroke="midnightblue" points="358.891,-670.509 356.239,-680.767 364.709,-674.402 358.891,-670.509"/>
</g>
<!-- Node7&#45;&gt;Node4 -->
<g id="edge12" class="edge"><title>Node7&#45;&gt;Node4</title>
<path fill="none" stroke="#9a32cd" stroke-dasharray="5,2" d="M172.921,-361.321C156.489,-321.293 119.674,-231.616 107.214,-201.266"/>
<polygon fill="#9a32cd" stroke="#9a32cd" points="169.771,-362.863 176.806,-370.785 176.246,-360.205 169.771,-362.863"/>
<text text-anchor="middle" x="280.5" y="-343" font-family="FreeSans" font-size="10.00"> LeftButtonReleaseEvtRelay</text>
<text text-anchor="middle" x="280.5" y="-331" font-family="FreeSans" font-size="10.00">KeyPressEvtRelay</text>
<text text-anchor="middle" x="280.5" y="-319" font-family="FreeSans" font-size="10.00">DomainModifiedEvtRelay</text>
<text text-anchor="middle" x="280.5" y="-307" font-family="FreeSans" font-size="10.00">VolumeMapperComputeGradientsStartEvtRelay</text>
<text text-anchor="middle" x="280.5" y="-295" font-family="FreeSans" font-size="10.00">ErrorEvtRelay</text>
<text text-anchor="middle" x="280.5" y="-283" font-family="FreeSans" font-size="10.00">VolumeMapperRenderStartEvtRelay</text>
<text text-anchor="middle" x="280.5" y="-271" font-family="FreeSans" font-size="10.00">StartEvtRelay</text>
<text text-anchor="middle" x="280.5" y="-259" font-family="FreeSans" font-size="10.00">ResetCameraEvtRelay</text>
<text text-anchor="middle" x="280.5" y="-247" font-family="FreeSans" font-size="10.00">EnableEvtRelay</text>
<text text-anchor="middle" x="280.5" y="-235" font-family="FreeSans" font-size="10.00">DeleteEvtRelay</text>
<text text-anchor="middle" x="280.5" y="-223" font-family="FreeSans" font-size="10.00">...</text>
</g>
<!-- Node7&#45;&gt;Node8 -->
<g id="edge20" class="edge"><title>Node7&#45;&gt;Node8</title>
<path fill="none" stroke="#9a32cd" stroke-dasharray="5,2" d="M178.028,-401.231C177.649,-404.169 177.293,-407.159 177,-410 171.144,-466.853 167.636,-535.333 166.452,-560.807"/>
<polygon fill="#9a32cd" stroke="#9a32cd" points="181.515,-401.565 179.421,-391.179 174.582,-400.604 181.515,-401.565"/>
<text text-anchor="middle" x="290.5" y="-533" font-family="FreeSans" font-size="10.00"> LeftButtonReleaseEvtRelay</text>
<text text-anchor="middle" x="290.5" y="-521" font-family="FreeSans" font-size="10.00">KeyPressEvtRelay</text>
<text text-anchor="middle" x="290.5" y="-509" font-family="FreeSans" font-size="10.00">DomainModifiedEvtRelay</text>
<text text-anchor="middle" x="290.5" y="-497" font-family="FreeSans" font-size="10.00">VolumeMapperComputeGradientsStartEvtRelay</text>
<text text-anchor="middle" x="290.5" y="-485" font-family="FreeSans" font-size="10.00">ErrorEvtRelay</text>
<text text-anchor="middle" x="290.5" y="-473" font-family="FreeSans" font-size="10.00">VolumeMapperRenderStartEvtRelay</text>
<text text-anchor="middle" x="290.5" y="-461" font-family="FreeSans" font-size="10.00">StartEvtRelay</text>
<text text-anchor="middle" x="290.5" y="-449" font-family="FreeSans" font-size="10.00">ResetCameraEvtRelay</text>
<text text-anchor="middle" x="290.5" y="-437" font-family="FreeSans" font-size="10.00">EnableEvtRelay</text>
<text text-anchor="middle" x="290.5" y="-425" font-family="FreeSans" font-size="10.00">DeleteEvtRelay</text>
<text text-anchor="middle" x="290.5" y="-413" font-family="FreeSans" font-size="10.00">...</text>
</g>
<!-- Node8&#45;&gt;Node7 -->
<g id="edge16" class="edge"><title>Node8&#45;&gt;Node7</title>
<path fill="none" stroke="#9a32cd" stroke-dasharray="5,2" d="M119.979,-555.818C114.439,-552.138 109.51,-547.596 106,-542 74.8229,-492.303 72.8299,-458.389 106,-410 110.736,-403.091 127.511,-396.287 143.999,-391.008"/>
<polygon fill="#9a32cd" stroke="#9a32cd" points="118.639,-559.079 129.072,-560.919 122.064,-552.974 118.639,-559.079"/>
<text text-anchor="middle" x="130" y="-479" font-family="FreeSans" font-size="10.00"> Sender</text>
<text text-anchor="middle" x="130" y="-467" font-family="FreeSans" font-size="10.00">EventImpl</text>
</g>
</g>
</svg>
