<?xml version="1.0" encoding="UTF-8" standalone="no"?>
<!DOCTYPE svg PUBLIC "-//W3C//DTD SVG 1.1//EN"
 "http://www.w3.org/Graphics/SVG/1.1/DTD/svg11.dtd">
<!-- Generated by graphviz version 2.26.3 (20100126.1600)
 -->
<!-- Title: G Pages: 1 -->
<svg width="254pt" height="436pt"
 viewBox="0.00 0.00 254.00 436.00" xmlns="http://www.w3.org/2000/svg" xmlns:xlink="http://www.w3.org/1999/xlink">
<g id="graph1" class="graph" transform="scale(1 1) rotate(0) translate(4 432)">
<title>G</title>
<!-- Node1 -->
<g id="node1" class="node"><title>Node1</title>
<polygon fill="#bfbfbf" stroke="black" points="-0.5,-1 -0.5,-21 246.5,-21 246.5,-1 -0.5,-1"/>
<text text-anchor="middle" x="123" y="-8" font-family="FreeSans" font-size="10.00">Kitware.VTK.vtkUnstructuredGridToPolyDataFilter</text>
</g>
<!-- Node2 -->
<g id="node2" class="node"><title>Node2</title>
<a xlink:href="class_kitware_1_1_v_t_k_1_1vtk_poly_data_source.html" target="_top" xlink:title="vtkPolyDataSource &#45; abstract class whose subclasses generate polygonal data">
<polygon fill="none" stroke="black" points="69.5,-59 69.5,-79 176.5,-79 176.5,-59 69.5,-59"/>
<text text-anchor="middle" x="123" y="-66" font-family="FreeSans" font-size="10.00">vtkPolyDataSource</text>
</a>
</g>
<!-- Node2&#45;&gt;Node1 -->
<g id="edge2" class="edge"><title>Node2&#45;&gt;Node1</title>
<path fill="none" stroke="midnightblue" d="M123,-48.8902C123,-39.6201 123,-29.0083 123,-21.3776"/>
<polygon fill="midnightblue" stroke="midnightblue" points="119.5,-48.8971 123,-58.8972 126.5,-48.8972 119.5,-48.8971"/>
</g>
<!-- Node3 -->
<g id="node4" class="node"><title>Node3</title>
<a xlink:href="class_kitware_1_1_v_t_k_1_1vtk_source.html" target="_top" xlink:title="vtkSource &#45; abstract class specifies interface for visualization network source">
<polygon fill="none" stroke="black" points="90.5,-117 90.5,-137 155.5,-137 155.5,-117 90.5,-117"/>
<text text-anchor="middle" x="123" y="-124" font-family="FreeSans" font-size="10.00">vtkSource</text>
</a>
</g>
<!-- Node3&#45;&gt;Node2 -->
<g id="edge4" class="edge"><title>Node3&#45;&gt;Node2</title>
<path fill="none" stroke="midnightblue" d="M123,-106.89C123,-97.6201 123,-87.0083 123,-79.3776"/>
<polygon fill="midnightblue" stroke="midnightblue" points="119.5,-106.897 123,-116.897 126.5,-106.897 119.5,-106.897"/>
</g>
<!-- Node4 -->
<g id="node6" class="node"><title>Node4</title>
<a xlink:href="class_kitware_1_1_v_t_k_1_1vtk_process_object.html" target="_top" xlink:title="vtkProcessObject &#45; abstract class specifies interface for visualization filters">
<polygon fill="none" stroke="black" points="73.5,-175 73.5,-195 172.5,-195 172.5,-175 73.5,-175"/>
<text text-anchor="middle" x="123" y="-182" font-family="FreeSans" font-size="10.00">vtkProcessObject</text>
</a>
</g>
<!-- Node4&#45;&gt;Node3 -->
<g id="edge6" class="edge"><title>Node4&#45;&gt;Node3</title>
<path fill="none" stroke="midnightblue" d="M123,-164.89C123,-155.62 123,-145.008 123,-137.378"/>
<polygon fill="midnightblue" stroke="midnightblue" points="119.5,-164.897 123,-174.897 126.5,-164.897 119.5,-164.897"/>
</g>
<!-- Node5 -->
<g id="node8" class="node"><title>Node5</title>
<a xlink:href="class_kitware_1_1_v_t_k_1_1vtk_algorithm.html" target="_top" xlink:title="vtkAlgorithm &#45; Superclass for all sources, filters, and sinks in VTK.">
<polygon fill="none" stroke="black" points="84.5,-233 84.5,-253 161.5,-253 161.5,-233 84.5,-233"/>
<text text-anchor="middle" x="123" y="-240" font-family="FreeSans" font-size="10.00">vtkAlgorithm</text>
</a>
</g>
<!-- Node5&#45;&gt;Node4 -->
<g id="edge8" class="edge"><title>Node5&#45;&gt;Node4</title>
<path fill="none" stroke="midnightblue" d="M123,-222.89C123,-213.62 123,-203.008 123,-195.378"/>
<polygon fill="midnightblue" stroke="midnightblue" points="119.5,-222.897 123,-232.897 126.5,-222.897 119.5,-222.897"/>
</g>
<!-- Node6 -->
<g id="node10" class="node"><title>Node6</title>
<a xlink:href="class_kitware_1_1_v_t_k_1_1vtk_object.html" target="_top" xlink:title="vtkObject &#45; abstract base class for most VTK objects">
<polygon fill="none" stroke="black" points="92,-291 92,-311 154,-311 154,-291 92,-291"/>
<text text-anchor="middle" x="123" y="-298" font-family="FreeSans" font-size="10.00">vtkObject</text>
</a>
</g>
<!-- Node6&#45;&gt;Node5 -->
<g id="edge10" class="edge"><title>Node6&#45;&gt;Node5</title>
<path fill="none" stroke="midnightblue" d="M123,-280.89C123,-271.62 123,-261.008 123,-253.378"/>
<polygon fill="midnightblue" stroke="midnightblue" points="119.5,-280.897 123,-290.897 126.5,-280.897 119.5,-280.897"/>
</g>
<!-- Node7 -->
<g id="node12" class="node"><title>Node7</title>
<a xlink:href="class_kitware_1_1_v_t_k_1_1vtk_object_base.html" target="_top" xlink:title="vtkObjectBase &#45; abstract base class for most VTK objects">
<polygon fill="none" stroke="black" points="80,-349 80,-369 166,-369 166,-349 80,-349"/>
<text text-anchor="middle" x="123" y="-356" font-family="FreeSans" font-size="10.00">vtkObjectBase</text>
</a>
</g>
<!-- Node7&#45;&gt;Node6 -->
<g id="edge12" class="edge"><title>Node7&#45;&gt;Node6</title>
<path fill="none" stroke="midnightblue" d="M123,-338.89C123,-329.62 123,-319.008 123,-311.378"/>
<polygon fill="midnightblue" stroke="midnightblue" points="119.5,-338.897 123,-348.897 126.5,-338.897 119.5,-338.897"/>
</g>
<!-- Node8 -->
<g id="node14" class="node"><title>Node8</title>
<a xlink:href="class_kitware_1_1_v_t_k_1_1_wrapped_object.html" target="_top" xlink:title="Base class for all the mummy wrapped classes in Kitware.VTK.">
<polygon fill="none" stroke="black" points="78.5,-407 78.5,-427 167.5,-427 167.5,-407 78.5,-407"/>
<text text-anchor="middle" x="123" y="-414" font-family="FreeSans" font-size="10.00">WrappedObject</text>
</a>
</g>
<!-- Node8&#45;&gt;Node7 -->
<g id="edge14" class="edge"><title>Node8&#45;&gt;Node7</title>
<path fill="none" stroke="midnightblue" d="M123,-396.89C123,-387.62 123,-377.008 123,-369.378"/>
<polygon fill="midnightblue" stroke="midnightblue" points="119.5,-396.897 123,-406.897 126.5,-396.897 119.5,-396.897"/>
</g>
</g>
</svg>
