<?xml version="1.0" encoding="UTF-8" standalone="no"?>
<!DOCTYPE svg PUBLIC "-//W3C//DTD SVG 1.1//EN"
 "http://www.w3.org/Graphics/SVG/1.1/DTD/svg11.dtd">
<!-- Generated by graphviz version 2.26.3 (20100126.1600)
 -->
<!-- Title: G Pages: 1 -->
<svg width="401pt" height="770pt"
 viewBox="0.00 0.00 401.46 770.00" xmlns="http://www.w3.org/2000/svg" xmlns:xlink="http://www.w3.org/1999/xlink">
<g id="graph1" class="graph" transform="scale(1 1) rotate(0) translate(4 766)">
<title>G</title>
<!-- Node1 -->
<g id="node1" class="node"><title>Node1</title>
<polygon fill="#bfbfbf" stroke="black" points="3,-1 3,-21 127,-21 127,-1 3,-1"/>
<text text-anchor="middle" x="65" y="-8" font-family="FreeSans" font-size="10.00">Kitware.VTK.vtkPlotBar</text>
</g>
<!-- Node2 -->
<g id="node2" class="node"><title>Node2</title>
<a xlink:href="class_kitware_1_1_v_t_k_1_1vtk_plot.html" target="_top" xlink:title="vtkPlot &#45; Abstract class for 2D plots.">
<polygon fill="none" stroke="black" points="40.5,-61 40.5,-81 89.5,-81 89.5,-61 40.5,-61"/>
<text text-anchor="middle" x="65" y="-68" font-family="FreeSans" font-size="10.00">vtkPlot</text>
</a>
</g>
<!-- Node2&#45;&gt;Node1 -->
<g id="edge2" class="edge"><title>Node2&#45;&gt;Node1</title>
<path fill="none" stroke="midnightblue" d="M65,-50.5155C65,-40.562 65,-29.0495 65,-21.0279"/>
<polygon fill="midnightblue" stroke="midnightblue" points="61.5001,-50.8218 65,-60.8218 68.5001,-50.8219 61.5001,-50.8218"/>
</g>
<!-- Node3 -->
<g id="node4" class="node"><title>Node3</title>
<a xlink:href="class_kitware_1_1_v_t_k_1_1vtk_context_item.html" target="_top" xlink:title="vtkContextItem &#45; base class for items that are part of a vtkContextScene.">
<polygon fill="none" stroke="black" points="20,-121 20,-141 110,-141 110,-121 20,-121"/>
<text text-anchor="middle" x="65" y="-128" font-family="FreeSans" font-size="10.00">vtkContextItem</text>
</a>
</g>
<!-- Node3&#45;&gt;Node2 -->
<g id="edge4" class="edge"><title>Node3&#45;&gt;Node2</title>
<path fill="none" stroke="midnightblue" d="M65,-110.516C65,-100.562 65,-89.0495 65,-81.0279"/>
<polygon fill="midnightblue" stroke="midnightblue" points="61.5001,-110.822 65,-120.822 68.5001,-110.822 61.5001,-110.822"/>
</g>
<!-- Node4 -->
<g id="node6" class="node"><title>Node4</title>
<a xlink:href="class_kitware_1_1_v_t_k_1_1vtk_abstract_context_item.html" target="_top" xlink:title="vtkAbstractContextItem &#45; base class for items that are part of a vtkContextScene.">
<polygon fill="none" stroke="black" points="-0.5,-181 -0.5,-201 130.5,-201 130.5,-181 -0.5,-181"/>
<text text-anchor="middle" x="65" y="-188" font-family="FreeSans" font-size="10.00">vtkAbstractContextItem</text>
</a>
</g>
<!-- Node4&#45;&gt;Node3 -->
<g id="edge6" class="edge"><title>Node4&#45;&gt;Node3</title>
<path fill="none" stroke="midnightblue" d="M65,-170.516C65,-160.562 65,-149.05 65,-141.028"/>
<polygon fill="midnightblue" stroke="midnightblue" points="61.5001,-170.822 65,-180.822 68.5001,-170.822 61.5001,-170.822"/>
</g>
<!-- Node5 -->
<g id="node8" class="node"><title>Node5</title>
<a xlink:href="class_kitware_1_1_v_t_k_1_1vtk_object.html" target="_top" xlink:title="vtkObject &#45; abstract base class for most VTK objects">
<polygon fill="none" stroke="black" points="34,-241 34,-261 96,-261 96,-241 34,-241"/>
<text text-anchor="middle" x="65" y="-248" font-family="FreeSans" font-size="10.00">vtkObject</text>
</a>
</g>
<!-- Node5&#45;&gt;Node4 -->
<g id="edge8" class="edge"><title>Node5&#45;&gt;Node4</title>
<path fill="none" stroke="midnightblue" d="M65,-230.516C65,-220.562 65,-209.05 65,-201.028"/>
<polygon fill="midnightblue" stroke="midnightblue" points="61.5001,-230.822 65,-240.822 68.5001,-230.822 61.5001,-230.822"/>
</g>
<!-- Node6 -->
<g id="node10" class="node"><title>Node6</title>
<a xlink:href="class_kitware_1_1_v_t_k_1_1vtk_object_base.html" target="_top" xlink:title="vtkObjectBase &#45; abstract base class for most VTK objects">
<polygon fill="none" stroke="black" points="85,-681 85,-701 171,-701 171,-681 85,-681"/>
<text text-anchor="middle" x="128" y="-688" font-family="FreeSans" font-size="10.00">vtkObjectBase</text>
</a>
</g>
<!-- Node6&#45;&gt;Node5 -->
<g id="edge10" class="edge"><title>Node6&#45;&gt;Node5</title>
<path fill="none" stroke="midnightblue" d="M99.4228,-675.886C85.6866,-667.44 69.8844,-655.826 59,-642 47.1564,-626.955 46.6209,-620.802 43,-602 17.4248,-469.199 52.5766,-303.437 62.5155,-261.17"/>
<polygon fill="midnightblue" stroke="midnightblue" points="97.6834,-678.923 108.079,-680.97 101.229,-672.887 97.6834,-678.923"/>
</g>
<!-- Node9 -->
<g id="node17" class="node"><title>Node9</title>
<a xlink:href="class_kitware_1_1_v_t_k_1_1vtk_object.html" target="_top" xlink:title="vtkObject &#45; abstract base class for most VTK objects">
<polygon fill="none" stroke="black" points="68,-621 68,-641 188,-641 188,-621 68,-621"/>
<text text-anchor="middle" x="128" y="-628" font-family="FreeSans" font-size="10.00">Kitware.VTK.vtkObject</text>
</a>
</g>
<!-- Node6&#45;&gt;Node9 -->
<g id="edge20" class="edge"><title>Node6&#45;&gt;Node9</title>
<path fill="none" stroke="midnightblue" d="M128,-670.516C128,-660.562 128,-649.05 128,-641.028"/>
<polygon fill="midnightblue" stroke="midnightblue" points="124.5,-670.822 128,-680.822 131.5,-670.822 124.5,-670.822"/>
</g>
<!-- Node7 -->
<g id="node12" class="node"><title>Node7</title>
<a xlink:href="class_kitware_1_1_v_t_k_1_1_wrapped_object.html" target="_top" xlink:title="Base class for all the mummy wrapped classes in Kitware.VTK.">
<polygon fill="none" stroke="black" points="266.5,-741 266.5,-761 355.5,-761 355.5,-741 266.5,-741"/>
<text text-anchor="middle" x="311" y="-748" font-family="FreeSans" font-size="10.00">WrappedObject</text>
</a>
</g>
<!-- Node7&#45;&gt;Node6 -->
<g id="edge12" class="edge"><title>Node7&#45;&gt;Node6</title>
<path fill="none" stroke="midnightblue" d="M270.804,-737.821C237.042,-726.752 189.512,-711.168 158.73,-701.075"/>
<polygon fill="midnightblue" stroke="midnightblue" points="269.777,-741.168 280.37,-740.957 271.958,-734.516 269.777,-741.168"/>
</g>
<!-- Node8 -->
<g id="node14" class="node"><title>Node8</title>
<a xlink:href="class_kitware_1_1_v_t_k_1_1vtk_object_event_relay.html" target="_top" xlink:title="Implement a relay handler for VTK events. This is a class that receives events directly from the VTK ...">
<polygon fill="none" stroke="black" points="57,-431 57,-451 229,-451 229,-431 57,-431"/>
<text text-anchor="middle" x="143" y="-438" font-family="FreeSans" font-size="10.00">Kitware.VTK.vtkObjectEventRelay</text>
</a>
</g>
<!-- Node7&#45;&gt;Node8 -->
<g id="edge16" class="edge"><title>Node7&#45;&gt;Node8</title>
<path fill="none" stroke="midnightblue" d="M323.888,-732.325C356.276,-682.899 433.803,-547.191 366,-470 356.773,-459.495 288.047,-451.666 229.298,-446.808"/>
<polygon fill="midnightblue" stroke="midnightblue" points="320.891,-730.509 318.239,-740.767 326.709,-734.402 320.891,-730.509"/>
</g>
<!-- Node8&#45;&gt;Node5 -->
<g id="edge14" class="edge"><title>Node8&#45;&gt;Node5</title>
<path fill="none" stroke="#9a32cd" stroke-dasharray="5,2" d="M134.921,-421.321C118.489,-381.293 81.6738,-291.616 69.2144,-261.266"/>
<polygon fill="#9a32cd" stroke="#9a32cd" points="131.771,-422.863 138.806,-430.785 138.246,-420.205 131.771,-422.863"/>
<text text-anchor="middle" x="242.5" y="-403" font-family="FreeSans" font-size="10.00"> LeftButtonReleaseEvtRelay</text>
<text text-anchor="middle" x="242.5" y="-391" font-family="FreeSans" font-size="10.00">KeyPressEvtRelay</text>
<text text-anchor="middle" x="242.5" y="-379" font-family="FreeSans" font-size="10.00">DomainModifiedEvtRelay</text>
<text text-anchor="middle" x="242.5" y="-367" font-family="FreeSans" font-size="10.00">VolumeMapperComputeGradientsStartEvtRelay</text>
<text text-anchor="middle" x="242.5" y="-355" font-family="FreeSans" font-size="10.00">ErrorEvtRelay</text>
<text text-anchor="middle" x="242.5" y="-343" font-family="FreeSans" font-size="10.00">VolumeMapperRenderStartEvtRelay</text>
<text text-anchor="middle" x="242.5" y="-331" font-family="FreeSans" font-size="10.00">StartEvtRelay</text>
<text text-anchor="middle" x="242.5" y="-319" font-family="FreeSans" font-size="10.00">ResetCameraEvtRelay</text>
<text text-anchor="middle" x="242.5" y="-307" font-family="FreeSans" font-size="10.00">EnableEvtRelay</text>
<text text-anchor="middle" x="242.5" y="-295" font-family="FreeSans" font-size="10.00">DeleteEvtRelay</text>
<text text-anchor="middle" x="242.5" y="-283" font-family="FreeSans" font-size="10.00">...</text>
</g>
<!-- Node8&#45;&gt;Node9 -->
<g id="edge22" class="edge"><title>Node8&#45;&gt;Node9</title>
<path fill="none" stroke="#9a32cd" stroke-dasharray="5,2" d="M140.028,-461.231C139.649,-464.169 139.293,-467.159 139,-470 133.144,-526.853 129.636,-595.333 128.452,-620.807"/>
<polygon fill="#9a32cd" stroke="#9a32cd" points="143.515,-461.565 141.421,-451.179 136.582,-460.604 143.515,-461.565"/>
<text text-anchor="middle" x="252.5" y="-593" font-family="FreeSans" font-size="10.00"> LeftButtonReleaseEvtRelay</text>
<text text-anchor="middle" x="252.5" y="-581" font-family="FreeSans" font-size="10.00">KeyPressEvtRelay</text>
<text text-anchor="middle" x="252.5" y="-569" font-family="FreeSans" font-size="10.00">DomainModifiedEvtRelay</text>
<text text-anchor="middle" x="252.5" y="-557" font-family="FreeSans" font-size="10.00">VolumeMapperComputeGradientsStartEvtRelay</text>
<text text-anchor="middle" x="252.5" y="-545" font-family="FreeSans" font-size="10.00">ErrorEvtRelay</text>
<text text-anchor="middle" x="252.5" y="-533" font-family="FreeSans" font-size="10.00">VolumeMapperRenderStartEvtRelay</text>
<text text-anchor="middle" x="252.5" y="-521" font-family="FreeSans" font-size="10.00">StartEvtRelay</text>
<text text-anchor="middle" x="252.5" y="-509" font-family="FreeSans" font-size="10.00">ResetCameraEvtRelay</text>
<text text-anchor="middle" x="252.5" y="-497" font-family="FreeSans" font-size="10.00">EnableEvtRelay</text>
<text text-anchor="middle" x="252.5" y="-485" font-family="FreeSans" font-size="10.00">DeleteEvtRelay</text>
<text text-anchor="middle" x="252.5" y="-473" font-family="FreeSans" font-size="10.00">...</text>
</g>
<!-- Node9&#45;&gt;Node8 -->
<g id="edge18" class="edge"><title>Node9&#45;&gt;Node8</title>
<path fill="none" stroke="#9a32cd" stroke-dasharray="5,2" d="M81.9794,-615.818C76.4393,-612.138 71.5104,-607.596 68,-602 36.8229,-552.303 34.8299,-518.389 68,-470 72.7359,-463.091 89.5114,-456.287 105.999,-451.008"/>
<polygon fill="#9a32cd" stroke="#9a32cd" points="80.6386,-619.079 91.0724,-620.919 84.0636,-612.974 80.6386,-619.079"/>
<text text-anchor="middle" x="92" y="-539" font-family="FreeSans" font-size="10.00"> Sender</text>
<text text-anchor="middle" x="92" y="-527" font-family="FreeSans" font-size="10.00">EventImpl</text>
</g>
</g>
</svg>
