<?xml version="1.0" encoding="UTF-8" standalone="no"?>
<!DOCTYPE svg PUBLIC "-//W3C//DTD SVG 1.1//EN"
 "http://www.w3.org/Graphics/SVG/1.1/DTD/svg11.dtd">
<!-- Generated by graphviz version 2.26.3 (20100126.1600)
 -->
<!-- Title: G Pages: 1 -->
<svg width="437pt" height="830pt"
 viewBox="0.00 0.00 437.46 830.00" xmlns="http://www.w3.org/2000/svg" xmlns:xlink="http://www.w3.org/1999/xlink">
<g id="graph1" class="graph" transform="scale(1 1) rotate(0) translate(4 826)">
<title>G</title>
<!-- Node1 -->
<g id="node1" class="node"><title>Node1</title>
<polygon fill="#bfbfbf" stroke="black" points="-0.5,-1 -0.5,-21 202.5,-21 202.5,-1 -0.5,-1"/>
<text text-anchor="middle" x="101" y="-8" font-family="FreeSans" font-size="10.00">Kitware.VTK.vtkImageMultipleInputFilter</text>
</g>
<!-- Node2 -->
<g id="node2" class="node"><title>Node2</title>
<a xlink:href="class_kitware_1_1_v_t_k_1_1vtk_image_source.html" target="_top" xlink:title="vtkImageSource &#45; Source of data for the imaging pipeline">
<polygon fill="none" stroke="black" points="53.5,-61 53.5,-81 148.5,-81 148.5,-61 53.5,-61"/>
<text text-anchor="middle" x="101" y="-68" font-family="FreeSans" font-size="10.00">vtkImageSource</text>
</a>
</g>
<!-- Node2&#45;&gt;Node1 -->
<g id="edge2" class="edge"><title>Node2&#45;&gt;Node1</title>
<path fill="none" stroke="midnightblue" d="M101,-50.5155C101,-40.562 101,-29.0495 101,-21.0279"/>
<polygon fill="midnightblue" stroke="midnightblue" points="97.5001,-50.8218 101,-60.8218 104.5,-50.8219 97.5001,-50.8218"/>
</g>
<!-- Node3 -->
<g id="node4" class="node"><title>Node3</title>
<a xlink:href="class_kitware_1_1_v_t_k_1_1vtk_source.html" target="_top" xlink:title="vtkSource &#45; abstract class specifies interface for visualization network source">
<polygon fill="none" stroke="black" points="68.5,-121 68.5,-141 133.5,-141 133.5,-121 68.5,-121"/>
<text text-anchor="middle" x="101" y="-128" font-family="FreeSans" font-size="10.00">vtkSource</text>
</a>
</g>
<!-- Node3&#45;&gt;Node2 -->
<g id="edge4" class="edge"><title>Node3&#45;&gt;Node2</title>
<path fill="none" stroke="midnightblue" d="M101,-110.516C101,-100.562 101,-89.0495 101,-81.0279"/>
<polygon fill="midnightblue" stroke="midnightblue" points="97.5001,-110.822 101,-120.822 104.5,-110.822 97.5001,-110.822"/>
</g>
<!-- Node4 -->
<g id="node6" class="node"><title>Node4</title>
<a xlink:href="class_kitware_1_1_v_t_k_1_1vtk_process_object.html" target="_top" xlink:title="vtkProcessObject &#45; abstract class specifies interface for visualization filters">
<polygon fill="none" stroke="black" points="51.5,-181 51.5,-201 150.5,-201 150.5,-181 51.5,-181"/>
<text text-anchor="middle" x="101" y="-188" font-family="FreeSans" font-size="10.00">vtkProcessObject</text>
</a>
</g>
<!-- Node4&#45;&gt;Node3 -->
<g id="edge6" class="edge"><title>Node4&#45;&gt;Node3</title>
<path fill="none" stroke="midnightblue" d="M101,-170.516C101,-160.562 101,-149.05 101,-141.028"/>
<polygon fill="midnightblue" stroke="midnightblue" points="97.5001,-170.822 101,-180.822 104.5,-170.822 97.5001,-170.822"/>
</g>
<!-- Node5 -->
<g id="node8" class="node"><title>Node5</title>
<a xlink:href="class_kitware_1_1_v_t_k_1_1vtk_algorithm.html" target="_top" xlink:title="vtkAlgorithm &#45; Superclass for all sources, filters, and sinks in VTK.">
<polygon fill="none" stroke="black" points="62.5,-241 62.5,-261 139.5,-261 139.5,-241 62.5,-241"/>
<text text-anchor="middle" x="101" y="-248" font-family="FreeSans" font-size="10.00">vtkAlgorithm</text>
</a>
</g>
<!-- Node5&#45;&gt;Node4 -->
<g id="edge8" class="edge"><title>Node5&#45;&gt;Node4</title>
<path fill="none" stroke="midnightblue" d="M101,-230.516C101,-220.562 101,-209.05 101,-201.028"/>
<polygon fill="midnightblue" stroke="midnightblue" points="97.5001,-230.822 101,-240.822 104.5,-230.822 97.5001,-230.822"/>
</g>
<!-- Node6 -->
<g id="node10" class="node"><title>Node6</title>
<a xlink:href="class_kitware_1_1_v_t_k_1_1vtk_object.html" target="_top" xlink:title="vtkObject &#45; abstract base class for most VTK objects">
<polygon fill="none" stroke="black" points="70,-301 70,-321 132,-321 132,-301 70,-301"/>
<text text-anchor="middle" x="101" y="-308" font-family="FreeSans" font-size="10.00">vtkObject</text>
</a>
</g>
<!-- Node6&#45;&gt;Node5 -->
<g id="edge10" class="edge"><title>Node6&#45;&gt;Node5</title>
<path fill="none" stroke="midnightblue" d="M101,-290.516C101,-280.562 101,-269.05 101,-261.028"/>
<polygon fill="midnightblue" stroke="midnightblue" points="97.5001,-290.822 101,-300.822 104.5,-290.822 97.5001,-290.822"/>
</g>
<!-- Node7 -->
<g id="node12" class="node"><title>Node7</title>
<a xlink:href="class_kitware_1_1_v_t_k_1_1vtk_object_base.html" target="_top" xlink:title="vtkObjectBase &#45; abstract base class for most VTK objects">
<polygon fill="none" stroke="black" points="121,-741 121,-761 207,-761 207,-741 121,-741"/>
<text text-anchor="middle" x="164" y="-748" font-family="FreeSans" font-size="10.00">vtkObjectBase</text>
</a>
</g>
<!-- Node7&#45;&gt;Node6 -->
<g id="edge12" class="edge"><title>Node7&#45;&gt;Node6</title>
<path fill="none" stroke="midnightblue" d="M135.423,-735.886C121.687,-727.44 105.884,-715.826 95,-702 83.1564,-686.955 82.6209,-680.802 79,-662 53.4248,-529.199 88.5766,-363.437 98.5155,-321.17"/>
<polygon fill="midnightblue" stroke="midnightblue" points="133.683,-738.923 144.079,-740.97 137.229,-732.887 133.683,-738.923"/>
</g>
<!-- Node10 -->
<g id="node19" class="node"><title>Node10</title>
<a xlink:href="class_kitware_1_1_v_t_k_1_1vtk_object.html" target="_top" xlink:title="vtkObject &#45; abstract base class for most VTK objects">
<polygon fill="none" stroke="black" points="104,-681 104,-701 224,-701 224,-681 104,-681"/>
<text text-anchor="middle" x="164" y="-688" font-family="FreeSans" font-size="10.00">Kitware.VTK.vtkObject</text>
</a>
</g>
<!-- Node7&#45;&gt;Node10 -->
<g id="edge22" class="edge"><title>Node7&#45;&gt;Node10</title>
<path fill="none" stroke="midnightblue" d="M164,-730.516C164,-720.562 164,-709.05 164,-701.028"/>
<polygon fill="midnightblue" stroke="midnightblue" points="160.5,-730.822 164,-740.822 167.5,-730.822 160.5,-730.822"/>
</g>
<!-- Node8 -->
<g id="node14" class="node"><title>Node8</title>
<a xlink:href="class_kitware_1_1_v_t_k_1_1_wrapped_object.html" target="_top" xlink:title="Base class for all the mummy wrapped classes in Kitware.VTK.">
<polygon fill="none" stroke="black" points="302.5,-801 302.5,-821 391.5,-821 391.5,-801 302.5,-801"/>
<text text-anchor="middle" x="347" y="-808" font-family="FreeSans" font-size="10.00">WrappedObject</text>
</a>
</g>
<!-- Node8&#45;&gt;Node7 -->
<g id="edge14" class="edge"><title>Node8&#45;&gt;Node7</title>
<path fill="none" stroke="midnightblue" d="M306.804,-797.821C273.042,-786.752 225.512,-771.168 194.73,-761.075"/>
<polygon fill="midnightblue" stroke="midnightblue" points="305.777,-801.168 316.37,-800.957 307.958,-794.516 305.777,-801.168"/>
</g>
<!-- Node9 -->
<g id="node16" class="node"><title>Node9</title>
<a xlink:href="class_kitware_1_1_v_t_k_1_1vtk_object_event_relay.html" target="_top" xlink:title="Implement a relay handler for VTK events. This is a class that receives events directly from the VTK ...">
<polygon fill="none" stroke="black" points="93,-491 93,-511 265,-511 265,-491 93,-491"/>
<text text-anchor="middle" x="179" y="-498" font-family="FreeSans" font-size="10.00">Kitware.VTK.vtkObjectEventRelay</text>
</a>
</g>
<!-- Node8&#45;&gt;Node9 -->
<g id="edge18" class="edge"><title>Node8&#45;&gt;Node9</title>
<path fill="none" stroke="midnightblue" d="M359.888,-792.325C392.276,-742.899 469.803,-607.191 402,-530 392.773,-519.495 324.047,-511.666 265.298,-506.808"/>
<polygon fill="midnightblue" stroke="midnightblue" points="356.891,-790.509 354.239,-800.767 362.709,-794.402 356.891,-790.509"/>
</g>
<!-- Node9&#45;&gt;Node6 -->
<g id="edge16" class="edge"><title>Node9&#45;&gt;Node6</title>
<path fill="none" stroke="#9a32cd" stroke-dasharray="5,2" d="M170.921,-481.321C154.489,-441.293 117.674,-351.616 105.214,-321.266"/>
<polygon fill="#9a32cd" stroke="#9a32cd" points="167.771,-482.863 174.806,-490.785 174.246,-480.205 167.771,-482.863"/>
<text text-anchor="middle" x="278.5" y="-463" font-family="FreeSans" font-size="10.00"> LeftButtonReleaseEvtRelay</text>
<text text-anchor="middle" x="278.5" y="-451" font-family="FreeSans" font-size="10.00">KeyPressEvtRelay</text>
<text text-anchor="middle" x="278.5" y="-439" font-family="FreeSans" font-size="10.00">DomainModifiedEvtRelay</text>
<text text-anchor="middle" x="278.5" y="-427" font-family="FreeSans" font-size="10.00">VolumeMapperComputeGradientsStartEvtRelay</text>
<text text-anchor="middle" x="278.5" y="-415" font-family="FreeSans" font-size="10.00">ErrorEvtRelay</text>
<text text-anchor="middle" x="278.5" y="-403" font-family="FreeSans" font-size="10.00">VolumeMapperRenderStartEvtRelay</text>
<text text-anchor="middle" x="278.5" y="-391" font-family="FreeSans" font-size="10.00">StartEvtRelay</text>
<text text-anchor="middle" x="278.5" y="-379" font-family="FreeSans" font-size="10.00">ResetCameraEvtRelay</text>
<text text-anchor="middle" x="278.5" y="-367" font-family="FreeSans" font-size="10.00">EnableEvtRelay</text>
<text text-anchor="middle" x="278.5" y="-355" font-family="FreeSans" font-size="10.00">DeleteEvtRelay</text>
<text text-anchor="middle" x="278.5" y="-343" font-family="FreeSans" font-size="10.00">...</text>
</g>
<!-- Node9&#45;&gt;Node10 -->
<g id="edge24" class="edge"><title>Node9&#45;&gt;Node10</title>
<path fill="none" stroke="#9a32cd" stroke-dasharray="5,2" d="M176.028,-521.231C175.649,-524.169 175.293,-527.159 175,-530 169.144,-586.853 165.636,-655.333 164.452,-680.807"/>
<polygon fill="#9a32cd" stroke="#9a32cd" points="179.515,-521.565 177.421,-511.179 172.582,-520.604 179.515,-521.565"/>
<text text-anchor="middle" x="288.5" y="-653" font-family="FreeSans" font-size="10.00"> LeftButtonReleaseEvtRelay</text>
<text text-anchor="middle" x="288.5" y="-641" font-family="FreeSans" font-size="10.00">KeyPressEvtRelay</text>
<text text-anchor="middle" x="288.5" y="-629" font-family="FreeSans" font-size="10.00">DomainModifiedEvtRelay</text>
<text text-anchor="middle" x="288.5" y="-617" font-family="FreeSans" font-size="10.00">VolumeMapperComputeGradientsStartEvtRelay</text>
<text text-anchor="middle" x="288.5" y="-605" font-family="FreeSans" font-size="10.00">ErrorEvtRelay</text>
<text text-anchor="middle" x="288.5" y="-593" font-family="FreeSans" font-size="10.00">VolumeMapperRenderStartEvtRelay</text>
<text text-anchor="middle" x="288.5" y="-581" font-family="FreeSans" font-size="10.00">StartEvtRelay</text>
<text text-anchor="middle" x="288.5" y="-569" font-family="FreeSans" font-size="10.00">ResetCameraEvtRelay</text>
<text text-anchor="middle" x="288.5" y="-557" font-family="FreeSans" font-size="10.00">EnableEvtRelay</text>
<text text-anchor="middle" x="288.5" y="-545" font-family="FreeSans" font-size="10.00">DeleteEvtRelay</text>
<text text-anchor="middle" x="288.5" y="-533" font-family="FreeSans" font-size="10.00">...</text>
</g>
<!-- Node10&#45;&gt;Node9 -->
<g id="edge20" class="edge"><title>Node10&#45;&gt;Node9</title>
<path fill="none" stroke="#9a32cd" stroke-dasharray="5,2" d="M117.979,-675.818C112.439,-672.138 107.51,-667.596 104,-662 72.8229,-612.303 70.8299,-578.389 104,-530 108.736,-523.091 125.511,-516.287 141.999,-511.008"/>
<polygon fill="#9a32cd" stroke="#9a32cd" points="116.639,-679.079 127.072,-680.919 120.064,-672.974 116.639,-679.079"/>
<text text-anchor="middle" x="128" y="-599" font-family="FreeSans" font-size="10.00"> Sender</text>
<text text-anchor="middle" x="128" y="-587" font-family="FreeSans" font-size="10.00">EventImpl</text>
</g>
</g>
</svg>
