<?xml version="1.0" encoding="UTF-8" standalone="no"?>
<!DOCTYPE svg PUBLIC "-//W3C//DTD SVG 1.1//EN"
 "http://www.w3.org/Graphics/SVG/1.1/DTD/svg11.dtd">
<!-- Generated by graphviz version 2.26.3 (20100126.1600)
 -->
<!-- Title: G Pages: 1 -->
<svg width="210pt" height="378pt"
 viewBox="0.00 0.00 210.00 378.00" xmlns="http://www.w3.org/2000/svg" xmlns:xlink="http://www.w3.org/1999/xlink">
<g id="graph1" class="graph" transform="scale(1 1) rotate(0) translate(4 374)">
<title>G</title>
<!-- Node1 -->
<g id="node1" class="node"><title>Node1</title>
<polygon fill="#bfbfbf" stroke="black" points="0,-1 0,-21 202,-21 202,-1 0,-1"/>
<text text-anchor="middle" x="101" y="-8" font-family="FreeSans" font-size="10.00">Kitware.VTK.vtkImageGaussianSmooth</text>
</g>
<!-- Node2 -->
<g id="node2" class="node"><title>Node2</title>
<a xlink:href="class_kitware_1_1_v_t_k_1_1vtk_threaded_image_algorithm.html" target="_top" xlink:title="vtkThreadedImageAlgorithm &#45; Generic filter that has one input..">
<polygon fill="none" stroke="black" points="25,-59 25,-79 177,-79 177,-59 25,-59"/>
<text text-anchor="middle" x="101" y="-66" font-family="FreeSans" font-size="10.00">vtkThreadedImageAlgorithm</text>
</a>
</g>
<!-- Node2&#45;&gt;Node1 -->
<g id="edge2" class="edge"><title>Node2&#45;&gt;Node1</title>
<path fill="none" stroke="midnightblue" d="M101,-48.8902C101,-39.6201 101,-29.0083 101,-21.3776"/>
<polygon fill="midnightblue" stroke="midnightblue" points="97.5001,-48.8971 101,-58.8972 104.5,-48.8972 97.5001,-48.8971"/>
</g>
<!-- Node3 -->
<g id="node4" class="node"><title>Node3</title>
<a xlink:href="class_kitware_1_1_v_t_k_1_1vtk_image_algorithm.html" target="_top" xlink:title="vtkImageAlgorithm &#45; Generic algorithm superclass for image algs">
<polygon fill="none" stroke="black" points="47.5,-117 47.5,-137 154.5,-137 154.5,-117 47.5,-117"/>
<text text-anchor="middle" x="101" y="-124" font-family="FreeSans" font-size="10.00">vtkImageAlgorithm</text>
</a>
</g>
<!-- Node3&#45;&gt;Node2 -->
<g id="edge4" class="edge"><title>Node3&#45;&gt;Node2</title>
<path fill="none" stroke="midnightblue" d="M101,-106.89C101,-97.6201 101,-87.0083 101,-79.3776"/>
<polygon fill="midnightblue" stroke="midnightblue" points="97.5001,-106.897 101,-116.897 104.5,-106.897 97.5001,-106.897"/>
</g>
<!-- Node4 -->
<g id="node6" class="node"><title>Node4</title>
<a xlink:href="class_kitware_1_1_v_t_k_1_1vtk_algorithm.html" target="_top" xlink:title="vtkAlgorithm &#45; Superclass for all sources, filters, and sinks in VTK.">
<polygon fill="none" stroke="black" points="62.5,-175 62.5,-195 139.5,-195 139.5,-175 62.5,-175"/>
<text text-anchor="middle" x="101" y="-182" font-family="FreeSans" font-size="10.00">vtkAlgorithm</text>
</a>
</g>
<!-- Node4&#45;&gt;Node3 -->
<g id="edge6" class="edge"><title>Node4&#45;&gt;Node3</title>
<path fill="none" stroke="midnightblue" d="M101,-164.89C101,-155.62 101,-145.008 101,-137.378"/>
<polygon fill="midnightblue" stroke="midnightblue" points="97.5001,-164.897 101,-174.897 104.5,-164.897 97.5001,-164.897"/>
</g>
<!-- Node5 -->
<g id="node8" class="node"><title>Node5</title>
<a xlink:href="class_kitware_1_1_v_t_k_1_1vtk_object.html" target="_top" xlink:title="vtkObject &#45; abstract base class for most VTK objects">
<polygon fill="none" stroke="black" points="70,-233 70,-253 132,-253 132,-233 70,-233"/>
<text text-anchor="middle" x="101" y="-240" font-family="FreeSans" font-size="10.00">vtkObject</text>
</a>
</g>
<!-- Node5&#45;&gt;Node4 -->
<g id="edge8" class="edge"><title>Node5&#45;&gt;Node4</title>
<path fill="none" stroke="midnightblue" d="M101,-222.89C101,-213.62 101,-203.008 101,-195.378"/>
<polygon fill="midnightblue" stroke="midnightblue" points="97.5001,-222.897 101,-232.897 104.5,-222.897 97.5001,-222.897"/>
</g>
<!-- Node6 -->
<g id="node10" class="node"><title>Node6</title>
<a xlink:href="class_kitware_1_1_v_t_k_1_1vtk_object_base.html" target="_top" xlink:title="vtkObjectBase &#45; abstract base class for most VTK objects">
<polygon fill="none" stroke="black" points="58,-291 58,-311 144,-311 144,-291 58,-291"/>
<text text-anchor="middle" x="101" y="-298" font-family="FreeSans" font-size="10.00">vtkObjectBase</text>
</a>
</g>
<!-- Node6&#45;&gt;Node5 -->
<g id="edge10" class="edge"><title>Node6&#45;&gt;Node5</title>
<path fill="none" stroke="midnightblue" d="M101,-280.89C101,-271.62 101,-261.008 101,-253.378"/>
<polygon fill="midnightblue" stroke="midnightblue" points="97.5001,-280.897 101,-290.897 104.5,-280.897 97.5001,-280.897"/>
</g>
<!-- Node7 -->
<g id="node12" class="node"><title>Node7</title>
<a xlink:href="class_kitware_1_1_v_t_k_1_1_wrapped_object.html" target="_top" xlink:title="Base class for all the mummy wrapped classes in Kitware.VTK.">
<polygon fill="none" stroke="black" points="56.5,-349 56.5,-369 145.5,-369 145.5,-349 56.5,-349"/>
<text text-anchor="middle" x="101" y="-356" font-family="FreeSans" font-size="10.00">WrappedObject</text>
</a>
</g>
<!-- Node7&#45;&gt;Node6 -->
<g id="edge12" class="edge"><title>Node7&#45;&gt;Node6</title>
<path fill="none" stroke="midnightblue" d="M101,-338.89C101,-329.62 101,-319.008 101,-311.378"/>
<polygon fill="midnightblue" stroke="midnightblue" points="97.5001,-338.897 101,-348.897 104.5,-338.897 97.5001,-338.897"/>
</g>
</g>
</svg>
