<?xml version="1.0" encoding="UTF-8" standalone="no"?>
<!DOCTYPE svg PUBLIC "-//W3C//DTD SVG 1.1//EN"
 "http://www.w3.org/Graphics/SVG/1.1/DTD/svg11.dtd">
<!-- Generated by graphviz version 2.26.3 (20100126.1600)
 -->
<!-- Title: G Pages: 1 -->
<svg width="448pt" height="710pt"
 viewBox="0.00 0.00 448.46 710.00" xmlns="http://www.w3.org/2000/svg" xmlns:xlink="http://www.w3.org/1999/xlink">
<g id="graph1" class="graph" transform="scale(1 1) rotate(0) translate(4 706)">
<title>G</title>
<!-- Node1 -->
<g id="node1" class="node"><title>Node1</title>
<polygon fill="#bfbfbf" stroke="black" points="0,-1 0,-21 224,-21 224,-1 0,-1"/>
<text text-anchor="middle" x="112" y="-8" font-family="FreeSans" font-size="10.00">Kitware.VTK.vtkTransmitRectilinearGridPiece</text>
</g>
<!-- Node2 -->
<g id="node2" class="node"><title>Node2</title>
<a xlink:href="class_kitware_1_1_v_t_k_1_1vtk_rectilinear_grid_algorithm.html" target="_top" xlink:title="vtkRectilinearGridAlgorithm &#45; Superclass for algorithms that produce only rectilinear grid as output...">
<polygon fill="none" stroke="black" points="39,-61 39,-81 185,-81 185,-61 39,-61"/>
<text text-anchor="middle" x="112" y="-68" font-family="FreeSans" font-size="10.00">vtkRectilinearGridAlgorithm</text>
</a>
</g>
<!-- Node2&#45;&gt;Node1 -->
<g id="edge2" class="edge"><title>Node2&#45;&gt;Node1</title>
<path fill="none" stroke="midnightblue" d="M112,-50.5155C112,-40.562 112,-29.0495 112,-21.0279"/>
<polygon fill="midnightblue" stroke="midnightblue" points="108.5,-50.8218 112,-60.8218 115.5,-50.8219 108.5,-50.8218"/>
</g>
<!-- Node3 -->
<g id="node4" class="node"><title>Node3</title>
<a xlink:href="class_kitware_1_1_v_t_k_1_1vtk_algorithm.html" target="_top" xlink:title="vtkAlgorithm &#45; Superclass for all sources, filters, and sinks in VTK.">
<polygon fill="none" stroke="black" points="73.5,-121 73.5,-141 150.5,-141 150.5,-121 73.5,-121"/>
<text text-anchor="middle" x="112" y="-128" font-family="FreeSans" font-size="10.00">vtkAlgorithm</text>
</a>
</g>
<!-- Node3&#45;&gt;Node2 -->
<g id="edge4" class="edge"><title>Node3&#45;&gt;Node2</title>
<path fill="none" stroke="midnightblue" d="M112,-110.516C112,-100.562 112,-89.0495 112,-81.0279"/>
<polygon fill="midnightblue" stroke="midnightblue" points="108.5,-110.822 112,-120.822 115.5,-110.822 108.5,-110.822"/>
</g>
<!-- Node4 -->
<g id="node6" class="node"><title>Node4</title>
<a xlink:href="class_kitware_1_1_v_t_k_1_1vtk_object.html" target="_top" xlink:title="vtkObject &#45; abstract base class for most VTK objects">
<polygon fill="none" stroke="black" points="81,-181 81,-201 143,-201 143,-181 81,-181"/>
<text text-anchor="middle" x="112" y="-188" font-family="FreeSans" font-size="10.00">vtkObject</text>
</a>
</g>
<!-- Node4&#45;&gt;Node3 -->
<g id="edge6" class="edge"><title>Node4&#45;&gt;Node3</title>
<path fill="none" stroke="midnightblue" d="M112,-170.516C112,-160.562 112,-149.05 112,-141.028"/>
<polygon fill="midnightblue" stroke="midnightblue" points="108.5,-170.822 112,-180.822 115.5,-170.822 108.5,-170.822"/>
</g>
<!-- Node5 -->
<g id="node8" class="node"><title>Node5</title>
<a xlink:href="class_kitware_1_1_v_t_k_1_1vtk_object_base.html" target="_top" xlink:title="vtkObjectBase &#45; abstract base class for most VTK objects">
<polygon fill="none" stroke="black" points="132,-621 132,-641 218,-641 218,-621 132,-621"/>
<text text-anchor="middle" x="175" y="-628" font-family="FreeSans" font-size="10.00">vtkObjectBase</text>
</a>
</g>
<!-- Node5&#45;&gt;Node4 -->
<g id="edge8" class="edge"><title>Node5&#45;&gt;Node4</title>
<path fill="none" stroke="midnightblue" d="M146.423,-615.886C132.687,-607.44 116.884,-595.826 106,-582 94.1564,-566.955 93.6209,-560.802 90,-542 64.4248,-409.199 99.5766,-243.437 109.516,-201.17"/>
<polygon fill="midnightblue" stroke="midnightblue" points="144.683,-618.923 155.079,-620.97 148.229,-612.887 144.683,-618.923"/>
</g>
<!-- Node8 -->
<g id="node15" class="node"><title>Node8</title>
<a xlink:href="class_kitware_1_1_v_t_k_1_1vtk_object.html" target="_top" xlink:title="vtkObject &#45; abstract base class for most VTK objects">
<polygon fill="none" stroke="black" points="115,-561 115,-581 235,-581 235,-561 115,-561"/>
<text text-anchor="middle" x="175" y="-568" font-family="FreeSans" font-size="10.00">Kitware.VTK.vtkObject</text>
</a>
</g>
<!-- Node5&#45;&gt;Node8 -->
<g id="edge18" class="edge"><title>Node5&#45;&gt;Node8</title>
<path fill="none" stroke="midnightblue" d="M175,-610.516C175,-600.562 175,-589.05 175,-581.028"/>
<polygon fill="midnightblue" stroke="midnightblue" points="171.5,-610.822 175,-620.822 178.5,-610.822 171.5,-610.822"/>
</g>
<!-- Node6 -->
<g id="node10" class="node"><title>Node6</title>
<a xlink:href="class_kitware_1_1_v_t_k_1_1_wrapped_object.html" target="_top" xlink:title="Base class for all the mummy wrapped classes in Kitware.VTK.">
<polygon fill="none" stroke="black" points="313.5,-681 313.5,-701 402.5,-701 402.5,-681 313.5,-681"/>
<text text-anchor="middle" x="358" y="-688" font-family="FreeSans" font-size="10.00">WrappedObject</text>
</a>
</g>
<!-- Node6&#45;&gt;Node5 -->
<g id="edge10" class="edge"><title>Node6&#45;&gt;Node5</title>
<path fill="none" stroke="midnightblue" d="M317.804,-677.821C284.042,-666.752 236.512,-651.168 205.73,-641.075"/>
<polygon fill="midnightblue" stroke="midnightblue" points="316.777,-681.168 327.37,-680.957 318.958,-674.516 316.777,-681.168"/>
</g>
<!-- Node7 -->
<g id="node12" class="node"><title>Node7</title>
<a xlink:href="class_kitware_1_1_v_t_k_1_1vtk_object_event_relay.html" target="_top" xlink:title="Implement a relay handler for VTK events. This is a class that receives events directly from the VTK ...">
<polygon fill="none" stroke="black" points="104,-371 104,-391 276,-391 276,-371 104,-371"/>
<text text-anchor="middle" x="190" y="-378" font-family="FreeSans" font-size="10.00">Kitware.VTK.vtkObjectEventRelay</text>
</a>
</g>
<!-- Node6&#45;&gt;Node7 -->
<g id="edge14" class="edge"><title>Node6&#45;&gt;Node7</title>
<path fill="none" stroke="midnightblue" d="M370.888,-672.325C403.276,-622.899 480.803,-487.191 413,-410 403.773,-399.495 335.047,-391.666 276.298,-386.808"/>
<polygon fill="midnightblue" stroke="midnightblue" points="367.891,-670.509 365.239,-680.767 373.709,-674.402 367.891,-670.509"/>
</g>
<!-- Node7&#45;&gt;Node4 -->
<g id="edge12" class="edge"><title>Node7&#45;&gt;Node4</title>
<path fill="none" stroke="#9a32cd" stroke-dasharray="5,2" d="M181.921,-361.321C165.489,-321.293 128.674,-231.616 116.214,-201.266"/>
<polygon fill="#9a32cd" stroke="#9a32cd" points="178.771,-362.863 185.806,-370.785 185.246,-360.205 178.771,-362.863"/>
<text text-anchor="middle" x="289.5" y="-343" font-family="FreeSans" font-size="10.00"> LeftButtonReleaseEvtRelay</text>
<text text-anchor="middle" x="289.5" y="-331" font-family="FreeSans" font-size="10.00">KeyPressEvtRelay</text>
<text text-anchor="middle" x="289.5" y="-319" font-family="FreeSans" font-size="10.00">DomainModifiedEvtRelay</text>
<text text-anchor="middle" x="289.5" y="-307" font-family="FreeSans" font-size="10.00">VolumeMapperComputeGradientsStartEvtRelay</text>
<text text-anchor="middle" x="289.5" y="-295" font-family="FreeSans" font-size="10.00">ErrorEvtRelay</text>
<text text-anchor="middle" x="289.5" y="-283" font-family="FreeSans" font-size="10.00">VolumeMapperRenderStartEvtRelay</text>
<text text-anchor="middle" x="289.5" y="-271" font-family="FreeSans" font-size="10.00">StartEvtRelay</text>
<text text-anchor="middle" x="289.5" y="-259" font-family="FreeSans" font-size="10.00">ResetCameraEvtRelay</text>
<text text-anchor="middle" x="289.5" y="-247" font-family="FreeSans" font-size="10.00">EnableEvtRelay</text>
<text text-anchor="middle" x="289.5" y="-235" font-family="FreeSans" font-size="10.00">DeleteEvtRelay</text>
<text text-anchor="middle" x="289.5" y="-223" font-family="FreeSans" font-size="10.00">...</text>
</g>
<!-- Node7&#45;&gt;Node8 -->
<g id="edge20" class="edge"><title>Node7&#45;&gt;Node8</title>
<path fill="none" stroke="#9a32cd" stroke-dasharray="5,2" d="M187.028,-401.231C186.649,-404.169 186.293,-407.159 186,-410 180.144,-466.853 176.636,-535.333 175.452,-560.807"/>
<polygon fill="#9a32cd" stroke="#9a32cd" points="190.515,-401.565 188.421,-391.179 183.582,-400.604 190.515,-401.565"/>
<text text-anchor="middle" x="299.5" y="-533" font-family="FreeSans" font-size="10.00"> LeftButtonReleaseEvtRelay</text>
<text text-anchor="middle" x="299.5" y="-521" font-family="FreeSans" font-size="10.00">KeyPressEvtRelay</text>
<text text-anchor="middle" x="299.5" y="-509" font-family="FreeSans" font-size="10.00">DomainModifiedEvtRelay</text>
<text text-anchor="middle" x="299.5" y="-497" font-family="FreeSans" font-size="10.00">VolumeMapperComputeGradientsStartEvtRelay</text>
<text text-anchor="middle" x="299.5" y="-485" font-family="FreeSans" font-size="10.00">ErrorEvtRelay</text>
<text text-anchor="middle" x="299.5" y="-473" font-family="FreeSans" font-size="10.00">VolumeMapperRenderStartEvtRelay</text>
<text text-anchor="middle" x="299.5" y="-461" font-family="FreeSans" font-size="10.00">StartEvtRelay</text>
<text text-anchor="middle" x="299.5" y="-449" font-family="FreeSans" font-size="10.00">ResetCameraEvtRelay</text>
<text text-anchor="middle" x="299.5" y="-437" font-family="FreeSans" font-size="10.00">EnableEvtRelay</text>
<text text-anchor="middle" x="299.5" y="-425" font-family="FreeSans" font-size="10.00">DeleteEvtRelay</text>
<text text-anchor="middle" x="299.5" y="-413" font-family="FreeSans" font-size="10.00">...</text>
</g>
<!-- Node8&#45;&gt;Node7 -->
<g id="edge16" class="edge"><title>Node8&#45;&gt;Node7</title>
<path fill="none" stroke="#9a32cd" stroke-dasharray="5,2" d="M128.979,-555.818C123.439,-552.138 118.51,-547.596 115,-542 83.8229,-492.303 81.8299,-458.389 115,-410 119.736,-403.091 136.511,-396.287 152.999,-391.008"/>
<polygon fill="#9a32cd" stroke="#9a32cd" points="127.639,-559.079 138.072,-560.919 131.064,-552.974 127.639,-559.079"/>
<text text-anchor="middle" x="139" y="-479" font-family="FreeSans" font-size="10.00"> Sender</text>
<text text-anchor="middle" x="139" y="-467" font-family="FreeSans" font-size="10.00">EventImpl</text>
</g>
</g>
</svg>
