<?xml version="1.0" encoding="UTF-8" standalone="no"?>
<!DOCTYPE svg PUBLIC "-//W3C//DTD SVG 1.1//EN"
 "http://www.w3.org/Graphics/SVG/1.1/DTD/svg11.dtd">
<!-- Generated by graphviz version 2.26.3 (20100126.1600)
 -->
<!-- Title: G Pages: 1 -->
<svg width="232pt" height="262pt"
 viewBox="0.00 0.00 232.00 262.00" xmlns="http://www.w3.org/2000/svg" xmlns:xlink="http://www.w3.org/1999/xlink">
<g id="graph1" class="graph" transform="scale(1 1) rotate(0) translate(4 258)">
<title>G</title>
<!-- Node1 -->
<g id="node1" class="node"><title>Node1</title>
<polygon fill="#bfbfbf" stroke="black" points="0,-1 0,-21 224,-21 224,-1 0,-1"/>
<text text-anchor="middle" x="112" y="-8" font-family="FreeSans" font-size="10.00">Kitware.VTK.vtkClustering2DLayoutStrategy</text>
</g>
<!-- Node2 -->
<g id="node2" class="node"><title>Node2</title>
<a xlink:href="class_kitware_1_1_v_t_k_1_1vtk_graph_layout_strategy.html" target="_top" xlink:title="vtkGraphLayoutStrategy &#45; abstract superclass for all graph layout strategies">
<polygon fill="none" stroke="black" points="45,-59 45,-79 179,-79 179,-59 45,-59"/>
<text text-anchor="middle" x="112" y="-66" font-family="FreeSans" font-size="10.00">vtkGraphLayoutStrategy</text>
</a>
</g>
<!-- Node2&#45;&gt;Node1 -->
<g id="edge2" class="edge"><title>Node2&#45;&gt;Node1</title>
<path fill="none" stroke="midnightblue" d="M112,-48.8902C112,-39.6201 112,-29.0083 112,-21.3776"/>
<polygon fill="midnightblue" stroke="midnightblue" points="108.5,-48.8971 112,-58.8972 115.5,-48.8972 108.5,-48.8971"/>
</g>
<!-- Node3 -->
<g id="node4" class="node"><title>Node3</title>
<a xlink:href="class_kitware_1_1_v_t_k_1_1vtk_object.html" target="_top" xlink:title="vtkObject &#45; abstract base class for most VTK objects">
<polygon fill="none" stroke="black" points="81,-117 81,-137 143,-137 143,-117 81,-117"/>
<text text-anchor="middle" x="112" y="-124" font-family="FreeSans" font-size="10.00">vtkObject</text>
</a>
</g>
<!-- Node3&#45;&gt;Node2 -->
<g id="edge4" class="edge"><title>Node3&#45;&gt;Node2</title>
<path fill="none" stroke="midnightblue" d="M112,-106.89C112,-97.6201 112,-87.0083 112,-79.3776"/>
<polygon fill="midnightblue" stroke="midnightblue" points="108.5,-106.897 112,-116.897 115.5,-106.897 108.5,-106.897"/>
</g>
<!-- Node4 -->
<g id="node6" class="node"><title>Node4</title>
<a xlink:href="class_kitware_1_1_v_t_k_1_1vtk_object_base.html" target="_top" xlink:title="vtkObjectBase &#45; abstract base class for most VTK objects">
<polygon fill="none" stroke="black" points="69,-175 69,-195 155,-195 155,-175 69,-175"/>
<text text-anchor="middle" x="112" y="-182" font-family="FreeSans" font-size="10.00">vtkObjectBase</text>
</a>
</g>
<!-- Node4&#45;&gt;Node3 -->
<g id="edge6" class="edge"><title>Node4&#45;&gt;Node3</title>
<path fill="none" stroke="midnightblue" d="M112,-164.89C112,-155.62 112,-145.008 112,-137.378"/>
<polygon fill="midnightblue" stroke="midnightblue" points="108.5,-164.897 112,-174.897 115.5,-164.897 108.5,-164.897"/>
</g>
<!-- Node5 -->
<g id="node8" class="node"><title>Node5</title>
<a xlink:href="class_kitware_1_1_v_t_k_1_1_wrapped_object.html" target="_top" xlink:title="Base class for all the mummy wrapped classes in Kitware.VTK.">
<polygon fill="none" stroke="black" points="67.5,-233 67.5,-253 156.5,-253 156.5,-233 67.5,-233"/>
<text text-anchor="middle" x="112" y="-240" font-family="FreeSans" font-size="10.00">WrappedObject</text>
</a>
</g>
<!-- Node5&#45;&gt;Node4 -->
<g id="edge8" class="edge"><title>Node5&#45;&gt;Node4</title>
<path fill="none" stroke="midnightblue" d="M112,-222.89C112,-213.62 112,-203.008 112,-195.378"/>
<polygon fill="midnightblue" stroke="midnightblue" points="108.5,-222.897 112,-232.897 115.5,-222.897 108.5,-222.897"/>
</g>
</g>
</svg>
