<?xml version="1.0" encoding="UTF-8" standalone="no"?>
<!DOCTYPE svg PUBLIC "-//W3C//DTD SVG 1.1//EN"
 "http://www.w3.org/Graphics/SVG/1.1/DTD/svg11.dtd">
<!-- Generated by graphviz version 2.26.3 (20100126.1600)
 -->
<!-- Title: G Pages: 1 -->
<svg width="674pt" height="104pt"
 viewBox="0.00 0.00 674.00 104.00" xmlns="http://www.w3.org/2000/svg" xmlns:xlink="http://www.w3.org/1999/xlink">
<g id="graph1" class="graph" transform="scale(1 1) rotate(0) translate(4 100)">
<title>G</title>
<!-- Node1 -->
<g id="node1" class="node"><title>Node1</title>
<polygon fill="#bfbfbf" stroke="black" points="346.5,-38 346.5,-58 465.5,-58 465.5,-38 346.5,-38"/>
<text text-anchor="middle" x="406" y="-45" font-family="FreeSans" font-size="10.00">Kitware.VTK.vtkSpline</text>
</g>
<!-- Node5 -->
<g id="node9" class="node"><title>Node5</title>
<a xlink:href="class_kitware_1_1_v_t_k_1_1vtk_cardinal_spline.html" target="_top" xlink:title="vtkCardinalSpline &#45; computes an interpolating spline using a a Cardinal basis.">
<polygon fill="none" stroke="black" points="505,-76 505,-96 663,-96 663,-76 505,-76"/>
<text text-anchor="middle" x="584" y="-83" font-family="FreeSans" font-size="10.00">Kitware.VTK.vtkCardinalSpline</text>
</a>
</g>
<!-- Node1&#45;&gt;Node5 -->
<g id="edge8" class="edge"><title>Node1&#45;&gt;Node5</title>
<path fill="none" stroke="midnightblue" d="M463.189,-60.2089C486.973,-65.2864 514.247,-71.1089 536.855,-75.9353"/>
<polygon fill="midnightblue" stroke="midnightblue" points="463.744,-56.7485 453.233,-58.0835 462.282,-63.5943 463.744,-56.7485"/>
</g>
<!-- Node6 -->
<g id="node11" class="node"><title>Node6</title>
<a xlink:href="class_kitware_1_1_v_t_k_1_1vtk_kochanek_spline.html" target="_top" xlink:title="vtkKochanekSpline &#45; computes an interpolating spline using a Kochanek basis.">
<polygon fill="none" stroke="black" points="502,-38 502,-58 666,-58 666,-38 502,-38"/>
<text text-anchor="middle" x="584" y="-45" font-family="FreeSans" font-size="10.00">Kitware.VTK.vtkKochanekSpline</text>
</a>
</g>
<!-- Node1&#45;&gt;Node6 -->
<g id="edge10" class="edge"><title>Node1&#45;&gt;Node6</title>
<path fill="none" stroke="midnightblue" d="M476.004,-48C484.514,-48 493.266,-48 501.931,-48"/>
<polygon fill="midnightblue" stroke="midnightblue" points="475.767,-44.5001 465.767,-48 475.767,-51.5001 475.767,-44.5001"/>
</g>
<!-- Node7 -->
<g id="node13" class="node"><title>Node7</title>
<a xlink:href="class_kitware_1_1_v_t_k_1_1vtk_s_curve_spline.html" target="_top" xlink:title="vtkSCurveSpline &#45; computes an interpolating spline using a a SCurve basis.">
<polygon fill="none" stroke="black" points="507.5,-0 507.5,-20 660.5,-20 660.5,-0 507.5,-0"/>
<text text-anchor="middle" x="584" y="-7" font-family="FreeSans" font-size="10.00">Kitware.VTK.vtkSCurveSpline</text>
</a>
</g>
<!-- Node1&#45;&gt;Node7 -->
<g id="edge12" class="edge"><title>Node1&#45;&gt;Node7</title>
<path fill="none" stroke="midnightblue" d="M463.189,-35.7911C486.973,-30.7136 514.247,-24.8911 536.855,-20.0647"/>
<polygon fill="midnightblue" stroke="midnightblue" points="462.282,-32.4057 453.233,-37.9165 463.744,-39.2515 462.282,-32.4057"/>
</g>
<!-- Node2 -->
<g id="node2" class="node"><title>Node2</title>
<a xlink:href="class_kitware_1_1_v_t_k_1_1vtk_object.html" target="_top" xlink:title="vtkObject &#45; abstract base class for most VTK objects">
<polygon fill="none" stroke="black" points="248,-38 248,-58 310,-58 310,-38 248,-38"/>
<text text-anchor="middle" x="279" y="-45" font-family="FreeSans" font-size="10.00">vtkObject</text>
</a>
</g>
<!-- Node2&#45;&gt;Node1 -->
<g id="edge2" class="edge"><title>Node2&#45;&gt;Node1</title>
<path fill="none" stroke="midnightblue" d="M320.297,-48C328.661,-48 337.614,-48 346.464,-48"/>
<polygon fill="midnightblue" stroke="midnightblue" points="320.068,-44.5001 310.068,-48 320.068,-51.5001 320.068,-44.5001"/>
</g>
<!-- Node3 -->
<g id="node4" class="node"><title>Node3</title>
<a xlink:href="class_kitware_1_1_v_t_k_1_1vtk_object_base.html" target="_top" xlink:title="vtkObjectBase &#45; abstract base class for most VTK objects">
<polygon fill="none" stroke="black" points="126,-38 126,-58 212,-58 212,-38 126,-38"/>
<text text-anchor="middle" x="169" y="-45" font-family="FreeSans" font-size="10.00">vtkObjectBase</text>
</a>
</g>
<!-- Node3&#45;&gt;Node2 -->
<g id="edge4" class="edge"><title>Node3&#45;&gt;Node2</title>
<path fill="none" stroke="midnightblue" d="M222.346,-48C231.091,-48 239.892,-48 247.863,-48"/>
<polygon fill="midnightblue" stroke="midnightblue" points="222.159,-44.5001 212.159,-48 222.159,-51.5001 222.159,-44.5001"/>
</g>
<!-- Node4 -->
<g id="node6" class="node"><title>Node4</title>
<a xlink:href="class_kitware_1_1_v_t_k_1_1_wrapped_object.html" target="_top" xlink:title="Base class for all the mummy wrapped classes in Kitware.VTK.">
<polygon fill="none" stroke="black" points="0.5,-38 0.5,-58 89.5,-58 89.5,-38 0.5,-38"/>
<text text-anchor="middle" x="45" y="-45" font-family="FreeSans" font-size="10.00">WrappedObject</text>
</a>
</g>
<!-- Node4&#45;&gt;Node3 -->
<g id="edge6" class="edge"><title>Node4&#45;&gt;Node3</title>
<path fill="none" stroke="midnightblue" d="M99.8895,-48C108.623,-48 117.548,-48 125.957,-48"/>
<polygon fill="midnightblue" stroke="midnightblue" points="99.7669,-44.5001 89.7668,-48 99.7668,-51.5001 99.7669,-44.5001"/>
</g>
</g>
</svg>
