<?xml version="1.0" encoding="UTF-8" standalone="no"?>
<!DOCTYPE svg PUBLIC "-//W3C//DTD SVG 1.1//EN"
 "http://www.w3.org/Graphics/SVG/1.1/DTD/svg11.dtd">
<!-- Generated by graphviz version 2.26.3 (20100126.1600)
 -->
<!-- Title: G Pages: 1 -->
<svg width="411pt" height="650pt"
 viewBox="0.00 0.00 411.46 650.00" xmlns="http://www.w3.org/2000/svg" xmlns:xlink="http://www.w3.org/1999/xlink">
<g id="graph1" class="graph" transform="scale(1 1) rotate(0) translate(4 646)">
<title>G</title>
<!-- Node1 -->
<g id="node1" class="node"><title>Node1</title>
<polygon fill="#bfbfbf" stroke="black" points="-0.5,-1 -0.5,-21 150.5,-21 150.5,-1 -0.5,-1"/>
<text text-anchor="middle" x="75" y="-8" font-family="FreeSans" font-size="10.00">Kitware.VTK.vtkXYPlotWidget</text>
</g>
<!-- Node2 -->
<g id="node2" class="node"><title>Node2</title>
<a xlink:href="class_kitware_1_1_v_t_k_1_1vtk_interactor_observer.html" target="_top" xlink:title="vtkInteractorObserver &#45; an abstract superclass for classes observing events invoked by vtkRenderWindo...">
<polygon fill="none" stroke="black" points="14.5,-61 14.5,-81 135.5,-81 135.5,-61 14.5,-61"/>
<text text-anchor="middle" x="75" y="-68" font-family="FreeSans" font-size="10.00">vtkInteractorObserver</text>
</a>
</g>
<!-- Node2&#45;&gt;Node1 -->
<g id="edge2" class="edge"><title>Node2&#45;&gt;Node1</title>
<path fill="none" stroke="midnightblue" d="M75,-50.5155C75,-40.562 75,-29.0495 75,-21.0279"/>
<polygon fill="midnightblue" stroke="midnightblue" points="71.5001,-50.8218 75,-60.8218 78.5001,-50.8219 71.5001,-50.8218"/>
</g>
<!-- Node3 -->
<g id="node4" class="node"><title>Node3</title>
<a xlink:href="class_kitware_1_1_v_t_k_1_1vtk_object.html" target="_top" xlink:title="vtkObject &#45; abstract base class for most VTK objects">
<polygon fill="none" stroke="black" points="44,-121 44,-141 106,-141 106,-121 44,-121"/>
<text text-anchor="middle" x="75" y="-128" font-family="FreeSans" font-size="10.00">vtkObject</text>
</a>
</g>
<!-- Node3&#45;&gt;Node2 -->
<g id="edge4" class="edge"><title>Node3&#45;&gt;Node2</title>
<path fill="none" stroke="midnightblue" d="M75,-110.516C75,-100.562 75,-89.0495 75,-81.0279"/>
<polygon fill="midnightblue" stroke="midnightblue" points="71.5001,-110.822 75,-120.822 78.5001,-110.822 71.5001,-110.822"/>
</g>
<!-- Node4 -->
<g id="node6" class="node"><title>Node4</title>
<a xlink:href="class_kitware_1_1_v_t_k_1_1vtk_object_base.html" target="_top" xlink:title="vtkObjectBase &#45; abstract base class for most VTK objects">
<polygon fill="none" stroke="black" points="95,-561 95,-581 181,-581 181,-561 95,-561"/>
<text text-anchor="middle" x="138" y="-568" font-family="FreeSans" font-size="10.00">vtkObjectBase</text>
</a>
</g>
<!-- Node4&#45;&gt;Node3 -->
<g id="edge6" class="edge"><title>Node4&#45;&gt;Node3</title>
<path fill="none" stroke="midnightblue" d="M109.423,-555.886C95.6866,-547.44 79.8844,-535.826 69,-522 57.1564,-506.955 56.6209,-500.802 53,-482 27.4248,-349.199 62.5766,-183.437 72.5155,-141.17"/>
<polygon fill="midnightblue" stroke="midnightblue" points="107.683,-558.923 118.079,-560.97 111.229,-552.887 107.683,-558.923"/>
</g>
<!-- Node7 -->
<g id="node13" class="node"><title>Node7</title>
<a xlink:href="class_kitware_1_1_v_t_k_1_1vtk_object.html" target="_top" xlink:title="vtkObject &#45; abstract base class for most VTK objects">
<polygon fill="none" stroke="black" points="78,-501 78,-521 198,-521 198,-501 78,-501"/>
<text text-anchor="middle" x="138" y="-508" font-family="FreeSans" font-size="10.00">Kitware.VTK.vtkObject</text>
</a>
</g>
<!-- Node4&#45;&gt;Node7 -->
<g id="edge16" class="edge"><title>Node4&#45;&gt;Node7</title>
<path fill="none" stroke="midnightblue" d="M138,-550.516C138,-540.562 138,-529.05 138,-521.028"/>
<polygon fill="midnightblue" stroke="midnightblue" points="134.5,-550.822 138,-560.822 141.5,-550.822 134.5,-550.822"/>
</g>
<!-- Node5 -->
<g id="node8" class="node"><title>Node5</title>
<a xlink:href="class_kitware_1_1_v_t_k_1_1_wrapped_object.html" target="_top" xlink:title="Base class for all the mummy wrapped classes in Kitware.VTK.">
<polygon fill="none" stroke="black" points="276.5,-621 276.5,-641 365.5,-641 365.5,-621 276.5,-621"/>
<text text-anchor="middle" x="321" y="-628" font-family="FreeSans" font-size="10.00">WrappedObject</text>
</a>
</g>
<!-- Node5&#45;&gt;Node4 -->
<g id="edge8" class="edge"><title>Node5&#45;&gt;Node4</title>
<path fill="none" stroke="midnightblue" d="M280.804,-617.821C247.042,-606.752 199.512,-591.168 168.73,-581.075"/>
<polygon fill="midnightblue" stroke="midnightblue" points="279.777,-621.168 290.37,-620.957 281.958,-614.516 279.777,-621.168"/>
</g>
<!-- Node6 -->
<g id="node10" class="node"><title>Node6</title>
<a xlink:href="class_kitware_1_1_v_t_k_1_1vtk_object_event_relay.html" target="_top" xlink:title="Implement a relay handler for VTK events. This is a class that receives events directly from the VTK ...">
<polygon fill="none" stroke="black" points="67,-311 67,-331 239,-331 239,-311 67,-311"/>
<text text-anchor="middle" x="153" y="-318" font-family="FreeSans" font-size="10.00">Kitware.VTK.vtkObjectEventRelay</text>
</a>
</g>
<!-- Node5&#45;&gt;Node6 -->
<g id="edge12" class="edge"><title>Node5&#45;&gt;Node6</title>
<path fill="none" stroke="midnightblue" d="M333.888,-612.325C366.276,-562.899 443.803,-427.191 376,-350 366.773,-339.495 298.047,-331.666 239.298,-326.808"/>
<polygon fill="midnightblue" stroke="midnightblue" points="330.891,-610.509 328.239,-620.767 336.709,-614.402 330.891,-610.509"/>
</g>
<!-- Node6&#45;&gt;Node3 -->
<g id="edge10" class="edge"><title>Node6&#45;&gt;Node3</title>
<path fill="none" stroke="#9a32cd" stroke-dasharray="5,2" d="M144.921,-301.321C128.489,-261.293 91.6738,-171.616 79.2144,-141.266"/>
<polygon fill="#9a32cd" stroke="#9a32cd" points="141.771,-302.863 148.806,-310.785 148.246,-300.205 141.771,-302.863"/>
<text text-anchor="middle" x="252.5" y="-283" font-family="FreeSans" font-size="10.00"> LeftButtonReleaseEvtRelay</text>
<text text-anchor="middle" x="252.5" y="-271" font-family="FreeSans" font-size="10.00">KeyPressEvtRelay</text>
<text text-anchor="middle" x="252.5" y="-259" font-family="FreeSans" font-size="10.00">DomainModifiedEvtRelay</text>
<text text-anchor="middle" x="252.5" y="-247" font-family="FreeSans" font-size="10.00">VolumeMapperComputeGradientsStartEvtRelay</text>
<text text-anchor="middle" x="252.5" y="-235" font-family="FreeSans" font-size="10.00">ErrorEvtRelay</text>
<text text-anchor="middle" x="252.5" y="-223" font-family="FreeSans" font-size="10.00">VolumeMapperRenderStartEvtRelay</text>
<text text-anchor="middle" x="252.5" y="-211" font-family="FreeSans" font-size="10.00">StartEvtRelay</text>
<text text-anchor="middle" x="252.5" y="-199" font-family="FreeSans" font-size="10.00">ResetCameraEvtRelay</text>
<text text-anchor="middle" x="252.5" y="-187" font-family="FreeSans" font-size="10.00">EnableEvtRelay</text>
<text text-anchor="middle" x="252.5" y="-175" font-family="FreeSans" font-size="10.00">DeleteEvtRelay</text>
<text text-anchor="middle" x="252.5" y="-163" font-family="FreeSans" font-size="10.00">...</text>
</g>
<!-- Node6&#45;&gt;Node7 -->
<g id="edge18" class="edge"><title>Node6&#45;&gt;Node7</title>
<path fill="none" stroke="#9a32cd" stroke-dasharray="5,2" d="M150.028,-341.231C149.649,-344.169 149.293,-347.159 149,-350 143.144,-406.853 139.636,-475.333 138.452,-500.807"/>
<polygon fill="#9a32cd" stroke="#9a32cd" points="153.515,-341.565 151.421,-331.179 146.582,-340.604 153.515,-341.565"/>
<text text-anchor="middle" x="262.5" y="-473" font-family="FreeSans" font-size="10.00"> LeftButtonReleaseEvtRelay</text>
<text text-anchor="middle" x="262.5" y="-461" font-family="FreeSans" font-size="10.00">KeyPressEvtRelay</text>
<text text-anchor="middle" x="262.5" y="-449" font-family="FreeSans" font-size="10.00">DomainModifiedEvtRelay</text>
<text text-anchor="middle" x="262.5" y="-437" font-family="FreeSans" font-size="10.00">VolumeMapperComputeGradientsStartEvtRelay</text>
<text text-anchor="middle" x="262.5" y="-425" font-family="FreeSans" font-size="10.00">ErrorEvtRelay</text>
<text text-anchor="middle" x="262.5" y="-413" font-family="FreeSans" font-size="10.00">VolumeMapperRenderStartEvtRelay</text>
<text text-anchor="middle" x="262.5" y="-401" font-family="FreeSans" font-size="10.00">StartEvtRelay</text>
<text text-anchor="middle" x="262.5" y="-389" font-family="FreeSans" font-size="10.00">ResetCameraEvtRelay</text>
<text text-anchor="middle" x="262.5" y="-377" font-family="FreeSans" font-size="10.00">EnableEvtRelay</text>
<text text-anchor="middle" x="262.5" y="-365" font-family="FreeSans" font-size="10.00">DeleteEvtRelay</text>
<text text-anchor="middle" x="262.5" y="-353" font-family="FreeSans" font-size="10.00">...</text>
</g>
<!-- Node7&#45;&gt;Node6 -->
<g id="edge14" class="edge"><title>Node7&#45;&gt;Node6</title>
<path fill="none" stroke="#9a32cd" stroke-dasharray="5,2" d="M91.9794,-495.818C86.4393,-492.138 81.5104,-487.596 78,-482 46.8229,-432.303 44.8299,-398.389 78,-350 82.7359,-343.091 99.5114,-336.287 115.999,-331.008"/>
<polygon fill="#9a32cd" stroke="#9a32cd" points="90.6386,-499.079 101.072,-500.919 94.0636,-492.974 90.6386,-499.079"/>
<text text-anchor="middle" x="102" y="-419" font-family="FreeSans" font-size="10.00"> Sender</text>
<text text-anchor="middle" x="102" y="-407" font-family="FreeSans" font-size="10.00">EventImpl</text>
</g>
</g>
</svg>
