<?xml version="1.0" encoding="UTF-8" standalone="no"?>
<!DOCTYPE svg PUBLIC "-//W3C//DTD SVG 1.1//EN"
 "http://www.w3.org/Graphics/SVG/1.1/DTD/svg11.dtd">
<!-- Generated by graphviz version 2.26.3 (20100126.1600)
 -->
<!-- Title: G Pages: 1 -->
<svg width="395pt" height="494pt"
 viewBox="0.00 0.00 395.00 494.00" xmlns="http://www.w3.org/2000/svg" xmlns:xlink="http://www.w3.org/1999/xlink">
<g id="graph1" class="graph" transform="scale(1 1) rotate(0) translate(4 490)">
<title>G</title>
<!-- Node1 -->
<g id="node1" class="node"><title>Node1</title>
<polygon fill="#bfbfbf" stroke="black" points="75,-117 75,-137 283,-137 283,-117 75,-117"/>
<text text-anchor="middle" x="179" y="-124" font-family="FreeSans" font-size="10.00">Kitware.VTK.vtkMultiCorrelativeStatistics</text>
</g>
<!-- Node8 -->
<g id="node15" class="node"><title>Node8</title>
<a xlink:href="class_kitware_1_1_v_t_k_1_1vtk_p_c_a_statistics.html" target="_top" xlink:title="vtkPCAStatistics &#45; A class for principal component analysis">
<polygon fill="none" stroke="black" points="2.5,-59 2.5,-79 155.5,-79 155.5,-59 2.5,-59"/>
<text text-anchor="middle" x="79" y="-66" font-family="FreeSans" font-size="10.00">Kitware.VTK.vtkPCAStatistics</text>
</a>
</g>
<!-- Node1&#45;&gt;Node8 -->
<g id="edge14" class="edge"><title>Node1&#45;&gt;Node8</title>
<path fill="none" stroke="midnightblue" d="M152.847,-111.831C135.105,-101.541 112.132,-88.2168 96.5546,-79.1817"/>
<polygon fill="midnightblue" stroke="midnightblue" points="151.175,-114.908 161.581,-116.897 154.687,-108.852 151.175,-114.908"/>
</g>
<!-- Node10 -->
<g id="node19" class="node"><title>Node10</title>
<a xlink:href="class_kitware_1_1_v_t_k_1_1vtk_p_multi_correlative_statistics.html" target="_top" xlink:title="vtkPMultiCorrelativeStatistics &#45; A class for parallel bivariate correlative statistics">
<polygon fill="none" stroke="black" points="173,-59 173,-79 387,-79 387,-59 173,-59"/>
<text text-anchor="middle" x="280" y="-66" font-family="FreeSans" font-size="10.00">Kitware.VTK.vtkPMultiCorrelativeStatistics</text>
</a>
</g>
<!-- Node1&#45;&gt;Node10 -->
<g id="edge18" class="edge"><title>Node1&#45;&gt;Node10</title>
<path fill="none" stroke="midnightblue" d="M205.414,-111.831C223.334,-101.541 246.536,-88.2168 262.27,-79.1817"/>
<polygon fill="midnightblue" stroke="midnightblue" points="203.522,-108.882 196.593,-116.897 207.008,-114.952 203.522,-108.882"/>
</g>
<!-- Node2 -->
<g id="node2" class="node"><title>Node2</title>
<a xlink:href="class_kitware_1_1_v_t_k_1_1vtk_statistics_algorithm.html" target="_top" xlink:title="vtkStatisticsAlgorithm &#45; Base class for statistics algorithms">
<polygon fill="none" stroke="black" points="118,-175 118,-195 240,-195 240,-175 118,-175"/>
<text text-anchor="middle" x="179" y="-182" font-family="FreeSans" font-size="10.00">vtkStatisticsAlgorithm</text>
</a>
</g>
<!-- Node2&#45;&gt;Node1 -->
<g id="edge2" class="edge"><title>Node2&#45;&gt;Node1</title>
<path fill="none" stroke="midnightblue" d="M179,-164.89C179,-155.62 179,-145.008 179,-137.378"/>
<polygon fill="midnightblue" stroke="midnightblue" points="175.5,-164.897 179,-174.897 182.5,-164.897 175.5,-164.897"/>
</g>
<!-- Node3 -->
<g id="node4" class="node"><title>Node3</title>
<a xlink:href="class_kitware_1_1_v_t_k_1_1vtk_table_algorithm.html" target="_top" xlink:title="vtkTableAlgorithm &#45; Superclass for algorithms that produce only vtkTables as output">
<polygon fill="none" stroke="black" points="128.5,-233 128.5,-253 229.5,-253 229.5,-233 128.5,-233"/>
<text text-anchor="middle" x="179" y="-240" font-family="FreeSans" font-size="10.00">vtkTableAlgorithm</text>
</a>
</g>
<!-- Node3&#45;&gt;Node2 -->
<g id="edge4" class="edge"><title>Node3&#45;&gt;Node2</title>
<path fill="none" stroke="midnightblue" d="M179,-222.89C179,-213.62 179,-203.008 179,-195.378"/>
<polygon fill="midnightblue" stroke="midnightblue" points="175.5,-222.897 179,-232.897 182.5,-222.897 175.5,-222.897"/>
</g>
<!-- Node4 -->
<g id="node6" class="node"><title>Node4</title>
<a xlink:href="class_kitware_1_1_v_t_k_1_1vtk_algorithm.html" target="_top" xlink:title="vtkAlgorithm &#45; Superclass for all sources, filters, and sinks in VTK.">
<polygon fill="none" stroke="black" points="140.5,-291 140.5,-311 217.5,-311 217.5,-291 140.5,-291"/>
<text text-anchor="middle" x="179" y="-298" font-family="FreeSans" font-size="10.00">vtkAlgorithm</text>
</a>
</g>
<!-- Node4&#45;&gt;Node3 -->
<g id="edge6" class="edge"><title>Node4&#45;&gt;Node3</title>
<path fill="none" stroke="midnightblue" d="M179,-280.89C179,-271.62 179,-261.008 179,-253.378"/>
<polygon fill="midnightblue" stroke="midnightblue" points="175.5,-280.897 179,-290.897 182.5,-280.897 175.5,-280.897"/>
</g>
<!-- Node5 -->
<g id="node8" class="node"><title>Node5</title>
<a xlink:href="class_kitware_1_1_v_t_k_1_1vtk_object.html" target="_top" xlink:title="vtkObject &#45; abstract base class for most VTK objects">
<polygon fill="none" stroke="black" points="148,-349 148,-369 210,-369 210,-349 148,-349"/>
<text text-anchor="middle" x="179" y="-356" font-family="FreeSans" font-size="10.00">vtkObject</text>
</a>
</g>
<!-- Node5&#45;&gt;Node4 -->
<g id="edge8" class="edge"><title>Node5&#45;&gt;Node4</title>
<path fill="none" stroke="midnightblue" d="M179,-338.89C179,-329.62 179,-319.008 179,-311.378"/>
<polygon fill="midnightblue" stroke="midnightblue" points="175.5,-338.897 179,-348.897 182.5,-338.897 175.5,-338.897"/>
</g>
<!-- Node6 -->
<g id="node10" class="node"><title>Node6</title>
<a xlink:href="class_kitware_1_1_v_t_k_1_1vtk_object_base.html" target="_top" xlink:title="vtkObjectBase &#45; abstract base class for most VTK objects">
<polygon fill="none" stroke="black" points="136,-407 136,-427 222,-427 222,-407 136,-407"/>
<text text-anchor="middle" x="179" y="-414" font-family="FreeSans" font-size="10.00">vtkObjectBase</text>
</a>
</g>
<!-- Node6&#45;&gt;Node5 -->
<g id="edge10" class="edge"><title>Node6&#45;&gt;Node5</title>
<path fill="none" stroke="midnightblue" d="M179,-396.89C179,-387.62 179,-377.008 179,-369.378"/>
<polygon fill="midnightblue" stroke="midnightblue" points="175.5,-396.897 179,-406.897 182.5,-396.897 175.5,-396.897"/>
</g>
<!-- Node7 -->
<g id="node12" class="node"><title>Node7</title>
<a xlink:href="class_kitware_1_1_v_t_k_1_1_wrapped_object.html" target="_top" xlink:title="Base class for all the mummy wrapped classes in Kitware.VTK.">
<polygon fill="none" stroke="black" points="134.5,-465 134.5,-485 223.5,-485 223.5,-465 134.5,-465"/>
<text text-anchor="middle" x="179" y="-472" font-family="FreeSans" font-size="10.00">WrappedObject</text>
</a>
</g>
<!-- Node7&#45;&gt;Node6 -->
<g id="edge12" class="edge"><title>Node7&#45;&gt;Node6</title>
<path fill="none" stroke="midnightblue" d="M179,-454.89C179,-445.62 179,-435.008 179,-427.378"/>
<polygon fill="midnightblue" stroke="midnightblue" points="175.5,-454.897 179,-464.897 182.5,-454.897 175.5,-454.897"/>
</g>
<!-- Node9 -->
<g id="node17" class="node"><title>Node9</title>
<a xlink:href="class_kitware_1_1_v_t_k_1_1vtk_p_p_c_a_statistics.html" target="_top" xlink:title="vtkPPCAStatistics &#45; A class for parallel principal component analysis">
<polygon fill="none" stroke="black" points="-0.5,-1 -0.5,-21 158.5,-21 158.5,-1 -0.5,-1"/>
<text text-anchor="middle" x="79" y="-8" font-family="FreeSans" font-size="10.00">Kitware.VTK.vtkPPCAStatistics</text>
</a>
</g>
<!-- Node8&#45;&gt;Node9 -->
<g id="edge16" class="edge"><title>Node8&#45;&gt;Node9</title>
<path fill="none" stroke="midnightblue" d="M79,-48.8902C79,-39.6201 79,-29.0083 79,-21.3776"/>
<polygon fill="midnightblue" stroke="midnightblue" points="75.5001,-48.8971 79,-58.8972 82.5001,-48.8972 75.5001,-48.8971"/>
</g>
</g>
</svg>
