<?xml version="1.0" encoding="UTF-8" standalone="no"?>
<!DOCTYPE svg PUBLIC "-//W3C//DTD SVG 1.1//EN"
 "http://www.w3.org/Graphics/SVG/1.1/DTD/svg11.dtd">
<!-- Generated by graphviz version 2.26.3 (20100126.1600)
 -->
<!-- Title: G Pages: 1 -->
<svg width="880pt" height="598pt"
 viewBox="0.00 0.00 880.00 598.00" xmlns="http://www.w3.org/2000/svg" xmlns:xlink="http://www.w3.org/1999/xlink">
<g id="graph1" class="graph" transform="scale(1 1) rotate(0) translate(4 594)">
<title>G</title>
<!-- Node1 -->
<g id="node1" class="node"><title>Node1</title>
<polygon fill="#bfbfbf" stroke="black" points="430.5,-285 430.5,-305 585.5,-305 585.5,-285 430.5,-285"/>
<text text-anchor="middle" x="508" y="-292" font-family="FreeSans" font-size="10.00">Kitware.VTK.vtkNonLinearCell</text>
</g>
<!-- Node6 -->
<g id="node11" class="node"><title>Node6</title>
<a xlink:href="class_kitware_1_1_v_t_k_1_1vtk_bi_quadratic_quad.html" target="_top" xlink:title="vtkBiQuadraticQuad &#45; cell represents a parabolic, 9&#45;node isoparametric quad">
<polygon fill="none" stroke="black" points="662,-570 662,-590 832,-590 832,-570 662,-570"/>
<text text-anchor="middle" x="747" y="-577" font-family="FreeSans" font-size="10.00">Kitware.VTK.vtkBiQuadraticQuad</text>
</a>
</g>
<!-- Node1&#45;&gt;Node6 -->
<g id="edge10" class="edge"><title>Node1&#45;&gt;Node6</title>
<path fill="none" stroke="midnightblue" d="M510.071,-314.965C516.438,-365.324 540.531,-497.984 622,-561 633.546,-569.931 647.529,-575.504 661.902,-578.861"/>
<polygon fill="midnightblue" stroke="midnightblue" points="513.546,-314.545 508.913,-305.016 506.593,-315.354 513.546,-314.545"/>
</g>
<!-- Node7 -->
<g id="node13" class="node"><title>Node7</title>
<a xlink:href="class_kitware_1_1_v_t_k_1_1vtk_bi_quadratic_quadratic_hexahedron.html" target="_top" xlink:title="vtkBiQuadraticQuadraticHexahedron &#45; cell represents a biquadratic, 24&#45;node isoparametric hexahedron...">
<polygon fill="none" stroke="black" points="622,-532 622,-552 872,-552 872,-532 622,-532"/>
<text text-anchor="middle" x="747" y="-539" font-family="FreeSans" font-size="10.00">Kitware.VTK.vtkBiQuadraticQuadraticHexahedron</text>
</a>
</g>
<!-- Node1&#45;&gt;Node7 -->
<g id="edge12" class="edge"><title>Node1&#45;&gt;Node7</title>
<path fill="none" stroke="midnightblue" d="M511.633,-315.136C520.959,-360.499 550.247,-470.794 622,-523 626.792,-526.487 631.964,-529.45 637.383,-531.96"/>
<polygon fill="midnightblue" stroke="midnightblue" points="515.022,-314.226 509.678,-305.077 508.15,-315.561 515.022,-314.226"/>
</g>
<!-- Node8 -->
<g id="node15" class="node"><title>Node8</title>
<a xlink:href="class_kitware_1_1_v_t_k_1_1vtk_bi_quadratic_quadratic_wedge.html" target="_top" xlink:title="vtkBiQuadraticQuadraticWedge &#45; cell represents a parabolic, 18&#45;node isoparametric wedge...">
<polygon fill="none" stroke="black" points="635.5,-494 635.5,-514 858.5,-514 858.5,-494 635.5,-494"/>
<text text-anchor="middle" x="747" y="-501" font-family="FreeSans" font-size="10.00">Kitware.VTK.vtkBiQuadraticQuadraticWedge</text>
</a>
</g>
<!-- Node1&#45;&gt;Node8 -->
<g id="edge14" class="edge"><title>Node1&#45;&gt;Node8</title>
<path fill="none" stroke="midnightblue" d="M513.699,-315.039C526.125,-354.751 559.659,-443.204 622,-485 627.196,-488.484 632.785,-491.427 638.614,-493.908"/>
<polygon fill="midnightblue" stroke="midnightblue" points="517.038,-313.988 510.808,-305.419 510.335,-316.003 517.038,-313.988"/>
</g>
<!-- Node9 -->
<g id="node17" class="node"><title>Node9</title>
<a xlink:href="class_kitware_1_1_v_t_k_1_1vtk_bi_quadratic_triangle.html" target="_top" xlink:title="vtkBiQuadraticTriangle &#45; cell represents a parabolic, isoparametric triangle">
<polygon fill="none" stroke="black" points="656.5,-456 656.5,-476 837.5,-476 837.5,-456 656.5,-456"/>
<text text-anchor="middle" x="747" y="-463" font-family="FreeSans" font-size="10.00">Kitware.VTK.vtkBiQuadraticTriangle</text>
</a>
</g>
<!-- Node1&#45;&gt;Node9 -->
<g id="edge16" class="edge"><title>Node1&#45;&gt;Node9</title>
<path fill="none" stroke="midnightblue" d="M516.468,-314.472C532.052,-347.757 568.639,-415.081 622,-447 632.455,-453.254 644.252,-457.689 656.317,-460.8"/>
<polygon fill="midnightblue" stroke="midnightblue" points="519.631,-312.972 512.31,-305.313 513.256,-315.865 519.631,-312.972"/>
</g>
<!-- Node10 -->
<g id="node19" class="node"><title>Node10</title>
<a xlink:href="class_kitware_1_1_v_t_k_1_1vtk_cubic_line.html" target="_top" xlink:title="vtkCubicLine &#45; cell represents a cubic , isoparametric 1D line">
<polygon fill="none" stroke="black" points="679.5,-418 679.5,-438 814.5,-438 814.5,-418 679.5,-418"/>
<text text-anchor="middle" x="747" y="-425" font-family="FreeSans" font-size="10.00">Kitware.VTK.vtkCubicLine</text>
</a>
</g>
<!-- Node1&#45;&gt;Node10 -->
<g id="edge18" class="edge"><title>Node1&#45;&gt;Node10</title>
<path fill="none" stroke="midnightblue" d="M520.351,-313.252C539.029,-339.247 577.089,-386.293 622,-409 639.532,-417.864 660.084,-422.853 679.401,-425.592"/>
<polygon fill="midnightblue" stroke="midnightblue" points="523.179,-311.189 514.573,-305.01 517.447,-315.207 523.179,-311.189"/>
</g>
<!-- Node11 -->
<g id="node21" class="node"><title>Node11</title>
<a xlink:href="class_kitware_1_1_v_t_k_1_1vtk_explicit_cell.html" target="_top" xlink:title="vtkExplicitCell &#45; abstract superclass for cells requiring an explicit representation">
<polygon fill="none" stroke="black" points="677,-380 677,-400 817,-400 817,-380 677,-380"/>
<text text-anchor="middle" x="747" y="-387" font-family="FreeSans" font-size="10.00">Kitware.VTK.vtkExplicitCell</text>
</a>
</g>
<!-- Node1&#45;&gt;Node11 -->
<g id="edge20" class="edge"><title>Node1&#45;&gt;Node11</title>
<path fill="none" stroke="midnightblue" d="M527.066,-311.583C548.583,-329.324 585.381,-356.821 622,-371 639.195,-377.658 658.563,-381.992 676.829,-384.811"/>
<polygon fill="midnightblue" stroke="midnightblue" points="529.247,-308.844 519.341,-305.087 524.742,-314.202 529.247,-308.844"/>
</g>
<!-- Node12 -->
<g id="node23" class="node"><title>Node12</title>
<a xlink:href="class_kitware_1_1_v_t_k_1_1vtk_quadratic_edge.html" target="_top" xlink:title="vtkQuadraticEdge &#45; cell represents a parabolic, isoparametric edge">
<polygon fill="none" stroke="black" points="667,-342 667,-362 827,-362 827,-342 667,-342"/>
<text text-anchor="middle" x="747" y="-349" font-family="FreeSans" font-size="10.00">Kitware.VTK.vtkQuadraticEdge</text>
</a>
</g>
<!-- Node1&#45;&gt;Node12 -->
<g id="edge22" class="edge"><title>Node1&#45;&gt;Node12</title>
<path fill="none" stroke="midnightblue" d="M543.279,-308.497C565.573,-316.591 595.145,-326.533 622,-333 636.512,-336.494 652.134,-339.473 667.252,-341.963"/>
<polygon fill="midnightblue" stroke="midnightblue" points="544.486,-305.212 533.892,-305.043 542.069,-311.781 544.486,-305.212"/>
</g>
<!-- Node13 -->
<g id="node25" class="node"><title>Node13</title>
<a xlink:href="class_kitware_1_1_v_t_k_1_1vtk_quadratic_hexahedron.html" target="_top" xlink:title="vtkQuadraticHexahedron &#45; cell represents a parabolic, 20&#45;node isoparametric hexahedron">
<polygon fill="none" stroke="black" points="650,-304 650,-324 844,-324 844,-304 650,-304"/>
<text text-anchor="middle" x="747" y="-311" font-family="FreeSans" font-size="10.00">Kitware.VTK.vtkQuadraticHexahedron</text>
</a>
</g>
<!-- Node1&#45;&gt;Node13 -->
<g id="edge24" class="edge"><title>Node1&#45;&gt;Node13</title>
<path fill="none" stroke="midnightblue" d="M595.798,-301.98C613.339,-303.374 631.862,-304.847 649.701,-306.265"/>
<polygon fill="midnightblue" stroke="midnightblue" points="595.842,-298.472 585.596,-301.169 595.288,-305.45 595.842,-298.472"/>
</g>
<!-- Node14 -->
<g id="node27" class="node"><title>Node14</title>
<a xlink:href="class_kitware_1_1_v_t_k_1_1vtk_quadratic_linear_quad.html" target="_top" xlink:title="vtkQuadraticLinearQuad &#45; cell represents a quadratic&#45;linear, 6&#45;node isoparametric quad...">
<polygon fill="none" stroke="black" points="651.5,-266 651.5,-286 842.5,-286 842.5,-266 651.5,-266"/>
<text text-anchor="middle" x="747" y="-273" font-family="FreeSans" font-size="10.00">Kitware.VTK.vtkQuadraticLinearQuad</text>
</a>
</g>
<!-- Node1&#45;&gt;Node14 -->
<g id="edge26" class="edge"><title>Node1&#45;&gt;Node14</title>
<path fill="none" stroke="midnightblue" d="M595.569,-288.038C613.736,-286.594 632.967,-285.065 651.406,-283.6"/>
<polygon fill="midnightblue" stroke="midnightblue" points="595.288,-284.55 585.596,-288.831 595.842,-291.528 595.288,-284.55"/>
</g>
<!-- Node15 -->
<g id="node29" class="node"><title>Node15</title>
<a xlink:href="class_kitware_1_1_v_t_k_1_1vtk_quadratic_linear_wedge.html" target="_top" xlink:title="vtkQuadraticLinearWedge &#45; cell represents a, 12&#45;node isoparametric wedge">
<polygon fill="none" stroke="black" points="648.5,-228 648.5,-248 845.5,-248 845.5,-228 648.5,-228"/>
<text text-anchor="middle" x="747" y="-235" font-family="FreeSans" font-size="10.00">Kitware.VTK.vtkQuadraticLinearWedge</text>
</a>
</g>
<!-- Node1&#45;&gt;Node15 -->
<g id="edge28" class="edge"><title>Node1&#45;&gt;Node15</title>
<path fill="none" stroke="midnightblue" d="M543.279,-281.503C565.573,-273.409 595.145,-263.467 622,-257 636.512,-253.506 652.134,-250.527 667.252,-248.037"/>
<polygon fill="midnightblue" stroke="midnightblue" points="542.069,-278.219 533.892,-284.957 544.486,-284.788 542.069,-278.219"/>
</g>
<!-- Node16 -->
<g id="node31" class="node"><title>Node16</title>
<a xlink:href="class_kitware_1_1_v_t_k_1_1vtk_quadratic_pyramid.html" target="_top" xlink:title="vtkQuadraticPyramid &#45; cell represents a parabolic, 13&#45;node isoparametric pyramid">
<polygon fill="none" stroke="black" points="659.5,-190 659.5,-210 834.5,-210 834.5,-190 659.5,-190"/>
<text text-anchor="middle" x="747" y="-197" font-family="FreeSans" font-size="10.00">Kitware.VTK.vtkQuadraticPyramid</text>
</a>
</g>
<!-- Node1&#45;&gt;Node16 -->
<g id="edge30" class="edge"><title>Node1&#45;&gt;Node16</title>
<path fill="none" stroke="midnightblue" d="M527.066,-278.417C548.583,-260.676 585.381,-233.179 622,-219 633.77,-214.443 646.559,-210.974 659.315,-208.335"/>
<polygon fill="midnightblue" stroke="midnightblue" points="524.742,-275.798 519.341,-284.913 529.247,-281.156 524.742,-275.798"/>
</g>
<!-- Node17 -->
<g id="node33" class="node"><title>Node17</title>
<a xlink:href="class_kitware_1_1_v_t_k_1_1vtk_quadratic_quad.html" target="_top" xlink:title="vtkQuadraticQuad &#45; cell represents a parabolic, 8&#45;node isoparametric quad">
<polygon fill="none" stroke="black" points="666.5,-152 666.5,-172 827.5,-172 827.5,-152 666.5,-152"/>
<text text-anchor="middle" x="747" y="-159" font-family="FreeSans" font-size="10.00">Kitware.VTK.vtkQuadraticQuad</text>
</a>
</g>
<!-- Node1&#45;&gt;Node17 -->
<g id="edge32" class="edge"><title>Node1&#45;&gt;Node17</title>
<path fill="none" stroke="midnightblue" d="M520.351,-276.748C539.029,-250.753 577.089,-203.707 622,-181 635.614,-174.116 651.05,-169.57 666.314,-166.599"/>
<polygon fill="midnightblue" stroke="midnightblue" points="517.447,-274.793 514.573,-284.99 523.179,-278.811 517.447,-274.793"/>
</g>
<!-- Node18 -->
<g id="node35" class="node"><title>Node18</title>
<a xlink:href="class_kitware_1_1_v_t_k_1_1vtk_quadratic_tetra.html" target="_top" xlink:title="vtkQuadraticTetra &#45; cell represents a parabolic, 10&#45;node isoparametric tetrahedron">
<polygon fill="none" stroke="black" points="667.5,-114 667.5,-134 826.5,-134 826.5,-114 667.5,-114"/>
<text text-anchor="middle" x="747" y="-121" font-family="FreeSans" font-size="10.00">Kitware.VTK.vtkQuadraticTetra</text>
</a>
</g>
<!-- Node1&#45;&gt;Node18 -->
<g id="edge34" class="edge"><title>Node1&#45;&gt;Node18</title>
<path fill="none" stroke="midnightblue" d="M516.468,-275.528C532.052,-242.243 568.639,-174.919 622,-143 635.657,-134.831 651.605,-129.765 667.449,-126.699"/>
<polygon fill="midnightblue" stroke="midnightblue" points="513.256,-274.135 512.31,-284.687 519.631,-277.028 513.256,-274.135"/>
</g>
<!-- Node19 -->
<g id="node37" class="node"><title>Node19</title>
<a xlink:href="class_kitware_1_1_v_t_k_1_1vtk_quadratic_triangle.html" target="_top" xlink:title="vtkQuadraticTriangle &#45; cell represents a parabolic, isoparametric triangle">
<polygon fill="none" stroke="black" points="661,-76 661,-96 833,-96 833,-76 661,-76"/>
<text text-anchor="middle" x="747" y="-83" font-family="FreeSans" font-size="10.00">Kitware.VTK.vtkQuadraticTriangle</text>
</a>
</g>
<!-- Node1&#45;&gt;Node19 -->
<g id="edge36" class="edge"><title>Node1&#45;&gt;Node19</title>
<path fill="none" stroke="midnightblue" d="M513.699,-274.961C526.125,-235.249 559.659,-146.796 622,-105 633.577,-97.238 647.102,-92.1577 660.896,-88.9062"/>
<polygon fill="midnightblue" stroke="midnightblue" points="510.335,-273.997 510.808,-284.581 517.038,-276.012 510.335,-273.997"/>
</g>
<!-- Node20 -->
<g id="node39" class="node"><title>Node20</title>
<a xlink:href="class_kitware_1_1_v_t_k_1_1vtk_quadratic_wedge.html" target="_top" xlink:title="vtkQuadraticWedge &#45; cell represents a parabolic, 15&#45;node isoparametric wedge">
<polygon fill="none" stroke="black" points="663.5,-38 663.5,-58 830.5,-58 830.5,-38 663.5,-38"/>
<text text-anchor="middle" x="747" y="-45" font-family="FreeSans" font-size="10.00">Kitware.VTK.vtkQuadraticWedge</text>
</a>
</g>
<!-- Node1&#45;&gt;Node20 -->
<g id="edge38" class="edge"><title>Node1&#45;&gt;Node20</title>
<path fill="none" stroke="midnightblue" d="M511.633,-274.864C520.959,-229.501 550.247,-119.206 622,-67 634.07,-58.2183 648.547,-52.7613 663.301,-49.4823"/>
<polygon fill="midnightblue" stroke="midnightblue" points="508.15,-274.439 509.678,-284.923 515.022,-275.774 508.15,-274.439"/>
</g>
<!-- Node21 -->
<g id="node41" class="node"><title>Node21</title>
<a xlink:href="class_kitware_1_1_v_t_k_1_1vtk_tri_quadratic_hexahedron.html" target="_top" xlink:title="vtkTriQuadraticHexahedron &#45; cell represents a parabolic, 27&#45;node isoparametric hexahedron">
<polygon fill="none" stroke="black" points="645,-0 645,-20 849,-20 849,-0 645,-0"/>
<text text-anchor="middle" x="747" y="-7" font-family="FreeSans" font-size="10.00">Kitware.VTK.vtkTriQuadraticHexahedron</text>
</a>
</g>
<!-- Node1&#45;&gt;Node21 -->
<g id="edge40" class="edge"><title>Node1&#45;&gt;Node21</title>
<path fill="none" stroke="midnightblue" d="M510.071,-275.035C516.438,-224.676 540.531,-92.0163 622,-29 628.858,-23.6951 636.576,-19.5749 644.725,-16.4002"/>
<polygon fill="midnightblue" stroke="midnightblue" points="506.593,-274.646 508.913,-284.984 513.546,-275.455 506.593,-274.646"/>
</g>
<!-- Node2 -->
<g id="node2" class="node"><title>Node2</title>
<a xlink:href="class_kitware_1_1_v_t_k_1_1vtk_cell.html" target="_top" xlink:title="vtkCell &#45; abstract class to specify cell behavior">
<polygon fill="none" stroke="black" points="346,-285 346,-305 394,-305 394,-285 346,-285"/>
<text text-anchor="middle" x="370" y="-292" font-family="FreeSans" font-size="10.00">vtkCell</text>
</a>
</g>
<!-- Node2&#45;&gt;Node1 -->
<g id="edge2" class="edge"><title>Node2&#45;&gt;Node1</title>
<path fill="none" stroke="midnightblue" d="M404.106,-295C412.187,-295 421.135,-295 430.29,-295"/>
<polygon fill="midnightblue" stroke="midnightblue" points="404.038,-291.5 394.038,-295 404.038,-298.5 404.038,-291.5"/>
</g>
<!-- Node3 -->
<g id="node4" class="node"><title>Node3</title>
<a xlink:href="class_kitware_1_1_v_t_k_1_1vtk_object.html" target="_top" xlink:title="vtkObject &#45; abstract base class for most VTK objects">
<polygon fill="none" stroke="black" points="248,-285 248,-305 310,-305 310,-285 248,-285"/>
<text text-anchor="middle" x="279" y="-292" font-family="FreeSans" font-size="10.00">vtkObject</text>
</a>
</g>
<!-- Node3&#45;&gt;Node2 -->
<g id="edge4" class="edge"><title>Node3&#45;&gt;Node2</title>
<path fill="none" stroke="midnightblue" d="M320.227,-295C329.038,-295 338.065,-295 345.97,-295"/>
<polygon fill="midnightblue" stroke="midnightblue" points="320.063,-291.5 310.063,-295 320.062,-298.5 320.063,-291.5"/>
</g>
<!-- Node4 -->
<g id="node6" class="node"><title>Node4</title>
<a xlink:href="class_kitware_1_1_v_t_k_1_1vtk_object_base.html" target="_top" xlink:title="vtkObjectBase &#45; abstract base class for most VTK objects">
<polygon fill="none" stroke="black" points="126,-285 126,-305 212,-305 212,-285 126,-285"/>
<text text-anchor="middle" x="169" y="-292" font-family="FreeSans" font-size="10.00">vtkObjectBase</text>
</a>
</g>
<!-- Node4&#45;&gt;Node3 -->
<g id="edge6" class="edge"><title>Node4&#45;&gt;Node3</title>
<path fill="none" stroke="midnightblue" d="M222.346,-295C231.091,-295 239.892,-295 247.863,-295"/>
<polygon fill="midnightblue" stroke="midnightblue" points="222.159,-291.5 212.159,-295 222.159,-298.5 222.159,-291.5"/>
</g>
<!-- Node5 -->
<g id="node8" class="node"><title>Node5</title>
<a xlink:href="class_kitware_1_1_v_t_k_1_1_wrapped_object.html" target="_top" xlink:title="Base class for all the mummy wrapped classes in Kitware.VTK.">
<polygon fill="none" stroke="black" points="0.5,-285 0.5,-305 89.5,-305 89.5,-285 0.5,-285"/>
<text text-anchor="middle" x="45" y="-292" font-family="FreeSans" font-size="10.00">WrappedObject</text>
</a>
</g>
<!-- Node5&#45;&gt;Node4 -->
<g id="edge8" class="edge"><title>Node5&#45;&gt;Node4</title>
<path fill="none" stroke="midnightblue" d="M99.8895,-295C108.623,-295 117.548,-295 125.957,-295"/>
<polygon fill="midnightblue" stroke="midnightblue" points="99.7669,-291.5 89.7668,-295 99.7668,-298.5 99.7669,-291.5"/>
</g>
</g>
</svg>
