<?xml version="1.0" encoding="UTF-8" standalone="no"?>
<!DOCTYPE svg PUBLIC "-//W3C//DTD SVG 1.1//EN"
 "http://www.w3.org/Graphics/SVG/1.1/DTD/svg11.dtd">
<!-- Generated by graphviz version 2.26.3 (20100126.1600)
 -->
<!-- Title: G Pages: 1 -->
<svg width="186pt" height="262pt"
 viewBox="0.00 0.00 186.00 262.00" xmlns="http://www.w3.org/2000/svg" xmlns:xlink="http://www.w3.org/1999/xlink">
<g id="graph1" class="graph" transform="scale(1 1) rotate(0) translate(4 258)">
<title>G</title>
<!-- Node1 -->
<g id="node1" class="node"><title>Node1</title>
<polygon fill="#bfbfbf" stroke="black" points="-0.5,-1 -0.5,-21 178.5,-21 178.5,-1 -0.5,-1"/>
<text text-anchor="middle" x="89" y="-8" font-family="FreeSans" font-size="10.00">Kitware.VTK.vtkRenderLargeImage</text>
</g>
<!-- Node2 -->
<g id="node2" class="node"><title>Node2</title>
<a xlink:href="class_kitware_1_1_v_t_k_1_1vtk_algorithm.html" target="_top" xlink:title="vtkAlgorithm &#45; Superclass for all sources, filters, and sinks in VTK.">
<polygon fill="none" stroke="black" points="50.5,-59 50.5,-79 127.5,-79 127.5,-59 50.5,-59"/>
<text text-anchor="middle" x="89" y="-66" font-family="FreeSans" font-size="10.00">vtkAlgorithm</text>
</a>
</g>
<!-- Node2&#45;&gt;Node1 -->
<g id="edge2" class="edge"><title>Node2&#45;&gt;Node1</title>
<path fill="none" stroke="midnightblue" d="M89,-48.8902C89,-39.6201 89,-29.0083 89,-21.3776"/>
<polygon fill="midnightblue" stroke="midnightblue" points="85.5001,-48.8971 89,-58.8972 92.5001,-48.8972 85.5001,-48.8971"/>
</g>
<!-- Node3 -->
<g id="node4" class="node"><title>Node3</title>
<a xlink:href="class_kitware_1_1_v_t_k_1_1vtk_object.html" target="_top" xlink:title="vtkObject &#45; abstract base class for most VTK objects">
<polygon fill="none" stroke="black" points="58,-117 58,-137 120,-137 120,-117 58,-117"/>
<text text-anchor="middle" x="89" y="-124" font-family="FreeSans" font-size="10.00">vtkObject</text>
</a>
</g>
<!-- Node3&#45;&gt;Node2 -->
<g id="edge4" class="edge"><title>Node3&#45;&gt;Node2</title>
<path fill="none" stroke="midnightblue" d="M89,-106.89C89,-97.6201 89,-87.0083 89,-79.3776"/>
<polygon fill="midnightblue" stroke="midnightblue" points="85.5001,-106.897 89,-116.897 92.5001,-106.897 85.5001,-106.897"/>
</g>
<!-- Node4 -->
<g id="node6" class="node"><title>Node4</title>
<a xlink:href="class_kitware_1_1_v_t_k_1_1vtk_object_base.html" target="_top" xlink:title="vtkObjectBase &#45; abstract base class for most VTK objects">
<polygon fill="none" stroke="black" points="46,-175 46,-195 132,-195 132,-175 46,-175"/>
<text text-anchor="middle" x="89" y="-182" font-family="FreeSans" font-size="10.00">vtkObjectBase</text>
</a>
</g>
<!-- Node4&#45;&gt;Node3 -->
<g id="edge6" class="edge"><title>Node4&#45;&gt;Node3</title>
<path fill="none" stroke="midnightblue" d="M89,-164.89C89,-155.62 89,-145.008 89,-137.378"/>
<polygon fill="midnightblue" stroke="midnightblue" points="85.5001,-164.897 89,-174.897 92.5001,-164.897 85.5001,-164.897"/>
</g>
<!-- Node5 -->
<g id="node8" class="node"><title>Node5</title>
<a xlink:href="class_kitware_1_1_v_t_k_1_1_wrapped_object.html" target="_top" xlink:title="Base class for all the mummy wrapped classes in Kitware.VTK.">
<polygon fill="none" stroke="black" points="44.5,-233 44.5,-253 133.5,-253 133.5,-233 44.5,-233"/>
<text text-anchor="middle" x="89" y="-240" font-family="FreeSans" font-size="10.00">WrappedObject</text>
</a>
</g>
<!-- Node5&#45;&gt;Node4 -->
<g id="edge8" class="edge"><title>Node5&#45;&gt;Node4</title>
<path fill="none" stroke="midnightblue" d="M89,-222.89C89,-213.62 89,-203.008 89,-195.378"/>
<polygon fill="midnightblue" stroke="midnightblue" points="85.5001,-222.897 89,-232.897 92.5001,-222.897 85.5001,-222.897"/>
</g>
</g>
</svg>
