<?xml version="1.0" encoding="UTF-8" standalone="no"?>
<!DOCTYPE svg PUBLIC "-//W3C//DTD SVG 1.1//EN"
 "http://www.w3.org/Graphics/SVG/1.1/DTD/svg11.dtd">
<!-- Generated by graphviz version 2.26.3 (20100126.1600)
 -->
<!-- Title: G Pages: 1 -->
<svg width="470pt" height="770pt"
 viewBox="0.00 0.00 470.46 770.00" xmlns="http://www.w3.org/2000/svg" xmlns:xlink="http://www.w3.org/1999/xlink">
<g id="graph1" class="graph" transform="scale(1 1) rotate(0) translate(4 766)">
<title>G</title>
<!-- Node1 -->
<g id="node1" class="node"><title>Node1</title>
<polygon fill="#bfbfbf" stroke="black" points="0,-1 0,-21 268,-21 268,-1 0,-1"/>
<text text-anchor="middle" x="134" y="-8" font-family="FreeSans" font-size="10.00">Kitware.VTK.vtkOrientedGlyphContourRepresentation</text>
</g>
<!-- Node2 -->
<g id="node2" class="node"><title>Node2</title>
<a xlink:href="class_kitware_1_1_v_t_k_1_1vtk_contour_representation.html" target="_top" xlink:title="vtkContourRepresentation &#45; represent the vtkContourWidget">
<polygon fill="none" stroke="black" points="63.5,-61 63.5,-81 204.5,-81 204.5,-61 63.5,-61"/>
<text text-anchor="middle" x="134" y="-68" font-family="FreeSans" font-size="10.00">vtkContourRepresentation</text>
</a>
</g>
<!-- Node2&#45;&gt;Node1 -->
<g id="edge2" class="edge"><title>Node2&#45;&gt;Node1</title>
<path fill="none" stroke="midnightblue" d="M134,-50.5155C134,-40.562 134,-29.0495 134,-21.0279"/>
<polygon fill="midnightblue" stroke="midnightblue" points="130.5,-50.8218 134,-60.8218 137.5,-50.8219 130.5,-50.8218"/>
</g>
<!-- Node3 -->
<g id="node4" class="node"><title>Node3</title>
<a xlink:href="class_kitware_1_1_v_t_k_1_1vtk_widget_representation.html" target="_top" xlink:title="vtkWidgetRepresentation &#45; abstract class defines interface between the widget and widget representati...">
<polygon fill="none" stroke="black" points="66.5,-121 66.5,-141 201.5,-141 201.5,-121 66.5,-121"/>
<text text-anchor="middle" x="134" y="-128" font-family="FreeSans" font-size="10.00">vtkWidgetRepresentation</text>
</a>
</g>
<!-- Node3&#45;&gt;Node2 -->
<g id="edge4" class="edge"><title>Node3&#45;&gt;Node2</title>
<path fill="none" stroke="midnightblue" d="M134,-110.516C134,-100.562 134,-89.0495 134,-81.0279"/>
<polygon fill="midnightblue" stroke="midnightblue" points="130.5,-110.822 134,-120.822 137.5,-110.822 130.5,-110.822"/>
</g>
<!-- Node4 -->
<g id="node6" class="node"><title>Node4</title>
<a xlink:href="class_kitware_1_1_v_t_k_1_1vtk_prop.html" target="_top" xlink:title="vtkProp &#45; abstract superclass for all actors, volumes and annotations">
<polygon fill="none" stroke="black" points="107.5,-181 107.5,-201 160.5,-201 160.5,-181 107.5,-181"/>
<text text-anchor="middle" x="134" y="-188" font-family="FreeSans" font-size="10.00">vtkProp</text>
</a>
</g>
<!-- Node4&#45;&gt;Node3 -->
<g id="edge6" class="edge"><title>Node4&#45;&gt;Node3</title>
<path fill="none" stroke="midnightblue" d="M134,-170.516C134,-160.562 134,-149.05 134,-141.028"/>
<polygon fill="midnightblue" stroke="midnightblue" points="130.5,-170.822 134,-180.822 137.5,-170.822 130.5,-170.822"/>
</g>
<!-- Node5 -->
<g id="node8" class="node"><title>Node5</title>
<a xlink:href="class_kitware_1_1_v_t_k_1_1vtk_object.html" target="_top" xlink:title="vtkObject &#45; abstract base class for most VTK objects">
<polygon fill="none" stroke="black" points="103,-241 103,-261 165,-261 165,-241 103,-241"/>
<text text-anchor="middle" x="134" y="-248" font-family="FreeSans" font-size="10.00">vtkObject</text>
</a>
</g>
<!-- Node5&#45;&gt;Node4 -->
<g id="edge8" class="edge"><title>Node5&#45;&gt;Node4</title>
<path fill="none" stroke="midnightblue" d="M134,-230.516C134,-220.562 134,-209.05 134,-201.028"/>
<polygon fill="midnightblue" stroke="midnightblue" points="130.5,-230.822 134,-240.822 137.5,-230.822 130.5,-230.822"/>
</g>
<!-- Node6 -->
<g id="node10" class="node"><title>Node6</title>
<a xlink:href="class_kitware_1_1_v_t_k_1_1vtk_object_base.html" target="_top" xlink:title="vtkObjectBase &#45; abstract base class for most VTK objects">
<polygon fill="none" stroke="black" points="154,-681 154,-701 240,-701 240,-681 154,-681"/>
<text text-anchor="middle" x="197" y="-688" font-family="FreeSans" font-size="10.00">vtkObjectBase</text>
</a>
</g>
<!-- Node6&#45;&gt;Node5 -->
<g id="edge10" class="edge"><title>Node6&#45;&gt;Node5</title>
<path fill="none" stroke="midnightblue" d="M168.423,-675.886C154.687,-667.44 138.884,-655.826 128,-642 116.156,-626.955 115.621,-620.802 112,-602 86.4248,-469.199 121.577,-303.437 131.516,-261.17"/>
<polygon fill="midnightblue" stroke="midnightblue" points="166.683,-678.923 177.079,-680.97 170.229,-672.887 166.683,-678.923"/>
</g>
<!-- Node9 -->
<g id="node17" class="node"><title>Node9</title>
<a xlink:href="class_kitware_1_1_v_t_k_1_1vtk_object.html" target="_top" xlink:title="vtkObject &#45; abstract base class for most VTK objects">
<polygon fill="none" stroke="black" points="137,-621 137,-641 257,-641 257,-621 137,-621"/>
<text text-anchor="middle" x="197" y="-628" font-family="FreeSans" font-size="10.00">Kitware.VTK.vtkObject</text>
</a>
</g>
<!-- Node6&#45;&gt;Node9 -->
<g id="edge20" class="edge"><title>Node6&#45;&gt;Node9</title>
<path fill="none" stroke="midnightblue" d="M197,-670.516C197,-660.562 197,-649.05 197,-641.028"/>
<polygon fill="midnightblue" stroke="midnightblue" points="193.5,-670.822 197,-680.822 200.5,-670.822 193.5,-670.822"/>
</g>
<!-- Node7 -->
<g id="node12" class="node"><title>Node7</title>
<a xlink:href="class_kitware_1_1_v_t_k_1_1_wrapped_object.html" target="_top" xlink:title="Base class for all the mummy wrapped classes in Kitware.VTK.">
<polygon fill="none" stroke="black" points="335.5,-741 335.5,-761 424.5,-761 424.5,-741 335.5,-741"/>
<text text-anchor="middle" x="380" y="-748" font-family="FreeSans" font-size="10.00">WrappedObject</text>
</a>
</g>
<!-- Node7&#45;&gt;Node6 -->
<g id="edge12" class="edge"><title>Node7&#45;&gt;Node6</title>
<path fill="none" stroke="midnightblue" d="M339.804,-737.821C306.042,-726.752 258.512,-711.168 227.73,-701.075"/>
<polygon fill="midnightblue" stroke="midnightblue" points="338.777,-741.168 349.37,-740.957 340.958,-734.516 338.777,-741.168"/>
</g>
<!-- Node8 -->
<g id="node14" class="node"><title>Node8</title>
<a xlink:href="class_kitware_1_1_v_t_k_1_1vtk_object_event_relay.html" target="_top" xlink:title="Implement a relay handler for VTK events. This is a class that receives events directly from the VTK ...">
<polygon fill="none" stroke="black" points="126,-431 126,-451 298,-451 298,-431 126,-431"/>
<text text-anchor="middle" x="212" y="-438" font-family="FreeSans" font-size="10.00">Kitware.VTK.vtkObjectEventRelay</text>
</a>
</g>
<!-- Node7&#45;&gt;Node8 -->
<g id="edge16" class="edge"><title>Node7&#45;&gt;Node8</title>
<path fill="none" stroke="midnightblue" d="M392.888,-732.325C425.276,-682.899 502.803,-547.191 435,-470 425.773,-459.495 357.047,-451.666 298.298,-446.808"/>
<polygon fill="midnightblue" stroke="midnightblue" points="389.891,-730.509 387.239,-740.767 395.709,-734.402 389.891,-730.509"/>
</g>
<!-- Node8&#45;&gt;Node5 -->
<g id="edge14" class="edge"><title>Node8&#45;&gt;Node5</title>
<path fill="none" stroke="#9a32cd" stroke-dasharray="5,2" d="M203.921,-421.321C187.489,-381.293 150.674,-291.616 138.214,-261.266"/>
<polygon fill="#9a32cd" stroke="#9a32cd" points="200.771,-422.863 207.806,-430.785 207.246,-420.205 200.771,-422.863"/>
<text text-anchor="middle" x="311.5" y="-403" font-family="FreeSans" font-size="10.00"> LeftButtonReleaseEvtRelay</text>
<text text-anchor="middle" x="311.5" y="-391" font-family="FreeSans" font-size="10.00">KeyPressEvtRelay</text>
<text text-anchor="middle" x="311.5" y="-379" font-family="FreeSans" font-size="10.00">DomainModifiedEvtRelay</text>
<text text-anchor="middle" x="311.5" y="-367" font-family="FreeSans" font-size="10.00">VolumeMapperComputeGradientsStartEvtRelay</text>
<text text-anchor="middle" x="311.5" y="-355" font-family="FreeSans" font-size="10.00">ErrorEvtRelay</text>
<text text-anchor="middle" x="311.5" y="-343" font-family="FreeSans" font-size="10.00">VolumeMapperRenderStartEvtRelay</text>
<text text-anchor="middle" x="311.5" y="-331" font-family="FreeSans" font-size="10.00">StartEvtRelay</text>
<text text-anchor="middle" x="311.5" y="-319" font-family="FreeSans" font-size="10.00">ResetCameraEvtRelay</text>
<text text-anchor="middle" x="311.5" y="-307" font-family="FreeSans" font-size="10.00">EnableEvtRelay</text>
<text text-anchor="middle" x="311.5" y="-295" font-family="FreeSans" font-size="10.00">DeleteEvtRelay</text>
<text text-anchor="middle" x="311.5" y="-283" font-family="FreeSans" font-size="10.00">...</text>
</g>
<!-- Node8&#45;&gt;Node9 -->
<g id="edge22" class="edge"><title>Node8&#45;&gt;Node9</title>
<path fill="none" stroke="#9a32cd" stroke-dasharray="5,2" d="M209.028,-461.231C208.649,-464.169 208.293,-467.159 208,-470 202.144,-526.853 198.636,-595.333 197.452,-620.807"/>
<polygon fill="#9a32cd" stroke="#9a32cd" points="212.515,-461.565 210.421,-451.179 205.582,-460.604 212.515,-461.565"/>
<text text-anchor="middle" x="321.5" y="-593" font-family="FreeSans" font-size="10.00"> LeftButtonReleaseEvtRelay</text>
<text text-anchor="middle" x="321.5" y="-581" font-family="FreeSans" font-size="10.00">KeyPressEvtRelay</text>
<text text-anchor="middle" x="321.5" y="-569" font-family="FreeSans" font-size="10.00">DomainModifiedEvtRelay</text>
<text text-anchor="middle" x="321.5" y="-557" font-family="FreeSans" font-size="10.00">VolumeMapperComputeGradientsStartEvtRelay</text>
<text text-anchor="middle" x="321.5" y="-545" font-family="FreeSans" font-size="10.00">ErrorEvtRelay</text>
<text text-anchor="middle" x="321.5" y="-533" font-family="FreeSans" font-size="10.00">VolumeMapperRenderStartEvtRelay</text>
<text text-anchor="middle" x="321.5" y="-521" font-family="FreeSans" font-size="10.00">StartEvtRelay</text>
<text text-anchor="middle" x="321.5" y="-509" font-family="FreeSans" font-size="10.00">ResetCameraEvtRelay</text>
<text text-anchor="middle" x="321.5" y="-497" font-family="FreeSans" font-size="10.00">EnableEvtRelay</text>
<text text-anchor="middle" x="321.5" y="-485" font-family="FreeSans" font-size="10.00">DeleteEvtRelay</text>
<text text-anchor="middle" x="321.5" y="-473" font-family="FreeSans" font-size="10.00">...</text>
</g>
<!-- Node9&#45;&gt;Node8 -->
<g id="edge18" class="edge"><title>Node9&#45;&gt;Node8</title>
<path fill="none" stroke="#9a32cd" stroke-dasharray="5,2" d="M150.979,-615.818C145.439,-612.138 140.51,-607.596 137,-602 105.823,-552.303 103.83,-518.389 137,-470 141.736,-463.091 158.511,-456.287 174.999,-451.008"/>
<polygon fill="#9a32cd" stroke="#9a32cd" points="149.639,-619.079 160.072,-620.919 153.064,-612.974 149.639,-619.079"/>
<text text-anchor="middle" x="161" y="-539" font-family="FreeSans" font-size="10.00"> Sender</text>
<text text-anchor="middle" x="161" y="-527" font-family="FreeSans" font-size="10.00">EventImpl</text>
</g>
</g>
</svg>
