<?xml version="1.0" encoding="UTF-8" standalone="no"?>
<!DOCTYPE svg PUBLIC "-//W3C//DTD SVG 1.1//EN"
 "http://www.w3.org/Graphics/SVG/1.1/DTD/svg11.dtd">
<!-- Generated by graphviz version 2.26.3 (20100126.1600)
 -->
<!-- Title: G Pages: 1 -->
<svg width="208pt" height="262pt"
 viewBox="0.00 0.00 208.00 262.00" xmlns="http://www.w3.org/2000/svg" xmlns:xlink="http://www.w3.org/1999/xlink">
<g id="graph1" class="graph" transform="scale(1 1) rotate(0) translate(4 258)">
<title>G</title>
<!-- Node1 -->
<g id="node1" class="node"><title>Node1</title>
<polygon fill="#bfbfbf" stroke="black" points="42,-59 42,-79 158,-79 158,-59 42,-59"/>
<text text-anchor="middle" x="100" y="-66" font-family="FreeSans" font-size="10.00">Kitware.VTK.vtkCuller</text>
</g>
<!-- Node5 -->
<g id="node9" class="node"><title>Node5</title>
<a xlink:href="class_kitware_1_1_v_t_k_1_1vtk_frustum_coverage_culler.html" target="_top" xlink:title="vtkFrustumCoverageCuller &#45; cull props based on frustum coverage">
<polygon fill="none" stroke="black" points="-0.5,-1 -0.5,-21 200.5,-21 200.5,-1 -0.5,-1"/>
<text text-anchor="middle" x="100" y="-8" font-family="FreeSans" font-size="10.00">Kitware.VTK.vtkFrustumCoverageCuller</text>
</a>
</g>
<!-- Node1&#45;&gt;Node5 -->
<g id="edge8" class="edge"><title>Node1&#45;&gt;Node5</title>
<path fill="none" stroke="midnightblue" d="M100,-48.8902C100,-39.6201 100,-29.0083 100,-21.3776"/>
<polygon fill="midnightblue" stroke="midnightblue" points="96.5001,-48.8971 100,-58.8972 103.5,-48.8972 96.5001,-48.8971"/>
</g>
<!-- Node2 -->
<g id="node2" class="node"><title>Node2</title>
<a xlink:href="class_kitware_1_1_v_t_k_1_1vtk_object.html" target="_top" xlink:title="vtkObject &#45; abstract base class for most VTK objects">
<polygon fill="none" stroke="black" points="69,-117 69,-137 131,-137 131,-117 69,-117"/>
<text text-anchor="middle" x="100" y="-124" font-family="FreeSans" font-size="10.00">vtkObject</text>
</a>
</g>
<!-- Node2&#45;&gt;Node1 -->
<g id="edge2" class="edge"><title>Node2&#45;&gt;Node1</title>
<path fill="none" stroke="midnightblue" d="M100,-106.89C100,-97.6201 100,-87.0083 100,-79.3776"/>
<polygon fill="midnightblue" stroke="midnightblue" points="96.5001,-106.897 100,-116.897 103.5,-106.897 96.5001,-106.897"/>
</g>
<!-- Node3 -->
<g id="node4" class="node"><title>Node3</title>
<a xlink:href="class_kitware_1_1_v_t_k_1_1vtk_object_base.html" target="_top" xlink:title="vtkObjectBase &#45; abstract base class for most VTK objects">
<polygon fill="none" stroke="black" points="57,-175 57,-195 143,-195 143,-175 57,-175"/>
<text text-anchor="middle" x="100" y="-182" font-family="FreeSans" font-size="10.00">vtkObjectBase</text>
</a>
</g>
<!-- Node3&#45;&gt;Node2 -->
<g id="edge4" class="edge"><title>Node3&#45;&gt;Node2</title>
<path fill="none" stroke="midnightblue" d="M100,-164.89C100,-155.62 100,-145.008 100,-137.378"/>
<polygon fill="midnightblue" stroke="midnightblue" points="96.5001,-164.897 100,-174.897 103.5,-164.897 96.5001,-164.897"/>
</g>
<!-- Node4 -->
<g id="node6" class="node"><title>Node4</title>
<a xlink:href="class_kitware_1_1_v_t_k_1_1_wrapped_object.html" target="_top" xlink:title="Base class for all the mummy wrapped classes in Kitware.VTK.">
<polygon fill="none" stroke="black" points="55.5,-233 55.5,-253 144.5,-253 144.5,-233 55.5,-233"/>
<text text-anchor="middle" x="100" y="-240" font-family="FreeSans" font-size="10.00">WrappedObject</text>
</a>
</g>
<!-- Node4&#45;&gt;Node3 -->
<g id="edge6" class="edge"><title>Node4&#45;&gt;Node3</title>
<path fill="none" stroke="midnightblue" d="M100,-222.89C100,-213.62 100,-203.008 100,-195.378"/>
<polygon fill="midnightblue" stroke="midnightblue" points="96.5001,-222.897 100,-232.897 103.5,-222.897 96.5001,-222.897"/>
</g>
</g>
</svg>
