<?xml version="1.0" encoding="UTF-8" standalone="no"?>
<!DOCTYPE svg PUBLIC "-//W3C//DTD SVG 1.1//EN"
 "http://www.w3.org/Graphics/SVG/1.1/DTD/svg11.dtd">
<!-- Generated by graphviz version 2.26.3 (20100126.1600)
 -->
<!-- Title: G Pages: 1 -->
<svg width="1664pt" height="446pt"
 viewBox="0.00 0.00 1664.00 446.00" xmlns="http://www.w3.org/2000/svg" xmlns:xlink="http://www.w3.org/1999/xlink">
<g id="graph1" class="graph" transform="scale(1 1) rotate(0) translate(4 442)">
<title>G</title>
<!-- Node1 -->
<g id="node1" class="node"><title>Node1</title>
<polygon fill="#bfbfbf" stroke="black" points="460,-285 460,-305 602,-305 602,-285 460,-285"/>
<text text-anchor="middle" x="531" y="-292" font-family="FreeSans" font-size="10.00">Kitware.VTK.vtkXMLReader</text>
</g>
<!-- Node6 -->
<g id="node11" class="node"><title>Node6</title>
<a xlink:href="class_kitware_1_1_v_t_k_1_1vtk_x_m_l_composite_data_reader.html" target="_top" xlink:title="vtkXMLCompositeDataReader &#45; Reader for multi&#45;group datasets">
<polygon fill="none" stroke="black" points="638.5,-380 638.5,-400 855.5,-400 855.5,-380 638.5,-380"/>
<text text-anchor="middle" x="747" y="-387" font-family="FreeSans" font-size="10.00">Kitware.VTK.vtkXMLCompositeDataReader</text>
</a>
</g>
<!-- Node1&#45;&gt;Node6 -->
<g id="edge10" class="edge"><title>Node1&#45;&gt;Node6</title>
<path fill="none" stroke="midnightblue" d="M563.526,-309.305C607.686,-328.728 685.512,-362.957 724.05,-379.906"/>
<polygon fill="midnightblue" stroke="midnightblue" points="564.679,-305.989 554.116,-305.167 561.86,-312.397 564.679,-305.989"/>
</g>
<!-- Node11 -->
<g id="node21" class="node"><title>Node11</title>
<a xlink:href="class_kitware_1_1_v_t_k_1_1vtk_x_m_l_data_reader.html" target="_top" xlink:title="vtkXMLDataReader &#45; Superclass for VTK XML file readers.">
<polygon fill="none" stroke="black" points="664.5,-285 664.5,-305 829.5,-305 829.5,-285 664.5,-285"/>
<text text-anchor="middle" x="747" y="-292" font-family="FreeSans" font-size="10.00">Kitware.VTK.vtkXMLDataReader</text>
</a>
</g>
<!-- Node1&#45;&gt;Node11 -->
<g id="edge20" class="edge"><title>Node1&#45;&gt;Node11</title>
<path fill="none" stroke="midnightblue" d="M612.45,-295C629.41,-295 647.303,-295 664.308,-295"/>
<polygon fill="midnightblue" stroke="midnightblue" points="612.026,-291.5 602.026,-295 612.026,-298.5 612.026,-291.5"/>
</g>
<!-- Node22 -->
<g id="node43" class="node"><title>Node22</title>
<a xlink:href="class_kitware_1_1_v_t_k_1_1vtk_x_m_l_p_data_reader.html" target="_top" xlink:title="vtkXMLPDataReader &#45; Superclass for PVTK XML file readers.">
<polygon fill="none" stroke="black" points="661.5,-114 661.5,-134 832.5,-134 832.5,-114 661.5,-114"/>
<text text-anchor="middle" x="747" y="-121" font-family="FreeSans" font-size="10.00">Kitware.VTK.vtkXMLPDataReader</text>
</a>
</g>
<!-- Node1&#45;&gt;Node22 -->
<g id="edge42" class="edge"><title>Node1&#45;&gt;Node22</title>
<path fill="none" stroke="midnightblue" d="M551.912,-278.444C596.187,-243.393 698.269,-162.579 734.202,-134.131"/>
<polygon fill="midnightblue" stroke="midnightblue" points="549.533,-275.864 543.865,-284.815 553.878,-281.352 549.533,-275.864"/>
</g>
<!-- Node2 -->
<g id="node2" class="node"><title>Node2</title>
<a xlink:href="class_kitware_1_1_v_t_k_1_1vtk_algorithm.html" target="_top" xlink:title="vtkAlgorithm &#45; Superclass for all sources, filters, and sinks in VTK.">
<polygon fill="none" stroke="black" points="346.5,-285 346.5,-305 423.5,-305 423.5,-285 346.5,-285"/>
<text text-anchor="middle" x="385" y="-292" font-family="FreeSans" font-size="10.00">vtkAlgorithm</text>
</a>
</g>
<!-- Node2&#45;&gt;Node1 -->
<g id="edge2" class="edge"><title>Node2&#45;&gt;Node1</title>
<path fill="none" stroke="midnightblue" d="M434,-295C442.327,-295 451.122,-295 459.881,-295"/>
<polygon fill="midnightblue" stroke="midnightblue" points="433.742,-291.5 423.742,-295 433.742,-298.5 433.742,-291.5"/>
</g>
<!-- Node3 -->
<g id="node4" class="node"><title>Node3</title>
<a xlink:href="class_kitware_1_1_v_t_k_1_1vtk_object.html" target="_top" xlink:title="vtkObject &#45; abstract base class for most VTK objects">
<polygon fill="none" stroke="black" points="248,-285 248,-305 310,-305 310,-285 248,-285"/>
<text text-anchor="middle" x="279" y="-292" font-family="FreeSans" font-size="10.00">vtkObject</text>
</a>
</g>
<!-- Node3&#45;&gt;Node2 -->
<g id="edge4" class="edge"><title>Node3&#45;&gt;Node2</title>
<path fill="none" stroke="midnightblue" d="M320.421,-295C329.001,-295 338.007,-295 346.479,-295"/>
<polygon fill="midnightblue" stroke="midnightblue" points="320.23,-291.5 310.23,-295 320.23,-298.5 320.23,-291.5"/>
</g>
<!-- Node4 -->
<g id="node6" class="node"><title>Node4</title>
<a xlink:href="class_kitware_1_1_v_t_k_1_1vtk_object_base.html" target="_top" xlink:title="vtkObjectBase &#45; abstract base class for most VTK objects">
<polygon fill="none" stroke="black" points="126,-285 126,-305 212,-305 212,-285 126,-285"/>
<text text-anchor="middle" x="169" y="-292" font-family="FreeSans" font-size="10.00">vtkObjectBase</text>
</a>
</g>
<!-- Node4&#45;&gt;Node3 -->
<g id="edge6" class="edge"><title>Node4&#45;&gt;Node3</title>
<path fill="none" stroke="midnightblue" d="M222.346,-295C231.091,-295 239.892,-295 247.863,-295"/>
<polygon fill="midnightblue" stroke="midnightblue" points="222.159,-291.5 212.159,-295 222.159,-298.5 222.159,-291.5"/>
</g>
<!-- Node5 -->
<g id="node8" class="node"><title>Node5</title>
<a xlink:href="class_kitware_1_1_v_t_k_1_1_wrapped_object.html" target="_top" xlink:title="Base class for all the mummy wrapped classes in Kitware.VTK.">
<polygon fill="none" stroke="black" points="0.5,-285 0.5,-305 89.5,-305 89.5,-285 0.5,-285"/>
<text text-anchor="middle" x="45" y="-292" font-family="FreeSans" font-size="10.00">WrappedObject</text>
</a>
</g>
<!-- Node5&#45;&gt;Node4 -->
<g id="edge8" class="edge"><title>Node5&#45;&gt;Node4</title>
<path fill="none" stroke="midnightblue" d="M99.8895,-295C108.623,-295 117.548,-295 125.957,-295"/>
<polygon fill="midnightblue" stroke="midnightblue" points="99.7669,-291.5 89.7668,-295 99.7668,-298.5 99.7669,-291.5"/>
</g>
<!-- Node7 -->
<g id="node13" class="node"><title>Node7</title>
<a xlink:href="class_kitware_1_1_v_t_k_1_1vtk_x_m_l_hierarchical_box_data_reader.html" target="_top" xlink:title="vtkXMLHierarchicalBoxDataReader &#45; Reader for hierarchical datasets">
<polygon fill="none" stroke="black" points="892.5,-418 892.5,-438 1131.5,-438 1131.5,-418 892.5,-418"/>
<text text-anchor="middle" x="1012" y="-425" font-family="FreeSans" font-size="10.00">Kitware.VTK.vtkXMLHierarchicalBoxDataReader</text>
</a>
</g>
<!-- Node6&#45;&gt;Node7 -->
<g id="edge12" class="edge"><title>Node6&#45;&gt;Node7</title>
<path fill="none" stroke="midnightblue" d="M827.127,-401.49C863.771,-406.744 906.784,-412.912 942.095,-417.976"/>
<polygon fill="midnightblue" stroke="midnightblue" points="827.368,-397.989 816.972,-400.034 826.374,-404.918 827.368,-397.989"/>
</g>
<!-- Node8 -->
<g id="node15" class="node"><title>Node8</title>
<a xlink:href="class_kitware_1_1_v_t_k_1_1vtk_x_m_l_multi_block_data_reader.html" target="_top" xlink:title="vtkXMLMultiBlockDataReader &#45; Reader for multi&#45;block datasets">
<polygon fill="none" stroke="black" points="905.5,-380 905.5,-400 1118.5,-400 1118.5,-380 905.5,-380"/>
<text text-anchor="middle" x="1012" y="-387" font-family="FreeSans" font-size="10.00">Kitware.VTK.vtkXMLMultiBlockDataReader</text>
</a>
</g>
<!-- Node6&#45;&gt;Node8 -->
<g id="edge14" class="edge"><title>Node6&#45;&gt;Node8</title>
<path fill="none" stroke="midnightblue" d="M865.621,-390C878.85,-390 892.265,-390 905.332,-390"/>
<polygon fill="midnightblue" stroke="midnightblue" points="865.55,-386.5 855.55,-390 865.55,-393.5 865.55,-386.5"/>
</g>
<!-- Node9 -->
<g id="node17" class="node"><title>Node9</title>
<a xlink:href="class_kitware_1_1_v_t_k_1_1vtk_x_m_l_multi_group_data_reader.html" target="_top" xlink:title="vtkXMLMultiGroupDataReader &#45; Reader for multi&#45;block datasets">
<polygon fill="none" stroke="black" points="1174.5,-380 1174.5,-400 1391.5,-400 1391.5,-380 1174.5,-380"/>
<text text-anchor="middle" x="1283" y="-387" font-family="FreeSans" font-size="10.00">Kitware.VTK.vtkXMLMultiGroupDataReader</text>
</a>
</g>
<!-- Node8&#45;&gt;Node9 -->
<g id="edge16" class="edge"><title>Node8&#45;&gt;Node9</title>
<path fill="none" stroke="midnightblue" d="M1129.03,-390C1144.02,-390 1159.31,-390 1174.15,-390"/>
<polygon fill="midnightblue" stroke="midnightblue" points="1128.72,-386.5 1118.72,-390 1128.72,-393.5 1128.72,-386.5"/>
</g>
<!-- Node10 -->
<g id="node19" class="node"><title>Node10</title>
<a xlink:href="class_kitware_1_1_v_t_k_1_1vtk_x_m_l_hierarchical_data_reader.html" target="_top" xlink:title="vtkXMLHierarchicalDataReader &#45; Reader for hierarchical datasets">
<polygon fill="none" stroke="black" points="1434.5,-380 1434.5,-400 1655.5,-400 1655.5,-380 1434.5,-380"/>
<text text-anchor="middle" x="1545" y="-387" font-family="FreeSans" font-size="10.00">Kitware.VTK.vtkXMLHierarchicalDataReader</text>
</a>
</g>
<!-- Node9&#45;&gt;Node10 -->
<g id="edge18" class="edge"><title>Node9&#45;&gt;Node10</title>
<path fill="none" stroke="midnightblue" d="M1402.1,-390C1412.86,-390 1423.72,-390 1434.39,-390"/>
<polygon fill="midnightblue" stroke="midnightblue" points="1401.84,-386.5 1391.84,-390 1401.84,-393.5 1401.84,-386.5"/>
</g>
<!-- Node12 -->
<g id="node23" class="node"><title>Node12</title>
<a xlink:href="class_kitware_1_1_v_t_k_1_1vtk_x_m_l_generic_data_object_reader.html" target="_top" xlink:title="vtkXMLGenericDataObjectReader &#45; Read any type of vtk data object">
<polygon fill="none" stroke="black" points="895.5,-342 895.5,-362 1128.5,-362 1128.5,-342 895.5,-342"/>
<text text-anchor="middle" x="1012" y="-349" font-family="FreeSans" font-size="10.00">Kitware.VTK.vtkXMLGenericDataObjectReader</text>
</a>
</g>
<!-- Node11&#45;&gt;Node12 -->
<g id="edge22" class="edge"><title>Node11&#45;&gt;Node12</title>
<path fill="none" stroke="midnightblue" d="M791.037,-307.758C819.64,-315.741 857.825,-325.835 892,-333 907.793,-336.311 924.863,-339.34 941.036,-341.96"/>
<polygon fill="midnightblue" stroke="midnightblue" points="791.916,-304.369 781.342,-305.03 790.021,-311.107 791.916,-304.369"/>
</g>
<!-- Node13 -->
<g id="node25" class="node"><title>Node13</title>
<a xlink:href="class_kitware_1_1_v_t_k_1_1vtk_x_m_l_hyper_octree_reader.html" target="_top" xlink:title="vtkXMLHyperOctreeReader &#45; Read VTK XML HyperOctree files.">
<polygon fill="none" stroke="black" points="910.5,-304 910.5,-324 1113.5,-324 1113.5,-304 910.5,-304"/>
<text text-anchor="middle" x="1012" y="-311" font-family="FreeSans" font-size="10.00">Kitware.VTK.vtkXMLHyperOctreeReader</text>
</a>
</g>
<!-- Node11&#45;&gt;Node13 -->
<g id="edge24" class="edge"><title>Node11&#45;&gt;Node13</title>
<path fill="none" stroke="midnightblue" d="M839.758,-301.651C862.561,-303.286 887.095,-305.045 910.296,-306.708"/>
<polygon fill="midnightblue" stroke="midnightblue" points="839.982,-298.158 829.758,-300.934 839.482,-305.14 839.982,-298.158"/>
</g>
<!-- Node14 -->
<g id="node27" class="node"><title>Node14</title>
<a xlink:href="class_kitware_1_1_v_t_k_1_1vtk_x_m_l_structured_data_reader.html" target="_top" xlink:title="vtkXMLStructuredDataReader &#45; Superclass for structured data XML readers.">
<polygon fill="none" stroke="black" points="904,-266 904,-286 1120,-286 1120,-266 904,-266"/>
<text text-anchor="middle" x="1012" y="-273" font-family="FreeSans" font-size="10.00">Kitware.VTK.vtkXMLStructuredDataReader</text>
</a>
</g>
<!-- Node11&#45;&gt;Node14 -->
<g id="edge26" class="edge"><title>Node11&#45;&gt;Node14</title>
<path fill="none" stroke="midnightblue" d="M839.758,-288.349C860.38,-286.871 882.417,-285.291 903.604,-283.772"/>
<polygon fill="midnightblue" stroke="midnightblue" points="839.482,-284.86 829.758,-289.066 839.982,-291.842 839.482,-284.86"/>
</g>
<!-- Node18 -->
<g id="node35" class="node"><title>Node18</title>
<a xlink:href="class_kitware_1_1_v_t_k_1_1vtk_x_m_l_unstructured_data_reader.html" target="_top" xlink:title="vtkXMLUnstructuredDataReader &#45; Superclass for unstructured data XML readers.">
<polygon fill="none" stroke="black" points="898.5,-228 898.5,-248 1125.5,-248 1125.5,-228 898.5,-228"/>
<text text-anchor="middle" x="1012" y="-235" font-family="FreeSans" font-size="10.00">Kitware.VTK.vtkXMLUnstructuredDataReader</text>
</a>
</g>
<!-- Node11&#45;&gt;Node18 -->
<g id="edge34" class="edge"><title>Node11&#45;&gt;Node18</title>
<path fill="none" stroke="midnightblue" d="M791.037,-282.242C819.64,-274.259 857.825,-264.165 892,-257 907.793,-253.689 924.863,-250.66 941.036,-248.04"/>
<polygon fill="midnightblue" stroke="midnightblue" points="790.021,-278.893 781.342,-284.97 791.916,-285.631 790.021,-278.893"/>
</g>
<!-- Node15 -->
<g id="node29" class="node"><title>Node15</title>
<a xlink:href="class_kitware_1_1_v_t_k_1_1vtk_x_m_l_image_data_reader.html" target="_top" xlink:title="vtkXMLImageDataReader &#45; Read VTK XML ImageData files.">
<polygon fill="none" stroke="black" points="1185.5,-342 1185.5,-362 1380.5,-362 1380.5,-342 1185.5,-342"/>
<text text-anchor="middle" x="1283" y="-349" font-family="FreeSans" font-size="10.00">Kitware.VTK.vtkXMLImageDataReader</text>
</a>
</g>
<!-- Node14&#45;&gt;Node15 -->
<g id="edge28" class="edge"><title>Node14&#45;&gt;Node15</title>
<path fill="none" stroke="midnightblue" d="M1120.08,-289.531C1124.18,-291.166 1128.17,-292.982 1132,-295 1152.58,-305.84 1147.45,-322.091 1168,-333 1174.79,-336.606 1182.1,-339.56 1189.62,-341.976"/>
<polygon fill="midnightblue" stroke="midnightblue" points="1120.95,-286.123 1110.35,-286.039 1118.58,-292.712 1120.95,-286.123"/>
</g>
<!-- Node16 -->
<g id="node31" class="node"><title>Node16</title>
<a xlink:href="class_kitware_1_1_v_t_k_1_1vtk_x_m_l_rectilinear_grid_reader.html" target="_top" xlink:title="vtkXMLRectilinearGridReader &#45; Read VTK XML RectilinearGrid files.">
<polygon fill="none" stroke="black" points="1178,-304 1178,-324 1388,-324 1388,-304 1178,-304"/>
<text text-anchor="middle" x="1283" y="-311" font-family="FreeSans" font-size="10.00">Kitware.VTK.vtkXMLRectilinearGridReader</text>
</a>
</g>
<!-- Node14&#45;&gt;Node16 -->
<g id="edge30" class="edge"><title>Node14&#45;&gt;Node16</title>
<path fill="none" stroke="midnightblue" d="M1093.46,-287.423C1131.04,-292.692 1175.25,-298.891 1211.51,-303.976"/>
<polygon fill="midnightblue" stroke="midnightblue" points="1093.95,-283.956 1083.56,-286.034 1092.97,-290.889 1093.95,-283.956"/>
</g>
<!-- Node17 -->
<g id="node33" class="node"><title>Node17</title>
<a xlink:href="class_kitware_1_1_v_t_k_1_1vtk_x_m_l_structured_grid_reader.html" target="_top" xlink:title="vtkXMLStructuredGridReader &#45; Read VTK XML StructuredGrid files.">
<polygon fill="none" stroke="black" points="1177,-266 1177,-286 1389,-286 1389,-266 1177,-266"/>
<text text-anchor="middle" x="1283" y="-273" font-family="FreeSans" font-size="10.00">Kitware.VTK.vtkXMLStructuredGridReader</text>
</a>
</g>
<!-- Node14&#45;&gt;Node17 -->
<g id="edge32" class="edge"><title>Node14&#45;&gt;Node17</title>
<path fill="none" stroke="midnightblue" d="M1130.35,-276C1145.76,-276 1161.47,-276 1176.66,-276"/>
<polygon fill="midnightblue" stroke="midnightblue" points="1130.27,-272.5 1120.27,-276 1130.27,-279.5 1130.27,-272.5"/>
</g>
<!-- Node19 -->
<g id="node37" class="node"><title>Node19</title>
<a xlink:href="class_kitware_1_1_v_t_k_1_1vtk_x_m_l_poly_data_reader.html" target="_top" xlink:title="vtkXMLPolyDataReader &#45; Read VTK XML PolyData files.">
<polygon fill="none" stroke="black" points="1190.5,-228 1190.5,-248 1375.5,-248 1375.5,-228 1190.5,-228"/>
<text text-anchor="middle" x="1283" y="-235" font-family="FreeSans" font-size="10.00">Kitware.VTK.vtkXMLPolyDataReader</text>
</a>
</g>
<!-- Node18&#45;&gt;Node19 -->
<g id="edge36" class="edge"><title>Node18&#45;&gt;Node19</title>
<path fill="none" stroke="midnightblue" d="M1135.91,-238C1154.28,-238 1172.93,-238 1190.5,-238"/>
<polygon fill="midnightblue" stroke="midnightblue" points="1135.75,-234.5 1125.75,-238 1135.75,-241.5 1135.75,-234.5"/>
</g>
<!-- Node21 -->
<g id="node41" class="node"><title>Node21</title>
<a xlink:href="class_kitware_1_1_v_t_k_1_1vtk_x_m_l_unstructured_grid_reader.html" target="_top" xlink:title="vtkXMLUnstructuredGridReader &#45; Read VTK XML UnstructuredGrid files.">
<polygon fill="none" stroke="black" points="1171,-190 1171,-210 1395,-210 1395,-190 1171,-190"/>
<text text-anchor="middle" x="1283" y="-197" font-family="FreeSans" font-size="10.00">Kitware.VTK.vtkXMLUnstructuredGridReader</text>
</a>
</g>
<!-- Node18&#45;&gt;Node21 -->
<g id="edge40" class="edge"><title>Node18&#45;&gt;Node21</title>
<path fill="none" stroke="midnightblue" d="M1093.46,-226.577C1131.04,-221.308 1175.25,-215.109 1211.51,-210.024"/>
<polygon fill="midnightblue" stroke="midnightblue" points="1092.97,-223.111 1083.56,-227.966 1093.95,-230.044 1092.97,-223.111"/>
</g>
<!-- Node20 -->
<g id="node39" class="node"><title>Node20</title>
<a xlink:href="class_kitware_1_1_v_t_k_1_1vtk_r_t_x_m_l_poly_data_reader.html" target="_top" xlink:title="vtkRTXMLPolyDataReader &#45; Read RealTime VTK XML PolyData files.">
<polygon fill="none" stroke="black" points="1447.5,-228 1447.5,-248 1642.5,-248 1642.5,-228 1447.5,-228"/>
<text text-anchor="middle" x="1545" y="-235" font-family="FreeSans" font-size="10.00">Kitware.VTK.vtkRTXMLPolyDataReader</text>
</a>
</g>
<!-- Node19&#45;&gt;Node20 -->
<g id="edge38" class="edge"><title>Node19&#45;&gt;Node20</title>
<path fill="none" stroke="midnightblue" d="M1385.86,-238C1406,-238 1427.08,-238 1447.06,-238"/>
<polygon fill="midnightblue" stroke="midnightblue" points="1385.74,-234.5 1375.74,-238 1385.74,-241.5 1385.74,-234.5"/>
</g>
<!-- Node23 -->
<g id="node45" class="node"><title>Node23</title>
<a xlink:href="class_kitware_1_1_v_t_k_1_1vtk_x_m_l_p_structured_data_reader.html" target="_top" xlink:title="vtkXMLPStructuredDataReader &#45; Superclass for parallel structured data XML readers.">
<polygon fill="none" stroke="black" points="901,-114 901,-134 1123,-134 1123,-114 901,-114"/>
<text text-anchor="middle" x="1012" y="-121" font-family="FreeSans" font-size="10.00">Kitware.VTK.vtkXMLPStructuredDataReader</text>
</a>
</g>
<!-- Node22&#45;&gt;Node23 -->
<g id="edge44" class="edge"><title>Node22&#45;&gt;Node23</title>
<path fill="none" stroke="midnightblue" d="M842.749,-124C861.652,-124 881.638,-124 900.996,-124"/>
<polygon fill="midnightblue" stroke="midnightblue" points="842.672,-120.5 832.672,-124 842.672,-127.5 842.672,-120.5"/>
</g>
<!-- Node27 -->
<g id="node53" class="node"><title>Node27</title>
<a xlink:href="class_kitware_1_1_v_t_k_1_1vtk_x_m_l_p_unstructured_data_reader.html" target="_top" xlink:title="vtkXMLPUnstructuredDataReader &#45; Superclass for parallel unstructured data XML readers.">
<polygon fill="none" stroke="black" points="895,-38 895,-58 1129,-58 1129,-38 895,-38"/>
<text text-anchor="middle" x="1012" y="-45" font-family="FreeSans" font-size="10.00">Kitware.VTK.vtkXMLPUnstructuredDataReader</text>
</a>
</g>
<!-- Node22&#45;&gt;Node27 -->
<g id="edge52" class="edge"><title>Node22&#45;&gt;Node27</title>
<path fill="none" stroke="midnightblue" d="M791.585,-111.213C843.827,-96.2306 929.3,-71.7176 977.006,-58.036"/>
<polygon fill="midnightblue" stroke="midnightblue" points="790.564,-107.865 781.917,-113.986 792.494,-114.594 790.564,-107.865"/>
</g>
<!-- Node24 -->
<g id="node47" class="node"><title>Node24</title>
<a xlink:href="class_kitware_1_1_v_t_k_1_1vtk_x_m_l_p_image_data_reader.html" target="_top" xlink:title="vtkXMLPImageDataReader &#45; Read PVTK XML ImageData files.">
<polygon fill="none" stroke="black" points="1182.5,-152 1182.5,-172 1383.5,-172 1383.5,-152 1182.5,-152"/>
<text text-anchor="middle" x="1283" y="-159" font-family="FreeSans" font-size="10.00">Kitware.VTK.vtkXMLPImageDataReader</text>
</a>
</g>
<!-- Node23&#45;&gt;Node24 -->
<g id="edge46" class="edge"><title>Node23&#45;&gt;Node24</title>
<path fill="none" stroke="midnightblue" d="M1093.46,-135.423C1131.04,-140.692 1175.25,-146.891 1211.51,-151.976"/>
<polygon fill="midnightblue" stroke="midnightblue" points="1093.95,-131.956 1083.56,-134.034 1092.97,-138.889 1093.95,-131.956"/>
</g>
<!-- Node25 -->
<g id="node49" class="node"><title>Node25</title>
<a xlink:href="class_kitware_1_1_v_t_k_1_1vtk_x_m_l_p_rectilinear_grid_reader.html" target="_top" xlink:title="vtkXMLPRectilinearGridReader &#45; Read PVTK XML RectilinearGrid files.">
<polygon fill="none" stroke="black" points="1175,-114 1175,-134 1391,-134 1391,-114 1175,-114"/>
<text text-anchor="middle" x="1283" y="-121" font-family="FreeSans" font-size="10.00">Kitware.VTK.vtkXMLPRectilinearGridReader</text>
</a>
</g>
<!-- Node23&#45;&gt;Node25 -->
<g id="edge48" class="edge"><title>Node23&#45;&gt;Node25</title>
<path fill="none" stroke="midnightblue" d="M1133.08,-124C1146.98,-124 1161.08,-124 1174.79,-124"/>
<polygon fill="midnightblue" stroke="midnightblue" points="1133.01,-120.5 1123.01,-124 1133.01,-127.5 1133.01,-120.5"/>
</g>
<!-- Node26 -->
<g id="node51" class="node"><title>Node26</title>
<a xlink:href="class_kitware_1_1_v_t_k_1_1vtk_x_m_l_p_structured_grid_reader.html" target="_top" xlink:title="vtkXMLPStructuredGridReader &#45; Read PVTK XML StructuredGrid files.">
<polygon fill="none" stroke="black" points="1174,-76 1174,-96 1392,-96 1392,-76 1174,-76"/>
<text text-anchor="middle" x="1283" y="-83" font-family="FreeSans" font-size="10.00">Kitware.VTK.vtkXMLPStructuredGridReader</text>
</a>
</g>
<!-- Node23&#45;&gt;Node26 -->
<g id="edge50" class="edge"><title>Node23&#45;&gt;Node26</title>
<path fill="none" stroke="midnightblue" d="M1093.46,-112.577C1131.04,-107.308 1175.25,-101.109 1211.51,-96.024"/>
<polygon fill="midnightblue" stroke="midnightblue" points="1092.97,-109.111 1083.56,-113.966 1093.95,-116.044 1092.97,-109.111"/>
</g>
<!-- Node28 -->
<g id="node55" class="node"><title>Node28</title>
<a xlink:href="class_kitware_1_1_v_t_k_1_1vtk_x_m_l_p_poly_data_reader.html" target="_top" xlink:title="vtkXMLPPolyDataReader &#45; Read PVTK XML PolyData files.">
<polygon fill="none" stroke="black" points="1187.5,-38 1187.5,-58 1378.5,-58 1378.5,-38 1187.5,-38"/>
<text text-anchor="middle" x="1283" y="-45" font-family="FreeSans" font-size="10.00">Kitware.VTK.vtkXMLPPolyDataReader</text>
</a>
</g>
<!-- Node27&#45;&gt;Node28 -->
<g id="edge54" class="edge"><title>Node27&#45;&gt;Node28</title>
<path fill="none" stroke="midnightblue" d="M1139.74,-48C1155.69,-48 1171.78,-48 1187.12,-48"/>
<polygon fill="midnightblue" stroke="midnightblue" points="1139.29,-44.5001 1129.29,-48 1139.29,-51.5001 1139.29,-44.5001"/>
</g>
<!-- Node29 -->
<g id="node57" class="node"><title>Node29</title>
<a xlink:href="class_kitware_1_1_v_t_k_1_1vtk_x_m_l_p_unstructured_grid_reader.html" target="_top" xlink:title="vtkXMLPUnstructuredGridReader &#45; Read PVTK XML UnstructuredGrid files.">
<polygon fill="none" stroke="black" points="1168,-0 1168,-20 1398,-20 1398,-0 1168,-0"/>
<text text-anchor="middle" x="1283" y="-7" font-family="FreeSans" font-size="10.00">Kitware.VTK.vtkXMLPUnstructuredGridReader</text>
</a>
</g>
<!-- Node27&#45;&gt;Node29 -->
<g id="edge56" class="edge"><title>Node27&#45;&gt;Node29</title>
<path fill="none" stroke="midnightblue" d="M1093.46,-36.5774C1131.04,-31.3083 1175.25,-25.1093 1211.51,-20.024"/>
<polygon fill="midnightblue" stroke="midnightblue" points="1092.97,-33.1114 1083.56,-37.9662 1093.95,-40.0436 1092.97,-33.1114"/>
</g>
</g>
</svg>
