<?xml version="1.0" encoding="UTF-8" standalone="no"?>
<!DOCTYPE svg PUBLIC "-//W3C//DTD SVG 1.1//EN"
 "http://www.w3.org/Graphics/SVG/1.1/DTD/svg11.dtd">
<!-- Generated by graphviz version 2.26.3 (20100126.1600)
 -->
<!-- Title: G Pages: 1 -->
<svg width="308pt" height="378pt"
 viewBox="0.00 0.00 308.00 378.00" xmlns="http://www.w3.org/2000/svg" xmlns:xlink="http://www.w3.org/1999/xlink">
<g id="graph1" class="graph" transform="scale(1 1) rotate(0) translate(4 374)">
<title>G</title>
<!-- Node1 -->
<g id="node1" class="node"><title>Node1</title>
<polygon fill="#bfbfbf" stroke="black" points="-0.5,-1 -0.5,-21 300.5,-21 300.5,-1 -0.5,-1"/>
<text text-anchor="middle" x="150" y="-8" font-family="FreeSans" font-size="10.00">Kitware.VTK.vtkOpenGLCoincidentTopologyResolutionPainter</text>
</g>
<!-- Node2 -->
<g id="node2" class="node"><title>Node2</title>
<a xlink:href="class_kitware_1_1_v_t_k_1_1vtk_coincident_topology_resolution_painter.html" target="_top" xlink:title="vtkCoincidentTopologyResolutionPainter &#45; painter that resolves conicident topology.">
<polygon fill="none" stroke="black" points="48,-59 48,-79 252,-79 252,-59 48,-59"/>
<text text-anchor="middle" x="150" y="-66" font-family="FreeSans" font-size="10.00">vtkCoincidentTopologyResolutionPainter</text>
</a>
</g>
<!-- Node2&#45;&gt;Node1 -->
<g id="edge2" class="edge"><title>Node2&#45;&gt;Node1</title>
<path fill="none" stroke="midnightblue" d="M150,-48.8902C150,-39.6201 150,-29.0083 150,-21.3776"/>
<polygon fill="midnightblue" stroke="midnightblue" points="146.5,-48.8971 150,-58.8972 153.5,-48.8972 146.5,-48.8971"/>
</g>
<!-- Node3 -->
<g id="node4" class="node"><title>Node3</title>
<a xlink:href="class_kitware_1_1_v_t_k_1_1vtk_poly_data_painter.html" target="_top" xlink:title="vtkPolyDataPainter &#45; Abstract class for drawing poly data.">
<polygon fill="none" stroke="black" points="96.5,-117 96.5,-137 203.5,-137 203.5,-117 96.5,-117"/>
<text text-anchor="middle" x="150" y="-124" font-family="FreeSans" font-size="10.00">vtkPolyDataPainter</text>
</a>
</g>
<!-- Node3&#45;&gt;Node2 -->
<g id="edge4" class="edge"><title>Node3&#45;&gt;Node2</title>
<path fill="none" stroke="midnightblue" d="M150,-106.89C150,-97.6201 150,-87.0083 150,-79.3776"/>
<polygon fill="midnightblue" stroke="midnightblue" points="146.5,-106.897 150,-116.897 153.5,-106.897 146.5,-106.897"/>
</g>
<!-- Node4 -->
<g id="node6" class="node"><title>Node4</title>
<a xlink:href="class_kitware_1_1_v_t_k_1_1vtk_painter.html" target="_top" xlink:title="vtkPainter &#45; Abstract class for drawing poly data.">
<polygon fill="none" stroke="black" points="118,-175 118,-195 182,-195 182,-175 118,-175"/>
<text text-anchor="middle" x="150" y="-182" font-family="FreeSans" font-size="10.00">vtkPainter</text>
</a>
</g>
<!-- Node4&#45;&gt;Node3 -->
<g id="edge6" class="edge"><title>Node4&#45;&gt;Node3</title>
<path fill="none" stroke="midnightblue" d="M150,-164.89C150,-155.62 150,-145.008 150,-137.378"/>
<polygon fill="midnightblue" stroke="midnightblue" points="146.5,-164.897 150,-174.897 153.5,-164.897 146.5,-164.897"/>
</g>
<!-- Node5 -->
<g id="node8" class="node"><title>Node5</title>
<a xlink:href="class_kitware_1_1_v_t_k_1_1vtk_object.html" target="_top" xlink:title="vtkObject &#45; abstract base class for most VTK objects">
<polygon fill="none" stroke="black" points="119,-233 119,-253 181,-253 181,-233 119,-233"/>
<text text-anchor="middle" x="150" y="-240" font-family="FreeSans" font-size="10.00">vtkObject</text>
</a>
</g>
<!-- Node5&#45;&gt;Node4 -->
<g id="edge8" class="edge"><title>Node5&#45;&gt;Node4</title>
<path fill="none" stroke="midnightblue" d="M150,-222.89C150,-213.62 150,-203.008 150,-195.378"/>
<polygon fill="midnightblue" stroke="midnightblue" points="146.5,-222.897 150,-232.897 153.5,-222.897 146.5,-222.897"/>
</g>
<!-- Node6 -->
<g id="node10" class="node"><title>Node6</title>
<a xlink:href="class_kitware_1_1_v_t_k_1_1vtk_object_base.html" target="_top" xlink:title="vtkObjectBase &#45; abstract base class for most VTK objects">
<polygon fill="none" stroke="black" points="107,-291 107,-311 193,-311 193,-291 107,-291"/>
<text text-anchor="middle" x="150" y="-298" font-family="FreeSans" font-size="10.00">vtkObjectBase</text>
</a>
</g>
<!-- Node6&#45;&gt;Node5 -->
<g id="edge10" class="edge"><title>Node6&#45;&gt;Node5</title>
<path fill="none" stroke="midnightblue" d="M150,-280.89C150,-271.62 150,-261.008 150,-253.378"/>
<polygon fill="midnightblue" stroke="midnightblue" points="146.5,-280.897 150,-290.897 153.5,-280.897 146.5,-280.897"/>
</g>
<!-- Node7 -->
<g id="node12" class="node"><title>Node7</title>
<a xlink:href="class_kitware_1_1_v_t_k_1_1_wrapped_object.html" target="_top" xlink:title="Base class for all the mummy wrapped classes in Kitware.VTK.">
<polygon fill="none" stroke="black" points="105.5,-349 105.5,-369 194.5,-369 194.5,-349 105.5,-349"/>
<text text-anchor="middle" x="150" y="-356" font-family="FreeSans" font-size="10.00">WrappedObject</text>
</a>
</g>
<!-- Node7&#45;&gt;Node6 -->
<g id="edge12" class="edge"><title>Node7&#45;&gt;Node6</title>
<path fill="none" stroke="midnightblue" d="M150,-338.89C150,-329.62 150,-319.008 150,-311.378"/>
<polygon fill="midnightblue" stroke="midnightblue" points="146.5,-338.897 150,-348.897 153.5,-338.897 146.5,-338.897"/>
</g>
</g>
</svg>
