<?xml version="1.0" encoding="UTF-8" standalone="no"?>
<!DOCTYPE svg PUBLIC "-//W3C//DTD SVG 1.1//EN"
 "http://www.w3.org/Graphics/SVG/1.1/DTD/svg11.dtd">
<!-- Generated by graphviz version 2.26.3 (20100126.1600)
 -->
<!-- Title: G Pages: 1 -->
<svg width="780pt" height="560pt"
 viewBox="0.00 0.00 780.00 560.00" xmlns="http://www.w3.org/2000/svg" xmlns:xlink="http://www.w3.org/1999/xlink">
<g id="graph1" class="graph" transform="scale(1 1) rotate(0) translate(4 556)">
<title>G</title>
<!-- Node1 -->
<g id="node1" class="node"><title>Node1</title>
<polygon fill="#bfbfbf" stroke="black" points="346.5,-266 346.5,-286 527.5,-286 527.5,-266 346.5,-266"/>
<text text-anchor="middle" x="437" y="-273" font-family="FreeSans" font-size="10.00">Kitware.VTK.vtkParametricFunction</text>
</g>
<!-- Node5 -->
<g id="node9" class="node"><title>Node5</title>
<a xlink:href="class_kitware_1_1_v_t_k_1_1vtk_parametric_boy.html" target="_top" xlink:title="vtkParametricBoy &#45; Generate Boy&#39;s surface.">
<polygon fill="none" stroke="black" points="588.5,-532 588.5,-552 747.5,-552 747.5,-532 588.5,-532"/>
<text text-anchor="middle" x="668" y="-539" font-family="FreeSans" font-size="10.00">Kitware.VTK.vtkParametricBoy</text>
</a>
</g>
<!-- Node1&#45;&gt;Node5 -->
<g id="edge8" class="edge"><title>Node1&#45;&gt;Node5</title>
<path fill="none" stroke="midnightblue" d="M441.008,-296.057C451.677,-343.841 485.487,-464.752 564,-523 571.297,-528.413 579.66,-532.444 588.404,-535.423"/>
<polygon fill="midnightblue" stroke="midnightblue" points="444.382,-295.097 438.877,-286.045 437.536,-296.554 444.382,-295.097"/>
</g>
<!-- Node6 -->
<g id="node11" class="node"><title>Node6</title>
<a xlink:href="class_kitware_1_1_v_t_k_1_1vtk_parametric_conic_spiral.html" target="_top" xlink:title="vtkParametricConicSpiral &#45; Generate conic spiral surfaces that resemble sea&#45;shells.">
<polygon fill="none" stroke="black" points="571,-494 571,-514 765,-514 765,-494 571,-494"/>
<text text-anchor="middle" x="668" y="-501" font-family="FreeSans" font-size="10.00">Kitware.VTK.vtkParametricConicSpiral</text>
</a>
</g>
<!-- Node1&#45;&gt;Node6 -->
<g id="edge10" class="edge"><title>Node1&#45;&gt;Node6</title>
<path fill="none" stroke="midnightblue" d="M442.984,-296.124C456.731,-338.597 494.822,-437.394 564,-485 569.141,-488.538 574.751,-491.471 580.614,-493.898"/>
<polygon fill="midnightblue" stroke="midnightblue" points="446.264,-294.886 439.943,-286.383 439.582,-296.972 446.264,-294.886"/>
</g>
<!-- Node7 -->
<g id="node13" class="node"><title>Node7</title>
<a xlink:href="class_kitware_1_1_v_t_k_1_1vtk_parametric_cross_cap.html" target="_top" xlink:title="vtkParametricCrossCap &#45; Generate a cross&#45;cap.">
<polygon fill="none" stroke="black" points="574.5,-456 574.5,-476 761.5,-476 761.5,-456 574.5,-456"/>
<text text-anchor="middle" x="668" y="-463" font-family="FreeSans" font-size="10.00">Kitware.VTK.vtkParametricCrossCap</text>
</a>
</g>
<!-- Node1&#45;&gt;Node7 -->
<g id="edge12" class="edge"><title>Node1&#45;&gt;Node7</title>
<path fill="none" stroke="midnightblue" d="M445.527,-295.664C462.397,-332.031 503.693,-409.497 564,-447 569.767,-450.586 576.039,-453.533 582.551,-455.95"/>
<polygon fill="midnightblue" stroke="midnightblue" points="448.55,-293.853 441.251,-286.174 442.168,-296.729 448.55,-293.853"/>
</g>
<!-- Node8 -->
<g id="node15" class="node"><title>Node8</title>
<a xlink:href="class_kitware_1_1_v_t_k_1_1vtk_parametric_dini.html" target="_top" xlink:title="vtkParametricDini &#45; Generate Dini&#39;s surface.">
<polygon fill="none" stroke="black" points="588.5,-418 588.5,-438 747.5,-438 747.5,-418 588.5,-418"/>
<text text-anchor="middle" x="668" y="-425" font-family="FreeSans" font-size="10.00">Kitware.VTK.vtkParametricDini</text>
</a>
</g>
<!-- Node1&#45;&gt;Node8 -->
<g id="edge14" class="edge"><title>Node1&#45;&gt;Node8</title>
<path fill="none" stroke="midnightblue" d="M448.898,-294.556C468.85,-324.004 512.019,-380.967 564,-409 571.593,-413.095 579.903,-416.326 588.412,-418.874"/>
<polygon fill="midnightblue" stroke="midnightblue" points="451.693,-292.439 443.254,-286.033 445.857,-296.304 451.693,-292.439"/>
</g>
<!-- Node9 -->
<g id="node17" class="node"><title>Node9</title>
<a xlink:href="class_kitware_1_1_v_t_k_1_1vtk_parametric_ellipsoid.html" target="_top" xlink:title="vtkParametricEllipsoid &#45; Generate an ellipsoid.">
<polygon fill="none" stroke="black" points="578.5,-380 578.5,-400 757.5,-400 757.5,-380 578.5,-380"/>
<text text-anchor="middle" x="668" y="-387" font-family="FreeSans" font-size="10.00">Kitware.VTK.vtkParametricEllipsoid</text>
</a>
</g>
<!-- Node1&#45;&gt;Node9 -->
<g id="edge16" class="edge"><title>Node1&#45;&gt;Node9</title>
<path fill="none" stroke="midnightblue" d="M454.41,-293.272C477.426,-315.033 520.205,-351.889 564,-371 572.327,-374.634 581.322,-377.573 590.416,-379.95"/>
<polygon fill="midnightblue" stroke="midnightblue" points="456.756,-290.672 447.124,-286.258 451.901,-295.715 456.756,-290.672"/>
</g>
<!-- Node10 -->
<g id="node19" class="node"><title>Node10</title>
<a xlink:href="class_kitware_1_1_v_t_k_1_1vtk_parametric_enneper.html" target="_top" xlink:title="vtkParametricEnneper &#45; Generate Enneper&#39;s surface.">
<polygon fill="none" stroke="black" points="577.5,-342 577.5,-362 758.5,-362 758.5,-342 577.5,-342"/>
<text text-anchor="middle" x="668" y="-349" font-family="FreeSans" font-size="10.00">Kitware.VTK.vtkParametricEnneper</text>
</a>
</g>
<!-- Node1&#45;&gt;Node10 -->
<g id="edge18" class="edge"><title>Node1&#45;&gt;Node10</title>
<path fill="none" stroke="midnightblue" d="M464.786,-290.826C490.02,-303.715 528.596,-321.999 564,-333 575.393,-336.54 587.705,-339.508 599.735,-341.965"/>
<polygon fill="midnightblue" stroke="midnightblue" points="466.292,-287.665 455.802,-286.177 463.075,-293.882 466.292,-287.665"/>
</g>
<!-- Node11 -->
<g id="node21" class="node"><title>Node11</title>
<a xlink:href="class_kitware_1_1_v_t_k_1_1vtk_parametric_figure8_klein.html" target="_top" xlink:title="vtkParametricFigure8Klein &#45; Generate a figure&#45;8 Klein bottle.">
<polygon fill="none" stroke="black" points="569,-304 569,-324 767,-324 767,-304 569,-304"/>
<text text-anchor="middle" x="668" y="-311" font-family="FreeSans" font-size="10.00">Kitware.VTK.vtkParametricFigure8Klein</text>
</a>
</g>
<!-- Node1&#45;&gt;Node11 -->
<g id="edge20" class="edge"><title>Node1&#45;&gt;Node11</title>
<path fill="none" stroke="midnightblue" d="M508.078,-287.692C539.749,-292.902 576.678,-298.977 607.064,-303.976"/>
<polygon fill="midnightblue" stroke="midnightblue" points="508.43,-284.203 497.995,-286.034 507.294,-291.111 508.43,-284.203"/>
</g>
<!-- Node12 -->
<g id="node23" class="node"><title>Node12</title>
<a xlink:href="class_kitware_1_1_v_t_k_1_1vtk_parametric_klein.html" target="_top" xlink:title="vtkParametricKlein &#45; Generates a &quot;classical&quot; representation of a Klein bottle.">
<polygon fill="none" stroke="black" points="586,-266 586,-286 750,-286 750,-266 586,-266"/>
<text text-anchor="middle" x="668" y="-273" font-family="FreeSans" font-size="10.00">Kitware.VTK.vtkParametricKlein</text>
</a>
</g>
<!-- Node1&#45;&gt;Node12 -->
<g id="edge22" class="edge"><title>Node1&#45;&gt;Node12</title>
<path fill="none" stroke="midnightblue" d="M538.071,-276C554.056,-276 570.415,-276 585.897,-276"/>
<polygon fill="midnightblue" stroke="midnightblue" points="537.634,-272.5 527.634,-276 537.634,-279.5 537.634,-272.5"/>
</g>
<!-- Node13 -->
<g id="node25" class="node"><title>Node13</title>
<a xlink:href="class_kitware_1_1_v_t_k_1_1vtk_parametric_mobius.html" target="_top" xlink:title="vtkParametricMobius &#45; Generate a Mobius strip.">
<polygon fill="none" stroke="black" points="580.5,-228 580.5,-248 755.5,-248 755.5,-228 580.5,-228"/>
<text text-anchor="middle" x="668" y="-235" font-family="FreeSans" font-size="10.00">Kitware.VTK.vtkParametricMobius</text>
</a>
</g>
<!-- Node1&#45;&gt;Node13 -->
<g id="edge24" class="edge"><title>Node1&#45;&gt;Node13</title>
<path fill="none" stroke="midnightblue" d="M508.078,-264.308C539.749,-259.098 576.678,-253.023 607.064,-248.024"/>
<polygon fill="midnightblue" stroke="midnightblue" points="507.294,-260.889 497.995,-265.966 508.43,-267.797 507.294,-260.889"/>
</g>
<!-- Node14 -->
<g id="node27" class="node"><title>Node14</title>
<a xlink:href="class_kitware_1_1_v_t_k_1_1vtk_parametric_random_hills.html" target="_top" xlink:title="vtkParametricRandomHills &#45; Generate a surface covered with randomly placed hills.">
<polygon fill="none" stroke="black" points="568,-190 568,-210 768,-210 768,-190 568,-190"/>
<text text-anchor="middle" x="668" y="-197" font-family="FreeSans" font-size="10.00">Kitware.VTK.vtkParametricRandomHills</text>
</a>
</g>
<!-- Node1&#45;&gt;Node14 -->
<g id="edge26" class="edge"><title>Node1&#45;&gt;Node14</title>
<path fill="none" stroke="midnightblue" d="M464.786,-261.174C490.02,-248.285 528.596,-230.001 564,-219 575.393,-215.46 587.705,-212.492 599.735,-210.035"/>
<polygon fill="midnightblue" stroke="midnightblue" points="463.075,-258.118 455.802,-265.823 466.292,-264.335 463.075,-258.118"/>
</g>
<!-- Node15 -->
<g id="node29" class="node"><title>Node15</title>
<a xlink:href="class_kitware_1_1_v_t_k_1_1vtk_parametric_roman.html" target="_top" xlink:title="vtkParametricRoman &#45; Generate Steiner&#39;s Roman Surface.">
<polygon fill="none" stroke="black" points="581,-152 581,-172 755,-172 755,-152 581,-152"/>
<text text-anchor="middle" x="668" y="-159" font-family="FreeSans" font-size="10.00">Kitware.VTK.vtkParametricRoman</text>
</a>
</g>
<!-- Node1&#45;&gt;Node15 -->
<g id="edge28" class="edge"><title>Node1&#45;&gt;Node15</title>
<path fill="none" stroke="midnightblue" d="M454.41,-258.728C477.426,-236.967 520.205,-200.111 564,-181 572.327,-177.366 581.322,-174.427 590.416,-172.05"/>
<polygon fill="midnightblue" stroke="midnightblue" points="451.901,-256.285 447.124,-265.742 456.756,-261.328 451.901,-256.285"/>
</g>
<!-- Node16 -->
<g id="node31" class="node"><title>Node16</title>
<a xlink:href="class_kitware_1_1_v_t_k_1_1vtk_parametric_spline.html" target="_top" xlink:title="vtkParametricSpline &#45; parametric function for 1D interpolating splines">
<polygon fill="none" stroke="black" points="583,-114 583,-134 753,-134 753,-114 583,-114"/>
<text text-anchor="middle" x="668" y="-121" font-family="FreeSans" font-size="10.00">Kitware.VTK.vtkParametricSpline</text>
</a>
</g>
<!-- Node1&#45;&gt;Node16 -->
<g id="edge30" class="edge"><title>Node1&#45;&gt;Node16</title>
<path fill="none" stroke="midnightblue" d="M448.898,-257.444C468.85,-227.996 512.019,-171.033 564,-143 570.704,-139.384 577.968,-136.442 585.434,-134.049"/>
<polygon fill="midnightblue" stroke="midnightblue" points="445.857,-255.696 443.254,-265.967 451.693,-259.561 445.857,-255.696"/>
</g>
<!-- Node17 -->
<g id="node33" class="node"><title>Node17</title>
<a xlink:href="class_kitware_1_1_v_t_k_1_1vtk_parametric_super_ellipsoid.html" target="_top" xlink:title="vtkParametricSuperEllipsoid &#45; Generate a superellipsoid.">
<polygon fill="none" stroke="black" points="564,-76 564,-96 772,-96 772,-76 564,-76"/>
<text text-anchor="middle" x="668" y="-83" font-family="FreeSans" font-size="10.00">Kitware.VTK.vtkParametricSuperEllipsoid</text>
</a>
</g>
<!-- Node1&#45;&gt;Node17 -->
<g id="edge32" class="edge"><title>Node1&#45;&gt;Node17</title>
<path fill="none" stroke="midnightblue" d="M445.527,-256.336C462.397,-219.969 503.693,-142.503 564,-105 569.767,-101.414 576.039,-98.4672 582.551,-96.0504"/>
<polygon fill="midnightblue" stroke="midnightblue" points="442.168,-255.271 441.251,-265.826 448.55,-258.147 442.168,-255.271"/>
</g>
<!-- Node18 -->
<g id="node35" class="node"><title>Node18</title>
<a xlink:href="class_kitware_1_1_v_t_k_1_1vtk_parametric_super_toroid.html" target="_top" xlink:title="vtkParametricSuperToroid &#45; Generate a supertoroid.">
<polygon fill="none" stroke="black" points="569.5,-38 569.5,-58 766.5,-58 766.5,-38 569.5,-38"/>
<text text-anchor="middle" x="668" y="-45" font-family="FreeSans" font-size="10.00">Kitware.VTK.vtkParametricSuperToroid</text>
</a>
</g>
<!-- Node1&#45;&gt;Node18 -->
<g id="edge34" class="edge"><title>Node1&#45;&gt;Node18</title>
<path fill="none" stroke="midnightblue" d="M442.984,-255.876C456.731,-213.403 494.822,-114.606 564,-67 569.141,-63.4623 574.751,-60.5291 580.614,-58.1024"/>
<polygon fill="midnightblue" stroke="midnightblue" points="439.582,-255.028 439.943,-265.617 446.264,-257.114 439.582,-255.028"/>
</g>
<!-- Node19 -->
<g id="node37" class="node"><title>Node19</title>
<a xlink:href="class_kitware_1_1_v_t_k_1_1vtk_parametric_torus.html" target="_top" xlink:title="vtkParametricTorus &#45; Generate a torus.">
<polygon fill="none" stroke="black" points="585,-0 585,-20 751,-20 751,-0 585,-0"/>
<text text-anchor="middle" x="668" y="-7" font-family="FreeSans" font-size="10.00">Kitware.VTK.vtkParametricTorus</text>
</a>
</g>
<!-- Node1&#45;&gt;Node19 -->
<g id="edge36" class="edge"><title>Node1&#45;&gt;Node19</title>
<path fill="none" stroke="midnightblue" d="M441.008,-255.943C451.677,-208.159 485.487,-87.2479 564,-29 570.339,-24.2975 577.482,-20.6388 584.981,-17.8057"/>
<polygon fill="midnightblue" stroke="midnightblue" points="437.536,-255.446 438.877,-265.955 444.382,-256.903 437.536,-255.446"/>
</g>
<!-- Node2 -->
<g id="node2" class="node"><title>Node2</title>
<a xlink:href="class_kitware_1_1_v_t_k_1_1vtk_object.html" target="_top" xlink:title="vtkObject &#45; abstract base class for most VTK objects">
<polygon fill="none" stroke="black" points="248,-266 248,-286 310,-286 310,-266 248,-266"/>
<text text-anchor="middle" x="279" y="-273" font-family="FreeSans" font-size="10.00">vtkObject</text>
</a>
</g>
<!-- Node2&#45;&gt;Node1 -->
<g id="edge2" class="edge"><title>Node2&#45;&gt;Node1</title>
<path fill="none" stroke="midnightblue" d="M320.479,-276C328.621,-276 337.455,-276 346.495,-276"/>
<polygon fill="midnightblue" stroke="midnightblue" points="320.216,-272.5 310.216,-276 320.216,-279.5 320.216,-272.5"/>
</g>
<!-- Node3 -->
<g id="node4" class="node"><title>Node3</title>
<a xlink:href="class_kitware_1_1_v_t_k_1_1vtk_object_base.html" target="_top" xlink:title="vtkObjectBase &#45; abstract base class for most VTK objects">
<polygon fill="none" stroke="black" points="126,-266 126,-286 212,-286 212,-266 126,-266"/>
<text text-anchor="middle" x="169" y="-273" font-family="FreeSans" font-size="10.00">vtkObjectBase</text>
</a>
</g>
<!-- Node3&#45;&gt;Node2 -->
<g id="edge4" class="edge"><title>Node3&#45;&gt;Node2</title>
<path fill="none" stroke="midnightblue" d="M222.346,-276C231.091,-276 239.892,-276 247.863,-276"/>
<polygon fill="midnightblue" stroke="midnightblue" points="222.159,-272.5 212.159,-276 222.159,-279.5 222.159,-272.5"/>
</g>
<!-- Node4 -->
<g id="node6" class="node"><title>Node4</title>
<a xlink:href="class_kitware_1_1_v_t_k_1_1_wrapped_object.html" target="_top" xlink:title="Base class for all the mummy wrapped classes in Kitware.VTK.">
<polygon fill="none" stroke="black" points="0.5,-266 0.5,-286 89.5,-286 89.5,-266 0.5,-266"/>
<text text-anchor="middle" x="45" y="-273" font-family="FreeSans" font-size="10.00">WrappedObject</text>
</a>
</g>
<!-- Node4&#45;&gt;Node3 -->
<g id="edge6" class="edge"><title>Node4&#45;&gt;Node3</title>
<path fill="none" stroke="midnightblue" d="M99.8895,-276C108.623,-276 117.548,-276 125.957,-276"/>
<polygon fill="midnightblue" stroke="midnightblue" points="99.7669,-272.5 89.7668,-276 99.7668,-279.5 99.7669,-272.5"/>
</g>
</g>
</svg>
