<?xml version="1.0" encoding="UTF-8" standalone="no"?>
<!DOCTYPE svg PUBLIC "-//W3C//DTD SVG 1.1//EN"
 "http://www.w3.org/Graphics/SVG/1.1/DTD/svg11.dtd">
<!-- Generated by graphviz version 2.26.3 (20100126.1600)
 -->
<!-- Title: G Pages: 1 -->
<svg width="392pt" height="710pt"
 viewBox="0.00 0.00 392.46 710.00" xmlns="http://www.w3.org/2000/svg" xmlns:xlink="http://www.w3.org/1999/xlink">
<g id="graph1" class="graph" transform="scale(1 1) rotate(0) translate(4 706)">
<title>G</title>
<!-- Node1 -->
<g id="node1" class="node"><title>Node1</title>
<polygon fill="#bfbfbf" stroke="black" points="-0.5,-1 -0.5,-21 112.5,-21 112.5,-1 -0.5,-1"/>
<text text-anchor="middle" x="56" y="-8" font-family="FreeSans" font-size="10.00">Kitware.VTK.vtkTetra</text>
</g>
<!-- Node2 -->
<g id="node2" class="node"><title>Node2</title>
<a xlink:href="class_kitware_1_1_v_t_k_1_1vtk_cell3_d.html" target="_top" xlink:title="vtkCell3D &#45; abstract class to specify 3D cell interface">
<polygon fill="none" stroke="black" points="25,-61 25,-81 87,-81 87,-61 25,-61"/>
<text text-anchor="middle" x="56" y="-68" font-family="FreeSans" font-size="10.00">vtkCell3D</text>
</a>
</g>
<!-- Node2&#45;&gt;Node1 -->
<g id="edge2" class="edge"><title>Node2&#45;&gt;Node1</title>
<path fill="none" stroke="midnightblue" d="M56,-50.5155C56,-40.562 56,-29.0495 56,-21.0279"/>
<polygon fill="midnightblue" stroke="midnightblue" points="52.5001,-50.8218 56,-60.8218 59.5001,-50.8219 52.5001,-50.8218"/>
</g>
<!-- Node3 -->
<g id="node4" class="node"><title>Node3</title>
<a xlink:href="class_kitware_1_1_v_t_k_1_1vtk_cell.html" target="_top" xlink:title="vtkCell &#45; abstract class to specify cell behavior">
<polygon fill="none" stroke="black" points="32,-121 32,-141 80,-141 80,-121 32,-121"/>
<text text-anchor="middle" x="56" y="-128" font-family="FreeSans" font-size="10.00">vtkCell</text>
</a>
</g>
<!-- Node3&#45;&gt;Node2 -->
<g id="edge4" class="edge"><title>Node3&#45;&gt;Node2</title>
<path fill="none" stroke="midnightblue" d="M56,-110.516C56,-100.562 56,-89.0495 56,-81.0279"/>
<polygon fill="midnightblue" stroke="midnightblue" points="52.5001,-110.822 56,-120.822 59.5001,-110.822 52.5001,-110.822"/>
</g>
<!-- Node4 -->
<g id="node6" class="node"><title>Node4</title>
<a xlink:href="class_kitware_1_1_v_t_k_1_1vtk_object.html" target="_top" xlink:title="vtkObject &#45; abstract base class for most VTK objects">
<polygon fill="none" stroke="black" points="25,-181 25,-201 87,-201 87,-181 25,-181"/>
<text text-anchor="middle" x="56" y="-188" font-family="FreeSans" font-size="10.00">vtkObject</text>
</a>
</g>
<!-- Node4&#45;&gt;Node3 -->
<g id="edge6" class="edge"><title>Node4&#45;&gt;Node3</title>
<path fill="none" stroke="midnightblue" d="M56,-170.516C56,-160.562 56,-149.05 56,-141.028"/>
<polygon fill="midnightblue" stroke="midnightblue" points="52.5001,-170.822 56,-180.822 59.5001,-170.822 52.5001,-170.822"/>
</g>
<!-- Node5 -->
<g id="node8" class="node"><title>Node5</title>
<a xlink:href="class_kitware_1_1_v_t_k_1_1vtk_object_base.html" target="_top" xlink:title="vtkObjectBase &#45; abstract base class for most VTK objects">
<polygon fill="none" stroke="black" points="76,-621 76,-641 162,-641 162,-621 76,-621"/>
<text text-anchor="middle" x="119" y="-628" font-family="FreeSans" font-size="10.00">vtkObjectBase</text>
</a>
</g>
<!-- Node5&#45;&gt;Node4 -->
<g id="edge8" class="edge"><title>Node5&#45;&gt;Node4</title>
<path fill="none" stroke="midnightblue" d="M90.4228,-615.886C76.6866,-607.44 60.8844,-595.826 50,-582 38.1564,-566.955 37.6209,-560.802 34,-542 8.42483,-409.199 43.5766,-243.437 53.5155,-201.17"/>
<polygon fill="midnightblue" stroke="midnightblue" points="88.6834,-618.923 99.0788,-620.97 92.2285,-612.887 88.6834,-618.923"/>
</g>
<!-- Node8 -->
<g id="node15" class="node"><title>Node8</title>
<a xlink:href="class_kitware_1_1_v_t_k_1_1vtk_object.html" target="_top" xlink:title="vtkObject &#45; abstract base class for most VTK objects">
<polygon fill="none" stroke="black" points="59,-561 59,-581 179,-581 179,-561 59,-561"/>
<text text-anchor="middle" x="119" y="-568" font-family="FreeSans" font-size="10.00">Kitware.VTK.vtkObject</text>
</a>
</g>
<!-- Node5&#45;&gt;Node8 -->
<g id="edge18" class="edge"><title>Node5&#45;&gt;Node8</title>
<path fill="none" stroke="midnightblue" d="M119,-610.516C119,-600.562 119,-589.05 119,-581.028"/>
<polygon fill="midnightblue" stroke="midnightblue" points="115.5,-610.822 119,-620.822 122.5,-610.822 115.5,-610.822"/>
</g>
<!-- Node6 -->
<g id="node10" class="node"><title>Node6</title>
<a xlink:href="class_kitware_1_1_v_t_k_1_1_wrapped_object.html" target="_top" xlink:title="Base class for all the mummy wrapped classes in Kitware.VTK.">
<polygon fill="none" stroke="black" points="257.5,-681 257.5,-701 346.5,-701 346.5,-681 257.5,-681"/>
<text text-anchor="middle" x="302" y="-688" font-family="FreeSans" font-size="10.00">WrappedObject</text>
</a>
</g>
<!-- Node6&#45;&gt;Node5 -->
<g id="edge10" class="edge"><title>Node6&#45;&gt;Node5</title>
<path fill="none" stroke="midnightblue" d="M261.804,-677.821C228.042,-666.752 180.512,-651.168 149.73,-641.075"/>
<polygon fill="midnightblue" stroke="midnightblue" points="260.777,-681.168 271.37,-680.957 262.958,-674.516 260.777,-681.168"/>
</g>
<!-- Node7 -->
<g id="node12" class="node"><title>Node7</title>
<a xlink:href="class_kitware_1_1_v_t_k_1_1vtk_object_event_relay.html" target="_top" xlink:title="Implement a relay handler for VTK events. This is a class that receives events directly from the VTK ...">
<polygon fill="none" stroke="black" points="48,-371 48,-391 220,-391 220,-371 48,-371"/>
<text text-anchor="middle" x="134" y="-378" font-family="FreeSans" font-size="10.00">Kitware.VTK.vtkObjectEventRelay</text>
</a>
</g>
<!-- Node6&#45;&gt;Node7 -->
<g id="edge14" class="edge"><title>Node6&#45;&gt;Node7</title>
<path fill="none" stroke="midnightblue" d="M314.888,-672.325C347.276,-622.899 424.803,-487.191 357,-410 347.773,-399.495 279.047,-391.666 220.298,-386.808"/>
<polygon fill="midnightblue" stroke="midnightblue" points="311.891,-670.509 309.239,-680.767 317.709,-674.402 311.891,-670.509"/>
</g>
<!-- Node7&#45;&gt;Node4 -->
<g id="edge12" class="edge"><title>Node7&#45;&gt;Node4</title>
<path fill="none" stroke="#9a32cd" stroke-dasharray="5,2" d="M125.921,-361.321C109.489,-321.293 72.6738,-231.616 60.2144,-201.266"/>
<polygon fill="#9a32cd" stroke="#9a32cd" points="122.771,-362.863 129.806,-370.785 129.246,-360.205 122.771,-362.863"/>
<text text-anchor="middle" x="233.5" y="-343" font-family="FreeSans" font-size="10.00"> LeftButtonReleaseEvtRelay</text>
<text text-anchor="middle" x="233.5" y="-331" font-family="FreeSans" font-size="10.00">KeyPressEvtRelay</text>
<text text-anchor="middle" x="233.5" y="-319" font-family="FreeSans" font-size="10.00">DomainModifiedEvtRelay</text>
<text text-anchor="middle" x="233.5" y="-307" font-family="FreeSans" font-size="10.00">VolumeMapperComputeGradientsStartEvtRelay</text>
<text text-anchor="middle" x="233.5" y="-295" font-family="FreeSans" font-size="10.00">ErrorEvtRelay</text>
<text text-anchor="middle" x="233.5" y="-283" font-family="FreeSans" font-size="10.00">VolumeMapperRenderStartEvtRelay</text>
<text text-anchor="middle" x="233.5" y="-271" font-family="FreeSans" font-size="10.00">StartEvtRelay</text>
<text text-anchor="middle" x="233.5" y="-259" font-family="FreeSans" font-size="10.00">ResetCameraEvtRelay</text>
<text text-anchor="middle" x="233.5" y="-247" font-family="FreeSans" font-size="10.00">EnableEvtRelay</text>
<text text-anchor="middle" x="233.5" y="-235" font-family="FreeSans" font-size="10.00">DeleteEvtRelay</text>
<text text-anchor="middle" x="233.5" y="-223" font-family="FreeSans" font-size="10.00">...</text>
</g>
<!-- Node7&#45;&gt;Node8 -->
<g id="edge20" class="edge"><title>Node7&#45;&gt;Node8</title>
<path fill="none" stroke="#9a32cd" stroke-dasharray="5,2" d="M131.028,-401.231C130.649,-404.169 130.293,-407.159 130,-410 124.144,-466.853 120.636,-535.333 119.452,-560.807"/>
<polygon fill="#9a32cd" stroke="#9a32cd" points="134.515,-401.565 132.421,-391.179 127.582,-400.604 134.515,-401.565"/>
<text text-anchor="middle" x="243.5" y="-533" font-family="FreeSans" font-size="10.00"> LeftButtonReleaseEvtRelay</text>
<text text-anchor="middle" x="243.5" y="-521" font-family="FreeSans" font-size="10.00">KeyPressEvtRelay</text>
<text text-anchor="middle" x="243.5" y="-509" font-family="FreeSans" font-size="10.00">DomainModifiedEvtRelay</text>
<text text-anchor="middle" x="243.5" y="-497" font-family="FreeSans" font-size="10.00">VolumeMapperComputeGradientsStartEvtRelay</text>
<text text-anchor="middle" x="243.5" y="-485" font-family="FreeSans" font-size="10.00">ErrorEvtRelay</text>
<text text-anchor="middle" x="243.5" y="-473" font-family="FreeSans" font-size="10.00">VolumeMapperRenderStartEvtRelay</text>
<text text-anchor="middle" x="243.5" y="-461" font-family="FreeSans" font-size="10.00">StartEvtRelay</text>
<text text-anchor="middle" x="243.5" y="-449" font-family="FreeSans" font-size="10.00">ResetCameraEvtRelay</text>
<text text-anchor="middle" x="243.5" y="-437" font-family="FreeSans" font-size="10.00">EnableEvtRelay</text>
<text text-anchor="middle" x="243.5" y="-425" font-family="FreeSans" font-size="10.00">DeleteEvtRelay</text>
<text text-anchor="middle" x="243.5" y="-413" font-family="FreeSans" font-size="10.00">...</text>
</g>
<!-- Node8&#45;&gt;Node7 -->
<g id="edge16" class="edge"><title>Node8&#45;&gt;Node7</title>
<path fill="none" stroke="#9a32cd" stroke-dasharray="5,2" d="M72.9794,-555.818C67.4393,-552.138 62.5104,-547.596 59,-542 27.8229,-492.303 25.8299,-458.389 59,-410 63.7359,-403.091 80.5114,-396.287 96.9987,-391.008"/>
<polygon fill="#9a32cd" stroke="#9a32cd" points="71.6386,-559.079 82.0724,-560.919 75.0636,-552.974 71.6386,-559.079"/>
<text text-anchor="middle" x="83" y="-479" font-family="FreeSans" font-size="10.00"> Sender</text>
<text text-anchor="middle" x="83" y="-467" font-family="FreeSans" font-size="10.00">EventImpl</text>
</g>
</g>
</svg>
