<?xml version="1.0" encoding="UTF-8" standalone="no"?>
<!DOCTYPE svg PUBLIC "-//W3C//DTD SVG 1.1//EN"
 "http://www.w3.org/Graphics/SVG/1.1/DTD/svg11.dtd">
<!-- Generated by graphviz version 2.26.3 (20100126.1600)
 -->
<!-- Title: G Pages: 1 -->
<svg width="425pt" height="770pt"
 viewBox="0.00 0.00 425.46 770.00" xmlns="http://www.w3.org/2000/svg" xmlns:xlink="http://www.w3.org/1999/xlink">
<g id="graph1" class="graph" transform="scale(1 1) rotate(0) translate(4 766)">
<title>G</title>
<!-- Node1 -->
<g id="node1" class="node"><title>Node1</title>
<polygon fill="#bfbfbf" stroke="black" points="-0.5,-1 -0.5,-21 178.5,-21 178.5,-1 -0.5,-1"/>
<text text-anchor="middle" x="89" y="-8" font-family="FreeSans" font-size="10.00">Kitware.VTK.vtkExtractSelectedIds</text>
</g>
<!-- Node2 -->
<g id="node2" class="node"><title>Node2</title>
<a xlink:href="class_kitware_1_1_v_t_k_1_1vtk_extract_selection_base.html" target="_top" xlink:title="vtkExtractSelectionBase &#45; abstract base class for all extract selection filters.">
<polygon fill="none" stroke="black" points="22.5,-61 22.5,-81 155.5,-81 155.5,-61 22.5,-61"/>
<text text-anchor="middle" x="89" y="-68" font-family="FreeSans" font-size="10.00">vtkExtractSelectionBase</text>
</a>
</g>
<!-- Node2&#45;&gt;Node1 -->
<g id="edge2" class="edge"><title>Node2&#45;&gt;Node1</title>
<path fill="none" stroke="midnightblue" d="M89,-50.5155C89,-40.562 89,-29.0495 89,-21.0279"/>
<polygon fill="midnightblue" stroke="midnightblue" points="85.5001,-50.8218 89,-60.8218 92.5001,-50.8219 85.5001,-50.8218"/>
</g>
<!-- Node3 -->
<g id="node4" class="node"><title>Node3</title>
<a xlink:href="class_kitware_1_1_v_t_k_1_1vtk_data_object_algorithm.html" target="_top" xlink:title="vtkDataObjectAlgorithm &#45; Superclass for algorithms that produce only data object as output...">
<polygon fill="none" stroke="black" points="23.5,-121 23.5,-141 154.5,-141 154.5,-121 23.5,-121"/>
<text text-anchor="middle" x="89" y="-128" font-family="FreeSans" font-size="10.00">vtkDataObjectAlgorithm</text>
</a>
</g>
<!-- Node3&#45;&gt;Node2 -->
<g id="edge4" class="edge"><title>Node3&#45;&gt;Node2</title>
<path fill="none" stroke="midnightblue" d="M89,-110.516C89,-100.562 89,-89.0495 89,-81.0279"/>
<polygon fill="midnightblue" stroke="midnightblue" points="85.5001,-110.822 89,-120.822 92.5001,-110.822 85.5001,-110.822"/>
</g>
<!-- Node4 -->
<g id="node6" class="node"><title>Node4</title>
<a xlink:href="class_kitware_1_1_v_t_k_1_1vtk_algorithm.html" target="_top" xlink:title="vtkAlgorithm &#45; Superclass for all sources, filters, and sinks in VTK.">
<polygon fill="none" stroke="black" points="50.5,-181 50.5,-201 127.5,-201 127.5,-181 50.5,-181"/>
<text text-anchor="middle" x="89" y="-188" font-family="FreeSans" font-size="10.00">vtkAlgorithm</text>
</a>
</g>
<!-- Node4&#45;&gt;Node3 -->
<g id="edge6" class="edge"><title>Node4&#45;&gt;Node3</title>
<path fill="none" stroke="midnightblue" d="M89,-170.516C89,-160.562 89,-149.05 89,-141.028"/>
<polygon fill="midnightblue" stroke="midnightblue" points="85.5001,-170.822 89,-180.822 92.5001,-170.822 85.5001,-170.822"/>
</g>
<!-- Node5 -->
<g id="node8" class="node"><title>Node5</title>
<a xlink:href="class_kitware_1_1_v_t_k_1_1vtk_object.html" target="_top" xlink:title="vtkObject &#45; abstract base class for most VTK objects">
<polygon fill="none" stroke="black" points="58,-241 58,-261 120,-261 120,-241 58,-241"/>
<text text-anchor="middle" x="89" y="-248" font-family="FreeSans" font-size="10.00">vtkObject</text>
</a>
</g>
<!-- Node5&#45;&gt;Node4 -->
<g id="edge8" class="edge"><title>Node5&#45;&gt;Node4</title>
<path fill="none" stroke="midnightblue" d="M89,-230.516C89,-220.562 89,-209.05 89,-201.028"/>
<polygon fill="midnightblue" stroke="midnightblue" points="85.5001,-230.822 89,-240.822 92.5001,-230.822 85.5001,-230.822"/>
</g>
<!-- Node6 -->
<g id="node10" class="node"><title>Node6</title>
<a xlink:href="class_kitware_1_1_v_t_k_1_1vtk_object_base.html" target="_top" xlink:title="vtkObjectBase &#45; abstract base class for most VTK objects">
<polygon fill="none" stroke="black" points="109,-681 109,-701 195,-701 195,-681 109,-681"/>
<text text-anchor="middle" x="152" y="-688" font-family="FreeSans" font-size="10.00">vtkObjectBase</text>
</a>
</g>
<!-- Node6&#45;&gt;Node5 -->
<g id="edge10" class="edge"><title>Node6&#45;&gt;Node5</title>
<path fill="none" stroke="midnightblue" d="M123.423,-675.886C109.687,-667.44 93.8844,-655.826 83,-642 71.1564,-626.955 70.6209,-620.802 67,-602 41.4248,-469.199 76.5766,-303.437 86.5155,-261.17"/>
<polygon fill="midnightblue" stroke="midnightblue" points="121.683,-678.923 132.079,-680.97 125.229,-672.887 121.683,-678.923"/>
</g>
<!-- Node9 -->
<g id="node17" class="node"><title>Node9</title>
<a xlink:href="class_kitware_1_1_v_t_k_1_1vtk_object.html" target="_top" xlink:title="vtkObject &#45; abstract base class for most VTK objects">
<polygon fill="none" stroke="black" points="92,-621 92,-641 212,-641 212,-621 92,-621"/>
<text text-anchor="middle" x="152" y="-628" font-family="FreeSans" font-size="10.00">Kitware.VTK.vtkObject</text>
</a>
</g>
<!-- Node6&#45;&gt;Node9 -->
<g id="edge20" class="edge"><title>Node6&#45;&gt;Node9</title>
<path fill="none" stroke="midnightblue" d="M152,-670.516C152,-660.562 152,-649.05 152,-641.028"/>
<polygon fill="midnightblue" stroke="midnightblue" points="148.5,-670.822 152,-680.822 155.5,-670.822 148.5,-670.822"/>
</g>
<!-- Node7 -->
<g id="node12" class="node"><title>Node7</title>
<a xlink:href="class_kitware_1_1_v_t_k_1_1_wrapped_object.html" target="_top" xlink:title="Base class for all the mummy wrapped classes in Kitware.VTK.">
<polygon fill="none" stroke="black" points="290.5,-741 290.5,-761 379.5,-761 379.5,-741 290.5,-741"/>
<text text-anchor="middle" x="335" y="-748" font-family="FreeSans" font-size="10.00">WrappedObject</text>
</a>
</g>
<!-- Node7&#45;&gt;Node6 -->
<g id="edge12" class="edge"><title>Node7&#45;&gt;Node6</title>
<path fill="none" stroke="midnightblue" d="M294.804,-737.821C261.042,-726.752 213.512,-711.168 182.73,-701.075"/>
<polygon fill="midnightblue" stroke="midnightblue" points="293.777,-741.168 304.37,-740.957 295.958,-734.516 293.777,-741.168"/>
</g>
<!-- Node8 -->
<g id="node14" class="node"><title>Node8</title>
<a xlink:href="class_kitware_1_1_v_t_k_1_1vtk_object_event_relay.html" target="_top" xlink:title="Implement a relay handler for VTK events. This is a class that receives events directly from the VTK ...">
<polygon fill="none" stroke="black" points="81,-431 81,-451 253,-451 253,-431 81,-431"/>
<text text-anchor="middle" x="167" y="-438" font-family="FreeSans" font-size="10.00">Kitware.VTK.vtkObjectEventRelay</text>
</a>
</g>
<!-- Node7&#45;&gt;Node8 -->
<g id="edge16" class="edge"><title>Node7&#45;&gt;Node8</title>
<path fill="none" stroke="midnightblue" d="M347.888,-732.325C380.276,-682.899 457.803,-547.191 390,-470 380.773,-459.495 312.047,-451.666 253.298,-446.808"/>
<polygon fill="midnightblue" stroke="midnightblue" points="344.891,-730.509 342.239,-740.767 350.709,-734.402 344.891,-730.509"/>
</g>
<!-- Node8&#45;&gt;Node5 -->
<g id="edge14" class="edge"><title>Node8&#45;&gt;Node5</title>
<path fill="none" stroke="#9a32cd" stroke-dasharray="5,2" d="M158.921,-421.321C142.489,-381.293 105.674,-291.616 93.2144,-261.266"/>
<polygon fill="#9a32cd" stroke="#9a32cd" points="155.771,-422.863 162.806,-430.785 162.246,-420.205 155.771,-422.863"/>
<text text-anchor="middle" x="266.5" y="-403" font-family="FreeSans" font-size="10.00"> LeftButtonReleaseEvtRelay</text>
<text text-anchor="middle" x="266.5" y="-391" font-family="FreeSans" font-size="10.00">KeyPressEvtRelay</text>
<text text-anchor="middle" x="266.5" y="-379" font-family="FreeSans" font-size="10.00">DomainModifiedEvtRelay</text>
<text text-anchor="middle" x="266.5" y="-367" font-family="FreeSans" font-size="10.00">VolumeMapperComputeGradientsStartEvtRelay</text>
<text text-anchor="middle" x="266.5" y="-355" font-family="FreeSans" font-size="10.00">ErrorEvtRelay</text>
<text text-anchor="middle" x="266.5" y="-343" font-family="FreeSans" font-size="10.00">VolumeMapperRenderStartEvtRelay</text>
<text text-anchor="middle" x="266.5" y="-331" font-family="FreeSans" font-size="10.00">StartEvtRelay</text>
<text text-anchor="middle" x="266.5" y="-319" font-family="FreeSans" font-size="10.00">ResetCameraEvtRelay</text>
<text text-anchor="middle" x="266.5" y="-307" font-family="FreeSans" font-size="10.00">EnableEvtRelay</text>
<text text-anchor="middle" x="266.5" y="-295" font-family="FreeSans" font-size="10.00">DeleteEvtRelay</text>
<text text-anchor="middle" x="266.5" y="-283" font-family="FreeSans" font-size="10.00">...</text>
</g>
<!-- Node8&#45;&gt;Node9 -->
<g id="edge22" class="edge"><title>Node8&#45;&gt;Node9</title>
<path fill="none" stroke="#9a32cd" stroke-dasharray="5,2" d="M164.028,-461.231C163.649,-464.169 163.293,-467.159 163,-470 157.144,-526.853 153.636,-595.333 152.452,-620.807"/>
<polygon fill="#9a32cd" stroke="#9a32cd" points="167.515,-461.565 165.421,-451.179 160.582,-460.604 167.515,-461.565"/>
<text text-anchor="middle" x="276.5" y="-593" font-family="FreeSans" font-size="10.00"> LeftButtonReleaseEvtRelay</text>
<text text-anchor="middle" x="276.5" y="-581" font-family="FreeSans" font-size="10.00">KeyPressEvtRelay</text>
<text text-anchor="middle" x="276.5" y="-569" font-family="FreeSans" font-size="10.00">DomainModifiedEvtRelay</text>
<text text-anchor="middle" x="276.5" y="-557" font-family="FreeSans" font-size="10.00">VolumeMapperComputeGradientsStartEvtRelay</text>
<text text-anchor="middle" x="276.5" y="-545" font-family="FreeSans" font-size="10.00">ErrorEvtRelay</text>
<text text-anchor="middle" x="276.5" y="-533" font-family="FreeSans" font-size="10.00">VolumeMapperRenderStartEvtRelay</text>
<text text-anchor="middle" x="276.5" y="-521" font-family="FreeSans" font-size="10.00">StartEvtRelay</text>
<text text-anchor="middle" x="276.5" y="-509" font-family="FreeSans" font-size="10.00">ResetCameraEvtRelay</text>
<text text-anchor="middle" x="276.5" y="-497" font-family="FreeSans" font-size="10.00">EnableEvtRelay</text>
<text text-anchor="middle" x="276.5" y="-485" font-family="FreeSans" font-size="10.00">DeleteEvtRelay</text>
<text text-anchor="middle" x="276.5" y="-473" font-family="FreeSans" font-size="10.00">...</text>
</g>
<!-- Node9&#45;&gt;Node8 -->
<g id="edge18" class="edge"><title>Node9&#45;&gt;Node8</title>
<path fill="none" stroke="#9a32cd" stroke-dasharray="5,2" d="M105.979,-615.818C100.439,-612.138 95.5104,-607.596 92,-602 60.8229,-552.303 58.8299,-518.389 92,-470 96.7359,-463.091 113.511,-456.287 129.999,-451.008"/>
<polygon fill="#9a32cd" stroke="#9a32cd" points="104.639,-619.079 115.072,-620.919 108.064,-612.974 104.639,-619.079"/>
<text text-anchor="middle" x="116" y="-539" font-family="FreeSans" font-size="10.00"> Sender</text>
<text text-anchor="middle" x="116" y="-527" font-family="FreeSans" font-size="10.00">EventImpl</text>
</g>
</g>
</svg>
