<?xml version="1.0" encoding="UTF-8" standalone="no"?>
<!DOCTYPE svg PUBLIC "-//W3C//DTD SVG 1.1//EN"
 "http://www.w3.org/Graphics/SVG/1.1/DTD/svg11.dtd">
<!-- Generated by graphviz version 2.26.3 (20100126.1600)
 -->
<!-- Title: G Pages: 1 -->
<svg width="154pt" height="320pt"
 viewBox="0.00 0.00 154.00 320.00" xmlns="http://www.w3.org/2000/svg" xmlns:xlink="http://www.w3.org/1999/xlink">
<g id="graph1" class="graph" transform="scale(1 1) rotate(0) translate(4 316)">
<title>G</title>
<!-- Node1 -->
<g id="node1" class="node"><title>Node1</title>
<polygon fill="#bfbfbf" stroke="black" points="-0.5,-1 -0.5,-21 146.5,-21 146.5,-1 -0.5,-1"/>
<text text-anchor="middle" x="73" y="-8" font-family="FreeSans" font-size="10.00">Kitware.VTK.vtkFastSplatter</text>
</g>
<!-- Node2 -->
<g id="node2" class="node"><title>Node2</title>
<a xlink:href="class_kitware_1_1_v_t_k_1_1vtk_image_algorithm.html" target="_top" xlink:title="vtkImageAlgorithm &#45; Generic algorithm superclass for image algs">
<polygon fill="none" stroke="black" points="19.5,-59 19.5,-79 126.5,-79 126.5,-59 19.5,-59"/>
<text text-anchor="middle" x="73" y="-66" font-family="FreeSans" font-size="10.00">vtkImageAlgorithm</text>
</a>
</g>
<!-- Node2&#45;&gt;Node1 -->
<g id="edge2" class="edge"><title>Node2&#45;&gt;Node1</title>
<path fill="none" stroke="midnightblue" d="M73,-48.8902C73,-39.6201 73,-29.0083 73,-21.3776"/>
<polygon fill="midnightblue" stroke="midnightblue" points="69.5001,-48.8971 73,-58.8972 76.5001,-48.8972 69.5001,-48.8971"/>
</g>
<!-- Node3 -->
<g id="node4" class="node"><title>Node3</title>
<a xlink:href="class_kitware_1_1_v_t_k_1_1vtk_algorithm.html" target="_top" xlink:title="vtkAlgorithm &#45; Superclass for all sources, filters, and sinks in VTK.">
<polygon fill="none" stroke="black" points="34.5,-117 34.5,-137 111.5,-137 111.5,-117 34.5,-117"/>
<text text-anchor="middle" x="73" y="-124" font-family="FreeSans" font-size="10.00">vtkAlgorithm</text>
</a>
</g>
<!-- Node3&#45;&gt;Node2 -->
<g id="edge4" class="edge"><title>Node3&#45;&gt;Node2</title>
<path fill="none" stroke="midnightblue" d="M73,-106.89C73,-97.6201 73,-87.0083 73,-79.3776"/>
<polygon fill="midnightblue" stroke="midnightblue" points="69.5001,-106.897 73,-116.897 76.5001,-106.897 69.5001,-106.897"/>
</g>
<!-- Node4 -->
<g id="node6" class="node"><title>Node4</title>
<a xlink:href="class_kitware_1_1_v_t_k_1_1vtk_object.html" target="_top" xlink:title="vtkObject &#45; abstract base class for most VTK objects">
<polygon fill="none" stroke="black" points="42,-175 42,-195 104,-195 104,-175 42,-175"/>
<text text-anchor="middle" x="73" y="-182" font-family="FreeSans" font-size="10.00">vtkObject</text>
</a>
</g>
<!-- Node4&#45;&gt;Node3 -->
<g id="edge6" class="edge"><title>Node4&#45;&gt;Node3</title>
<path fill="none" stroke="midnightblue" d="M73,-164.89C73,-155.62 73,-145.008 73,-137.378"/>
<polygon fill="midnightblue" stroke="midnightblue" points="69.5001,-164.897 73,-174.897 76.5001,-164.897 69.5001,-164.897"/>
</g>
<!-- Node5 -->
<g id="node8" class="node"><title>Node5</title>
<a xlink:href="class_kitware_1_1_v_t_k_1_1vtk_object_base.html" target="_top" xlink:title="vtkObjectBase &#45; abstract base class for most VTK objects">
<polygon fill="none" stroke="black" points="30,-233 30,-253 116,-253 116,-233 30,-233"/>
<text text-anchor="middle" x="73" y="-240" font-family="FreeSans" font-size="10.00">vtkObjectBase</text>
</a>
</g>
<!-- Node5&#45;&gt;Node4 -->
<g id="edge8" class="edge"><title>Node5&#45;&gt;Node4</title>
<path fill="none" stroke="midnightblue" d="M73,-222.89C73,-213.62 73,-203.008 73,-195.378"/>
<polygon fill="midnightblue" stroke="midnightblue" points="69.5001,-222.897 73,-232.897 76.5001,-222.897 69.5001,-222.897"/>
</g>
<!-- Node6 -->
<g id="node10" class="node"><title>Node6</title>
<a xlink:href="class_kitware_1_1_v_t_k_1_1_wrapped_object.html" target="_top" xlink:title="Base class for all the mummy wrapped classes in Kitware.VTK.">
<polygon fill="none" stroke="black" points="28.5,-291 28.5,-311 117.5,-311 117.5,-291 28.5,-291"/>
<text text-anchor="middle" x="73" y="-298" font-family="FreeSans" font-size="10.00">WrappedObject</text>
</a>
</g>
<!-- Node6&#45;&gt;Node5 -->
<g id="edge10" class="edge"><title>Node6&#45;&gt;Node5</title>
<path fill="none" stroke="midnightblue" d="M73,-280.89C73,-271.62 73,-261.008 73,-253.378"/>
<polygon fill="midnightblue" stroke="midnightblue" points="69.5001,-280.897 73,-290.897 76.5001,-280.897 69.5001,-280.897"/>
</g>
</g>
</svg>
