<?xml version="1.0" encoding="UTF-8" standalone="no"?>
<!DOCTYPE svg PUBLIC "-//W3C//DTD SVG 1.1//EN"
 "http://www.w3.org/Graphics/SVG/1.1/DTD/svg11.dtd">
<!-- Generated by graphviz version 2.26.3 (20100126.1600)
 -->
<!-- Title: G Pages: 1 -->
<svg width="466pt" height="320pt"
 viewBox="0.00 0.00 466.00 320.00" xmlns="http://www.w3.org/2000/svg" xmlns:xlink="http://www.w3.org/1999/xlink">
<g id="graph1" class="graph" transform="scale(1 1) rotate(0) translate(4 316)">
<title>G</title>
<!-- Node1 -->
<g id="node1" class="node"><title>Node1</title>
<polygon fill="#bfbfbf" stroke="black" points="127.5,-59 127.5,-79 324.5,-79 324.5,-59 127.5,-59"/>
<text text-anchor="middle" x="226" y="-66" font-family="FreeSans" font-size="10.00">Kitware.VTK.vtkHyperOctreeAlgorithm</text>
</g>
<!-- Node6 -->
<g id="node11" class="node"><title>Node6</title>
<a xlink:href="class_kitware_1_1_v_t_k_1_1vtk_hyper_octree_fractal_source.html" target="_top" xlink:title="vtkHyperOctreeFractalSource &#45; Create an octree from a fractal. hyperoctree">
<polygon fill="none" stroke="black" points="-0.5,-1 -0.5,-21 214.5,-21 214.5,-1 -0.5,-1"/>
<text text-anchor="middle" x="107" y="-8" font-family="FreeSans" font-size="10.00">Kitware.VTK.vtkHyperOctreeFractalSource</text>
</a>
</g>
<!-- Node1&#45;&gt;Node6 -->
<g id="edge10" class="edge"><title>Node1&#45;&gt;Node6</title>
<path fill="none" stroke="midnightblue" d="M196.034,-54.3947C174.771,-44.0315 146.768,-30.3825 127.89,-21.1817"/>
<polygon fill="midnightblue" stroke="midnightblue" points="194.749,-57.6621 205.272,-58.8972 197.816,-51.3697 194.749,-57.6621"/>
</g>
<!-- Node7 -->
<g id="node13" class="node"><title>Node7</title>
<a xlink:href="class_kitware_1_1_v_t_k_1_1vtk_hyper_octree_sample_function.html" target="_top" xlink:title="vtkHyperOctreeSampleFunction &#45; sample an implicit function over an hyperoctree">
<polygon fill="none" stroke="black" points="231.5,-1 231.5,-21 458.5,-21 458.5,-1 231.5,-1"/>
<text text-anchor="middle" x="345" y="-8" font-family="FreeSans" font-size="10.00">Kitware.VTK.vtkHyperOctreeSampleFunction</text>
</a>
</g>
<!-- Node1&#45;&gt;Node7 -->
<g id="edge12" class="edge"><title>Node1&#45;&gt;Node7</title>
<path fill="none" stroke="midnightblue" d="M255.966,-54.3947C277.229,-44.0315 305.232,-30.3825 324.11,-21.1817"/>
<polygon fill="midnightblue" stroke="midnightblue" points="254.184,-51.3697 246.728,-58.8972 257.251,-57.6621 254.184,-51.3697"/>
</g>
<!-- Node2 -->
<g id="node2" class="node"><title>Node2</title>
<a xlink:href="class_kitware_1_1_v_t_k_1_1vtk_algorithm.html" target="_top" xlink:title="vtkAlgorithm &#45; Superclass for all sources, filters, and sinks in VTK.">
<polygon fill="none" stroke="black" points="187.5,-117 187.5,-137 264.5,-137 264.5,-117 187.5,-117"/>
<text text-anchor="middle" x="226" y="-124" font-family="FreeSans" font-size="10.00">vtkAlgorithm</text>
</a>
</g>
<!-- Node2&#45;&gt;Node1 -->
<g id="edge2" class="edge"><title>Node2&#45;&gt;Node1</title>
<path fill="none" stroke="midnightblue" d="M226,-106.89C226,-97.6201 226,-87.0083 226,-79.3776"/>
<polygon fill="midnightblue" stroke="midnightblue" points="222.5,-106.897 226,-116.897 229.5,-106.897 222.5,-106.897"/>
</g>
<!-- Node3 -->
<g id="node4" class="node"><title>Node3</title>
<a xlink:href="class_kitware_1_1_v_t_k_1_1vtk_object.html" target="_top" xlink:title="vtkObject &#45; abstract base class for most VTK objects">
<polygon fill="none" stroke="black" points="195,-175 195,-195 257,-195 257,-175 195,-175"/>
<text text-anchor="middle" x="226" y="-182" font-family="FreeSans" font-size="10.00">vtkObject</text>
</a>
</g>
<!-- Node3&#45;&gt;Node2 -->
<g id="edge4" class="edge"><title>Node3&#45;&gt;Node2</title>
<path fill="none" stroke="midnightblue" d="M226,-164.89C226,-155.62 226,-145.008 226,-137.378"/>
<polygon fill="midnightblue" stroke="midnightblue" points="222.5,-164.897 226,-174.897 229.5,-164.897 222.5,-164.897"/>
</g>
<!-- Node4 -->
<g id="node6" class="node"><title>Node4</title>
<a xlink:href="class_kitware_1_1_v_t_k_1_1vtk_object_base.html" target="_top" xlink:title="vtkObjectBase &#45; abstract base class for most VTK objects">
<polygon fill="none" stroke="black" points="183,-233 183,-253 269,-253 269,-233 183,-233"/>
<text text-anchor="middle" x="226" y="-240" font-family="FreeSans" font-size="10.00">vtkObjectBase</text>
</a>
</g>
<!-- Node4&#45;&gt;Node3 -->
<g id="edge6" class="edge"><title>Node4&#45;&gt;Node3</title>
<path fill="none" stroke="midnightblue" d="M226,-222.89C226,-213.62 226,-203.008 226,-195.378"/>
<polygon fill="midnightblue" stroke="midnightblue" points="222.5,-222.897 226,-232.897 229.5,-222.897 222.5,-222.897"/>
</g>
<!-- Node5 -->
<g id="node8" class="node"><title>Node5</title>
<a xlink:href="class_kitware_1_1_v_t_k_1_1_wrapped_object.html" target="_top" xlink:title="Base class for all the mummy wrapped classes in Kitware.VTK.">
<polygon fill="none" stroke="black" points="181.5,-291 181.5,-311 270.5,-311 270.5,-291 181.5,-291"/>
<text text-anchor="middle" x="226" y="-298" font-family="FreeSans" font-size="10.00">WrappedObject</text>
</a>
</g>
<!-- Node5&#45;&gt;Node4 -->
<g id="edge8" class="edge"><title>Node5&#45;&gt;Node4</title>
<path fill="none" stroke="midnightblue" d="M226,-280.89C226,-271.62 226,-261.008 226,-253.378"/>
<polygon fill="midnightblue" stroke="midnightblue" points="222.5,-280.897 226,-290.897 229.5,-280.897 222.5,-280.897"/>
</g>
</g>
</svg>
