<?xml version="1.0" encoding="UTF-8" standalone="no"?>
<!DOCTYPE svg PUBLIC "-//W3C//DTD SVG 1.1//EN"
 "http://www.w3.org/Graphics/SVG/1.1/DTD/svg11.dtd">
<!-- Generated by graphviz version 2.26.3 (20100126.1600)
 -->
<!-- Title: G Pages: 1 -->
<svg width="1082pt" height="256pt"
 viewBox="0.00 0.00 1082.00 256.00" xmlns="http://www.w3.org/2000/svg" xmlns:xlink="http://www.w3.org/1999/xlink">
<g id="graph1" class="graph" transform="scale(1 1) rotate(0) translate(4 252)">
<title>G</title>
<!-- Node1 -->
<g id="node1" class="node"><title>Node1</title>
<polygon fill="#bfbfbf" stroke="black" points="628.5,-114 628.5,-134 819.5,-134 819.5,-114 628.5,-114"/>
<text text-anchor="middle" x="724" y="-121" font-family="FreeSans" font-size="10.00">Kitware.VTK.vtkExtractSelectionBase</text>
</g>
<!-- Node7 -->
<g id="node13" class="node"><title>Node7</title>
<a xlink:href="class_kitware_1_1_v_t_k_1_1vtk_extract_selected_block.html" target="_top" xlink:title="vtkExtractSelectedBlock">
<polygon fill="none" stroke="black" points="869.5,-228 869.5,-248 1060.5,-248 1060.5,-228 869.5,-228"/>
<text text-anchor="middle" x="965" y="-235" font-family="FreeSans" font-size="10.00">Kitware.VTK.vtkExtractSelectedBlock</text>
</a>
</g>
<!-- Node1&#45;&gt;Node7 -->
<g id="edge12" class="edge"><title>Node1&#45;&gt;Node7</title>
<path fill="none" stroke="midnightblue" d="M742.206,-141.307C766.246,-163.105 810.835,-200 856,-219 864.676,-222.65 874.024,-225.598 883.469,-227.981"/>
<polygon fill="midnightblue" stroke="midnightblue" points="744.315,-138.49 734.593,-134.28 739.568,-143.634 744.315,-138.49"/>
</g>
<!-- Node8 -->
<g id="node15" class="node"><title>Node8</title>
<a xlink:href="class_kitware_1_1_v_t_k_1_1vtk_extract_selected_frustum.html" target="_top" xlink:title="vtkExtractSelectedFrustum &#45; Returns the portion of the input dataset that lies within a selection fru...">
<polygon fill="none" stroke="black" points="863,-190 863,-210 1067,-210 1067,-190 863,-190"/>
<text text-anchor="middle" x="965" y="-197" font-family="FreeSans" font-size="10.00">Kitware.VTK.vtkExtractSelectedFrustum</text>
</a>
</g>
<!-- Node1&#45;&gt;Node8 -->
<g id="edge14" class="edge"><title>Node1&#45;&gt;Node8</title>
<path fill="none" stroke="midnightblue" d="M752.584,-138.679C778.838,-151.592 819.146,-169.998 856,-181 867.872,-184.544 880.681,-187.508 893.201,-189.96"/>
<polygon fill="midnightblue" stroke="midnightblue" points="754.092,-135.52 743.58,-134.194 750.971,-141.786 754.092,-135.52"/>
</g>
<!-- Node9 -->
<g id="node17" class="node"><title>Node9</title>
<a xlink:href="class_kitware_1_1_v_t_k_1_1vtk_extract_selected_ids.html" target="_top" xlink:title="vtkExtractSelectedIds &#45; extract a list of cells from a dataset">
<polygon fill="none" stroke="black" points="875.5,-152 875.5,-172 1054.5,-172 1054.5,-152 875.5,-152"/>
<text text-anchor="middle" x="965" y="-159" font-family="FreeSans" font-size="10.00">Kitware.VTK.vtkExtractSelectedIds</text>
</a>
</g>
<!-- Node1&#45;&gt;Node9 -->
<g id="edge16" class="edge"><title>Node1&#45;&gt;Node9</title>
<path fill="none" stroke="midnightblue" d="M797.726,-135.625C830.863,-140.85 869.587,-146.956 901.426,-151.976"/>
<polygon fill="midnightblue" stroke="midnightblue" points="798.058,-132.134 787.635,-134.034 796.968,-139.049 798.058,-132.134"/>
</g>
<!-- Node10 -->
<g id="node19" class="node"><title>Node10</title>
<a xlink:href="class_kitware_1_1_v_t_k_1_1vtk_extract_selected_locations.html" target="_top" xlink:title="vtkExtractSelectedLocations &#45; extract cells within a dataset that contain the locations listen in the...">
<polygon fill="none" stroke="black" points="859.5,-114 859.5,-134 1070.5,-134 1070.5,-114 859.5,-114"/>
<text text-anchor="middle" x="965" y="-121" font-family="FreeSans" font-size="10.00">Kitware.VTK.vtkExtractSelectedLocations</text>
</a>
</g>
<!-- Node1&#45;&gt;Node10 -->
<g id="edge18" class="edge"><title>Node1&#45;&gt;Node10</title>
<path fill="none" stroke="midnightblue" d="M829.728,-124C839.508,-124 849.419,-124 859.199,-124"/>
<polygon fill="midnightblue" stroke="midnightblue" points="829.596,-120.5 819.596,-124 829.596,-127.5 829.596,-120.5"/>
</g>
<!-- Node11 -->
<g id="node21" class="node"><title>Node11</title>
<a xlink:href="class_kitware_1_1_v_t_k_1_1vtk_extract_selected_thresholds.html" target="_top" xlink:title="vtkExtractSelectedThresholds &#45; extract a cells or points from a dataset that have values within a set...">
<polygon fill="none" stroke="black" points="856.5,-76 856.5,-96 1073.5,-96 1073.5,-76 856.5,-76"/>
<text text-anchor="middle" x="965" y="-83" font-family="FreeSans" font-size="10.00">Kitware.VTK.vtkExtractSelectedThresholds</text>
</a>
</g>
<!-- Node1&#45;&gt;Node11 -->
<g id="edge20" class="edge"><title>Node1&#45;&gt;Node11</title>
<path fill="none" stroke="midnightblue" d="M797.726,-112.375C830.863,-107.15 869.587,-101.044 901.426,-96.024"/>
<polygon fill="midnightblue" stroke="midnightblue" points="796.968,-108.951 787.635,-113.966 798.058,-115.866 796.968,-108.951"/>
</g>
<!-- Node12 -->
<g id="node23" class="node"><title>Node12</title>
<a xlink:href="class_kitware_1_1_v_t_k_1_1vtk_extract_selection.html" target="_top" xlink:title="vtkExtractSelection &#45; extract a subset from a vtkDataSet.">
<polygon fill="none" stroke="black" points="881.5,-38 881.5,-58 1048.5,-58 1048.5,-38 881.5,-38"/>
<text text-anchor="middle" x="965" y="-45" font-family="FreeSans" font-size="10.00">Kitware.VTK.vtkExtractSelection</text>
</a>
</g>
<!-- Node1&#45;&gt;Node12 -->
<g id="edge22" class="edge"><title>Node1&#45;&gt;Node12</title>
<path fill="none" stroke="midnightblue" d="M752.584,-109.321C778.838,-96.4083 819.146,-78.0019 856,-67 867.872,-63.4559 880.681,-60.4915 893.201,-58.0398"/>
<polygon fill="midnightblue" stroke="midnightblue" points="750.971,-106.214 743.58,-113.806 754.092,-112.48 750.971,-106.214"/>
</g>
<!-- Node13 -->
<g id="node25" class="node"><title>Node13</title>
<a xlink:href="class_kitware_1_1_v_t_k_1_1vtk_probe_selected_locations.html" target="_top" xlink:title="vtkProbeSelectedLocations &#45; similar to vtkExtractSelectedLocations except that it interpolates the po...">
<polygon fill="none" stroke="black" points="862.5,-0 862.5,-20 1067.5,-20 1067.5,-0 862.5,-0"/>
<text text-anchor="middle" x="965" y="-7" font-family="FreeSans" font-size="10.00">Kitware.VTK.vtkProbeSelectedLocations</text>
</a>
</g>
<!-- Node1&#45;&gt;Node13 -->
<g id="edge24" class="edge"><title>Node1&#45;&gt;Node13</title>
<path fill="none" stroke="midnightblue" d="M742.206,-106.693C766.246,-84.8954 810.835,-47.9995 856,-29 864.676,-25.3502 874.024,-22.4016 883.469,-20.0193"/>
<polygon fill="midnightblue" stroke="midnightblue" points="739.568,-104.366 734.593,-113.72 744.315,-109.51 739.568,-104.366"/>
</g>
<!-- Node2 -->
<g id="node2" class="node"><title>Node2</title>
<a xlink:href="class_kitware_1_1_v_t_k_1_1vtk_data_object_algorithm.html" target="_top" xlink:title="vtkDataObjectAlgorithm &#45; Superclass for algorithms that produce only data object as output...">
<polygon fill="none" stroke="black" points="460.5,-114 460.5,-134 591.5,-134 591.5,-114 460.5,-114"/>
<text text-anchor="middle" x="526" y="-121" font-family="FreeSans" font-size="10.00">vtkDataObjectAlgorithm</text>
</a>
</g>
<!-- Node2&#45;&gt;Node1 -->
<g id="edge2" class="edge"><title>Node2&#45;&gt;Node1</title>
<path fill="none" stroke="midnightblue" d="M601.782,-124C610.523,-124 619.519,-124 628.478,-124"/>
<polygon fill="midnightblue" stroke="midnightblue" points="601.656,-120.5 591.656,-124 601.656,-127.5 601.656,-120.5"/>
</g>
<!-- Node3 -->
<g id="node4" class="node"><title>Node3</title>
<a xlink:href="class_kitware_1_1_v_t_k_1_1vtk_algorithm.html" target="_top" xlink:title="vtkAlgorithm &#45; Superclass for all sources, filters, and sinks in VTK.">
<polygon fill="none" stroke="black" points="346.5,-114 346.5,-134 423.5,-134 423.5,-114 346.5,-114"/>
<text text-anchor="middle" x="385" y="-121" font-family="FreeSans" font-size="10.00">vtkAlgorithm</text>
</a>
</g>
<!-- Node3&#45;&gt;Node2 -->
<g id="edge4" class="edge"><title>Node3&#45;&gt;Node2</title>
<path fill="none" stroke="midnightblue" d="M433.744,-124C442.346,-124 451.427,-124 460.402,-124"/>
<polygon fill="midnightblue" stroke="midnightblue" points="433.529,-120.5 423.529,-124 433.529,-127.5 433.529,-120.5"/>
</g>
<!-- Node4 -->
<g id="node6" class="node"><title>Node4</title>
<a xlink:href="class_kitware_1_1_v_t_k_1_1vtk_object.html" target="_top" xlink:title="vtkObject &#45; abstract base class for most VTK objects">
<polygon fill="none" stroke="black" points="248,-114 248,-134 310,-134 310,-114 248,-114"/>
<text text-anchor="middle" x="279" y="-121" font-family="FreeSans" font-size="10.00">vtkObject</text>
</a>
</g>
<!-- Node4&#45;&gt;Node3 -->
<g id="edge6" class="edge"><title>Node4&#45;&gt;Node3</title>
<path fill="none" stroke="midnightblue" d="M320.421,-124C329.001,-124 338.007,-124 346.479,-124"/>
<polygon fill="midnightblue" stroke="midnightblue" points="320.23,-120.5 310.23,-124 320.23,-127.5 320.23,-120.5"/>
</g>
<!-- Node5 -->
<g id="node8" class="node"><title>Node5</title>
<a xlink:href="class_kitware_1_1_v_t_k_1_1vtk_object_base.html" target="_top" xlink:title="vtkObjectBase &#45; abstract base class for most VTK objects">
<polygon fill="none" stroke="black" points="126,-114 126,-134 212,-134 212,-114 126,-114"/>
<text text-anchor="middle" x="169" y="-121" font-family="FreeSans" font-size="10.00">vtkObjectBase</text>
</a>
</g>
<!-- Node5&#45;&gt;Node4 -->
<g id="edge8" class="edge"><title>Node5&#45;&gt;Node4</title>
<path fill="none" stroke="midnightblue" d="M222.346,-124C231.091,-124 239.892,-124 247.863,-124"/>
<polygon fill="midnightblue" stroke="midnightblue" points="222.159,-120.5 212.159,-124 222.159,-127.5 222.159,-120.5"/>
</g>
<!-- Node6 -->
<g id="node10" class="node"><title>Node6</title>
<a xlink:href="class_kitware_1_1_v_t_k_1_1_wrapped_object.html" target="_top" xlink:title="Base class for all the mummy wrapped classes in Kitware.VTK.">
<polygon fill="none" stroke="black" points="0.5,-114 0.5,-134 89.5,-134 89.5,-114 0.5,-114"/>
<text text-anchor="middle" x="45" y="-121" font-family="FreeSans" font-size="10.00">WrappedObject</text>
</a>
</g>
<!-- Node6&#45;&gt;Node5 -->
<g id="edge10" class="edge"><title>Node6&#45;&gt;Node5</title>
<path fill="none" stroke="midnightblue" d="M99.8895,-124C108.623,-124 117.548,-124 125.957,-124"/>
<polygon fill="midnightblue" stroke="midnightblue" points="99.7669,-120.5 89.7668,-124 99.7668,-127.5 99.7669,-120.5"/>
</g>
</g>
</svg>
