<?xml version="1.0" encoding="UTF-8" standalone="no"?>
<!DOCTYPE svg PUBLIC "-//W3C//DTD SVG 1.1//EN"
 "http://www.w3.org/Graphics/SVG/1.1/DTD/svg11.dtd">
<!-- Generated by graphviz version 2.26.3 (20100126.1600)
 -->
<!-- Title: G Pages: 1 -->
<svg width="1508pt" height="446pt"
 viewBox="0.00 0.00 1508.00 446.00" xmlns="http://www.w3.org/2000/svg" xmlns:xlink="http://www.w3.org/1999/xlink">
<g id="graph1" class="graph" transform="scale(1 1) rotate(0) translate(4 442)">
<title>G</title>
<!-- Node1 -->
<g id="node1" class="node"><title>Node1</title>
<polygon fill="#bfbfbf" stroke="black" points="504,-209 504,-229 664,-229 664,-209 504,-209"/>
<text text-anchor="middle" x="584" y="-216" font-family="FreeSans" font-size="10.00">Kitware.VTK.vtkInteractorStyle</text>
</g>
<!-- Node6 -->
<g id="node11" class="node"><title>Node6</title>
<a xlink:href="class_kitware_1_1_v_t_k_1_1vtk_context_interactor_style.html" target="_top" xlink:title="vtkContextInteractorStyle &#45; An interactor for chart views It observes the user events (mouse events) ...">
<polygon fill="none" stroke="black" points="725.5,-418 725.5,-438 922.5,-438 922.5,-418 725.5,-418"/>
<text text-anchor="middle" x="824" y="-425" font-family="FreeSans" font-size="10.00">Kitware.VTK.vtkContextInteractorStyle</text>
</a>
</g>
<!-- Node1&#45;&gt;Node6 -->
<g id="edge10" class="edge"><title>Node1&#45;&gt;Node6</title>
<path fill="none" stroke="midnightblue" d="M589.912,-239.041C602.759,-278.755 637.231,-367.213 700,-409 707.705,-414.129 716.269,-418.079 725.195,-421.1"/>
<polygon fill="midnightblue" stroke="midnightblue" points="593.232,-237.928 586.919,-229.42 586.548,-240.008 593.232,-237.928"/>
</g>
<!-- Node7 -->
<g id="node13" class="node"><title>Node7</title>
<a xlink:href="class_kitware_1_1_v_t_k_1_1vtk_interactor_style_flight.html" target="_top" xlink:title="vtkInteractorStyleFlight &#45; provides flight motion routines">
<polygon fill="none" stroke="black" points="731.5,-380 731.5,-400 916.5,-400 916.5,-380 731.5,-380"/>
<text text-anchor="middle" x="824" y="-387" font-family="FreeSans" font-size="10.00">Kitware.VTK.vtkInteractorStyleFlight</text>
</a>
</g>
<!-- Node1&#45;&gt;Node7 -->
<g id="edge12" class="edge"><title>Node1&#45;&gt;Node7</title>
<path fill="none" stroke="midnightblue" d="M592.717,-238.47C608.728,-271.751 646.185,-339.071 700,-371 709.553,-376.668 720.22,-380.831 731.18,-383.865"/>
<polygon fill="midnightblue" stroke="midnightblue" points="595.843,-236.893 588.442,-229.311 589.5,-239.853 595.843,-236.893"/>
</g>
<!-- Node8 -->
<g id="node15" class="node"><title>Node8</title>
<a xlink:href="class_kitware_1_1_v_t_k_1_1vtk_interactor_style_joystick_actor.html" target="_top" xlink:title="vtkInteractorStyleJoystickActor &#45; manipulate objects in the scene independently of one another...">
<polygon fill="none" stroke="black" points="713.5,-342 713.5,-362 934.5,-362 934.5,-342 713.5,-342"/>
<text text-anchor="middle" x="824" y="-349" font-family="FreeSans" font-size="10.00">Kitware.VTK.vtkInteractorStyleJoystickActor</text>
</a>
</g>
<!-- Node1&#45;&gt;Node8 -->
<g id="edge14" class="edge"><title>Node1&#45;&gt;Node8</title>
<path fill="none" stroke="midnightblue" d="M596.649,-237.244C615.756,-263.229 654.607,-310.262 700,-333 707.205,-336.609 714.917,-339.572 722.84,-341.999"/>
<polygon fill="midnightblue" stroke="midnightblue" points="599.41,-235.089 590.735,-229.005 593.723,-239.17 599.41,-235.089"/>
</g>
<!-- Node9 -->
<g id="node17" class="node"><title>Node9</title>
<a xlink:href="class_kitware_1_1_v_t_k_1_1vtk_interactor_style_joystick_camera.html" target="_top" xlink:title="vtkInteractorStyleJoystickCamera &#45; interactive manipulation of the camera">
<polygon fill="none" stroke="black" points="707.5,-304 707.5,-324 940.5,-324 940.5,-304 707.5,-304"/>
<text text-anchor="middle" x="824" y="-311" font-family="FreeSans" font-size="10.00">Kitware.VTK.vtkInteractorStyleJoystickCamera</text>
</a>
</g>
<!-- Node1&#45;&gt;Node9 -->
<g id="edge16" class="edge"><title>Node1&#45;&gt;Node9</title>
<path fill="none" stroke="midnightblue" d="M603.456,-235.565C625.4,-253.291 662.886,-280.775 700,-295 709.456,-298.625 719.569,-301.559 729.786,-303.935"/>
<polygon fill="midnightblue" stroke="midnightblue" points="605.52,-232.731 595.576,-229.075 601.07,-238.134 605.52,-232.731"/>
</g>
<!-- Node10 -->
<g id="node19" class="node"><title>Node10</title>
<a xlink:href="class_kitware_1_1_v_t_k_1_1vtk_interactor_style_rubber_band2_d.html" target="_top" xlink:title="vtkInteractorStyleRubberBand2D &#45; A rubber band interactor for a 2D view">
<polygon fill="none" stroke="black" points="708.5,-266 708.5,-286 939.5,-286 939.5,-266 708.5,-266"/>
<text text-anchor="middle" x="824" y="-273" font-family="FreeSans" font-size="10.00">Kitware.VTK.vtkInteractorStyleRubberBand2D</text>
</a>
</g>
<!-- Node1&#45;&gt;Node10 -->
<g id="edge18" class="edge"><title>Node1&#45;&gt;Node10</title>
<path fill="none" stroke="midnightblue" d="M619.922,-232.464C642.616,-240.544 672.707,-250.485 700,-257 714.617,-260.489 730.363,-263.477 745.567,-265.982"/>
<polygon fill="midnightblue" stroke="midnightblue" points="620.96,-229.118 610.366,-229.016 618.584,-235.702 620.96,-229.118"/>
</g>
<!-- Node12 -->
<g id="node23" class="node"><title>Node12</title>
<a xlink:href="class_kitware_1_1_v_t_k_1_1vtk_interactor_style_rubber_band_zoom.html" target="_top" xlink:title="vtkInteractorStyleRubberBandZoom &#45; zoom in by amount indicated by rubber band box">
<polygon fill="none" stroke="black" points="700.5,-228 700.5,-248 947.5,-248 947.5,-228 700.5,-228"/>
<text text-anchor="middle" x="824" y="-235" font-family="FreeSans" font-size="10.00">Kitware.VTK.vtkInteractorStyleRubberBandZoom</text>
</a>
</g>
<!-- Node1&#45;&gt;Node12 -->
<g id="edge22" class="edge"><title>Node1&#45;&gt;Node12</title>
<path fill="none" stroke="midnightblue" d="M674.422,-226.158C682.856,-226.826 691.497,-227.51 700.166,-228.196"/>
<polygon fill="midnightblue" stroke="midnightblue" points="674.495,-222.653 664.25,-225.353 673.943,-229.632 674.495,-222.653"/>
</g>
<!-- Node13 -->
<g id="node25" class="node"><title>Node13</title>
<a xlink:href="class_kitware_1_1_v_t_k_1_1vtk_interactor_style_switch.html" target="_top" xlink:title="vtkInteractorStyleSwitch &#45; class to swap between interactory styles">
<polygon fill="none" stroke="black" points="728.5,-190 728.5,-210 919.5,-210 919.5,-190 728.5,-190"/>
<text text-anchor="middle" x="824" y="-197" font-family="FreeSans" font-size="10.00">Kitware.VTK.vtkInteractorStyleSwitch</text>
</a>
</g>
<!-- Node1&#45;&gt;Node13 -->
<g id="edge24" class="edge"><title>Node1&#45;&gt;Node13</title>
<path fill="none" stroke="midnightblue" d="M674.507,-211.835C692.127,-210.44 710.65,-208.974 728.427,-207.566"/>
<polygon fill="midnightblue" stroke="midnightblue" points="673.943,-208.368 664.25,-212.647 674.495,-215.347 673.943,-208.368"/>
</g>
<!-- Node15 -->
<g id="node29" class="node"><title>Node15</title>
<a xlink:href="class_kitware_1_1_v_t_k_1_1vtk_interactor_style_terrain.html" target="_top" xlink:title="vtkInteractorStyleTerrain &#45; manipulate camera in scene with natural view up (e.g., terrain)">
<polygon fill="none" stroke="black" points="728.5,-152 728.5,-172 919.5,-172 919.5,-152 728.5,-152"/>
<text text-anchor="middle" x="824" y="-159" font-family="FreeSans" font-size="10.00">Kitware.VTK.vtkInteractorStyleTerrain</text>
</a>
</g>
<!-- Node1&#45;&gt;Node15 -->
<g id="edge28" class="edge"><title>Node1&#45;&gt;Node15</title>
<path fill="none" stroke="midnightblue" d="M619.922,-205.536C642.616,-197.456 672.707,-187.515 700,-181 714.617,-177.511 730.363,-174.523 745.567,-172.018"/>
<polygon fill="midnightblue" stroke="midnightblue" points="618.584,-202.298 610.366,-208.984 620.96,-208.882 618.584,-202.298"/>
</g>
<!-- Node16 -->
<g id="node31" class="node"><title>Node16</title>
<a xlink:href="class_kitware_1_1_v_t_k_1_1vtk_interactor_style_trackball_actor.html" target="_top" xlink:title="vtkInteractorStyleTrackballActor &#45; manipulate objects in the scene independent of each other...">
<polygon fill="none" stroke="black" points="711,-114 711,-134 937,-134 937,-114 711,-114"/>
<text text-anchor="middle" x="824" y="-121" font-family="FreeSans" font-size="10.00">Kitware.VTK.vtkInteractorStyleTrackballActor</text>
</a>
</g>
<!-- Node1&#45;&gt;Node16 -->
<g id="edge30" class="edge"><title>Node1&#45;&gt;Node16</title>
<path fill="none" stroke="midnightblue" d="M603.456,-202.435C625.4,-184.709 662.886,-157.225 700,-143 709.456,-139.375 719.569,-136.441 729.786,-134.065"/>
<polygon fill="midnightblue" stroke="midnightblue" points="601.07,-199.866 595.576,-208.925 605.52,-205.269 601.07,-199.866"/>
</g>
<!-- Node17 -->
<g id="node33" class="node"><title>Node17</title>
<a xlink:href="class_kitware_1_1_v_t_k_1_1vtk_interactor_style_trackball_camera.html" target="_top" xlink:title="vtkInteractorStyleTrackballCamera &#45; interactive manipulation of the camera">
<polygon fill="none" stroke="black" points="704.5,-76 704.5,-96 943.5,-96 943.5,-76 704.5,-76"/>
<text text-anchor="middle" x="824" y="-83" font-family="FreeSans" font-size="10.00">Kitware.VTK.vtkInteractorStyleTrackballCamera</text>
</a>
</g>
<!-- Node1&#45;&gt;Node17 -->
<g id="edge32" class="edge"><title>Node1&#45;&gt;Node17</title>
<path fill="none" stroke="midnightblue" d="M596.649,-200.756C615.756,-174.771 654.607,-127.738 700,-105 707.205,-101.391 714.917,-98.4284 722.84,-96.0006"/>
<polygon fill="midnightblue" stroke="midnightblue" points="593.723,-198.83 590.735,-208.995 599.41,-202.911 593.723,-198.83"/>
</g>
<!-- Node24 -->
<g id="node47" class="node"><title>Node24</title>
<a xlink:href="class_kitware_1_1_v_t_k_1_1vtk_interactor_style_unicam.html" target="_top" xlink:title="vtkInteractorStyleUnicam &#45; provides Unicam navigation style">
<polygon fill="none" stroke="black" points="725.5,-38 725.5,-58 922.5,-58 922.5,-38 725.5,-38"/>
<text text-anchor="middle" x="824" y="-45" font-family="FreeSans" font-size="10.00">Kitware.VTK.vtkInteractorStyleUnicam</text>
</a>
</g>
<!-- Node1&#45;&gt;Node24 -->
<g id="edge46" class="edge"><title>Node1&#45;&gt;Node24</title>
<path fill="none" stroke="midnightblue" d="M592.717,-199.53C608.728,-166.249 646.185,-98.9288 700,-67 707.867,-62.3326 716.49,-58.6852 725.409,-55.8489"/>
<polygon fill="midnightblue" stroke="midnightblue" points="589.5,-198.147 588.442,-208.689 595.843,-201.107 589.5,-198.147"/>
</g>
<!-- Node25 -->
<g id="node49" class="node"><title>Node25</title>
<a xlink:href="class_kitware_1_1_v_t_k_1_1vtk_interactor_style_user.html" target="_top" xlink:title="vtkInteractorStyleUser &#45; provides customizable interaction routines">
<polygon fill="none" stroke="black" points="733,-0 733,-20 915,-20 915,-0 733,-0"/>
<text text-anchor="middle" x="824" y="-7" font-family="FreeSans" font-size="10.00">Kitware.VTK.vtkInteractorStyleUser</text>
</a>
</g>
<!-- Node1&#45;&gt;Node25 -->
<g id="edge48" class="edge"><title>Node1&#45;&gt;Node25</title>
<path fill="none" stroke="midnightblue" d="M589.912,-198.959C602.759,-159.245 637.231,-70.7875 700,-29 709.88,-22.4223 721.174,-17.7842 732.831,-14.5578"/>
<polygon fill="midnightblue" stroke="midnightblue" points="586.548,-197.992 586.919,-208.58 593.232,-200.072 586.548,-197.992"/>
</g>
<!-- Node2 -->
<g id="node2" class="node"><title>Node2</title>
<a xlink:href="class_kitware_1_1_v_t_k_1_1vtk_interactor_observer.html" target="_top" xlink:title="vtkInteractorObserver &#45; an abstract superclass for classes observing events invoked by vtkRenderWindo...">
<polygon fill="none" stroke="black" points="346.5,-209 346.5,-229 467.5,-229 467.5,-209 346.5,-209"/>
<text text-anchor="middle" x="407" y="-216" font-family="FreeSans" font-size="10.00">vtkInteractorObserver</text>
</a>
</g>
<!-- Node2&#45;&gt;Node1 -->
<g id="edge2" class="edge"><title>Node2&#45;&gt;Node1</title>
<path fill="none" stroke="midnightblue" d="M478.127,-219C486.608,-219 495.311,-219 503.907,-219"/>
<polygon fill="midnightblue" stroke="midnightblue" points="477.913,-215.5 467.913,-219 477.913,-222.5 477.913,-215.5"/>
</g>
<!-- Node3 -->
<g id="node4" class="node"><title>Node3</title>
<a xlink:href="class_kitware_1_1_v_t_k_1_1vtk_object.html" target="_top" xlink:title="vtkObject &#45; abstract base class for most VTK objects">
<polygon fill="none" stroke="black" points="248,-209 248,-229 310,-229 310,-209 248,-209"/>
<text text-anchor="middle" x="279" y="-216" font-family="FreeSans" font-size="10.00">vtkObject</text>
</a>
</g>
<!-- Node3&#45;&gt;Node2 -->
<g id="edge4" class="edge"><title>Node3&#45;&gt;Node2</title>
<path fill="none" stroke="midnightblue" d="M320.479,-219C328.791,-219 337.684,-219 346.488,-219"/>
<polygon fill="midnightblue" stroke="midnightblue" points="320.312,-215.5 310.312,-219 320.312,-222.5 320.312,-215.5"/>
</g>
<!-- Node4 -->
<g id="node6" class="node"><title>Node4</title>
<a xlink:href="class_kitware_1_1_v_t_k_1_1vtk_object_base.html" target="_top" xlink:title="vtkObjectBase &#45; abstract base class for most VTK objects">
<polygon fill="none" stroke="black" points="126,-209 126,-229 212,-229 212,-209 126,-209"/>
<text text-anchor="middle" x="169" y="-216" font-family="FreeSans" font-size="10.00">vtkObjectBase</text>
</a>
</g>
<!-- Node4&#45;&gt;Node3 -->
<g id="edge6" class="edge"><title>Node4&#45;&gt;Node3</title>
<path fill="none" stroke="midnightblue" d="M222.346,-219C231.091,-219 239.892,-219 247.863,-219"/>
<polygon fill="midnightblue" stroke="midnightblue" points="222.159,-215.5 212.159,-219 222.159,-222.5 222.159,-215.5"/>
</g>
<!-- Node5 -->
<g id="node8" class="node"><title>Node5</title>
<a xlink:href="class_kitware_1_1_v_t_k_1_1_wrapped_object.html" target="_top" xlink:title="Base class for all the mummy wrapped classes in Kitware.VTK.">
<polygon fill="none" stroke="black" points="0.5,-209 0.5,-229 89.5,-229 89.5,-209 0.5,-209"/>
<text text-anchor="middle" x="45" y="-216" font-family="FreeSans" font-size="10.00">WrappedObject</text>
</a>
</g>
<!-- Node5&#45;&gt;Node4 -->
<g id="edge8" class="edge"><title>Node5&#45;&gt;Node4</title>
<path fill="none" stroke="midnightblue" d="M99.8895,-219C108.623,-219 117.548,-219 125.957,-219"/>
<polygon fill="midnightblue" stroke="midnightblue" points="99.7669,-215.5 89.7668,-219 99.7668,-222.5 99.7669,-215.5"/>
</g>
<!-- Node11 -->
<g id="node21" class="node"><title>Node11</title>
<a xlink:href="class_kitware_1_1_v_t_k_1_1vtk_interactor_style_area_select_hover.html" target="_top" xlink:title="vtkInteractorStyleAreaSelectHover &#45; An interactor style for an area tree view">
<polygon fill="none" stroke="black" points="989.5,-266 989.5,-286 1230.5,-286 1230.5,-266 989.5,-266"/>
<text text-anchor="middle" x="1110" y="-273" font-family="FreeSans" font-size="10.00">Kitware.VTK.vtkInteractorStyleAreaSelectHover</text>
</a>
</g>
<!-- Node10&#45;&gt;Node11 -->
<g id="edge20" class="edge"><title>Node10&#45;&gt;Node11</title>
<path fill="none" stroke="midnightblue" d="M949.571,-276C962.8,-276 976.23,-276 989.4,-276"/>
<polygon fill="midnightblue" stroke="midnightblue" points="949.503,-272.5 939.503,-276 949.503,-279.5 949.503,-272.5"/>
</g>
<!-- Node14 -->
<g id="node27" class="node"><title>Node14</title>
<a xlink:href="class_kitware_1_1_v_t_k_1_1vtk_interactor_style_trackball.html" target="_top" xlink:title="vtkInteractorStyleTrackball &#45; provides trackball motion control">
<polygon fill="none" stroke="black" points="1010,-190 1010,-210 1210,-210 1210,-190 1010,-190"/>
<text text-anchor="middle" x="1110" y="-197" font-family="FreeSans" font-size="10.00">Kitware.VTK.vtkInteractorStyleTrackball</text>
</a>
</g>
<!-- Node13&#45;&gt;Node14 -->
<g id="edge26" class="edge"><title>Node13&#45;&gt;Node14</title>
<path fill="none" stroke="midnightblue" d="M929.904,-200C955.957,-200 983.775,-200 1009.56,-200"/>
<polygon fill="midnightblue" stroke="midnightblue" points="929.632,-196.5 919.631,-200 929.631,-203.5 929.632,-196.5"/>
</g>
<!-- Node18 -->
<g id="node35" class="node"><title>Node18</title>
<a xlink:href="class_kitware_1_1_v_t_k_1_1vtk_geo_interactor_style.html" target="_top" xlink:title="vtkGeoInteractorStyle &#45; Interaction for a globe">
<polygon fill="none" stroke="black" points="1020.5,-152 1020.5,-172 1199.5,-172 1199.5,-152 1020.5,-152"/>
<text text-anchor="middle" x="1110" y="-159" font-family="FreeSans" font-size="10.00">Kitware.VTK.vtkGeoInteractorStyle</text>
</a>
</g>
<!-- Node17&#45;&gt;Node18 -->
<g id="edge34" class="edge"><title>Node17&#45;&gt;Node18</title>
<path fill="none" stroke="midnightblue" d="M935.685,-99.3917C939.918,-101.064 944.04,-102.927 948,-105 968.611,-115.789 963.376,-132.235 984,-143 995.179,-148.835 1007.63,-153.013 1020.22,-155.983"/>
<polygon fill="midnightblue" stroke="midnightblue" points="936.857,-96.0937 926.262,-96.025 934.502,-102.686 936.857,-96.0937"/>
</g>
<!-- Node19 -->
<g id="node37" class="node"><title>Node19</title>
<a xlink:href="class_kitware_1_1_v_t_k_1_1vtk_interactor_style_image.html" target="_top" xlink:title="vtkInteractorStyleImage &#45; interactive manipulation of the camera specialized for images">
<polygon fill="none" stroke="black" points="1015,-114 1015,-134 1205,-134 1205,-114 1015,-114"/>
<text text-anchor="middle" x="1110" y="-121" font-family="FreeSans" font-size="10.00">Kitware.VTK.vtkInteractorStyleImage</text>
</a>
</g>
<!-- Node17&#45;&gt;Node19 -->
<g id="edge36" class="edge"><title>Node17&#45;&gt;Node19</title>
<path fill="none" stroke="midnightblue" d="M909.464,-97.3554C949.23,-102.639 996.12,-108.869 1034.56,-113.976"/>
<polygon fill="midnightblue" stroke="midnightblue" points="909.891,-93.8814 899.517,-96.0338 908.969,-100.82 909.891,-93.8814"/>
</g>
<!-- Node21 -->
<g id="node41" class="node"><title>Node21</title>
<a xlink:href="class_kitware_1_1_v_t_k_1_1vtk_interactor_style_rubber_band3_d.html" target="_top" xlink:title="vtkInteractorStyleRubberBand3D &#45; A rubber band interactor for a 3D view">
<polygon fill="none" stroke="black" points="994.5,-76 994.5,-96 1225.5,-96 1225.5,-76 994.5,-76"/>
<text text-anchor="middle" x="1110" y="-83" font-family="FreeSans" font-size="10.00">Kitware.VTK.vtkInteractorStyleRubberBand3D</text>
</a>
</g>
<!-- Node17&#45;&gt;Node21 -->
<g id="edge40" class="edge"><title>Node17&#45;&gt;Node21</title>
<path fill="none" stroke="midnightblue" d="M953.846,-86C967.252,-86 980.813,-86 994.053,-86"/>
<polygon fill="midnightblue" stroke="midnightblue" points="953.633,-82.5001 943.633,-86 953.633,-89.5001 953.633,-82.5001"/>
</g>
<!-- Node22 -->
<g id="node43" class="node"><title>Node22</title>
<a xlink:href="class_kitware_1_1_v_t_k_1_1vtk_interactor_style_rubber_band_pick.html" target="_top" xlink:title="vtkInteractorStyleRubberBandPick &#45; Like TrackBallCamera, but this can pick props underneath a rubber ...">
<polygon fill="none" stroke="black" points="992,-38 992,-58 1228,-58 1228,-38 992,-38"/>
<text text-anchor="middle" x="1110" y="-45" font-family="FreeSans" font-size="10.00">Kitware.VTK.vtkInteractorStyleRubberBandPick</text>
</a>
</g>
<!-- Node17&#45;&gt;Node22 -->
<g id="edge42" class="edge"><title>Node17&#45;&gt;Node22</title>
<path fill="none" stroke="midnightblue" d="M909.464,-74.6446C949.23,-69.361 996.12,-63.1309 1034.56,-58.024"/>
<polygon fill="midnightblue" stroke="midnightblue" points="908.969,-71.1795 899.517,-75.9662 909.891,-78.1186 908.969,-71.1795"/>
</g>
<!-- Node23 -->
<g id="node45" class="node"><title>Node23</title>
<a xlink:href="class_kitware_1_1_v_t_k_1_1vtk_parallel_coordinates_interactor_style.html" target="_top" xlink:title="vtkParallelCoordinatesInteractorStyle &#45; interactive manipulation of the camera specialized for parall...">
<polygon fill="none" stroke="black" points="984.5,-0 984.5,-20 1235.5,-20 1235.5,-0 984.5,-0"/>
<text text-anchor="middle" x="1110" y="-7" font-family="FreeSans" font-size="10.00">Kitware.VTK.vtkParallelCoordinatesInteractorStyle</text>
</a>
</g>
<!-- Node17&#45;&gt;Node23 -->
<g id="edge44" class="edge"><title>Node17&#45;&gt;Node23</title>
<path fill="none" stroke="midnightblue" d="M935.685,-72.6083C939.918,-70.9356 944.04,-69.0729 948,-67 968.611,-56.211 963.376,-39.7645 984,-29 990.864,-25.4174 998.206,-22.4592 1005.77,-20.0218"/>
<polygon fill="midnightblue" stroke="midnightblue" points="934.502,-69.3144 926.262,-75.975 936.857,-75.9063 934.502,-69.3144"/>
</g>
<!-- Node20 -->
<g id="node39" class="node"><title>Node20</title>
<a xlink:href="class_kitware_1_1_v_t_k_1_1vtk_interactor_style_tree_map_hover.html" target="_top" xlink:title="vtkInteractorStyleTreeMapHover &#45; An interactor style for a tree map view">
<polygon fill="none" stroke="black" points="1272,-114 1272,-134 1500,-134 1500,-114 1272,-114"/>
<text text-anchor="middle" x="1386" y="-121" font-family="FreeSans" font-size="10.00">Kitware.VTK.vtkInteractorStyleTreeMapHover</text>
</a>
</g>
<!-- Node19&#45;&gt;Node20 -->
<g id="edge38" class="edge"><title>Node19&#45;&gt;Node20</title>
<path fill="none" stroke="midnightblue" d="M1215.48,-124C1233.84,-124 1253.01,-124 1271.6,-124"/>
<polygon fill="midnightblue" stroke="midnightblue" points="1215.37,-120.5 1205.37,-124 1215.37,-127.5 1215.37,-120.5"/>
</g>
</g>
</svg>
