<?xml version="1.0" encoding="UTF-8" standalone="no"?>
<!DOCTYPE svg PUBLIC "-//W3C//DTD SVG 1.1//EN"
 "http://www.w3.org/Graphics/SVG/1.1/DTD/svg11.dtd">
<!-- Generated by graphviz version 2.26.3 (20100126.1600)
 -->
<!-- Title: G Pages: 1 -->
<svg width="124pt" height="204pt"
 viewBox="0.00 0.00 124.00 204.00" xmlns="http://www.w3.org/2000/svg" xmlns:xlink="http://www.w3.org/1999/xlink">
<g id="graph1" class="graph" transform="scale(1 1) rotate(0) translate(4 200)">
<title>G</title>
<!-- Node1 -->
<g id="node1" class="node"><title>Node1</title>
<polygon fill="#bfbfbf" stroke="black" points="0,-1 0,-21 116,-21 116,-1 0,-1"/>
<text text-anchor="middle" x="58" y="-8" font-family="FreeSans" font-size="10.00">Kitware.VTK.vtkEvent</text>
</g>
<!-- Node2 -->
<g id="node2" class="node"><title>Node2</title>
<a xlink:href="class_kitware_1_1_v_t_k_1_1vtk_object.html" target="_top" xlink:title="vtkObject &#45; abstract base class for most VTK objects">
<polygon fill="none" stroke="black" points="27,-59 27,-79 89,-79 89,-59 27,-59"/>
<text text-anchor="middle" x="58" y="-66" font-family="FreeSans" font-size="10.00">vtkObject</text>
</a>
</g>
<!-- Node2&#45;&gt;Node1 -->
<g id="edge2" class="edge"><title>Node2&#45;&gt;Node1</title>
<path fill="none" stroke="midnightblue" d="M58,-48.8902C58,-39.6201 58,-29.0083 58,-21.3776"/>
<polygon fill="midnightblue" stroke="midnightblue" points="54.5001,-48.8971 58,-58.8972 61.5001,-48.8972 54.5001,-48.8971"/>
</g>
<!-- Node3 -->
<g id="node4" class="node"><title>Node3</title>
<a xlink:href="class_kitware_1_1_v_t_k_1_1vtk_object_base.html" target="_top" xlink:title="vtkObjectBase &#45; abstract base class for most VTK objects">
<polygon fill="none" stroke="black" points="15,-117 15,-137 101,-137 101,-117 15,-117"/>
<text text-anchor="middle" x="58" y="-124" font-family="FreeSans" font-size="10.00">vtkObjectBase</text>
</a>
</g>
<!-- Node3&#45;&gt;Node2 -->
<g id="edge4" class="edge"><title>Node3&#45;&gt;Node2</title>
<path fill="none" stroke="midnightblue" d="M58,-106.89C58,-97.6201 58,-87.0083 58,-79.3776"/>
<polygon fill="midnightblue" stroke="midnightblue" points="54.5001,-106.897 58,-116.897 61.5001,-106.897 54.5001,-106.897"/>
</g>
<!-- Node4 -->
<g id="node6" class="node"><title>Node4</title>
<a xlink:href="class_kitware_1_1_v_t_k_1_1_wrapped_object.html" target="_top" xlink:title="Base class for all the mummy wrapped classes in Kitware.VTK.">
<polygon fill="none" stroke="black" points="13.5,-175 13.5,-195 102.5,-195 102.5,-175 13.5,-175"/>
<text text-anchor="middle" x="58" y="-182" font-family="FreeSans" font-size="10.00">WrappedObject</text>
</a>
</g>
<!-- Node4&#45;&gt;Node3 -->
<g id="edge6" class="edge"><title>Node4&#45;&gt;Node3</title>
<path fill="none" stroke="midnightblue" d="M58,-164.89C58,-155.62 58,-145.008 58,-137.378"/>
<polygon fill="midnightblue" stroke="midnightblue" points="54.5001,-164.897 58,-174.897 61.5001,-164.897 54.5001,-164.897"/>
</g>
</g>
</svg>
