<?xml version="1.0" encoding="UTF-8" standalone="no"?>
<!DOCTYPE svg PUBLIC "-//W3C//DTD SVG 1.1//EN"
 "http://www.w3.org/Graphics/SVG/1.1/DTD/svg11.dtd">
<!-- Generated by graphviz version 2.26.3 (20100126.1600)
 -->
<!-- Title: G Pages: 1 -->
<svg width="502pt" height="104pt"
 viewBox="0.00 0.00 502.00 104.00" xmlns="http://www.w3.org/2000/svg" xmlns:xlink="http://www.w3.org/1999/xlink">
<g id="graph1" class="graph" transform="scale(1 1) rotate(0) translate(4 100)">
<title>G</title>
<!-- Node1 -->
<g id="node1" class="node"><title>Node1</title>
<polygon fill="#bfbfbf" stroke="black" points="0.5,-38 0.5,-58 177.5,-58 177.5,-38 0.5,-38"/>
<text text-anchor="middle" x="89" y="-45" font-family="FreeSans" font-size="10.00">vtkObjectEventRelay.AddObserver</text>
</g>
<!-- Node2 -->
<g id="node3" class="node"><title>Node2</title>
<a xlink:href="classvtk_object_event_relay.html#acbabca11f1e57d9f3b269c00c418b994" target="_top" xlink:title="Signature for method that vtkObject can call for VTK events.">
<polygon fill="none" stroke="black" points="265.5,-76 265.5,-96 442.5,-96 442.5,-76 265.5,-76"/>
<text text-anchor="middle" x="354" y="-83" font-family="FreeSans" font-size="10.00">vtkObjectEventRelay.RelayHandler</text>
</a>
</g>
<!-- Node1&#45;&gt;Node2 -->
<g id="edge2" class="edge"><title>Node1&#45;&gt;Node2</title>
<path fill="none" stroke="midnightblue" d="M153.526,-58.009C172.955,-60.9684 194.337,-64.1715 214,-67 231.536,-69.5224 250.32,-72.134 268.254,-74.5835"/>
<polygon fill="midnightblue" stroke="midnightblue" points="268.025,-78.0845 278.406,-75.9654 268.969,-71.1485 268.025,-78.0845"/>
</g>
<!-- Node3 -->
<g id="node5" class="node"><title>Node3</title>
<a xlink:href="classvtk_object_event_relay.html#a0160764cf1acea5e7e782ce33fcca031" target="_top" xlink:title="Do not call directly. This method is called from VTK library code when InvokeEvent is called on a vtk...">
<polygon fill="none" stroke="black" points="277.5,-38 277.5,-58 430.5,-58 430.5,-38 277.5,-38"/>
<text text-anchor="middle" x="354" y="-45" font-family="FreeSans" font-size="10.00">vtkObjectEventRelay.Execute</text>
</a>
</g>
<!-- Node1&#45;&gt;Node3 -->
<g id="edge4" class="edge"><title>Node1&#45;&gt;Node3</title>
<path fill="none" stroke="midnightblue" d="M177.61,-48C206.547,-48 238.634,-48 267.421,-48"/>
<polygon fill="midnightblue" stroke="midnightblue" points="267.455,-51.5001 277.455,-48 267.454,-44.5001 267.455,-51.5001"/>
</g>
<!-- Node4 -->
<g id="node7" class="node"><title>Node4</title>
<a xlink:href="classvtk_object_event_relay.html#ae01db545f4d5c18e8c86ae1b2cdaec6f" target="_top" xlink:title="vtkObjectEventRelay.vtkObjectEventRelay_AddObserver">
<polygon fill="none" stroke="black" points="214.5,-0 214.5,-20 493.5,-20 493.5,-0 214.5,-0"/>
<text text-anchor="middle" x="354" y="-7" font-family="FreeSans" font-size="10.00">vtkObjectEventRelay.vtkObjectEventRelay_AddObserver</text>
</a>
</g>
<!-- Node1&#45;&gt;Node4 -->
<g id="edge6" class="edge"><title>Node1&#45;&gt;Node4</title>
<path fill="none" stroke="midnightblue" d="M153.526,-37.991C172.955,-35.0316 194.337,-31.8285 214,-29 231.536,-26.4776 250.32,-23.866 268.254,-21.4165"/>
<polygon fill="midnightblue" stroke="midnightblue" points="268.969,-24.8515 278.406,-20.0346 268.025,-17.9155 268.969,-24.8515"/>
</g>
</g>
</svg>
