<?xml version="1.0" encoding="UTF-8" standalone="no"?>
<!DOCTYPE svg PUBLIC "-//W3C//DTD SVG 1.1//EN"
 "http://www.w3.org/Graphics/SVG/1.1/DTD/svg11.dtd">
<!-- Generated by graphviz version 2.26.3 (20100126.1600)
 -->
<!-- Title: G Pages: 1 -->
<svg width="148pt" height="320pt"
 viewBox="0.00 0.00 148.00 320.00" xmlns="http://www.w3.org/2000/svg" xmlns:xlink="http://www.w3.org/1999/xlink">
<g id="graph1" class="graph" transform="scale(1 1) rotate(0) translate(4 316)">
<title>G</title>
<!-- Node1 -->
<g id="node1" class="node"><title>Node1</title>
<polygon fill="#bfbfbf" stroke="black" points="0,-1 0,-21 140,-21 140,-1 0,-1"/>
<text text-anchor="middle" x="70" y="-8" font-family="FreeSans" font-size="10.00">Kitware.VTK.vtkExplicitCell</text>
</g>
<!-- Node2 -->
<g id="node2" class="node"><title>Node2</title>
<a xlink:href="class_kitware_1_1_v_t_k_1_1vtk_non_linear_cell.html" target="_top" xlink:title="vtkNonLinearCell &#45; abstract superclass for non&#45;linear cells">
<polygon fill="none" stroke="black" points="21.5,-59 21.5,-79 118.5,-79 118.5,-59 21.5,-59"/>
<text text-anchor="middle" x="70" y="-66" font-family="FreeSans" font-size="10.00">vtkNonLinearCell</text>
</a>
</g>
<!-- Node2&#45;&gt;Node1 -->
<g id="edge2" class="edge"><title>Node2&#45;&gt;Node1</title>
<path fill="none" stroke="midnightblue" d="M70,-48.8902C70,-39.6201 70,-29.0083 70,-21.3776"/>
<polygon fill="midnightblue" stroke="midnightblue" points="66.5001,-48.8971 70,-58.8972 73.5001,-48.8972 66.5001,-48.8971"/>
</g>
<!-- Node3 -->
<g id="node4" class="node"><title>Node3</title>
<a xlink:href="class_kitware_1_1_v_t_k_1_1vtk_cell.html" target="_top" xlink:title="vtkCell &#45; abstract class to specify cell behavior">
<polygon fill="none" stroke="black" points="46,-117 46,-137 94,-137 94,-117 46,-117"/>
<text text-anchor="middle" x="70" y="-124" font-family="FreeSans" font-size="10.00">vtkCell</text>
</a>
</g>
<!-- Node3&#45;&gt;Node2 -->
<g id="edge4" class="edge"><title>Node3&#45;&gt;Node2</title>
<path fill="none" stroke="midnightblue" d="M70,-106.89C70,-97.6201 70,-87.0083 70,-79.3776"/>
<polygon fill="midnightblue" stroke="midnightblue" points="66.5001,-106.897 70,-116.897 73.5001,-106.897 66.5001,-106.897"/>
</g>
<!-- Node4 -->
<g id="node6" class="node"><title>Node4</title>
<a xlink:href="class_kitware_1_1_v_t_k_1_1vtk_object.html" target="_top" xlink:title="vtkObject &#45; abstract base class for most VTK objects">
<polygon fill="none" stroke="black" points="39,-175 39,-195 101,-195 101,-175 39,-175"/>
<text text-anchor="middle" x="70" y="-182" font-family="FreeSans" font-size="10.00">vtkObject</text>
</a>
</g>
<!-- Node4&#45;&gt;Node3 -->
<g id="edge6" class="edge"><title>Node4&#45;&gt;Node3</title>
<path fill="none" stroke="midnightblue" d="M70,-164.89C70,-155.62 70,-145.008 70,-137.378"/>
<polygon fill="midnightblue" stroke="midnightblue" points="66.5001,-164.897 70,-174.897 73.5001,-164.897 66.5001,-164.897"/>
</g>
<!-- Node5 -->
<g id="node8" class="node"><title>Node5</title>
<a xlink:href="class_kitware_1_1_v_t_k_1_1vtk_object_base.html" target="_top" xlink:title="vtkObjectBase &#45; abstract base class for most VTK objects">
<polygon fill="none" stroke="black" points="27,-233 27,-253 113,-253 113,-233 27,-233"/>
<text text-anchor="middle" x="70" y="-240" font-family="FreeSans" font-size="10.00">vtkObjectBase</text>
</a>
</g>
<!-- Node5&#45;&gt;Node4 -->
<g id="edge8" class="edge"><title>Node5&#45;&gt;Node4</title>
<path fill="none" stroke="midnightblue" d="M70,-222.89C70,-213.62 70,-203.008 70,-195.378"/>
<polygon fill="midnightblue" stroke="midnightblue" points="66.5001,-222.897 70,-232.897 73.5001,-222.897 66.5001,-222.897"/>
</g>
<!-- Node6 -->
<g id="node10" class="node"><title>Node6</title>
<a xlink:href="class_kitware_1_1_v_t_k_1_1_wrapped_object.html" target="_top" xlink:title="Base class for all the mummy wrapped classes in Kitware.VTK.">
<polygon fill="none" stroke="black" points="25.5,-291 25.5,-311 114.5,-311 114.5,-291 25.5,-291"/>
<text text-anchor="middle" x="70" y="-298" font-family="FreeSans" font-size="10.00">WrappedObject</text>
</a>
</g>
<!-- Node6&#45;&gt;Node5 -->
<g id="edge10" class="edge"><title>Node6&#45;&gt;Node5</title>
<path fill="none" stroke="midnightblue" d="M70,-280.89C70,-271.62 70,-261.008 70,-253.378"/>
<polygon fill="midnightblue" stroke="midnightblue" points="66.5001,-280.897 70,-290.897 73.5001,-280.897 66.5001,-280.897"/>
</g>
</g>
</svg>
