<?xml version="1.0" encoding="UTF-8" standalone="no"?>
<!DOCTYPE svg PUBLIC "-//W3C//DTD SVG 1.1//EN"
 "http://www.w3.org/Graphics/SVG/1.1/DTD/svg11.dtd">
<!-- Generated by graphviz version 2.26.3 (20100126.1600)
 -->
<!-- Title: G Pages: 1 -->
<svg width="1830pt" height="560pt"
 viewBox="0.00 0.00 1830.00 560.00" xmlns="http://www.w3.org/2000/svg" xmlns:xlink="http://www.w3.org/1999/xlink">
<g id="graph1" class="graph" transform="scale(1 1) rotate(0) translate(4 556)">
<title>G</title>
<!-- Node1 -->
<g id="node1" class="node"><title>Node1</title>
<polygon fill="#bfbfbf" stroke="black" points="460.5,-266 460.5,-286 663.5,-286 663.5,-266 460.5,-266"/>
<text text-anchor="middle" x="562" y="-273" font-family="FreeSans" font-size="10.00">Kitware.VTK.vtkPassInputTypeAlgorithm</text>
</g>
<!-- Node6 -->
<g id="node11" class="node"><title>Node6</title>
<a xlink:href="class_kitware_1_1_v_t_k_1_1vtk_add_membership_array.html" target="_top" xlink:title="vtkAddMembershipArray &#45; Add an array to the output indicating membership within an input selection...">
<polygon fill="none" stroke="black" points="708.5,-532 708.5,-552 901.5,-552 901.5,-532 708.5,-532"/>
<text text-anchor="middle" x="805" y="-539" font-family="FreeSans" font-size="10.00">Kitware.VTK.vtkAddMembershipArray</text>
</a>
</g>
<!-- Node1&#45;&gt;Node6 -->
<g id="edge10" class="edge"><title>Node1&#45;&gt;Node6</title>
<path fill="none" stroke="midnightblue" d="M566.829,-295.803C579.558,-343.483 618.783,-465 700,-523 704.975,-526.553 710.412,-529.505 716.11,-531.953"/>
<polygon fill="midnightblue" stroke="midnightblue" points="570.206,-294.885 564.329,-286.07 563.426,-296.626 570.206,-294.885"/>
</g>
<!-- Node7 -->
<g id="node13" class="node"><title>Node7</title>
<a xlink:href="class_kitware_1_1_v_t_k_1_1vtk_apply_colors.html" target="_top" xlink:title="vtkApplyColors &#45; apply colors to a data set.">
<polygon fill="none" stroke="black" points="732,-494 732,-514 878,-514 878,-494 732,-494"/>
<text text-anchor="middle" x="805" y="-501" font-family="FreeSans" font-size="10.00">Kitware.VTK.vtkApplyColors</text>
</a>
</g>
<!-- Node1&#45;&gt;Node7 -->
<g id="edge12" class="edge"><title>Node1&#45;&gt;Node7</title>
<path fill="none" stroke="midnightblue" d="M568.926,-295.893C584.795,-338.291 628.061,-437.546 700,-485 709.51,-491.273 720.511,-495.629 731.737,-498.626"/>
<polygon fill="midnightblue" stroke="midnightblue" points="572.183,-294.609 565.48,-286.404 565.604,-296.999 572.183,-294.609"/>
</g>
<!-- Node8 -->
<g id="node15" class="node"><title>Node8</title>
<a xlink:href="class_kitware_1_1_v_t_k_1_1vtk_apply_icons.html" target="_top" xlink:title="vtkApplyIcons &#45; apply icons to a data set.">
<polygon fill="none" stroke="black" points="735,-456 735,-476 875,-476 875,-456 735,-456"/>
<text text-anchor="middle" x="805" y="-463" font-family="FreeSans" font-size="10.00">Kitware.VTK.vtkApplyIcons</text>
</a>
</g>
<!-- Node1&#45;&gt;Node8 -->
<g id="edge14" class="edge"><title>Node1&#45;&gt;Node8</title>
<path fill="none" stroke="midnightblue" d="M571.493,-295.221C590.461,-331.427 636.719,-409.462 700,-447 710.595,-453.285 722.771,-457.587 734.992,-460.512"/>
<polygon fill="midnightblue" stroke="midnightblue" points="574.543,-293.498 566.876,-286.187 568.31,-296.684 574.543,-293.498"/>
</g>
<!-- Node9 -->
<g id="node17" class="node"><title>Node9</title>
<a xlink:href="class_kitware_1_1_v_t_k_1_1vtk_assign_attribute.html" target="_top" xlink:title="vtkAssignAttribute &#45; Labels a field as an attribute">
<polygon fill="none" stroke="black" points="723.5,-418 723.5,-438 886.5,-438 886.5,-418 723.5,-418"/>
<text text-anchor="middle" x="805" y="-425" font-family="FreeSans" font-size="10.00">Kitware.VTK.vtkAssignAttribute</text>
</a>
</g>
<!-- Node1&#45;&gt;Node9 -->
<g id="edge16" class="edge"><title>Node1&#45;&gt;Node9</title>
<path fill="none" stroke="midnightblue" d="M575.031,-294.174C597.133,-323.507 644.97,-380.84 700,-409 707.339,-412.755 715.299,-415.779 723.442,-418.213"/>
<polygon fill="midnightblue" stroke="midnightblue" points="577.775,-291.997 569.019,-286.033 572.144,-296.156 577.775,-291.997"/>
</g>
<!-- Node10 -->
<g id="node19" class="node"><title>Node10</title>
<a xlink:href="class_kitware_1_1_v_t_k_1_1vtk_assign_coordinates.html" target="_top" xlink:title="vtkAssignCoordinates &#45; Given two(or three) arrays take the values in those arrays and simply assign t...">
<polygon fill="none" stroke="black" points="715.5,-380 715.5,-400 894.5,-400 894.5,-380 715.5,-380"/>
<text text-anchor="middle" x="805" y="-387" font-family="FreeSans" font-size="10.00">Kitware.VTK.vtkAssignCoordinates</text>
</a>
</g>
<!-- Node1&#45;&gt;Node10 -->
<g id="edge18" class="edge"><title>Node1&#45;&gt;Node10</title>
<path fill="none" stroke="midnightblue" d="M580.874,-292.95C606.111,-314.631 653.129,-351.681 700,-371 708.821,-374.636 718.342,-377.577 727.924,-379.957"/>
<polygon fill="midnightblue" stroke="midnightblue" points="583.017,-290.174 573.182,-286.234 578.413,-295.447 583.017,-290.174"/>
</g>
<!-- Node11 -->
<g id="node21" class="node"><title>Node11</title>
<a xlink:href="class_kitware_1_1_v_t_k_1_1vtk_convert_selection_domain.html" target="_top" xlink:title="vtkConvertSelectionDomain &#45; Convert a selection from one domain to another">
<polygon fill="none" stroke="black" points="700.5,-342 700.5,-362 909.5,-362 909.5,-342 700.5,-342"/>
<text text-anchor="middle" x="805" y="-349" font-family="FreeSans" font-size="10.00">Kitware.VTK.vtkConvertSelectionDomain</text>
</a>
</g>
<!-- Node1&#45;&gt;Node11 -->
<g id="edge20" class="edge"><title>Node1&#45;&gt;Node11</title>
<path fill="none" stroke="midnightblue" d="M591.62,-290.396C619.124,-303.238 661.508,-321.708 700,-333 711.999,-336.52 724.97,-339.505 737.567,-341.992"/>
<polygon fill="midnightblue" stroke="midnightblue" points="593.079,-287.215 582.542,-286.109 590.09,-293.544 593.079,-287.215"/>
</g>
<!-- Node12 -->
<g id="node23" class="node"><title>Node12</title>
<a xlink:href="class_kitware_1_1_v_t_k_1_1vtk_data_representation.html" target="_top" xlink:title="vtkDataRepresentation &#45; The superclass for all representations">
<polygon fill="none" stroke="black" points="712.5,-304 712.5,-324 897.5,-324 897.5,-304 712.5,-304"/>
<text text-anchor="middle" x="805" y="-311" font-family="FreeSans" font-size="10.00">Kitware.VTK.vtkDataRepresentation</text>
</a>
</g>
<!-- Node1&#45;&gt;Node12 -->
<g id="edge22" class="edge"><title>Node1&#45;&gt;Node12</title>
<path fill="none" stroke="midnightblue" d="M636.338,-287.625C669.75,-292.85 708.795,-298.956 740.899,-303.976"/>
<polygon fill="midnightblue" stroke="midnightblue" points="636.584,-284.121 626.163,-286.034 635.502,-291.037 636.584,-284.121"/>
</g>
<!-- Node22 -->
<g id="node43" class="node"><title>Node22</title>
<a xlink:href="class_kitware_1_1_v_t_k_1_1vtk_geo_assign_coordinates.html" target="_top" xlink:title="vtkGeoAssignCoordinates &#45; Given latitude and longitude arrays, take the values in those arrays and co...">
<polygon fill="none" stroke="black" points="706,-266 706,-286 904,-286 904,-266 706,-266"/>
<text text-anchor="middle" x="805" y="-273" font-family="FreeSans" font-size="10.00">Kitware.VTK.vtkGeoAssignCoordinates</text>
</a>
</g>
<!-- Node1&#45;&gt;Node22 -->
<g id="edge42" class="edge"><title>Node1&#45;&gt;Node22</title>
<path fill="none" stroke="midnightblue" d="M673.809,-276C684.452,-276 695.195,-276 705.708,-276"/>
<polygon fill="midnightblue" stroke="midnightblue" points="673.646,-272.5 663.646,-276 673.646,-279.5 673.646,-272.5"/>
</g>
<!-- Node23 -->
<g id="node45" class="node"><title>Node23</title>
<a xlink:href="class_kitware_1_1_v_t_k_1_1vtk_label_size_calculator.html" target="_top" xlink:title="vtkLabelSizeCalculator">
<polygon fill="none" stroke="black" points="713.5,-228 713.5,-248 896.5,-248 896.5,-228 713.5,-228"/>
<text text-anchor="middle" x="805" y="-235" font-family="FreeSans" font-size="10.00">Kitware.VTK.vtkLabelSizeCalculator</text>
</a>
</g>
<!-- Node1&#45;&gt;Node23 -->
<g id="edge44" class="edge"><title>Node1&#45;&gt;Node23</title>
<path fill="none" stroke="midnightblue" d="M636.338,-264.375C669.75,-259.15 708.795,-253.044 740.899,-248.024"/>
<polygon fill="midnightblue" stroke="midnightblue" points="635.502,-260.963 626.163,-265.966 636.584,-267.879 635.502,-260.963"/>
</g>
<!-- Node24 -->
<g id="node47" class="node"><title>Node24</title>
<a xlink:href="class_kitware_1_1_v_t_k_1_1vtk_map_array_values.html" target="_top" xlink:title="vtkMapArrayValues &#45; Map values in an input array to different values in an output array of (possibly)...">
<polygon fill="none" stroke="black" points="721.5,-190 721.5,-210 888.5,-210 888.5,-190 721.5,-190"/>
<text text-anchor="middle" x="805" y="-197" font-family="FreeSans" font-size="10.00">Kitware.VTK.vtkMapArrayValues</text>
</a>
</g>
<!-- Node1&#45;&gt;Node24 -->
<g id="edge46" class="edge"><title>Node1&#45;&gt;Node24</title>
<path fill="none" stroke="midnightblue" d="M591.62,-261.604C619.124,-248.762 661.508,-230.292 700,-219 711.999,-215.48 724.97,-212.495 737.567,-210.008"/>
<polygon fill="midnightblue" stroke="midnightblue" points="590.09,-258.456 582.542,-265.891 593.079,-264.785 590.09,-258.456"/>
</g>
<!-- Node25 -->
<g id="node49" class="node"><title>Node25</title>
<a xlink:href="class_kitware_1_1_v_t_k_1_1vtk_pass_through.html" target="_top" xlink:title="vtkPassThrough &#45; Shallow copies the input into the output">
<polygon fill="none" stroke="black" points="730,-152 730,-172 880,-172 880,-152 730,-152"/>
<text text-anchor="middle" x="805" y="-159" font-family="FreeSans" font-size="10.00">Kitware.VTK.vtkPassThrough</text>
</a>
</g>
<!-- Node1&#45;&gt;Node25 -->
<g id="edge48" class="edge"><title>Node1&#45;&gt;Node25</title>
<path fill="none" stroke="midnightblue" d="M580.874,-259.05C606.111,-237.369 653.129,-200.319 700,-181 709.42,-177.117 719.639,-174.026 729.879,-171.565"/>
<polygon fill="midnightblue" stroke="midnightblue" points="578.413,-256.553 573.182,-265.766 583.017,-261.826 578.413,-256.553"/>
</g>
<!-- Node26 -->
<g id="node51" class="node"><title>Node26</title>
<a xlink:href="class_kitware_1_1_v_t_k_1_1vtk_programmable_filter.html" target="_top" xlink:title="vtkProgrammableFilter &#45; a user&#45;programmable filter">
<polygon fill="none" stroke="black" points="713.5,-114 713.5,-134 896.5,-134 896.5,-114 713.5,-114"/>
<text text-anchor="middle" x="805" y="-121" font-family="FreeSans" font-size="10.00">Kitware.VTK.vtkProgrammableFilter</text>
</a>
</g>
<!-- Node1&#45;&gt;Node26 -->
<g id="edge50" class="edge"><title>Node1&#45;&gt;Node26</title>
<path fill="none" stroke="midnightblue" d="M575.031,-257.826C597.133,-228.493 644.97,-171.16 700,-143 707.091,-139.371 714.763,-136.425 722.619,-134.036"/>
<polygon fill="midnightblue" stroke="midnightblue" points="572.144,-255.844 569.019,-265.967 577.775,-260.003 572.144,-255.844"/>
</g>
<!-- Node27 -->
<g id="node53" class="node"><title>Node27</title>
<a xlink:href="class_kitware_1_1_v_t_k_1_1vtk_remove_hidden_data.html" target="_top" xlink:title="vtkRemoveHiddenData &#45; Removes the rows/edges/vertices of input data flagged by ann.">
<polygon fill="none" stroke="black" points="712.5,-76 712.5,-96 897.5,-96 897.5,-76 712.5,-76"/>
<text text-anchor="middle" x="805" y="-83" font-family="FreeSans" font-size="10.00">Kitware.VTK.vtkRemoveHiddenData</text>
</a>
</g>
<!-- Node1&#45;&gt;Node27 -->
<g id="edge52" class="edge"><title>Node1&#45;&gt;Node27</title>
<path fill="none" stroke="midnightblue" d="M571.493,-256.779C590.461,-220.573 636.719,-142.538 700,-105 706.054,-101.408 712.625,-98.4646 719.425,-96.0551"/>
<polygon fill="midnightblue" stroke="midnightblue" points="568.31,-255.316 566.876,-265.813 574.543,-258.502 568.31,-255.316"/>
</g>
<!-- Node28 -->
<g id="node55" class="node"><title>Node28</title>
<a xlink:href="class_kitware_1_1_v_t_k_1_1vtk_temporal_statistics.html" target="_top" xlink:title="Kitware.VTK.vtkTemporalStatistics">
<polygon fill="none" stroke="black" points="716.5,-38 716.5,-58 893.5,-58 893.5,-38 716.5,-38"/>
<text text-anchor="middle" x="805" y="-45" font-family="FreeSans" font-size="10.00">Kitware.VTK.vtkTemporalStatistics</text>
</a>
</g>
<!-- Node1&#45;&gt;Node28 -->
<g id="edge54" class="edge"><title>Node1&#45;&gt;Node28</title>
<path fill="none" stroke="midnightblue" d="M568.926,-256.107C584.795,-213.709 628.061,-114.454 700,-67 705.412,-63.4298 711.307,-60.4807 717.452,-58.0496"/>
<polygon fill="midnightblue" stroke="midnightblue" points="565.604,-255.001 565.48,-265.596 572.183,-257.391 565.604,-255.001"/>
</g>
<!-- Node29 -->
<g id="node57" class="node"><title>Node29</title>
<a xlink:href="class_kitware_1_1_v_t_k_1_1vtk_transfer_attributes.html" target="_top" xlink:title="vtkTransferAttributes &#45; transfer data from a graph representation to a tree representation using dire...">
<polygon fill="none" stroke="black" points="718,-0 718,-20 892,-20 892,-0 718,-0"/>
<text text-anchor="middle" x="805" y="-7" font-family="FreeSans" font-size="10.00">Kitware.VTK.vtkTransferAttributes</text>
</a>
</g>
<!-- Node1&#45;&gt;Node29 -->
<g id="edge56" class="edge"><title>Node1&#45;&gt;Node29</title>
<path fill="none" stroke="midnightblue" d="M566.829,-256.197C579.558,-208.517 618.783,-87.0004 700,-29 705.503,-25.0704 711.571,-21.875 717.931,-19.2845"/>
<polygon fill="midnightblue" stroke="midnightblue" points="563.426,-255.374 564.329,-265.93 570.206,-257.115 563.426,-255.374"/>
</g>
<!-- Node2 -->
<g id="node2" class="node"><title>Node2</title>
<a xlink:href="class_kitware_1_1_v_t_k_1_1vtk_algorithm.html" target="_top" xlink:title="vtkAlgorithm &#45; Superclass for all sources, filters, and sinks in VTK.">
<polygon fill="none" stroke="black" points="346.5,-266 346.5,-286 423.5,-286 423.5,-266 346.5,-266"/>
<text text-anchor="middle" x="385" y="-273" font-family="FreeSans" font-size="10.00">vtkAlgorithm</text>
</a>
</g>
<!-- Node2&#45;&gt;Node1 -->
<g id="edge2" class="edge"><title>Node2&#45;&gt;Node1</title>
<path fill="none" stroke="midnightblue" d="M434.002,-276C442.29,-276 451.16,-276 460.22,-276"/>
<polygon fill="midnightblue" stroke="midnightblue" points="433.843,-272.5 423.843,-276 433.843,-279.5 433.843,-272.5"/>
</g>
<!-- Node3 -->
<g id="node4" class="node"><title>Node3</title>
<a xlink:href="class_kitware_1_1_v_t_k_1_1vtk_object.html" target="_top" xlink:title="vtkObject &#45; abstract base class for most VTK objects">
<polygon fill="none" stroke="black" points="248,-266 248,-286 310,-286 310,-266 248,-266"/>
<text text-anchor="middle" x="279" y="-273" font-family="FreeSans" font-size="10.00">vtkObject</text>
</a>
</g>
<!-- Node3&#45;&gt;Node2 -->
<g id="edge4" class="edge"><title>Node3&#45;&gt;Node2</title>
<path fill="none" stroke="midnightblue" d="M320.421,-276C329.001,-276 338.007,-276 346.479,-276"/>
<polygon fill="midnightblue" stroke="midnightblue" points="320.23,-272.5 310.23,-276 320.23,-279.5 320.23,-272.5"/>
</g>
<!-- Node4 -->
<g id="node6" class="node"><title>Node4</title>
<a xlink:href="class_kitware_1_1_v_t_k_1_1vtk_object_base.html" target="_top" xlink:title="vtkObjectBase &#45; abstract base class for most VTK objects">
<polygon fill="none" stroke="black" points="126,-266 126,-286 212,-286 212,-266 126,-266"/>
<text text-anchor="middle" x="169" y="-273" font-family="FreeSans" font-size="10.00">vtkObjectBase</text>
</a>
</g>
<!-- Node4&#45;&gt;Node3 -->
<g id="edge6" class="edge"><title>Node4&#45;&gt;Node3</title>
<path fill="none" stroke="midnightblue" d="M222.346,-276C231.091,-276 239.892,-276 247.863,-276"/>
<polygon fill="midnightblue" stroke="midnightblue" points="222.159,-272.5 212.159,-276 222.159,-279.5 222.159,-272.5"/>
</g>
<!-- Node5 -->
<g id="node8" class="node"><title>Node5</title>
<a xlink:href="class_kitware_1_1_v_t_k_1_1_wrapped_object.html" target="_top" xlink:title="Base class for all the mummy wrapped classes in Kitware.VTK.">
<polygon fill="none" stroke="black" points="0.5,-266 0.5,-286 89.5,-286 89.5,-266 0.5,-266"/>
<text text-anchor="middle" x="45" y="-273" font-family="FreeSans" font-size="10.00">WrappedObject</text>
</a>
</g>
<!-- Node5&#45;&gt;Node4 -->
<g id="edge8" class="edge"><title>Node5&#45;&gt;Node4</title>
<path fill="none" stroke="midnightblue" d="M99.8895,-276C108.623,-276 117.548,-276 125.957,-276"/>
<polygon fill="midnightblue" stroke="midnightblue" points="99.7669,-272.5 89.7668,-276 99.7668,-279.5 99.7669,-272.5"/>
</g>
<!-- Node13 -->
<g id="node25" class="node"><title>Node13</title>
<a xlink:href="class_kitware_1_1_v_t_k_1_1vtk_empty_representation.html" target="_top" xlink:title="vtkEmptyRepresentation &#45;">
<polygon fill="none" stroke="black" points="973,-342 973,-362 1165,-362 1165,-342 973,-342"/>
<text text-anchor="middle" x="1069" y="-349" font-family="FreeSans" font-size="10.00">Kitware.VTK.vtkEmptyRepresentation</text>
</a>
</g>
<!-- Node12&#45;&gt;Node13 -->
<g id="edge24" class="edge"><title>Node12&#45;&gt;Node13</title>
<path fill="none" stroke="midnightblue" d="M884.825,-325.49C921.33,-330.744 964.181,-336.912 999.359,-341.976"/>
<polygon fill="midnightblue" stroke="midnightblue" points="885.105,-321.994 874.708,-324.034 884.108,-328.923 885.105,-321.994"/>
</g>
<!-- Node14 -->
<g id="node27" class="node"><title>Node14</title>
<a xlink:href="class_kitware_1_1_v_t_k_1_1vtk_geo_aligned_image_representation.html" target="_top" xlink:title="vtkGeoAlignedImageRepresentation &#45; A multi&#45;resolution image tree">
<polygon fill="none" stroke="black" points="946,-304 946,-324 1192,-324 1192,-304 946,-304"/>
<text text-anchor="middle" x="1069" y="-311" font-family="FreeSans" font-size="10.00">Kitware.VTK.vtkGeoAlignedImageRepresentation</text>
</a>
</g>
<!-- Node12&#45;&gt;Node14 -->
<g id="edge26" class="edge"><title>Node12&#45;&gt;Node14</title>
<path fill="none" stroke="midnightblue" d="M908.048,-314C920.474,-314 933.26,-314 945.936,-314"/>
<polygon fill="midnightblue" stroke="midnightblue" points="907.705,-310.5 897.705,-314 907.705,-317.5 907.705,-310.5"/>
</g>
<!-- Node15 -->
<g id="node29" class="node"><title>Node15</title>
<a xlink:href="class_kitware_1_1_v_t_k_1_1vtk_rendered_representation.html" target="_top" xlink:title="vtkRenderedRepresentation &#45;">
<polygon fill="none" stroke="black" points="966,-266 966,-286 1172,-286 1172,-266 966,-266"/>
<text text-anchor="middle" x="1069" y="-273" font-family="FreeSans" font-size="10.00">Kitware.VTK.vtkRenderedRepresentation</text>
</a>
</g>
<!-- Node12&#45;&gt;Node15 -->
<g id="edge28" class="edge"><title>Node12&#45;&gt;Node15</title>
<path fill="none" stroke="midnightblue" d="M884.825,-302.51C921.33,-297.256 964.181,-291.088 999.359,-286.024"/>
<polygon fill="midnightblue" stroke="midnightblue" points="884.108,-299.077 874.708,-303.966 885.105,-306.006 884.108,-299.077"/>
</g>
<!-- Node16 -->
<g id="node31" class="node"><title>Node16</title>
<a xlink:href="class_kitware_1_1_v_t_k_1_1vtk_parallel_coordinates_representation.html" target="_top" xlink:title="vtkParallelCoordinatesRepresentation &#45; Data representation that takes generic multivariate data and p...">
<polygon fill="none" stroke="black" points="1228.5,-323 1228.5,-343 1481.5,-343 1481.5,-323 1228.5,-323"/>
<text text-anchor="middle" x="1355" y="-330" font-family="FreeSans" font-size="10.00">Kitware.VTK.vtkParallelCoordinatesRepresentation</text>
</a>
</g>
<!-- Node15&#45;&gt;Node16 -->
<g id="edge30" class="edge"><title>Node15&#45;&gt;Node16</title>
<path fill="none" stroke="midnightblue" d="M1167.42,-288.19C1175.82,-290.137 1184.11,-292.391 1192,-295 1209.18,-300.681 1210.81,-308.359 1228,-314 1239.12,-317.649 1251.02,-320.601 1262.91,-322.987"/>
<polygon fill="midnightblue" stroke="midnightblue" points="1168.04,-284.744 1157.53,-286.043 1166.56,-291.585 1168.04,-284.744"/>
</g>
<!-- Node18 -->
<g id="node35" class="node"><title>Node18</title>
<a xlink:href="class_kitware_1_1_v_t_k_1_1vtk_rendered_graph_representation.html" target="_top" xlink:title="vtkRenderedGraphRepresentation &#45;">
<polygon fill="none" stroke="black" points="1237,-285 1237,-305 1473,-305 1473,-285 1237,-285"/>
<text text-anchor="middle" x="1355" y="-292" font-family="FreeSans" font-size="10.00">Kitware.VTK.vtkRenderedGraphRepresentation</text>
</a>
</g>
<!-- Node15&#45;&gt;Node18 -->
<g id="edge34" class="edge"><title>Node15&#45;&gt;Node18</title>
<path fill="none" stroke="midnightblue" d="M1182.66,-283.551C1200.48,-284.734 1218.93,-285.96 1236.84,-287.15"/>
<polygon fill="midnightblue" stroke="midnightblue" points="1182.46,-280.03 1172.25,-282.859 1182,-287.015 1182.46,-280.03"/>
</g>
<!-- Node20 -->
<g id="node39" class="node"><title>Node20</title>
<a xlink:href="class_kitware_1_1_v_t_k_1_1vtk_rendered_surface_representation.html" target="_top" xlink:title="vtkRenderedSurfaceRepresentation &#45; Displays a geometric dataset as a surface.">
<polygon fill="none" stroke="black" points="1233.5,-247 1233.5,-267 1476.5,-267 1476.5,-247 1233.5,-247"/>
<text text-anchor="middle" x="1355" y="-254" font-family="FreeSans" font-size="10.00">Kitware.VTK.vtkRenderedSurfaceRepresentation</text>
</a>
</g>
<!-- Node15&#45;&gt;Node20 -->
<g id="edge38" class="edge"><title>Node15&#45;&gt;Node20</title>
<path fill="none" stroke="midnightblue" d="M1182.57,-268.455C1199.28,-267.345 1216.54,-266.198 1233.4,-265.078"/>
<polygon fill="midnightblue" stroke="midnightblue" points="1182,-264.985 1172.25,-269.141 1182.46,-271.97 1182,-264.985"/>
</g>
<!-- Node21 -->
<g id="node41" class="node"><title>Node21</title>
<a xlink:href="class_kitware_1_1_v_t_k_1_1vtk_rendered_tree_area_representation.html" target="_top" xlink:title="vtkRenderedTreeAreaRepresentation &#45;">
<polygon fill="none" stroke="black" points="1231,-209 1231,-229 1479,-229 1479,-209 1231,-209"/>
<text text-anchor="middle" x="1355" y="-216" font-family="FreeSans" font-size="10.00">Kitware.VTK.vtkRenderedTreeAreaRepresentation</text>
</a>
</g>
<!-- Node15&#45;&gt;Node21 -->
<g id="edge40" class="edge"><title>Node15&#45;&gt;Node21</title>
<path fill="none" stroke="midnightblue" d="M1116.85,-263.428C1148.29,-255.448 1190.41,-245.289 1228,-238 1244.96,-234.711 1263.29,-231.672 1280.61,-229.033"/>
<polygon fill="midnightblue" stroke="midnightblue" points="1115.85,-260.069 1107.03,-265.936 1117.59,-266.851 1115.85,-260.069"/>
</g>
<!-- Node17 -->
<g id="node33" class="node"><title>Node17</title>
<a xlink:href="class_kitware_1_1_v_t_k_1_1vtk_parallel_coordinates_histogram_representation.html" target="_top" xlink:title="vtkParallelCoordinatesHistogramRepresentation &#45; Data representation that takes generic multivariate d...">
<polygon fill="none" stroke="black" points="1518.5,-323 1518.5,-343 1821.5,-343 1821.5,-323 1518.5,-323"/>
<text text-anchor="middle" x="1670" y="-330" font-family="FreeSans" font-size="10.00">Kitware.VTK.vtkParallelCoordinatesHistogramRepresentation</text>
</a>
</g>
<!-- Node16&#45;&gt;Node17 -->
<g id="edge32" class="edge"><title>Node16&#45;&gt;Node17</title>
<path fill="none" stroke="midnightblue" d="M1491.98,-333C1500.73,-333 1509.56,-333 1518.37,-333"/>
<polygon fill="midnightblue" stroke="midnightblue" points="1491.76,-329.5 1481.76,-333 1491.76,-336.5 1491.76,-329.5"/>
</g>
<!-- Node19 -->
<g id="node37" class="node"><title>Node19</title>
<a xlink:href="class_kitware_1_1_v_t_k_1_1vtk_rendered_hierarchy_representation.html" target="_top" xlink:title="vtkRenderedHierarchyRepresentation &#45;">
<polygon fill="none" stroke="black" points="1544,-285 1544,-305 1796,-305 1796,-285 1544,-285"/>
<text text-anchor="middle" x="1670" y="-292" font-family="FreeSans" font-size="10.00">Kitware.VTK.vtkRenderedHierarchyRepresentation</text>
</a>
</g>
<!-- Node18&#45;&gt;Node19 -->
<g id="edge36" class="edge"><title>Node18&#45;&gt;Node19</title>
<path fill="none" stroke="midnightblue" d="M1483.25,-295C1503.22,-295 1523.84,-295 1543.77,-295"/>
<polygon fill="midnightblue" stroke="midnightblue" points="1483.19,-291.5 1473.19,-295 1483.19,-298.5 1483.19,-291.5"/>
</g>
</g>
</svg>
