<?xml version="1.0" encoding="UTF-8" standalone="no"?>
<!DOCTYPE svg PUBLIC "-//W3C//DTD SVG 1.1//EN"
 "http://www.w3.org/Graphics/SVG/1.1/DTD/svg11.dtd">
<!-- Generated by graphviz version 2.26.3 (20100126.1600)
 -->
<!-- Title: G Pages: 1 -->
<svg width="214pt" height="436pt"
 viewBox="0.00 0.00 214.00 436.00" xmlns="http://www.w3.org/2000/svg" xmlns:xlink="http://www.w3.org/1999/xlink">
<g id="graph1" class="graph" transform="scale(1 1) rotate(0) translate(4 432)">
<title>G</title>
<!-- Node1 -->
<g id="node1" class="node"><title>Node1</title>
<polygon fill="#bfbfbf" stroke="black" points="-0.5,-1 -0.5,-21 206.5,-21 206.5,-1 -0.5,-1"/>
<text text-anchor="middle" x="103" y="-8" font-family="FreeSans" font-size="10.00">Kitware.VTK.vtkNonMergingPointLocator</text>
</g>
<!-- Node2 -->
<g id="node2" class="node"><title>Node2</title>
<a xlink:href="class_kitware_1_1_v_t_k_1_1vtk_point_locator.html" target="_top" xlink:title="vtkPointLocator &#45; quickly locate points in 3&#45;space">
<polygon fill="none" stroke="black" points="57.5,-59 57.5,-79 148.5,-79 148.5,-59 57.5,-59"/>
<text text-anchor="middle" x="103" y="-66" font-family="FreeSans" font-size="10.00">vtkPointLocator</text>
</a>
</g>
<!-- Node2&#45;&gt;Node1 -->
<g id="edge2" class="edge"><title>Node2&#45;&gt;Node1</title>
<path fill="none" stroke="midnightblue" d="M103,-48.8902C103,-39.6201 103,-29.0083 103,-21.3776"/>
<polygon fill="midnightblue" stroke="midnightblue" points="99.5001,-48.8971 103,-58.8972 106.5,-48.8972 99.5001,-48.8971"/>
</g>
<!-- Node3 -->
<g id="node4" class="node"><title>Node3</title>
<a xlink:href="class_kitware_1_1_v_t_k_1_1vtk_incremental_point_locator.html" target="_top" xlink:title="vtkIncrementalPointLocator &#45; Abstract class in support of both point location and point insertion...">
<polygon fill="none" stroke="black" points="29,-117 29,-137 177,-137 177,-117 29,-117"/>
<text text-anchor="middle" x="103" y="-124" font-family="FreeSans" font-size="10.00">vtkIncrementalPointLocator</text>
</a>
</g>
<!-- Node3&#45;&gt;Node2 -->
<g id="edge4" class="edge"><title>Node3&#45;&gt;Node2</title>
<path fill="none" stroke="midnightblue" d="M103,-106.89C103,-97.6201 103,-87.0083 103,-79.3776"/>
<polygon fill="midnightblue" stroke="midnightblue" points="99.5001,-106.897 103,-116.897 106.5,-106.897 99.5001,-106.897"/>
</g>
<!-- Node4 -->
<g id="node6" class="node"><title>Node4</title>
<a xlink:href="class_kitware_1_1_v_t_k_1_1vtk_abstract_point_locator.html" target="_top" xlink:title="vtkAbstractPointLocator &#45; abstract class to quickly locate points in 3&#45;space">
<polygon fill="none" stroke="black" points="37.5,-175 37.5,-195 168.5,-195 168.5,-175 37.5,-175"/>
<text text-anchor="middle" x="103" y="-182" font-family="FreeSans" font-size="10.00">vtkAbstractPointLocator</text>
</a>
</g>
<!-- Node4&#45;&gt;Node3 -->
<g id="edge6" class="edge"><title>Node4&#45;&gt;Node3</title>
<path fill="none" stroke="midnightblue" d="M103,-164.89C103,-155.62 103,-145.008 103,-137.378"/>
<polygon fill="midnightblue" stroke="midnightblue" points="99.5001,-164.897 103,-174.897 106.5,-164.897 99.5001,-164.897"/>
</g>
<!-- Node5 -->
<g id="node8" class="node"><title>Node5</title>
<a xlink:href="class_kitware_1_1_v_t_k_1_1vtk_locator.html" target="_top" xlink:title="vtkLocator &#45; abstract base class for objects that accelerate spatial searches">
<polygon fill="none" stroke="black" points="69.5,-233 69.5,-253 136.5,-253 136.5,-233 69.5,-233"/>
<text text-anchor="middle" x="103" y="-240" font-family="FreeSans" font-size="10.00">vtkLocator</text>
</a>
</g>
<!-- Node5&#45;&gt;Node4 -->
<g id="edge8" class="edge"><title>Node5&#45;&gt;Node4</title>
<path fill="none" stroke="midnightblue" d="M103,-222.89C103,-213.62 103,-203.008 103,-195.378"/>
<polygon fill="midnightblue" stroke="midnightblue" points="99.5001,-222.897 103,-232.897 106.5,-222.897 99.5001,-222.897"/>
</g>
<!-- Node6 -->
<g id="node10" class="node"><title>Node6</title>
<a xlink:href="class_kitware_1_1_v_t_k_1_1vtk_object.html" target="_top" xlink:title="vtkObject &#45; abstract base class for most VTK objects">
<polygon fill="none" stroke="black" points="72,-291 72,-311 134,-311 134,-291 72,-291"/>
<text text-anchor="middle" x="103" y="-298" font-family="FreeSans" font-size="10.00">vtkObject</text>
</a>
</g>
<!-- Node6&#45;&gt;Node5 -->
<g id="edge10" class="edge"><title>Node6&#45;&gt;Node5</title>
<path fill="none" stroke="midnightblue" d="M103,-280.89C103,-271.62 103,-261.008 103,-253.378"/>
<polygon fill="midnightblue" stroke="midnightblue" points="99.5001,-280.897 103,-290.897 106.5,-280.897 99.5001,-280.897"/>
</g>
<!-- Node7 -->
<g id="node12" class="node"><title>Node7</title>
<a xlink:href="class_kitware_1_1_v_t_k_1_1vtk_object_base.html" target="_top" xlink:title="vtkObjectBase &#45; abstract base class for most VTK objects">
<polygon fill="none" stroke="black" points="60,-349 60,-369 146,-369 146,-349 60,-349"/>
<text text-anchor="middle" x="103" y="-356" font-family="FreeSans" font-size="10.00">vtkObjectBase</text>
</a>
</g>
<!-- Node7&#45;&gt;Node6 -->
<g id="edge12" class="edge"><title>Node7&#45;&gt;Node6</title>
<path fill="none" stroke="midnightblue" d="M103,-338.89C103,-329.62 103,-319.008 103,-311.378"/>
<polygon fill="midnightblue" stroke="midnightblue" points="99.5001,-338.897 103,-348.897 106.5,-338.897 99.5001,-338.897"/>
</g>
<!-- Node8 -->
<g id="node14" class="node"><title>Node8</title>
<a xlink:href="class_kitware_1_1_v_t_k_1_1_wrapped_object.html" target="_top" xlink:title="Base class for all the mummy wrapped classes in Kitware.VTK.">
<polygon fill="none" stroke="black" points="58.5,-407 58.5,-427 147.5,-427 147.5,-407 58.5,-407"/>
<text text-anchor="middle" x="103" y="-414" font-family="FreeSans" font-size="10.00">WrappedObject</text>
</a>
</g>
<!-- Node8&#45;&gt;Node7 -->
<g id="edge14" class="edge"><title>Node8&#45;&gt;Node7</title>
<path fill="none" stroke="midnightblue" d="M103,-396.89C103,-387.62 103,-377.008 103,-369.378"/>
<polygon fill="midnightblue" stroke="midnightblue" points="99.5001,-396.897 103,-406.897 106.5,-396.897 99.5001,-396.897"/>
</g>
</g>
</svg>
