<?xml version="1.0" encoding="UTF-8" standalone="no"?>
<!DOCTYPE svg PUBLIC "-//W3C//DTD SVG 1.1//EN"
 "http://www.w3.org/Graphics/SVG/1.1/DTD/svg11.dtd">
<!-- Generated by graphviz version 2.26.3 (20100126.1600)
 -->
<!-- Title: G Pages: 1 -->
<svg width="966pt" height="598pt"
 viewBox="0.00 0.00 966.00 598.00" xmlns="http://www.w3.org/2000/svg" xmlns:xlink="http://www.w3.org/1999/xlink">
<g id="graph1" class="graph" transform="scale(1 1) rotate(0) translate(4 594)">
<title>G</title>
<!-- Node1 -->
<g id="node1" class="node"><title>Node1</title>
<polygon fill="#bfbfbf" stroke="black" points="346.5,-285 346.5,-305 509.5,-305 509.5,-285 346.5,-285"/>
<text text-anchor="middle" x="428" y="-292" font-family="FreeSans" font-size="10.00">Kitware.VTK.vtkImplicitFunction</text>
</g>
<!-- Node5 -->
<g id="node9" class="node"><title>Node5</title>
<a xlink:href="class_kitware_1_1_v_t_k_1_1vtk_box.html" target="_top" xlink:title="vtkBox &#45; implicit function for a bounding box">
<polygon fill="none" stroke="black" points="591.5,-570 591.5,-590 698.5,-590 698.5,-570 591.5,-570"/>
<text text-anchor="middle" x="645" y="-577" font-family="FreeSans" font-size="10.00">Kitware.VTK.vtkBox</text>
</a>
</g>
<!-- Node1&#45;&gt;Node5 -->
<g id="edge8" class="edge"><title>Node1&#45;&gt;Node5</title>
<path fill="none" stroke="midnightblue" d="M430.581,-315.137C438.148,-365.358 465.1,-496.717 546,-561 558.811,-571.18 575.471,-576.458 591.458,-579.058"/>
<polygon fill="midnightblue" stroke="midnightblue" points="434.042,-314.614 429.182,-305.199 427.11,-315.59 434.042,-314.614"/>
</g>
<!-- Node6 -->
<g id="node11" class="node"><title>Node6</title>
<a xlink:href="class_kitware_1_1_v_t_k_1_1vtk_cone.html" target="_top" xlink:title="vtkCone &#45; implicit function for a cone">
<polygon fill="none" stroke="black" points="588,-532 588,-552 702,-552 702,-532 588,-532"/>
<text text-anchor="middle" x="645" y="-539" font-family="FreeSans" font-size="10.00">Kitware.VTK.vtkCone</text>
</a>
</g>
<!-- Node1&#45;&gt;Node6 -->
<g id="edge10" class="edge"><title>Node1&#45;&gt;Node6</title>
<path fill="none" stroke="midnightblue" d="M432.208,-315.269C442.716,-360.454 474.559,-469.652 546,-523 558.06,-532.005 573.189,-537.105 587.965,-539.906"/>
<polygon fill="midnightblue" stroke="midnightblue" points="435.565,-314.24 429.986,-305.233 428.731,-315.754 435.565,-314.24"/>
</g>
<!-- Node7 -->
<g id="node13" class="node"><title>Node7</title>
<a xlink:href="class_kitware_1_1_v_t_k_1_1vtk_cylinder.html" target="_top" xlink:title="vtkCylinder &#45; implicit function for a cylinder">
<polygon fill="none" stroke="black" points="581,-494 581,-514 709,-514 709,-494 581,-494"/>
<text text-anchor="middle" x="645" y="-501" font-family="FreeSans" font-size="10.00">Kitware.VTK.vtkCylinder</text>
</a>
</g>
<!-- Node1&#45;&gt;Node7 -->
<g id="edge12" class="edge"><title>Node1&#45;&gt;Node7</title>
<path fill="none" stroke="midnightblue" d="M434.256,-314.848C447.759,-354.215 483.571,-442.076 546,-485 556.311,-492.09 568.585,-496.701 580.922,-499.666"/>
<polygon fill="midnightblue" stroke="midnightblue" points="437.565,-313.709 431.101,-305.315 430.92,-315.908 437.565,-313.709"/>
</g>
<!-- Node8 -->
<g id="node15" class="node"><title>Node8</title>
<a xlink:href="class_kitware_1_1_v_t_k_1_1vtk_implicit_boolean.html" target="_top" xlink:title="vtkImplicitBoolean &#45; implicit function consisting of boolean combinations of implicit functions...">
<polygon fill="none" stroke="black" points="564,-456 564,-476 726,-476 726,-456 564,-456"/>
<text text-anchor="middle" x="645" y="-463" font-family="FreeSans" font-size="10.00">Kitware.VTK.vtkImplicitBoolean</text>
</a>
</g>
<!-- Node1&#45;&gt;Node8 -->
<g id="edge14" class="edge"><title>Node1&#45;&gt;Node8</title>
<path fill="none" stroke="midnightblue" d="M437.089,-314.263C453.714,-347.227 492.319,-414.077 546,-447 551.893,-450.614 558.324,-453.565 564.988,-455.972"/>
<polygon fill="midnightblue" stroke="midnightblue" points="440.188,-312.633 432.642,-305.196 433.903,-315.715 440.188,-312.633"/>
</g>
<!-- Node9 -->
<g id="node17" class="node"><title>Node9</title>
<a xlink:href="class_kitware_1_1_v_t_k_1_1vtk_implicit_data_set.html" target="_top" xlink:title="vtkImplicitDataSet &#45; treat a dataset as if it were an implicit function">
<polygon fill="none" stroke="black" points="563.5,-418 563.5,-438 726.5,-438 726.5,-418 563.5,-418"/>
<text text-anchor="middle" x="645" y="-425" font-family="FreeSans" font-size="10.00">Kitware.VTK.vtkImplicitDataSet</text>
</a>
</g>
<!-- Node1&#45;&gt;Node9 -->
<g id="edge16" class="edge"><title>Node1&#45;&gt;Node9</title>
<path fill="none" stroke="midnightblue" d="M441.353,-313.4C461.128,-339.18 500.771,-385.517 546,-409 552.99,-412.629 560.581,-415.569 568.346,-417.951"/>
<polygon fill="midnightblue" stroke="midnightblue" points="444.011,-311.11 435.211,-305.21 438.411,-315.31 444.011,-311.11"/>
</g>
<!-- Node10 -->
<g id="node19" class="node"><title>Node10</title>
<a xlink:href="class_kitware_1_1_v_t_k_1_1vtk_implicit_halo.html" target="_top" xlink:title="vtkImplicitHalo &#45; implicit function for an halo">
<polygon fill="none" stroke="black" points="572.5,-380 572.5,-400 717.5,-400 717.5,-380 572.5,-380"/>
<text text-anchor="middle" x="645" y="-387" font-family="FreeSans" font-size="10.00">Kitware.VTK.vtkImplicitHalo</text>
</a>
</g>
<!-- Node1&#45;&gt;Node10 -->
<g id="edge18" class="edge"><title>Node1&#45;&gt;Node10</title>
<path fill="none" stroke="midnightblue" d="M448.308,-311.57C470.814,-329.065 508.856,-356.125 546,-371 555.017,-374.611 564.777,-377.549 574.535,-379.937"/>
<polygon fill="midnightblue" stroke="midnightblue" points="450.22,-308.62 440.205,-305.16 445.877,-314.109 450.22,-308.62"/>
</g>
<!-- Node11 -->
<g id="node21" class="node"><title>Node11</title>
<a xlink:href="class_kitware_1_1_v_t_k_1_1vtk_implicit_selection_loop.html" target="_top" xlink:title="vtkImplicitSelectionLoop &#45; implicit function for a selection loop">
<polygon fill="none" stroke="black" points="549.5,-342 549.5,-362 740.5,-362 740.5,-342 549.5,-342"/>
<text text-anchor="middle" x="645" y="-349" font-family="FreeSans" font-size="10.00">Kitware.VTK.vtkImplicitSelectionLoop</text>
</a>
</g>
<!-- Node1&#45;&gt;Node11 -->
<g id="edge20" class="edge"><title>Node1&#45;&gt;Node11</title>
<path fill="none" stroke="midnightblue" d="M465.567,-308.392C488.583,-316.272 518.757,-326.027 546,-333 558.97,-336.32 573.029,-339.352 586.368,-341.973"/>
<polygon fill="midnightblue" stroke="midnightblue" points="466.448,-304.993 455.853,-305.032 464.159,-311.609 466.448,-304.993"/>
</g>
<!-- Node12 -->
<g id="node23" class="node"><title>Node12</title>
<a xlink:href="class_kitware_1_1_v_t_k_1_1vtk_implicit_sum.html" target="_top" xlink:title="vtkImplicitSum &#45; implicit sum of other implicit functions">
<polygon fill="none" stroke="black" points="572,-304 572,-324 718,-324 718,-304 572,-304"/>
<text text-anchor="middle" x="645" y="-311" font-family="FreeSans" font-size="10.00">Kitware.VTK.vtkImplicitSum</text>
</a>
</g>
<!-- Node1&#45;&gt;Node12 -->
<g id="edge22" class="edge"><title>Node1&#45;&gt;Node12</title>
<path fill="none" stroke="midnightblue" d="M519.877,-303.045C537.25,-304.566 555.205,-306.138 571.904,-307.6"/>
<polygon fill="midnightblue" stroke="midnightblue" points="519.996,-299.542 509.729,-302.156 519.386,-306.515 519.996,-299.542"/>
</g>
<!-- Node13 -->
<g id="node25" class="node"><title>Node13</title>
<a xlink:href="class_kitware_1_1_v_t_k_1_1vtk_implicit_volume.html" target="_top" xlink:title="vtkImplicitVolume &#45; treat a volume as if it were an implicit function">
<polygon fill="none" stroke="black" points="565.5,-266 565.5,-286 724.5,-286 724.5,-266 565.5,-266"/>
<text text-anchor="middle" x="645" y="-273" font-family="FreeSans" font-size="10.00">Kitware.VTK.vtkImplicitVolume</text>
</a>
</g>
<!-- Node1&#45;&gt;Node13 -->
<g id="edge24" class="edge"><title>Node1&#45;&gt;Node13</title>
<path fill="none" stroke="midnightblue" d="M520.032,-286.942C535.033,-285.628 550.465,-284.277 565.143,-282.992"/>
<polygon fill="midnightblue" stroke="midnightblue" points="519.386,-283.485 509.729,-287.844 519.996,-290.458 519.386,-283.485"/>
</g>
<!-- Node14 -->
<g id="node27" class="node"><title>Node14</title>
<a xlink:href="class_kitware_1_1_v_t_k_1_1vtk_implicit_window_function.html" target="_top" xlink:title="vtkImplicitWindowFunction &#45; implicit function maps another implicit function to lie within a specifie...">
<polygon fill="none" stroke="black" points="546,-228 546,-248 744,-248 744,-228 546,-228"/>
<text text-anchor="middle" x="645" y="-235" font-family="FreeSans" font-size="10.00">Kitware.VTK.vtkImplicitWindowFunction</text>
</a>
</g>
<!-- Node1&#45;&gt;Node14 -->
<g id="edge26" class="edge"><title>Node1&#45;&gt;Node14</title>
<path fill="none" stroke="midnightblue" d="M465.567,-281.608C488.583,-273.728 518.757,-263.973 546,-257 558.97,-253.68 573.029,-250.648 586.368,-248.027"/>
<polygon fill="midnightblue" stroke="midnightblue" points="464.159,-278.391 455.853,-284.968 466.448,-285.007 464.159,-278.391"/>
</g>
<!-- Node15 -->
<g id="node29" class="node"><title>Node15</title>
<a xlink:href="class_kitware_1_1_v_t_k_1_1vtk_perlin_noise.html" target="_top" xlink:title="vtkPerlinNoise &#45; an implicit function that implements Perlin noise">
<polygon fill="none" stroke="black" points="573.5,-190 573.5,-210 716.5,-210 716.5,-190 573.5,-190"/>
<text text-anchor="middle" x="645" y="-197" font-family="FreeSans" font-size="10.00">Kitware.VTK.vtkPerlinNoise</text>
</a>
</g>
<!-- Node1&#45;&gt;Node15 -->
<g id="edge28" class="edge"><title>Node1&#45;&gt;Node15</title>
<path fill="none" stroke="midnightblue" d="M448.308,-278.43C470.814,-260.935 508.856,-233.875 546,-219 555.017,-215.389 564.777,-212.451 574.535,-210.063"/>
<polygon fill="midnightblue" stroke="midnightblue" points="445.877,-275.891 440.205,-284.84 450.22,-281.38 445.877,-275.891"/>
</g>
<!-- Node16 -->
<g id="node31" class="node"><title>Node16</title>
<a xlink:href="class_kitware_1_1_v_t_k_1_1vtk_plane.html" target="_top" xlink:title="vtkPlane &#45; perform various plane computations">
<polygon fill="none" stroke="black" points="587,-152 587,-172 703,-172 703,-152 587,-152"/>
<text text-anchor="middle" x="645" y="-159" font-family="FreeSans" font-size="10.00">Kitware.VTK.vtkPlane</text>
</a>
</g>
<!-- Node1&#45;&gt;Node16 -->
<g id="edge30" class="edge"><title>Node1&#45;&gt;Node16</title>
<path fill="none" stroke="midnightblue" d="M441.353,-276.6C461.128,-250.82 500.771,-204.483 546,-181 558.504,-174.508 572.933,-170.22 586.84,-167.392"/>
<polygon fill="midnightblue" stroke="midnightblue" points="438.411,-274.69 435.211,-284.79 444.011,-278.89 438.411,-274.69"/>
</g>
<!-- Node17 -->
<g id="node33" class="node"><title>Node17</title>
<a xlink:href="class_kitware_1_1_v_t_k_1_1vtk_planes.html" target="_top" xlink:title="vtkPlanes &#45; implicit function for convex set of planes">
<polygon fill="none" stroke="black" points="584.5,-114 584.5,-134 705.5,-134 705.5,-114 584.5,-114"/>
<text text-anchor="middle" x="645" y="-121" font-family="FreeSans" font-size="10.00">Kitware.VTK.vtkPlanes</text>
</a>
</g>
<!-- Node1&#45;&gt;Node17 -->
<g id="edge32" class="edge"><title>Node1&#45;&gt;Node17</title>
<path fill="none" stroke="midnightblue" d="M437.089,-275.737C453.714,-242.773 492.319,-175.923 546,-143 557.488,-135.955 571.021,-131.429 584.331,-128.544"/>
<polygon fill="midnightblue" stroke="midnightblue" points="433.903,-274.285 432.642,-284.804 440.188,-277.367 433.903,-274.285"/>
</g>
<!-- Node19 -->
<g id="node37" class="node"><title>Node19</title>
<a xlink:href="class_kitware_1_1_v_t_k_1_1vtk_quadric.html" target="_top" xlink:title="vtkQuadric &#45; evaluate implicit quadric function">
<polygon fill="none" stroke="black" points="582,-76 582,-96 708,-96 708,-76 582,-76"/>
<text text-anchor="middle" x="645" y="-83" font-family="FreeSans" font-size="10.00">Kitware.VTK.vtkQuadric</text>
</a>
</g>
<!-- Node1&#45;&gt;Node19 -->
<g id="edge36" class="edge"><title>Node1&#45;&gt;Node19</title>
<path fill="none" stroke="midnightblue" d="M434.256,-275.152C447.759,-235.785 483.571,-147.924 546,-105 556.6,-97.7121 569.274,-93.0429 581.957,-90.0893"/>
<polygon fill="midnightblue" stroke="midnightblue" points="430.92,-274.092 431.101,-284.685 437.565,-276.291 430.92,-274.092"/>
</g>
<!-- Node20 -->
<g id="node39" class="node"><title>Node20</title>
<a xlink:href="class_kitware_1_1_v_t_k_1_1vtk_sphere.html" target="_top" xlink:title="vtkSphere &#45; implicit function for a sphere">
<polygon fill="none" stroke="black" points="583,-38 583,-58 707,-58 707,-38 583,-38"/>
<text text-anchor="middle" x="645" y="-45" font-family="FreeSans" font-size="10.00">Kitware.VTK.vtkSphere</text>
</a>
</g>
<!-- Node1&#45;&gt;Node20 -->
<g id="edge38" class="edge"><title>Node1&#45;&gt;Node20</title>
<path fill="none" stroke="midnightblue" d="M432.208,-274.731C442.716,-229.546 474.559,-120.348 546,-67 556.657,-59.0417 569.712,-54.1341 582.802,-51.1672"/>
<polygon fill="midnightblue" stroke="midnightblue" points="428.731,-274.246 429.986,-284.767 435.565,-275.76 428.731,-274.246"/>
</g>
<!-- Node21 -->
<g id="node41" class="node"><title>Node21</title>
<a xlink:href="class_kitware_1_1_v_t_k_1_1vtk_superquadric.html" target="_top" xlink:title="vtkSuperquadric &#45; implicit function for a Superquadric">
<polygon fill="none" stroke="black" points="568.5,-0 568.5,-20 721.5,-20 721.5,-0 568.5,-0"/>
<text text-anchor="middle" x="645" y="-7" font-family="FreeSans" font-size="10.00">Kitware.VTK.vtkSuperquadric</text>
</a>
</g>
<!-- Node1&#45;&gt;Node21 -->
<g id="edge40" class="edge"><title>Node1&#45;&gt;Node21</title>
<path fill="none" stroke="midnightblue" d="M430.581,-274.863C438.148,-224.642 465.1,-93.2834 546,-29 552.646,-23.7194 560.326,-19.7578 568.412,-16.8048"/>
<polygon fill="midnightblue" stroke="midnightblue" points="427.11,-274.41 429.182,-284.801 434.042,-275.386 427.11,-274.41"/>
</g>
<!-- Node2 -->
<g id="node2" class="node"><title>Node2</title>
<a xlink:href="class_kitware_1_1_v_t_k_1_1vtk_object.html" target="_top" xlink:title="vtkObject &#45; abstract base class for most VTK objects">
<polygon fill="none" stroke="black" points="248,-285 248,-305 310,-305 310,-285 248,-285"/>
<text text-anchor="middle" x="279" y="-292" font-family="FreeSans" font-size="10.00">vtkObject</text>
</a>
</g>
<!-- Node2&#45;&gt;Node1 -->
<g id="edge2" class="edge"><title>Node2&#45;&gt;Node1</title>
<path fill="none" stroke="midnightblue" d="M320.257,-295C328.489,-295 337.402,-295 346.455,-295"/>
<polygon fill="midnightblue" stroke="midnightblue" points="320.235,-291.5 310.235,-295 320.235,-298.5 320.235,-291.5"/>
</g>
<!-- Node3 -->
<g id="node4" class="node"><title>Node3</title>
<a xlink:href="class_kitware_1_1_v_t_k_1_1vtk_object_base.html" target="_top" xlink:title="vtkObjectBase &#45; abstract base class for most VTK objects">
<polygon fill="none" stroke="black" points="126,-285 126,-305 212,-305 212,-285 126,-285"/>
<text text-anchor="middle" x="169" y="-292" font-family="FreeSans" font-size="10.00">vtkObjectBase</text>
</a>
</g>
<!-- Node3&#45;&gt;Node2 -->
<g id="edge4" class="edge"><title>Node3&#45;&gt;Node2</title>
<path fill="none" stroke="midnightblue" d="M222.346,-295C231.091,-295 239.892,-295 247.863,-295"/>
<polygon fill="midnightblue" stroke="midnightblue" points="222.159,-291.5 212.159,-295 222.159,-298.5 222.159,-291.5"/>
</g>
<!-- Node4 -->
<g id="node6" class="node"><title>Node4</title>
<a xlink:href="class_kitware_1_1_v_t_k_1_1_wrapped_object.html" target="_top" xlink:title="Base class for all the mummy wrapped classes in Kitware.VTK.">
<polygon fill="none" stroke="black" points="0.5,-285 0.5,-305 89.5,-305 89.5,-285 0.5,-285"/>
<text text-anchor="middle" x="45" y="-292" font-family="FreeSans" font-size="10.00">WrappedObject</text>
</a>
</g>
<!-- Node4&#45;&gt;Node3 -->
<g id="edge6" class="edge"><title>Node4&#45;&gt;Node3</title>
<path fill="none" stroke="midnightblue" d="M99.8895,-295C108.623,-295 117.548,-295 125.957,-295"/>
<polygon fill="midnightblue" stroke="midnightblue" points="99.7669,-291.5 89.7668,-295 99.7668,-298.5 99.7669,-291.5"/>
</g>
<!-- Node18 -->
<g id="node35" class="node"><title>Node18</title>
<a xlink:href="class_kitware_1_1_v_t_k_1_1vtk_planes_intersection.html" target="_top" xlink:title="vtkPlanesIntersection &#45; A vtkPlanesIntersection object is a vtkPlanes object that can compute whether...">
<polygon fill="none" stroke="black" points="780.5,-114 780.5,-134 957.5,-134 957.5,-114 780.5,-114"/>
<text text-anchor="middle" x="869" y="-121" font-family="FreeSans" font-size="10.00">Kitware.VTK.vtkPlanesIntersection</text>
</a>
</g>
<!-- Node17&#45;&gt;Node18 -->
<g id="edge34" class="edge"><title>Node17&#45;&gt;Node18</title>
<path fill="none" stroke="midnightblue" d="M715.775,-124C736.207,-124 758.767,-124 780.149,-124"/>
<polygon fill="midnightblue" stroke="midnightblue" points="715.618,-120.5 705.618,-124 715.618,-127.5 715.618,-120.5"/>
</g>
</g>
</svg>
