<?xml version="1.0" encoding="UTF-8" standalone="no"?>
<!DOCTYPE svg PUBLIC "-//W3C//DTD SVG 1.1//EN"
 "http://www.w3.org/Graphics/SVG/1.1/DTD/svg11.dtd">
<!-- Generated by graphviz version 2.26.3 (20100126.1600)
 -->
<!-- Title: G Pages: 1 -->
<svg width="738pt" height="104pt"
 viewBox="0.00 0.00 738.00 104.00" xmlns="http://www.w3.org/2000/svg" xmlns:xlink="http://www.w3.org/1999/xlink">
<g id="graph1" class="graph" transform="scale(1 1) rotate(0) translate(4 100)">
<title>G</title>
<!-- Node1 -->
<g id="node1" class="node"><title>Node1</title>
<polygon fill="#bfbfbf" stroke="black" points="346.5,-38 346.5,-58 501.5,-58 501.5,-38 346.5,-38"/>
<text text-anchor="middle" x="424" y="-45" font-family="FreeSans" font-size="10.00">Kitware.VTK.vtkSQLDatabase</text>
</g>
<!-- Node5 -->
<g id="node9" class="node"><title>Node5</title>
<a xlink:href="class_kitware_1_1_v_t_k_1_1vtk_my_s_q_l_database.html" target="_top" xlink:title="vtkMySQLDatabase &#45; maintain a connection to a MySQL database">
<polygon fill="none" stroke="black" points="549.5,-76 549.5,-96 718.5,-96 718.5,-76 549.5,-76"/>
<text text-anchor="middle" x="634" y="-83" font-family="FreeSans" font-size="10.00">Kitware.VTK.vtkMySQLDatabase</text>
</a>
</g>
<!-- Node1&#45;&gt;Node5 -->
<g id="edge8" class="edge"><title>Node1&#45;&gt;Node5</title>
<path fill="none" stroke="midnightblue" d="M489.365,-59.828C517.989,-65.0076 551.219,-71.0206 578.604,-75.976"/>
<polygon fill="midnightblue" stroke="midnightblue" points="489.913,-56.3704 479.45,-58.0338 488.667,-63.2585 489.913,-56.3704"/>
</g>
<!-- Node6 -->
<g id="node11" class="node"><title>Node6</title>
<a xlink:href="class_kitware_1_1_v_t_k_1_1vtk_postgre_s_q_l_database.html" target="_top" xlink:title="vtkPostgreSQLDatabase &#45; maintain a connection to a PostgreSQL database">
<polygon fill="none" stroke="black" points="538,-38 538,-58 730,-58 730,-38 538,-38"/>
<text text-anchor="middle" x="634" y="-45" font-family="FreeSans" font-size="10.00">Kitware.VTK.vtkPostgreSQLDatabase</text>
</a>
</g>
<!-- Node1&#45;&gt;Node6 -->
<g id="edge10" class="edge"><title>Node1&#45;&gt;Node6</title>
<path fill="none" stroke="midnightblue" d="M511.66,-48C520.305,-48 529.111,-48 537.836,-48"/>
<polygon fill="midnightblue" stroke="midnightblue" points="511.6,-44.5001 501.6,-48 511.6,-51.5001 511.6,-44.5001"/>
</g>
<!-- Node7 -->
<g id="node13" class="node"><title>Node7</title>
<a xlink:href="class_kitware_1_1_v_t_k_1_1vtk_s_q_lite_database.html" target="_top" xlink:title="vtkSQLiteDatabase &#45; maintain a connection to an SQLite database">
<polygon fill="none" stroke="black" points="550.5,-0 550.5,-20 717.5,-20 717.5,-0 550.5,-0"/>
<text text-anchor="middle" x="634" y="-7" font-family="FreeSans" font-size="10.00">Kitware.VTK.vtkSQLiteDatabase</text>
</a>
</g>
<!-- Node1&#45;&gt;Node7 -->
<g id="edge12" class="edge"><title>Node1&#45;&gt;Node7</title>
<path fill="none" stroke="midnightblue" d="M489.365,-36.172C517.989,-30.9924 551.219,-24.9794 578.604,-20.024"/>
<polygon fill="midnightblue" stroke="midnightblue" points="488.667,-32.7415 479.45,-37.9662 489.913,-39.6296 488.667,-32.7415"/>
</g>
<!-- Node2 -->
<g id="node2" class="node"><title>Node2</title>
<a xlink:href="class_kitware_1_1_v_t_k_1_1vtk_object.html" target="_top" xlink:title="vtkObject &#45; abstract base class for most VTK objects">
<polygon fill="none" stroke="black" points="248,-38 248,-58 310,-58 310,-38 248,-38"/>
<text text-anchor="middle" x="279" y="-45" font-family="FreeSans" font-size="10.00">vtkObject</text>
</a>
</g>
<!-- Node2&#45;&gt;Node1 -->
<g id="edge2" class="edge"><title>Node2&#45;&gt;Node1</title>
<path fill="none" stroke="midnightblue" d="M320.187,-48C328.464,-48 337.415,-48 346.471,-48"/>
<polygon fill="midnightblue" stroke="midnightblue" points="320.106,-44.5001 310.106,-48 320.106,-51.5001 320.106,-44.5001"/>
</g>
<!-- Node3 -->
<g id="node4" class="node"><title>Node3</title>
<a xlink:href="class_kitware_1_1_v_t_k_1_1vtk_object_base.html" target="_top" xlink:title="vtkObjectBase &#45; abstract base class for most VTK objects">
<polygon fill="none" stroke="black" points="126,-38 126,-58 212,-58 212,-38 126,-38"/>
<text text-anchor="middle" x="169" y="-45" font-family="FreeSans" font-size="10.00">vtkObjectBase</text>
</a>
</g>
<!-- Node3&#45;&gt;Node2 -->
<g id="edge4" class="edge"><title>Node3&#45;&gt;Node2</title>
<path fill="none" stroke="midnightblue" d="M222.346,-48C231.091,-48 239.892,-48 247.863,-48"/>
<polygon fill="midnightblue" stroke="midnightblue" points="222.159,-44.5001 212.159,-48 222.159,-51.5001 222.159,-44.5001"/>
</g>
<!-- Node4 -->
<g id="node6" class="node"><title>Node4</title>
<a xlink:href="class_kitware_1_1_v_t_k_1_1_wrapped_object.html" target="_top" xlink:title="Base class for all the mummy wrapped classes in Kitware.VTK.">
<polygon fill="none" stroke="black" points="0.5,-38 0.5,-58 89.5,-58 89.5,-38 0.5,-38"/>
<text text-anchor="middle" x="45" y="-45" font-family="FreeSans" font-size="10.00">WrappedObject</text>
</a>
</g>
<!-- Node4&#45;&gt;Node3 -->
<g id="edge6" class="edge"><title>Node4&#45;&gt;Node3</title>
<path fill="none" stroke="midnightblue" d="M99.8895,-48C108.623,-48 117.548,-48 125.957,-48"/>
<polygon fill="midnightblue" stroke="midnightblue" points="99.7669,-44.5001 89.7668,-48 99.7668,-51.5001 99.7669,-44.5001"/>
</g>
</g>
</svg>
