<?xml version="1.0" encoding="UTF-8" standalone="no"?>
<!DOCTYPE svg PUBLIC "-//W3C//DTD SVG 1.1//EN"
 "http://www.w3.org/Graphics/SVG/1.1/DTD/svg11.dtd">
<!-- Generated by graphviz version 2.26.3 (20100126.1600)
 -->
<!-- Title: G Pages: 1 -->
<svg width="1418pt" height="66pt"
 viewBox="0.00 0.00 1418.00 66.00" xmlns="http://www.w3.org/2000/svg" xmlns:xlink="http://www.w3.org/1999/xlink">
<g id="graph1" class="graph" transform="scale(1 1) rotate(0) translate(4 62)">
<title>G</title>
<!-- Node1 -->
<g id="node1" class="node"><title>Node1</title>
<polygon fill="#bfbfbf" stroke="black" points="782.5,-19 782.5,-39 1077.5,-39 1077.5,-19 782.5,-19"/>
<text text-anchor="middle" x="930" y="-26" font-family="FreeSans" font-size="10.00">Kitware.VTK.vtkAbstractPolygonalHandleRepresentation3D</text>
</g>
<!-- Node8 -->
<g id="node15" class="node"><title>Node8</title>
<a xlink:href="class_kitware_1_1_v_t_k_1_1vtk_oriented_polygonal_handle_representation3_d.html" target="_top" xlink:title="vtkOrientedPolygonalHandleRepresentation3D &#45; represent a user defined handle geometry in 3D while mai...">
<polygon fill="none" stroke="black" points="1114,-38 1114,-58 1410,-58 1410,-38 1114,-38"/>
<text text-anchor="middle" x="1262" y="-45" font-family="FreeSans" font-size="10.00">Kitware.VTK.vtkOrientedPolygonalHandleRepresentation3D</text>
</a>
</g>
<!-- Node1&#45;&gt;Node8 -->
<g id="edge14" class="edge"><title>Node1&#45;&gt;Node8</title>
<path fill="none" stroke="midnightblue" d="M1087.73,-38.027C1096.42,-38.5242 1105.14,-39.0233 1113.8,-39.5185"/>
<polygon fill="midnightblue" stroke="midnightblue" points="1087.74,-34.5215 1077.55,-37.4443 1087.34,-41.5101 1087.74,-34.5215"/>
</g>
<!-- Node9 -->
<g id="node17" class="node"><title>Node9</title>
<a xlink:href="class_kitware_1_1_v_t_k_1_1vtk_polygonal_handle_representation3_d.html" target="_top" xlink:title="vtkPolygonalHandleRepresentation3D &#45; represent a user defined handle geometry in 3D space...">
<polygon fill="none" stroke="black" points="1135,-0 1135,-20 1389,-20 1389,-0 1135,-0"/>
<text text-anchor="middle" x="1262" y="-7" font-family="FreeSans" font-size="10.00">Kitware.VTK.vtkPolygonalHandleRepresentation3D</text>
</a>
</g>
<!-- Node1&#45;&gt;Node9 -->
<g id="edge16" class="edge"><title>Node1&#45;&gt;Node9</title>
<path fill="none" stroke="midnightblue" d="M1087.9,-19.9638C1103.66,-19.0614 1119.53,-18.1534 1134.92,-17.2725"/>
<polygon fill="midnightblue" stroke="midnightblue" points="1087.34,-16.4899 1077.55,-20.5557 1087.74,-23.4785 1087.34,-16.4899"/>
</g>
<!-- Node2 -->
<g id="node2" class="node"><title>Node2</title>
<a xlink:href="class_kitware_1_1_v_t_k_1_1vtk_handle_representation.html" target="_top" xlink:title="vtkHandleRepresentation &#45; abstract class for representing widget handles">
<polygon fill="none" stroke="black" points="608.5,-19 608.5,-39 745.5,-39 745.5,-19 608.5,-19"/>
<text text-anchor="middle" x="677" y="-26" font-family="FreeSans" font-size="10.00">vtkHandleRepresentation</text>
</a>
</g>
<!-- Node2&#45;&gt;Node1 -->
<g id="edge2" class="edge"><title>Node2&#45;&gt;Node1</title>
<path fill="none" stroke="midnightblue" d="M756.016,-29C764.539,-29 773.399,-29 782.405,-29"/>
<polygon fill="midnightblue" stroke="midnightblue" points="755.799,-25.5001 745.799,-29 755.799,-32.5001 755.799,-25.5001"/>
</g>
<!-- Node3 -->
<g id="node4" class="node"><title>Node3</title>
<a xlink:href="class_kitware_1_1_v_t_k_1_1vtk_widget_representation.html" target="_top" xlink:title="vtkWidgetRepresentation &#45; abstract class defines interface between the widget and widget representati...">
<polygon fill="none" stroke="black" points="436.5,-19 436.5,-39 571.5,-39 571.5,-19 436.5,-19"/>
<text text-anchor="middle" x="504" y="-26" font-family="FreeSans" font-size="10.00">vtkWidgetRepresentation</text>
</a>
</g>
<!-- Node3&#45;&gt;Node2 -->
<g id="edge4" class="edge"><title>Node3&#45;&gt;Node2</title>
<path fill="none" stroke="midnightblue" d="M582.119,-29C590.907,-29 599.812,-29 608.466,-29"/>
<polygon fill="midnightblue" stroke="midnightblue" points="581.878,-25.5001 571.878,-29 581.878,-32.5001 581.878,-25.5001"/>
</g>
<!-- Node4 -->
<g id="node6" class="node"><title>Node4</title>
<a xlink:href="class_kitware_1_1_v_t_k_1_1vtk_prop.html" target="_top" xlink:title="vtkProp &#45; abstract superclass for all actors, volumes and annotations">
<polygon fill="none" stroke="black" points="346.5,-19 346.5,-39 399.5,-39 399.5,-19 346.5,-19"/>
<text text-anchor="middle" x="373" y="-26" font-family="FreeSans" font-size="10.00">vtkProp</text>
</a>
</g>
<!-- Node4&#45;&gt;Node3 -->
<g id="edge6" class="edge"><title>Node4&#45;&gt;Node3</title>
<path fill="none" stroke="midnightblue" d="M409.628,-29C417.99,-29 427.137,-29 436.342,-29"/>
<polygon fill="midnightblue" stroke="midnightblue" points="409.51,-25.5001 399.51,-29 409.51,-32.5001 409.51,-25.5001"/>
</g>
<!-- Node5 -->
<g id="node8" class="node"><title>Node5</title>
<a xlink:href="class_kitware_1_1_v_t_k_1_1vtk_object.html" target="_top" xlink:title="vtkObject &#45; abstract base class for most VTK objects">
<polygon fill="none" stroke="black" points="248,-19 248,-39 310,-39 310,-19 248,-19"/>
<text text-anchor="middle" x="279" y="-26" font-family="FreeSans" font-size="10.00">vtkObject</text>
</a>
</g>
<!-- Node5&#45;&gt;Node4 -->
<g id="edge8" class="edge"><title>Node5&#45;&gt;Node4</title>
<path fill="none" stroke="midnightblue" d="M320.248,-29C329.119,-29 338.267,-29 346.403,-29"/>
<polygon fill="midnightblue" stroke="midnightblue" points="320.04,-25.5001 310.04,-29 320.04,-32.5001 320.04,-25.5001"/>
</g>
<!-- Node6 -->
<g id="node10" class="node"><title>Node6</title>
<a xlink:href="class_kitware_1_1_v_t_k_1_1vtk_object_base.html" target="_top" xlink:title="vtkObjectBase &#45; abstract base class for most VTK objects">
<polygon fill="none" stroke="black" points="126,-19 126,-39 212,-39 212,-19 126,-19"/>
<text text-anchor="middle" x="169" y="-26" font-family="FreeSans" font-size="10.00">vtkObjectBase</text>
</a>
</g>
<!-- Node6&#45;&gt;Node5 -->
<g id="edge10" class="edge"><title>Node6&#45;&gt;Node5</title>
<path fill="none" stroke="midnightblue" d="M222.346,-29C231.091,-29 239.892,-29 247.863,-29"/>
<polygon fill="midnightblue" stroke="midnightblue" points="222.159,-25.5001 212.159,-29 222.159,-32.5001 222.159,-25.5001"/>
</g>
<!-- Node7 -->
<g id="node12" class="node"><title>Node7</title>
<a xlink:href="class_kitware_1_1_v_t_k_1_1_wrapped_object.html" target="_top" xlink:title="Base class for all the mummy wrapped classes in Kitware.VTK.">
<polygon fill="none" stroke="black" points="0.5,-19 0.5,-39 89.5,-39 89.5,-19 0.5,-19"/>
<text text-anchor="middle" x="45" y="-26" font-family="FreeSans" font-size="10.00">WrappedObject</text>
</a>
</g>
<!-- Node7&#45;&gt;Node6 -->
<g id="edge12" class="edge"><title>Node7&#45;&gt;Node6</title>
<path fill="none" stroke="midnightblue" d="M99.8895,-29C108.623,-29 117.548,-29 125.957,-29"/>
<polygon fill="midnightblue" stroke="midnightblue" points="99.7669,-25.5001 89.7668,-29 99.7668,-32.5001 99.7669,-25.5001"/>
</g>
</g>
</svg>
