<?xml version="1.0" encoding="UTF-8" standalone="no"?>
<!DOCTYPE svg PUBLIC "-//W3C//DTD SVG 1.1//EN"
 "http://www.w3.org/Graphics/SVG/1.1/DTD/svg11.dtd">
<!-- Generated by graphviz version 2.26.3 (20100126.1600)
 -->
<!-- Title: G Pages: 1 -->
<svg width="432pt" height="650pt"
 viewBox="0.00 0.00 432.46 650.00" xmlns="http://www.w3.org/2000/svg" xmlns:xlink="http://www.w3.org/1999/xlink">
<g id="graph1" class="graph" transform="scale(1 1) rotate(0) translate(4 646)">
<title>G</title>
<!-- Node1 -->
<g id="node1" class="node"><title>Node1</title>
<polygon fill="#bfbfbf" stroke="black" points="0,-1 0,-21 192,-21 192,-1 0,-1"/>
<text text-anchor="middle" x="96" y="-8" font-family="FreeSans" font-size="10.00">Kitware.VTK.vtkPostgreSQLDatabase</text>
</g>
<!-- Node2 -->
<g id="node2" class="node"><title>Node2</title>
<a xlink:href="class_kitware_1_1_v_t_k_1_1vtk_s_q_l_database.html" target="_top" xlink:title="vtkSQLDatabase &#45; maintain a connection to an sql database">
<polygon fill="none" stroke="black" points="47.5,-61 47.5,-81 144.5,-81 144.5,-61 47.5,-61"/>
<text text-anchor="middle" x="96" y="-68" font-family="FreeSans" font-size="10.00">vtkSQLDatabase</text>
</a>
</g>
<!-- Node2&#45;&gt;Node1 -->
<g id="edge2" class="edge"><title>Node2&#45;&gt;Node1</title>
<path fill="none" stroke="midnightblue" d="M96,-50.5155C96,-40.562 96,-29.0495 96,-21.0279"/>
<polygon fill="midnightblue" stroke="midnightblue" points="92.5001,-50.8218 96,-60.8218 99.5001,-50.8219 92.5001,-50.8218"/>
</g>
<!-- Node3 -->
<g id="node4" class="node"><title>Node3</title>
<a xlink:href="class_kitware_1_1_v_t_k_1_1vtk_object.html" target="_top" xlink:title="vtkObject &#45; abstract base class for most VTK objects">
<polygon fill="none" stroke="black" points="65,-121 65,-141 127,-141 127,-121 65,-121"/>
<text text-anchor="middle" x="96" y="-128" font-family="FreeSans" font-size="10.00">vtkObject</text>
</a>
</g>
<!-- Node3&#45;&gt;Node2 -->
<g id="edge4" class="edge"><title>Node3&#45;&gt;Node2</title>
<path fill="none" stroke="midnightblue" d="M96,-110.516C96,-100.562 96,-89.0495 96,-81.0279"/>
<polygon fill="midnightblue" stroke="midnightblue" points="92.5001,-110.822 96,-120.822 99.5001,-110.822 92.5001,-110.822"/>
</g>
<!-- Node4 -->
<g id="node6" class="node"><title>Node4</title>
<a xlink:href="class_kitware_1_1_v_t_k_1_1vtk_object_base.html" target="_top" xlink:title="vtkObjectBase &#45; abstract base class for most VTK objects">
<polygon fill="none" stroke="black" points="116,-561 116,-581 202,-581 202,-561 116,-561"/>
<text text-anchor="middle" x="159" y="-568" font-family="FreeSans" font-size="10.00">vtkObjectBase</text>
</a>
</g>
<!-- Node4&#45;&gt;Node3 -->
<g id="edge6" class="edge"><title>Node4&#45;&gt;Node3</title>
<path fill="none" stroke="midnightblue" d="M130.423,-555.886C116.687,-547.44 100.884,-535.826 90,-522 78.1564,-506.955 77.6209,-500.802 74,-482 48.4248,-349.199 83.5766,-183.437 93.5155,-141.17"/>
<polygon fill="midnightblue" stroke="midnightblue" points="128.683,-558.923 139.079,-560.97 132.229,-552.887 128.683,-558.923"/>
</g>
<!-- Node7 -->
<g id="node13" class="node"><title>Node7</title>
<a xlink:href="class_kitware_1_1_v_t_k_1_1vtk_object.html" target="_top" xlink:title="vtkObject &#45; abstract base class for most VTK objects">
<polygon fill="none" stroke="black" points="99,-501 99,-521 219,-521 219,-501 99,-501"/>
<text text-anchor="middle" x="159" y="-508" font-family="FreeSans" font-size="10.00">Kitware.VTK.vtkObject</text>
</a>
</g>
<!-- Node4&#45;&gt;Node7 -->
<g id="edge16" class="edge"><title>Node4&#45;&gt;Node7</title>
<path fill="none" stroke="midnightblue" d="M159,-550.516C159,-540.562 159,-529.05 159,-521.028"/>
<polygon fill="midnightblue" stroke="midnightblue" points="155.5,-550.822 159,-560.822 162.5,-550.822 155.5,-550.822"/>
</g>
<!-- Node5 -->
<g id="node8" class="node"><title>Node5</title>
<a xlink:href="class_kitware_1_1_v_t_k_1_1_wrapped_object.html" target="_top" xlink:title="Base class for all the mummy wrapped classes in Kitware.VTK.">
<polygon fill="none" stroke="black" points="297.5,-621 297.5,-641 386.5,-641 386.5,-621 297.5,-621"/>
<text text-anchor="middle" x="342" y="-628" font-family="FreeSans" font-size="10.00">WrappedObject</text>
</a>
</g>
<!-- Node5&#45;&gt;Node4 -->
<g id="edge8" class="edge"><title>Node5&#45;&gt;Node4</title>
<path fill="none" stroke="midnightblue" d="M301.804,-617.821C268.042,-606.752 220.512,-591.168 189.73,-581.075"/>
<polygon fill="midnightblue" stroke="midnightblue" points="300.777,-621.168 311.37,-620.957 302.958,-614.516 300.777,-621.168"/>
</g>
<!-- Node6 -->
<g id="node10" class="node"><title>Node6</title>
<a xlink:href="class_kitware_1_1_v_t_k_1_1vtk_object_event_relay.html" target="_top" xlink:title="Implement a relay handler for VTK events. This is a class that receives events directly from the VTK ...">
<polygon fill="none" stroke="black" points="88,-311 88,-331 260,-331 260,-311 88,-311"/>
<text text-anchor="middle" x="174" y="-318" font-family="FreeSans" font-size="10.00">Kitware.VTK.vtkObjectEventRelay</text>
</a>
</g>
<!-- Node5&#45;&gt;Node6 -->
<g id="edge12" class="edge"><title>Node5&#45;&gt;Node6</title>
<path fill="none" stroke="midnightblue" d="M354.888,-612.325C387.276,-562.899 464.803,-427.191 397,-350 387.773,-339.495 319.047,-331.666 260.298,-326.808"/>
<polygon fill="midnightblue" stroke="midnightblue" points="351.891,-610.509 349.239,-620.767 357.709,-614.402 351.891,-610.509"/>
</g>
<!-- Node6&#45;&gt;Node3 -->
<g id="edge10" class="edge"><title>Node6&#45;&gt;Node3</title>
<path fill="none" stroke="#9a32cd" stroke-dasharray="5,2" d="M165.921,-301.321C149.489,-261.293 112.674,-171.616 100.214,-141.266"/>
<polygon fill="#9a32cd" stroke="#9a32cd" points="162.771,-302.863 169.806,-310.785 169.246,-300.205 162.771,-302.863"/>
<text text-anchor="middle" x="273.5" y="-283" font-family="FreeSans" font-size="10.00"> LeftButtonReleaseEvtRelay</text>
<text text-anchor="middle" x="273.5" y="-271" font-family="FreeSans" font-size="10.00">KeyPressEvtRelay</text>
<text text-anchor="middle" x="273.5" y="-259" font-family="FreeSans" font-size="10.00">DomainModifiedEvtRelay</text>
<text text-anchor="middle" x="273.5" y="-247" font-family="FreeSans" font-size="10.00">VolumeMapperComputeGradientsStartEvtRelay</text>
<text text-anchor="middle" x="273.5" y="-235" font-family="FreeSans" font-size="10.00">ErrorEvtRelay</text>
<text text-anchor="middle" x="273.5" y="-223" font-family="FreeSans" font-size="10.00">VolumeMapperRenderStartEvtRelay</text>
<text text-anchor="middle" x="273.5" y="-211" font-family="FreeSans" font-size="10.00">StartEvtRelay</text>
<text text-anchor="middle" x="273.5" y="-199" font-family="FreeSans" font-size="10.00">ResetCameraEvtRelay</text>
<text text-anchor="middle" x="273.5" y="-187" font-family="FreeSans" font-size="10.00">EnableEvtRelay</text>
<text text-anchor="middle" x="273.5" y="-175" font-family="FreeSans" font-size="10.00">DeleteEvtRelay</text>
<text text-anchor="middle" x="273.5" y="-163" font-family="FreeSans" font-size="10.00">...</text>
</g>
<!-- Node6&#45;&gt;Node7 -->
<g id="edge18" class="edge"><title>Node6&#45;&gt;Node7</title>
<path fill="none" stroke="#9a32cd" stroke-dasharray="5,2" d="M171.028,-341.231C170.649,-344.169 170.293,-347.159 170,-350 164.144,-406.853 160.636,-475.333 159.452,-500.807"/>
<polygon fill="#9a32cd" stroke="#9a32cd" points="174.515,-341.565 172.421,-331.179 167.582,-340.604 174.515,-341.565"/>
<text text-anchor="middle" x="283.5" y="-473" font-family="FreeSans" font-size="10.00"> LeftButtonReleaseEvtRelay</text>
<text text-anchor="middle" x="283.5" y="-461" font-family="FreeSans" font-size="10.00">KeyPressEvtRelay</text>
<text text-anchor="middle" x="283.5" y="-449" font-family="FreeSans" font-size="10.00">DomainModifiedEvtRelay</text>
<text text-anchor="middle" x="283.5" y="-437" font-family="FreeSans" font-size="10.00">VolumeMapperComputeGradientsStartEvtRelay</text>
<text text-anchor="middle" x="283.5" y="-425" font-family="FreeSans" font-size="10.00">ErrorEvtRelay</text>
<text text-anchor="middle" x="283.5" y="-413" font-family="FreeSans" font-size="10.00">VolumeMapperRenderStartEvtRelay</text>
<text text-anchor="middle" x="283.5" y="-401" font-family="FreeSans" font-size="10.00">StartEvtRelay</text>
<text text-anchor="middle" x="283.5" y="-389" font-family="FreeSans" font-size="10.00">ResetCameraEvtRelay</text>
<text text-anchor="middle" x="283.5" y="-377" font-family="FreeSans" font-size="10.00">EnableEvtRelay</text>
<text text-anchor="middle" x="283.5" y="-365" font-family="FreeSans" font-size="10.00">DeleteEvtRelay</text>
<text text-anchor="middle" x="283.5" y="-353" font-family="FreeSans" font-size="10.00">...</text>
</g>
<!-- Node7&#45;&gt;Node6 -->
<g id="edge14" class="edge"><title>Node7&#45;&gt;Node6</title>
<path fill="none" stroke="#9a32cd" stroke-dasharray="5,2" d="M112.979,-495.818C107.439,-492.138 102.51,-487.596 99,-482 67.8229,-432.303 65.8299,-398.389 99,-350 103.736,-343.091 120.511,-336.287 136.999,-331.008"/>
<polygon fill="#9a32cd" stroke="#9a32cd" points="111.639,-499.079 122.072,-500.919 115.064,-492.974 111.639,-499.079"/>
<text text-anchor="middle" x="123" y="-419" font-family="FreeSans" font-size="10.00"> Sender</text>
<text text-anchor="middle" x="123" y="-407" font-family="FreeSans" font-size="10.00">EventImpl</text>
</g>
</g>
</svg>
