<?xml version="1.0" encoding="UTF-8" standalone="no"?>
<!DOCTYPE svg PUBLIC "-//W3C//DTD SVG 1.1//EN"
 "http://www.w3.org/Graphics/SVG/1.1/DTD/svg11.dtd">
<!-- Generated by graphviz version 2.26.3 (20100126.1600)
 -->
<!-- Title: G Pages: 1 -->
<svg width="204pt" height="378pt"
 viewBox="0.00 0.00 204.00 378.00" xmlns="http://www.w3.org/2000/svg" xmlns:xlink="http://www.w3.org/1999/xlink">
<g id="graph1" class="graph" transform="scale(1 1) rotate(0) translate(4 374)">
<title>G</title>
<!-- Node1 -->
<g id="node1" class="node"><title>Node1</title>
<polygon fill="#bfbfbf" stroke="black" points="-0.5,-1 -0.5,-21 196.5,-21 196.5,-1 -0.5,-1"/>
<text text-anchor="middle" x="98" y="-8" font-family="FreeSans" font-size="10.00">Kitware.VTK.vtkImageImportExecutive</text>
</g>
<!-- Node2 -->
<g id="node2" class="node"><title>Node2</title>
<a xlink:href="class_kitware_1_1_v_t_k_1_1vtk_streaming_demand_driven_pipeline.html" target="_top" xlink:title="vtkStreamingDemandDrivenPipeline &#45; Executive supporting partial updates.">
<polygon fill="none" stroke="black" points="3,-59 3,-79 193,-79 193,-59 3,-59"/>
<text text-anchor="middle" x="98" y="-66" font-family="FreeSans" font-size="10.00">vtkStreamingDemandDrivenPipeline</text>
</a>
</g>
<!-- Node2&#45;&gt;Node1 -->
<g id="edge2" class="edge"><title>Node2&#45;&gt;Node1</title>
<path fill="none" stroke="midnightblue" d="M98,-48.8902C98,-39.6201 98,-29.0083 98,-21.3776"/>
<polygon fill="midnightblue" stroke="midnightblue" points="94.5001,-48.8971 98,-58.8972 101.5,-48.8972 94.5001,-48.8971"/>
</g>
<!-- Node3 -->
<g id="node4" class="node"><title>Node3</title>
<a xlink:href="class_kitware_1_1_v_t_k_1_1vtk_demand_driven_pipeline.html" target="_top" xlink:title="vtkDemandDrivenPipeline &#45; Executive supporting on&#45;demand execution.">
<polygon fill="none" stroke="black" points="28,-117 28,-137 168,-137 168,-117 28,-117"/>
<text text-anchor="middle" x="98" y="-124" font-family="FreeSans" font-size="10.00">vtkDemandDrivenPipeline</text>
</a>
</g>
<!-- Node3&#45;&gt;Node2 -->
<g id="edge4" class="edge"><title>Node3&#45;&gt;Node2</title>
<path fill="none" stroke="midnightblue" d="M98,-106.89C98,-97.6201 98,-87.0083 98,-79.3776"/>
<polygon fill="midnightblue" stroke="midnightblue" points="94.5001,-106.897 98,-116.897 101.5,-106.897 94.5001,-106.897"/>
</g>
<!-- Node4 -->
<g id="node6" class="node"><title>Node4</title>
<a xlink:href="class_kitware_1_1_v_t_k_1_1vtk_executive.html" target="_top" xlink:title="vtkExecutive &#45; Superclass for all pipeline executives in VTK.">
<polygon fill="none" stroke="black" points="59.5,-175 59.5,-195 136.5,-195 136.5,-175 59.5,-175"/>
<text text-anchor="middle" x="98" y="-182" font-family="FreeSans" font-size="10.00">vtkExecutive</text>
</a>
</g>
<!-- Node4&#45;&gt;Node3 -->
<g id="edge6" class="edge"><title>Node4&#45;&gt;Node3</title>
<path fill="none" stroke="midnightblue" d="M98,-164.89C98,-155.62 98,-145.008 98,-137.378"/>
<polygon fill="midnightblue" stroke="midnightblue" points="94.5001,-164.897 98,-174.897 101.5,-164.897 94.5001,-164.897"/>
</g>
<!-- Node5 -->
<g id="node8" class="node"><title>Node5</title>
<a xlink:href="class_kitware_1_1_v_t_k_1_1vtk_object.html" target="_top" xlink:title="vtkObject &#45; abstract base class for most VTK objects">
<polygon fill="none" stroke="black" points="67,-233 67,-253 129,-253 129,-233 67,-233"/>
<text text-anchor="middle" x="98" y="-240" font-family="FreeSans" font-size="10.00">vtkObject</text>
</a>
</g>
<!-- Node5&#45;&gt;Node4 -->
<g id="edge8" class="edge"><title>Node5&#45;&gt;Node4</title>
<path fill="none" stroke="midnightblue" d="M98,-222.89C98,-213.62 98,-203.008 98,-195.378"/>
<polygon fill="midnightblue" stroke="midnightblue" points="94.5001,-222.897 98,-232.897 101.5,-222.897 94.5001,-222.897"/>
</g>
<!-- Node6 -->
<g id="node10" class="node"><title>Node6</title>
<a xlink:href="class_kitware_1_1_v_t_k_1_1vtk_object_base.html" target="_top" xlink:title="vtkObjectBase &#45; abstract base class for most VTK objects">
<polygon fill="none" stroke="black" points="55,-291 55,-311 141,-311 141,-291 55,-291"/>
<text text-anchor="middle" x="98" y="-298" font-family="FreeSans" font-size="10.00">vtkObjectBase</text>
</a>
</g>
<!-- Node6&#45;&gt;Node5 -->
<g id="edge10" class="edge"><title>Node6&#45;&gt;Node5</title>
<path fill="none" stroke="midnightblue" d="M98,-280.89C98,-271.62 98,-261.008 98,-253.378"/>
<polygon fill="midnightblue" stroke="midnightblue" points="94.5001,-280.897 98,-290.897 101.5,-280.897 94.5001,-280.897"/>
</g>
<!-- Node7 -->
<g id="node12" class="node"><title>Node7</title>
<a xlink:href="class_kitware_1_1_v_t_k_1_1_wrapped_object.html" target="_top" xlink:title="Base class for all the mummy wrapped classes in Kitware.VTK.">
<polygon fill="none" stroke="black" points="53.5,-349 53.5,-369 142.5,-369 142.5,-349 53.5,-349"/>
<text text-anchor="middle" x="98" y="-356" font-family="FreeSans" font-size="10.00">WrappedObject</text>
</a>
</g>
<!-- Node7&#45;&gt;Node6 -->
<g id="edge12" class="edge"><title>Node7&#45;&gt;Node6</title>
<path fill="none" stroke="midnightblue" d="M98,-338.89C98,-329.62 98,-319.008 98,-311.378"/>
<polygon fill="midnightblue" stroke="midnightblue" points="94.5001,-338.897 98,-348.897 101.5,-338.897 94.5001,-338.897"/>
</g>
</g>
</svg>
