<?xml version="1.0" encoding="UTF-8" standalone="no"?>
<!DOCTYPE svg PUBLIC "-//W3C//DTD SVG 1.1//EN"
 "http://www.w3.org/Graphics/SVG/1.1/DTD/svg11.dtd">
<!-- Generated by graphviz version 2.26.3 (20100126.1600)
 -->
<!-- Title: G Pages: 1 -->
<svg width="232pt" height="378pt"
 viewBox="0.00 0.00 232.00 378.00" xmlns="http://www.w3.org/2000/svg" xmlns:xlink="http://www.w3.org/1999/xlink">
<g id="graph1" class="graph" transform="scale(1 1) rotate(0) translate(4 374)">
<title>G</title>
<!-- Node1 -->
<g id="node1" class="node"><title>Node1</title>
<polygon fill="#bfbfbf" stroke="black" points="0,-1 0,-21 224,-21 224,-1 0,-1"/>
<text text-anchor="middle" x="112" y="-8" font-family="FreeSans" font-size="10.00">Kitware.VTK.vtkEnSightMasterServerReader</text>
</g>
<!-- Node2 -->
<g id="node2" class="node"><title>Node2</title>
<a xlink:href="class_kitware_1_1_v_t_k_1_1vtk_generic_en_sight_reader.html" target="_top" xlink:title="vtkGenericEnSightReader &#45; class to read any type of EnSight files">
<polygon fill="none" stroke="black" points="43.5,-59 43.5,-79 180.5,-79 180.5,-59 43.5,-59"/>
<text text-anchor="middle" x="112" y="-66" font-family="FreeSans" font-size="10.00">vtkGenericEnSightReader</text>
</a>
</g>
<!-- Node2&#45;&gt;Node1 -->
<g id="edge2" class="edge"><title>Node2&#45;&gt;Node1</title>
<path fill="none" stroke="midnightblue" d="M112,-48.8902C112,-39.6201 112,-29.0083 112,-21.3776"/>
<polygon fill="midnightblue" stroke="midnightblue" points="108.5,-48.8971 112,-58.8972 115.5,-48.8972 108.5,-48.8971"/>
</g>
<!-- Node3 -->
<g id="node4" class="node"><title>Node3</title>
<a xlink:href="class_kitware_1_1_v_t_k_1_1vtk_multi_block_data_set_algorithm.html" target="_top" xlink:title="vtkMultiBlockDataSetAlgorithm &#45; Superclass for algorithms that produce only vtkMultiBlockDataSet as o...">
<polygon fill="none" stroke="black" points="29.5,-117 29.5,-137 194.5,-137 194.5,-117 29.5,-117"/>
<text text-anchor="middle" x="112" y="-124" font-family="FreeSans" font-size="10.00">vtkMultiBlockDataSetAlgorithm</text>
</a>
</g>
<!-- Node3&#45;&gt;Node2 -->
<g id="edge4" class="edge"><title>Node3&#45;&gt;Node2</title>
<path fill="none" stroke="midnightblue" d="M112,-106.89C112,-97.6201 112,-87.0083 112,-79.3776"/>
<polygon fill="midnightblue" stroke="midnightblue" points="108.5,-106.897 112,-116.897 115.5,-106.897 108.5,-106.897"/>
</g>
<!-- Node4 -->
<g id="node6" class="node"><title>Node4</title>
<a xlink:href="class_kitware_1_1_v_t_k_1_1vtk_algorithm.html" target="_top" xlink:title="vtkAlgorithm &#45; Superclass for all sources, filters, and sinks in VTK.">
<polygon fill="none" stroke="black" points="73.5,-175 73.5,-195 150.5,-195 150.5,-175 73.5,-175"/>
<text text-anchor="middle" x="112" y="-182" font-family="FreeSans" font-size="10.00">vtkAlgorithm</text>
</a>
</g>
<!-- Node4&#45;&gt;Node3 -->
<g id="edge6" class="edge"><title>Node4&#45;&gt;Node3</title>
<path fill="none" stroke="midnightblue" d="M112,-164.89C112,-155.62 112,-145.008 112,-137.378"/>
<polygon fill="midnightblue" stroke="midnightblue" points="108.5,-164.897 112,-174.897 115.5,-164.897 108.5,-164.897"/>
</g>
<!-- Node5 -->
<g id="node8" class="node"><title>Node5</title>
<a xlink:href="class_kitware_1_1_v_t_k_1_1vtk_object.html" target="_top" xlink:title="vtkObject &#45; abstract base class for most VTK objects">
<polygon fill="none" stroke="black" points="81,-233 81,-253 143,-253 143,-233 81,-233"/>
<text text-anchor="middle" x="112" y="-240" font-family="FreeSans" font-size="10.00">vtkObject</text>
</a>
</g>
<!-- Node5&#45;&gt;Node4 -->
<g id="edge8" class="edge"><title>Node5&#45;&gt;Node4</title>
<path fill="none" stroke="midnightblue" d="M112,-222.89C112,-213.62 112,-203.008 112,-195.378"/>
<polygon fill="midnightblue" stroke="midnightblue" points="108.5,-222.897 112,-232.897 115.5,-222.897 108.5,-222.897"/>
</g>
<!-- Node6 -->
<g id="node10" class="node"><title>Node6</title>
<a xlink:href="class_kitware_1_1_v_t_k_1_1vtk_object_base.html" target="_top" xlink:title="vtkObjectBase &#45; abstract base class for most VTK objects">
<polygon fill="none" stroke="black" points="69,-291 69,-311 155,-311 155,-291 69,-291"/>
<text text-anchor="middle" x="112" y="-298" font-family="FreeSans" font-size="10.00">vtkObjectBase</text>
</a>
</g>
<!-- Node6&#45;&gt;Node5 -->
<g id="edge10" class="edge"><title>Node6&#45;&gt;Node5</title>
<path fill="none" stroke="midnightblue" d="M112,-280.89C112,-271.62 112,-261.008 112,-253.378"/>
<polygon fill="midnightblue" stroke="midnightblue" points="108.5,-280.897 112,-290.897 115.5,-280.897 108.5,-280.897"/>
</g>
<!-- Node7 -->
<g id="node12" class="node"><title>Node7</title>
<a xlink:href="class_kitware_1_1_v_t_k_1_1_wrapped_object.html" target="_top" xlink:title="Base class for all the mummy wrapped classes in Kitware.VTK.">
<polygon fill="none" stroke="black" points="67.5,-349 67.5,-369 156.5,-369 156.5,-349 67.5,-349"/>
<text text-anchor="middle" x="112" y="-356" font-family="FreeSans" font-size="10.00">WrappedObject</text>
</a>
</g>
<!-- Node7&#45;&gt;Node6 -->
<g id="edge12" class="edge"><title>Node7&#45;&gt;Node6</title>
<path fill="none" stroke="midnightblue" d="M112,-338.89C112,-329.62 112,-319.008 112,-311.378"/>
<polygon fill="midnightblue" stroke="midnightblue" points="108.5,-338.897 112,-348.897 115.5,-338.897 108.5,-338.897"/>
</g>
</g>
</svg>
