<?xml version="1.0" encoding="UTF-8" standalone="no"?>
<!DOCTYPE svg PUBLIC "-//W3C//DTD SVG 1.1//EN"
 "http://www.w3.org/Graphics/SVG/1.1/DTD/svg11.dtd">
<!-- Generated by graphviz version 2.26.3 (20100126.1600)
 -->
<!-- Title: G Pages: 1 -->
<svg width="238pt" height="262pt"
 viewBox="0.00 0.00 238.00 262.00" xmlns="http://www.w3.org/2000/svg" xmlns:xlink="http://www.w3.org/1999/xlink">
<g id="graph1" class="graph" transform="scale(1 1) rotate(0) translate(4 258)">
<title>G</title>
<!-- Node1 -->
<g id="node1" class="node"><title>Node1</title>
<polygon fill="#bfbfbf" stroke="black" points="18.5,-59 18.5,-79 211.5,-79 211.5,-59 18.5,-59"/>
<text text-anchor="middle" x="115" y="-66" font-family="FreeSans" font-size="10.00">Kitware.VTK.vtkPainterDeviceAdapter</text>
</g>
<!-- Node5 -->
<g id="node9" class="node"><title>Node5</title>
<a xlink:href="class_kitware_1_1_v_t_k_1_1vtk_open_g_l_painter_device_adapter.html" target="_top" xlink:title="vtkOpenGLPainterDeviceAdapter &#45; An adapter between a vtkPainter and a rendering device.">
<polygon fill="none" stroke="black" points="-0.5,-1 -0.5,-21 230.5,-21 230.5,-1 -0.5,-1"/>
<text text-anchor="middle" x="115" y="-8" font-family="FreeSans" font-size="10.00">Kitware.VTK.vtkOpenGLPainterDeviceAdapter</text>
</a>
</g>
<!-- Node1&#45;&gt;Node5 -->
<g id="edge8" class="edge"><title>Node1&#45;&gt;Node5</title>
<path fill="none" stroke="midnightblue" d="M115,-48.8902C115,-39.6201 115,-29.0083 115,-21.3776"/>
<polygon fill="midnightblue" stroke="midnightblue" points="111.5,-48.8971 115,-58.8972 118.5,-48.8972 111.5,-48.8971"/>
</g>
<!-- Node2 -->
<g id="node2" class="node"><title>Node2</title>
<a xlink:href="class_kitware_1_1_v_t_k_1_1vtk_object.html" target="_top" xlink:title="vtkObject &#45; abstract base class for most VTK objects">
<polygon fill="none" stroke="black" points="84,-117 84,-137 146,-137 146,-117 84,-117"/>
<text text-anchor="middle" x="115" y="-124" font-family="FreeSans" font-size="10.00">vtkObject</text>
</a>
</g>
<!-- Node2&#45;&gt;Node1 -->
<g id="edge2" class="edge"><title>Node2&#45;&gt;Node1</title>
<path fill="none" stroke="midnightblue" d="M115,-106.89C115,-97.6201 115,-87.0083 115,-79.3776"/>
<polygon fill="midnightblue" stroke="midnightblue" points="111.5,-106.897 115,-116.897 118.5,-106.897 111.5,-106.897"/>
</g>
<!-- Node3 -->
<g id="node4" class="node"><title>Node3</title>
<a xlink:href="class_kitware_1_1_v_t_k_1_1vtk_object_base.html" target="_top" xlink:title="vtkObjectBase &#45; abstract base class for most VTK objects">
<polygon fill="none" stroke="black" points="72,-175 72,-195 158,-195 158,-175 72,-175"/>
<text text-anchor="middle" x="115" y="-182" font-family="FreeSans" font-size="10.00">vtkObjectBase</text>
</a>
</g>
<!-- Node3&#45;&gt;Node2 -->
<g id="edge4" class="edge"><title>Node3&#45;&gt;Node2</title>
<path fill="none" stroke="midnightblue" d="M115,-164.89C115,-155.62 115,-145.008 115,-137.378"/>
<polygon fill="midnightblue" stroke="midnightblue" points="111.5,-164.897 115,-174.897 118.5,-164.897 111.5,-164.897"/>
</g>
<!-- Node4 -->
<g id="node6" class="node"><title>Node4</title>
<a xlink:href="class_kitware_1_1_v_t_k_1_1_wrapped_object.html" target="_top" xlink:title="Base class for all the mummy wrapped classes in Kitware.VTK.">
<polygon fill="none" stroke="black" points="70.5,-233 70.5,-253 159.5,-253 159.5,-233 70.5,-233"/>
<text text-anchor="middle" x="115" y="-240" font-family="FreeSans" font-size="10.00">WrappedObject</text>
</a>
</g>
<!-- Node4&#45;&gt;Node3 -->
<g id="edge6" class="edge"><title>Node4&#45;&gt;Node3</title>
<path fill="none" stroke="midnightblue" d="M115,-222.89C115,-213.62 115,-203.008 115,-195.378"/>
<polygon fill="midnightblue" stroke="midnightblue" points="111.5,-222.897 115,-232.897 118.5,-222.897 111.5,-222.897"/>
</g>
</g>
</svg>
