<?xml version="1.0" encoding="UTF-8" standalone="no"?>
<!DOCTYPE svg PUBLIC "-//W3C//DTD SVG 1.1//EN"
 "http://www.w3.org/Graphics/SVG/1.1/DTD/svg11.dtd">
<!-- Generated by graphviz version 2.26.3 (20100126.1600)
 -->
<!-- Title: G Pages: 1 -->
<svg width="2226pt" height="636pt"
 viewBox="0.00 0.00 2226.00 636.00" xmlns="http://www.w3.org/2000/svg" xmlns:xlink="http://www.w3.org/1999/xlink">
<g id="graph1" class="graph" transform="scale(1 1) rotate(0) translate(4 632)">
<title>G</title>
<!-- Node1 -->
<g id="node1" class="node"><title>Node1</title>
<polygon fill="#bfbfbf" stroke="black" points="604.5,-209 604.5,-229 783.5,-229 783.5,-209 604.5,-209"/>
<text text-anchor="middle" x="694" y="-216" font-family="FreeSans" font-size="10.00">Kitware.VTK.vtkAbstractMapper3D</text>
</g>
<!-- Node7 -->
<g id="node13" class="node"><title>Node7</title>
<a xlink:href="class_kitware_1_1_v_t_k_1_1vtk_abstract_volume_mapper.html" target="_top" xlink:title="vtkAbstractVolumeMapper &#45; Abstract class for a volume mapper">
<polygon fill="none" stroke="black" points="820,-304 820,-324 1022,-324 1022,-304 820,-304"/>
<text text-anchor="middle" x="921" y="-311" font-family="FreeSans" font-size="10.00">Kitware.VTK.vtkAbstractVolumeMapper</text>
</a>
</g>
<!-- Node1&#45;&gt;Node7 -->
<g id="edge12" class="edge"><title>Node1&#45;&gt;Node7</title>
<path fill="none" stroke="midnightblue" d="M727.599,-233.061C773.904,-252.44 856.211,-286.886 896.882,-303.906"/>
<polygon fill="midnightblue" stroke="midnightblue" points="728.869,-229.799 718.293,-229.167 726.167,-236.256 728.869,-229.799"/>
</g>
<!-- Node29 -->
<g id="node57" class="node"><title>Node29</title>
<a xlink:href="class_kitware_1_1_v_t_k_1_1vtk_mapper.html" target="_top" xlink:title="vtkMapper &#45; abstract class specifies interface to map data to graphics primitives">
<polygon fill="none" stroke="black" points="858.5,-114 858.5,-134 983.5,-134 983.5,-114 858.5,-114"/>
<text text-anchor="middle" x="921" y="-121" font-family="FreeSans" font-size="10.00">Kitware.VTK.vtkMapper</text>
</a>
</g>
<!-- Node1&#45;&gt;Node29 -->
<g id="edge56" class="edge"><title>Node1&#45;&gt;Node29</title>
<path fill="none" stroke="midnightblue" d="M727.599,-204.939C773.904,-185.56 856.211,-151.114 896.882,-134.094"/>
<polygon fill="midnightblue" stroke="midnightblue" points="726.167,-201.744 718.293,-208.833 728.869,-208.201 726.167,-201.744"/>
</g>
<!-- Node2 -->
<g id="node2" class="node"><title>Node2</title>
<a xlink:href="class_kitware_1_1_v_t_k_1_1vtk_abstract_mapper.html" target="_top" xlink:title="vtkAbstractMapper &#45; abstract class specifies interface to map data">
<polygon fill="none" stroke="black" points="460.5,-209 460.5,-229 567.5,-229 567.5,-209 460.5,-209"/>
<text text-anchor="middle" x="514" y="-216" font-family="FreeSans" font-size="10.00">vtkAbstractMapper</text>
</a>
</g>
<!-- Node2&#45;&gt;Node1 -->
<g id="edge2" class="edge"><title>Node2&#45;&gt;Node1</title>
<path fill="none" stroke="midnightblue" d="M577.521,-219C586.202,-219 595.243,-219 604.28,-219"/>
<polygon fill="midnightblue" stroke="midnightblue" points="577.519,-215.5 567.519,-219 577.519,-222.5 577.519,-215.5"/>
</g>
<!-- Node3 -->
<g id="node4" class="node"><title>Node3</title>
<a xlink:href="class_kitware_1_1_v_t_k_1_1vtk_algorithm.html" target="_top" xlink:title="vtkAlgorithm &#45; Superclass for all sources, filters, and sinks in VTK.">
<polygon fill="none" stroke="black" points="346.5,-209 346.5,-229 423.5,-229 423.5,-209 346.5,-209"/>
<text text-anchor="middle" x="385" y="-216" font-family="FreeSans" font-size="10.00">vtkAlgorithm</text>
</a>
</g>
<!-- Node3&#45;&gt;Node2 -->
<g id="edge4" class="edge"><title>Node3&#45;&gt;Node2</title>
<path fill="none" stroke="midnightblue" d="M433.896,-219C442.445,-219 451.384,-219 460.06,-219"/>
<polygon fill="midnightblue" stroke="midnightblue" points="433.704,-215.5 423.704,-219 433.704,-222.5 433.704,-215.5"/>
</g>
<!-- Node4 -->
<g id="node6" class="node"><title>Node4</title>
<a xlink:href="class_kitware_1_1_v_t_k_1_1vtk_object.html" target="_top" xlink:title="vtkObject &#45; abstract base class for most VTK objects">
<polygon fill="none" stroke="black" points="248,-209 248,-229 310,-229 310,-209 248,-209"/>
<text text-anchor="middle" x="279" y="-216" font-family="FreeSans" font-size="10.00">vtkObject</text>
</a>
</g>
<!-- Node4&#45;&gt;Node3 -->
<g id="edge6" class="edge"><title>Node4&#45;&gt;Node3</title>
<path fill="none" stroke="midnightblue" d="M320.421,-219C329.001,-219 338.007,-219 346.479,-219"/>
<polygon fill="midnightblue" stroke="midnightblue" points="320.23,-215.5 310.23,-219 320.23,-222.5 320.23,-215.5"/>
</g>
<!-- Node5 -->
<g id="node8" class="node"><title>Node5</title>
<a xlink:href="class_kitware_1_1_v_t_k_1_1vtk_object_base.html" target="_top" xlink:title="vtkObjectBase &#45; abstract base class for most VTK objects">
<polygon fill="none" stroke="black" points="126,-209 126,-229 212,-229 212,-209 126,-209"/>
<text text-anchor="middle" x="169" y="-216" font-family="FreeSans" font-size="10.00">vtkObjectBase</text>
</a>
</g>
<!-- Node5&#45;&gt;Node4 -->
<g id="edge8" class="edge"><title>Node5&#45;&gt;Node4</title>
<path fill="none" stroke="midnightblue" d="M222.346,-219C231.091,-219 239.892,-219 247.863,-219"/>
<polygon fill="midnightblue" stroke="midnightblue" points="222.159,-215.5 212.159,-219 222.159,-222.5 222.159,-215.5"/>
</g>
<!-- Node6 -->
<g id="node10" class="node"><title>Node6</title>
<a xlink:href="class_kitware_1_1_v_t_k_1_1_wrapped_object.html" target="_top" xlink:title="Base class for all the mummy wrapped classes in Kitware.VTK.">
<polygon fill="none" stroke="black" points="0.5,-209 0.5,-229 89.5,-229 89.5,-209 0.5,-209"/>
<text text-anchor="middle" x="45" y="-216" font-family="FreeSans" font-size="10.00">WrappedObject</text>
</a>
</g>
<!-- Node6&#45;&gt;Node5 -->
<g id="edge10" class="edge"><title>Node6&#45;&gt;Node5</title>
<path fill="none" stroke="midnightblue" d="M99.8895,-219C108.623,-219 117.548,-219 125.957,-219"/>
<polygon fill="midnightblue" stroke="midnightblue" points="99.7669,-215.5 89.7668,-219 99.7668,-222.5 99.7669,-215.5"/>
</g>
<!-- Node8 -->
<g id="node15" class="node"><title>Node8</title>
<a xlink:href="class_kitware_1_1_v_t_k_1_1vtk_unstructured_grid_volume_mapper.html" target="_top" xlink:title="vtkUnstructuredGridVolumeMapper &#45; Abstract class for a unstructured grid volume mapper">
<polygon fill="none" stroke="black" points="1058,-513 1058,-533 1302,-533 1302,-513 1058,-513"/>
<text text-anchor="middle" x="1180" y="-520" font-family="FreeSans" font-size="10.00">Kitware.VTK.vtkUnstructuredGridVolumeMapper</text>
</a>
</g>
<!-- Node7&#45;&gt;Node8 -->
<g id="edge14" class="edge"><title>Node7&#45;&gt;Node8</title>
<path fill="none" stroke="midnightblue" d="M941.555,-330.587C992.915,-372.032 1125.71,-479.189 1167.33,-512.776"/>
<polygon fill="midnightblue" stroke="midnightblue" points="943.472,-327.637 933.492,-324.081 939.076,-333.084 943.472,-327.637"/>
</g>
<!-- Node17 -->
<g id="node33" class="node"><title>Node17</title>
<a xlink:href="class_kitware_1_1_v_t_k_1_1vtk_volume_mapper.html" target="_top" xlink:title="vtkVolumeMapper &#45; Abstract class for a volume mapper">
<polygon fill="none" stroke="black" points="1099.5,-304 1099.5,-324 1260.5,-324 1260.5,-304 1099.5,-304"/>
<text text-anchor="middle" x="1180" y="-311" font-family="FreeSans" font-size="10.00">Kitware.VTK.vtkVolumeMapper</text>
</a>
</g>
<!-- Node7&#45;&gt;Node17 -->
<g id="edge32" class="edge"><title>Node7&#45;&gt;Node17</title>
<path fill="none" stroke="midnightblue" d="M1032.5,-314C1054.93,-314 1078.1,-314 1099.25,-314"/>
<polygon fill="midnightblue" stroke="midnightblue" points="1032.25,-310.5 1022.25,-314 1032.25,-317.5 1032.25,-310.5"/>
</g>
<!-- Node9 -->
<g id="node17" class="node"><title>Node9</title>
<a xlink:href="class_kitware_1_1_v_t_k_1_1vtk_h_a_v_s_volume_mapper.html" target="_top" xlink:title="vtkHAVSVolumeMapper &#45; Hardware&#45;Assisted Visibility Sorting unstructured grid mapper">
<polygon fill="none" stroke="black" points="1386,-608 1386,-628 1574,-628 1574,-608 1386,-608"/>
<text text-anchor="middle" x="1480" y="-615" font-family="FreeSans" font-size="10.00">Kitware.VTK.vtkHAVSVolumeMapper</text>
</a>
</g>
<!-- Node8&#45;&gt;Node9 -->
<g id="edge16" class="edge"><title>Node8&#45;&gt;Node9</title>
<path fill="none" stroke="midnightblue" d="M1205.01,-538.112C1235.35,-555.7 1288.58,-584.216 1338,-599 1353.25,-603.562 1369.75,-607.031 1385.92,-609.668"/>
<polygon fill="midnightblue" stroke="midnightblue" points="1206.76,-535.078 1196.36,-533.032 1203.21,-541.114 1206.76,-535.078"/>
</g>
<!-- Node11 -->
<g id="node21" class="node"><title>Node11</title>
<a xlink:href="class_kitware_1_1_v_t_k_1_1vtk_projected_a_a_hexahedra_mapper.html" target="_top" xlink:title="vtkProjectedAAHexahedraMapper &#45; volume mapper for axis&#45;aligned hexahedra">
<polygon fill="none" stroke="black" points="1362,-570 1362,-590 1598,-590 1598,-570 1362,-570"/>
<text text-anchor="middle" x="1480" y="-577" font-family="FreeSans" font-size="10.00">Kitware.VTK.vtkProjectedAAHexahedraMapper</text>
</a>
</g>
<!-- Node8&#45;&gt;Node11 -->
<g id="edge20" class="edge"><title>Node8&#45;&gt;Node11</title>
<path fill="none" stroke="midnightblue" d="M1226.88,-535.616C1258.17,-543.705 1300.34,-553.97 1338,-561 1356.09,-564.377 1375.59,-567.389 1394.17,-569.965"/>
<polygon fill="midnightblue" stroke="midnightblue" points="1227.68,-532.208 1217.12,-533.073 1225.91,-538.981 1227.68,-532.208"/>
</g>
<!-- Node13 -->
<g id="node25" class="node"><title>Node13</title>
<a xlink:href="class_kitware_1_1_v_t_k_1_1vtk_projected_tetrahedra_mapper.html" target="_top" xlink:title="vtkProjectedTetrahedraMapper &#45; Unstructured grid volume renderer.">
<polygon fill="none" stroke="black" points="1369.5,-532 1369.5,-552 1590.5,-552 1590.5,-532 1369.5,-532"/>
<text text-anchor="middle" x="1480" y="-539" font-family="FreeSans" font-size="10.00">Kitware.VTK.vtkProjectedTetrahedraMapper</text>
</a>
</g>
<!-- Node8&#45;&gt;Node13 -->
<g id="edge24" class="edge"><title>Node8&#45;&gt;Node13</title>
<path fill="none" stroke="midnightblue" d="M1312.23,-531.375C1331.25,-532.579 1350.65,-533.808 1369.2,-534.982"/>
<polygon fill="midnightblue" stroke="midnightblue" points="1312.22,-527.867 1302.02,-530.728 1311.78,-534.853 1312.22,-527.867"/>
</g>
<!-- Node15 -->
<g id="node29" class="node"><title>Node15</title>
<a xlink:href="class_kitware_1_1_v_t_k_1_1vtk_unstructured_grid_volume_ray_cast_mapper.html" target="_top" xlink:title="vtkUnstructuredGridVolumeRayCastMapper &#45; A software mapper for unstructured volumes">
<polygon fill="none" stroke="black" points="1338.5,-494 1338.5,-514 1621.5,-514 1621.5,-494 1338.5,-494"/>
<text text-anchor="middle" x="1480" y="-501" font-family="FreeSans" font-size="10.00">Kitware.VTK.vtkUnstructuredGridVolumeRayCastMapper</text>
</a>
</g>
<!-- Node8&#45;&gt;Node15 -->
<g id="edge28" class="edge"><title>Node8&#45;&gt;Node15</title>
<path fill="none" stroke="midnightblue" d="M1312.2,-514.627C1320.91,-514.076 1329.7,-513.519 1338.46,-512.964"/>
<polygon fill="midnightblue" stroke="midnightblue" points="1311.78,-511.147 1302.02,-515.272 1312.22,-518.133 1311.78,-511.147"/>
</g>
<!-- Node16 -->
<g id="node31" class="node"><title>Node16</title>
<a xlink:href="class_kitware_1_1_v_t_k_1_1vtk_unstructured_grid_volume_z_sweep_mapper.html" target="_top" xlink:title="vtkUnstructuredGridVolumeZSweepMapper &#45; Unstructured grid volume mapper based the ZSweep Algorithm...">
<polygon fill="none" stroke="black" points="1338.5,-456 1338.5,-476 1621.5,-476 1621.5,-456 1338.5,-456"/>
<text text-anchor="middle" x="1480" y="-463" font-family="FreeSans" font-size="10.00">Kitware.VTK.vtkUnstructuredGridVolumeZSweepMapper</text>
</a>
</g>
<!-- Node8&#45;&gt;Node16 -->
<g id="edge30" class="edge"><title>Node8&#45;&gt;Node16</title>
<path fill="none" stroke="midnightblue" d="M1226.88,-510.384C1258.17,-502.295 1300.34,-492.03 1338,-485 1356.09,-481.623 1375.59,-478.611 1394.17,-476.035"/>
<polygon fill="midnightblue" stroke="midnightblue" points="1225.91,-507.019 1217.12,-512.927 1227.68,-513.792 1225.91,-507.019"/>
</g>
<!-- Node10 -->
<g id="node19" class="node"><title>Node10</title>
<a xlink:href="class_kitware_1_1_v_t_k_1_1vtk_open_g_l_h_a_v_s_volume_mapper.html" target="_top" xlink:title="vtkOpenGLHAVSVolumeMapper &#45; Hardware&#45;Assisted Visibility Sorting unstructured grid mapper...">
<polygon fill="none" stroke="black" points="1682.5,-608 1682.5,-628 1909.5,-628 1909.5,-608 1682.5,-608"/>
<text text-anchor="middle" x="1796" y="-615" font-family="FreeSans" font-size="10.00">Kitware.VTK.vtkOpenGLHAVSVolumeMapper</text>
</a>
</g>
<!-- Node9&#45;&gt;Node10 -->
<g id="edge18" class="edge"><title>Node9&#45;&gt;Node10</title>
<path fill="none" stroke="midnightblue" d="M1584.45,-618C1615.81,-618 1650.37,-618 1682.3,-618"/>
<polygon fill="midnightblue" stroke="midnightblue" points="1584.38,-614.5 1574.38,-618 1584.38,-621.5 1584.38,-614.5"/>
</g>
<!-- Node12 -->
<g id="node23" class="node"><title>Node12</title>
<a xlink:href="class_kitware_1_1_v_t_k_1_1vtk_open_g_l_projected_a_a_hexahedra_mapper.html" target="_top" xlink:title="vtkOpenGLProjectedAAHexahedraMapper &#45; OpenGL implementation of a volume mapper for axis&#45;aligned hexah...">
<polygon fill="none" stroke="black" points="1658.5,-570 1658.5,-590 1933.5,-590 1933.5,-570 1658.5,-570"/>
<text text-anchor="middle" x="1796" y="-577" font-family="FreeSans" font-size="10.00">Kitware.VTK.vtkOpenGLProjectedAAHexahedraMapper</text>
</a>
</g>
<!-- Node11&#45;&gt;Node12 -->
<g id="edge22" class="edge"><title>Node11&#45;&gt;Node12</title>
<path fill="none" stroke="midnightblue" d="M1608.31,-580C1624.79,-580 1641.71,-580 1658.33,-580"/>
<polygon fill="midnightblue" stroke="midnightblue" points="1608.12,-576.5 1598.12,-580 1608.12,-583.5 1608.12,-576.5"/>
</g>
<!-- Node14 -->
<g id="node27" class="node"><title>Node14</title>
<a xlink:href="class_kitware_1_1_v_t_k_1_1vtk_open_g_l_projected_tetrahedra_mapper.html" target="_top" xlink:title="vtkOpenGLProjectedTetrahedraMapper &#45; OpenGL implementation of PT">
<polygon fill="none" stroke="black" points="1666,-532 1666,-552 1926,-552 1926,-532 1666,-532"/>
<text text-anchor="middle" x="1796" y="-539" font-family="FreeSans" font-size="10.00">Kitware.VTK.vtkOpenGLProjectedTetrahedraMapper</text>
</a>
</g>
<!-- Node13&#45;&gt;Node14 -->
<g id="edge26" class="edge"><title>Node13&#45;&gt;Node14</title>
<path fill="none" stroke="midnightblue" d="M1600.57,-542C1621.89,-542 1644.18,-542 1665.75,-542"/>
<polygon fill="midnightblue" stroke="midnightblue" points="1600.52,-538.5 1590.52,-542 1600.52,-545.5 1600.52,-538.5"/>
</g>
<!-- Node18 -->
<g id="node35" class="node"><title>Node18</title>
<a xlink:href="class_kitware_1_1_v_t_k_1_1vtk_fixed_point_volume_ray_cast_mapper.html" target="_top" xlink:title="vtkFixedPointVolumeRayCastMapper &#45; A fixed point mapper for volumes">
<polygon fill="none" stroke="black" points="1356,-418 1356,-438 1604,-438 1604,-418 1356,-418"/>
<text text-anchor="middle" x="1480" y="-425" font-family="FreeSans" font-size="10.00">Kitware.VTK.vtkFixedPointVolumeRayCastMapper</text>
</a>
</g>
<!-- Node17&#45;&gt;Node18 -->
<g id="edge34" class="edge"><title>Node17&#45;&gt;Node18</title>
<path fill="none" stroke="midnightblue" d="M1200.72,-330.307C1229.65,-352.14 1284.62,-390.287 1338,-409 1348.33,-412.621 1359.3,-415.558 1370.39,-417.94"/>
<polygon fill="midnightblue" stroke="midnightblue" points="1202.67,-327.396 1192.6,-324.094 1198.42,-332.953 1202.67,-327.396"/>
</g>
<!-- Node19 -->
<g id="node37" class="node"><title>Node19</title>
<a xlink:href="class_kitware_1_1_v_t_k_1_1vtk_g_p_u_volume_ray_cast_mapper.html" target="_top" xlink:title="vtkGPUVolumeRayCastMapper &#45; Ray casting performed on the GPU.">
<polygon fill="none" stroke="black" points="1369.5,-380 1369.5,-400 1590.5,-400 1590.5,-380 1369.5,-380"/>
<text text-anchor="middle" x="1480" y="-387" font-family="FreeSans" font-size="10.00">Kitware.VTK.vtkGPUVolumeRayCastMapper</text>
</a>
</g>
<!-- Node17&#45;&gt;Node19 -->
<g id="edge36" class="edge"><title>Node17&#45;&gt;Node19</title>
<path fill="none" stroke="midnightblue" d="M1212.65,-328.103C1244.17,-341.156 1293.52,-360.134 1338,-371 1352.74,-374.601 1368.52,-377.564 1384,-379.99"/>
<polygon fill="midnightblue" stroke="midnightblue" points="1213.65,-324.727 1203.08,-324.091 1210.95,-331.183 1213.65,-324.727"/>
</g>
<!-- Node21 -->
<g id="node41" class="node"><title>Node21</title>
<a xlink:href="class_kitware_1_1_v_t_k_1_1vtk_smart_volume_mapper.html" target="_top" xlink:title="vtkSmartVolumeMapper &#45; Adaptive volume mapper">
<polygon fill="none" stroke="black" points="1384.5,-342 1384.5,-362 1575.5,-362 1575.5,-342 1384.5,-342"/>
<text text-anchor="middle" x="1480" y="-349" font-family="FreeSans" font-size="10.00">Kitware.VTK.vtkSmartVolumeMapper</text>
</a>
</g>
<!-- Node17&#45;&gt;Node21 -->
<g id="edge40" class="edge"><title>Node17&#45;&gt;Node21</title>
<path fill="none" stroke="midnightblue" d="M1269.38,-325.322C1311.15,-330.613 1360.46,-336.858 1400.86,-341.976"/>
<polygon fill="midnightblue" stroke="midnightblue" points="1269.57,-321.818 1259.21,-324.034 1268.69,-328.763 1269.57,-321.818"/>
</g>
<!-- Node22 -->
<g id="node43" class="node"><title>Node22</title>
<a xlink:href="class_kitware_1_1_v_t_k_1_1vtk_volume_pro_mapper.html" target="_top" xlink:title="vtkVolumeProMapper &#45; Superclass for VolumePRO volume rendering mappers">
<polygon fill="none" stroke="black" points="1391.5,-304 1391.5,-324 1568.5,-324 1568.5,-304 1391.5,-304"/>
<text text-anchor="middle" x="1480" y="-311" font-family="FreeSans" font-size="10.00">Kitware.VTK.vtkVolumeProMapper</text>
</a>
</g>
<!-- Node17&#45;&gt;Node22 -->
<g id="edge42" class="edge"><title>Node17&#45;&gt;Node22</title>
<path fill="none" stroke="midnightblue" d="M1270.88,-314C1309.11,-314 1353.44,-314 1391.42,-314"/>
<polygon fill="midnightblue" stroke="midnightblue" points="1270.79,-310.5 1260.79,-314 1270.79,-317.5 1270.79,-310.5"/>
</g>
<!-- Node23 -->
<g id="node45" class="node"><title>Node23</title>
<a xlink:href="class_kitware_1_1_v_t_k_1_1vtk_volume_ray_cast_mapper.html" target="_top" xlink:title="vtkVolumeRayCastMapper &#45; A slow but accurate mapper for rendering volumes">
<polygon fill="none" stroke="black" points="1380,-266 1380,-286 1580,-286 1580,-266 1380,-266"/>
<text text-anchor="middle" x="1480" y="-273" font-family="FreeSans" font-size="10.00">Kitware.VTK.vtkVolumeRayCastMapper</text>
</a>
</g>
<!-- Node17&#45;&gt;Node23 -->
<g id="edge44" class="edge"><title>Node17&#45;&gt;Node23</title>
<path fill="none" stroke="midnightblue" d="M1269.38,-302.678C1311.15,-297.387 1360.46,-291.142 1400.86,-286.024"/>
<polygon fill="midnightblue" stroke="midnightblue" points="1268.69,-299.237 1259.21,-303.966 1269.57,-306.182 1268.69,-299.237"/>
</g>
<!-- Node24 -->
<g id="node47" class="node"><title>Node24</title>
<a xlink:href="class_kitware_1_1_v_t_k_1_1vtk_volume_texture_mapper.html" target="_top" xlink:title="vtkVolumeTextureMapper &#45; Abstract class for a volume mapper">
<polygon fill="none" stroke="black" points="1382,-228 1382,-248 1578,-248 1578,-228 1382,-228"/>
<text text-anchor="middle" x="1480" y="-235" font-family="FreeSans" font-size="10.00">Kitware.VTK.vtkVolumeTextureMapper</text>
</a>
</g>
<!-- Node17&#45;&gt;Node24 -->
<g id="edge46" class="edge"><title>Node17&#45;&gt;Node24</title>
<path fill="none" stroke="midnightblue" d="M1212.65,-299.897C1244.17,-286.844 1293.52,-267.866 1338,-257 1352.74,-253.399 1368.52,-250.436 1384,-248.01"/>
<polygon fill="midnightblue" stroke="midnightblue" points="1210.95,-296.817 1203.08,-303.909 1213.65,-303.273 1210.95,-296.817"/>
</g>
<!-- Node27 -->
<g id="node53" class="node"><title>Node27</title>
<a xlink:href="class_kitware_1_1_v_t_k_1_1vtk_volume_texture_mapper3_d.html" target="_top" xlink:title="vtkVolumeTextureMapper3D &#45; volume render with 3D texture mapping">
<polygon fill="none" stroke="black" points="1375.5,-190 1375.5,-210 1584.5,-210 1584.5,-190 1375.5,-190"/>
<text text-anchor="middle" x="1480" y="-197" font-family="FreeSans" font-size="10.00">Kitware.VTK.vtkVolumeTextureMapper3D</text>
</a>
</g>
<!-- Node17&#45;&gt;Node27 -->
<g id="edge52" class="edge"><title>Node17&#45;&gt;Node27</title>
<path fill="none" stroke="midnightblue" d="M1200.72,-297.693C1229.65,-275.86 1284.62,-237.713 1338,-219 1349.85,-214.845 1362.56,-211.589 1375.31,-209.041"/>
<polygon fill="midnightblue" stroke="midnightblue" points="1198.42,-295.047 1192.6,-303.906 1202.67,-300.604 1198.42,-295.047"/>
</g>
<!-- Node20 -->
<g id="node39" class="node"><title>Node20</title>
<a xlink:href="class_kitware_1_1_v_t_k_1_1vtk_open_g_l_g_p_u_volume_ray_cast_mapper.html" target="_top" xlink:title="vtkOpenGLGPUVolumeRayCastMapper &#45; OpenGL subclass that draws the image to the screen">
<polygon fill="none" stroke="black" points="1666,-380 1666,-400 1926,-400 1926,-380 1666,-380"/>
<text text-anchor="middle" x="1796" y="-387" font-family="FreeSans" font-size="10.00">Kitware.VTK.vtkOpenGLGPUVolumeRayCastMapper</text>
</a>
</g>
<!-- Node19&#45;&gt;Node20 -->
<g id="edge38" class="edge"><title>Node19&#45;&gt;Node20</title>
<path fill="none" stroke="midnightblue" d="M1600.57,-390C1621.89,-390 1644.18,-390 1665.75,-390"/>
<polygon fill="midnightblue" stroke="midnightblue" points="1600.52,-386.5 1590.52,-390 1600.52,-393.5 1600.52,-386.5"/>
</g>
<!-- Node25 -->
<g id="node49" class="node"><title>Node25</title>
<a xlink:href="class_kitware_1_1_v_t_k_1_1vtk_volume_texture_mapper2_d.html" target="_top" xlink:title="vtkVolumeTextureMapper2D &#45; Abstract class for a volume mapper">
<polygon fill="none" stroke="black" points="1691.5,-228 1691.5,-248 1900.5,-248 1900.5,-228 1691.5,-228"/>
<text text-anchor="middle" x="1796" y="-235" font-family="FreeSans" font-size="10.00">Kitware.VTK.vtkVolumeTextureMapper2D</text>
</a>
</g>
<!-- Node24&#45;&gt;Node25 -->
<g id="edge48" class="edge"><title>Node24&#45;&gt;Node25</title>
<path fill="none" stroke="midnightblue" d="M1588.46,-238C1621.72,-238 1658.23,-238 1691.24,-238"/>
<polygon fill="midnightblue" stroke="midnightblue" points="1588.25,-234.5 1578.25,-238 1588.25,-241.5 1588.25,-234.5"/>
</g>
<!-- Node26 -->
<g id="node51" class="node"><title>Node26</title>
<a xlink:href="class_kitware_1_1_v_t_k_1_1vtk_open_g_l_volume_texture_mapper2_d.html" target="_top" xlink:title="vtkOpenGLVolumeTextureMapper2D &#45; Abstract class for a volume mapper">
<polygon fill="none" stroke="black" points="1970.5,-228 1970.5,-248 2217.5,-248 2217.5,-228 1970.5,-228"/>
<text text-anchor="middle" x="2094" y="-235" font-family="FreeSans" font-size="10.00">Kitware.VTK.vtkOpenGLVolumeTextureMapper2D</text>
</a>
</g>
<!-- Node25&#45;&gt;Node26 -->
<g id="edge50" class="edge"><title>Node25&#45;&gt;Node26</title>
<path fill="none" stroke="midnightblue" d="M1910.78,-238C1930.32,-238 1950.69,-238 1970.45,-238"/>
<polygon fill="midnightblue" stroke="midnightblue" points="1910.64,-234.5 1900.64,-238 1910.64,-241.5 1910.64,-234.5"/>
</g>
<!-- Node28 -->
<g id="node55" class="node"><title>Node28</title>
<a xlink:href="class_kitware_1_1_v_t_k_1_1vtk_open_g_l_volume_texture_mapper3_d.html" target="_top" xlink:title="vtkOpenGLVolumeTextureMapper3D &#45; concrete implementation of 3D volume texture mapping">
<polygon fill="none" stroke="black" points="1672.5,-190 1672.5,-210 1919.5,-210 1919.5,-190 1672.5,-190"/>
<text text-anchor="middle" x="1796" y="-197" font-family="FreeSans" font-size="10.00">Kitware.VTK.vtkOpenGLVolumeTextureMapper3D</text>
</a>
</g>
<!-- Node27&#45;&gt;Node28 -->
<g id="edge54" class="edge"><title>Node27&#45;&gt;Node28</title>
<path fill="none" stroke="midnightblue" d="M1595.07,-200C1620.19,-200 1646.87,-200 1672.31,-200"/>
<polygon fill="midnightblue" stroke="midnightblue" points="1594.78,-196.5 1584.78,-200 1594.78,-203.5 1594.78,-196.5"/>
</g>
<!-- Node30 -->
<g id="node59" class="node"><title>Node30</title>
<a xlink:href="class_kitware_1_1_v_t_k_1_1vtk_composite_poly_data_mapper.html" target="_top" xlink:title="vtkCompositePolyDataMapper &#45; a class that renders hierarchical polygonal data">
<polygon fill="none" stroke="black" points="1070,-171 1070,-191 1290,-191 1290,-171 1070,-171"/>
<text text-anchor="middle" x="1180" y="-178" font-family="FreeSans" font-size="10.00">Kitware.VTK.vtkCompositePolyDataMapper</text>
</a>
</g>
<!-- Node29&#45;&gt;Node30 -->
<g id="edge58" class="edge"><title>Node29&#45;&gt;Node30</title>
<path fill="none" stroke="midnightblue" d="M962.991,-137.01C989.944,-145.021 1025.8,-155.052 1058,-162 1073.61,-165.369 1090.47,-168.386 1106.52,-170.971"/>
<polygon fill="midnightblue" stroke="midnightblue" points="963.708,-133.571 953.124,-134.049 961.696,-140.276 963.708,-133.571"/>
</g>
<!-- Node32 -->
<g id="node63" class="node"><title>Node32</title>
<a xlink:href="class_kitware_1_1_v_t_k_1_1vtk_data_set_mapper.html" target="_top" xlink:title="vtkDataSetMapper &#45; map vtkDataSet and derived classes to graphics primitives">
<polygon fill="none" stroke="black" points="1097.5,-133 1097.5,-153 1262.5,-153 1262.5,-133 1097.5,-133"/>
<text text-anchor="middle" x="1180" y="-140" font-family="FreeSans" font-size="10.00">Kitware.VTK.vtkDataSetMapper</text>
</a>
</g>
<!-- Node29&#45;&gt;Node32 -->
<g id="edge62" class="edge"><title>Node29&#45;&gt;Node32</title>
<path fill="none" stroke="midnightblue" d="M993.927,-129.35C1026.11,-131.711 1064.09,-134.497 1097.32,-136.934"/>
<polygon fill="midnightblue" stroke="midnightblue" points="993.926,-125.84 983.697,-128.599 993.414,-132.822 993.926,-125.84"/>
</g>
<!-- Node33 -->
<g id="node65" class="node"><title>Node33</title>
<a xlink:href="class_kitware_1_1_v_t_k_1_1vtk_glyph3_d_mapper.html" target="_top" xlink:title="vtkGlyph3DMapper &#45; vtkGlyph3D on the GPU.">
<polygon fill="none" stroke="black" points="1097,-95 1097,-115 1263,-115 1263,-95 1097,-95"/>
<text text-anchor="middle" x="1180" y="-102" font-family="FreeSans" font-size="10.00">Kitware.VTK.vtkGlyph3DMapper</text>
</a>
</g>
<!-- Node29&#45;&gt;Node33 -->
<g id="edge64" class="edge"><title>Node29&#45;&gt;Node33</title>
<path fill="none" stroke="midnightblue" d="M993.882,-118.653C1025.91,-116.304 1063.7,-113.531 1096.83,-111.101"/>
<polygon fill="midnightblue" stroke="midnightblue" points="993.414,-115.178 983.697,-119.401 993.926,-122.16 993.414,-115.178"/>
</g>
<!-- Node35 -->
<g id="node69" class="node"><title>Node35</title>
<a xlink:href="class_kitware_1_1_v_t_k_1_1vtk_graph_mapper.html" target="_top" xlink:title="vtkGraphMapper &#45; map vtkGraph and derived classes to graphics primitives">
<polygon fill="none" stroke="black" points="1102.5,-57 1102.5,-77 1257.5,-77 1257.5,-57 1102.5,-57"/>
<text text-anchor="middle" x="1180" y="-64" font-family="FreeSans" font-size="10.00">Kitware.VTK.vtkGraphMapper</text>
</a>
</g>
<!-- Node29&#45;&gt;Node35 -->
<g id="edge68" class="edge"><title>Node29&#45;&gt;Node35</title>
<path fill="none" stroke="midnightblue" d="M962.991,-110.99C989.944,-102.979 1025.8,-92.9481 1058,-86 1073.61,-82.6314 1090.47,-79.6143 1106.52,-77.0294"/>
<polygon fill="midnightblue" stroke="midnightblue" points="961.696,-107.724 953.124,-113.951 963.708,-114.429 961.696,-107.724"/>
</g>
<!-- Node36 -->
<g id="node71" class="node"><title>Node36</title>
<a xlink:href="class_kitware_1_1_v_t_k_1_1vtk_poly_data_mapper.html" target="_top" xlink:title="vtkPolyDataMapper &#45; map vtkPolyData to graphics primitives">
<polygon fill="none" stroke="black" points="1096,-19 1096,-39 1264,-39 1264,-19 1096,-19"/>
<text text-anchor="middle" x="1180" y="-26" font-family="FreeSans" font-size="10.00">Kitware.VTK.vtkPolyDataMapper</text>
</a>
</g>
<!-- Node29&#45;&gt;Node36 -->
<g id="edge70" class="edge"><title>Node29&#45;&gt;Node36</title>
<path fill="none" stroke="midnightblue" d="M943.875,-107.979C970.159,-90.3852 1015.19,-62.6855 1058,-48 1069.96,-43.8959 1082.89,-40.6744 1095.71,-38.1466"/>
<polygon fill="midnightblue" stroke="midnightblue" points="941.698,-105.227 935.394,-113.743 945.632,-111.017 941.698,-105.227"/>
</g>
<!-- Node31 -->
<g id="node61" class="node"><title>Node31</title>
<a xlink:href="class_kitware_1_1_v_t_k_1_1vtk_hierarchical_poly_data_mapper.html" target="_top" xlink:title="vtkHierarchicalPolyDataMapper &#45; a class that renders hierarchical polygonal data">
<polygon fill="none" stroke="black" points="1368,-152 1368,-172 1592,-172 1592,-152 1368,-152"/>
<text text-anchor="middle" x="1480" y="-159" font-family="FreeSans" font-size="10.00">Kitware.VTK.vtkHierarchicalPolyDataMapper</text>
</a>
</g>
<!-- Node30&#45;&gt;Node31 -->
<g id="edge60" class="edge"><title>Node30&#45;&gt;Node31</title>
<path fill="none" stroke="midnightblue" d="M1300.21,-173.387C1322.59,-171.969 1345.88,-170.494 1368,-169.093"/>
<polygon fill="midnightblue" stroke="midnightblue" points="1299.76,-169.908 1290.01,-174.033 1300.21,-176.894 1299.76,-169.908"/>
</g>
<!-- Node34 -->
<g id="node67" class="node"><title>Node34</title>
<a xlink:href="class_kitware_1_1_v_t_k_1_1vtk_open_g_l_glyph3_d_mapper.html" target="_top" xlink:title="vtkOpenGLGlyph3DMapper &#45; vtkOpenGLGlyph3D on the GPU.">
<polygon fill="none" stroke="black" points="1378,-95 1378,-115 1582,-115 1582,-95 1378,-95"/>
<text text-anchor="middle" x="1480" y="-102" font-family="FreeSans" font-size="10.00">Kitware.VTK.vtkOpenGLGlyph3DMapper</text>
</a>
</g>
<!-- Node33&#45;&gt;Node34 -->
<g id="edge66" class="edge"><title>Node33&#45;&gt;Node34</title>
<path fill="none" stroke="midnightblue" d="M1273.32,-105C1306.52,-105 1344.07,-105 1377.96,-105"/>
<polygon fill="midnightblue" stroke="midnightblue" points="1273.17,-101.5 1263.17,-105 1273.17,-108.5 1273.17,-101.5"/>
</g>
<!-- Node37 -->
<g id="node73" class="node"><title>Node37</title>
<a xlink:href="class_kitware_1_1_v_t_k_1_1vtk_open_g_l_poly_data_mapper.html" target="_top" xlink:title="vtkOpenGLPolyDataMapper &#45; a PolyDataMapper for the OpenGL library">
<polygon fill="none" stroke="black" points="1377,-38 1377,-58 1583,-58 1583,-38 1377,-38"/>
<text text-anchor="middle" x="1480" y="-45" font-family="FreeSans" font-size="10.00">Kitware.VTK.vtkOpenGLPolyDataMapper</text>
</a>
</g>
<!-- Node36&#45;&gt;Node37 -->
<g id="edge72" class="edge"><title>Node36&#45;&gt;Node37</title>
<path fill="none" stroke="midnightblue" d="M1274.76,-35.0012C1307.22,-37.0574 1343.7,-39.3678 1376.8,-41.4641"/>
<polygon fill="midnightblue" stroke="midnightblue" points="1274.57,-31.4823 1264.37,-34.3431 1274.12,-38.4683 1274.57,-31.4823"/>
</g>
<!-- Node38 -->
<g id="node75" class="node"><title>Node38</title>
<a xlink:href="class_kitware_1_1_v_t_k_1_1vtk_painter_poly_data_mapper.html" target="_top" xlink:title="vtkPainterPolyDataMapper &#45; PolyDataMapper using painters">
<polygon fill="none" stroke="black" points="1379.5,-0 1379.5,-20 1580.5,-20 1580.5,-0 1379.5,-0"/>
<text text-anchor="middle" x="1480" y="-7" font-family="FreeSans" font-size="10.00">Kitware.VTK.vtkPainterPolyDataMapper</text>
</a>
</g>
<!-- Node36&#45;&gt;Node38 -->
<g id="edge74" class="edge"><title>Node36&#45;&gt;Node38</title>
<path fill="none" stroke="midnightblue" d="M1274.56,-23.0112C1307.88,-20.901 1345.44,-18.5219 1379.25,-16.3806"/>
<polygon fill="midnightblue" stroke="midnightblue" points="1274.12,-19.5317 1264.37,-23.6569 1274.57,-26.5177 1274.12,-19.5317"/>
</g>
<!-- Node39 -->
<g id="node77" class="node"><title>Node39</title>
<a xlink:href="class_kitware_1_1_v_t_k_1_1vtk_composite_poly_data_mapper2.html" target="_top" xlink:title="vtkCompositePolyDataMapper2 &#45; mapper for composite dataset consisting of polygonal data...">
<polygon fill="none" stroke="black" points="1683,-0 1683,-20 1909,-20 1909,-0 1683,-0"/>
<text text-anchor="middle" x="1796" y="-7" font-family="FreeSans" font-size="10.00">Kitware.VTK.vtkCompositePolyDataMapper2</text>
</a>
</g>
<!-- Node38&#45;&gt;Node39 -->
<g id="edge76" class="edge"><title>Node38&#45;&gt;Node39</title>
<path fill="none" stroke="midnightblue" d="M1590.87,-10C1620.7,-10 1652.99,-10 1682.94,-10"/>
<polygon fill="midnightblue" stroke="midnightblue" points="1590.85,-6.5001 1580.85,-10 1590.85,-13.5001 1590.85,-6.5001"/>
</g>
</g>
</svg>
