<?xml version="1.0" encoding="UTF-8" standalone="no"?>
<!DOCTYPE svg PUBLIC "-//W3C//DTD SVG 1.1//EN"
 "http://www.w3.org/Graphics/SVG/1.1/DTD/svg11.dtd">
<!-- Generated by graphviz version 2.26.3 (20100126.1600)
 -->
<!-- Title: G Pages: 1 -->
<svg width="292pt" height="320pt"
 viewBox="0.00 0.00 292.00 320.00" xmlns="http://www.w3.org/2000/svg" xmlns:xlink="http://www.w3.org/1999/xlink">
<g id="graph1" class="graph" transform="scale(1 1) rotate(0) translate(4 316)">
<title>G</title>
<!-- Node1 -->
<g id="node1" class="node"><title>Node1</title>
<polygon fill="#bfbfbf" stroke="black" points="52,-59 52,-79 228,-79 228,-59 52,-59"/>
<text text-anchor="middle" x="140" y="-66" font-family="FreeSans" font-size="10.00">Kitware.VTK.vtkDataSetAttributes</text>
</g>
<!-- Node6 -->
<g id="node11" class="node"><title>Node6</title>
<a xlink:href="class_kitware_1_1_v_t_k_1_1vtk_cell_data.html" target="_top" xlink:title="vtkCellData &#45; represent and manipulate cell attribute data">
<polygon fill="none" stroke="black" points="0,-1 0,-21 130,-21 130,-1 0,-1"/>
<text text-anchor="middle" x="65" y="-8" font-family="FreeSans" font-size="10.00">Kitware.VTK.vtkCellData</text>
</a>
</g>
<!-- Node1&#45;&gt;Node6 -->
<g id="edge10" class="edge"><title>Node1&#45;&gt;Node6</title>
<path fill="none" stroke="midnightblue" d="M118.905,-52.6866C105.822,-42.5689 89.4205,-29.8852 78.1659,-21.1817"/>
<polygon fill="midnightblue" stroke="midnightblue" points="116.884,-55.5483 126.936,-58.8972 121.167,-50.011 116.884,-55.5483"/>
</g>
<!-- Node7 -->
<g id="node13" class="node"><title>Node7</title>
<a xlink:href="class_kitware_1_1_v_t_k_1_1vtk_point_data.html" target="_top" xlink:title="vtkPointData &#45; represent and manipulate point attribute data">
<polygon fill="none" stroke="black" points="147.5,-1 147.5,-21 284.5,-21 284.5,-1 147.5,-1"/>
<text text-anchor="middle" x="216" y="-8" font-family="FreeSans" font-size="10.00">Kitware.VTK.vtkPointData</text>
</a>
</g>
<!-- Node1&#45;&gt;Node7 -->
<g id="edge12" class="edge"><title>Node1&#45;&gt;Node7</title>
<path fill="none" stroke="midnightblue" d="M161.376,-52.6866C174.634,-42.5689 191.254,-29.8852 202.659,-21.1817"/>
<polygon fill="midnightblue" stroke="midnightblue" points="159.064,-50.0481 153.238,-58.8972 163.311,-55.6127 159.064,-50.0481"/>
</g>
<!-- Node2 -->
<g id="node2" class="node"><title>Node2</title>
<a xlink:href="class_kitware_1_1_v_t_k_1_1vtk_field_data.html" target="_top" xlink:title="vtkFieldData &#45; represent and manipulate fields of data">
<polygon fill="none" stroke="black" points="102.5,-117 102.5,-137 177.5,-137 177.5,-117 102.5,-117"/>
<text text-anchor="middle" x="140" y="-124" font-family="FreeSans" font-size="10.00">vtkFieldData</text>
</a>
</g>
<!-- Node2&#45;&gt;Node1 -->
<g id="edge2" class="edge"><title>Node2&#45;&gt;Node1</title>
<path fill="none" stroke="midnightblue" d="M140,-106.89C140,-97.6201 140,-87.0083 140,-79.3776"/>
<polygon fill="midnightblue" stroke="midnightblue" points="136.5,-106.897 140,-116.897 143.5,-106.897 136.5,-106.897"/>
</g>
<!-- Node3 -->
<g id="node4" class="node"><title>Node3</title>
<a xlink:href="class_kitware_1_1_v_t_k_1_1vtk_object.html" target="_top" xlink:title="vtkObject &#45; abstract base class for most VTK objects">
<polygon fill="none" stroke="black" points="109,-175 109,-195 171,-195 171,-175 109,-175"/>
<text text-anchor="middle" x="140" y="-182" font-family="FreeSans" font-size="10.00">vtkObject</text>
</a>
</g>
<!-- Node3&#45;&gt;Node2 -->
<g id="edge4" class="edge"><title>Node3&#45;&gt;Node2</title>
<path fill="none" stroke="midnightblue" d="M140,-164.89C140,-155.62 140,-145.008 140,-137.378"/>
<polygon fill="midnightblue" stroke="midnightblue" points="136.5,-164.897 140,-174.897 143.5,-164.897 136.5,-164.897"/>
</g>
<!-- Node4 -->
<g id="node6" class="node"><title>Node4</title>
<a xlink:href="class_kitware_1_1_v_t_k_1_1vtk_object_base.html" target="_top" xlink:title="vtkObjectBase &#45; abstract base class for most VTK objects">
<polygon fill="none" stroke="black" points="97,-233 97,-253 183,-253 183,-233 97,-233"/>
<text text-anchor="middle" x="140" y="-240" font-family="FreeSans" font-size="10.00">vtkObjectBase</text>
</a>
</g>
<!-- Node4&#45;&gt;Node3 -->
<g id="edge6" class="edge"><title>Node4&#45;&gt;Node3</title>
<path fill="none" stroke="midnightblue" d="M140,-222.89C140,-213.62 140,-203.008 140,-195.378"/>
<polygon fill="midnightblue" stroke="midnightblue" points="136.5,-222.897 140,-232.897 143.5,-222.897 136.5,-222.897"/>
</g>
<!-- Node5 -->
<g id="node8" class="node"><title>Node5</title>
<a xlink:href="class_kitware_1_1_v_t_k_1_1_wrapped_object.html" target="_top" xlink:title="Base class for all the mummy wrapped classes in Kitware.VTK.">
<polygon fill="none" stroke="black" points="95.5,-291 95.5,-311 184.5,-311 184.5,-291 95.5,-291"/>
<text text-anchor="middle" x="140" y="-298" font-family="FreeSans" font-size="10.00">WrappedObject</text>
</a>
</g>
<!-- Node5&#45;&gt;Node4 -->
<g id="edge8" class="edge"><title>Node5&#45;&gt;Node4</title>
<path fill="none" stroke="midnightblue" d="M140,-280.89C140,-271.62 140,-261.008 140,-253.378"/>
<polygon fill="midnightblue" stroke="midnightblue" points="136.5,-280.897 140,-290.897 143.5,-280.897 136.5,-280.897"/>
</g>
</g>
</svg>
