<?xml version="1.0" encoding="UTF-8" standalone="no"?>
<!DOCTYPE svg PUBLIC "-//W3C//DTD SVG 1.1//EN"
 "http://www.w3.org/Graphics/SVG/1.1/DTD/svg11.dtd">
<!-- Generated by graphviz version 2.26.3 (20100126.1600)
 -->
<!-- Title: G Pages: 1 -->
<svg width="258pt" height="378pt"
 viewBox="0.00 0.00 258.00 378.00" xmlns="http://www.w3.org/2000/svg" xmlns:xlink="http://www.w3.org/1999/xlink">
<g id="graph1" class="graph" transform="scale(1 1) rotate(0) translate(4 374)">
<title>G</title>
<!-- Node1 -->
<g id="node1" class="node"><title>Node1</title>
<polygon fill="#bfbfbf" stroke="black" points="-0.5,-1 -0.5,-21 250.5,-21 250.5,-1 -0.5,-1"/>
<text text-anchor="middle" x="125" y="-8" font-family="FreeSans" font-size="10.00">Kitware.VTK.vtkParallelCoordinatesInteractorStyle</text>
</g>
<!-- Node2 -->
<g id="node2" class="node"><title>Node2</title>
<a xlink:href="class_kitware_1_1_v_t_k_1_1vtk_interactor_style_trackball_camera.html" target="_top" xlink:title="vtkInteractorStyleTrackballCamera &#45; interactive manipulation of the camera">
<polygon fill="none" stroke="black" points="35,-59 35,-79 215,-79 215,-59 35,-59"/>
<text text-anchor="middle" x="125" y="-66" font-family="FreeSans" font-size="10.00">vtkInteractorStyleTrackballCamera</text>
</a>
</g>
<!-- Node2&#45;&gt;Node1 -->
<g id="edge2" class="edge"><title>Node2&#45;&gt;Node1</title>
<path fill="none" stroke="midnightblue" d="M125,-48.8902C125,-39.6201 125,-29.0083 125,-21.3776"/>
<polygon fill="midnightblue" stroke="midnightblue" points="121.5,-48.8971 125,-58.8972 128.5,-48.8972 121.5,-48.8971"/>
</g>
<!-- Node3 -->
<g id="node4" class="node"><title>Node3</title>
<a xlink:href="class_kitware_1_1_v_t_k_1_1vtk_interactor_style.html" target="_top" xlink:title="vtkInteractorStyle &#45; provide event&#45;driven interface to the rendering window (defines trackball mode)...">
<polygon fill="none" stroke="black" points="74.5,-117 74.5,-137 175.5,-137 175.5,-117 74.5,-117"/>
<text text-anchor="middle" x="125" y="-124" font-family="FreeSans" font-size="10.00">vtkInteractorStyle</text>
</a>
</g>
<!-- Node3&#45;&gt;Node2 -->
<g id="edge4" class="edge"><title>Node3&#45;&gt;Node2</title>
<path fill="none" stroke="midnightblue" d="M125,-106.89C125,-97.6201 125,-87.0083 125,-79.3776"/>
<polygon fill="midnightblue" stroke="midnightblue" points="121.5,-106.897 125,-116.897 128.5,-106.897 121.5,-106.897"/>
</g>
<!-- Node4 -->
<g id="node6" class="node"><title>Node4</title>
<a xlink:href="class_kitware_1_1_v_t_k_1_1vtk_interactor_observer.html" target="_top" xlink:title="vtkInteractorObserver &#45; an abstract superclass for classes observing events invoked by vtkRenderWindo...">
<polygon fill="none" stroke="black" points="64.5,-175 64.5,-195 185.5,-195 185.5,-175 64.5,-175"/>
<text text-anchor="middle" x="125" y="-182" font-family="FreeSans" font-size="10.00">vtkInteractorObserver</text>
</a>
</g>
<!-- Node4&#45;&gt;Node3 -->
<g id="edge6" class="edge"><title>Node4&#45;&gt;Node3</title>
<path fill="none" stroke="midnightblue" d="M125,-164.89C125,-155.62 125,-145.008 125,-137.378"/>
<polygon fill="midnightblue" stroke="midnightblue" points="121.5,-164.897 125,-174.897 128.5,-164.897 121.5,-164.897"/>
</g>
<!-- Node5 -->
<g id="node8" class="node"><title>Node5</title>
<a xlink:href="class_kitware_1_1_v_t_k_1_1vtk_object.html" target="_top" xlink:title="vtkObject &#45; abstract base class for most VTK objects">
<polygon fill="none" stroke="black" points="94,-233 94,-253 156,-253 156,-233 94,-233"/>
<text text-anchor="middle" x="125" y="-240" font-family="FreeSans" font-size="10.00">vtkObject</text>
</a>
</g>
<!-- Node5&#45;&gt;Node4 -->
<g id="edge8" class="edge"><title>Node5&#45;&gt;Node4</title>
<path fill="none" stroke="midnightblue" d="M125,-222.89C125,-213.62 125,-203.008 125,-195.378"/>
<polygon fill="midnightblue" stroke="midnightblue" points="121.5,-222.897 125,-232.897 128.5,-222.897 121.5,-222.897"/>
</g>
<!-- Node6 -->
<g id="node10" class="node"><title>Node6</title>
<a xlink:href="class_kitware_1_1_v_t_k_1_1vtk_object_base.html" target="_top" xlink:title="vtkObjectBase &#45; abstract base class for most VTK objects">
<polygon fill="none" stroke="black" points="82,-291 82,-311 168,-311 168,-291 82,-291"/>
<text text-anchor="middle" x="125" y="-298" font-family="FreeSans" font-size="10.00">vtkObjectBase</text>
</a>
</g>
<!-- Node6&#45;&gt;Node5 -->
<g id="edge10" class="edge"><title>Node6&#45;&gt;Node5</title>
<path fill="none" stroke="midnightblue" d="M125,-280.89C125,-271.62 125,-261.008 125,-253.378"/>
<polygon fill="midnightblue" stroke="midnightblue" points="121.5,-280.897 125,-290.897 128.5,-280.897 121.5,-280.897"/>
</g>
<!-- Node7 -->
<g id="node12" class="node"><title>Node7</title>
<a xlink:href="class_kitware_1_1_v_t_k_1_1_wrapped_object.html" target="_top" xlink:title="Base class for all the mummy wrapped classes in Kitware.VTK.">
<polygon fill="none" stroke="black" points="80.5,-349 80.5,-369 169.5,-369 169.5,-349 80.5,-349"/>
<text text-anchor="middle" x="125" y="-356" font-family="FreeSans" font-size="10.00">WrappedObject</text>
</a>
</g>
<!-- Node7&#45;&gt;Node6 -->
<g id="edge12" class="edge"><title>Node7&#45;&gt;Node6</title>
<path fill="none" stroke="midnightblue" d="M125,-338.89C125,-329.62 125,-319.008 125,-311.378"/>
<polygon fill="midnightblue" stroke="midnightblue" points="121.5,-338.897 125,-348.897 128.5,-338.897 121.5,-338.897"/>
</g>
</g>
</svg>
