<?xml version="1.0" encoding="UTF-8" standalone="no"?>
<!DOCTYPE svg PUBLIC "-//W3C//DTD SVG 1.1//EN"
 "http://www.w3.org/Graphics/SVG/1.1/DTD/svg11.dtd">
<!-- Generated by graphviz version 2.26.3 (20100126.1600)
 -->
<!-- Title: G Pages: 1 -->
<svg width="202pt" height="262pt"
 viewBox="0.00 0.00 202.00 262.00" xmlns="http://www.w3.org/2000/svg" xmlns:xlink="http://www.w3.org/1999/xlink">
<g id="graph1" class="graph" transform="scale(1 1) rotate(0) translate(4 258)">
<title>G</title>
<!-- Node1 -->
<g id="node1" class="node"><title>Node1</title>
<polygon fill="#bfbfbf" stroke="black" points="0,-59 0,-79 194,-79 194,-59 0,-59"/>
<text text-anchor="middle" x="97" y="-66" font-family="FreeSans" font-size="10.00">Kitware.VTK.vtkGenericCellTessellator</text>
</g>
<!-- Node5 -->
<g id="node9" class="node"><title>Node5</title>
<a xlink:href="class_kitware_1_1_v_t_k_1_1vtk_simple_cell_tessellator.html" target="_top" xlink:title="vtkSimpleCellTessellator &#45; helper class to perform cell tessellation">
<polygon fill="none" stroke="black" points="2,-1 2,-21 192,-21 192,-1 2,-1"/>
<text text-anchor="middle" x="97" y="-8" font-family="FreeSans" font-size="10.00">Kitware.VTK.vtkSimpleCellTessellator</text>
</a>
</g>
<!-- Node1&#45;&gt;Node5 -->
<g id="edge8" class="edge"><title>Node1&#45;&gt;Node5</title>
<path fill="none" stroke="midnightblue" d="M97,-48.8902C97,-39.6201 97,-29.0083 97,-21.3776"/>
<polygon fill="midnightblue" stroke="midnightblue" points="93.5001,-48.8971 97,-58.8972 100.5,-48.8972 93.5001,-48.8971"/>
</g>
<!-- Node2 -->
<g id="node2" class="node"><title>Node2</title>
<a xlink:href="class_kitware_1_1_v_t_k_1_1vtk_object.html" target="_top" xlink:title="vtkObject &#45; abstract base class for most VTK objects">
<polygon fill="none" stroke="black" points="66,-117 66,-137 128,-137 128,-117 66,-117"/>
<text text-anchor="middle" x="97" y="-124" font-family="FreeSans" font-size="10.00">vtkObject</text>
</a>
</g>
<!-- Node2&#45;&gt;Node1 -->
<g id="edge2" class="edge"><title>Node2&#45;&gt;Node1</title>
<path fill="none" stroke="midnightblue" d="M97,-106.89C97,-97.6201 97,-87.0083 97,-79.3776"/>
<polygon fill="midnightblue" stroke="midnightblue" points="93.5001,-106.897 97,-116.897 100.5,-106.897 93.5001,-106.897"/>
</g>
<!-- Node3 -->
<g id="node4" class="node"><title>Node3</title>
<a xlink:href="class_kitware_1_1_v_t_k_1_1vtk_object_base.html" target="_top" xlink:title="vtkObjectBase &#45; abstract base class for most VTK objects">
<polygon fill="none" stroke="black" points="54,-175 54,-195 140,-195 140,-175 54,-175"/>
<text text-anchor="middle" x="97" y="-182" font-family="FreeSans" font-size="10.00">vtkObjectBase</text>
</a>
</g>
<!-- Node3&#45;&gt;Node2 -->
<g id="edge4" class="edge"><title>Node3&#45;&gt;Node2</title>
<path fill="none" stroke="midnightblue" d="M97,-164.89C97,-155.62 97,-145.008 97,-137.378"/>
<polygon fill="midnightblue" stroke="midnightblue" points="93.5001,-164.897 97,-174.897 100.5,-164.897 93.5001,-164.897"/>
</g>
<!-- Node4 -->
<g id="node6" class="node"><title>Node4</title>
<a xlink:href="class_kitware_1_1_v_t_k_1_1_wrapped_object.html" target="_top" xlink:title="Base class for all the mummy wrapped classes in Kitware.VTK.">
<polygon fill="none" stroke="black" points="52.5,-233 52.5,-253 141.5,-253 141.5,-233 52.5,-233"/>
<text text-anchor="middle" x="97" y="-240" font-family="FreeSans" font-size="10.00">WrappedObject</text>
</a>
</g>
<!-- Node4&#45;&gt;Node3 -->
<g id="edge6" class="edge"><title>Node4&#45;&gt;Node3</title>
<path fill="none" stroke="midnightblue" d="M97,-222.89C97,-213.62 97,-203.008 97,-195.378"/>
<polygon fill="midnightblue" stroke="midnightblue" points="93.5001,-222.897 97,-232.897 100.5,-222.897 93.5001,-222.897"/>
</g>
</g>
</svg>
