<?xml version="1.0" encoding="UTF-8" standalone="no"?>
<!DOCTYPE svg PUBLIC "-//W3C//DTD SVG 1.1//EN"
 "http://www.w3.org/Graphics/SVG/1.1/DTD/svg11.dtd">
<!-- Generated by graphviz version 2.26.3 (20100126.1600)
 -->
<!-- Title: G Pages: 1 -->
<svg width="190pt" height="378pt"
 viewBox="0.00 0.00 190.00 378.00" xmlns="http://www.w3.org/2000/svg" xmlns:xlink="http://www.w3.org/1999/xlink">
<g id="graph1" class="graph" transform="scale(1 1) rotate(0) translate(4 374)">
<title>G</title>
<!-- Node1 -->
<g id="node1" class="node"><title>Node1</title>
<polygon fill="#bfbfbf" stroke="black" points="0,-59 0,-79 182,-79 182,-59 0,-59"/>
<text text-anchor="middle" x="91" y="-66" font-family="FreeSans" font-size="10.00">Kitware.VTK.vtkUnsignedCharArray</text>
</g>
<!-- Node7 -->
<g id="node13" class="node"><title>Node7</title>
<a xlink:href="class_kitware_1_1_v_t_k_1_1vtk_type_u_int8_array.html" target="_top" xlink:title="vtkTypeUInt8Array &#45; dynamic, self&#45;adjusting array of vtkTypeUInt8">
<polygon fill="none" stroke="black" points="10.5,-1 10.5,-21 171.5,-21 171.5,-1 10.5,-1"/>
<text text-anchor="middle" x="91" y="-8" font-family="FreeSans" font-size="10.00">Kitware.VTK.vtkTypeUInt8Array</text>
</a>
</g>
<!-- Node1&#45;&gt;Node7 -->
<g id="edge12" class="edge"><title>Node1&#45;&gt;Node7</title>
<path fill="none" stroke="midnightblue" d="M91,-48.8902C91,-39.6201 91,-29.0083 91,-21.3776"/>
<polygon fill="midnightblue" stroke="midnightblue" points="87.5001,-48.8971 91,-58.8972 94.5001,-48.8972 87.5001,-48.8971"/>
</g>
<!-- Node2 -->
<g id="node2" class="node"><title>Node2</title>
<a xlink:href="class_kitware_1_1_v_t_k_1_1vtk_data_array.html" target="_top" xlink:title="vtkDataArray &#45; abstract superclass for arrays of numeric data">
<polygon fill="none" stroke="black" points="51,-117 51,-137 131,-137 131,-117 51,-117"/>
<text text-anchor="middle" x="91" y="-124" font-family="FreeSans" font-size="10.00">vtkDataArray</text>
</a>
</g>
<!-- Node2&#45;&gt;Node1 -->
<g id="edge2" class="edge"><title>Node2&#45;&gt;Node1</title>
<path fill="none" stroke="midnightblue" d="M91,-106.89C91,-97.6201 91,-87.0083 91,-79.3776"/>
<polygon fill="midnightblue" stroke="midnightblue" points="87.5001,-106.897 91,-116.897 94.5001,-106.897 87.5001,-106.897"/>
</g>
<!-- Node3 -->
<g id="node4" class="node"><title>Node3</title>
<a xlink:href="class_kitware_1_1_v_t_k_1_1vtk_abstract_array.html" target="_top" xlink:title="vtkAbstractArray &#45; Abstract superclass for all arrays">
<polygon fill="none" stroke="black" points="42.5,-175 42.5,-195 139.5,-195 139.5,-175 42.5,-175"/>
<text text-anchor="middle" x="91" y="-182" font-family="FreeSans" font-size="10.00">vtkAbstractArray</text>
</a>
</g>
<!-- Node3&#45;&gt;Node2 -->
<g id="edge4" class="edge"><title>Node3&#45;&gt;Node2</title>
<path fill="none" stroke="midnightblue" d="M91,-164.89C91,-155.62 91,-145.008 91,-137.378"/>
<polygon fill="midnightblue" stroke="midnightblue" points="87.5001,-164.897 91,-174.897 94.5001,-164.897 87.5001,-164.897"/>
</g>
<!-- Node4 -->
<g id="node6" class="node"><title>Node4</title>
<a xlink:href="class_kitware_1_1_v_t_k_1_1vtk_object.html" target="_top" xlink:title="vtkObject &#45; abstract base class for most VTK objects">
<polygon fill="none" stroke="black" points="60,-233 60,-253 122,-253 122,-233 60,-233"/>
<text text-anchor="middle" x="91" y="-240" font-family="FreeSans" font-size="10.00">vtkObject</text>
</a>
</g>
<!-- Node4&#45;&gt;Node3 -->
<g id="edge6" class="edge"><title>Node4&#45;&gt;Node3</title>
<path fill="none" stroke="midnightblue" d="M91,-222.89C91,-213.62 91,-203.008 91,-195.378"/>
<polygon fill="midnightblue" stroke="midnightblue" points="87.5001,-222.897 91,-232.897 94.5001,-222.897 87.5001,-222.897"/>
</g>
<!-- Node5 -->
<g id="node8" class="node"><title>Node5</title>
<a xlink:href="class_kitware_1_1_v_t_k_1_1vtk_object_base.html" target="_top" xlink:title="vtkObjectBase &#45; abstract base class for most VTK objects">
<polygon fill="none" stroke="black" points="48,-291 48,-311 134,-311 134,-291 48,-291"/>
<text text-anchor="middle" x="91" y="-298" font-family="FreeSans" font-size="10.00">vtkObjectBase</text>
</a>
</g>
<!-- Node5&#45;&gt;Node4 -->
<g id="edge8" class="edge"><title>Node5&#45;&gt;Node4</title>
<path fill="none" stroke="midnightblue" d="M91,-280.89C91,-271.62 91,-261.008 91,-253.378"/>
<polygon fill="midnightblue" stroke="midnightblue" points="87.5001,-280.897 91,-290.897 94.5001,-280.897 87.5001,-280.897"/>
</g>
<!-- Node6 -->
<g id="node10" class="node"><title>Node6</title>
<a xlink:href="class_kitware_1_1_v_t_k_1_1_wrapped_object.html" target="_top" xlink:title="Base class for all the mummy wrapped classes in Kitware.VTK.">
<polygon fill="none" stroke="black" points="46.5,-349 46.5,-369 135.5,-369 135.5,-349 46.5,-349"/>
<text text-anchor="middle" x="91" y="-356" font-family="FreeSans" font-size="10.00">WrappedObject</text>
</a>
</g>
<!-- Node6&#45;&gt;Node5 -->
<g id="edge10" class="edge"><title>Node6&#45;&gt;Node5</title>
<path fill="none" stroke="midnightblue" d="M91,-338.89C91,-329.62 91,-319.008 91,-311.378"/>
<polygon fill="midnightblue" stroke="midnightblue" points="87.5001,-338.897 91,-348.897 94.5001,-338.897 87.5001,-338.897"/>
</g>
</g>
</svg>
