<?xml version="1.0" encoding="UTF-8" standalone="no"?>
<!DOCTYPE svg PUBLIC "-//W3C//DTD SVG 1.1//EN"
 "http://www.w3.org/Graphics/SVG/1.1/DTD/svg11.dtd">
<!-- Generated by graphviz version 2.26.3 (20100126.1600)
 -->
<!-- Title: G Pages: 1 -->
<svg width="752pt" height="104pt"
 viewBox="0.00 0.00 752.00 104.00" xmlns="http://www.w3.org/2000/svg" xmlns:xlink="http://www.w3.org/1999/xlink">
<g id="graph1" class="graph" transform="scale(1 1) rotate(0) translate(4 100)">
<title>G</title>
<!-- Node1 -->
<g id="node1" class="node"><title>Node1</title>
<polygon fill="#bfbfbf" stroke="black" points="346.5,-38 346.5,-58 507.5,-58 507.5,-38 346.5,-38"/>
<text text-anchor="middle" x="427" y="-45" font-family="FreeSans" font-size="10.00">Kitware.VTK.vtkCommunicator</text>
</g>
<!-- Node5 -->
<g id="node9" class="node"><title>Node5</title>
<a xlink:href="class_kitware_1_1_v_t_k_1_1vtk_dummy_communicator.html" target="_top" xlink:title="vtkDummyCommunicator &#45; Dummy controller for single process applications.">
<polygon fill="none" stroke="black" points="544.5,-76 544.5,-96 743.5,-96 743.5,-76 544.5,-76"/>
<text text-anchor="middle" x="644" y="-83" font-family="FreeSans" font-size="10.00">Kitware.VTK.vtkDummyCommunicator</text>
</a>
</g>
<!-- Node1&#45;&gt;Node5 -->
<g id="edge8" class="edge"><title>Node1&#45;&gt;Node5</title>
<path fill="none" stroke="midnightblue" d="M494.157,-59.7602C523.822,-64.955 558.336,-70.9989 586.757,-75.976"/>
<polygon fill="midnightblue" stroke="midnightblue" points="494.752,-56.3112 484.298,-58.0338 493.544,-63.2063 494.752,-56.3112"/>
</g>
<!-- Node6 -->
<g id="node11" class="node"><title>Node6</title>
<a xlink:href="class_kitware_1_1_v_t_k_1_1vtk_socket_communicator.html" target="_top" xlink:title="vtkSocketCommunicator &#45; Process communication using Sockets">
<polygon fill="none" stroke="black" points="547,-38 547,-58 741,-58 741,-38 547,-38"/>
<text text-anchor="middle" x="644" y="-45" font-family="FreeSans" font-size="10.00">Kitware.VTK.vtkSocketCommunicator</text>
</a>
</g>
<!-- Node1&#45;&gt;Node6 -->
<g id="edge10" class="edge"><title>Node1&#45;&gt;Node6</title>
<path fill="none" stroke="midnightblue" d="M518.083,-48C527.637,-48 537.376,-48 546.994,-48"/>
<polygon fill="midnightblue" stroke="midnightblue" points="517.803,-44.5001 507.803,-48 517.803,-51.5001 517.803,-44.5001"/>
</g>
<!-- Node7 -->
<g id="node13" class="node"><title>Node7</title>
<a xlink:href="class_kitware_1_1_v_t_k_1_1vtk_sub_communicator.html" target="_top" xlink:title="Kitware.VTK.vtkSubCommunicator">
<polygon fill="none" stroke="black" points="554.5,-0 554.5,-20 733.5,-20 733.5,-0 554.5,-0"/>
<text text-anchor="middle" x="644" y="-7" font-family="FreeSans" font-size="10.00">Kitware.VTK.vtkSubCommunicator</text>
</a>
</g>
<!-- Node1&#45;&gt;Node7 -->
<g id="edge12" class="edge"><title>Node1&#45;&gt;Node7</title>
<path fill="none" stroke="midnightblue" d="M494.157,-36.2398C523.822,-31.045 558.336,-25.0011 586.757,-20.024"/>
<polygon fill="midnightblue" stroke="midnightblue" points="493.544,-32.7937 484.298,-37.9662 494.752,-39.6888 493.544,-32.7937"/>
</g>
<!-- Node2 -->
<g id="node2" class="node"><title>Node2</title>
<a xlink:href="class_kitware_1_1_v_t_k_1_1vtk_object.html" target="_top" xlink:title="vtkObject &#45; abstract base class for most VTK objects">
<polygon fill="none" stroke="black" points="248,-38 248,-58 310,-58 310,-38 248,-38"/>
<text text-anchor="middle" x="279" y="-45" font-family="FreeSans" font-size="10.00">vtkObject</text>
</a>
</g>
<!-- Node2&#45;&gt;Node1 -->
<g id="edge2" class="edge"><title>Node2&#45;&gt;Node1</title>
<path fill="none" stroke="midnightblue" d="M320.063,-48C328.309,-48 337.24,-48 346.307,-48"/>
<polygon fill="midnightblue" stroke="midnightblue" points="320.026,-44.5001 310.026,-48 320.026,-51.5001 320.026,-44.5001"/>
</g>
<!-- Node3 -->
<g id="node4" class="node"><title>Node3</title>
<a xlink:href="class_kitware_1_1_v_t_k_1_1vtk_object_base.html" target="_top" xlink:title="vtkObjectBase &#45; abstract base class for most VTK objects">
<polygon fill="none" stroke="black" points="126,-38 126,-58 212,-58 212,-38 126,-38"/>
<text text-anchor="middle" x="169" y="-45" font-family="FreeSans" font-size="10.00">vtkObjectBase</text>
</a>
</g>
<!-- Node3&#45;&gt;Node2 -->
<g id="edge4" class="edge"><title>Node3&#45;&gt;Node2</title>
<path fill="none" stroke="midnightblue" d="M222.346,-48C231.091,-48 239.892,-48 247.863,-48"/>
<polygon fill="midnightblue" stroke="midnightblue" points="222.159,-44.5001 212.159,-48 222.159,-51.5001 222.159,-44.5001"/>
</g>
<!-- Node4 -->
<g id="node6" class="node"><title>Node4</title>
<a xlink:href="class_kitware_1_1_v_t_k_1_1_wrapped_object.html" target="_top" xlink:title="Base class for all the mummy wrapped classes in Kitware.VTK.">
<polygon fill="none" stroke="black" points="0.5,-38 0.5,-58 89.5,-58 89.5,-38 0.5,-38"/>
<text text-anchor="middle" x="45" y="-45" font-family="FreeSans" font-size="10.00">WrappedObject</text>
</a>
</g>
<!-- Node4&#45;&gt;Node3 -->
<g id="edge6" class="edge"><title>Node4&#45;&gt;Node3</title>
<path fill="none" stroke="midnightblue" d="M99.8895,-48C108.623,-48 117.548,-48 125.957,-48"/>
<polygon fill="midnightblue" stroke="midnightblue" points="99.7669,-44.5001 89.7668,-48 99.7668,-51.5001 99.7669,-44.5001"/>
</g>
</g>
</svg>
