<?xml version="1.0" encoding="UTF-8" standalone="no"?>
<!DOCTYPE svg PUBLIC "-//W3C//DTD SVG 1.1//EN"
 "http://www.w3.org/Graphics/SVG/1.1/DTD/svg11.dtd">
<!-- Generated by graphviz version 2.26.3 (20100126.1600)
 -->
<!-- Title: G Pages: 1 -->
<svg width="460pt" height="890pt"
 viewBox="0.00 0.00 460.46 890.00" xmlns="http://www.w3.org/2000/svg" xmlns:xlink="http://www.w3.org/1999/xlink">
<g id="graph1" class="graph" transform="scale(1 1) rotate(0) translate(4 886)">
<title>G</title>
<!-- Node1 -->
<g id="node1" class="node"><title>Node1</title>
<polygon fill="#bfbfbf" stroke="black" points="0,-1 0,-21 248,-21 248,-1 0,-1"/>
<text text-anchor="middle" x="124" y="-8" font-family="FreeSans" font-size="10.00">Kitware.VTK.vtkFixedPointVolumeRayCastMapper</text>
</g>
<!-- Node2 -->
<g id="node2" class="node"><title>Node2</title>
<a xlink:href="class_kitware_1_1_v_t_k_1_1vtk_volume_mapper.html" target="_top" xlink:title="vtkVolumeMapper &#45; Abstract class for a volume mapper">
<polygon fill="none" stroke="black" points="72.5,-61 72.5,-81 175.5,-81 175.5,-61 72.5,-61"/>
<text text-anchor="middle" x="124" y="-68" font-family="FreeSans" font-size="10.00">vtkVolumeMapper</text>
</a>
</g>
<!-- Node2&#45;&gt;Node1 -->
<g id="edge2" class="edge"><title>Node2&#45;&gt;Node1</title>
<path fill="none" stroke="midnightblue" d="M124,-50.5155C124,-40.562 124,-29.0495 124,-21.0279"/>
<polygon fill="midnightblue" stroke="midnightblue" points="120.5,-50.8218 124,-60.8218 127.5,-50.8219 120.5,-50.8218"/>
</g>
<!-- Node3 -->
<g id="node4" class="node"><title>Node3</title>
<a xlink:href="class_kitware_1_1_v_t_k_1_1vtk_abstract_volume_mapper.html" target="_top" xlink:title="vtkAbstractVolumeMapper &#45; Abstract class for a volume mapper">
<polygon fill="none" stroke="black" points="52.5,-121 52.5,-141 195.5,-141 195.5,-121 52.5,-121"/>
<text text-anchor="middle" x="124" y="-128" font-family="FreeSans" font-size="10.00">vtkAbstractVolumeMapper</text>
</a>
</g>
<!-- Node3&#45;&gt;Node2 -->
<g id="edge4" class="edge"><title>Node3&#45;&gt;Node2</title>
<path fill="none" stroke="midnightblue" d="M124,-110.516C124,-100.562 124,-89.0495 124,-81.0279"/>
<polygon fill="midnightblue" stroke="midnightblue" points="120.5,-110.822 124,-120.822 127.5,-110.822 120.5,-110.822"/>
</g>
<!-- Node4 -->
<g id="node6" class="node"><title>Node4</title>
<a xlink:href="class_kitware_1_1_v_t_k_1_1vtk_abstract_mapper3_d.html" target="_top" xlink:title="vtkAbstractMapper3D &#45; abstract class specifies interface to map 3D data">
<polygon fill="none" stroke="black" points="63.5,-181 63.5,-201 184.5,-201 184.5,-181 63.5,-181"/>
<text text-anchor="middle" x="124" y="-188" font-family="FreeSans" font-size="10.00">vtkAbstractMapper3D</text>
</a>
</g>
<!-- Node4&#45;&gt;Node3 -->
<g id="edge6" class="edge"><title>Node4&#45;&gt;Node3</title>
<path fill="none" stroke="midnightblue" d="M124,-170.516C124,-160.562 124,-149.05 124,-141.028"/>
<polygon fill="midnightblue" stroke="midnightblue" points="120.5,-170.822 124,-180.822 127.5,-170.822 120.5,-170.822"/>
</g>
<!-- Node5 -->
<g id="node8" class="node"><title>Node5</title>
<a xlink:href="class_kitware_1_1_v_t_k_1_1vtk_abstract_mapper.html" target="_top" xlink:title="vtkAbstractMapper &#45; abstract class specifies interface to map data">
<polygon fill="none" stroke="black" points="70.5,-241 70.5,-261 177.5,-261 177.5,-241 70.5,-241"/>
<text text-anchor="middle" x="124" y="-248" font-family="FreeSans" font-size="10.00">vtkAbstractMapper</text>
</a>
</g>
<!-- Node5&#45;&gt;Node4 -->
<g id="edge8" class="edge"><title>Node5&#45;&gt;Node4</title>
<path fill="none" stroke="midnightblue" d="M124,-230.516C124,-220.562 124,-209.05 124,-201.028"/>
<polygon fill="midnightblue" stroke="midnightblue" points="120.5,-230.822 124,-240.822 127.5,-230.822 120.5,-230.822"/>
</g>
<!-- Node6 -->
<g id="node10" class="node"><title>Node6</title>
<a xlink:href="class_kitware_1_1_v_t_k_1_1vtk_algorithm.html" target="_top" xlink:title="vtkAlgorithm &#45; Superclass for all sources, filters, and sinks in VTK.">
<polygon fill="none" stroke="black" points="85.5,-301 85.5,-321 162.5,-321 162.5,-301 85.5,-301"/>
<text text-anchor="middle" x="124" y="-308" font-family="FreeSans" font-size="10.00">vtkAlgorithm</text>
</a>
</g>
<!-- Node6&#45;&gt;Node5 -->
<g id="edge10" class="edge"><title>Node6&#45;&gt;Node5</title>
<path fill="none" stroke="midnightblue" d="M124,-290.516C124,-280.562 124,-269.05 124,-261.028"/>
<polygon fill="midnightblue" stroke="midnightblue" points="120.5,-290.822 124,-300.822 127.5,-290.822 120.5,-290.822"/>
</g>
<!-- Node7 -->
<g id="node12" class="node"><title>Node7</title>
<a xlink:href="class_kitware_1_1_v_t_k_1_1vtk_object.html" target="_top" xlink:title="vtkObject &#45; abstract base class for most VTK objects">
<polygon fill="none" stroke="black" points="93,-361 93,-381 155,-381 155,-361 93,-361"/>
<text text-anchor="middle" x="124" y="-368" font-family="FreeSans" font-size="10.00">vtkObject</text>
</a>
</g>
<!-- Node7&#45;&gt;Node6 -->
<g id="edge12" class="edge"><title>Node7&#45;&gt;Node6</title>
<path fill="none" stroke="midnightblue" d="M124,-350.516C124,-340.562 124,-329.05 124,-321.028"/>
<polygon fill="midnightblue" stroke="midnightblue" points="120.5,-350.822 124,-360.822 127.5,-350.822 120.5,-350.822"/>
</g>
<!-- Node8 -->
<g id="node14" class="node"><title>Node8</title>
<a xlink:href="class_kitware_1_1_v_t_k_1_1vtk_object_base.html" target="_top" xlink:title="vtkObjectBase &#45; abstract base class for most VTK objects">
<polygon fill="none" stroke="black" points="144,-801 144,-821 230,-821 230,-801 144,-801"/>
<text text-anchor="middle" x="187" y="-808" font-family="FreeSans" font-size="10.00">vtkObjectBase</text>
</a>
</g>
<!-- Node8&#45;&gt;Node7 -->
<g id="edge14" class="edge"><title>Node8&#45;&gt;Node7</title>
<path fill="none" stroke="midnightblue" d="M158.423,-795.886C144.687,-787.44 128.884,-775.826 118,-762 106.156,-746.955 105.621,-740.802 102,-722 76.4248,-589.199 111.577,-423.437 121.516,-381.17"/>
<polygon fill="midnightblue" stroke="midnightblue" points="156.683,-798.923 167.079,-800.97 160.229,-792.887 156.683,-798.923"/>
</g>
<!-- Node11 -->
<g id="node21" class="node"><title>Node11</title>
<a xlink:href="class_kitware_1_1_v_t_k_1_1vtk_object.html" target="_top" xlink:title="vtkObject &#45; abstract base class for most VTK objects">
<polygon fill="none" stroke="black" points="127,-741 127,-761 247,-761 247,-741 127,-741"/>
<text text-anchor="middle" x="187" y="-748" font-family="FreeSans" font-size="10.00">Kitware.VTK.vtkObject</text>
</a>
</g>
<!-- Node8&#45;&gt;Node11 -->
<g id="edge24" class="edge"><title>Node8&#45;&gt;Node11</title>
<path fill="none" stroke="midnightblue" d="M187,-790.516C187,-780.562 187,-769.05 187,-761.028"/>
<polygon fill="midnightblue" stroke="midnightblue" points="183.5,-790.822 187,-800.822 190.5,-790.822 183.5,-790.822"/>
</g>
<!-- Node9 -->
<g id="node16" class="node"><title>Node9</title>
<a xlink:href="class_kitware_1_1_v_t_k_1_1_wrapped_object.html" target="_top" xlink:title="Base class for all the mummy wrapped classes in Kitware.VTK.">
<polygon fill="none" stroke="black" points="325.5,-861 325.5,-881 414.5,-881 414.5,-861 325.5,-861"/>
<text text-anchor="middle" x="370" y="-868" font-family="FreeSans" font-size="10.00">WrappedObject</text>
</a>
</g>
<!-- Node9&#45;&gt;Node8 -->
<g id="edge16" class="edge"><title>Node9&#45;&gt;Node8</title>
<path fill="none" stroke="midnightblue" d="M329.804,-857.821C296.042,-846.752 248.512,-831.168 217.73,-821.075"/>
<polygon fill="midnightblue" stroke="midnightblue" points="328.777,-861.168 339.37,-860.957 330.958,-854.516 328.777,-861.168"/>
</g>
<!-- Node10 -->
<g id="node18" class="node"><title>Node10</title>
<a xlink:href="class_kitware_1_1_v_t_k_1_1vtk_object_event_relay.html" target="_top" xlink:title="Implement a relay handler for VTK events. This is a class that receives events directly from the VTK ...">
<polygon fill="none" stroke="black" points="116,-551 116,-571 288,-571 288,-551 116,-551"/>
<text text-anchor="middle" x="202" y="-558" font-family="FreeSans" font-size="10.00">Kitware.VTK.vtkObjectEventRelay</text>
</a>
</g>
<!-- Node9&#45;&gt;Node10 -->
<g id="edge20" class="edge"><title>Node9&#45;&gt;Node10</title>
<path fill="none" stroke="midnightblue" d="M382.888,-852.325C415.276,-802.899 492.803,-667.191 425,-590 415.773,-579.495 347.047,-571.666 288.298,-566.808"/>
<polygon fill="midnightblue" stroke="midnightblue" points="379.891,-850.509 377.239,-860.767 385.709,-854.402 379.891,-850.509"/>
</g>
<!-- Node10&#45;&gt;Node7 -->
<g id="edge18" class="edge"><title>Node10&#45;&gt;Node7</title>
<path fill="none" stroke="#9a32cd" stroke-dasharray="5,2" d="M193.921,-541.321C177.489,-501.293 140.674,-411.616 128.214,-381.266"/>
<polygon fill="#9a32cd" stroke="#9a32cd" points="190.771,-542.863 197.806,-550.785 197.246,-540.205 190.771,-542.863"/>
<text text-anchor="middle" x="301.5" y="-523" font-family="FreeSans" font-size="10.00"> LeftButtonReleaseEvtRelay</text>
<text text-anchor="middle" x="301.5" y="-511" font-family="FreeSans" font-size="10.00">KeyPressEvtRelay</text>
<text text-anchor="middle" x="301.5" y="-499" font-family="FreeSans" font-size="10.00">DomainModifiedEvtRelay</text>
<text text-anchor="middle" x="301.5" y="-487" font-family="FreeSans" font-size="10.00">VolumeMapperComputeGradientsStartEvtRelay</text>
<text text-anchor="middle" x="301.5" y="-475" font-family="FreeSans" font-size="10.00">ErrorEvtRelay</text>
<text text-anchor="middle" x="301.5" y="-463" font-family="FreeSans" font-size="10.00">VolumeMapperRenderStartEvtRelay</text>
<text text-anchor="middle" x="301.5" y="-451" font-family="FreeSans" font-size="10.00">StartEvtRelay</text>
<text text-anchor="middle" x="301.5" y="-439" font-family="FreeSans" font-size="10.00">ResetCameraEvtRelay</text>
<text text-anchor="middle" x="301.5" y="-427" font-family="FreeSans" font-size="10.00">EnableEvtRelay</text>
<text text-anchor="middle" x="301.5" y="-415" font-family="FreeSans" font-size="10.00">DeleteEvtRelay</text>
<text text-anchor="middle" x="301.5" y="-403" font-family="FreeSans" font-size="10.00">...</text>
</g>
<!-- Node10&#45;&gt;Node11 -->
<g id="edge26" class="edge"><title>Node10&#45;&gt;Node11</title>
<path fill="none" stroke="#9a32cd" stroke-dasharray="5,2" d="M199.028,-581.231C198.649,-584.169 198.293,-587.159 198,-590 192.144,-646.853 188.636,-715.333 187.452,-740.807"/>
<polygon fill="#9a32cd" stroke="#9a32cd" points="202.515,-581.565 200.421,-571.179 195.582,-580.604 202.515,-581.565"/>
<text text-anchor="middle" x="311.5" y="-713" font-family="FreeSans" font-size="10.00"> LeftButtonReleaseEvtRelay</text>
<text text-anchor="middle" x="311.5" y="-701" font-family="FreeSans" font-size="10.00">KeyPressEvtRelay</text>
<text text-anchor="middle" x="311.5" y="-689" font-family="FreeSans" font-size="10.00">DomainModifiedEvtRelay</text>
<text text-anchor="middle" x="311.5" y="-677" font-family="FreeSans" font-size="10.00">VolumeMapperComputeGradientsStartEvtRelay</text>
<text text-anchor="middle" x="311.5" y="-665" font-family="FreeSans" font-size="10.00">ErrorEvtRelay</text>
<text text-anchor="middle" x="311.5" y="-653" font-family="FreeSans" font-size="10.00">VolumeMapperRenderStartEvtRelay</text>
<text text-anchor="middle" x="311.5" y="-641" font-family="FreeSans" font-size="10.00">StartEvtRelay</text>
<text text-anchor="middle" x="311.5" y="-629" font-family="FreeSans" font-size="10.00">ResetCameraEvtRelay</text>
<text text-anchor="middle" x="311.5" y="-617" font-family="FreeSans" font-size="10.00">EnableEvtRelay</text>
<text text-anchor="middle" x="311.5" y="-605" font-family="FreeSans" font-size="10.00">DeleteEvtRelay</text>
<text text-anchor="middle" x="311.5" y="-593" font-family="FreeSans" font-size="10.00">...</text>
</g>
<!-- Node11&#45;&gt;Node10 -->
<g id="edge22" class="edge"><title>Node11&#45;&gt;Node10</title>
<path fill="none" stroke="#9a32cd" stroke-dasharray="5,2" d="M140.979,-735.818C135.439,-732.138 130.51,-727.596 127,-722 95.8229,-672.303 93.8299,-638.389 127,-590 131.736,-583.091 148.511,-576.287 164.999,-571.008"/>
<polygon fill="#9a32cd" stroke="#9a32cd" points="139.639,-739.079 150.072,-740.919 143.064,-732.974 139.639,-739.079"/>
<text text-anchor="middle" x="151" y="-659" font-family="FreeSans" font-size="10.00"> Sender</text>
<text text-anchor="middle" x="151" y="-647" font-family="FreeSans" font-size="10.00">EventImpl</text>
</g>
</g>
</svg>
