<?xml version="1.0" encoding="UTF-8" standalone="no"?>
<!DOCTYPE svg PUBLIC "-//W3C//DTD SVG 1.1//EN"
 "http://www.w3.org/Graphics/SVG/1.1/DTD/svg11.dtd">
<!-- Generated by graphviz version 2.26.3 (20100126.1600)
 -->
<!-- Title: G Pages: 1 -->
<svg width="467pt" height="650pt"
 viewBox="0.00 0.00 467.46 650.00" xmlns="http://www.w3.org/2000/svg" xmlns:xlink="http://www.w3.org/1999/xlink">
<g id="graph1" class="graph" transform="scale(1 1) rotate(0) translate(4 646)">
<title>G</title>
<!-- Node1 -->
<g id="node1" class="node"><title>Node1</title>
<polygon fill="#bfbfbf" stroke="black" points="-0.5,-1 -0.5,-21 262.5,-21 262.5,-1 -0.5,-1"/>
<text text-anchor="middle" x="131" y="-8" font-family="FreeSans" font-size="10.00">Kitware.VTK.vtkOpenGLRayCastImageDisplayHelper</text>
</g>
<!-- Node2 -->
<g id="node2" class="node"><title>Node2</title>
<a xlink:href="class_kitware_1_1_v_t_k_1_1vtk_ray_cast_image_display_helper.html" target="_top" xlink:title="vtkRayCastImageDisplayHelper &#45; helper class that draws the image to the screen">
<polygon fill="none" stroke="black" points="48,-61 48,-81 214,-81 214,-61 48,-61"/>
<text text-anchor="middle" x="131" y="-68" font-family="FreeSans" font-size="10.00">vtkRayCastImageDisplayHelper</text>
</a>
</g>
<!-- Node2&#45;&gt;Node1 -->
<g id="edge2" class="edge"><title>Node2&#45;&gt;Node1</title>
<path fill="none" stroke="midnightblue" d="M131,-50.5155C131,-40.562 131,-29.0495 131,-21.0279"/>
<polygon fill="midnightblue" stroke="midnightblue" points="127.5,-50.8218 131,-60.8218 134.5,-50.8219 127.5,-50.8218"/>
</g>
<!-- Node3 -->
<g id="node4" class="node"><title>Node3</title>
<a xlink:href="class_kitware_1_1_v_t_k_1_1vtk_object.html" target="_top" xlink:title="vtkObject &#45; abstract base class for most VTK objects">
<polygon fill="none" stroke="black" points="100,-121 100,-141 162,-141 162,-121 100,-121"/>
<text text-anchor="middle" x="131" y="-128" font-family="FreeSans" font-size="10.00">vtkObject</text>
</a>
</g>
<!-- Node3&#45;&gt;Node2 -->
<g id="edge4" class="edge"><title>Node3&#45;&gt;Node2</title>
<path fill="none" stroke="midnightblue" d="M131,-110.516C131,-100.562 131,-89.0495 131,-81.0279"/>
<polygon fill="midnightblue" stroke="midnightblue" points="127.5,-110.822 131,-120.822 134.5,-110.822 127.5,-110.822"/>
</g>
<!-- Node4 -->
<g id="node6" class="node"><title>Node4</title>
<a xlink:href="class_kitware_1_1_v_t_k_1_1vtk_object_base.html" target="_top" xlink:title="vtkObjectBase &#45; abstract base class for most VTK objects">
<polygon fill="none" stroke="black" points="151,-561 151,-581 237,-581 237,-561 151,-561"/>
<text text-anchor="middle" x="194" y="-568" font-family="FreeSans" font-size="10.00">vtkObjectBase</text>
</a>
</g>
<!-- Node4&#45;&gt;Node3 -->
<g id="edge6" class="edge"><title>Node4&#45;&gt;Node3</title>
<path fill="none" stroke="midnightblue" d="M165.423,-555.886C151.687,-547.44 135.884,-535.826 125,-522 113.156,-506.955 112.621,-500.802 109,-482 83.4248,-349.199 118.577,-183.437 128.516,-141.17"/>
<polygon fill="midnightblue" stroke="midnightblue" points="163.683,-558.923 174.079,-560.97 167.229,-552.887 163.683,-558.923"/>
</g>
<!-- Node7 -->
<g id="node13" class="node"><title>Node7</title>
<a xlink:href="class_kitware_1_1_v_t_k_1_1vtk_object.html" target="_top" xlink:title="vtkObject &#45; abstract base class for most VTK objects">
<polygon fill="none" stroke="black" points="134,-501 134,-521 254,-521 254,-501 134,-501"/>
<text text-anchor="middle" x="194" y="-508" font-family="FreeSans" font-size="10.00">Kitware.VTK.vtkObject</text>
</a>
</g>
<!-- Node4&#45;&gt;Node7 -->
<g id="edge16" class="edge"><title>Node4&#45;&gt;Node7</title>
<path fill="none" stroke="midnightblue" d="M194,-550.516C194,-540.562 194,-529.05 194,-521.028"/>
<polygon fill="midnightblue" stroke="midnightblue" points="190.5,-550.822 194,-560.822 197.5,-550.822 190.5,-550.822"/>
</g>
<!-- Node5 -->
<g id="node8" class="node"><title>Node5</title>
<a xlink:href="class_kitware_1_1_v_t_k_1_1_wrapped_object.html" target="_top" xlink:title="Base class for all the mummy wrapped classes in Kitware.VTK.">
<polygon fill="none" stroke="black" points="332.5,-621 332.5,-641 421.5,-641 421.5,-621 332.5,-621"/>
<text text-anchor="middle" x="377" y="-628" font-family="FreeSans" font-size="10.00">WrappedObject</text>
</a>
</g>
<!-- Node5&#45;&gt;Node4 -->
<g id="edge8" class="edge"><title>Node5&#45;&gt;Node4</title>
<path fill="none" stroke="midnightblue" d="M336.804,-617.821C303.042,-606.752 255.512,-591.168 224.73,-581.075"/>
<polygon fill="midnightblue" stroke="midnightblue" points="335.777,-621.168 346.37,-620.957 337.958,-614.516 335.777,-621.168"/>
</g>
<!-- Node6 -->
<g id="node10" class="node"><title>Node6</title>
<a xlink:href="class_kitware_1_1_v_t_k_1_1vtk_object_event_relay.html" target="_top" xlink:title="Implement a relay handler for VTK events. This is a class that receives events directly from the VTK ...">
<polygon fill="none" stroke="black" points="123,-311 123,-331 295,-331 295,-311 123,-311"/>
<text text-anchor="middle" x="209" y="-318" font-family="FreeSans" font-size="10.00">Kitware.VTK.vtkObjectEventRelay</text>
</a>
</g>
<!-- Node5&#45;&gt;Node6 -->
<g id="edge12" class="edge"><title>Node5&#45;&gt;Node6</title>
<path fill="none" stroke="midnightblue" d="M389.888,-612.325C422.276,-562.899 499.803,-427.191 432,-350 422.773,-339.495 354.047,-331.666 295.298,-326.808"/>
<polygon fill="midnightblue" stroke="midnightblue" points="386.891,-610.509 384.239,-620.767 392.709,-614.402 386.891,-610.509"/>
</g>
<!-- Node6&#45;&gt;Node3 -->
<g id="edge10" class="edge"><title>Node6&#45;&gt;Node3</title>
<path fill="none" stroke="#9a32cd" stroke-dasharray="5,2" d="M200.921,-301.321C184.489,-261.293 147.674,-171.616 135.214,-141.266"/>
<polygon fill="#9a32cd" stroke="#9a32cd" points="197.771,-302.863 204.806,-310.785 204.246,-300.205 197.771,-302.863"/>
<text text-anchor="middle" x="308.5" y="-283" font-family="FreeSans" font-size="10.00"> LeftButtonReleaseEvtRelay</text>
<text text-anchor="middle" x="308.5" y="-271" font-family="FreeSans" font-size="10.00">KeyPressEvtRelay</text>
<text text-anchor="middle" x="308.5" y="-259" font-family="FreeSans" font-size="10.00">DomainModifiedEvtRelay</text>
<text text-anchor="middle" x="308.5" y="-247" font-family="FreeSans" font-size="10.00">VolumeMapperComputeGradientsStartEvtRelay</text>
<text text-anchor="middle" x="308.5" y="-235" font-family="FreeSans" font-size="10.00">ErrorEvtRelay</text>
<text text-anchor="middle" x="308.5" y="-223" font-family="FreeSans" font-size="10.00">VolumeMapperRenderStartEvtRelay</text>
<text text-anchor="middle" x="308.5" y="-211" font-family="FreeSans" font-size="10.00">StartEvtRelay</text>
<text text-anchor="middle" x="308.5" y="-199" font-family="FreeSans" font-size="10.00">ResetCameraEvtRelay</text>
<text text-anchor="middle" x="308.5" y="-187" font-family="FreeSans" font-size="10.00">EnableEvtRelay</text>
<text text-anchor="middle" x="308.5" y="-175" font-family="FreeSans" font-size="10.00">DeleteEvtRelay</text>
<text text-anchor="middle" x="308.5" y="-163" font-family="FreeSans" font-size="10.00">...</text>
</g>
<!-- Node6&#45;&gt;Node7 -->
<g id="edge18" class="edge"><title>Node6&#45;&gt;Node7</title>
<path fill="none" stroke="#9a32cd" stroke-dasharray="5,2" d="M206.028,-341.231C205.649,-344.169 205.293,-347.159 205,-350 199.144,-406.853 195.636,-475.333 194.452,-500.807"/>
<polygon fill="#9a32cd" stroke="#9a32cd" points="209.515,-341.565 207.421,-331.179 202.582,-340.604 209.515,-341.565"/>
<text text-anchor="middle" x="318.5" y="-473" font-family="FreeSans" font-size="10.00"> LeftButtonReleaseEvtRelay</text>
<text text-anchor="middle" x="318.5" y="-461" font-family="FreeSans" font-size="10.00">KeyPressEvtRelay</text>
<text text-anchor="middle" x="318.5" y="-449" font-family="FreeSans" font-size="10.00">DomainModifiedEvtRelay</text>
<text text-anchor="middle" x="318.5" y="-437" font-family="FreeSans" font-size="10.00">VolumeMapperComputeGradientsStartEvtRelay</text>
<text text-anchor="middle" x="318.5" y="-425" font-family="FreeSans" font-size="10.00">ErrorEvtRelay</text>
<text text-anchor="middle" x="318.5" y="-413" font-family="FreeSans" font-size="10.00">VolumeMapperRenderStartEvtRelay</text>
<text text-anchor="middle" x="318.5" y="-401" font-family="FreeSans" font-size="10.00">StartEvtRelay</text>
<text text-anchor="middle" x="318.5" y="-389" font-family="FreeSans" font-size="10.00">ResetCameraEvtRelay</text>
<text text-anchor="middle" x="318.5" y="-377" font-family="FreeSans" font-size="10.00">EnableEvtRelay</text>
<text text-anchor="middle" x="318.5" y="-365" font-family="FreeSans" font-size="10.00">DeleteEvtRelay</text>
<text text-anchor="middle" x="318.5" y="-353" font-family="FreeSans" font-size="10.00">...</text>
</g>
<!-- Node7&#45;&gt;Node6 -->
<g id="edge14" class="edge"><title>Node7&#45;&gt;Node6</title>
<path fill="none" stroke="#9a32cd" stroke-dasharray="5,2" d="M147.979,-495.818C142.439,-492.138 137.51,-487.596 134,-482 102.823,-432.303 100.83,-398.389 134,-350 138.736,-343.091 155.511,-336.287 171.999,-331.008"/>
<polygon fill="#9a32cd" stroke="#9a32cd" points="146.639,-499.079 157.072,-500.919 150.064,-492.974 146.639,-499.079"/>
<text text-anchor="middle" x="158" y="-419" font-family="FreeSans" font-size="10.00"> Sender</text>
<text text-anchor="middle" x="158" y="-407" font-family="FreeSans" font-size="10.00">EventImpl</text>
</g>
</g>
</svg>
