<?xml version="1.0" encoding="UTF-8" standalone="no"?>
<!DOCTYPE svg PUBLIC "-//W3C//DTD SVG 1.1//EN"
 "http://www.w3.org/Graphics/SVG/1.1/DTD/svg11.dtd">
<!-- Generated by graphviz version 2.26.3 (20100126.1600)
 -->
<!-- Title: G Pages: 1 -->
<svg width="122pt" height="320pt"
 viewBox="0.00 0.00 122.00 320.00" xmlns="http://www.w3.org/2000/svg" xmlns:xlink="http://www.w3.org/1999/xlink">
<g id="graph1" class="graph" transform="scale(1 1) rotate(0) translate(4 316)">
<title>G</title>
<!-- Node1 -->
<g id="node1" class="node"><title>Node1</title>
<polygon fill="#bfbfbf" stroke="black" points="-0.5,-1 -0.5,-21 114.5,-21 114.5,-1 -0.5,-1"/>
<text text-anchor="middle" x="57" y="-8" font-family="FreeSans" font-size="10.00">Kitware.VTK.vtkVoxel</text>
</g>
<!-- Node2 -->
<g id="node2" class="node"><title>Node2</title>
<a xlink:href="class_kitware_1_1_v_t_k_1_1vtk_cell3_d.html" target="_top" xlink:title="vtkCell3D &#45; abstract class to specify 3D cell interface">
<polygon fill="none" stroke="black" points="26,-59 26,-79 88,-79 88,-59 26,-59"/>
<text text-anchor="middle" x="57" y="-66" font-family="FreeSans" font-size="10.00">vtkCell3D</text>
</a>
</g>
<!-- Node2&#45;&gt;Node1 -->
<g id="edge2" class="edge"><title>Node2&#45;&gt;Node1</title>
<path fill="none" stroke="midnightblue" d="M57,-48.8902C57,-39.6201 57,-29.0083 57,-21.3776"/>
<polygon fill="midnightblue" stroke="midnightblue" points="53.5001,-48.8971 57,-58.8972 60.5001,-48.8972 53.5001,-48.8971"/>
</g>
<!-- Node3 -->
<g id="node4" class="node"><title>Node3</title>
<a xlink:href="class_kitware_1_1_v_t_k_1_1vtk_cell.html" target="_top" xlink:title="vtkCell &#45; abstract class to specify cell behavior">
<polygon fill="none" stroke="black" points="33,-117 33,-137 81,-137 81,-117 33,-117"/>
<text text-anchor="middle" x="57" y="-124" font-family="FreeSans" font-size="10.00">vtkCell</text>
</a>
</g>
<!-- Node3&#45;&gt;Node2 -->
<g id="edge4" class="edge"><title>Node3&#45;&gt;Node2</title>
<path fill="none" stroke="midnightblue" d="M57,-106.89C57,-97.6201 57,-87.0083 57,-79.3776"/>
<polygon fill="midnightblue" stroke="midnightblue" points="53.5001,-106.897 57,-116.897 60.5001,-106.897 53.5001,-106.897"/>
</g>
<!-- Node4 -->
<g id="node6" class="node"><title>Node4</title>
<a xlink:href="class_kitware_1_1_v_t_k_1_1vtk_object.html" target="_top" xlink:title="vtkObject &#45; abstract base class for most VTK objects">
<polygon fill="none" stroke="black" points="26,-175 26,-195 88,-195 88,-175 26,-175"/>
<text text-anchor="middle" x="57" y="-182" font-family="FreeSans" font-size="10.00">vtkObject</text>
</a>
</g>
<!-- Node4&#45;&gt;Node3 -->
<g id="edge6" class="edge"><title>Node4&#45;&gt;Node3</title>
<path fill="none" stroke="midnightblue" d="M57,-164.89C57,-155.62 57,-145.008 57,-137.378"/>
<polygon fill="midnightblue" stroke="midnightblue" points="53.5001,-164.897 57,-174.897 60.5001,-164.897 53.5001,-164.897"/>
</g>
<!-- Node5 -->
<g id="node8" class="node"><title>Node5</title>
<a xlink:href="class_kitware_1_1_v_t_k_1_1vtk_object_base.html" target="_top" xlink:title="vtkObjectBase &#45; abstract base class for most VTK objects">
<polygon fill="none" stroke="black" points="14,-233 14,-253 100,-253 100,-233 14,-233"/>
<text text-anchor="middle" x="57" y="-240" font-family="FreeSans" font-size="10.00">vtkObjectBase</text>
</a>
</g>
<!-- Node5&#45;&gt;Node4 -->
<g id="edge8" class="edge"><title>Node5&#45;&gt;Node4</title>
<path fill="none" stroke="midnightblue" d="M57,-222.89C57,-213.62 57,-203.008 57,-195.378"/>
<polygon fill="midnightblue" stroke="midnightblue" points="53.5001,-222.897 57,-232.897 60.5001,-222.897 53.5001,-222.897"/>
</g>
<!-- Node6 -->
<g id="node10" class="node"><title>Node6</title>
<a xlink:href="class_kitware_1_1_v_t_k_1_1_wrapped_object.html" target="_top" xlink:title="Base class for all the mummy wrapped classes in Kitware.VTK.">
<polygon fill="none" stroke="black" points="12.5,-291 12.5,-311 101.5,-311 101.5,-291 12.5,-291"/>
<text text-anchor="middle" x="57" y="-298" font-family="FreeSans" font-size="10.00">WrappedObject</text>
</a>
</g>
<!-- Node6&#45;&gt;Node5 -->
<g id="edge10" class="edge"><title>Node6&#45;&gt;Node5</title>
<path fill="none" stroke="midnightblue" d="M57,-280.89C57,-271.62 57,-261.008 57,-253.378"/>
<polygon fill="midnightblue" stroke="midnightblue" points="53.5001,-280.897 57,-290.897 60.5001,-280.897 53.5001,-280.897"/>
</g>
</g>
</svg>
