<?xml version="1.0" encoding="UTF-8" standalone="no"?>
<!DOCTYPE svg PUBLIC "-//W3C//DTD SVG 1.1//EN"
 "http://www.w3.org/Graphics/SVG/1.1/DTD/svg11.dtd">
<!-- Generated by graphviz version 2.26.3 (20100126.1600)
 -->
<!-- Title: G Pages: 1 -->
<svg width="436pt" height="262pt"
 viewBox="0.00 0.00 436.00 262.00" xmlns="http://www.w3.org/2000/svg" xmlns:xlink="http://www.w3.org/1999/xlink">
<g id="graph1" class="graph" transform="scale(1 1) rotate(0) translate(4 258)">
<title>G</title>
<!-- Node1 -->
<g id="node1" class="node"><title>Node1</title>
<polygon fill="#bfbfbf" stroke="black" points="120,-59 120,-79 318,-79 318,-59 120,-59"/>
<text text-anchor="middle" x="219" y="-66" font-family="FreeSans" font-size="10.00">Kitware.VTK.vtkParallelRenderManager</text>
</g>
<!-- Node5 -->
<g id="node9" class="node"><title>Node5</title>
<a xlink:href="class_kitware_1_1_v_t_k_1_1vtk_composite_render_manager.html" target="_top" xlink:title="vtkCompositeRenderManager &#45; An object to control sort&#45;last parallel rendering.">
<polygon fill="none" stroke="black" points="0,-1 0,-21 216,-21 216,-1 0,-1"/>
<text text-anchor="middle" x="108" y="-8" font-family="FreeSans" font-size="10.00">Kitware.VTK.vtkCompositeRenderManager</text>
</a>
</g>
<!-- Node1&#45;&gt;Node5 -->
<g id="edge8" class="edge"><title>Node1&#45;&gt;Node5</title>
<path fill="none" stroke="midnightblue" d="M190.78,-54.2544C170.98,-43.9086 145.015,-30.3411 127.486,-21.1817"/>
<polygon fill="midnightblue" stroke="midnightblue" points="189.181,-57.3681 199.665,-58.8972 192.423,-51.1639 189.181,-57.3681"/>
</g>
<!-- Node6 -->
<g id="node11" class="node"><title>Node6</title>
<a xlink:href="class_kitware_1_1_v_t_k_1_1vtk_image_render_manager.html" target="_top" xlink:title="vtkImageRenderManager &#45; An object to control sort&#45;first parallel rendering.">
<polygon fill="none" stroke="black" points="234,-1 234,-21 428,-21 428,-1 234,-1"/>
<text text-anchor="middle" x="331" y="-8" font-family="FreeSans" font-size="10.00">Kitware.VTK.vtkImageRenderManager</text>
</a>
</g>
<!-- Node1&#45;&gt;Node6 -->
<g id="edge10" class="edge"><title>Node1&#45;&gt;Node6</title>
<path fill="none" stroke="midnightblue" d="M247.474,-54.2544C267.452,-43.9086 293.652,-30.3411 311.339,-21.1817"/>
<polygon fill="midnightblue" stroke="midnightblue" points="245.779,-51.1906 238.509,-58.8972 248.998,-57.4066 245.779,-51.1906"/>
</g>
<!-- Node2 -->
<g id="node2" class="node"><title>Node2</title>
<a xlink:href="class_kitware_1_1_v_t_k_1_1vtk_object.html" target="_top" xlink:title="vtkObject &#45; abstract base class for most VTK objects">
<polygon fill="none" stroke="black" points="188,-117 188,-137 250,-137 250,-117 188,-117"/>
<text text-anchor="middle" x="219" y="-124" font-family="FreeSans" font-size="10.00">vtkObject</text>
</a>
</g>
<!-- Node2&#45;&gt;Node1 -->
<g id="edge2" class="edge"><title>Node2&#45;&gt;Node1</title>
<path fill="none" stroke="midnightblue" d="M219,-106.89C219,-97.6201 219,-87.0083 219,-79.3776"/>
<polygon fill="midnightblue" stroke="midnightblue" points="215.5,-106.897 219,-116.897 222.5,-106.897 215.5,-106.897"/>
</g>
<!-- Node3 -->
<g id="node4" class="node"><title>Node3</title>
<a xlink:href="class_kitware_1_1_v_t_k_1_1vtk_object_base.html" target="_top" xlink:title="vtkObjectBase &#45; abstract base class for most VTK objects">
<polygon fill="none" stroke="black" points="176,-175 176,-195 262,-195 262,-175 176,-175"/>
<text text-anchor="middle" x="219" y="-182" font-family="FreeSans" font-size="10.00">vtkObjectBase</text>
</a>
</g>
<!-- Node3&#45;&gt;Node2 -->
<g id="edge4" class="edge"><title>Node3&#45;&gt;Node2</title>
<path fill="none" stroke="midnightblue" d="M219,-164.89C219,-155.62 219,-145.008 219,-137.378"/>
<polygon fill="midnightblue" stroke="midnightblue" points="215.5,-164.897 219,-174.897 222.5,-164.897 215.5,-164.897"/>
</g>
<!-- Node4 -->
<g id="node6" class="node"><title>Node4</title>
<a xlink:href="class_kitware_1_1_v_t_k_1_1_wrapped_object.html" target="_top" xlink:title="Base class for all the mummy wrapped classes in Kitware.VTK.">
<polygon fill="none" stroke="black" points="174.5,-233 174.5,-253 263.5,-253 263.5,-233 174.5,-233"/>
<text text-anchor="middle" x="219" y="-240" font-family="FreeSans" font-size="10.00">WrappedObject</text>
</a>
</g>
<!-- Node4&#45;&gt;Node3 -->
<g id="edge6" class="edge"><title>Node4&#45;&gt;Node3</title>
<path fill="none" stroke="midnightblue" d="M219,-222.89C219,-213.62 219,-203.008 219,-195.378"/>
<polygon fill="midnightblue" stroke="midnightblue" points="215.5,-222.897 219,-232.897 222.5,-222.897 215.5,-222.897"/>
</g>
</g>
</svg>
