<?xml version="1.0" encoding="UTF-8" standalone="no"?>
<!DOCTYPE svg PUBLIC "-//W3C//DTD SVG 1.1//EN"
 "http://www.w3.org/Graphics/SVG/1.1/DTD/svg11.dtd">
<!-- Generated by graphviz version 2.26.3 (20100126.1600)
 -->
<!-- Title: G Pages: 1 -->
<svg width="441pt" height="650pt"
 viewBox="0.00 0.00 441.46 650.00" xmlns="http://www.w3.org/2000/svg" xmlns:xlink="http://www.w3.org/1999/xlink">
<g id="graph1" class="graph" transform="scale(1 1) rotate(0) translate(4 646)">
<title>G</title>
<!-- Node1 -->
<g id="node1" class="node"><title>Node1</title>
<polygon fill="#bfbfbf" stroke="black" points="0,-1 0,-21 210,-21 210,-1 0,-1"/>
<text text-anchor="middle" x="105" y="-8" font-family="FreeSans" font-size="10.00">Kitware.VTK.vtkXRenderWindowInteractor</text>
</g>
<!-- Node2 -->
<g id="node2" class="node"><title>Node2</title>
<a xlink:href="class_kitware_1_1_v_t_k_1_1vtk_render_window_interactor.html" target="_top" xlink:title="vtkRenderWindowInteractor &#45; platform&#45;independent render window interaction including picking and fram...">
<polygon fill="none" stroke="black" points="32,-61 32,-81 178,-81 178,-61 32,-61"/>
<text text-anchor="middle" x="105" y="-68" font-family="FreeSans" font-size="10.00">vtkRenderWindowInteractor</text>
</a>
</g>
<!-- Node2&#45;&gt;Node1 -->
<g id="edge2" class="edge"><title>Node2&#45;&gt;Node1</title>
<path fill="none" stroke="midnightblue" d="M105,-50.5155C105,-40.562 105,-29.0495 105,-21.0279"/>
<polygon fill="midnightblue" stroke="midnightblue" points="101.5,-50.8218 105,-60.8218 108.5,-50.8219 101.5,-50.8218"/>
</g>
<!-- Node3 -->
<g id="node4" class="node"><title>Node3</title>
<a xlink:href="class_kitware_1_1_v_t_k_1_1vtk_object.html" target="_top" xlink:title="vtkObject &#45; abstract base class for most VTK objects">
<polygon fill="none" stroke="black" points="74,-121 74,-141 136,-141 136,-121 74,-121"/>
<text text-anchor="middle" x="105" y="-128" font-family="FreeSans" font-size="10.00">vtkObject</text>
</a>
</g>
<!-- Node3&#45;&gt;Node2 -->
<g id="edge4" class="edge"><title>Node3&#45;&gt;Node2</title>
<path fill="none" stroke="midnightblue" d="M105,-110.516C105,-100.562 105,-89.0495 105,-81.0279"/>
<polygon fill="midnightblue" stroke="midnightblue" points="101.5,-110.822 105,-120.822 108.5,-110.822 101.5,-110.822"/>
</g>
<!-- Node4 -->
<g id="node6" class="node"><title>Node4</title>
<a xlink:href="class_kitware_1_1_v_t_k_1_1vtk_object_base.html" target="_top" xlink:title="vtkObjectBase &#45; abstract base class for most VTK objects">
<polygon fill="none" stroke="black" points="125,-561 125,-581 211,-581 211,-561 125,-561"/>
<text text-anchor="middle" x="168" y="-568" font-family="FreeSans" font-size="10.00">vtkObjectBase</text>
</a>
</g>
<!-- Node4&#45;&gt;Node3 -->
<g id="edge6" class="edge"><title>Node4&#45;&gt;Node3</title>
<path fill="none" stroke="midnightblue" d="M139.423,-555.886C125.687,-547.44 109.884,-535.826 99,-522 87.1564,-506.955 86.6209,-500.802 83,-482 57.4248,-349.199 92.5766,-183.437 102.516,-141.17"/>
<polygon fill="midnightblue" stroke="midnightblue" points="137.683,-558.923 148.079,-560.97 141.229,-552.887 137.683,-558.923"/>
</g>
<!-- Node7 -->
<g id="node13" class="node"><title>Node7</title>
<a xlink:href="class_kitware_1_1_v_t_k_1_1vtk_object.html" target="_top" xlink:title="vtkObject &#45; abstract base class for most VTK objects">
<polygon fill="none" stroke="black" points="108,-501 108,-521 228,-521 228,-501 108,-501"/>
<text text-anchor="middle" x="168" y="-508" font-family="FreeSans" font-size="10.00">Kitware.VTK.vtkObject</text>
</a>
</g>
<!-- Node4&#45;&gt;Node7 -->
<g id="edge16" class="edge"><title>Node4&#45;&gt;Node7</title>
<path fill="none" stroke="midnightblue" d="M168,-550.516C168,-540.562 168,-529.05 168,-521.028"/>
<polygon fill="midnightblue" stroke="midnightblue" points="164.5,-550.822 168,-560.822 171.5,-550.822 164.5,-550.822"/>
</g>
<!-- Node5 -->
<g id="node8" class="node"><title>Node5</title>
<a xlink:href="class_kitware_1_1_v_t_k_1_1_wrapped_object.html" target="_top" xlink:title="Base class for all the mummy wrapped classes in Kitware.VTK.">
<polygon fill="none" stroke="black" points="306.5,-621 306.5,-641 395.5,-641 395.5,-621 306.5,-621"/>
<text text-anchor="middle" x="351" y="-628" font-family="FreeSans" font-size="10.00">WrappedObject</text>
</a>
</g>
<!-- Node5&#45;&gt;Node4 -->
<g id="edge8" class="edge"><title>Node5&#45;&gt;Node4</title>
<path fill="none" stroke="midnightblue" d="M310.804,-617.821C277.042,-606.752 229.512,-591.168 198.73,-581.075"/>
<polygon fill="midnightblue" stroke="midnightblue" points="309.777,-621.168 320.37,-620.957 311.958,-614.516 309.777,-621.168"/>
</g>
<!-- Node6 -->
<g id="node10" class="node"><title>Node6</title>
<a xlink:href="class_kitware_1_1_v_t_k_1_1vtk_object_event_relay.html" target="_top" xlink:title="Implement a relay handler for VTK events. This is a class that receives events directly from the VTK ...">
<polygon fill="none" stroke="black" points="97,-311 97,-331 269,-331 269,-311 97,-311"/>
<text text-anchor="middle" x="183" y="-318" font-family="FreeSans" font-size="10.00">Kitware.VTK.vtkObjectEventRelay</text>
</a>
</g>
<!-- Node5&#45;&gt;Node6 -->
<g id="edge12" class="edge"><title>Node5&#45;&gt;Node6</title>
<path fill="none" stroke="midnightblue" d="M363.888,-612.325C396.276,-562.899 473.803,-427.191 406,-350 396.773,-339.495 328.047,-331.666 269.298,-326.808"/>
<polygon fill="midnightblue" stroke="midnightblue" points="360.891,-610.509 358.239,-620.767 366.709,-614.402 360.891,-610.509"/>
</g>
<!-- Node6&#45;&gt;Node3 -->
<g id="edge10" class="edge"><title>Node6&#45;&gt;Node3</title>
<path fill="none" stroke="#9a32cd" stroke-dasharray="5,2" d="M174.921,-301.321C158.489,-261.293 121.674,-171.616 109.214,-141.266"/>
<polygon fill="#9a32cd" stroke="#9a32cd" points="171.771,-302.863 178.806,-310.785 178.246,-300.205 171.771,-302.863"/>
<text text-anchor="middle" x="282.5" y="-283" font-family="FreeSans" font-size="10.00"> LeftButtonReleaseEvtRelay</text>
<text text-anchor="middle" x="282.5" y="-271" font-family="FreeSans" font-size="10.00">KeyPressEvtRelay</text>
<text text-anchor="middle" x="282.5" y="-259" font-family="FreeSans" font-size="10.00">DomainModifiedEvtRelay</text>
<text text-anchor="middle" x="282.5" y="-247" font-family="FreeSans" font-size="10.00">VolumeMapperComputeGradientsStartEvtRelay</text>
<text text-anchor="middle" x="282.5" y="-235" font-family="FreeSans" font-size="10.00">ErrorEvtRelay</text>
<text text-anchor="middle" x="282.5" y="-223" font-family="FreeSans" font-size="10.00">VolumeMapperRenderStartEvtRelay</text>
<text text-anchor="middle" x="282.5" y="-211" font-family="FreeSans" font-size="10.00">StartEvtRelay</text>
<text text-anchor="middle" x="282.5" y="-199" font-family="FreeSans" font-size="10.00">ResetCameraEvtRelay</text>
<text text-anchor="middle" x="282.5" y="-187" font-family="FreeSans" font-size="10.00">EnableEvtRelay</text>
<text text-anchor="middle" x="282.5" y="-175" font-family="FreeSans" font-size="10.00">DeleteEvtRelay</text>
<text text-anchor="middle" x="282.5" y="-163" font-family="FreeSans" font-size="10.00">...</text>
</g>
<!-- Node6&#45;&gt;Node7 -->
<g id="edge18" class="edge"><title>Node6&#45;&gt;Node7</title>
<path fill="none" stroke="#9a32cd" stroke-dasharray="5,2" d="M180.028,-341.231C179.649,-344.169 179.293,-347.159 179,-350 173.144,-406.853 169.636,-475.333 168.452,-500.807"/>
<polygon fill="#9a32cd" stroke="#9a32cd" points="183.515,-341.565 181.421,-331.179 176.582,-340.604 183.515,-341.565"/>
<text text-anchor="middle" x="292.5" y="-473" font-family="FreeSans" font-size="10.00"> LeftButtonReleaseEvtRelay</text>
<text text-anchor="middle" x="292.5" y="-461" font-family="FreeSans" font-size="10.00">KeyPressEvtRelay</text>
<text text-anchor="middle" x="292.5" y="-449" font-family="FreeSans" font-size="10.00">DomainModifiedEvtRelay</text>
<text text-anchor="middle" x="292.5" y="-437" font-family="FreeSans" font-size="10.00">VolumeMapperComputeGradientsStartEvtRelay</text>
<text text-anchor="middle" x="292.5" y="-425" font-family="FreeSans" font-size="10.00">ErrorEvtRelay</text>
<text text-anchor="middle" x="292.5" y="-413" font-family="FreeSans" font-size="10.00">VolumeMapperRenderStartEvtRelay</text>
<text text-anchor="middle" x="292.5" y="-401" font-family="FreeSans" font-size="10.00">StartEvtRelay</text>
<text text-anchor="middle" x="292.5" y="-389" font-family="FreeSans" font-size="10.00">ResetCameraEvtRelay</text>
<text text-anchor="middle" x="292.5" y="-377" font-family="FreeSans" font-size="10.00">EnableEvtRelay</text>
<text text-anchor="middle" x="292.5" y="-365" font-family="FreeSans" font-size="10.00">DeleteEvtRelay</text>
<text text-anchor="middle" x="292.5" y="-353" font-family="FreeSans" font-size="10.00">...</text>
</g>
<!-- Node7&#45;&gt;Node6 -->
<g id="edge14" class="edge"><title>Node7&#45;&gt;Node6</title>
<path fill="none" stroke="#9a32cd" stroke-dasharray="5,2" d="M121.979,-495.818C116.439,-492.138 111.51,-487.596 108,-482 76.8229,-432.303 74.8299,-398.389 108,-350 112.736,-343.091 129.511,-336.287 145.999,-331.008"/>
<polygon fill="#9a32cd" stroke="#9a32cd" points="120.639,-499.079 131.072,-500.919 124.064,-492.974 120.639,-499.079"/>
<text text-anchor="middle" x="132" y="-419" font-family="FreeSans" font-size="10.00"> Sender</text>
<text text-anchor="middle" x="132" y="-407" font-family="FreeSans" font-size="10.00">EventImpl</text>
</g>
</g>
</svg>
