<?xml version="1.0" encoding="UTF-8" standalone="no"?>
<!DOCTYPE svg PUBLIC "-//W3C//DTD SVG 1.1//EN"
 "http://www.w3.org/Graphics/SVG/1.1/DTD/svg11.dtd">
<!-- Generated by graphviz version 2.26.3 (20100126.1600)
 -->
<!-- Title: G Pages: 1 -->
<svg width="434pt" height="890pt"
 viewBox="0.00 0.00 434.46 890.00" xmlns="http://www.w3.org/2000/svg" xmlns:xlink="http://www.w3.org/1999/xlink">
<g id="graph1" class="graph" transform="scale(1 1) rotate(0) translate(4 886)">
<title>G</title>
<!-- Node1 -->
<g id="node1" class="node"><title>Node1</title>
<polygon fill="#bfbfbf" stroke="black" points="0,-1 0,-21 196,-21 196,-1 0,-1"/>
<text text-anchor="middle" x="98" y="-8" font-family="FreeSans" font-size="10.00">Kitware.VTK.vtkVolumeTextureMapper</text>
</g>
<!-- Node2 -->
<g id="node2" class="node"><title>Node2</title>
<a xlink:href="class_kitware_1_1_v_t_k_1_1vtk_volume_mapper.html" target="_top" xlink:title="vtkVolumeMapper &#45; Abstract class for a volume mapper">
<polygon fill="none" stroke="black" points="46.5,-61 46.5,-81 149.5,-81 149.5,-61 46.5,-61"/>
<text text-anchor="middle" x="98" y="-68" font-family="FreeSans" font-size="10.00">vtkVolumeMapper</text>
</a>
</g>
<!-- Node2&#45;&gt;Node1 -->
<g id="edge2" class="edge"><title>Node2&#45;&gt;Node1</title>
<path fill="none" stroke="midnightblue" d="M98,-50.5155C98,-40.562 98,-29.0495 98,-21.0279"/>
<polygon fill="midnightblue" stroke="midnightblue" points="94.5001,-50.8218 98,-60.8218 101.5,-50.8219 94.5001,-50.8218"/>
</g>
<!-- Node3 -->
<g id="node4" class="node"><title>Node3</title>
<a xlink:href="class_kitware_1_1_v_t_k_1_1vtk_abstract_volume_mapper.html" target="_top" xlink:title="vtkAbstractVolumeMapper &#45; Abstract class for a volume mapper">
<polygon fill="none" stroke="black" points="26.5,-121 26.5,-141 169.5,-141 169.5,-121 26.5,-121"/>
<text text-anchor="middle" x="98" y="-128" font-family="FreeSans" font-size="10.00">vtkAbstractVolumeMapper</text>
</a>
</g>
<!-- Node3&#45;&gt;Node2 -->
<g id="edge4" class="edge"><title>Node3&#45;&gt;Node2</title>
<path fill="none" stroke="midnightblue" d="M98,-110.516C98,-100.562 98,-89.0495 98,-81.0279"/>
<polygon fill="midnightblue" stroke="midnightblue" points="94.5001,-110.822 98,-120.822 101.5,-110.822 94.5001,-110.822"/>
</g>
<!-- Node4 -->
<g id="node6" class="node"><title>Node4</title>
<a xlink:href="class_kitware_1_1_v_t_k_1_1vtk_abstract_mapper3_d.html" target="_top" xlink:title="vtkAbstractMapper3D &#45; abstract class specifies interface to map 3D data">
<polygon fill="none" stroke="black" points="37.5,-181 37.5,-201 158.5,-201 158.5,-181 37.5,-181"/>
<text text-anchor="middle" x="98" y="-188" font-family="FreeSans" font-size="10.00">vtkAbstractMapper3D</text>
</a>
</g>
<!-- Node4&#45;&gt;Node3 -->
<g id="edge6" class="edge"><title>Node4&#45;&gt;Node3</title>
<path fill="none" stroke="midnightblue" d="M98,-170.516C98,-160.562 98,-149.05 98,-141.028"/>
<polygon fill="midnightblue" stroke="midnightblue" points="94.5001,-170.822 98,-180.822 101.5,-170.822 94.5001,-170.822"/>
</g>
<!-- Node5 -->
<g id="node8" class="node"><title>Node5</title>
<a xlink:href="class_kitware_1_1_v_t_k_1_1vtk_abstract_mapper.html" target="_top" xlink:title="vtkAbstractMapper &#45; abstract class specifies interface to map data">
<polygon fill="none" stroke="black" points="44.5,-241 44.5,-261 151.5,-261 151.5,-241 44.5,-241"/>
<text text-anchor="middle" x="98" y="-248" font-family="FreeSans" font-size="10.00">vtkAbstractMapper</text>
</a>
</g>
<!-- Node5&#45;&gt;Node4 -->
<g id="edge8" class="edge"><title>Node5&#45;&gt;Node4</title>
<path fill="none" stroke="midnightblue" d="M98,-230.516C98,-220.562 98,-209.05 98,-201.028"/>
<polygon fill="midnightblue" stroke="midnightblue" points="94.5001,-230.822 98,-240.822 101.5,-230.822 94.5001,-230.822"/>
</g>
<!-- Node6 -->
<g id="node10" class="node"><title>Node6</title>
<a xlink:href="class_kitware_1_1_v_t_k_1_1vtk_algorithm.html" target="_top" xlink:title="vtkAlgorithm &#45; Superclass for all sources, filters, and sinks in VTK.">
<polygon fill="none" stroke="black" points="59.5,-301 59.5,-321 136.5,-321 136.5,-301 59.5,-301"/>
<text text-anchor="middle" x="98" y="-308" font-family="FreeSans" font-size="10.00">vtkAlgorithm</text>
</a>
</g>
<!-- Node6&#45;&gt;Node5 -->
<g id="edge10" class="edge"><title>Node6&#45;&gt;Node5</title>
<path fill="none" stroke="midnightblue" d="M98,-290.516C98,-280.562 98,-269.05 98,-261.028"/>
<polygon fill="midnightblue" stroke="midnightblue" points="94.5001,-290.822 98,-300.822 101.5,-290.822 94.5001,-290.822"/>
</g>
<!-- Node7 -->
<g id="node12" class="node"><title>Node7</title>
<a xlink:href="class_kitware_1_1_v_t_k_1_1vtk_object.html" target="_top" xlink:title="vtkObject &#45; abstract base class for most VTK objects">
<polygon fill="none" stroke="black" points="67,-361 67,-381 129,-381 129,-361 67,-361"/>
<text text-anchor="middle" x="98" y="-368" font-family="FreeSans" font-size="10.00">vtkObject</text>
</a>
</g>
<!-- Node7&#45;&gt;Node6 -->
<g id="edge12" class="edge"><title>Node7&#45;&gt;Node6</title>
<path fill="none" stroke="midnightblue" d="M98,-350.516C98,-340.562 98,-329.05 98,-321.028"/>
<polygon fill="midnightblue" stroke="midnightblue" points="94.5001,-350.822 98,-360.822 101.5,-350.822 94.5001,-350.822"/>
</g>
<!-- Node8 -->
<g id="node14" class="node"><title>Node8</title>
<a xlink:href="class_kitware_1_1_v_t_k_1_1vtk_object_base.html" target="_top" xlink:title="vtkObjectBase &#45; abstract base class for most VTK objects">
<polygon fill="none" stroke="black" points="118,-801 118,-821 204,-821 204,-801 118,-801"/>
<text text-anchor="middle" x="161" y="-808" font-family="FreeSans" font-size="10.00">vtkObjectBase</text>
</a>
</g>
<!-- Node8&#45;&gt;Node7 -->
<g id="edge14" class="edge"><title>Node8&#45;&gt;Node7</title>
<path fill="none" stroke="midnightblue" d="M132.423,-795.886C118.687,-787.44 102.884,-775.826 92,-762 80.1564,-746.955 79.6209,-740.802 76,-722 50.4248,-589.199 85.5766,-423.437 95.5155,-381.17"/>
<polygon fill="midnightblue" stroke="midnightblue" points="130.683,-798.923 141.079,-800.97 134.229,-792.887 130.683,-798.923"/>
</g>
<!-- Node11 -->
<g id="node21" class="node"><title>Node11</title>
<a xlink:href="class_kitware_1_1_v_t_k_1_1vtk_object.html" target="_top" xlink:title="vtkObject &#45; abstract base class for most VTK objects">
<polygon fill="none" stroke="black" points="101,-741 101,-761 221,-761 221,-741 101,-741"/>
<text text-anchor="middle" x="161" y="-748" font-family="FreeSans" font-size="10.00">Kitware.VTK.vtkObject</text>
</a>
</g>
<!-- Node8&#45;&gt;Node11 -->
<g id="edge24" class="edge"><title>Node8&#45;&gt;Node11</title>
<path fill="none" stroke="midnightblue" d="M161,-790.516C161,-780.562 161,-769.05 161,-761.028"/>
<polygon fill="midnightblue" stroke="midnightblue" points="157.5,-790.822 161,-800.822 164.5,-790.822 157.5,-790.822"/>
</g>
<!-- Node9 -->
<g id="node16" class="node"><title>Node9</title>
<a xlink:href="class_kitware_1_1_v_t_k_1_1_wrapped_object.html" target="_top" xlink:title="Base class for all the mummy wrapped classes in Kitware.VTK.">
<polygon fill="none" stroke="black" points="299.5,-861 299.5,-881 388.5,-881 388.5,-861 299.5,-861"/>
<text text-anchor="middle" x="344" y="-868" font-family="FreeSans" font-size="10.00">WrappedObject</text>
</a>
</g>
<!-- Node9&#45;&gt;Node8 -->
<g id="edge16" class="edge"><title>Node9&#45;&gt;Node8</title>
<path fill="none" stroke="midnightblue" d="M303.804,-857.821C270.042,-846.752 222.512,-831.168 191.73,-821.075"/>
<polygon fill="midnightblue" stroke="midnightblue" points="302.777,-861.168 313.37,-860.957 304.958,-854.516 302.777,-861.168"/>
</g>
<!-- Node10 -->
<g id="node18" class="node"><title>Node10</title>
<a xlink:href="class_kitware_1_1_v_t_k_1_1vtk_object_event_relay.html" target="_top" xlink:title="Implement a relay handler for VTK events. This is a class that receives events directly from the VTK ...">
<polygon fill="none" stroke="black" points="90,-551 90,-571 262,-571 262,-551 90,-551"/>
<text text-anchor="middle" x="176" y="-558" font-family="FreeSans" font-size="10.00">Kitware.VTK.vtkObjectEventRelay</text>
</a>
</g>
<!-- Node9&#45;&gt;Node10 -->
<g id="edge20" class="edge"><title>Node9&#45;&gt;Node10</title>
<path fill="none" stroke="midnightblue" d="M356.888,-852.325C389.276,-802.899 466.803,-667.191 399,-590 389.773,-579.495 321.047,-571.666 262.298,-566.808"/>
<polygon fill="midnightblue" stroke="midnightblue" points="353.891,-850.509 351.239,-860.767 359.709,-854.402 353.891,-850.509"/>
</g>
<!-- Node10&#45;&gt;Node7 -->
<g id="edge18" class="edge"><title>Node10&#45;&gt;Node7</title>
<path fill="none" stroke="#9a32cd" stroke-dasharray="5,2" d="M167.921,-541.321C151.489,-501.293 114.674,-411.616 102.214,-381.266"/>
<polygon fill="#9a32cd" stroke="#9a32cd" points="164.771,-542.863 171.806,-550.785 171.246,-540.205 164.771,-542.863"/>
<text text-anchor="middle" x="275.5" y="-523" font-family="FreeSans" font-size="10.00"> LeftButtonReleaseEvtRelay</text>
<text text-anchor="middle" x="275.5" y="-511" font-family="FreeSans" font-size="10.00">KeyPressEvtRelay</text>
<text text-anchor="middle" x="275.5" y="-499" font-family="FreeSans" font-size="10.00">DomainModifiedEvtRelay</text>
<text text-anchor="middle" x="275.5" y="-487" font-family="FreeSans" font-size="10.00">VolumeMapperComputeGradientsStartEvtRelay</text>
<text text-anchor="middle" x="275.5" y="-475" font-family="FreeSans" font-size="10.00">ErrorEvtRelay</text>
<text text-anchor="middle" x="275.5" y="-463" font-family="FreeSans" font-size="10.00">VolumeMapperRenderStartEvtRelay</text>
<text text-anchor="middle" x="275.5" y="-451" font-family="FreeSans" font-size="10.00">StartEvtRelay</text>
<text text-anchor="middle" x="275.5" y="-439" font-family="FreeSans" font-size="10.00">ResetCameraEvtRelay</text>
<text text-anchor="middle" x="275.5" y="-427" font-family="FreeSans" font-size="10.00">EnableEvtRelay</text>
<text text-anchor="middle" x="275.5" y="-415" font-family="FreeSans" font-size="10.00">DeleteEvtRelay</text>
<text text-anchor="middle" x="275.5" y="-403" font-family="FreeSans" font-size="10.00">...</text>
</g>
<!-- Node10&#45;&gt;Node11 -->
<g id="edge26" class="edge"><title>Node10&#45;&gt;Node11</title>
<path fill="none" stroke="#9a32cd" stroke-dasharray="5,2" d="M173.028,-581.231C172.649,-584.169 172.293,-587.159 172,-590 166.144,-646.853 162.636,-715.333 161.452,-740.807"/>
<polygon fill="#9a32cd" stroke="#9a32cd" points="176.515,-581.565 174.421,-571.179 169.582,-580.604 176.515,-581.565"/>
<text text-anchor="middle" x="285.5" y="-713" font-family="FreeSans" font-size="10.00"> LeftButtonReleaseEvtRelay</text>
<text text-anchor="middle" x="285.5" y="-701" font-family="FreeSans" font-size="10.00">KeyPressEvtRelay</text>
<text text-anchor="middle" x="285.5" y="-689" font-family="FreeSans" font-size="10.00">DomainModifiedEvtRelay</text>
<text text-anchor="middle" x="285.5" y="-677" font-family="FreeSans" font-size="10.00">VolumeMapperComputeGradientsStartEvtRelay</text>
<text text-anchor="middle" x="285.5" y="-665" font-family="FreeSans" font-size="10.00">ErrorEvtRelay</text>
<text text-anchor="middle" x="285.5" y="-653" font-family="FreeSans" font-size="10.00">VolumeMapperRenderStartEvtRelay</text>
<text text-anchor="middle" x="285.5" y="-641" font-family="FreeSans" font-size="10.00">StartEvtRelay</text>
<text text-anchor="middle" x="285.5" y="-629" font-family="FreeSans" font-size="10.00">ResetCameraEvtRelay</text>
<text text-anchor="middle" x="285.5" y="-617" font-family="FreeSans" font-size="10.00">EnableEvtRelay</text>
<text text-anchor="middle" x="285.5" y="-605" font-family="FreeSans" font-size="10.00">DeleteEvtRelay</text>
<text text-anchor="middle" x="285.5" y="-593" font-family="FreeSans" font-size="10.00">...</text>
</g>
<!-- Node11&#45;&gt;Node10 -->
<g id="edge22" class="edge"><title>Node11&#45;&gt;Node10</title>
<path fill="none" stroke="#9a32cd" stroke-dasharray="5,2" d="M114.979,-735.818C109.439,-732.138 104.51,-727.596 101,-722 69.8229,-672.303 67.8299,-638.389 101,-590 105.736,-583.091 122.511,-576.287 138.999,-571.008"/>
<polygon fill="#9a32cd" stroke="#9a32cd" points="113.639,-739.079 124.072,-740.919 117.064,-732.974 113.639,-739.079"/>
<text text-anchor="middle" x="125" y="-659" font-family="FreeSans" font-size="10.00"> Sender</text>
<text text-anchor="middle" x="125" y="-647" font-family="FreeSans" font-size="10.00">EventImpl</text>
</g>
</g>
</svg>
