<?xml version="1.0" encoding="UTF-8" standalone="no"?>
<!DOCTYPE svg PUBLIC "-//W3C//DTD SVG 1.1//EN"
 "http://www.w3.org/Graphics/SVG/1.1/DTD/svg11.dtd">
<!-- Generated by graphviz version 2.26.3 (20100126.1600)
 -->
<!-- Title: G Pages: 1 -->
<svg width="1272pt" height="180pt"
 viewBox="0.00 0.00 1272.00 180.00" xmlns="http://www.w3.org/2000/svg" xmlns:xlink="http://www.w3.org/1999/xlink">
<g id="graph1" class="graph" transform="scale(1 1) rotate(0) translate(4 176)">
<title>G</title>
<!-- Node1 -->
<g id="node1" class="node"><title>Node1</title>
<polygon fill="#bfbfbf" stroke="black" points="574.5,-95 574.5,-115 739.5,-115 739.5,-95 574.5,-95"/>
<text text-anchor="middle" x="657" y="-102" font-family="FreeSans" font-size="10.00">Kitware.VTK.vtkXMLPDataWriter</text>
</g>
<!-- Node7 -->
<g id="node13" class="node"><title>Node7</title>
<a xlink:href="class_kitware_1_1_v_t_k_1_1vtk_x_m_l_p_data_set_writer.html" target="_top" xlink:title="vtkXMLPDataSetWriter &#45; Write any type of PVTK XML file.">
<polygon fill="none" stroke="black" points="799,-133 799,-153 981,-153 981,-133 799,-133"/>
<text text-anchor="middle" x="890" y="-140" font-family="FreeSans" font-size="10.00">Kitware.VTK.vtkXMLPDataSetWriter</text>
</a>
</g>
<!-- Node1&#45;&gt;Node7 -->
<g id="edge12" class="edge"><title>Node1&#45;&gt;Node7</title>
<path fill="none" stroke="midnightblue" d="M728.693,-116.692C760.639,-121.902 797.887,-127.977 828.537,-132.976"/>
<polygon fill="midnightblue" stroke="midnightblue" points="728.956,-113.189 718.523,-115.034 727.829,-120.098 728.956,-113.189"/>
</g>
<!-- Node8 -->
<g id="node15" class="node"><title>Node8</title>
<a xlink:href="class_kitware_1_1_v_t_k_1_1vtk_x_m_l_p_structured_data_writer.html" target="_top" xlink:title="vtkXMLPStructuredDataWriter &#45; Superclass for PVTK XML structured data writers.">
<polygon fill="none" stroke="black" points="782,-95 782,-115 998,-115 998,-95 782,-95"/>
<text text-anchor="middle" x="890" y="-102" font-family="FreeSans" font-size="10.00">Kitware.VTK.vtkXMLPStructuredDataWriter</text>
</a>
</g>
<!-- Node1&#45;&gt;Node8 -->
<g id="edge14" class="edge"><title>Node1&#45;&gt;Node8</title>
<path fill="none" stroke="midnightblue" d="M750.118,-105C760.533,-105 771.209,-105 781.792,-105"/>
<polygon fill="midnightblue" stroke="midnightblue" points="749.803,-101.5 739.803,-105 749.803,-108.5 749.803,-101.5"/>
</g>
<!-- Node12 -->
<g id="node23" class="node"><title>Node12</title>
<a xlink:href="class_kitware_1_1_v_t_k_1_1vtk_x_m_l_p_unstructured_data_writer.html" target="_top" xlink:title="vtkXMLPUnstructuredDataWriter &#45; Superclass for PVTK XML unstructured data writers.">
<polygon fill="none" stroke="black" points="776,-38 776,-58 1004,-58 1004,-38 776,-38"/>
<text text-anchor="middle" x="890" y="-45" font-family="FreeSans" font-size="10.00">Kitware.VTK.vtkXMLPUnstructuredDataWriter</text>
</a>
</g>
<!-- Node1&#45;&gt;Node12 -->
<g id="edge22" class="edge"><title>Node1&#45;&gt;Node12</title>
<path fill="none" stroke="midnightblue" d="M707.941,-92.5381C750.227,-82.1933 809.599,-67.6689 848.9,-58.0544"/>
<polygon fill="midnightblue" stroke="midnightblue" points="707.001,-89.1647 698.119,-94.9408 708.665,-95.9641 707.001,-89.1647"/>
</g>
<!-- Node2 -->
<g id="node2" class="node"><title>Node2</title>
<a xlink:href="class_kitware_1_1_v_t_k_1_1vtk_x_m_l_writer.html" target="_top" xlink:title="vtkXMLWriter &#45; Superclass for VTK&#39;s XML file writers.">
<polygon fill="none" stroke="black" points="460.5,-95 460.5,-115 537.5,-115 537.5,-95 460.5,-95"/>
<text text-anchor="middle" x="499" y="-102" font-family="FreeSans" font-size="10.00">vtkXMLWriter</text>
</a>
</g>
<!-- Node2&#45;&gt;Node1 -->
<g id="edge2" class="edge"><title>Node2&#45;&gt;Node1</title>
<path fill="none" stroke="midnightblue" d="M547.736,-105C556.256,-105 565.329,-105 574.465,-105"/>
<polygon fill="midnightblue" stroke="midnightblue" points="547.651,-101.5 537.651,-105 547.651,-108.5 547.651,-101.5"/>
</g>
<!-- Node3 -->
<g id="node4" class="node"><title>Node3</title>
<a xlink:href="class_kitware_1_1_v_t_k_1_1vtk_algorithm.html" target="_top" xlink:title="vtkAlgorithm &#45; Superclass for all sources, filters, and sinks in VTK.">
<polygon fill="none" stroke="black" points="346.5,-95 346.5,-115 423.5,-115 423.5,-95 346.5,-95"/>
<text text-anchor="middle" x="385" y="-102" font-family="FreeSans" font-size="10.00">vtkAlgorithm</text>
</a>
</g>
<!-- Node3&#45;&gt;Node2 -->
<g id="edge4" class="edge"><title>Node3&#45;&gt;Node2</title>
<path fill="none" stroke="midnightblue" d="M433.854,-105C442.744,-105 451.904,-105 460.445,-105"/>
<polygon fill="midnightblue" stroke="midnightblue" points="433.595,-101.5 423.595,-105 433.595,-108.5 433.595,-101.5"/>
</g>
<!-- Node4 -->
<g id="node6" class="node"><title>Node4</title>
<a xlink:href="class_kitware_1_1_v_t_k_1_1vtk_object.html" target="_top" xlink:title="vtkObject &#45; abstract base class for most VTK objects">
<polygon fill="none" stroke="black" points="248,-95 248,-115 310,-115 310,-95 248,-95"/>
<text text-anchor="middle" x="279" y="-102" font-family="FreeSans" font-size="10.00">vtkObject</text>
</a>
</g>
<!-- Node4&#45;&gt;Node3 -->
<g id="edge6" class="edge"><title>Node4&#45;&gt;Node3</title>
<path fill="none" stroke="midnightblue" d="M320.421,-105C329.001,-105 338.007,-105 346.479,-105"/>
<polygon fill="midnightblue" stroke="midnightblue" points="320.23,-101.5 310.23,-105 320.23,-108.5 320.23,-101.5"/>
</g>
<!-- Node5 -->
<g id="node8" class="node"><title>Node5</title>
<a xlink:href="class_kitware_1_1_v_t_k_1_1vtk_object_base.html" target="_top" xlink:title="vtkObjectBase &#45; abstract base class for most VTK objects">
<polygon fill="none" stroke="black" points="126,-95 126,-115 212,-115 212,-95 126,-95"/>
<text text-anchor="middle" x="169" y="-102" font-family="FreeSans" font-size="10.00">vtkObjectBase</text>
</a>
</g>
<!-- Node5&#45;&gt;Node4 -->
<g id="edge8" class="edge"><title>Node5&#45;&gt;Node4</title>
<path fill="none" stroke="midnightblue" d="M222.346,-105C231.091,-105 239.892,-105 247.863,-105"/>
<polygon fill="midnightblue" stroke="midnightblue" points="222.159,-101.5 212.159,-105 222.159,-108.5 222.159,-101.5"/>
</g>
<!-- Node6 -->
<g id="node10" class="node"><title>Node6</title>
<a xlink:href="class_kitware_1_1_v_t_k_1_1_wrapped_object.html" target="_top" xlink:title="Base class for all the mummy wrapped classes in Kitware.VTK.">
<polygon fill="none" stroke="black" points="0.5,-95 0.5,-115 89.5,-115 89.5,-95 0.5,-95"/>
<text text-anchor="middle" x="45" y="-102" font-family="FreeSans" font-size="10.00">WrappedObject</text>
</a>
</g>
<!-- Node6&#45;&gt;Node5 -->
<g id="edge10" class="edge"><title>Node6&#45;&gt;Node5</title>
<path fill="none" stroke="midnightblue" d="M99.8895,-105C108.623,-105 117.548,-105 125.957,-105"/>
<polygon fill="midnightblue" stroke="midnightblue" points="99.7669,-101.5 89.7668,-105 99.7668,-108.5 99.7669,-101.5"/>
</g>
<!-- Node9 -->
<g id="node17" class="node"><title>Node9</title>
<a xlink:href="class_kitware_1_1_v_t_k_1_1vtk_x_m_l_p_image_data_writer.html" target="_top" xlink:title="vtkXMLPImageDataWriter &#45; Write PVTK XML ImageData files.">
<polygon fill="none" stroke="black" points="1054.5,-152 1054.5,-172 1249.5,-172 1249.5,-152 1054.5,-152"/>
<text text-anchor="middle" x="1152" y="-159" font-family="FreeSans" font-size="10.00">Kitware.VTK.vtkXMLPImageDataWriter</text>
</a>
</g>
<!-- Node8&#45;&gt;Node9 -->
<g id="edge16" class="edge"><title>Node8&#45;&gt;Node9</title>
<path fill="none" stroke="midnightblue" d="M980.176,-117.249C988.317,-119.188 996.363,-121.424 1004,-124 1021.14,-129.783 1022.87,-137.192 1040,-143 1050.65,-146.609 1062.1,-149.553 1073.48,-151.949"/>
<polygon fill="midnightblue" stroke="midnightblue" points="980.744,-113.79 970.222,-115.029 979.22,-120.622 980.744,-113.79"/>
</g>
<!-- Node10 -->
<g id="node19" class="node"><title>Node10</title>
<a xlink:href="class_kitware_1_1_v_t_k_1_1vtk_x_m_l_p_rectilinear_grid_writer.html" target="_top" xlink:title="vtkXMLPRectilinearGridWriter &#45; Write PVTK XML RectilinearGrid files.">
<polygon fill="none" stroke="black" points="1047,-114 1047,-134 1257,-134 1257,-114 1047,-114"/>
<text text-anchor="middle" x="1152" y="-121" font-family="FreeSans" font-size="10.00">Kitware.VTK.vtkXMLPRectilinearGridWriter</text>
</a>
</g>
<!-- Node8&#45;&gt;Node10 -->
<g id="edge18" class="edge"><title>Node8&#45;&gt;Node10</title>
<path fill="none" stroke="midnightblue" d="M1008.3,-113.579C1021.1,-114.507 1034.07,-115.448 1046.7,-116.364"/>
<polygon fill="midnightblue" stroke="midnightblue" points="1008.31,-110.07 998.078,-112.838 1007.8,-117.052 1008.31,-110.07"/>
</g>
<!-- Node11 -->
<g id="node21" class="node"><title>Node11</title>
<a xlink:href="class_kitware_1_1_v_t_k_1_1vtk_x_m_l_p_structured_grid_writer.html" target="_top" xlink:title="vtkXMLPStructuredGridWriter &#45; Write PVTK XML StructuredGrid files.">
<polygon fill="none" stroke="black" points="1046,-76 1046,-96 1258,-96 1258,-76 1046,-76"/>
<text text-anchor="middle" x="1152" y="-83" font-family="FreeSans" font-size="10.00">Kitware.VTK.vtkXMLPStructuredGridWriter</text>
</a>
</g>
<!-- Node8&#45;&gt;Node11 -->
<g id="edge20" class="edge"><title>Node8&#45;&gt;Node11</title>
<path fill="none" stroke="midnightblue" d="M1008.12,-96.434C1020.7,-95.522 1033.43,-94.5984 1045.86,-93.6972"/>
<polygon fill="midnightblue" stroke="midnightblue" points="1007.8,-92.9481 998.078,-97.1623 1008.31,-99.9297 1007.8,-92.9481"/>
</g>
<!-- Node13 -->
<g id="node25" class="node"><title>Node13</title>
<a xlink:href="class_kitware_1_1_v_t_k_1_1vtk_x_m_l_p_poly_data_writer.html" target="_top" xlink:title="vtkXMLPPolyDataWriter &#45; Write PVTK XML PolyData files.">
<polygon fill="none" stroke="black" points="1059.5,-38 1059.5,-58 1244.5,-58 1244.5,-38 1059.5,-38"/>
<text text-anchor="middle" x="1152" y="-45" font-family="FreeSans" font-size="10.00">Kitware.VTK.vtkXMLPPolyDataWriter</text>
</a>
</g>
<!-- Node12&#45;&gt;Node13 -->
<g id="edge24" class="edge"><title>Node12&#45;&gt;Node13</title>
<path fill="none" stroke="midnightblue" d="M1014.59,-48C1029.7,-48 1044.92,-48 1059.45,-48"/>
<polygon fill="midnightblue" stroke="midnightblue" points="1014.15,-44.5001 1004.15,-48 1014.15,-51.5001 1014.15,-44.5001"/>
</g>
<!-- Node14 -->
<g id="node27" class="node"><title>Node14</title>
<a xlink:href="class_kitware_1_1_v_t_k_1_1vtk_x_m_l_p_unstructured_grid_writer.html" target="_top" xlink:title="vtkXMLPUnstructuredGridWriter &#45; Write PVTK XML UnstructuredGrid files.">
<polygon fill="none" stroke="black" points="1040,-0 1040,-20 1264,-20 1264,-0 1040,-0"/>
<text text-anchor="middle" x="1152" y="-7" font-family="FreeSans" font-size="10.00">Kitware.VTK.vtkXMLPUnstructuredGridWriter</text>
</a>
</g>
<!-- Node12&#45;&gt;Node14 -->
<g id="edge26" class="edge"><title>Node12&#45;&gt;Node14</title>
<path fill="none" stroke="midnightblue" d="M969.22,-36.5101C1005.45,-31.2555 1047.97,-25.0876 1082.89,-20.024"/>
<polygon fill="midnightblue" stroke="midnightblue" points="968.574,-33.067 959.18,-37.9662 969.579,-39.9946 968.574,-33.067"/>
</g>
</g>
</svg>
