<?xml version="1.0" encoding="UTF-8" standalone="no"?>
<!DOCTYPE svg PUBLIC "-//W3C//DTD SVG 1.1//EN"
 "http://www.w3.org/Graphics/SVG/1.1/DTD/svg11.dtd">
<!-- Generated by graphviz version 2.26.3 (20100126.1600)
 -->
<!-- Title: G Pages: 1 -->
<svg width="506pt" height="650pt"
 viewBox="0.00 0.00 506.46 650.00" xmlns="http://www.w3.org/2000/svg" xmlns:xlink="http://www.w3.org/1999/xlink">
<g id="graph1" class="graph" transform="scale(1 1) rotate(0) translate(4 646)">
<title>G</title>
<!-- Node1 -->
<g id="node1" class="node"><title>Node1</title>
<polygon fill="#bfbfbf" stroke="black" points="-0.5,-1 -0.5,-21 340.5,-21 340.5,-1 -0.5,-1"/>
<text text-anchor="middle" x="170" y="-8" font-family="FreeSans" font-size="10.00">Kitware.VTK.vtkFixedPointVolumeRayCastCompositeGOShadeHelper</text>
</g>
<!-- Node2 -->
<g id="node2" class="node"><title>Node2</title>
<a xlink:href="class_kitware_1_1_v_t_k_1_1vtk_fixed_point_volume_ray_cast_helper.html" target="_top" xlink:title="vtkFixedPointVolumeRayCastHelper &#45; An abstract helper that generates images for the volume ray cast m...">
<polygon fill="none" stroke="black" points="77.5,-61 77.5,-81 262.5,-81 262.5,-61 77.5,-61"/>
<text text-anchor="middle" x="170" y="-68" font-family="FreeSans" font-size="10.00">vtkFixedPointVolumeRayCastHelper</text>
</a>
</g>
<!-- Node2&#45;&gt;Node1 -->
<g id="edge2" class="edge"><title>Node2&#45;&gt;Node1</title>
<path fill="none" stroke="midnightblue" d="M170,-50.5155C170,-40.562 170,-29.0495 170,-21.0279"/>
<polygon fill="midnightblue" stroke="midnightblue" points="166.5,-50.8218 170,-60.8218 173.5,-50.8219 166.5,-50.8218"/>
</g>
<!-- Node3 -->
<g id="node4" class="node"><title>Node3</title>
<a xlink:href="class_kitware_1_1_v_t_k_1_1vtk_object.html" target="_top" xlink:title="vtkObject &#45; abstract base class for most VTK objects">
<polygon fill="none" stroke="black" points="139,-121 139,-141 201,-141 201,-121 139,-121"/>
<text text-anchor="middle" x="170" y="-128" font-family="FreeSans" font-size="10.00">vtkObject</text>
</a>
</g>
<!-- Node3&#45;&gt;Node2 -->
<g id="edge4" class="edge"><title>Node3&#45;&gt;Node2</title>
<path fill="none" stroke="midnightblue" d="M170,-110.516C170,-100.562 170,-89.0495 170,-81.0279"/>
<polygon fill="midnightblue" stroke="midnightblue" points="166.5,-110.822 170,-120.822 173.5,-110.822 166.5,-110.822"/>
</g>
<!-- Node4 -->
<g id="node6" class="node"><title>Node4</title>
<a xlink:href="class_kitware_1_1_v_t_k_1_1vtk_object_base.html" target="_top" xlink:title="vtkObjectBase &#45; abstract base class for most VTK objects">
<polygon fill="none" stroke="black" points="190,-561 190,-581 276,-581 276,-561 190,-561"/>
<text text-anchor="middle" x="233" y="-568" font-family="FreeSans" font-size="10.00">vtkObjectBase</text>
</a>
</g>
<!-- Node4&#45;&gt;Node3 -->
<g id="edge6" class="edge"><title>Node4&#45;&gt;Node3</title>
<path fill="none" stroke="midnightblue" d="M204.423,-555.886C190.687,-547.44 174.884,-535.826 164,-522 152.156,-506.955 151.621,-500.802 148,-482 122.425,-349.199 157.577,-183.437 167.516,-141.17"/>
<polygon fill="midnightblue" stroke="midnightblue" points="202.683,-558.923 213.079,-560.97 206.229,-552.887 202.683,-558.923"/>
</g>
<!-- Node7 -->
<g id="node13" class="node"><title>Node7</title>
<a xlink:href="class_kitware_1_1_v_t_k_1_1vtk_object.html" target="_top" xlink:title="vtkObject &#45; abstract base class for most VTK objects">
<polygon fill="none" stroke="black" points="173,-501 173,-521 293,-521 293,-501 173,-501"/>
<text text-anchor="middle" x="233" y="-508" font-family="FreeSans" font-size="10.00">Kitware.VTK.vtkObject</text>
</a>
</g>
<!-- Node4&#45;&gt;Node7 -->
<g id="edge16" class="edge"><title>Node4&#45;&gt;Node7</title>
<path fill="none" stroke="midnightblue" d="M233,-550.516C233,-540.562 233,-529.05 233,-521.028"/>
<polygon fill="midnightblue" stroke="midnightblue" points="229.5,-550.822 233,-560.822 236.5,-550.822 229.5,-550.822"/>
</g>
<!-- Node5 -->
<g id="node8" class="node"><title>Node5</title>
<a xlink:href="class_kitware_1_1_v_t_k_1_1_wrapped_object.html" target="_top" xlink:title="Base class for all the mummy wrapped classes in Kitware.VTK.">
<polygon fill="none" stroke="black" points="371.5,-621 371.5,-641 460.5,-641 460.5,-621 371.5,-621"/>
<text text-anchor="middle" x="416" y="-628" font-family="FreeSans" font-size="10.00">WrappedObject</text>
</a>
</g>
<!-- Node5&#45;&gt;Node4 -->
<g id="edge8" class="edge"><title>Node5&#45;&gt;Node4</title>
<path fill="none" stroke="midnightblue" d="M375.804,-617.821C342.042,-606.752 294.512,-591.168 263.73,-581.075"/>
<polygon fill="midnightblue" stroke="midnightblue" points="374.777,-621.168 385.37,-620.957 376.958,-614.516 374.777,-621.168"/>
</g>
<!-- Node6 -->
<g id="node10" class="node"><title>Node6</title>
<a xlink:href="class_kitware_1_1_v_t_k_1_1vtk_object_event_relay.html" target="_top" xlink:title="Implement a relay handler for VTK events. This is a class that receives events directly from the VTK ...">
<polygon fill="none" stroke="black" points="162,-311 162,-331 334,-331 334,-311 162,-311"/>
<text text-anchor="middle" x="248" y="-318" font-family="FreeSans" font-size="10.00">Kitware.VTK.vtkObjectEventRelay</text>
</a>
</g>
<!-- Node5&#45;&gt;Node6 -->
<g id="edge12" class="edge"><title>Node5&#45;&gt;Node6</title>
<path fill="none" stroke="midnightblue" d="M428.888,-612.325C461.276,-562.899 538.803,-427.191 471,-350 461.773,-339.495 393.047,-331.666 334.298,-326.808"/>
<polygon fill="midnightblue" stroke="midnightblue" points="425.891,-610.509 423.239,-620.767 431.709,-614.402 425.891,-610.509"/>
</g>
<!-- Node6&#45;&gt;Node3 -->
<g id="edge10" class="edge"><title>Node6&#45;&gt;Node3</title>
<path fill="none" stroke="#9a32cd" stroke-dasharray="5,2" d="M239.921,-301.321C223.489,-261.293 186.674,-171.616 174.214,-141.266"/>
<polygon fill="#9a32cd" stroke="#9a32cd" points="236.771,-302.863 243.806,-310.785 243.246,-300.205 236.771,-302.863"/>
<text text-anchor="middle" x="347.5" y="-283" font-family="FreeSans" font-size="10.00"> LeftButtonReleaseEvtRelay</text>
<text text-anchor="middle" x="347.5" y="-271" font-family="FreeSans" font-size="10.00">KeyPressEvtRelay</text>
<text text-anchor="middle" x="347.5" y="-259" font-family="FreeSans" font-size="10.00">DomainModifiedEvtRelay</text>
<text text-anchor="middle" x="347.5" y="-247" font-family="FreeSans" font-size="10.00">VolumeMapperComputeGradientsStartEvtRelay</text>
<text text-anchor="middle" x="347.5" y="-235" font-family="FreeSans" font-size="10.00">ErrorEvtRelay</text>
<text text-anchor="middle" x="347.5" y="-223" font-family="FreeSans" font-size="10.00">VolumeMapperRenderStartEvtRelay</text>
<text text-anchor="middle" x="347.5" y="-211" font-family="FreeSans" font-size="10.00">StartEvtRelay</text>
<text text-anchor="middle" x="347.5" y="-199" font-family="FreeSans" font-size="10.00">ResetCameraEvtRelay</text>
<text text-anchor="middle" x="347.5" y="-187" font-family="FreeSans" font-size="10.00">EnableEvtRelay</text>
<text text-anchor="middle" x="347.5" y="-175" font-family="FreeSans" font-size="10.00">DeleteEvtRelay</text>
<text text-anchor="middle" x="347.5" y="-163" font-family="FreeSans" font-size="10.00">...</text>
</g>
<!-- Node6&#45;&gt;Node7 -->
<g id="edge18" class="edge"><title>Node6&#45;&gt;Node7</title>
<path fill="none" stroke="#9a32cd" stroke-dasharray="5,2" d="M245.028,-341.231C244.649,-344.169 244.293,-347.159 244,-350 238.144,-406.853 234.636,-475.333 233.452,-500.807"/>
<polygon fill="#9a32cd" stroke="#9a32cd" points="248.515,-341.565 246.421,-331.179 241.582,-340.604 248.515,-341.565"/>
<text text-anchor="middle" x="357.5" y="-473" font-family="FreeSans" font-size="10.00"> LeftButtonReleaseEvtRelay</text>
<text text-anchor="middle" x="357.5" y="-461" font-family="FreeSans" font-size="10.00">KeyPressEvtRelay</text>
<text text-anchor="middle" x="357.5" y="-449" font-family="FreeSans" font-size="10.00">DomainModifiedEvtRelay</text>
<text text-anchor="middle" x="357.5" y="-437" font-family="FreeSans" font-size="10.00">VolumeMapperComputeGradientsStartEvtRelay</text>
<text text-anchor="middle" x="357.5" y="-425" font-family="FreeSans" font-size="10.00">ErrorEvtRelay</text>
<text text-anchor="middle" x="357.5" y="-413" font-family="FreeSans" font-size="10.00">VolumeMapperRenderStartEvtRelay</text>
<text text-anchor="middle" x="357.5" y="-401" font-family="FreeSans" font-size="10.00">StartEvtRelay</text>
<text text-anchor="middle" x="357.5" y="-389" font-family="FreeSans" font-size="10.00">ResetCameraEvtRelay</text>
<text text-anchor="middle" x="357.5" y="-377" font-family="FreeSans" font-size="10.00">EnableEvtRelay</text>
<text text-anchor="middle" x="357.5" y="-365" font-family="FreeSans" font-size="10.00">DeleteEvtRelay</text>
<text text-anchor="middle" x="357.5" y="-353" font-family="FreeSans" font-size="10.00">...</text>
</g>
<!-- Node7&#45;&gt;Node6 -->
<g id="edge14" class="edge"><title>Node7&#45;&gt;Node6</title>
<path fill="none" stroke="#9a32cd" stroke-dasharray="5,2" d="M186.979,-495.818C181.439,-492.138 176.51,-487.596 173,-482 141.823,-432.303 139.83,-398.389 173,-350 177.736,-343.091 194.511,-336.287 210.999,-331.008"/>
<polygon fill="#9a32cd" stroke="#9a32cd" points="185.639,-499.079 196.072,-500.919 189.064,-492.974 185.639,-499.079"/>
<text text-anchor="middle" x="197" y="-419" font-family="FreeSans" font-size="10.00"> Sender</text>
<text text-anchor="middle" x="197" y="-407" font-family="FreeSans" font-size="10.00">EventImpl</text>
</g>
</g>
</svg>
