<?xml version="1.0" encoding="UTF-8" standalone="no"?>
<!DOCTYPE svg PUBLIC "-//W3C//DTD SVG 1.1//EN"
 "http://www.w3.org/Graphics/SVG/1.1/DTD/svg11.dtd">
<!-- Generated by graphviz version 2.26.3 (20100126.1600)
 -->
<!-- Title: G Pages: 1 -->
<svg width="1258pt" height="104pt"
 viewBox="0.00 0.00 1258.00 104.00" xmlns="http://www.w3.org/2000/svg" xmlns:xlink="http://www.w3.org/1999/xlink">
<g id="graph1" class="graph" transform="scale(1 1) rotate(0) translate(4 100)">
<title>G</title>
<!-- Node1 -->
<g id="node1" class="node"><title>Node1</title>
<polygon fill="#bfbfbf" stroke="black" points="482,-38 482,-58 662,-58 662,-38 482,-38"/>
<text text-anchor="middle" x="572" y="-45" font-family="FreeSans" font-size="10.00">Kitware.VTK.vtkAbstractPropPicker</text>
</g>
<!-- Node6 -->
<g id="node11" class="node"><title>Node6</title>
<a xlink:href="class_kitware_1_1_v_t_k_1_1vtk_area_picker.html" target="_top" xlink:title="vtkAreaPicker &#45; Picks props behind a selection rectangle on a viewport.">
<polygon fill="none" stroke="black" points="698,-76 698,-96 838,-96 838,-76 698,-76"/>
<text text-anchor="middle" x="768" y="-83" font-family="FreeSans" font-size="10.00">Kitware.VTK.vtkAreaPicker</text>
</a>
</g>
<!-- Node1&#45;&gt;Node6 -->
<g id="edge10" class="edge"><title>Node1&#45;&gt;Node6</title>
<path fill="none" stroke="midnightblue" d="M633.708,-59.9639C660.265,-65.1125 690.961,-71.0638 716.297,-75.976"/>
<polygon fill="midnightblue" stroke="midnightblue" points="634.236,-56.5012 623.753,-58.0338 632.904,-63.3732 634.236,-56.5012"/>
</g>
<!-- Node8 -->
<g id="node15" class="node"><title>Node8</title>
<a xlink:href="class_kitware_1_1_v_t_k_1_1vtk_picker.html" target="_top" xlink:title="vtkPicker &#45; superclass for 3D geometric pickers (uses ray cast)">
<polygon fill="none" stroke="black" points="709,-38 709,-58 827,-58 827,-38 709,-38"/>
<text text-anchor="middle" x="768" y="-45" font-family="FreeSans" font-size="10.00">Kitware.VTK.vtkPicker</text>
</a>
</g>
<!-- Node1&#45;&gt;Node8 -->
<g id="edge14" class="edge"><title>Node1&#45;&gt;Node8</title>
<path fill="none" stroke="midnightblue" d="M672.258,-48C684.736,-48 697.165,-48 708.736,-48"/>
<polygon fill="midnightblue" stroke="midnightblue" points="672.255,-44.5001 662.255,-48 672.255,-51.5001 672.255,-44.5001"/>
</g>
<!-- Node12 -->
<g id="node23" class="node"><title>Node12</title>
<a xlink:href="class_kitware_1_1_v_t_k_1_1vtk_prop_picker.html" target="_top" xlink:title="vtkPropPicker &#45; pick an actor/prop using graphics hardware">
<polygon fill="none" stroke="black" points="698,-0 698,-20 838,-20 838,-0 698,-0"/>
<text text-anchor="middle" x="768" y="-7" font-family="FreeSans" font-size="10.00">Kitware.VTK.vtkPropPicker</text>
</a>
</g>
<!-- Node1&#45;&gt;Node12 -->
<g id="edge22" class="edge"><title>Node1&#45;&gt;Node12</title>
<path fill="none" stroke="midnightblue" d="M633.708,-36.0361C660.265,-30.8875 690.961,-24.9362 716.297,-20.024"/>
<polygon fill="midnightblue" stroke="midnightblue" points="632.904,-32.6268 623.753,-37.9662 634.236,-39.4988 632.904,-32.6268"/>
</g>
<!-- Node2 -->
<g id="node2" class="node"><title>Node2</title>
<a xlink:href="class_kitware_1_1_v_t_k_1_1vtk_abstract_picker.html" target="_top" xlink:title="vtkAbstractPicker &#45; define API for picking subclasses">
<polygon fill="none" stroke="black" points="346,-38 346,-58 446,-58 446,-38 346,-38"/>
<text text-anchor="middle" x="396" y="-45" font-family="FreeSans" font-size="10.00">vtkAbstractPicker</text>
</a>
</g>
<!-- Node2&#45;&gt;Node1 -->
<g id="edge2" class="edge"><title>Node2&#45;&gt;Node1</title>
<path fill="none" stroke="midnightblue" d="M456.624,-48C464.837,-48 473.404,-48 481.996,-48"/>
<polygon fill="midnightblue" stroke="midnightblue" points="456.435,-44.5001 446.435,-48 456.435,-51.5001 456.435,-44.5001"/>
</g>
<!-- Node3 -->
<g id="node4" class="node"><title>Node3</title>
<a xlink:href="class_kitware_1_1_v_t_k_1_1vtk_object.html" target="_top" xlink:title="vtkObject &#45; abstract base class for most VTK objects">
<polygon fill="none" stroke="black" points="248,-38 248,-58 310,-58 310,-38 248,-38"/>
<text text-anchor="middle" x="279" y="-45" font-family="FreeSans" font-size="10.00">vtkObject</text>
</a>
</g>
<!-- Node3&#45;&gt;Node2 -->
<g id="edge4" class="edge"><title>Node3&#45;&gt;Node2</title>
<path fill="none" stroke="midnightblue" d="M320.198,-48C328.471,-48 337.252,-48 345.791,-48"/>
<polygon fill="midnightblue" stroke="midnightblue" points="320.047,-44.5001 310.047,-48 320.047,-51.5001 320.047,-44.5001"/>
</g>
<!-- Node4 -->
<g id="node6" class="node"><title>Node4</title>
<a xlink:href="class_kitware_1_1_v_t_k_1_1vtk_object_base.html" target="_top" xlink:title="vtkObjectBase &#45; abstract base class for most VTK objects">
<polygon fill="none" stroke="black" points="126,-38 126,-58 212,-58 212,-38 126,-38"/>
<text text-anchor="middle" x="169" y="-45" font-family="FreeSans" font-size="10.00">vtkObjectBase</text>
</a>
</g>
<!-- Node4&#45;&gt;Node3 -->
<g id="edge6" class="edge"><title>Node4&#45;&gt;Node3</title>
<path fill="none" stroke="midnightblue" d="M222.346,-48C231.091,-48 239.892,-48 247.863,-48"/>
<polygon fill="midnightblue" stroke="midnightblue" points="222.159,-44.5001 212.159,-48 222.159,-51.5001 222.159,-44.5001"/>
</g>
<!-- Node5 -->
<g id="node8" class="node"><title>Node5</title>
<a xlink:href="class_kitware_1_1_v_t_k_1_1_wrapped_object.html" target="_top" xlink:title="Base class for all the mummy wrapped classes in Kitware.VTK.">
<polygon fill="none" stroke="black" points="0.5,-38 0.5,-58 89.5,-58 89.5,-38 0.5,-38"/>
<text text-anchor="middle" x="45" y="-45" font-family="FreeSans" font-size="10.00">WrappedObject</text>
</a>
</g>
<!-- Node5&#45;&gt;Node4 -->
<g id="edge8" class="edge"><title>Node5&#45;&gt;Node4</title>
<path fill="none" stroke="midnightblue" d="M99.8895,-48C108.623,-48 117.548,-48 125.957,-48"/>
<polygon fill="midnightblue" stroke="midnightblue" points="99.7669,-44.5001 89.7668,-48 99.7668,-51.5001 99.7669,-44.5001"/>
</g>
<!-- Node7 -->
<g id="node13" class="node"><title>Node7</title>
<a xlink:href="class_kitware_1_1_v_t_k_1_1vtk_rendered_area_picker.html" target="_top" xlink:title="vtkRenderedAreaPicker &#45; Uses graphics hardware to picks props behind a selection rectangle on a viewp...">
<polygon fill="none" stroke="black" points="874.5,-76 874.5,-96 1059.5,-96 1059.5,-76 874.5,-76"/>
<text text-anchor="middle" x="967" y="-83" font-family="FreeSans" font-size="10.00">Kitware.VTK.vtkRenderedAreaPicker</text>
</a>
</g>
<!-- Node6&#45;&gt;Node7 -->
<g id="edge12" class="edge"><title>Node6&#45;&gt;Node7</title>
<path fill="none" stroke="midnightblue" d="M848.199,-86C856.845,-86 865.692,-86 874.467,-86"/>
<polygon fill="midnightblue" stroke="midnightblue" points="848.16,-82.5001 838.16,-86 848.16,-89.5001 848.16,-82.5001"/>
</g>
<!-- Node9 -->
<g id="node17" class="node"><title>Node9</title>
<a xlink:href="class_kitware_1_1_v_t_k_1_1vtk_cell_picker.html" target="_top" xlink:title="vtkCellPicker &#45; ray&#45;cast cell picker for all kinds of Prop3Ds">
<polygon fill="none" stroke="black" points="899.5,-38 899.5,-58 1034.5,-58 1034.5,-38 899.5,-38"/>
<text text-anchor="middle" x="967" y="-45" font-family="FreeSans" font-size="10.00">Kitware.VTK.vtkCellPicker</text>
</a>
</g>
<!-- Node8&#45;&gt;Node9 -->
<g id="edge16" class="edge"><title>Node8&#45;&gt;Node9</title>
<path fill="none" stroke="midnightblue" d="M837.197,-48C857.328,-48 879.289,-48 899.326,-48"/>
<polygon fill="midnightblue" stroke="midnightblue" points="837.168,-44.5001 827.168,-48 837.168,-51.5001 837.168,-44.5001"/>
</g>
<!-- Node11 -->
<g id="node21" class="node"><title>Node11</title>
<a xlink:href="class_kitware_1_1_v_t_k_1_1vtk_point_picker.html" target="_top" xlink:title="vtkPointPicker &#45; select a point by shooting a ray into a graphics window">
<polygon fill="none" stroke="black" points="896,-0 896,-20 1038,-20 1038,-0 896,-0"/>
<text text-anchor="middle" x="967" y="-7" font-family="FreeSans" font-size="10.00">Kitware.VTK.vtkPointPicker</text>
</a>
</g>
<!-- Node8&#45;&gt;Node11 -->
<g id="edge20" class="edge"><title>Node8&#45;&gt;Node11</title>
<path fill="none" stroke="midnightblue" d="M830.653,-36.0361C857.616,-30.8875 888.782,-24.9362 914.506,-20.024"/>
<polygon fill="midnightblue" stroke="midnightblue" points="829.711,-32.6526 820.545,-37.9662 831.024,-39.5284 829.711,-32.6526"/>
</g>
<!-- Node10 -->
<g id="node19" class="node"><title>Node10</title>
<a xlink:href="class_kitware_1_1_v_t_k_1_1vtk_volume_picker.html" target="_top" xlink:title="vtkVolumePicker &#45; ray&#45;cast picker enhanced for volumes">
<polygon fill="none" stroke="black" points="1096,-38 1096,-58 1250,-58 1250,-38 1096,-38"/>
<text text-anchor="middle" x="1173" y="-45" font-family="FreeSans" font-size="10.00">Kitware.VTK.vtkVolumePicker</text>
</a>
</g>
<!-- Node9&#45;&gt;Node10 -->
<g id="edge18" class="edge"><title>Node9&#45;&gt;Node10</title>
<path fill="none" stroke="midnightblue" d="M1044.99,-48C1061.68,-48 1079.29,-48 1095.95,-48"/>
<polygon fill="midnightblue" stroke="midnightblue" points="1044.74,-44.5001 1034.74,-48 1044.74,-51.5001 1044.74,-44.5001"/>
</g>
</g>
</svg>
