<?xml version="1.0" encoding="UTF-8" standalone="no"?>
<!DOCTYPE svg PUBLIC "-//W3C//DTD SVG 1.1//EN"
 "http://www.w3.org/Graphics/SVG/1.1/DTD/svg11.dtd">
<!-- Generated by graphviz version 2.26.3 (20100126.1600)
 -->
<!-- Title: G Pages: 1 -->
<svg width="1594pt" height="66pt"
 viewBox="0.00 0.00 1594.00 66.00" xmlns="http://www.w3.org/2000/svg" xmlns:xlink="http://www.w3.org/1999/xlink">
<g id="graph1" class="graph" transform="scale(1 1) rotate(0) translate(4 62)">
<title>G</title>
<!-- Node1 -->
<g id="node1" class="node"><title>Node1</title>
<polygon fill="#bfbfbf" stroke="black" points="580.5,-19 580.5,-39 797.5,-39 797.5,-19 580.5,-19"/>
<text text-anchor="middle" x="689" y="-26" font-family="FreeSans" font-size="10.00">Kitware.VTK.vtkXMLCompositeDataReader</text>
</g>
<!-- Node7 -->
<g id="node13" class="node"><title>Node7</title>
<a xlink:href="class_kitware_1_1_v_t_k_1_1vtk_x_m_l_hierarchical_box_data_reader.html" target="_top" xlink:title="vtkXMLHierarchicalBoxDataReader &#45; Reader for hierarchical datasets">
<polygon fill="none" stroke="black" points="834.5,-38 834.5,-58 1073.5,-58 1073.5,-38 834.5,-38"/>
<text text-anchor="middle" x="954" y="-45" font-family="FreeSans" font-size="10.00">Kitware.VTK.vtkXMLHierarchicalBoxDataReader</text>
</a>
</g>
<!-- Node1&#45;&gt;Node7 -->
<g id="edge12" class="edge"><title>Node1&#45;&gt;Node7</title>
<path fill="none" stroke="midnightblue" d="M807.57,-37.5013C816.485,-38.1404 825.485,-38.7857 834.406,-39.4253"/>
<polygon fill="midnightblue" stroke="midnightblue" points="807.775,-34.007 797.55,-36.7828 807.274,-40.9891 807.775,-34.007"/>
</g>
<!-- Node8 -->
<g id="node15" class="node"><title>Node8</title>
<a xlink:href="class_kitware_1_1_v_t_k_1_1vtk_x_m_l_multi_block_data_reader.html" target="_top" xlink:title="vtkXMLMultiBlockDataReader &#45; Reader for multi&#45;block datasets">
<polygon fill="none" stroke="black" points="847.5,-0 847.5,-20 1060.5,-20 1060.5,-0 847.5,-0"/>
<text text-anchor="middle" x="954" y="-7" font-family="FreeSans" font-size="10.00">Kitware.VTK.vtkXMLMultiBlockDataReader</text>
</a>
</g>
<!-- Node1&#45;&gt;Node8 -->
<g id="edge14" class="edge"><title>Node1&#45;&gt;Node8</title>
<path fill="none" stroke="midnightblue" d="M807.621,-20.4951C820.85,-19.5466 834.265,-18.5848 847.332,-17.6479"/>
<polygon fill="midnightblue" stroke="midnightblue" points="807.274,-17.0109 797.55,-21.2172 807.775,-23.993 807.274,-17.0109"/>
</g>
<!-- Node2 -->
<g id="node2" class="node"><title>Node2</title>
<a xlink:href="class_kitware_1_1_v_t_k_1_1vtk_x_m_l_reader.html" target="_top" xlink:title="vtkXMLReader &#45; Superclass for VTK&#39;s XML format readers.">
<polygon fill="none" stroke="black" points="460.5,-19 460.5,-39 543.5,-39 543.5,-19 460.5,-19"/>
<text text-anchor="middle" x="502" y="-26" font-family="FreeSans" font-size="10.00">vtkXMLReader</text>
</a>
</g>
<!-- Node2&#45;&gt;Node1 -->
<g id="edge2" class="edge"><title>Node2&#45;&gt;Node1</title>
<path fill="none" stroke="midnightblue" d="M553.545,-29C562.037,-29 571.112,-29 580.391,-29"/>
<polygon fill="midnightblue" stroke="midnightblue" points="553.501,-25.5001 543.501,-29 553.501,-32.5001 553.501,-25.5001"/>
</g>
<!-- Node3 -->
<g id="node4" class="node"><title>Node3</title>
<a xlink:href="class_kitware_1_1_v_t_k_1_1vtk_algorithm.html" target="_top" xlink:title="vtkAlgorithm &#45; Superclass for all sources, filters, and sinks in VTK.">
<polygon fill="none" stroke="black" points="346.5,-19 346.5,-39 423.5,-39 423.5,-19 346.5,-19"/>
<text text-anchor="middle" x="385" y="-26" font-family="FreeSans" font-size="10.00">vtkAlgorithm</text>
</a>
</g>
<!-- Node3&#45;&gt;Node2 -->
<g id="edge4" class="edge"><title>Node3&#45;&gt;Node2</title>
<path fill="none" stroke="midnightblue" d="M433.756,-29C442.538,-29 451.621,-29 460.184,-29"/>
<polygon fill="midnightblue" stroke="midnightblue" points="433.634,-25.5001 423.634,-29 433.634,-32.5001 433.634,-25.5001"/>
</g>
<!-- Node4 -->
<g id="node6" class="node"><title>Node4</title>
<a xlink:href="class_kitware_1_1_v_t_k_1_1vtk_object.html" target="_top" xlink:title="vtkObject &#45; abstract base class for most VTK objects">
<polygon fill="none" stroke="black" points="248,-19 248,-39 310,-39 310,-19 248,-19"/>
<text text-anchor="middle" x="279" y="-26" font-family="FreeSans" font-size="10.00">vtkObject</text>
</a>
</g>
<!-- Node4&#45;&gt;Node3 -->
<g id="edge6" class="edge"><title>Node4&#45;&gt;Node3</title>
<path fill="none" stroke="midnightblue" d="M320.421,-29C329.001,-29 338.007,-29 346.479,-29"/>
<polygon fill="midnightblue" stroke="midnightblue" points="320.23,-25.5001 310.23,-29 320.23,-32.5001 320.23,-25.5001"/>
</g>
<!-- Node5 -->
<g id="node8" class="node"><title>Node5</title>
<a xlink:href="class_kitware_1_1_v_t_k_1_1vtk_object_base.html" target="_top" xlink:title="vtkObjectBase &#45; abstract base class for most VTK objects">
<polygon fill="none" stroke="black" points="126,-19 126,-39 212,-39 212,-19 126,-19"/>
<text text-anchor="middle" x="169" y="-26" font-family="FreeSans" font-size="10.00">vtkObjectBase</text>
</a>
</g>
<!-- Node5&#45;&gt;Node4 -->
<g id="edge8" class="edge"><title>Node5&#45;&gt;Node4</title>
<path fill="none" stroke="midnightblue" d="M222.346,-29C231.091,-29 239.892,-29 247.863,-29"/>
<polygon fill="midnightblue" stroke="midnightblue" points="222.159,-25.5001 212.159,-29 222.159,-32.5001 222.159,-25.5001"/>
</g>
<!-- Node6 -->
<g id="node10" class="node"><title>Node6</title>
<a xlink:href="class_kitware_1_1_v_t_k_1_1_wrapped_object.html" target="_top" xlink:title="Base class for all the mummy wrapped classes in Kitware.VTK.">
<polygon fill="none" stroke="black" points="0.5,-19 0.5,-39 89.5,-39 89.5,-19 0.5,-19"/>
<text text-anchor="middle" x="45" y="-26" font-family="FreeSans" font-size="10.00">WrappedObject</text>
</a>
</g>
<!-- Node6&#45;&gt;Node5 -->
<g id="edge10" class="edge"><title>Node6&#45;&gt;Node5</title>
<path fill="none" stroke="midnightblue" d="M99.8895,-29C108.623,-29 117.548,-29 125.957,-29"/>
<polygon fill="midnightblue" stroke="midnightblue" points="99.7669,-25.5001 89.7668,-29 99.7668,-32.5001 99.7669,-25.5001"/>
</g>
<!-- Node9 -->
<g id="node17" class="node"><title>Node9</title>
<a xlink:href="class_kitware_1_1_v_t_k_1_1vtk_x_m_l_multi_group_data_reader.html" target="_top" xlink:title="vtkXMLMultiGroupDataReader &#45; Reader for multi&#45;block datasets">
<polygon fill="none" stroke="black" points="1110.5,-0 1110.5,-20 1327.5,-20 1327.5,-0 1110.5,-0"/>
<text text-anchor="middle" x="1219" y="-7" font-family="FreeSans" font-size="10.00">Kitware.VTK.vtkXMLMultiGroupDataReader</text>
</a>
</g>
<!-- Node8&#45;&gt;Node9 -->
<g id="edge16" class="edge"><title>Node8&#45;&gt;Node9</title>
<path fill="none" stroke="midnightblue" d="M1070.69,-10C1083.9,-10 1097.32,-10 1110.42,-10"/>
<polygon fill="midnightblue" stroke="midnightblue" points="1070.64,-6.5001 1060.64,-10 1070.64,-13.5001 1070.64,-6.5001"/>
</g>
<!-- Node10 -->
<g id="node19" class="node"><title>Node10</title>
<a xlink:href="class_kitware_1_1_v_t_k_1_1vtk_x_m_l_hierarchical_data_reader.html" target="_top" xlink:title="vtkXMLHierarchicalDataReader &#45; Reader for hierarchical datasets">
<polygon fill="none" stroke="black" points="1364.5,-0 1364.5,-20 1585.5,-20 1585.5,-0 1364.5,-0"/>
<text text-anchor="middle" x="1475" y="-7" font-family="FreeSans" font-size="10.00">Kitware.VTK.vtkXMLHierarchicalDataReader</text>
</a>
</g>
<!-- Node9&#45;&gt;Node10 -->
<g id="edge18" class="edge"><title>Node9&#45;&gt;Node10</title>
<path fill="none" stroke="midnightblue" d="M1337.85,-10C1346.64,-10 1355.48,-10 1364.22,-10"/>
<polygon fill="midnightblue" stroke="midnightblue" points="1337.57,-6.5001 1327.57,-10 1337.57,-13.5001 1337.57,-6.5001"/>
</g>
</g>
</svg>
