<?xml version="1.0" encoding="UTF-8" standalone="no"?>
<!DOCTYPE svg PUBLIC "-//W3C//DTD SVG 1.1//EN"
 "http://www.w3.org/Graphics/SVG/1.1/DTD/svg11.dtd">
<!-- Generated by graphviz version 2.26.3 (20100126.1600)
 -->
<!-- Title: G Pages: 1 -->
<svg width="456pt" height="650pt"
 viewBox="0.00 0.00 456.46 650.00" xmlns="http://www.w3.org/2000/svg" xmlns:xlink="http://www.w3.org/1999/xlink">
<g id="graph1" class="graph" transform="scale(1 1) rotate(0) translate(4 646)">
<title>G</title>
<!-- Node1 -->
<g id="node1" class="node"><title>Node1</title>
<polygon fill="#bfbfbf" stroke="black" points="-0.5,-1 -0.5,-21 240.5,-21 240.5,-1 -0.5,-1"/>
<text text-anchor="middle" x="120" y="-8" font-family="FreeSans" font-size="10.00">Kitware.VTK.vtkGenericRenderWindowInteractor</text>
</g>
<!-- Node2 -->
<g id="node2" class="node"><title>Node2</title>
<a xlink:href="class_kitware_1_1_v_t_k_1_1vtk_render_window_interactor.html" target="_top" xlink:title="vtkRenderWindowInteractor &#45; platform&#45;independent render window interaction including picking and fram...">
<polygon fill="none" stroke="black" points="47,-61 47,-81 193,-81 193,-61 47,-61"/>
<text text-anchor="middle" x="120" y="-68" font-family="FreeSans" font-size="10.00">vtkRenderWindowInteractor</text>
</a>
</g>
<!-- Node2&#45;&gt;Node1 -->
<g id="edge2" class="edge"><title>Node2&#45;&gt;Node1</title>
<path fill="none" stroke="midnightblue" d="M120,-50.5155C120,-40.562 120,-29.0495 120,-21.0279"/>
<polygon fill="midnightblue" stroke="midnightblue" points="116.5,-50.8218 120,-60.8218 123.5,-50.8219 116.5,-50.8218"/>
</g>
<!-- Node3 -->
<g id="node4" class="node"><title>Node3</title>
<a xlink:href="class_kitware_1_1_v_t_k_1_1vtk_object.html" target="_top" xlink:title="vtkObject &#45; abstract base class for most VTK objects">
<polygon fill="none" stroke="black" points="89,-121 89,-141 151,-141 151,-121 89,-121"/>
<text text-anchor="middle" x="120" y="-128" font-family="FreeSans" font-size="10.00">vtkObject</text>
</a>
</g>
<!-- Node3&#45;&gt;Node2 -->
<g id="edge4" class="edge"><title>Node3&#45;&gt;Node2</title>
<path fill="none" stroke="midnightblue" d="M120,-110.516C120,-100.562 120,-89.0495 120,-81.0279"/>
<polygon fill="midnightblue" stroke="midnightblue" points="116.5,-110.822 120,-120.822 123.5,-110.822 116.5,-110.822"/>
</g>
<!-- Node4 -->
<g id="node6" class="node"><title>Node4</title>
<a xlink:href="class_kitware_1_1_v_t_k_1_1vtk_object_base.html" target="_top" xlink:title="vtkObjectBase &#45; abstract base class for most VTK objects">
<polygon fill="none" stroke="black" points="140,-561 140,-581 226,-581 226,-561 140,-561"/>
<text text-anchor="middle" x="183" y="-568" font-family="FreeSans" font-size="10.00">vtkObjectBase</text>
</a>
</g>
<!-- Node4&#45;&gt;Node3 -->
<g id="edge6" class="edge"><title>Node4&#45;&gt;Node3</title>
<path fill="none" stroke="midnightblue" d="M154.423,-555.886C140.687,-547.44 124.884,-535.826 114,-522 102.156,-506.955 101.621,-500.802 98,-482 72.4248,-349.199 107.577,-183.437 117.516,-141.17"/>
<polygon fill="midnightblue" stroke="midnightblue" points="152.683,-558.923 163.079,-560.97 156.229,-552.887 152.683,-558.923"/>
</g>
<!-- Node7 -->
<g id="node13" class="node"><title>Node7</title>
<a xlink:href="class_kitware_1_1_v_t_k_1_1vtk_object.html" target="_top" xlink:title="vtkObject &#45; abstract base class for most VTK objects">
<polygon fill="none" stroke="black" points="123,-501 123,-521 243,-521 243,-501 123,-501"/>
<text text-anchor="middle" x="183" y="-508" font-family="FreeSans" font-size="10.00">Kitware.VTK.vtkObject</text>
</a>
</g>
<!-- Node4&#45;&gt;Node7 -->
<g id="edge16" class="edge"><title>Node4&#45;&gt;Node7</title>
<path fill="none" stroke="midnightblue" d="M183,-550.516C183,-540.562 183,-529.05 183,-521.028"/>
<polygon fill="midnightblue" stroke="midnightblue" points="179.5,-550.822 183,-560.822 186.5,-550.822 179.5,-550.822"/>
</g>
<!-- Node5 -->
<g id="node8" class="node"><title>Node5</title>
<a xlink:href="class_kitware_1_1_v_t_k_1_1_wrapped_object.html" target="_top" xlink:title="Base class for all the mummy wrapped classes in Kitware.VTK.">
<polygon fill="none" stroke="black" points="321.5,-621 321.5,-641 410.5,-641 410.5,-621 321.5,-621"/>
<text text-anchor="middle" x="366" y="-628" font-family="FreeSans" font-size="10.00">WrappedObject</text>
</a>
</g>
<!-- Node5&#45;&gt;Node4 -->
<g id="edge8" class="edge"><title>Node5&#45;&gt;Node4</title>
<path fill="none" stroke="midnightblue" d="M325.804,-617.821C292.042,-606.752 244.512,-591.168 213.73,-581.075"/>
<polygon fill="midnightblue" stroke="midnightblue" points="324.777,-621.168 335.37,-620.957 326.958,-614.516 324.777,-621.168"/>
</g>
<!-- Node6 -->
<g id="node10" class="node"><title>Node6</title>
<a xlink:href="class_kitware_1_1_v_t_k_1_1vtk_object_event_relay.html" target="_top" xlink:title="Implement a relay handler for VTK events. This is a class that receives events directly from the VTK ...">
<polygon fill="none" stroke="black" points="112,-311 112,-331 284,-331 284,-311 112,-311"/>
<text text-anchor="middle" x="198" y="-318" font-family="FreeSans" font-size="10.00">Kitware.VTK.vtkObjectEventRelay</text>
</a>
</g>
<!-- Node5&#45;&gt;Node6 -->
<g id="edge12" class="edge"><title>Node5&#45;&gt;Node6</title>
<path fill="none" stroke="midnightblue" d="M378.888,-612.325C411.276,-562.899 488.803,-427.191 421,-350 411.773,-339.495 343.047,-331.666 284.298,-326.808"/>
<polygon fill="midnightblue" stroke="midnightblue" points="375.891,-610.509 373.239,-620.767 381.709,-614.402 375.891,-610.509"/>
</g>
<!-- Node6&#45;&gt;Node3 -->
<g id="edge10" class="edge"><title>Node6&#45;&gt;Node3</title>
<path fill="none" stroke="#9a32cd" stroke-dasharray="5,2" d="M189.921,-301.321C173.489,-261.293 136.674,-171.616 124.214,-141.266"/>
<polygon fill="#9a32cd" stroke="#9a32cd" points="186.771,-302.863 193.806,-310.785 193.246,-300.205 186.771,-302.863"/>
<text text-anchor="middle" x="297.5" y="-283" font-family="FreeSans" font-size="10.00"> LeftButtonReleaseEvtRelay</text>
<text text-anchor="middle" x="297.5" y="-271" font-family="FreeSans" font-size="10.00">KeyPressEvtRelay</text>
<text text-anchor="middle" x="297.5" y="-259" font-family="FreeSans" font-size="10.00">DomainModifiedEvtRelay</text>
<text text-anchor="middle" x="297.5" y="-247" font-family="FreeSans" font-size="10.00">VolumeMapperComputeGradientsStartEvtRelay</text>
<text text-anchor="middle" x="297.5" y="-235" font-family="FreeSans" font-size="10.00">ErrorEvtRelay</text>
<text text-anchor="middle" x="297.5" y="-223" font-family="FreeSans" font-size="10.00">VolumeMapperRenderStartEvtRelay</text>
<text text-anchor="middle" x="297.5" y="-211" font-family="FreeSans" font-size="10.00">StartEvtRelay</text>
<text text-anchor="middle" x="297.5" y="-199" font-family="FreeSans" font-size="10.00">ResetCameraEvtRelay</text>
<text text-anchor="middle" x="297.5" y="-187" font-family="FreeSans" font-size="10.00">EnableEvtRelay</text>
<text text-anchor="middle" x="297.5" y="-175" font-family="FreeSans" font-size="10.00">DeleteEvtRelay</text>
<text text-anchor="middle" x="297.5" y="-163" font-family="FreeSans" font-size="10.00">...</text>
</g>
<!-- Node6&#45;&gt;Node7 -->
<g id="edge18" class="edge"><title>Node6&#45;&gt;Node7</title>
<path fill="none" stroke="#9a32cd" stroke-dasharray="5,2" d="M195.028,-341.231C194.649,-344.169 194.293,-347.159 194,-350 188.144,-406.853 184.636,-475.333 183.452,-500.807"/>
<polygon fill="#9a32cd" stroke="#9a32cd" points="198.515,-341.565 196.421,-331.179 191.582,-340.604 198.515,-341.565"/>
<text text-anchor="middle" x="307.5" y="-473" font-family="FreeSans" font-size="10.00"> LeftButtonReleaseEvtRelay</text>
<text text-anchor="middle" x="307.5" y="-461" font-family="FreeSans" font-size="10.00">KeyPressEvtRelay</text>
<text text-anchor="middle" x="307.5" y="-449" font-family="FreeSans" font-size="10.00">DomainModifiedEvtRelay</text>
<text text-anchor="middle" x="307.5" y="-437" font-family="FreeSans" font-size="10.00">VolumeMapperComputeGradientsStartEvtRelay</text>
<text text-anchor="middle" x="307.5" y="-425" font-family="FreeSans" font-size="10.00">ErrorEvtRelay</text>
<text text-anchor="middle" x="307.5" y="-413" font-family="FreeSans" font-size="10.00">VolumeMapperRenderStartEvtRelay</text>
<text text-anchor="middle" x="307.5" y="-401" font-family="FreeSans" font-size="10.00">StartEvtRelay</text>
<text text-anchor="middle" x="307.5" y="-389" font-family="FreeSans" font-size="10.00">ResetCameraEvtRelay</text>
<text text-anchor="middle" x="307.5" y="-377" font-family="FreeSans" font-size="10.00">EnableEvtRelay</text>
<text text-anchor="middle" x="307.5" y="-365" font-family="FreeSans" font-size="10.00">DeleteEvtRelay</text>
<text text-anchor="middle" x="307.5" y="-353" font-family="FreeSans" font-size="10.00">...</text>
</g>
<!-- Node7&#45;&gt;Node6 -->
<g id="edge14" class="edge"><title>Node7&#45;&gt;Node6</title>
<path fill="none" stroke="#9a32cd" stroke-dasharray="5,2" d="M136.979,-495.818C131.439,-492.138 126.51,-487.596 123,-482 91.8229,-432.303 89.8299,-398.389 123,-350 127.736,-343.091 144.511,-336.287 160.999,-331.008"/>
<polygon fill="#9a32cd" stroke="#9a32cd" points="135.639,-499.079 146.072,-500.919 139.064,-492.974 135.639,-499.079"/>
<text text-anchor="middle" x="147" y="-419" font-family="FreeSans" font-size="10.00"> Sender</text>
<text text-anchor="middle" x="147" y="-407" font-family="FreeSans" font-size="10.00">EventImpl</text>
</g>
</g>
</svg>
