<?xml version="1.0" encoding="UTF-8" standalone="no"?>
<!DOCTYPE svg PUBLIC "-//W3C//DTD SVG 1.1//EN"
 "http://www.w3.org/Graphics/SVG/1.1/DTD/svg11.dtd">
<!-- Generated by graphviz version 2.26.3 (20100126.1600)
 -->
<!-- Title: G Pages: 1 -->
<svg width="416pt" height="770pt"
 viewBox="0.00 0.00 416.46 770.00" xmlns="http://www.w3.org/2000/svg" xmlns:xlink="http://www.w3.org/1999/xlink">
<g id="graph1" class="graph" transform="scale(1 1) rotate(0) translate(4 766)">
<title>G</title>
<!-- Node1 -->
<g id="node1" class="node"><title>Node1</title>
<polygon fill="#bfbfbf" stroke="black" points="-0.5,-1 -0.5,-21 160.5,-21 160.5,-1 -0.5,-1"/>
<text text-anchor="middle" x="80" y="-8" font-family="FreeSans" font-size="10.00">Kitware.VTK.vtkOpenGLTexture</text>
</g>
<!-- Node2 -->
<g id="node2" class="node"><title>Node2</title>
<a xlink:href="class_kitware_1_1_v_t_k_1_1vtk_texture.html" target="_top" xlink:title="vtkTexture &#45; handles properties associated with a texture map">
<polygon fill="none" stroke="black" points="47.5,-61 47.5,-81 112.5,-81 112.5,-61 47.5,-61"/>
<text text-anchor="middle" x="80" y="-68" font-family="FreeSans" font-size="10.00">vtkTexture</text>
</a>
</g>
<!-- Node2&#45;&gt;Node1 -->
<g id="edge2" class="edge"><title>Node2&#45;&gt;Node1</title>
<path fill="none" stroke="midnightblue" d="M80,-50.5155C80,-40.562 80,-29.0495 80,-21.0279"/>
<polygon fill="midnightblue" stroke="midnightblue" points="76.5001,-50.8218 80,-60.8218 83.5001,-50.8219 76.5001,-50.8218"/>
</g>
<!-- Node3 -->
<g id="node4" class="node"><title>Node3</title>
<a xlink:href="class_kitware_1_1_v_t_k_1_1vtk_image_algorithm.html" target="_top" xlink:title="vtkImageAlgorithm &#45; Generic algorithm superclass for image algs">
<polygon fill="none" stroke="black" points="26.5,-121 26.5,-141 133.5,-141 133.5,-121 26.5,-121"/>
<text text-anchor="middle" x="80" y="-128" font-family="FreeSans" font-size="10.00">vtkImageAlgorithm</text>
</a>
</g>
<!-- Node3&#45;&gt;Node2 -->
<g id="edge4" class="edge"><title>Node3&#45;&gt;Node2</title>
<path fill="none" stroke="midnightblue" d="M80,-110.516C80,-100.562 80,-89.0495 80,-81.0279"/>
<polygon fill="midnightblue" stroke="midnightblue" points="76.5001,-110.822 80,-120.822 83.5001,-110.822 76.5001,-110.822"/>
</g>
<!-- Node4 -->
<g id="node6" class="node"><title>Node4</title>
<a xlink:href="class_kitware_1_1_v_t_k_1_1vtk_algorithm.html" target="_top" xlink:title="vtkAlgorithm &#45; Superclass for all sources, filters, and sinks in VTK.">
<polygon fill="none" stroke="black" points="41.5,-181 41.5,-201 118.5,-201 118.5,-181 41.5,-181"/>
<text text-anchor="middle" x="80" y="-188" font-family="FreeSans" font-size="10.00">vtkAlgorithm</text>
</a>
</g>
<!-- Node4&#45;&gt;Node3 -->
<g id="edge6" class="edge"><title>Node4&#45;&gt;Node3</title>
<path fill="none" stroke="midnightblue" d="M80,-170.516C80,-160.562 80,-149.05 80,-141.028"/>
<polygon fill="midnightblue" stroke="midnightblue" points="76.5001,-170.822 80,-180.822 83.5001,-170.822 76.5001,-170.822"/>
</g>
<!-- Node5 -->
<g id="node8" class="node"><title>Node5</title>
<a xlink:href="class_kitware_1_1_v_t_k_1_1vtk_object.html" target="_top" xlink:title="vtkObject &#45; abstract base class for most VTK objects">
<polygon fill="none" stroke="black" points="49,-241 49,-261 111,-261 111,-241 49,-241"/>
<text text-anchor="middle" x="80" y="-248" font-family="FreeSans" font-size="10.00">vtkObject</text>
</a>
</g>
<!-- Node5&#45;&gt;Node4 -->
<g id="edge8" class="edge"><title>Node5&#45;&gt;Node4</title>
<path fill="none" stroke="midnightblue" d="M80,-230.516C80,-220.562 80,-209.05 80,-201.028"/>
<polygon fill="midnightblue" stroke="midnightblue" points="76.5001,-230.822 80,-240.822 83.5001,-230.822 76.5001,-230.822"/>
</g>
<!-- Node6 -->
<g id="node10" class="node"><title>Node6</title>
<a xlink:href="class_kitware_1_1_v_t_k_1_1vtk_object_base.html" target="_top" xlink:title="vtkObjectBase &#45; abstract base class for most VTK objects">
<polygon fill="none" stroke="black" points="100,-681 100,-701 186,-701 186,-681 100,-681"/>
<text text-anchor="middle" x="143" y="-688" font-family="FreeSans" font-size="10.00">vtkObjectBase</text>
</a>
</g>
<!-- Node6&#45;&gt;Node5 -->
<g id="edge10" class="edge"><title>Node6&#45;&gt;Node5</title>
<path fill="none" stroke="midnightblue" d="M114.423,-675.886C100.687,-667.44 84.8844,-655.826 74,-642 62.1564,-626.955 61.6209,-620.802 58,-602 32.4248,-469.199 67.5766,-303.437 77.5155,-261.17"/>
<polygon fill="midnightblue" stroke="midnightblue" points="112.683,-678.923 123.079,-680.97 116.229,-672.887 112.683,-678.923"/>
</g>
<!-- Node9 -->
<g id="node17" class="node"><title>Node9</title>
<a xlink:href="class_kitware_1_1_v_t_k_1_1vtk_object.html" target="_top" xlink:title="vtkObject &#45; abstract base class for most VTK objects">
<polygon fill="none" stroke="black" points="83,-621 83,-641 203,-641 203,-621 83,-621"/>
<text text-anchor="middle" x="143" y="-628" font-family="FreeSans" font-size="10.00">Kitware.VTK.vtkObject</text>
</a>
</g>
<!-- Node6&#45;&gt;Node9 -->
<g id="edge20" class="edge"><title>Node6&#45;&gt;Node9</title>
<path fill="none" stroke="midnightblue" d="M143,-670.516C143,-660.562 143,-649.05 143,-641.028"/>
<polygon fill="midnightblue" stroke="midnightblue" points="139.5,-670.822 143,-680.822 146.5,-670.822 139.5,-670.822"/>
</g>
<!-- Node7 -->
<g id="node12" class="node"><title>Node7</title>
<a xlink:href="class_kitware_1_1_v_t_k_1_1_wrapped_object.html" target="_top" xlink:title="Base class for all the mummy wrapped classes in Kitware.VTK.">
<polygon fill="none" stroke="black" points="281.5,-741 281.5,-761 370.5,-761 370.5,-741 281.5,-741"/>
<text text-anchor="middle" x="326" y="-748" font-family="FreeSans" font-size="10.00">WrappedObject</text>
</a>
</g>
<!-- Node7&#45;&gt;Node6 -->
<g id="edge12" class="edge"><title>Node7&#45;&gt;Node6</title>
<path fill="none" stroke="midnightblue" d="M285.804,-737.821C252.042,-726.752 204.512,-711.168 173.73,-701.075"/>
<polygon fill="midnightblue" stroke="midnightblue" points="284.777,-741.168 295.37,-740.957 286.958,-734.516 284.777,-741.168"/>
</g>
<!-- Node8 -->
<g id="node14" class="node"><title>Node8</title>
<a xlink:href="class_kitware_1_1_v_t_k_1_1vtk_object_event_relay.html" target="_top" xlink:title="Implement a relay handler for VTK events. This is a class that receives events directly from the VTK ...">
<polygon fill="none" stroke="black" points="72,-431 72,-451 244,-451 244,-431 72,-431"/>
<text text-anchor="middle" x="158" y="-438" font-family="FreeSans" font-size="10.00">Kitware.VTK.vtkObjectEventRelay</text>
</a>
</g>
<!-- Node7&#45;&gt;Node8 -->
<g id="edge16" class="edge"><title>Node7&#45;&gt;Node8</title>
<path fill="none" stroke="midnightblue" d="M338.888,-732.325C371.276,-682.899 448.803,-547.191 381,-470 371.773,-459.495 303.047,-451.666 244.298,-446.808"/>
<polygon fill="midnightblue" stroke="midnightblue" points="335.891,-730.509 333.239,-740.767 341.709,-734.402 335.891,-730.509"/>
</g>
<!-- Node8&#45;&gt;Node5 -->
<g id="edge14" class="edge"><title>Node8&#45;&gt;Node5</title>
<path fill="none" stroke="#9a32cd" stroke-dasharray="5,2" d="M149.921,-421.321C133.489,-381.293 96.6738,-291.616 84.2144,-261.266"/>
<polygon fill="#9a32cd" stroke="#9a32cd" points="146.771,-422.863 153.806,-430.785 153.246,-420.205 146.771,-422.863"/>
<text text-anchor="middle" x="257.5" y="-403" font-family="FreeSans" font-size="10.00"> LeftButtonReleaseEvtRelay</text>
<text text-anchor="middle" x="257.5" y="-391" font-family="FreeSans" font-size="10.00">KeyPressEvtRelay</text>
<text text-anchor="middle" x="257.5" y="-379" font-family="FreeSans" font-size="10.00">DomainModifiedEvtRelay</text>
<text text-anchor="middle" x="257.5" y="-367" font-family="FreeSans" font-size="10.00">VolumeMapperComputeGradientsStartEvtRelay</text>
<text text-anchor="middle" x="257.5" y="-355" font-family="FreeSans" font-size="10.00">ErrorEvtRelay</text>
<text text-anchor="middle" x="257.5" y="-343" font-family="FreeSans" font-size="10.00">VolumeMapperRenderStartEvtRelay</text>
<text text-anchor="middle" x="257.5" y="-331" font-family="FreeSans" font-size="10.00">StartEvtRelay</text>
<text text-anchor="middle" x="257.5" y="-319" font-family="FreeSans" font-size="10.00">ResetCameraEvtRelay</text>
<text text-anchor="middle" x="257.5" y="-307" font-family="FreeSans" font-size="10.00">EnableEvtRelay</text>
<text text-anchor="middle" x="257.5" y="-295" font-family="FreeSans" font-size="10.00">DeleteEvtRelay</text>
<text text-anchor="middle" x="257.5" y="-283" font-family="FreeSans" font-size="10.00">...</text>
</g>
<!-- Node8&#45;&gt;Node9 -->
<g id="edge22" class="edge"><title>Node8&#45;&gt;Node9</title>
<path fill="none" stroke="#9a32cd" stroke-dasharray="5,2" d="M155.028,-461.231C154.649,-464.169 154.293,-467.159 154,-470 148.144,-526.853 144.636,-595.333 143.452,-620.807"/>
<polygon fill="#9a32cd" stroke="#9a32cd" points="158.515,-461.565 156.421,-451.179 151.582,-460.604 158.515,-461.565"/>
<text text-anchor="middle" x="267.5" y="-593" font-family="FreeSans" font-size="10.00"> LeftButtonReleaseEvtRelay</text>
<text text-anchor="middle" x="267.5" y="-581" font-family="FreeSans" font-size="10.00">KeyPressEvtRelay</text>
<text text-anchor="middle" x="267.5" y="-569" font-family="FreeSans" font-size="10.00">DomainModifiedEvtRelay</text>
<text text-anchor="middle" x="267.5" y="-557" font-family="FreeSans" font-size="10.00">VolumeMapperComputeGradientsStartEvtRelay</text>
<text text-anchor="middle" x="267.5" y="-545" font-family="FreeSans" font-size="10.00">ErrorEvtRelay</text>
<text text-anchor="middle" x="267.5" y="-533" font-family="FreeSans" font-size="10.00">VolumeMapperRenderStartEvtRelay</text>
<text text-anchor="middle" x="267.5" y="-521" font-family="FreeSans" font-size="10.00">StartEvtRelay</text>
<text text-anchor="middle" x="267.5" y="-509" font-family="FreeSans" font-size="10.00">ResetCameraEvtRelay</text>
<text text-anchor="middle" x="267.5" y="-497" font-family="FreeSans" font-size="10.00">EnableEvtRelay</text>
<text text-anchor="middle" x="267.5" y="-485" font-family="FreeSans" font-size="10.00">DeleteEvtRelay</text>
<text text-anchor="middle" x="267.5" y="-473" font-family="FreeSans" font-size="10.00">...</text>
</g>
<!-- Node9&#45;&gt;Node8 -->
<g id="edge18" class="edge"><title>Node9&#45;&gt;Node8</title>
<path fill="none" stroke="#9a32cd" stroke-dasharray="5,2" d="M96.9794,-615.818C91.4393,-612.138 86.5104,-607.596 83,-602 51.8229,-552.303 49.8299,-518.389 83,-470 87.7359,-463.091 104.511,-456.287 120.999,-451.008"/>
<polygon fill="#9a32cd" stroke="#9a32cd" points="95.6386,-619.079 106.072,-620.919 99.0636,-612.974 95.6386,-619.079"/>
<text text-anchor="middle" x="107" y="-539" font-family="FreeSans" font-size="10.00"> Sender</text>
<text text-anchor="middle" x="107" y="-527" font-family="FreeSans" font-size="10.00">EventImpl</text>
</g>
</g>
</svg>
