<?xml version="1.0" encoding="UTF-8" standalone="no"?>
<!DOCTYPE svg PUBLIC "-//W3C//DTD SVG 1.1//EN"
 "http://www.w3.org/Graphics/SVG/1.1/DTD/svg11.dtd">
<!-- Generated by graphviz version 2.26.3 (20100126.1600)
 -->
<!-- Title: G Pages: 1 -->
<svg width="462pt" height="710pt"
 viewBox="0.00 0.00 462.46 710.00" xmlns="http://www.w3.org/2000/svg" xmlns:xlink="http://www.w3.org/1999/xlink">
<g id="graph1" class="graph" transform="scale(1 1) rotate(0) translate(4 706)">
<title>G</title>
<!-- Node1 -->
<g id="node1" class="node"><title>Node1</title>
<polygon fill="#bfbfbf" stroke="black" points="-0.5,-1 -0.5,-21 252.5,-21 252.5,-1 -0.5,-1"/>
<text text-anchor="middle" x="126" y="-8" font-family="FreeSans" font-size="10.00">Kitware.VTK.vtkDiscretizableColorTransferFunction</text>
</g>
<!-- Node2 -->
<g id="node2" class="node"><title>Node2</title>
<a xlink:href="class_kitware_1_1_v_t_k_1_1vtk_color_transfer_function.html" target="_top" xlink:title="vtkColorTransferFunction &#45; Defines a transfer function for mapping a property to an RGB color value...">
<polygon fill="none" stroke="black" points="59.5,-61 59.5,-81 192.5,-81 192.5,-61 59.5,-61"/>
<text text-anchor="middle" x="126" y="-68" font-family="FreeSans" font-size="10.00">vtkColorTransferFunction</text>
</a>
</g>
<!-- Node2&#45;&gt;Node1 -->
<g id="edge2" class="edge"><title>Node2&#45;&gt;Node1</title>
<path fill="none" stroke="midnightblue" d="M126,-50.5155C126,-40.562 126,-29.0495 126,-21.0279"/>
<polygon fill="midnightblue" stroke="midnightblue" points="122.5,-50.8218 126,-60.8218 129.5,-50.8219 122.5,-50.8218"/>
</g>
<!-- Node3 -->
<g id="node4" class="node"><title>Node3</title>
<a xlink:href="class_kitware_1_1_v_t_k_1_1vtk_scalars_to_colors.html" target="_top" xlink:title="vtkScalarsToColors &#45; Superclass for mapping scalar values into colors">
<polygon fill="none" stroke="black" points="73,-121 73,-141 179,-141 179,-121 73,-121"/>
<text text-anchor="middle" x="126" y="-128" font-family="FreeSans" font-size="10.00">vtkScalarsToColors</text>
</a>
</g>
<!-- Node3&#45;&gt;Node2 -->
<g id="edge4" class="edge"><title>Node3&#45;&gt;Node2</title>
<path fill="none" stroke="midnightblue" d="M126,-110.516C126,-100.562 126,-89.0495 126,-81.0279"/>
<polygon fill="midnightblue" stroke="midnightblue" points="122.5,-110.822 126,-120.822 129.5,-110.822 122.5,-110.822"/>
</g>
<!-- Node4 -->
<g id="node6" class="node"><title>Node4</title>
<a xlink:href="class_kitware_1_1_v_t_k_1_1vtk_object.html" target="_top" xlink:title="vtkObject &#45; abstract base class for most VTK objects">
<polygon fill="none" stroke="black" points="95,-181 95,-201 157,-201 157,-181 95,-181"/>
<text text-anchor="middle" x="126" y="-188" font-family="FreeSans" font-size="10.00">vtkObject</text>
</a>
</g>
<!-- Node4&#45;&gt;Node3 -->
<g id="edge6" class="edge"><title>Node4&#45;&gt;Node3</title>
<path fill="none" stroke="midnightblue" d="M126,-170.516C126,-160.562 126,-149.05 126,-141.028"/>
<polygon fill="midnightblue" stroke="midnightblue" points="122.5,-170.822 126,-180.822 129.5,-170.822 122.5,-170.822"/>
</g>
<!-- Node5 -->
<g id="node8" class="node"><title>Node5</title>
<a xlink:href="class_kitware_1_1_v_t_k_1_1vtk_object_base.html" target="_top" xlink:title="vtkObjectBase &#45; abstract base class for most VTK objects">
<polygon fill="none" stroke="black" points="146,-621 146,-641 232,-641 232,-621 146,-621"/>
<text text-anchor="middle" x="189" y="-628" font-family="FreeSans" font-size="10.00">vtkObjectBase</text>
</a>
</g>
<!-- Node5&#45;&gt;Node4 -->
<g id="edge8" class="edge"><title>Node5&#45;&gt;Node4</title>
<path fill="none" stroke="midnightblue" d="M160.423,-615.886C146.687,-607.44 130.884,-595.826 120,-582 108.156,-566.955 107.621,-560.802 104,-542 78.4248,-409.199 113.577,-243.437 123.516,-201.17"/>
<polygon fill="midnightblue" stroke="midnightblue" points="158.683,-618.923 169.079,-620.97 162.229,-612.887 158.683,-618.923"/>
</g>
<!-- Node8 -->
<g id="node15" class="node"><title>Node8</title>
<a xlink:href="class_kitware_1_1_v_t_k_1_1vtk_object.html" target="_top" xlink:title="vtkObject &#45; abstract base class for most VTK objects">
<polygon fill="none" stroke="black" points="129,-561 129,-581 249,-581 249,-561 129,-561"/>
<text text-anchor="middle" x="189" y="-568" font-family="FreeSans" font-size="10.00">Kitware.VTK.vtkObject</text>
</a>
</g>
<!-- Node5&#45;&gt;Node8 -->
<g id="edge18" class="edge"><title>Node5&#45;&gt;Node8</title>
<path fill="none" stroke="midnightblue" d="M189,-610.516C189,-600.562 189,-589.05 189,-581.028"/>
<polygon fill="midnightblue" stroke="midnightblue" points="185.5,-610.822 189,-620.822 192.5,-610.822 185.5,-610.822"/>
</g>
<!-- Node6 -->
<g id="node10" class="node"><title>Node6</title>
<a xlink:href="class_kitware_1_1_v_t_k_1_1_wrapped_object.html" target="_top" xlink:title="Base class for all the mummy wrapped classes in Kitware.VTK.">
<polygon fill="none" stroke="black" points="327.5,-681 327.5,-701 416.5,-701 416.5,-681 327.5,-681"/>
<text text-anchor="middle" x="372" y="-688" font-family="FreeSans" font-size="10.00">WrappedObject</text>
</a>
</g>
<!-- Node6&#45;&gt;Node5 -->
<g id="edge10" class="edge"><title>Node6&#45;&gt;Node5</title>
<path fill="none" stroke="midnightblue" d="M331.804,-677.821C298.042,-666.752 250.512,-651.168 219.73,-641.075"/>
<polygon fill="midnightblue" stroke="midnightblue" points="330.777,-681.168 341.37,-680.957 332.958,-674.516 330.777,-681.168"/>
</g>
<!-- Node7 -->
<g id="node12" class="node"><title>Node7</title>
<a xlink:href="class_kitware_1_1_v_t_k_1_1vtk_object_event_relay.html" target="_top" xlink:title="Implement a relay handler for VTK events. This is a class that receives events directly from the VTK ...">
<polygon fill="none" stroke="black" points="118,-371 118,-391 290,-391 290,-371 118,-371"/>
<text text-anchor="middle" x="204" y="-378" font-family="FreeSans" font-size="10.00">Kitware.VTK.vtkObjectEventRelay</text>
</a>
</g>
<!-- Node6&#45;&gt;Node7 -->
<g id="edge14" class="edge"><title>Node6&#45;&gt;Node7</title>
<path fill="none" stroke="midnightblue" d="M384.888,-672.325C417.276,-622.899 494.803,-487.191 427,-410 417.773,-399.495 349.047,-391.666 290.298,-386.808"/>
<polygon fill="midnightblue" stroke="midnightblue" points="381.891,-670.509 379.239,-680.767 387.709,-674.402 381.891,-670.509"/>
</g>
<!-- Node7&#45;&gt;Node4 -->
<g id="edge12" class="edge"><title>Node7&#45;&gt;Node4</title>
<path fill="none" stroke="#9a32cd" stroke-dasharray="5,2" d="M195.921,-361.321C179.489,-321.293 142.674,-231.616 130.214,-201.266"/>
<polygon fill="#9a32cd" stroke="#9a32cd" points="192.771,-362.863 199.806,-370.785 199.246,-360.205 192.771,-362.863"/>
<text text-anchor="middle" x="303.5" y="-343" font-family="FreeSans" font-size="10.00"> LeftButtonReleaseEvtRelay</text>
<text text-anchor="middle" x="303.5" y="-331" font-family="FreeSans" font-size="10.00">KeyPressEvtRelay</text>
<text text-anchor="middle" x="303.5" y="-319" font-family="FreeSans" font-size="10.00">DomainModifiedEvtRelay</text>
<text text-anchor="middle" x="303.5" y="-307" font-family="FreeSans" font-size="10.00">VolumeMapperComputeGradientsStartEvtRelay</text>
<text text-anchor="middle" x="303.5" y="-295" font-family="FreeSans" font-size="10.00">ErrorEvtRelay</text>
<text text-anchor="middle" x="303.5" y="-283" font-family="FreeSans" font-size="10.00">VolumeMapperRenderStartEvtRelay</text>
<text text-anchor="middle" x="303.5" y="-271" font-family="FreeSans" font-size="10.00">StartEvtRelay</text>
<text text-anchor="middle" x="303.5" y="-259" font-family="FreeSans" font-size="10.00">ResetCameraEvtRelay</text>
<text text-anchor="middle" x="303.5" y="-247" font-family="FreeSans" font-size="10.00">EnableEvtRelay</text>
<text text-anchor="middle" x="303.5" y="-235" font-family="FreeSans" font-size="10.00">DeleteEvtRelay</text>
<text text-anchor="middle" x="303.5" y="-223" font-family="FreeSans" font-size="10.00">...</text>
</g>
<!-- Node7&#45;&gt;Node8 -->
<g id="edge20" class="edge"><title>Node7&#45;&gt;Node8</title>
<path fill="none" stroke="#9a32cd" stroke-dasharray="5,2" d="M201.028,-401.231C200.649,-404.169 200.293,-407.159 200,-410 194.144,-466.853 190.636,-535.333 189.452,-560.807"/>
<polygon fill="#9a32cd" stroke="#9a32cd" points="204.515,-401.565 202.421,-391.179 197.582,-400.604 204.515,-401.565"/>
<text text-anchor="middle" x="313.5" y="-533" font-family="FreeSans" font-size="10.00"> LeftButtonReleaseEvtRelay</text>
<text text-anchor="middle" x="313.5" y="-521" font-family="FreeSans" font-size="10.00">KeyPressEvtRelay</text>
<text text-anchor="middle" x="313.5" y="-509" font-family="FreeSans" font-size="10.00">DomainModifiedEvtRelay</text>
<text text-anchor="middle" x="313.5" y="-497" font-family="FreeSans" font-size="10.00">VolumeMapperComputeGradientsStartEvtRelay</text>
<text text-anchor="middle" x="313.5" y="-485" font-family="FreeSans" font-size="10.00">ErrorEvtRelay</text>
<text text-anchor="middle" x="313.5" y="-473" font-family="FreeSans" font-size="10.00">VolumeMapperRenderStartEvtRelay</text>
<text text-anchor="middle" x="313.5" y="-461" font-family="FreeSans" font-size="10.00">StartEvtRelay</text>
<text text-anchor="middle" x="313.5" y="-449" font-family="FreeSans" font-size="10.00">ResetCameraEvtRelay</text>
<text text-anchor="middle" x="313.5" y="-437" font-family="FreeSans" font-size="10.00">EnableEvtRelay</text>
<text text-anchor="middle" x="313.5" y="-425" font-family="FreeSans" font-size="10.00">DeleteEvtRelay</text>
<text text-anchor="middle" x="313.5" y="-413" font-family="FreeSans" font-size="10.00">...</text>
</g>
<!-- Node8&#45;&gt;Node7 -->
<g id="edge16" class="edge"><title>Node8&#45;&gt;Node7</title>
<path fill="none" stroke="#9a32cd" stroke-dasharray="5,2" d="M142.979,-555.818C137.439,-552.138 132.51,-547.596 129,-542 97.8229,-492.303 95.8299,-458.389 129,-410 133.736,-403.091 150.511,-396.287 166.999,-391.008"/>
<polygon fill="#9a32cd" stroke="#9a32cd" points="141.639,-559.079 152.072,-560.919 145.064,-552.974 141.639,-559.079"/>
<text text-anchor="middle" x="153" y="-479" font-family="FreeSans" font-size="10.00"> Sender</text>
<text text-anchor="middle" x="153" y="-467" font-family="FreeSans" font-size="10.00">EventImpl</text>
</g>
</g>
</svg>
