<?xml version="1.0" encoding="UTF-8" standalone="no"?>
<!DOCTYPE svg PUBLIC "-//W3C//DTD SVG 1.1//EN"
 "http://www.w3.org/Graphics/SVG/1.1/DTD/svg11.dtd">
<!-- Generated by graphviz version 2.26.3 (20100126.1600)
 -->
<!-- Title: G Pages: 1 -->
<svg width="452pt" height="650pt"
 viewBox="0.00 0.00 452.46 650.00" xmlns="http://www.w3.org/2000/svg" xmlns:xlink="http://www.w3.org/1999/xlink">
<g id="graph1" class="graph" transform="scale(1 1) rotate(0) translate(4 646)">
<title>G</title>
<!-- Node1 -->
<g id="node1" class="node"><title>Node1</title>
<polygon fill="#bfbfbf" stroke="black" points="0,-1 0,-21 232,-21 232,-1 0,-1"/>
<text text-anchor="middle" x="116" y="-8" font-family="FreeSans" font-size="10.00">Kitware.VTK.vtkLinearContourLineInterpolator</text>
</g>
<!-- Node2 -->
<g id="node2" class="node"><title>Node2</title>
<a xlink:href="class_kitware_1_1_v_t_k_1_1vtk_contour_line_interpolator.html" target="_top" xlink:title="vtkContourLineInterpolator &#45; Defines API for interpolating/modifying nodes from a vtkContourRepresent...">
<polygon fill="none" stroke="black" points="44,-61 44,-81 188,-81 188,-61 44,-61"/>
<text text-anchor="middle" x="116" y="-68" font-family="FreeSans" font-size="10.00">vtkContourLineInterpolator</text>
</a>
</g>
<!-- Node2&#45;&gt;Node1 -->
<g id="edge2" class="edge"><title>Node2&#45;&gt;Node1</title>
<path fill="none" stroke="midnightblue" d="M116,-50.5155C116,-40.562 116,-29.0495 116,-21.0279"/>
<polygon fill="midnightblue" stroke="midnightblue" points="112.5,-50.8218 116,-60.8218 119.5,-50.8219 112.5,-50.8218"/>
</g>
<!-- Node3 -->
<g id="node4" class="node"><title>Node3</title>
<a xlink:href="class_kitware_1_1_v_t_k_1_1vtk_object.html" target="_top" xlink:title="vtkObject &#45; abstract base class for most VTK objects">
<polygon fill="none" stroke="black" points="85,-121 85,-141 147,-141 147,-121 85,-121"/>
<text text-anchor="middle" x="116" y="-128" font-family="FreeSans" font-size="10.00">vtkObject</text>
</a>
</g>
<!-- Node3&#45;&gt;Node2 -->
<g id="edge4" class="edge"><title>Node3&#45;&gt;Node2</title>
<path fill="none" stroke="midnightblue" d="M116,-110.516C116,-100.562 116,-89.0495 116,-81.0279"/>
<polygon fill="midnightblue" stroke="midnightblue" points="112.5,-110.822 116,-120.822 119.5,-110.822 112.5,-110.822"/>
</g>
<!-- Node4 -->
<g id="node6" class="node"><title>Node4</title>
<a xlink:href="class_kitware_1_1_v_t_k_1_1vtk_object_base.html" target="_top" xlink:title="vtkObjectBase &#45; abstract base class for most VTK objects">
<polygon fill="none" stroke="black" points="136,-561 136,-581 222,-581 222,-561 136,-561"/>
<text text-anchor="middle" x="179" y="-568" font-family="FreeSans" font-size="10.00">vtkObjectBase</text>
</a>
</g>
<!-- Node4&#45;&gt;Node3 -->
<g id="edge6" class="edge"><title>Node4&#45;&gt;Node3</title>
<path fill="none" stroke="midnightblue" d="M150.423,-555.886C136.687,-547.44 120.884,-535.826 110,-522 98.1564,-506.955 97.6209,-500.802 94,-482 68.4248,-349.199 103.577,-183.437 113.516,-141.17"/>
<polygon fill="midnightblue" stroke="midnightblue" points="148.683,-558.923 159.079,-560.97 152.229,-552.887 148.683,-558.923"/>
</g>
<!-- Node7 -->
<g id="node13" class="node"><title>Node7</title>
<a xlink:href="class_kitware_1_1_v_t_k_1_1vtk_object.html" target="_top" xlink:title="vtkObject &#45; abstract base class for most VTK objects">
<polygon fill="none" stroke="black" points="119,-501 119,-521 239,-521 239,-501 119,-501"/>
<text text-anchor="middle" x="179" y="-508" font-family="FreeSans" font-size="10.00">Kitware.VTK.vtkObject</text>
</a>
</g>
<!-- Node4&#45;&gt;Node7 -->
<g id="edge16" class="edge"><title>Node4&#45;&gt;Node7</title>
<path fill="none" stroke="midnightblue" d="M179,-550.516C179,-540.562 179,-529.05 179,-521.028"/>
<polygon fill="midnightblue" stroke="midnightblue" points="175.5,-550.822 179,-560.822 182.5,-550.822 175.5,-550.822"/>
</g>
<!-- Node5 -->
<g id="node8" class="node"><title>Node5</title>
<a xlink:href="class_kitware_1_1_v_t_k_1_1_wrapped_object.html" target="_top" xlink:title="Base class for all the mummy wrapped classes in Kitware.VTK.">
<polygon fill="none" stroke="black" points="317.5,-621 317.5,-641 406.5,-641 406.5,-621 317.5,-621"/>
<text text-anchor="middle" x="362" y="-628" font-family="FreeSans" font-size="10.00">WrappedObject</text>
</a>
</g>
<!-- Node5&#45;&gt;Node4 -->
<g id="edge8" class="edge"><title>Node5&#45;&gt;Node4</title>
<path fill="none" stroke="midnightblue" d="M321.804,-617.821C288.042,-606.752 240.512,-591.168 209.73,-581.075"/>
<polygon fill="midnightblue" stroke="midnightblue" points="320.777,-621.168 331.37,-620.957 322.958,-614.516 320.777,-621.168"/>
</g>
<!-- Node6 -->
<g id="node10" class="node"><title>Node6</title>
<a xlink:href="class_kitware_1_1_v_t_k_1_1vtk_object_event_relay.html" target="_top" xlink:title="Implement a relay handler for VTK events. This is a class that receives events directly from the VTK ...">
<polygon fill="none" stroke="black" points="108,-311 108,-331 280,-331 280,-311 108,-311"/>
<text text-anchor="middle" x="194" y="-318" font-family="FreeSans" font-size="10.00">Kitware.VTK.vtkObjectEventRelay</text>
</a>
</g>
<!-- Node5&#45;&gt;Node6 -->
<g id="edge12" class="edge"><title>Node5&#45;&gt;Node6</title>
<path fill="none" stroke="midnightblue" d="M374.888,-612.325C407.276,-562.899 484.803,-427.191 417,-350 407.773,-339.495 339.047,-331.666 280.298,-326.808"/>
<polygon fill="midnightblue" stroke="midnightblue" points="371.891,-610.509 369.239,-620.767 377.709,-614.402 371.891,-610.509"/>
</g>
<!-- Node6&#45;&gt;Node3 -->
<g id="edge10" class="edge"><title>Node6&#45;&gt;Node3</title>
<path fill="none" stroke="#9a32cd" stroke-dasharray="5,2" d="M185.921,-301.321C169.489,-261.293 132.674,-171.616 120.214,-141.266"/>
<polygon fill="#9a32cd" stroke="#9a32cd" points="182.771,-302.863 189.806,-310.785 189.246,-300.205 182.771,-302.863"/>
<text text-anchor="middle" x="293.5" y="-283" font-family="FreeSans" font-size="10.00"> LeftButtonReleaseEvtRelay</text>
<text text-anchor="middle" x="293.5" y="-271" font-family="FreeSans" font-size="10.00">KeyPressEvtRelay</text>
<text text-anchor="middle" x="293.5" y="-259" font-family="FreeSans" font-size="10.00">DomainModifiedEvtRelay</text>
<text text-anchor="middle" x="293.5" y="-247" font-family="FreeSans" font-size="10.00">VolumeMapperComputeGradientsStartEvtRelay</text>
<text text-anchor="middle" x="293.5" y="-235" font-family="FreeSans" font-size="10.00">ErrorEvtRelay</text>
<text text-anchor="middle" x="293.5" y="-223" font-family="FreeSans" font-size="10.00">VolumeMapperRenderStartEvtRelay</text>
<text text-anchor="middle" x="293.5" y="-211" font-family="FreeSans" font-size="10.00">StartEvtRelay</text>
<text text-anchor="middle" x="293.5" y="-199" font-family="FreeSans" font-size="10.00">ResetCameraEvtRelay</text>
<text text-anchor="middle" x="293.5" y="-187" font-family="FreeSans" font-size="10.00">EnableEvtRelay</text>
<text text-anchor="middle" x="293.5" y="-175" font-family="FreeSans" font-size="10.00">DeleteEvtRelay</text>
<text text-anchor="middle" x="293.5" y="-163" font-family="FreeSans" font-size="10.00">...</text>
</g>
<!-- Node6&#45;&gt;Node7 -->
<g id="edge18" class="edge"><title>Node6&#45;&gt;Node7</title>
<path fill="none" stroke="#9a32cd" stroke-dasharray="5,2" d="M191.028,-341.231C190.649,-344.169 190.293,-347.159 190,-350 184.144,-406.853 180.636,-475.333 179.452,-500.807"/>
<polygon fill="#9a32cd" stroke="#9a32cd" points="194.515,-341.565 192.421,-331.179 187.582,-340.604 194.515,-341.565"/>
<text text-anchor="middle" x="303.5" y="-473" font-family="FreeSans" font-size="10.00"> LeftButtonReleaseEvtRelay</text>
<text text-anchor="middle" x="303.5" y="-461" font-family="FreeSans" font-size="10.00">KeyPressEvtRelay</text>
<text text-anchor="middle" x="303.5" y="-449" font-family="FreeSans" font-size="10.00">DomainModifiedEvtRelay</text>
<text text-anchor="middle" x="303.5" y="-437" font-family="FreeSans" font-size="10.00">VolumeMapperComputeGradientsStartEvtRelay</text>
<text text-anchor="middle" x="303.5" y="-425" font-family="FreeSans" font-size="10.00">ErrorEvtRelay</text>
<text text-anchor="middle" x="303.5" y="-413" font-family="FreeSans" font-size="10.00">VolumeMapperRenderStartEvtRelay</text>
<text text-anchor="middle" x="303.5" y="-401" font-family="FreeSans" font-size="10.00">StartEvtRelay</text>
<text text-anchor="middle" x="303.5" y="-389" font-family="FreeSans" font-size="10.00">ResetCameraEvtRelay</text>
<text text-anchor="middle" x="303.5" y="-377" font-family="FreeSans" font-size="10.00">EnableEvtRelay</text>
<text text-anchor="middle" x="303.5" y="-365" font-family="FreeSans" font-size="10.00">DeleteEvtRelay</text>
<text text-anchor="middle" x="303.5" y="-353" font-family="FreeSans" font-size="10.00">...</text>
</g>
<!-- Node7&#45;&gt;Node6 -->
<g id="edge14" class="edge"><title>Node7&#45;&gt;Node6</title>
<path fill="none" stroke="#9a32cd" stroke-dasharray="5,2" d="M132.979,-495.818C127.439,-492.138 122.51,-487.596 119,-482 87.8229,-432.303 85.8299,-398.389 119,-350 123.736,-343.091 140.511,-336.287 156.999,-331.008"/>
<polygon fill="#9a32cd" stroke="#9a32cd" points="131.639,-499.079 142.072,-500.919 135.064,-492.974 131.639,-499.079"/>
<text text-anchor="middle" x="143" y="-419" font-family="FreeSans" font-size="10.00"> Sender</text>
<text text-anchor="middle" x="143" y="-407" font-family="FreeSans" font-size="10.00">EventImpl</text>
</g>
</g>
</svg>
