<?xml version="1.0" encoding="UTF-8" standalone="no"?>
<!DOCTYPE svg PUBLIC "-//W3C//DTD SVG 1.1//EN"
 "http://www.w3.org/Graphics/SVG/1.1/DTD/svg11.dtd">
<!-- Generated by graphviz version 2.26.3 (20100126.1600)
 -->
<!-- Title: G Pages: 1 -->
<svg width="312pt" height="436pt"
 viewBox="0.00 0.00 312.00 436.00" xmlns="http://www.w3.org/2000/svg" xmlns:xlink="http://www.w3.org/1999/xlink">
<g id="graph1" class="graph" transform="scale(1 1) rotate(0) translate(4 432)">
<title>G</title>
<!-- Node1 -->
<g id="node1" class="node"><title>Node1</title>
<polygon fill="#bfbfbf" stroke="black" points="96,-117 96,-137 214,-137 214,-117 96,-117"/>
<text text-anchor="middle" x="155" y="-124" font-family="FreeSans" font-size="10.00">Kitware.VTK.vtkPicker</text>
</g>
<!-- Node7 -->
<g id="node13" class="node"><title>Node7</title>
<a xlink:href="class_kitware_1_1_v_t_k_1_1vtk_cell_picker.html" target="_top" xlink:title="vtkCellPicker &#45; ray&#45;cast cell picker for all kinds of Prop3Ds">
<polygon fill="none" stroke="black" points="9.5,-59 9.5,-79 144.5,-79 144.5,-59 9.5,-59"/>
<text text-anchor="middle" x="77" y="-66" font-family="FreeSans" font-size="10.00">Kitware.VTK.vtkCellPicker</text>
</a>
</g>
<!-- Node1&#45;&gt;Node7 -->
<g id="edge12" class="edge"><title>Node1&#45;&gt;Node7</title>
<path fill="none" stroke="midnightblue" d="M133.061,-110.687C119.455,-100.569 102.397,-87.8852 90.6926,-79.1817"/>
<polygon fill="midnightblue" stroke="midnightblue" points="131.3,-113.739 141.413,-116.897 135.477,-108.121 131.3,-113.739"/>
</g>
<!-- Node9 -->
<g id="node17" class="node"><title>Node9</title>
<a xlink:href="class_kitware_1_1_v_t_k_1_1vtk_point_picker.html" target="_top" xlink:title="vtkPointPicker &#45; select a point by shooting a ray into a graphics window">
<polygon fill="none" stroke="black" points="162,-59 162,-79 304,-79 304,-59 162,-59"/>
<text text-anchor="middle" x="233" y="-66" font-family="FreeSans" font-size="10.00">Kitware.VTK.vtkPointPicker</text>
</a>
</g>
<!-- Node1&#45;&gt;Node9 -->
<g id="edge16" class="edge"><title>Node1&#45;&gt;Node9</title>
<path fill="none" stroke="midnightblue" d="M176.939,-110.687C190.545,-100.569 207.603,-87.8852 219.307,-79.1817"/>
<polygon fill="midnightblue" stroke="midnightblue" points="174.523,-108.121 168.587,-116.897 178.7,-113.739 174.523,-108.121"/>
</g>
<!-- Node2 -->
<g id="node2" class="node"><title>Node2</title>
<a xlink:href="class_kitware_1_1_v_t_k_1_1vtk_abstract_prop_picker.html" target="_top" xlink:title="vtkAbstractPropPicker &#45; abstract API for pickers that can pick an instance of vtkProp">
<polygon fill="none" stroke="black" points="94,-175 94,-195 216,-195 216,-175 94,-175"/>
<text text-anchor="middle" x="155" y="-182" font-family="FreeSans" font-size="10.00">vtkAbstractPropPicker</text>
</a>
</g>
<!-- Node2&#45;&gt;Node1 -->
<g id="edge2" class="edge"><title>Node2&#45;&gt;Node1</title>
<path fill="none" stroke="midnightblue" d="M155,-164.89C155,-155.62 155,-145.008 155,-137.378"/>
<polygon fill="midnightblue" stroke="midnightblue" points="151.5,-164.897 155,-174.897 158.5,-164.897 151.5,-164.897"/>
</g>
<!-- Node3 -->
<g id="node4" class="node"><title>Node3</title>
<a xlink:href="class_kitware_1_1_v_t_k_1_1vtk_abstract_picker.html" target="_top" xlink:title="vtkAbstractPicker &#45; define API for picking subclasses">
<polygon fill="none" stroke="black" points="105,-233 105,-253 205,-253 205,-233 105,-233"/>
<text text-anchor="middle" x="155" y="-240" font-family="FreeSans" font-size="10.00">vtkAbstractPicker</text>
</a>
</g>
<!-- Node3&#45;&gt;Node2 -->
<g id="edge4" class="edge"><title>Node3&#45;&gt;Node2</title>
<path fill="none" stroke="midnightblue" d="M155,-222.89C155,-213.62 155,-203.008 155,-195.378"/>
<polygon fill="midnightblue" stroke="midnightblue" points="151.5,-222.897 155,-232.897 158.5,-222.897 151.5,-222.897"/>
</g>
<!-- Node4 -->
<g id="node6" class="node"><title>Node4</title>
<a xlink:href="class_kitware_1_1_v_t_k_1_1vtk_object.html" target="_top" xlink:title="vtkObject &#45; abstract base class for most VTK objects">
<polygon fill="none" stroke="black" points="124,-291 124,-311 186,-311 186,-291 124,-291"/>
<text text-anchor="middle" x="155" y="-298" font-family="FreeSans" font-size="10.00">vtkObject</text>
</a>
</g>
<!-- Node4&#45;&gt;Node3 -->
<g id="edge6" class="edge"><title>Node4&#45;&gt;Node3</title>
<path fill="none" stroke="midnightblue" d="M155,-280.89C155,-271.62 155,-261.008 155,-253.378"/>
<polygon fill="midnightblue" stroke="midnightblue" points="151.5,-280.897 155,-290.897 158.5,-280.897 151.5,-280.897"/>
</g>
<!-- Node5 -->
<g id="node8" class="node"><title>Node5</title>
<a xlink:href="class_kitware_1_1_v_t_k_1_1vtk_object_base.html" target="_top" xlink:title="vtkObjectBase &#45; abstract base class for most VTK objects">
<polygon fill="none" stroke="black" points="112,-349 112,-369 198,-369 198,-349 112,-349"/>
<text text-anchor="middle" x="155" y="-356" font-family="FreeSans" font-size="10.00">vtkObjectBase</text>
</a>
</g>
<!-- Node5&#45;&gt;Node4 -->
<g id="edge8" class="edge"><title>Node5&#45;&gt;Node4</title>
<path fill="none" stroke="midnightblue" d="M155,-338.89C155,-329.62 155,-319.008 155,-311.378"/>
<polygon fill="midnightblue" stroke="midnightblue" points="151.5,-338.897 155,-348.897 158.5,-338.897 151.5,-338.897"/>
</g>
<!-- Node6 -->
<g id="node10" class="node"><title>Node6</title>
<a xlink:href="class_kitware_1_1_v_t_k_1_1_wrapped_object.html" target="_top" xlink:title="Base class for all the mummy wrapped classes in Kitware.VTK.">
<polygon fill="none" stroke="black" points="110.5,-407 110.5,-427 199.5,-427 199.5,-407 110.5,-407"/>
<text text-anchor="middle" x="155" y="-414" font-family="FreeSans" font-size="10.00">WrappedObject</text>
</a>
</g>
<!-- Node6&#45;&gt;Node5 -->
<g id="edge10" class="edge"><title>Node6&#45;&gt;Node5</title>
<path fill="none" stroke="midnightblue" d="M155,-396.89C155,-387.62 155,-377.008 155,-369.378"/>
<polygon fill="midnightblue" stroke="midnightblue" points="151.5,-396.897 155,-406.897 158.5,-396.897 151.5,-396.897"/>
</g>
<!-- Node8 -->
<g id="node15" class="node"><title>Node8</title>
<a xlink:href="class_kitware_1_1_v_t_k_1_1vtk_volume_picker.html" target="_top" xlink:title="vtkVolumePicker &#45; ray&#45;cast picker enhanced for volumes">
<polygon fill="none" stroke="black" points="0,-1 0,-21 154,-21 154,-1 0,-1"/>
<text text-anchor="middle" x="77" y="-8" font-family="FreeSans" font-size="10.00">Kitware.VTK.vtkVolumePicker</text>
</a>
</g>
<!-- Node7&#45;&gt;Node8 -->
<g id="edge14" class="edge"><title>Node7&#45;&gt;Node8</title>
<path fill="none" stroke="midnightblue" d="M77,-48.8902C77,-39.6201 77,-29.0083 77,-21.3776"/>
<polygon fill="midnightblue" stroke="midnightblue" points="73.5001,-48.8971 77,-58.8972 80.5001,-48.8972 73.5001,-48.8971"/>
</g>
</g>
</svg>
