<?xml version="1.0" encoding="UTF-8" standalone="no"?>
<!DOCTYPE svg PUBLIC "-//W3C//DTD SVG 1.1//EN"
 "http://www.w3.org/Graphics/SVG/1.1/DTD/svg11.dtd">
<!-- Generated by graphviz version 2.26.3 (20100126.1600)
 -->
<!-- Title: G Pages: 1 -->
<svg width="940pt" height="940pt"
 viewBox="0.00 0.00 940.00 940.00" xmlns="http://www.w3.org/2000/svg" xmlns:xlink="http://www.w3.org/1999/xlink">
<g id="graph1" class="graph" transform="scale(1 1) rotate(0) translate(4 936)">
<title>G</title>
<!-- Node1 -->
<g id="node1" class="node"><title>Node1</title>
<polygon fill="#bfbfbf" stroke="black" points="346.5,-228 346.5,-248 453.5,-248 453.5,-228 346.5,-228"/>
<text text-anchor="middle" x="400" y="-235" font-family="FreeSans" font-size="10.00">Kitware.VTK.vtkCell</text>
</g>
<!-- Node5 -->
<g id="node9" class="node"><title>Node5</title>
<a xlink:href="class_kitware_1_1_v_t_k_1_1vtk_cell3_d.html" target="_top" xlink:title="vtkCell3D &#45; abstract class to specify 3D cell interface">
<polygon fill="none" stroke="black" points="508,-741 508,-761 628,-761 628,-741 508,-741"/>
<text text-anchor="middle" x="568" y="-748" font-family="FreeSans" font-size="10.00">Kitware.VTK.vtkCell3D</text>
</a>
</g>
<!-- Node1&#45;&gt;Node5 -->
<g id="edge8" class="edge"><title>Node1&#45;&gt;Node5</title>
<path fill="none" stroke="midnightblue" d="M406.477,-257.777C434.398,-343.035 543.991,-677.686 564.636,-740.728"/>
<polygon fill="midnightblue" stroke="midnightblue" points="409.794,-256.661 403.356,-248.247 403.142,-258.84 409.794,-256.661"/>
</g>
<!-- Node15 -->
<g id="node29" class="node"><title>Node15</title>
<a xlink:href="class_kitware_1_1_v_t_k_1_1vtk_empty_cell.html" target="_top" xlink:title="vtkEmptyCell &#45; an empty cell used as a place&#45;holder during processing">
<polygon fill="none" stroke="black" points="499.5,-418 499.5,-438 636.5,-438 636.5,-418 499.5,-418"/>
<text text-anchor="middle" x="568" y="-425" font-family="FreeSans" font-size="10.00">Kitware.VTK.vtkEmptyCell</text>
</a>
</g>
<!-- Node1&#45;&gt;Node15 -->
<g id="edge28" class="edge"><title>Node1&#45;&gt;Node15</title>
<path fill="none" stroke="midnightblue" d="M404.794,-258.24C414.43,-294.339 439.665,-369.722 490,-409 494.615,-412.601 499.815,-415.532 505.284,-417.916"/>
<polygon fill="midnightblue" stroke="midnightblue" points="408.144,-257.214 402.293,-248.381 401.359,-258.935 408.144,-257.214"/>
</g>
<!-- Node16 -->
<g id="node31" class="node"><title>Node16</title>
<a xlink:href="class_kitware_1_1_v_t_k_1_1vtk_generic_cell.html" target="_top" xlink:title="vtkGenericCell &#45; provides thread&#45;safe access to cells">
<polygon fill="none" stroke="black" points="496.5,-380 496.5,-400 639.5,-400 639.5,-380 496.5,-380"/>
<text text-anchor="middle" x="568" y="-387" font-family="FreeSans" font-size="10.00">Kitware.VTK.vtkGenericCell</text>
</a>
</g>
<!-- Node1&#45;&gt;Node16 -->
<g id="edge30" class="edge"><title>Node1&#45;&gt;Node16</title>
<path fill="none" stroke="midnightblue" d="M407.834,-257.807C420.519,-287.224 448.406,-342.089 490,-371 495.15,-374.58 500.9,-377.488 506.879,-379.85"/>
<polygon fill="midnightblue" stroke="midnightblue" points="410.918,-256.108 403.851,-248.215 404.454,-258.793 410.918,-256.108"/>
</g>
<!-- Node17 -->
<g id="node33" class="node"><title>Node17</title>
<a xlink:href="class_kitware_1_1_v_t_k_1_1vtk_line.html" target="_top" xlink:title="vtkLine &#45; cell represents a 1D line">
<polygon fill="none" stroke="black" points="513.5,-342 513.5,-362 622.5,-362 622.5,-342 513.5,-342"/>
<text text-anchor="middle" x="568" y="-349" font-family="FreeSans" font-size="10.00">Kitware.VTK.vtkLine</text>
</a>
</g>
<!-- Node1&#45;&gt;Node17 -->
<g id="edge32" class="edge"><title>Node1&#45;&gt;Node17</title>
<path fill="none" stroke="midnightblue" d="M412.404,-256.494C427.95,-278.19 456.641,-313.648 490,-333 497.113,-337.126 505.09,-340.36 513.156,-342.893"/>
<polygon fill="midnightblue" stroke="midnightblue" points="415.161,-254.328 406.571,-248.126 409.418,-258.331 415.161,-254.328"/>
</g>
<!-- Node18 -->
<g id="node35" class="node"><title>Node18</title>
<a xlink:href="class_kitware_1_1_v_t_k_1_1vtk_non_linear_cell.html" target="_top" xlink:title="vtkNonLinearCell &#45; abstract superclass for non&#45;linear cells">
<polygon fill="none" stroke="black" points="490.5,-304 490.5,-324 645.5,-324 645.5,-304 490.5,-304"/>
<text text-anchor="middle" x="568" y="-311" font-family="FreeSans" font-size="10.00">Kitware.VTK.vtkNonLinearCell</text>
</a>
</g>
<!-- Node1&#45;&gt;Node18 -->
<g id="edge34" class="edge"><title>Node1&#45;&gt;Node18</title>
<path fill="none" stroke="midnightblue" d="M421.33,-254.336C438.903,-267.077 464.922,-284.346 490,-295 498.338,-298.543 507.471,-301.511 516.456,-303.969"/>
<polygon fill="midnightblue" stroke="midnightblue" points="423.081,-251.278 412.96,-248.144 418.918,-256.905 423.081,-251.278"/>
</g>
<!-- Node35 -->
<g id="node69" class="node"><title>Node35</title>
<a xlink:href="class_kitware_1_1_v_t_k_1_1vtk_pixel.html" target="_top" xlink:title="vtkPixel &#45; a cell that represents an orthogonal quadrilateral">
<polygon fill="none" stroke="black" points="512.5,-266 512.5,-286 623.5,-286 623.5,-266 512.5,-266"/>
<text text-anchor="middle" x="568" y="-273" font-family="FreeSans" font-size="10.00">Kitware.VTK.vtkPixel</text>
</a>
</g>
<!-- Node1&#45;&gt;Node35 -->
<g id="edge68" class="edge"><title>Node1&#45;&gt;Node35</title>
<path fill="none" stroke="midnightblue" d="M454.578,-250.345C476.883,-255.39 502.356,-261.152 523.504,-265.935"/>
<polygon fill="midnightblue" stroke="midnightblue" points="455.106,-246.876 444.58,-248.084 453.561,-253.704 455.106,-246.876"/>
</g>
<!-- Node36 -->
<g id="node71" class="node"><title>Node36</title>
<a xlink:href="class_kitware_1_1_v_t_k_1_1vtk_polygon.html" target="_top" xlink:title="vtkPolygon &#45; a cell that represents an n&#45;sided polygon">
<polygon fill="none" stroke="black" points="504.5,-228 504.5,-248 631.5,-248 631.5,-228 504.5,-228"/>
<text text-anchor="middle" x="568" y="-235" font-family="FreeSans" font-size="10.00">Kitware.VTK.vtkPolygon</text>
</a>
</g>
<!-- Node1&#45;&gt;Node36 -->
<g id="edge70" class="edge"><title>Node1&#45;&gt;Node36</title>
<path fill="none" stroke="midnightblue" d="M463.639,-238C476.96,-238 491.007,-238 504.329,-238"/>
<polygon fill="midnightblue" stroke="midnightblue" points="463.618,-234.5 453.618,-238 463.618,-241.5 463.618,-234.5"/>
</g>
<!-- Node37 -->
<g id="node73" class="node"><title>Node37</title>
<a xlink:href="class_kitware_1_1_v_t_k_1_1vtk_poly_line.html" target="_top" xlink:title="vtkPolyLine &#45; cell represents a set of 1D lines">
<polygon fill="none" stroke="black" points="504,-190 504,-210 632,-210 632,-190 504,-190"/>
<text text-anchor="middle" x="568" y="-197" font-family="FreeSans" font-size="10.00">Kitware.VTK.vtkPolyLine</text>
</a>
</g>
<!-- Node1&#45;&gt;Node37 -->
<g id="edge72" class="edge"><title>Node1&#45;&gt;Node37</title>
<path fill="none" stroke="midnightblue" d="M454.578,-225.655C476.883,-220.61 502.356,-214.848 523.504,-210.065"/>
<polygon fill="midnightblue" stroke="midnightblue" points="453.561,-222.296 444.58,-227.916 455.106,-229.124 453.561,-222.296"/>
</g>
<!-- Node38 -->
<g id="node75" class="node"><title>Node38</title>
<a xlink:href="class_kitware_1_1_v_t_k_1_1vtk_poly_vertex.html" target="_top" xlink:title="vtkPolyVertex &#45; cell represents a set of 0D vertices">
<polygon fill="none" stroke="black" points="498,-152 498,-172 638,-172 638,-152 498,-152"/>
<text text-anchor="middle" x="568" y="-159" font-family="FreeSans" font-size="10.00">Kitware.VTK.vtkPolyVertex</text>
</a>
</g>
<!-- Node1&#45;&gt;Node38 -->
<g id="edge74" class="edge"><title>Node1&#45;&gt;Node38</title>
<path fill="none" stroke="midnightblue" d="M421.33,-221.664C438.903,-208.923 464.922,-191.654 490,-181 498.338,-177.457 507.471,-174.489 516.456,-172.031"/>
<polygon fill="midnightblue" stroke="midnightblue" points="418.918,-219.095 412.96,-227.856 423.081,-224.722 418.918,-219.095"/>
</g>
<!-- Node39 -->
<g id="node77" class="node"><title>Node39</title>
<a xlink:href="class_kitware_1_1_v_t_k_1_1vtk_quad.html" target="_top" xlink:title="vtkQuad &#45; a cell that represents a 2D quadrilateral">
<polygon fill="none" stroke="black" points="510.5,-114 510.5,-134 625.5,-134 625.5,-114 510.5,-114"/>
<text text-anchor="middle" x="568" y="-121" font-family="FreeSans" font-size="10.00">Kitware.VTK.vtkQuad</text>
</a>
</g>
<!-- Node1&#45;&gt;Node39 -->
<g id="edge76" class="edge"><title>Node1&#45;&gt;Node39</title>
<path fill="none" stroke="midnightblue" d="M412.404,-219.506C427.95,-197.81 456.641,-162.352 490,-143 496.269,-139.363 503.21,-136.42 510.29,-134.038"/>
<polygon fill="midnightblue" stroke="midnightblue" points="409.418,-217.669 406.571,-227.874 415.161,-221.672 409.418,-217.669"/>
</g>
<!-- Node40 -->
<g id="node79" class="node"><title>Node40</title>
<a xlink:href="class_kitware_1_1_v_t_k_1_1vtk_triangle.html" target="_top" xlink:title="vtkTriangle &#45; a cell that represents a triangle">
<polygon fill="none" stroke="black" points="505.5,-76 505.5,-96 630.5,-96 630.5,-76 505.5,-76"/>
<text text-anchor="middle" x="568" y="-83" font-family="FreeSans" font-size="10.00">Kitware.VTK.vtkTriangle</text>
</a>
</g>
<!-- Node1&#45;&gt;Node40 -->
<g id="edge78" class="edge"><title>Node1&#45;&gt;Node40</title>
<path fill="none" stroke="midnightblue" d="M407.834,-218.193C420.519,-188.776 448.406,-133.911 490,-105 495.15,-101.42 500.9,-98.5121 506.879,-96.1498"/>
<polygon fill="midnightblue" stroke="midnightblue" points="404.454,-217.207 403.851,-227.785 410.918,-219.892 404.454,-217.207"/>
</g>
<!-- Node41 -->
<g id="node81" class="node"><title>Node41</title>
<a xlink:href="class_kitware_1_1_v_t_k_1_1vtk_triangle_strip.html" target="_top" xlink:title="vtkTriangleStrip &#45; a cell that represents a triangle strip">
<polygon fill="none" stroke="black" points="494,-38 494,-58 642,-58 642,-38 494,-38"/>
<text text-anchor="middle" x="568" y="-45" font-family="FreeSans" font-size="10.00">Kitware.VTK.vtkTriangleStrip</text>
</a>
</g>
<!-- Node1&#45;&gt;Node41 -->
<g id="edge80" class="edge"><title>Node1&#45;&gt;Node41</title>
<path fill="none" stroke="midnightblue" d="M404.794,-217.76C414.43,-181.661 439.665,-106.278 490,-67 494.615,-63.3988 499.815,-60.4678 505.284,-58.0841"/>
<polygon fill="midnightblue" stroke="midnightblue" points="401.359,-217.065 402.293,-227.619 408.144,-218.786 401.359,-217.065"/>
</g>
<!-- Node42 -->
<g id="node83" class="node"><title>Node42</title>
<a xlink:href="class_kitware_1_1_v_t_k_1_1vtk_vertex.html" target="_top" xlink:title="vtkVertex &#45; a cell that represents a 3D point">
<polygon fill="none" stroke="black" points="508,-0 508,-20 628,-20 628,-0 508,-0"/>
<text text-anchor="middle" x="568" y="-7" font-family="FreeSans" font-size="10.00">Kitware.VTK.vtkVertex</text>
</a>
</g>
<!-- Node1&#45;&gt;Node42 -->
<g id="edge82" class="edge"><title>Node1&#45;&gt;Node42</title>
<path fill="none" stroke="midnightblue" d="M402.671,-217.781C409.315,-175.863 430.57,-79.2154 490,-29 495.217,-24.5922 501.294,-21.1757 507.711,-18.5325"/>
<polygon fill="midnightblue" stroke="midnightblue" points="399.182,-217.451 401.194,-227.853 406.108,-218.467 399.182,-217.451"/>
</g>
<!-- Node2 -->
<g id="node2" class="node"><title>Node2</title>
<a xlink:href="class_kitware_1_1_v_t_k_1_1vtk_object.html" target="_top" xlink:title="vtkObject &#45; abstract base class for most VTK objects">
<polygon fill="none" stroke="black" points="248,-228 248,-248 310,-248 310,-228 248,-228"/>
<text text-anchor="middle" x="279" y="-235" font-family="FreeSans" font-size="10.00">vtkObject</text>
</a>
</g>
<!-- Node2&#45;&gt;Node1 -->
<g id="edge2" class="edge"><title>Node2&#45;&gt;Node1</title>
<path fill="none" stroke="midnightblue" d="M320.415,-238C328.784,-238 337.695,-238 346.413,-238"/>
<polygon fill="midnightblue" stroke="midnightblue" points="320.161,-234.5 310.161,-238 320.16,-241.5 320.161,-234.5"/>
</g>
<!-- Node3 -->
<g id="node4" class="node"><title>Node3</title>
<a xlink:href="class_kitware_1_1_v_t_k_1_1vtk_object_base.html" target="_top" xlink:title="vtkObjectBase &#45; abstract base class for most VTK objects">
<polygon fill="none" stroke="black" points="126,-228 126,-248 212,-248 212,-228 126,-228"/>
<text text-anchor="middle" x="169" y="-235" font-family="FreeSans" font-size="10.00">vtkObjectBase</text>
</a>
</g>
<!-- Node3&#45;&gt;Node2 -->
<g id="edge4" class="edge"><title>Node3&#45;&gt;Node2</title>
<path fill="none" stroke="midnightblue" d="M222.346,-238C231.091,-238 239.892,-238 247.863,-238"/>
<polygon fill="midnightblue" stroke="midnightblue" points="222.159,-234.5 212.159,-238 222.159,-241.5 222.159,-234.5"/>
</g>
<!-- Node4 -->
<g id="node6" class="node"><title>Node4</title>
<a xlink:href="class_kitware_1_1_v_t_k_1_1_wrapped_object.html" target="_top" xlink:title="Base class for all the mummy wrapped classes in Kitware.VTK.">
<polygon fill="none" stroke="black" points="0.5,-228 0.5,-248 89.5,-248 89.5,-228 0.5,-228"/>
<text text-anchor="middle" x="45" y="-235" font-family="FreeSans" font-size="10.00">WrappedObject</text>
</a>
</g>
<!-- Node4&#45;&gt;Node3 -->
<g id="edge6" class="edge"><title>Node4&#45;&gt;Node3</title>
<path fill="none" stroke="midnightblue" d="M99.8895,-238C108.623,-238 117.548,-238 125.957,-238"/>
<polygon fill="midnightblue" stroke="midnightblue" points="99.7669,-234.5 89.7668,-238 99.7668,-241.5 99.7669,-234.5"/>
</g>
<!-- Node6 -->
<g id="node11" class="node"><title>Node6</title>
<a xlink:href="class_kitware_1_1_v_t_k_1_1vtk_convex_point_set.html" target="_top" xlink:title="vtkConvexPointSet &#45; a 3D cell defined by a set of convex points">
<polygon fill="none" stroke="black" points="724.5,-912 724.5,-932 889.5,-932 889.5,-912 724.5,-912"/>
<text text-anchor="middle" x="807" y="-919" font-family="FreeSans" font-size="10.00">Kitware.VTK.vtkConvexPointSet</text>
</a>
</g>
<!-- Node5&#45;&gt;Node6 -->
<g id="edge10" class="edge"><title>Node5&#45;&gt;Node6</title>
<path fill="none" stroke="midnightblue" d="M576.468,-770.472C592.052,-803.757 628.639,-871.081 682,-903 694.81,-910.662 709.634,-915.595 724.498,-918.707"/>
<polygon fill="midnightblue" stroke="midnightblue" points="579.631,-768.972 572.31,-761.313 573.256,-771.865 579.631,-768.972"/>
</g>
<!-- Node7 -->
<g id="node13" class="node"><title>Node7</title>
<a xlink:href="class_kitware_1_1_v_t_k_1_1vtk_hexagonal_prism.html" target="_top" xlink:title="vtkHexagonalPrism &#45; a 3D cell that represents a prism with hexagonal base">
<polygon fill="none" stroke="black" points="723.5,-874 723.5,-894 890.5,-894 890.5,-874 723.5,-874"/>
<text text-anchor="middle" x="807" y="-881" font-family="FreeSans" font-size="10.00">Kitware.VTK.vtkHexagonalPrism</text>
</a>
</g>
<!-- Node5&#45;&gt;Node7 -->
<g id="edge12" class="edge"><title>Node5&#45;&gt;Node7</title>
<path fill="none" stroke="midnightblue" d="M580.351,-769.252C599.029,-795.247 637.089,-842.293 682,-865 694.733,-871.438 709.058,-875.831 723.347,-878.804"/>
<polygon fill="midnightblue" stroke="midnightblue" points="583.179,-767.189 574.573,-761.01 577.447,-771.207 583.179,-767.189"/>
</g>
<!-- Node8 -->
<g id="node15" class="node"><title>Node8</title>
<a xlink:href="class_kitware_1_1_v_t_k_1_1vtk_hexahedron.html" target="_top" xlink:title="vtkHexahedron &#45; a cell that represents a linear 3D hexahedron">
<polygon fill="none" stroke="black" points="733,-836 733,-856 881,-856 881,-836 733,-836"/>
<text text-anchor="middle" x="807" y="-843" font-family="FreeSans" font-size="10.00">Kitware.VTK.vtkHexahedron</text>
</a>
</g>
<!-- Node5&#45;&gt;Node8 -->
<g id="edge14" class="edge"><title>Node5&#45;&gt;Node8</title>
<path fill="none" stroke="midnightblue" d="M587.066,-767.583C608.583,-785.324 645.381,-812.821 682,-827 697.966,-833.182 715.808,-837.361 732.899,-840.183"/>
<polygon fill="midnightblue" stroke="midnightblue" points="589.247,-764.844 579.341,-761.087 584.742,-770.202 589.247,-764.844"/>
</g>
<!-- Node9 -->
<g id="node17" class="node"><title>Node9</title>
<a xlink:href="class_kitware_1_1_v_t_k_1_1vtk_pentagonal_prism.html" target="_top" xlink:title="vtkPentagonalPrism &#45; a 3D cell that represents a prism with pentagonal base">
<polygon fill="none" stroke="black" points="722,-798 722,-818 892,-818 892,-798 722,-798"/>
<text text-anchor="middle" x="807" y="-805" font-family="FreeSans" font-size="10.00">Kitware.VTK.vtkPentagonalPrism</text>
</a>
</g>
<!-- Node5&#45;&gt;Node9 -->
<g id="edge16" class="edge"><title>Node5&#45;&gt;Node9</title>
<path fill="none" stroke="midnightblue" d="M603.279,-764.497C625.573,-772.591 655.145,-782.533 682,-789 696.512,-792.494 712.134,-795.473 727.252,-797.963"/>
<polygon fill="midnightblue" stroke="midnightblue" points="604.486,-761.212 593.892,-761.043 602.069,-767.781 604.486,-761.212"/>
</g>
<!-- Node10 -->
<g id="node19" class="node"><title>Node10</title>
<a xlink:href="class_kitware_1_1_v_t_k_1_1vtk_polyhedron.html" target="_top" xlink:title="vtkPolyhedron &#45; a 3D cell defined by a set of polygonal faces">
<polygon fill="none" stroke="black" points="735.5,-760 735.5,-780 878.5,-780 878.5,-760 735.5,-760"/>
<text text-anchor="middle" x="807" y="-767" font-family="FreeSans" font-size="10.00">Kitware.VTK.vtkPolyhedron</text>
</a>
</g>
<!-- Node5&#45;&gt;Node10 -->
<g id="edge18" class="edge"><title>Node5&#45;&gt;Node10</title>
<path fill="none" stroke="midnightblue" d="M638.175,-756.579C668.812,-759.014 704.694,-761.867 735.482,-764.314"/>
<polygon fill="midnightblue" stroke="midnightblue" points="638.247,-753.074 628.001,-755.77 637.692,-760.052 638.247,-753.074"/>
</g>
<!-- Node11 -->
<g id="node21" class="node"><title>Node11</title>
<a xlink:href="class_kitware_1_1_v_t_k_1_1vtk_pyramid.html" target="_top" xlink:title="vtkPyramid &#45; a 3D cell that represents a linear pyramid">
<polygon fill="none" stroke="black" points="743,-722 743,-742 871,-742 871,-722 743,-722"/>
<text text-anchor="middle" x="807" y="-729" font-family="FreeSans" font-size="10.00">Kitware.VTK.vtkPyramid</text>
</a>
</g>
<!-- Node5&#45;&gt;Node11 -->
<g id="edge20" class="edge"><title>Node5&#45;&gt;Node11</title>
<path fill="none" stroke="midnightblue" d="M638.067,-745.43C671.182,-742.797 710.447,-739.676 742.784,-737.105"/>
<polygon fill="midnightblue" stroke="midnightblue" points="637.692,-741.948 628.001,-746.23 638.247,-748.926 637.692,-741.948"/>
</g>
<!-- Node12 -->
<g id="node23" class="node"><title>Node12</title>
<a xlink:href="class_kitware_1_1_v_t_k_1_1vtk_tetra.html" target="_top" xlink:title="vtkTetra &#45; a 3D cell that represents a tetrahedron">
<polygon fill="none" stroke="black" points="750.5,-684 750.5,-704 863.5,-704 863.5,-684 750.5,-684"/>
<text text-anchor="middle" x="807" y="-691" font-family="FreeSans" font-size="10.00">Kitware.VTK.vtkTetra</text>
</a>
</g>
<!-- Node5&#45;&gt;Node12 -->
<g id="edge22" class="edge"><title>Node5&#45;&gt;Node12</title>
<path fill="none" stroke="midnightblue" d="M603.279,-737.503C625.573,-729.409 655.145,-719.467 682,-713 704.088,-707.681 728.747,-703.558 750.289,-700.532"/>
<polygon fill="midnightblue" stroke="midnightblue" points="602.069,-734.219 593.892,-740.957 604.486,-740.788 602.069,-734.219"/>
</g>
<!-- Node13 -->
<g id="node25" class="node"><title>Node13</title>
<a xlink:href="class_kitware_1_1_v_t_k_1_1vtk_voxel.html" target="_top" xlink:title="vtkVoxel &#45; a cell that represents a 3D orthogonal parallelepiped">
<polygon fill="none" stroke="black" points="749.5,-646 749.5,-666 864.5,-666 864.5,-646 749.5,-646"/>
<text text-anchor="middle" x="807" y="-653" font-family="FreeSans" font-size="10.00">Kitware.VTK.vtkVoxel</text>
</a>
</g>
<!-- Node5&#45;&gt;Node13 -->
<g id="edge24" class="edge"><title>Node5&#45;&gt;Node13</title>
<path fill="none" stroke="midnightblue" d="M587.066,-734.417C608.583,-716.676 645.381,-689.179 682,-675 703.186,-666.797 727.673,-662.121 749.329,-659.461"/>
<polygon fill="midnightblue" stroke="midnightblue" points="584.742,-731.798 579.341,-740.913 589.247,-737.156 584.742,-731.798"/>
</g>
<!-- Node14 -->
<g id="node27" class="node"><title>Node14</title>
<a xlink:href="class_kitware_1_1_v_t_k_1_1vtk_wedge.html" target="_top" xlink:title="vtkWedge &#45; a 3D cell that represents a linear wedge">
<polygon fill="none" stroke="black" points="746.5,-608 746.5,-628 867.5,-628 867.5,-608 746.5,-608"/>
<text text-anchor="middle" x="807" y="-615" font-family="FreeSans" font-size="10.00">Kitware.VTK.vtkWedge</text>
</a>
</g>
<!-- Node5&#45;&gt;Node14 -->
<g id="edge26" class="edge"><title>Node5&#45;&gt;Node14</title>
<path fill="none" stroke="midnightblue" d="M580.351,-732.748C599.029,-706.753 637.089,-659.707 682,-637 701.687,-627.046 725.181,-621.979 746.46,-619.497"/>
<polygon fill="midnightblue" stroke="midnightblue" points="577.447,-730.793 574.573,-740.99 583.179,-734.811 577.447,-730.793"/>
</g>
<!-- Node19 -->
<g id="node37" class="node"><title>Node19</title>
<a xlink:href="class_kitware_1_1_v_t_k_1_1vtk_bi_quadratic_quad.html" target="_top" xlink:title="vtkBiQuadraticQuad &#45; cell represents a parabolic, 9&#45;node isoparametric quad">
<polygon fill="none" stroke="black" points="722,-570 722,-590 892,-590 892,-570 722,-570"/>
<text text-anchor="middle" x="807" y="-577" font-family="FreeSans" font-size="10.00">Kitware.VTK.vtkBiQuadraticQuad</text>
</a>
</g>
<!-- Node18&#45;&gt;Node19 -->
<g id="edge36" class="edge"><title>Node18&#45;&gt;Node19</title>
<path fill="none" stroke="midnightblue" d="M643.085,-330.119C644.097,-331.031 645.071,-331.991 646,-333 715.494,-408.465 609.25,-488.668 682,-561 692.818,-571.756 706.976,-578.073 721.862,-581.567"/>
<polygon fill="midnightblue" stroke="midnightblue" points="644.791,-327.033 634.637,-324.009 640.689,-332.705 644.791,-327.033"/>
</g>
<!-- Node20 -->
<g id="node39" class="node"><title>Node20</title>
<a xlink:href="class_kitware_1_1_v_t_k_1_1vtk_bi_quadratic_quadratic_hexahedron.html" target="_top" xlink:title="vtkBiQuadraticQuadraticHexahedron &#45; cell represents a biquadratic, 24&#45;node isoparametric hexahedron...">
<polygon fill="none" stroke="black" points="682,-532 682,-552 932,-552 932,-532 682,-532"/>
<text text-anchor="middle" x="807" y="-539" font-family="FreeSans" font-size="10.00">Kitware.VTK.vtkBiQuadraticQuadraticHexahedron</text>
</a>
</g>
<!-- Node18&#45;&gt;Node20 -->
<g id="edge38" class="edge"><title>Node18&#45;&gt;Node20</title>
<path fill="none" stroke="midnightblue" d="M643.042,-330.158C644.068,-331.059 645.055,-332.005 646,-333 705.183,-395.324 620.13,-463.343 682,-523 685.555,-526.428 689.451,-529.401 693.601,-531.971"/>
<polygon fill="midnightblue" stroke="midnightblue" points="644.699,-327.043 634.515,-324.123 640.655,-332.757 644.699,-327.043"/>
</g>
<!-- Node21 -->
<g id="node41" class="node"><title>Node21</title>
<a xlink:href="class_kitware_1_1_v_t_k_1_1vtk_bi_quadratic_quadratic_wedge.html" target="_top" xlink:title="vtkBiQuadraticQuadraticWedge &#45; cell represents a parabolic, 18&#45;node isoparametric wedge...">
<polygon fill="none" stroke="black" points="695.5,-494 695.5,-514 918.5,-514 918.5,-494 695.5,-494"/>
<text text-anchor="middle" x="807" y="-501" font-family="FreeSans" font-size="10.00">Kitware.VTK.vtkBiQuadraticQuadraticWedge</text>
</a>
</g>
<!-- Node18&#45;&gt;Node21 -->
<g id="edge40" class="edge"><title>Node18&#45;&gt;Node21</title>
<path fill="none" stroke="midnightblue" d="M642.531,-329.843C643.736,-330.837 644.895,-331.888 646,-333 694.934,-382.247 630.945,-437.956 682,-485 686.116,-488.793 690.653,-492.019 695.485,-494.753"/>
<polygon fill="midnightblue" stroke="midnightblue" points="644.223,-326.764 633.971,-324.093 640.32,-332.574 644.223,-326.764"/>
</g>
<!-- Node22 -->
<g id="node43" class="node"><title>Node22</title>
<a xlink:href="class_kitware_1_1_v_t_k_1_1vtk_bi_quadratic_triangle.html" target="_top" xlink:title="vtkBiQuadraticTriangle &#45; cell represents a parabolic, isoparametric triangle">
<polygon fill="none" stroke="black" points="716.5,-456 716.5,-476 897.5,-476 897.5,-456 716.5,-456"/>
<text text-anchor="middle" x="807" y="-463" font-family="FreeSans" font-size="10.00">Kitware.VTK.vtkBiQuadraticTriangle</text>
</a>
</g>
<!-- Node18&#45;&gt;Node22 -->
<g id="edge42" class="edge"><title>Node18&#45;&gt;Node22</title>
<path fill="none" stroke="midnightblue" d="M641.934,-329.583C643.347,-330.652 644.705,-331.789 646,-333 684.807,-369.292 641.633,-412.452 682,-447 691.839,-455.421 703.783,-460.97 716.338,-464.523"/>
<polygon fill="midnightblue" stroke="midnightblue" points="643.648,-326.527 633.314,-324.191 639.935,-332.462 643.648,-326.527"/>
</g>
<!-- Node23 -->
<g id="node45" class="node"><title>Node23</title>
<a xlink:href="class_kitware_1_1_v_t_k_1_1vtk_cubic_line.html" target="_top" xlink:title="vtkCubicLine &#45; cell represents a cubic , isoparametric 1D line">
<polygon fill="none" stroke="black" points="739.5,-418 739.5,-438 874.5,-438 874.5,-418 739.5,-418"/>
<text text-anchor="middle" x="807" y="-425" font-family="FreeSans" font-size="10.00">Kitware.VTK.vtkCubicLine</text>
</a>
</g>
<!-- Node18&#45;&gt;Node23 -->
<g id="edge44" class="edge"><title>Node18&#45;&gt;Node23</title>
<path fill="none" stroke="midnightblue" d="M640.333,-328.924C642.305,-330.178 644.2,-331.534 646,-333 674.976,-356.608 652.013,-386.69 682,-409 698.379,-421.185 719.354,-427.025 739.424,-429.521"/>
<polygon fill="midnightblue" stroke="midnightblue" points="641.731,-325.702 631.265,-324.056 638.42,-331.87 641.731,-325.702"/>
</g>
<!-- Node24 -->
<g id="node47" class="node"><title>Node24</title>
<a xlink:href="class_kitware_1_1_v_t_k_1_1vtk_explicit_cell.html" target="_top" xlink:title="vtkExplicitCell &#45; abstract superclass for cells requiring an explicit representation">
<polygon fill="none" stroke="black" points="737,-380 737,-400 877,-400 877,-380 737,-380"/>
<text text-anchor="middle" x="807" y="-387" font-family="FreeSans" font-size="10.00">Kitware.VTK.vtkExplicitCell</text>
</a>
</g>
<!-- Node18&#45;&gt;Node24 -->
<g id="edge46" class="edge"><title>Node18&#45;&gt;Node24</title>
<path fill="none" stroke="midnightblue" d="M635.199,-327.634C638.942,-329.23 642.572,-331.011 646,-333 666.123,-344.674 661.382,-360.223 682,-371 698.73,-379.745 718.326,-384.758 736.975,-387.561"/>
<polygon fill="midnightblue" stroke="midnightblue" points="636.301,-324.309 625.71,-324.038 633.821,-330.855 636.301,-324.309"/>
</g>
<!-- Node25 -->
<g id="node49" class="node"><title>Node25</title>
<a xlink:href="class_kitware_1_1_v_t_k_1_1vtk_quadratic_edge.html" target="_top" xlink:title="vtkQuadraticEdge &#45; cell represents a parabolic, isoparametric edge">
<polygon fill="none" stroke="black" points="727,-342 727,-362 887,-362 887,-342 727,-342"/>
<text text-anchor="middle" x="807" y="-349" font-family="FreeSans" font-size="10.00">Kitware.VTK.vtkQuadraticEdge</text>
</a>
</g>
<!-- Node18&#45;&gt;Node25 -->
<g id="edge48" class="edge"><title>Node18&#45;&gt;Node25</title>
<path fill="none" stroke="midnightblue" d="M637.227,-325.701C651.997,-328.151 667.51,-330.691 682,-333 700.751,-335.987 721.101,-339.125 739.83,-341.971"/>
<polygon fill="midnightblue" stroke="midnightblue" points="637.581,-322.212 627.142,-324.022 636.432,-329.117 637.581,-322.212"/>
</g>
<!-- Node26 -->
<g id="node51" class="node"><title>Node26</title>
<a xlink:href="class_kitware_1_1_v_t_k_1_1vtk_quadratic_hexahedron.html" target="_top" xlink:title="vtkQuadraticHexahedron &#45; cell represents a parabolic, 20&#45;node isoparametric hexahedron">
<polygon fill="none" stroke="black" points="710,-304 710,-324 904,-324 904,-304 710,-304"/>
<text text-anchor="middle" x="807" y="-311" font-family="FreeSans" font-size="10.00">Kitware.VTK.vtkQuadraticHexahedron</text>
</a>
</g>
<!-- Node18&#45;&gt;Node26 -->
<g id="edge50" class="edge"><title>Node18&#45;&gt;Node26</title>
<path fill="none" stroke="midnightblue" d="M655.798,-314C673.339,-314 691.862,-314 709.701,-314"/>
<polygon fill="midnightblue" stroke="midnightblue" points="655.596,-310.5 645.596,-314 655.596,-317.5 655.596,-310.5"/>
</g>
<!-- Node27 -->
<g id="node53" class="node"><title>Node27</title>
<a xlink:href="class_kitware_1_1_v_t_k_1_1vtk_quadratic_linear_quad.html" target="_top" xlink:title="vtkQuadraticLinearQuad &#45; cell represents a quadratic&#45;linear, 6&#45;node isoparametric quad...">
<polygon fill="none" stroke="black" points="711.5,-266 711.5,-286 902.5,-286 902.5,-266 711.5,-266"/>
<text text-anchor="middle" x="807" y="-273" font-family="FreeSans" font-size="10.00">Kitware.VTK.vtkQuadraticLinearQuad</text>
</a>
</g>
<!-- Node18&#45;&gt;Node27 -->
<g id="edge52" class="edge"><title>Node18&#45;&gt;Node27</title>
<path fill="none" stroke="midnightblue" d="M637.227,-302.299C651.997,-299.849 667.51,-297.309 682,-295 700.751,-292.013 721.101,-288.875 739.83,-286.029"/>
<polygon fill="midnightblue" stroke="midnightblue" points="636.432,-298.883 627.142,-303.978 637.581,-305.788 636.432,-298.883"/>
</g>
<!-- Node28 -->
<g id="node55" class="node"><title>Node28</title>
<a xlink:href="class_kitware_1_1_v_t_k_1_1vtk_quadratic_linear_wedge.html" target="_top" xlink:title="vtkQuadraticLinearWedge &#45; cell represents a, 12&#45;node isoparametric wedge">
<polygon fill="none" stroke="black" points="708.5,-228 708.5,-248 905.5,-248 905.5,-228 708.5,-228"/>
<text text-anchor="middle" x="807" y="-235" font-family="FreeSans" font-size="10.00">Kitware.VTK.vtkQuadraticLinearWedge</text>
</a>
</g>
<!-- Node18&#45;&gt;Node28 -->
<g id="edge54" class="edge"><title>Node18&#45;&gt;Node28</title>
<path fill="none" stroke="midnightblue" d="M635.199,-300.366C638.942,-298.77 642.572,-296.989 646,-295 666.123,-283.326 661.382,-267.777 682,-257 690.268,-252.679 699.236,-249.268 708.443,-246.586"/>
<polygon fill="midnightblue" stroke="midnightblue" points="633.821,-297.145 625.71,-303.962 636.301,-303.691 633.821,-297.145"/>
</g>
<!-- Node29 -->
<g id="node57" class="node"><title>Node29</title>
<a xlink:href="class_kitware_1_1_v_t_k_1_1vtk_quadratic_pyramid.html" target="_top" xlink:title="vtkQuadraticPyramid &#45; cell represents a parabolic, 13&#45;node isoparametric pyramid">
<polygon fill="none" stroke="black" points="719.5,-190 719.5,-210 894.5,-210 894.5,-190 719.5,-190"/>
<text text-anchor="middle" x="807" y="-197" font-family="FreeSans" font-size="10.00">Kitware.VTK.vtkQuadraticPyramid</text>
</a>
</g>
<!-- Node18&#45;&gt;Node29 -->
<g id="edge56" class="edge"><title>Node18&#45;&gt;Node29</title>
<path fill="none" stroke="midnightblue" d="M640.333,-299.076C642.305,-297.822 644.2,-296.466 646,-295 674.976,-271.392 652.013,-241.31 682,-219 692.919,-210.877 705.881,-205.573 719.256,-202.201"/>
<polygon fill="midnightblue" stroke="midnightblue" points="638.42,-296.13 631.265,-303.944 641.731,-302.298 638.42,-296.13"/>
</g>
<!-- Node30 -->
<g id="node59" class="node"><title>Node30</title>
<a xlink:href="class_kitware_1_1_v_t_k_1_1vtk_quadratic_quad.html" target="_top" xlink:title="vtkQuadraticQuad &#45; cell represents a parabolic, 8&#45;node isoparametric quad">
<polygon fill="none" stroke="black" points="726.5,-152 726.5,-172 887.5,-172 887.5,-152 726.5,-152"/>
<text text-anchor="middle" x="807" y="-159" font-family="FreeSans" font-size="10.00">Kitware.VTK.vtkQuadraticQuad</text>
</a>
</g>
<!-- Node18&#45;&gt;Node30 -->
<g id="edge58" class="edge"><title>Node18&#45;&gt;Node30</title>
<path fill="none" stroke="midnightblue" d="M641.934,-298.417C643.347,-297.348 644.705,-296.211 646,-295 684.807,-258.708 641.633,-215.548 682,-181 694.424,-170.367 710.203,-164.313 726.333,-161.074"/>
<polygon fill="midnightblue" stroke="midnightblue" points="639.935,-295.538 633.314,-303.809 643.648,-301.473 639.935,-295.538"/>
</g>
<!-- Node31 -->
<g id="node61" class="node"><title>Node31</title>
<a xlink:href="class_kitware_1_1_v_t_k_1_1vtk_quadratic_tetra.html" target="_top" xlink:title="vtkQuadraticTetra &#45; cell represents a parabolic, 10&#45;node isoparametric tetrahedron">
<polygon fill="none" stroke="black" points="727.5,-114 727.5,-134 886.5,-134 886.5,-114 727.5,-114"/>
<text text-anchor="middle" x="807" y="-121" font-family="FreeSans" font-size="10.00">Kitware.VTK.vtkQuadraticTetra</text>
</a>
</g>
<!-- Node18&#45;&gt;Node31 -->
<g id="edge60" class="edge"><title>Node18&#45;&gt;Node31</title>
<path fill="none" stroke="midnightblue" d="M642.531,-298.157C643.736,-297.163 644.895,-296.112 646,-295 694.934,-245.753 630.945,-190.044 682,-143 694.43,-131.547 710.691,-125.264 727.354,-122.078"/>
<polygon fill="midnightblue" stroke="midnightblue" points="640.32,-295.426 633.971,-303.907 644.223,-301.236 640.32,-295.426"/>
</g>
<!-- Node32 -->
<g id="node63" class="node"><title>Node32</title>
<a xlink:href="class_kitware_1_1_v_t_k_1_1vtk_quadratic_triangle.html" target="_top" xlink:title="vtkQuadraticTriangle &#45; cell represents a parabolic, isoparametric triangle">
<polygon fill="none" stroke="black" points="721,-76 721,-96 893,-96 893,-76 721,-76"/>
<text text-anchor="middle" x="807" y="-83" font-family="FreeSans" font-size="10.00">Kitware.VTK.vtkQuadraticTriangle</text>
</a>
</g>
<!-- Node18&#45;&gt;Node32 -->
<g id="edge62" class="edge"><title>Node18&#45;&gt;Node32</title>
<path fill="none" stroke="midnightblue" d="M643.042,-297.842C644.068,-296.941 645.055,-295.995 646,-295 705.183,-232.676 620.13,-164.657 682,-105 692.666,-94.7155 706.398,-88.5335 720.837,-85.0056"/>
<polygon fill="midnightblue" stroke="midnightblue" points="640.655,-295.243 634.515,-303.877 644.699,-300.957 640.655,-295.243"/>
</g>
<!-- Node33 -->
<g id="node65" class="node"><title>Node33</title>
<a xlink:href="class_kitware_1_1_v_t_k_1_1vtk_quadratic_wedge.html" target="_top" xlink:title="vtkQuadraticWedge &#45; cell represents a parabolic, 15&#45;node isoparametric wedge">
<polygon fill="none" stroke="black" points="723.5,-38 723.5,-58 890.5,-58 890.5,-38 723.5,-38"/>
<text text-anchor="middle" x="807" y="-45" font-family="FreeSans" font-size="10.00">Kitware.VTK.vtkQuadraticWedge</text>
</a>
</g>
<!-- Node18&#45;&gt;Node33 -->
<g id="edge64" class="edge"><title>Node18&#45;&gt;Node33</title>
<path fill="none" stroke="midnightblue" d="M643.085,-297.881C644.097,-296.969 645.071,-296.009 646,-295 715.494,-219.535 609.25,-139.332 682,-67 693.208,-55.8568 707.999,-49.4787 723.471,-46.0668"/>
<polygon fill="midnightblue" stroke="midnightblue" points="640.689,-295.295 634.637,-303.991 644.791,-300.967 640.689,-295.295"/>
</g>
<!-- Node34 -->
<g id="node67" class="node"><title>Node34</title>
<a xlink:href="class_kitware_1_1_v_t_k_1_1vtk_tri_quadratic_hexahedron.html" target="_top" xlink:title="vtkTriQuadraticHexahedron &#45; cell represents a parabolic, 27&#45;node isoparametric hexahedron">
<polygon fill="none" stroke="black" points="705,-0 705,-20 909,-20 909,-0 705,-0"/>
<text text-anchor="middle" x="807" y="-7" font-family="FreeSans" font-size="10.00">Kitware.VTK.vtkTriQuadraticHexahedron</text>
</a>
</g>
<!-- Node18&#45;&gt;Node34 -->
<g id="edge66" class="edge"><title>Node18&#45;&gt;Node34</title>
<path fill="none" stroke="midnightblue" d="M643.202,-297.831C644.174,-296.933 645.108,-295.99 646,-295 725.841,-206.355 598.333,-114.044 682,-29 688.543,-22.3498 696.358,-17.3839 704.843,-13.7266"/>
<polygon fill="midnightblue" stroke="midnightblue" points="641.025,-295.088 635.083,-303.86 645.198,-300.708 641.025,-295.088"/>
</g>
</g>
</svg>
