<?xml version="1.0" encoding="UTF-8" standalone="no"?>
<!DOCTYPE svg PUBLIC "-//W3C//DTD SVG 1.1//EN"
 "http://www.w3.org/Graphics/SVG/1.1/DTD/svg11.dtd">
<!-- Generated by graphviz version 2.26.3 (20100126.1600)
 -->
<!-- Title: G Pages: 1 -->
<svg width="260pt" height="494pt"
 viewBox="0.00 0.00 260.00 494.00" xmlns="http://www.w3.org/2000/svg" xmlns:xlink="http://www.w3.org/1999/xlink">
<g id="graph1" class="graph" transform="scale(1 1) rotate(0) translate(4 490)">
<title>G</title>
<!-- Node1 -->
<g id="node1" class="node"><title>Node1</title>
<polygon fill="#bfbfbf" stroke="black" points="0,-1 0,-21 252,-21 252,-1 0,-1"/>
<text text-anchor="middle" x="126" y="-8" font-family="FreeSans" font-size="10.00">Kitware.VTK.vtkRenderedHierarchyRepresentation</text>
</g>
<!-- Node2 -->
<g id="node2" class="node"><title>Node2</title>
<a xlink:href="class_kitware_1_1_v_t_k_1_1vtk_rendered_graph_representation.html" target="_top" xlink:title="vtkRenderedGraphRepresentation &#45;">
<polygon fill="none" stroke="black" points="37.5,-59 37.5,-79 214.5,-79 214.5,-59 37.5,-59"/>
<text text-anchor="middle" x="126" y="-66" font-family="FreeSans" font-size="10.00">vtkRenderedGraphRepresentation</text>
</a>
</g>
<!-- Node2&#45;&gt;Node1 -->
<g id="edge2" class="edge"><title>Node2&#45;&gt;Node1</title>
<path fill="none" stroke="midnightblue" d="M126,-48.8902C126,-39.6201 126,-29.0083 126,-21.3776"/>
<polygon fill="midnightblue" stroke="midnightblue" points="122.5,-48.8971 126,-58.8972 129.5,-48.8972 122.5,-48.8971"/>
</g>
<!-- Node3 -->
<g id="node4" class="node"><title>Node3</title>
<a xlink:href="class_kitware_1_1_v_t_k_1_1vtk_rendered_representation.html" target="_top" xlink:title="vtkRenderedRepresentation &#45;">
<polygon fill="none" stroke="black" points="52,-117 52,-137 200,-137 200,-117 52,-117"/>
<text text-anchor="middle" x="126" y="-124" font-family="FreeSans" font-size="10.00">vtkRenderedRepresentation</text>
</a>
</g>
<!-- Node3&#45;&gt;Node2 -->
<g id="edge4" class="edge"><title>Node3&#45;&gt;Node2</title>
<path fill="none" stroke="midnightblue" d="M126,-106.89C126,-97.6201 126,-87.0083 126,-79.3776"/>
<polygon fill="midnightblue" stroke="midnightblue" points="122.5,-106.897 126,-116.897 129.5,-106.897 122.5,-106.897"/>
</g>
<!-- Node4 -->
<g id="node6" class="node"><title>Node4</title>
<a xlink:href="class_kitware_1_1_v_t_k_1_1vtk_data_representation.html" target="_top" xlink:title="vtkDataRepresentation &#45; The superclass for all representations">
<polygon fill="none" stroke="black" points="63,-175 63,-195 189,-195 189,-175 63,-175"/>
<text text-anchor="middle" x="126" y="-182" font-family="FreeSans" font-size="10.00">vtkDataRepresentation</text>
</a>
</g>
<!-- Node4&#45;&gt;Node3 -->
<g id="edge6" class="edge"><title>Node4&#45;&gt;Node3</title>
<path fill="none" stroke="midnightblue" d="M126,-164.89C126,-155.62 126,-145.008 126,-137.378"/>
<polygon fill="midnightblue" stroke="midnightblue" points="122.5,-164.897 126,-174.897 129.5,-164.897 122.5,-164.897"/>
</g>
<!-- Node5 -->
<g id="node8" class="node"><title>Node5</title>
<a xlink:href="class_kitware_1_1_v_t_k_1_1vtk_pass_input_type_algorithm.html" target="_top" xlink:title="vtkPassInputTypeAlgorithm &#45; Superclass for algorithms that produce output of the same type as input...">
<polygon fill="none" stroke="black" points="54,-233 54,-253 198,-253 198,-233 54,-233"/>
<text text-anchor="middle" x="126" y="-240" font-family="FreeSans" font-size="10.00">vtkPassInputTypeAlgorithm</text>
</a>
</g>
<!-- Node5&#45;&gt;Node4 -->
<g id="edge8" class="edge"><title>Node5&#45;&gt;Node4</title>
<path fill="none" stroke="midnightblue" d="M126,-222.89C126,-213.62 126,-203.008 126,-195.378"/>
<polygon fill="midnightblue" stroke="midnightblue" points="122.5,-222.897 126,-232.897 129.5,-222.897 122.5,-222.897"/>
</g>
<!-- Node6 -->
<g id="node10" class="node"><title>Node6</title>
<a xlink:href="class_kitware_1_1_v_t_k_1_1vtk_algorithm.html" target="_top" xlink:title="vtkAlgorithm &#45; Superclass for all sources, filters, and sinks in VTK.">
<polygon fill="none" stroke="black" points="87.5,-291 87.5,-311 164.5,-311 164.5,-291 87.5,-291"/>
<text text-anchor="middle" x="126" y="-298" font-family="FreeSans" font-size="10.00">vtkAlgorithm</text>
</a>
</g>
<!-- Node6&#45;&gt;Node5 -->
<g id="edge10" class="edge"><title>Node6&#45;&gt;Node5</title>
<path fill="none" stroke="midnightblue" d="M126,-280.89C126,-271.62 126,-261.008 126,-253.378"/>
<polygon fill="midnightblue" stroke="midnightblue" points="122.5,-280.897 126,-290.897 129.5,-280.897 122.5,-280.897"/>
</g>
<!-- Node7 -->
<g id="node12" class="node"><title>Node7</title>
<a xlink:href="class_kitware_1_1_v_t_k_1_1vtk_object.html" target="_top" xlink:title="vtkObject &#45; abstract base class for most VTK objects">
<polygon fill="none" stroke="black" points="95,-349 95,-369 157,-369 157,-349 95,-349"/>
<text text-anchor="middle" x="126" y="-356" font-family="FreeSans" font-size="10.00">vtkObject</text>
</a>
</g>
<!-- Node7&#45;&gt;Node6 -->
<g id="edge12" class="edge"><title>Node7&#45;&gt;Node6</title>
<path fill="none" stroke="midnightblue" d="M126,-338.89C126,-329.62 126,-319.008 126,-311.378"/>
<polygon fill="midnightblue" stroke="midnightblue" points="122.5,-338.897 126,-348.897 129.5,-338.897 122.5,-338.897"/>
</g>
<!-- Node8 -->
<g id="node14" class="node"><title>Node8</title>
<a xlink:href="class_kitware_1_1_v_t_k_1_1vtk_object_base.html" target="_top" xlink:title="vtkObjectBase &#45; abstract base class for most VTK objects">
<polygon fill="none" stroke="black" points="83,-407 83,-427 169,-427 169,-407 83,-407"/>
<text text-anchor="middle" x="126" y="-414" font-family="FreeSans" font-size="10.00">vtkObjectBase</text>
</a>
</g>
<!-- Node8&#45;&gt;Node7 -->
<g id="edge14" class="edge"><title>Node8&#45;&gt;Node7</title>
<path fill="none" stroke="midnightblue" d="M126,-396.89C126,-387.62 126,-377.008 126,-369.378"/>
<polygon fill="midnightblue" stroke="midnightblue" points="122.5,-396.897 126,-406.897 129.5,-396.897 122.5,-396.897"/>
</g>
<!-- Node9 -->
<g id="node16" class="node"><title>Node9</title>
<a xlink:href="class_kitware_1_1_v_t_k_1_1_wrapped_object.html" target="_top" xlink:title="Base class for all the mummy wrapped classes in Kitware.VTK.">
<polygon fill="none" stroke="black" points="81.5,-465 81.5,-485 170.5,-485 170.5,-465 81.5,-465"/>
<text text-anchor="middle" x="126" y="-472" font-family="FreeSans" font-size="10.00">WrappedObject</text>
</a>
</g>
<!-- Node9&#45;&gt;Node8 -->
<g id="edge16" class="edge"><title>Node9&#45;&gt;Node8</title>
<path fill="none" stroke="midnightblue" d="M126,-454.89C126,-445.62 126,-435.008 126,-427.378"/>
<polygon fill="midnightblue" stroke="midnightblue" points="122.5,-454.897 126,-464.897 129.5,-454.897 122.5,-454.897"/>
</g>
</g>
</svg>
