<?xml version="1.0" encoding="UTF-8" standalone="no"?>
<!DOCTYPE svg PUBLIC "-//W3C//DTD SVG 1.1//EN"
 "http://www.w3.org/Graphics/SVG/1.1/DTD/svg11.dtd">
<!-- Generated by graphviz version 2.26.3 (20100126.1600)
 -->
<!-- Title: G Pages: 1 -->
<svg width="433pt" height="830pt"
 viewBox="0.00 0.00 433.46 830.00" xmlns="http://www.w3.org/2000/svg" xmlns:xlink="http://www.w3.org/1999/xlink">
<g id="graph1" class="graph" transform="scale(1 1) rotate(0) translate(4 826)">
<title>G</title>
<!-- Node1 -->
<g id="node1" class="node"><title>Node1</title>
<polygon fill="#bfbfbf" stroke="black" points="-0.5,-1 -0.5,-21 194.5,-21 194.5,-1 -0.5,-1"/>
<text text-anchor="middle" x="97" y="-8" font-family="FreeSans" font-size="10.00">Kitware.VTK.vtkXMLImageDataReader</text>
</g>
<!-- Node2 -->
<g id="node2" class="node"><title>Node2</title>
<a xlink:href="class_kitware_1_1_v_t_k_1_1vtk_x_m_l_structured_data_reader.html" target="_top" xlink:title="vtkXMLStructuredDataReader &#45; Superclass for structured data XML readers.">
<polygon fill="none" stroke="black" points="18,-61 18,-81 176,-81 176,-61 18,-61"/>
<text text-anchor="middle" x="97" y="-68" font-family="FreeSans" font-size="10.00">vtkXMLStructuredDataReader</text>
</a>
</g>
<!-- Node2&#45;&gt;Node1 -->
<g id="edge2" class="edge"><title>Node2&#45;&gt;Node1</title>
<path fill="none" stroke="midnightblue" d="M97,-50.5155C97,-40.562 97,-29.0495 97,-21.0279"/>
<polygon fill="midnightblue" stroke="midnightblue" points="93.5001,-50.8218 97,-60.8218 100.5,-50.8219 93.5001,-50.8218"/>
</g>
<!-- Node3 -->
<g id="node4" class="node"><title>Node3</title>
<a xlink:href="class_kitware_1_1_v_t_k_1_1vtk_x_m_l_data_reader.html" target="_top" xlink:title="vtkXMLDataReader &#45; Superclass for VTK XML file readers.">
<polygon fill="none" stroke="black" points="43.5,-121 43.5,-141 150.5,-141 150.5,-121 43.5,-121"/>
<text text-anchor="middle" x="97" y="-128" font-family="FreeSans" font-size="10.00">vtkXMLDataReader</text>
</a>
</g>
<!-- Node3&#45;&gt;Node2 -->
<g id="edge4" class="edge"><title>Node3&#45;&gt;Node2</title>
<path fill="none" stroke="midnightblue" d="M97,-110.516C97,-100.562 97,-89.0495 97,-81.0279"/>
<polygon fill="midnightblue" stroke="midnightblue" points="93.5001,-110.822 97,-120.822 100.5,-110.822 93.5001,-110.822"/>
</g>
<!-- Node4 -->
<g id="node6" class="node"><title>Node4</title>
<a xlink:href="class_kitware_1_1_v_t_k_1_1vtk_x_m_l_reader.html" target="_top" xlink:title="vtkXMLReader &#45; Superclass for VTK&#39;s XML format readers.">
<polygon fill="none" stroke="black" points="55.5,-181 55.5,-201 138.5,-201 138.5,-181 55.5,-181"/>
<text text-anchor="middle" x="97" y="-188" font-family="FreeSans" font-size="10.00">vtkXMLReader</text>
</a>
</g>
<!-- Node4&#45;&gt;Node3 -->
<g id="edge6" class="edge"><title>Node4&#45;&gt;Node3</title>
<path fill="none" stroke="midnightblue" d="M97,-170.516C97,-160.562 97,-149.05 97,-141.028"/>
<polygon fill="midnightblue" stroke="midnightblue" points="93.5001,-170.822 97,-180.822 100.5,-170.822 93.5001,-170.822"/>
</g>
<!-- Node5 -->
<g id="node8" class="node"><title>Node5</title>
<a xlink:href="class_kitware_1_1_v_t_k_1_1vtk_algorithm.html" target="_top" xlink:title="vtkAlgorithm &#45; Superclass for all sources, filters, and sinks in VTK.">
<polygon fill="none" stroke="black" points="58.5,-241 58.5,-261 135.5,-261 135.5,-241 58.5,-241"/>
<text text-anchor="middle" x="97" y="-248" font-family="FreeSans" font-size="10.00">vtkAlgorithm</text>
</a>
</g>
<!-- Node5&#45;&gt;Node4 -->
<g id="edge8" class="edge"><title>Node5&#45;&gt;Node4</title>
<path fill="none" stroke="midnightblue" d="M97,-230.516C97,-220.562 97,-209.05 97,-201.028"/>
<polygon fill="midnightblue" stroke="midnightblue" points="93.5001,-230.822 97,-240.822 100.5,-230.822 93.5001,-230.822"/>
</g>
<!-- Node6 -->
<g id="node10" class="node"><title>Node6</title>
<a xlink:href="class_kitware_1_1_v_t_k_1_1vtk_object.html" target="_top" xlink:title="vtkObject &#45; abstract base class for most VTK objects">
<polygon fill="none" stroke="black" points="66,-301 66,-321 128,-321 128,-301 66,-301"/>
<text text-anchor="middle" x="97" y="-308" font-family="FreeSans" font-size="10.00">vtkObject</text>
</a>
</g>
<!-- Node6&#45;&gt;Node5 -->
<g id="edge10" class="edge"><title>Node6&#45;&gt;Node5</title>
<path fill="none" stroke="midnightblue" d="M97,-290.516C97,-280.562 97,-269.05 97,-261.028"/>
<polygon fill="midnightblue" stroke="midnightblue" points="93.5001,-290.822 97,-300.822 100.5,-290.822 93.5001,-290.822"/>
</g>
<!-- Node7 -->
<g id="node12" class="node"><title>Node7</title>
<a xlink:href="class_kitware_1_1_v_t_k_1_1vtk_object_base.html" target="_top" xlink:title="vtkObjectBase &#45; abstract base class for most VTK objects">
<polygon fill="none" stroke="black" points="117,-741 117,-761 203,-761 203,-741 117,-741"/>
<text text-anchor="middle" x="160" y="-748" font-family="FreeSans" font-size="10.00">vtkObjectBase</text>
</a>
</g>
<!-- Node7&#45;&gt;Node6 -->
<g id="edge12" class="edge"><title>Node7&#45;&gt;Node6</title>
<path fill="none" stroke="midnightblue" d="M131.423,-735.886C117.687,-727.44 101.884,-715.826 91,-702 79.1564,-686.955 78.6209,-680.802 75,-662 49.4248,-529.199 84.5766,-363.437 94.5155,-321.17"/>
<polygon fill="midnightblue" stroke="midnightblue" points="129.683,-738.923 140.079,-740.97 133.229,-732.887 129.683,-738.923"/>
</g>
<!-- Node10 -->
<g id="node19" class="node"><title>Node10</title>
<a xlink:href="class_kitware_1_1_v_t_k_1_1vtk_object.html" target="_top" xlink:title="vtkObject &#45; abstract base class for most VTK objects">
<polygon fill="none" stroke="black" points="100,-681 100,-701 220,-701 220,-681 100,-681"/>
<text text-anchor="middle" x="160" y="-688" font-family="FreeSans" font-size="10.00">Kitware.VTK.vtkObject</text>
</a>
</g>
<!-- Node7&#45;&gt;Node10 -->
<g id="edge22" class="edge"><title>Node7&#45;&gt;Node10</title>
<path fill="none" stroke="midnightblue" d="M160,-730.516C160,-720.562 160,-709.05 160,-701.028"/>
<polygon fill="midnightblue" stroke="midnightblue" points="156.5,-730.822 160,-740.822 163.5,-730.822 156.5,-730.822"/>
</g>
<!-- Node8 -->
<g id="node14" class="node"><title>Node8</title>
<a xlink:href="class_kitware_1_1_v_t_k_1_1_wrapped_object.html" target="_top" xlink:title="Base class for all the mummy wrapped classes in Kitware.VTK.">
<polygon fill="none" stroke="black" points="298.5,-801 298.5,-821 387.5,-821 387.5,-801 298.5,-801"/>
<text text-anchor="middle" x="343" y="-808" font-family="FreeSans" font-size="10.00">WrappedObject</text>
</a>
</g>
<!-- Node8&#45;&gt;Node7 -->
<g id="edge14" class="edge"><title>Node8&#45;&gt;Node7</title>
<path fill="none" stroke="midnightblue" d="M302.804,-797.821C269.042,-786.752 221.512,-771.168 190.73,-761.075"/>
<polygon fill="midnightblue" stroke="midnightblue" points="301.777,-801.168 312.37,-800.957 303.958,-794.516 301.777,-801.168"/>
</g>
<!-- Node9 -->
<g id="node16" class="node"><title>Node9</title>
<a xlink:href="class_kitware_1_1_v_t_k_1_1vtk_object_event_relay.html" target="_top" xlink:title="Implement a relay handler for VTK events. This is a class that receives events directly from the VTK ...">
<polygon fill="none" stroke="black" points="89,-491 89,-511 261,-511 261,-491 89,-491"/>
<text text-anchor="middle" x="175" y="-498" font-family="FreeSans" font-size="10.00">Kitware.VTK.vtkObjectEventRelay</text>
</a>
</g>
<!-- Node8&#45;&gt;Node9 -->
<g id="edge18" class="edge"><title>Node8&#45;&gt;Node9</title>
<path fill="none" stroke="midnightblue" d="M355.888,-792.325C388.276,-742.899 465.803,-607.191 398,-530 388.773,-519.495 320.047,-511.666 261.298,-506.808"/>
<polygon fill="midnightblue" stroke="midnightblue" points="352.891,-790.509 350.239,-800.767 358.709,-794.402 352.891,-790.509"/>
</g>
<!-- Node9&#45;&gt;Node6 -->
<g id="edge16" class="edge"><title>Node9&#45;&gt;Node6</title>
<path fill="none" stroke="#9a32cd" stroke-dasharray="5,2" d="M166.921,-481.321C150.489,-441.293 113.674,-351.616 101.214,-321.266"/>
<polygon fill="#9a32cd" stroke="#9a32cd" points="163.771,-482.863 170.806,-490.785 170.246,-480.205 163.771,-482.863"/>
<text text-anchor="middle" x="274.5" y="-463" font-family="FreeSans" font-size="10.00"> LeftButtonReleaseEvtRelay</text>
<text text-anchor="middle" x="274.5" y="-451" font-family="FreeSans" font-size="10.00">KeyPressEvtRelay</text>
<text text-anchor="middle" x="274.5" y="-439" font-family="FreeSans" font-size="10.00">DomainModifiedEvtRelay</text>
<text text-anchor="middle" x="274.5" y="-427" font-family="FreeSans" font-size="10.00">VolumeMapperComputeGradientsStartEvtRelay</text>
<text text-anchor="middle" x="274.5" y="-415" font-family="FreeSans" font-size="10.00">ErrorEvtRelay</text>
<text text-anchor="middle" x="274.5" y="-403" font-family="FreeSans" font-size="10.00">VolumeMapperRenderStartEvtRelay</text>
<text text-anchor="middle" x="274.5" y="-391" font-family="FreeSans" font-size="10.00">StartEvtRelay</text>
<text text-anchor="middle" x="274.5" y="-379" font-family="FreeSans" font-size="10.00">ResetCameraEvtRelay</text>
<text text-anchor="middle" x="274.5" y="-367" font-family="FreeSans" font-size="10.00">EnableEvtRelay</text>
<text text-anchor="middle" x="274.5" y="-355" font-family="FreeSans" font-size="10.00">DeleteEvtRelay</text>
<text text-anchor="middle" x="274.5" y="-343" font-family="FreeSans" font-size="10.00">...</text>
</g>
<!-- Node9&#45;&gt;Node10 -->
<g id="edge24" class="edge"><title>Node9&#45;&gt;Node10</title>
<path fill="none" stroke="#9a32cd" stroke-dasharray="5,2" d="M172.028,-521.231C171.649,-524.169 171.293,-527.159 171,-530 165.144,-586.853 161.636,-655.333 160.452,-680.807"/>
<polygon fill="#9a32cd" stroke="#9a32cd" points="175.515,-521.565 173.421,-511.179 168.582,-520.604 175.515,-521.565"/>
<text text-anchor="middle" x="284.5" y="-653" font-family="FreeSans" font-size="10.00"> LeftButtonReleaseEvtRelay</text>
<text text-anchor="middle" x="284.5" y="-641" font-family="FreeSans" font-size="10.00">KeyPressEvtRelay</text>
<text text-anchor="middle" x="284.5" y="-629" font-family="FreeSans" font-size="10.00">DomainModifiedEvtRelay</text>
<text text-anchor="middle" x="284.5" y="-617" font-family="FreeSans" font-size="10.00">VolumeMapperComputeGradientsStartEvtRelay</text>
<text text-anchor="middle" x="284.5" y="-605" font-family="FreeSans" font-size="10.00">ErrorEvtRelay</text>
<text text-anchor="middle" x="284.5" y="-593" font-family="FreeSans" font-size="10.00">VolumeMapperRenderStartEvtRelay</text>
<text text-anchor="middle" x="284.5" y="-581" font-family="FreeSans" font-size="10.00">StartEvtRelay</text>
<text text-anchor="middle" x="284.5" y="-569" font-family="FreeSans" font-size="10.00">ResetCameraEvtRelay</text>
<text text-anchor="middle" x="284.5" y="-557" font-family="FreeSans" font-size="10.00">EnableEvtRelay</text>
<text text-anchor="middle" x="284.5" y="-545" font-family="FreeSans" font-size="10.00">DeleteEvtRelay</text>
<text text-anchor="middle" x="284.5" y="-533" font-family="FreeSans" font-size="10.00">...</text>
</g>
<!-- Node10&#45;&gt;Node9 -->
<g id="edge20" class="edge"><title>Node10&#45;&gt;Node9</title>
<path fill="none" stroke="#9a32cd" stroke-dasharray="5,2" d="M113.979,-675.818C108.439,-672.138 103.51,-667.596 100,-662 68.8229,-612.303 66.8299,-578.389 100,-530 104.736,-523.091 121.511,-516.287 137.999,-511.008"/>
<polygon fill="#9a32cd" stroke="#9a32cd" points="112.639,-679.079 123.072,-680.919 116.064,-672.974 112.639,-679.079"/>
<text text-anchor="middle" x="124" y="-599" font-family="FreeSans" font-size="10.00"> Sender</text>
<text text-anchor="middle" x="124" y="-587" font-family="FreeSans" font-size="10.00">EventImpl</text>
</g>
</g>
</svg>
