<?xml version="1.0" encoding="UTF-8" standalone="no"?>
<!DOCTYPE svg PUBLIC "-//W3C//DTD SVG 1.1//EN"
 "http://www.w3.org/Graphics/SVG/1.1/DTD/svg11.dtd">
<!-- Generated by graphviz version 2.26.3 (20100126.1600)
 -->
<!-- Title: G Pages: 1 -->
<svg width="451pt" height="650pt"
 viewBox="0.00 0.00 451.46 650.00" xmlns="http://www.w3.org/2000/svg" xmlns:xlink="http://www.w3.org/1999/xlink">
<g id="graph1" class="graph" transform="scale(1 1) rotate(0) translate(4 646)">
<title>G</title>
<!-- Node1 -->
<g id="node1" class="node"><title>Node1</title>
<polygon fill="#bfbfbf" stroke="black" points="-0.5,-1 -0.5,-21 230.5,-21 230.5,-1 -0.5,-1"/>
<text text-anchor="middle" x="115" y="-8" font-family="FreeSans" font-size="10.00">Kitware.VTK.vtkOpenGLPainterDeviceAdapter</text>
</g>
<!-- Node2 -->
<g id="node2" class="node"><title>Node2</title>
<a xlink:href="class_kitware_1_1_v_t_k_1_1vtk_painter_device_adapter.html" target="_top" xlink:title="vtkPainterDeviceAdapter &#45; An adapter between a vtkPainter and a rendering device.">
<polygon fill="none" stroke="black" points="48,-61 48,-81 182,-81 182,-61 48,-61"/>
<text text-anchor="middle" x="115" y="-68" font-family="FreeSans" font-size="10.00">vtkPainterDeviceAdapter</text>
</a>
</g>
<!-- Node2&#45;&gt;Node1 -->
<g id="edge2" class="edge"><title>Node2&#45;&gt;Node1</title>
<path fill="none" stroke="midnightblue" d="M115,-50.5155C115,-40.562 115,-29.0495 115,-21.0279"/>
<polygon fill="midnightblue" stroke="midnightblue" points="111.5,-50.8218 115,-60.8218 118.5,-50.8219 111.5,-50.8218"/>
</g>
<!-- Node3 -->
<g id="node4" class="node"><title>Node3</title>
<a xlink:href="class_kitware_1_1_v_t_k_1_1vtk_object.html" target="_top" xlink:title="vtkObject &#45; abstract base class for most VTK objects">
<polygon fill="none" stroke="black" points="84,-121 84,-141 146,-141 146,-121 84,-121"/>
<text text-anchor="middle" x="115" y="-128" font-family="FreeSans" font-size="10.00">vtkObject</text>
</a>
</g>
<!-- Node3&#45;&gt;Node2 -->
<g id="edge4" class="edge"><title>Node3&#45;&gt;Node2</title>
<path fill="none" stroke="midnightblue" d="M115,-110.516C115,-100.562 115,-89.0495 115,-81.0279"/>
<polygon fill="midnightblue" stroke="midnightblue" points="111.5,-110.822 115,-120.822 118.5,-110.822 111.5,-110.822"/>
</g>
<!-- Node4 -->
<g id="node6" class="node"><title>Node4</title>
<a xlink:href="class_kitware_1_1_v_t_k_1_1vtk_object_base.html" target="_top" xlink:title="vtkObjectBase &#45; abstract base class for most VTK objects">
<polygon fill="none" stroke="black" points="135,-561 135,-581 221,-581 221,-561 135,-561"/>
<text text-anchor="middle" x="178" y="-568" font-family="FreeSans" font-size="10.00">vtkObjectBase</text>
</a>
</g>
<!-- Node4&#45;&gt;Node3 -->
<g id="edge6" class="edge"><title>Node4&#45;&gt;Node3</title>
<path fill="none" stroke="midnightblue" d="M149.423,-555.886C135.687,-547.44 119.884,-535.826 109,-522 97.1564,-506.955 96.6209,-500.802 93,-482 67.4248,-349.199 102.577,-183.437 112.516,-141.17"/>
<polygon fill="midnightblue" stroke="midnightblue" points="147.683,-558.923 158.079,-560.97 151.229,-552.887 147.683,-558.923"/>
</g>
<!-- Node7 -->
<g id="node13" class="node"><title>Node7</title>
<a xlink:href="class_kitware_1_1_v_t_k_1_1vtk_object.html" target="_top" xlink:title="vtkObject &#45; abstract base class for most VTK objects">
<polygon fill="none" stroke="black" points="118,-501 118,-521 238,-521 238,-501 118,-501"/>
<text text-anchor="middle" x="178" y="-508" font-family="FreeSans" font-size="10.00">Kitware.VTK.vtkObject</text>
</a>
</g>
<!-- Node4&#45;&gt;Node7 -->
<g id="edge16" class="edge"><title>Node4&#45;&gt;Node7</title>
<path fill="none" stroke="midnightblue" d="M178,-550.516C178,-540.562 178,-529.05 178,-521.028"/>
<polygon fill="midnightblue" stroke="midnightblue" points="174.5,-550.822 178,-560.822 181.5,-550.822 174.5,-550.822"/>
</g>
<!-- Node5 -->
<g id="node8" class="node"><title>Node5</title>
<a xlink:href="class_kitware_1_1_v_t_k_1_1_wrapped_object.html" target="_top" xlink:title="Base class for all the mummy wrapped classes in Kitware.VTK.">
<polygon fill="none" stroke="black" points="316.5,-621 316.5,-641 405.5,-641 405.5,-621 316.5,-621"/>
<text text-anchor="middle" x="361" y="-628" font-family="FreeSans" font-size="10.00">WrappedObject</text>
</a>
</g>
<!-- Node5&#45;&gt;Node4 -->
<g id="edge8" class="edge"><title>Node5&#45;&gt;Node4</title>
<path fill="none" stroke="midnightblue" d="M320.804,-617.821C287.042,-606.752 239.512,-591.168 208.73,-581.075"/>
<polygon fill="midnightblue" stroke="midnightblue" points="319.777,-621.168 330.37,-620.957 321.958,-614.516 319.777,-621.168"/>
</g>
<!-- Node6 -->
<g id="node10" class="node"><title>Node6</title>
<a xlink:href="class_kitware_1_1_v_t_k_1_1vtk_object_event_relay.html" target="_top" xlink:title="Implement a relay handler for VTK events. This is a class that receives events directly from the VTK ...">
<polygon fill="none" stroke="black" points="107,-311 107,-331 279,-331 279,-311 107,-311"/>
<text text-anchor="middle" x="193" y="-318" font-family="FreeSans" font-size="10.00">Kitware.VTK.vtkObjectEventRelay</text>
</a>
</g>
<!-- Node5&#45;&gt;Node6 -->
<g id="edge12" class="edge"><title>Node5&#45;&gt;Node6</title>
<path fill="none" stroke="midnightblue" d="M373.888,-612.325C406.276,-562.899 483.803,-427.191 416,-350 406.773,-339.495 338.047,-331.666 279.298,-326.808"/>
<polygon fill="midnightblue" stroke="midnightblue" points="370.891,-610.509 368.239,-620.767 376.709,-614.402 370.891,-610.509"/>
</g>
<!-- Node6&#45;&gt;Node3 -->
<g id="edge10" class="edge"><title>Node6&#45;&gt;Node3</title>
<path fill="none" stroke="#9a32cd" stroke-dasharray="5,2" d="M184.921,-301.321C168.489,-261.293 131.674,-171.616 119.214,-141.266"/>
<polygon fill="#9a32cd" stroke="#9a32cd" points="181.771,-302.863 188.806,-310.785 188.246,-300.205 181.771,-302.863"/>
<text text-anchor="middle" x="292.5" y="-283" font-family="FreeSans" font-size="10.00"> LeftButtonReleaseEvtRelay</text>
<text text-anchor="middle" x="292.5" y="-271" font-family="FreeSans" font-size="10.00">KeyPressEvtRelay</text>
<text text-anchor="middle" x="292.5" y="-259" font-family="FreeSans" font-size="10.00">DomainModifiedEvtRelay</text>
<text text-anchor="middle" x="292.5" y="-247" font-family="FreeSans" font-size="10.00">VolumeMapperComputeGradientsStartEvtRelay</text>
<text text-anchor="middle" x="292.5" y="-235" font-family="FreeSans" font-size="10.00">ErrorEvtRelay</text>
<text text-anchor="middle" x="292.5" y="-223" font-family="FreeSans" font-size="10.00">VolumeMapperRenderStartEvtRelay</text>
<text text-anchor="middle" x="292.5" y="-211" font-family="FreeSans" font-size="10.00">StartEvtRelay</text>
<text text-anchor="middle" x="292.5" y="-199" font-family="FreeSans" font-size="10.00">ResetCameraEvtRelay</text>
<text text-anchor="middle" x="292.5" y="-187" font-family="FreeSans" font-size="10.00">EnableEvtRelay</text>
<text text-anchor="middle" x="292.5" y="-175" font-family="FreeSans" font-size="10.00">DeleteEvtRelay</text>
<text text-anchor="middle" x="292.5" y="-163" font-family="FreeSans" font-size="10.00">...</text>
</g>
<!-- Node6&#45;&gt;Node7 -->
<g id="edge18" class="edge"><title>Node6&#45;&gt;Node7</title>
<path fill="none" stroke="#9a32cd" stroke-dasharray="5,2" d="M190.028,-341.231C189.649,-344.169 189.293,-347.159 189,-350 183.144,-406.853 179.636,-475.333 178.452,-500.807"/>
<polygon fill="#9a32cd" stroke="#9a32cd" points="193.515,-341.565 191.421,-331.179 186.582,-340.604 193.515,-341.565"/>
<text text-anchor="middle" x="302.5" y="-473" font-family="FreeSans" font-size="10.00"> LeftButtonReleaseEvtRelay</text>
<text text-anchor="middle" x="302.5" y="-461" font-family="FreeSans" font-size="10.00">KeyPressEvtRelay</text>
<text text-anchor="middle" x="302.5" y="-449" font-family="FreeSans" font-size="10.00">DomainModifiedEvtRelay</text>
<text text-anchor="middle" x="302.5" y="-437" font-family="FreeSans" font-size="10.00">VolumeMapperComputeGradientsStartEvtRelay</text>
<text text-anchor="middle" x="302.5" y="-425" font-family="FreeSans" font-size="10.00">ErrorEvtRelay</text>
<text text-anchor="middle" x="302.5" y="-413" font-family="FreeSans" font-size="10.00">VolumeMapperRenderStartEvtRelay</text>
<text text-anchor="middle" x="302.5" y="-401" font-family="FreeSans" font-size="10.00">StartEvtRelay</text>
<text text-anchor="middle" x="302.5" y="-389" font-family="FreeSans" font-size="10.00">ResetCameraEvtRelay</text>
<text text-anchor="middle" x="302.5" y="-377" font-family="FreeSans" font-size="10.00">EnableEvtRelay</text>
<text text-anchor="middle" x="302.5" y="-365" font-family="FreeSans" font-size="10.00">DeleteEvtRelay</text>
<text text-anchor="middle" x="302.5" y="-353" font-family="FreeSans" font-size="10.00">...</text>
</g>
<!-- Node7&#45;&gt;Node6 -->
<g id="edge14" class="edge"><title>Node7&#45;&gt;Node6</title>
<path fill="none" stroke="#9a32cd" stroke-dasharray="5,2" d="M131.979,-495.818C126.439,-492.138 121.51,-487.596 118,-482 86.8229,-432.303 84.8299,-398.389 118,-350 122.736,-343.091 139.511,-336.287 155.999,-331.008"/>
<polygon fill="#9a32cd" stroke="#9a32cd" points="130.639,-499.079 141.072,-500.919 134.064,-492.974 130.639,-499.079"/>
<text text-anchor="middle" x="142" y="-419" font-family="FreeSans" font-size="10.00"> Sender</text>
<text text-anchor="middle" x="142" y="-407" font-family="FreeSans" font-size="10.00">EventImpl</text>
</g>
</g>
</svg>
