<?xml version="1.0" encoding="UTF-8" standalone="no"?>
<!DOCTYPE svg PUBLIC "-//W3C//DTD SVG 1.1//EN"
 "http://www.w3.org/Graphics/SVG/1.1/DTD/svg11.dtd">
<!-- Generated by graphviz version 2.26.3 (20100126.1600)
 -->
<!-- Title: G Pages: 1 -->
<svg width="1264pt" height="408pt"
 viewBox="0.00 0.00 1264.00 408.00" xmlns="http://www.w3.org/2000/svg" xmlns:xlink="http://www.w3.org/1999/xlink">
<g id="graph1" class="graph" transform="scale(1 1) rotate(0) translate(4 404)">
<title>G</title>
<!-- Node1 -->
<g id="node1" class="node"><title>Node1</title>
<polygon fill="#bfbfbf" stroke="black" points="792.5,-190 792.5,-210 991.5,-210 991.5,-190 792.5,-190"/>
<text text-anchor="middle" x="892" y="-197" font-family="FreeSans" font-size="10.00">Kitware.VTK.vtkImageSpatialAlgorithm</text>
</g>
<!-- Node8 -->
<g id="node15" class="node"><title>Node8</title>
<a xlink:href="class_kitware_1_1_v_t_k_1_1vtk_image_anisotropic_diffusion2_d.html" target="_top" xlink:title="vtkImageAnisotropicDiffusion2D &#45; edge preserving smoothing.">
<polygon fill="none" stroke="black" points="1028.5,-380 1028.5,-400 1255.5,-400 1255.5,-380 1028.5,-380"/>
<text text-anchor="middle" x="1142" y="-387" font-family="FreeSans" font-size="10.00">Kitware.VTK.vtkImageAnisotropicDiffusion2D</text>
</a>
</g>
<!-- Node1&#45;&gt;Node8 -->
<g id="edge14" class="edge"><title>Node1&#45;&gt;Node8</title>
<path fill="none" stroke="midnightblue" d="M901.231,-219.299C919.711,-255.637 964.954,-333.888 1028,-371 1034.05,-374.562 1040.58,-377.506 1047.34,-379.933"/>
<polygon fill="midnightblue" stroke="midnightblue" points="904.313,-217.635 896.736,-210.23 898.041,-220.744 904.313,-217.635"/>
</g>
<!-- Node9 -->
<g id="node17" class="node"><title>Node9</title>
<a xlink:href="class_kitware_1_1_v_t_k_1_1vtk_image_anisotropic_diffusion3_d.html" target="_top" xlink:title="vtkImageAnisotropicDiffusion3D &#45; edge preserving smoothing.">
<polygon fill="none" stroke="black" points="1028.5,-342 1028.5,-362 1255.5,-362 1255.5,-342 1028.5,-342"/>
<text text-anchor="middle" x="1142" y="-349" font-family="FreeSans" font-size="10.00">Kitware.VTK.vtkImageAnisotropicDiffusion3D</text>
</a>
</g>
<!-- Node1&#45;&gt;Node9 -->
<g id="edge16" class="edge"><title>Node1&#45;&gt;Node9</title>
<path fill="none" stroke="midnightblue" d="M904.735,-218.262C926.362,-247.721 973.29,-305.23 1028,-333 1035.07,-336.587 1042.67,-339.52 1050.47,-341.914"/>
<polygon fill="midnightblue" stroke="midnightblue" points="907.534,-216.16 898.854,-210.084 901.851,-220.246 907.534,-216.16"/>
</g>
<!-- Node10 -->
<g id="node19" class="node"><title>Node10</title>
<a xlink:href="class_kitware_1_1_v_t_k_1_1vtk_image_continuous_dilate3_d.html" target="_top" xlink:title="vtkImageContinuousDilate3D &#45; Dilate implemented as a maximum.">
<polygon fill="none" stroke="black" points="1034.5,-304 1034.5,-324 1249.5,-324 1249.5,-304 1034.5,-304"/>
<text text-anchor="middle" x="1142" y="-311" font-family="FreeSans" font-size="10.00">Kitware.VTK.vtkImageContinuousDilate3D</text>
</a>
</g>
<!-- Node1&#45;&gt;Node10 -->
<g id="edge18" class="edge"><title>Node1&#45;&gt;Node10</title>
<path fill="none" stroke="midnightblue" d="M910.513,-217.057C935.289,-238.856 981.521,-276.033 1028,-295 1036.92,-298.639 1046.5,-301.581 1056.18,-303.96"/>
<polygon fill="midnightblue" stroke="midnightblue" points="912.75,-214.363 902.964,-210.303 908.083,-219.579 912.75,-214.363"/>
</g>
<!-- Node11 -->
<g id="node21" class="node"><title>Node11</title>
<a xlink:href="class_kitware_1_1_v_t_k_1_1vtk_image_continuous_erode3_d.html" target="_top" xlink:title="vtkImageContinuousErode3D &#45; Erosion implemented as a minimum.">
<polygon fill="none" stroke="black" points="1034.5,-266 1034.5,-286 1249.5,-286 1249.5,-266 1034.5,-266"/>
<text text-anchor="middle" x="1142" y="-273" font-family="FreeSans" font-size="10.00">Kitware.VTK.vtkImageContinuousErode3D</text>
</a>
</g>
<!-- Node1&#45;&gt;Node11 -->
<g id="edge20" class="edge"><title>Node1&#45;&gt;Node11</title>
<path fill="none" stroke="midnightblue" d="M921.485,-214.709C948.558,-227.641 990.102,-246.061 1028,-257 1040.34,-260.561 1053.63,-263.529 1066.63,-265.978"/>
<polygon fill="midnightblue" stroke="midnightblue" points="922.725,-211.421 912.199,-210.216 919.677,-217.722 922.725,-211.421"/>
</g>
<!-- Node12 -->
<g id="node23" class="node"><title>Node12</title>
<a xlink:href="class_kitware_1_1_v_t_k_1_1vtk_image_dilate_erode3_d.html" target="_top" xlink:title="vtkImageDilateErode3D &#45; Dilates one value and erodes another.">
<polygon fill="none" stroke="black" points="1048,-228 1048,-248 1236,-248 1236,-228 1048,-228"/>
<text text-anchor="middle" x="1142" y="-235" font-family="FreeSans" font-size="10.00">Kitware.VTK.vtkImageDilateErode3D</text>
</a>
</g>
<!-- Node1&#45;&gt;Node12 -->
<g id="edge22" class="edge"><title>Node1&#45;&gt;Node12</title>
<path fill="none" stroke="midnightblue" d="M968.035,-211.557C1002.51,-216.797 1042.88,-222.934 1076.05,-227.976"/>
<polygon fill="midnightblue" stroke="midnightblue" points="968.424,-208.076 958.012,-210.034 967.372,-214.997 968.424,-208.076"/>
</g>
<!-- Node13 -->
<g id="node25" class="node"><title>Node13</title>
<a xlink:href="class_kitware_1_1_v_t_k_1_1vtk_image_hybrid_median2_d.html" target="_top" xlink:title="vtkImageHybridMedian2D &#45; Median filter that preserves lines and corners.">
<polygon fill="none" stroke="black" points="1043,-190 1043,-210 1241,-210 1241,-190 1043,-190"/>
<text text-anchor="middle" x="1142" y="-197" font-family="FreeSans" font-size="10.00">Kitware.VTK.vtkImageHybridMedian2D</text>
</a>
</g>
<!-- Node1&#45;&gt;Node13 -->
<g id="edge24" class="edge"><title>Node1&#45;&gt;Node13</title>
<path fill="none" stroke="midnightblue" d="M1001.88,-200C1015.5,-200 1029.37,-200 1042.82,-200"/>
<polygon fill="midnightblue" stroke="midnightblue" points="1001.52,-196.5 991.525,-200 1001.52,-203.5 1001.52,-196.5"/>
</g>
<!-- Node14 -->
<g id="node27" class="node"><title>Node14</title>
<a xlink:href="class_kitware_1_1_v_t_k_1_1vtk_image_median3_d.html" target="_top" xlink:title="vtkImageMedian3D &#45; Median Filter">
<polygon fill="none" stroke="black" points="1058.5,-152 1058.5,-172 1225.5,-172 1225.5,-152 1058.5,-152"/>
<text text-anchor="middle" x="1142" y="-159" font-family="FreeSans" font-size="10.00">Kitware.VTK.vtkImageMedian3D</text>
</a>
</g>
<!-- Node1&#45;&gt;Node14 -->
<g id="edge26" class="edge"><title>Node1&#45;&gt;Node14</title>
<path fill="none" stroke="midnightblue" d="M968.035,-188.443C1002.51,-183.203 1042.88,-177.066 1076.05,-172.024"/>
<polygon fill="midnightblue" stroke="midnightblue" points="967.372,-185.003 958.012,-189.966 968.424,-191.924 967.372,-185.003"/>
</g>
<!-- Node15 -->
<g id="node29" class="node"><title>Node15</title>
<a xlink:href="class_kitware_1_1_v_t_k_1_1vtk_image_range3_d.html" target="_top" xlink:title="vtkImageRange3D &#45; Max &#45; min of a circular neighborhood.">
<polygon fill="none" stroke="black" points="1060.5,-114 1060.5,-134 1223.5,-134 1223.5,-114 1060.5,-114"/>
<text text-anchor="middle" x="1142" y="-121" font-family="FreeSans" font-size="10.00">Kitware.VTK.vtkImageRange3D</text>
</a>
</g>
<!-- Node1&#45;&gt;Node15 -->
<g id="edge28" class="edge"><title>Node1&#45;&gt;Node15</title>
<path fill="none" stroke="midnightblue" d="M921.485,-185.291C948.558,-172.359 990.102,-153.939 1028,-143 1040.34,-139.439 1053.63,-136.471 1066.63,-134.022"/>
<polygon fill="midnightblue" stroke="midnightblue" points="919.677,-182.278 912.199,-189.784 922.725,-188.579 919.677,-182.278"/>
</g>
<!-- Node16 -->
<g id="node31" class="node"><title>Node16</title>
<a xlink:href="class_kitware_1_1_v_t_k_1_1vtk_image_sobel2_d.html" target="_top" xlink:title="vtkImageSobel2D &#45; Computes a vector field using sobel functions.">
<polygon fill="none" stroke="black" points="1062,-76 1062,-96 1222,-96 1222,-76 1062,-76"/>
<text text-anchor="middle" x="1142" y="-83" font-family="FreeSans" font-size="10.00">Kitware.VTK.vtkImageSobel2D</text>
</a>
</g>
<!-- Node1&#45;&gt;Node16 -->
<g id="edge30" class="edge"><title>Node1&#45;&gt;Node16</title>
<path fill="none" stroke="midnightblue" d="M910.513,-182.943C935.289,-161.144 981.521,-123.967 1028,-105 1038.68,-100.641 1050.32,-97.2816 1061.94,-94.6927"/>
<polygon fill="midnightblue" stroke="midnightblue" points="908.083,-180.421 902.964,-189.697 912.75,-185.637 908.083,-180.421"/>
</g>
<!-- Node17 -->
<g id="node33" class="node"><title>Node17</title>
<a xlink:href="class_kitware_1_1_v_t_k_1_1vtk_image_sobel3_d.html" target="_top" xlink:title="vtkImageSobel3D &#45; Computes a vector field using sobel functions.">
<polygon fill="none" stroke="black" points="1062,-38 1062,-58 1222,-58 1222,-38 1062,-38"/>
<text text-anchor="middle" x="1142" y="-45" font-family="FreeSans" font-size="10.00">Kitware.VTK.vtkImageSobel3D</text>
</a>
</g>
<!-- Node1&#45;&gt;Node17 -->
<g id="edge32" class="edge"><title>Node1&#45;&gt;Node17</title>
<path fill="none" stroke="midnightblue" d="M904.735,-181.738C926.362,-152.279 973.29,-94.7699 1028,-67 1038.47,-61.6873 1050.1,-57.8104 1061.83,-54.9907"/>
<polygon fill="midnightblue" stroke="midnightblue" points="901.851,-179.754 898.854,-189.916 907.534,-183.84 901.851,-179.754"/>
</g>
<!-- Node18 -->
<g id="node35" class="node"><title>Node18</title>
<a xlink:href="class_kitware_1_1_v_t_k_1_1vtk_image_variance3_d.html" target="_top" xlink:title="vtkImageVariance3D &#45; Variance in a neighborhood.">
<polygon fill="none" stroke="black" points="1055,-0 1055,-20 1229,-20 1229,-0 1055,-0"/>
<text text-anchor="middle" x="1142" y="-7" font-family="FreeSans" font-size="10.00">Kitware.VTK.vtkImageVariance3D</text>
</a>
</g>
<!-- Node1&#45;&gt;Node18 -->
<g id="edge34" class="edge"><title>Node1&#45;&gt;Node18</title>
<path fill="none" stroke="midnightblue" d="M901.231,-180.701C919.711,-144.363 964.954,-66.1121 1028,-29 1036.3,-24.1143 1045.5,-20.3928 1054.96,-17.5706"/>
<polygon fill="midnightblue" stroke="midnightblue" points="898.041,-179.256 896.736,-189.77 904.313,-182.365 898.041,-179.256"/>
</g>
<!-- Node2 -->
<g id="node2" class="node"><title>Node2</title>
<a xlink:href="class_kitware_1_1_v_t_k_1_1vtk_threaded_image_algorithm.html" target="_top" xlink:title="vtkThreadedImageAlgorithm &#45; Generic filter that has one input..">
<polygon fill="none" stroke="black" points="604,-190 604,-210 756,-210 756,-190 604,-190"/>
<text text-anchor="middle" x="680" y="-197" font-family="FreeSans" font-size="10.00">vtkThreadedImageAlgorithm</text>
</a>
</g>
<!-- Node2&#45;&gt;Node1 -->
<g id="edge2" class="edge"><title>Node2&#45;&gt;Node1</title>
<path fill="none" stroke="midnightblue" d="M766.265,-200C774.89,-200 783.695,-200 792.442,-200"/>
<polygon fill="midnightblue" stroke="midnightblue" points="766.237,-196.5 756.237,-200 766.237,-203.5 766.237,-196.5"/>
</g>
<!-- Node3 -->
<g id="node4" class="node"><title>Node3</title>
<a xlink:href="class_kitware_1_1_v_t_k_1_1vtk_image_algorithm.html" target="_top" xlink:title="vtkImageAlgorithm &#45; Generic algorithm superclass for image algs">
<polygon fill="none" stroke="black" points="460.5,-190 460.5,-210 567.5,-210 567.5,-190 460.5,-190"/>
<text text-anchor="middle" x="514" y="-197" font-family="FreeSans" font-size="10.00">vtkImageAlgorithm</text>
</a>
</g>
<!-- Node3&#45;&gt;Node2 -->
<g id="edge4" class="edge"><title>Node3&#45;&gt;Node2</title>
<path fill="none" stroke="midnightblue" d="M578.016,-200C586.446,-200 595.153,-200 603.761,-200"/>
<polygon fill="midnightblue" stroke="midnightblue" points="577.895,-196.5 567.895,-200 577.895,-203.5 577.895,-196.5"/>
</g>
<!-- Node4 -->
<g id="node6" class="node"><title>Node4</title>
<a xlink:href="class_kitware_1_1_v_t_k_1_1vtk_algorithm.html" target="_top" xlink:title="vtkAlgorithm &#45; Superclass for all sources, filters, and sinks in VTK.">
<polygon fill="none" stroke="black" points="346.5,-190 346.5,-210 423.5,-210 423.5,-190 346.5,-190"/>
<text text-anchor="middle" x="385" y="-197" font-family="FreeSans" font-size="10.00">vtkAlgorithm</text>
</a>
</g>
<!-- Node4&#45;&gt;Node3 -->
<g id="edge6" class="edge"><title>Node4&#45;&gt;Node3</title>
<path fill="none" stroke="midnightblue" d="M433.896,-200C442.445,-200 451.384,-200 460.06,-200"/>
<polygon fill="midnightblue" stroke="midnightblue" points="433.704,-196.5 423.704,-200 433.704,-203.5 433.704,-196.5"/>
</g>
<!-- Node5 -->
<g id="node8" class="node"><title>Node5</title>
<a xlink:href="class_kitware_1_1_v_t_k_1_1vtk_object.html" target="_top" xlink:title="vtkObject &#45; abstract base class for most VTK objects">
<polygon fill="none" stroke="black" points="248,-190 248,-210 310,-210 310,-190 248,-190"/>
<text text-anchor="middle" x="279" y="-197" font-family="FreeSans" font-size="10.00">vtkObject</text>
</a>
</g>
<!-- Node5&#45;&gt;Node4 -->
<g id="edge8" class="edge"><title>Node5&#45;&gt;Node4</title>
<path fill="none" stroke="midnightblue" d="M320.421,-200C329.001,-200 338.007,-200 346.479,-200"/>
<polygon fill="midnightblue" stroke="midnightblue" points="320.23,-196.5 310.23,-200 320.23,-203.5 320.23,-196.5"/>
</g>
<!-- Node6 -->
<g id="node10" class="node"><title>Node6</title>
<a xlink:href="class_kitware_1_1_v_t_k_1_1vtk_object_base.html" target="_top" xlink:title="vtkObjectBase &#45; abstract base class for most VTK objects">
<polygon fill="none" stroke="black" points="126,-190 126,-210 212,-210 212,-190 126,-190"/>
<text text-anchor="middle" x="169" y="-197" font-family="FreeSans" font-size="10.00">vtkObjectBase</text>
</a>
</g>
<!-- Node6&#45;&gt;Node5 -->
<g id="edge10" class="edge"><title>Node6&#45;&gt;Node5</title>
<path fill="none" stroke="midnightblue" d="M222.346,-200C231.091,-200 239.892,-200 247.863,-200"/>
<polygon fill="midnightblue" stroke="midnightblue" points="222.159,-196.5 212.159,-200 222.159,-203.5 222.159,-196.5"/>
</g>
<!-- Node7 -->
<g id="node12" class="node"><title>Node7</title>
<a xlink:href="class_kitware_1_1_v_t_k_1_1_wrapped_object.html" target="_top" xlink:title="Base class for all the mummy wrapped classes in Kitware.VTK.">
<polygon fill="none" stroke="black" points="0.5,-190 0.5,-210 89.5,-210 89.5,-190 0.5,-190"/>
<text text-anchor="middle" x="45" y="-197" font-family="FreeSans" font-size="10.00">WrappedObject</text>
</a>
</g>
<!-- Node7&#45;&gt;Node6 -->
<g id="edge12" class="edge"><title>Node7&#45;&gt;Node6</title>
<path fill="none" stroke="midnightblue" d="M99.8895,-200C108.623,-200 117.548,-200 125.957,-200"/>
<polygon fill="midnightblue" stroke="midnightblue" points="99.7669,-196.5 89.7668,-200 99.7668,-203.5 99.7669,-196.5"/>
</g>
</g>
</svg>
