<?xml version="1.0" encoding="UTF-8" standalone="no"?>
<!DOCTYPE svg PUBLIC "-//W3C//DTD SVG 1.1//EN"
 "http://www.w3.org/Graphics/SVG/1.1/DTD/svg11.dtd">
<!-- Generated by graphviz version 2.26.3 (20100126.1600)
 -->
<!-- Title: G Pages: 1 -->
<svg width="158pt" height="436pt"
 viewBox="0.00 0.00 158.00 436.00" xmlns="http://www.w3.org/2000/svg" xmlns:xlink="http://www.w3.org/1999/xlink">
<g id="graph1" class="graph" transform="scale(1 1) rotate(0) translate(4 432)">
<title>G</title>
<!-- Node1 -->
<g id="node1" class="node"><title>Node1</title>
<polygon fill="#bfbfbf" stroke="black" points="-0.5,-1 -0.5,-21 150.5,-21 150.5,-1 -0.5,-1"/>
<text text-anchor="middle" x="75" y="-8" font-family="FreeSans" font-size="10.00">Kitware.VTK.vtkTreeRingView</text>
</g>
<!-- Node2 -->
<g id="node2" class="node"><title>Node2</title>
<a xlink:href="class_kitware_1_1_v_t_k_1_1vtk_tree_area_view.html" target="_top" xlink:title="vtkTreeAreaView &#45; Accepts a graph and a hierarchy &#45; currently a tree &#45; and provides a hierarchy&#45;aware...">
<polygon fill="none" stroke="black" points="27.5,-59 27.5,-79 122.5,-79 122.5,-59 27.5,-59"/>
<text text-anchor="middle" x="75" y="-66" font-family="FreeSans" font-size="10.00">vtkTreeAreaView</text>
</a>
</g>
<!-- Node2&#45;&gt;Node1 -->
<g id="edge2" class="edge"><title>Node2&#45;&gt;Node1</title>
<path fill="none" stroke="midnightblue" d="M75,-48.8902C75,-39.6201 75,-29.0083 75,-21.3776"/>
<polygon fill="midnightblue" stroke="midnightblue" points="71.5001,-48.8971 75,-58.8972 78.5001,-48.8972 71.5001,-48.8971"/>
</g>
<!-- Node3 -->
<g id="node4" class="node"><title>Node3</title>
<a xlink:href="class_kitware_1_1_v_t_k_1_1vtk_render_view.html" target="_top" xlink:title="vtkRenderView &#45; A view containing a renderer.">
<polygon fill="none" stroke="black" points="32,-117 32,-137 118,-137 118,-117 32,-117"/>
<text text-anchor="middle" x="75" y="-124" font-family="FreeSans" font-size="10.00">vtkRenderView</text>
</a>
</g>
<!-- Node3&#45;&gt;Node2 -->
<g id="edge4" class="edge"><title>Node3&#45;&gt;Node2</title>
<path fill="none" stroke="midnightblue" d="M75,-106.89C75,-97.6201 75,-87.0083 75,-79.3776"/>
<polygon fill="midnightblue" stroke="midnightblue" points="71.5001,-106.897 75,-116.897 78.5001,-106.897 71.5001,-106.897"/>
</g>
<!-- Node4 -->
<g id="node6" class="node"><title>Node4</title>
<a xlink:href="class_kitware_1_1_v_t_k_1_1vtk_render_view_base.html" target="_top" xlink:title="vtkRenderViewBase &#45; A base view containing a renderer.">
<polygon fill="none" stroke="black" points="20,-175 20,-195 130,-195 130,-175 20,-175"/>
<text text-anchor="middle" x="75" y="-182" font-family="FreeSans" font-size="10.00">vtkRenderViewBase</text>
</a>
</g>
<!-- Node4&#45;&gt;Node3 -->
<g id="edge6" class="edge"><title>Node4&#45;&gt;Node3</title>
<path fill="none" stroke="midnightblue" d="M75,-164.89C75,-155.62 75,-145.008 75,-137.378"/>
<polygon fill="midnightblue" stroke="midnightblue" points="71.5001,-164.897 75,-174.897 78.5001,-164.897 71.5001,-164.897"/>
</g>
<!-- Node5 -->
<g id="node8" class="node"><title>Node5</title>
<a xlink:href="class_kitware_1_1_v_t_k_1_1vtk_view.html" target="_top" xlink:title="vtkView &#45; The superclass for all views.">
<polygon fill="none" stroke="black" points="48.5,-233 48.5,-253 101.5,-253 101.5,-233 48.5,-233"/>
<text text-anchor="middle" x="75" y="-240" font-family="FreeSans" font-size="10.00">vtkView</text>
</a>
</g>
<!-- Node5&#45;&gt;Node4 -->
<g id="edge8" class="edge"><title>Node5&#45;&gt;Node4</title>
<path fill="none" stroke="midnightblue" d="M75,-222.89C75,-213.62 75,-203.008 75,-195.378"/>
<polygon fill="midnightblue" stroke="midnightblue" points="71.5001,-222.897 75,-232.897 78.5001,-222.897 71.5001,-222.897"/>
</g>
<!-- Node6 -->
<g id="node10" class="node"><title>Node6</title>
<a xlink:href="class_kitware_1_1_v_t_k_1_1vtk_object.html" target="_top" xlink:title="vtkObject &#45; abstract base class for most VTK objects">
<polygon fill="none" stroke="black" points="44,-291 44,-311 106,-311 106,-291 44,-291"/>
<text text-anchor="middle" x="75" y="-298" font-family="FreeSans" font-size="10.00">vtkObject</text>
</a>
</g>
<!-- Node6&#45;&gt;Node5 -->
<g id="edge10" class="edge"><title>Node6&#45;&gt;Node5</title>
<path fill="none" stroke="midnightblue" d="M75,-280.89C75,-271.62 75,-261.008 75,-253.378"/>
<polygon fill="midnightblue" stroke="midnightblue" points="71.5001,-280.897 75,-290.897 78.5001,-280.897 71.5001,-280.897"/>
</g>
<!-- Node7 -->
<g id="node12" class="node"><title>Node7</title>
<a xlink:href="class_kitware_1_1_v_t_k_1_1vtk_object_base.html" target="_top" xlink:title="vtkObjectBase &#45; abstract base class for most VTK objects">
<polygon fill="none" stroke="black" points="32,-349 32,-369 118,-369 118,-349 32,-349"/>
<text text-anchor="middle" x="75" y="-356" font-family="FreeSans" font-size="10.00">vtkObjectBase</text>
</a>
</g>
<!-- Node7&#45;&gt;Node6 -->
<g id="edge12" class="edge"><title>Node7&#45;&gt;Node6</title>
<path fill="none" stroke="midnightblue" d="M75,-338.89C75,-329.62 75,-319.008 75,-311.378"/>
<polygon fill="midnightblue" stroke="midnightblue" points="71.5001,-338.897 75,-348.897 78.5001,-338.897 71.5001,-338.897"/>
</g>
<!-- Node8 -->
<g id="node14" class="node"><title>Node8</title>
<a xlink:href="class_kitware_1_1_v_t_k_1_1_wrapped_object.html" target="_top" xlink:title="Base class for all the mummy wrapped classes in Kitware.VTK.">
<polygon fill="none" stroke="black" points="30.5,-407 30.5,-427 119.5,-427 119.5,-407 30.5,-407"/>
<text text-anchor="middle" x="75" y="-414" font-family="FreeSans" font-size="10.00">WrappedObject</text>
</a>
</g>
<!-- Node8&#45;&gt;Node7 -->
<g id="edge14" class="edge"><title>Node8&#45;&gt;Node7</title>
<path fill="none" stroke="midnightblue" d="M75,-396.89C75,-387.62 75,-377.008 75,-369.378"/>
<polygon fill="midnightblue" stroke="midnightblue" points="71.5001,-396.897 75,-406.897 78.5001,-396.897 71.5001,-396.897"/>
</g>
</g>
</svg>
