<?xml version="1.0" encoding="UTF-8" standalone="no"?>
<!DOCTYPE svg PUBLIC "-//W3C//DTD SVG 1.1//EN"
 "http://www.w3.org/Graphics/SVG/1.1/DTD/svg11.dtd">
<!-- Generated by graphviz version 2.26.3 (20100126.1600)
 -->
<!-- Title: G Pages: 1 -->
<svg width="968pt" height="180pt"
 viewBox="0.00 0.00 968.00 180.00" xmlns="http://www.w3.org/2000/svg" xmlns:xlink="http://www.w3.org/1999/xlink">
<g id="graph1" class="graph" transform="scale(1 1) rotate(0) translate(4 176)">
<title>G</title>
<!-- Node1 -->
<g id="node1" class="node"><title>Node1</title>
<polygon fill="#bfbfbf" stroke="black" points="460,-76 460,-96 666,-96 666,-76 460,-76"/>
<text text-anchor="middle" x="563" y="-83" font-family="FreeSans" font-size="10.00">Kitware.VTK.vtkDirectedGraphAlgorithm</text>
</g>
<!-- Node6 -->
<g id="node11" class="node"><title>Node6</title>
<a xlink:href="class_kitware_1_1_v_t_k_1_1vtk_pipeline_graph_source.html" target="_top" xlink:title="vtkPipelineGraphSource &#45; a graph constructed from a VTK pipeline">
<polygon fill="none" stroke="black" points="736.5,-152 736.5,-172 925.5,-172 925.5,-152 736.5,-152"/>
<text text-anchor="middle" x="831" y="-159" font-family="FreeSans" font-size="10.00">Kitware.VTK.vtkPipelineGraphSource</text>
</a>
</g>
<!-- Node1&#45;&gt;Node6 -->
<g id="edge10" class="edge"><title>Node1&#45;&gt;Node6</title>
<path fill="none" stroke="midnightblue" d="M592.284,-100.459C619.923,-113.51 662.849,-132.262 702,-143 715.099,-146.593 729.144,-149.545 742.972,-151.96"/>
<polygon fill="midnightblue" stroke="midnightblue" points="593.708,-97.2607 583.177,-96.1032 590.688,-103.576 593.708,-97.2607"/>
</g>
<!-- Node7 -->
<g id="node13" class="node"><title>Node7</title>
<a xlink:href="class_kitware_1_1_v_t_k_1_1vtk_poly_data_to_reeb_graph_filter.html" target="_top" xlink:title="vtkPolyDataToReebGraphFilter &#45; generate a Reeb graph from a scalar field defined on a vtkPolyData...">
<polygon fill="none" stroke="black" points="722.5,-114 722.5,-134 939.5,-134 939.5,-114 722.5,-114"/>
<text text-anchor="middle" x="831" y="-121" font-family="FreeSans" font-size="10.00">Kitware.VTK.vtkPolyDataToReebGraphFilter</text>
</a>
</g>
<!-- Node1&#45;&gt;Node7 -->
<g id="edge12" class="edge"><title>Node1&#45;&gt;Node7</title>
<path fill="none" stroke="midnightblue" d="M644.034,-97.4899C681.093,-102.744 724.593,-108.912 760.304,-113.976"/>
<polygon fill="midnightblue" stroke="midnightblue" points="644.157,-93.9724 633.764,-96.0338 643.174,-100.903 644.157,-93.9724"/>
</g>
<!-- Node8 -->
<g id="node15" class="node"><title>Node8</title>
<a xlink:href="class_kitware_1_1_v_t_k_1_1vtk_reeb_graph_simplification_filter.html" target="_top" xlink:title="vtkReebGraphSimplificationFilter &#45; simplify an input Reeb graph.">
<polygon fill="none" stroke="black" points="717,-76 717,-96 945,-96 945,-76 717,-76"/>
<text text-anchor="middle" x="831" y="-83" font-family="FreeSans" font-size="10.00">Kitware.VTK.vtkReebGraphSimplificationFilter</text>
</a>
</g>
<!-- Node1&#45;&gt;Node8 -->
<g id="edge14" class="edge"><title>Node1&#45;&gt;Node8</title>
<path fill="none" stroke="midnightblue" d="M676.369,-86C689.707,-86 703.325,-86 716.676,-86"/>
<polygon fill="midnightblue" stroke="midnightblue" points="676.232,-82.5001 666.232,-86 676.232,-89.5001 676.232,-82.5001"/>
</g>
<!-- Node9 -->
<g id="node17" class="node"><title>Node9</title>
<a xlink:href="class_kitware_1_1_v_t_k_1_1vtk_reeb_graph_to_join_split_tree_filter.html" target="_top" xlink:title="vtkReebGraphToJoinSplitTreeFilter &#45; converts a given Reeb graph either to a join tree or a split tree...">
<polygon fill="none" stroke="black" points="715.5,-38 715.5,-58 946.5,-58 946.5,-38 715.5,-38"/>
<text text-anchor="middle" x="831" y="-45" font-family="FreeSans" font-size="10.00">Kitware.VTK.vtkReebGraphToJoinSplitTreeFilter</text>
</a>
</g>
<!-- Node1&#45;&gt;Node9 -->
<g id="edge16" class="edge"><title>Node1&#45;&gt;Node9</title>
<path fill="none" stroke="midnightblue" d="M644.034,-74.5101C681.093,-69.2555 724.593,-63.0876 760.304,-58.024"/>
<polygon fill="midnightblue" stroke="midnightblue" points="643.174,-71.097 633.764,-75.9662 644.157,-78.0276 643.174,-71.097"/>
</g>
<!-- Node10 -->
<g id="node19" class="node"><title>Node10</title>
<a xlink:href="class_kitware_1_1_v_t_k_1_1vtk_unstructured_grid_to_reeb_graph_filter.html" target="_top" xlink:title="vtkUnstructuredGridToReebGraphFilter &#45; generate a Reeb graph from a scalar field defined on a vtkUnst...">
<polygon fill="none" stroke="black" points="702.5,-0 702.5,-20 959.5,-20 959.5,-0 702.5,-0"/>
<text text-anchor="middle" x="831" y="-7" font-family="FreeSans" font-size="10.00">Kitware.VTK.vtkUnstructuredGridToReebGraphFilter</text>
</a>
</g>
<!-- Node1&#45;&gt;Node10 -->
<g id="edge18" class="edge"><title>Node1&#45;&gt;Node10</title>
<path fill="none" stroke="midnightblue" d="M592.284,-71.5407C619.923,-58.4897 662.849,-39.7382 702,-29 715.099,-25.4073 729.144,-22.455 742.972,-20.0402"/>
<polygon fill="midnightblue" stroke="midnightblue" points="590.688,-68.4244 583.177,-75.8968 593.708,-74.7393 590.688,-68.4244"/>
</g>
<!-- Node2 -->
<g id="node2" class="node"><title>Node2</title>
<a xlink:href="class_kitware_1_1_v_t_k_1_1vtk_algorithm.html" target="_top" xlink:title="vtkAlgorithm &#45; Superclass for all sources, filters, and sinks in VTK.">
<polygon fill="none" stroke="black" points="346.5,-76 346.5,-96 423.5,-96 423.5,-76 346.5,-76"/>
<text text-anchor="middle" x="385" y="-83" font-family="FreeSans" font-size="10.00">vtkAlgorithm</text>
</a>
</g>
<!-- Node2&#45;&gt;Node1 -->
<g id="edge2" class="edge"><title>Node2&#45;&gt;Node1</title>
<path fill="none" stroke="midnightblue" d="M433.739,-86C441.995,-86 450.836,-86 459.877,-86"/>
<polygon fill="midnightblue" stroke="midnightblue" points="433.623,-82.5001 423.623,-86 433.623,-89.5001 433.623,-82.5001"/>
</g>
<!-- Node3 -->
<g id="node4" class="node"><title>Node3</title>
<a xlink:href="class_kitware_1_1_v_t_k_1_1vtk_object.html" target="_top" xlink:title="vtkObject &#45; abstract base class for most VTK objects">
<polygon fill="none" stroke="black" points="248,-76 248,-96 310,-96 310,-76 248,-76"/>
<text text-anchor="middle" x="279" y="-83" font-family="FreeSans" font-size="10.00">vtkObject</text>
</a>
</g>
<!-- Node3&#45;&gt;Node2 -->
<g id="edge4" class="edge"><title>Node3&#45;&gt;Node2</title>
<path fill="none" stroke="midnightblue" d="M320.421,-86C329.001,-86 338.007,-86 346.479,-86"/>
<polygon fill="midnightblue" stroke="midnightblue" points="320.23,-82.5001 310.23,-86 320.23,-89.5001 320.23,-82.5001"/>
</g>
<!-- Node4 -->
<g id="node6" class="node"><title>Node4</title>
<a xlink:href="class_kitware_1_1_v_t_k_1_1vtk_object_base.html" target="_top" xlink:title="vtkObjectBase &#45; abstract base class for most VTK objects">
<polygon fill="none" stroke="black" points="126,-76 126,-96 212,-96 212,-76 126,-76"/>
<text text-anchor="middle" x="169" y="-83" font-family="FreeSans" font-size="10.00">vtkObjectBase</text>
</a>
</g>
<!-- Node4&#45;&gt;Node3 -->
<g id="edge6" class="edge"><title>Node4&#45;&gt;Node3</title>
<path fill="none" stroke="midnightblue" d="M222.346,-86C231.091,-86 239.892,-86 247.863,-86"/>
<polygon fill="midnightblue" stroke="midnightblue" points="222.159,-82.5001 212.159,-86 222.159,-89.5001 222.159,-82.5001"/>
</g>
<!-- Node5 -->
<g id="node8" class="node"><title>Node5</title>
<a xlink:href="class_kitware_1_1_v_t_k_1_1_wrapped_object.html" target="_top" xlink:title="Base class for all the mummy wrapped classes in Kitware.VTK.">
<polygon fill="none" stroke="black" points="0.5,-76 0.5,-96 89.5,-96 89.5,-76 0.5,-76"/>
<text text-anchor="middle" x="45" y="-83" font-family="FreeSans" font-size="10.00">WrappedObject</text>
</a>
</g>
<!-- Node5&#45;&gt;Node4 -->
<g id="edge8" class="edge"><title>Node5&#45;&gt;Node4</title>
<path fill="none" stroke="midnightblue" d="M99.8895,-86C108.623,-86 117.548,-86 125.957,-86"/>
<polygon fill="midnightblue" stroke="midnightblue" points="99.7669,-82.5001 89.7668,-86 99.7668,-89.5001 99.7669,-82.5001"/>
</g>
</g>
</svg>
