<?xml version="1.0" encoding="UTF-8" standalone="no"?>
<!DOCTYPE svg PUBLIC "-//W3C//DTD SVG 1.1//EN"
 "http://www.w3.org/Graphics/SVG/1.1/DTD/svg11.dtd">
<!-- Generated by graphviz version 2.26.3 (20100126.1600)
 -->
<!-- Title: G Pages: 1 -->
<svg width="404pt" height="650pt"
 viewBox="0.00 0.00 404.46 650.00" xmlns="http://www.w3.org/2000/svg" xmlns:xlink="http://www.w3.org/1999/xlink">
<g id="graph1" class="graph" transform="scale(1 1) rotate(0) translate(4 646)">
<title>G</title>
<!-- Node1 -->
<g id="node1" class="node"><title>Node1</title>
<polygon fill="#bfbfbf" stroke="black" points="-0.5,-1 -0.5,-21 136.5,-21 136.5,-1 -0.5,-1"/>
<text text-anchor="middle" x="68" y="-8" font-family="FreeSans" font-size="10.00">Kitware.VTK.vtkSQLQuery</text>
</g>
<!-- Node2 -->
<g id="node2" class="node"><title>Node2</title>
<a xlink:href="class_kitware_1_1_v_t_k_1_1vtk_row_query.html" target="_top" xlink:title="vtkRowQuery &#45; abstract interface for queries that return row&#45;oriented results.">
<polygon fill="none" stroke="black" points="29.5,-61 29.5,-81 106.5,-81 106.5,-61 29.5,-61"/>
<text text-anchor="middle" x="68" y="-68" font-family="FreeSans" font-size="10.00">vtkRowQuery</text>
</a>
</g>
<!-- Node2&#45;&gt;Node1 -->
<g id="edge2" class="edge"><title>Node2&#45;&gt;Node1</title>
<path fill="none" stroke="midnightblue" d="M68,-50.5155C68,-40.562 68,-29.0495 68,-21.0279"/>
<polygon fill="midnightblue" stroke="midnightblue" points="64.5001,-50.8218 68,-60.8218 71.5001,-50.8219 64.5001,-50.8218"/>
</g>
<!-- Node3 -->
<g id="node4" class="node"><title>Node3</title>
<a xlink:href="class_kitware_1_1_v_t_k_1_1vtk_object.html" target="_top" xlink:title="vtkObject &#45; abstract base class for most VTK objects">
<polygon fill="none" stroke="black" points="37,-121 37,-141 99,-141 99,-121 37,-121"/>
<text text-anchor="middle" x="68" y="-128" font-family="FreeSans" font-size="10.00">vtkObject</text>
</a>
</g>
<!-- Node3&#45;&gt;Node2 -->
<g id="edge4" class="edge"><title>Node3&#45;&gt;Node2</title>
<path fill="none" stroke="midnightblue" d="M68,-110.516C68,-100.562 68,-89.0495 68,-81.0279"/>
<polygon fill="midnightblue" stroke="midnightblue" points="64.5001,-110.822 68,-120.822 71.5001,-110.822 64.5001,-110.822"/>
</g>
<!-- Node4 -->
<g id="node6" class="node"><title>Node4</title>
<a xlink:href="class_kitware_1_1_v_t_k_1_1vtk_object_base.html" target="_top" xlink:title="vtkObjectBase &#45; abstract base class for most VTK objects">
<polygon fill="none" stroke="black" points="88,-561 88,-581 174,-581 174,-561 88,-561"/>
<text text-anchor="middle" x="131" y="-568" font-family="FreeSans" font-size="10.00">vtkObjectBase</text>
</a>
</g>
<!-- Node4&#45;&gt;Node3 -->
<g id="edge6" class="edge"><title>Node4&#45;&gt;Node3</title>
<path fill="none" stroke="midnightblue" d="M102.423,-555.886C88.6866,-547.44 72.8844,-535.826 62,-522 50.1564,-506.955 49.6209,-500.802 46,-482 20.4248,-349.199 55.5766,-183.437 65.5155,-141.17"/>
<polygon fill="midnightblue" stroke="midnightblue" points="100.683,-558.923 111.079,-560.97 104.229,-552.887 100.683,-558.923"/>
</g>
<!-- Node7 -->
<g id="node13" class="node"><title>Node7</title>
<a xlink:href="class_kitware_1_1_v_t_k_1_1vtk_object.html" target="_top" xlink:title="vtkObject &#45; abstract base class for most VTK objects">
<polygon fill="none" stroke="black" points="71,-501 71,-521 191,-521 191,-501 71,-501"/>
<text text-anchor="middle" x="131" y="-508" font-family="FreeSans" font-size="10.00">Kitware.VTK.vtkObject</text>
</a>
</g>
<!-- Node4&#45;&gt;Node7 -->
<g id="edge16" class="edge"><title>Node4&#45;&gt;Node7</title>
<path fill="none" stroke="midnightblue" d="M131,-550.516C131,-540.562 131,-529.05 131,-521.028"/>
<polygon fill="midnightblue" stroke="midnightblue" points="127.5,-550.822 131,-560.822 134.5,-550.822 127.5,-550.822"/>
</g>
<!-- Node5 -->
<g id="node8" class="node"><title>Node5</title>
<a xlink:href="class_kitware_1_1_v_t_k_1_1_wrapped_object.html" target="_top" xlink:title="Base class for all the mummy wrapped classes in Kitware.VTK.">
<polygon fill="none" stroke="black" points="269.5,-621 269.5,-641 358.5,-641 358.5,-621 269.5,-621"/>
<text text-anchor="middle" x="314" y="-628" font-family="FreeSans" font-size="10.00">WrappedObject</text>
</a>
</g>
<!-- Node5&#45;&gt;Node4 -->
<g id="edge8" class="edge"><title>Node5&#45;&gt;Node4</title>
<path fill="none" stroke="midnightblue" d="M273.804,-617.821C240.042,-606.752 192.512,-591.168 161.73,-581.075"/>
<polygon fill="midnightblue" stroke="midnightblue" points="272.777,-621.168 283.37,-620.957 274.958,-614.516 272.777,-621.168"/>
</g>
<!-- Node6 -->
<g id="node10" class="node"><title>Node6</title>
<a xlink:href="class_kitware_1_1_v_t_k_1_1vtk_object_event_relay.html" target="_top" xlink:title="Implement a relay handler for VTK events. This is a class that receives events directly from the VTK ...">
<polygon fill="none" stroke="black" points="60,-311 60,-331 232,-331 232,-311 60,-311"/>
<text text-anchor="middle" x="146" y="-318" font-family="FreeSans" font-size="10.00">Kitware.VTK.vtkObjectEventRelay</text>
</a>
</g>
<!-- Node5&#45;&gt;Node6 -->
<g id="edge12" class="edge"><title>Node5&#45;&gt;Node6</title>
<path fill="none" stroke="midnightblue" d="M326.888,-612.325C359.276,-562.899 436.803,-427.191 369,-350 359.773,-339.495 291.047,-331.666 232.298,-326.808"/>
<polygon fill="midnightblue" stroke="midnightblue" points="323.891,-610.509 321.239,-620.767 329.709,-614.402 323.891,-610.509"/>
</g>
<!-- Node6&#45;&gt;Node3 -->
<g id="edge10" class="edge"><title>Node6&#45;&gt;Node3</title>
<path fill="none" stroke="#9a32cd" stroke-dasharray="5,2" d="M137.921,-301.321C121.489,-261.293 84.6738,-171.616 72.2144,-141.266"/>
<polygon fill="#9a32cd" stroke="#9a32cd" points="134.771,-302.863 141.806,-310.785 141.246,-300.205 134.771,-302.863"/>
<text text-anchor="middle" x="245.5" y="-283" font-family="FreeSans" font-size="10.00"> LeftButtonReleaseEvtRelay</text>
<text text-anchor="middle" x="245.5" y="-271" font-family="FreeSans" font-size="10.00">KeyPressEvtRelay</text>
<text text-anchor="middle" x="245.5" y="-259" font-family="FreeSans" font-size="10.00">DomainModifiedEvtRelay</text>
<text text-anchor="middle" x="245.5" y="-247" font-family="FreeSans" font-size="10.00">VolumeMapperComputeGradientsStartEvtRelay</text>
<text text-anchor="middle" x="245.5" y="-235" font-family="FreeSans" font-size="10.00">ErrorEvtRelay</text>
<text text-anchor="middle" x="245.5" y="-223" font-family="FreeSans" font-size="10.00">VolumeMapperRenderStartEvtRelay</text>
<text text-anchor="middle" x="245.5" y="-211" font-family="FreeSans" font-size="10.00">StartEvtRelay</text>
<text text-anchor="middle" x="245.5" y="-199" font-family="FreeSans" font-size="10.00">ResetCameraEvtRelay</text>
<text text-anchor="middle" x="245.5" y="-187" font-family="FreeSans" font-size="10.00">EnableEvtRelay</text>
<text text-anchor="middle" x="245.5" y="-175" font-family="FreeSans" font-size="10.00">DeleteEvtRelay</text>
<text text-anchor="middle" x="245.5" y="-163" font-family="FreeSans" font-size="10.00">...</text>
</g>
<!-- Node6&#45;&gt;Node7 -->
<g id="edge18" class="edge"><title>Node6&#45;&gt;Node7</title>
<path fill="none" stroke="#9a32cd" stroke-dasharray="5,2" d="M143.028,-341.231C142.649,-344.169 142.293,-347.159 142,-350 136.144,-406.853 132.636,-475.333 131.452,-500.807"/>
<polygon fill="#9a32cd" stroke="#9a32cd" points="146.515,-341.565 144.421,-331.179 139.582,-340.604 146.515,-341.565"/>
<text text-anchor="middle" x="255.5" y="-473" font-family="FreeSans" font-size="10.00"> LeftButtonReleaseEvtRelay</text>
<text text-anchor="middle" x="255.5" y="-461" font-family="FreeSans" font-size="10.00">KeyPressEvtRelay</text>
<text text-anchor="middle" x="255.5" y="-449" font-family="FreeSans" font-size="10.00">DomainModifiedEvtRelay</text>
<text text-anchor="middle" x="255.5" y="-437" font-family="FreeSans" font-size="10.00">VolumeMapperComputeGradientsStartEvtRelay</text>
<text text-anchor="middle" x="255.5" y="-425" font-family="FreeSans" font-size="10.00">ErrorEvtRelay</text>
<text text-anchor="middle" x="255.5" y="-413" font-family="FreeSans" font-size="10.00">VolumeMapperRenderStartEvtRelay</text>
<text text-anchor="middle" x="255.5" y="-401" font-family="FreeSans" font-size="10.00">StartEvtRelay</text>
<text text-anchor="middle" x="255.5" y="-389" font-family="FreeSans" font-size="10.00">ResetCameraEvtRelay</text>
<text text-anchor="middle" x="255.5" y="-377" font-family="FreeSans" font-size="10.00">EnableEvtRelay</text>
<text text-anchor="middle" x="255.5" y="-365" font-family="FreeSans" font-size="10.00">DeleteEvtRelay</text>
<text text-anchor="middle" x="255.5" y="-353" font-family="FreeSans" font-size="10.00">...</text>
</g>
<!-- Node7&#45;&gt;Node6 -->
<g id="edge14" class="edge"><title>Node7&#45;&gt;Node6</title>
<path fill="none" stroke="#9a32cd" stroke-dasharray="5,2" d="M84.9794,-495.818C79.4393,-492.138 74.5104,-487.596 71,-482 39.8229,-432.303 37.8299,-398.389 71,-350 75.7359,-343.091 92.5114,-336.287 108.999,-331.008"/>
<polygon fill="#9a32cd" stroke="#9a32cd" points="83.6386,-499.079 94.0724,-500.919 87.0636,-492.974 83.6386,-499.079"/>
<text text-anchor="middle" x="95" y="-419" font-family="FreeSans" font-size="10.00"> Sender</text>
<text text-anchor="middle" x="95" y="-407" font-family="FreeSans" font-size="10.00">EventImpl</text>
</g>
</g>
</svg>
