<?xml version="1.0" encoding="UTF-8" standalone="no"?>
<!DOCTYPE svg PUBLIC "-//W3C//DTD SVG 1.1//EN"
 "http://www.w3.org/Graphics/SVG/1.1/DTD/svg11.dtd">
<!-- Generated by graphviz version 2.26.3 (20100126.1600)
 -->
<!-- Title: G Pages: 1 -->
<svg width="435pt" height="650pt"
 viewBox="0.00 0.00 435.46 650.00" xmlns="http://www.w3.org/2000/svg" xmlns:xlink="http://www.w3.org/1999/xlink">
<g id="graph1" class="graph" transform="scale(1 1) rotate(0) translate(4 646)">
<title>G</title>
<!-- Node1 -->
<g id="node1" class="node"><title>Node1</title>
<polygon fill="#bfbfbf" stroke="black" points="-0.5,-1 -0.5,-21 198.5,-21 198.5,-1 -0.5,-1"/>
<text text-anchor="middle" x="99" y="-8" font-family="FreeSans" font-size="10.00">Kitware.VTK.vtkFreeTypeStringToImage</text>
</g>
<!-- Node2 -->
<g id="node2" class="node"><title>Node2</title>
<a xlink:href="class_kitware_1_1_v_t_k_1_1vtk_string_to_image.html" target="_top" xlink:title="vtkStringToImage &#45; uses Qt to render the supplied text to an image.">
<polygon fill="none" stroke="black" points="49.5,-61 49.5,-81 148.5,-81 148.5,-61 49.5,-61"/>
<text text-anchor="middle" x="99" y="-68" font-family="FreeSans" font-size="10.00">vtkStringToImage</text>
</a>
</g>
<!-- Node2&#45;&gt;Node1 -->
<g id="edge2" class="edge"><title>Node2&#45;&gt;Node1</title>
<path fill="none" stroke="midnightblue" d="M99,-50.5155C99,-40.562 99,-29.0495 99,-21.0279"/>
<polygon fill="midnightblue" stroke="midnightblue" points="95.5001,-50.8218 99,-60.8218 102.5,-50.8219 95.5001,-50.8218"/>
</g>
<!-- Node3 -->
<g id="node4" class="node"><title>Node3</title>
<a xlink:href="class_kitware_1_1_v_t_k_1_1vtk_object.html" target="_top" xlink:title="vtkObject &#45; abstract base class for most VTK objects">
<polygon fill="none" stroke="black" points="68,-121 68,-141 130,-141 130,-121 68,-121"/>
<text text-anchor="middle" x="99" y="-128" font-family="FreeSans" font-size="10.00">vtkObject</text>
</a>
</g>
<!-- Node3&#45;&gt;Node2 -->
<g id="edge4" class="edge"><title>Node3&#45;&gt;Node2</title>
<path fill="none" stroke="midnightblue" d="M99,-110.516C99,-100.562 99,-89.0495 99,-81.0279"/>
<polygon fill="midnightblue" stroke="midnightblue" points="95.5001,-110.822 99,-120.822 102.5,-110.822 95.5001,-110.822"/>
</g>
<!-- Node4 -->
<g id="node6" class="node"><title>Node4</title>
<a xlink:href="class_kitware_1_1_v_t_k_1_1vtk_object_base.html" target="_top" xlink:title="vtkObjectBase &#45; abstract base class for most VTK objects">
<polygon fill="none" stroke="black" points="119,-561 119,-581 205,-581 205,-561 119,-561"/>
<text text-anchor="middle" x="162" y="-568" font-family="FreeSans" font-size="10.00">vtkObjectBase</text>
</a>
</g>
<!-- Node4&#45;&gt;Node3 -->
<g id="edge6" class="edge"><title>Node4&#45;&gt;Node3</title>
<path fill="none" stroke="midnightblue" d="M133.423,-555.886C119.687,-547.44 103.884,-535.826 93,-522 81.1564,-506.955 80.6209,-500.802 77,-482 51.4248,-349.199 86.5766,-183.437 96.5155,-141.17"/>
<polygon fill="midnightblue" stroke="midnightblue" points="131.683,-558.923 142.079,-560.97 135.229,-552.887 131.683,-558.923"/>
</g>
<!-- Node7 -->
<g id="node13" class="node"><title>Node7</title>
<a xlink:href="class_kitware_1_1_v_t_k_1_1vtk_object.html" target="_top" xlink:title="vtkObject &#45; abstract base class for most VTK objects">
<polygon fill="none" stroke="black" points="102,-501 102,-521 222,-521 222,-501 102,-501"/>
<text text-anchor="middle" x="162" y="-508" font-family="FreeSans" font-size="10.00">Kitware.VTK.vtkObject</text>
</a>
</g>
<!-- Node4&#45;&gt;Node7 -->
<g id="edge16" class="edge"><title>Node4&#45;&gt;Node7</title>
<path fill="none" stroke="midnightblue" d="M162,-550.516C162,-540.562 162,-529.05 162,-521.028"/>
<polygon fill="midnightblue" stroke="midnightblue" points="158.5,-550.822 162,-560.822 165.5,-550.822 158.5,-550.822"/>
</g>
<!-- Node5 -->
<g id="node8" class="node"><title>Node5</title>
<a xlink:href="class_kitware_1_1_v_t_k_1_1_wrapped_object.html" target="_top" xlink:title="Base class for all the mummy wrapped classes in Kitware.VTK.">
<polygon fill="none" stroke="black" points="300.5,-621 300.5,-641 389.5,-641 389.5,-621 300.5,-621"/>
<text text-anchor="middle" x="345" y="-628" font-family="FreeSans" font-size="10.00">WrappedObject</text>
</a>
</g>
<!-- Node5&#45;&gt;Node4 -->
<g id="edge8" class="edge"><title>Node5&#45;&gt;Node4</title>
<path fill="none" stroke="midnightblue" d="M304.804,-617.821C271.042,-606.752 223.512,-591.168 192.73,-581.075"/>
<polygon fill="midnightblue" stroke="midnightblue" points="303.777,-621.168 314.37,-620.957 305.958,-614.516 303.777,-621.168"/>
</g>
<!-- Node6 -->
<g id="node10" class="node"><title>Node6</title>
<a xlink:href="class_kitware_1_1_v_t_k_1_1vtk_object_event_relay.html" target="_top" xlink:title="Implement a relay handler for VTK events. This is a class that receives events directly from the VTK ...">
<polygon fill="none" stroke="black" points="91,-311 91,-331 263,-331 263,-311 91,-311"/>
<text text-anchor="middle" x="177" y="-318" font-family="FreeSans" font-size="10.00">Kitware.VTK.vtkObjectEventRelay</text>
</a>
</g>
<!-- Node5&#45;&gt;Node6 -->
<g id="edge12" class="edge"><title>Node5&#45;&gt;Node6</title>
<path fill="none" stroke="midnightblue" d="M357.888,-612.325C390.276,-562.899 467.803,-427.191 400,-350 390.773,-339.495 322.047,-331.666 263.298,-326.808"/>
<polygon fill="midnightblue" stroke="midnightblue" points="354.891,-610.509 352.239,-620.767 360.709,-614.402 354.891,-610.509"/>
</g>
<!-- Node6&#45;&gt;Node3 -->
<g id="edge10" class="edge"><title>Node6&#45;&gt;Node3</title>
<path fill="none" stroke="#9a32cd" stroke-dasharray="5,2" d="M168.921,-301.321C152.489,-261.293 115.674,-171.616 103.214,-141.266"/>
<polygon fill="#9a32cd" stroke="#9a32cd" points="165.771,-302.863 172.806,-310.785 172.246,-300.205 165.771,-302.863"/>
<text text-anchor="middle" x="276.5" y="-283" font-family="FreeSans" font-size="10.00"> LeftButtonReleaseEvtRelay</text>
<text text-anchor="middle" x="276.5" y="-271" font-family="FreeSans" font-size="10.00">KeyPressEvtRelay</text>
<text text-anchor="middle" x="276.5" y="-259" font-family="FreeSans" font-size="10.00">DomainModifiedEvtRelay</text>
<text text-anchor="middle" x="276.5" y="-247" font-family="FreeSans" font-size="10.00">VolumeMapperComputeGradientsStartEvtRelay</text>
<text text-anchor="middle" x="276.5" y="-235" font-family="FreeSans" font-size="10.00">ErrorEvtRelay</text>
<text text-anchor="middle" x="276.5" y="-223" font-family="FreeSans" font-size="10.00">VolumeMapperRenderStartEvtRelay</text>
<text text-anchor="middle" x="276.5" y="-211" font-family="FreeSans" font-size="10.00">StartEvtRelay</text>
<text text-anchor="middle" x="276.5" y="-199" font-family="FreeSans" font-size="10.00">ResetCameraEvtRelay</text>
<text text-anchor="middle" x="276.5" y="-187" font-family="FreeSans" font-size="10.00">EnableEvtRelay</text>
<text text-anchor="middle" x="276.5" y="-175" font-family="FreeSans" font-size="10.00">DeleteEvtRelay</text>
<text text-anchor="middle" x="276.5" y="-163" font-family="FreeSans" font-size="10.00">...</text>
</g>
<!-- Node6&#45;&gt;Node7 -->
<g id="edge18" class="edge"><title>Node6&#45;&gt;Node7</title>
<path fill="none" stroke="#9a32cd" stroke-dasharray="5,2" d="M174.028,-341.231C173.649,-344.169 173.293,-347.159 173,-350 167.144,-406.853 163.636,-475.333 162.452,-500.807"/>
<polygon fill="#9a32cd" stroke="#9a32cd" points="177.515,-341.565 175.421,-331.179 170.582,-340.604 177.515,-341.565"/>
<text text-anchor="middle" x="286.5" y="-473" font-family="FreeSans" font-size="10.00"> LeftButtonReleaseEvtRelay</text>
<text text-anchor="middle" x="286.5" y="-461" font-family="FreeSans" font-size="10.00">KeyPressEvtRelay</text>
<text text-anchor="middle" x="286.5" y="-449" font-family="FreeSans" font-size="10.00">DomainModifiedEvtRelay</text>
<text text-anchor="middle" x="286.5" y="-437" font-family="FreeSans" font-size="10.00">VolumeMapperComputeGradientsStartEvtRelay</text>
<text text-anchor="middle" x="286.5" y="-425" font-family="FreeSans" font-size="10.00">ErrorEvtRelay</text>
<text text-anchor="middle" x="286.5" y="-413" font-family="FreeSans" font-size="10.00">VolumeMapperRenderStartEvtRelay</text>
<text text-anchor="middle" x="286.5" y="-401" font-family="FreeSans" font-size="10.00">StartEvtRelay</text>
<text text-anchor="middle" x="286.5" y="-389" font-family="FreeSans" font-size="10.00">ResetCameraEvtRelay</text>
<text text-anchor="middle" x="286.5" y="-377" font-family="FreeSans" font-size="10.00">EnableEvtRelay</text>
<text text-anchor="middle" x="286.5" y="-365" font-family="FreeSans" font-size="10.00">DeleteEvtRelay</text>
<text text-anchor="middle" x="286.5" y="-353" font-family="FreeSans" font-size="10.00">...</text>
</g>
<!-- Node7&#45;&gt;Node6 -->
<g id="edge14" class="edge"><title>Node7&#45;&gt;Node6</title>
<path fill="none" stroke="#9a32cd" stroke-dasharray="5,2" d="M115.979,-495.818C110.439,-492.138 105.51,-487.596 102,-482 70.8229,-432.303 68.8299,-398.389 102,-350 106.736,-343.091 123.511,-336.287 139.999,-331.008"/>
<polygon fill="#9a32cd" stroke="#9a32cd" points="114.639,-499.079 125.072,-500.919 118.064,-492.974 114.639,-499.079"/>
<text text-anchor="middle" x="126" y="-419" font-family="FreeSans" font-size="10.00"> Sender</text>
<text text-anchor="middle" x="126" y="-407" font-family="FreeSans" font-size="10.00">EventImpl</text>
</g>
</g>
</svg>
