<?xml version="1.0" encoding="UTF-8" standalone="no"?>
<!DOCTYPE svg PUBLIC "-//W3C//DTD SVG 1.1//EN"
 "http://www.w3.org/Graphics/SVG/1.1/DTD/svg11.dtd">
<!-- Generated by graphviz version 2.26.3 (20100126.1600)
 -->
<!-- Title: G Pages: 1 -->
<svg width="436pt" height="710pt"
 viewBox="0.00 0.00 436.46 710.00" xmlns="http://www.w3.org/2000/svg" xmlns:xlink="http://www.w3.org/1999/xlink">
<g id="graph1" class="graph" transform="scale(1 1) rotate(0) translate(4 706)">
<title>G</title>
<!-- Node1 -->
<g id="node1" class="node"><title>Node1</title>
<polygon fill="#bfbfbf" stroke="black" points="0,-1 0,-21 200,-21 200,-1 0,-1"/>
<text text-anchor="middle" x="100" y="-8" font-family="FreeSans" font-size="10.00">Kitware.VTK.vtkTableBasedClipDataSet</text>
</g>
<!-- Node2 -->
<g id="node2" class="node"><title>Node2</title>
<a xlink:href="class_kitware_1_1_v_t_k_1_1vtk_unstructured_grid_algorithm.html" target="_top" xlink:title="vtkUnstructuredGridAlgorithm &#45; Superclass for algorithms that produce only unstructured grid as outpu...">
<polygon fill="none" stroke="black" points="20,-61 20,-81 180,-81 180,-61 20,-61"/>
<text text-anchor="middle" x="100" y="-68" font-family="FreeSans" font-size="10.00">vtkUnstructuredGridAlgorithm</text>
</a>
</g>
<!-- Node2&#45;&gt;Node1 -->
<g id="edge2" class="edge"><title>Node2&#45;&gt;Node1</title>
<path fill="none" stroke="midnightblue" d="M100,-50.5155C100,-40.562 100,-29.0495 100,-21.0279"/>
<polygon fill="midnightblue" stroke="midnightblue" points="96.5001,-50.8218 100,-60.8218 103.5,-50.8219 96.5001,-50.8218"/>
</g>
<!-- Node3 -->
<g id="node4" class="node"><title>Node3</title>
<a xlink:href="class_kitware_1_1_v_t_k_1_1vtk_algorithm.html" target="_top" xlink:title="vtkAlgorithm &#45; Superclass for all sources, filters, and sinks in VTK.">
<polygon fill="none" stroke="black" points="61.5,-121 61.5,-141 138.5,-141 138.5,-121 61.5,-121"/>
<text text-anchor="middle" x="100" y="-128" font-family="FreeSans" font-size="10.00">vtkAlgorithm</text>
</a>
</g>
<!-- Node3&#45;&gt;Node2 -->
<g id="edge4" class="edge"><title>Node3&#45;&gt;Node2</title>
<path fill="none" stroke="midnightblue" d="M100,-110.516C100,-100.562 100,-89.0495 100,-81.0279"/>
<polygon fill="midnightblue" stroke="midnightblue" points="96.5001,-110.822 100,-120.822 103.5,-110.822 96.5001,-110.822"/>
</g>
<!-- Node4 -->
<g id="node6" class="node"><title>Node4</title>
<a xlink:href="class_kitware_1_1_v_t_k_1_1vtk_object.html" target="_top" xlink:title="vtkObject &#45; abstract base class for most VTK objects">
<polygon fill="none" stroke="black" points="69,-181 69,-201 131,-201 131,-181 69,-181"/>
<text text-anchor="middle" x="100" y="-188" font-family="FreeSans" font-size="10.00">vtkObject</text>
</a>
</g>
<!-- Node4&#45;&gt;Node3 -->
<g id="edge6" class="edge"><title>Node4&#45;&gt;Node3</title>
<path fill="none" stroke="midnightblue" d="M100,-170.516C100,-160.562 100,-149.05 100,-141.028"/>
<polygon fill="midnightblue" stroke="midnightblue" points="96.5001,-170.822 100,-180.822 103.5,-170.822 96.5001,-170.822"/>
</g>
<!-- Node5 -->
<g id="node8" class="node"><title>Node5</title>
<a xlink:href="class_kitware_1_1_v_t_k_1_1vtk_object_base.html" target="_top" xlink:title="vtkObjectBase &#45; abstract base class for most VTK objects">
<polygon fill="none" stroke="black" points="120,-621 120,-641 206,-641 206,-621 120,-621"/>
<text text-anchor="middle" x="163" y="-628" font-family="FreeSans" font-size="10.00">vtkObjectBase</text>
</a>
</g>
<!-- Node5&#45;&gt;Node4 -->
<g id="edge8" class="edge"><title>Node5&#45;&gt;Node4</title>
<path fill="none" stroke="midnightblue" d="M134.423,-615.886C120.687,-607.44 104.884,-595.826 94,-582 82.1564,-566.955 81.6209,-560.802 78,-542 52.4248,-409.199 87.5766,-243.437 97.5155,-201.17"/>
<polygon fill="midnightblue" stroke="midnightblue" points="132.683,-618.923 143.079,-620.97 136.229,-612.887 132.683,-618.923"/>
</g>
<!-- Node8 -->
<g id="node15" class="node"><title>Node8</title>
<a xlink:href="class_kitware_1_1_v_t_k_1_1vtk_object.html" target="_top" xlink:title="vtkObject &#45; abstract base class for most VTK objects">
<polygon fill="none" stroke="black" points="103,-561 103,-581 223,-581 223,-561 103,-561"/>
<text text-anchor="middle" x="163" y="-568" font-family="FreeSans" font-size="10.00">Kitware.VTK.vtkObject</text>
</a>
</g>
<!-- Node5&#45;&gt;Node8 -->
<g id="edge18" class="edge"><title>Node5&#45;&gt;Node8</title>
<path fill="none" stroke="midnightblue" d="M163,-610.516C163,-600.562 163,-589.05 163,-581.028"/>
<polygon fill="midnightblue" stroke="midnightblue" points="159.5,-610.822 163,-620.822 166.5,-610.822 159.5,-610.822"/>
</g>
<!-- Node6 -->
<g id="node10" class="node"><title>Node6</title>
<a xlink:href="class_kitware_1_1_v_t_k_1_1_wrapped_object.html" target="_top" xlink:title="Base class for all the mummy wrapped classes in Kitware.VTK.">
<polygon fill="none" stroke="black" points="301.5,-681 301.5,-701 390.5,-701 390.5,-681 301.5,-681"/>
<text text-anchor="middle" x="346" y="-688" font-family="FreeSans" font-size="10.00">WrappedObject</text>
</a>
</g>
<!-- Node6&#45;&gt;Node5 -->
<g id="edge10" class="edge"><title>Node6&#45;&gt;Node5</title>
<path fill="none" stroke="midnightblue" d="M305.804,-677.821C272.042,-666.752 224.512,-651.168 193.73,-641.075"/>
<polygon fill="midnightblue" stroke="midnightblue" points="304.777,-681.168 315.37,-680.957 306.958,-674.516 304.777,-681.168"/>
</g>
<!-- Node7 -->
<g id="node12" class="node"><title>Node7</title>
<a xlink:href="class_kitware_1_1_v_t_k_1_1vtk_object_event_relay.html" target="_top" xlink:title="Implement a relay handler for VTK events. This is a class that receives events directly from the VTK ...">
<polygon fill="none" stroke="black" points="92,-371 92,-391 264,-391 264,-371 92,-371"/>
<text text-anchor="middle" x="178" y="-378" font-family="FreeSans" font-size="10.00">Kitware.VTK.vtkObjectEventRelay</text>
</a>
</g>
<!-- Node6&#45;&gt;Node7 -->
<g id="edge14" class="edge"><title>Node6&#45;&gt;Node7</title>
<path fill="none" stroke="midnightblue" d="M358.888,-672.325C391.276,-622.899 468.803,-487.191 401,-410 391.773,-399.495 323.047,-391.666 264.298,-386.808"/>
<polygon fill="midnightblue" stroke="midnightblue" points="355.891,-670.509 353.239,-680.767 361.709,-674.402 355.891,-670.509"/>
</g>
<!-- Node7&#45;&gt;Node4 -->
<g id="edge12" class="edge"><title>Node7&#45;&gt;Node4</title>
<path fill="none" stroke="#9a32cd" stroke-dasharray="5,2" d="M169.921,-361.321C153.489,-321.293 116.674,-231.616 104.214,-201.266"/>
<polygon fill="#9a32cd" stroke="#9a32cd" points="166.771,-362.863 173.806,-370.785 173.246,-360.205 166.771,-362.863"/>
<text text-anchor="middle" x="277.5" y="-343" font-family="FreeSans" font-size="10.00"> LeftButtonReleaseEvtRelay</text>
<text text-anchor="middle" x="277.5" y="-331" font-family="FreeSans" font-size="10.00">KeyPressEvtRelay</text>
<text text-anchor="middle" x="277.5" y="-319" font-family="FreeSans" font-size="10.00">DomainModifiedEvtRelay</text>
<text text-anchor="middle" x="277.5" y="-307" font-family="FreeSans" font-size="10.00">VolumeMapperComputeGradientsStartEvtRelay</text>
<text text-anchor="middle" x="277.5" y="-295" font-family="FreeSans" font-size="10.00">ErrorEvtRelay</text>
<text text-anchor="middle" x="277.5" y="-283" font-family="FreeSans" font-size="10.00">VolumeMapperRenderStartEvtRelay</text>
<text text-anchor="middle" x="277.5" y="-271" font-family="FreeSans" font-size="10.00">StartEvtRelay</text>
<text text-anchor="middle" x="277.5" y="-259" font-family="FreeSans" font-size="10.00">ResetCameraEvtRelay</text>
<text text-anchor="middle" x="277.5" y="-247" font-family="FreeSans" font-size="10.00">EnableEvtRelay</text>
<text text-anchor="middle" x="277.5" y="-235" font-family="FreeSans" font-size="10.00">DeleteEvtRelay</text>
<text text-anchor="middle" x="277.5" y="-223" font-family="FreeSans" font-size="10.00">...</text>
</g>
<!-- Node7&#45;&gt;Node8 -->
<g id="edge20" class="edge"><title>Node7&#45;&gt;Node8</title>
<path fill="none" stroke="#9a32cd" stroke-dasharray="5,2" d="M175.028,-401.231C174.649,-404.169 174.293,-407.159 174,-410 168.144,-466.853 164.636,-535.333 163.452,-560.807"/>
<polygon fill="#9a32cd" stroke="#9a32cd" points="178.515,-401.565 176.421,-391.179 171.582,-400.604 178.515,-401.565"/>
<text text-anchor="middle" x="287.5" y="-533" font-family="FreeSans" font-size="10.00"> LeftButtonReleaseEvtRelay</text>
<text text-anchor="middle" x="287.5" y="-521" font-family="FreeSans" font-size="10.00">KeyPressEvtRelay</text>
<text text-anchor="middle" x="287.5" y="-509" font-family="FreeSans" font-size="10.00">DomainModifiedEvtRelay</text>
<text text-anchor="middle" x="287.5" y="-497" font-family="FreeSans" font-size="10.00">VolumeMapperComputeGradientsStartEvtRelay</text>
<text text-anchor="middle" x="287.5" y="-485" font-family="FreeSans" font-size="10.00">ErrorEvtRelay</text>
<text text-anchor="middle" x="287.5" y="-473" font-family="FreeSans" font-size="10.00">VolumeMapperRenderStartEvtRelay</text>
<text text-anchor="middle" x="287.5" y="-461" font-family="FreeSans" font-size="10.00">StartEvtRelay</text>
<text text-anchor="middle" x="287.5" y="-449" font-family="FreeSans" font-size="10.00">ResetCameraEvtRelay</text>
<text text-anchor="middle" x="287.5" y="-437" font-family="FreeSans" font-size="10.00">EnableEvtRelay</text>
<text text-anchor="middle" x="287.5" y="-425" font-family="FreeSans" font-size="10.00">DeleteEvtRelay</text>
<text text-anchor="middle" x="287.5" y="-413" font-family="FreeSans" font-size="10.00">...</text>
</g>
<!-- Node8&#45;&gt;Node7 -->
<g id="edge16" class="edge"><title>Node8&#45;&gt;Node7</title>
<path fill="none" stroke="#9a32cd" stroke-dasharray="5,2" d="M116.979,-555.818C111.439,-552.138 106.51,-547.596 103,-542 71.8229,-492.303 69.8299,-458.389 103,-410 107.736,-403.091 124.511,-396.287 140.999,-391.008"/>
<polygon fill="#9a32cd" stroke="#9a32cd" points="115.639,-559.079 126.072,-560.919 119.064,-552.974 115.639,-559.079"/>
<text text-anchor="middle" x="127" y="-479" font-family="FreeSans" font-size="10.00"> Sender</text>
<text text-anchor="middle" x="127" y="-467" font-family="FreeSans" font-size="10.00">EventImpl</text>
</g>
</g>
</svg>
