<?xml version="1.0" encoding="UTF-8" standalone="no"?>
<!DOCTYPE svg PUBLIC "-//W3C//DTD SVG 1.1//EN"
 "http://www.w3.org/Graphics/SVG/1.1/DTD/svg11.dtd">
<!-- Generated by graphviz version 2.26.3 (20100126.1600)
 -->
<!-- Title: G Pages: 1 -->
<svg width="456pt" height="770pt"
 viewBox="0.00 0.00 456.46 770.00" xmlns="http://www.w3.org/2000/svg" xmlns:xlink="http://www.w3.org/1999/xlink">
<g id="graph1" class="graph" transform="scale(1 1) rotate(0) translate(4 766)">
<title>G</title>
<!-- Node1 -->
<g id="node1" class="node"><title>Node1</title>
<polygon fill="#bfbfbf" stroke="black" points="0,-1 0,-21 240,-21 240,-1 0,-1"/>
<text text-anchor="middle" x="120" y="-8" font-family="FreeSans" font-size="10.00">Kitware.VTK.vtkStructuredPointsGeometryFilter</text>
</g>
<!-- Node2 -->
<g id="node2" class="node"><title>Node2</title>
<a xlink:href="class_kitware_1_1_v_t_k_1_1vtk_image_data_geometry_filter.html" target="_top" xlink:title="vtkImageDataGeometryFilter &#45; extract geometry for structured points">
<polygon fill="none" stroke="black" points="42.5,-61 42.5,-81 197.5,-81 197.5,-61 42.5,-61"/>
<text text-anchor="middle" x="120" y="-68" font-family="FreeSans" font-size="10.00">vtkImageDataGeometryFilter</text>
</a>
</g>
<!-- Node2&#45;&gt;Node1 -->
<g id="edge2" class="edge"><title>Node2&#45;&gt;Node1</title>
<path fill="none" stroke="midnightblue" d="M120,-50.5155C120,-40.562 120,-29.0495 120,-21.0279"/>
<polygon fill="midnightblue" stroke="midnightblue" points="116.5,-50.8218 120,-60.8218 123.5,-50.8219 116.5,-50.8218"/>
</g>
<!-- Node3 -->
<g id="node4" class="node"><title>Node3</title>
<a xlink:href="class_kitware_1_1_v_t_k_1_1vtk_poly_data_algorithm.html" target="_top" xlink:title="vtkPolyDataAlgorithm &#45; Superclass for algorithms that produce only polydata as output">
<polygon fill="none" stroke="black" points="60,-121 60,-141 180,-141 180,-121 60,-121"/>
<text text-anchor="middle" x="120" y="-128" font-family="FreeSans" font-size="10.00">vtkPolyDataAlgorithm</text>
</a>
</g>
<!-- Node3&#45;&gt;Node2 -->
<g id="edge4" class="edge"><title>Node3&#45;&gt;Node2</title>
<path fill="none" stroke="midnightblue" d="M120,-110.516C120,-100.562 120,-89.0495 120,-81.0279"/>
<polygon fill="midnightblue" stroke="midnightblue" points="116.5,-110.822 120,-120.822 123.5,-110.822 116.5,-110.822"/>
</g>
<!-- Node4 -->
<g id="node6" class="node"><title>Node4</title>
<a xlink:href="class_kitware_1_1_v_t_k_1_1vtk_algorithm.html" target="_top" xlink:title="vtkAlgorithm &#45; Superclass for all sources, filters, and sinks in VTK.">
<polygon fill="none" stroke="black" points="81.5,-181 81.5,-201 158.5,-201 158.5,-181 81.5,-181"/>
<text text-anchor="middle" x="120" y="-188" font-family="FreeSans" font-size="10.00">vtkAlgorithm</text>
</a>
</g>
<!-- Node4&#45;&gt;Node3 -->
<g id="edge6" class="edge"><title>Node4&#45;&gt;Node3</title>
<path fill="none" stroke="midnightblue" d="M120,-170.516C120,-160.562 120,-149.05 120,-141.028"/>
<polygon fill="midnightblue" stroke="midnightblue" points="116.5,-170.822 120,-180.822 123.5,-170.822 116.5,-170.822"/>
</g>
<!-- Node5 -->
<g id="node8" class="node"><title>Node5</title>
<a xlink:href="class_kitware_1_1_v_t_k_1_1vtk_object.html" target="_top" xlink:title="vtkObject &#45; abstract base class for most VTK objects">
<polygon fill="none" stroke="black" points="89,-241 89,-261 151,-261 151,-241 89,-241"/>
<text text-anchor="middle" x="120" y="-248" font-family="FreeSans" font-size="10.00">vtkObject</text>
</a>
</g>
<!-- Node5&#45;&gt;Node4 -->
<g id="edge8" class="edge"><title>Node5&#45;&gt;Node4</title>
<path fill="none" stroke="midnightblue" d="M120,-230.516C120,-220.562 120,-209.05 120,-201.028"/>
<polygon fill="midnightblue" stroke="midnightblue" points="116.5,-230.822 120,-240.822 123.5,-230.822 116.5,-230.822"/>
</g>
<!-- Node6 -->
<g id="node10" class="node"><title>Node6</title>
<a xlink:href="class_kitware_1_1_v_t_k_1_1vtk_object_base.html" target="_top" xlink:title="vtkObjectBase &#45; abstract base class for most VTK objects">
<polygon fill="none" stroke="black" points="140,-681 140,-701 226,-701 226,-681 140,-681"/>
<text text-anchor="middle" x="183" y="-688" font-family="FreeSans" font-size="10.00">vtkObjectBase</text>
</a>
</g>
<!-- Node6&#45;&gt;Node5 -->
<g id="edge10" class="edge"><title>Node6&#45;&gt;Node5</title>
<path fill="none" stroke="midnightblue" d="M154.423,-675.886C140.687,-667.44 124.884,-655.826 114,-642 102.156,-626.955 101.621,-620.802 98,-602 72.4248,-469.199 107.577,-303.437 117.516,-261.17"/>
<polygon fill="midnightblue" stroke="midnightblue" points="152.683,-678.923 163.079,-680.97 156.229,-672.887 152.683,-678.923"/>
</g>
<!-- Node9 -->
<g id="node17" class="node"><title>Node9</title>
<a xlink:href="class_kitware_1_1_v_t_k_1_1vtk_object.html" target="_top" xlink:title="vtkObject &#45; abstract base class for most VTK objects">
<polygon fill="none" stroke="black" points="123,-621 123,-641 243,-641 243,-621 123,-621"/>
<text text-anchor="middle" x="183" y="-628" font-family="FreeSans" font-size="10.00">Kitware.VTK.vtkObject</text>
</a>
</g>
<!-- Node6&#45;&gt;Node9 -->
<g id="edge20" class="edge"><title>Node6&#45;&gt;Node9</title>
<path fill="none" stroke="midnightblue" d="M183,-670.516C183,-660.562 183,-649.05 183,-641.028"/>
<polygon fill="midnightblue" stroke="midnightblue" points="179.5,-670.822 183,-680.822 186.5,-670.822 179.5,-670.822"/>
</g>
<!-- Node7 -->
<g id="node12" class="node"><title>Node7</title>
<a xlink:href="class_kitware_1_1_v_t_k_1_1_wrapped_object.html" target="_top" xlink:title="Base class for all the mummy wrapped classes in Kitware.VTK.">
<polygon fill="none" stroke="black" points="321.5,-741 321.5,-761 410.5,-761 410.5,-741 321.5,-741"/>
<text text-anchor="middle" x="366" y="-748" font-family="FreeSans" font-size="10.00">WrappedObject</text>
</a>
</g>
<!-- Node7&#45;&gt;Node6 -->
<g id="edge12" class="edge"><title>Node7&#45;&gt;Node6</title>
<path fill="none" stroke="midnightblue" d="M325.804,-737.821C292.042,-726.752 244.512,-711.168 213.73,-701.075"/>
<polygon fill="midnightblue" stroke="midnightblue" points="324.777,-741.168 335.37,-740.957 326.958,-734.516 324.777,-741.168"/>
</g>
<!-- Node8 -->
<g id="node14" class="node"><title>Node8</title>
<a xlink:href="class_kitware_1_1_v_t_k_1_1vtk_object_event_relay.html" target="_top" xlink:title="Implement a relay handler for VTK events. This is a class that receives events directly from the VTK ...">
<polygon fill="none" stroke="black" points="112,-431 112,-451 284,-451 284,-431 112,-431"/>
<text text-anchor="middle" x="198" y="-438" font-family="FreeSans" font-size="10.00">Kitware.VTK.vtkObjectEventRelay</text>
</a>
</g>
<!-- Node7&#45;&gt;Node8 -->
<g id="edge16" class="edge"><title>Node7&#45;&gt;Node8</title>
<path fill="none" stroke="midnightblue" d="M378.888,-732.325C411.276,-682.899 488.803,-547.191 421,-470 411.773,-459.495 343.047,-451.666 284.298,-446.808"/>
<polygon fill="midnightblue" stroke="midnightblue" points="375.891,-730.509 373.239,-740.767 381.709,-734.402 375.891,-730.509"/>
</g>
<!-- Node8&#45;&gt;Node5 -->
<g id="edge14" class="edge"><title>Node8&#45;&gt;Node5</title>
<path fill="none" stroke="#9a32cd" stroke-dasharray="5,2" d="M189.921,-421.321C173.489,-381.293 136.674,-291.616 124.214,-261.266"/>
<polygon fill="#9a32cd" stroke="#9a32cd" points="186.771,-422.863 193.806,-430.785 193.246,-420.205 186.771,-422.863"/>
<text text-anchor="middle" x="297.5" y="-403" font-family="FreeSans" font-size="10.00"> LeftButtonReleaseEvtRelay</text>
<text text-anchor="middle" x="297.5" y="-391" font-family="FreeSans" font-size="10.00">KeyPressEvtRelay</text>
<text text-anchor="middle" x="297.5" y="-379" font-family="FreeSans" font-size="10.00">DomainModifiedEvtRelay</text>
<text text-anchor="middle" x="297.5" y="-367" font-family="FreeSans" font-size="10.00">VolumeMapperComputeGradientsStartEvtRelay</text>
<text text-anchor="middle" x="297.5" y="-355" font-family="FreeSans" font-size="10.00">ErrorEvtRelay</text>
<text text-anchor="middle" x="297.5" y="-343" font-family="FreeSans" font-size="10.00">VolumeMapperRenderStartEvtRelay</text>
<text text-anchor="middle" x="297.5" y="-331" font-family="FreeSans" font-size="10.00">StartEvtRelay</text>
<text text-anchor="middle" x="297.5" y="-319" font-family="FreeSans" font-size="10.00">ResetCameraEvtRelay</text>
<text text-anchor="middle" x="297.5" y="-307" font-family="FreeSans" font-size="10.00">EnableEvtRelay</text>
<text text-anchor="middle" x="297.5" y="-295" font-family="FreeSans" font-size="10.00">DeleteEvtRelay</text>
<text text-anchor="middle" x="297.5" y="-283" font-family="FreeSans" font-size="10.00">...</text>
</g>
<!-- Node8&#45;&gt;Node9 -->
<g id="edge22" class="edge"><title>Node8&#45;&gt;Node9</title>
<path fill="none" stroke="#9a32cd" stroke-dasharray="5,2" d="M195.028,-461.231C194.649,-464.169 194.293,-467.159 194,-470 188.144,-526.853 184.636,-595.333 183.452,-620.807"/>
<polygon fill="#9a32cd" stroke="#9a32cd" points="198.515,-461.565 196.421,-451.179 191.582,-460.604 198.515,-461.565"/>
<text text-anchor="middle" x="307.5" y="-593" font-family="FreeSans" font-size="10.00"> LeftButtonReleaseEvtRelay</text>
<text text-anchor="middle" x="307.5" y="-581" font-family="FreeSans" font-size="10.00">KeyPressEvtRelay</text>
<text text-anchor="middle" x="307.5" y="-569" font-family="FreeSans" font-size="10.00">DomainModifiedEvtRelay</text>
<text text-anchor="middle" x="307.5" y="-557" font-family="FreeSans" font-size="10.00">VolumeMapperComputeGradientsStartEvtRelay</text>
<text text-anchor="middle" x="307.5" y="-545" font-family="FreeSans" font-size="10.00">ErrorEvtRelay</text>
<text text-anchor="middle" x="307.5" y="-533" font-family="FreeSans" font-size="10.00">VolumeMapperRenderStartEvtRelay</text>
<text text-anchor="middle" x="307.5" y="-521" font-family="FreeSans" font-size="10.00">StartEvtRelay</text>
<text text-anchor="middle" x="307.5" y="-509" font-family="FreeSans" font-size="10.00">ResetCameraEvtRelay</text>
<text text-anchor="middle" x="307.5" y="-497" font-family="FreeSans" font-size="10.00">EnableEvtRelay</text>
<text text-anchor="middle" x="307.5" y="-485" font-family="FreeSans" font-size="10.00">DeleteEvtRelay</text>
<text text-anchor="middle" x="307.5" y="-473" font-family="FreeSans" font-size="10.00">...</text>
</g>
<!-- Node9&#45;&gt;Node8 -->
<g id="edge18" class="edge"><title>Node9&#45;&gt;Node8</title>
<path fill="none" stroke="#9a32cd" stroke-dasharray="5,2" d="M136.979,-615.818C131.439,-612.138 126.51,-607.596 123,-602 91.8229,-552.303 89.8299,-518.389 123,-470 127.736,-463.091 144.511,-456.287 160.999,-451.008"/>
<polygon fill="#9a32cd" stroke="#9a32cd" points="135.639,-619.079 146.072,-620.919 139.064,-612.974 135.639,-619.079"/>
<text text-anchor="middle" x="147" y="-539" font-family="FreeSans" font-size="10.00"> Sender</text>
<text text-anchor="middle" x="147" y="-527" font-family="FreeSans" font-size="10.00">EventImpl</text>
</g>
</g>
</svg>
