<?xml version="1.0" encoding="UTF-8" standalone="no"?>
<!DOCTYPE svg PUBLIC "-//W3C//DTD SVG 1.1//EN"
 "http://www.w3.org/Graphics/SVG/1.1/DTD/svg11.dtd">
<!-- Generated by graphviz version 2.26.3 (20100126.1600)
 -->
<!-- Title: G Pages: 1 -->
<svg width="228pt" height="320pt"
 viewBox="0.00 0.00 228.00 320.00" xmlns="http://www.w3.org/2000/svg" xmlns:xlink="http://www.w3.org/1999/xlink">
<g id="graph1" class="graph" transform="scale(1 1) rotate(0) translate(4 316)">
<title>G</title>
<!-- Node1 -->
<g id="node1" class="node"><title>Node1</title>
<polygon fill="#bfbfbf" stroke="black" points="-0.5,-1 -0.5,-21 220.5,-21 220.5,-1 -0.5,-1"/>
<text text-anchor="middle" x="110" y="-8" font-family="FreeSans" font-size="10.00">Kitware.VTK.vtkInteractorStyleJoystickActor</text>
</g>
<!-- Node2 -->
<g id="node2" class="node"><title>Node2</title>
<a xlink:href="class_kitware_1_1_v_t_k_1_1vtk_interactor_style.html" target="_top" xlink:title="vtkInteractorStyle &#45; provide event&#45;driven interface to the rendering window (defines trackball mode)...">
<polygon fill="none" stroke="black" points="59.5,-59 59.5,-79 160.5,-79 160.5,-59 59.5,-59"/>
<text text-anchor="middle" x="110" y="-66" font-family="FreeSans" font-size="10.00">vtkInteractorStyle</text>
</a>
</g>
<!-- Node2&#45;&gt;Node1 -->
<g id="edge2" class="edge"><title>Node2&#45;&gt;Node1</title>
<path fill="none" stroke="midnightblue" d="M110,-48.8902C110,-39.6201 110,-29.0083 110,-21.3776"/>
<polygon fill="midnightblue" stroke="midnightblue" points="106.5,-48.8971 110,-58.8972 113.5,-48.8972 106.5,-48.8971"/>
</g>
<!-- Node3 -->
<g id="node4" class="node"><title>Node3</title>
<a xlink:href="class_kitware_1_1_v_t_k_1_1vtk_interactor_observer.html" target="_top" xlink:title="vtkInteractorObserver &#45; an abstract superclass for classes observing events invoked by vtkRenderWindo...">
<polygon fill="none" stroke="black" points="49.5,-117 49.5,-137 170.5,-137 170.5,-117 49.5,-117"/>
<text text-anchor="middle" x="110" y="-124" font-family="FreeSans" font-size="10.00">vtkInteractorObserver</text>
</a>
</g>
<!-- Node3&#45;&gt;Node2 -->
<g id="edge4" class="edge"><title>Node3&#45;&gt;Node2</title>
<path fill="none" stroke="midnightblue" d="M110,-106.89C110,-97.6201 110,-87.0083 110,-79.3776"/>
<polygon fill="midnightblue" stroke="midnightblue" points="106.5,-106.897 110,-116.897 113.5,-106.897 106.5,-106.897"/>
</g>
<!-- Node4 -->
<g id="node6" class="node"><title>Node4</title>
<a xlink:href="class_kitware_1_1_v_t_k_1_1vtk_object.html" target="_top" xlink:title="vtkObject &#45; abstract base class for most VTK objects">
<polygon fill="none" stroke="black" points="79,-175 79,-195 141,-195 141,-175 79,-175"/>
<text text-anchor="middle" x="110" y="-182" font-family="FreeSans" font-size="10.00">vtkObject</text>
</a>
</g>
<!-- Node4&#45;&gt;Node3 -->
<g id="edge6" class="edge"><title>Node4&#45;&gt;Node3</title>
<path fill="none" stroke="midnightblue" d="M110,-164.89C110,-155.62 110,-145.008 110,-137.378"/>
<polygon fill="midnightblue" stroke="midnightblue" points="106.5,-164.897 110,-174.897 113.5,-164.897 106.5,-164.897"/>
</g>
<!-- Node5 -->
<g id="node8" class="node"><title>Node5</title>
<a xlink:href="class_kitware_1_1_v_t_k_1_1vtk_object_base.html" target="_top" xlink:title="vtkObjectBase &#45; abstract base class for most VTK objects">
<polygon fill="none" stroke="black" points="67,-233 67,-253 153,-253 153,-233 67,-233"/>
<text text-anchor="middle" x="110" y="-240" font-family="FreeSans" font-size="10.00">vtkObjectBase</text>
</a>
</g>
<!-- Node5&#45;&gt;Node4 -->
<g id="edge8" class="edge"><title>Node5&#45;&gt;Node4</title>
<path fill="none" stroke="midnightblue" d="M110,-222.89C110,-213.62 110,-203.008 110,-195.378"/>
<polygon fill="midnightblue" stroke="midnightblue" points="106.5,-222.897 110,-232.897 113.5,-222.897 106.5,-222.897"/>
</g>
<!-- Node6 -->
<g id="node10" class="node"><title>Node6</title>
<a xlink:href="class_kitware_1_1_v_t_k_1_1_wrapped_object.html" target="_top" xlink:title="Base class for all the mummy wrapped classes in Kitware.VTK.">
<polygon fill="none" stroke="black" points="65.5,-291 65.5,-311 154.5,-311 154.5,-291 65.5,-291"/>
<text text-anchor="middle" x="110" y="-298" font-family="FreeSans" font-size="10.00">WrappedObject</text>
</a>
</g>
<!-- Node6&#45;&gt;Node5 -->
<g id="edge10" class="edge"><title>Node6&#45;&gt;Node5</title>
<path fill="none" stroke="midnightblue" d="M110,-280.89C110,-271.62 110,-261.008 110,-253.378"/>
<polygon fill="midnightblue" stroke="midnightblue" points="106.5,-280.897 110,-290.897 113.5,-280.897 106.5,-280.897"/>
</g>
</g>
</svg>
