<?xml version="1.0" encoding="UTF-8" standalone="no"?>
<!DOCTYPE svg PUBLIC "-//W3C//DTD SVG 1.1//EN"
 "http://www.w3.org/Graphics/SVG/1.1/DTD/svg11.dtd">
<!-- Generated by graphviz version 2.26.3 (20100126.1600)
 -->
<!-- Title: G Pages: 1 -->
<svg width="460pt" height="770pt"
 viewBox="0.00 0.00 460.46 770.00" xmlns="http://www.w3.org/2000/svg" xmlns:xlink="http://www.w3.org/1999/xlink">
<g id="graph1" class="graph" transform="scale(1 1) rotate(0) translate(4 766)">
<title>G</title>
<!-- Node1 -->
<g id="node1" class="node"><title>Node1</title>
<polygon fill="#bfbfbf" stroke="black" points="0,-1 0,-21 248,-21 248,-1 0,-1"/>
<text text-anchor="middle" x="124" y="-8" font-family="FreeSans" font-size="10.00">Kitware.VTK.vtkTexturedButtonRepresentation2D</text>
</g>
<!-- Node2 -->
<g id="node2" class="node"><title>Node2</title>
<a xlink:href="class_kitware_1_1_v_t_k_1_1vtk_button_representation.html" target="_top" xlink:title="vtkButtonRepresentation &#45; abstract class defines the representation for a vtkButtonWidget">
<polygon fill="none" stroke="black" points="56.5,-61 56.5,-81 191.5,-81 191.5,-61 56.5,-61"/>
<text text-anchor="middle" x="124" y="-68" font-family="FreeSans" font-size="10.00">vtkButtonRepresentation</text>
</a>
</g>
<!-- Node2&#45;&gt;Node1 -->
<g id="edge2" class="edge"><title>Node2&#45;&gt;Node1</title>
<path fill="none" stroke="midnightblue" d="M124,-50.5155C124,-40.562 124,-29.0495 124,-21.0279"/>
<polygon fill="midnightblue" stroke="midnightblue" points="120.5,-50.8218 124,-60.8218 127.5,-50.8219 120.5,-50.8218"/>
</g>
<!-- Node3 -->
<g id="node4" class="node"><title>Node3</title>
<a xlink:href="class_kitware_1_1_v_t_k_1_1vtk_widget_representation.html" target="_top" xlink:title="vtkWidgetRepresentation &#45; abstract class defines interface between the widget and widget representati...">
<polygon fill="none" stroke="black" points="56.5,-121 56.5,-141 191.5,-141 191.5,-121 56.5,-121"/>
<text text-anchor="middle" x="124" y="-128" font-family="FreeSans" font-size="10.00">vtkWidgetRepresentation</text>
</a>
</g>
<!-- Node3&#45;&gt;Node2 -->
<g id="edge4" class="edge"><title>Node3&#45;&gt;Node2</title>
<path fill="none" stroke="midnightblue" d="M124,-110.516C124,-100.562 124,-89.0495 124,-81.0279"/>
<polygon fill="midnightblue" stroke="midnightblue" points="120.5,-110.822 124,-120.822 127.5,-110.822 120.5,-110.822"/>
</g>
<!-- Node4 -->
<g id="node6" class="node"><title>Node4</title>
<a xlink:href="class_kitware_1_1_v_t_k_1_1vtk_prop.html" target="_top" xlink:title="vtkProp &#45; abstract superclass for all actors, volumes and annotations">
<polygon fill="none" stroke="black" points="97.5,-181 97.5,-201 150.5,-201 150.5,-181 97.5,-181"/>
<text text-anchor="middle" x="124" y="-188" font-family="FreeSans" font-size="10.00">vtkProp</text>
</a>
</g>
<!-- Node4&#45;&gt;Node3 -->
<g id="edge6" class="edge"><title>Node4&#45;&gt;Node3</title>
<path fill="none" stroke="midnightblue" d="M124,-170.516C124,-160.562 124,-149.05 124,-141.028"/>
<polygon fill="midnightblue" stroke="midnightblue" points="120.5,-170.822 124,-180.822 127.5,-170.822 120.5,-170.822"/>
</g>
<!-- Node5 -->
<g id="node8" class="node"><title>Node5</title>
<a xlink:href="class_kitware_1_1_v_t_k_1_1vtk_object.html" target="_top" xlink:title="vtkObject &#45; abstract base class for most VTK objects">
<polygon fill="none" stroke="black" points="93,-241 93,-261 155,-261 155,-241 93,-241"/>
<text text-anchor="middle" x="124" y="-248" font-family="FreeSans" font-size="10.00">vtkObject</text>
</a>
</g>
<!-- Node5&#45;&gt;Node4 -->
<g id="edge8" class="edge"><title>Node5&#45;&gt;Node4</title>
<path fill="none" stroke="midnightblue" d="M124,-230.516C124,-220.562 124,-209.05 124,-201.028"/>
<polygon fill="midnightblue" stroke="midnightblue" points="120.5,-230.822 124,-240.822 127.5,-230.822 120.5,-230.822"/>
</g>
<!-- Node6 -->
<g id="node10" class="node"><title>Node6</title>
<a xlink:href="class_kitware_1_1_v_t_k_1_1vtk_object_base.html" target="_top" xlink:title="vtkObjectBase &#45; abstract base class for most VTK objects">
<polygon fill="none" stroke="black" points="144,-681 144,-701 230,-701 230,-681 144,-681"/>
<text text-anchor="middle" x="187" y="-688" font-family="FreeSans" font-size="10.00">vtkObjectBase</text>
</a>
</g>
<!-- Node6&#45;&gt;Node5 -->
<g id="edge10" class="edge"><title>Node6&#45;&gt;Node5</title>
<path fill="none" stroke="midnightblue" d="M158.423,-675.886C144.687,-667.44 128.884,-655.826 118,-642 106.156,-626.955 105.621,-620.802 102,-602 76.4248,-469.199 111.577,-303.437 121.516,-261.17"/>
<polygon fill="midnightblue" stroke="midnightblue" points="156.683,-678.923 167.079,-680.97 160.229,-672.887 156.683,-678.923"/>
</g>
<!-- Node9 -->
<g id="node17" class="node"><title>Node9</title>
<a xlink:href="class_kitware_1_1_v_t_k_1_1vtk_object.html" target="_top" xlink:title="vtkObject &#45; abstract base class for most VTK objects">
<polygon fill="none" stroke="black" points="127,-621 127,-641 247,-641 247,-621 127,-621"/>
<text text-anchor="middle" x="187" y="-628" font-family="FreeSans" font-size="10.00">Kitware.VTK.vtkObject</text>
</a>
</g>
<!-- Node6&#45;&gt;Node9 -->
<g id="edge20" class="edge"><title>Node6&#45;&gt;Node9</title>
<path fill="none" stroke="midnightblue" d="M187,-670.516C187,-660.562 187,-649.05 187,-641.028"/>
<polygon fill="midnightblue" stroke="midnightblue" points="183.5,-670.822 187,-680.822 190.5,-670.822 183.5,-670.822"/>
</g>
<!-- Node7 -->
<g id="node12" class="node"><title>Node7</title>
<a xlink:href="class_kitware_1_1_v_t_k_1_1_wrapped_object.html" target="_top" xlink:title="Base class for all the mummy wrapped classes in Kitware.VTK.">
<polygon fill="none" stroke="black" points="325.5,-741 325.5,-761 414.5,-761 414.5,-741 325.5,-741"/>
<text text-anchor="middle" x="370" y="-748" font-family="FreeSans" font-size="10.00">WrappedObject</text>
</a>
</g>
<!-- Node7&#45;&gt;Node6 -->
<g id="edge12" class="edge"><title>Node7&#45;&gt;Node6</title>
<path fill="none" stroke="midnightblue" d="M329.804,-737.821C296.042,-726.752 248.512,-711.168 217.73,-701.075"/>
<polygon fill="midnightblue" stroke="midnightblue" points="328.777,-741.168 339.37,-740.957 330.958,-734.516 328.777,-741.168"/>
</g>
<!-- Node8 -->
<g id="node14" class="node"><title>Node8</title>
<a xlink:href="class_kitware_1_1_v_t_k_1_1vtk_object_event_relay.html" target="_top" xlink:title="Implement a relay handler for VTK events. This is a class that receives events directly from the VTK ...">
<polygon fill="none" stroke="black" points="116,-431 116,-451 288,-451 288,-431 116,-431"/>
<text text-anchor="middle" x="202" y="-438" font-family="FreeSans" font-size="10.00">Kitware.VTK.vtkObjectEventRelay</text>
</a>
</g>
<!-- Node7&#45;&gt;Node8 -->
<g id="edge16" class="edge"><title>Node7&#45;&gt;Node8</title>
<path fill="none" stroke="midnightblue" d="M382.888,-732.325C415.276,-682.899 492.803,-547.191 425,-470 415.773,-459.495 347.047,-451.666 288.298,-446.808"/>
<polygon fill="midnightblue" stroke="midnightblue" points="379.891,-730.509 377.239,-740.767 385.709,-734.402 379.891,-730.509"/>
</g>
<!-- Node8&#45;&gt;Node5 -->
<g id="edge14" class="edge"><title>Node8&#45;&gt;Node5</title>
<path fill="none" stroke="#9a32cd" stroke-dasharray="5,2" d="M193.921,-421.321C177.489,-381.293 140.674,-291.616 128.214,-261.266"/>
<polygon fill="#9a32cd" stroke="#9a32cd" points="190.771,-422.863 197.806,-430.785 197.246,-420.205 190.771,-422.863"/>
<text text-anchor="middle" x="301.5" y="-403" font-family="FreeSans" font-size="10.00"> LeftButtonReleaseEvtRelay</text>
<text text-anchor="middle" x="301.5" y="-391" font-family="FreeSans" font-size="10.00">KeyPressEvtRelay</text>
<text text-anchor="middle" x="301.5" y="-379" font-family="FreeSans" font-size="10.00">DomainModifiedEvtRelay</text>
<text text-anchor="middle" x="301.5" y="-367" font-family="FreeSans" font-size="10.00">VolumeMapperComputeGradientsStartEvtRelay</text>
<text text-anchor="middle" x="301.5" y="-355" font-family="FreeSans" font-size="10.00">ErrorEvtRelay</text>
<text text-anchor="middle" x="301.5" y="-343" font-family="FreeSans" font-size="10.00">VolumeMapperRenderStartEvtRelay</text>
<text text-anchor="middle" x="301.5" y="-331" font-family="FreeSans" font-size="10.00">StartEvtRelay</text>
<text text-anchor="middle" x="301.5" y="-319" font-family="FreeSans" font-size="10.00">ResetCameraEvtRelay</text>
<text text-anchor="middle" x="301.5" y="-307" font-family="FreeSans" font-size="10.00">EnableEvtRelay</text>
<text text-anchor="middle" x="301.5" y="-295" font-family="FreeSans" font-size="10.00">DeleteEvtRelay</text>
<text text-anchor="middle" x="301.5" y="-283" font-family="FreeSans" font-size="10.00">...</text>
</g>
<!-- Node8&#45;&gt;Node9 -->
<g id="edge22" class="edge"><title>Node8&#45;&gt;Node9</title>
<path fill="none" stroke="#9a32cd" stroke-dasharray="5,2" d="M199.028,-461.231C198.649,-464.169 198.293,-467.159 198,-470 192.144,-526.853 188.636,-595.333 187.452,-620.807"/>
<polygon fill="#9a32cd" stroke="#9a32cd" points="202.515,-461.565 200.421,-451.179 195.582,-460.604 202.515,-461.565"/>
<text text-anchor="middle" x="311.5" y="-593" font-family="FreeSans" font-size="10.00"> LeftButtonReleaseEvtRelay</text>
<text text-anchor="middle" x="311.5" y="-581" font-family="FreeSans" font-size="10.00">KeyPressEvtRelay</text>
<text text-anchor="middle" x="311.5" y="-569" font-family="FreeSans" font-size="10.00">DomainModifiedEvtRelay</text>
<text text-anchor="middle" x="311.5" y="-557" font-family="FreeSans" font-size="10.00">VolumeMapperComputeGradientsStartEvtRelay</text>
<text text-anchor="middle" x="311.5" y="-545" font-family="FreeSans" font-size="10.00">ErrorEvtRelay</text>
<text text-anchor="middle" x="311.5" y="-533" font-family="FreeSans" font-size="10.00">VolumeMapperRenderStartEvtRelay</text>
<text text-anchor="middle" x="311.5" y="-521" font-family="FreeSans" font-size="10.00">StartEvtRelay</text>
<text text-anchor="middle" x="311.5" y="-509" font-family="FreeSans" font-size="10.00">ResetCameraEvtRelay</text>
<text text-anchor="middle" x="311.5" y="-497" font-family="FreeSans" font-size="10.00">EnableEvtRelay</text>
<text text-anchor="middle" x="311.5" y="-485" font-family="FreeSans" font-size="10.00">DeleteEvtRelay</text>
<text text-anchor="middle" x="311.5" y="-473" font-family="FreeSans" font-size="10.00">...</text>
</g>
<!-- Node9&#45;&gt;Node8 -->
<g id="edge18" class="edge"><title>Node9&#45;&gt;Node8</title>
<path fill="none" stroke="#9a32cd" stroke-dasharray="5,2" d="M140.979,-615.818C135.439,-612.138 130.51,-607.596 127,-602 95.8229,-552.303 93.8299,-518.389 127,-470 131.736,-463.091 148.511,-456.287 164.999,-451.008"/>
<polygon fill="#9a32cd" stroke="#9a32cd" points="139.639,-619.079 150.072,-620.919 143.064,-612.974 139.639,-619.079"/>
<text text-anchor="middle" x="151" y="-539" font-family="FreeSans" font-size="10.00"> Sender</text>
<text text-anchor="middle" x="151" y="-527" font-family="FreeSans" font-size="10.00">EventImpl</text>
</g>
</g>
</svg>
