<?xml version="1.0" encoding="UTF-8" standalone="no"?>
<!DOCTYPE svg PUBLIC "-//W3C//DTD SVG 1.1//EN"
 "http://www.w3.org/Graphics/SVG/1.1/DTD/svg11.dtd">
<!-- Generated by graphviz version 2.26.3 (20100126.1600)
 -->
<!-- Title: G Pages: 1 -->
<svg width="1018pt" height="66pt"
 viewBox="0.00 0.00 1018.00 66.00" xmlns="http://www.w3.org/2000/svg" xmlns:xlink="http://www.w3.org/1999/xlink">
<g id="graph1" class="graph" transform="scale(1 1) rotate(0) translate(4 62)">
<title>G</title>
<!-- Node1 -->
<g id="node1" class="node"><title>Node1</title>
<polygon fill="#bfbfbf" stroke="black" points="470.5,-19 470.5,-39 715.5,-39 715.5,-19 470.5,-19"/>
<text text-anchor="middle" x="593" y="-26" font-family="FreeSans" font-size="10.00">Kitware.VTK.vtkAbstractInterpolatedVelocityField</text>
</g>
<!-- Node6 -->
<g id="node11" class="node"><title>Node6</title>
<a xlink:href="class_kitware_1_1_v_t_k_1_1vtk_cell_locator_interpolated_velocity_field.html" target="_top" xlink:title="vtkCellLocatorInterpolatedVelocityField &#45; A concrete class for obtaining the interpolated velocity va...">
<polygon fill="none" stroke="black" points="752,-38 752,-58 1010,-58 1010,-38 752,-38"/>
<text text-anchor="middle" x="881" y="-45" font-family="FreeSans" font-size="10.00">Kitware.VTK.vtkCellLocatorInterpolatedVelocityField</text>
</a>
</g>
<!-- Node1&#45;&gt;Node6 -->
<g id="edge10" class="edge"><title>Node1&#45;&gt;Node6</title>
<path fill="none" stroke="midnightblue" d="M725.672,-37.7526C734.317,-38.323 743.017,-38.8969 751.646,-39.4662"/>
<polygon fill="midnightblue" stroke="midnightblue" points="725.764,-34.2512 715.556,-37.0853 725.303,-41.2361 725.764,-34.2512"/>
</g>
<!-- Node7 -->
<g id="node13" class="node"><title>Node7</title>
<a xlink:href="class_kitware_1_1_v_t_k_1_1vtk_interpolated_velocity_field.html" target="_top" xlink:title="vtkInterpolatedVelocityField &#45; A concrete class for obtaining the interpolated velocity values at a p...">
<polygon fill="none" stroke="black" points="778.5,-0 778.5,-20 983.5,-20 983.5,-0 778.5,-0"/>
<text text-anchor="middle" x="881" y="-7" font-family="FreeSans" font-size="10.00">Kitware.VTK.vtkInterpolatedVelocityField</text>
</a>
</g>
<!-- Node1&#45;&gt;Node7 -->
<g id="edge12" class="edge"><title>Node1&#45;&gt;Node7</title>
<path fill="none" stroke="midnightblue" d="M725.845,-20.2359C743.378,-19.0792 761.133,-17.9079 778.061,-16.7911"/>
<polygon fill="midnightblue" stroke="midnightblue" points="725.303,-16.7639 715.556,-20.9147 725.764,-23.7488 725.303,-16.7639"/>
</g>
<!-- Node2 -->
<g id="node2" class="node"><title>Node2</title>
<a xlink:href="class_kitware_1_1_v_t_k_1_1vtk_function_set.html" target="_top" xlink:title="vtkFunctionSet &#45; Abstract interface for sets of functions">
<polygon fill="none" stroke="black" points="346.5,-19 346.5,-39 433.5,-39 433.5,-19 346.5,-19"/>
<text text-anchor="middle" x="390" y="-26" font-family="FreeSans" font-size="10.00">vtkFunctionSet</text>
</a>
</g>
<!-- Node2&#45;&gt;Node1 -->
<g id="edge2" class="edge"><title>Node2&#45;&gt;Node1</title>
<path fill="none" stroke="midnightblue" d="M443.579,-29C452.055,-29 461.111,-29 470.413,-29"/>
<polygon fill="midnightblue" stroke="midnightblue" points="443.549,-25.5001 433.549,-29 443.549,-32.5001 443.549,-25.5001"/>
</g>
<!-- Node3 -->
<g id="node4" class="node"><title>Node3</title>
<a xlink:href="class_kitware_1_1_v_t_k_1_1vtk_object.html" target="_top" xlink:title="vtkObject &#45; abstract base class for most VTK objects">
<polygon fill="none" stroke="black" points="248,-19 248,-39 310,-39 310,-19 248,-19"/>
<text text-anchor="middle" x="279" y="-26" font-family="FreeSans" font-size="10.00">vtkObject</text>
</a>
</g>
<!-- Node3&#45;&gt;Node2 -->
<g id="edge4" class="edge"><title>Node3&#45;&gt;Node2</title>
<path fill="none" stroke="midnightblue" d="M320.242,-29C328.702,-29 337.636,-29 346.183,-29"/>
<polygon fill="midnightblue" stroke="midnightblue" points="320.215,-25.5001 310.215,-29 320.215,-32.5001 320.215,-25.5001"/>
</g>
<!-- Node4 -->
<g id="node6" class="node"><title>Node4</title>
<a xlink:href="class_kitware_1_1_v_t_k_1_1vtk_object_base.html" target="_top" xlink:title="vtkObjectBase &#45; abstract base class for most VTK objects">
<polygon fill="none" stroke="black" points="126,-19 126,-39 212,-39 212,-19 126,-19"/>
<text text-anchor="middle" x="169" y="-26" font-family="FreeSans" font-size="10.00">vtkObjectBase</text>
</a>
</g>
<!-- Node4&#45;&gt;Node3 -->
<g id="edge6" class="edge"><title>Node4&#45;&gt;Node3</title>
<path fill="none" stroke="midnightblue" d="M222.346,-29C231.091,-29 239.892,-29 247.863,-29"/>
<polygon fill="midnightblue" stroke="midnightblue" points="222.159,-25.5001 212.159,-29 222.159,-32.5001 222.159,-25.5001"/>
</g>
<!-- Node5 -->
<g id="node8" class="node"><title>Node5</title>
<a xlink:href="class_kitware_1_1_v_t_k_1_1_wrapped_object.html" target="_top" xlink:title="Base class for all the mummy wrapped classes in Kitware.VTK.">
<polygon fill="none" stroke="black" points="0.5,-19 0.5,-39 89.5,-39 89.5,-19 0.5,-19"/>
<text text-anchor="middle" x="45" y="-26" font-family="FreeSans" font-size="10.00">WrappedObject</text>
</a>
</g>
<!-- Node5&#45;&gt;Node4 -->
<g id="edge8" class="edge"><title>Node5&#45;&gt;Node4</title>
<path fill="none" stroke="midnightblue" d="M99.8895,-29C108.623,-29 117.548,-29 125.957,-29"/>
<polygon fill="midnightblue" stroke="midnightblue" points="99.7669,-25.5001 89.7668,-29 99.7668,-32.5001 99.7669,-25.5001"/>
</g>
</g>
</svg>
