<?xml version="1.0" encoding="UTF-8" standalone="no"?>
<!DOCTYPE svg PUBLIC "-//W3C//DTD SVG 1.1//EN"
 "http://www.w3.org/Graphics/SVG/1.1/DTD/svg11.dtd">
<!-- Generated by graphviz version 2.26.3 (20100126.1600)
 -->
<!-- Title: G Pages: 1 -->
<svg width="458pt" height="378pt"
 viewBox="0.00 0.00 458.00 378.00" xmlns="http://www.w3.org/2000/svg" xmlns:xlink="http://www.w3.org/1999/xlink">
<g id="graph1" class="graph" transform="scale(1 1) rotate(0) translate(4 374)">
<title>G</title>
<!-- Node1 -->
<g id="node1" class="node"><title>Node1</title>
<polygon fill="#bfbfbf" stroke="black" points="123.5,-59 123.5,-79 326.5,-79 326.5,-59 123.5,-59"/>
<text text-anchor="middle" x="225" y="-66" font-family="FreeSans" font-size="10.00">Kitware.VTK.vtkDistanceRepresentation</text>
</g>
<!-- Node7 -->
<g id="node13" class="node"><title>Node7</title>
<a xlink:href="class_kitware_1_1_v_t_k_1_1vtk_distance_representation2_d.html" target="_top" xlink:title="vtkDistanceRepresentation2D &#45; represent the vtkDistanceWidget">
<polygon fill="none" stroke="black" points="-0.5,-1 -0.5,-21 216.5,-21 216.5,-1 -0.5,-1"/>
<text text-anchor="middle" x="108" y="-8" font-family="FreeSans" font-size="10.00">Kitware.VTK.vtkDistanceRepresentation2D</text>
</a>
</g>
<!-- Node1&#45;&gt;Node7 -->
<g id="edge12" class="edge"><title>Node1&#45;&gt;Node7</title>
<path fill="none" stroke="midnightblue" d="M195.538,-54.3947C174.632,-44.0315 147.099,-30.3825 128.539,-21.1817"/>
<polygon fill="midnightblue" stroke="midnightblue" points="194.106,-57.5915 204.62,-58.8972 197.215,-51.3198 194.106,-57.5915"/>
</g>
<!-- Node8 -->
<g id="node15" class="node"><title>Node8</title>
<a xlink:href="class_kitware_1_1_v_t_k_1_1vtk_distance_representation3_d.html" target="_top" xlink:title="vtkDistanceRepresentation3D &#45; represent the vtkDistanceWidget">
<polygon fill="none" stroke="black" points="233.5,-1 233.5,-21 450.5,-21 450.5,-1 233.5,-1"/>
<text text-anchor="middle" x="342" y="-8" font-family="FreeSans" font-size="10.00">Kitware.VTK.vtkDistanceRepresentation3D</text>
</a>
</g>
<!-- Node1&#45;&gt;Node8 -->
<g id="edge14" class="edge"><title>Node1&#45;&gt;Node8</title>
<path fill="none" stroke="midnightblue" d="M254.462,-54.3947C275.368,-44.0315 302.901,-30.3825 321.461,-21.1817"/>
<polygon fill="midnightblue" stroke="midnightblue" points="252.785,-51.3198 245.38,-58.8972 255.894,-57.5915 252.785,-51.3198"/>
</g>
<!-- Node2 -->
<g id="node2" class="node"><title>Node2</title>
<a xlink:href="class_kitware_1_1_v_t_k_1_1vtk_widget_representation.html" target="_top" xlink:title="vtkWidgetRepresentation &#45; abstract class defines interface between the widget and widget representati...">
<polygon fill="none" stroke="black" points="157.5,-117 157.5,-137 292.5,-137 292.5,-117 157.5,-117"/>
<text text-anchor="middle" x="225" y="-124" font-family="FreeSans" font-size="10.00">vtkWidgetRepresentation</text>
</a>
</g>
<!-- Node2&#45;&gt;Node1 -->
<g id="edge2" class="edge"><title>Node2&#45;&gt;Node1</title>
<path fill="none" stroke="midnightblue" d="M225,-106.89C225,-97.6201 225,-87.0083 225,-79.3776"/>
<polygon fill="midnightblue" stroke="midnightblue" points="221.5,-106.897 225,-116.897 228.5,-106.897 221.5,-106.897"/>
</g>
<!-- Node3 -->
<g id="node4" class="node"><title>Node3</title>
<a xlink:href="class_kitware_1_1_v_t_k_1_1vtk_prop.html" target="_top" xlink:title="vtkProp &#45; abstract superclass for all actors, volumes and annotations">
<polygon fill="none" stroke="black" points="198.5,-175 198.5,-195 251.5,-195 251.5,-175 198.5,-175"/>
<text text-anchor="middle" x="225" y="-182" font-family="FreeSans" font-size="10.00">vtkProp</text>
</a>
</g>
<!-- Node3&#45;&gt;Node2 -->
<g id="edge4" class="edge"><title>Node3&#45;&gt;Node2</title>
<path fill="none" stroke="midnightblue" d="M225,-164.89C225,-155.62 225,-145.008 225,-137.378"/>
<polygon fill="midnightblue" stroke="midnightblue" points="221.5,-164.897 225,-174.897 228.5,-164.897 221.5,-164.897"/>
</g>
<!-- Node4 -->
<g id="node6" class="node"><title>Node4</title>
<a xlink:href="class_kitware_1_1_v_t_k_1_1vtk_object.html" target="_top" xlink:title="vtkObject &#45; abstract base class for most VTK objects">
<polygon fill="none" stroke="black" points="194,-233 194,-253 256,-253 256,-233 194,-233"/>
<text text-anchor="middle" x="225" y="-240" font-family="FreeSans" font-size="10.00">vtkObject</text>
</a>
</g>
<!-- Node4&#45;&gt;Node3 -->
<g id="edge6" class="edge"><title>Node4&#45;&gt;Node3</title>
<path fill="none" stroke="midnightblue" d="M225,-222.89C225,-213.62 225,-203.008 225,-195.378"/>
<polygon fill="midnightblue" stroke="midnightblue" points="221.5,-222.897 225,-232.897 228.5,-222.897 221.5,-222.897"/>
</g>
<!-- Node5 -->
<g id="node8" class="node"><title>Node5</title>
<a xlink:href="class_kitware_1_1_v_t_k_1_1vtk_object_base.html" target="_top" xlink:title="vtkObjectBase &#45; abstract base class for most VTK objects">
<polygon fill="none" stroke="black" points="182,-291 182,-311 268,-311 268,-291 182,-291"/>
<text text-anchor="middle" x="225" y="-298" font-family="FreeSans" font-size="10.00">vtkObjectBase</text>
</a>
</g>
<!-- Node5&#45;&gt;Node4 -->
<g id="edge8" class="edge"><title>Node5&#45;&gt;Node4</title>
<path fill="none" stroke="midnightblue" d="M225,-280.89C225,-271.62 225,-261.008 225,-253.378"/>
<polygon fill="midnightblue" stroke="midnightblue" points="221.5,-280.897 225,-290.897 228.5,-280.897 221.5,-280.897"/>
</g>
<!-- Node6 -->
<g id="node10" class="node"><title>Node6</title>
<a xlink:href="class_kitware_1_1_v_t_k_1_1_wrapped_object.html" target="_top" xlink:title="Base class for all the mummy wrapped classes in Kitware.VTK.">
<polygon fill="none" stroke="black" points="180.5,-349 180.5,-369 269.5,-369 269.5,-349 180.5,-349"/>
<text text-anchor="middle" x="225" y="-356" font-family="FreeSans" font-size="10.00">WrappedObject</text>
</a>
</g>
<!-- Node6&#45;&gt;Node5 -->
<g id="edge10" class="edge"><title>Node6&#45;&gt;Node5</title>
<path fill="none" stroke="midnightblue" d="M225,-338.89C225,-329.62 225,-319.008 225,-311.378"/>
<polygon fill="midnightblue" stroke="midnightblue" points="221.5,-338.897 225,-348.897 228.5,-338.897 221.5,-338.897"/>
</g>
</g>
</svg>
