<?xml version="1.0" encoding="UTF-8" standalone="no"?>
<!DOCTYPE svg PUBLIC "-//W3C//DTD SVG 1.1//EN"
 "http://www.w3.org/Graphics/SVG/1.1/DTD/svg11.dtd">
<!-- Generated by graphviz version 2.26.3 (20100126.1600)
 -->
<!-- Title: G Pages: 1 -->
<svg width="1372pt" height="104pt"
 viewBox="0.00 0.00 1372.00 104.00" xmlns="http://www.w3.org/2000/svg" xmlns:xlink="http://www.w3.org/1999/xlink">
<g id="graph1" class="graph" transform="scale(1 1) rotate(0) translate(4 100)">
<title>G</title>
<!-- Node1 -->
<g id="node1" class="node"><title>Node1</title>
<polygon fill="#bfbfbf" stroke="black" points="698.5,-38 698.5,-58 851.5,-58 851.5,-38 698.5,-38"/>
<text text-anchor="middle" x="775" y="-45" font-family="FreeSans" font-size="10.00">Kitware.VTK.vtkImageSource</text>
</g>
<!-- Node8 -->
<g id="node15" class="node"><title>Node8</title>
<a xlink:href="class_kitware_1_1_v_t_k_1_1vtk_data_set_to_image_filter.html" target="_top" xlink:title="vtkDataSetToImageFilter &#45; abstract filter class">
<polygon fill="none" stroke="black" points="894.5,-76 894.5,-96 1085.5,-96 1085.5,-76 894.5,-76"/>
<text text-anchor="middle" x="990" y="-83" font-family="FreeSans" font-size="10.00">Kitware.VTK.vtkDataSetToImageFilter</text>
</a>
</g>
<!-- Node1&#45;&gt;Node8 -->
<g id="edge14" class="edge"><title>Node1&#45;&gt;Node8</title>
<path fill="none" stroke="midnightblue" d="M841.921,-59.828C871.227,-65.0076 905.248,-71.0206 933.285,-75.976"/>
<polygon fill="midnightblue" stroke="midnightblue" points="842.227,-56.3277 831.77,-58.0338 841.008,-63.2209 842.227,-56.3277"/>
</g>
<!-- Node9 -->
<g id="node17" class="node"><title>Node9</title>
<a xlink:href="class_kitware_1_1_v_t_k_1_1vtk_image_multiple_input_filter.html" target="_top" xlink:title="vtkImageMultipleInputFilter &#45; Generic filter that has N inputs.">
<polygon fill="none" stroke="black" points="888.5,-38 888.5,-58 1091.5,-58 1091.5,-38 888.5,-38"/>
<text text-anchor="middle" x="990" y="-45" font-family="FreeSans" font-size="10.00">Kitware.VTK.vtkImageMultipleInputFilter</text>
</a>
</g>
<!-- Node1&#45;&gt;Node9 -->
<g id="edge16" class="edge"><title>Node1&#45;&gt;Node9</title>
<path fill="none" stroke="midnightblue" d="M861.796,-48C870.473,-48 879.337,-48 888.151,-48"/>
<polygon fill="midnightblue" stroke="midnightblue" points="861.709,-44.5001 851.709,-48 861.709,-51.5001 861.709,-44.5001"/>
</g>
<!-- Node12 -->
<g id="node23" class="node"><title>Node12</title>
<a xlink:href="class_kitware_1_1_v_t_k_1_1vtk_image_to_image_filter.html" target="_top" xlink:title="vtkImageToImageFilter &#45; Generic filter that has one input of type vtkImageData">
<polygon fill="none" stroke="black" points="899,-0 899,-20 1081,-20 1081,-0 899,-0"/>
<text text-anchor="middle" x="990" y="-7" font-family="FreeSans" font-size="10.00">Kitware.VTK.vtkImageToImageFilter</text>
</a>
</g>
<!-- Node1&#45;&gt;Node12 -->
<g id="edge22" class="edge"><title>Node1&#45;&gt;Node12</title>
<path fill="none" stroke="midnightblue" d="M841.921,-36.172C871.227,-30.9924 905.248,-24.9794 933.285,-20.024"/>
<polygon fill="midnightblue" stroke="midnightblue" points="841.008,-32.7791 831.77,-37.9662 842.227,-39.6723 841.008,-32.7791"/>
</g>
<!-- Node2 -->
<g id="node2" class="node"><title>Node2</title>
<a xlink:href="class_kitware_1_1_v_t_k_1_1vtk_source.html" target="_top" xlink:title="vtkSource &#45; abstract class specifies interface for visualization network source">
<polygon fill="none" stroke="black" points="596.5,-38 596.5,-58 661.5,-58 661.5,-38 596.5,-38"/>
<text text-anchor="middle" x="629" y="-45" font-family="FreeSans" font-size="10.00">vtkSource</text>
</a>
</g>
<!-- Node2&#45;&gt;Node1 -->
<g id="edge2" class="edge"><title>Node2&#45;&gt;Node1</title>
<path fill="none" stroke="midnightblue" d="M671.92,-48C680.237,-48 689.185,-48 698.21,-48"/>
<polygon fill="midnightblue" stroke="midnightblue" points="671.765,-44.5001 661.765,-48 671.765,-51.5001 671.765,-44.5001"/>
</g>
<!-- Node3 -->
<g id="node4" class="node"><title>Node3</title>
<a xlink:href="class_kitware_1_1_v_t_k_1_1vtk_process_object.html" target="_top" xlink:title="vtkProcessObject &#45; abstract class specifies interface for visualization filters">
<polygon fill="none" stroke="black" points="460.5,-38 460.5,-58 559.5,-58 559.5,-38 460.5,-38"/>
<text text-anchor="middle" x="510" y="-45" font-family="FreeSans" font-size="10.00">vtkProcessObject</text>
</a>
</g>
<!-- Node3&#45;&gt;Node2 -->
<g id="edge4" class="edge"><title>Node3&#45;&gt;Node2</title>
<path fill="none" stroke="midnightblue" d="M569.997,-48C579.082,-48 588.152,-48 596.36,-48"/>
<polygon fill="midnightblue" stroke="midnightblue" points="569.777,-44.5001 559.777,-48 569.777,-51.5001 569.777,-44.5001"/>
</g>
<!-- Node4 -->
<g id="node6" class="node"><title>Node4</title>
<a xlink:href="class_kitware_1_1_v_t_k_1_1vtk_algorithm.html" target="_top" xlink:title="vtkAlgorithm &#45; Superclass for all sources, filters, and sinks in VTK.">
<polygon fill="none" stroke="black" points="346.5,-38 346.5,-58 423.5,-58 423.5,-38 346.5,-38"/>
<text text-anchor="middle" x="385" y="-45" font-family="FreeSans" font-size="10.00">vtkAlgorithm</text>
</a>
</g>
<!-- Node4&#45;&gt;Node3 -->
<g id="edge6" class="edge"><title>Node4&#45;&gt;Node3</title>
<path fill="none" stroke="midnightblue" d="M433.594,-48C442.361,-48 451.512,-48 460.309,-48"/>
<polygon fill="midnightblue" stroke="midnightblue" points="433.524,-44.5001 423.524,-48 433.524,-51.5001 433.524,-44.5001"/>
</g>
<!-- Node5 -->
<g id="node8" class="node"><title>Node5</title>
<a xlink:href="class_kitware_1_1_v_t_k_1_1vtk_object.html" target="_top" xlink:title="vtkObject &#45; abstract base class for most VTK objects">
<polygon fill="none" stroke="black" points="248,-38 248,-58 310,-58 310,-38 248,-38"/>
<text text-anchor="middle" x="279" y="-45" font-family="FreeSans" font-size="10.00">vtkObject</text>
</a>
</g>
<!-- Node5&#45;&gt;Node4 -->
<g id="edge8" class="edge"><title>Node5&#45;&gt;Node4</title>
<path fill="none" stroke="midnightblue" d="M320.421,-48C329.001,-48 338.007,-48 346.479,-48"/>
<polygon fill="midnightblue" stroke="midnightblue" points="320.23,-44.5001 310.23,-48 320.23,-51.5001 320.23,-44.5001"/>
</g>
<!-- Node6 -->
<g id="node10" class="node"><title>Node6</title>
<a xlink:href="class_kitware_1_1_v_t_k_1_1vtk_object_base.html" target="_top" xlink:title="vtkObjectBase &#45; abstract base class for most VTK objects">
<polygon fill="none" stroke="black" points="126,-38 126,-58 212,-58 212,-38 126,-38"/>
<text text-anchor="middle" x="169" y="-45" font-family="FreeSans" font-size="10.00">vtkObjectBase</text>
</a>
</g>
<!-- Node6&#45;&gt;Node5 -->
<g id="edge10" class="edge"><title>Node6&#45;&gt;Node5</title>
<path fill="none" stroke="midnightblue" d="M222.346,-48C231.091,-48 239.892,-48 247.863,-48"/>
<polygon fill="midnightblue" stroke="midnightblue" points="222.159,-44.5001 212.159,-48 222.159,-51.5001 222.159,-44.5001"/>
</g>
<!-- Node7 -->
<g id="node12" class="node"><title>Node7</title>
<a xlink:href="class_kitware_1_1_v_t_k_1_1_wrapped_object.html" target="_top" xlink:title="Base class for all the mummy wrapped classes in Kitware.VTK.">
<polygon fill="none" stroke="black" points="0.5,-38 0.5,-58 89.5,-58 89.5,-38 0.5,-38"/>
<text text-anchor="middle" x="45" y="-45" font-family="FreeSans" font-size="10.00">WrappedObject</text>
</a>
</g>
<!-- Node7&#45;&gt;Node6 -->
<g id="edge12" class="edge"><title>Node7&#45;&gt;Node6</title>
<path fill="none" stroke="midnightblue" d="M99.8895,-48C108.623,-48 117.548,-48 125.957,-48"/>
<polygon fill="midnightblue" stroke="midnightblue" points="99.7669,-44.5001 89.7668,-48 99.7668,-51.5001 99.7669,-44.5001"/>
</g>
<!-- Node10 -->
<g id="node19" class="node"><title>Node10</title>
<a xlink:href="class_kitware_1_1_v_t_k_1_1vtk_image_multiple_input_output_filter.html" target="_top" xlink:title="vtkImageMultipleInputOutputFilter &#45; Generic filter that has N inputs.">
<polygon fill="none" stroke="black" points="1128,-76 1128,-96 1364,-96 1364,-76 1128,-76"/>
<text text-anchor="middle" x="1246" y="-83" font-family="FreeSans" font-size="10.00">Kitware.VTK.vtkImageMultipleInputOutputFilter</text>
</a>
</g>
<!-- Node9&#45;&gt;Node10 -->
<g id="edge18" class="edge"><title>Node9&#45;&gt;Node10</title>
<path fill="none" stroke="midnightblue" d="M1067.86,-59.5573C1103.16,-64.7972 1144.5,-70.934 1178.47,-75.976"/>
<polygon fill="midnightblue" stroke="midnightblue" points="1068,-56.0401 1057.6,-58.0338 1066.97,-62.9642 1068,-56.0401"/>
</g>
<!-- Node11 -->
<g id="node21" class="node"><title>Node11</title>
<a xlink:href="class_kitware_1_1_v_t_k_1_1vtk_image_two_input_filter.html" target="_top" xlink:title="vtkImageTwoInputFilter &#45; Generic superclass for filters that have two inputs.">
<polygon fill="none" stroke="black" points="1155,-38 1155,-58 1337,-58 1337,-38 1155,-38"/>
<text text-anchor="middle" x="1246" y="-45" font-family="FreeSans" font-size="10.00">Kitware.VTK.vtkImageTwoInputFilter</text>
</a>
</g>
<!-- Node9&#45;&gt;Node11 -->
<g id="edge20" class="edge"><title>Node9&#45;&gt;Node11</title>
<path fill="none" stroke="midnightblue" d="M1101.92,-48C1119.64,-48 1137.78,-48 1154.95,-48"/>
<polygon fill="midnightblue" stroke="midnightblue" points="1101.55,-44.5001 1091.55,-48 1101.55,-51.5001 1101.55,-44.5001"/>
</g>
<!-- Node13 -->
<g id="node25" class="node"><title>Node13</title>
<a xlink:href="class_kitware_1_1_v_t_k_1_1vtk_image_spatial_filter.html" target="_top" xlink:title="vtkImageSpatialFilter &#45; Filters that operate on pixel neighborhoods.">
<polygon fill="none" stroke="black" points="1158.5,-0 1158.5,-20 1333.5,-20 1333.5,-0 1158.5,-0"/>
<text text-anchor="middle" x="1246" y="-7" font-family="FreeSans" font-size="10.00">Kitware.VTK.vtkImageSpatialFilter</text>
</a>
</g>
<!-- Node12&#45;&gt;Node13 -->
<g id="edge24" class="edge"><title>Node12&#45;&gt;Node13</title>
<path fill="none" stroke="midnightblue" d="M1091.39,-10C1113.46,-10 1136.64,-10 1158.13,-10"/>
<polygon fill="midnightblue" stroke="midnightblue" points="1091.34,-6.5001 1081.34,-10 1091.34,-13.5001 1091.34,-6.5001"/>
</g>
</g>
</svg>
