<?xml version="1.0" encoding="UTF-8" standalone="no"?>
<!DOCTYPE svg PUBLIC "-//W3C//DTD SVG 1.1//EN"
 "http://www.w3.org/Graphics/SVG/1.1/DTD/svg11.dtd">
<!-- Generated by graphviz version 2.26.3 (20100126.1600)
 -->
<!-- Title: G Pages: 1 -->
<svg width="420pt" height="650pt"
 viewBox="0.00 0.00 420.46 650.00" xmlns="http://www.w3.org/2000/svg" xmlns:xlink="http://www.w3.org/1999/xlink">
<g id="graph1" class="graph" transform="scale(1 1) rotate(0) translate(4 646)">
<title>G</title>
<!-- Node1 -->
<g id="node1" class="node"><title>Node1</title>
<polygon fill="#bfbfbf" stroke="black" points="0,-1 0,-21 168,-21 168,-1 0,-1"/>
<text text-anchor="middle" x="84" y="-8" font-family="FreeSans" font-size="10.00">Kitware.VTK.vtkUTF16TextCodec</text>
</g>
<!-- Node2 -->
<g id="node2" class="node"><title>Node2</title>
<a xlink:href="class_kitware_1_1_v_t_k_1_1vtk_text_codec.html" target="_top" xlink:title="vtkTextCodec &#45; Virtual class to act as an interface for all text codecs">
<polygon fill="none" stroke="black" points="44,-61 44,-81 124,-81 124,-61 44,-61"/>
<text text-anchor="middle" x="84" y="-68" font-family="FreeSans" font-size="10.00">vtkTextCodec</text>
</a>
</g>
<!-- Node2&#45;&gt;Node1 -->
<g id="edge2" class="edge"><title>Node2&#45;&gt;Node1</title>
<path fill="none" stroke="midnightblue" d="M84,-50.5155C84,-40.562 84,-29.0495 84,-21.0279"/>
<polygon fill="midnightblue" stroke="midnightblue" points="80.5001,-50.8218 84,-60.8218 87.5001,-50.8219 80.5001,-50.8218"/>
</g>
<!-- Node3 -->
<g id="node4" class="node"><title>Node3</title>
<a xlink:href="class_kitware_1_1_v_t_k_1_1vtk_object.html" target="_top" xlink:title="vtkObject &#45; abstract base class for most VTK objects">
<polygon fill="none" stroke="black" points="53,-121 53,-141 115,-141 115,-121 53,-121"/>
<text text-anchor="middle" x="84" y="-128" font-family="FreeSans" font-size="10.00">vtkObject</text>
</a>
</g>
<!-- Node3&#45;&gt;Node2 -->
<g id="edge4" class="edge"><title>Node3&#45;&gt;Node2</title>
<path fill="none" stroke="midnightblue" d="M84,-110.516C84,-100.562 84,-89.0495 84,-81.0279"/>
<polygon fill="midnightblue" stroke="midnightblue" points="80.5001,-110.822 84,-120.822 87.5001,-110.822 80.5001,-110.822"/>
</g>
<!-- Node4 -->
<g id="node6" class="node"><title>Node4</title>
<a xlink:href="class_kitware_1_1_v_t_k_1_1vtk_object_base.html" target="_top" xlink:title="vtkObjectBase &#45; abstract base class for most VTK objects">
<polygon fill="none" stroke="black" points="104,-561 104,-581 190,-581 190,-561 104,-561"/>
<text text-anchor="middle" x="147" y="-568" font-family="FreeSans" font-size="10.00">vtkObjectBase</text>
</a>
</g>
<!-- Node4&#45;&gt;Node3 -->
<g id="edge6" class="edge"><title>Node4&#45;&gt;Node3</title>
<path fill="none" stroke="midnightblue" d="M118.423,-555.886C104.687,-547.44 88.8844,-535.826 78,-522 66.1564,-506.955 65.6209,-500.802 62,-482 36.4248,-349.199 71.5766,-183.437 81.5155,-141.17"/>
<polygon fill="midnightblue" stroke="midnightblue" points="116.683,-558.923 127.079,-560.97 120.229,-552.887 116.683,-558.923"/>
</g>
<!-- Node7 -->
<g id="node13" class="node"><title>Node7</title>
<a xlink:href="class_kitware_1_1_v_t_k_1_1vtk_object.html" target="_top" xlink:title="vtkObject &#45; abstract base class for most VTK objects">
<polygon fill="none" stroke="black" points="87,-501 87,-521 207,-521 207,-501 87,-501"/>
<text text-anchor="middle" x="147" y="-508" font-family="FreeSans" font-size="10.00">Kitware.VTK.vtkObject</text>
</a>
</g>
<!-- Node4&#45;&gt;Node7 -->
<g id="edge16" class="edge"><title>Node4&#45;&gt;Node7</title>
<path fill="none" stroke="midnightblue" d="M147,-550.516C147,-540.562 147,-529.05 147,-521.028"/>
<polygon fill="midnightblue" stroke="midnightblue" points="143.5,-550.822 147,-560.822 150.5,-550.822 143.5,-550.822"/>
</g>
<!-- Node5 -->
<g id="node8" class="node"><title>Node5</title>
<a xlink:href="class_kitware_1_1_v_t_k_1_1_wrapped_object.html" target="_top" xlink:title="Base class for all the mummy wrapped classes in Kitware.VTK.">
<polygon fill="none" stroke="black" points="285.5,-621 285.5,-641 374.5,-641 374.5,-621 285.5,-621"/>
<text text-anchor="middle" x="330" y="-628" font-family="FreeSans" font-size="10.00">WrappedObject</text>
</a>
</g>
<!-- Node5&#45;&gt;Node4 -->
<g id="edge8" class="edge"><title>Node5&#45;&gt;Node4</title>
<path fill="none" stroke="midnightblue" d="M289.804,-617.821C256.042,-606.752 208.512,-591.168 177.73,-581.075"/>
<polygon fill="midnightblue" stroke="midnightblue" points="288.777,-621.168 299.37,-620.957 290.958,-614.516 288.777,-621.168"/>
</g>
<!-- Node6 -->
<g id="node10" class="node"><title>Node6</title>
<a xlink:href="class_kitware_1_1_v_t_k_1_1vtk_object_event_relay.html" target="_top" xlink:title="Implement a relay handler for VTK events. This is a class that receives events directly from the VTK ...">
<polygon fill="none" stroke="black" points="76,-311 76,-331 248,-331 248,-311 76,-311"/>
<text text-anchor="middle" x="162" y="-318" font-family="FreeSans" font-size="10.00">Kitware.VTK.vtkObjectEventRelay</text>
</a>
</g>
<!-- Node5&#45;&gt;Node6 -->
<g id="edge12" class="edge"><title>Node5&#45;&gt;Node6</title>
<path fill="none" stroke="midnightblue" d="M342.888,-612.325C375.276,-562.899 452.803,-427.191 385,-350 375.773,-339.495 307.047,-331.666 248.298,-326.808"/>
<polygon fill="midnightblue" stroke="midnightblue" points="339.891,-610.509 337.239,-620.767 345.709,-614.402 339.891,-610.509"/>
</g>
<!-- Node6&#45;&gt;Node3 -->
<g id="edge10" class="edge"><title>Node6&#45;&gt;Node3</title>
<path fill="none" stroke="#9a32cd" stroke-dasharray="5,2" d="M153.921,-301.321C137.489,-261.293 100.674,-171.616 88.2144,-141.266"/>
<polygon fill="#9a32cd" stroke="#9a32cd" points="150.771,-302.863 157.806,-310.785 157.246,-300.205 150.771,-302.863"/>
<text text-anchor="middle" x="261.5" y="-283" font-family="FreeSans" font-size="10.00"> LeftButtonReleaseEvtRelay</text>
<text text-anchor="middle" x="261.5" y="-271" font-family="FreeSans" font-size="10.00">KeyPressEvtRelay</text>
<text text-anchor="middle" x="261.5" y="-259" font-family="FreeSans" font-size="10.00">DomainModifiedEvtRelay</text>
<text text-anchor="middle" x="261.5" y="-247" font-family="FreeSans" font-size="10.00">VolumeMapperComputeGradientsStartEvtRelay</text>
<text text-anchor="middle" x="261.5" y="-235" font-family="FreeSans" font-size="10.00">ErrorEvtRelay</text>
<text text-anchor="middle" x="261.5" y="-223" font-family="FreeSans" font-size="10.00">VolumeMapperRenderStartEvtRelay</text>
<text text-anchor="middle" x="261.5" y="-211" font-family="FreeSans" font-size="10.00">StartEvtRelay</text>
<text text-anchor="middle" x="261.5" y="-199" font-family="FreeSans" font-size="10.00">ResetCameraEvtRelay</text>
<text text-anchor="middle" x="261.5" y="-187" font-family="FreeSans" font-size="10.00">EnableEvtRelay</text>
<text text-anchor="middle" x="261.5" y="-175" font-family="FreeSans" font-size="10.00">DeleteEvtRelay</text>
<text text-anchor="middle" x="261.5" y="-163" font-family="FreeSans" font-size="10.00">...</text>
</g>
<!-- Node6&#45;&gt;Node7 -->
<g id="edge18" class="edge"><title>Node6&#45;&gt;Node7</title>
<path fill="none" stroke="#9a32cd" stroke-dasharray="5,2" d="M159.028,-341.231C158.649,-344.169 158.293,-347.159 158,-350 152.144,-406.853 148.636,-475.333 147.452,-500.807"/>
<polygon fill="#9a32cd" stroke="#9a32cd" points="162.515,-341.565 160.421,-331.179 155.582,-340.604 162.515,-341.565"/>
<text text-anchor="middle" x="271.5" y="-473" font-family="FreeSans" font-size="10.00"> LeftButtonReleaseEvtRelay</text>
<text text-anchor="middle" x="271.5" y="-461" font-family="FreeSans" font-size="10.00">KeyPressEvtRelay</text>
<text text-anchor="middle" x="271.5" y="-449" font-family="FreeSans" font-size="10.00">DomainModifiedEvtRelay</text>
<text text-anchor="middle" x="271.5" y="-437" font-family="FreeSans" font-size="10.00">VolumeMapperComputeGradientsStartEvtRelay</text>
<text text-anchor="middle" x="271.5" y="-425" font-family="FreeSans" font-size="10.00">ErrorEvtRelay</text>
<text text-anchor="middle" x="271.5" y="-413" font-family="FreeSans" font-size="10.00">VolumeMapperRenderStartEvtRelay</text>
<text text-anchor="middle" x="271.5" y="-401" font-family="FreeSans" font-size="10.00">StartEvtRelay</text>
<text text-anchor="middle" x="271.5" y="-389" font-family="FreeSans" font-size="10.00">ResetCameraEvtRelay</text>
<text text-anchor="middle" x="271.5" y="-377" font-family="FreeSans" font-size="10.00">EnableEvtRelay</text>
<text text-anchor="middle" x="271.5" y="-365" font-family="FreeSans" font-size="10.00">DeleteEvtRelay</text>
<text text-anchor="middle" x="271.5" y="-353" font-family="FreeSans" font-size="10.00">...</text>
</g>
<!-- Node7&#45;&gt;Node6 -->
<g id="edge14" class="edge"><title>Node7&#45;&gt;Node6</title>
<path fill="none" stroke="#9a32cd" stroke-dasharray="5,2" d="M100.979,-495.818C95.4393,-492.138 90.5104,-487.596 87,-482 55.8229,-432.303 53.8299,-398.389 87,-350 91.7359,-343.091 108.511,-336.287 124.999,-331.008"/>
<polygon fill="#9a32cd" stroke="#9a32cd" points="99.6386,-499.079 110.072,-500.919 103.064,-492.974 99.6386,-499.079"/>
<text text-anchor="middle" x="111" y="-419" font-family="FreeSans" font-size="10.00"> Sender</text>
<text text-anchor="middle" x="111" y="-407" font-family="FreeSans" font-size="10.00">EventImpl</text>
</g>
</g>
</svg>
