<?xml version="1.0" encoding="UTF-8" standalone="no"?>
<!DOCTYPE svg PUBLIC "-//W3C//DTD SVG 1.1//EN"
 "http://www.w3.org/Graphics/SVG/1.1/DTD/svg11.dtd">
<!-- Generated by graphviz version 2.26.3 (20100126.1600)
 -->
<!-- Title: G Pages: 1 -->
<svg width="332pt" height="262pt"
 viewBox="0.00 0.00 332.00 262.00" xmlns="http://www.w3.org/2000/svg" xmlns:xlink="http://www.w3.org/1999/xlink">
<g id="graph1" class="graph" transform="scale(1 1) rotate(0) translate(4 258)">
<title>G</title>
<!-- Node1 -->
<g id="node1" class="node"><title>Node1</title>
<polygon fill="#bfbfbf" stroke="black" points="94.5,-59 94.5,-79 225.5,-79 225.5,-59 94.5,-59"/>
<text text-anchor="middle" x="160" y="-66" font-family="FreeSans" font-size="10.00">Kitware.VTK.vtkImporter</text>
</g>
<!-- Node5 -->
<g id="node9" class="node"><title>Node5</title>
<a xlink:href="class_kitware_1_1_v_t_k_1_1vtk3_d_s_importer.html" target="_top" xlink:title="vtk3DSImporter &#45; imports 3D Studio files.">
<polygon fill="none" stroke="black" points="-0.5,-1 -0.5,-21 150.5,-21 150.5,-1 -0.5,-1"/>
<text text-anchor="middle" x="75" y="-8" font-family="FreeSans" font-size="10.00">Kitware.VTK.vtk3DSImporter</text>
</a>
</g>
<!-- Node1&#45;&gt;Node5 -->
<g id="edge8" class="edge"><title>Node1&#45;&gt;Node5</title>
<path fill="none" stroke="midnightblue" d="M136.515,-52.975C121.619,-42.8109 102.798,-29.9681 89.9214,-21.1817"/>
<polygon fill="midnightblue" stroke="midnightblue" points="134.961,-56.1518 145.194,-58.8972 138.907,-50.3697 134.961,-56.1518"/>
</g>
<!-- Node6 -->
<g id="node11" class="node"><title>Node6</title>
<a xlink:href="class_kitware_1_1_v_t_k_1_1vtk_v_r_m_l_importer.html" target="_top" xlink:title="vtkVRMLImporter &#45; imports VRML 2.0 files.">
<polygon fill="none" stroke="black" points="167.5,-1 167.5,-21 324.5,-21 324.5,-1 167.5,-1"/>
<text text-anchor="middle" x="246" y="-8" font-family="FreeSans" font-size="10.00">Kitware.VTK.vtkVRMLImporter</text>
</a>
</g>
<!-- Node1&#45;&gt;Node6 -->
<g id="edge10" class="edge"><title>Node1&#45;&gt;Node6</title>
<path fill="none" stroke="midnightblue" d="M183.336,-53.2619C198.472,-43.0535 217.752,-30.051 230.903,-21.1817"/>
<polygon fill="midnightblue" stroke="midnightblue" points="181.314,-50.404 174.98,-58.8972 185.228,-56.2075 181.314,-50.404"/>
</g>
<!-- Node2 -->
<g id="node2" class="node"><title>Node2</title>
<a xlink:href="class_kitware_1_1_v_t_k_1_1vtk_object.html" target="_top" xlink:title="vtkObject &#45; abstract base class for most VTK objects">
<polygon fill="none" stroke="black" points="129,-117 129,-137 191,-137 191,-117 129,-117"/>
<text text-anchor="middle" x="160" y="-124" font-family="FreeSans" font-size="10.00">vtkObject</text>
</a>
</g>
<!-- Node2&#45;&gt;Node1 -->
<g id="edge2" class="edge"><title>Node2&#45;&gt;Node1</title>
<path fill="none" stroke="midnightblue" d="M160,-106.89C160,-97.6201 160,-87.0083 160,-79.3776"/>
<polygon fill="midnightblue" stroke="midnightblue" points="156.5,-106.897 160,-116.897 163.5,-106.897 156.5,-106.897"/>
</g>
<!-- Node3 -->
<g id="node4" class="node"><title>Node3</title>
<a xlink:href="class_kitware_1_1_v_t_k_1_1vtk_object_base.html" target="_top" xlink:title="vtkObjectBase &#45; abstract base class for most VTK objects">
<polygon fill="none" stroke="black" points="117,-175 117,-195 203,-195 203,-175 117,-175"/>
<text text-anchor="middle" x="160" y="-182" font-family="FreeSans" font-size="10.00">vtkObjectBase</text>
</a>
</g>
<!-- Node3&#45;&gt;Node2 -->
<g id="edge4" class="edge"><title>Node3&#45;&gt;Node2</title>
<path fill="none" stroke="midnightblue" d="M160,-164.89C160,-155.62 160,-145.008 160,-137.378"/>
<polygon fill="midnightblue" stroke="midnightblue" points="156.5,-164.897 160,-174.897 163.5,-164.897 156.5,-164.897"/>
</g>
<!-- Node4 -->
<g id="node6" class="node"><title>Node4</title>
<a xlink:href="class_kitware_1_1_v_t_k_1_1_wrapped_object.html" target="_top" xlink:title="Base class for all the mummy wrapped classes in Kitware.VTK.">
<polygon fill="none" stroke="black" points="115.5,-233 115.5,-253 204.5,-253 204.5,-233 115.5,-233"/>
<text text-anchor="middle" x="160" y="-240" font-family="FreeSans" font-size="10.00">WrappedObject</text>
</a>
</g>
<!-- Node4&#45;&gt;Node3 -->
<g id="edge6" class="edge"><title>Node4&#45;&gt;Node3</title>
<path fill="none" stroke="midnightblue" d="M160,-222.89C160,-213.62 160,-203.008 160,-195.378"/>
<polygon fill="midnightblue" stroke="midnightblue" points="156.5,-222.897 160,-232.897 163.5,-222.897 156.5,-222.897"/>
</g>
</g>
</svg>
