<?xml version="1.0" encoding="UTF-8" standalone="no"?>
<!DOCTYPE svg PUBLIC "-//W3C//DTD SVG 1.1//EN"
 "http://www.w3.org/Graphics/SVG/1.1/DTD/svg11.dtd">
<!-- Generated by graphviz version 2.26.3 (20100126.1600)
 -->
<!-- Title: G Pages: 1 -->
<svg width="1102pt" height="142pt"
 viewBox="0.00 0.00 1102.00 142.00" xmlns="http://www.w3.org/2000/svg" xmlns:xlink="http://www.w3.org/1999/xlink">
<g id="graph1" class="graph" transform="scale(1 1) rotate(0) translate(4 138)">
<title>G</title>
<!-- Node1 -->
<g id="node1" class="node"><title>Node1</title>
<polygon fill="#bfbfbf" stroke="black" points="636.5,-57 636.5,-77 821.5,-77 821.5,-57 636.5,-57"/>
<text text-anchor="middle" x="729" y="-64" font-family="FreeSans" font-size="10.00">Kitware.VTK.vtkImageStencilSource</text>
</g>
<!-- Node7 -->
<g id="node13" class="node"><title>Node7</title>
<a xlink:href="class_kitware_1_1_v_t_k_1_1vtk_implicit_function_to_image_stencil.html" target="_top" xlink:title="vtkImplicitFunctionToImageStencil &#45; clip an image with a function">
<polygon fill="none" stroke="black" points="858.5,-114 858.5,-134 1093.5,-134 1093.5,-114 858.5,-114"/>
<text text-anchor="middle" x="976" y="-121" font-family="FreeSans" font-size="10.00">Kitware.VTK.vtkImplicitFunctionToImageStencil</text>
</a>
</g>
<!-- Node1&#45;&gt;Node7 -->
<g id="edge12" class="edge"><title>Node1&#45;&gt;Node7</title>
<path fill="none" stroke="midnightblue" d="M768.829,-80.1548C794.151,-88.1631 827.749,-98.138 858,-105 872.975,-108.397 889.152,-111.417 904.585,-113.995"/>
<polygon fill="midnightblue" stroke="midnightblue" points="769.8,-76.7909 759.209,-77.0815 767.67,-83.4589 769.8,-76.7909"/>
</g>
<!-- Node8 -->
<g id="node15" class="node"><title>Node8</title>
<a xlink:href="class_kitware_1_1_v_t_k_1_1vtk_lasso_stencil_source.html" target="_top" xlink:title="vtkLassoStencilSource &#45; Create a stencil from a contour">
<polygon fill="none" stroke="black" points="884.5,-76 884.5,-96 1067.5,-96 1067.5,-76 884.5,-76"/>
<text text-anchor="middle" x="976" y="-83" font-family="FreeSans" font-size="10.00">Kitware.VTK.vtkLassoStencilSource</text>
</a>
</g>
<!-- Node1&#45;&gt;Node8 -->
<g id="edge14" class="edge"><title>Node1&#45;&gt;Node8</title>
<path fill="none" stroke="midnightblue" d="M831.87,-74.9131C849.312,-76.2548 867.319,-77.6399 884.446,-78.9574"/>
<polygon fill="midnightblue" stroke="midnightblue" points="831.915,-71.4063 821.676,-74.129 831.378,-78.3857 831.915,-71.4063"/>
</g>
<!-- Node9 -->
<g id="node17" class="node"><title>Node9</title>
<a xlink:href="class_kitware_1_1_v_t_k_1_1vtk_poly_data_to_image_stencil.html" target="_top" xlink:title="vtkPolyDataToImageStencil &#45; use polydata to mask an image">
<polygon fill="none" stroke="black" points="874,-38 874,-58 1078,-58 1078,-38 874,-38"/>
<text text-anchor="middle" x="976" y="-45" font-family="FreeSans" font-size="10.00">Kitware.VTK.vtkPolyDataToImageStencil</text>
</a>
</g>
<!-- Node1&#45;&gt;Node9 -->
<g id="edge16" class="edge"><title>Node1&#45;&gt;Node9</title>
<path fill="none" stroke="midnightblue" d="M831.707,-59.0995C845.584,-58.032 859.821,-56.9368 873.691,-55.8699"/>
<polygon fill="midnightblue" stroke="midnightblue" points="831.378,-55.6143 821.676,-59.871 831.915,-62.5937 831.378,-55.6143"/>
</g>
<!-- Node10 -->
<g id="node19" class="node"><title>Node10</title>
<a xlink:href="class_kitware_1_1_v_t_k_1_1vtk_r_o_i_stencil_source.html" target="_top" xlink:title="vtkROIStencilSource &#45; create simple mask shapes">
<polygon fill="none" stroke="black" points="890.5,-0 890.5,-20 1061.5,-20 1061.5,-0 890.5,-0"/>
<text text-anchor="middle" x="976" y="-7" font-family="FreeSans" font-size="10.00">Kitware.VTK.vtkROIStencilSource</text>
</a>
</g>
<!-- Node1&#45;&gt;Node10 -->
<g id="edge18" class="edge"><title>Node1&#45;&gt;Node10</title>
<path fill="none" stroke="midnightblue" d="M768.829,-53.8452C794.151,-45.8369 827.749,-35.862 858,-29 872.975,-25.6033 889.152,-22.5827 904.585,-20.0046"/>
<polygon fill="midnightblue" stroke="midnightblue" points="767.67,-50.5411 759.209,-56.9185 769.8,-57.2091 767.67,-50.5411"/>
</g>
<!-- Node2 -->
<g id="node2" class="node"><title>Node2</title>
<a xlink:href="class_kitware_1_1_v_t_k_1_1vtk_image_stencil_algorithm.html" target="_top" xlink:title="vtkImageStencilAlgorithm &#45; producer of vtkImageStencilData">
<polygon fill="none" stroke="black" points="460,-57 460,-77 600,-77 600,-57 460,-57"/>
<text text-anchor="middle" x="530" y="-64" font-family="FreeSans" font-size="10.00">vtkImageStencilAlgorithm</text>
</a>
</g>
<!-- Node2&#45;&gt;Node1 -->
<g id="edge2" class="edge"><title>Node2&#45;&gt;Node1</title>
<path fill="none" stroke="midnightblue" d="M610.199,-67C618.845,-67 627.692,-67 636.467,-67"/>
<polygon fill="midnightblue" stroke="midnightblue" points="610.16,-63.5001 600.16,-67 610.16,-70.5001 610.16,-63.5001"/>
</g>
<!-- Node3 -->
<g id="node4" class="node"><title>Node3</title>
<a xlink:href="class_kitware_1_1_v_t_k_1_1vtk_algorithm.html" target="_top" xlink:title="vtkAlgorithm &#45; Superclass for all sources, filters, and sinks in VTK.">
<polygon fill="none" stroke="black" points="346.5,-57 346.5,-77 423.5,-77 423.5,-57 346.5,-57"/>
<text text-anchor="middle" x="385" y="-64" font-family="FreeSans" font-size="10.00">vtkAlgorithm</text>
</a>
</g>
<!-- Node3&#45;&gt;Node2 -->
<g id="edge4" class="edge"><title>Node3&#45;&gt;Node2</title>
<path fill="none" stroke="midnightblue" d="M434.117,-67C442.441,-67 451.227,-67 459.964,-67"/>
<polygon fill="midnightblue" stroke="midnightblue" points="433.857,-63.5001 423.857,-67 433.857,-70.5001 433.857,-63.5001"/>
</g>
<!-- Node4 -->
<g id="node6" class="node"><title>Node4</title>
<a xlink:href="class_kitware_1_1_v_t_k_1_1vtk_object.html" target="_top" xlink:title="vtkObject &#45; abstract base class for most VTK objects">
<polygon fill="none" stroke="black" points="248,-57 248,-77 310,-77 310,-57 248,-57"/>
<text text-anchor="middle" x="279" y="-64" font-family="FreeSans" font-size="10.00">vtkObject</text>
</a>
</g>
<!-- Node4&#45;&gt;Node3 -->
<g id="edge6" class="edge"><title>Node4&#45;&gt;Node3</title>
<path fill="none" stroke="midnightblue" d="M320.421,-67C329.001,-67 338.007,-67 346.479,-67"/>
<polygon fill="midnightblue" stroke="midnightblue" points="320.23,-63.5001 310.23,-67 320.23,-70.5001 320.23,-63.5001"/>
</g>
<!-- Node5 -->
<g id="node8" class="node"><title>Node5</title>
<a xlink:href="class_kitware_1_1_v_t_k_1_1vtk_object_base.html" target="_top" xlink:title="vtkObjectBase &#45; abstract base class for most VTK objects">
<polygon fill="none" stroke="black" points="126,-57 126,-77 212,-77 212,-57 126,-57"/>
<text text-anchor="middle" x="169" y="-64" font-family="FreeSans" font-size="10.00">vtkObjectBase</text>
</a>
</g>
<!-- Node5&#45;&gt;Node4 -->
<g id="edge8" class="edge"><title>Node5&#45;&gt;Node4</title>
<path fill="none" stroke="midnightblue" d="M222.346,-67C231.091,-67 239.892,-67 247.863,-67"/>
<polygon fill="midnightblue" stroke="midnightblue" points="222.159,-63.5001 212.159,-67 222.159,-70.5001 222.159,-63.5001"/>
</g>
<!-- Node6 -->
<g id="node10" class="node"><title>Node6</title>
<a xlink:href="class_kitware_1_1_v_t_k_1_1_wrapped_object.html" target="_top" xlink:title="Base class for all the mummy wrapped classes in Kitware.VTK.">
<polygon fill="none" stroke="black" points="0.5,-57 0.5,-77 89.5,-77 89.5,-57 0.5,-57"/>
<text text-anchor="middle" x="45" y="-64" font-family="FreeSans" font-size="10.00">WrappedObject</text>
</a>
</g>
<!-- Node6&#45;&gt;Node5 -->
<g id="edge10" class="edge"><title>Node6&#45;&gt;Node5</title>
<path fill="none" stroke="midnightblue" d="M99.8895,-67C108.623,-67 117.548,-67 125.957,-67"/>
<polygon fill="midnightblue" stroke="midnightblue" points="99.7669,-63.5001 89.7668,-67 99.7668,-70.5001 99.7669,-63.5001"/>
</g>
</g>
</svg>
