<?xml version="1.0" encoding="UTF-8" standalone="no"?>
<!DOCTYPE svg PUBLIC "-//W3C//DTD SVG 1.1//EN"
 "http://www.w3.org/Graphics/SVG/1.1/DTD/svg11.dtd">
<!-- Generated by graphviz version 2.26.3 (20100126.1600)
 -->
<!-- Title: G Pages: 1 -->
<svg width="393pt" height="710pt"
 viewBox="0.00 0.00 393.46 710.00" xmlns="http://www.w3.org/2000/svg" xmlns:xlink="http://www.w3.org/1999/xlink">
<g id="graph1" class="graph" transform="scale(1 1) rotate(0) translate(4 706)">
<title>G</title>
<!-- Node1 -->
<g id="node1" class="node"><title>Node1</title>
<polygon fill="#bfbfbf" stroke="black" points="-0.5,-1 -0.5,-21 114.5,-21 114.5,-1 -0.5,-1"/>
<text text-anchor="middle" x="57" y="-8" font-family="FreeSans" font-size="10.00">Kitware.VTK.vtkActor</text>
</g>
<!-- Node2 -->
<g id="node2" class="node"><title>Node2</title>
<a xlink:href="class_kitware_1_1_v_t_k_1_1vtk_prop3_d.html" target="_top" xlink:title="vtkProp3D &#45; represents an 3D object for placement in a rendered scene">
<polygon fill="none" stroke="black" points="24,-61 24,-81 90,-81 90,-61 24,-61"/>
<text text-anchor="middle" x="57" y="-68" font-family="FreeSans" font-size="10.00">vtkProp3D</text>
</a>
</g>
<!-- Node2&#45;&gt;Node1 -->
<g id="edge2" class="edge"><title>Node2&#45;&gt;Node1</title>
<path fill="none" stroke="midnightblue" d="M57,-50.5155C57,-40.562 57,-29.0495 57,-21.0279"/>
<polygon fill="midnightblue" stroke="midnightblue" points="53.5001,-50.8218 57,-60.8218 60.5001,-50.8219 53.5001,-50.8218"/>
</g>
<!-- Node3 -->
<g id="node4" class="node"><title>Node3</title>
<a xlink:href="class_kitware_1_1_v_t_k_1_1vtk_prop.html" target="_top" xlink:title="vtkProp &#45; abstract superclass for all actors, volumes and annotations">
<polygon fill="none" stroke="black" points="30.5,-121 30.5,-141 83.5,-141 83.5,-121 30.5,-121"/>
<text text-anchor="middle" x="57" y="-128" font-family="FreeSans" font-size="10.00">vtkProp</text>
</a>
</g>
<!-- Node3&#45;&gt;Node2 -->
<g id="edge4" class="edge"><title>Node3&#45;&gt;Node2</title>
<path fill="none" stroke="midnightblue" d="M57,-110.516C57,-100.562 57,-89.0495 57,-81.0279"/>
<polygon fill="midnightblue" stroke="midnightblue" points="53.5001,-110.822 57,-120.822 60.5001,-110.822 53.5001,-110.822"/>
</g>
<!-- Node4 -->
<g id="node6" class="node"><title>Node4</title>
<a xlink:href="class_kitware_1_1_v_t_k_1_1vtk_object.html" target="_top" xlink:title="vtkObject &#45; abstract base class for most VTK objects">
<polygon fill="none" stroke="black" points="26,-181 26,-201 88,-201 88,-181 26,-181"/>
<text text-anchor="middle" x="57" y="-188" font-family="FreeSans" font-size="10.00">vtkObject</text>
</a>
</g>
<!-- Node4&#45;&gt;Node3 -->
<g id="edge6" class="edge"><title>Node4&#45;&gt;Node3</title>
<path fill="none" stroke="midnightblue" d="M57,-170.516C57,-160.562 57,-149.05 57,-141.028"/>
<polygon fill="midnightblue" stroke="midnightblue" points="53.5001,-170.822 57,-180.822 60.5001,-170.822 53.5001,-170.822"/>
</g>
<!-- Node5 -->
<g id="node8" class="node"><title>Node5</title>
<a xlink:href="class_kitware_1_1_v_t_k_1_1vtk_object_base.html" target="_top" xlink:title="vtkObjectBase &#45; abstract base class for most VTK objects">
<polygon fill="none" stroke="black" points="77,-621 77,-641 163,-641 163,-621 77,-621"/>
<text text-anchor="middle" x="120" y="-628" font-family="FreeSans" font-size="10.00">vtkObjectBase</text>
</a>
</g>
<!-- Node5&#45;&gt;Node4 -->
<g id="edge8" class="edge"><title>Node5&#45;&gt;Node4</title>
<path fill="none" stroke="midnightblue" d="M91.4228,-615.886C77.6866,-607.44 61.8844,-595.826 51,-582 39.1564,-566.955 38.6209,-560.802 35,-542 9.42483,-409.199 44.5766,-243.437 54.5155,-201.17"/>
<polygon fill="midnightblue" stroke="midnightblue" points="89.6834,-618.923 100.079,-620.97 93.2285,-612.887 89.6834,-618.923"/>
</g>
<!-- Node8 -->
<g id="node15" class="node"><title>Node8</title>
<a xlink:href="class_kitware_1_1_v_t_k_1_1vtk_object.html" target="_top" xlink:title="vtkObject &#45; abstract base class for most VTK objects">
<polygon fill="none" stroke="black" points="60,-561 60,-581 180,-581 180,-561 60,-561"/>
<text text-anchor="middle" x="120" y="-568" font-family="FreeSans" font-size="10.00">Kitware.VTK.vtkObject</text>
</a>
</g>
<!-- Node5&#45;&gt;Node8 -->
<g id="edge18" class="edge"><title>Node5&#45;&gt;Node8</title>
<path fill="none" stroke="midnightblue" d="M120,-610.516C120,-600.562 120,-589.05 120,-581.028"/>
<polygon fill="midnightblue" stroke="midnightblue" points="116.5,-610.822 120,-620.822 123.5,-610.822 116.5,-610.822"/>
</g>
<!-- Node6 -->
<g id="node10" class="node"><title>Node6</title>
<a xlink:href="class_kitware_1_1_v_t_k_1_1_wrapped_object.html" target="_top" xlink:title="Base class for all the mummy wrapped classes in Kitware.VTK.">
<polygon fill="none" stroke="black" points="258.5,-681 258.5,-701 347.5,-701 347.5,-681 258.5,-681"/>
<text text-anchor="middle" x="303" y="-688" font-family="FreeSans" font-size="10.00">WrappedObject</text>
</a>
</g>
<!-- Node6&#45;&gt;Node5 -->
<g id="edge10" class="edge"><title>Node6&#45;&gt;Node5</title>
<path fill="none" stroke="midnightblue" d="M262.804,-677.821C229.042,-666.752 181.512,-651.168 150.73,-641.075"/>
<polygon fill="midnightblue" stroke="midnightblue" points="261.777,-681.168 272.37,-680.957 263.958,-674.516 261.777,-681.168"/>
</g>
<!-- Node7 -->
<g id="node12" class="node"><title>Node7</title>
<a xlink:href="class_kitware_1_1_v_t_k_1_1vtk_object_event_relay.html" target="_top" xlink:title="Implement a relay handler for VTK events. This is a class that receives events directly from the VTK ...">
<polygon fill="none" stroke="black" points="49,-371 49,-391 221,-391 221,-371 49,-371"/>
<text text-anchor="middle" x="135" y="-378" font-family="FreeSans" font-size="10.00">Kitware.VTK.vtkObjectEventRelay</text>
</a>
</g>
<!-- Node6&#45;&gt;Node7 -->
<g id="edge14" class="edge"><title>Node6&#45;&gt;Node7</title>
<path fill="none" stroke="midnightblue" d="M315.888,-672.325C348.276,-622.899 425.803,-487.191 358,-410 348.773,-399.495 280.047,-391.666 221.298,-386.808"/>
<polygon fill="midnightblue" stroke="midnightblue" points="312.891,-670.509 310.239,-680.767 318.709,-674.402 312.891,-670.509"/>
</g>
<!-- Node7&#45;&gt;Node4 -->
<g id="edge12" class="edge"><title>Node7&#45;&gt;Node4</title>
<path fill="none" stroke="#9a32cd" stroke-dasharray="5,2" d="M126.921,-361.321C110.489,-321.293 73.6738,-231.616 61.2144,-201.266"/>
<polygon fill="#9a32cd" stroke="#9a32cd" points="123.771,-362.863 130.806,-370.785 130.246,-360.205 123.771,-362.863"/>
<text text-anchor="middle" x="234.5" y="-343" font-family="FreeSans" font-size="10.00"> LeftButtonReleaseEvtRelay</text>
<text text-anchor="middle" x="234.5" y="-331" font-family="FreeSans" font-size="10.00">KeyPressEvtRelay</text>
<text text-anchor="middle" x="234.5" y="-319" font-family="FreeSans" font-size="10.00">DomainModifiedEvtRelay</text>
<text text-anchor="middle" x="234.5" y="-307" font-family="FreeSans" font-size="10.00">VolumeMapperComputeGradientsStartEvtRelay</text>
<text text-anchor="middle" x="234.5" y="-295" font-family="FreeSans" font-size="10.00">ErrorEvtRelay</text>
<text text-anchor="middle" x="234.5" y="-283" font-family="FreeSans" font-size="10.00">VolumeMapperRenderStartEvtRelay</text>
<text text-anchor="middle" x="234.5" y="-271" font-family="FreeSans" font-size="10.00">StartEvtRelay</text>
<text text-anchor="middle" x="234.5" y="-259" font-family="FreeSans" font-size="10.00">ResetCameraEvtRelay</text>
<text text-anchor="middle" x="234.5" y="-247" font-family="FreeSans" font-size="10.00">EnableEvtRelay</text>
<text text-anchor="middle" x="234.5" y="-235" font-family="FreeSans" font-size="10.00">DeleteEvtRelay</text>
<text text-anchor="middle" x="234.5" y="-223" font-family="FreeSans" font-size="10.00">...</text>
</g>
<!-- Node7&#45;&gt;Node8 -->
<g id="edge20" class="edge"><title>Node7&#45;&gt;Node8</title>
<path fill="none" stroke="#9a32cd" stroke-dasharray="5,2" d="M132.028,-401.231C131.649,-404.169 131.293,-407.159 131,-410 125.144,-466.853 121.636,-535.333 120.452,-560.807"/>
<polygon fill="#9a32cd" stroke="#9a32cd" points="135.515,-401.565 133.421,-391.179 128.582,-400.604 135.515,-401.565"/>
<text text-anchor="middle" x="244.5" y="-533" font-family="FreeSans" font-size="10.00"> LeftButtonReleaseEvtRelay</text>
<text text-anchor="middle" x="244.5" y="-521" font-family="FreeSans" font-size="10.00">KeyPressEvtRelay</text>
<text text-anchor="middle" x="244.5" y="-509" font-family="FreeSans" font-size="10.00">DomainModifiedEvtRelay</text>
<text text-anchor="middle" x="244.5" y="-497" font-family="FreeSans" font-size="10.00">VolumeMapperComputeGradientsStartEvtRelay</text>
<text text-anchor="middle" x="244.5" y="-485" font-family="FreeSans" font-size="10.00">ErrorEvtRelay</text>
<text text-anchor="middle" x="244.5" y="-473" font-family="FreeSans" font-size="10.00">VolumeMapperRenderStartEvtRelay</text>
<text text-anchor="middle" x="244.5" y="-461" font-family="FreeSans" font-size="10.00">StartEvtRelay</text>
<text text-anchor="middle" x="244.5" y="-449" font-family="FreeSans" font-size="10.00">ResetCameraEvtRelay</text>
<text text-anchor="middle" x="244.5" y="-437" font-family="FreeSans" font-size="10.00">EnableEvtRelay</text>
<text text-anchor="middle" x="244.5" y="-425" font-family="FreeSans" font-size="10.00">DeleteEvtRelay</text>
<text text-anchor="middle" x="244.5" y="-413" font-family="FreeSans" font-size="10.00">...</text>
</g>
<!-- Node8&#45;&gt;Node7 -->
<g id="edge16" class="edge"><title>Node8&#45;&gt;Node7</title>
<path fill="none" stroke="#9a32cd" stroke-dasharray="5,2" d="M73.9794,-555.818C68.4393,-552.138 63.5104,-547.596 60,-542 28.8229,-492.303 26.8299,-458.389 60,-410 64.7359,-403.091 81.5114,-396.287 97.9987,-391.008"/>
<polygon fill="#9a32cd" stroke="#9a32cd" points="72.6386,-559.079 83.0724,-560.919 76.0636,-552.974 72.6386,-559.079"/>
<text text-anchor="middle" x="84" y="-479" font-family="FreeSans" font-size="10.00"> Sender</text>
<text text-anchor="middle" x="84" y="-467" font-family="FreeSans" font-size="10.00">EventImpl</text>
</g>
</g>
</svg>
