<?xml version="1.0" encoding="UTF-8" standalone="no"?>
<!DOCTYPE svg PUBLIC "-//W3C//DTD SVG 1.1//EN"
 "http://www.w3.org/Graphics/SVG/1.1/DTD/svg11.dtd">
<!-- Generated by graphviz version 2.26.3 (20100126.1600)
 -->
<!-- Title: G Pages: 1 -->
<svg width="443pt" height="830pt"
 viewBox="0.00 0.00 443.46 830.00" xmlns="http://www.w3.org/2000/svg" xmlns:xlink="http://www.w3.org/1999/xlink">
<g id="graph1" class="graph" transform="scale(1 1) rotate(0) translate(4 826)">
<title>G</title>
<!-- Node1 -->
<g id="node1" class="node"><title>Node1</title>
<polygon fill="#bfbfbf" stroke="black" points="0,-1 0,-21 214,-21 214,-1 0,-1"/>
<text text-anchor="middle" x="107" y="-8" font-family="FreeSans" font-size="10.00">Kitware.VTK.vtkPMultiCorrelativeStatistics</text>
</g>
<!-- Node2 -->
<g id="node2" class="node"><title>Node2</title>
<a xlink:href="class_kitware_1_1_v_t_k_1_1vtk_multi_correlative_statistics.html" target="_top" xlink:title="vtkMultiCorrelativeStatistics &#45; A class for linear correlation">
<polygon fill="none" stroke="black" points="32.5,-61 32.5,-81 181.5,-81 181.5,-61 32.5,-61"/>
<text text-anchor="middle" x="107" y="-68" font-family="FreeSans" font-size="10.00">vtkMultiCorrelativeStatistics</text>
</a>
</g>
<!-- Node2&#45;&gt;Node1 -->
<g id="edge2" class="edge"><title>Node2&#45;&gt;Node1</title>
<path fill="none" stroke="midnightblue" d="M107,-50.5155C107,-40.562 107,-29.0495 107,-21.0279"/>
<polygon fill="midnightblue" stroke="midnightblue" points="103.5,-50.8218 107,-60.8218 110.5,-50.8219 103.5,-50.8218"/>
</g>
<!-- Node3 -->
<g id="node4" class="node"><title>Node3</title>
<a xlink:href="class_kitware_1_1_v_t_k_1_1vtk_statistics_algorithm.html" target="_top" xlink:title="vtkStatisticsAlgorithm &#45; Base class for statistics algorithms">
<polygon fill="none" stroke="black" points="46,-121 46,-141 168,-141 168,-121 46,-121"/>
<text text-anchor="middle" x="107" y="-128" font-family="FreeSans" font-size="10.00">vtkStatisticsAlgorithm</text>
</a>
</g>
<!-- Node3&#45;&gt;Node2 -->
<g id="edge4" class="edge"><title>Node3&#45;&gt;Node2</title>
<path fill="none" stroke="midnightblue" d="M107,-110.516C107,-100.562 107,-89.0495 107,-81.0279"/>
<polygon fill="midnightblue" stroke="midnightblue" points="103.5,-110.822 107,-120.822 110.5,-110.822 103.5,-110.822"/>
</g>
<!-- Node4 -->
<g id="node6" class="node"><title>Node4</title>
<a xlink:href="class_kitware_1_1_v_t_k_1_1vtk_table_algorithm.html" target="_top" xlink:title="vtkTableAlgorithm &#45; Superclass for algorithms that produce only vtkTables as output">
<polygon fill="none" stroke="black" points="56.5,-181 56.5,-201 157.5,-201 157.5,-181 56.5,-181"/>
<text text-anchor="middle" x="107" y="-188" font-family="FreeSans" font-size="10.00">vtkTableAlgorithm</text>
</a>
</g>
<!-- Node4&#45;&gt;Node3 -->
<g id="edge6" class="edge"><title>Node4&#45;&gt;Node3</title>
<path fill="none" stroke="midnightblue" d="M107,-170.516C107,-160.562 107,-149.05 107,-141.028"/>
<polygon fill="midnightblue" stroke="midnightblue" points="103.5,-170.822 107,-180.822 110.5,-170.822 103.5,-170.822"/>
</g>
<!-- Node5 -->
<g id="node8" class="node"><title>Node5</title>
<a xlink:href="class_kitware_1_1_v_t_k_1_1vtk_algorithm.html" target="_top" xlink:title="vtkAlgorithm &#45; Superclass for all sources, filters, and sinks in VTK.">
<polygon fill="none" stroke="black" points="68.5,-241 68.5,-261 145.5,-261 145.5,-241 68.5,-241"/>
<text text-anchor="middle" x="107" y="-248" font-family="FreeSans" font-size="10.00">vtkAlgorithm</text>
</a>
</g>
<!-- Node5&#45;&gt;Node4 -->
<g id="edge8" class="edge"><title>Node5&#45;&gt;Node4</title>
<path fill="none" stroke="midnightblue" d="M107,-230.516C107,-220.562 107,-209.05 107,-201.028"/>
<polygon fill="midnightblue" stroke="midnightblue" points="103.5,-230.822 107,-240.822 110.5,-230.822 103.5,-230.822"/>
</g>
<!-- Node6 -->
<g id="node10" class="node"><title>Node6</title>
<a xlink:href="class_kitware_1_1_v_t_k_1_1vtk_object.html" target="_top" xlink:title="vtkObject &#45; abstract base class for most VTK objects">
<polygon fill="none" stroke="black" points="76,-301 76,-321 138,-321 138,-301 76,-301"/>
<text text-anchor="middle" x="107" y="-308" font-family="FreeSans" font-size="10.00">vtkObject</text>
</a>
</g>
<!-- Node6&#45;&gt;Node5 -->
<g id="edge10" class="edge"><title>Node6&#45;&gt;Node5</title>
<path fill="none" stroke="midnightblue" d="M107,-290.516C107,-280.562 107,-269.05 107,-261.028"/>
<polygon fill="midnightblue" stroke="midnightblue" points="103.5,-290.822 107,-300.822 110.5,-290.822 103.5,-290.822"/>
</g>
<!-- Node7 -->
<g id="node12" class="node"><title>Node7</title>
<a xlink:href="class_kitware_1_1_v_t_k_1_1vtk_object_base.html" target="_top" xlink:title="vtkObjectBase &#45; abstract base class for most VTK objects">
<polygon fill="none" stroke="black" points="127,-741 127,-761 213,-761 213,-741 127,-741"/>
<text text-anchor="middle" x="170" y="-748" font-family="FreeSans" font-size="10.00">vtkObjectBase</text>
</a>
</g>
<!-- Node7&#45;&gt;Node6 -->
<g id="edge12" class="edge"><title>Node7&#45;&gt;Node6</title>
<path fill="none" stroke="midnightblue" d="M141.423,-735.886C127.687,-727.44 111.884,-715.826 101,-702 89.1564,-686.955 88.6209,-680.802 85,-662 59.4248,-529.199 94.5766,-363.437 104.516,-321.17"/>
<polygon fill="midnightblue" stroke="midnightblue" points="139.683,-738.923 150.079,-740.97 143.229,-732.887 139.683,-738.923"/>
</g>
<!-- Node10 -->
<g id="node19" class="node"><title>Node10</title>
<a xlink:href="class_kitware_1_1_v_t_k_1_1vtk_object.html" target="_top" xlink:title="vtkObject &#45; abstract base class for most VTK objects">
<polygon fill="none" stroke="black" points="110,-681 110,-701 230,-701 230,-681 110,-681"/>
<text text-anchor="middle" x="170" y="-688" font-family="FreeSans" font-size="10.00">Kitware.VTK.vtkObject</text>
</a>
</g>
<!-- Node7&#45;&gt;Node10 -->
<g id="edge22" class="edge"><title>Node7&#45;&gt;Node10</title>
<path fill="none" stroke="midnightblue" d="M170,-730.516C170,-720.562 170,-709.05 170,-701.028"/>
<polygon fill="midnightblue" stroke="midnightblue" points="166.5,-730.822 170,-740.822 173.5,-730.822 166.5,-730.822"/>
</g>
<!-- Node8 -->
<g id="node14" class="node"><title>Node8</title>
<a xlink:href="class_kitware_1_1_v_t_k_1_1_wrapped_object.html" target="_top" xlink:title="Base class for all the mummy wrapped classes in Kitware.VTK.">
<polygon fill="none" stroke="black" points="308.5,-801 308.5,-821 397.5,-821 397.5,-801 308.5,-801"/>
<text text-anchor="middle" x="353" y="-808" font-family="FreeSans" font-size="10.00">WrappedObject</text>
</a>
</g>
<!-- Node8&#45;&gt;Node7 -->
<g id="edge14" class="edge"><title>Node8&#45;&gt;Node7</title>
<path fill="none" stroke="midnightblue" d="M312.804,-797.821C279.042,-786.752 231.512,-771.168 200.73,-761.075"/>
<polygon fill="midnightblue" stroke="midnightblue" points="311.777,-801.168 322.37,-800.957 313.958,-794.516 311.777,-801.168"/>
</g>
<!-- Node9 -->
<g id="node16" class="node"><title>Node9</title>
<a xlink:href="class_kitware_1_1_v_t_k_1_1vtk_object_event_relay.html" target="_top" xlink:title="Implement a relay handler for VTK events. This is a class that receives events directly from the VTK ...">
<polygon fill="none" stroke="black" points="99,-491 99,-511 271,-511 271,-491 99,-491"/>
<text text-anchor="middle" x="185" y="-498" font-family="FreeSans" font-size="10.00">Kitware.VTK.vtkObjectEventRelay</text>
</a>
</g>
<!-- Node8&#45;&gt;Node9 -->
<g id="edge18" class="edge"><title>Node8&#45;&gt;Node9</title>
<path fill="none" stroke="midnightblue" d="M365.888,-792.325C398.276,-742.899 475.803,-607.191 408,-530 398.773,-519.495 330.047,-511.666 271.298,-506.808"/>
<polygon fill="midnightblue" stroke="midnightblue" points="362.891,-790.509 360.239,-800.767 368.709,-794.402 362.891,-790.509"/>
</g>
<!-- Node9&#45;&gt;Node6 -->
<g id="edge16" class="edge"><title>Node9&#45;&gt;Node6</title>
<path fill="none" stroke="#9a32cd" stroke-dasharray="5,2" d="M176.921,-481.321C160.489,-441.293 123.674,-351.616 111.214,-321.266"/>
<polygon fill="#9a32cd" stroke="#9a32cd" points="173.771,-482.863 180.806,-490.785 180.246,-480.205 173.771,-482.863"/>
<text text-anchor="middle" x="284.5" y="-463" font-family="FreeSans" font-size="10.00"> LeftButtonReleaseEvtRelay</text>
<text text-anchor="middle" x="284.5" y="-451" font-family="FreeSans" font-size="10.00">KeyPressEvtRelay</text>
<text text-anchor="middle" x="284.5" y="-439" font-family="FreeSans" font-size="10.00">DomainModifiedEvtRelay</text>
<text text-anchor="middle" x="284.5" y="-427" font-family="FreeSans" font-size="10.00">VolumeMapperComputeGradientsStartEvtRelay</text>
<text text-anchor="middle" x="284.5" y="-415" font-family="FreeSans" font-size="10.00">ErrorEvtRelay</text>
<text text-anchor="middle" x="284.5" y="-403" font-family="FreeSans" font-size="10.00">VolumeMapperRenderStartEvtRelay</text>
<text text-anchor="middle" x="284.5" y="-391" font-family="FreeSans" font-size="10.00">StartEvtRelay</text>
<text text-anchor="middle" x="284.5" y="-379" font-family="FreeSans" font-size="10.00">ResetCameraEvtRelay</text>
<text text-anchor="middle" x="284.5" y="-367" font-family="FreeSans" font-size="10.00">EnableEvtRelay</text>
<text text-anchor="middle" x="284.5" y="-355" font-family="FreeSans" font-size="10.00">DeleteEvtRelay</text>
<text text-anchor="middle" x="284.5" y="-343" font-family="FreeSans" font-size="10.00">...</text>
</g>
<!-- Node9&#45;&gt;Node10 -->
<g id="edge24" class="edge"><title>Node9&#45;&gt;Node10</title>
<path fill="none" stroke="#9a32cd" stroke-dasharray="5,2" d="M182.028,-521.231C181.649,-524.169 181.293,-527.159 181,-530 175.144,-586.853 171.636,-655.333 170.452,-680.807"/>
<polygon fill="#9a32cd" stroke="#9a32cd" points="185.515,-521.565 183.421,-511.179 178.582,-520.604 185.515,-521.565"/>
<text text-anchor="middle" x="294.5" y="-653" font-family="FreeSans" font-size="10.00"> LeftButtonReleaseEvtRelay</text>
<text text-anchor="middle" x="294.5" y="-641" font-family="FreeSans" font-size="10.00">KeyPressEvtRelay</text>
<text text-anchor="middle" x="294.5" y="-629" font-family="FreeSans" font-size="10.00">DomainModifiedEvtRelay</text>
<text text-anchor="middle" x="294.5" y="-617" font-family="FreeSans" font-size="10.00">VolumeMapperComputeGradientsStartEvtRelay</text>
<text text-anchor="middle" x="294.5" y="-605" font-family="FreeSans" font-size="10.00">ErrorEvtRelay</text>
<text text-anchor="middle" x="294.5" y="-593" font-family="FreeSans" font-size="10.00">VolumeMapperRenderStartEvtRelay</text>
<text text-anchor="middle" x="294.5" y="-581" font-family="FreeSans" font-size="10.00">StartEvtRelay</text>
<text text-anchor="middle" x="294.5" y="-569" font-family="FreeSans" font-size="10.00">ResetCameraEvtRelay</text>
<text text-anchor="middle" x="294.5" y="-557" font-family="FreeSans" font-size="10.00">EnableEvtRelay</text>
<text text-anchor="middle" x="294.5" y="-545" font-family="FreeSans" font-size="10.00">DeleteEvtRelay</text>
<text text-anchor="middle" x="294.5" y="-533" font-family="FreeSans" font-size="10.00">...</text>
</g>
<!-- Node10&#45;&gt;Node9 -->
<g id="edge20" class="edge"><title>Node10&#45;&gt;Node9</title>
<path fill="none" stroke="#9a32cd" stroke-dasharray="5,2" d="M123.979,-675.818C118.439,-672.138 113.51,-667.596 110,-662 78.8229,-612.303 76.8299,-578.389 110,-530 114.736,-523.091 131.511,-516.287 147.999,-511.008"/>
<polygon fill="#9a32cd" stroke="#9a32cd" points="122.639,-679.079 133.072,-680.919 126.064,-672.974 122.639,-679.079"/>
<text text-anchor="middle" x="134" y="-599" font-family="FreeSans" font-size="10.00"> Sender</text>
<text text-anchor="middle" x="134" y="-587" font-family="FreeSans" font-size="10.00">EventImpl</text>
</g>
</g>
</svg>
