<?xml version="1.0" encoding="UTF-8" standalone="no"?>
<!DOCTYPE svg PUBLIC "-//W3C//DTD SVG 1.1//EN"
 "http://www.w3.org/Graphics/SVG/1.1/DTD/svg11.dtd">
<!-- Generated by graphviz version 2.26.3 (20100126.1600)
 -->
<!-- Title: G Pages: 1 -->
<svg width="1178pt" height="560pt"
 viewBox="0.00 0.00 1178.00 560.00" xmlns="http://www.w3.org/2000/svg" xmlns:xlink="http://www.w3.org/1999/xlink">
<g id="graph1" class="graph" transform="scale(1 1) rotate(0) translate(4 556)">
<title>G</title>
<!-- Node1 -->
<g id="node1" class="node"><title>Node1</title>
<polygon fill="#bfbfbf" stroke="black" points="346.5,-209 346.5,-229 501.5,-229 501.5,-209 346.5,-209"/>
<text text-anchor="middle" x="424" y="-216" font-family="FreeSans" font-size="10.00">Kitware.VTK.vtkAbstractArray</text>
</g>
<!-- Node5 -->
<g id="node9" class="node"><title>Node5</title>
<a xlink:href="class_kitware_1_1_v_t_k_1_1vtk_data_array.html" target="_top" xlink:title="vtkDataArray &#45; abstract superclass for arrays of numeric data">
<polygon fill="none" stroke="black" points="560,-266 560,-286 698,-286 698,-266 560,-266"/>
<text text-anchor="middle" x="629" y="-273" font-family="FreeSans" font-size="10.00">Kitware.VTK.vtkDataArray</text>
</a>
</g>
<!-- Node1&#45;&gt;Node5 -->
<g id="edge8" class="edge"><title>Node1&#45;&gt;Node5</title>
<path fill="none" stroke="midnightblue" d="M461.041,-232.558C483.181,-240.357 511.976,-249.971 538,-257 550.153,-260.282 563.348,-263.328 575.823,-265.977"/>
<polygon fill="midnightblue" stroke="midnightblue" points="461.965,-229.172 451.371,-229.118 459.619,-235.767 461.965,-229.172"/>
</g>
<!-- Node31 -->
<g id="node61" class="node"><title>Node31</title>
<a xlink:href="class_kitware_1_1_v_t_k_1_1vtk_string_array.html" target="_top" xlink:title="vtkStringArray &#45; a vtkAbstractArray subclass for strings">
<polygon fill="none" stroke="black" points="557.5,-228 557.5,-248 700.5,-248 700.5,-228 557.5,-228"/>
<text text-anchor="middle" x="629" y="-235" font-family="FreeSans" font-size="10.00">Kitware.VTK.vtkStringArray</text>
</a>
</g>
<!-- Node1&#45;&gt;Node31 -->
<g id="edge60" class="edge"><title>Node1&#45;&gt;Node31</title>
<path fill="none" stroke="midnightblue" d="M511.499,-227.11C526.835,-228.531 542.629,-229.995 557.467,-231.37"/>
<polygon fill="midnightblue" stroke="midnightblue" points="511.782,-223.621 501.502,-226.183 511.136,-230.591 511.782,-223.621"/>
</g>
<!-- Node32 -->
<g id="node63" class="node"><title>Node32</title>
<a xlink:href="class_kitware_1_1_v_t_k_1_1vtk_unicode_string_array.html" target="_top" xlink:title="vtkUnicodeStringArray &#45; Subclass of vtkAbstractArray that holds vtkUnicodeStrings">
<polygon fill="none" stroke="black" points="538,-190 538,-210 720,-210 720,-190 538,-190"/>
<text text-anchor="middle" x="629" y="-197" font-family="FreeSans" font-size="10.00">Kitware.VTK.vtkUnicodeStringArray</text>
</a>
</g>
<!-- Node1&#45;&gt;Node32 -->
<g id="edge62" class="edge"><title>Node1&#45;&gt;Node32</title>
<path fill="none" stroke="midnightblue" d="M511.645,-210.877C520.356,-210.069 529.213,-209.249 537.958,-208.438"/>
<polygon fill="midnightblue" stroke="midnightblue" points="511.136,-207.409 501.502,-211.817 511.782,-214.379 511.136,-207.409"/>
</g>
<!-- Node33 -->
<g id="node65" class="node"><title>Node33</title>
<a xlink:href="class_kitware_1_1_v_t_k_1_1vtk_variant_array.html" target="_top" xlink:title="vtkVariantArray &#45; An array holding vtkVariants.">
<polygon fill="none" stroke="black" points="554.5,-152 554.5,-172 703.5,-172 703.5,-152 554.5,-152"/>
<text text-anchor="middle" x="629" y="-159" font-family="FreeSans" font-size="10.00">Kitware.VTK.vtkVariantArray</text>
</a>
</g>
<!-- Node1&#45;&gt;Node33 -->
<g id="edge64" class="edge"><title>Node1&#45;&gt;Node33</title>
<path fill="none" stroke="midnightblue" d="M461.041,-205.442C483.181,-197.643 511.976,-188.029 538,-181 550.153,-177.718 563.348,-174.672 575.823,-172.023"/>
<polygon fill="midnightblue" stroke="midnightblue" points="459.619,-202.233 451.371,-208.882 461.965,-208.828 459.619,-202.233"/>
</g>
<!-- Node2 -->
<g id="node2" class="node"><title>Node2</title>
<a xlink:href="class_kitware_1_1_v_t_k_1_1vtk_object.html" target="_top" xlink:title="vtkObject &#45; abstract base class for most VTK objects">
<polygon fill="none" stroke="black" points="248,-209 248,-229 310,-229 310,-209 248,-209"/>
<text text-anchor="middle" x="279" y="-216" font-family="FreeSans" font-size="10.00">vtkObject</text>
</a>
</g>
<!-- Node2&#45;&gt;Node1 -->
<g id="edge2" class="edge"><title>Node2&#45;&gt;Node1</title>
<path fill="none" stroke="midnightblue" d="M320.187,-219C328.464,-219 337.415,-219 346.471,-219"/>
<polygon fill="midnightblue" stroke="midnightblue" points="320.106,-215.5 310.106,-219 320.106,-222.5 320.106,-215.5"/>
</g>
<!-- Node3 -->
<g id="node4" class="node"><title>Node3</title>
<a xlink:href="class_kitware_1_1_v_t_k_1_1vtk_object_base.html" target="_top" xlink:title="vtkObjectBase &#45; abstract base class for most VTK objects">
<polygon fill="none" stroke="black" points="126,-209 126,-229 212,-229 212,-209 126,-209"/>
<text text-anchor="middle" x="169" y="-216" font-family="FreeSans" font-size="10.00">vtkObjectBase</text>
</a>
</g>
<!-- Node3&#45;&gt;Node2 -->
<g id="edge4" class="edge"><title>Node3&#45;&gt;Node2</title>
<path fill="none" stroke="midnightblue" d="M222.346,-219C231.091,-219 239.892,-219 247.863,-219"/>
<polygon fill="midnightblue" stroke="midnightblue" points="222.159,-215.5 212.159,-219 222.159,-222.5 222.159,-215.5"/>
</g>
<!-- Node4 -->
<g id="node6" class="node"><title>Node4</title>
<a xlink:href="class_kitware_1_1_v_t_k_1_1_wrapped_object.html" target="_top" xlink:title="Base class for all the mummy wrapped classes in Kitware.VTK.">
<polygon fill="none" stroke="black" points="0.5,-209 0.5,-229 89.5,-229 89.5,-209 0.5,-209"/>
<text text-anchor="middle" x="45" y="-216" font-family="FreeSans" font-size="10.00">WrappedObject</text>
</a>
</g>
<!-- Node4&#45;&gt;Node3 -->
<g id="edge6" class="edge"><title>Node4&#45;&gt;Node3</title>
<path fill="none" stroke="midnightblue" d="M99.8895,-219C108.623,-219 117.548,-219 125.957,-219"/>
<polygon fill="midnightblue" stroke="midnightblue" points="99.7669,-215.5 89.7668,-219 99.7668,-222.5 99.7669,-215.5"/>
</g>
<!-- Node6 -->
<g id="node11" class="node"><title>Node6</title>
<a xlink:href="class_kitware_1_1_v_t_k_1_1vtk_bit_array.html" target="_top" xlink:title="vtkBitArray &#45; dynamic, self&#45;adjusting array of bits">
<polygon fill="none" stroke="black" points="795,-532 795,-552 923,-552 923,-532 795,-532"/>
<text text-anchor="middle" x="859" y="-539" font-family="FreeSans" font-size="10.00">Kitware.VTK.vtkBitArray</text>
</a>
</g>
<!-- Node5&#45;&gt;Node6 -->
<g id="edge10" class="edge"><title>Node5&#45;&gt;Node6</title>
<path fill="none" stroke="midnightblue" d="M633.015,-296.048C643.698,-343.813 677.537,-464.685 756,-523 767.238,-531.352 781.033,-536.399 794.832,-539.373"/>
<polygon fill="midnightblue" stroke="midnightblue" points="636.389,-295.09 630.881,-286.04 629.543,-296.55 636.389,-295.09"/>
</g>
<!-- Node7 -->
<g id="node13" class="node"><title>Node7</title>
<a xlink:href="class_kitware_1_1_v_t_k_1_1vtk_char_array.html" target="_top" xlink:title="vtkCharArray &#45; dynamic, self&#45;adjusting array of char">
<polygon fill="none" stroke="black" points="790.5,-494 790.5,-514 927.5,-514 927.5,-494 790.5,-494"/>
<text text-anchor="middle" x="859" y="-501" font-family="FreeSans" font-size="10.00">Kitware.VTK.vtkCharArray</text>
</a>
</g>
<!-- Node5&#45;&gt;Node7 -->
<g id="edge12" class="edge"><title>Node5&#45;&gt;Node7</title>
<path fill="none" stroke="midnightblue" d="M634.99,-296.114C648.749,-338.57 686.863,-437.335 756,-485 766.18,-492.018 778.219,-496.649 790.412,-499.665"/>
<polygon fill="midnightblue" stroke="midnightblue" points="638.271,-294.878 631.946,-286.378 631.59,-296.967 638.271,-294.878"/>
</g>
<!-- Node9 -->
<g id="node17" class="node"><title>Node9</title>
<a xlink:href="class_kitware_1_1_v_t_k_1_1vtk_double_array.html" target="_top" xlink:title="vtkDoubleArray &#45; dynamic, self&#45;adjusting array of double">
<polygon fill="none" stroke="black" points="784.5,-456 784.5,-476 933.5,-476 933.5,-456 784.5,-456"/>
<text text-anchor="middle" x="859" y="-463" font-family="FreeSans" font-size="10.00">Kitware.VTK.vtkDoubleArray</text>
</a>
</g>
<!-- Node5&#45;&gt;Node9 -->
<g id="edge16" class="edge"><title>Node5&#45;&gt;Node9</title>
<path fill="none" stroke="midnightblue" d="M637.533,-295.654C654.413,-332.005 695.725,-409.445 756,-447 764.643,-452.385 774.433,-456.323 784.455,-459.19"/>
<polygon fill="midnightblue" stroke="midnightblue" points="640.557,-293.845 633.254,-286.169 634.176,-296.723 640.557,-293.845"/>
</g>
<!-- Node11 -->
<g id="node21" class="node"><title>Node11</title>
<a xlink:href="class_kitware_1_1_v_t_k_1_1vtk_float_array.html" target="_top" xlink:title="vtkFloatArray &#45; dynamic, self&#45;adjusting array of float">
<polygon fill="none" stroke="black" points="790,-418 790,-438 928,-438 928,-418 790,-418"/>
<text text-anchor="middle" x="859" y="-425" font-family="FreeSans" font-size="10.00">Kitware.VTK.vtkFloatArray</text>
</a>
</g>
<!-- Node5&#45;&gt;Node11 -->
<g id="edge20" class="edge"><title>Node5&#45;&gt;Node11</title>
<path fill="none" stroke="midnightblue" d="M640.903,-294.546C660.863,-323.979 704.043,-380.923 756,-409 766.398,-414.619 778.156,-418.61 789.913,-421.437"/>
<polygon fill="midnightblue" stroke="midnightblue" points="643.699,-292.429 635.257,-286.028 637.865,-296.297 643.699,-292.429"/>
</g>
<!-- Node13 -->
<g id="node25" class="node"><title>Node13</title>
<a xlink:href="class_kitware_1_1_v_t_k_1_1vtk_id_type_array.html" target="_top" xlink:title="vtkIdTypeArray &#45; dynamic, self&#45;adjusting array of vtkIdType">
<polygon fill="none" stroke="black" points="787,-380 787,-400 931,-400 931,-380 787,-380"/>
<text text-anchor="middle" x="859" y="-387" font-family="FreeSans" font-size="10.00">Kitware.VTK.vtkIdTypeArray</text>
</a>
</g>
<!-- Node5&#45;&gt;Node13 -->
<g id="edge24" class="edge"><title>Node5&#45;&gt;Node13</title>
<path fill="none" stroke="midnightblue" d="M646.415,-293.26C669.436,-315.008 712.221,-351.851 756,-371 765.663,-375.226 776.234,-378.513 786.806,-381.069"/>
<polygon fill="midnightblue" stroke="midnightblue" points="648.761,-290.66 639.128,-286.251 643.909,-295.705 648.761,-290.66"/>
</g>
<!-- Node14 -->
<g id="node27" class="node"><title>Node14</title>
<a xlink:href="class_kitware_1_1_v_t_k_1_1vtk_int_array.html" target="_top" xlink:title="vtkIntArray &#45; dynamic, self&#45;adjusting array of int">
<polygon fill="none" stroke="black" points="795.5,-342 795.5,-362 922.5,-362 922.5,-342 795.5,-342"/>
<text text-anchor="middle" x="859" y="-349" font-family="FreeSans" font-size="10.00">Kitware.VTK.vtkIntArray</text>
</a>
</g>
<!-- Node5&#45;&gt;Node14 -->
<g id="edge26" class="edge"><title>Node5&#45;&gt;Node14</title>
<path fill="none" stroke="midnightblue" d="M656.79,-290.812C682.028,-303.69 720.606,-321.968 756,-333 768.499,-336.896 782.115,-340.103 795.231,-342.701"/>
<polygon fill="midnightblue" stroke="midnightblue" points="658.296,-287.65 647.806,-286.167 655.081,-293.868 658.296,-287.65"/>
</g>
<!-- Node16 -->
<g id="node31" class="node"><title>Node16</title>
<a xlink:href="class_kitware_1_1_v_t_k_1_1vtk_long_array.html" target="_top" xlink:title="vtkLongArray &#45; dynamic, self&#45;adjusting array of long">
<polygon fill="none" stroke="black" points="790,-304 790,-324 928,-324 928,-304 790,-304"/>
<text text-anchor="middle" x="859" y="-311" font-family="FreeSans" font-size="10.00">Kitware.VTK.vtkLongArray</text>
</a>
</g>
<!-- Node5&#45;&gt;Node16 -->
<g id="edge30" class="edge"><title>Node5&#45;&gt;Node16</title>
<path fill="none" stroke="midnightblue" d="M699.77,-287.692C731.304,-292.902 768.073,-298.977 798.328,-303.976"/>
<polygon fill="midnightblue" stroke="midnightblue" points="700.167,-284.211 689.731,-286.034 699.026,-291.117 700.167,-284.211"/>
</g>
<!-- Node17 -->
<g id="node33" class="node"><title>Node17</title>
<a xlink:href="class_kitware_1_1_v_t_k_1_1vtk_long_long_array.html" target="_top" xlink:title="vtkLongLongArray &#45; dynamic, self&#45;adjusting array of long long">
<polygon fill="none" stroke="black" points="778.5,-266 778.5,-286 939.5,-286 939.5,-266 778.5,-266"/>
<text text-anchor="middle" x="859" y="-273" font-family="FreeSans" font-size="10.00">Kitware.VTK.vtkLongLongArray</text>
</a>
</g>
<!-- Node5&#45;&gt;Node17 -->
<g id="edge32" class="edge"><title>Node5&#45;&gt;Node17</title>
<path fill="none" stroke="midnightblue" d="M708.251,-276C730.89,-276 755.582,-276 778.307,-276"/>
<polygon fill="midnightblue" stroke="midnightblue" points="708.008,-272.5 698.008,-276 708.008,-279.5 708.008,-272.5"/>
</g>
<!-- Node19 -->
<g id="node37" class="node"><title>Node19</title>
<a xlink:href="class_kitware_1_1_v_t_k_1_1vtk_short_array.html" target="_top" xlink:title="vtkShortArray &#45; dynamic, self&#45;adjusting array of short">
<polygon fill="none" stroke="black" points="788.5,-228 788.5,-248 929.5,-248 929.5,-228 788.5,-228"/>
<text text-anchor="middle" x="859" y="-235" font-family="FreeSans" font-size="10.00">Kitware.VTK.vtkShortArray</text>
</a>
</g>
<!-- Node5&#45;&gt;Node19 -->
<g id="edge36" class="edge"><title>Node5&#45;&gt;Node19</title>
<path fill="none" stroke="midnightblue" d="M699.77,-264.308C731.304,-259.098 768.073,-253.023 798.328,-248.024"/>
<polygon fill="midnightblue" stroke="midnightblue" points="699.026,-260.883 689.731,-265.966 700.167,-267.789 699.026,-260.883"/>
</g>
<!-- Node21 -->
<g id="node41" class="node"><title>Node21</title>
<a xlink:href="class_kitware_1_1_v_t_k_1_1vtk_signed_char_array.html" target="_top" xlink:title="vtkSignedCharArray &#45; dynamic, self&#45;adjusting array of signed char">
<polygon fill="none" stroke="black" points="774,-190 774,-210 944,-210 944,-190 774,-190"/>
<text text-anchor="middle" x="859" y="-197" font-family="FreeSans" font-size="10.00">Kitware.VTK.vtkSignedCharArray</text>
</a>
</g>
<!-- Node5&#45;&gt;Node21 -->
<g id="edge40" class="edge"><title>Node5&#45;&gt;Node21</title>
<path fill="none" stroke="midnightblue" d="M707.698,-262.827C711.957,-261.116 716.089,-259.183 720,-257 740.314,-245.661 735.555,-230.101 756,-219 762.632,-215.399 769.82,-212.467 777.21,-210.08"/>
<polygon fill="midnightblue" stroke="midnightblue" points="706.437,-259.561 698.205,-266.232 708.8,-266.15 706.437,-259.561"/>
</g>
<!-- Node22 -->
<g id="node43" class="node"><title>Node22</title>
<a xlink:href="class_kitware_1_1_v_t_k_1_1vtk_unsigned_char_array.html" target="_top" xlink:title="vtkUnsignedCharArray &#45; dynamic, self&#45;adjusting array of unsigned char">
<polygon fill="none" stroke="black" points="768,-152 768,-172 950,-172 950,-152 768,-152"/>
<text text-anchor="middle" x="859" y="-159" font-family="FreeSans" font-size="10.00">Kitware.VTK.vtkUnsignedCharArray</text>
</a>
</g>
<!-- Node5&#45;&gt;Node22 -->
<g id="edge42" class="edge"><title>Node5&#45;&gt;Node22</title>
<path fill="none" stroke="midnightblue" d="M707.527,-264.787C711.956,-262.598 716.161,-260.024 720,-257 749.362,-233.874 726.369,-203.78 756,-181 760.613,-177.454 765.682,-174.497 771.021,-172.038"/>
<polygon fill="midnightblue" stroke="midnightblue" points="706.003,-261.631 698.165,-268.759 708.737,-268.076 706.003,-261.631"/>
</g>
<!-- Node24 -->
<g id="node47" class="node"><title>Node24</title>
<a xlink:href="class_kitware_1_1_v_t_k_1_1vtk_unsigned_int_array.html" target="_top" xlink:title="vtkUnsignedIntArray &#45; dynamic, self&#45;adjusting array of unsigned int">
<polygon fill="none" stroke="black" points="773,-114 773,-134 945,-134 945,-114 773,-114"/>
<text text-anchor="middle" x="859" y="-121" font-family="FreeSans" font-size="10.00">Kitware.VTK.vtkUnsignedIntArray</text>
</a>
</g>
<!-- Node5&#45;&gt;Node24 -->
<g id="edge46" class="edge"><title>Node5&#45;&gt;Node24</title>
<path fill="none" stroke="midnightblue" d="M707.775,-265.518C712.177,-263.156 716.305,-260.343 720,-257 759.402,-221.355 716.183,-178.181 756,-143 761.042,-138.545 766.778,-134.981 772.902,-132.144"/>
<polygon fill="midnightblue" stroke="midnightblue" points="706.072,-262.447 698.405,-269.759 708.959,-268.824 706.072,-262.447"/>
</g>
<!-- Node26 -->
<g id="node51" class="node"><title>Node26</title>
<a xlink:href="class_kitware_1_1_v_t_k_1_1vtk_unsigned_long_array.html" target="_top" xlink:title="vtkUnsignedLongArray &#45; dynamic, self&#45;adjusting array of unsigned long">
<polygon fill="none" stroke="black" points="767.5,-76 767.5,-96 950.5,-96 950.5,-76 767.5,-76"/>
<text text-anchor="middle" x="859" y="-83" font-family="FreeSans" font-size="10.00">Kitware.VTK.vtkUnsignedLongArray</text>
</a>
</g>
<!-- Node5&#45;&gt;Node26 -->
<g id="edge50" class="edge"><title>Node5&#45;&gt;Node26</title>
<path fill="none" stroke="midnightblue" d="M707.465,-266.161C712.025,-263.657 716.265,-260.636 720,-257 769.742,-208.57 705.694,-152.844 756,-105 759.689,-101.491 763.804,-98.5227 768.206,-96.0182"/>
<polygon fill="midnightblue" stroke="midnightblue" points="705.968,-262.997 698.352,-270.362 708.899,-269.353 705.968,-262.997"/>
</g>
<!-- Node27 -->
<g id="node53" class="node"><title>Node27</title>
<a xlink:href="class_kitware_1_1_v_t_k_1_1vtk_unsigned_long_long_array.html" target="_top" xlink:title="vtkUnsignedLongLongArray &#45; dynamic, self&#45;adjusting array of unsigned long long">
<polygon fill="none" stroke="black" points="756,-38 756,-58 962,-58 962,-38 756,-38"/>
<text text-anchor="middle" x="859" y="-45" font-family="FreeSans" font-size="10.00">Kitware.VTK.vtkUnsignedLongLongArray</text>
</a>
</g>
<!-- Node5&#45;&gt;Node27 -->
<g id="edge52" class="edge"><title>Node5&#45;&gt;Node27</title>
<path fill="none" stroke="midnightblue" d="M707.4,-266.496C712.012,-263.92 716.28,-260.79 720,-257 780.206,-195.664 695.08,-127.626 756,-67 759.48,-63.5368 763.372,-60.5928 767.549,-58.0969"/>
<polygon fill="midnightblue" stroke="midnightblue" points="705.747,-263.405 698.158,-270.797 708.701,-269.751 705.747,-263.405"/>
</g>
<!-- Node29 -->
<g id="node57" class="node"><title>Node29</title>
<a xlink:href="class_kitware_1_1_v_t_k_1_1vtk_unsigned_short_array.html" target="_top" xlink:title="vtkUnsignedShortArray &#45; dynamic, self&#45;adjusting array of unsigned short">
<polygon fill="none" stroke="black" points="766,-0 766,-20 952,-20 952,-0 766,-0"/>
<text text-anchor="middle" x="859" y="-7" font-family="FreeSans" font-size="10.00">Kitware.VTK.vtkUnsignedShortArray</text>
</a>
</g>
<!-- Node5&#45;&gt;Node29 -->
<g id="edge56" class="edge"><title>Node5&#45;&gt;Node29</title>
<path fill="none" stroke="midnightblue" d="M707.533,-266.625C712.114,-264.018 716.338,-260.847 720,-257 790.734,-182.695 684.401,-102.471 756,-29 759.3,-25.6141 762.991,-22.72 766.962,-20.2527"/>
<polygon fill="midnightblue" stroke="midnightblue" points="705.883,-263.533 698.337,-270.97 708.874,-269.862 705.883,-263.533"/>
</g>
<!-- Node8 -->
<g id="node15" class="node"><title>Node8</title>
<a xlink:href="class_kitware_1_1_v_t_k_1_1vtk_type_int8_array.html" target="_top" xlink:title="vtkTypeInt8Array &#45; dynamic, self&#45;adjusting array of vtkTypeInt8">
<polygon fill="none" stroke="black" points="1007,-494 1007,-514 1161,-514 1161,-494 1007,-494"/>
<text text-anchor="middle" x="1084" y="-501" font-family="FreeSans" font-size="10.00">Kitware.VTK.vtkTypeInt8Array</text>
</a>
</g>
<!-- Node7&#45;&gt;Node8 -->
<g id="edge14" class="edge"><title>Node7&#45;&gt;Node8</title>
<path fill="none" stroke="midnightblue" d="M937.834,-504C960.153,-504 984.42,-504 1006.65,-504"/>
<polygon fill="midnightblue" stroke="midnightblue" points="937.73,-500.5 927.73,-504 937.73,-507.5 937.73,-500.5"/>
</g>
<!-- Node10 -->
<g id="node19" class="node"><title>Node10</title>
<a xlink:href="class_kitware_1_1_v_t_k_1_1vtk_type_float64_array.html" target="_top" xlink:title="vtkTypeFloat64Array &#45; dynamic, self&#45;adjusting array of vtkTypeFloat64">
<polygon fill="none" stroke="black" points="998.5,-456 998.5,-476 1169.5,-476 1169.5,-456 998.5,-456"/>
<text text-anchor="middle" x="1084" y="-463" font-family="FreeSans" font-size="10.00">Kitware.VTK.vtkTypeFloat64Array</text>
</a>
</g>
<!-- Node9&#45;&gt;Node10 -->
<g id="edge18" class="edge"><title>Node9&#45;&gt;Node10</title>
<path fill="none" stroke="midnightblue" d="M943.951,-466C961.733,-466 980.493,-466 998.302,-466"/>
<polygon fill="midnightblue" stroke="midnightblue" points="943.609,-462.5 933.609,-466 943.609,-469.5 943.609,-462.5"/>
</g>
<!-- Node12 -->
<g id="node23" class="node"><title>Node12</title>
<a xlink:href="class_kitware_1_1_v_t_k_1_1vtk_type_float32_array.html" target="_top" xlink:title="vtkTypeFloat32Array &#45; dynamic, self&#45;adjusting array of vtkTypeFloat32">
<polygon fill="none" stroke="black" points="998.5,-418 998.5,-438 1169.5,-438 1169.5,-418 998.5,-418"/>
<text text-anchor="middle" x="1084" y="-425" font-family="FreeSans" font-size="10.00">Kitware.VTK.vtkTypeFloat32Array</text>
</a>
</g>
<!-- Node11&#45;&gt;Node12 -->
<g id="edge22" class="edge"><title>Node11&#45;&gt;Node12</title>
<path fill="none" stroke="midnightblue" d="M938.093,-428C957.609,-428 978.6,-428 998.408,-428"/>
<polygon fill="midnightblue" stroke="midnightblue" points="938.037,-424.5 928.037,-428 938.036,-431.5 938.037,-424.5"/>
</g>
<!-- Node15 -->
<g id="node29" class="node"><title>Node15</title>
<a xlink:href="class_kitware_1_1_v_t_k_1_1vtk_type_int32_array.html" target="_top" xlink:title="vtkTypeInt32Array &#45; dynamic, self&#45;adjusting array of vtkTypeInt32">
<polygon fill="none" stroke="black" points="1004,-342 1004,-362 1164,-362 1164,-342 1004,-342"/>
<text text-anchor="middle" x="1084" y="-349" font-family="FreeSans" font-size="10.00">Kitware.VTK.vtkTypeInt32Array</text>
</a>
</g>
<!-- Node14&#45;&gt;Node15 -->
<g id="edge28" class="edge"><title>Node14&#45;&gt;Node15</title>
<path fill="none" stroke="midnightblue" d="M932.818,-352C955.516,-352 980.605,-352 1003.71,-352"/>
<polygon fill="midnightblue" stroke="midnightblue" points="932.574,-348.5 922.574,-352 932.574,-355.5 932.574,-348.5"/>
</g>
<!-- Node18 -->
<g id="node35" class="node"><title>Node18</title>
<a xlink:href="class_kitware_1_1_v_t_k_1_1vtk_type_int64_array.html" target="_top" xlink:title="vtkTypeInt64Array &#45; dynamic, self&#45;adjusting array of vtkTypeInt64">
<polygon fill="none" stroke="black" points="1004,-266 1004,-286 1164,-286 1164,-266 1004,-266"/>
<text text-anchor="middle" x="1084" y="-273" font-family="FreeSans" font-size="10.00">Kitware.VTK.vtkTypeInt64Array</text>
</a>
</g>
<!-- Node17&#45;&gt;Node18 -->
<g id="edge34" class="edge"><title>Node17&#45;&gt;Node18</title>
<path fill="none" stroke="midnightblue" d="M949.762,-276C967.704,-276 986.413,-276 1003.97,-276"/>
<polygon fill="midnightblue" stroke="midnightblue" points="949.595,-272.5 939.595,-276 949.595,-279.5 949.595,-272.5"/>
</g>
<!-- Node20 -->
<g id="node39" class="node"><title>Node20</title>
<a xlink:href="class_kitware_1_1_v_t_k_1_1vtk_type_int16_array.html" target="_top" xlink:title="vtkTypeInt16Array &#45; dynamic, self&#45;adjusting array of vtkTypeInt16">
<polygon fill="none" stroke="black" points="1004,-228 1004,-248 1164,-248 1164,-228 1004,-228"/>
<text text-anchor="middle" x="1084" y="-235" font-family="FreeSans" font-size="10.00">Kitware.VTK.vtkTypeInt16Array</text>
</a>
</g>
<!-- Node19&#45;&gt;Node20 -->
<g id="edge38" class="edge"><title>Node19&#45;&gt;Node20</title>
<path fill="none" stroke="midnightblue" d="M939.68,-238C960.555,-238 983.023,-238 1003.87,-238"/>
<polygon fill="midnightblue" stroke="midnightblue" points="939.574,-234.5 929.574,-238 939.574,-241.5 939.574,-234.5"/>
</g>
<!-- Node23 -->
<g id="node45" class="node"><title>Node23</title>
<a xlink:href="class_kitware_1_1_v_t_k_1_1vtk_type_u_int8_array.html" target="_top" xlink:title="vtkTypeUInt8Array &#45; dynamic, self&#45;adjusting array of vtkTypeUInt8">
<polygon fill="none" stroke="black" points="1003.5,-152 1003.5,-172 1164.5,-172 1164.5,-152 1003.5,-152"/>
<text text-anchor="middle" x="1084" y="-159" font-family="FreeSans" font-size="10.00">Kitware.VTK.vtkTypeUInt8Array</text>
</a>
</g>
<!-- Node22&#45;&gt;Node23 -->
<g id="edge44" class="edge"><title>Node22&#45;&gt;Node23</title>
<path fill="none" stroke="midnightblue" d="M960.539,-162C974.825,-162 989.348,-162 1003.18,-162"/>
<polygon fill="midnightblue" stroke="midnightblue" points="960.192,-158.5 950.192,-162 960.192,-165.5 960.192,-158.5"/>
</g>
<!-- Node25 -->
<g id="node49" class="node"><title>Node25</title>
<a xlink:href="class_kitware_1_1_v_t_k_1_1vtk_type_u_int32_array.html" target="_top" xlink:title="vtkTypeUInt32Array &#45; dynamic, self&#45;adjusting array of vtkTypeUInt32">
<polygon fill="none" stroke="black" points="1000.5,-114 1000.5,-134 1167.5,-134 1167.5,-114 1000.5,-114"/>
<text text-anchor="middle" x="1084" y="-121" font-family="FreeSans" font-size="10.00">Kitware.VTK.vtkTypeUInt32Array</text>
</a>
</g>
<!-- Node24&#45;&gt;Node25 -->
<g id="edge48" class="edge"><title>Node24&#45;&gt;Node25</title>
<path fill="none" stroke="midnightblue" d="M955.303,-124C970.258,-124 985.602,-124 1000.25,-124"/>
<polygon fill="midnightblue" stroke="midnightblue" points="955.026,-120.5 945.026,-124 955.026,-127.5 955.026,-120.5"/>
</g>
<!-- Node28 -->
<g id="node55" class="node"><title>Node28</title>
<a xlink:href="class_kitware_1_1_v_t_k_1_1vtk_type_u_int64_array.html" target="_top" xlink:title="vtkTypeUInt64Array &#45; dynamic, self&#45;adjusting array of vtkTypeUInt64">
<polygon fill="none" stroke="black" points="1000.5,-38 1000.5,-58 1167.5,-58 1167.5,-38 1000.5,-38"/>
<text text-anchor="middle" x="1084" y="-45" font-family="FreeSans" font-size="10.00">Kitware.VTK.vtkTypeUInt64Array</text>
</a>
</g>
<!-- Node27&#45;&gt;Node28 -->
<g id="edge54" class="edge"><title>Node27&#45;&gt;Node28</title>
<path fill="none" stroke="midnightblue" d="M972.428,-48C981.788,-48 991.14,-48 1000.22,-48"/>
<polygon fill="midnightblue" stroke="midnightblue" points="972.281,-44.5001 962.281,-48 972.281,-51.5001 972.281,-44.5001"/>
</g>
<!-- Node30 -->
<g id="node59" class="node"><title>Node30</title>
<a xlink:href="class_kitware_1_1_v_t_k_1_1vtk_type_u_int16_array.html" target="_top" xlink:title="vtkTypeUInt16Array &#45; dynamic, self&#45;adjusting array of vtkTypeUInt16">
<polygon fill="none" stroke="black" points="1000.5,-0 1000.5,-20 1167.5,-20 1167.5,-0 1000.5,-0"/>
<text text-anchor="middle" x="1084" y="-7" font-family="FreeSans" font-size="10.00">Kitware.VTK.vtkTypeUInt16Array</text>
</a>
</g>
<!-- Node29&#45;&gt;Node30 -->
<g id="edge58" class="edge"><title>Node29&#45;&gt;Node30</title>
<path fill="none" stroke="midnightblue" d="M962.298,-10C975.021,-10 987.903,-10 1000.29,-10"/>
<polygon fill="midnightblue" stroke="midnightblue" points="962.14,-6.5001 952.14,-10 962.14,-13.5001 962.14,-6.5001"/>
</g>
</g>
</svg>
