<?xml version="1.0" encoding="UTF-8" standalone="no"?>
<!DOCTYPE svg PUBLIC "-//W3C//DTD SVG 1.1//EN"
 "http://www.w3.org/Graphics/SVG/1.1/DTD/svg11.dtd">
<!-- Generated by graphviz version 2.26.3 (20100126.1600)
 -->
<!-- Title: G Pages: 1 -->
<svg width="120pt" height="320pt"
 viewBox="0.00 0.00 120.00 320.00" xmlns="http://www.w3.org/2000/svg" xmlns:xlink="http://www.w3.org/1999/xlink">
<g id="graph1" class="graph" transform="scale(1 1) rotate(0) translate(4 316)">
<title>G</title>
<!-- Node1 -->
<g id="node1" class="node"><title>Node1</title>
<polygon fill="#bfbfbf" stroke="black" points="-0.5,-1 -0.5,-21 112.5,-21 112.5,-1 -0.5,-1"/>
<text text-anchor="middle" x="56" y="-8" font-family="FreeSans" font-size="10.00">Kitware.VTK.vtkTetra</text>
</g>
<!-- Node2 -->
<g id="node2" class="node"><title>Node2</title>
<a xlink:href="class_kitware_1_1_v_t_k_1_1vtk_cell3_d.html" target="_top" xlink:title="vtkCell3D &#45; abstract class to specify 3D cell interface">
<polygon fill="none" stroke="black" points="25,-59 25,-79 87,-79 87,-59 25,-59"/>
<text text-anchor="middle" x="56" y="-66" font-family="FreeSans" font-size="10.00">vtkCell3D</text>
</a>
</g>
<!-- Node2&#45;&gt;Node1 -->
<g id="edge2" class="edge"><title>Node2&#45;&gt;Node1</title>
<path fill="none" stroke="midnightblue" d="M56,-48.8902C56,-39.6201 56,-29.0083 56,-21.3776"/>
<polygon fill="midnightblue" stroke="midnightblue" points="52.5001,-48.8971 56,-58.8972 59.5001,-48.8972 52.5001,-48.8971"/>
</g>
<!-- Node3 -->
<g id="node4" class="node"><title>Node3</title>
<a xlink:href="class_kitware_1_1_v_t_k_1_1vtk_cell.html" target="_top" xlink:title="vtkCell &#45; abstract class to specify cell behavior">
<polygon fill="none" stroke="black" points="32,-117 32,-137 80,-137 80,-117 32,-117"/>
<text text-anchor="middle" x="56" y="-124" font-family="FreeSans" font-size="10.00">vtkCell</text>
</a>
</g>
<!-- Node3&#45;&gt;Node2 -->
<g id="edge4" class="edge"><title>Node3&#45;&gt;Node2</title>
<path fill="none" stroke="midnightblue" d="M56,-106.89C56,-97.6201 56,-87.0083 56,-79.3776"/>
<polygon fill="midnightblue" stroke="midnightblue" points="52.5001,-106.897 56,-116.897 59.5001,-106.897 52.5001,-106.897"/>
</g>
<!-- Node4 -->
<g id="node6" class="node"><title>Node4</title>
<a xlink:href="class_kitware_1_1_v_t_k_1_1vtk_object.html" target="_top" xlink:title="vtkObject &#45; abstract base class for most VTK objects">
<polygon fill="none" stroke="black" points="25,-175 25,-195 87,-195 87,-175 25,-175"/>
<text text-anchor="middle" x="56" y="-182" font-family="FreeSans" font-size="10.00">vtkObject</text>
</a>
</g>
<!-- Node4&#45;&gt;Node3 -->
<g id="edge6" class="edge"><title>Node4&#45;&gt;Node3</title>
<path fill="none" stroke="midnightblue" d="M56,-164.89C56,-155.62 56,-145.008 56,-137.378"/>
<polygon fill="midnightblue" stroke="midnightblue" points="52.5001,-164.897 56,-174.897 59.5001,-164.897 52.5001,-164.897"/>
</g>
<!-- Node5 -->
<g id="node8" class="node"><title>Node5</title>
<a xlink:href="class_kitware_1_1_v_t_k_1_1vtk_object_base.html" target="_top" xlink:title="vtkObjectBase &#45; abstract base class for most VTK objects">
<polygon fill="none" stroke="black" points="13,-233 13,-253 99,-253 99,-233 13,-233"/>
<text text-anchor="middle" x="56" y="-240" font-family="FreeSans" font-size="10.00">vtkObjectBase</text>
</a>
</g>
<!-- Node5&#45;&gt;Node4 -->
<g id="edge8" class="edge"><title>Node5&#45;&gt;Node4</title>
<path fill="none" stroke="midnightblue" d="M56,-222.89C56,-213.62 56,-203.008 56,-195.378"/>
<polygon fill="midnightblue" stroke="midnightblue" points="52.5001,-222.897 56,-232.897 59.5001,-222.897 52.5001,-222.897"/>
</g>
<!-- Node6 -->
<g id="node10" class="node"><title>Node6</title>
<a xlink:href="class_kitware_1_1_v_t_k_1_1_wrapped_object.html" target="_top" xlink:title="Base class for all the mummy wrapped classes in Kitware.VTK.">
<polygon fill="none" stroke="black" points="11.5,-291 11.5,-311 100.5,-311 100.5,-291 11.5,-291"/>
<text text-anchor="middle" x="56" y="-298" font-family="FreeSans" font-size="10.00">WrappedObject</text>
</a>
</g>
<!-- Node6&#45;&gt;Node5 -->
<g id="edge10" class="edge"><title>Node6&#45;&gt;Node5</title>
<path fill="none" stroke="midnightblue" d="M56,-280.89C56,-271.62 56,-261.008 56,-253.378"/>
<polygon fill="midnightblue" stroke="midnightblue" points="52.5001,-280.897 56,-290.897 59.5001,-280.897 52.5001,-280.897"/>
</g>
</g>
</svg>
