<?xml version="1.0" encoding="UTF-8" standalone="no"?>
<!DOCTYPE svg PUBLIC "-//W3C//DTD SVG 1.1//EN"
 "http://www.w3.org/Graphics/SVG/1.1/DTD/svg11.dtd">
<!-- Generated by graphviz version 2.26.3 (20100126.1600)
 -->
<!-- Title: G Pages: 1 -->
<svg width="422pt" height="378pt"
 viewBox="0.00 0.00 422.00 378.00" xmlns="http://www.w3.org/2000/svg" xmlns:xlink="http://www.w3.org/1999/xlink">
<g id="graph1" class="graph" transform="scale(1 1) rotate(0) translate(4 374)">
<title>G</title>
<!-- Node1 -->
<g id="node1" class="node"><title>Node1</title>
<polygon fill="#bfbfbf" stroke="black" points="86.5,-59 86.5,-79 307.5,-79 307.5,-59 86.5,-59"/>
<text text-anchor="middle" x="197" y="-66" font-family="FreeSans" font-size="10.00">Kitware.VTK.vtkXMLUnstructuredDataWriter</text>
</g>
<!-- Node7 -->
<g id="node13" class="node"><title>Node7</title>
<a xlink:href="class_kitware_1_1_v_t_k_1_1vtk_x_m_l_poly_data_writer.html" target="_top" xlink:title="vtkXMLPolyDataWriter &#45; Write VTK XML PolyData files.">
<polygon fill="none" stroke="black" points="-0.5,-1 -0.5,-21 178.5,-21 178.5,-1 -0.5,-1"/>
<text text-anchor="middle" x="89" y="-8" font-family="FreeSans" font-size="10.00">Kitware.VTK.vtkXMLPolyDataWriter</text>
</a>
</g>
<!-- Node1&#45;&gt;Node7 -->
<g id="edge12" class="edge"><title>Node1&#45;&gt;Node7</title>
<path fill="none" stroke="midnightblue" d="M169.281,-54.1138C150.05,-43.7859 124.937,-30.2996 107.959,-21.1817"/>
<polygon fill="midnightblue" stroke="midnightblue" points="167.722,-57.2493 178.188,-58.8972 171.034,-51.0824 167.722,-57.2493"/>
</g>
<!-- Node8 -->
<g id="node15" class="node"><title>Node8</title>
<a xlink:href="class_kitware_1_1_v_t_k_1_1vtk_x_m_l_unstructured_grid_writer.html" target="_top" xlink:title="vtkXMLUnstructuredGridWriter &#45; Write VTK XML UnstructuredGrid files.">
<polygon fill="none" stroke="black" points="196,-1 196,-21 414,-21 414,-1 196,-1"/>
<text text-anchor="middle" x="305" y="-8" font-family="FreeSans" font-size="10.00">Kitware.VTK.vtkXMLUnstructuredGridWriter</text>
</a>
</g>
<!-- Node1&#45;&gt;Node8 -->
<g id="edge14" class="edge"><title>Node1&#45;&gt;Node8</title>
<path fill="none" stroke="midnightblue" d="M224.719,-54.1138C243.95,-43.7859 269.063,-30.2996 286.041,-21.1817"/>
<polygon fill="midnightblue" stroke="midnightblue" points="222.966,-51.0824 215.812,-58.8972 226.278,-57.2493 222.966,-51.0824"/>
</g>
<!-- Node2 -->
<g id="node2" class="node"><title>Node2</title>
<a xlink:href="class_kitware_1_1_v_t_k_1_1vtk_x_m_l_writer.html" target="_top" xlink:title="vtkXMLWriter &#45; Superclass for VTK&#39;s XML file writers.">
<polygon fill="none" stroke="black" points="158.5,-117 158.5,-137 235.5,-137 235.5,-117 158.5,-117"/>
<text text-anchor="middle" x="197" y="-124" font-family="FreeSans" font-size="10.00">vtkXMLWriter</text>
</a>
</g>
<!-- Node2&#45;&gt;Node1 -->
<g id="edge2" class="edge"><title>Node2&#45;&gt;Node1</title>
<path fill="none" stroke="midnightblue" d="M197,-106.89C197,-97.6201 197,-87.0083 197,-79.3776"/>
<polygon fill="midnightblue" stroke="midnightblue" points="193.5,-106.897 197,-116.897 200.5,-106.897 193.5,-106.897"/>
</g>
<!-- Node3 -->
<g id="node4" class="node"><title>Node3</title>
<a xlink:href="class_kitware_1_1_v_t_k_1_1vtk_algorithm.html" target="_top" xlink:title="vtkAlgorithm &#45; Superclass for all sources, filters, and sinks in VTK.">
<polygon fill="none" stroke="black" points="158.5,-175 158.5,-195 235.5,-195 235.5,-175 158.5,-175"/>
<text text-anchor="middle" x="197" y="-182" font-family="FreeSans" font-size="10.00">vtkAlgorithm</text>
</a>
</g>
<!-- Node3&#45;&gt;Node2 -->
<g id="edge4" class="edge"><title>Node3&#45;&gt;Node2</title>
<path fill="none" stroke="midnightblue" d="M197,-164.89C197,-155.62 197,-145.008 197,-137.378"/>
<polygon fill="midnightblue" stroke="midnightblue" points="193.5,-164.897 197,-174.897 200.5,-164.897 193.5,-164.897"/>
</g>
<!-- Node4 -->
<g id="node6" class="node"><title>Node4</title>
<a xlink:href="class_kitware_1_1_v_t_k_1_1vtk_object.html" target="_top" xlink:title="vtkObject &#45; abstract base class for most VTK objects">
<polygon fill="none" stroke="black" points="166,-233 166,-253 228,-253 228,-233 166,-233"/>
<text text-anchor="middle" x="197" y="-240" font-family="FreeSans" font-size="10.00">vtkObject</text>
</a>
</g>
<!-- Node4&#45;&gt;Node3 -->
<g id="edge6" class="edge"><title>Node4&#45;&gt;Node3</title>
<path fill="none" stroke="midnightblue" d="M197,-222.89C197,-213.62 197,-203.008 197,-195.378"/>
<polygon fill="midnightblue" stroke="midnightblue" points="193.5,-222.897 197,-232.897 200.5,-222.897 193.5,-222.897"/>
</g>
<!-- Node5 -->
<g id="node8" class="node"><title>Node5</title>
<a xlink:href="class_kitware_1_1_v_t_k_1_1vtk_object_base.html" target="_top" xlink:title="vtkObjectBase &#45; abstract base class for most VTK objects">
<polygon fill="none" stroke="black" points="154,-291 154,-311 240,-311 240,-291 154,-291"/>
<text text-anchor="middle" x="197" y="-298" font-family="FreeSans" font-size="10.00">vtkObjectBase</text>
</a>
</g>
<!-- Node5&#45;&gt;Node4 -->
<g id="edge8" class="edge"><title>Node5&#45;&gt;Node4</title>
<path fill="none" stroke="midnightblue" d="M197,-280.89C197,-271.62 197,-261.008 197,-253.378"/>
<polygon fill="midnightblue" stroke="midnightblue" points="193.5,-280.897 197,-290.897 200.5,-280.897 193.5,-280.897"/>
</g>
<!-- Node6 -->
<g id="node10" class="node"><title>Node6</title>
<a xlink:href="class_kitware_1_1_v_t_k_1_1_wrapped_object.html" target="_top" xlink:title="Base class for all the mummy wrapped classes in Kitware.VTK.">
<polygon fill="none" stroke="black" points="152.5,-349 152.5,-369 241.5,-369 241.5,-349 152.5,-349"/>
<text text-anchor="middle" x="197" y="-356" font-family="FreeSans" font-size="10.00">WrappedObject</text>
</a>
</g>
<!-- Node6&#45;&gt;Node5 -->
<g id="edge10" class="edge"><title>Node6&#45;&gt;Node5</title>
<path fill="none" stroke="midnightblue" d="M197,-338.89C197,-329.62 197,-319.008 197,-311.378"/>
<polygon fill="midnightblue" stroke="midnightblue" points="193.5,-338.897 197,-348.897 200.5,-338.897 193.5,-338.897"/>
</g>
</g>
</svg>
