<?xml version="1.0" encoding="UTF-8" standalone="no"?>
<!DOCTYPE svg PUBLIC "-//W3C//DTD SVG 1.1//EN"
 "http://www.w3.org/Graphics/SVG/1.1/DTD/svg11.dtd">
<!-- Generated by graphviz version 2.26.3 (20100126.1600)
 -->
<!-- Title: G Pages: 1 -->
<svg width="1532pt" height="446pt"
 viewBox="0.00 0.00 1532.00 446.00" xmlns="http://www.w3.org/2000/svg" xmlns:xlink="http://www.w3.org/1999/xlink">
<g id="graph1" class="graph" transform="scale(1 1) rotate(0) translate(4 442)">
<title>G</title>
<!-- Node1 -->
<g id="node1" class="node"><title>Node1</title>
<polygon fill="#bfbfbf" stroke="black" points="460,-190 460,-210 576,-210 576,-190 460,-190"/>
<text text-anchor="middle" x="518" y="-197" font-family="FreeSans" font-size="10.00">Kitware.VTK.vtkWriter</text>
</g>
<!-- Node6 -->
<g id="node11" class="node"><title>Node6</title>
<a xlink:href="class_kitware_1_1_v_t_k_1_1vtk_abstract_particle_writer.html" target="_top" xlink:title="vtkAbstractParticleWriter &#45; abstract class to write particle data to file">
<polygon fill="none" stroke="black" points="612.5,-323 612.5,-343 803.5,-343 803.5,-323 612.5,-323"/>
<text text-anchor="middle" x="708" y="-330" font-family="FreeSans" font-size="10.00">Kitware.VTK.vtkAbstractParticleWriter</text>
</a>
</g>
<!-- Node1&#45;&gt;Node6 -->
<g id="edge10" class="edge"><title>Node1&#45;&gt;Node6</title>
<path fill="none" stroke="midnightblue" d="M528.107,-219.067C542.888,-244.959 572.942,-290.676 612,-314 617.981,-317.571 624.508,-320.486 631.254,-322.863"/>
<polygon fill="midnightblue" stroke="midnightblue" points="531.106,-217.259 523.203,-210.203 524.981,-220.647 531.106,-217.259"/>
</g>
<!-- Node7 -->
<g id="node13" class="node"><title>Node7</title>
<a xlink:href="class_kitware_1_1_v_t_k_1_1vtk_array_writer.html" target="_top" xlink:title="vtkArrayWriter &#45; Serialize sparse and dense arrays to a file or stream.">
<polygon fill="none" stroke="black" points="637,-285 637,-305 779,-305 779,-285 637,-285"/>
<text text-anchor="middle" x="708" y="-292" font-family="FreeSans" font-size="10.00">Kitware.VTK.vtkArrayWriter</text>
</a>
</g>
<!-- Node1&#45;&gt;Node7 -->
<g id="edge12" class="edge"><title>Node1&#45;&gt;Node7</title>
<path fill="none" stroke="midnightblue" d="M534.487,-217.617C552,-235.215 581.34,-261.654 612,-276 619.771,-279.636 628.212,-282.577 636.756,-284.956"/>
<polygon fill="midnightblue" stroke="midnightblue" points="536.789,-214.964 527.311,-210.229 531.767,-219.841 536.789,-214.964"/>
</g>
<!-- Node8 -->
<g id="node15" class="node"><title>Node8</title>
<a xlink:href="class_kitware_1_1_v_t_k_1_1vtk_data_object_writer.html" target="_top" xlink:title="vtkDataObjectWriter &#45; write vtk field data">
<polygon fill="none" stroke="black" points="623,-247 623,-267 793,-267 793,-247 623,-247"/>
<text text-anchor="middle" x="708" y="-254" font-family="FreeSans" font-size="10.00">Kitware.VTK.vtkDataObjectWriter</text>
</a>
</g>
<!-- Node1&#45;&gt;Node8 -->
<g id="edge14" class="edge"><title>Node1&#45;&gt;Node8</title>
<path fill="none" stroke="midnightblue" d="M549.058,-214.281C567.126,-222.15 590.508,-231.592 612,-238 623.56,-241.447 636.092,-244.443 648.168,-246.974"/>
<polygon fill="midnightblue" stroke="midnightblue" points="550.174,-210.948 539.613,-210.101 547.341,-217.349 550.174,-210.948"/>
</g>
<!-- Node9 -->
<g id="node17" class="node"><title>Node9</title>
<a xlink:href="class_kitware_1_1_v_t_k_1_1vtk_data_writer.html" target="_top" xlink:title="vtkDataWriter &#45; helper class for objects that write vtk data files">
<polygon fill="none" stroke="black" points="638,-209 638,-229 778,-229 778,-209 638,-209"/>
<text text-anchor="middle" x="708" y="-216" font-family="FreeSans" font-size="10.00">Kitware.VTK.vtkDataWriter</text>
</a>
</g>
<!-- Node1&#45;&gt;Node9 -->
<g id="edge16" class="edge"><title>Node1&#45;&gt;Node9</title>
<path fill="none" stroke="midnightblue" d="M586.309,-206.831C603.089,-208.509 621.078,-210.308 637.938,-211.994"/>
<polygon fill="midnightblue" stroke="midnightblue" points="586.337,-203.316 576.039,-205.804 585.641,-210.282 586.337,-203.316"/>
</g>
<!-- Node35 -->
<g id="node69" class="node"><title>Node35</title>
<a xlink:href="class_kitware_1_1_v_t_k_1_1vtk_delimited_text_writer.html" target="_top" xlink:title="vtkDelimitedTextWriter &#45; Delimited text writer for vtkTable Writes a vtkTable as a delimited text fil...">
<polygon fill="none" stroke="black" points="617.5,-171 617.5,-191 798.5,-191 798.5,-171 617.5,-171"/>
<text text-anchor="middle" x="708" y="-178" font-family="FreeSans" font-size="10.00">Kitware.VTK.vtkDelimitedTextWriter</text>
</a>
</g>
<!-- Node1&#45;&gt;Node35 -->
<g id="edge68" class="edge"><title>Node1&#45;&gt;Node35</title>
<path fill="none" stroke="midnightblue" d="M586.049,-193.195C596.229,-192.177 606.86,-191.114 617.417,-190.058"/>
<polygon fill="midnightblue" stroke="midnightblue" points="585.641,-189.718 576.039,-194.196 586.337,-196.684 585.641,-189.718"/>
</g>
<!-- Node36 -->
<g id="node71" class="node"><title>Node36</title>
<a xlink:href="class_kitware_1_1_v_t_k_1_1vtk_en_sight_writer.html" target="_top" xlink:title="vtkEnSightWriter &#45; write vtk unstructured grid data as an EnSight file">
<polygon fill="none" stroke="black" points="631.5,-133 631.5,-153 784.5,-153 784.5,-133 631.5,-133"/>
<text text-anchor="middle" x="708" y="-140" font-family="FreeSans" font-size="10.00">Kitware.VTK.vtkEnSightWriter</text>
</a>
</g>
<!-- Node1&#45;&gt;Node36 -->
<g id="edge70" class="edge"><title>Node1&#45;&gt;Node36</title>
<path fill="none" stroke="midnightblue" d="M549.058,-185.719C567.126,-177.85 590.508,-168.408 612,-162 623.56,-158.553 636.092,-155.557 648.168,-153.026"/>
<polygon fill="midnightblue" stroke="midnightblue" points="547.341,-182.651 539.613,-189.899 550.174,-189.052 547.341,-182.651"/>
</g>
<!-- Node37 -->
<g id="node73" class="node"><title>Node37</title>
<a xlink:href="class_kitware_1_1_v_t_k_1_1vtk_exodus_i_i_writer.html" target="_top" xlink:title="vtkExodusIIWriter &#45; Write Exodus II files">
<polygon fill="none" stroke="black" points="630.5,-95 630.5,-115 785.5,-115 785.5,-95 630.5,-95"/>
<text text-anchor="middle" x="708" y="-102" font-family="FreeSans" font-size="10.00">Kitware.VTK.vtkExodusIIWriter</text>
</a>
</g>
<!-- Node1&#45;&gt;Node37 -->
<g id="edge72" class="edge"><title>Node1&#45;&gt;Node37</title>
<path fill="none" stroke="midnightblue" d="M534.487,-182.383C552,-164.785 581.34,-138.346 612,-124 619.771,-120.364 628.212,-117.423 636.756,-115.044"/>
<polygon fill="midnightblue" stroke="midnightblue" points="531.767,-180.159 527.311,-189.771 536.789,-185.036 531.767,-180.159"/>
</g>
<!-- Node38 -->
<g id="node75" class="node"><title>Node38</title>
<a xlink:href="class_kitware_1_1_v_t_k_1_1vtk_java_script_data_writer.html" target="_top" xlink:title="vtkJavaScriptDataWriter &#45; A Javascript data writer for vtkTable Writes a vtkTable into a Javascript d...">
<polygon fill="none" stroke="black" points="614.5,-57 614.5,-77 801.5,-77 801.5,-57 614.5,-57"/>
<text text-anchor="middle" x="708" y="-64" font-family="FreeSans" font-size="10.00">Kitware.VTK.vtkJavaScriptDataWriter</text>
</a>
</g>
<!-- Node1&#45;&gt;Node38 -->
<g id="edge74" class="edge"><title>Node1&#45;&gt;Node38</title>
<path fill="none" stroke="midnightblue" d="M528.107,-180.933C542.888,-155.041 572.942,-109.324 612,-86 617.981,-82.4286 624.508,-79.5138 631.254,-77.1369"/>
<polygon fill="midnightblue" stroke="midnightblue" points="524.981,-179.353 523.203,-189.797 531.106,-182.741 524.981,-179.353"/>
</g>
<!-- Node2 -->
<g id="node2" class="node"><title>Node2</title>
<a xlink:href="class_kitware_1_1_v_t_k_1_1vtk_algorithm.html" target="_top" xlink:title="vtkAlgorithm &#45; Superclass for all sources, filters, and sinks in VTK.">
<polygon fill="none" stroke="black" points="346.5,-190 346.5,-210 423.5,-210 423.5,-190 346.5,-190"/>
<text text-anchor="middle" x="385" y="-197" font-family="FreeSans" font-size="10.00">vtkAlgorithm</text>
</a>
</g>
<!-- Node2&#45;&gt;Node1 -->
<g id="edge2" class="edge"><title>Node2&#45;&gt;Node1</title>
<path fill="none" stroke="midnightblue" d="M434.09,-200C442.392,-200 451.082,-200 459.593,-200"/>
<polygon fill="midnightblue" stroke="midnightblue" points="433.827,-196.5 423.827,-200 433.827,-203.5 433.827,-196.5"/>
</g>
<!-- Node3 -->
<g id="node4" class="node"><title>Node3</title>
<a xlink:href="class_kitware_1_1_v_t_k_1_1vtk_object.html" target="_top" xlink:title="vtkObject &#45; abstract base class for most VTK objects">
<polygon fill="none" stroke="black" points="248,-190 248,-210 310,-210 310,-190 248,-190"/>
<text text-anchor="middle" x="279" y="-197" font-family="FreeSans" font-size="10.00">vtkObject</text>
</a>
</g>
<!-- Node3&#45;&gt;Node2 -->
<g id="edge4" class="edge"><title>Node3&#45;&gt;Node2</title>
<path fill="none" stroke="midnightblue" d="M320.421,-200C329.001,-200 338.007,-200 346.479,-200"/>
<polygon fill="midnightblue" stroke="midnightblue" points="320.23,-196.5 310.23,-200 320.23,-203.5 320.23,-196.5"/>
</g>
<!-- Node4 -->
<g id="node6" class="node"><title>Node4</title>
<a xlink:href="class_kitware_1_1_v_t_k_1_1vtk_object_base.html" target="_top" xlink:title="vtkObjectBase &#45; abstract base class for most VTK objects">
<polygon fill="none" stroke="black" points="126,-190 126,-210 212,-210 212,-190 126,-190"/>
<text text-anchor="middle" x="169" y="-197" font-family="FreeSans" font-size="10.00">vtkObjectBase</text>
</a>
</g>
<!-- Node4&#45;&gt;Node3 -->
<g id="edge6" class="edge"><title>Node4&#45;&gt;Node3</title>
<path fill="none" stroke="midnightblue" d="M222.346,-200C231.091,-200 239.892,-200 247.863,-200"/>
<polygon fill="midnightblue" stroke="midnightblue" points="222.159,-196.5 212.159,-200 222.159,-203.5 222.159,-196.5"/>
</g>
<!-- Node5 -->
<g id="node8" class="node"><title>Node5</title>
<a xlink:href="class_kitware_1_1_v_t_k_1_1_wrapped_object.html" target="_top" xlink:title="Base class for all the mummy wrapped classes in Kitware.VTK.">
<polygon fill="none" stroke="black" points="0.5,-190 0.5,-210 89.5,-210 89.5,-190 0.5,-190"/>
<text text-anchor="middle" x="45" y="-197" font-family="FreeSans" font-size="10.00">WrappedObject</text>
</a>
</g>
<!-- Node5&#45;&gt;Node4 -->
<g id="edge8" class="edge"><title>Node5&#45;&gt;Node4</title>
<path fill="none" stroke="midnightblue" d="M99.8895,-200C108.623,-200 117.548,-200 125.957,-200"/>
<polygon fill="midnightblue" stroke="midnightblue" points="99.7669,-196.5 89.7668,-200 99.7668,-203.5 99.7669,-196.5"/>
</g>
<!-- Node10 -->
<g id="node19" class="node"><title>Node10</title>
<a xlink:href="class_kitware_1_1_v_t_k_1_1vtk_composite_data_writer.html" target="_top" xlink:title="vtkCompositeDataWriter &#45; legacy VTK file writer for vtkCompositeDataSet subclasses.">
<polygon fill="none" stroke="black" points="848.5,-418 848.5,-438 1039.5,-438 1039.5,-418 848.5,-418"/>
<text text-anchor="middle" x="944" y="-425" font-family="FreeSans" font-size="10.00">Kitware.VTK.vtkCompositeDataWriter</text>
</a>
</g>
<!-- Node9&#45;&gt;Node10 -->
<g id="edge18" class="edge"><title>Node9&#45;&gt;Node10</title>
<path fill="none" stroke="midnightblue" d="M787.963,-226.836C793.86,-229.717 799.32,-233.377 804,-238 859.249,-292.585 784.351,-354.823 840,-409 843.551,-412.457 847.51,-415.396 851.751,-417.888"/>
<polygon fill="midnightblue" stroke="midnightblue" points="788.966,-223.465 778.385,-222.922 786.318,-229.945 788.966,-223.465"/>
</g>
<!-- Node11 -->
<g id="node21" class="node"><title>Node11</title>
<a xlink:href="class_kitware_1_1_v_t_k_1_1vtk_data_set_writer.html" target="_top" xlink:title="vtkDataSetWriter &#45; write any type of vtk dataset to file">
<polygon fill="none" stroke="black" points="866,-380 866,-400 1022,-400 1022,-380 866,-380"/>
<text text-anchor="middle" x="944" y="-387" font-family="FreeSans" font-size="10.00">Kitware.VTK.vtkDataSetWriter</text>
</a>
</g>
<!-- Node9&#45;&gt;Node11 -->
<g id="edge20" class="edge"><title>Node9&#45;&gt;Node11</title>
<path fill="none" stroke="midnightblue" d="M787.683,-227.127C793.64,-229.946 799.191,-233.512 804,-238 848.769,-279.784 794.925,-329.546 840,-371 847.363,-377.771 856.304,-382.521 865.818,-385.802"/>
<polygon fill="midnightblue" stroke="midnightblue" points="788.62,-223.733 778.034,-223.287 786.031,-230.237 788.62,-223.733"/>
</g>
<!-- Node14 -->
<g id="node27" class="node"><title>Node14</title>
<a xlink:href="class_kitware_1_1_v_t_k_1_1vtk_d_i_m_a_c_s_graph_writer.html" target="_top" xlink:title="vtkDIMACSGraphWriter &#45; write vtkGraph data to a DIMACS formatted file">
<polygon fill="none" stroke="black" points="852,-342 852,-362 1036,-362 1036,-342 852,-342"/>
<text text-anchor="middle" x="944" y="-349" font-family="FreeSans" font-size="10.00">Kitware.VTK.vtkDIMACSGraphWriter</text>
</a>
</g>
<!-- Node9&#45;&gt;Node14 -->
<g id="edge26" class="edge"><title>Node9&#45;&gt;Node14</title>
<path fill="none" stroke="midnightblue" d="M787.836,-227.925C793.663,-230.586 799.147,-233.896 804,-238 838.477,-267.156 805.31,-304.098 840,-333 844.23,-336.525 848.898,-339.484 853.841,-341.962"/>
<polygon fill="midnightblue" stroke="midnightblue" points="789.025,-224.632 778.437,-224.257 786.48,-231.153 789.025,-224.632"/>
</g>
<!-- Node15 -->
<g id="node29" class="node"><title>Node15</title>
<a xlink:href="class_kitware_1_1_v_t_k_1_1vtk_generic_data_object_writer.html" target="_top" xlink:title="vtkGenericDataObjectWriter &#45; writes any type of vtk data object to file">
<polygon fill="none" stroke="black" points="840.5,-304 840.5,-324 1047.5,-324 1047.5,-304 840.5,-304"/>
<text text-anchor="middle" x="944" y="-311" font-family="FreeSans" font-size="10.00">Kitware.VTK.vtkGenericDataObjectWriter</text>
</a>
</g>
<!-- Node9&#45;&gt;Node15 -->
<g id="edge28" class="edge"><title>Node9&#45;&gt;Node15</title>
<path fill="none" stroke="midnightblue" d="M788.033,-229.462C793.668,-231.798 799.064,-234.613 804,-238 828.705,-254.954 815.171,-278.228 840,-295 845.247,-298.545 850.969,-301.479 856.942,-303.903"/>
<polygon fill="midnightblue" stroke="midnightblue" points="788.956,-226.074 778.361,-225.967 786.577,-232.658 788.956,-226.074"/>
</g>
<!-- Node16 -->
<g id="node31" class="node"><title>Node16</title>
<a xlink:href="class_kitware_1_1_v_t_k_1_1vtk_graph_writer.html" target="_top" xlink:title="vtkGraphWriter &#45; write vtkGraph data to a file">
<polygon fill="none" stroke="black" points="871,-266 871,-286 1017,-286 1017,-266 871,-266"/>
<text text-anchor="middle" x="944" y="-273" font-family="FreeSans" font-size="10.00">Kitware.VTK.vtkGraphWriter</text>
</a>
</g>
<!-- Node9&#45;&gt;Node16 -->
<g id="edge30" class="edge"><title>Node9&#45;&gt;Node16</title>
<path fill="none" stroke="midnightblue" d="M782.07,-231.398C789.56,-233.323 796.985,-235.515 804,-238 821.053,-244.042 822.903,-251.083 840,-257 850.407,-260.601 861.649,-263.558 872.762,-265.975"/>
<polygon fill="midnightblue" stroke="midnightblue" points="782.759,-227.964 772.216,-229.019 781.116,-234.769 782.759,-227.964"/>
</g>
<!-- Node17 -->
<g id="node33" class="node"><title>Node17</title>
<a xlink:href="class_kitware_1_1_v_t_k_1_1vtk_poly_data_writer.html" target="_top" xlink:title="vtkPolyDataWriter &#45; write vtk polygonal data">
<polygon fill="none" stroke="black" points="864.5,-228 864.5,-248 1023.5,-248 1023.5,-228 864.5,-228"/>
<text text-anchor="middle" x="944" y="-235" font-family="FreeSans" font-size="10.00">Kitware.VTK.vtkPolyDataWriter</text>
</a>
</g>
<!-- Node9&#45;&gt;Node17 -->
<g id="edge32" class="edge"><title>Node9&#45;&gt;Node17</title>
<path fill="none" stroke="midnightblue" d="M788.156,-225.453C812.686,-227.428 839.656,-229.599 864.164,-231.573"/>
<polygon fill="midnightblue" stroke="midnightblue" points="788.417,-221.963 778.169,-224.649 787.856,-228.94 788.417,-221.963"/>
</g>
<!-- Node25 -->
<g id="node49" class="node"><title>Node25</title>
<a xlink:href="class_kitware_1_1_v_t_k_1_1vtk_rectilinear_grid_writer.html" target="_top" xlink:title="vtkRectilinearGridWriter &#45; write vtk rectilinear grid data file">
<polygon fill="none" stroke="black" points="851.5,-190 851.5,-210 1036.5,-210 1036.5,-190 851.5,-190"/>
<text text-anchor="middle" x="944" y="-197" font-family="FreeSans" font-size="10.00">Kitware.VTK.vtkRectilinearGridWriter</text>
</a>
</g>
<!-- Node9&#45;&gt;Node25 -->
<g id="edge48" class="edge"><title>Node9&#45;&gt;Node25</title>
<path fill="none" stroke="midnightblue" d="M788.294,-212.536C808.578,-210.903 830.523,-209.136 851.36,-207.458"/>
<polygon fill="midnightblue" stroke="midnightblue" points="787.856,-209.06 778.169,-213.351 788.417,-216.037 787.856,-209.06"/>
</g>
<!-- Node26 -->
<g id="node51" class="node"><title>Node26</title>
<a xlink:href="class_kitware_1_1_v_t_k_1_1vtk_structured_grid_writer.html" target="_top" xlink:title="vtkStructuredGridWriter &#45; write vtk structured grid data file">
<polygon fill="none" stroke="black" points="850.5,-152 850.5,-172 1037.5,-172 1037.5,-152 850.5,-152"/>
<text text-anchor="middle" x="944" y="-159" font-family="FreeSans" font-size="10.00">Kitware.VTK.vtkStructuredGridWriter</text>
</a>
</g>
<!-- Node9&#45;&gt;Node26 -->
<g id="edge50" class="edge"><title>Node9&#45;&gt;Node26</title>
<path fill="none" stroke="midnightblue" d="M782.07,-206.602C789.56,-204.677 796.985,-202.485 804,-200 821.053,-193.958 822.903,-186.917 840,-181 850.407,-177.399 861.649,-174.442 872.762,-172.025"/>
<polygon fill="midnightblue" stroke="midnightblue" points="781.116,-203.231 772.216,-208.981 782.759,-210.036 781.116,-203.231"/>
</g>
<!-- Node27 -->
<g id="node53" class="node"><title>Node27</title>
<a xlink:href="class_kitware_1_1_v_t_k_1_1vtk_structured_points_writer.html" target="_top" xlink:title="vtkStructuredPointsWriter &#45; write vtk structured points data file">
<polygon fill="none" stroke="black" points="845.5,-114 845.5,-134 1042.5,-134 1042.5,-114 845.5,-114"/>
<text text-anchor="middle" x="944" y="-121" font-family="FreeSans" font-size="10.00">Kitware.VTK.vtkStructuredPointsWriter</text>
</a>
</g>
<!-- Node9&#45;&gt;Node27 -->
<g id="edge52" class="edge"><title>Node9&#45;&gt;Node27</title>
<path fill="none" stroke="midnightblue" d="M788.033,-208.538C793.668,-206.202 799.064,-203.387 804,-200 828.705,-183.046 815.171,-159.772 840,-143 845.247,-139.455 850.969,-136.521 856.942,-134.097"/>
<polygon fill="midnightblue" stroke="midnightblue" points="786.577,-205.342 778.361,-212.033 788.956,-211.926 786.577,-205.342"/>
</g>
<!-- Node28 -->
<g id="node55" class="node"><title>Node28</title>
<a xlink:href="class_kitware_1_1_v_t_k_1_1vtk_table_writer.html" target="_top" xlink:title="vtkTableWriter &#45; write vtkTable to a file">
<polygon fill="none" stroke="black" points="874,-76 874,-96 1014,-96 1014,-76 874,-76"/>
<text text-anchor="middle" x="944" y="-83" font-family="FreeSans" font-size="10.00">Kitware.VTK.vtkTableWriter</text>
</a>
</g>
<!-- Node9&#45;&gt;Node28 -->
<g id="edge54" class="edge"><title>Node9&#45;&gt;Node28</title>
<path fill="none" stroke="midnightblue" d="M787.836,-210.075C793.663,-207.414 799.147,-204.104 804,-200 838.477,-170.844 805.31,-133.902 840,-105 849.659,-96.9521 861.596,-91.8507 873.899,-88.6953"/>
<polygon fill="midnightblue" stroke="midnightblue" points="786.48,-206.847 778.437,-213.743 789.025,-213.368 786.48,-206.847"/>
</g>
<!-- Node33 -->
<g id="node65" class="node"><title>Node33</title>
<a xlink:href="class_kitware_1_1_v_t_k_1_1vtk_tree_writer.html" target="_top" xlink:title="vtkTreeWriter &#45; write vtkTree data to a file">
<polygon fill="none" stroke="black" points="876,-38 876,-58 1012,-58 1012,-38 876,-38"/>
<text text-anchor="middle" x="944" y="-45" font-family="FreeSans" font-size="10.00">Kitware.VTK.vtkTreeWriter</text>
</a>
</g>
<!-- Node9&#45;&gt;Node33 -->
<g id="edge64" class="edge"><title>Node9&#45;&gt;Node33</title>
<path fill="none" stroke="midnightblue" d="M787.683,-210.873C793.64,-208.054 799.191,-204.488 804,-200 848.769,-158.216 794.925,-108.454 840,-67 849.93,-57.868 862.73,-52.4135 875.935,-49.2777"/>
<polygon fill="midnightblue" stroke="midnightblue" points="786.031,-207.763 778.034,-214.713 788.62,-214.267 786.031,-207.763"/>
</g>
<!-- Node34 -->
<g id="node67" class="node"><title>Node34</title>
<a xlink:href="class_kitware_1_1_v_t_k_1_1vtk_unstructured_grid_writer.html" target="_top" xlink:title="vtkUnstructuredGridWriter &#45; write vtk unstructured grid data file">
<polygon fill="none" stroke="black" points="844.5,-0 844.5,-20 1043.5,-20 1043.5,-0 844.5,-0"/>
<text text-anchor="middle" x="944" y="-7" font-family="FreeSans" font-size="10.00">Kitware.VTK.vtkUnstructuredGridWriter</text>
</a>
</g>
<!-- Node9&#45;&gt;Node34 -->
<g id="edge66" class="edge"><title>Node9&#45;&gt;Node34</title>
<path fill="none" stroke="midnightblue" d="M787.963,-211.164C793.86,-208.283 799.32,-204.623 804,-200 859.249,-145.415 784.351,-83.1774 840,-29 843.551,-25.5431 847.51,-22.604 851.751,-20.112"/>
<polygon fill="midnightblue" stroke="midnightblue" points="786.318,-208.055 778.385,-215.078 788.966,-214.535 786.318,-208.055"/>
</g>
<!-- Node12 -->
<g id="node23" class="node"><title>Node12</title>
<a xlink:href="class_kitware_1_1_v_t_k_1_1vtk_m_n_i_tag_point_writer.html" target="_top" xlink:title="vtkMNITagPointWriter &#45; A writer for MNI tag point files.">
<polygon fill="none" stroke="black" points="1096,-418 1096,-438 1270,-438 1270,-418 1096,-418"/>
<text text-anchor="middle" x="1183" y="-425" font-family="FreeSans" font-size="10.00">Kitware.VTK.vtkMNITagPointWriter</text>
</a>
</g>
<!-- Node11&#45;&gt;Node12 -->
<g id="edge22" class="edge"><title>Node11&#45;&gt;Node12</title>
<path fill="none" stroke="midnightblue" d="M1017.11,-401.625C1049.98,-406.85 1088.38,-412.956 1119.95,-417.976"/>
<polygon fill="midnightblue" stroke="midnightblue" points="1017.53,-398.147 1007.11,-400.034 1016.43,-405.061 1017.53,-398.147"/>
</g>
<!-- Node13 -->
<g id="node25" class="node"><title>Node13</title>
<a xlink:href="class_kitware_1_1_v_t_k_1_1vtk_p_data_set_writer.html" target="_top" xlink:title="vtkPDataSetWriter &#45; Manages writing pieces of a data set.">
<polygon fill="none" stroke="black" points="1102,-380 1102,-400 1264,-400 1264,-380 1102,-380"/>
<text text-anchor="middle" x="1183" y="-387" font-family="FreeSans" font-size="10.00">Kitware.VTK.vtkPDataSetWriter</text>
</a>
</g>
<!-- Node11&#45;&gt;Node13 -->
<g id="edge24" class="edge"><title>Node11&#45;&gt;Node13</title>
<path fill="none" stroke="midnightblue" d="M1032.54,-390C1055.19,-390 1079.43,-390 1101.69,-390"/>
<polygon fill="midnightblue" stroke="midnightblue" points="1032.26,-386.5 1022.26,-390 1032.26,-393.5 1032.26,-386.5"/>
</g>
<!-- Node18 -->
<g id="node35" class="node"><title>Node18</title>
<a xlink:href="class_kitware_1_1_v_t_k_1_1vtk_b_y_u_writer.html" target="_top" xlink:title="vtkBYUWriter &#45; write MOVIE.BYU files">
<polygon fill="none" stroke="black" points="1115.5,-342 1115.5,-362 1250.5,-362 1250.5,-342 1115.5,-342"/>
<text text-anchor="middle" x="1183" y="-349" font-family="FreeSans" font-size="10.00">Kitware.VTK.vtkBYUWriter</text>
</a>
</g>
<!-- Node17&#45;&gt;Node18 -->
<g id="edge34" class="edge"><title>Node17&#45;&gt;Node18</title>
<path fill="none" stroke="midnightblue" d="M1032.81,-247.963C1038.21,-250.44 1043.34,-253.421 1048,-257 1077.65,-279.755 1054.45,-310.113 1084,-333 1093.13,-340.073 1104.14,-344.762 1115.44,-347.826"/>
<polygon fill="midnightblue" stroke="midnightblue" points="1034.09,-244.705 1023.51,-244.255 1031.5,-251.208 1034.09,-244.705"/>
</g>
<!-- Node19 -->
<g id="node37" class="node"><title>Node19</title>
<a xlink:href="class_kitware_1_1_v_t_k_1_1vtk_c_g_m_writer.html" target="_top" xlink:title="vtkCGMWriter &#45; write polygonal data as a CGM file">
<polygon fill="none" stroke="black" points="1113.5,-304 1113.5,-324 1252.5,-324 1252.5,-304 1113.5,-304"/>
<text text-anchor="middle" x="1183" y="-311" font-family="FreeSans" font-size="10.00">Kitware.VTK.vtkCGMWriter</text>
</a>
</g>
<!-- Node17&#45;&gt;Node19 -->
<g id="edge36" class="edge"><title>Node17&#45;&gt;Node19</title>
<path fill="none" stroke="midnightblue" d="M1033.45,-250.414C1038.49,-252.314 1043.38,-254.496 1048,-257 1068.45,-268.083 1063.59,-283.826 1084,-295 1093.06,-299.96 1103.2,-303.642 1113.44,-306.373"/>
<polygon fill="midnightblue" stroke="midnightblue" points="1034.2,-246.973 1023.6,-247.096 1031.96,-253.606 1034.2,-246.973"/>
</g>
<!-- Node20 -->
<g id="node39" class="node"><title>Node20</title>
<a xlink:href="class_kitware_1_1_v_t_k_1_1vtk_i_v_writer.html" target="_top" xlink:title="vtkIVWriter &#45; export polydata into OpenInventor 2.0 format.">
<polygon fill="none" stroke="black" points="1120.5,-266 1120.5,-286 1245.5,-286 1245.5,-266 1120.5,-266"/>
<text text-anchor="middle" x="1183" y="-273" font-family="FreeSans" font-size="10.00">Kitware.VTK.vtkIVWriter</text>
</a>
</g>
<!-- Node17&#45;&gt;Node20 -->
<g id="edge38" class="edge"><title>Node17&#45;&gt;Node20</title>
<path fill="none" stroke="midnightblue" d="M1017.15,-249.631C1050.15,-254.878 1088.73,-261.011 1120.37,-266.042"/>
<polygon fill="midnightblue" stroke="midnightblue" points="1017.53,-246.147 1007.11,-248.034 1016.43,-253.061 1017.53,-246.147"/>
</g>
<!-- Node21 -->
<g id="node41" class="node"><title>Node21</title>
<a xlink:href="class_kitware_1_1_v_t_k_1_1vtk_m_cubes_writer.html" target="_top" xlink:title="vtkMCubesWriter &#45; write binary marching cubes file">
<polygon fill="none" stroke="black" points="1105.5,-228 1105.5,-248 1260.5,-248 1260.5,-228 1105.5,-228"/>
<text text-anchor="middle" x="1183" y="-235" font-family="FreeSans" font-size="10.00">Kitware.VTK.vtkMCubesWriter</text>
</a>
</g>
<!-- Node17&#45;&gt;Node21 -->
<g id="edge40" class="edge"><title>Node17&#45;&gt;Node21</title>
<path fill="none" stroke="midnightblue" d="M1033.59,-238C1057.2,-238 1082.47,-238 1105.39,-238"/>
<polygon fill="midnightblue" stroke="midnightblue" points="1033.58,-234.5 1023.58,-238 1033.58,-241.5 1033.58,-234.5"/>
</g>
<!-- Node22 -->
<g id="node43" class="node"><title>Node22</title>
<a xlink:href="class_kitware_1_1_v_t_k_1_1vtk_m_n_i_object_writer.html" target="_top" xlink:title="vtkMNIObjectWriter &#45; A writer for MNI surface mesh files.">
<polygon fill="none" stroke="black" points="1100.5,-190 1100.5,-210 1265.5,-210 1265.5,-190 1100.5,-190"/>
<text text-anchor="middle" x="1183" y="-197" font-family="FreeSans" font-size="10.00">Kitware.VTK.vtkMNIObjectWriter</text>
</a>
</g>
<!-- Node17&#45;&gt;Node22 -->
<g id="edge42" class="edge"><title>Node17&#45;&gt;Node22</title>
<path fill="none" stroke="midnightblue" d="M1017.11,-226.375C1049.98,-221.15 1088.38,-215.044 1119.95,-210.024"/>
<polygon fill="midnightblue" stroke="midnightblue" points="1016.43,-222.939 1007.11,-227.966 1017.53,-229.853 1016.43,-222.939"/>
</g>
<!-- Node23 -->
<g id="node45" class="node"><title>Node23</title>
<a xlink:href="class_kitware_1_1_v_t_k_1_1vtk_p_l_y_writer.html" target="_top" xlink:title="vtkPLYWriter &#45; write Stanford PLY file format">
<polygon fill="none" stroke="black" points="1117.5,-152 1117.5,-172 1248.5,-172 1248.5,-152 1117.5,-152"/>
<text text-anchor="middle" x="1183" y="-159" font-family="FreeSans" font-size="10.00">Kitware.VTK.vtkPLYWriter</text>
</a>
</g>
<!-- Node17&#45;&gt;Node23 -->
<g id="edge44" class="edge"><title>Node17&#45;&gt;Node23</title>
<path fill="none" stroke="midnightblue" d="M1033.45,-225.586C1038.49,-223.686 1043.38,-221.504 1048,-219 1068.45,-207.917 1063.59,-192.174 1084,-181 1094.21,-175.41 1105.79,-171.442 1117.35,-168.631"/>
<polygon fill="midnightblue" stroke="midnightblue" points="1031.96,-222.394 1023.6,-228.904 1034.2,-229.027 1031.96,-222.394"/>
</g>
<!-- Node24 -->
<g id="node47" class="node"><title>Node24</title>
<a xlink:href="class_kitware_1_1_v_t_k_1_1vtk_s_t_l_writer.html" target="_top" xlink:title="vtkSTLWriter &#45; write stereo lithography files">
<polygon fill="none" stroke="black" points="1116.5,-114 1116.5,-134 1249.5,-134 1249.5,-114 1116.5,-114"/>
<text text-anchor="middle" x="1183" y="-121" font-family="FreeSans" font-size="10.00">Kitware.VTK.vtkSTLWriter</text>
</a>
</g>
<!-- Node17&#45;&gt;Node24 -->
<g id="edge46" class="edge"><title>Node17&#45;&gt;Node24</title>
<path fill="none" stroke="midnightblue" d="M1032.81,-228.037C1038.21,-225.56 1043.34,-222.579 1048,-219 1077.65,-196.245 1054.45,-165.887 1084,-143 1093.41,-135.713 1104.8,-130.956 1116.47,-127.9"/>
<polygon fill="midnightblue" stroke="midnightblue" points="1031.5,-224.792 1023.51,-231.745 1034.09,-231.295 1031.5,-224.792"/>
</g>
<!-- Node29 -->
<g id="node57" class="node"><title>Node29</title>
<a xlink:href="class_kitware_1_1_v_t_k_1_1vtk_table_to_database_writer.html" target="_top" xlink:title="vtkTableToDatabaseWriter in a SQL database.">
<polygon fill="none" stroke="black" points="1084.5,-76 1084.5,-96 1281.5,-96 1281.5,-76 1084.5,-76"/>
<text text-anchor="middle" x="1183" y="-83" font-family="FreeSans" font-size="10.00">Kitware.VTK.vtkTableToDatabaseWriter</text>
</a>
</g>
<!-- Node28&#45;&gt;Node29 -->
<g id="edge56" class="edge"><title>Node28&#45;&gt;Node29</title>
<path fill="none" stroke="midnightblue" d="M1024.28,-86C1043.46,-86 1064.16,-86 1084.07,-86"/>
<polygon fill="midnightblue" stroke="midnightblue" points="1024.09,-82.5001 1014.09,-86 1024.09,-89.5001 1024.09,-82.5001"/>
</g>
<!-- Node30 -->
<g id="node59" class="node"><title>Node30</title>
<a xlink:href="class_kitware_1_1_v_t_k_1_1vtk_table_to_my_s_q_l_writer.html" target="_top" xlink:title="vtkTableToMySQLWriter &#45; store a vtkTable in a MySQL database">
<polygon fill="none" stroke="black" points="1330,-114 1330,-134 1512,-134 1512,-114 1330,-114"/>
<text text-anchor="middle" x="1421" y="-121" font-family="FreeSans" font-size="10.00">Kitware.VTK.vtkTableToMySQLWriter</text>
</a>
</g>
<!-- Node29&#45;&gt;Node30 -->
<g id="edge58" class="edge"><title>Node29&#45;&gt;Node30</title>
<path fill="none" stroke="midnightblue" d="M1255.81,-97.6249C1288.53,-102.85 1326.77,-108.956 1358.22,-113.976"/>
<polygon fill="midnightblue" stroke="midnightblue" points="1256.27,-94.1543 1245.84,-96.0338 1255.17,-101.067 1256.27,-94.1543"/>
</g>
<!-- Node31 -->
<g id="node61" class="node"><title>Node31</title>
<a xlink:href="class_kitware_1_1_v_t_k_1_1vtk_table_to_postgre_s_q_l_writer.html" target="_top" xlink:title="vtkTableToPostgreSQLWriter &#45; store a vtkTable in a PostgreSQL database">
<polygon fill="none" stroke="black" points="1318,-76 1318,-96 1524,-96 1524,-76 1318,-76"/>
<text text-anchor="middle" x="1421" y="-83" font-family="FreeSans" font-size="10.00">Kitware.VTK.vtkTableToPostgreSQLWriter</text>
</a>
</g>
<!-- Node29&#45;&gt;Node31 -->
<g id="edge60" class="edge"><title>Node29&#45;&gt;Node31</title>
<path fill="none" stroke="midnightblue" d="M1291.72,-86C1300.45,-86 1309.25,-86 1317.94,-86"/>
<polygon fill="midnightblue" stroke="midnightblue" points="1291.52,-82.5001 1281.52,-86 1291.52,-89.5001 1291.52,-82.5001"/>
</g>
<!-- Node32 -->
<g id="node63" class="node"><title>Node32</title>
<a xlink:href="class_kitware_1_1_v_t_k_1_1vtk_table_to_s_q_lite_writer.html" target="_top" xlink:title="vtkTableToSQLiteWriter &#45; store a vtkTable in an SQLite database">
<polygon fill="none" stroke="black" points="1330,-38 1330,-58 1512,-58 1512,-38 1330,-38"/>
<text text-anchor="middle" x="1421" y="-45" font-family="FreeSans" font-size="10.00">Kitware.VTK.vtkTableToSQLiteWriter</text>
</a>
</g>
<!-- Node29&#45;&gt;Node32 -->
<g id="edge62" class="edge"><title>Node29&#45;&gt;Node32</title>
<path fill="none" stroke="midnightblue" d="M1255.81,-74.3751C1288.53,-69.1502 1326.77,-63.0443 1358.22,-58.024"/>
<polygon fill="midnightblue" stroke="midnightblue" points="1255.17,-70.9333 1245.84,-75.9662 1256.27,-77.8457 1255.17,-70.9333"/>
</g>
</g>
</svg>
