<?xml version="1.0" encoding="UTF-8" standalone="no"?>
<!DOCTYPE svg PUBLIC "-//W3C//DTD SVG 1.1//EN"
 "http://www.w3.org/Graphics/SVG/1.1/DTD/svg11.dtd">
<!-- Generated by graphviz version 2.26.3 (20100126.1600)
 -->
<!-- Title: G Pages: 1 -->
<svg width="428pt" height="650pt"
 viewBox="0.00 0.00 428.46 650.00" xmlns="http://www.w3.org/2000/svg" xmlns:xlink="http://www.w3.org/1999/xlink">
<g id="graph1" class="graph" transform="scale(1 1) rotate(0) translate(4 646)">
<title>G</title>
<!-- Node1 -->
<g id="node1" class="node"><title>Node1</title>
<polygon fill="#bfbfbf" stroke="black" points="-0.5,-1 -0.5,-21 184.5,-21 184.5,-1 -0.5,-1"/>
<text text-anchor="middle" x="92" y="-8" font-family="FreeSans" font-size="10.00">Kitware.VTK.vtkBase64InputStream</text>
</g>
<!-- Node2 -->
<g id="node2" class="node"><title>Node2</title>
<a xlink:href="class_kitware_1_1_v_t_k_1_1vtk_input_stream.html" target="_top" xlink:title="vtkInputStream &#45; Wraps a binary input stream with a VTK interface.">
<polygon fill="none" stroke="black" points="46.5,-61 46.5,-81 137.5,-81 137.5,-61 46.5,-61"/>
<text text-anchor="middle" x="92" y="-68" font-family="FreeSans" font-size="10.00">vtkInputStream</text>
</a>
</g>
<!-- Node2&#45;&gt;Node1 -->
<g id="edge2" class="edge"><title>Node2&#45;&gt;Node1</title>
<path fill="none" stroke="midnightblue" d="M92,-50.5155C92,-40.562 92,-29.0495 92,-21.0279"/>
<polygon fill="midnightblue" stroke="midnightblue" points="88.5001,-50.8218 92,-60.8218 95.5001,-50.8219 88.5001,-50.8218"/>
</g>
<!-- Node3 -->
<g id="node4" class="node"><title>Node3</title>
<a xlink:href="class_kitware_1_1_v_t_k_1_1vtk_object.html" target="_top" xlink:title="vtkObject &#45; abstract base class for most VTK objects">
<polygon fill="none" stroke="black" points="61,-121 61,-141 123,-141 123,-121 61,-121"/>
<text text-anchor="middle" x="92" y="-128" font-family="FreeSans" font-size="10.00">vtkObject</text>
</a>
</g>
<!-- Node3&#45;&gt;Node2 -->
<g id="edge4" class="edge"><title>Node3&#45;&gt;Node2</title>
<path fill="none" stroke="midnightblue" d="M92,-110.516C92,-100.562 92,-89.0495 92,-81.0279"/>
<polygon fill="midnightblue" stroke="midnightblue" points="88.5001,-110.822 92,-120.822 95.5001,-110.822 88.5001,-110.822"/>
</g>
<!-- Node4 -->
<g id="node6" class="node"><title>Node4</title>
<a xlink:href="class_kitware_1_1_v_t_k_1_1vtk_object_base.html" target="_top" xlink:title="vtkObjectBase &#45; abstract base class for most VTK objects">
<polygon fill="none" stroke="black" points="112,-561 112,-581 198,-581 198,-561 112,-561"/>
<text text-anchor="middle" x="155" y="-568" font-family="FreeSans" font-size="10.00">vtkObjectBase</text>
</a>
</g>
<!-- Node4&#45;&gt;Node3 -->
<g id="edge6" class="edge"><title>Node4&#45;&gt;Node3</title>
<path fill="none" stroke="midnightblue" d="M126.423,-555.886C112.687,-547.44 96.8844,-535.826 86,-522 74.1564,-506.955 73.6209,-500.802 70,-482 44.4248,-349.199 79.5766,-183.437 89.5155,-141.17"/>
<polygon fill="midnightblue" stroke="midnightblue" points="124.683,-558.923 135.079,-560.97 128.229,-552.887 124.683,-558.923"/>
</g>
<!-- Node7 -->
<g id="node13" class="node"><title>Node7</title>
<a xlink:href="class_kitware_1_1_v_t_k_1_1vtk_object.html" target="_top" xlink:title="vtkObject &#45; abstract base class for most VTK objects">
<polygon fill="none" stroke="black" points="95,-501 95,-521 215,-521 215,-501 95,-501"/>
<text text-anchor="middle" x="155" y="-508" font-family="FreeSans" font-size="10.00">Kitware.VTK.vtkObject</text>
</a>
</g>
<!-- Node4&#45;&gt;Node7 -->
<g id="edge16" class="edge"><title>Node4&#45;&gt;Node7</title>
<path fill="none" stroke="midnightblue" d="M155,-550.516C155,-540.562 155,-529.05 155,-521.028"/>
<polygon fill="midnightblue" stroke="midnightblue" points="151.5,-550.822 155,-560.822 158.5,-550.822 151.5,-550.822"/>
</g>
<!-- Node5 -->
<g id="node8" class="node"><title>Node5</title>
<a xlink:href="class_kitware_1_1_v_t_k_1_1_wrapped_object.html" target="_top" xlink:title="Base class for all the mummy wrapped classes in Kitware.VTK.">
<polygon fill="none" stroke="black" points="293.5,-621 293.5,-641 382.5,-641 382.5,-621 293.5,-621"/>
<text text-anchor="middle" x="338" y="-628" font-family="FreeSans" font-size="10.00">WrappedObject</text>
</a>
</g>
<!-- Node5&#45;&gt;Node4 -->
<g id="edge8" class="edge"><title>Node5&#45;&gt;Node4</title>
<path fill="none" stroke="midnightblue" d="M297.804,-617.821C264.042,-606.752 216.512,-591.168 185.73,-581.075"/>
<polygon fill="midnightblue" stroke="midnightblue" points="296.777,-621.168 307.37,-620.957 298.958,-614.516 296.777,-621.168"/>
</g>
<!-- Node6 -->
<g id="node10" class="node"><title>Node6</title>
<a xlink:href="class_kitware_1_1_v_t_k_1_1vtk_object_event_relay.html" target="_top" xlink:title="Implement a relay handler for VTK events. This is a class that receives events directly from the VTK ...">
<polygon fill="none" stroke="black" points="84,-311 84,-331 256,-331 256,-311 84,-311"/>
<text text-anchor="middle" x="170" y="-318" font-family="FreeSans" font-size="10.00">Kitware.VTK.vtkObjectEventRelay</text>
</a>
</g>
<!-- Node5&#45;&gt;Node6 -->
<g id="edge12" class="edge"><title>Node5&#45;&gt;Node6</title>
<path fill="none" stroke="midnightblue" d="M350.888,-612.325C383.276,-562.899 460.803,-427.191 393,-350 383.773,-339.495 315.047,-331.666 256.298,-326.808"/>
<polygon fill="midnightblue" stroke="midnightblue" points="347.891,-610.509 345.239,-620.767 353.709,-614.402 347.891,-610.509"/>
</g>
<!-- Node6&#45;&gt;Node3 -->
<g id="edge10" class="edge"><title>Node6&#45;&gt;Node3</title>
<path fill="none" stroke="#9a32cd" stroke-dasharray="5,2" d="M161.921,-301.321C145.489,-261.293 108.674,-171.616 96.2144,-141.266"/>
<polygon fill="#9a32cd" stroke="#9a32cd" points="158.771,-302.863 165.806,-310.785 165.246,-300.205 158.771,-302.863"/>
<text text-anchor="middle" x="269.5" y="-283" font-family="FreeSans" font-size="10.00"> LeftButtonReleaseEvtRelay</text>
<text text-anchor="middle" x="269.5" y="-271" font-family="FreeSans" font-size="10.00">KeyPressEvtRelay</text>
<text text-anchor="middle" x="269.5" y="-259" font-family="FreeSans" font-size="10.00">DomainModifiedEvtRelay</text>
<text text-anchor="middle" x="269.5" y="-247" font-family="FreeSans" font-size="10.00">VolumeMapperComputeGradientsStartEvtRelay</text>
<text text-anchor="middle" x="269.5" y="-235" font-family="FreeSans" font-size="10.00">ErrorEvtRelay</text>
<text text-anchor="middle" x="269.5" y="-223" font-family="FreeSans" font-size="10.00">VolumeMapperRenderStartEvtRelay</text>
<text text-anchor="middle" x="269.5" y="-211" font-family="FreeSans" font-size="10.00">StartEvtRelay</text>
<text text-anchor="middle" x="269.5" y="-199" font-family="FreeSans" font-size="10.00">ResetCameraEvtRelay</text>
<text text-anchor="middle" x="269.5" y="-187" font-family="FreeSans" font-size="10.00">EnableEvtRelay</text>
<text text-anchor="middle" x="269.5" y="-175" font-family="FreeSans" font-size="10.00">DeleteEvtRelay</text>
<text text-anchor="middle" x="269.5" y="-163" font-family="FreeSans" font-size="10.00">...</text>
</g>
<!-- Node6&#45;&gt;Node7 -->
<g id="edge18" class="edge"><title>Node6&#45;&gt;Node7</title>
<path fill="none" stroke="#9a32cd" stroke-dasharray="5,2" d="M167.028,-341.231C166.649,-344.169 166.293,-347.159 166,-350 160.144,-406.853 156.636,-475.333 155.452,-500.807"/>
<polygon fill="#9a32cd" stroke="#9a32cd" points="170.515,-341.565 168.421,-331.179 163.582,-340.604 170.515,-341.565"/>
<text text-anchor="middle" x="279.5" y="-473" font-family="FreeSans" font-size="10.00"> LeftButtonReleaseEvtRelay</text>
<text text-anchor="middle" x="279.5" y="-461" font-family="FreeSans" font-size="10.00">KeyPressEvtRelay</text>
<text text-anchor="middle" x="279.5" y="-449" font-family="FreeSans" font-size="10.00">DomainModifiedEvtRelay</text>
<text text-anchor="middle" x="279.5" y="-437" font-family="FreeSans" font-size="10.00">VolumeMapperComputeGradientsStartEvtRelay</text>
<text text-anchor="middle" x="279.5" y="-425" font-family="FreeSans" font-size="10.00">ErrorEvtRelay</text>
<text text-anchor="middle" x="279.5" y="-413" font-family="FreeSans" font-size="10.00">VolumeMapperRenderStartEvtRelay</text>
<text text-anchor="middle" x="279.5" y="-401" font-family="FreeSans" font-size="10.00">StartEvtRelay</text>
<text text-anchor="middle" x="279.5" y="-389" font-family="FreeSans" font-size="10.00">ResetCameraEvtRelay</text>
<text text-anchor="middle" x="279.5" y="-377" font-family="FreeSans" font-size="10.00">EnableEvtRelay</text>
<text text-anchor="middle" x="279.5" y="-365" font-family="FreeSans" font-size="10.00">DeleteEvtRelay</text>
<text text-anchor="middle" x="279.5" y="-353" font-family="FreeSans" font-size="10.00">...</text>
</g>
<!-- Node7&#45;&gt;Node6 -->
<g id="edge14" class="edge"><title>Node7&#45;&gt;Node6</title>
<path fill="none" stroke="#9a32cd" stroke-dasharray="5,2" d="M108.979,-495.818C103.439,-492.138 98.5104,-487.596 95,-482 63.8229,-432.303 61.8299,-398.389 95,-350 99.7359,-343.091 116.511,-336.287 132.999,-331.008"/>
<polygon fill="#9a32cd" stroke="#9a32cd" points="107.639,-499.079 118.072,-500.919 111.064,-492.974 107.639,-499.079"/>
<text text-anchor="middle" x="119" y="-419" font-family="FreeSans" font-size="10.00"> Sender</text>
<text text-anchor="middle" x="119" y="-407" font-family="FreeSans" font-size="10.00">EventImpl</text>
</g>
</g>
</svg>
