<?xml version="1.0" encoding="UTF-8" standalone="no"?>
<!DOCTYPE svg PUBLIC "-//W3C//DTD SVG 1.1//EN"
 "http://www.w3.org/Graphics/SVG/1.1/DTD/svg11.dtd">
<!-- Generated by graphviz version 2.26.3 (20100126.1600)
 -->
<!-- Title: G Pages: 1 -->
<svg width="1042pt" height="104pt"
 viewBox="0.00 0.00 1042.00 104.00" xmlns="http://www.w3.org/2000/svg" xmlns:xlink="http://www.w3.org/1999/xlink">
<g id="graph1" class="graph" transform="scale(1 1) rotate(0) translate(4 100)">
<title>G</title>
<!-- Node1 -->
<g id="node1" class="node"><title>Node1</title>
<polygon fill="#bfbfbf" stroke="black" points="618,-38 618,-58 816,-58 816,-38 618,-38"/>
<text text-anchor="middle" x="717" y="-45" font-family="FreeSans" font-size="10.00">Kitware.VTK.vtkPolyDataSourceWidget</text>
</g>
<!-- Node7 -->
<g id="node13" class="node"><title>Node7</title>
<a xlink:href="class_kitware_1_1_v_t_k_1_1vtk_image_plane_widget.html" target="_top" xlink:title="vtkImagePlaneWidget &#45; 3D widget for reslicing image data">
<polygon fill="none" stroke="black" points="854,-76 854,-96 1032,-96 1032,-76 854,-76"/>
<text text-anchor="middle" x="943" y="-83" font-family="FreeSans" font-size="10.00">Kitware.VTK.vtkImagePlaneWidget</text>
</a>
</g>
<!-- Node1&#45;&gt;Node7 -->
<g id="edge12" class="edge"><title>Node1&#45;&gt;Node7</title>
<path fill="none" stroke="midnightblue" d="M786.539,-59.6925C817.525,-64.9025 853.654,-70.9773 883.383,-75.976"/>
<polygon fill="midnightblue" stroke="midnightblue" points="787.116,-56.2404 776.674,-58.0338 785.956,-63.1435 787.116,-56.2404"/>
</g>
<!-- Node8 -->
<g id="node15" class="node"><title>Node8</title>
<a xlink:href="class_kitware_1_1_v_t_k_1_1vtk_implicit_plane_widget.html" target="_top" xlink:title="vtkImplicitPlaneWidget &#45; 3D widget for manipulating an infinite plane">
<polygon fill="none" stroke="black" points="852,-38 852,-58 1034,-58 1034,-38 852,-38"/>
<text text-anchor="middle" x="943" y="-45" font-family="FreeSans" font-size="10.00">Kitware.VTK.vtkImplicitPlaneWidget</text>
</a>
</g>
<!-- Node1&#45;&gt;Node8 -->
<g id="edge14" class="edge"><title>Node1&#45;&gt;Node8</title>
<path fill="none" stroke="midnightblue" d="M826.171,-48C834.749,-48 843.356,-48 851.795,-48"/>
<polygon fill="midnightblue" stroke="midnightblue" points="826.127,-44.5001 816.127,-48 826.127,-51.5001 826.127,-44.5001"/>
</g>
<!-- Node9 -->
<g id="node17" class="node"><title>Node9</title>
<a xlink:href="class_kitware_1_1_v_t_k_1_1vtk_plane_widget.html" target="_top" xlink:title="vtkPlaneWidget &#45; 3D widget for manipulating a finite plane">
<polygon fill="none" stroke="black" points="869,-0 869,-20 1017,-20 1017,-0 869,-0"/>
<text text-anchor="middle" x="943" y="-7" font-family="FreeSans" font-size="10.00">Kitware.VTK.vtkPlaneWidget</text>
</a>
</g>
<!-- Node1&#45;&gt;Node9 -->
<g id="edge16" class="edge"><title>Node1&#45;&gt;Node9</title>
<path fill="none" stroke="midnightblue" d="M786.539,-36.3075C817.525,-31.0975 853.654,-25.0227 883.383,-20.024"/>
<polygon fill="midnightblue" stroke="midnightblue" points="785.956,-32.8565 776.674,-37.9662 787.116,-39.7596 785.956,-32.8565"/>
</g>
<!-- Node2 -->
<g id="node2" class="node"><title>Node2</title>
<a xlink:href="class_kitware_1_1_v_t_k_1_1vtk3_d_widget.html" target="_top" xlink:title="vtk3DWidget &#45; an abstract superclass for 3D widgets">
<polygon fill="none" stroke="black" points="504.5,-38 504.5,-58 581.5,-58 581.5,-38 504.5,-38"/>
<text text-anchor="middle" x="543" y="-45" font-family="FreeSans" font-size="10.00">vtk3DWidget</text>
</a>
</g>
<!-- Node2&#45;&gt;Node1 -->
<g id="edge2" class="edge"><title>Node2&#45;&gt;Node1</title>
<path fill="none" stroke="midnightblue" d="M591.7,-48C599.925,-48 608.721,-48 617.695,-48"/>
<polygon fill="midnightblue" stroke="midnightblue" points="591.616,-44.5001 581.616,-48 591.616,-51.5001 591.616,-44.5001"/>
</g>
<!-- Node3 -->
<g id="node4" class="node"><title>Node3</title>
<a xlink:href="class_kitware_1_1_v_t_k_1_1vtk_interactor_observer.html" target="_top" xlink:title="vtkInteractorObserver &#45; an abstract superclass for classes observing events invoked by vtkRenderWindo...">
<polygon fill="none" stroke="black" points="346.5,-38 346.5,-58 467.5,-58 467.5,-38 346.5,-38"/>
<text text-anchor="middle" x="407" y="-45" font-family="FreeSans" font-size="10.00">vtkInteractorObserver</text>
</a>
</g>
<!-- Node3&#45;&gt;Node2 -->
<g id="edge4" class="edge"><title>Node3&#45;&gt;Node2</title>
<path fill="none" stroke="midnightblue" d="M478.089,-48C487.169,-48 496.176,-48 504.46,-48"/>
<polygon fill="midnightblue" stroke="midnightblue" points="477.84,-44.5001 467.84,-48 477.84,-51.5001 477.84,-44.5001"/>
</g>
<!-- Node4 -->
<g id="node6" class="node"><title>Node4</title>
<a xlink:href="class_kitware_1_1_v_t_k_1_1vtk_object.html" target="_top" xlink:title="vtkObject &#45; abstract base class for most VTK objects">
<polygon fill="none" stroke="black" points="248,-38 248,-58 310,-58 310,-38 248,-38"/>
<text text-anchor="middle" x="279" y="-45" font-family="FreeSans" font-size="10.00">vtkObject</text>
</a>
</g>
<!-- Node4&#45;&gt;Node3 -->
<g id="edge6" class="edge"><title>Node4&#45;&gt;Node3</title>
<path fill="none" stroke="midnightblue" d="M320.479,-48C328.791,-48 337.684,-48 346.488,-48"/>
<polygon fill="midnightblue" stroke="midnightblue" points="320.312,-44.5001 310.312,-48 320.312,-51.5001 320.312,-44.5001"/>
</g>
<!-- Node5 -->
<g id="node8" class="node"><title>Node5</title>
<a xlink:href="class_kitware_1_1_v_t_k_1_1vtk_object_base.html" target="_top" xlink:title="vtkObjectBase &#45; abstract base class for most VTK objects">
<polygon fill="none" stroke="black" points="126,-38 126,-58 212,-58 212,-38 126,-38"/>
<text text-anchor="middle" x="169" y="-45" font-family="FreeSans" font-size="10.00">vtkObjectBase</text>
</a>
</g>
<!-- Node5&#45;&gt;Node4 -->
<g id="edge8" class="edge"><title>Node5&#45;&gt;Node4</title>
<path fill="none" stroke="midnightblue" d="M222.346,-48C231.091,-48 239.892,-48 247.863,-48"/>
<polygon fill="midnightblue" stroke="midnightblue" points="222.159,-44.5001 212.159,-48 222.159,-51.5001 222.159,-44.5001"/>
</g>
<!-- Node6 -->
<g id="node10" class="node"><title>Node6</title>
<a xlink:href="class_kitware_1_1_v_t_k_1_1_wrapped_object.html" target="_top" xlink:title="Base class for all the mummy wrapped classes in Kitware.VTK.">
<polygon fill="none" stroke="black" points="0.5,-38 0.5,-58 89.5,-58 89.5,-38 0.5,-38"/>
<text text-anchor="middle" x="45" y="-45" font-family="FreeSans" font-size="10.00">WrappedObject</text>
</a>
</g>
<!-- Node6&#45;&gt;Node5 -->
<g id="edge10" class="edge"><title>Node6&#45;&gt;Node5</title>
<path fill="none" stroke="midnightblue" d="M99.8895,-48C108.623,-48 117.548,-48 125.957,-48"/>
<polygon fill="midnightblue" stroke="midnightblue" points="99.7669,-44.5001 89.7668,-48 99.7668,-51.5001 99.7669,-44.5001"/>
</g>
</g>
</svg>
