<?xml version="1.0" encoding="UTF-8" standalone="no"?>
<!DOCTYPE svg PUBLIC "-//W3C//DTD SVG 1.1//EN"
 "http://www.w3.org/Graphics/SVG/1.1/DTD/svg11.dtd">
<!-- Generated by graphviz version 2.26.3 (20100126.1600)
 -->
<!-- Title: G Pages: 1 -->
<svg width="426pt" height="710pt"
 viewBox="0.00 0.00 426.46 710.00" xmlns="http://www.w3.org/2000/svg" xmlns:xlink="http://www.w3.org/1999/xlink">
<g id="graph1" class="graph" transform="scale(1 1) rotate(0) translate(4 706)">
<title>G</title>
<!-- Node1 -->
<g id="node1" class="node"><title>Node1</title>
<polygon fill="#bfbfbf" stroke="black" points="0,-1 0,-21 180,-21 180,-1 0,-1"/>
<text text-anchor="middle" x="90" y="-8" font-family="FreeSans" font-size="10.00">Kitware.VTK.vtkBoostLogWeighting</text>
</g>
<!-- Node2 -->
<g id="node2" class="node"><title>Node2</title>
<a xlink:href="class_kitware_1_1_v_t_k_1_1vtk_array_data_algorithm.html" target="_top" xlink:title="vtkArrayDataAlgorithm &#45; Superclass for algorithms that produce vtkArrayDatas as output">
<polygon fill="none" stroke="black" points="27,-61 27,-81 153,-81 153,-61 27,-61"/>
<text text-anchor="middle" x="90" y="-68" font-family="FreeSans" font-size="10.00">vtkArrayDataAlgorithm</text>
</a>
</g>
<!-- Node2&#45;&gt;Node1 -->
<g id="edge2" class="edge"><title>Node2&#45;&gt;Node1</title>
<path fill="none" stroke="midnightblue" d="M90,-50.5155C90,-40.562 90,-29.0495 90,-21.0279"/>
<polygon fill="midnightblue" stroke="midnightblue" points="86.5001,-50.8218 90,-60.8218 93.5001,-50.8219 86.5001,-50.8218"/>
</g>
<!-- Node3 -->
<g id="node4" class="node"><title>Node3</title>
<a xlink:href="class_kitware_1_1_v_t_k_1_1vtk_algorithm.html" target="_top" xlink:title="vtkAlgorithm &#45; Superclass for all sources, filters, and sinks in VTK.">
<polygon fill="none" stroke="black" points="51.5,-121 51.5,-141 128.5,-141 128.5,-121 51.5,-121"/>
<text text-anchor="middle" x="90" y="-128" font-family="FreeSans" font-size="10.00">vtkAlgorithm</text>
</a>
</g>
<!-- Node3&#45;&gt;Node2 -->
<g id="edge4" class="edge"><title>Node3&#45;&gt;Node2</title>
<path fill="none" stroke="midnightblue" d="M90,-110.516C90,-100.562 90,-89.0495 90,-81.0279"/>
<polygon fill="midnightblue" stroke="midnightblue" points="86.5001,-110.822 90,-120.822 93.5001,-110.822 86.5001,-110.822"/>
</g>
<!-- Node4 -->
<g id="node6" class="node"><title>Node4</title>
<a xlink:href="class_kitware_1_1_v_t_k_1_1vtk_object.html" target="_top" xlink:title="vtkObject &#45; abstract base class for most VTK objects">
<polygon fill="none" stroke="black" points="59,-181 59,-201 121,-201 121,-181 59,-181"/>
<text text-anchor="middle" x="90" y="-188" font-family="FreeSans" font-size="10.00">vtkObject</text>
</a>
</g>
<!-- Node4&#45;&gt;Node3 -->
<g id="edge6" class="edge"><title>Node4&#45;&gt;Node3</title>
<path fill="none" stroke="midnightblue" d="M90,-170.516C90,-160.562 90,-149.05 90,-141.028"/>
<polygon fill="midnightblue" stroke="midnightblue" points="86.5001,-170.822 90,-180.822 93.5001,-170.822 86.5001,-170.822"/>
</g>
<!-- Node5 -->
<g id="node8" class="node"><title>Node5</title>
<a xlink:href="class_kitware_1_1_v_t_k_1_1vtk_object_base.html" target="_top" xlink:title="vtkObjectBase &#45; abstract base class for most VTK objects">
<polygon fill="none" stroke="black" points="110,-621 110,-641 196,-641 196,-621 110,-621"/>
<text text-anchor="middle" x="153" y="-628" font-family="FreeSans" font-size="10.00">vtkObjectBase</text>
</a>
</g>
<!-- Node5&#45;&gt;Node4 -->
<g id="edge8" class="edge"><title>Node5&#45;&gt;Node4</title>
<path fill="none" stroke="midnightblue" d="M124.423,-615.886C110.687,-607.44 94.8844,-595.826 84,-582 72.1564,-566.955 71.6209,-560.802 68,-542 42.4248,-409.199 77.5766,-243.437 87.5155,-201.17"/>
<polygon fill="midnightblue" stroke="midnightblue" points="122.683,-618.923 133.079,-620.97 126.229,-612.887 122.683,-618.923"/>
</g>
<!-- Node8 -->
<g id="node15" class="node"><title>Node8</title>
<a xlink:href="class_kitware_1_1_v_t_k_1_1vtk_object.html" target="_top" xlink:title="vtkObject &#45; abstract base class for most VTK objects">
<polygon fill="none" stroke="black" points="93,-561 93,-581 213,-581 213,-561 93,-561"/>
<text text-anchor="middle" x="153" y="-568" font-family="FreeSans" font-size="10.00">Kitware.VTK.vtkObject</text>
</a>
</g>
<!-- Node5&#45;&gt;Node8 -->
<g id="edge18" class="edge"><title>Node5&#45;&gt;Node8</title>
<path fill="none" stroke="midnightblue" d="M153,-610.516C153,-600.562 153,-589.05 153,-581.028"/>
<polygon fill="midnightblue" stroke="midnightblue" points="149.5,-610.822 153,-620.822 156.5,-610.822 149.5,-610.822"/>
</g>
<!-- Node6 -->
<g id="node10" class="node"><title>Node6</title>
<a xlink:href="class_kitware_1_1_v_t_k_1_1_wrapped_object.html" target="_top" xlink:title="Base class for all the mummy wrapped classes in Kitware.VTK.">
<polygon fill="none" stroke="black" points="291.5,-681 291.5,-701 380.5,-701 380.5,-681 291.5,-681"/>
<text text-anchor="middle" x="336" y="-688" font-family="FreeSans" font-size="10.00">WrappedObject</text>
</a>
</g>
<!-- Node6&#45;&gt;Node5 -->
<g id="edge10" class="edge"><title>Node6&#45;&gt;Node5</title>
<path fill="none" stroke="midnightblue" d="M295.804,-677.821C262.042,-666.752 214.512,-651.168 183.73,-641.075"/>
<polygon fill="midnightblue" stroke="midnightblue" points="294.777,-681.168 305.37,-680.957 296.958,-674.516 294.777,-681.168"/>
</g>
<!-- Node7 -->
<g id="node12" class="node"><title>Node7</title>
<a xlink:href="class_kitware_1_1_v_t_k_1_1vtk_object_event_relay.html" target="_top" xlink:title="Implement a relay handler for VTK events. This is a class that receives events directly from the VTK ...">
<polygon fill="none" stroke="black" points="82,-371 82,-391 254,-391 254,-371 82,-371"/>
<text text-anchor="middle" x="168" y="-378" font-family="FreeSans" font-size="10.00">Kitware.VTK.vtkObjectEventRelay</text>
</a>
</g>
<!-- Node6&#45;&gt;Node7 -->
<g id="edge14" class="edge"><title>Node6&#45;&gt;Node7</title>
<path fill="none" stroke="midnightblue" d="M348.888,-672.325C381.276,-622.899 458.803,-487.191 391,-410 381.773,-399.495 313.047,-391.666 254.298,-386.808"/>
<polygon fill="midnightblue" stroke="midnightblue" points="345.891,-670.509 343.239,-680.767 351.709,-674.402 345.891,-670.509"/>
</g>
<!-- Node7&#45;&gt;Node4 -->
<g id="edge12" class="edge"><title>Node7&#45;&gt;Node4</title>
<path fill="none" stroke="#9a32cd" stroke-dasharray="5,2" d="M159.921,-361.321C143.489,-321.293 106.674,-231.616 94.2144,-201.266"/>
<polygon fill="#9a32cd" stroke="#9a32cd" points="156.771,-362.863 163.806,-370.785 163.246,-360.205 156.771,-362.863"/>
<text text-anchor="middle" x="267.5" y="-343" font-family="FreeSans" font-size="10.00"> LeftButtonReleaseEvtRelay</text>
<text text-anchor="middle" x="267.5" y="-331" font-family="FreeSans" font-size="10.00">KeyPressEvtRelay</text>
<text text-anchor="middle" x="267.5" y="-319" font-family="FreeSans" font-size="10.00">DomainModifiedEvtRelay</text>
<text text-anchor="middle" x="267.5" y="-307" font-family="FreeSans" font-size="10.00">VolumeMapperComputeGradientsStartEvtRelay</text>
<text text-anchor="middle" x="267.5" y="-295" font-family="FreeSans" font-size="10.00">ErrorEvtRelay</text>
<text text-anchor="middle" x="267.5" y="-283" font-family="FreeSans" font-size="10.00">VolumeMapperRenderStartEvtRelay</text>
<text text-anchor="middle" x="267.5" y="-271" font-family="FreeSans" font-size="10.00">StartEvtRelay</text>
<text text-anchor="middle" x="267.5" y="-259" font-family="FreeSans" font-size="10.00">ResetCameraEvtRelay</text>
<text text-anchor="middle" x="267.5" y="-247" font-family="FreeSans" font-size="10.00">EnableEvtRelay</text>
<text text-anchor="middle" x="267.5" y="-235" font-family="FreeSans" font-size="10.00">DeleteEvtRelay</text>
<text text-anchor="middle" x="267.5" y="-223" font-family="FreeSans" font-size="10.00">...</text>
</g>
<!-- Node7&#45;&gt;Node8 -->
<g id="edge20" class="edge"><title>Node7&#45;&gt;Node8</title>
<path fill="none" stroke="#9a32cd" stroke-dasharray="5,2" d="M165.028,-401.231C164.649,-404.169 164.293,-407.159 164,-410 158.144,-466.853 154.636,-535.333 153.452,-560.807"/>
<polygon fill="#9a32cd" stroke="#9a32cd" points="168.515,-401.565 166.421,-391.179 161.582,-400.604 168.515,-401.565"/>
<text text-anchor="middle" x="277.5" y="-533" font-family="FreeSans" font-size="10.00"> LeftButtonReleaseEvtRelay</text>
<text text-anchor="middle" x="277.5" y="-521" font-family="FreeSans" font-size="10.00">KeyPressEvtRelay</text>
<text text-anchor="middle" x="277.5" y="-509" font-family="FreeSans" font-size="10.00">DomainModifiedEvtRelay</text>
<text text-anchor="middle" x="277.5" y="-497" font-family="FreeSans" font-size="10.00">VolumeMapperComputeGradientsStartEvtRelay</text>
<text text-anchor="middle" x="277.5" y="-485" font-family="FreeSans" font-size="10.00">ErrorEvtRelay</text>
<text text-anchor="middle" x="277.5" y="-473" font-family="FreeSans" font-size="10.00">VolumeMapperRenderStartEvtRelay</text>
<text text-anchor="middle" x="277.5" y="-461" font-family="FreeSans" font-size="10.00">StartEvtRelay</text>
<text text-anchor="middle" x="277.5" y="-449" font-family="FreeSans" font-size="10.00">ResetCameraEvtRelay</text>
<text text-anchor="middle" x="277.5" y="-437" font-family="FreeSans" font-size="10.00">EnableEvtRelay</text>
<text text-anchor="middle" x="277.5" y="-425" font-family="FreeSans" font-size="10.00">DeleteEvtRelay</text>
<text text-anchor="middle" x="277.5" y="-413" font-family="FreeSans" font-size="10.00">...</text>
</g>
<!-- Node8&#45;&gt;Node7 -->
<g id="edge16" class="edge"><title>Node8&#45;&gt;Node7</title>
<path fill="none" stroke="#9a32cd" stroke-dasharray="5,2" d="M106.979,-555.818C101.439,-552.138 96.5104,-547.596 93,-542 61.8229,-492.303 59.8299,-458.389 93,-410 97.7359,-403.091 114.511,-396.287 130.999,-391.008"/>
<polygon fill="#9a32cd" stroke="#9a32cd" points="105.639,-559.079 116.072,-560.919 109.064,-552.974 105.639,-559.079"/>
<text text-anchor="middle" x="117" y="-479" font-family="FreeSans" font-size="10.00"> Sender</text>
<text text-anchor="middle" x="117" y="-467" font-family="FreeSans" font-size="10.00">EventImpl</text>
</g>
</g>
</svg>
