<?xml version="1.0" encoding="UTF-8" standalone="no"?>
<!DOCTYPE svg PUBLIC "-//W3C//DTD SVG 1.1//EN"
 "http://www.w3.org/Graphics/SVG/1.1/DTD/svg11.dtd">
<!-- Generated by graphviz version 2.26.3 (20100126.1600)
 -->
<!-- Title: G Pages: 1 -->
<svg width="454pt" height="770pt"
 viewBox="0.00 0.00 454.46 770.00" xmlns="http://www.w3.org/2000/svg" xmlns:xlink="http://www.w3.org/1999/xlink">
<g id="graph1" class="graph" transform="scale(1 1) rotate(0) translate(4 766)">
<title>G</title>
<!-- Node1 -->
<g id="node1" class="node"><title>Node1</title>
<polygon fill="#bfbfbf" stroke="black" points="0,-1 0,-21 236,-21 236,-1 0,-1"/>
<text text-anchor="middle" x="118" y="-8" font-family="FreeSans" font-size="10.00">Kitware.VTK.vtkInteractorStyleRubberBandPick</text>
</g>
<!-- Node2 -->
<g id="node2" class="node"><title>Node2</title>
<a xlink:href="class_kitware_1_1_v_t_k_1_1vtk_interactor_style_trackball_camera.html" target="_top" xlink:title="vtkInteractorStyleTrackballCamera &#45; interactive manipulation of the camera">
<polygon fill="none" stroke="black" points="28,-61 28,-81 208,-81 208,-61 28,-61"/>
<text text-anchor="middle" x="118" y="-68" font-family="FreeSans" font-size="10.00">vtkInteractorStyleTrackballCamera</text>
</a>
</g>
<!-- Node2&#45;&gt;Node1 -->
<g id="edge2" class="edge"><title>Node2&#45;&gt;Node1</title>
<path fill="none" stroke="midnightblue" d="M118,-50.5155C118,-40.562 118,-29.0495 118,-21.0279"/>
<polygon fill="midnightblue" stroke="midnightblue" points="114.5,-50.8218 118,-60.8218 121.5,-50.8219 114.5,-50.8218"/>
</g>
<!-- Node3 -->
<g id="node4" class="node"><title>Node3</title>
<a xlink:href="class_kitware_1_1_v_t_k_1_1vtk_interactor_style.html" target="_top" xlink:title="vtkInteractorStyle &#45; provide event&#45;driven interface to the rendering window (defines trackball mode)...">
<polygon fill="none" stroke="black" points="67.5,-121 67.5,-141 168.5,-141 168.5,-121 67.5,-121"/>
<text text-anchor="middle" x="118" y="-128" font-family="FreeSans" font-size="10.00">vtkInteractorStyle</text>
</a>
</g>
<!-- Node3&#45;&gt;Node2 -->
<g id="edge4" class="edge"><title>Node3&#45;&gt;Node2</title>
<path fill="none" stroke="midnightblue" d="M118,-110.516C118,-100.562 118,-89.0495 118,-81.0279"/>
<polygon fill="midnightblue" stroke="midnightblue" points="114.5,-110.822 118,-120.822 121.5,-110.822 114.5,-110.822"/>
</g>
<!-- Node4 -->
<g id="node6" class="node"><title>Node4</title>
<a xlink:href="class_kitware_1_1_v_t_k_1_1vtk_interactor_observer.html" target="_top" xlink:title="vtkInteractorObserver &#45; an abstract superclass for classes observing events invoked by vtkRenderWindo...">
<polygon fill="none" stroke="black" points="57.5,-181 57.5,-201 178.5,-201 178.5,-181 57.5,-181"/>
<text text-anchor="middle" x="118" y="-188" font-family="FreeSans" font-size="10.00">vtkInteractorObserver</text>
</a>
</g>
<!-- Node4&#45;&gt;Node3 -->
<g id="edge6" class="edge"><title>Node4&#45;&gt;Node3</title>
<path fill="none" stroke="midnightblue" d="M118,-170.516C118,-160.562 118,-149.05 118,-141.028"/>
<polygon fill="midnightblue" stroke="midnightblue" points="114.5,-170.822 118,-180.822 121.5,-170.822 114.5,-170.822"/>
</g>
<!-- Node5 -->
<g id="node8" class="node"><title>Node5</title>
<a xlink:href="class_kitware_1_1_v_t_k_1_1vtk_object.html" target="_top" xlink:title="vtkObject &#45; abstract base class for most VTK objects">
<polygon fill="none" stroke="black" points="87,-241 87,-261 149,-261 149,-241 87,-241"/>
<text text-anchor="middle" x="118" y="-248" font-family="FreeSans" font-size="10.00">vtkObject</text>
</a>
</g>
<!-- Node5&#45;&gt;Node4 -->
<g id="edge8" class="edge"><title>Node5&#45;&gt;Node4</title>
<path fill="none" stroke="midnightblue" d="M118,-230.516C118,-220.562 118,-209.05 118,-201.028"/>
<polygon fill="midnightblue" stroke="midnightblue" points="114.5,-230.822 118,-240.822 121.5,-230.822 114.5,-230.822"/>
</g>
<!-- Node6 -->
<g id="node10" class="node"><title>Node6</title>
<a xlink:href="class_kitware_1_1_v_t_k_1_1vtk_object_base.html" target="_top" xlink:title="vtkObjectBase &#45; abstract base class for most VTK objects">
<polygon fill="none" stroke="black" points="138,-681 138,-701 224,-701 224,-681 138,-681"/>
<text text-anchor="middle" x="181" y="-688" font-family="FreeSans" font-size="10.00">vtkObjectBase</text>
</a>
</g>
<!-- Node6&#45;&gt;Node5 -->
<g id="edge10" class="edge"><title>Node6&#45;&gt;Node5</title>
<path fill="none" stroke="midnightblue" d="M152.423,-675.886C138.687,-667.44 122.884,-655.826 112,-642 100.156,-626.955 99.6209,-620.802 96,-602 70.4248,-469.199 105.577,-303.437 115.516,-261.17"/>
<polygon fill="midnightblue" stroke="midnightblue" points="150.683,-678.923 161.079,-680.97 154.229,-672.887 150.683,-678.923"/>
</g>
<!-- Node9 -->
<g id="node17" class="node"><title>Node9</title>
<a xlink:href="class_kitware_1_1_v_t_k_1_1vtk_object.html" target="_top" xlink:title="vtkObject &#45; abstract base class for most VTK objects">
<polygon fill="none" stroke="black" points="121,-621 121,-641 241,-641 241,-621 121,-621"/>
<text text-anchor="middle" x="181" y="-628" font-family="FreeSans" font-size="10.00">Kitware.VTK.vtkObject</text>
</a>
</g>
<!-- Node6&#45;&gt;Node9 -->
<g id="edge20" class="edge"><title>Node6&#45;&gt;Node9</title>
<path fill="none" stroke="midnightblue" d="M181,-670.516C181,-660.562 181,-649.05 181,-641.028"/>
<polygon fill="midnightblue" stroke="midnightblue" points="177.5,-670.822 181,-680.822 184.5,-670.822 177.5,-670.822"/>
</g>
<!-- Node7 -->
<g id="node12" class="node"><title>Node7</title>
<a xlink:href="class_kitware_1_1_v_t_k_1_1_wrapped_object.html" target="_top" xlink:title="Base class for all the mummy wrapped classes in Kitware.VTK.">
<polygon fill="none" stroke="black" points="319.5,-741 319.5,-761 408.5,-761 408.5,-741 319.5,-741"/>
<text text-anchor="middle" x="364" y="-748" font-family="FreeSans" font-size="10.00">WrappedObject</text>
</a>
</g>
<!-- Node7&#45;&gt;Node6 -->
<g id="edge12" class="edge"><title>Node7&#45;&gt;Node6</title>
<path fill="none" stroke="midnightblue" d="M323.804,-737.821C290.042,-726.752 242.512,-711.168 211.73,-701.075"/>
<polygon fill="midnightblue" stroke="midnightblue" points="322.777,-741.168 333.37,-740.957 324.958,-734.516 322.777,-741.168"/>
</g>
<!-- Node8 -->
<g id="node14" class="node"><title>Node8</title>
<a xlink:href="class_kitware_1_1_v_t_k_1_1vtk_object_event_relay.html" target="_top" xlink:title="Implement a relay handler for VTK events. This is a class that receives events directly from the VTK ...">
<polygon fill="none" stroke="black" points="110,-431 110,-451 282,-451 282,-431 110,-431"/>
<text text-anchor="middle" x="196" y="-438" font-family="FreeSans" font-size="10.00">Kitware.VTK.vtkObjectEventRelay</text>
</a>
</g>
<!-- Node7&#45;&gt;Node8 -->
<g id="edge16" class="edge"><title>Node7&#45;&gt;Node8</title>
<path fill="none" stroke="midnightblue" d="M376.888,-732.325C409.276,-682.899 486.803,-547.191 419,-470 409.773,-459.495 341.047,-451.666 282.298,-446.808"/>
<polygon fill="midnightblue" stroke="midnightblue" points="373.891,-730.509 371.239,-740.767 379.709,-734.402 373.891,-730.509"/>
</g>
<!-- Node8&#45;&gt;Node5 -->
<g id="edge14" class="edge"><title>Node8&#45;&gt;Node5</title>
<path fill="none" stroke="#9a32cd" stroke-dasharray="5,2" d="M187.921,-421.321C171.489,-381.293 134.674,-291.616 122.214,-261.266"/>
<polygon fill="#9a32cd" stroke="#9a32cd" points="184.771,-422.863 191.806,-430.785 191.246,-420.205 184.771,-422.863"/>
<text text-anchor="middle" x="295.5" y="-403" font-family="FreeSans" font-size="10.00"> LeftButtonReleaseEvtRelay</text>
<text text-anchor="middle" x="295.5" y="-391" font-family="FreeSans" font-size="10.00">KeyPressEvtRelay</text>
<text text-anchor="middle" x="295.5" y="-379" font-family="FreeSans" font-size="10.00">DomainModifiedEvtRelay</text>
<text text-anchor="middle" x="295.5" y="-367" font-family="FreeSans" font-size="10.00">VolumeMapperComputeGradientsStartEvtRelay</text>
<text text-anchor="middle" x="295.5" y="-355" font-family="FreeSans" font-size="10.00">ErrorEvtRelay</text>
<text text-anchor="middle" x="295.5" y="-343" font-family="FreeSans" font-size="10.00">VolumeMapperRenderStartEvtRelay</text>
<text text-anchor="middle" x="295.5" y="-331" font-family="FreeSans" font-size="10.00">StartEvtRelay</text>
<text text-anchor="middle" x="295.5" y="-319" font-family="FreeSans" font-size="10.00">ResetCameraEvtRelay</text>
<text text-anchor="middle" x="295.5" y="-307" font-family="FreeSans" font-size="10.00">EnableEvtRelay</text>
<text text-anchor="middle" x="295.5" y="-295" font-family="FreeSans" font-size="10.00">DeleteEvtRelay</text>
<text text-anchor="middle" x="295.5" y="-283" font-family="FreeSans" font-size="10.00">...</text>
</g>
<!-- Node8&#45;&gt;Node9 -->
<g id="edge22" class="edge"><title>Node8&#45;&gt;Node9</title>
<path fill="none" stroke="#9a32cd" stroke-dasharray="5,2" d="M193.028,-461.231C192.649,-464.169 192.293,-467.159 192,-470 186.144,-526.853 182.636,-595.333 181.452,-620.807"/>
<polygon fill="#9a32cd" stroke="#9a32cd" points="196.515,-461.565 194.421,-451.179 189.582,-460.604 196.515,-461.565"/>
<text text-anchor="middle" x="305.5" y="-593" font-family="FreeSans" font-size="10.00"> LeftButtonReleaseEvtRelay</text>
<text text-anchor="middle" x="305.5" y="-581" font-family="FreeSans" font-size="10.00">KeyPressEvtRelay</text>
<text text-anchor="middle" x="305.5" y="-569" font-family="FreeSans" font-size="10.00">DomainModifiedEvtRelay</text>
<text text-anchor="middle" x="305.5" y="-557" font-family="FreeSans" font-size="10.00">VolumeMapperComputeGradientsStartEvtRelay</text>
<text text-anchor="middle" x="305.5" y="-545" font-family="FreeSans" font-size="10.00">ErrorEvtRelay</text>
<text text-anchor="middle" x="305.5" y="-533" font-family="FreeSans" font-size="10.00">VolumeMapperRenderStartEvtRelay</text>
<text text-anchor="middle" x="305.5" y="-521" font-family="FreeSans" font-size="10.00">StartEvtRelay</text>
<text text-anchor="middle" x="305.5" y="-509" font-family="FreeSans" font-size="10.00">ResetCameraEvtRelay</text>
<text text-anchor="middle" x="305.5" y="-497" font-family="FreeSans" font-size="10.00">EnableEvtRelay</text>
<text text-anchor="middle" x="305.5" y="-485" font-family="FreeSans" font-size="10.00">DeleteEvtRelay</text>
<text text-anchor="middle" x="305.5" y="-473" font-family="FreeSans" font-size="10.00">...</text>
</g>
<!-- Node9&#45;&gt;Node8 -->
<g id="edge18" class="edge"><title>Node9&#45;&gt;Node8</title>
<path fill="none" stroke="#9a32cd" stroke-dasharray="5,2" d="M134.979,-615.818C129.439,-612.138 124.51,-607.596 121,-602 89.8229,-552.303 87.8299,-518.389 121,-470 125.736,-463.091 142.511,-456.287 158.999,-451.008"/>
<polygon fill="#9a32cd" stroke="#9a32cd" points="133.639,-619.079 144.072,-620.919 137.064,-612.974 133.639,-619.079"/>
<text text-anchor="middle" x="145" y="-539" font-family="FreeSans" font-size="10.00"> Sender</text>
<text text-anchor="middle" x="145" y="-527" font-family="FreeSans" font-size="10.00">EventImpl</text>
</g>
</g>
</svg>
