<?xml version="1.0" encoding="UTF-8" standalone="no"?>
<!DOCTYPE svg PUBLIC "-//W3C//DTD SVG 1.1//EN"
 "http://www.w3.org/Graphics/SVG/1.1/DTD/svg11.dtd">
<!-- Generated by graphviz version 2.26.3 (20100126.1600)
 -->
<!-- Title: G Pages: 1 -->
<svg width="2284pt" height="845pt"
 viewBox="0.00 0.00 2284.00 845.00" xmlns="http://www.w3.org/2000/svg" xmlns:xlink="http://www.w3.org/1999/xlink">
<g id="graph1" class="graph" transform="scale(1 1) rotate(0) translate(4 841)">
<title>G</title>
<!-- Node1 -->
<g id="node1" class="node"><title>Node1</title>
<polygon fill="#bfbfbf" stroke="black" points="460,-209 460,-229 626,-229 626,-209 460,-209"/>
<text text-anchor="middle" x="543" y="-216" font-family="FreeSans" font-size="10.00">Kitware.VTK.vtkAbstractMapper</text>
</g>
<!-- Node6 -->
<g id="node11" class="node"><title>Node6</title>
<a xlink:href="class_kitware_1_1_v_t_k_1_1vtk_abstract_mapper3_d.html" target="_top" xlink:title="vtkAbstractMapper3D &#45; abstract class specifies interface to map 3D data">
<polygon fill="none" stroke="black" points="662.5,-304 662.5,-324 841.5,-324 841.5,-304 662.5,-304"/>
<text text-anchor="middle" x="752" y="-311" font-family="FreeSans" font-size="10.00">Kitware.VTK.vtkAbstractMapper3D</text>
</a>
</g>
<!-- Node1&#45;&gt;Node6 -->
<g id="edge10" class="edge"><title>Node1&#45;&gt;Node6</title>
<path fill="none" stroke="midnightblue" d="M574.472,-233.305C617.201,-252.728 692.505,-286.957 729.794,-303.906"/>
<polygon fill="midnightblue" stroke="midnightblue" points="575.919,-230.118 565.367,-229.167 573.022,-236.491 575.919,-230.118"/>
</g>
<!-- Node40 -->
<g id="node79" class="node"><title>Node40</title>
<a xlink:href="class_kitware_1_1_v_t_k_1_1vtk_mapper2_d.html" target="_top" xlink:title="vtkMapper2D &#45; abstract class specifies interface for objects which render 2D actors">
<polygon fill="none" stroke="black" points="682.5,-95 682.5,-115 821.5,-115 821.5,-95 682.5,-95"/>
<text text-anchor="middle" x="752" y="-102" font-family="FreeSans" font-size="10.00">Kitware.VTK.vtkMapper2D</text>
</a>
</g>
<!-- Node1&#45;&gt;Node40 -->
<g id="edge78" class="edge"><title>Node1&#45;&gt;Node40</title>
<path fill="none" stroke="midnightblue" d="M570.39,-204.06C613.629,-180.475 696.579,-135.23 733.494,-115.094"/>
<polygon fill="midnightblue" stroke="midnightblue" points="568.65,-201.022 561.547,-208.883 572.002,-207.167 568.65,-201.022"/>
</g>
<!-- Node2 -->
<g id="node2" class="node"><title>Node2</title>
<a xlink:href="class_kitware_1_1_v_t_k_1_1vtk_algorithm.html" target="_top" xlink:title="vtkAlgorithm &#45; Superclass for all sources, filters, and sinks in VTK.">
<polygon fill="none" stroke="black" points="346.5,-209 346.5,-229 423.5,-229 423.5,-209 346.5,-209"/>
<text text-anchor="middle" x="385" y="-216" font-family="FreeSans" font-size="10.00">vtkAlgorithm</text>
</a>
</g>
<!-- Node2&#45;&gt;Node1 -->
<g id="edge2" class="edge"><title>Node2&#45;&gt;Node1</title>
<path fill="none" stroke="midnightblue" d="M433.843,-219C442.137,-219 450.953,-219 459.838,-219"/>
<polygon fill="midnightblue" stroke="midnightblue" points="433.651,-215.5 423.651,-219 433.651,-222.5 433.651,-215.5"/>
</g>
<!-- Node3 -->
<g id="node4" class="node"><title>Node3</title>
<a xlink:href="class_kitware_1_1_v_t_k_1_1vtk_object.html" target="_top" xlink:title="vtkObject &#45; abstract base class for most VTK objects">
<polygon fill="none" stroke="black" points="248,-209 248,-229 310,-229 310,-209 248,-209"/>
<text text-anchor="middle" x="279" y="-216" font-family="FreeSans" font-size="10.00">vtkObject</text>
</a>
</g>
<!-- Node3&#45;&gt;Node2 -->
<g id="edge4" class="edge"><title>Node3&#45;&gt;Node2</title>
<path fill="none" stroke="midnightblue" d="M320.421,-219C329.001,-219 338.007,-219 346.479,-219"/>
<polygon fill="midnightblue" stroke="midnightblue" points="320.23,-215.5 310.23,-219 320.23,-222.5 320.23,-215.5"/>
</g>
<!-- Node4 -->
<g id="node6" class="node"><title>Node4</title>
<a xlink:href="class_kitware_1_1_v_t_k_1_1vtk_object_base.html" target="_top" xlink:title="vtkObjectBase &#45; abstract base class for most VTK objects">
<polygon fill="none" stroke="black" points="126,-209 126,-229 212,-229 212,-209 126,-209"/>
<text text-anchor="middle" x="169" y="-216" font-family="FreeSans" font-size="10.00">vtkObjectBase</text>
</a>
</g>
<!-- Node4&#45;&gt;Node3 -->
<g id="edge6" class="edge"><title>Node4&#45;&gt;Node3</title>
<path fill="none" stroke="midnightblue" d="M222.346,-219C231.091,-219 239.892,-219 247.863,-219"/>
<polygon fill="midnightblue" stroke="midnightblue" points="222.159,-215.5 212.159,-219 222.159,-222.5 222.159,-215.5"/>
</g>
<!-- Node5 -->
<g id="node8" class="node"><title>Node5</title>
<a xlink:href="class_kitware_1_1_v_t_k_1_1_wrapped_object.html" target="_top" xlink:title="Base class for all the mummy wrapped classes in Kitware.VTK.">
<polygon fill="none" stroke="black" points="0.5,-209 0.5,-229 89.5,-229 89.5,-209 0.5,-209"/>
<text text-anchor="middle" x="45" y="-216" font-family="FreeSans" font-size="10.00">WrappedObject</text>
</a>
</g>
<!-- Node5&#45;&gt;Node4 -->
<g id="edge8" class="edge"><title>Node5&#45;&gt;Node4</title>
<path fill="none" stroke="midnightblue" d="M99.8895,-219C108.623,-219 117.548,-219 125.957,-219"/>
<polygon fill="midnightblue" stroke="midnightblue" points="99.7669,-215.5 89.7668,-219 99.7668,-222.5 99.7669,-215.5"/>
</g>
<!-- Node7 -->
<g id="node13" class="node"><title>Node7</title>
<a xlink:href="class_kitware_1_1_v_t_k_1_1vtk_abstract_volume_mapper.html" target="_top" xlink:title="vtkAbstractVolumeMapper &#45; Abstract class for a volume mapper">
<polygon fill="none" stroke="black" points="878,-513 878,-533 1080,-533 1080,-513 878,-513"/>
<text text-anchor="middle" x="979" y="-520" font-family="FreeSans" font-size="10.00">Kitware.VTK.vtkAbstractVolumeMapper</text>
</a>
</g>
<!-- Node6&#45;&gt;Node7 -->
<g id="edge12" class="edge"><title>Node6&#45;&gt;Node7</title>
<path fill="none" stroke="midnightblue" d="M770.577,-331.104C815.99,-372.916 931.567,-479.328 967.895,-512.776"/>
<polygon fill="midnightblue" stroke="midnightblue" points="772.676,-328.279 762.949,-324.081 767.935,-333.429 772.676,-328.279"/>
</g>
<!-- Node29 -->
<g id="node57" class="node"><title>Node29</title>
<a xlink:href="class_kitware_1_1_v_t_k_1_1vtk_mapper.html" target="_top" xlink:title="vtkMapper &#45; abstract class specifies interface to map data to graphics primitives">
<polygon fill="none" stroke="black" points="916.5,-304 916.5,-324 1041.5,-324 1041.5,-304 916.5,-304"/>
<text text-anchor="middle" x="979" y="-311" font-family="FreeSans" font-size="10.00">Kitware.VTK.vtkMapper</text>
</a>
</g>
<!-- Node6&#45;&gt;Node29 -->
<g id="edge56" class="edge"><title>Node6&#45;&gt;Node29</title>
<path fill="none" stroke="midnightblue" d="M851.764,-314C873.766,-314 896.466,-314 916.493,-314"/>
<polygon fill="midnightblue" stroke="midnightblue" points="851.716,-310.5 841.716,-314 851.716,-317.5 851.716,-310.5"/>
</g>
<!-- Node8 -->
<g id="node15" class="node"><title>Node8</title>
<a xlink:href="class_kitware_1_1_v_t_k_1_1vtk_unstructured_grid_volume_mapper.html" target="_top" xlink:title="vtkUnstructuredGridVolumeMapper &#45; Abstract class for a unstructured grid volume mapper">
<polygon fill="none" stroke="black" points="1116,-722 1116,-742 1360,-742 1360,-722 1116,-722"/>
<text text-anchor="middle" x="1238" y="-729" font-family="FreeSans" font-size="10.00">Kitware.VTK.vtkUnstructuredGridVolumeMapper</text>
</a>
</g>
<!-- Node7&#45;&gt;Node8 -->
<g id="edge14" class="edge"><title>Node7&#45;&gt;Node8</title>
<path fill="none" stroke="midnightblue" d="M999.555,-539.587C1050.92,-581.032 1183.71,-688.189 1225.33,-721.776"/>
<polygon fill="midnightblue" stroke="midnightblue" points="1001.47,-536.637 991.492,-533.081 997.076,-542.084 1001.47,-536.637"/>
</g>
<!-- Node17 -->
<g id="node33" class="node"><title>Node17</title>
<a xlink:href="class_kitware_1_1_v_t_k_1_1vtk_volume_mapper.html" target="_top" xlink:title="vtkVolumeMapper &#45; Abstract class for a volume mapper">
<polygon fill="none" stroke="black" points="1157.5,-513 1157.5,-533 1318.5,-533 1318.5,-513 1157.5,-513"/>
<text text-anchor="middle" x="1238" y="-520" font-family="FreeSans" font-size="10.00">Kitware.VTK.vtkVolumeMapper</text>
</a>
</g>
<!-- Node7&#45;&gt;Node17 -->
<g id="edge32" class="edge"><title>Node7&#45;&gt;Node17</title>
<path fill="none" stroke="midnightblue" d="M1090.5,-523C1112.93,-523 1136.1,-523 1157.25,-523"/>
<polygon fill="midnightblue" stroke="midnightblue" points="1090.25,-519.5 1080.25,-523 1090.25,-526.5 1090.25,-519.5"/>
</g>
<!-- Node9 -->
<g id="node17" class="node"><title>Node9</title>
<a xlink:href="class_kitware_1_1_v_t_k_1_1vtk_h_a_v_s_volume_mapper.html" target="_top" xlink:title="vtkHAVSVolumeMapper &#45; Hardware&#45;Assisted Visibility Sorting unstructured grid mapper">
<polygon fill="none" stroke="black" points="1444,-817 1444,-837 1632,-837 1632,-817 1444,-817"/>
<text text-anchor="middle" x="1538" y="-824" font-family="FreeSans" font-size="10.00">Kitware.VTK.vtkHAVSVolumeMapper</text>
</a>
</g>
<!-- Node8&#45;&gt;Node9 -->
<g id="edge16" class="edge"><title>Node8&#45;&gt;Node9</title>
<path fill="none" stroke="midnightblue" d="M1263.01,-747.112C1293.35,-764.7 1346.58,-793.216 1396,-808 1411.25,-812.562 1427.75,-816.031 1443.92,-818.668"/>
<polygon fill="midnightblue" stroke="midnightblue" points="1264.76,-744.078 1254.36,-742.032 1261.21,-750.114 1264.76,-744.078"/>
</g>
<!-- Node11 -->
<g id="node21" class="node"><title>Node11</title>
<a xlink:href="class_kitware_1_1_v_t_k_1_1vtk_projected_a_a_hexahedra_mapper.html" target="_top" xlink:title="vtkProjectedAAHexahedraMapper &#45; volume mapper for axis&#45;aligned hexahedra">
<polygon fill="none" stroke="black" points="1420,-779 1420,-799 1656,-799 1656,-779 1420,-779"/>
<text text-anchor="middle" x="1538" y="-786" font-family="FreeSans" font-size="10.00">Kitware.VTK.vtkProjectedAAHexahedraMapper</text>
</a>
</g>
<!-- Node8&#45;&gt;Node11 -->
<g id="edge20" class="edge"><title>Node8&#45;&gt;Node11</title>
<path fill="none" stroke="midnightblue" d="M1284.88,-744.616C1316.17,-752.705 1358.34,-762.97 1396,-770 1414.09,-773.377 1433.59,-776.389 1452.17,-778.965"/>
<polygon fill="midnightblue" stroke="midnightblue" points="1285.68,-741.208 1275.12,-742.073 1283.91,-747.981 1285.68,-741.208"/>
</g>
<!-- Node13 -->
<g id="node25" class="node"><title>Node13</title>
<a xlink:href="class_kitware_1_1_v_t_k_1_1vtk_projected_tetrahedra_mapper.html" target="_top" xlink:title="vtkProjectedTetrahedraMapper &#45; Unstructured grid volume renderer.">
<polygon fill="none" stroke="black" points="1427.5,-741 1427.5,-761 1648.5,-761 1648.5,-741 1427.5,-741"/>
<text text-anchor="middle" x="1538" y="-748" font-family="FreeSans" font-size="10.00">Kitware.VTK.vtkProjectedTetrahedraMapper</text>
</a>
</g>
<!-- Node8&#45;&gt;Node13 -->
<g id="edge24" class="edge"><title>Node8&#45;&gt;Node13</title>
<path fill="none" stroke="midnightblue" d="M1370.23,-740.375C1389.25,-741.579 1408.65,-742.808 1427.2,-743.982"/>
<polygon fill="midnightblue" stroke="midnightblue" points="1370.22,-736.867 1360.02,-739.728 1369.78,-743.853 1370.22,-736.867"/>
</g>
<!-- Node15 -->
<g id="node29" class="node"><title>Node15</title>
<a xlink:href="class_kitware_1_1_v_t_k_1_1vtk_unstructured_grid_volume_ray_cast_mapper.html" target="_top" xlink:title="vtkUnstructuredGridVolumeRayCastMapper &#45; A software mapper for unstructured volumes">
<polygon fill="none" stroke="black" points="1396.5,-703 1396.5,-723 1679.5,-723 1679.5,-703 1396.5,-703"/>
<text text-anchor="middle" x="1538" y="-710" font-family="FreeSans" font-size="10.00">Kitware.VTK.vtkUnstructuredGridVolumeRayCastMapper</text>
</a>
</g>
<!-- Node8&#45;&gt;Node15 -->
<g id="edge28" class="edge"><title>Node8&#45;&gt;Node15</title>
<path fill="none" stroke="midnightblue" d="M1370.2,-723.627C1378.91,-723.076 1387.7,-722.519 1396.46,-721.964"/>
<polygon fill="midnightblue" stroke="midnightblue" points="1369.78,-720.147 1360.02,-724.272 1370.22,-727.133 1369.78,-720.147"/>
</g>
<!-- Node16 -->
<g id="node31" class="node"><title>Node16</title>
<a xlink:href="class_kitware_1_1_v_t_k_1_1vtk_unstructured_grid_volume_z_sweep_mapper.html" target="_top" xlink:title="vtkUnstructuredGridVolumeZSweepMapper &#45; Unstructured grid volume mapper based the ZSweep Algorithm...">
<polygon fill="none" stroke="black" points="1396.5,-665 1396.5,-685 1679.5,-685 1679.5,-665 1396.5,-665"/>
<text text-anchor="middle" x="1538" y="-672" font-family="FreeSans" font-size="10.00">Kitware.VTK.vtkUnstructuredGridVolumeZSweepMapper</text>
</a>
</g>
<!-- Node8&#45;&gt;Node16 -->
<g id="edge30" class="edge"><title>Node8&#45;&gt;Node16</title>
<path fill="none" stroke="midnightblue" d="M1284.88,-719.384C1316.17,-711.295 1358.34,-701.03 1396,-694 1414.09,-690.623 1433.59,-687.611 1452.17,-685.035"/>
<polygon fill="midnightblue" stroke="midnightblue" points="1283.91,-716.019 1275.12,-721.927 1285.68,-722.792 1283.91,-716.019"/>
</g>
<!-- Node10 -->
<g id="node19" class="node"><title>Node10</title>
<a xlink:href="class_kitware_1_1_v_t_k_1_1vtk_open_g_l_h_a_v_s_volume_mapper.html" target="_top" xlink:title="vtkOpenGLHAVSVolumeMapper &#45; Hardware&#45;Assisted Visibility Sorting unstructured grid mapper...">
<polygon fill="none" stroke="black" points="1740.5,-817 1740.5,-837 1967.5,-837 1967.5,-817 1740.5,-817"/>
<text text-anchor="middle" x="1854" y="-824" font-family="FreeSans" font-size="10.00">Kitware.VTK.vtkOpenGLHAVSVolumeMapper</text>
</a>
</g>
<!-- Node9&#45;&gt;Node10 -->
<g id="edge18" class="edge"><title>Node9&#45;&gt;Node10</title>
<path fill="none" stroke="midnightblue" d="M1642.45,-827C1673.81,-827 1708.37,-827 1740.3,-827"/>
<polygon fill="midnightblue" stroke="midnightblue" points="1642.38,-823.5 1632.38,-827 1642.38,-830.5 1642.38,-823.5"/>
</g>
<!-- Node12 -->
<g id="node23" class="node"><title>Node12</title>
<a xlink:href="class_kitware_1_1_v_t_k_1_1vtk_open_g_l_projected_a_a_hexahedra_mapper.html" target="_top" xlink:title="vtkOpenGLProjectedAAHexahedraMapper &#45; OpenGL implementation of a volume mapper for axis&#45;aligned hexah...">
<polygon fill="none" stroke="black" points="1716.5,-779 1716.5,-799 1991.5,-799 1991.5,-779 1716.5,-779"/>
<text text-anchor="middle" x="1854" y="-786" font-family="FreeSans" font-size="10.00">Kitware.VTK.vtkOpenGLProjectedAAHexahedraMapper</text>
</a>
</g>
<!-- Node11&#45;&gt;Node12 -->
<g id="edge22" class="edge"><title>Node11&#45;&gt;Node12</title>
<path fill="none" stroke="midnightblue" d="M1666.31,-789C1682.79,-789 1699.71,-789 1716.33,-789"/>
<polygon fill="midnightblue" stroke="midnightblue" points="1666.12,-785.5 1656.12,-789 1666.12,-792.5 1666.12,-785.5"/>
</g>
<!-- Node14 -->
<g id="node27" class="node"><title>Node14</title>
<a xlink:href="class_kitware_1_1_v_t_k_1_1vtk_open_g_l_projected_tetrahedra_mapper.html" target="_top" xlink:title="vtkOpenGLProjectedTetrahedraMapper &#45; OpenGL implementation of PT">
<polygon fill="none" stroke="black" points="1724,-741 1724,-761 1984,-761 1984,-741 1724,-741"/>
<text text-anchor="middle" x="1854" y="-748" font-family="FreeSans" font-size="10.00">Kitware.VTK.vtkOpenGLProjectedTetrahedraMapper</text>
</a>
</g>
<!-- Node13&#45;&gt;Node14 -->
<g id="edge26" class="edge"><title>Node13&#45;&gt;Node14</title>
<path fill="none" stroke="midnightblue" d="M1658.57,-751C1679.89,-751 1702.18,-751 1723.75,-751"/>
<polygon fill="midnightblue" stroke="midnightblue" points="1658.52,-747.5 1648.52,-751 1658.52,-754.5 1658.52,-747.5"/>
</g>
<!-- Node18 -->
<g id="node35" class="node"><title>Node18</title>
<a xlink:href="class_kitware_1_1_v_t_k_1_1vtk_fixed_point_volume_ray_cast_mapper.html" target="_top" xlink:title="vtkFixedPointVolumeRayCastMapper &#45; A fixed point mapper for volumes">
<polygon fill="none" stroke="black" points="1414,-627 1414,-647 1662,-647 1662,-627 1414,-627"/>
<text text-anchor="middle" x="1538" y="-634" font-family="FreeSans" font-size="10.00">Kitware.VTK.vtkFixedPointVolumeRayCastMapper</text>
</a>
</g>
<!-- Node17&#45;&gt;Node18 -->
<g id="edge34" class="edge"><title>Node17&#45;&gt;Node18</title>
<path fill="none" stroke="midnightblue" d="M1258.72,-539.307C1287.65,-561.14 1342.62,-599.287 1396,-618 1406.33,-621.621 1417.3,-624.558 1428.39,-626.94"/>
<polygon fill="midnightblue" stroke="midnightblue" points="1260.67,-536.396 1250.6,-533.094 1256.42,-541.953 1260.67,-536.396"/>
</g>
<!-- Node19 -->
<g id="node37" class="node"><title>Node19</title>
<a xlink:href="class_kitware_1_1_v_t_k_1_1vtk_g_p_u_volume_ray_cast_mapper.html" target="_top" xlink:title="vtkGPUVolumeRayCastMapper &#45; Ray casting performed on the GPU.">
<polygon fill="none" stroke="black" points="1427.5,-589 1427.5,-609 1648.5,-609 1648.5,-589 1427.5,-589"/>
<text text-anchor="middle" x="1538" y="-596" font-family="FreeSans" font-size="10.00">Kitware.VTK.vtkGPUVolumeRayCastMapper</text>
</a>
</g>
<!-- Node17&#45;&gt;Node19 -->
<g id="edge36" class="edge"><title>Node17&#45;&gt;Node19</title>
<path fill="none" stroke="midnightblue" d="M1270.65,-537.103C1302.17,-550.156 1351.52,-569.134 1396,-580 1410.74,-583.601 1426.52,-586.564 1442,-588.99"/>
<polygon fill="midnightblue" stroke="midnightblue" points="1271.65,-533.727 1261.08,-533.091 1268.95,-540.183 1271.65,-533.727"/>
</g>
<!-- Node21 -->
<g id="node41" class="node"><title>Node21</title>
<a xlink:href="class_kitware_1_1_v_t_k_1_1vtk_smart_volume_mapper.html" target="_top" xlink:title="vtkSmartVolumeMapper &#45; Adaptive volume mapper">
<polygon fill="none" stroke="black" points="1442.5,-551 1442.5,-571 1633.5,-571 1633.5,-551 1442.5,-551"/>
<text text-anchor="middle" x="1538" y="-558" font-family="FreeSans" font-size="10.00">Kitware.VTK.vtkSmartVolumeMapper</text>
</a>
</g>
<!-- Node17&#45;&gt;Node21 -->
<g id="edge40" class="edge"><title>Node17&#45;&gt;Node21</title>
<path fill="none" stroke="midnightblue" d="M1327.38,-534.322C1369.15,-539.613 1418.46,-545.858 1458.86,-550.976"/>
<polygon fill="midnightblue" stroke="midnightblue" points="1327.57,-530.818 1317.21,-533.034 1326.69,-537.763 1327.57,-530.818"/>
</g>
<!-- Node22 -->
<g id="node43" class="node"><title>Node22</title>
<a xlink:href="class_kitware_1_1_v_t_k_1_1vtk_volume_pro_mapper.html" target="_top" xlink:title="vtkVolumeProMapper &#45; Superclass for VolumePRO volume rendering mappers">
<polygon fill="none" stroke="black" points="1449.5,-513 1449.5,-533 1626.5,-533 1626.5,-513 1449.5,-513"/>
<text text-anchor="middle" x="1538" y="-520" font-family="FreeSans" font-size="10.00">Kitware.VTK.vtkVolumeProMapper</text>
</a>
</g>
<!-- Node17&#45;&gt;Node22 -->
<g id="edge42" class="edge"><title>Node17&#45;&gt;Node22</title>
<path fill="none" stroke="midnightblue" d="M1328.88,-523C1367.11,-523 1411.44,-523 1449.42,-523"/>
<polygon fill="midnightblue" stroke="midnightblue" points="1328.79,-519.5 1318.79,-523 1328.79,-526.5 1328.79,-519.5"/>
</g>
<!-- Node23 -->
<g id="node45" class="node"><title>Node23</title>
<a xlink:href="class_kitware_1_1_v_t_k_1_1vtk_volume_ray_cast_mapper.html" target="_top" xlink:title="vtkVolumeRayCastMapper &#45; A slow but accurate mapper for rendering volumes">
<polygon fill="none" stroke="black" points="1438,-475 1438,-495 1638,-495 1638,-475 1438,-475"/>
<text text-anchor="middle" x="1538" y="-482" font-family="FreeSans" font-size="10.00">Kitware.VTK.vtkVolumeRayCastMapper</text>
</a>
</g>
<!-- Node17&#45;&gt;Node23 -->
<g id="edge44" class="edge"><title>Node17&#45;&gt;Node23</title>
<path fill="none" stroke="midnightblue" d="M1327.38,-511.678C1369.15,-506.387 1418.46,-500.142 1458.86,-495.024"/>
<polygon fill="midnightblue" stroke="midnightblue" points="1326.69,-508.237 1317.21,-512.966 1327.57,-515.182 1326.69,-508.237"/>
</g>
<!-- Node24 -->
<g id="node47" class="node"><title>Node24</title>
<a xlink:href="class_kitware_1_1_v_t_k_1_1vtk_volume_texture_mapper.html" target="_top" xlink:title="vtkVolumeTextureMapper &#45; Abstract class for a volume mapper">
<polygon fill="none" stroke="black" points="1440,-437 1440,-457 1636,-457 1636,-437 1440,-437"/>
<text text-anchor="middle" x="1538" y="-444" font-family="FreeSans" font-size="10.00">Kitware.VTK.vtkVolumeTextureMapper</text>
</a>
</g>
<!-- Node17&#45;&gt;Node24 -->
<g id="edge46" class="edge"><title>Node17&#45;&gt;Node24</title>
<path fill="none" stroke="midnightblue" d="M1270.65,-508.897C1302.17,-495.844 1351.52,-476.866 1396,-466 1410.74,-462.399 1426.52,-459.436 1442,-457.01"/>
<polygon fill="midnightblue" stroke="midnightblue" points="1268.95,-505.817 1261.08,-512.909 1271.65,-512.273 1268.95,-505.817"/>
</g>
<!-- Node27 -->
<g id="node53" class="node"><title>Node27</title>
<a xlink:href="class_kitware_1_1_v_t_k_1_1vtk_volume_texture_mapper3_d.html" target="_top" xlink:title="vtkVolumeTextureMapper3D &#45; volume render with 3D texture mapping">
<polygon fill="none" stroke="black" points="1433.5,-399 1433.5,-419 1642.5,-419 1642.5,-399 1433.5,-399"/>
<text text-anchor="middle" x="1538" y="-406" font-family="FreeSans" font-size="10.00">Kitware.VTK.vtkVolumeTextureMapper3D</text>
</a>
</g>
<!-- Node17&#45;&gt;Node27 -->
<g id="edge52" class="edge"><title>Node17&#45;&gt;Node27</title>
<path fill="none" stroke="midnightblue" d="M1258.72,-506.693C1287.65,-484.86 1342.62,-446.713 1396,-428 1407.85,-423.845 1420.56,-420.589 1433.31,-418.041"/>
<polygon fill="midnightblue" stroke="midnightblue" points="1256.42,-504.047 1250.6,-512.906 1260.67,-509.604 1256.42,-504.047"/>
</g>
<!-- Node20 -->
<g id="node39" class="node"><title>Node20</title>
<a xlink:href="class_kitware_1_1_v_t_k_1_1vtk_open_g_l_g_p_u_volume_ray_cast_mapper.html" target="_top" xlink:title="vtkOpenGLGPUVolumeRayCastMapper &#45; OpenGL subclass that draws the image to the screen">
<polygon fill="none" stroke="black" points="1724,-589 1724,-609 1984,-609 1984,-589 1724,-589"/>
<text text-anchor="middle" x="1854" y="-596" font-family="FreeSans" font-size="10.00">Kitware.VTK.vtkOpenGLGPUVolumeRayCastMapper</text>
</a>
</g>
<!-- Node19&#45;&gt;Node20 -->
<g id="edge38" class="edge"><title>Node19&#45;&gt;Node20</title>
<path fill="none" stroke="midnightblue" d="M1658.57,-599C1679.89,-599 1702.18,-599 1723.75,-599"/>
<polygon fill="midnightblue" stroke="midnightblue" points="1658.52,-595.5 1648.52,-599 1658.52,-602.5 1658.52,-595.5"/>
</g>
<!-- Node25 -->
<g id="node49" class="node"><title>Node25</title>
<a xlink:href="class_kitware_1_1_v_t_k_1_1vtk_volume_texture_mapper2_d.html" target="_top" xlink:title="vtkVolumeTextureMapper2D &#45; Abstract class for a volume mapper">
<polygon fill="none" stroke="black" points="1749.5,-437 1749.5,-457 1958.5,-457 1958.5,-437 1749.5,-437"/>
<text text-anchor="middle" x="1854" y="-444" font-family="FreeSans" font-size="10.00">Kitware.VTK.vtkVolumeTextureMapper2D</text>
</a>
</g>
<!-- Node24&#45;&gt;Node25 -->
<g id="edge48" class="edge"><title>Node24&#45;&gt;Node25</title>
<path fill="none" stroke="midnightblue" d="M1646.46,-447C1679.72,-447 1716.23,-447 1749.24,-447"/>
<polygon fill="midnightblue" stroke="midnightblue" points="1646.25,-443.5 1636.25,-447 1646.25,-450.5 1646.25,-443.5"/>
</g>
<!-- Node26 -->
<g id="node51" class="node"><title>Node26</title>
<a xlink:href="class_kitware_1_1_v_t_k_1_1vtk_open_g_l_volume_texture_mapper2_d.html" target="_top" xlink:title="vtkOpenGLVolumeTextureMapper2D &#45; Abstract class for a volume mapper">
<polygon fill="none" stroke="black" points="2028.5,-437 2028.5,-457 2275.5,-457 2275.5,-437 2028.5,-437"/>
<text text-anchor="middle" x="2152" y="-444" font-family="FreeSans" font-size="10.00">Kitware.VTK.vtkOpenGLVolumeTextureMapper2D</text>
</a>
</g>
<!-- Node25&#45;&gt;Node26 -->
<g id="edge50" class="edge"><title>Node25&#45;&gt;Node26</title>
<path fill="none" stroke="midnightblue" d="M1968.78,-447C1988.32,-447 2008.69,-447 2028.45,-447"/>
<polygon fill="midnightblue" stroke="midnightblue" points="1968.64,-443.5 1958.64,-447 1968.64,-450.5 1968.64,-443.5"/>
</g>
<!-- Node28 -->
<g id="node55" class="node"><title>Node28</title>
<a xlink:href="class_kitware_1_1_v_t_k_1_1vtk_open_g_l_volume_texture_mapper3_d.html" target="_top" xlink:title="vtkOpenGLVolumeTextureMapper3D &#45; concrete implementation of 3D volume texture mapping">
<polygon fill="none" stroke="black" points="1730.5,-399 1730.5,-419 1977.5,-419 1977.5,-399 1730.5,-399"/>
<text text-anchor="middle" x="1854" y="-406" font-family="FreeSans" font-size="10.00">Kitware.VTK.vtkOpenGLVolumeTextureMapper3D</text>
</a>
</g>
<!-- Node27&#45;&gt;Node28 -->
<g id="edge54" class="edge"><title>Node27&#45;&gt;Node28</title>
<path fill="none" stroke="midnightblue" d="M1653.07,-409C1678.19,-409 1704.87,-409 1730.31,-409"/>
<polygon fill="midnightblue" stroke="midnightblue" points="1652.78,-405.5 1642.78,-409 1652.78,-412.5 1652.78,-405.5"/>
</g>
<!-- Node30 -->
<g id="node59" class="node"><title>Node30</title>
<a xlink:href="class_kitware_1_1_v_t_k_1_1vtk_composite_poly_data_mapper.html" target="_top" xlink:title="vtkCompositePolyDataMapper &#45; a class that renders hierarchical polygonal data">
<polygon fill="none" stroke="black" points="1128,-380 1128,-400 1348,-400 1348,-380 1128,-380"/>
<text text-anchor="middle" x="1238" y="-387" font-family="FreeSans" font-size="10.00">Kitware.VTK.vtkCompositePolyDataMapper</text>
</a>
</g>
<!-- Node29&#45;&gt;Node30 -->
<g id="edge58" class="edge"><title>Node29&#45;&gt;Node30</title>
<path fill="none" stroke="midnightblue" d="M1008.22,-328.572C1035.47,-341.575 1077.57,-360.183 1116,-371 1128.69,-374.572 1142.32,-377.524 1155.72,-379.949"/>
<polygon fill="midnightblue" stroke="midnightblue" points="1009.41,-325.261 998.883,-324.06 1006.36,-331.564 1009.41,-325.261"/>
</g>
<!-- Node32 -->
<g id="node63" class="node"><title>Node32</title>
<a xlink:href="class_kitware_1_1_v_t_k_1_1vtk_data_set_mapper.html" target="_top" xlink:title="vtkDataSetMapper &#45; map vtkDataSet and derived classes to graphics primitives">
<polygon fill="none" stroke="black" points="1155.5,-342 1155.5,-362 1320.5,-362 1320.5,-342 1155.5,-342"/>
<text text-anchor="middle" x="1238" y="-349" font-family="FreeSans" font-size="10.00">Kitware.VTK.vtkDataSetMapper</text>
</a>
</g>
<!-- Node29&#45;&gt;Node32 -->
<g id="edge62" class="edge"><title>Node29&#45;&gt;Node32</title>
<path fill="none" stroke="midnightblue" d="M1051.88,-324.693C1088.76,-330.104 1133.27,-336.635 1169.52,-341.952"/>
<polygon fill="midnightblue" stroke="midnightblue" points="1052.1,-321.188 1041.7,-323.199 1051.08,-328.113 1052.1,-321.188"/>
</g>
<!-- Node33 -->
<g id="node65" class="node"><title>Node33</title>
<a xlink:href="class_kitware_1_1_v_t_k_1_1vtk_glyph3_d_mapper.html" target="_top" xlink:title="vtkGlyph3DMapper &#45; vtkGlyph3D on the GPU.">
<polygon fill="none" stroke="black" points="1155,-304 1155,-324 1321,-324 1321,-304 1155,-304"/>
<text text-anchor="middle" x="1238" y="-311" font-family="FreeSans" font-size="10.00">Kitware.VTK.vtkGlyph3DMapper</text>
</a>
</g>
<!-- Node29&#45;&gt;Node33 -->
<g id="edge64" class="edge"><title>Node29&#45;&gt;Node33</title>
<path fill="none" stroke="midnightblue" d="M1051.88,-314C1083.91,-314 1121.7,-314 1154.83,-314"/>
<polygon fill="midnightblue" stroke="midnightblue" points="1051.7,-310.5 1041.7,-314 1051.7,-317.5 1051.7,-310.5"/>
</g>
<!-- Node35 -->
<g id="node69" class="node"><title>Node35</title>
<a xlink:href="class_kitware_1_1_v_t_k_1_1vtk_graph_mapper.html" target="_top" xlink:title="vtkGraphMapper &#45; map vtkGraph and derived classes to graphics primitives">
<polygon fill="none" stroke="black" points="1160.5,-266 1160.5,-286 1315.5,-286 1315.5,-266 1160.5,-266"/>
<text text-anchor="middle" x="1238" y="-273" font-family="FreeSans" font-size="10.00">Kitware.VTK.vtkGraphMapper</text>
</a>
</g>
<!-- Node29&#45;&gt;Node35 -->
<g id="edge68" class="edge"><title>Node29&#45;&gt;Node35</title>
<path fill="none" stroke="midnightblue" d="M1051.88,-303.307C1088.76,-297.896 1133.27,-291.365 1169.52,-286.048"/>
<polygon fill="midnightblue" stroke="midnightblue" points="1051.08,-299.887 1041.7,-304.801 1052.1,-306.812 1051.08,-299.887"/>
</g>
<!-- Node36 -->
<g id="node71" class="node"><title>Node36</title>
<a xlink:href="class_kitware_1_1_v_t_k_1_1vtk_poly_data_mapper.html" target="_top" xlink:title="vtkPolyDataMapper &#45; map vtkPolyData to graphics primitives">
<polygon fill="none" stroke="black" points="1154,-228 1154,-248 1322,-248 1322,-228 1154,-228"/>
<text text-anchor="middle" x="1238" y="-235" font-family="FreeSans" font-size="10.00">Kitware.VTK.vtkPolyDataMapper</text>
</a>
</g>
<!-- Node29&#45;&gt;Node36 -->
<g id="edge70" class="edge"><title>Node29&#45;&gt;Node36</title>
<path fill="none" stroke="midnightblue" d="M1008.22,-299.428C1035.47,-286.425 1077.57,-267.817 1116,-257 1128.69,-253.428 1142.32,-250.476 1155.72,-248.051"/>
<polygon fill="midnightblue" stroke="midnightblue" points="1006.36,-296.436 998.883,-303.94 1009.41,-302.739 1006.36,-296.436"/>
</g>
<!-- Node31 -->
<g id="node61" class="node"><title>Node31</title>
<a xlink:href="class_kitware_1_1_v_t_k_1_1vtk_hierarchical_poly_data_mapper.html" target="_top" xlink:title="vtkHierarchicalPolyDataMapper &#45; a class that renders hierarchical polygonal data">
<polygon fill="none" stroke="black" points="1426,-361 1426,-381 1650,-381 1650,-361 1426,-361"/>
<text text-anchor="middle" x="1538" y="-368" font-family="FreeSans" font-size="10.00">Kitware.VTK.vtkHierarchicalPolyDataMapper</text>
</a>
</g>
<!-- Node30&#45;&gt;Node31 -->
<g id="edge60" class="edge"><title>Node30&#45;&gt;Node31</title>
<path fill="none" stroke="midnightblue" d="M1358.21,-382.387C1380.59,-380.969 1403.88,-379.494 1426,-378.093"/>
<polygon fill="midnightblue" stroke="midnightblue" points="1357.76,-378.908 1348.01,-383.033 1358.21,-385.894 1357.76,-378.908"/>
</g>
<!-- Node34 -->
<g id="node67" class="node"><title>Node34</title>
<a xlink:href="class_kitware_1_1_v_t_k_1_1vtk_open_g_l_glyph3_d_mapper.html" target="_top" xlink:title="vtkOpenGLGlyph3DMapper &#45; vtkOpenGLGlyph3D on the GPU.">
<polygon fill="none" stroke="black" points="1436,-304 1436,-324 1640,-324 1640,-304 1436,-304"/>
<text text-anchor="middle" x="1538" y="-311" font-family="FreeSans" font-size="10.00">Kitware.VTK.vtkOpenGLGlyph3DMapper</text>
</a>
</g>
<!-- Node33&#45;&gt;Node34 -->
<g id="edge66" class="edge"><title>Node33&#45;&gt;Node34</title>
<path fill="none" stroke="midnightblue" d="M1331.32,-314C1364.52,-314 1402.07,-314 1435.96,-314"/>
<polygon fill="midnightblue" stroke="midnightblue" points="1331.17,-310.5 1321.17,-314 1331.17,-317.5 1331.17,-310.5"/>
</g>
<!-- Node37 -->
<g id="node73" class="node"><title>Node37</title>
<a xlink:href="class_kitware_1_1_v_t_k_1_1vtk_open_g_l_poly_data_mapper.html" target="_top" xlink:title="vtkOpenGLPolyDataMapper &#45; a PolyDataMapper for the OpenGL library">
<polygon fill="none" stroke="black" points="1435,-247 1435,-267 1641,-267 1641,-247 1435,-247"/>
<text text-anchor="middle" x="1538" y="-254" font-family="FreeSans" font-size="10.00">Kitware.VTK.vtkOpenGLPolyDataMapper</text>
</a>
</g>
<!-- Node36&#45;&gt;Node37 -->
<g id="edge72" class="edge"><title>Node36&#45;&gt;Node37</title>
<path fill="none" stroke="midnightblue" d="M1332.76,-244.001C1365.22,-246.057 1401.7,-248.368 1434.8,-250.464"/>
<polygon fill="midnightblue" stroke="midnightblue" points="1332.57,-240.482 1322.37,-243.343 1332.12,-247.468 1332.57,-240.482"/>
</g>
<!-- Node38 -->
<g id="node75" class="node"><title>Node38</title>
<a xlink:href="class_kitware_1_1_v_t_k_1_1vtk_painter_poly_data_mapper.html" target="_top" xlink:title="vtkPainterPolyDataMapper &#45; PolyDataMapper using painters">
<polygon fill="none" stroke="black" points="1437.5,-209 1437.5,-229 1638.5,-229 1638.5,-209 1437.5,-209"/>
<text text-anchor="middle" x="1538" y="-216" font-family="FreeSans" font-size="10.00">Kitware.VTK.vtkPainterPolyDataMapper</text>
</a>
</g>
<!-- Node36&#45;&gt;Node38 -->
<g id="edge74" class="edge"><title>Node36&#45;&gt;Node38</title>
<path fill="none" stroke="midnightblue" d="M1332.56,-232.011C1365.88,-229.901 1403.44,-227.522 1437.25,-225.381"/>
<polygon fill="midnightblue" stroke="midnightblue" points="1332.12,-228.532 1322.37,-232.657 1332.57,-235.518 1332.12,-228.532"/>
</g>
<!-- Node39 -->
<g id="node77" class="node"><title>Node39</title>
<a xlink:href="class_kitware_1_1_v_t_k_1_1vtk_composite_poly_data_mapper2.html" target="_top" xlink:title="vtkCompositePolyDataMapper2 &#45; mapper for composite dataset consisting of polygonal data...">
<polygon fill="none" stroke="black" points="1741,-209 1741,-229 1967,-229 1967,-209 1741,-209"/>
<text text-anchor="middle" x="1854" y="-216" font-family="FreeSans" font-size="10.00">Kitware.VTK.vtkCompositePolyDataMapper2</text>
</a>
</g>
<!-- Node38&#45;&gt;Node39 -->
<g id="edge76" class="edge"><title>Node38&#45;&gt;Node39</title>
<path fill="none" stroke="midnightblue" d="M1648.87,-219C1678.7,-219 1710.99,-219 1740.94,-219"/>
<polygon fill="midnightblue" stroke="midnightblue" points="1648.85,-215.5 1638.85,-219 1648.85,-222.5 1648.85,-215.5"/>
</g>
<!-- Node41 -->
<g id="node81" class="node"><title>Node41</title>
<a xlink:href="class_kitware_1_1_v_t_k_1_1vtk_image_mapper.html" target="_top" xlink:title="vtkImageMapper &#45; 2D image display">
<polygon fill="none" stroke="black" points="901.5,-171 901.5,-191 1056.5,-191 1056.5,-171 901.5,-171"/>
<text text-anchor="middle" x="979" y="-178" font-family="FreeSans" font-size="10.00">Kitware.VTK.vtkImageMapper</text>
</a>
</g>
<!-- Node40&#45;&gt;Node41 -->
<g id="edge80" class="edge"><title>Node40&#45;&gt;Node41</title>
<path fill="none" stroke="midnightblue" d="M791.843,-118.34C836.751,-133.375 908.74,-157.477 949.093,-170.987"/>
<polygon fill="midnightblue" stroke="midnightblue" points="792.738,-114.948 782.144,-115.092 790.515,-121.586 792.738,-114.948"/>
</g>
<!-- Node43 -->
<g id="node85" class="node"><title>Node43</title>
<a xlink:href="class_kitware_1_1_v_t_k_1_1vtk_labeled_data_mapper.html" target="_top" xlink:title="vtkLabeledDataMapper &#45; draw text labels at dataset points">
<polygon fill="none" stroke="black" points="886,-114 886,-134 1072,-134 1072,-114 886,-114"/>
<text text-anchor="middle" x="979" y="-121" font-family="FreeSans" font-size="10.00">Kitware.VTK.vtkLabeledDataMapper</text>
</a>
</g>
<!-- Node40&#45;&gt;Node43 -->
<g id="edge84" class="edge"><title>Node40&#45;&gt;Node43</title>
<path fill="none" stroke="midnightblue" d="M831.756,-111.676C849.171,-113.133 867.753,-114.689 885.645,-116.186"/>
<polygon fill="midnightblue" stroke="midnightblue" points="831.907,-108.176 821.65,-110.83 831.323,-115.152 831.907,-108.176"/>
</g>
<!-- Node47 -->
<g id="node93" class="node"><title>Node47</title>
<a xlink:href="class_kitware_1_1_v_t_k_1_1vtk_label_placement_mapper.html" target="_top" xlink:title="vtkLabelPlacementMapper &#45; Places and renders non&#45;overlapping labels.">
<polygon fill="none" stroke="black" points="878,-76 878,-96 1080,-96 1080,-76 878,-76"/>
<text text-anchor="middle" x="979" y="-83" font-family="FreeSans" font-size="10.00">Kitware.VTK.vtkLabelPlacementMapper</text>
</a>
</g>
<!-- Node40&#45;&gt;Node47 -->
<g id="edge92" class="edge"><title>Node40&#45;&gt;Node47</title>
<path fill="none" stroke="midnightblue" d="M831.784,-98.3221C846.637,-97.0788 862.338,-95.7646 877.735,-94.4759"/>
<polygon fill="midnightblue" stroke="midnightblue" points="831.323,-94.8483 821.65,-99.1703 831.907,-101.824 831.323,-94.8483"/>
</g>
<!-- Node48 -->
<g id="node95" class="node"><title>Node48</title>
<a xlink:href="class_kitware_1_1_v_t_k_1_1vtk_poly_data_mapper2_d.html" target="_top" xlink:title="vtkPolyDataMapper2D &#45; draw vtkPolyData onto the image plane">
<polygon fill="none" stroke="black" points="888,-38 888,-58 1070,-58 1070,-38 888,-38"/>
<text text-anchor="middle" x="979" y="-45" font-family="FreeSans" font-size="10.00">Kitware.VTK.vtkPolyDataMapper2D</text>
</a>
</g>
<!-- Node40&#45;&gt;Node48 -->
<g id="edge94" class="edge"><title>Node40&#45;&gt;Node48</title>
<path fill="none" stroke="midnightblue" d="M791.765,-91.8161C816.415,-83.9415 848.835,-74.1196 878,-67 891.433,-63.7208 905.99,-60.6857 919.758,-58.0475"/>
<polygon fill="midnightblue" stroke="midnightblue" points="790.491,-88.5491 782.047,-94.9479 792.639,-95.2117 790.491,-88.5491"/>
</g>
<!-- Node50 -->
<g id="node99" class="node"><title>Node50</title>
<a xlink:href="class_kitware_1_1_v_t_k_1_1vtk_text_mapper.html" target="_top" xlink:title="vtkTextMapper &#45; 2D text annotation">
<polygon fill="none" stroke="black" points="907,-0 907,-20 1051,-20 1051,-0 907,-0"/>
<text text-anchor="middle" x="979" y="-7" font-family="FreeSans" font-size="10.00">Kitware.VTK.vtkTextMapper</text>
</a>
</g>
<!-- Node40&#45;&gt;Node50 -->
<g id="edge98" class="edge"><title>Node40&#45;&gt;Node50</title>
<path fill="none" stroke="midnightblue" d="M773.228,-88.9193C797.331,-71.4672 838.459,-44.0799 878,-29 887.503,-25.376 897.781,-22.4238 908.018,-20.0241"/>
<polygon fill="midnightblue" stroke="midnightblue" points="771.134,-86.1141 765.152,-94.8583 775.282,-91.7533 771.134,-86.1141"/>
</g>
<!-- Node42 -->
<g id="node83" class="node"><title>Node42</title>
<a xlink:href="class_kitware_1_1_v_t_k_1_1vtk_open_g_l_image_mapper.html" target="_top" xlink:title="vtkOpenGLImageMapper &#45; 2D image display support for OpenGL">
<polygon fill="none" stroke="black" points="1141,-190 1141,-210 1335,-210 1335,-190 1141,-190"/>
<text text-anchor="middle" x="1238" y="-197" font-family="FreeSans" font-size="10.00">Kitware.VTK.vtkOpenGLImageMapper</text>
</a>
</g>
<!-- Node41&#45;&gt;Node42 -->
<g id="edge82" class="edge"><title>Node41&#45;&gt;Node42</title>
<path fill="none" stroke="midnightblue" d="M1066.75,-187.437C1090.5,-189.18 1116.35,-191.076 1140.6,-192.855"/>
<polygon fill="midnightblue" stroke="midnightblue" points="1066.94,-183.942 1056.71,-186.701 1066.43,-190.923 1066.94,-183.942"/>
</g>
<!-- Node44 -->
<g id="node87" class="node"><title>Node44</title>
<a xlink:href="class_kitware_1_1_v_t_k_1_1vtk_dynamic2_d_label_mapper.html" target="_top" xlink:title="vtkDynamic2DLabelMapper &#45; draw text labels at 2D dataset points">
<polygon fill="none" stroke="black" points="1135,-152 1135,-172 1341,-172 1341,-152 1135,-152"/>
<text text-anchor="middle" x="1238" y="-159" font-family="FreeSans" font-size="10.00">Kitware.VTK.vtkDynamic2DLabelMapper</text>
</a>
</g>
<!-- Node43&#45;&gt;Node44 -->
<g id="edge86" class="edge"><title>Node43&#45;&gt;Node44</title>
<path fill="none" stroke="midnightblue" d="M1057.31,-135.49C1093.13,-140.744 1135.17,-146.912 1169.68,-151.976"/>
<polygon fill="midnightblue" stroke="midnightblue" points="1057.79,-132.023 1047.39,-134.034 1056.77,-138.948 1057.79,-132.023"/>
</g>
<!-- Node45 -->
<g id="node89" class="node"><title>Node45</title>
<a xlink:href="class_kitware_1_1_v_t_k_1_1vtk_labeled_tree_map_data_mapper.html" target="_top" xlink:title="vtkLabeledTreeMapDataMapper &#45; draw text labels on a tree map">
<polygon fill="none" stroke="black" points="1125,-114 1125,-134 1351,-134 1351,-114 1125,-114"/>
<text text-anchor="middle" x="1238" y="-121" font-family="FreeSans" font-size="10.00">Kitware.VTK.vtkLabeledTreeMapDataMapper</text>
</a>
</g>
<!-- Node43&#45;&gt;Node45 -->
<g id="edge88" class="edge"><title>Node43&#45;&gt;Node45</title>
<path fill="none" stroke="midnightblue" d="M1082.26,-124C1096.28,-124 1110.73,-124 1124.91,-124"/>
<polygon fill="midnightblue" stroke="midnightblue" points="1082.14,-120.5 1072.14,-124 1082.14,-127.5 1082.14,-120.5"/>
</g>
<!-- Node46 -->
<g id="node91" class="node"><title>Node46</title>
<a xlink:href="class_kitware_1_1_v_t_k_1_1vtk_qt_tree_ring_label_mapper.html" target="_top" xlink:title="vtkQtTreeRingLabelMapper &#45; draw text labels on a tree map">
<polygon fill="none" stroke="black" points="1137,-76 1137,-96 1339,-96 1339,-76 1137,-76"/>
<text text-anchor="middle" x="1238" y="-83" font-family="FreeSans" font-size="10.00">Kitware.VTK.vtkQtTreeRingLabelMapper</text>
</a>
</g>
<!-- Node43&#45;&gt;Node46 -->
<g id="edge90" class="edge"><title>Node43&#45;&gt;Node46</title>
<path fill="none" stroke="midnightblue" d="M1057.31,-112.51C1093.13,-107.256 1135.17,-101.088 1169.68,-96.024"/>
<polygon fill="midnightblue" stroke="midnightblue" points="1056.77,-109.052 1047.39,-113.966 1057.79,-115.977 1056.77,-109.052"/>
</g>
<!-- Node49 -->
<g id="node97" class="node"><title>Node49</title>
<a xlink:href="class_kitware_1_1_v_t_k_1_1vtk_open_g_l_poly_data_mapper2_d.html" target="_top" xlink:title="vtkOpenGLPolyDataMapper2D &#45; 2D PolyData support for OpenGL">
<polygon fill="none" stroke="black" points="1128,-38 1128,-58 1348,-58 1348,-38 1128,-38"/>
<text text-anchor="middle" x="1238" y="-45" font-family="FreeSans" font-size="10.00">Kitware.VTK.vtkOpenGLPolyDataMapper2D</text>
</a>
</g>
<!-- Node48&#45;&gt;Node49 -->
<g id="edge96" class="edge"><title>Node48&#45;&gt;Node49</title>
<path fill="none" stroke="midnightblue" d="M1080.47,-48C1096.05,-48 1112.21,-48 1127.97,-48"/>
<polygon fill="midnightblue" stroke="midnightblue" points="1080.31,-44.5001 1070.31,-48 1080.31,-51.5001 1080.31,-44.5001"/>
</g>
<!-- Node51 -->
<g id="node101" class="node"><title>Node51</title>
<a xlink:href="class_kitware_1_1_v_t_k_1_1vtk_open_g_l_free_type_text_mapper.html" target="_top" xlink:title="vtkOpenGLFreeTypeTextMapper &#45; 2D Text annotation support">
<polygon fill="none" stroke="black" points="1126,-0 1126,-20 1350,-20 1350,-0 1126,-0"/>
<text text-anchor="middle" x="1238" y="-7" font-family="FreeSans" font-size="10.00">Kitware.VTK.vtkOpenGLFreeTypeTextMapper</text>
</a>
</g>
<!-- Node50&#45;&gt;Node51 -->
<g id="edge100" class="edge"><title>Node50&#45;&gt;Node51</title>
<path fill="none" stroke="midnightblue" d="M1061.39,-10C1081.92,-10 1104.29,-10 1125.99,-10"/>
<polygon fill="midnightblue" stroke="midnightblue" points="1061.15,-6.5001 1051.15,-10 1061.15,-13.5001 1061.15,-6.5001"/>
</g>
</g>
</svg>
