<?xml version="1.0" encoding="UTF-8" standalone="no"?>
<!DOCTYPE svg PUBLIC "-//W3C//DTD SVG 1.1//EN"
 "http://www.w3.org/Graphics/SVG/1.1/DTD/svg11.dtd">
<!-- Generated by graphviz version 2.26.3 (20100126.1600)
 -->
<!-- Title: G Pages: 1 -->
<svg width="188pt" height="378pt"
 viewBox="0.00 0.00 188.00 378.00" xmlns="http://www.w3.org/2000/svg" xmlns:xlink="http://www.w3.org/1999/xlink">
<g id="graph1" class="graph" transform="scale(1 1) rotate(0) translate(4 374)">
<title>G</title>
<!-- Node1 -->
<g id="node1" class="node"><title>Node1</title>
<polygon fill="#bfbfbf" stroke="black" points="0,-1 0,-21 180,-21 180,-1 0,-1"/>
<text text-anchor="middle" x="90" y="-8" font-family="FreeSans" font-size="10.00">Kitware.VTK.vtkTextRepresentation</text>
</g>
<!-- Node2 -->
<g id="node2" class="node"><title>Node2</title>
<a xlink:href="class_kitware_1_1_v_t_k_1_1vtk_border_representation.html" target="_top" xlink:title="vtkBorderRepresentation &#45; represent a vtkBorderWidget">
<polygon fill="none" stroke="black" points="22.5,-59 22.5,-79 157.5,-79 157.5,-59 22.5,-59"/>
<text text-anchor="middle" x="90" y="-66" font-family="FreeSans" font-size="10.00">vtkBorderRepresentation</text>
</a>
</g>
<!-- Node2&#45;&gt;Node1 -->
<g id="edge2" class="edge"><title>Node2&#45;&gt;Node1</title>
<path fill="none" stroke="midnightblue" d="M90,-48.8902C90,-39.6201 90,-29.0083 90,-21.3776"/>
<polygon fill="midnightblue" stroke="midnightblue" points="86.5001,-48.8971 90,-58.8972 93.5001,-48.8972 86.5001,-48.8971"/>
</g>
<!-- Node3 -->
<g id="node4" class="node"><title>Node3</title>
<a xlink:href="class_kitware_1_1_v_t_k_1_1vtk_widget_representation.html" target="_top" xlink:title="vtkWidgetRepresentation &#45; abstract class defines interface between the widget and widget representati...">
<polygon fill="none" stroke="black" points="22.5,-117 22.5,-137 157.5,-137 157.5,-117 22.5,-117"/>
<text text-anchor="middle" x="90" y="-124" font-family="FreeSans" font-size="10.00">vtkWidgetRepresentation</text>
</a>
</g>
<!-- Node3&#45;&gt;Node2 -->
<g id="edge4" class="edge"><title>Node3&#45;&gt;Node2</title>
<path fill="none" stroke="midnightblue" d="M90,-106.89C90,-97.6201 90,-87.0083 90,-79.3776"/>
<polygon fill="midnightblue" stroke="midnightblue" points="86.5001,-106.897 90,-116.897 93.5001,-106.897 86.5001,-106.897"/>
</g>
<!-- Node4 -->
<g id="node6" class="node"><title>Node4</title>
<a xlink:href="class_kitware_1_1_v_t_k_1_1vtk_prop.html" target="_top" xlink:title="vtkProp &#45; abstract superclass for all actors, volumes and annotations">
<polygon fill="none" stroke="black" points="63.5,-175 63.5,-195 116.5,-195 116.5,-175 63.5,-175"/>
<text text-anchor="middle" x="90" y="-182" font-family="FreeSans" font-size="10.00">vtkProp</text>
</a>
</g>
<!-- Node4&#45;&gt;Node3 -->
<g id="edge6" class="edge"><title>Node4&#45;&gt;Node3</title>
<path fill="none" stroke="midnightblue" d="M90,-164.89C90,-155.62 90,-145.008 90,-137.378"/>
<polygon fill="midnightblue" stroke="midnightblue" points="86.5001,-164.897 90,-174.897 93.5001,-164.897 86.5001,-164.897"/>
</g>
<!-- Node5 -->
<g id="node8" class="node"><title>Node5</title>
<a xlink:href="class_kitware_1_1_v_t_k_1_1vtk_object.html" target="_top" xlink:title="vtkObject &#45; abstract base class for most VTK objects">
<polygon fill="none" stroke="black" points="59,-233 59,-253 121,-253 121,-233 59,-233"/>
<text text-anchor="middle" x="90" y="-240" font-family="FreeSans" font-size="10.00">vtkObject</text>
</a>
</g>
<!-- Node5&#45;&gt;Node4 -->
<g id="edge8" class="edge"><title>Node5&#45;&gt;Node4</title>
<path fill="none" stroke="midnightblue" d="M90,-222.89C90,-213.62 90,-203.008 90,-195.378"/>
<polygon fill="midnightblue" stroke="midnightblue" points="86.5001,-222.897 90,-232.897 93.5001,-222.897 86.5001,-222.897"/>
</g>
<!-- Node6 -->
<g id="node10" class="node"><title>Node6</title>
<a xlink:href="class_kitware_1_1_v_t_k_1_1vtk_object_base.html" target="_top" xlink:title="vtkObjectBase &#45; abstract base class for most VTK objects">
<polygon fill="none" stroke="black" points="47,-291 47,-311 133,-311 133,-291 47,-291"/>
<text text-anchor="middle" x="90" y="-298" font-family="FreeSans" font-size="10.00">vtkObjectBase</text>
</a>
</g>
<!-- Node6&#45;&gt;Node5 -->
<g id="edge10" class="edge"><title>Node6&#45;&gt;Node5</title>
<path fill="none" stroke="midnightblue" d="M90,-280.89C90,-271.62 90,-261.008 90,-253.378"/>
<polygon fill="midnightblue" stroke="midnightblue" points="86.5001,-280.897 90,-290.897 93.5001,-280.897 86.5001,-280.897"/>
</g>
<!-- Node7 -->
<g id="node12" class="node"><title>Node7</title>
<a xlink:href="class_kitware_1_1_v_t_k_1_1_wrapped_object.html" target="_top" xlink:title="Base class for all the mummy wrapped classes in Kitware.VTK.">
<polygon fill="none" stroke="black" points="45.5,-349 45.5,-369 134.5,-369 134.5,-349 45.5,-349"/>
<text text-anchor="middle" x="90" y="-356" font-family="FreeSans" font-size="10.00">WrappedObject</text>
</a>
</g>
<!-- Node7&#45;&gt;Node6 -->
<g id="edge12" class="edge"><title>Node7&#45;&gt;Node6</title>
<path fill="none" stroke="midnightblue" d="M90,-338.89C90,-329.62 90,-319.008 90,-311.378"/>
<polygon fill="midnightblue" stroke="midnightblue" points="86.5001,-338.897 90,-348.897 93.5001,-338.897 86.5001,-338.897"/>
</g>
</g>
</svg>
