<?xml version="1.0" encoding="UTF-8" standalone="no"?>
<!DOCTYPE svg PUBLIC "-//W3C//DTD SVG 1.1//EN"
 "http://www.w3.org/Graphics/SVG/1.1/DTD/svg11.dtd">
<!-- Generated by graphviz version 2.26.3 (20100126.1600)
 -->
<!-- Title: G Pages: 1 -->
<svg width="442pt" height="830pt"
 viewBox="0.00 0.00 442.46 830.00" xmlns="http://www.w3.org/2000/svg" xmlns:xlink="http://www.w3.org/1999/xlink">
<g id="graph1" class="graph" transform="scale(1 1) rotate(0) translate(4 826)">
<title>G</title>
<!-- Node1 -->
<g id="node1" class="node"><title>Node1</title>
<polygon fill="#bfbfbf" stroke="black" points="-0.5,-1 -0.5,-21 212.5,-21 212.5,-1 -0.5,-1"/>
<text text-anchor="middle" x="106" y="-8" font-family="FreeSans" font-size="10.00">Kitware.VTK.vtkColorTransferFunctionItem</text>
</g>
<!-- Node2 -->
<g id="node2" class="node"><title>Node2</title>
<a xlink:href="class_kitware_1_1_v_t_k_1_1vtk_scalars_to_colors_item.html" target="_top" xlink:title="vtkScalarsToColorsItem &#45; Abstract class for ScalarsToColors items.">
<polygon fill="none" stroke="black" points="42,-61 42,-81 170,-81 170,-61 42,-61"/>
<text text-anchor="middle" x="106" y="-68" font-family="FreeSans" font-size="10.00">vtkScalarsToColorsItem</text>
</a>
</g>
<!-- Node2&#45;&gt;Node1 -->
<g id="edge2" class="edge"><title>Node2&#45;&gt;Node1</title>
<path fill="none" stroke="midnightblue" d="M106,-50.5155C106,-40.562 106,-29.0495 106,-21.0279"/>
<polygon fill="midnightblue" stroke="midnightblue" points="102.5,-50.8218 106,-60.8218 109.5,-50.8219 102.5,-50.8218"/>
</g>
<!-- Node3 -->
<g id="node4" class="node"><title>Node3</title>
<a xlink:href="class_kitware_1_1_v_t_k_1_1vtk_plot.html" target="_top" xlink:title="vtkPlot &#45; Abstract class for 2D plots.">
<polygon fill="none" stroke="black" points="81.5,-121 81.5,-141 130.5,-141 130.5,-121 81.5,-121"/>
<text text-anchor="middle" x="106" y="-128" font-family="FreeSans" font-size="10.00">vtkPlot</text>
</a>
</g>
<!-- Node3&#45;&gt;Node2 -->
<g id="edge4" class="edge"><title>Node3&#45;&gt;Node2</title>
<path fill="none" stroke="midnightblue" d="M106,-110.516C106,-100.562 106,-89.0495 106,-81.0279"/>
<polygon fill="midnightblue" stroke="midnightblue" points="102.5,-110.822 106,-120.822 109.5,-110.822 102.5,-110.822"/>
</g>
<!-- Node4 -->
<g id="node6" class="node"><title>Node4</title>
<a xlink:href="class_kitware_1_1_v_t_k_1_1vtk_context_item.html" target="_top" xlink:title="vtkContextItem &#45; base class for items that are part of a vtkContextScene.">
<polygon fill="none" stroke="black" points="61,-181 61,-201 151,-201 151,-181 61,-181"/>
<text text-anchor="middle" x="106" y="-188" font-family="FreeSans" font-size="10.00">vtkContextItem</text>
</a>
</g>
<!-- Node4&#45;&gt;Node3 -->
<g id="edge6" class="edge"><title>Node4&#45;&gt;Node3</title>
<path fill="none" stroke="midnightblue" d="M106,-170.516C106,-160.562 106,-149.05 106,-141.028"/>
<polygon fill="midnightblue" stroke="midnightblue" points="102.5,-170.822 106,-180.822 109.5,-170.822 102.5,-170.822"/>
</g>
<!-- Node5 -->
<g id="node8" class="node"><title>Node5</title>
<a xlink:href="class_kitware_1_1_v_t_k_1_1vtk_abstract_context_item.html" target="_top" xlink:title="vtkAbstractContextItem &#45; base class for items that are part of a vtkContextScene.">
<polygon fill="none" stroke="black" points="40.5,-241 40.5,-261 171.5,-261 171.5,-241 40.5,-241"/>
<text text-anchor="middle" x="106" y="-248" font-family="FreeSans" font-size="10.00">vtkAbstractContextItem</text>
</a>
</g>
<!-- Node5&#45;&gt;Node4 -->
<g id="edge8" class="edge"><title>Node5&#45;&gt;Node4</title>
<path fill="none" stroke="midnightblue" d="M106,-230.516C106,-220.562 106,-209.05 106,-201.028"/>
<polygon fill="midnightblue" stroke="midnightblue" points="102.5,-230.822 106,-240.822 109.5,-230.822 102.5,-230.822"/>
</g>
<!-- Node6 -->
<g id="node10" class="node"><title>Node6</title>
<a xlink:href="class_kitware_1_1_v_t_k_1_1vtk_object.html" target="_top" xlink:title="vtkObject &#45; abstract base class for most VTK objects">
<polygon fill="none" stroke="black" points="75,-301 75,-321 137,-321 137,-301 75,-301"/>
<text text-anchor="middle" x="106" y="-308" font-family="FreeSans" font-size="10.00">vtkObject</text>
</a>
</g>
<!-- Node6&#45;&gt;Node5 -->
<g id="edge10" class="edge"><title>Node6&#45;&gt;Node5</title>
<path fill="none" stroke="midnightblue" d="M106,-290.516C106,-280.562 106,-269.05 106,-261.028"/>
<polygon fill="midnightblue" stroke="midnightblue" points="102.5,-290.822 106,-300.822 109.5,-290.822 102.5,-290.822"/>
</g>
<!-- Node7 -->
<g id="node12" class="node"><title>Node7</title>
<a xlink:href="class_kitware_1_1_v_t_k_1_1vtk_object_base.html" target="_top" xlink:title="vtkObjectBase &#45; abstract base class for most VTK objects">
<polygon fill="none" stroke="black" points="126,-741 126,-761 212,-761 212,-741 126,-741"/>
<text text-anchor="middle" x="169" y="-748" font-family="FreeSans" font-size="10.00">vtkObjectBase</text>
</a>
</g>
<!-- Node7&#45;&gt;Node6 -->
<g id="edge12" class="edge"><title>Node7&#45;&gt;Node6</title>
<path fill="none" stroke="midnightblue" d="M140.423,-735.886C126.687,-727.44 110.884,-715.826 100,-702 88.1564,-686.955 87.6209,-680.802 84,-662 58.4248,-529.199 93.5766,-363.437 103.516,-321.17"/>
<polygon fill="midnightblue" stroke="midnightblue" points="138.683,-738.923 149.079,-740.97 142.229,-732.887 138.683,-738.923"/>
</g>
<!-- Node10 -->
<g id="node19" class="node"><title>Node10</title>
<a xlink:href="class_kitware_1_1_v_t_k_1_1vtk_object.html" target="_top" xlink:title="vtkObject &#45; abstract base class for most VTK objects">
<polygon fill="none" stroke="black" points="109,-681 109,-701 229,-701 229,-681 109,-681"/>
<text text-anchor="middle" x="169" y="-688" font-family="FreeSans" font-size="10.00">Kitware.VTK.vtkObject</text>
</a>
</g>
<!-- Node7&#45;&gt;Node10 -->
<g id="edge22" class="edge"><title>Node7&#45;&gt;Node10</title>
<path fill="none" stroke="midnightblue" d="M169,-730.516C169,-720.562 169,-709.05 169,-701.028"/>
<polygon fill="midnightblue" stroke="midnightblue" points="165.5,-730.822 169,-740.822 172.5,-730.822 165.5,-730.822"/>
</g>
<!-- Node8 -->
<g id="node14" class="node"><title>Node8</title>
<a xlink:href="class_kitware_1_1_v_t_k_1_1_wrapped_object.html" target="_top" xlink:title="Base class for all the mummy wrapped classes in Kitware.VTK.">
<polygon fill="none" stroke="black" points="307.5,-801 307.5,-821 396.5,-821 396.5,-801 307.5,-801"/>
<text text-anchor="middle" x="352" y="-808" font-family="FreeSans" font-size="10.00">WrappedObject</text>
</a>
</g>
<!-- Node8&#45;&gt;Node7 -->
<g id="edge14" class="edge"><title>Node8&#45;&gt;Node7</title>
<path fill="none" stroke="midnightblue" d="M311.804,-797.821C278.042,-786.752 230.512,-771.168 199.73,-761.075"/>
<polygon fill="midnightblue" stroke="midnightblue" points="310.777,-801.168 321.37,-800.957 312.958,-794.516 310.777,-801.168"/>
</g>
<!-- Node9 -->
<g id="node16" class="node"><title>Node9</title>
<a xlink:href="class_kitware_1_1_v_t_k_1_1vtk_object_event_relay.html" target="_top" xlink:title="Implement a relay handler for VTK events. This is a class that receives events directly from the VTK ...">
<polygon fill="none" stroke="black" points="98,-491 98,-511 270,-511 270,-491 98,-491"/>
<text text-anchor="middle" x="184" y="-498" font-family="FreeSans" font-size="10.00">Kitware.VTK.vtkObjectEventRelay</text>
</a>
</g>
<!-- Node8&#45;&gt;Node9 -->
<g id="edge18" class="edge"><title>Node8&#45;&gt;Node9</title>
<path fill="none" stroke="midnightblue" d="M364.888,-792.325C397.276,-742.899 474.803,-607.191 407,-530 397.773,-519.495 329.047,-511.666 270.298,-506.808"/>
<polygon fill="midnightblue" stroke="midnightblue" points="361.891,-790.509 359.239,-800.767 367.709,-794.402 361.891,-790.509"/>
</g>
<!-- Node9&#45;&gt;Node6 -->
<g id="edge16" class="edge"><title>Node9&#45;&gt;Node6</title>
<path fill="none" stroke="#9a32cd" stroke-dasharray="5,2" d="M175.921,-481.321C159.489,-441.293 122.674,-351.616 110.214,-321.266"/>
<polygon fill="#9a32cd" stroke="#9a32cd" points="172.771,-482.863 179.806,-490.785 179.246,-480.205 172.771,-482.863"/>
<text text-anchor="middle" x="283.5" y="-463" font-family="FreeSans" font-size="10.00"> LeftButtonReleaseEvtRelay</text>
<text text-anchor="middle" x="283.5" y="-451" font-family="FreeSans" font-size="10.00">KeyPressEvtRelay</text>
<text text-anchor="middle" x="283.5" y="-439" font-family="FreeSans" font-size="10.00">DomainModifiedEvtRelay</text>
<text text-anchor="middle" x="283.5" y="-427" font-family="FreeSans" font-size="10.00">VolumeMapperComputeGradientsStartEvtRelay</text>
<text text-anchor="middle" x="283.5" y="-415" font-family="FreeSans" font-size="10.00">ErrorEvtRelay</text>
<text text-anchor="middle" x="283.5" y="-403" font-family="FreeSans" font-size="10.00">VolumeMapperRenderStartEvtRelay</text>
<text text-anchor="middle" x="283.5" y="-391" font-family="FreeSans" font-size="10.00">StartEvtRelay</text>
<text text-anchor="middle" x="283.5" y="-379" font-family="FreeSans" font-size="10.00">ResetCameraEvtRelay</text>
<text text-anchor="middle" x="283.5" y="-367" font-family="FreeSans" font-size="10.00">EnableEvtRelay</text>
<text text-anchor="middle" x="283.5" y="-355" font-family="FreeSans" font-size="10.00">DeleteEvtRelay</text>
<text text-anchor="middle" x="283.5" y="-343" font-family="FreeSans" font-size="10.00">...</text>
</g>
<!-- Node9&#45;&gt;Node10 -->
<g id="edge24" class="edge"><title>Node9&#45;&gt;Node10</title>
<path fill="none" stroke="#9a32cd" stroke-dasharray="5,2" d="M181.028,-521.231C180.649,-524.169 180.293,-527.159 180,-530 174.144,-586.853 170.636,-655.333 169.452,-680.807"/>
<polygon fill="#9a32cd" stroke="#9a32cd" points="184.515,-521.565 182.421,-511.179 177.582,-520.604 184.515,-521.565"/>
<text text-anchor="middle" x="293.5" y="-653" font-family="FreeSans" font-size="10.00"> LeftButtonReleaseEvtRelay</text>
<text text-anchor="middle" x="293.5" y="-641" font-family="FreeSans" font-size="10.00">KeyPressEvtRelay</text>
<text text-anchor="middle" x="293.5" y="-629" font-family="FreeSans" font-size="10.00">DomainModifiedEvtRelay</text>
<text text-anchor="middle" x="293.5" y="-617" font-family="FreeSans" font-size="10.00">VolumeMapperComputeGradientsStartEvtRelay</text>
<text text-anchor="middle" x="293.5" y="-605" font-family="FreeSans" font-size="10.00">ErrorEvtRelay</text>
<text text-anchor="middle" x="293.5" y="-593" font-family="FreeSans" font-size="10.00">VolumeMapperRenderStartEvtRelay</text>
<text text-anchor="middle" x="293.5" y="-581" font-family="FreeSans" font-size="10.00">StartEvtRelay</text>
<text text-anchor="middle" x="293.5" y="-569" font-family="FreeSans" font-size="10.00">ResetCameraEvtRelay</text>
<text text-anchor="middle" x="293.5" y="-557" font-family="FreeSans" font-size="10.00">EnableEvtRelay</text>
<text text-anchor="middle" x="293.5" y="-545" font-family="FreeSans" font-size="10.00">DeleteEvtRelay</text>
<text text-anchor="middle" x="293.5" y="-533" font-family="FreeSans" font-size="10.00">...</text>
</g>
<!-- Node10&#45;&gt;Node9 -->
<g id="edge20" class="edge"><title>Node10&#45;&gt;Node9</title>
<path fill="none" stroke="#9a32cd" stroke-dasharray="5,2" d="M122.979,-675.818C117.439,-672.138 112.51,-667.596 109,-662 77.8229,-612.303 75.8299,-578.389 109,-530 113.736,-523.091 130.511,-516.287 146.999,-511.008"/>
<polygon fill="#9a32cd" stroke="#9a32cd" points="121.639,-679.079 132.072,-680.919 125.064,-672.974 121.639,-679.079"/>
<text text-anchor="middle" x="133" y="-599" font-family="FreeSans" font-size="10.00"> Sender</text>
<text text-anchor="middle" x="133" y="-587" font-family="FreeSans" font-size="10.00">EventImpl</text>
</g>
</g>
</svg>
