<?xml version="1.0" encoding="UTF-8" standalone="no"?>
<!DOCTYPE svg PUBLIC "-//W3C//DTD SVG 1.1//EN"
 "http://www.w3.org/Graphics/SVG/1.1/DTD/svg11.dtd">
<!-- Generated by graphviz version 2.26.3 (20100126.1600)
 -->
<!-- Title: G Pages: 1 -->
<svg width="160pt" height="552pt"
 viewBox="0.00 0.00 160.00 552.00" xmlns="http://www.w3.org/2000/svg" xmlns:xlink="http://www.w3.org/1999/xlink">
<g id="graph1" class="graph" transform="scale(1 1) rotate(0) translate(4 548)">
<title>G</title>
<!-- Node1 -->
<g id="node1" class="node"><title>Node1</title>
<polygon fill="#bfbfbf" stroke="black" points="5.5,-1 5.5,-21 146.5,-21 146.5,-1 5.5,-1"/>
<text text-anchor="middle" x="76" y="-8" font-family="FreeSans" font-size="10.00">Kitware.VTK.vtkImageRFFT</text>
</g>
<!-- Node2 -->
<g id="node2" class="node"><title>Node2</title>
<a xlink:href="class_kitware_1_1_v_t_k_1_1vtk_image_fourier_filter.html" target="_top" xlink:title="vtkImageFourierFilter &#45; Superclass that implements complex numbers.">
<polygon fill="none" stroke="black" points="18,-59 18,-79 134,-79 134,-59 18,-59"/>
<text text-anchor="middle" x="76" y="-66" font-family="FreeSans" font-size="10.00">vtkImageFourierFilter</text>
</a>
</g>
<!-- Node2&#45;&gt;Node1 -->
<g id="edge2" class="edge"><title>Node2&#45;&gt;Node1</title>
<path fill="none" stroke="midnightblue" d="M76,-48.8902C76,-39.6201 76,-29.0083 76,-21.3776"/>
<polygon fill="midnightblue" stroke="midnightblue" points="72.5001,-48.8971 76,-58.8972 79.5001,-48.8972 72.5001,-48.8971"/>
</g>
<!-- Node3 -->
<g id="node4" class="node"><title>Node3</title>
<a xlink:href="class_kitware_1_1_v_t_k_1_1vtk_image_decompose_filter.html" target="_top" xlink:title="vtkImageDecomposeFilter &#45; Filters that execute axes in series.">
<polygon fill="none" stroke="black" points="5.5,-117 5.5,-137 146.5,-137 146.5,-117 5.5,-117"/>
<text text-anchor="middle" x="76" y="-124" font-family="FreeSans" font-size="10.00">vtkImageDecomposeFilter</text>
</a>
</g>
<!-- Node3&#45;&gt;Node2 -->
<g id="edge4" class="edge"><title>Node3&#45;&gt;Node2</title>
<path fill="none" stroke="midnightblue" d="M76,-106.89C76,-97.6201 76,-87.0083 76,-79.3776"/>
<polygon fill="midnightblue" stroke="midnightblue" points="72.5001,-106.897 76,-116.897 79.5001,-106.897 72.5001,-106.897"/>
</g>
<!-- Node4 -->
<g id="node6" class="node"><title>Node4</title>
<a xlink:href="class_kitware_1_1_v_t_k_1_1vtk_image_iterate_filter.html" target="_top" xlink:title="vtkImageIterateFilter &#45; Multiple executes per update.">
<polygon fill="none" stroke="black" points="18.5,-175 18.5,-195 133.5,-195 133.5,-175 18.5,-175"/>
<text text-anchor="middle" x="76" y="-182" font-family="FreeSans" font-size="10.00">vtkImageIterateFilter</text>
</a>
</g>
<!-- Node4&#45;&gt;Node3 -->
<g id="edge6" class="edge"><title>Node4&#45;&gt;Node3</title>
<path fill="none" stroke="midnightblue" d="M76,-164.89C76,-155.62 76,-145.008 76,-137.378"/>
<polygon fill="midnightblue" stroke="midnightblue" points="72.5001,-164.897 76,-174.897 79.5001,-164.897 72.5001,-164.897"/>
</g>
<!-- Node5 -->
<g id="node8" class="node"><title>Node5</title>
<a xlink:href="class_kitware_1_1_v_t_k_1_1vtk_threaded_image_algorithm.html" target="_top" xlink:title="vtkThreadedImageAlgorithm &#45; Generic filter that has one input..">
<polygon fill="none" stroke="black" points="0,-233 0,-253 152,-253 152,-233 0,-233"/>
<text text-anchor="middle" x="76" y="-240" font-family="FreeSans" font-size="10.00">vtkThreadedImageAlgorithm</text>
</a>
</g>
<!-- Node5&#45;&gt;Node4 -->
<g id="edge8" class="edge"><title>Node5&#45;&gt;Node4</title>
<path fill="none" stroke="midnightblue" d="M76,-222.89C76,-213.62 76,-203.008 76,-195.378"/>
<polygon fill="midnightblue" stroke="midnightblue" points="72.5001,-222.897 76,-232.897 79.5001,-222.897 72.5001,-222.897"/>
</g>
<!-- Node6 -->
<g id="node10" class="node"><title>Node6</title>
<a xlink:href="class_kitware_1_1_v_t_k_1_1vtk_image_algorithm.html" target="_top" xlink:title="vtkImageAlgorithm &#45; Generic algorithm superclass for image algs">
<polygon fill="none" stroke="black" points="22.5,-291 22.5,-311 129.5,-311 129.5,-291 22.5,-291"/>
<text text-anchor="middle" x="76" y="-298" font-family="FreeSans" font-size="10.00">vtkImageAlgorithm</text>
</a>
</g>
<!-- Node6&#45;&gt;Node5 -->
<g id="edge10" class="edge"><title>Node6&#45;&gt;Node5</title>
<path fill="none" stroke="midnightblue" d="M76,-280.89C76,-271.62 76,-261.008 76,-253.378"/>
<polygon fill="midnightblue" stroke="midnightblue" points="72.5001,-280.897 76,-290.897 79.5001,-280.897 72.5001,-280.897"/>
</g>
<!-- Node7 -->
<g id="node12" class="node"><title>Node7</title>
<a xlink:href="class_kitware_1_1_v_t_k_1_1vtk_algorithm.html" target="_top" xlink:title="vtkAlgorithm &#45; Superclass for all sources, filters, and sinks in VTK.">
<polygon fill="none" stroke="black" points="37.5,-349 37.5,-369 114.5,-369 114.5,-349 37.5,-349"/>
<text text-anchor="middle" x="76" y="-356" font-family="FreeSans" font-size="10.00">vtkAlgorithm</text>
</a>
</g>
<!-- Node7&#45;&gt;Node6 -->
<g id="edge12" class="edge"><title>Node7&#45;&gt;Node6</title>
<path fill="none" stroke="midnightblue" d="M76,-338.89C76,-329.62 76,-319.008 76,-311.378"/>
<polygon fill="midnightblue" stroke="midnightblue" points="72.5001,-338.897 76,-348.897 79.5001,-338.897 72.5001,-338.897"/>
</g>
<!-- Node8 -->
<g id="node14" class="node"><title>Node8</title>
<a xlink:href="class_kitware_1_1_v_t_k_1_1vtk_object.html" target="_top" xlink:title="vtkObject &#45; abstract base class for most VTK objects">
<polygon fill="none" stroke="black" points="45,-407 45,-427 107,-427 107,-407 45,-407"/>
<text text-anchor="middle" x="76" y="-414" font-family="FreeSans" font-size="10.00">vtkObject</text>
</a>
</g>
<!-- Node8&#45;&gt;Node7 -->
<g id="edge14" class="edge"><title>Node8&#45;&gt;Node7</title>
<path fill="none" stroke="midnightblue" d="M76,-396.89C76,-387.62 76,-377.008 76,-369.378"/>
<polygon fill="midnightblue" stroke="midnightblue" points="72.5001,-396.897 76,-406.897 79.5001,-396.897 72.5001,-396.897"/>
</g>
<!-- Node9 -->
<g id="node16" class="node"><title>Node9</title>
<a xlink:href="class_kitware_1_1_v_t_k_1_1vtk_object_base.html" target="_top" xlink:title="vtkObjectBase &#45; abstract base class for most VTK objects">
<polygon fill="none" stroke="black" points="33,-465 33,-485 119,-485 119,-465 33,-465"/>
<text text-anchor="middle" x="76" y="-472" font-family="FreeSans" font-size="10.00">vtkObjectBase</text>
</a>
</g>
<!-- Node9&#45;&gt;Node8 -->
<g id="edge16" class="edge"><title>Node9&#45;&gt;Node8</title>
<path fill="none" stroke="midnightblue" d="M76,-454.89C76,-445.62 76,-435.008 76,-427.378"/>
<polygon fill="midnightblue" stroke="midnightblue" points="72.5001,-454.897 76,-464.897 79.5001,-454.897 72.5001,-454.897"/>
</g>
<!-- Node10 -->
<g id="node18" class="node"><title>Node10</title>
<a xlink:href="class_kitware_1_1_v_t_k_1_1_wrapped_object.html" target="_top" xlink:title="Base class for all the mummy wrapped classes in Kitware.VTK.">
<polygon fill="none" stroke="black" points="31.5,-523 31.5,-543 120.5,-543 120.5,-523 31.5,-523"/>
<text text-anchor="middle" x="76" y="-530" font-family="FreeSans" font-size="10.00">WrappedObject</text>
</a>
</g>
<!-- Node10&#45;&gt;Node9 -->
<g id="edge18" class="edge"><title>Node10&#45;&gt;Node9</title>
<path fill="none" stroke="midnightblue" d="M76,-512.89C76,-503.62 76,-493.008 76,-485.378"/>
<polygon fill="midnightblue" stroke="midnightblue" points="72.5001,-512.897 76,-522.897 79.5001,-512.897 72.5001,-512.897"/>
</g>
</g>
</svg>
