<?xml version="1.0" encoding="UTF-8" standalone="no"?>
<!DOCTYPE svg PUBLIC "-//W3C//DTD SVG 1.1//EN"
 "http://www.w3.org/Graphics/SVG/1.1/DTD/svg11.dtd">
<!-- Generated by graphviz version 2.26.3 (20100126.1600)
 -->
<!-- Title: G Pages: 1 -->
<svg width="410pt" height="770pt"
 viewBox="0.00 0.00 410.46 770.00" xmlns="http://www.w3.org/2000/svg" xmlns:xlink="http://www.w3.org/1999/xlink">
<g id="graph1" class="graph" transform="scale(1 1) rotate(0) translate(4 766)">
<title>G</title>
<!-- Node1 -->
<g id="node1" class="node"><title>Node1</title>
<polygon fill="#bfbfbf" stroke="black" points="5.5,-1 5.5,-21 142.5,-21 142.5,-1 5.5,-1"/>
<text text-anchor="middle" x="74" y="-8" font-family="FreeSans" font-size="10.00">Kitware.VTK.vtkTransform</text>
</g>
<!-- Node2 -->
<g id="node2" class="node"><title>Node2</title>
<a xlink:href="class_kitware_1_1_v_t_k_1_1vtk_linear_transform.html" target="_top" xlink:title="vtkLinearTransform &#45; abstract superclass for linear transformations">
<polygon fill="none" stroke="black" points="20.5,-61 20.5,-81 127.5,-81 127.5,-61 20.5,-61"/>
<text text-anchor="middle" x="74" y="-68" font-family="FreeSans" font-size="10.00">vtkLinearTransform</text>
</a>
</g>
<!-- Node2&#45;&gt;Node1 -->
<g id="edge2" class="edge"><title>Node2&#45;&gt;Node1</title>
<path fill="none" stroke="midnightblue" d="M74,-50.5155C74,-40.562 74,-29.0495 74,-21.0279"/>
<polygon fill="midnightblue" stroke="midnightblue" points="70.5001,-50.8218 74,-60.8218 77.5001,-50.8219 70.5001,-50.8218"/>
</g>
<!-- Node3 -->
<g id="node4" class="node"><title>Node3</title>
<a xlink:href="class_kitware_1_1_v_t_k_1_1vtk_homogeneous_transform.html" target="_top" xlink:title="vtkHomogeneousTransform &#45; superclass for homogeneous transformations">
<polygon fill="none" stroke="black" points="-0.5,-121 -0.5,-141 148.5,-141 148.5,-121 -0.5,-121"/>
<text text-anchor="middle" x="74" y="-128" font-family="FreeSans" font-size="10.00">vtkHomogeneousTransform</text>
</a>
</g>
<!-- Node3&#45;&gt;Node2 -->
<g id="edge4" class="edge"><title>Node3&#45;&gt;Node2</title>
<path fill="none" stroke="midnightblue" d="M74,-110.516C74,-100.562 74,-89.0495 74,-81.0279"/>
<polygon fill="midnightblue" stroke="midnightblue" points="70.5001,-110.822 74,-120.822 77.5001,-110.822 70.5001,-110.822"/>
</g>
<!-- Node4 -->
<g id="node6" class="node"><title>Node4</title>
<a xlink:href="class_kitware_1_1_v_t_k_1_1vtk_abstract_transform.html" target="_top" xlink:title="vtkAbstractTransform &#45; superclass for all geometric transformations">
<polygon fill="none" stroke="black" points="14.5,-181 14.5,-201 133.5,-201 133.5,-181 14.5,-181"/>
<text text-anchor="middle" x="74" y="-188" font-family="FreeSans" font-size="10.00">vtkAbstractTransform</text>
</a>
</g>
<!-- Node4&#45;&gt;Node3 -->
<g id="edge6" class="edge"><title>Node4&#45;&gt;Node3</title>
<path fill="none" stroke="midnightblue" d="M74,-170.516C74,-160.562 74,-149.05 74,-141.028"/>
<polygon fill="midnightblue" stroke="midnightblue" points="70.5001,-170.822 74,-180.822 77.5001,-170.822 70.5001,-170.822"/>
</g>
<!-- Node5 -->
<g id="node8" class="node"><title>Node5</title>
<a xlink:href="class_kitware_1_1_v_t_k_1_1vtk_object.html" target="_top" xlink:title="vtkObject &#45; abstract base class for most VTK objects">
<polygon fill="none" stroke="black" points="43,-241 43,-261 105,-261 105,-241 43,-241"/>
<text text-anchor="middle" x="74" y="-248" font-family="FreeSans" font-size="10.00">vtkObject</text>
</a>
</g>
<!-- Node5&#45;&gt;Node4 -->
<g id="edge8" class="edge"><title>Node5&#45;&gt;Node4</title>
<path fill="none" stroke="midnightblue" d="M74,-230.516C74,-220.562 74,-209.05 74,-201.028"/>
<polygon fill="midnightblue" stroke="midnightblue" points="70.5001,-230.822 74,-240.822 77.5001,-230.822 70.5001,-230.822"/>
</g>
<!-- Node6 -->
<g id="node10" class="node"><title>Node6</title>
<a xlink:href="class_kitware_1_1_v_t_k_1_1vtk_object_base.html" target="_top" xlink:title="vtkObjectBase &#45; abstract base class for most VTK objects">
<polygon fill="none" stroke="black" points="94,-681 94,-701 180,-701 180,-681 94,-681"/>
<text text-anchor="middle" x="137" y="-688" font-family="FreeSans" font-size="10.00">vtkObjectBase</text>
</a>
</g>
<!-- Node6&#45;&gt;Node5 -->
<g id="edge10" class="edge"><title>Node6&#45;&gt;Node5</title>
<path fill="none" stroke="midnightblue" d="M108.423,-675.886C94.6866,-667.44 78.8844,-655.826 68,-642 56.1564,-626.955 55.6209,-620.802 52,-602 26.4248,-469.199 61.5766,-303.437 71.5155,-261.17"/>
<polygon fill="midnightblue" stroke="midnightblue" points="106.683,-678.923 117.079,-680.97 110.229,-672.887 106.683,-678.923"/>
</g>
<!-- Node9 -->
<g id="node17" class="node"><title>Node9</title>
<a xlink:href="class_kitware_1_1_v_t_k_1_1vtk_object.html" target="_top" xlink:title="vtkObject &#45; abstract base class for most VTK objects">
<polygon fill="none" stroke="black" points="77,-621 77,-641 197,-641 197,-621 77,-621"/>
<text text-anchor="middle" x="137" y="-628" font-family="FreeSans" font-size="10.00">Kitware.VTK.vtkObject</text>
</a>
</g>
<!-- Node6&#45;&gt;Node9 -->
<g id="edge20" class="edge"><title>Node6&#45;&gt;Node9</title>
<path fill="none" stroke="midnightblue" d="M137,-670.516C137,-660.562 137,-649.05 137,-641.028"/>
<polygon fill="midnightblue" stroke="midnightblue" points="133.5,-670.822 137,-680.822 140.5,-670.822 133.5,-670.822"/>
</g>
<!-- Node7 -->
<g id="node12" class="node"><title>Node7</title>
<a xlink:href="class_kitware_1_1_v_t_k_1_1_wrapped_object.html" target="_top" xlink:title="Base class for all the mummy wrapped classes in Kitware.VTK.">
<polygon fill="none" stroke="black" points="275.5,-741 275.5,-761 364.5,-761 364.5,-741 275.5,-741"/>
<text text-anchor="middle" x="320" y="-748" font-family="FreeSans" font-size="10.00">WrappedObject</text>
</a>
</g>
<!-- Node7&#45;&gt;Node6 -->
<g id="edge12" class="edge"><title>Node7&#45;&gt;Node6</title>
<path fill="none" stroke="midnightblue" d="M279.804,-737.821C246.042,-726.752 198.512,-711.168 167.73,-701.075"/>
<polygon fill="midnightblue" stroke="midnightblue" points="278.777,-741.168 289.37,-740.957 280.958,-734.516 278.777,-741.168"/>
</g>
<!-- Node8 -->
<g id="node14" class="node"><title>Node8</title>
<a xlink:href="class_kitware_1_1_v_t_k_1_1vtk_object_event_relay.html" target="_top" xlink:title="Implement a relay handler for VTK events. This is a class that receives events directly from the VTK ...">
<polygon fill="none" stroke="black" points="66,-431 66,-451 238,-451 238,-431 66,-431"/>
<text text-anchor="middle" x="152" y="-438" font-family="FreeSans" font-size="10.00">Kitware.VTK.vtkObjectEventRelay</text>
</a>
</g>
<!-- Node7&#45;&gt;Node8 -->
<g id="edge16" class="edge"><title>Node7&#45;&gt;Node8</title>
<path fill="none" stroke="midnightblue" d="M332.888,-732.325C365.276,-682.899 442.803,-547.191 375,-470 365.773,-459.495 297.047,-451.666 238.298,-446.808"/>
<polygon fill="midnightblue" stroke="midnightblue" points="329.891,-730.509 327.239,-740.767 335.709,-734.402 329.891,-730.509"/>
</g>
<!-- Node8&#45;&gt;Node5 -->
<g id="edge14" class="edge"><title>Node8&#45;&gt;Node5</title>
<path fill="none" stroke="#9a32cd" stroke-dasharray="5,2" d="M143.921,-421.321C127.489,-381.293 90.6738,-291.616 78.2144,-261.266"/>
<polygon fill="#9a32cd" stroke="#9a32cd" points="140.771,-422.863 147.806,-430.785 147.246,-420.205 140.771,-422.863"/>
<text text-anchor="middle" x="251.5" y="-403" font-family="FreeSans" font-size="10.00"> LeftButtonReleaseEvtRelay</text>
<text text-anchor="middle" x="251.5" y="-391" font-family="FreeSans" font-size="10.00">KeyPressEvtRelay</text>
<text text-anchor="middle" x="251.5" y="-379" font-family="FreeSans" font-size="10.00">DomainModifiedEvtRelay</text>
<text text-anchor="middle" x="251.5" y="-367" font-family="FreeSans" font-size="10.00">VolumeMapperComputeGradientsStartEvtRelay</text>
<text text-anchor="middle" x="251.5" y="-355" font-family="FreeSans" font-size="10.00">ErrorEvtRelay</text>
<text text-anchor="middle" x="251.5" y="-343" font-family="FreeSans" font-size="10.00">VolumeMapperRenderStartEvtRelay</text>
<text text-anchor="middle" x="251.5" y="-331" font-family="FreeSans" font-size="10.00">StartEvtRelay</text>
<text text-anchor="middle" x="251.5" y="-319" font-family="FreeSans" font-size="10.00">ResetCameraEvtRelay</text>
<text text-anchor="middle" x="251.5" y="-307" font-family="FreeSans" font-size="10.00">EnableEvtRelay</text>
<text text-anchor="middle" x="251.5" y="-295" font-family="FreeSans" font-size="10.00">DeleteEvtRelay</text>
<text text-anchor="middle" x="251.5" y="-283" font-family="FreeSans" font-size="10.00">...</text>
</g>
<!-- Node8&#45;&gt;Node9 -->
<g id="edge22" class="edge"><title>Node8&#45;&gt;Node9</title>
<path fill="none" stroke="#9a32cd" stroke-dasharray="5,2" d="M149.028,-461.231C148.649,-464.169 148.293,-467.159 148,-470 142.144,-526.853 138.636,-595.333 137.452,-620.807"/>
<polygon fill="#9a32cd" stroke="#9a32cd" points="152.515,-461.565 150.421,-451.179 145.582,-460.604 152.515,-461.565"/>
<text text-anchor="middle" x="261.5" y="-593" font-family="FreeSans" font-size="10.00"> LeftButtonReleaseEvtRelay</text>
<text text-anchor="middle" x="261.5" y="-581" font-family="FreeSans" font-size="10.00">KeyPressEvtRelay</text>
<text text-anchor="middle" x="261.5" y="-569" font-family="FreeSans" font-size="10.00">DomainModifiedEvtRelay</text>
<text text-anchor="middle" x="261.5" y="-557" font-family="FreeSans" font-size="10.00">VolumeMapperComputeGradientsStartEvtRelay</text>
<text text-anchor="middle" x="261.5" y="-545" font-family="FreeSans" font-size="10.00">ErrorEvtRelay</text>
<text text-anchor="middle" x="261.5" y="-533" font-family="FreeSans" font-size="10.00">VolumeMapperRenderStartEvtRelay</text>
<text text-anchor="middle" x="261.5" y="-521" font-family="FreeSans" font-size="10.00">StartEvtRelay</text>
<text text-anchor="middle" x="261.5" y="-509" font-family="FreeSans" font-size="10.00">ResetCameraEvtRelay</text>
<text text-anchor="middle" x="261.5" y="-497" font-family="FreeSans" font-size="10.00">EnableEvtRelay</text>
<text text-anchor="middle" x="261.5" y="-485" font-family="FreeSans" font-size="10.00">DeleteEvtRelay</text>
<text text-anchor="middle" x="261.5" y="-473" font-family="FreeSans" font-size="10.00">...</text>
</g>
<!-- Node9&#45;&gt;Node8 -->
<g id="edge18" class="edge"><title>Node9&#45;&gt;Node8</title>
<path fill="none" stroke="#9a32cd" stroke-dasharray="5,2" d="M90.9794,-615.818C85.4393,-612.138 80.5104,-607.596 77,-602 45.8229,-552.303 43.8299,-518.389 77,-470 81.7359,-463.091 98.5114,-456.287 114.999,-451.008"/>
<polygon fill="#9a32cd" stroke="#9a32cd" points="89.6386,-619.079 100.072,-620.919 93.0636,-612.974 89.6386,-619.079"/>
<text text-anchor="middle" x="101" y="-539" font-family="FreeSans" font-size="10.00"> Sender</text>
<text text-anchor="middle" x="101" y="-527" font-family="FreeSans" font-size="10.00">EventImpl</text>
</g>
</g>
</svg>
