<?xml version="1.0" encoding="UTF-8" standalone="no"?>
<!DOCTYPE svg PUBLIC "-//W3C//DTD SVG 1.1//EN"
 "http://www.w3.org/Graphics/SVG/1.1/DTD/svg11.dtd">
<!-- Generated by graphviz version 2.26.3 (20100126.1600)
 -->
<!-- Title: G Pages: 1 -->
<svg width="202pt" height="436pt"
 viewBox="0.00 0.00 202.00 436.00" xmlns="http://www.w3.org/2000/svg" xmlns:xlink="http://www.w3.org/1999/xlink">
<g id="graph1" class="graph" transform="scale(1 1) rotate(0) translate(4 432)">
<title>G</title>
<!-- Node1 -->
<g id="node1" class="node"><title>Node1</title>
<polygon fill="#bfbfbf" stroke="black" points="-0.5,-1 -0.5,-21 194.5,-21 194.5,-1 -0.5,-1"/>
<text text-anchor="middle" x="97" y="-8" font-family="FreeSans" font-size="10.00">Kitware.VTK.vtkXMLImageDataReader</text>
</g>
<!-- Node2 -->
<g id="node2" class="node"><title>Node2</title>
<a xlink:href="class_kitware_1_1_v_t_k_1_1vtk_x_m_l_structured_data_reader.html" target="_top" xlink:title="vtkXMLStructuredDataReader &#45; Superclass for structured data XML readers.">
<polygon fill="none" stroke="black" points="18,-59 18,-79 176,-79 176,-59 18,-59"/>
<text text-anchor="middle" x="97" y="-66" font-family="FreeSans" font-size="10.00">vtkXMLStructuredDataReader</text>
</a>
</g>
<!-- Node2&#45;&gt;Node1 -->
<g id="edge2" class="edge"><title>Node2&#45;&gt;Node1</title>
<path fill="none" stroke="midnightblue" d="M97,-48.8902C97,-39.6201 97,-29.0083 97,-21.3776"/>
<polygon fill="midnightblue" stroke="midnightblue" points="93.5001,-48.8971 97,-58.8972 100.5,-48.8972 93.5001,-48.8971"/>
</g>
<!-- Node3 -->
<g id="node4" class="node"><title>Node3</title>
<a xlink:href="class_kitware_1_1_v_t_k_1_1vtk_x_m_l_data_reader.html" target="_top" xlink:title="vtkXMLDataReader &#45; Superclass for VTK XML file readers.">
<polygon fill="none" stroke="black" points="43.5,-117 43.5,-137 150.5,-137 150.5,-117 43.5,-117"/>
<text text-anchor="middle" x="97" y="-124" font-family="FreeSans" font-size="10.00">vtkXMLDataReader</text>
</a>
</g>
<!-- Node3&#45;&gt;Node2 -->
<g id="edge4" class="edge"><title>Node3&#45;&gt;Node2</title>
<path fill="none" stroke="midnightblue" d="M97,-106.89C97,-97.6201 97,-87.0083 97,-79.3776"/>
<polygon fill="midnightblue" stroke="midnightblue" points="93.5001,-106.897 97,-116.897 100.5,-106.897 93.5001,-106.897"/>
</g>
<!-- Node4 -->
<g id="node6" class="node"><title>Node4</title>
<a xlink:href="class_kitware_1_1_v_t_k_1_1vtk_x_m_l_reader.html" target="_top" xlink:title="vtkXMLReader &#45; Superclass for VTK&#39;s XML format readers.">
<polygon fill="none" stroke="black" points="55.5,-175 55.5,-195 138.5,-195 138.5,-175 55.5,-175"/>
<text text-anchor="middle" x="97" y="-182" font-family="FreeSans" font-size="10.00">vtkXMLReader</text>
</a>
</g>
<!-- Node4&#45;&gt;Node3 -->
<g id="edge6" class="edge"><title>Node4&#45;&gt;Node3</title>
<path fill="none" stroke="midnightblue" d="M97,-164.89C97,-155.62 97,-145.008 97,-137.378"/>
<polygon fill="midnightblue" stroke="midnightblue" points="93.5001,-164.897 97,-174.897 100.5,-164.897 93.5001,-164.897"/>
</g>
<!-- Node5 -->
<g id="node8" class="node"><title>Node5</title>
<a xlink:href="class_kitware_1_1_v_t_k_1_1vtk_algorithm.html" target="_top" xlink:title="vtkAlgorithm &#45; Superclass for all sources, filters, and sinks in VTK.">
<polygon fill="none" stroke="black" points="58.5,-233 58.5,-253 135.5,-253 135.5,-233 58.5,-233"/>
<text text-anchor="middle" x="97" y="-240" font-family="FreeSans" font-size="10.00">vtkAlgorithm</text>
</a>
</g>
<!-- Node5&#45;&gt;Node4 -->
<g id="edge8" class="edge"><title>Node5&#45;&gt;Node4</title>
<path fill="none" stroke="midnightblue" d="M97,-222.89C97,-213.62 97,-203.008 97,-195.378"/>
<polygon fill="midnightblue" stroke="midnightblue" points="93.5001,-222.897 97,-232.897 100.5,-222.897 93.5001,-222.897"/>
</g>
<!-- Node6 -->
<g id="node10" class="node"><title>Node6</title>
<a xlink:href="class_kitware_1_1_v_t_k_1_1vtk_object.html" target="_top" xlink:title="vtkObject &#45; abstract base class for most VTK objects">
<polygon fill="none" stroke="black" points="66,-291 66,-311 128,-311 128,-291 66,-291"/>
<text text-anchor="middle" x="97" y="-298" font-family="FreeSans" font-size="10.00">vtkObject</text>
</a>
</g>
<!-- Node6&#45;&gt;Node5 -->
<g id="edge10" class="edge"><title>Node6&#45;&gt;Node5</title>
<path fill="none" stroke="midnightblue" d="M97,-280.89C97,-271.62 97,-261.008 97,-253.378"/>
<polygon fill="midnightblue" stroke="midnightblue" points="93.5001,-280.897 97,-290.897 100.5,-280.897 93.5001,-280.897"/>
</g>
<!-- Node7 -->
<g id="node12" class="node"><title>Node7</title>
<a xlink:href="class_kitware_1_1_v_t_k_1_1vtk_object_base.html" target="_top" xlink:title="vtkObjectBase &#45; abstract base class for most VTK objects">
<polygon fill="none" stroke="black" points="54,-349 54,-369 140,-369 140,-349 54,-349"/>
<text text-anchor="middle" x="97" y="-356" font-family="FreeSans" font-size="10.00">vtkObjectBase</text>
</a>
</g>
<!-- Node7&#45;&gt;Node6 -->
<g id="edge12" class="edge"><title>Node7&#45;&gt;Node6</title>
<path fill="none" stroke="midnightblue" d="M97,-338.89C97,-329.62 97,-319.008 97,-311.378"/>
<polygon fill="midnightblue" stroke="midnightblue" points="93.5001,-338.897 97,-348.897 100.5,-338.897 93.5001,-338.897"/>
</g>
<!-- Node8 -->
<g id="node14" class="node"><title>Node8</title>
<a xlink:href="class_kitware_1_1_v_t_k_1_1_wrapped_object.html" target="_top" xlink:title="Base class for all the mummy wrapped classes in Kitware.VTK.">
<polygon fill="none" stroke="black" points="52.5,-407 52.5,-427 141.5,-427 141.5,-407 52.5,-407"/>
<text text-anchor="middle" x="97" y="-414" font-family="FreeSans" font-size="10.00">WrappedObject</text>
</a>
</g>
<!-- Node8&#45;&gt;Node7 -->
<g id="edge14" class="edge"><title>Node8&#45;&gt;Node7</title>
<path fill="none" stroke="midnightblue" d="M97,-396.89C97,-387.62 97,-377.008 97,-369.378"/>
<polygon fill="midnightblue" stroke="midnightblue" points="93.5001,-396.897 97,-406.897 100.5,-396.897 93.5001,-396.897"/>
</g>
</g>
</svg>
