<?xml version="1.0" encoding="UTF-8" standalone="no"?>
<!DOCTYPE svg PUBLIC "-//W3C//DTD SVG 1.1//EN"
 "http://www.w3.org/Graphics/SVG/1.1/DTD/svg11.dtd">
<!-- Generated by graphviz version 2.26.3 (20100126.1600)
 -->
<!-- Title: G Pages: 1 -->
<svg width="246pt" height="378pt"
 viewBox="0.00 0.00 246.00 378.00" xmlns="http://www.w3.org/2000/svg" xmlns:xlink="http://www.w3.org/1999/xlink">
<g id="graph1" class="graph" transform="scale(1 1) rotate(0) translate(4 374)">
<title>G</title>
<!-- Node1 -->
<g id="node1" class="node"><title>Node1</title>
<polygon fill="#bfbfbf" stroke="black" points="-0.5,-1 -0.5,-21 238.5,-21 238.5,-1 -0.5,-1"/>
<text text-anchor="middle" x="119" y="-8" font-family="FreeSans" font-size="10.00">Kitware.VTK.vtkIncrementalOctreePointLocator</text>
</g>
<!-- Node2 -->
<g id="node2" class="node"><title>Node2</title>
<a xlink:href="class_kitware_1_1_v_t_k_1_1vtk_incremental_point_locator.html" target="_top" xlink:title="vtkIncrementalPointLocator &#45; Abstract class in support of both point location and point insertion...">
<polygon fill="none" stroke="black" points="45,-59 45,-79 193,-79 193,-59 45,-59"/>
<text text-anchor="middle" x="119" y="-66" font-family="FreeSans" font-size="10.00">vtkIncrementalPointLocator</text>
</a>
</g>
<!-- Node2&#45;&gt;Node1 -->
<g id="edge2" class="edge"><title>Node2&#45;&gt;Node1</title>
<path fill="none" stroke="midnightblue" d="M119,-48.8902C119,-39.6201 119,-29.0083 119,-21.3776"/>
<polygon fill="midnightblue" stroke="midnightblue" points="115.5,-48.8971 119,-58.8972 122.5,-48.8972 115.5,-48.8971"/>
</g>
<!-- Node3 -->
<g id="node4" class="node"><title>Node3</title>
<a xlink:href="class_kitware_1_1_v_t_k_1_1vtk_abstract_point_locator.html" target="_top" xlink:title="vtkAbstractPointLocator &#45; abstract class to quickly locate points in 3&#45;space">
<polygon fill="none" stroke="black" points="53.5,-117 53.5,-137 184.5,-137 184.5,-117 53.5,-117"/>
<text text-anchor="middle" x="119" y="-124" font-family="FreeSans" font-size="10.00">vtkAbstractPointLocator</text>
</a>
</g>
<!-- Node3&#45;&gt;Node2 -->
<g id="edge4" class="edge"><title>Node3&#45;&gt;Node2</title>
<path fill="none" stroke="midnightblue" d="M119,-106.89C119,-97.6201 119,-87.0083 119,-79.3776"/>
<polygon fill="midnightblue" stroke="midnightblue" points="115.5,-106.897 119,-116.897 122.5,-106.897 115.5,-106.897"/>
</g>
<!-- Node4 -->
<g id="node6" class="node"><title>Node4</title>
<a xlink:href="class_kitware_1_1_v_t_k_1_1vtk_locator.html" target="_top" xlink:title="vtkLocator &#45; abstract base class for objects that accelerate spatial searches">
<polygon fill="none" stroke="black" points="85.5,-175 85.5,-195 152.5,-195 152.5,-175 85.5,-175"/>
<text text-anchor="middle" x="119" y="-182" font-family="FreeSans" font-size="10.00">vtkLocator</text>
</a>
</g>
<!-- Node4&#45;&gt;Node3 -->
<g id="edge6" class="edge"><title>Node4&#45;&gt;Node3</title>
<path fill="none" stroke="midnightblue" d="M119,-164.89C119,-155.62 119,-145.008 119,-137.378"/>
<polygon fill="midnightblue" stroke="midnightblue" points="115.5,-164.897 119,-174.897 122.5,-164.897 115.5,-164.897"/>
</g>
<!-- Node5 -->
<g id="node8" class="node"><title>Node5</title>
<a xlink:href="class_kitware_1_1_v_t_k_1_1vtk_object.html" target="_top" xlink:title="vtkObject &#45; abstract base class for most VTK objects">
<polygon fill="none" stroke="black" points="88,-233 88,-253 150,-253 150,-233 88,-233"/>
<text text-anchor="middle" x="119" y="-240" font-family="FreeSans" font-size="10.00">vtkObject</text>
</a>
</g>
<!-- Node5&#45;&gt;Node4 -->
<g id="edge8" class="edge"><title>Node5&#45;&gt;Node4</title>
<path fill="none" stroke="midnightblue" d="M119,-222.89C119,-213.62 119,-203.008 119,-195.378"/>
<polygon fill="midnightblue" stroke="midnightblue" points="115.5,-222.897 119,-232.897 122.5,-222.897 115.5,-222.897"/>
</g>
<!-- Node6 -->
<g id="node10" class="node"><title>Node6</title>
<a xlink:href="class_kitware_1_1_v_t_k_1_1vtk_object_base.html" target="_top" xlink:title="vtkObjectBase &#45; abstract base class for most VTK objects">
<polygon fill="none" stroke="black" points="76,-291 76,-311 162,-311 162,-291 76,-291"/>
<text text-anchor="middle" x="119" y="-298" font-family="FreeSans" font-size="10.00">vtkObjectBase</text>
</a>
</g>
<!-- Node6&#45;&gt;Node5 -->
<g id="edge10" class="edge"><title>Node6&#45;&gt;Node5</title>
<path fill="none" stroke="midnightblue" d="M119,-280.89C119,-271.62 119,-261.008 119,-253.378"/>
<polygon fill="midnightblue" stroke="midnightblue" points="115.5,-280.897 119,-290.897 122.5,-280.897 115.5,-280.897"/>
</g>
<!-- Node7 -->
<g id="node12" class="node"><title>Node7</title>
<a xlink:href="class_kitware_1_1_v_t_k_1_1_wrapped_object.html" target="_top" xlink:title="Base class for all the mummy wrapped classes in Kitware.VTK.">
<polygon fill="none" stroke="black" points="74.5,-349 74.5,-369 163.5,-369 163.5,-349 74.5,-349"/>
<text text-anchor="middle" x="119" y="-356" font-family="FreeSans" font-size="10.00">WrappedObject</text>
</a>
</g>
<!-- Node7&#45;&gt;Node6 -->
<g id="edge12" class="edge"><title>Node7&#45;&gt;Node6</title>
<path fill="none" stroke="midnightblue" d="M119,-338.89C119,-329.62 119,-319.008 119,-311.378"/>
<polygon fill="midnightblue" stroke="midnightblue" points="115.5,-338.897 119,-348.897 122.5,-338.897 115.5,-338.897"/>
</g>
</g>
</svg>
