<?xml version="1.0" encoding="UTF-8" standalone="no"?>
<!DOCTYPE svg PUBLIC "-//W3C//DTD SVG 1.1//EN"
 "http://www.w3.org/Graphics/SVG/1.1/DTD/svg11.dtd">
<!-- Generated by graphviz version 2.26.3 (20100126.1600)
 -->
<!-- Title: G Pages: 1 -->
<svg width="220pt" height="436pt"
 viewBox="0.00 0.00 220.00 436.00" xmlns="http://www.w3.org/2000/svg" xmlns:xlink="http://www.w3.org/1999/xlink">
<g id="graph1" class="graph" transform="scale(1 1) rotate(0) translate(4 432)">
<title>G</title>
<!-- Node1 -->
<g id="node1" class="node"><title>Node1</title>
<polygon fill="#bfbfbf" stroke="black" points="-0.5,-1 -0.5,-21 212.5,-21 212.5,-1 -0.5,-1"/>
<text text-anchor="middle" x="106" y="-8" font-family="FreeSans" font-size="10.00">Kitware.VTK.vtkXMLPMultiBlockDataWriter</text>
</g>
<!-- Node2 -->
<g id="node2" class="node"><title>Node2</title>
<a xlink:href="class_kitware_1_1_v_t_k_1_1vtk_x_m_l_multi_block_data_writer.html" target="_top" xlink:title="vtkXMLMultiBlockDataWriter &#45; writer for vtkMultiBlockDataSet.">
<polygon fill="none" stroke="black" points="31.5,-59 31.5,-79 180.5,-79 180.5,-59 31.5,-59"/>
<text text-anchor="middle" x="106" y="-66" font-family="FreeSans" font-size="10.00">vtkXMLMultiBlockDataWriter</text>
</a>
</g>
<!-- Node2&#45;&gt;Node1 -->
<g id="edge2" class="edge"><title>Node2&#45;&gt;Node1</title>
<path fill="none" stroke="midnightblue" d="M106,-48.8902C106,-39.6201 106,-29.0083 106,-21.3776"/>
<polygon fill="midnightblue" stroke="midnightblue" points="102.5,-48.8971 106,-58.8972 109.5,-48.8972 102.5,-48.8971"/>
</g>
<!-- Node3 -->
<g id="node4" class="node"><title>Node3</title>
<a xlink:href="class_kitware_1_1_v_t_k_1_1vtk_x_m_l_composite_data_writer.html" target="_top" xlink:title="vtkXMLCompositeDataWriter &#45; Writer for multi&#45;group datasets">
<polygon fill="none" stroke="black" points="30,-117 30,-137 182,-137 182,-117 30,-117"/>
<text text-anchor="middle" x="106" y="-124" font-family="FreeSans" font-size="10.00">vtkXMLCompositeDataWriter</text>
</a>
</g>
<!-- Node3&#45;&gt;Node2 -->
<g id="edge4" class="edge"><title>Node3&#45;&gt;Node2</title>
<path fill="none" stroke="midnightblue" d="M106,-106.89C106,-97.6201 106,-87.0083 106,-79.3776"/>
<polygon fill="midnightblue" stroke="midnightblue" points="102.5,-106.897 106,-116.897 109.5,-106.897 102.5,-106.897"/>
</g>
<!-- Node4 -->
<g id="node6" class="node"><title>Node4</title>
<a xlink:href="class_kitware_1_1_v_t_k_1_1vtk_x_m_l_writer.html" target="_top" xlink:title="vtkXMLWriter &#45; Superclass for VTK&#39;s XML file writers.">
<polygon fill="none" stroke="black" points="67.5,-175 67.5,-195 144.5,-195 144.5,-175 67.5,-175"/>
<text text-anchor="middle" x="106" y="-182" font-family="FreeSans" font-size="10.00">vtkXMLWriter</text>
</a>
</g>
<!-- Node4&#45;&gt;Node3 -->
<g id="edge6" class="edge"><title>Node4&#45;&gt;Node3</title>
<path fill="none" stroke="midnightblue" d="M106,-164.89C106,-155.62 106,-145.008 106,-137.378"/>
<polygon fill="midnightblue" stroke="midnightblue" points="102.5,-164.897 106,-174.897 109.5,-164.897 102.5,-164.897"/>
</g>
<!-- Node5 -->
<g id="node8" class="node"><title>Node5</title>
<a xlink:href="class_kitware_1_1_v_t_k_1_1vtk_algorithm.html" target="_top" xlink:title="vtkAlgorithm &#45; Superclass for all sources, filters, and sinks in VTK.">
<polygon fill="none" stroke="black" points="67.5,-233 67.5,-253 144.5,-253 144.5,-233 67.5,-233"/>
<text text-anchor="middle" x="106" y="-240" font-family="FreeSans" font-size="10.00">vtkAlgorithm</text>
</a>
</g>
<!-- Node5&#45;&gt;Node4 -->
<g id="edge8" class="edge"><title>Node5&#45;&gt;Node4</title>
<path fill="none" stroke="midnightblue" d="M106,-222.89C106,-213.62 106,-203.008 106,-195.378"/>
<polygon fill="midnightblue" stroke="midnightblue" points="102.5,-222.897 106,-232.897 109.5,-222.897 102.5,-222.897"/>
</g>
<!-- Node6 -->
<g id="node10" class="node"><title>Node6</title>
<a xlink:href="class_kitware_1_1_v_t_k_1_1vtk_object.html" target="_top" xlink:title="vtkObject &#45; abstract base class for most VTK objects">
<polygon fill="none" stroke="black" points="75,-291 75,-311 137,-311 137,-291 75,-291"/>
<text text-anchor="middle" x="106" y="-298" font-family="FreeSans" font-size="10.00">vtkObject</text>
</a>
</g>
<!-- Node6&#45;&gt;Node5 -->
<g id="edge10" class="edge"><title>Node6&#45;&gt;Node5</title>
<path fill="none" stroke="midnightblue" d="M106,-280.89C106,-271.62 106,-261.008 106,-253.378"/>
<polygon fill="midnightblue" stroke="midnightblue" points="102.5,-280.897 106,-290.897 109.5,-280.897 102.5,-280.897"/>
</g>
<!-- Node7 -->
<g id="node12" class="node"><title>Node7</title>
<a xlink:href="class_kitware_1_1_v_t_k_1_1vtk_object_base.html" target="_top" xlink:title="vtkObjectBase &#45; abstract base class for most VTK objects">
<polygon fill="none" stroke="black" points="63,-349 63,-369 149,-369 149,-349 63,-349"/>
<text text-anchor="middle" x="106" y="-356" font-family="FreeSans" font-size="10.00">vtkObjectBase</text>
</a>
</g>
<!-- Node7&#45;&gt;Node6 -->
<g id="edge12" class="edge"><title>Node7&#45;&gt;Node6</title>
<path fill="none" stroke="midnightblue" d="M106,-338.89C106,-329.62 106,-319.008 106,-311.378"/>
<polygon fill="midnightblue" stroke="midnightblue" points="102.5,-338.897 106,-348.897 109.5,-338.897 102.5,-338.897"/>
</g>
<!-- Node8 -->
<g id="node14" class="node"><title>Node8</title>
<a xlink:href="class_kitware_1_1_v_t_k_1_1_wrapped_object.html" target="_top" xlink:title="Base class for all the mummy wrapped classes in Kitware.VTK.">
<polygon fill="none" stroke="black" points="61.5,-407 61.5,-427 150.5,-427 150.5,-407 61.5,-407"/>
<text text-anchor="middle" x="106" y="-414" font-family="FreeSans" font-size="10.00">WrappedObject</text>
</a>
</g>
<!-- Node8&#45;&gt;Node7 -->
<g id="edge14" class="edge"><title>Node8&#45;&gt;Node7</title>
<path fill="none" stroke="midnightblue" d="M106,-396.89C106,-387.62 106,-377.008 106,-369.378"/>
<polygon fill="midnightblue" stroke="midnightblue" points="102.5,-396.897 106,-406.897 109.5,-396.897 102.5,-396.897"/>
</g>
</g>
</svg>
