<?xml version="1.0" encoding="UTF-8" standalone="no"?>
<!DOCTYPE svg PUBLIC "-//W3C//DTD SVG 1.1//EN"
 "http://www.w3.org/Graphics/SVG/1.1/DTD/svg11.dtd">
<!-- Generated by graphviz version 2.26.3 (20100126.1600)
 -->
<!-- Title: G Pages: 1 -->
<svg width="450pt" height="710pt"
 viewBox="0.00 0.00 450.46 710.00" xmlns="http://www.w3.org/2000/svg" xmlns:xlink="http://www.w3.org/1999/xlink">
<g id="graph1" class="graph" transform="scale(1 1) rotate(0) translate(4 706)">
<title>G</title>
<!-- Node1 -->
<g id="node1" class="node"><title>Node1</title>
<polygon fill="#bfbfbf" stroke="black" points="0,-1 0,-21 228,-21 228,-1 0,-1"/>
<text text-anchor="middle" x="114" y="-8" font-family="FreeSans" font-size="10.00">Kitware.VTK.vtkBoostBreadthFirstSearchTree</text>
</g>
<!-- Node2 -->
<g id="node2" class="node"><title>Node2</title>
<a xlink:href="class_kitware_1_1_v_t_k_1_1vtk_tree_algorithm.html" target="_top" xlink:title="vtkTreeAlgorithm &#45; Superclass for algorithms that produce only Tree as output">
<polygon fill="none" stroke="black" points="65.5,-61 65.5,-81 162.5,-81 162.5,-61 65.5,-61"/>
<text text-anchor="middle" x="114" y="-68" font-family="FreeSans" font-size="10.00">vtkTreeAlgorithm</text>
</a>
</g>
<!-- Node2&#45;&gt;Node1 -->
<g id="edge2" class="edge"><title>Node2&#45;&gt;Node1</title>
<path fill="none" stroke="midnightblue" d="M114,-50.5155C114,-40.562 114,-29.0495 114,-21.0279"/>
<polygon fill="midnightblue" stroke="midnightblue" points="110.5,-50.8218 114,-60.8218 117.5,-50.8219 110.5,-50.8218"/>
</g>
<!-- Node3 -->
<g id="node4" class="node"><title>Node3</title>
<a xlink:href="class_kitware_1_1_v_t_k_1_1vtk_algorithm.html" target="_top" xlink:title="vtkAlgorithm &#45; Superclass for all sources, filters, and sinks in VTK.">
<polygon fill="none" stroke="black" points="75.5,-121 75.5,-141 152.5,-141 152.5,-121 75.5,-121"/>
<text text-anchor="middle" x="114" y="-128" font-family="FreeSans" font-size="10.00">vtkAlgorithm</text>
</a>
</g>
<!-- Node3&#45;&gt;Node2 -->
<g id="edge4" class="edge"><title>Node3&#45;&gt;Node2</title>
<path fill="none" stroke="midnightblue" d="M114,-110.516C114,-100.562 114,-89.0495 114,-81.0279"/>
<polygon fill="midnightblue" stroke="midnightblue" points="110.5,-110.822 114,-120.822 117.5,-110.822 110.5,-110.822"/>
</g>
<!-- Node4 -->
<g id="node6" class="node"><title>Node4</title>
<a xlink:href="class_kitware_1_1_v_t_k_1_1vtk_object.html" target="_top" xlink:title="vtkObject &#45; abstract base class for most VTK objects">
<polygon fill="none" stroke="black" points="83,-181 83,-201 145,-201 145,-181 83,-181"/>
<text text-anchor="middle" x="114" y="-188" font-family="FreeSans" font-size="10.00">vtkObject</text>
</a>
</g>
<!-- Node4&#45;&gt;Node3 -->
<g id="edge6" class="edge"><title>Node4&#45;&gt;Node3</title>
<path fill="none" stroke="midnightblue" d="M114,-170.516C114,-160.562 114,-149.05 114,-141.028"/>
<polygon fill="midnightblue" stroke="midnightblue" points="110.5,-170.822 114,-180.822 117.5,-170.822 110.5,-170.822"/>
</g>
<!-- Node5 -->
<g id="node8" class="node"><title>Node5</title>
<a xlink:href="class_kitware_1_1_v_t_k_1_1vtk_object_base.html" target="_top" xlink:title="vtkObjectBase &#45; abstract base class for most VTK objects">
<polygon fill="none" stroke="black" points="134,-621 134,-641 220,-641 220,-621 134,-621"/>
<text text-anchor="middle" x="177" y="-628" font-family="FreeSans" font-size="10.00">vtkObjectBase</text>
</a>
</g>
<!-- Node5&#45;&gt;Node4 -->
<g id="edge8" class="edge"><title>Node5&#45;&gt;Node4</title>
<path fill="none" stroke="midnightblue" d="M148.423,-615.886C134.687,-607.44 118.884,-595.826 108,-582 96.1564,-566.955 95.6209,-560.802 92,-542 66.4248,-409.199 101.577,-243.437 111.516,-201.17"/>
<polygon fill="midnightblue" stroke="midnightblue" points="146.683,-618.923 157.079,-620.97 150.229,-612.887 146.683,-618.923"/>
</g>
<!-- Node8 -->
<g id="node15" class="node"><title>Node8</title>
<a xlink:href="class_kitware_1_1_v_t_k_1_1vtk_object.html" target="_top" xlink:title="vtkObject &#45; abstract base class for most VTK objects">
<polygon fill="none" stroke="black" points="117,-561 117,-581 237,-581 237,-561 117,-561"/>
<text text-anchor="middle" x="177" y="-568" font-family="FreeSans" font-size="10.00">Kitware.VTK.vtkObject</text>
</a>
</g>
<!-- Node5&#45;&gt;Node8 -->
<g id="edge18" class="edge"><title>Node5&#45;&gt;Node8</title>
<path fill="none" stroke="midnightblue" d="M177,-610.516C177,-600.562 177,-589.05 177,-581.028"/>
<polygon fill="midnightblue" stroke="midnightblue" points="173.5,-610.822 177,-620.822 180.5,-610.822 173.5,-610.822"/>
</g>
<!-- Node6 -->
<g id="node10" class="node"><title>Node6</title>
<a xlink:href="class_kitware_1_1_v_t_k_1_1_wrapped_object.html" target="_top" xlink:title="Base class for all the mummy wrapped classes in Kitware.VTK.">
<polygon fill="none" stroke="black" points="315.5,-681 315.5,-701 404.5,-701 404.5,-681 315.5,-681"/>
<text text-anchor="middle" x="360" y="-688" font-family="FreeSans" font-size="10.00">WrappedObject</text>
</a>
</g>
<!-- Node6&#45;&gt;Node5 -->
<g id="edge10" class="edge"><title>Node6&#45;&gt;Node5</title>
<path fill="none" stroke="midnightblue" d="M319.804,-677.821C286.042,-666.752 238.512,-651.168 207.73,-641.075"/>
<polygon fill="midnightblue" stroke="midnightblue" points="318.777,-681.168 329.37,-680.957 320.958,-674.516 318.777,-681.168"/>
</g>
<!-- Node7 -->
<g id="node12" class="node"><title>Node7</title>
<a xlink:href="class_kitware_1_1_v_t_k_1_1vtk_object_event_relay.html" target="_top" xlink:title="Implement a relay handler for VTK events. This is a class that receives events directly from the VTK ...">
<polygon fill="none" stroke="black" points="106,-371 106,-391 278,-391 278,-371 106,-371"/>
<text text-anchor="middle" x="192" y="-378" font-family="FreeSans" font-size="10.00">Kitware.VTK.vtkObjectEventRelay</text>
</a>
</g>
<!-- Node6&#45;&gt;Node7 -->
<g id="edge14" class="edge"><title>Node6&#45;&gt;Node7</title>
<path fill="none" stroke="midnightblue" d="M372.888,-672.325C405.276,-622.899 482.803,-487.191 415,-410 405.773,-399.495 337.047,-391.666 278.298,-386.808"/>
<polygon fill="midnightblue" stroke="midnightblue" points="369.891,-670.509 367.239,-680.767 375.709,-674.402 369.891,-670.509"/>
</g>
<!-- Node7&#45;&gt;Node4 -->
<g id="edge12" class="edge"><title>Node7&#45;&gt;Node4</title>
<path fill="none" stroke="#9a32cd" stroke-dasharray="5,2" d="M183.921,-361.321C167.489,-321.293 130.674,-231.616 118.214,-201.266"/>
<polygon fill="#9a32cd" stroke="#9a32cd" points="180.771,-362.863 187.806,-370.785 187.246,-360.205 180.771,-362.863"/>
<text text-anchor="middle" x="291.5" y="-343" font-family="FreeSans" font-size="10.00"> LeftButtonReleaseEvtRelay</text>
<text text-anchor="middle" x="291.5" y="-331" font-family="FreeSans" font-size="10.00">KeyPressEvtRelay</text>
<text text-anchor="middle" x="291.5" y="-319" font-family="FreeSans" font-size="10.00">DomainModifiedEvtRelay</text>
<text text-anchor="middle" x="291.5" y="-307" font-family="FreeSans" font-size="10.00">VolumeMapperComputeGradientsStartEvtRelay</text>
<text text-anchor="middle" x="291.5" y="-295" font-family="FreeSans" font-size="10.00">ErrorEvtRelay</text>
<text text-anchor="middle" x="291.5" y="-283" font-family="FreeSans" font-size="10.00">VolumeMapperRenderStartEvtRelay</text>
<text text-anchor="middle" x="291.5" y="-271" font-family="FreeSans" font-size="10.00">StartEvtRelay</text>
<text text-anchor="middle" x="291.5" y="-259" font-family="FreeSans" font-size="10.00">ResetCameraEvtRelay</text>
<text text-anchor="middle" x="291.5" y="-247" font-family="FreeSans" font-size="10.00">EnableEvtRelay</text>
<text text-anchor="middle" x="291.5" y="-235" font-family="FreeSans" font-size="10.00">DeleteEvtRelay</text>
<text text-anchor="middle" x="291.5" y="-223" font-family="FreeSans" font-size="10.00">...</text>
</g>
<!-- Node7&#45;&gt;Node8 -->
<g id="edge20" class="edge"><title>Node7&#45;&gt;Node8</title>
<path fill="none" stroke="#9a32cd" stroke-dasharray="5,2" d="M189.028,-401.231C188.649,-404.169 188.293,-407.159 188,-410 182.144,-466.853 178.636,-535.333 177.452,-560.807"/>
<polygon fill="#9a32cd" stroke="#9a32cd" points="192.515,-401.565 190.421,-391.179 185.582,-400.604 192.515,-401.565"/>
<text text-anchor="middle" x="301.5" y="-533" font-family="FreeSans" font-size="10.00"> LeftButtonReleaseEvtRelay</text>
<text text-anchor="middle" x="301.5" y="-521" font-family="FreeSans" font-size="10.00">KeyPressEvtRelay</text>
<text text-anchor="middle" x="301.5" y="-509" font-family="FreeSans" font-size="10.00">DomainModifiedEvtRelay</text>
<text text-anchor="middle" x="301.5" y="-497" font-family="FreeSans" font-size="10.00">VolumeMapperComputeGradientsStartEvtRelay</text>
<text text-anchor="middle" x="301.5" y="-485" font-family="FreeSans" font-size="10.00">ErrorEvtRelay</text>
<text text-anchor="middle" x="301.5" y="-473" font-family="FreeSans" font-size="10.00">VolumeMapperRenderStartEvtRelay</text>
<text text-anchor="middle" x="301.5" y="-461" font-family="FreeSans" font-size="10.00">StartEvtRelay</text>
<text text-anchor="middle" x="301.5" y="-449" font-family="FreeSans" font-size="10.00">ResetCameraEvtRelay</text>
<text text-anchor="middle" x="301.5" y="-437" font-family="FreeSans" font-size="10.00">EnableEvtRelay</text>
<text text-anchor="middle" x="301.5" y="-425" font-family="FreeSans" font-size="10.00">DeleteEvtRelay</text>
<text text-anchor="middle" x="301.5" y="-413" font-family="FreeSans" font-size="10.00">...</text>
</g>
<!-- Node8&#45;&gt;Node7 -->
<g id="edge16" class="edge"><title>Node8&#45;&gt;Node7</title>
<path fill="none" stroke="#9a32cd" stroke-dasharray="5,2" d="M130.979,-555.818C125.439,-552.138 120.51,-547.596 117,-542 85.8229,-492.303 83.8299,-458.389 117,-410 121.736,-403.091 138.511,-396.287 154.999,-391.008"/>
<polygon fill="#9a32cd" stroke="#9a32cd" points="129.639,-559.079 140.072,-560.919 133.064,-552.974 129.639,-559.079"/>
<text text-anchor="middle" x="141" y="-479" font-family="FreeSans" font-size="10.00"> Sender</text>
<text text-anchor="middle" x="141" y="-467" font-family="FreeSans" font-size="10.00">EventImpl</text>
</g>
</g>
</svg>
