<?xml version="1.0" encoding="UTF-8" standalone="no"?>
<!DOCTYPE svg PUBLIC "-//W3C//DTD SVG 1.1//EN"
 "http://www.w3.org/Graphics/SVG/1.1/DTD/svg11.dtd">
<!-- Generated by graphviz version 2.26.3 (20100126.1600)
 -->
<!-- Title: G Pages: 1 -->
<svg width="451pt" height="830pt"
 viewBox="0.00 0.00 451.46 830.00" xmlns="http://www.w3.org/2000/svg" xmlns:xlink="http://www.w3.org/1999/xlink">
<g id="graph1" class="graph" transform="scale(1 1) rotate(0) translate(4 826)">
<title>G</title>
<!-- Node1 -->
<g id="node1" class="node"><title>Node1</title>
<polygon fill="#bfbfbf" stroke="black" points="0,-1 0,-21 230,-21 230,-1 0,-1"/>
<text text-anchor="middle" x="115" y="-8" font-family="FreeSans" font-size="10.00">Kitware.VTK.vtkPPairwiseExtractHistogram2D</text>
</g>
<!-- Node2 -->
<g id="node2" class="node"><title>Node2</title>
<a xlink:href="class_kitware_1_1_v_t_k_1_1vtk_pairwise_extract_histogram2_d.html" target="_top" xlink:title="vtkPairwiseExtractHistogram2D &#45; compute a 2D histogram between all adjacent columns of an input vtkTa...">
<polygon fill="none" stroke="black" points="32,-61 32,-81 198,-81 198,-61 32,-61"/>
<text text-anchor="middle" x="115" y="-68" font-family="FreeSans" font-size="10.00">vtkPairwiseExtractHistogram2D</text>
</a>
</g>
<!-- Node2&#45;&gt;Node1 -->
<g id="edge2" class="edge"><title>Node2&#45;&gt;Node1</title>
<path fill="none" stroke="midnightblue" d="M115,-50.5155C115,-40.562 115,-29.0495 115,-21.0279"/>
<polygon fill="midnightblue" stroke="midnightblue" points="111.5,-50.8218 115,-60.8218 118.5,-50.8219 111.5,-50.8218"/>
</g>
<!-- Node3 -->
<g id="node4" class="node"><title>Node3</title>
<a xlink:href="class_kitware_1_1_v_t_k_1_1vtk_statistics_algorithm.html" target="_top" xlink:title="vtkStatisticsAlgorithm &#45; Base class for statistics algorithms">
<polygon fill="none" stroke="black" points="54,-121 54,-141 176,-141 176,-121 54,-121"/>
<text text-anchor="middle" x="115" y="-128" font-family="FreeSans" font-size="10.00">vtkStatisticsAlgorithm</text>
</a>
</g>
<!-- Node3&#45;&gt;Node2 -->
<g id="edge4" class="edge"><title>Node3&#45;&gt;Node2</title>
<path fill="none" stroke="midnightblue" d="M115,-110.516C115,-100.562 115,-89.0495 115,-81.0279"/>
<polygon fill="midnightblue" stroke="midnightblue" points="111.5,-110.822 115,-120.822 118.5,-110.822 111.5,-110.822"/>
</g>
<!-- Node4 -->
<g id="node6" class="node"><title>Node4</title>
<a xlink:href="class_kitware_1_1_v_t_k_1_1vtk_table_algorithm.html" target="_top" xlink:title="vtkTableAlgorithm &#45; Superclass for algorithms that produce only vtkTables as output">
<polygon fill="none" stroke="black" points="64.5,-181 64.5,-201 165.5,-201 165.5,-181 64.5,-181"/>
<text text-anchor="middle" x="115" y="-188" font-family="FreeSans" font-size="10.00">vtkTableAlgorithm</text>
</a>
</g>
<!-- Node4&#45;&gt;Node3 -->
<g id="edge6" class="edge"><title>Node4&#45;&gt;Node3</title>
<path fill="none" stroke="midnightblue" d="M115,-170.516C115,-160.562 115,-149.05 115,-141.028"/>
<polygon fill="midnightblue" stroke="midnightblue" points="111.5,-170.822 115,-180.822 118.5,-170.822 111.5,-170.822"/>
</g>
<!-- Node5 -->
<g id="node8" class="node"><title>Node5</title>
<a xlink:href="class_kitware_1_1_v_t_k_1_1vtk_algorithm.html" target="_top" xlink:title="vtkAlgorithm &#45; Superclass for all sources, filters, and sinks in VTK.">
<polygon fill="none" stroke="black" points="76.5,-241 76.5,-261 153.5,-261 153.5,-241 76.5,-241"/>
<text text-anchor="middle" x="115" y="-248" font-family="FreeSans" font-size="10.00">vtkAlgorithm</text>
</a>
</g>
<!-- Node5&#45;&gt;Node4 -->
<g id="edge8" class="edge"><title>Node5&#45;&gt;Node4</title>
<path fill="none" stroke="midnightblue" d="M115,-230.516C115,-220.562 115,-209.05 115,-201.028"/>
<polygon fill="midnightblue" stroke="midnightblue" points="111.5,-230.822 115,-240.822 118.5,-230.822 111.5,-230.822"/>
</g>
<!-- Node6 -->
<g id="node10" class="node"><title>Node6</title>
<a xlink:href="class_kitware_1_1_v_t_k_1_1vtk_object.html" target="_top" xlink:title="vtkObject &#45; abstract base class for most VTK objects">
<polygon fill="none" stroke="black" points="84,-301 84,-321 146,-321 146,-301 84,-301"/>
<text text-anchor="middle" x="115" y="-308" font-family="FreeSans" font-size="10.00">vtkObject</text>
</a>
</g>
<!-- Node6&#45;&gt;Node5 -->
<g id="edge10" class="edge"><title>Node6&#45;&gt;Node5</title>
<path fill="none" stroke="midnightblue" d="M115,-290.516C115,-280.562 115,-269.05 115,-261.028"/>
<polygon fill="midnightblue" stroke="midnightblue" points="111.5,-290.822 115,-300.822 118.5,-290.822 111.5,-290.822"/>
</g>
<!-- Node7 -->
<g id="node12" class="node"><title>Node7</title>
<a xlink:href="class_kitware_1_1_v_t_k_1_1vtk_object_base.html" target="_top" xlink:title="vtkObjectBase &#45; abstract base class for most VTK objects">
<polygon fill="none" stroke="black" points="135,-741 135,-761 221,-761 221,-741 135,-741"/>
<text text-anchor="middle" x="178" y="-748" font-family="FreeSans" font-size="10.00">vtkObjectBase</text>
</a>
</g>
<!-- Node7&#45;&gt;Node6 -->
<g id="edge12" class="edge"><title>Node7&#45;&gt;Node6</title>
<path fill="none" stroke="midnightblue" d="M149.423,-735.886C135.687,-727.44 119.884,-715.826 109,-702 97.1564,-686.955 96.6209,-680.802 93,-662 67.4248,-529.199 102.577,-363.437 112.516,-321.17"/>
<polygon fill="midnightblue" stroke="midnightblue" points="147.683,-738.923 158.079,-740.97 151.229,-732.887 147.683,-738.923"/>
</g>
<!-- Node10 -->
<g id="node19" class="node"><title>Node10</title>
<a xlink:href="class_kitware_1_1_v_t_k_1_1vtk_object.html" target="_top" xlink:title="vtkObject &#45; abstract base class for most VTK objects">
<polygon fill="none" stroke="black" points="118,-681 118,-701 238,-701 238,-681 118,-681"/>
<text text-anchor="middle" x="178" y="-688" font-family="FreeSans" font-size="10.00">Kitware.VTK.vtkObject</text>
</a>
</g>
<!-- Node7&#45;&gt;Node10 -->
<g id="edge22" class="edge"><title>Node7&#45;&gt;Node10</title>
<path fill="none" stroke="midnightblue" d="M178,-730.516C178,-720.562 178,-709.05 178,-701.028"/>
<polygon fill="midnightblue" stroke="midnightblue" points="174.5,-730.822 178,-740.822 181.5,-730.822 174.5,-730.822"/>
</g>
<!-- Node8 -->
<g id="node14" class="node"><title>Node8</title>
<a xlink:href="class_kitware_1_1_v_t_k_1_1_wrapped_object.html" target="_top" xlink:title="Base class for all the mummy wrapped classes in Kitware.VTK.">
<polygon fill="none" stroke="black" points="316.5,-801 316.5,-821 405.5,-821 405.5,-801 316.5,-801"/>
<text text-anchor="middle" x="361" y="-808" font-family="FreeSans" font-size="10.00">WrappedObject</text>
</a>
</g>
<!-- Node8&#45;&gt;Node7 -->
<g id="edge14" class="edge"><title>Node8&#45;&gt;Node7</title>
<path fill="none" stroke="midnightblue" d="M320.804,-797.821C287.042,-786.752 239.512,-771.168 208.73,-761.075"/>
<polygon fill="midnightblue" stroke="midnightblue" points="319.777,-801.168 330.37,-800.957 321.958,-794.516 319.777,-801.168"/>
</g>
<!-- Node9 -->
<g id="node16" class="node"><title>Node9</title>
<a xlink:href="class_kitware_1_1_v_t_k_1_1vtk_object_event_relay.html" target="_top" xlink:title="Implement a relay handler for VTK events. This is a class that receives events directly from the VTK ...">
<polygon fill="none" stroke="black" points="107,-491 107,-511 279,-511 279,-491 107,-491"/>
<text text-anchor="middle" x="193" y="-498" font-family="FreeSans" font-size="10.00">Kitware.VTK.vtkObjectEventRelay</text>
</a>
</g>
<!-- Node8&#45;&gt;Node9 -->
<g id="edge18" class="edge"><title>Node8&#45;&gt;Node9</title>
<path fill="none" stroke="midnightblue" d="M373.888,-792.325C406.276,-742.899 483.803,-607.191 416,-530 406.773,-519.495 338.047,-511.666 279.298,-506.808"/>
<polygon fill="midnightblue" stroke="midnightblue" points="370.891,-790.509 368.239,-800.767 376.709,-794.402 370.891,-790.509"/>
</g>
<!-- Node9&#45;&gt;Node6 -->
<g id="edge16" class="edge"><title>Node9&#45;&gt;Node6</title>
<path fill="none" stroke="#9a32cd" stroke-dasharray="5,2" d="M184.921,-481.321C168.489,-441.293 131.674,-351.616 119.214,-321.266"/>
<polygon fill="#9a32cd" stroke="#9a32cd" points="181.771,-482.863 188.806,-490.785 188.246,-480.205 181.771,-482.863"/>
<text text-anchor="middle" x="292.5" y="-463" font-family="FreeSans" font-size="10.00"> LeftButtonReleaseEvtRelay</text>
<text text-anchor="middle" x="292.5" y="-451" font-family="FreeSans" font-size="10.00">KeyPressEvtRelay</text>
<text text-anchor="middle" x="292.5" y="-439" font-family="FreeSans" font-size="10.00">DomainModifiedEvtRelay</text>
<text text-anchor="middle" x="292.5" y="-427" font-family="FreeSans" font-size="10.00">VolumeMapperComputeGradientsStartEvtRelay</text>
<text text-anchor="middle" x="292.5" y="-415" font-family="FreeSans" font-size="10.00">ErrorEvtRelay</text>
<text text-anchor="middle" x="292.5" y="-403" font-family="FreeSans" font-size="10.00">VolumeMapperRenderStartEvtRelay</text>
<text text-anchor="middle" x="292.5" y="-391" font-family="FreeSans" font-size="10.00">StartEvtRelay</text>
<text text-anchor="middle" x="292.5" y="-379" font-family="FreeSans" font-size="10.00">ResetCameraEvtRelay</text>
<text text-anchor="middle" x="292.5" y="-367" font-family="FreeSans" font-size="10.00">EnableEvtRelay</text>
<text text-anchor="middle" x="292.5" y="-355" font-family="FreeSans" font-size="10.00">DeleteEvtRelay</text>
<text text-anchor="middle" x="292.5" y="-343" font-family="FreeSans" font-size="10.00">...</text>
</g>
<!-- Node9&#45;&gt;Node10 -->
<g id="edge24" class="edge"><title>Node9&#45;&gt;Node10</title>
<path fill="none" stroke="#9a32cd" stroke-dasharray="5,2" d="M190.028,-521.231C189.649,-524.169 189.293,-527.159 189,-530 183.144,-586.853 179.636,-655.333 178.452,-680.807"/>
<polygon fill="#9a32cd" stroke="#9a32cd" points="193.515,-521.565 191.421,-511.179 186.582,-520.604 193.515,-521.565"/>
<text text-anchor="middle" x="302.5" y="-653" font-family="FreeSans" font-size="10.00"> LeftButtonReleaseEvtRelay</text>
<text text-anchor="middle" x="302.5" y="-641" font-family="FreeSans" font-size="10.00">KeyPressEvtRelay</text>
<text text-anchor="middle" x="302.5" y="-629" font-family="FreeSans" font-size="10.00">DomainModifiedEvtRelay</text>
<text text-anchor="middle" x="302.5" y="-617" font-family="FreeSans" font-size="10.00">VolumeMapperComputeGradientsStartEvtRelay</text>
<text text-anchor="middle" x="302.5" y="-605" font-family="FreeSans" font-size="10.00">ErrorEvtRelay</text>
<text text-anchor="middle" x="302.5" y="-593" font-family="FreeSans" font-size="10.00">VolumeMapperRenderStartEvtRelay</text>
<text text-anchor="middle" x="302.5" y="-581" font-family="FreeSans" font-size="10.00">StartEvtRelay</text>
<text text-anchor="middle" x="302.5" y="-569" font-family="FreeSans" font-size="10.00">ResetCameraEvtRelay</text>
<text text-anchor="middle" x="302.5" y="-557" font-family="FreeSans" font-size="10.00">EnableEvtRelay</text>
<text text-anchor="middle" x="302.5" y="-545" font-family="FreeSans" font-size="10.00">DeleteEvtRelay</text>
<text text-anchor="middle" x="302.5" y="-533" font-family="FreeSans" font-size="10.00">...</text>
</g>
<!-- Node10&#45;&gt;Node9 -->
<g id="edge20" class="edge"><title>Node10&#45;&gt;Node9</title>
<path fill="none" stroke="#9a32cd" stroke-dasharray="5,2" d="M131.979,-675.818C126.439,-672.138 121.51,-667.596 118,-662 86.8229,-612.303 84.8299,-578.389 118,-530 122.736,-523.091 139.511,-516.287 155.999,-511.008"/>
<polygon fill="#9a32cd" stroke="#9a32cd" points="130.639,-679.079 141.072,-680.919 134.064,-672.974 130.639,-679.079"/>
<text text-anchor="middle" x="142" y="-599" font-family="FreeSans" font-size="10.00"> Sender</text>
<text text-anchor="middle" x="142" y="-587" font-family="FreeSans" font-size="10.00">EventImpl</text>
</g>
</g>
</svg>
