<?xml version="1.0" encoding="UTF-8" standalone="no"?>
<!DOCTYPE svg PUBLIC "-//W3C//DTD SVG 1.1//EN"
 "http://www.w3.org/Graphics/SVG/1.1/DTD/svg11.dtd">
<!-- Generated by graphviz version 2.26.3 (20100126.1600)
 -->
<!-- Title: G Pages: 1 -->
<svg width="326pt" height="436pt"
 viewBox="0.00 0.00 326.00 436.00" xmlns="http://www.w3.org/2000/svg" xmlns:xlink="http://www.w3.org/1999/xlink">
<g id="graph1" class="graph" transform="scale(1 1) rotate(0) translate(4 432)">
<title>G</title>
<!-- Node1 -->
<g id="node1" class="node"><title>Node1</title>
<polygon fill="#bfbfbf" stroke="black" points="33.5,-59 33.5,-79 284.5,-79 284.5,-59 33.5,-59"/>
<text text-anchor="middle" x="159" y="-66" font-family="FreeSans" font-size="10.00">Kitware.VTK.vtkFocalPlaneContourRepresentation</text>
</g>
<!-- Node8 -->
<g id="node15" class="node"><title>Node8</title>
<a xlink:href="class_kitware_1_1_v_t_k_1_1vtk_oriented_glyph_focal_plane_contour_representation.html" target="_top" xlink:title="vtkOrientedGlyphFocalPlaneContourRepresentation &#45; Contours constrained to a focal plane...">
<polygon fill="none" stroke="black" points="-0.5,-1 -0.5,-21 318.5,-21 318.5,-1 -0.5,-1"/>
<text text-anchor="middle" x="159" y="-8" font-family="FreeSans" font-size="10.00">Kitware.VTK.vtkOrientedGlyphFocalPlaneContourRepresentation</text>
</a>
</g>
<!-- Node1&#45;&gt;Node8 -->
<g id="edge14" class="edge"><title>Node1&#45;&gt;Node8</title>
<path fill="none" stroke="midnightblue" d="M159,-48.8902C159,-39.6201 159,-29.0083 159,-21.3776"/>
<polygon fill="midnightblue" stroke="midnightblue" points="155.5,-48.8971 159,-58.8972 162.5,-48.8972 155.5,-48.8971"/>
</g>
<!-- Node2 -->
<g id="node2" class="node"><title>Node2</title>
<a xlink:href="class_kitware_1_1_v_t_k_1_1vtk_contour_representation.html" target="_top" xlink:title="vtkContourRepresentation &#45; represent the vtkContourWidget">
<polygon fill="none" stroke="black" points="88.5,-117 88.5,-137 229.5,-137 229.5,-117 88.5,-117"/>
<text text-anchor="middle" x="159" y="-124" font-family="FreeSans" font-size="10.00">vtkContourRepresentation</text>
</a>
</g>
<!-- Node2&#45;&gt;Node1 -->
<g id="edge2" class="edge"><title>Node2&#45;&gt;Node1</title>
<path fill="none" stroke="midnightblue" d="M159,-106.89C159,-97.6201 159,-87.0083 159,-79.3776"/>
<polygon fill="midnightblue" stroke="midnightblue" points="155.5,-106.897 159,-116.897 162.5,-106.897 155.5,-106.897"/>
</g>
<!-- Node3 -->
<g id="node4" class="node"><title>Node3</title>
<a xlink:href="class_kitware_1_1_v_t_k_1_1vtk_widget_representation.html" target="_top" xlink:title="vtkWidgetRepresentation &#45; abstract class defines interface between the widget and widget representati...">
<polygon fill="none" stroke="black" points="91.5,-175 91.5,-195 226.5,-195 226.5,-175 91.5,-175"/>
<text text-anchor="middle" x="159" y="-182" font-family="FreeSans" font-size="10.00">vtkWidgetRepresentation</text>
</a>
</g>
<!-- Node3&#45;&gt;Node2 -->
<g id="edge4" class="edge"><title>Node3&#45;&gt;Node2</title>
<path fill="none" stroke="midnightblue" d="M159,-164.89C159,-155.62 159,-145.008 159,-137.378"/>
<polygon fill="midnightblue" stroke="midnightblue" points="155.5,-164.897 159,-174.897 162.5,-164.897 155.5,-164.897"/>
</g>
<!-- Node4 -->
<g id="node6" class="node"><title>Node4</title>
<a xlink:href="class_kitware_1_1_v_t_k_1_1vtk_prop.html" target="_top" xlink:title="vtkProp &#45; abstract superclass for all actors, volumes and annotations">
<polygon fill="none" stroke="black" points="132.5,-233 132.5,-253 185.5,-253 185.5,-233 132.5,-233"/>
<text text-anchor="middle" x="159" y="-240" font-family="FreeSans" font-size="10.00">vtkProp</text>
</a>
</g>
<!-- Node4&#45;&gt;Node3 -->
<g id="edge6" class="edge"><title>Node4&#45;&gt;Node3</title>
<path fill="none" stroke="midnightblue" d="M159,-222.89C159,-213.62 159,-203.008 159,-195.378"/>
<polygon fill="midnightblue" stroke="midnightblue" points="155.5,-222.897 159,-232.897 162.5,-222.897 155.5,-222.897"/>
</g>
<!-- Node5 -->
<g id="node8" class="node"><title>Node5</title>
<a xlink:href="class_kitware_1_1_v_t_k_1_1vtk_object.html" target="_top" xlink:title="vtkObject &#45; abstract base class for most VTK objects">
<polygon fill="none" stroke="black" points="128,-291 128,-311 190,-311 190,-291 128,-291"/>
<text text-anchor="middle" x="159" y="-298" font-family="FreeSans" font-size="10.00">vtkObject</text>
</a>
</g>
<!-- Node5&#45;&gt;Node4 -->
<g id="edge8" class="edge"><title>Node5&#45;&gt;Node4</title>
<path fill="none" stroke="midnightblue" d="M159,-280.89C159,-271.62 159,-261.008 159,-253.378"/>
<polygon fill="midnightblue" stroke="midnightblue" points="155.5,-280.897 159,-290.897 162.5,-280.897 155.5,-280.897"/>
</g>
<!-- Node6 -->
<g id="node10" class="node"><title>Node6</title>
<a xlink:href="class_kitware_1_1_v_t_k_1_1vtk_object_base.html" target="_top" xlink:title="vtkObjectBase &#45; abstract base class for most VTK objects">
<polygon fill="none" stroke="black" points="116,-349 116,-369 202,-369 202,-349 116,-349"/>
<text text-anchor="middle" x="159" y="-356" font-family="FreeSans" font-size="10.00">vtkObjectBase</text>
</a>
</g>
<!-- Node6&#45;&gt;Node5 -->
<g id="edge10" class="edge"><title>Node6&#45;&gt;Node5</title>
<path fill="none" stroke="midnightblue" d="M159,-338.89C159,-329.62 159,-319.008 159,-311.378"/>
<polygon fill="midnightblue" stroke="midnightblue" points="155.5,-338.897 159,-348.897 162.5,-338.897 155.5,-338.897"/>
</g>
<!-- Node7 -->
<g id="node12" class="node"><title>Node7</title>
<a xlink:href="class_kitware_1_1_v_t_k_1_1_wrapped_object.html" target="_top" xlink:title="Base class for all the mummy wrapped classes in Kitware.VTK.">
<polygon fill="none" stroke="black" points="114.5,-407 114.5,-427 203.5,-427 203.5,-407 114.5,-407"/>
<text text-anchor="middle" x="159" y="-414" font-family="FreeSans" font-size="10.00">WrappedObject</text>
</a>
</g>
<!-- Node7&#45;&gt;Node6 -->
<g id="edge12" class="edge"><title>Node7&#45;&gt;Node6</title>
<path fill="none" stroke="midnightblue" d="M159,-396.89C159,-387.62 159,-377.008 159,-369.378"/>
<polygon fill="midnightblue" stroke="midnightblue" points="155.5,-396.897 159,-406.897 162.5,-396.897 155.5,-396.897"/>
</g>
</g>
</svg>
