<?xml version="1.0" encoding="UTF-8" standalone="no"?>
<!DOCTYPE svg PUBLIC "-//W3C//DTD SVG 1.1//EN"
 "http://www.w3.org/Graphics/SVG/1.1/DTD/svg11.dtd">
<!-- Generated by graphviz version 2.26.3 (20100126.1600)
 -->
<!-- Title: G Pages: 1 -->
<svg width="206pt" height="436pt"
 viewBox="0.00 0.00 206.00 436.00" xmlns="http://www.w3.org/2000/svg" xmlns:xlink="http://www.w3.org/1999/xlink">
<g id="graph1" class="graph" transform="scale(1 1) rotate(0) translate(4 432)">
<title>G</title>
<!-- Node1 -->
<g id="node1" class="node"><title>Node1</title>
<polygon fill="#bfbfbf" stroke="black" points="0,-1 0,-21 198,-21 198,-1 0,-1"/>
<text text-anchor="middle" x="99" y="-8" font-family="FreeSans" font-size="10.00">Kitware.VTK.vtkImageHybridMedian2D</text>
</g>
<!-- Node2 -->
<g id="node2" class="node"><title>Node2</title>
<a xlink:href="class_kitware_1_1_v_t_k_1_1vtk_image_spatial_algorithm.html" target="_top" xlink:title="vtkImageSpatialAlgorithm &#45; Filters that operate on pixel neighborhoods.">
<polygon fill="none" stroke="black" points="29,-59 29,-79 169,-79 169,-59 29,-59"/>
<text text-anchor="middle" x="99" y="-66" font-family="FreeSans" font-size="10.00">vtkImageSpatialAlgorithm</text>
</a>
</g>
<!-- Node2&#45;&gt;Node1 -->
<g id="edge2" class="edge"><title>Node2&#45;&gt;Node1</title>
<path fill="none" stroke="midnightblue" d="M99,-48.8902C99,-39.6201 99,-29.0083 99,-21.3776"/>
<polygon fill="midnightblue" stroke="midnightblue" points="95.5001,-48.8971 99,-58.8972 102.5,-48.8972 95.5001,-48.8971"/>
</g>
<!-- Node3 -->
<g id="node4" class="node"><title>Node3</title>
<a xlink:href="class_kitware_1_1_v_t_k_1_1vtk_threaded_image_algorithm.html" target="_top" xlink:title="vtkThreadedImageAlgorithm &#45; Generic filter that has one input..">
<polygon fill="none" stroke="black" points="23,-117 23,-137 175,-137 175,-117 23,-117"/>
<text text-anchor="middle" x="99" y="-124" font-family="FreeSans" font-size="10.00">vtkThreadedImageAlgorithm</text>
</a>
</g>
<!-- Node3&#45;&gt;Node2 -->
<g id="edge4" class="edge"><title>Node3&#45;&gt;Node2</title>
<path fill="none" stroke="midnightblue" d="M99,-106.89C99,-97.6201 99,-87.0083 99,-79.3776"/>
<polygon fill="midnightblue" stroke="midnightblue" points="95.5001,-106.897 99,-116.897 102.5,-106.897 95.5001,-106.897"/>
</g>
<!-- Node4 -->
<g id="node6" class="node"><title>Node4</title>
<a xlink:href="class_kitware_1_1_v_t_k_1_1vtk_image_algorithm.html" target="_top" xlink:title="vtkImageAlgorithm &#45; Generic algorithm superclass for image algs">
<polygon fill="none" stroke="black" points="45.5,-175 45.5,-195 152.5,-195 152.5,-175 45.5,-175"/>
<text text-anchor="middle" x="99" y="-182" font-family="FreeSans" font-size="10.00">vtkImageAlgorithm</text>
</a>
</g>
<!-- Node4&#45;&gt;Node3 -->
<g id="edge6" class="edge"><title>Node4&#45;&gt;Node3</title>
<path fill="none" stroke="midnightblue" d="M99,-164.89C99,-155.62 99,-145.008 99,-137.378"/>
<polygon fill="midnightblue" stroke="midnightblue" points="95.5001,-164.897 99,-174.897 102.5,-164.897 95.5001,-164.897"/>
</g>
<!-- Node5 -->
<g id="node8" class="node"><title>Node5</title>
<a xlink:href="class_kitware_1_1_v_t_k_1_1vtk_algorithm.html" target="_top" xlink:title="vtkAlgorithm &#45; Superclass for all sources, filters, and sinks in VTK.">
<polygon fill="none" stroke="black" points="60.5,-233 60.5,-253 137.5,-253 137.5,-233 60.5,-233"/>
<text text-anchor="middle" x="99" y="-240" font-family="FreeSans" font-size="10.00">vtkAlgorithm</text>
</a>
</g>
<!-- Node5&#45;&gt;Node4 -->
<g id="edge8" class="edge"><title>Node5&#45;&gt;Node4</title>
<path fill="none" stroke="midnightblue" d="M99,-222.89C99,-213.62 99,-203.008 99,-195.378"/>
<polygon fill="midnightblue" stroke="midnightblue" points="95.5001,-222.897 99,-232.897 102.5,-222.897 95.5001,-222.897"/>
</g>
<!-- Node6 -->
<g id="node10" class="node"><title>Node6</title>
<a xlink:href="class_kitware_1_1_v_t_k_1_1vtk_object.html" target="_top" xlink:title="vtkObject &#45; abstract base class for most VTK objects">
<polygon fill="none" stroke="black" points="68,-291 68,-311 130,-311 130,-291 68,-291"/>
<text text-anchor="middle" x="99" y="-298" font-family="FreeSans" font-size="10.00">vtkObject</text>
</a>
</g>
<!-- Node6&#45;&gt;Node5 -->
<g id="edge10" class="edge"><title>Node6&#45;&gt;Node5</title>
<path fill="none" stroke="midnightblue" d="M99,-280.89C99,-271.62 99,-261.008 99,-253.378"/>
<polygon fill="midnightblue" stroke="midnightblue" points="95.5001,-280.897 99,-290.897 102.5,-280.897 95.5001,-280.897"/>
</g>
<!-- Node7 -->
<g id="node12" class="node"><title>Node7</title>
<a xlink:href="class_kitware_1_1_v_t_k_1_1vtk_object_base.html" target="_top" xlink:title="vtkObjectBase &#45; abstract base class for most VTK objects">
<polygon fill="none" stroke="black" points="56,-349 56,-369 142,-369 142,-349 56,-349"/>
<text text-anchor="middle" x="99" y="-356" font-family="FreeSans" font-size="10.00">vtkObjectBase</text>
</a>
</g>
<!-- Node7&#45;&gt;Node6 -->
<g id="edge12" class="edge"><title>Node7&#45;&gt;Node6</title>
<path fill="none" stroke="midnightblue" d="M99,-338.89C99,-329.62 99,-319.008 99,-311.378"/>
<polygon fill="midnightblue" stroke="midnightblue" points="95.5001,-338.897 99,-348.897 102.5,-338.897 95.5001,-338.897"/>
</g>
<!-- Node8 -->
<g id="node14" class="node"><title>Node8</title>
<a xlink:href="class_kitware_1_1_v_t_k_1_1_wrapped_object.html" target="_top" xlink:title="Base class for all the mummy wrapped classes in Kitware.VTK.">
<polygon fill="none" stroke="black" points="54.5,-407 54.5,-427 143.5,-427 143.5,-407 54.5,-407"/>
<text text-anchor="middle" x="99" y="-414" font-family="FreeSans" font-size="10.00">WrappedObject</text>
</a>
</g>
<!-- Node8&#45;&gt;Node7 -->
<g id="edge14" class="edge"><title>Node8&#45;&gt;Node7</title>
<path fill="none" stroke="midnightblue" d="M99,-396.89C99,-387.62 99,-377.008 99,-369.378"/>
<polygon fill="midnightblue" stroke="midnightblue" points="95.5001,-396.897 99,-406.897 102.5,-396.897 95.5001,-396.897"/>
</g>
</g>
</svg>
