<?xml version="1.0" encoding="UTF-8" standalone="no"?>
<!DOCTYPE svg PUBLIC "-//W3C//DTD SVG 1.1//EN"
 "http://www.w3.org/Graphics/SVG/1.1/DTD/svg11.dtd">
<!-- Generated by graphviz version 2.26.3 (20100126.1600)
 -->
<!-- Title: G Pages: 1 -->
<svg width="453pt" height="770pt"
 viewBox="0.00 0.00 453.46 770.00" xmlns="http://www.w3.org/2000/svg" xmlns:xlink="http://www.w3.org/1999/xlink">
<g id="graph1" class="graph" transform="scale(1 1) rotate(0) translate(4 766)">
<title>G</title>
<!-- Node1 -->
<g id="node1" class="node"><title>Node1</title>
<polygon fill="#bfbfbf" stroke="black" points="-0.5,-1 -0.5,-21 234.5,-21 234.5,-1 -0.5,-1"/>
<text text-anchor="middle" x="117" y="-8" font-family="FreeSans" font-size="10.00">Kitware.VTK.vtkIterativeClosestPointTransform</text>
</g>
<!-- Node2 -->
<g id="node2" class="node"><title>Node2</title>
<a xlink:href="class_kitware_1_1_v_t_k_1_1vtk_linear_transform.html" target="_top" xlink:title="vtkLinearTransform &#45; abstract superclass for linear transformations">
<polygon fill="none" stroke="black" points="63.5,-61 63.5,-81 170.5,-81 170.5,-61 63.5,-61"/>
<text text-anchor="middle" x="117" y="-68" font-family="FreeSans" font-size="10.00">vtkLinearTransform</text>
</a>
</g>
<!-- Node2&#45;&gt;Node1 -->
<g id="edge2" class="edge"><title>Node2&#45;&gt;Node1</title>
<path fill="none" stroke="midnightblue" d="M117,-50.5155C117,-40.562 117,-29.0495 117,-21.0279"/>
<polygon fill="midnightblue" stroke="midnightblue" points="113.5,-50.8218 117,-60.8218 120.5,-50.8219 113.5,-50.8218"/>
</g>
<!-- Node3 -->
<g id="node4" class="node"><title>Node3</title>
<a xlink:href="class_kitware_1_1_v_t_k_1_1vtk_homogeneous_transform.html" target="_top" xlink:title="vtkHomogeneousTransform &#45; superclass for homogeneous transformations">
<polygon fill="none" stroke="black" points="42.5,-121 42.5,-141 191.5,-141 191.5,-121 42.5,-121"/>
<text text-anchor="middle" x="117" y="-128" font-family="FreeSans" font-size="10.00">vtkHomogeneousTransform</text>
</a>
</g>
<!-- Node3&#45;&gt;Node2 -->
<g id="edge4" class="edge"><title>Node3&#45;&gt;Node2</title>
<path fill="none" stroke="midnightblue" d="M117,-110.516C117,-100.562 117,-89.0495 117,-81.0279"/>
<polygon fill="midnightblue" stroke="midnightblue" points="113.5,-110.822 117,-120.822 120.5,-110.822 113.5,-110.822"/>
</g>
<!-- Node4 -->
<g id="node6" class="node"><title>Node4</title>
<a xlink:href="class_kitware_1_1_v_t_k_1_1vtk_abstract_transform.html" target="_top" xlink:title="vtkAbstractTransform &#45; superclass for all geometric transformations">
<polygon fill="none" stroke="black" points="57.5,-181 57.5,-201 176.5,-201 176.5,-181 57.5,-181"/>
<text text-anchor="middle" x="117" y="-188" font-family="FreeSans" font-size="10.00">vtkAbstractTransform</text>
</a>
</g>
<!-- Node4&#45;&gt;Node3 -->
<g id="edge6" class="edge"><title>Node4&#45;&gt;Node3</title>
<path fill="none" stroke="midnightblue" d="M117,-170.516C117,-160.562 117,-149.05 117,-141.028"/>
<polygon fill="midnightblue" stroke="midnightblue" points="113.5,-170.822 117,-180.822 120.5,-170.822 113.5,-170.822"/>
</g>
<!-- Node5 -->
<g id="node8" class="node"><title>Node5</title>
<a xlink:href="class_kitware_1_1_v_t_k_1_1vtk_object.html" target="_top" xlink:title="vtkObject &#45; abstract base class for most VTK objects">
<polygon fill="none" stroke="black" points="86,-241 86,-261 148,-261 148,-241 86,-241"/>
<text text-anchor="middle" x="117" y="-248" font-family="FreeSans" font-size="10.00">vtkObject</text>
</a>
</g>
<!-- Node5&#45;&gt;Node4 -->
<g id="edge8" class="edge"><title>Node5&#45;&gt;Node4</title>
<path fill="none" stroke="midnightblue" d="M117,-230.516C117,-220.562 117,-209.05 117,-201.028"/>
<polygon fill="midnightblue" stroke="midnightblue" points="113.5,-230.822 117,-240.822 120.5,-230.822 113.5,-230.822"/>
</g>
<!-- Node6 -->
<g id="node10" class="node"><title>Node6</title>
<a xlink:href="class_kitware_1_1_v_t_k_1_1vtk_object_base.html" target="_top" xlink:title="vtkObjectBase &#45; abstract base class for most VTK objects">
<polygon fill="none" stroke="black" points="137,-681 137,-701 223,-701 223,-681 137,-681"/>
<text text-anchor="middle" x="180" y="-688" font-family="FreeSans" font-size="10.00">vtkObjectBase</text>
</a>
</g>
<!-- Node6&#45;&gt;Node5 -->
<g id="edge10" class="edge"><title>Node6&#45;&gt;Node5</title>
<path fill="none" stroke="midnightblue" d="M151.423,-675.886C137.687,-667.44 121.884,-655.826 111,-642 99.1564,-626.955 98.6209,-620.802 95,-602 69.4248,-469.199 104.577,-303.437 114.516,-261.17"/>
<polygon fill="midnightblue" stroke="midnightblue" points="149.683,-678.923 160.079,-680.97 153.229,-672.887 149.683,-678.923"/>
</g>
<!-- Node9 -->
<g id="node17" class="node"><title>Node9</title>
<a xlink:href="class_kitware_1_1_v_t_k_1_1vtk_object.html" target="_top" xlink:title="vtkObject &#45; abstract base class for most VTK objects">
<polygon fill="none" stroke="black" points="120,-621 120,-641 240,-641 240,-621 120,-621"/>
<text text-anchor="middle" x="180" y="-628" font-family="FreeSans" font-size="10.00">Kitware.VTK.vtkObject</text>
</a>
</g>
<!-- Node6&#45;&gt;Node9 -->
<g id="edge20" class="edge"><title>Node6&#45;&gt;Node9</title>
<path fill="none" stroke="midnightblue" d="M180,-670.516C180,-660.562 180,-649.05 180,-641.028"/>
<polygon fill="midnightblue" stroke="midnightblue" points="176.5,-670.822 180,-680.822 183.5,-670.822 176.5,-670.822"/>
</g>
<!-- Node7 -->
<g id="node12" class="node"><title>Node7</title>
<a xlink:href="class_kitware_1_1_v_t_k_1_1_wrapped_object.html" target="_top" xlink:title="Base class for all the mummy wrapped classes in Kitware.VTK.">
<polygon fill="none" stroke="black" points="318.5,-741 318.5,-761 407.5,-761 407.5,-741 318.5,-741"/>
<text text-anchor="middle" x="363" y="-748" font-family="FreeSans" font-size="10.00">WrappedObject</text>
</a>
</g>
<!-- Node7&#45;&gt;Node6 -->
<g id="edge12" class="edge"><title>Node7&#45;&gt;Node6</title>
<path fill="none" stroke="midnightblue" d="M322.804,-737.821C289.042,-726.752 241.512,-711.168 210.73,-701.075"/>
<polygon fill="midnightblue" stroke="midnightblue" points="321.777,-741.168 332.37,-740.957 323.958,-734.516 321.777,-741.168"/>
</g>
<!-- Node8 -->
<g id="node14" class="node"><title>Node8</title>
<a xlink:href="class_kitware_1_1_v_t_k_1_1vtk_object_event_relay.html" target="_top" xlink:title="Implement a relay handler for VTK events. This is a class that receives events directly from the VTK ...">
<polygon fill="none" stroke="black" points="109,-431 109,-451 281,-451 281,-431 109,-431"/>
<text text-anchor="middle" x="195" y="-438" font-family="FreeSans" font-size="10.00">Kitware.VTK.vtkObjectEventRelay</text>
</a>
</g>
<!-- Node7&#45;&gt;Node8 -->
<g id="edge16" class="edge"><title>Node7&#45;&gt;Node8</title>
<path fill="none" stroke="midnightblue" d="M375.888,-732.325C408.276,-682.899 485.803,-547.191 418,-470 408.773,-459.495 340.047,-451.666 281.298,-446.808"/>
<polygon fill="midnightblue" stroke="midnightblue" points="372.891,-730.509 370.239,-740.767 378.709,-734.402 372.891,-730.509"/>
</g>
<!-- Node8&#45;&gt;Node5 -->
<g id="edge14" class="edge"><title>Node8&#45;&gt;Node5</title>
<path fill="none" stroke="#9a32cd" stroke-dasharray="5,2" d="M186.921,-421.321C170.489,-381.293 133.674,-291.616 121.214,-261.266"/>
<polygon fill="#9a32cd" stroke="#9a32cd" points="183.771,-422.863 190.806,-430.785 190.246,-420.205 183.771,-422.863"/>
<text text-anchor="middle" x="294.5" y="-403" font-family="FreeSans" font-size="10.00"> LeftButtonReleaseEvtRelay</text>
<text text-anchor="middle" x="294.5" y="-391" font-family="FreeSans" font-size="10.00">KeyPressEvtRelay</text>
<text text-anchor="middle" x="294.5" y="-379" font-family="FreeSans" font-size="10.00">DomainModifiedEvtRelay</text>
<text text-anchor="middle" x="294.5" y="-367" font-family="FreeSans" font-size="10.00">VolumeMapperComputeGradientsStartEvtRelay</text>
<text text-anchor="middle" x="294.5" y="-355" font-family="FreeSans" font-size="10.00">ErrorEvtRelay</text>
<text text-anchor="middle" x="294.5" y="-343" font-family="FreeSans" font-size="10.00">VolumeMapperRenderStartEvtRelay</text>
<text text-anchor="middle" x="294.5" y="-331" font-family="FreeSans" font-size="10.00">StartEvtRelay</text>
<text text-anchor="middle" x="294.5" y="-319" font-family="FreeSans" font-size="10.00">ResetCameraEvtRelay</text>
<text text-anchor="middle" x="294.5" y="-307" font-family="FreeSans" font-size="10.00">EnableEvtRelay</text>
<text text-anchor="middle" x="294.5" y="-295" font-family="FreeSans" font-size="10.00">DeleteEvtRelay</text>
<text text-anchor="middle" x="294.5" y="-283" font-family="FreeSans" font-size="10.00">...</text>
</g>
<!-- Node8&#45;&gt;Node9 -->
<g id="edge22" class="edge"><title>Node8&#45;&gt;Node9</title>
<path fill="none" stroke="#9a32cd" stroke-dasharray="5,2" d="M192.028,-461.231C191.649,-464.169 191.293,-467.159 191,-470 185.144,-526.853 181.636,-595.333 180.452,-620.807"/>
<polygon fill="#9a32cd" stroke="#9a32cd" points="195.515,-461.565 193.421,-451.179 188.582,-460.604 195.515,-461.565"/>
<text text-anchor="middle" x="304.5" y="-593" font-family="FreeSans" font-size="10.00"> LeftButtonReleaseEvtRelay</text>
<text text-anchor="middle" x="304.5" y="-581" font-family="FreeSans" font-size="10.00">KeyPressEvtRelay</text>
<text text-anchor="middle" x="304.5" y="-569" font-family="FreeSans" font-size="10.00">DomainModifiedEvtRelay</text>
<text text-anchor="middle" x="304.5" y="-557" font-family="FreeSans" font-size="10.00">VolumeMapperComputeGradientsStartEvtRelay</text>
<text text-anchor="middle" x="304.5" y="-545" font-family="FreeSans" font-size="10.00">ErrorEvtRelay</text>
<text text-anchor="middle" x="304.5" y="-533" font-family="FreeSans" font-size="10.00">VolumeMapperRenderStartEvtRelay</text>
<text text-anchor="middle" x="304.5" y="-521" font-family="FreeSans" font-size="10.00">StartEvtRelay</text>
<text text-anchor="middle" x="304.5" y="-509" font-family="FreeSans" font-size="10.00">ResetCameraEvtRelay</text>
<text text-anchor="middle" x="304.5" y="-497" font-family="FreeSans" font-size="10.00">EnableEvtRelay</text>
<text text-anchor="middle" x="304.5" y="-485" font-family="FreeSans" font-size="10.00">DeleteEvtRelay</text>
<text text-anchor="middle" x="304.5" y="-473" font-family="FreeSans" font-size="10.00">...</text>
</g>
<!-- Node9&#45;&gt;Node8 -->
<g id="edge18" class="edge"><title>Node9&#45;&gt;Node8</title>
<path fill="none" stroke="#9a32cd" stroke-dasharray="5,2" d="M133.979,-615.818C128.439,-612.138 123.51,-607.596 120,-602 88.8229,-552.303 86.8299,-518.389 120,-470 124.736,-463.091 141.511,-456.287 157.999,-451.008"/>
<polygon fill="#9a32cd" stroke="#9a32cd" points="132.639,-619.079 143.072,-620.919 136.064,-612.974 132.639,-619.079"/>
<text text-anchor="middle" x="144" y="-539" font-family="FreeSans" font-size="10.00"> Sender</text>
<text text-anchor="middle" x="144" y="-527" font-family="FreeSans" font-size="10.00">EventImpl</text>
</g>
</g>
</svg>
