<?xml version="1.0" encoding="UTF-8" standalone="no"?>
<!DOCTYPE svg PUBLIC "-//W3C//DTD SVG 1.1//EN"
 "http://www.w3.org/Graphics/SVG/1.1/DTD/svg11.dtd">
<!-- Generated by graphviz version 2.26.3 (20100126.1600)
 -->
<!-- Title: G Pages: 1 -->
<svg width="970pt" height="142pt"
 viewBox="0.00 0.00 970.00 142.00" xmlns="http://www.w3.org/2000/svg" xmlns:xlink="http://www.w3.org/1999/xlink">
<g id="graph1" class="graph" transform="scale(1 1) rotate(0) translate(4 138)">
<title>G</title>
<!-- Node1 -->
<g id="node1" class="node"><title>Node1</title>
<polygon fill="#bfbfbf" stroke="black" points="346,-57 346,-77 618,-77 618,-57 346,-57"/>
<text text-anchor="middle" x="482" y="-64" font-family="FreeSans" font-size="10.00">Kitware.VTK.vtkUnstructuredGridVolumeRayIntegrator</text>
</g>
<!-- Node5 -->
<g id="node9" class="node"><title>Node5</title>
<a xlink:href="class_kitware_1_1_v_t_k_1_1vtk_unstructured_grid_homogeneous_ray_integrator.html" target="_top" xlink:title="vtkUnstructuredGridHomogeneousRayIntegrator &#45; performs peicewise constant ray integration.">
<polygon fill="none" stroke="black" points="654.5,-114 654.5,-134 961.5,-134 961.5,-114 654.5,-114"/>
<text text-anchor="middle" x="808" y="-121" font-family="FreeSans" font-size="10.00">Kitware.VTK.vtkUnstructuredGridHomogeneousRayIntegrator</text>
</a>
</g>
<!-- Node1&#45;&gt;Node5 -->
<g id="edge8" class="edge"><title>Node1&#45;&gt;Node5</title>
<path fill="none" stroke="midnightblue" d="M532.194,-79.4058C566.367,-87.5269 612.715,-97.909 654,-105 673.647,-108.375 694.803,-111.386 714.955,-113.962"/>
<polygon fill="midnightblue" stroke="midnightblue" points="532.987,-75.9968 522.446,-77.0723 531.357,-82.8044 532.987,-75.9968"/>
</g>
<!-- Node6 -->
<g id="node11" class="node"><title>Node6</title>
<a xlink:href="class_kitware_1_1_v_t_k_1_1vtk_unstructured_grid_linear_ray_integrator.html" target="_top" xlink:title="vtkUnstructuredGridLinearRayIntegrator &#45; performs piecewise linear ray integration.">
<polygon fill="none" stroke="black" points="675,-76 675,-96 941,-96 941,-76 675,-76"/>
<text text-anchor="middle" x="808" y="-83" font-family="FreeSans" font-size="10.00">Kitware.VTK.vtkUnstructuredGridLinearRayIntegrator</text>
</a>
</g>
<!-- Node1&#45;&gt;Node6 -->
<g id="edge10" class="edge"><title>Node1&#45;&gt;Node6</title>
<path fill="none" stroke="midnightblue" d="M628.469,-75.5365C643.898,-76.4358 659.526,-77.3466 674.793,-78.2364"/>
<polygon fill="midnightblue" stroke="midnightblue" points="628.551,-72.0355 618.364,-74.9476 628.144,-79.0236 628.551,-72.0355"/>
</g>
<!-- Node7 -->
<g id="node13" class="node"><title>Node7</title>
<a xlink:href="class_kitware_1_1_v_t_k_1_1vtk_unstructured_grid_partial_pre_integration.html" target="_top" xlink:title="vtkUnstructuredGridPartialPreIntegration &#45; performs piecewise linear ray integration.">
<polygon fill="none" stroke="black" points="673.5,-38 673.5,-58 942.5,-58 942.5,-38 673.5,-38"/>
<text text-anchor="middle" x="808" y="-45" font-family="FreeSans" font-size="10.00">Kitware.VTK.vtkUnstructuredGridPartialPreIntegration</text>
</a>
</g>
<!-- Node1&#45;&gt;Node7 -->
<g id="edge12" class="edge"><title>Node1&#45;&gt;Node7</title>
<path fill="none" stroke="midnightblue" d="M628.662,-58.4522C643.589,-57.5822 658.7,-56.7015 673.488,-55.8397"/>
<polygon fill="midnightblue" stroke="midnightblue" points="628.144,-54.9764 618.364,-59.0524 628.551,-61.9645 628.144,-54.9764"/>
</g>
<!-- Node8 -->
<g id="node15" class="node"><title>Node8</title>
<a xlink:href="class_kitware_1_1_v_t_k_1_1vtk_unstructured_grid_pre_integration.html" target="_top" xlink:title="vtkUnstructuredGridPreIntegration &#45; performs ray integration with pre&#45;integration tables...">
<polygon fill="none" stroke="black" points="688.5,-0 688.5,-20 927.5,-20 927.5,-0 688.5,-0"/>
<text text-anchor="middle" x="808" y="-7" font-family="FreeSans" font-size="10.00">Kitware.VTK.vtkUnstructuredGridPreIntegration</text>
</a>
</g>
<!-- Node1&#45;&gt;Node8 -->
<g id="edge14" class="edge"><title>Node1&#45;&gt;Node8</title>
<path fill="none" stroke="midnightblue" d="M532.194,-54.5942C566.367,-46.4731 612.715,-36.091 654,-29 673.647,-25.6255 694.803,-22.6143 714.955,-20.0383"/>
<polygon fill="midnightblue" stroke="midnightblue" points="531.357,-51.1956 522.446,-56.9277 532.987,-58.0032 531.357,-51.1956"/>
</g>
<!-- Node2 -->
<g id="node2" class="node"><title>Node2</title>
<a xlink:href="class_kitware_1_1_v_t_k_1_1vtk_object.html" target="_top" xlink:title="vtkObject &#45; abstract base class for most VTK objects">
<polygon fill="none" stroke="black" points="248,-57 248,-77 310,-77 310,-57 248,-57"/>
<text text-anchor="middle" x="279" y="-64" font-family="FreeSans" font-size="10.00">vtkObject</text>
</a>
</g>
<!-- Node2&#45;&gt;Node1 -->
<g id="edge2" class="edge"><title>Node2&#45;&gt;Node1</title>
<path fill="none" stroke="midnightblue" d="M320.498,-67C328.36,-67 336.97,-67 345.994,-67"/>
<polygon fill="midnightblue" stroke="midnightblue" points="320.274,-63.5001 310.274,-67 320.274,-70.5001 320.274,-63.5001"/>
</g>
<!-- Node3 -->
<g id="node4" class="node"><title>Node3</title>
<a xlink:href="class_kitware_1_1_v_t_k_1_1vtk_object_base.html" target="_top" xlink:title="vtkObjectBase &#45; abstract base class for most VTK objects">
<polygon fill="none" stroke="black" points="126,-57 126,-77 212,-77 212,-57 126,-57"/>
<text text-anchor="middle" x="169" y="-64" font-family="FreeSans" font-size="10.00">vtkObjectBase</text>
</a>
</g>
<!-- Node3&#45;&gt;Node2 -->
<g id="edge4" class="edge"><title>Node3&#45;&gt;Node2</title>
<path fill="none" stroke="midnightblue" d="M222.346,-67C231.091,-67 239.892,-67 247.863,-67"/>
<polygon fill="midnightblue" stroke="midnightblue" points="222.159,-63.5001 212.159,-67 222.159,-70.5001 222.159,-63.5001"/>
</g>
<!-- Node4 -->
<g id="node6" class="node"><title>Node4</title>
<a xlink:href="class_kitware_1_1_v_t_k_1_1_wrapped_object.html" target="_top" xlink:title="Base class for all the mummy wrapped classes in Kitware.VTK.">
<polygon fill="none" stroke="black" points="0.5,-57 0.5,-77 89.5,-77 89.5,-57 0.5,-57"/>
<text text-anchor="middle" x="45" y="-64" font-family="FreeSans" font-size="10.00">WrappedObject</text>
</a>
</g>
<!-- Node4&#45;&gt;Node3 -->
<g id="edge6" class="edge"><title>Node4&#45;&gt;Node3</title>
<path fill="none" stroke="midnightblue" d="M99.8895,-67C108.623,-67 117.548,-67 125.957,-67"/>
<polygon fill="midnightblue" stroke="midnightblue" points="99.7669,-63.5001 89.7668,-67 99.7668,-70.5001 99.7669,-63.5001"/>
</g>
</g>
</svg>
