<?xml version="1.0" encoding="UTF-8" standalone="no"?>
<!DOCTYPE svg PUBLIC "-//W3C//DTD SVG 1.1//EN"
 "http://www.w3.org/Graphics/SVG/1.1/DTD/svg11.dtd">
<!-- Generated by graphviz version 2.26.3 (20100126.1600)
 -->
<!-- Title: G Pages: 1 -->
<svg width="168pt" height="320pt"
 viewBox="0.00 0.00 168.00 320.00" xmlns="http://www.w3.org/2000/svg" xmlns:xlink="http://www.w3.org/1999/xlink">
<g id="graph1" class="graph" transform="scale(1 1) rotate(0) translate(4 316)">
<title>G</title>
<!-- Node1 -->
<g id="node1" class="node"><title>Node1</title>
<polygon fill="#bfbfbf" stroke="black" points="-0.5,-1 -0.5,-21 160.5,-21 160.5,-1 -0.5,-1"/>
<text text-anchor="middle" x="80" y="-8" font-family="FreeSans" font-size="10.00">Kitware.VTK.vtkMergeColumns</text>
</g>
<!-- Node2 -->
<g id="node2" class="node"><title>Node2</title>
<a xlink:href="class_kitware_1_1_v_t_k_1_1vtk_table_algorithm.html" target="_top" xlink:title="vtkTableAlgorithm &#45; Superclass for algorithms that produce only vtkTables as output">
<polygon fill="none" stroke="black" points="29.5,-59 29.5,-79 130.5,-79 130.5,-59 29.5,-59"/>
<text text-anchor="middle" x="80" y="-66" font-family="FreeSans" font-size="10.00">vtkTableAlgorithm</text>
</a>
</g>
<!-- Node2&#45;&gt;Node1 -->
<g id="edge2" class="edge"><title>Node2&#45;&gt;Node1</title>
<path fill="none" stroke="midnightblue" d="M80,-48.8902C80,-39.6201 80,-29.0083 80,-21.3776"/>
<polygon fill="midnightblue" stroke="midnightblue" points="76.5001,-48.8971 80,-58.8972 83.5001,-48.8972 76.5001,-48.8971"/>
</g>
<!-- Node3 -->
<g id="node4" class="node"><title>Node3</title>
<a xlink:href="class_kitware_1_1_v_t_k_1_1vtk_algorithm.html" target="_top" xlink:title="vtkAlgorithm &#45; Superclass for all sources, filters, and sinks in VTK.">
<polygon fill="none" stroke="black" points="41.5,-117 41.5,-137 118.5,-137 118.5,-117 41.5,-117"/>
<text text-anchor="middle" x="80" y="-124" font-family="FreeSans" font-size="10.00">vtkAlgorithm</text>
</a>
</g>
<!-- Node3&#45;&gt;Node2 -->
<g id="edge4" class="edge"><title>Node3&#45;&gt;Node2</title>
<path fill="none" stroke="midnightblue" d="M80,-106.89C80,-97.6201 80,-87.0083 80,-79.3776"/>
<polygon fill="midnightblue" stroke="midnightblue" points="76.5001,-106.897 80,-116.897 83.5001,-106.897 76.5001,-106.897"/>
</g>
<!-- Node4 -->
<g id="node6" class="node"><title>Node4</title>
<a xlink:href="class_kitware_1_1_v_t_k_1_1vtk_object.html" target="_top" xlink:title="vtkObject &#45; abstract base class for most VTK objects">
<polygon fill="none" stroke="black" points="49,-175 49,-195 111,-195 111,-175 49,-175"/>
<text text-anchor="middle" x="80" y="-182" font-family="FreeSans" font-size="10.00">vtkObject</text>
</a>
</g>
<!-- Node4&#45;&gt;Node3 -->
<g id="edge6" class="edge"><title>Node4&#45;&gt;Node3</title>
<path fill="none" stroke="midnightblue" d="M80,-164.89C80,-155.62 80,-145.008 80,-137.378"/>
<polygon fill="midnightblue" stroke="midnightblue" points="76.5001,-164.897 80,-174.897 83.5001,-164.897 76.5001,-164.897"/>
</g>
<!-- Node5 -->
<g id="node8" class="node"><title>Node5</title>
<a xlink:href="class_kitware_1_1_v_t_k_1_1vtk_object_base.html" target="_top" xlink:title="vtkObjectBase &#45; abstract base class for most VTK objects">
<polygon fill="none" stroke="black" points="37,-233 37,-253 123,-253 123,-233 37,-233"/>
<text text-anchor="middle" x="80" y="-240" font-family="FreeSans" font-size="10.00">vtkObjectBase</text>
</a>
</g>
<!-- Node5&#45;&gt;Node4 -->
<g id="edge8" class="edge"><title>Node5&#45;&gt;Node4</title>
<path fill="none" stroke="midnightblue" d="M80,-222.89C80,-213.62 80,-203.008 80,-195.378"/>
<polygon fill="midnightblue" stroke="midnightblue" points="76.5001,-222.897 80,-232.897 83.5001,-222.897 76.5001,-222.897"/>
</g>
<!-- Node6 -->
<g id="node10" class="node"><title>Node6</title>
<a xlink:href="class_kitware_1_1_v_t_k_1_1_wrapped_object.html" target="_top" xlink:title="Base class for all the mummy wrapped classes in Kitware.VTK.">
<polygon fill="none" stroke="black" points="35.5,-291 35.5,-311 124.5,-311 124.5,-291 35.5,-291"/>
<text text-anchor="middle" x="80" y="-298" font-family="FreeSans" font-size="10.00">WrappedObject</text>
</a>
</g>
<!-- Node6&#45;&gt;Node5 -->
<g id="edge10" class="edge"><title>Node6&#45;&gt;Node5</title>
<path fill="none" stroke="midnightblue" d="M80,-280.89C80,-271.62 80,-261.008 80,-253.378"/>
<polygon fill="midnightblue" stroke="midnightblue" points="76.5001,-280.897 80,-290.897 83.5001,-280.897 76.5001,-280.897"/>
</g>
</g>
</svg>
