<?xml version="1.0" encoding="UTF-8" standalone="no"?>
<!DOCTYPE svg PUBLIC "-//W3C//DTD SVG 1.1//EN"
 "http://www.w3.org/Graphics/SVG/1.1/DTD/svg11.dtd">
<!-- Generated by graphviz version 2.26.3 (20100126.1600)
 -->
<!-- Title: G Pages: 1 -->
<svg width="912pt" height="370pt"
 viewBox="0.00 0.00 912.00 370.00" xmlns="http://www.w3.org/2000/svg" xmlns:xlink="http://www.w3.org/1999/xlink">
<g id="graph1" class="graph" transform="scale(1 1) rotate(0) translate(4 366)">
<title>G</title>
<!-- Node1 -->
<g id="node1" class="node"><title>Node1</title>
<polygon fill="#bfbfbf" stroke="black" points="460,-171 460,-191 636,-191 636,-171 460,-171"/>
<text text-anchor="middle" x="548" y="-178" font-family="FreeSans" font-size="10.00">Kitware.VTK.vtkPointSetAlgorithm</text>
</g>
<!-- Node6 -->
<g id="node11" class="node"><title>Node6</title>
<a xlink:href="class_kitware_1_1_v_t_k_1_1vtk_extract_data_over_time.html" target="_top" xlink:title="vtkExtractDataOverTime &#45; extract point data from a time sequence for a specified point id...">
<polygon fill="none" stroke="black" points="692,-342 692,-362 884,-362 884,-342 692,-342"/>
<text text-anchor="middle" x="788" y="-349" font-family="FreeSans" font-size="10.00">Kitware.VTK.vtkExtractDataOverTime</text>
</a>
</g>
<!-- Node1&#45;&gt;Node6 -->
<g id="edge10" class="edge"><title>Node1&#45;&gt;Node6</title>
<path fill="none" stroke="midnightblue" d="M557.727,-200.426C575.466,-233.638 616.431,-300.856 672,-333 678.183,-336.576 684.843,-339.53 691.735,-341.964"/>
<polygon fill="midnightblue" stroke="midnightblue" points="560.694,-198.545 552.976,-191.286 554.483,-201.774 560.694,-198.545"/>
</g>
<!-- Node7 -->
<g id="node13" class="node"><title>Node7</title>
<a xlink:href="class_kitware_1_1_v_t_k_1_1vtk_p_c_a_analysis_filter.html" target="_top" xlink:title="vtkPCAAnalysisFilter &#45; Performs principal component analysis of a set of aligned pointsets">
<polygon fill="none" stroke="black" points="703,-304 703,-324 873,-324 873,-304 703,-304"/>
<text text-anchor="middle" x="788" y="-311" font-family="FreeSans" font-size="10.00">Kitware.VTK.vtkPCAAnalysisFilter</text>
</a>
</g>
<!-- Node1&#45;&gt;Node7 -->
<g id="edge12" class="edge"><title>Node1&#45;&gt;Node7</title>
<path fill="none" stroke="midnightblue" d="M561.891,-199.222C582.74,-225.128 624.751,-272.008 672,-295 681.634,-299.688 692.195,-303.252 702.898,-305.956"/>
<polygon fill="midnightblue" stroke="midnightblue" points="564.593,-196.995 555.655,-191.305 559.094,-201.326 564.593,-196.995"/>
</g>
<!-- Node8 -->
<g id="node15" class="node"><title>Node8</title>
<a xlink:href="class_kitware_1_1_v_t_k_1_1vtk_procrustes_alignment_filter.html" target="_top" xlink:title="vtkProcrustesAlignmentFilter &#45; aligns a set of pointsets together">
<polygon fill="none" stroke="black" points="682,-266 682,-286 894,-286 894,-266 682,-266"/>
<text text-anchor="middle" x="788" y="-273" font-family="FreeSans" font-size="10.00">Kitware.VTK.vtkProcrustesAlignmentFilter</text>
</a>
</g>
<!-- Node1&#45;&gt;Node8 -->
<g id="edge14" class="edge"><title>Node1&#45;&gt;Node8</title>
<path fill="none" stroke="midnightblue" d="M569.094,-197.499C592.761,-215.126 632.969,-242.482 672,-257 681.755,-260.628 692.227,-263.565 702.743,-265.942"/>
<polygon fill="midnightblue" stroke="midnightblue" points="570.954,-194.517 560.87,-191.267 566.726,-200.096 570.954,-194.517"/>
</g>
<!-- Node9 -->
<g id="node17" class="node"><title>Node9</title>
<a xlink:href="class_kitware_1_1_v_t_k_1_1vtk_transform_coordinate_systems.html" target="_top" xlink:title="vtkTransformCoordinateSystems &#45; transform points into different coordinate systems">
<polygon fill="none" stroke="black" points="672.5,-228 672.5,-248 903.5,-248 903.5,-228 672.5,-228"/>
<text text-anchor="middle" x="788" y="-235" font-family="FreeSans" font-size="10.00">Kitware.VTK.vtkTransformCoordinateSystems</text>
</a>
</g>
<!-- Node1&#45;&gt;Node9 -->
<g id="edge16" class="edge"><title>Node1&#45;&gt;Node9</title>
<path fill="none" stroke="midnightblue" d="M586.332,-194.214C610.65,-202.23 642.904,-212.192 672,-219 686.505,-222.394 702.171,-225.398 717.155,-227.957"/>
<polygon fill="midnightblue" stroke="midnightblue" points="587.355,-190.865 576.761,-191.025 585.142,-197.506 587.355,-190.865"/>
</g>
<!-- Node10 -->
<g id="node19" class="node"><title>Node10</title>
<a xlink:href="class_kitware_1_1_v_t_k_1_1vtk_transform_filter.html" target="_top" xlink:title="vtkTransformFilter &#45; transform points and associated normals and vectors">
<polygon fill="none" stroke="black" points="708.5,-190 708.5,-210 867.5,-210 867.5,-190 708.5,-190"/>
<text text-anchor="middle" x="788" y="-197" font-family="FreeSans" font-size="10.00">Kitware.VTK.vtkTransformFilter</text>
</a>
</g>
<!-- Node1&#45;&gt;Node10 -->
<g id="edge18" class="edge"><title>Node1&#45;&gt;Node10</title>
<path fill="none" stroke="midnightblue" d="M646.089,-188.765C666.803,-190.405 688.418,-192.116 708.352,-193.695"/>
<polygon fill="midnightblue" stroke="midnightblue" points="646.249,-185.267 636.004,-187.967 645.697,-192.245 646.249,-185.267"/>
</g>
<!-- Node11 -->
<g id="node21" class="node"><title>Node11</title>
<a xlink:href="class_kitware_1_1_v_t_k_1_1vtk_warp_lens.html" target="_top" xlink:title="vtkWarpLens &#45; deform geometry by applying lens distortion">
<polygon fill="none" stroke="black" points="720.5,-152 720.5,-172 855.5,-172 855.5,-152 720.5,-152"/>
<text text-anchor="middle" x="788" y="-159" font-family="FreeSans" font-size="10.00">Kitware.VTK.vtkWarpLens</text>
</a>
</g>
<!-- Node1&#45;&gt;Node11 -->
<g id="edge20" class="edge"><title>Node1&#45;&gt;Node11</title>
<path fill="none" stroke="midnightblue" d="M646.21,-173.225C671.109,-171.254 697.303,-169.18 720.308,-167.359"/>
<polygon fill="midnightblue" stroke="midnightblue" points="645.697,-169.755 636.004,-174.033 646.249,-176.733 645.697,-169.755"/>
</g>
<!-- Node12 -->
<g id="node23" class="node"><title>Node12</title>
<a xlink:href="class_kitware_1_1_v_t_k_1_1vtk_warp_scalar.html" target="_top" xlink:title="vtkWarpScalar &#45; deform geometry with scalar data">
<polygon fill="none" stroke="black" points="716.5,-114 716.5,-134 859.5,-134 859.5,-114 716.5,-114"/>
<text text-anchor="middle" x="788" y="-121" font-family="FreeSans" font-size="10.00">Kitware.VTK.vtkWarpScalar</text>
</a>
</g>
<!-- Node1&#45;&gt;Node12 -->
<g id="edge22" class="edge"><title>Node1&#45;&gt;Node12</title>
<path fill="none" stroke="midnightblue" d="M586.332,-167.786C610.65,-159.77 642.904,-149.808 672,-143 686.505,-139.606 702.171,-136.602 717.155,-134.043"/>
<polygon fill="midnightblue" stroke="midnightblue" points="585.142,-164.494 576.761,-170.975 587.355,-171.135 585.142,-164.494"/>
</g>
<!-- Node13 -->
<g id="node25" class="node"><title>Node13</title>
<a xlink:href="class_kitware_1_1_v_t_k_1_1vtk_warp_to.html" target="_top" xlink:title="vtkWarpTo &#45; deform geometry by warping towards a point">
<polygon fill="none" stroke="black" points="727,-76 727,-96 849,-96 849,-76 727,-76"/>
<text text-anchor="middle" x="788" y="-83" font-family="FreeSans" font-size="10.00">Kitware.VTK.vtkWarpTo</text>
</a>
</g>
<!-- Node1&#45;&gt;Node13 -->
<g id="edge24" class="edge"><title>Node1&#45;&gt;Node13</title>
<path fill="none" stroke="midnightblue" d="M569.094,-164.501C592.761,-146.874 632.969,-119.518 672,-105 689.31,-98.5614 708.878,-94.3006 726.945,-91.4825"/>
<polygon fill="midnightblue" stroke="midnightblue" points="566.726,-161.904 560.87,-170.733 570.954,-167.483 566.726,-161.904"/>
</g>
<!-- Node14 -->
<g id="node27" class="node"><title>Node14</title>
<a xlink:href="class_kitware_1_1_v_t_k_1_1vtk_warp_vector.html" target="_top" xlink:title="vtkWarpVector &#45; deform geometry with vector data">
<polygon fill="none" stroke="black" points="716.5,-38 716.5,-58 859.5,-58 859.5,-38 716.5,-38"/>
<text text-anchor="middle" x="788" y="-45" font-family="FreeSans" font-size="10.00">Kitware.VTK.vtkWarpVector</text>
</a>
</g>
<!-- Node1&#45;&gt;Node14 -->
<g id="edge26" class="edge"><title>Node1&#45;&gt;Node14</title>
<path fill="none" stroke="midnightblue" d="M561.891,-162.778C582.74,-136.872 624.751,-89.9918 672,-67 685.671,-60.3477 701.209,-55.9581 716.369,-53.0777"/>
<polygon fill="midnightblue" stroke="midnightblue" points="559.094,-160.674 555.655,-170.695 564.593,-165.005 559.094,-160.674"/>
</g>
<!-- Node15 -->
<g id="node29" class="node"><title>Node15</title>
<a xlink:href="class_kitware_1_1_v_t_k_1_1vtk_weighted_transform_filter.html" target="_top" xlink:title="vtkWeightedTransformFilter &#45; transform based on per&#45;point or per&#45;cell weighting functions.">
<polygon fill="none" stroke="black" points="686.5,-0 686.5,-20 889.5,-20 889.5,-0 686.5,-0"/>
<text text-anchor="middle" x="788" y="-7" font-family="FreeSans" font-size="10.00">Kitware.VTK.vtkWeightedTransformFilter</text>
</a>
</g>
<!-- Node1&#45;&gt;Node15 -->
<g id="edge28" class="edge"><title>Node1&#45;&gt;Node15</title>
<path fill="none" stroke="midnightblue" d="M557.727,-161.574C575.466,-128.362 616.431,-61.1439 672,-29 678.183,-25.4236 684.843,-22.47 691.735,-20.0357"/>
<polygon fill="midnightblue" stroke="midnightblue" points="554.483,-160.226 552.976,-170.714 560.694,-163.455 554.483,-160.226"/>
</g>
<!-- Node2 -->
<g id="node2" class="node"><title>Node2</title>
<a xlink:href="class_kitware_1_1_v_t_k_1_1vtk_algorithm.html" target="_top" xlink:title="vtkAlgorithm &#45; Superclass for all sources, filters, and sinks in VTK.">
<polygon fill="none" stroke="black" points="346.5,-171 346.5,-191 423.5,-191 423.5,-171 346.5,-171"/>
<text text-anchor="middle" x="385" y="-178" font-family="FreeSans" font-size="10.00">vtkAlgorithm</text>
</a>
</g>
<!-- Node2&#45;&gt;Node1 -->
<g id="edge2" class="edge"><title>Node2&#45;&gt;Node1</title>
<path fill="none" stroke="midnightblue" d="M433.792,-181C442.07,-181 450.887,-181 459.812,-181"/>
<polygon fill="midnightblue" stroke="midnightblue" points="433.629,-177.5 423.629,-181 433.629,-184.5 433.629,-177.5"/>
</g>
<!-- Node3 -->
<g id="node4" class="node"><title>Node3</title>
<a xlink:href="class_kitware_1_1_v_t_k_1_1vtk_object.html" target="_top" xlink:title="vtkObject &#45; abstract base class for most VTK objects">
<polygon fill="none" stroke="black" points="248,-171 248,-191 310,-191 310,-171 248,-171"/>
<text text-anchor="middle" x="279" y="-178" font-family="FreeSans" font-size="10.00">vtkObject</text>
</a>
</g>
<!-- Node3&#45;&gt;Node2 -->
<g id="edge4" class="edge"><title>Node3&#45;&gt;Node2</title>
<path fill="none" stroke="midnightblue" d="M320.421,-181C329.001,-181 338.007,-181 346.479,-181"/>
<polygon fill="midnightblue" stroke="midnightblue" points="320.23,-177.5 310.23,-181 320.23,-184.5 320.23,-177.5"/>
</g>
<!-- Node4 -->
<g id="node6" class="node"><title>Node4</title>
<a xlink:href="class_kitware_1_1_v_t_k_1_1vtk_object_base.html" target="_top" xlink:title="vtkObjectBase &#45; abstract base class for most VTK objects">
<polygon fill="none" stroke="black" points="126,-171 126,-191 212,-191 212,-171 126,-171"/>
<text text-anchor="middle" x="169" y="-178" font-family="FreeSans" font-size="10.00">vtkObjectBase</text>
</a>
</g>
<!-- Node4&#45;&gt;Node3 -->
<g id="edge6" class="edge"><title>Node4&#45;&gt;Node3</title>
<path fill="none" stroke="midnightblue" d="M222.346,-181C231.091,-181 239.892,-181 247.863,-181"/>
<polygon fill="midnightblue" stroke="midnightblue" points="222.159,-177.5 212.159,-181 222.159,-184.5 222.159,-177.5"/>
</g>
<!-- Node5 -->
<g id="node8" class="node"><title>Node5</title>
<a xlink:href="class_kitware_1_1_v_t_k_1_1_wrapped_object.html" target="_top" xlink:title="Base class for all the mummy wrapped classes in Kitware.VTK.">
<polygon fill="none" stroke="black" points="0.5,-171 0.5,-191 89.5,-191 89.5,-171 0.5,-171"/>
<text text-anchor="middle" x="45" y="-178" font-family="FreeSans" font-size="10.00">WrappedObject</text>
</a>
</g>
<!-- Node5&#45;&gt;Node4 -->
<g id="edge8" class="edge"><title>Node5&#45;&gt;Node4</title>
<path fill="none" stroke="midnightblue" d="M99.8895,-181C108.623,-181 117.548,-181 125.957,-181"/>
<polygon fill="midnightblue" stroke="midnightblue" points="99.7669,-177.5 89.7668,-181 99.7668,-184.5 99.7669,-177.5"/>
</g>
</g>
</svg>
