<?xml version="1.0" encoding="UTF-8" standalone="no"?>
<!DOCTYPE svg PUBLIC "-//W3C//DTD SVG 1.1//EN"
 "http://www.w3.org/Graphics/SVG/1.1/DTD/svg11.dtd">
<!-- Generated by graphviz version 2.26.3 (20100126.1600)
 -->
<!-- Title: G Pages: 1 -->
<svg width="228pt" height="436pt"
 viewBox="0.00 0.00 228.00 436.00" xmlns="http://www.w3.org/2000/svg" xmlns:xlink="http://www.w3.org/1999/xlink">
<g id="graph1" class="graph" transform="scale(1 1) rotate(0) translate(4 432)">
<title>G</title>
<!-- Node1 -->
<g id="node1" class="node"><title>Node1</title>
<polygon fill="#bfbfbf" stroke="black" points="0,-1 0,-21 220,-21 220,-1 0,-1"/>
<text text-anchor="middle" x="110" y="-8" font-family="FreeSans" font-size="10.00">Kitware.VTK.vtkOpenGLPolyDataMapper2D</text>
</g>
<!-- Node2 -->
<g id="node2" class="node"><title>Node2</title>
<a xlink:href="class_kitware_1_1_v_t_k_1_1vtk_poly_data_mapper2_d.html" target="_top" xlink:title="vtkPolyDataMapper2D &#45; draw vtkPolyData onto the image plane">
<polygon fill="none" stroke="black" points="48.5,-59 48.5,-79 171.5,-79 171.5,-59 48.5,-59"/>
<text text-anchor="middle" x="110" y="-66" font-family="FreeSans" font-size="10.00">vtkPolyDataMapper2D</text>
</a>
</g>
<!-- Node2&#45;&gt;Node1 -->
<g id="edge2" class="edge"><title>Node2&#45;&gt;Node1</title>
<path fill="none" stroke="midnightblue" d="M110,-48.8902C110,-39.6201 110,-29.0083 110,-21.3776"/>
<polygon fill="midnightblue" stroke="midnightblue" points="106.5,-48.8971 110,-58.8972 113.5,-48.8972 106.5,-48.8971"/>
</g>
<!-- Node3 -->
<g id="node4" class="node"><title>Node3</title>
<a xlink:href="class_kitware_1_1_v_t_k_1_1vtk_mapper2_d.html" target="_top" xlink:title="vtkMapper2D &#45; abstract class specifies interface for objects which render 2D actors">
<polygon fill="none" stroke="black" points="70,-117 70,-137 150,-137 150,-117 70,-117"/>
<text text-anchor="middle" x="110" y="-124" font-family="FreeSans" font-size="10.00">vtkMapper2D</text>
</a>
</g>
<!-- Node3&#45;&gt;Node2 -->
<g id="edge4" class="edge"><title>Node3&#45;&gt;Node2</title>
<path fill="none" stroke="midnightblue" d="M110,-106.89C110,-97.6201 110,-87.0083 110,-79.3776"/>
<polygon fill="midnightblue" stroke="midnightblue" points="106.5,-106.897 110,-116.897 113.5,-106.897 106.5,-106.897"/>
</g>
<!-- Node4 -->
<g id="node6" class="node"><title>Node4</title>
<a xlink:href="class_kitware_1_1_v_t_k_1_1vtk_abstract_mapper.html" target="_top" xlink:title="vtkAbstractMapper &#45; abstract class specifies interface to map data">
<polygon fill="none" stroke="black" points="56.5,-175 56.5,-195 163.5,-195 163.5,-175 56.5,-175"/>
<text text-anchor="middle" x="110" y="-182" font-family="FreeSans" font-size="10.00">vtkAbstractMapper</text>
</a>
</g>
<!-- Node4&#45;&gt;Node3 -->
<g id="edge6" class="edge"><title>Node4&#45;&gt;Node3</title>
<path fill="none" stroke="midnightblue" d="M110,-164.89C110,-155.62 110,-145.008 110,-137.378"/>
<polygon fill="midnightblue" stroke="midnightblue" points="106.5,-164.897 110,-174.897 113.5,-164.897 106.5,-164.897"/>
</g>
<!-- Node5 -->
<g id="node8" class="node"><title>Node5</title>
<a xlink:href="class_kitware_1_1_v_t_k_1_1vtk_algorithm.html" target="_top" xlink:title="vtkAlgorithm &#45; Superclass for all sources, filters, and sinks in VTK.">
<polygon fill="none" stroke="black" points="71.5,-233 71.5,-253 148.5,-253 148.5,-233 71.5,-233"/>
<text text-anchor="middle" x="110" y="-240" font-family="FreeSans" font-size="10.00">vtkAlgorithm</text>
</a>
</g>
<!-- Node5&#45;&gt;Node4 -->
<g id="edge8" class="edge"><title>Node5&#45;&gt;Node4</title>
<path fill="none" stroke="midnightblue" d="M110,-222.89C110,-213.62 110,-203.008 110,-195.378"/>
<polygon fill="midnightblue" stroke="midnightblue" points="106.5,-222.897 110,-232.897 113.5,-222.897 106.5,-222.897"/>
</g>
<!-- Node6 -->
<g id="node10" class="node"><title>Node6</title>
<a xlink:href="class_kitware_1_1_v_t_k_1_1vtk_object.html" target="_top" xlink:title="vtkObject &#45; abstract base class for most VTK objects">
<polygon fill="none" stroke="black" points="79,-291 79,-311 141,-311 141,-291 79,-291"/>
<text text-anchor="middle" x="110" y="-298" font-family="FreeSans" font-size="10.00">vtkObject</text>
</a>
</g>
<!-- Node6&#45;&gt;Node5 -->
<g id="edge10" class="edge"><title>Node6&#45;&gt;Node5</title>
<path fill="none" stroke="midnightblue" d="M110,-280.89C110,-271.62 110,-261.008 110,-253.378"/>
<polygon fill="midnightblue" stroke="midnightblue" points="106.5,-280.897 110,-290.897 113.5,-280.897 106.5,-280.897"/>
</g>
<!-- Node7 -->
<g id="node12" class="node"><title>Node7</title>
<a xlink:href="class_kitware_1_1_v_t_k_1_1vtk_object_base.html" target="_top" xlink:title="vtkObjectBase &#45; abstract base class for most VTK objects">
<polygon fill="none" stroke="black" points="67,-349 67,-369 153,-369 153,-349 67,-349"/>
<text text-anchor="middle" x="110" y="-356" font-family="FreeSans" font-size="10.00">vtkObjectBase</text>
</a>
</g>
<!-- Node7&#45;&gt;Node6 -->
<g id="edge12" class="edge"><title>Node7&#45;&gt;Node6</title>
<path fill="none" stroke="midnightblue" d="M110,-338.89C110,-329.62 110,-319.008 110,-311.378"/>
<polygon fill="midnightblue" stroke="midnightblue" points="106.5,-338.897 110,-348.897 113.5,-338.897 106.5,-338.897"/>
</g>
<!-- Node8 -->
<g id="node14" class="node"><title>Node8</title>
<a xlink:href="class_kitware_1_1_v_t_k_1_1_wrapped_object.html" target="_top" xlink:title="Base class for all the mummy wrapped classes in Kitware.VTK.">
<polygon fill="none" stroke="black" points="65.5,-407 65.5,-427 154.5,-427 154.5,-407 65.5,-407"/>
<text text-anchor="middle" x="110" y="-414" font-family="FreeSans" font-size="10.00">WrappedObject</text>
</a>
</g>
<!-- Node8&#45;&gt;Node7 -->
<g id="edge14" class="edge"><title>Node8&#45;&gt;Node7</title>
<path fill="none" stroke="midnightblue" d="M110,-396.89C110,-387.62 110,-377.008 110,-369.378"/>
<polygon fill="midnightblue" stroke="midnightblue" points="106.5,-396.897 110,-406.897 113.5,-396.897 106.5,-396.897"/>
</g>
</g>
</svg>
