<?xml version="1.0" encoding="UTF-8" standalone="no"?>
<!DOCTYPE svg PUBLIC "-//W3C//DTD SVG 1.1//EN"
 "http://www.w3.org/Graphics/SVG/1.1/DTD/svg11.dtd">
<!-- Generated by graphviz version 2.26.3 (20100126.1600)
 -->
<!-- Title: G Pages: 1 -->
<svg width="1010pt" height="218pt"
 viewBox="0.00 0.00 1010.00 218.00" xmlns="http://www.w3.org/2000/svg" xmlns:xlink="http://www.w3.org/1999/xlink">
<g id="graph1" class="graph" transform="scale(1 1) rotate(0) translate(4 214)">
<title>G</title>
<!-- Node1 -->
<g id="node1" class="node"><title>Node1</title>
<polygon fill="#bfbfbf" stroke="black" points="644,-95 644,-115 798,-115 798,-95 644,-95"/>
<text text-anchor="middle" x="721" y="-102" font-family="FreeSans" font-size="10.00">Kitware.VTK.vtkBorderWidget</text>
</g>
<!-- Node7 -->
<g id="node13" class="node"><title>Node7</title>
<a xlink:href="class_kitware_1_1_v_t_k_1_1vtk_camera_widget.html" target="_top" xlink:title="vtkCameraWidget &#45; 2D widget for saving a series of camera views">
<polygon fill="none" stroke="black" points="838,-190 838,-210 998,-210 998,-190 838,-190"/>
<text text-anchor="middle" x="918" y="-197" font-family="FreeSans" font-size="10.00">Kitware.VTK.vtkCameraWidget</text>
</a>
</g>
<!-- Node1&#45;&gt;Node7 -->
<g id="edge12" class="edge"><title>Node1&#45;&gt;Node7</title>
<path fill="none" stroke="midnightblue" d="M740.418,-121.377C761.946,-138.704 798.354,-165.623 834,-181 842.237,-184.553 851.228,-187.485 860.165,-189.891"/>
<polygon fill="midnightblue" stroke="midnightblue" points="742.624,-118.659 732.669,-115.033 738.19,-124.075 742.624,-118.659"/>
</g>
<!-- Node8 -->
<g id="node15" class="node"><title>Node8</title>
<a xlink:href="class_kitware_1_1_v_t_k_1_1vtk_caption_widget.html" target="_top" xlink:title="vtkCaptionWidget &#45; widget for placing a caption (text plus leader)">
<polygon fill="none" stroke="black" points="839,-152 839,-172 997,-172 997,-152 839,-152"/>
<text text-anchor="middle" x="918" y="-159" font-family="FreeSans" font-size="10.00">Kitware.VTK.vtkCaptionWidget</text>
</a>
</g>
<!-- Node1&#45;&gt;Node8 -->
<g id="edge14" class="edge"><title>Node1&#45;&gt;Node8</title>
<path fill="none" stroke="midnightblue" d="M757.749,-118.416C779.706,-126.166 808.25,-135.778 834,-143 845.517,-146.23 858.039,-149.297 869.813,-151.987"/>
<polygon fill="midnightblue" stroke="midnightblue" points="758.753,-115.058 748.158,-115.002 756.405,-121.653 758.753,-115.058"/>
</g>
<!-- Node9 -->
<g id="node17" class="node"><title>Node9</title>
<a xlink:href="class_kitware_1_1_v_t_k_1_1vtk_logo_widget.html" target="_top" xlink:title="vtkLogoWidget &#45; 2D widget for placing and manipulating a logo">
<polygon fill="none" stroke="black" points="845.5,-114 845.5,-134 990.5,-134 990.5,-114 845.5,-114"/>
<text text-anchor="middle" x="918" y="-121" font-family="FreeSans" font-size="10.00">Kitware.VTK.vtkLogoWidget</text>
</a>
</g>
<!-- Node1&#45;&gt;Node9 -->
<g id="edge16" class="edge"><title>Node1&#45;&gt;Node9</title>
<path fill="none" stroke="midnightblue" d="M808.3,-113.42C820.635,-114.609 833.208,-115.822 845.23,-116.982"/>
<polygon fill="midnightblue" stroke="midnightblue" points="808.302,-109.904 798.012,-112.428 807.63,-116.871 808.302,-109.904"/>
</g>
<!-- Node10 -->
<g id="node19" class="node"><title>Node10</title>
<a xlink:href="class_kitware_1_1_v_t_k_1_1vtk_playback_widget.html" target="_top" xlink:title="vtkPlaybackWidget &#45; 2D widget for controlling a playback stream">
<polygon fill="none" stroke="black" points="836,-76 836,-96 1000,-96 1000,-76 836,-76"/>
<text text-anchor="middle" x="918" y="-83" font-family="FreeSans" font-size="10.00">Kitware.VTK.vtkPlaybackWidget</text>
</a>
</g>
<!-- Node1&#45;&gt;Node10 -->
<g id="edge18" class="edge"><title>Node1&#45;&gt;Node10</title>
<path fill="none" stroke="midnightblue" d="M807.987,-96.6104C817.244,-95.7176 826.638,-94.8116 835.837,-93.9244"/>
<polygon fill="midnightblue" stroke="midnightblue" points="807.63,-93.1285 798.012,-97.5725 808.302,-100.096 807.63,-93.1285"/>
</g>
<!-- Node11 -->
<g id="node21" class="node"><title>Node11</title>
<a xlink:href="class_kitware_1_1_v_t_k_1_1vtk_scalar_bar_widget.html" target="_top" xlink:title="vtkScalarBarWidget &#45; 2D widget for manipulating a scalar bar">
<polygon fill="none" stroke="black" points="834,-38 834,-58 1002,-58 1002,-38 834,-38"/>
<text text-anchor="middle" x="918" y="-45" font-family="FreeSans" font-size="10.00">Kitware.VTK.vtkScalarBarWidget</text>
</a>
</g>
<!-- Node1&#45;&gt;Node11 -->
<g id="edge20" class="edge"><title>Node1&#45;&gt;Node11</title>
<path fill="none" stroke="midnightblue" d="M757.749,-91.5838C779.706,-83.8339 808.25,-74.2216 834,-67 845.517,-63.7701 858.039,-60.7034 869.813,-58.0133"/>
<polygon fill="midnightblue" stroke="midnightblue" points="756.405,-88.3471 748.158,-94.9983 758.753,-94.9417 756.405,-88.3471"/>
</g>
<!-- Node12 -->
<g id="node23" class="node"><title>Node12</title>
<a xlink:href="class_kitware_1_1_v_t_k_1_1vtk_text_widget.html" target="_top" xlink:title="vtkTextWidget &#45; widget for placing text on overlay plane">
<polygon fill="none" stroke="black" points="848,-0 848,-20 988,-20 988,-0 848,-0"/>
<text text-anchor="middle" x="918" y="-7" font-family="FreeSans" font-size="10.00">Kitware.VTK.vtkTextWidget</text>
</a>
</g>
<!-- Node1&#45;&gt;Node12 -->
<g id="edge22" class="edge"><title>Node1&#45;&gt;Node12</title>
<path fill="none" stroke="midnightblue" d="M740.418,-88.6234C761.946,-71.2956 798.354,-44.3771 834,-29 842.237,-25.4466 851.228,-22.5152 860.165,-20.1093"/>
<polygon fill="midnightblue" stroke="midnightblue" points="738.19,-85.9246 732.669,-94.9674 742.624,-91.3412 738.19,-85.9246"/>
</g>
<!-- Node2 -->
<g id="node2" class="node"><title>Node2</title>
<a xlink:href="class_kitware_1_1_v_t_k_1_1vtk_abstract_widget.html" target="_top" xlink:title="vtkAbstractWidget &#45; define the API for widget / widget representation">
<polygon fill="none" stroke="black" points="504,-95 504,-115 608,-115 608,-95 504,-95"/>
<text text-anchor="middle" x="556" y="-102" font-family="FreeSans" font-size="10.00">vtkAbstractWidget</text>
</a>
</g>
<!-- Node2&#45;&gt;Node1 -->
<g id="edge2" class="edge"><title>Node2&#45;&gt;Node1</title>
<path fill="none" stroke="midnightblue" d="M618.229,-105C626.586,-105 635.238,-105 643.814,-105"/>
<polygon fill="midnightblue" stroke="midnightblue" points="618.207,-101.5 608.207,-105 618.207,-108.5 618.207,-101.5"/>
</g>
<!-- Node3 -->
<g id="node4" class="node"><title>Node3</title>
<a xlink:href="class_kitware_1_1_v_t_k_1_1vtk_interactor_observer.html" target="_top" xlink:title="vtkInteractorObserver &#45; an abstract superclass for classes observing events invoked by vtkRenderWindo...">
<polygon fill="none" stroke="black" points="346.5,-95 346.5,-115 467.5,-115 467.5,-95 346.5,-95"/>
<text text-anchor="middle" x="407" y="-102" font-family="FreeSans" font-size="10.00">vtkInteractorObserver</text>
</a>
</g>
<!-- Node3&#45;&gt;Node2 -->
<g id="edge4" class="edge"><title>Node3&#45;&gt;Node2</title>
<path fill="none" stroke="midnightblue" d="M477.753,-105C486.45,-105 495.215,-105 503.573,-105"/>
<polygon fill="midnightblue" stroke="midnightblue" points="477.604,-101.5 467.604,-105 477.604,-108.5 477.604,-101.5"/>
</g>
<!-- Node4 -->
<g id="node6" class="node"><title>Node4</title>
<a xlink:href="class_kitware_1_1_v_t_k_1_1vtk_object.html" target="_top" xlink:title="vtkObject &#45; abstract base class for most VTK objects">
<polygon fill="none" stroke="black" points="248,-95 248,-115 310,-115 310,-95 248,-95"/>
<text text-anchor="middle" x="279" y="-102" font-family="FreeSans" font-size="10.00">vtkObject</text>
</a>
</g>
<!-- Node4&#45;&gt;Node3 -->
<g id="edge6" class="edge"><title>Node4&#45;&gt;Node3</title>
<path fill="none" stroke="midnightblue" d="M320.479,-105C328.791,-105 337.684,-105 346.488,-105"/>
<polygon fill="midnightblue" stroke="midnightblue" points="320.312,-101.5 310.312,-105 320.312,-108.5 320.312,-101.5"/>
</g>
<!-- Node5 -->
<g id="node8" class="node"><title>Node5</title>
<a xlink:href="class_kitware_1_1_v_t_k_1_1vtk_object_base.html" target="_top" xlink:title="vtkObjectBase &#45; abstract base class for most VTK objects">
<polygon fill="none" stroke="black" points="126,-95 126,-115 212,-115 212,-95 126,-95"/>
<text text-anchor="middle" x="169" y="-102" font-family="FreeSans" font-size="10.00">vtkObjectBase</text>
</a>
</g>
<!-- Node5&#45;&gt;Node4 -->
<g id="edge8" class="edge"><title>Node5&#45;&gt;Node4</title>
<path fill="none" stroke="midnightblue" d="M222.346,-105C231.091,-105 239.892,-105 247.863,-105"/>
<polygon fill="midnightblue" stroke="midnightblue" points="222.159,-101.5 212.159,-105 222.159,-108.5 222.159,-101.5"/>
</g>
<!-- Node6 -->
<g id="node10" class="node"><title>Node6</title>
<a xlink:href="class_kitware_1_1_v_t_k_1_1_wrapped_object.html" target="_top" xlink:title="Base class for all the mummy wrapped classes in Kitware.VTK.">
<polygon fill="none" stroke="black" points="0.5,-95 0.5,-115 89.5,-115 89.5,-95 0.5,-95"/>
<text text-anchor="middle" x="45" y="-102" font-family="FreeSans" font-size="10.00">WrappedObject</text>
</a>
</g>
<!-- Node6&#45;&gt;Node5 -->
<g id="edge10" class="edge"><title>Node6&#45;&gt;Node5</title>
<path fill="none" stroke="midnightblue" d="M99.8895,-105C108.623,-105 117.548,-105 125.957,-105"/>
<polygon fill="midnightblue" stroke="midnightblue" points="99.7669,-101.5 89.7668,-105 99.7668,-108.5 99.7669,-101.5"/>
</g>
</g>
</svg>
