<?xml version="1.0" encoding="UTF-8" standalone="no"?>
<!DOCTYPE svg PUBLIC "-//W3C//DTD SVG 1.1//EN"
 "http://www.w3.org/Graphics/SVG/1.1/DTD/svg11.dtd">
<!-- Generated by graphviz version 2.26.3 (20100126.1600)
 -->
<!-- Title: G Pages: 1 -->
<svg width="214pt" height="494pt"
 viewBox="0.00 0.00 214.00 494.00" xmlns="http://www.w3.org/2000/svg" xmlns:xlink="http://www.w3.org/1999/xlink">
<g id="graph1" class="graph" transform="scale(1 1) rotate(0) translate(4 490)">
<title>G</title>
<!-- Node1 -->
<g id="node1" class="node"><title>Node1</title>
<polygon fill="#bfbfbf" stroke="black" points="0,-1 0,-21 206,-21 206,-1 0,-1"/>
<text text-anchor="middle" x="103" y="-8" font-family="FreeSans" font-size="10.00">Kitware.VTK.vtkOpenGLPolyDataMapper</text>
</g>
<!-- Node2 -->
<g id="node2" class="node"><title>Node2</title>
<a xlink:href="class_kitware_1_1_v_t_k_1_1vtk_poly_data_mapper.html" target="_top" xlink:title="vtkPolyDataMapper &#45; map vtkPolyData to graphics primitives">
<polygon fill="none" stroke="black" points="48,-59 48,-79 158,-79 158,-59 48,-59"/>
<text text-anchor="middle" x="103" y="-66" font-family="FreeSans" font-size="10.00">vtkPolyDataMapper</text>
</a>
</g>
<!-- Node2&#45;&gt;Node1 -->
<g id="edge2" class="edge"><title>Node2&#45;&gt;Node1</title>
<path fill="none" stroke="midnightblue" d="M103,-48.8902C103,-39.6201 103,-29.0083 103,-21.3776"/>
<polygon fill="midnightblue" stroke="midnightblue" points="99.5001,-48.8971 103,-58.8972 106.5,-48.8972 99.5001,-48.8971"/>
</g>
<!-- Node3 -->
<g id="node4" class="node"><title>Node3</title>
<a xlink:href="class_kitware_1_1_v_t_k_1_1vtk_mapper.html" target="_top" xlink:title="vtkMapper &#45; abstract class specifies interface to map data to graphics primitives">
<polygon fill="none" stroke="black" points="69.5,-117 69.5,-137 136.5,-137 136.5,-117 69.5,-117"/>
<text text-anchor="middle" x="103" y="-124" font-family="FreeSans" font-size="10.00">vtkMapper</text>
</a>
</g>
<!-- Node3&#45;&gt;Node2 -->
<g id="edge4" class="edge"><title>Node3&#45;&gt;Node2</title>
<path fill="none" stroke="midnightblue" d="M103,-106.89C103,-97.6201 103,-87.0083 103,-79.3776"/>
<polygon fill="midnightblue" stroke="midnightblue" points="99.5001,-106.897 103,-116.897 106.5,-106.897 99.5001,-106.897"/>
</g>
<!-- Node4 -->
<g id="node6" class="node"><title>Node4</title>
<a xlink:href="class_kitware_1_1_v_t_k_1_1vtk_abstract_mapper3_d.html" target="_top" xlink:title="vtkAbstractMapper3D &#45; abstract class specifies interface to map 3D data">
<polygon fill="none" stroke="black" points="42.5,-175 42.5,-195 163.5,-195 163.5,-175 42.5,-175"/>
<text text-anchor="middle" x="103" y="-182" font-family="FreeSans" font-size="10.00">vtkAbstractMapper3D</text>
</a>
</g>
<!-- Node4&#45;&gt;Node3 -->
<g id="edge6" class="edge"><title>Node4&#45;&gt;Node3</title>
<path fill="none" stroke="midnightblue" d="M103,-164.89C103,-155.62 103,-145.008 103,-137.378"/>
<polygon fill="midnightblue" stroke="midnightblue" points="99.5001,-164.897 103,-174.897 106.5,-164.897 99.5001,-164.897"/>
</g>
<!-- Node5 -->
<g id="node8" class="node"><title>Node5</title>
<a xlink:href="class_kitware_1_1_v_t_k_1_1vtk_abstract_mapper.html" target="_top" xlink:title="vtkAbstractMapper &#45; abstract class specifies interface to map data">
<polygon fill="none" stroke="black" points="49.5,-233 49.5,-253 156.5,-253 156.5,-233 49.5,-233"/>
<text text-anchor="middle" x="103" y="-240" font-family="FreeSans" font-size="10.00">vtkAbstractMapper</text>
</a>
</g>
<!-- Node5&#45;&gt;Node4 -->
<g id="edge8" class="edge"><title>Node5&#45;&gt;Node4</title>
<path fill="none" stroke="midnightblue" d="M103,-222.89C103,-213.62 103,-203.008 103,-195.378"/>
<polygon fill="midnightblue" stroke="midnightblue" points="99.5001,-222.897 103,-232.897 106.5,-222.897 99.5001,-222.897"/>
</g>
<!-- Node6 -->
<g id="node10" class="node"><title>Node6</title>
<a xlink:href="class_kitware_1_1_v_t_k_1_1vtk_algorithm.html" target="_top" xlink:title="vtkAlgorithm &#45; Superclass for all sources, filters, and sinks in VTK.">
<polygon fill="none" stroke="black" points="64.5,-291 64.5,-311 141.5,-311 141.5,-291 64.5,-291"/>
<text text-anchor="middle" x="103" y="-298" font-family="FreeSans" font-size="10.00">vtkAlgorithm</text>
</a>
</g>
<!-- Node6&#45;&gt;Node5 -->
<g id="edge10" class="edge"><title>Node6&#45;&gt;Node5</title>
<path fill="none" stroke="midnightblue" d="M103,-280.89C103,-271.62 103,-261.008 103,-253.378"/>
<polygon fill="midnightblue" stroke="midnightblue" points="99.5001,-280.897 103,-290.897 106.5,-280.897 99.5001,-280.897"/>
</g>
<!-- Node7 -->
<g id="node12" class="node"><title>Node7</title>
<a xlink:href="class_kitware_1_1_v_t_k_1_1vtk_object.html" target="_top" xlink:title="vtkObject &#45; abstract base class for most VTK objects">
<polygon fill="none" stroke="black" points="72,-349 72,-369 134,-369 134,-349 72,-349"/>
<text text-anchor="middle" x="103" y="-356" font-family="FreeSans" font-size="10.00">vtkObject</text>
</a>
</g>
<!-- Node7&#45;&gt;Node6 -->
<g id="edge12" class="edge"><title>Node7&#45;&gt;Node6</title>
<path fill="none" stroke="midnightblue" d="M103,-338.89C103,-329.62 103,-319.008 103,-311.378"/>
<polygon fill="midnightblue" stroke="midnightblue" points="99.5001,-338.897 103,-348.897 106.5,-338.897 99.5001,-338.897"/>
</g>
<!-- Node8 -->
<g id="node14" class="node"><title>Node8</title>
<a xlink:href="class_kitware_1_1_v_t_k_1_1vtk_object_base.html" target="_top" xlink:title="vtkObjectBase &#45; abstract base class for most VTK objects">
<polygon fill="none" stroke="black" points="60,-407 60,-427 146,-427 146,-407 60,-407"/>
<text text-anchor="middle" x="103" y="-414" font-family="FreeSans" font-size="10.00">vtkObjectBase</text>
</a>
</g>
<!-- Node8&#45;&gt;Node7 -->
<g id="edge14" class="edge"><title>Node8&#45;&gt;Node7</title>
<path fill="none" stroke="midnightblue" d="M103,-396.89C103,-387.62 103,-377.008 103,-369.378"/>
<polygon fill="midnightblue" stroke="midnightblue" points="99.5001,-396.897 103,-406.897 106.5,-396.897 99.5001,-396.897"/>
</g>
<!-- Node9 -->
<g id="node16" class="node"><title>Node9</title>
<a xlink:href="class_kitware_1_1_v_t_k_1_1_wrapped_object.html" target="_top" xlink:title="Base class for all the mummy wrapped classes in Kitware.VTK.">
<polygon fill="none" stroke="black" points="58.5,-465 58.5,-485 147.5,-485 147.5,-465 58.5,-465"/>
<text text-anchor="middle" x="103" y="-472" font-family="FreeSans" font-size="10.00">WrappedObject</text>
</a>
</g>
<!-- Node9&#45;&gt;Node8 -->
<g id="edge16" class="edge"><title>Node9&#45;&gt;Node8</title>
<path fill="none" stroke="midnightblue" d="M103,-454.89C103,-445.62 103,-435.008 103,-427.378"/>
<polygon fill="midnightblue" stroke="midnightblue" points="99.5001,-454.897 103,-464.897 106.5,-454.897 99.5001,-454.897"/>
</g>
</g>
</svg>
