<?xml version="1.0" encoding="UTF-8" standalone="no"?>
<!DOCTYPE svg PUBLIC "-//W3C//DTD SVG 1.1//EN"
 "http://www.w3.org/Graphics/SVG/1.1/DTD/svg11.dtd">
<!-- Generated by graphviz version 2.26.3 (20100126.1600)
 -->
<!-- Title: G Pages: 1 -->
<svg width="1654pt" height="484pt"
 viewBox="0.00 0.00 1654.00 484.00" xmlns="http://www.w3.org/2000/svg" xmlns:xlink="http://www.w3.org/1999/xlink">
<g id="graph1" class="graph" transform="scale(1 1) rotate(0) translate(4 480)">
<title>G</title>
<!-- Node1 -->
<g id="node1" class="node"><title>Node1</title>
<polygon fill="#bfbfbf" stroke="black" points="514.5,-323 514.5,-343 663.5,-343 663.5,-323 514.5,-323"/>
<text text-anchor="middle" x="589" y="-330" font-family="FreeSans" font-size="10.00">Kitware.VTK.vtkContextItem</text>
</g>
<!-- Node6 -->
<g id="node11" class="node"><title>Node6</title>
<a xlink:href="class_kitware_1_1_v_t_k_1_1vtk_axis.html" target="_top" xlink:title="vtkAxis &#45; takes care of drawing 2D axes">
<polygon fill="none" stroke="black" points="721.5,-456 721.5,-476 830.5,-476 830.5,-456 721.5,-456"/>
<text text-anchor="middle" x="776" y="-463" font-family="FreeSans" font-size="10.00">Kitware.VTK.vtkAxis</text>
</a>
</g>
<!-- Node1&#45;&gt;Node6 -->
<g id="edge10" class="edge"><title>Node1&#45;&gt;Node6</title>
<path fill="none" stroke="midnightblue" d="M601.724,-351.42C620.309,-376.885 657.344,-422.472 700,-447 706.603,-450.797 713.953,-453.841 721.409,-456.282"/>
<polygon fill="midnightblue" stroke="midnightblue" points="604.392,-349.134 595.735,-343.025 598.693,-353.199 604.392,-349.134"/>
</g>
<!-- Node7 -->
<g id="node13" class="node"><title>Node7</title>
<a xlink:href="class_kitware_1_1_v_t_k_1_1vtk_block_item.html" target="_top" xlink:title="vtkBlockItem &#45; a vtkContextItem that draws a block (optional label).">
<polygon fill="none" stroke="black" points="707.5,-418 707.5,-438 844.5,-438 844.5,-418 707.5,-418"/>
<text text-anchor="middle" x="776" y="-425" font-family="FreeSans" font-size="10.00">Kitware.VTK.vtkBlockItem</text>
</a>
</g>
<!-- Node1&#45;&gt;Node7 -->
<g id="edge12" class="edge"><title>Node1&#45;&gt;Node7</title>
<path fill="none" stroke="midnightblue" d="M608.715,-349.748C629.95,-366.974 665.367,-393.423 700,-409 707.938,-412.571 716.657,-415.543 725.271,-417.994"/>
<polygon fill="midnightblue" stroke="midnightblue" points="610.726,-346.869 600.785,-343.205 606.272,-352.269 610.726,-346.869"/>
</g>
<!-- Node8 -->
<g id="node15" class="node"><title>Node8</title>
<a xlink:href="class_kitware_1_1_v_t_k_1_1vtk_chart.html" target="_top" xlink:title="vtkChart &#45; Factory class for drawing 2D charts">
<polygon fill="none" stroke="black" points="718,-380 718,-400 834,-400 834,-380 718,-380"/>
<text text-anchor="middle" x="776" y="-387" font-family="FreeSans" font-size="10.00">Kitware.VTK.vtkChart</text>
</a>
</g>
<!-- Node1&#45;&gt;Node8 -->
<g id="edge14" class="edge"><title>Node1&#45;&gt;Node8</title>
<path fill="none" stroke="midnightblue" d="M625.866,-346.499C647.349,-354.144 675.043,-363.623 700,-371 710.695,-374.161 722.336,-377.247 733.22,-379.981"/>
<polygon fill="midnightblue" stroke="midnightblue" points="626.757,-343.1 616.162,-343.02 624.395,-349.69 626.757,-343.1"/>
</g>
<!-- Node13 -->
<g id="node25" class="node"><title>Node13</title>
<a xlink:href="class_kitware_1_1_v_t_k_1_1vtk_chart_legend.html" target="_top" xlink:title="vtkChartLegend &#45; draw the chart legend">
<polygon fill="none" stroke="black" points="700.5,-342 700.5,-362 851.5,-362 851.5,-342 700.5,-342"/>
<text text-anchor="middle" x="776" y="-349" font-family="FreeSans" font-size="10.00">Kitware.VTK.vtkChartLegend</text>
</a>
</g>
<!-- Node1&#45;&gt;Node13 -->
<g id="edge24" class="edge"><title>Node1&#45;&gt;Node13</title>
<path fill="none" stroke="midnightblue" d="M673.725,-341.608C682.648,-342.515 691.679,-343.433 700.489,-344.328"/>
<polygon fill="midnightblue" stroke="midnightblue" points="674.016,-338.12 663.714,-340.591 673.309,-345.084 674.016,-338.12"/>
</g>
<!-- Node15 -->
<g id="node29" class="node"><title>Node15</title>
<a xlink:href="class_kitware_1_1_v_t_k_1_1vtk_image_item.html" target="_top" xlink:title="vtkImageItem &#45; a vtkContextItem that draws a supplied image in the scene.">
<polygon fill="none" stroke="black" points="705.5,-304 705.5,-324 846.5,-324 846.5,-304 705.5,-304"/>
<text text-anchor="middle" x="776" y="-311" font-family="FreeSans" font-size="10.00">Kitware.VTK.vtkImageItem</text>
</a>
</g>
<!-- Node1&#45;&gt;Node15 -->
<g id="edge28" class="edge"><title>Node1&#45;&gt;Node15</title>
<path fill="none" stroke="midnightblue" d="M673.773,-324.387C684.333,-323.314 695.041,-322.226 705.355,-321.178"/>
<polygon fill="midnightblue" stroke="midnightblue" points="673.309,-320.916 663.714,-325.409 674.016,-327.88 673.309,-320.916"/>
</g>
<!-- Node16 -->
<g id="node31" class="node"><title>Node16</title>
<a xlink:href="class_kitware_1_1_v_t_k_1_1vtk_plot.html" target="_top" xlink:title="vtkPlot &#45; Abstract class for 2D plots.">
<polygon fill="none" stroke="black" points="722.5,-228 722.5,-248 829.5,-248 829.5,-228 722.5,-228"/>
<text text-anchor="middle" x="776" y="-235" font-family="FreeSans" font-size="10.00">Kitware.VTK.vtkPlot</text>
</a>
</g>
<!-- Node1&#45;&gt;Node16 -->
<g id="edge30" class="edge"><title>Node1&#45;&gt;Node16</title>
<path fill="none" stroke="midnightblue" d="M618.129,-318.202C656.521,-298.698 723.048,-264.901 756.132,-248.094"/>
<polygon fill="midnightblue" stroke="midnightblue" points="616.343,-315.184 609.012,-322.833 619.513,-321.424 616.343,-315.184"/>
</g>
<!-- Node33 -->
<g id="node65" class="node"><title>Node33</title>
<a xlink:href="class_kitware_1_1_v_t_k_1_1vtk_plot_grid.html" target="_top" xlink:title="vtkPlotGrid &#45; takes care of drawing the plot grid">
<polygon fill="none" stroke="black" points="712.5,-190 712.5,-210 839.5,-210 839.5,-190 712.5,-190"/>
<text text-anchor="middle" x="776" y="-197" font-family="FreeSans" font-size="10.00">Kitware.VTK.vtkPlotGrid</text>
</a>
</g>
<!-- Node1&#45;&gt;Node33 -->
<g id="edge64" class="edge"><title>Node1&#45;&gt;Node33</title>
<path fill="none" stroke="midnightblue" d="M601.724,-314.58C620.309,-289.115 657.344,-243.528 700,-219 706.249,-215.407 713.168,-212.487 720.211,-210.116"/>
<polygon fill="midnightblue" stroke="midnightblue" points="598.693,-312.801 595.735,-322.975 604.392,-316.866 598.693,-312.801"/>
</g>
<!-- Node34 -->
<g id="node67" class="node"><title>Node34</title>
<a xlink:href="class_kitware_1_1_v_t_k_1_1vtk_tooltip_item.html" target="_top" xlink:title="vtkTooltipItem &#45; takes care of drawing 2D axes">
<polygon fill="none" stroke="black" points="705.5,-152 705.5,-172 846.5,-172 846.5,-152 705.5,-152"/>
<text text-anchor="middle" x="776" y="-159" font-family="FreeSans" font-size="10.00">Kitware.VTK.vtkTooltipItem</text>
</a>
</g>
<!-- Node1&#45;&gt;Node34 -->
<g id="edge66" class="edge"><title>Node1&#45;&gt;Node34</title>
<path fill="none" stroke="midnightblue" d="M597.626,-313.622C613.184,-280.981 649.125,-215.249 700,-181 705.415,-177.354 711.472,-174.408 717.739,-172.026"/>
<polygon fill="midnightblue" stroke="midnightblue" points="594.321,-312.431 593.297,-322.976 600.673,-315.37 594.321,-312.431"/>
</g>
<!-- Node2 -->
<g id="node2" class="node"><title>Node2</title>
<a xlink:href="class_kitware_1_1_v_t_k_1_1vtk_abstract_context_item.html" target="_top" xlink:title="vtkAbstractContextItem &#45; base class for items that are part of a vtkContextScene.">
<polygon fill="none" stroke="black" points="346.5,-323 346.5,-343 477.5,-343 477.5,-323 346.5,-323"/>
<text text-anchor="middle" x="412" y="-330" font-family="FreeSans" font-size="10.00">vtkAbstractContextItem</text>
</a>
</g>
<!-- Node2&#45;&gt;Node1 -->
<g id="edge2" class="edge"><title>Node2&#45;&gt;Node1</title>
<path fill="none" stroke="midnightblue" d="M487.821,-333C496.562,-333 505.473,-333 514.201,-333"/>
<polygon fill="midnightblue" stroke="midnightblue" points="487.657,-329.5 477.657,-333 487.657,-336.5 487.657,-329.5"/>
</g>
<!-- Node3 -->
<g id="node4" class="node"><title>Node3</title>
<a xlink:href="class_kitware_1_1_v_t_k_1_1vtk_object.html" target="_top" xlink:title="vtkObject &#45; abstract base class for most VTK objects">
<polygon fill="none" stroke="black" points="248,-323 248,-343 310,-343 310,-323 248,-323"/>
<text text-anchor="middle" x="279" y="-330" font-family="FreeSans" font-size="10.00">vtkObject</text>
</a>
</g>
<!-- Node3&#45;&gt;Node2 -->
<g id="edge4" class="edge"><title>Node3&#45;&gt;Node2</title>
<path fill="none" stroke="midnightblue" d="M320.317,-333C328.614,-333 337.525,-333 346.415,-333"/>
<polygon fill="midnightblue" stroke="midnightblue" points="320.183,-329.5 310.183,-333 320.183,-336.5 320.183,-329.5"/>
</g>
<!-- Node4 -->
<g id="node6" class="node"><title>Node4</title>
<a xlink:href="class_kitware_1_1_v_t_k_1_1vtk_object_base.html" target="_top" xlink:title="vtkObjectBase &#45; abstract base class for most VTK objects">
<polygon fill="none" stroke="black" points="126,-323 126,-343 212,-343 212,-323 126,-323"/>
<text text-anchor="middle" x="169" y="-330" font-family="FreeSans" font-size="10.00">vtkObjectBase</text>
</a>
</g>
<!-- Node4&#45;&gt;Node3 -->
<g id="edge6" class="edge"><title>Node4&#45;&gt;Node3</title>
<path fill="none" stroke="midnightblue" d="M222.346,-333C231.091,-333 239.892,-333 247.863,-333"/>
<polygon fill="midnightblue" stroke="midnightblue" points="222.159,-329.5 212.159,-333 222.159,-336.5 222.159,-329.5"/>
</g>
<!-- Node5 -->
<g id="node8" class="node"><title>Node5</title>
<a xlink:href="class_kitware_1_1_v_t_k_1_1_wrapped_object.html" target="_top" xlink:title="Base class for all the mummy wrapped classes in Kitware.VTK.">
<polygon fill="none" stroke="black" points="0.5,-323 0.5,-343 89.5,-343 89.5,-323 0.5,-323"/>
<text text-anchor="middle" x="45" y="-330" font-family="FreeSans" font-size="10.00">WrappedObject</text>
</a>
</g>
<!-- Node5&#45;&gt;Node4 -->
<g id="edge8" class="edge"><title>Node5&#45;&gt;Node4</title>
<path fill="none" stroke="midnightblue" d="M99.8895,-333C108.623,-333 117.548,-333 125.957,-333"/>
<polygon fill="midnightblue" stroke="midnightblue" points="99.7669,-329.5 89.7668,-333 99.7668,-336.5 99.7669,-329.5"/>
</g>
<!-- Node9 -->
<g id="node17" class="node"><title>Node9</title>
<a xlink:href="class_kitware_1_1_v_t_k_1_1vtk_chart_parallel_coordinates.html" target="_top" xlink:title="vtkChartParallelCoordinates &#45; Factory class for drawing 2D charts">
<polygon fill="none" stroke="black" points="888.5,-456 888.5,-476 1095.5,-476 1095.5,-456 888.5,-456"/>
<text text-anchor="middle" x="992" y="-463" font-family="FreeSans" font-size="10.00">Kitware.VTK.vtkChartParallelCoordinates</text>
</a>
</g>
<!-- Node8&#45;&gt;Node9 -->
<g id="edge16" class="edge"><title>Node8&#45;&gt;Node9</title>
<path fill="none" stroke="midnightblue" d="M841.268,-403.634C844.989,-405.23 848.596,-407.012 852,-409 872.088,-420.735 867.545,-435.917 888,-447 894.697,-450.629 901.956,-453.58 909.418,-455.979"/>
<polygon fill="midnightblue" stroke="midnightblue" points="842.426,-400.329 831.835,-400.035 839.931,-406.87 842.426,-400.329"/>
</g>
<!-- Node10 -->
<g id="node19" class="node"><title>Node10</title>
<a xlink:href="class_kitware_1_1_v_t_k_1_1vtk_chart_pie.html" target="_top" xlink:title="vtkChartPie &#45; Factory class for drawing pie charts">
<polygon fill="none" stroke="black" points="927,-418 927,-438 1057,-438 1057,-418 927,-418"/>
<text text-anchor="middle" x="992" y="-425" font-family="FreeSans" font-size="10.00">Kitware.VTK.vtkChartPie</text>
</a>
</g>
<!-- Node8&#45;&gt;Node10 -->
<g id="edge18" class="edge"><title>Node8&#45;&gt;Node10</title>
<path fill="none" stroke="midnightblue" d="M843.233,-401.828C872.675,-407.008 906.854,-413.021 935.021,-417.976"/>
<polygon fill="midnightblue" stroke="midnightblue" points="843.489,-398.319 833.034,-400.034 842.276,-405.214 843.489,-398.319"/>
</g>
<!-- Node11 -->
<g id="node21" class="node"><title>Node11</title>
<a xlink:href="class_kitware_1_1_v_t_k_1_1vtk_chart_x_y.html" target="_top" xlink:title="vtkChartXY &#45; Factory class for drawing XY charts">
<polygon fill="none" stroke="black" points="928.5,-380 928.5,-400 1055.5,-400 1055.5,-380 928.5,-380"/>
<text text-anchor="middle" x="992" y="-387" font-family="FreeSans" font-size="10.00">Kitware.VTK.vtkChartXY</text>
</a>
</g>
<!-- Node8&#45;&gt;Node11 -->
<g id="edge20" class="edge"><title>Node8&#45;&gt;Node11</title>
<path fill="none" stroke="midnightblue" d="M844.284,-390C871.21,-390 901.963,-390 928.413,-390"/>
<polygon fill="midnightblue" stroke="midnightblue" points="844.168,-386.5 834.168,-390 844.168,-393.5 844.168,-386.5"/>
</g>
<!-- Node12 -->
<g id="node23" class="node"><title>Node12</title>
<a xlink:href="class_kitware_1_1_v_t_k_1_1vtk_chart_histogram2_d.html" target="_top" xlink:title="vtkChart2DHistogram &#45; Chart for 2D histograms.">
<polygon fill="none" stroke="black" points="1161.5,-380 1161.5,-400 1340.5,-400 1340.5,-380 1161.5,-380"/>
<text text-anchor="middle" x="1251" y="-387" font-family="FreeSans" font-size="10.00">Kitware.VTK.vtkChartHistogram2D</text>
</a>
</g>
<!-- Node11&#45;&gt;Node12 -->
<g id="edge22" class="edge"><title>Node11&#45;&gt;Node12</title>
<path fill="none" stroke="midnightblue" d="M1065.96,-390C1095.61,-390 1130.05,-390 1161.12,-390"/>
<polygon fill="midnightblue" stroke="midnightblue" points="1065.69,-386.5 1055.69,-390 1065.69,-393.5 1065.69,-386.5"/>
</g>
<!-- Node14 -->
<g id="node27" class="node"><title>Node14</title>
<a xlink:href="class_kitware_1_1_v_t_k_1_1vtk_color_legend.html" target="_top" xlink:title="vtkColorLegend &#45; Legend item to display vtkScalarsToColors.">
<polygon fill="none" stroke="black" points="917.5,-342 917.5,-362 1066.5,-362 1066.5,-342 917.5,-342"/>
<text text-anchor="middle" x="992" y="-349" font-family="FreeSans" font-size="10.00">Kitware.VTK.vtkColorLegend</text>
</a>
</g>
<!-- Node13&#45;&gt;Node14 -->
<g id="edge26" class="edge"><title>Node13&#45;&gt;Node14</title>
<path fill="none" stroke="midnightblue" d="M861.647,-352C880.023,-352 899.3,-352 917.225,-352"/>
<polygon fill="midnightblue" stroke="midnightblue" points="861.546,-348.5 851.546,-352 861.546,-355.5 861.546,-348.5"/>
</g>
<!-- Node17 -->
<g id="node33" class="node"><title>Node17</title>
<a xlink:href="class_kitware_1_1_v_t_k_1_1vtk_control_points_item.html" target="_top" xlink:title="vtkControlPointsItem &#45; Abstract class for control points items.">
<polygon fill="none" stroke="black" points="904.5,-304 904.5,-324 1079.5,-324 1079.5,-304 904.5,-304"/>
<text text-anchor="middle" x="992" y="-311" font-family="FreeSans" font-size="10.00">Kitware.VTK.vtkControlPointsItem</text>
</a>
</g>
<!-- Node16&#45;&gt;Node17 -->
<g id="edge32" class="edge"><title>Node16&#45;&gt;Node17</title>
<path fill="none" stroke="midnightblue" d="M800.769,-253.26C822.877,-266.223 856.529,-284.37 888,-295 898.607,-298.583 910.065,-301.537 921.364,-303.959"/>
<polygon fill="midnightblue" stroke="midnightblue" points="802.424,-250.172 792.042,-248.059 798.84,-256.185 802.424,-250.172"/>
</g>
<!-- Node21 -->
<g id="node41" class="node"><title>Node21</title>
<a xlink:href="class_kitware_1_1_v_t_k_1_1vtk_plot_bar.html" target="_top" xlink:title="vtkPlotBar &#45; Class for drawing an XY plot given two columns from a vtkTable.">
<polygon fill="none" stroke="black" points="930,-266 930,-286 1054,-286 1054,-266 930,-266"/>
<text text-anchor="middle" x="992" y="-273" font-family="FreeSans" font-size="10.00">Kitware.VTK.vtkPlotBar</text>
</a>
</g>
<!-- Node16&#45;&gt;Node21 -->
<g id="edge40" class="edge"><title>Node16&#45;&gt;Node21</title>
<path fill="none" stroke="midnightblue" d="M839.665,-249.2C869.817,-254.505 905.548,-260.791 934.825,-265.941"/>
<polygon fill="midnightblue" stroke="midnightblue" points="840.126,-245.728 829.671,-247.442 838.913,-252.622 840.126,-245.728"/>
</g>
<!-- Node22 -->
<g id="node43" class="node"><title>Node22</title>
<a xlink:href="class_kitware_1_1_v_t_k_1_1vtk_plot_histogram2_d.html" target="_top" xlink:title="vtk2DHistogramItem &#45; 2D histogram item.">
<polygon fill="none" stroke="black" points="906.5,-228 906.5,-248 1077.5,-248 1077.5,-228 906.5,-228"/>
<text text-anchor="middle" x="992" y="-235" font-family="FreeSans" font-size="10.00">Kitware.VTK.vtkPlotHistogram2D</text>
</a>
</g>
<!-- Node16&#45;&gt;Node22 -->
<g id="edge42" class="edge"><title>Node16&#45;&gt;Node22</title>
<path fill="none" stroke="midnightblue" d="M839.671,-238C860.514,-238 884.022,-238 906.221,-238"/>
<polygon fill="midnightblue" stroke="midnightblue" points="839.671,-234.5 829.671,-238 839.671,-241.5 839.671,-234.5"/>
</g>
<!-- Node23 -->
<g id="node45" class="node"><title>Node23</title>
<a xlink:href="class_kitware_1_1_v_t_k_1_1vtk_plot_parallel_coordinates.html" target="_top" xlink:title="vtkPlotParallelCoordinates &#45; Class for drawing a parallel coordinate plot given columns from a vtkTab...">
<polygon fill="none" stroke="black" points="892.5,-190 892.5,-210 1091.5,-210 1091.5,-190 892.5,-190"/>
<text text-anchor="middle" x="992" y="-197" font-family="FreeSans" font-size="10.00">Kitware.VTK.vtkPlotParallelCoordinates</text>
</a>
</g>
<!-- Node16&#45;&gt;Node23 -->
<g id="edge44" class="edge"><title>Node16&#45;&gt;Node23</title>
<path fill="none" stroke="midnightblue" d="M839.665,-226.8C869.817,-221.495 905.548,-215.209 934.825,-210.059"/>
<polygon fill="midnightblue" stroke="midnightblue" points="838.913,-223.378 829.671,-228.558 840.126,-230.272 838.913,-223.378"/>
</g>
<!-- Node24 -->
<g id="node47" class="node"><title>Node24</title>
<a xlink:href="class_kitware_1_1_v_t_k_1_1vtk_plot_pie.html" target="_top" xlink:title="vtkPlotPie &#45; Class for drawing a Pie diagram.">
<polygon fill="none" stroke="black" points="931,-152 931,-172 1053,-172 1053,-152 931,-152"/>
<text text-anchor="middle" x="992" y="-159" font-family="FreeSans" font-size="10.00">Kitware.VTK.vtkPlotPie</text>
</a>
</g>
<!-- Node16&#45;&gt;Node24 -->
<g id="edge46" class="edge"><title>Node16&#45;&gt;Node24</title>
<path fill="none" stroke="midnightblue" d="M839.509,-225.104C843.852,-223.324 848.062,-221.3 852,-219 872.088,-207.265 867.545,-192.083 888,-181 901.072,-173.917 916.283,-169.414 930.972,-166.568"/>
<polygon fill="midnightblue" stroke="midnightblue" points="838.04,-221.914 829.841,-228.625 840.435,-228.492 838.04,-221.914"/>
</g>
<!-- Node25 -->
<g id="node49" class="node"><title>Node25</title>
<a xlink:href="class_kitware_1_1_v_t_k_1_1vtk_plot_points.html" target="_top" xlink:title="vtkPlotPoints &#45; Class for drawing an points given two columns from a vtkTable.">
<polygon fill="none" stroke="black" points="923.5,-114 923.5,-134 1060.5,-134 1060.5,-114 923.5,-114"/>
<text text-anchor="middle" x="992" y="-121" font-family="FreeSans" font-size="10.00">Kitware.VTK.vtkPlotPoints</text>
</a>
</g>
<!-- Node16&#45;&gt;Node25 -->
<g id="edge48" class="edge"><title>Node16&#45;&gt;Node25</title>
<path fill="none" stroke="midnightblue" d="M838.86,-227.221C843.57,-224.968 848.026,-222.258 852,-219 880.904,-195.304 858.349,-165.755 888,-143 898.265,-135.122 910.764,-130.142 923.488,-127.062"/>
<polygon fill="midnightblue" stroke="midnightblue" points="837.491,-223.999 829.551,-231.014 840.133,-230.482 837.491,-223.999"/>
</g>
<!-- Node27 -->
<g id="node53" class="node"><title>Node27</title>
<a xlink:href="class_kitware_1_1_v_t_k_1_1vtk_plot_stacked.html" target="_top" xlink:title="vtkPlotStacked &#45; Class for drawing an stacked polygon plot given an X, Ybase, Yextent in a vtkTable...">
<polygon fill="none" stroke="black" points="919,-76 919,-96 1065,-96 1065,-76 919,-76"/>
<text text-anchor="middle" x="992" y="-83" font-family="FreeSans" font-size="10.00">Kitware.VTK.vtkPlotStacked</text>
</a>
</g>
<!-- Node16&#45;&gt;Node27 -->
<g id="edge52" class="edge"><title>Node16&#45;&gt;Node27</title>
<path fill="none" stroke="midnightblue" d="M839.142,-227.91C843.826,-225.51 848.197,-222.578 852,-219 890.697,-182.591 848.153,-140.147 888,-105 896.741,-97.2903 907.544,-92.2363 918.849,-88.9949"/>
<polygon fill="midnightblue" stroke="midnightblue" points="837.635,-224.747 829.817,-231.897 840.387,-231.183 837.635,-224.747"/>
</g>
<!-- Node28 -->
<g id="node55" class="node"><title>Node28</title>
<a xlink:href="class_kitware_1_1_v_t_k_1_1vtk_scalars_to_colors_item.html" target="_top" xlink:title="vtkScalarsToColorsItem &#45; Abstract class for ScalarsToColors items.">
<polygon fill="none" stroke="black" points="899,-38 899,-58 1085,-58 1085,-38 899,-38"/>
<text text-anchor="middle" x="992" y="-45" font-family="FreeSans" font-size="10.00">Kitware.VTK.vtkScalarsToColorsItem</text>
</a>
</g>
<!-- Node16&#45;&gt;Node28 -->
<g id="edge54" class="edge"><title>Node16&#45;&gt;Node28</title>
<path fill="none" stroke="midnightblue" d="M839.211,-228.323C843.917,-225.839 848.273,-222.774 852,-219 900.785,-169.606 837.653,-114.801 888,-67 891.594,-63.5878 895.587,-60.6841 899.854,-58.2194"/>
<polygon fill="midnightblue" stroke="midnightblue" points="837.575,-225.218 829.803,-232.419 840.369,-231.637 837.575,-225.218"/>
</g>
<!-- Node18 -->
<g id="node35" class="node"><title>Node18</title>
<a xlink:href="class_kitware_1_1_v_t_k_1_1vtk_color_transfer_control_points_item.html" target="_top" xlink:title="vtkColorTransferControlPointsItem &#45; Control points for vtkColorTransferFunction.">
<polygon fill="none" stroke="black" points="1132.5,-323 1132.5,-343 1369.5,-343 1369.5,-323 1132.5,-323"/>
<text text-anchor="middle" x="1251" y="-330" font-family="FreeSans" font-size="10.00">Kitware.VTK.vtkColorTransferControlPointsItem</text>
</a>
</g>
<!-- Node17&#45;&gt;Node18 -->
<g id="edge34" class="edge"><title>Node17&#45;&gt;Node18</title>
<path fill="none" stroke="midnightblue" d="M1089.69,-321.166C1103.56,-322.184 1117.95,-323.24 1132.17,-324.283"/>
<polygon fill="midnightblue" stroke="midnightblue" points="1089.91,-317.674 1079.69,-320.433 1089.4,-324.655 1089.91,-317.674"/>
</g>
<!-- Node20 -->
<g id="node39" class="node"><title>Node20</title>
<a xlink:href="class_kitware_1_1_v_t_k_1_1vtk_piecewise_control_points_item.html" target="_top" xlink:title="vtkPiecewiseControlPointsItem &#45; Control points for vtkPiecewiseFunction.">
<polygon fill="none" stroke="black" points="1140.5,-285 1140.5,-305 1361.5,-305 1361.5,-285 1140.5,-285"/>
<text text-anchor="middle" x="1251" y="-292" font-family="FreeSans" font-size="10.00">Kitware.VTK.vtkPiecewiseControlPointsItem</text>
</a>
</g>
<!-- Node17&#45;&gt;Node20 -->
<g id="edge38" class="edge"><title>Node17&#45;&gt;Node20</title>
<path fill="none" stroke="midnightblue" d="M1089.87,-306.821C1106.38,-305.609 1123.63,-304.344 1140.44,-303.11"/>
<polygon fill="midnightblue" stroke="midnightblue" points="1089.4,-303.345 1079.69,-307.567 1089.91,-310.326 1089.4,-303.345"/>
</g>
<!-- Node19 -->
<g id="node37" class="node"><title>Node19</title>
<a xlink:href="class_kitware_1_1_v_t_k_1_1vtk_composite_control_points_item.html" target="_top" xlink:title="vtkCompositeControlPointsItem &#45; Control points for vtkCompositeFunction.">
<polygon fill="none" stroke="black" points="1412.5,-323 1412.5,-343 1639.5,-343 1639.5,-323 1412.5,-323"/>
<text text-anchor="middle" x="1526" y="-330" font-family="FreeSans" font-size="10.00">Kitware.VTK.vtkCompositeControlPointsItem</text>
</a>
</g>
<!-- Node18&#45;&gt;Node19 -->
<g id="edge36" class="edge"><title>Node18&#45;&gt;Node19</title>
<path fill="none" stroke="midnightblue" d="M1379.9,-333C1390.66,-333 1401.49,-333 1412.12,-333"/>
<polygon fill="midnightblue" stroke="midnightblue" points="1379.62,-329.5 1369.62,-333 1379.62,-336.5 1379.62,-329.5"/>
</g>
<!-- Node26 -->
<g id="node51" class="node"><title>Node26</title>
<a xlink:href="class_kitware_1_1_v_t_k_1_1vtk_plot_line.html" target="_top" xlink:title="vtkPlotLine &#45; Class for drawing an XY line plot given two columns from a vtkTable.">
<polygon fill="none" stroke="black" points="1187.5,-114 1187.5,-134 1314.5,-134 1314.5,-114 1187.5,-114"/>
<text text-anchor="middle" x="1251" y="-121" font-family="FreeSans" font-size="10.00">Kitware.VTK.vtkPlotLine</text>
</a>
</g>
<!-- Node25&#45;&gt;Node26 -->
<g id="edge50" class="edge"><title>Node25&#45;&gt;Node26</title>
<path fill="none" stroke="midnightblue" d="M1071.05,-124C1108.32,-124 1152.19,-124 1187.29,-124"/>
<polygon fill="midnightblue" stroke="midnightblue" points="1070.73,-120.5 1060.73,-124 1070.73,-127.5 1070.73,-120.5"/>
</g>
<!-- Node29 -->
<g id="node57" class="node"><title>Node29</title>
<a xlink:href="class_kitware_1_1_v_t_k_1_1vtk_color_transfer_function_item.html" target="_top" xlink:title="vtkPlot::Color, vtkPlot::Brush, vtkScalarsToColors::DrawPolyLine, vtkScalarsToColors::MaskAboveCurve ...">
<polygon fill="none" stroke="black" points="1144.5,-76 1144.5,-96 1357.5,-96 1357.5,-76 1144.5,-76"/>
<text text-anchor="middle" x="1251" y="-83" font-family="FreeSans" font-size="10.00">Kitware.VTK.vtkColorTransferFunctionItem</text>
</a>
</g>
<!-- Node28&#45;&gt;Node29 -->
<g id="edge56" class="edge"><title>Node28&#45;&gt;Node29</title>
<path fill="none" stroke="midnightblue" d="M1070.31,-59.4899C1106.13,-64.7445 1148.17,-70.9124 1182.68,-75.976"/>
<polygon fill="midnightblue" stroke="midnightblue" points="1070.79,-56.0226 1060.39,-58.0338 1069.77,-62.9484 1070.79,-56.0226"/>
</g>
<!-- Node31 -->
<g id="node61" class="node"><title>Node31</title>
<a xlink:href="class_kitware_1_1_v_t_k_1_1vtk_lookup_table_item.html" target="_top" xlink:title="vtkPlot::Color, vtkPlot::Brush, vtkScalarsToColors::DrawPolyLine, vtkScalarsToColors::MaskAboveCurve ...">
<polygon fill="none" stroke="black" points="1166,-38 1166,-58 1336,-58 1336,-38 1166,-38"/>
<text text-anchor="middle" x="1251" y="-45" font-family="FreeSans" font-size="10.00">Kitware.VTK.vtkLookupTableItem</text>
</a>
</g>
<!-- Node28&#45;&gt;Node31 -->
<g id="edge60" class="edge"><title>Node28&#45;&gt;Node31</title>
<path fill="none" stroke="midnightblue" d="M1095.39,-48C1118.67,-48 1143.13,-48 1165.58,-48"/>
<polygon fill="midnightblue" stroke="midnightblue" points="1095.14,-44.5001 1085.14,-48 1095.14,-51.5001 1095.14,-44.5001"/>
</g>
<!-- Node32 -->
<g id="node63" class="node"><title>Node32</title>
<a xlink:href="class_kitware_1_1_v_t_k_1_1vtk_piecewise_function_item.html" target="_top" xlink:title="vtkPiecewiseFunctionItem internall uses vtkPlot::Color, white by default">
<polygon fill="none" stroke="black" points="1152.5,-0 1152.5,-20 1349.5,-20 1349.5,-0 1152.5,-0"/>
<text text-anchor="middle" x="1251" y="-7" font-family="FreeSans" font-size="10.00">Kitware.VTK.vtkPiecewiseFunctionItem</text>
</a>
</g>
<!-- Node28&#45;&gt;Node32 -->
<g id="edge62" class="edge"><title>Node28&#45;&gt;Node32</title>
<path fill="none" stroke="midnightblue" d="M1070.31,-36.5101C1106.13,-31.2555 1148.17,-25.0876 1182.68,-20.024"/>
<polygon fill="midnightblue" stroke="midnightblue" points="1069.77,-33.0516 1060.39,-37.9662 1070.79,-39.9774 1069.77,-33.0516"/>
</g>
<!-- Node30 -->
<g id="node59" class="node"><title>Node30</title>
<a xlink:href="class_kitware_1_1_v_t_k_1_1vtk_composite_transfer_function_item.html" target="_top" xlink:title="vtkPlot::Color and vtkPlot::Brush have no effect here.">
<polygon fill="none" stroke="black" points="1406,-76 1406,-96 1646,-96 1646,-76 1406,-76"/>
<text text-anchor="middle" x="1526" y="-83" font-family="FreeSans" font-size="10.00">Kitware.VTK.vtkCompositeTransferFunctionItem</text>
</a>
</g>
<!-- Node29&#45;&gt;Node30 -->
<g id="edge58" class="edge"><title>Node29&#45;&gt;Node30</title>
<path fill="none" stroke="midnightblue" d="M1367.72,-86C1380.27,-86 1393.05,-86 1405.64,-86"/>
<polygon fill="midnightblue" stroke="midnightblue" points="1367.72,-82.5001 1357.72,-86 1367.72,-89.5001 1367.72,-82.5001"/>
</g>
</g>
</svg>
