<?xml version="1.0" encoding="UTF-8" standalone="no"?>
<!DOCTYPE svg PUBLIC "-//W3C//DTD SVG 1.1//EN"
 "http://www.w3.org/Graphics/SVG/1.1/DTD/svg11.dtd">
<!-- Generated by graphviz version 2.26.3 (20100126.1600)
 -->
<!-- Title: G Pages: 1 -->
<svg width="1448pt" height="598pt"
 viewBox="0.00 0.00 1448.00 598.00" xmlns="http://www.w3.org/2000/svg" xmlns:xlink="http://www.w3.org/1999/xlink">
<g id="graph1" class="graph" transform="scale(1 1) rotate(0) translate(4 594)">
<title>G</title>
<!-- Node1 -->
<g id="node1" class="node"><title>Node1</title>
<polygon fill="#bfbfbf" stroke="black" points="460,-285 460,-305 684,-305 684,-285 460,-285"/>
<text text-anchor="middle" x="572" y="-292" font-family="FreeSans" font-size="10.00">Kitware.VTK.vtkMultiBlockDataSetAlgorithm</text>
</g>
<!-- Node6 -->
<g id="node11" class="node"><title>Node6</title>
<a xlink:href="class_kitware_1_1_v_t_k_1_1vtk_block_id_scalars.html" target="_top" xlink:title="vtkBlockIdScalars &#45; generates scalars from blocks.">
<polygon fill="none" stroke="black" points="747,-570 747,-590 905,-590 905,-570 747,-570"/>
<text text-anchor="middle" x="826" y="-577" font-family="FreeSans" font-size="10.00">Kitware.VTK.vtkBlockIdScalars</text>
</a>
</g>
<!-- Node1&#45;&gt;Node6 -->
<g id="edge10" class="edge"><title>Node1&#45;&gt;Node6</title>
<path fill="none" stroke="midnightblue" d="M576.785,-314.971C589.97,-365.344 631.842,-498.035 720,-561 728.063,-566.759 737.331,-570.948 746.96,-573.97"/>
<polygon fill="midnightblue" stroke="midnightblue" points="580.115,-313.862 574.278,-305.02 573.327,-315.572 580.115,-313.862"/>
</g>
<!-- Node7 -->
<g id="node13" class="node"><title>Node7</title>
<a xlink:href="class_kitware_1_1_v_t_k_1_1vtk_exodus_i_i_reader.html" target="_top" xlink:title="vtkExodusIIReader &#45; Read exodus 2 files .ex2">
<polygon fill="none" stroke="black" points="745.5,-532 745.5,-552 906.5,-552 906.5,-532 745.5,-532"/>
<text text-anchor="middle" x="826" y="-539" font-family="FreeSans" font-size="10.00">Kitware.VTK.vtkExodusIIReader</text>
</a>
</g>
<!-- Node1&#45;&gt;Node7 -->
<g id="edge12" class="edge"><title>Node1&#45;&gt;Node7</title>
<path fill="none" stroke="midnightblue" d="M578.531,-314.544C594.645,-359.504 640.841,-470.433 720,-523 727.709,-528.12 736.401,-531.97 745.406,-534.85"/>
<polygon fill="midnightblue" stroke="midnightblue" points="581.825,-313.361 575.234,-305.066 575.214,-315.661 581.825,-313.361"/>
</g>
<!-- Node9 -->
<g id="node17" class="node"><title>Node9</title>
<a xlink:href="class_kitware_1_1_v_t_k_1_1vtk_extract_arrays_over_time.html" target="_top" xlink:title="vtkExtractArraysOverTime &#45; extracts a selection over time.">
<polygon fill="none" stroke="black" points="726,-494 726,-514 926,-514 926,-494 726,-494"/>
<text text-anchor="middle" x="826" y="-501" font-family="FreeSans" font-size="10.00">Kitware.VTK.vtkExtractArraysOverTime</text>
</a>
</g>
<!-- Node1&#45;&gt;Node9 -->
<g id="edge16" class="edge"><title>Node1&#45;&gt;Node9</title>
<path fill="none" stroke="midnightblue" d="M581.034,-314.472C600.388,-353.821 649.864,-442.653 720,-485 725.922,-488.575 732.346,-491.514 739.004,-493.926"/>
<polygon fill="midnightblue" stroke="midnightblue" points="584.154,-312.885 576.671,-305.385 577.844,-315.914 584.154,-312.885"/>
</g>
<!-- Node11 -->
<g id="node21" class="node"><title>Node11</title>
<a xlink:href="class_kitware_1_1_v_t_k_1_1vtk_extract_block.html" target="_top" xlink:title="vtkExtractBlock &#45; extracts blocks from a multiblock dataset.">
<polygon fill="none" stroke="black" points="751.5,-456 751.5,-476 900.5,-476 900.5,-456 751.5,-456"/>
<text text-anchor="middle" x="826" y="-463" font-family="FreeSans" font-size="10.00">Kitware.VTK.vtkExtractBlock</text>
</a>
</g>
<!-- Node1&#45;&gt;Node11 -->
<g id="edge20" class="edge"><title>Node1&#45;&gt;Node11</title>
<path fill="none" stroke="midnightblue" d="M584.359,-313.914C606.978,-346.843 658.413,-414.305 720,-447 729.66,-452.128 740.441,-455.905 751.325,-458.68"/>
<polygon fill="midnightblue" stroke="midnightblue" points="587.008,-311.581 578.522,-305.239 581.201,-315.489 587.008,-311.581"/>
</g>
<!-- Node12 -->
<g id="node23" class="node"><title>Node12</title>
<a xlink:href="class_kitware_1_1_v_t_k_1_1vtk_extract_c_t_h_part.html" target="_top" xlink:title="vtkExtractCTHPart &#45; Generates surface of an CTH volume fraction.">
<polygon fill="none" stroke="black" points="745.5,-418 745.5,-438 906.5,-438 906.5,-418 745.5,-418"/>
<text text-anchor="middle" x="826" y="-425" font-family="FreeSans" font-size="10.00">Kitware.VTK.vtkExtractCTHPart</text>
</a>
</g>
<!-- Node1&#45;&gt;Node12 -->
<g id="edge22" class="edge"><title>Node1&#45;&gt;Node12</title>
<path fill="none" stroke="midnightblue" d="M588.738,-312.395C614.421,-337.955 666.249,-385.199 720,-409 728.206,-412.634 737.061,-415.572 746.033,-417.949"/>
<polygon fill="midnightblue" stroke="midnightblue" points="591.153,-309.859 581.633,-305.208 586.175,-314.781 591.153,-309.859"/>
</g>
<!-- Node13 -->
<g id="node25" class="node"><title>Node13</title>
<a xlink:href="class_kitware_1_1_v_t_k_1_1vtk_f_l_u_e_n_t_reader.html" target="_top" xlink:title="vtkFLUENTReader &#45; reads a dataset in Fluent file format">
<polygon fill="none" stroke="black" points="747,-380 747,-400 905,-400 905,-380 747,-380"/>
<text text-anchor="middle" x="826" y="-387" font-family="FreeSans" font-size="10.00">Kitware.VTK.vtkFLUENTReader</text>
</a>
</g>
<!-- Node1&#45;&gt;Node13 -->
<g id="edge24" class="edge"><title>Node1&#45;&gt;Node13</title>
<path fill="none" stroke="midnightblue" d="M596.6,-310.537C625.18,-327.884 674.272,-355.547 720,-371 730.627,-374.591 742.096,-377.543 753.427,-379.957"/>
<polygon fill="midnightblue" stroke="midnightblue" points="598.081,-307.338 587.729,-305.082 594.414,-313.301 598.081,-307.338"/>
</g>
<!-- Node14 -->
<g id="node27" class="node"><title>Node14</title>
<a xlink:href="class_kitware_1_1_v_t_k_1_1vtk_generic_en_sight_reader.html" target="_top" xlink:title="vtkGenericEnSightReader &#45; class to read any type of EnSight files">
<polygon fill="none" stroke="black" points="728,-342 728,-362 924,-362 924,-342 728,-342"/>
<text text-anchor="middle" x="826" y="-349" font-family="FreeSans" font-size="10.00">Kitware.VTK.vtkGenericEnSightReader</text>
</a>
</g>
<!-- Node1&#45;&gt;Node14 -->
<g id="edge26" class="edge"><title>Node1&#45;&gt;Node14</title>
<path fill="none" stroke="midnightblue" d="M617.897,-307.719C647.019,-315.556 685.567,-325.504 720,-333 734.706,-336.201 750.645,-339.268 765.587,-341.968"/>
<polygon fill="midnightblue" stroke="midnightblue" points="618.579,-304.277 608.012,-305.042 616.75,-311.034 618.579,-304.277"/>
</g>
<!-- Node21 -->
<g id="node41" class="node"><title>Node21</title>
<a xlink:href="class_kitware_1_1_v_t_k_1_1vtk_l_s_dyna_reader.html" target="_top" xlink:title="vtkLSDynaReader &#45; Read LS&#45;Dyna databases (d3plot)">
<polygon fill="none" stroke="black" points="746.5,-304 746.5,-324 905.5,-324 905.5,-304 746.5,-304"/>
<text text-anchor="middle" x="826" y="-311" font-family="FreeSans" font-size="10.00">Kitware.VTK.vtkLSDynaReader</text>
</a>
</g>
<!-- Node1&#45;&gt;Node21 -->
<g id="edge40" class="edge"><title>Node1&#45;&gt;Node21</title>
<path fill="none" stroke="midnightblue" d="M694.516,-304.165C712.167,-305.485 729.933,-306.814 746.449,-308.049"/>
<polygon fill="midnightblue" stroke="midnightblue" points="694.381,-300.645 684.147,-303.389 693.858,-307.625 694.381,-300.645"/>
</g>
<!-- Node22 -->
<g id="node43" class="node"><title>Node22</title>
<a xlink:href="class_kitware_1_1_v_t_k_1_1vtk_multi_block_data_group_filter.html" target="_top" xlink:title="vtkMultiBlockDataGroupFilter &#45; collects multiple inputs into one multi&#45;group dataset">
<polygon fill="none" stroke="black" points="720,-266 720,-286 932,-286 932,-266 720,-266"/>
<text text-anchor="middle" x="826" y="-273" font-family="FreeSans" font-size="10.00">Kitware.VTK.vtkMultiBlockDataGroupFilter</text>
</a>
</g>
<!-- Node1&#45;&gt;Node22 -->
<g id="edge42" class="edge"><title>Node1&#45;&gt;Node22</title>
<path fill="none" stroke="midnightblue" d="M694.159,-285.862C702.707,-285.223 711.284,-284.581 719.736,-283.949"/>
<polygon fill="midnightblue" stroke="midnightblue" points="693.858,-282.375 684.147,-286.611 694.381,-289.355 693.858,-282.375"/>
</g>
<!-- Node23 -->
<g id="node45" class="node"><title>Node23</title>
<a xlink:href="class_kitware_1_1_v_t_k_1_1vtk_multi_block_merge_filter.html" target="_top" xlink:title="vtkMultiBlockMergeFilter &#45; merges multiblock inputs into a single multiblock output">
<polygon fill="none" stroke="black" points="731,-228 731,-248 921,-248 921,-228 731,-228"/>
<text text-anchor="middle" x="826" y="-235" font-family="FreeSans" font-size="10.00">Kitware.VTK.vtkMultiBlockMergeFilter</text>
</a>
</g>
<!-- Node1&#45;&gt;Node23 -->
<g id="edge44" class="edge"><title>Node1&#45;&gt;Node23</title>
<path fill="none" stroke="midnightblue" d="M617.897,-282.281C647.019,-274.444 685.567,-264.496 720,-257 734.706,-253.799 750.645,-250.732 765.587,-248.032"/>
<polygon fill="midnightblue" stroke="midnightblue" points="616.75,-278.966 608.012,-284.958 618.579,-285.723 616.75,-278.966"/>
</g>
<!-- Node24 -->
<g id="node47" class="node"><title>Node24</title>
<a xlink:href="class_kitware_1_1_v_t_k_1_1vtk_multi_block_p_l_o_t3_d_reader.html" target="_top" xlink:title="vtkMultiBlockPLOT3DReader &#45; read PLOT3D data files">
<polygon fill="none" stroke="black" points="722,-190 722,-210 930,-210 930,-190 722,-190"/>
<text text-anchor="middle" x="826" y="-197" font-family="FreeSans" font-size="10.00">Kitware.VTK.vtkMultiBlockPLOT3DReader</text>
</a>
</g>
<!-- Node1&#45;&gt;Node24 -->
<g id="edge46" class="edge"><title>Node1&#45;&gt;Node24</title>
<path fill="none" stroke="midnightblue" d="M596.6,-279.463C625.18,-262.116 674.272,-234.453 720,-219 730.627,-215.409 742.096,-212.457 753.427,-210.043"/>
<polygon fill="midnightblue" stroke="midnightblue" points="594.414,-276.699 587.729,-284.918 598.081,-282.662 594.414,-276.699"/>
</g>
<!-- Node25 -->
<g id="node49" class="node"><title>Node25</title>
<a xlink:href="class_kitware_1_1_v_t_k_1_1vtk_multi_threshold.html" target="_top" xlink:title="vtkMultiThreshold &#45; Threshold cells within multiple intervals">
<polygon fill="none" stroke="black" points="747,-152 747,-172 905,-172 905,-152 747,-152"/>
<text text-anchor="middle" x="826" y="-159" font-family="FreeSans" font-size="10.00">Kitware.VTK.vtkMultiThreshold</text>
</a>
</g>
<!-- Node1&#45;&gt;Node25 -->
<g id="edge48" class="edge"><title>Node1&#45;&gt;Node25</title>
<path fill="none" stroke="midnightblue" d="M588.738,-277.605C614.421,-252.045 666.249,-204.801 720,-181 728.462,-177.253 737.615,-174.245 746.875,-171.829"/>
<polygon fill="midnightblue" stroke="midnightblue" points="586.175,-275.219 581.633,-284.792 591.153,-280.141 586.175,-275.219"/>
</g>
<!-- Node26 -->
<g id="node51" class="node"><title>Node26</title>
<a xlink:href="class_kitware_1_1_v_t_k_1_1vtk_open_f_o_a_m_reader.html" target="_top" xlink:title="vtkOpenFOAMReader &#45; reads a dataset in OpenFOAM format">
<polygon fill="none" stroke="black" points="738,-114 738,-134 914,-134 914,-114 738,-114"/>
<text text-anchor="middle" x="826" y="-121" font-family="FreeSans" font-size="10.00">Kitware.VTK.vtkOpenFOAMReader</text>
</a>
</g>
<!-- Node1&#45;&gt;Node26 -->
<g id="edge50" class="edge"><title>Node1&#45;&gt;Node26</title>
<path fill="none" stroke="midnightblue" d="M584.359,-276.086C606.978,-243.157 658.413,-175.695 720,-143 726.853,-139.362 734.27,-136.404 741.887,-134.001"/>
<polygon fill="midnightblue" stroke="midnightblue" points="581.201,-274.511 578.522,-284.761 587.008,-278.419 581.201,-274.511"/>
</g>
<!-- Node28 -->
<g id="node55" class="node"><title>Node28</title>
<a xlink:href="class_kitware_1_1_v_t_k_1_1vtk_s_l_a_c_reader.html" target="_top" xlink:title="Kitware.VTK.vtkSLACReader">
<polygon fill="none" stroke="black" points="752,-76 752,-96 900,-96 900,-76 752,-76"/>
<text text-anchor="middle" x="826" y="-83" font-family="FreeSans" font-size="10.00">Kitware.VTK.vtkSLACReader</text>
</a>
</g>
<!-- Node1&#45;&gt;Node28 -->
<g id="edge54" class="edge"><title>Node1&#45;&gt;Node28</title>
<path fill="none" stroke="midnightblue" d="M581.034,-275.528C600.388,-236.179 649.864,-147.347 720,-105 729.683,-99.1536 740.71,-95.0094 751.904,-92.0893"/>
<polygon fill="midnightblue" stroke="midnightblue" points="577.844,-274.086 576.671,-284.615 584.154,-277.115 577.844,-274.086"/>
</g>
<!-- Node30 -->
<g id="node59" class="node"><title>Node30</title>
<a xlink:href="class_kitware_1_1_v_t_k_1_1vtk_tecplot_reader.html" target="_top" xlink:title="vtkTecplotReader &#45; A concrete class to read an ASCII Tecplot file.">
<polygon fill="none" stroke="black" points="748.5,-38 748.5,-58 903.5,-58 903.5,-38 748.5,-38"/>
<text text-anchor="middle" x="826" y="-45" font-family="FreeSans" font-size="10.00">Kitware.VTK.vtkTecplotReader</text>
</a>
</g>
<!-- Node1&#45;&gt;Node30 -->
<g id="edge58" class="edge"><title>Node1&#45;&gt;Node30</title>
<path fill="none" stroke="midnightblue" d="M578.531,-275.456C594.645,-230.496 640.841,-119.567 720,-67 728.566,-61.3115 738.344,-57.1903 748.418,-54.2255"/>
<polygon fill="midnightblue" stroke="midnightblue" points="575.214,-274.339 575.234,-284.934 581.825,-276.639 575.214,-274.339"/>
</g>
<!-- Node31 -->
<g id="node61" class="node"><title>Node31</title>
<a xlink:href="class_kitware_1_1_v_t_k_1_1vtk_youngs_material_interface.html" target="_top" xlink:title="vtkYoungsMaterialInterface &#45; reconstructs material interfaces">
<polygon fill="none" stroke="black" points="724.5,-0 724.5,-20 927.5,-20 927.5,-0 724.5,-0"/>
<text text-anchor="middle" x="826" y="-7" font-family="FreeSans" font-size="10.00">Kitware.VTK.vtkYoungsMaterialInterface</text>
</a>
</g>
<!-- Node1&#45;&gt;Node31 -->
<g id="edge60" class="edge"><title>Node1&#45;&gt;Node31</title>
<path fill="none" stroke="midnightblue" d="M576.785,-275.029C589.97,-224.656 631.842,-91.9651 720,-29 724.945,-25.4685 730.342,-22.5274 735.998,-20.0837"/>
<polygon fill="midnightblue" stroke="midnightblue" points="573.327,-274.428 574.278,-284.98 580.115,-276.138 573.327,-274.428"/>
</g>
<!-- Node2 -->
<g id="node2" class="node"><title>Node2</title>
<a xlink:href="class_kitware_1_1_v_t_k_1_1vtk_algorithm.html" target="_top" xlink:title="vtkAlgorithm &#45; Superclass for all sources, filters, and sinks in VTK.">
<polygon fill="none" stroke="black" points="346.5,-285 346.5,-305 423.5,-305 423.5,-285 346.5,-285"/>
<text text-anchor="middle" x="385" y="-292" font-family="FreeSans" font-size="10.00">vtkAlgorithm</text>
</a>
</g>
<!-- Node2&#45;&gt;Node1 -->
<g id="edge2" class="edge"><title>Node2&#45;&gt;Node1</title>
<path fill="none" stroke="midnightblue" d="M434.014,-295C442.099,-295 450.763,-295 459.665,-295"/>
<polygon fill="midnightblue" stroke="midnightblue" points="433.747,-291.5 423.747,-295 433.746,-298.5 433.747,-291.5"/>
</g>
<!-- Node3 -->
<g id="node4" class="node"><title>Node3</title>
<a xlink:href="class_kitware_1_1_v_t_k_1_1vtk_object.html" target="_top" xlink:title="vtkObject &#45; abstract base class for most VTK objects">
<polygon fill="none" stroke="black" points="248,-285 248,-305 310,-305 310,-285 248,-285"/>
<text text-anchor="middle" x="279" y="-292" font-family="FreeSans" font-size="10.00">vtkObject</text>
</a>
</g>
<!-- Node3&#45;&gt;Node2 -->
<g id="edge4" class="edge"><title>Node3&#45;&gt;Node2</title>
<path fill="none" stroke="midnightblue" d="M320.421,-295C329.001,-295 338.007,-295 346.479,-295"/>
<polygon fill="midnightblue" stroke="midnightblue" points="320.23,-291.5 310.23,-295 320.23,-298.5 320.23,-291.5"/>
</g>
<!-- Node4 -->
<g id="node6" class="node"><title>Node4</title>
<a xlink:href="class_kitware_1_1_v_t_k_1_1vtk_object_base.html" target="_top" xlink:title="vtkObjectBase &#45; abstract base class for most VTK objects">
<polygon fill="none" stroke="black" points="126,-285 126,-305 212,-305 212,-285 126,-285"/>
<text text-anchor="middle" x="169" y="-292" font-family="FreeSans" font-size="10.00">vtkObjectBase</text>
</a>
</g>
<!-- Node4&#45;&gt;Node3 -->
<g id="edge6" class="edge"><title>Node4&#45;&gt;Node3</title>
<path fill="none" stroke="midnightblue" d="M222.346,-295C231.091,-295 239.892,-295 247.863,-295"/>
<polygon fill="midnightblue" stroke="midnightblue" points="222.159,-291.5 212.159,-295 222.159,-298.5 222.159,-291.5"/>
</g>
<!-- Node5 -->
<g id="node8" class="node"><title>Node5</title>
<a xlink:href="class_kitware_1_1_v_t_k_1_1_wrapped_object.html" target="_top" xlink:title="Base class for all the mummy wrapped classes in Kitware.VTK.">
<polygon fill="none" stroke="black" points="0.5,-285 0.5,-305 89.5,-305 89.5,-285 0.5,-285"/>
<text text-anchor="middle" x="45" y="-292" font-family="FreeSans" font-size="10.00">WrappedObject</text>
</a>
</g>
<!-- Node5&#45;&gt;Node4 -->
<g id="edge8" class="edge"><title>Node5&#45;&gt;Node4</title>
<path fill="none" stroke="midnightblue" d="M99.8895,-295C108.623,-295 117.548,-295 125.957,-295"/>
<polygon fill="midnightblue" stroke="midnightblue" points="99.7669,-291.5 89.7668,-295 99.7668,-298.5 99.7669,-291.5"/>
</g>
<!-- Node8 -->
<g id="node15" class="node"><title>Node8</title>
<a xlink:href="class_kitware_1_1_v_t_k_1_1vtk_p_exodus_i_i_reader.html" target="_top" xlink:title="vtkPExodusIIReader &#45; Read Exodus II files (.exii)">
<polygon fill="none" stroke="black" points="996.5,-532 996.5,-552 1163.5,-552 1163.5,-532 996.5,-532"/>
<text text-anchor="middle" x="1080" y="-539" font-family="FreeSans" font-size="10.00">Kitware.VTK.vtkPExodusIIReader</text>
</a>
</g>
<!-- Node7&#45;&gt;Node8 -->
<g id="edge14" class="edge"><title>Node7&#45;&gt;Node8</title>
<path fill="none" stroke="midnightblue" d="M916.915,-542C942.845,-542 970.963,-542 996.432,-542"/>
<polygon fill="midnightblue" stroke="midnightblue" points="916.716,-538.5 906.716,-542 916.716,-545.5 916.716,-538.5"/>
</g>
<!-- Node10 -->
<g id="node19" class="node"><title>Node10</title>
<a xlink:href="class_kitware_1_1_v_t_k_1_1vtk_p_extract_arrays_over_time.html" target="_top" xlink:title="vtkPExtractArraysOverTime &#45; extract point or cell data over time (parallel)">
<polygon fill="none" stroke="black" points="977,-494 977,-514 1183,-514 1183,-494 977,-494"/>
<text text-anchor="middle" x="1080" y="-501" font-family="FreeSans" font-size="10.00">Kitware.VTK.vtkPExtractArraysOverTime</text>
</a>
</g>
<!-- Node9&#45;&gt;Node10 -->
<g id="edge18" class="edge"><title>Node9&#45;&gt;Node10</title>
<path fill="none" stroke="midnightblue" d="M936.245,-504C949.69,-504 963.39,-504 976.729,-504"/>
<polygon fill="midnightblue" stroke="midnightblue" points="936.023,-500.5 926.023,-504 936.023,-507.5 936.023,-500.5"/>
</g>
<!-- Node15 -->
<g id="node29" class="node"><title>Node15</title>
<a xlink:href="class_kitware_1_1_v_t_k_1_1vtk_en_sight_master_server_reader.html" target="_top" xlink:title="vtkEnSightMasterServerReader &#45; reader for compund EnSight files">
<polygon fill="none" stroke="black" points="968,-361 968,-381 1192,-381 1192,-361 968,-361"/>
<text text-anchor="middle" x="1080" y="-368" font-family="FreeSans" font-size="10.00">Kitware.VTK.vtkEnSightMasterServerReader</text>
</a>
</g>
<!-- Node14&#45;&gt;Node15 -->
<g id="edge28" class="edge"><title>Node14&#45;&gt;Node15</title>
<path fill="none" stroke="midnightblue" d="M934.289,-360.1C945.342,-360.927 956.588,-361.768 967.682,-362.598"/>
<polygon fill="midnightblue" stroke="midnightblue" points="934.436,-356.602 924.203,-359.346 933.914,-363.582 934.436,-356.602"/>
</g>
<!-- Node16 -->
<g id="node31" class="node"><title>Node16</title>
<a xlink:href="class_kitware_1_1_v_t_k_1_1vtk_en_sight_reader.html" target="_top" xlink:title="vtkEnSightReader &#45; superclass for EnSight file readers">
<polygon fill="none" stroke="black" points="1000.5,-323 1000.5,-343 1159.5,-343 1159.5,-323 1000.5,-323"/>
<text text-anchor="middle" x="1080" y="-330" font-family="FreeSans" font-size="10.00">Kitware.VTK.vtkEnSightReader</text>
</a>
</g>
<!-- Node14&#45;&gt;Node16 -->
<g id="edge30" class="edge"><title>Node14&#45;&gt;Node16</title>
<path fill="none" stroke="midnightblue" d="M934.289,-343.9C956.381,-342.247 979.245,-340.537 1000.13,-338.975"/>
<polygon fill="midnightblue" stroke="midnightblue" points="933.914,-340.418 924.203,-344.654 934.436,-347.398 933.914,-340.418"/>
</g>
<!-- Node17 -->
<g id="node33" class="node"><title>Node17</title>
<a xlink:href="class_kitware_1_1_v_t_k_1_1vtk_en_sight6_binary_reader.html" target="_top" xlink:title="vtkEnSight6BinaryReader &#45; class to read binary EnSight6 files">
<polygon fill="none" stroke="black" points="1236.5,-380 1236.5,-400 1431.5,-400 1431.5,-380 1236.5,-380"/>
<text text-anchor="middle" x="1334" y="-387" font-family="FreeSans" font-size="10.00">Kitware.VTK.vtkEnSight6BinaryReader</text>
</a>
</g>
<!-- Node16&#45;&gt;Node17 -->
<g id="edge32" class="edge"><title>Node16&#45;&gt;Node17</title>
<path fill="none" stroke="midnightblue" d="M1168.38,-345.269C1176.45,-347.205 1184.43,-349.434 1192,-352 1209.13,-357.808 1210.89,-365.112 1228,-371 1238.43,-374.59 1249.68,-377.534 1260.83,-379.94"/>
<polygon fill="midnightblue" stroke="midnightblue" points="1169.04,-341.83 1158.52,-343.051 1167.5,-348.659 1169.04,-341.83"/>
</g>
<!-- Node18 -->
<g id="node35" class="node"><title>Node18</title>
<a xlink:href="class_kitware_1_1_v_t_k_1_1vtk_en_sight6_reader.html" target="_top" xlink:title="vtkEnSight6Reader &#45; class to read EnSight6 files">
<polygon fill="none" stroke="black" points="1251.5,-342 1251.5,-362 1416.5,-362 1416.5,-342 1251.5,-342"/>
<text text-anchor="middle" x="1334" y="-349" font-family="FreeSans" font-size="10.00">Kitware.VTK.vtkEnSight6Reader</text>
</a>
</g>
<!-- Node16&#45;&gt;Node18 -->
<g id="edge34" class="edge"><title>Node16&#45;&gt;Node18</title>
<path fill="none" stroke="midnightblue" d="M1169.7,-339.71C1196.19,-341.691 1225.06,-343.851 1251.11,-345.799"/>
<polygon fill="midnightblue" stroke="midnightblue" points="1169.9,-336.215 1159.67,-338.96 1169.38,-343.196 1169.9,-336.215"/>
</g>
<!-- Node19 -->
<g id="node37" class="node"><title>Node19</title>
<a xlink:href="class_kitware_1_1_v_t_k_1_1vtk_en_sight_gold_binary_reader.html" target="_top" xlink:title="vtkEnSightGoldBinaryReader &#45; class to read binary EnSight Gold files">
<polygon fill="none" stroke="black" points="1228.5,-304 1228.5,-324 1439.5,-324 1439.5,-304 1228.5,-304"/>
<text text-anchor="middle" x="1334" y="-311" font-family="FreeSans" font-size="10.00">Kitware.VTK.vtkEnSightGoldBinaryReader</text>
</a>
</g>
<!-- Node16&#45;&gt;Node19 -->
<g id="edge36" class="edge"><title>Node16&#45;&gt;Node19</title>
<path fill="none" stroke="midnightblue" d="M1169.72,-326.289C1188.59,-324.877 1208.66,-323.376 1228.06,-321.925"/>
<polygon fill="midnightblue" stroke="midnightblue" points="1169.38,-322.804 1159.67,-327.04 1169.9,-329.785 1169.38,-322.804"/>
</g>
<!-- Node20 -->
<g id="node39" class="node"><title>Node20</title>
<a xlink:href="class_kitware_1_1_v_t_k_1_1vtk_en_sight_gold_reader.html" target="_top" xlink:title="vtkEnSightGoldReader &#45; class to read EnSight Gold files">
<polygon fill="none" stroke="black" points="1243.5,-266 1243.5,-286 1424.5,-286 1424.5,-266 1243.5,-266"/>
<text text-anchor="middle" x="1334" y="-273" font-family="FreeSans" font-size="10.00">Kitware.VTK.vtkEnSightGoldReader</text>
</a>
</g>
<!-- Node16&#45;&gt;Node20 -->
<g id="edge38" class="edge"><title>Node16&#45;&gt;Node20</title>
<path fill="none" stroke="midnightblue" d="M1125.9,-320.281C1155.02,-312.444 1193.57,-302.496 1228,-295 1242.71,-291.799 1258.64,-288.732 1273.59,-286.032"/>
<polygon fill="midnightblue" stroke="midnightblue" points="1124.75,-316.966 1116.01,-322.958 1126.58,-323.723 1124.75,-316.966"/>
</g>
<!-- Node27 -->
<g id="node53" class="node"><title>Node27</title>
<a xlink:href="class_kitware_1_1_v_t_k_1_1vtk_p_open_f_o_a_m_reader.html" target="_top" xlink:title="vtkPOpenFOAMReader &#45; reads a decomposed dataset in OpenFOAM format">
<polygon fill="none" stroke="black" points="989,-114 989,-134 1171,-134 1171,-114 989,-114"/>
<text text-anchor="middle" x="1080" y="-121" font-family="FreeSans" font-size="10.00">Kitware.VTK.vtkPOpenFOAMReader</text>
</a>
</g>
<!-- Node26&#45;&gt;Node27 -->
<g id="edge52" class="edge"><title>Node26&#45;&gt;Node27</title>
<path fill="none" stroke="midnightblue" d="M924.391,-124C945.509,-124 967.74,-124 988.581,-124"/>
<polygon fill="midnightblue" stroke="midnightblue" points="924.124,-120.5 914.124,-124 924.124,-127.5 924.124,-120.5"/>
</g>
<!-- Node29 -->
<g id="node57" class="node"><title>Node29</title>
<a xlink:href="class_kitware_1_1_v_t_k_1_1vtk_p_s_l_a_c_reader.html" target="_top" xlink:title="Kitware.VTK.vtkPSLACReader">
<polygon fill="none" stroke="black" points="1003,-76 1003,-96 1157,-96 1157,-76 1003,-76"/>
<text text-anchor="middle" x="1080" y="-83" font-family="FreeSans" font-size="10.00">Kitware.VTK.vtkPSLACReader</text>
</a>
</g>
<!-- Node28&#45;&gt;Node29 -->
<g id="edge56" class="edge"><title>Node28&#45;&gt;Node29</title>
<path fill="none" stroke="midnightblue" d="M910.515,-86C940.267,-86 973.535,-86 1002.67,-86"/>
<polygon fill="midnightblue" stroke="midnightblue" points="910.15,-82.5001 900.15,-86 910.15,-89.5001 910.15,-82.5001"/>
</g>
</g>
</svg>
