<?xml version="1.0" encoding="UTF-8" standalone="no"?>
<!DOCTYPE svg PUBLIC "-//W3C//DTD SVG 1.1//EN"
 "http://www.w3.org/Graphics/SVG/1.1/DTD/svg11.dtd">
<!-- Generated by graphviz version 2.26.3 (20100126.1600)
 -->
<!-- Title: G Pages: 1 -->
<svg width="164pt" height="204pt"
 viewBox="0.00 0.00 164.00 204.00" xmlns="http://www.w3.org/2000/svg" xmlns:xlink="http://www.w3.org/1999/xlink">
<g id="graph1" class="graph" transform="scale(1 1) rotate(0) translate(4 200)">
<title>G</title>
<!-- Node1 -->
<g id="node1" class="node"><title>Node1</title>
<polygon fill="#bfbfbf" stroke="black" points="-0.5,-1 -0.5,-21 156.5,-21 156.5,-1 -0.5,-1"/>
<text text-anchor="middle" x="78" y="-8" font-family="FreeSans" font-size="10.00">Kitware.VTK.vtkImageViewer2</text>
</g>
<!-- Node2 -->
<g id="node2" class="node"><title>Node2</title>
<a xlink:href="class_kitware_1_1_v_t_k_1_1vtk_object.html" target="_top" xlink:title="vtkObject &#45; abstract base class for most VTK objects">
<polygon fill="none" stroke="black" points="47,-59 47,-79 109,-79 109,-59 47,-59"/>
<text text-anchor="middle" x="78" y="-66" font-family="FreeSans" font-size="10.00">vtkObject</text>
</a>
</g>
<!-- Node2&#45;&gt;Node1 -->
<g id="edge2" class="edge"><title>Node2&#45;&gt;Node1</title>
<path fill="none" stroke="midnightblue" d="M78,-48.8902C78,-39.6201 78,-29.0083 78,-21.3776"/>
<polygon fill="midnightblue" stroke="midnightblue" points="74.5001,-48.8971 78,-58.8972 81.5001,-48.8972 74.5001,-48.8971"/>
</g>
<!-- Node3 -->
<g id="node4" class="node"><title>Node3</title>
<a xlink:href="class_kitware_1_1_v_t_k_1_1vtk_object_base.html" target="_top" xlink:title="vtkObjectBase &#45; abstract base class for most VTK objects">
<polygon fill="none" stroke="black" points="35,-117 35,-137 121,-137 121,-117 35,-117"/>
<text text-anchor="middle" x="78" y="-124" font-family="FreeSans" font-size="10.00">vtkObjectBase</text>
</a>
</g>
<!-- Node3&#45;&gt;Node2 -->
<g id="edge4" class="edge"><title>Node3&#45;&gt;Node2</title>
<path fill="none" stroke="midnightblue" d="M78,-106.89C78,-97.6201 78,-87.0083 78,-79.3776"/>
<polygon fill="midnightblue" stroke="midnightblue" points="74.5001,-106.897 78,-116.897 81.5001,-106.897 74.5001,-106.897"/>
</g>
<!-- Node4 -->
<g id="node6" class="node"><title>Node4</title>
<a xlink:href="class_kitware_1_1_v_t_k_1_1_wrapped_object.html" target="_top" xlink:title="Base class for all the mummy wrapped classes in Kitware.VTK.">
<polygon fill="none" stroke="black" points="33.5,-175 33.5,-195 122.5,-195 122.5,-175 33.5,-175"/>
<text text-anchor="middle" x="78" y="-182" font-family="FreeSans" font-size="10.00">WrappedObject</text>
</a>
</g>
<!-- Node4&#45;&gt;Node3 -->
<g id="edge6" class="edge"><title>Node4&#45;&gt;Node3</title>
<path fill="none" stroke="midnightblue" d="M78,-164.89C78,-155.62 78,-145.008 78,-137.378"/>
<polygon fill="midnightblue" stroke="midnightblue" points="74.5001,-164.897 78,-174.897 81.5001,-164.897 74.5001,-164.897"/>
</g>
</g>
</svg>
