<?xml version="1.0" encoding="UTF-8" standalone="no"?>
<!DOCTYPE svg PUBLIC "-//W3C//DTD SVG 1.1//EN"
 "http://www.w3.org/Graphics/SVG/1.1/DTD/svg11.dtd">
<!-- Generated by graphviz version 2.26.3 (20100126.1600)
 -->
<!-- Title: G Pages: 1 -->
<svg width="408pt" height="770pt"
 viewBox="0.00 0.00 408.46 770.00" xmlns="http://www.w3.org/2000/svg" xmlns:xlink="http://www.w3.org/1999/xlink">
<g id="graph1" class="graph" transform="scale(1 1) rotate(0) translate(4 766)">
<title>G</title>
<!-- Node1 -->
<g id="node1" class="node"><title>Node1</title>
<polygon fill="#bfbfbf" stroke="black" points="-0.5,-1 -0.5,-21 144.5,-21 144.5,-1 -0.5,-1"/>
<text text-anchor="middle" x="72" y="-8" font-family="FreeSans" font-size="10.00">Kitware.VTK.vtkLogoWidget</text>
</g>
<!-- Node2 -->
<g id="node2" class="node"><title>Node2</title>
<a xlink:href="class_kitware_1_1_v_t_k_1_1vtk_border_widget.html" target="_top" xlink:title="vtkBorderWidget &#45; place a border around a 2D rectangular region">
<polygon fill="none" stroke="black" points="24.5,-61 24.5,-81 119.5,-81 119.5,-61 24.5,-61"/>
<text text-anchor="middle" x="72" y="-68" font-family="FreeSans" font-size="10.00">vtkBorderWidget</text>
</a>
</g>
<!-- Node2&#45;&gt;Node1 -->
<g id="edge2" class="edge"><title>Node2&#45;&gt;Node1</title>
<path fill="none" stroke="midnightblue" d="M72,-50.5155C72,-40.562 72,-29.0495 72,-21.0279"/>
<polygon fill="midnightblue" stroke="midnightblue" points="68.5001,-50.8218 72,-60.8218 75.5001,-50.8219 68.5001,-50.8218"/>
</g>
<!-- Node3 -->
<g id="node4" class="node"><title>Node3</title>
<a xlink:href="class_kitware_1_1_v_t_k_1_1vtk_abstract_widget.html" target="_top" xlink:title="vtkAbstractWidget &#45; define the API for widget / widget representation">
<polygon fill="none" stroke="black" points="20,-121 20,-141 124,-141 124,-121 20,-121"/>
<text text-anchor="middle" x="72" y="-128" font-family="FreeSans" font-size="10.00">vtkAbstractWidget</text>
</a>
</g>
<!-- Node3&#45;&gt;Node2 -->
<g id="edge4" class="edge"><title>Node3&#45;&gt;Node2</title>
<path fill="none" stroke="midnightblue" d="M72,-110.516C72,-100.562 72,-89.0495 72,-81.0279"/>
<polygon fill="midnightblue" stroke="midnightblue" points="68.5001,-110.822 72,-120.822 75.5001,-110.822 68.5001,-110.822"/>
</g>
<!-- Node4 -->
<g id="node6" class="node"><title>Node4</title>
<a xlink:href="class_kitware_1_1_v_t_k_1_1vtk_interactor_observer.html" target="_top" xlink:title="vtkInteractorObserver &#45; an abstract superclass for classes observing events invoked by vtkRenderWindo...">
<polygon fill="none" stroke="black" points="11.5,-181 11.5,-201 132.5,-201 132.5,-181 11.5,-181"/>
<text text-anchor="middle" x="72" y="-188" font-family="FreeSans" font-size="10.00">vtkInteractorObserver</text>
</a>
</g>
<!-- Node4&#45;&gt;Node3 -->
<g id="edge6" class="edge"><title>Node4&#45;&gt;Node3</title>
<path fill="none" stroke="midnightblue" d="M72,-170.516C72,-160.562 72,-149.05 72,-141.028"/>
<polygon fill="midnightblue" stroke="midnightblue" points="68.5001,-170.822 72,-180.822 75.5001,-170.822 68.5001,-170.822"/>
</g>
<!-- Node5 -->
<g id="node8" class="node"><title>Node5</title>
<a xlink:href="class_kitware_1_1_v_t_k_1_1vtk_object.html" target="_top" xlink:title="vtkObject &#45; abstract base class for most VTK objects">
<polygon fill="none" stroke="black" points="41,-241 41,-261 103,-261 103,-241 41,-241"/>
<text text-anchor="middle" x="72" y="-248" font-family="FreeSans" font-size="10.00">vtkObject</text>
</a>
</g>
<!-- Node5&#45;&gt;Node4 -->
<g id="edge8" class="edge"><title>Node5&#45;&gt;Node4</title>
<path fill="none" stroke="midnightblue" d="M72,-230.516C72,-220.562 72,-209.05 72,-201.028"/>
<polygon fill="midnightblue" stroke="midnightblue" points="68.5001,-230.822 72,-240.822 75.5001,-230.822 68.5001,-230.822"/>
</g>
<!-- Node6 -->
<g id="node10" class="node"><title>Node6</title>
<a xlink:href="class_kitware_1_1_v_t_k_1_1vtk_object_base.html" target="_top" xlink:title="vtkObjectBase &#45; abstract base class for most VTK objects">
<polygon fill="none" stroke="black" points="92,-681 92,-701 178,-701 178,-681 92,-681"/>
<text text-anchor="middle" x="135" y="-688" font-family="FreeSans" font-size="10.00">vtkObjectBase</text>
</a>
</g>
<!-- Node6&#45;&gt;Node5 -->
<g id="edge10" class="edge"><title>Node6&#45;&gt;Node5</title>
<path fill="none" stroke="midnightblue" d="M106.423,-675.886C92.6866,-667.44 76.8844,-655.826 66,-642 54.1564,-626.955 53.6209,-620.802 50,-602 24.4248,-469.199 59.5766,-303.437 69.5155,-261.17"/>
<polygon fill="midnightblue" stroke="midnightblue" points="104.683,-678.923 115.079,-680.97 108.229,-672.887 104.683,-678.923"/>
</g>
<!-- Node9 -->
<g id="node17" class="node"><title>Node9</title>
<a xlink:href="class_kitware_1_1_v_t_k_1_1vtk_object.html" target="_top" xlink:title="vtkObject &#45; abstract base class for most VTK objects">
<polygon fill="none" stroke="black" points="75,-621 75,-641 195,-641 195,-621 75,-621"/>
<text text-anchor="middle" x="135" y="-628" font-family="FreeSans" font-size="10.00">Kitware.VTK.vtkObject</text>
</a>
</g>
<!-- Node6&#45;&gt;Node9 -->
<g id="edge20" class="edge"><title>Node6&#45;&gt;Node9</title>
<path fill="none" stroke="midnightblue" d="M135,-670.516C135,-660.562 135,-649.05 135,-641.028"/>
<polygon fill="midnightblue" stroke="midnightblue" points="131.5,-670.822 135,-680.822 138.5,-670.822 131.5,-670.822"/>
</g>
<!-- Node7 -->
<g id="node12" class="node"><title>Node7</title>
<a xlink:href="class_kitware_1_1_v_t_k_1_1_wrapped_object.html" target="_top" xlink:title="Base class for all the mummy wrapped classes in Kitware.VTK.">
<polygon fill="none" stroke="black" points="273.5,-741 273.5,-761 362.5,-761 362.5,-741 273.5,-741"/>
<text text-anchor="middle" x="318" y="-748" font-family="FreeSans" font-size="10.00">WrappedObject</text>
</a>
</g>
<!-- Node7&#45;&gt;Node6 -->
<g id="edge12" class="edge"><title>Node7&#45;&gt;Node6</title>
<path fill="none" stroke="midnightblue" d="M277.804,-737.821C244.042,-726.752 196.512,-711.168 165.73,-701.075"/>
<polygon fill="midnightblue" stroke="midnightblue" points="276.777,-741.168 287.37,-740.957 278.958,-734.516 276.777,-741.168"/>
</g>
<!-- Node8 -->
<g id="node14" class="node"><title>Node8</title>
<a xlink:href="class_kitware_1_1_v_t_k_1_1vtk_object_event_relay.html" target="_top" xlink:title="Implement a relay handler for VTK events. This is a class that receives events directly from the VTK ...">
<polygon fill="none" stroke="black" points="64,-431 64,-451 236,-451 236,-431 64,-431"/>
<text text-anchor="middle" x="150" y="-438" font-family="FreeSans" font-size="10.00">Kitware.VTK.vtkObjectEventRelay</text>
</a>
</g>
<!-- Node7&#45;&gt;Node8 -->
<g id="edge16" class="edge"><title>Node7&#45;&gt;Node8</title>
<path fill="none" stroke="midnightblue" d="M330.888,-732.325C363.276,-682.899 440.803,-547.191 373,-470 363.773,-459.495 295.047,-451.666 236.298,-446.808"/>
<polygon fill="midnightblue" stroke="midnightblue" points="327.891,-730.509 325.239,-740.767 333.709,-734.402 327.891,-730.509"/>
</g>
<!-- Node8&#45;&gt;Node5 -->
<g id="edge14" class="edge"><title>Node8&#45;&gt;Node5</title>
<path fill="none" stroke="#9a32cd" stroke-dasharray="5,2" d="M141.921,-421.321C125.489,-381.293 88.6738,-291.616 76.2144,-261.266"/>
<polygon fill="#9a32cd" stroke="#9a32cd" points="138.771,-422.863 145.806,-430.785 145.246,-420.205 138.771,-422.863"/>
<text text-anchor="middle" x="249.5" y="-403" font-family="FreeSans" font-size="10.00"> LeftButtonReleaseEvtRelay</text>
<text text-anchor="middle" x="249.5" y="-391" font-family="FreeSans" font-size="10.00">KeyPressEvtRelay</text>
<text text-anchor="middle" x="249.5" y="-379" font-family="FreeSans" font-size="10.00">DomainModifiedEvtRelay</text>
<text text-anchor="middle" x="249.5" y="-367" font-family="FreeSans" font-size="10.00">VolumeMapperComputeGradientsStartEvtRelay</text>
<text text-anchor="middle" x="249.5" y="-355" font-family="FreeSans" font-size="10.00">ErrorEvtRelay</text>
<text text-anchor="middle" x="249.5" y="-343" font-family="FreeSans" font-size="10.00">VolumeMapperRenderStartEvtRelay</text>
<text text-anchor="middle" x="249.5" y="-331" font-family="FreeSans" font-size="10.00">StartEvtRelay</text>
<text text-anchor="middle" x="249.5" y="-319" font-family="FreeSans" font-size="10.00">ResetCameraEvtRelay</text>
<text text-anchor="middle" x="249.5" y="-307" font-family="FreeSans" font-size="10.00">EnableEvtRelay</text>
<text text-anchor="middle" x="249.5" y="-295" font-family="FreeSans" font-size="10.00">DeleteEvtRelay</text>
<text text-anchor="middle" x="249.5" y="-283" font-family="FreeSans" font-size="10.00">...</text>
</g>
<!-- Node8&#45;&gt;Node9 -->
<g id="edge22" class="edge"><title>Node8&#45;&gt;Node9</title>
<path fill="none" stroke="#9a32cd" stroke-dasharray="5,2" d="M147.028,-461.231C146.649,-464.169 146.293,-467.159 146,-470 140.144,-526.853 136.636,-595.333 135.452,-620.807"/>
<polygon fill="#9a32cd" stroke="#9a32cd" points="150.515,-461.565 148.421,-451.179 143.582,-460.604 150.515,-461.565"/>
<text text-anchor="middle" x="259.5" y="-593" font-family="FreeSans" font-size="10.00"> LeftButtonReleaseEvtRelay</text>
<text text-anchor="middle" x="259.5" y="-581" font-family="FreeSans" font-size="10.00">KeyPressEvtRelay</text>
<text text-anchor="middle" x="259.5" y="-569" font-family="FreeSans" font-size="10.00">DomainModifiedEvtRelay</text>
<text text-anchor="middle" x="259.5" y="-557" font-family="FreeSans" font-size="10.00">VolumeMapperComputeGradientsStartEvtRelay</text>
<text text-anchor="middle" x="259.5" y="-545" font-family="FreeSans" font-size="10.00">ErrorEvtRelay</text>
<text text-anchor="middle" x="259.5" y="-533" font-family="FreeSans" font-size="10.00">VolumeMapperRenderStartEvtRelay</text>
<text text-anchor="middle" x="259.5" y="-521" font-family="FreeSans" font-size="10.00">StartEvtRelay</text>
<text text-anchor="middle" x="259.5" y="-509" font-family="FreeSans" font-size="10.00">ResetCameraEvtRelay</text>
<text text-anchor="middle" x="259.5" y="-497" font-family="FreeSans" font-size="10.00">EnableEvtRelay</text>
<text text-anchor="middle" x="259.5" y="-485" font-family="FreeSans" font-size="10.00">DeleteEvtRelay</text>
<text text-anchor="middle" x="259.5" y="-473" font-family="FreeSans" font-size="10.00">...</text>
</g>
<!-- Node9&#45;&gt;Node8 -->
<g id="edge18" class="edge"><title>Node9&#45;&gt;Node8</title>
<path fill="none" stroke="#9a32cd" stroke-dasharray="5,2" d="M88.9794,-615.818C83.4393,-612.138 78.5104,-607.596 75,-602 43.8229,-552.303 41.8299,-518.389 75,-470 79.7359,-463.091 96.5114,-456.287 112.999,-451.008"/>
<polygon fill="#9a32cd" stroke="#9a32cd" points="87.6386,-619.079 98.0724,-620.919 91.0636,-612.974 87.6386,-619.079"/>
<text text-anchor="middle" x="99" y="-539" font-family="FreeSans" font-size="10.00"> Sender</text>
<text text-anchor="middle" x="99" y="-527" font-family="FreeSans" font-size="10.00">EventImpl</text>
</g>
</g>
</svg>
