<?xml version="1.0" encoding="UTF-8" standalone="no"?>
<!DOCTYPE svg PUBLIC "-//W3C//DTD SVG 1.1//EN"
 "http://www.w3.org/Graphics/SVG/1.1/DTD/svg11.dtd">
<!-- Generated by graphviz version 2.26.3 (20100126.1600)
 -->
<!-- Title: G Pages: 1 -->
<svg width="474pt" height="770pt"
 viewBox="0.00 0.00 474.46 770.00" xmlns="http://www.w3.org/2000/svg" xmlns:xlink="http://www.w3.org/1999/xlink">
<g id="graph1" class="graph" transform="scale(1 1) rotate(0) translate(4 766)">
<title>G</title>
<!-- Node1 -->
<g id="node1" class="node"><title>Node1</title>
<polygon fill="#bfbfbf" stroke="black" points="-0.5,-1 -0.5,-21 276.5,-21 276.5,-1 -0.5,-1"/>
<text text-anchor="middle" x="138" y="-8" font-family="FreeSans" font-size="10.00">Kitware.VTK.vtkConstrainedPointHandleRepresentation</text>
</g>
<!-- Node2 -->
<g id="node2" class="node"><title>Node2</title>
<a xlink:href="class_kitware_1_1_v_t_k_1_1vtk_handle_representation.html" target="_top" xlink:title="vtkHandleRepresentation &#45; abstract class for representing widget handles">
<polygon fill="none" stroke="black" points="69.5,-61 69.5,-81 206.5,-81 206.5,-61 69.5,-61"/>
<text text-anchor="middle" x="138" y="-68" font-family="FreeSans" font-size="10.00">vtkHandleRepresentation</text>
</a>
</g>
<!-- Node2&#45;&gt;Node1 -->
<g id="edge2" class="edge"><title>Node2&#45;&gt;Node1</title>
<path fill="none" stroke="midnightblue" d="M138,-50.5155C138,-40.562 138,-29.0495 138,-21.0279"/>
<polygon fill="midnightblue" stroke="midnightblue" points="134.5,-50.8218 138,-60.8218 141.5,-50.8219 134.5,-50.8218"/>
</g>
<!-- Node3 -->
<g id="node4" class="node"><title>Node3</title>
<a xlink:href="class_kitware_1_1_v_t_k_1_1vtk_widget_representation.html" target="_top" xlink:title="vtkWidgetRepresentation &#45; abstract class defines interface between the widget and widget representati...">
<polygon fill="none" stroke="black" points="70.5,-121 70.5,-141 205.5,-141 205.5,-121 70.5,-121"/>
<text text-anchor="middle" x="138" y="-128" font-family="FreeSans" font-size="10.00">vtkWidgetRepresentation</text>
</a>
</g>
<!-- Node3&#45;&gt;Node2 -->
<g id="edge4" class="edge"><title>Node3&#45;&gt;Node2</title>
<path fill="none" stroke="midnightblue" d="M138,-110.516C138,-100.562 138,-89.0495 138,-81.0279"/>
<polygon fill="midnightblue" stroke="midnightblue" points="134.5,-110.822 138,-120.822 141.5,-110.822 134.5,-110.822"/>
</g>
<!-- Node4 -->
<g id="node6" class="node"><title>Node4</title>
<a xlink:href="class_kitware_1_1_v_t_k_1_1vtk_prop.html" target="_top" xlink:title="vtkProp &#45; abstract superclass for all actors, volumes and annotations">
<polygon fill="none" stroke="black" points="111.5,-181 111.5,-201 164.5,-201 164.5,-181 111.5,-181"/>
<text text-anchor="middle" x="138" y="-188" font-family="FreeSans" font-size="10.00">vtkProp</text>
</a>
</g>
<!-- Node4&#45;&gt;Node3 -->
<g id="edge6" class="edge"><title>Node4&#45;&gt;Node3</title>
<path fill="none" stroke="midnightblue" d="M138,-170.516C138,-160.562 138,-149.05 138,-141.028"/>
<polygon fill="midnightblue" stroke="midnightblue" points="134.5,-170.822 138,-180.822 141.5,-170.822 134.5,-170.822"/>
</g>
<!-- Node5 -->
<g id="node8" class="node"><title>Node5</title>
<a xlink:href="class_kitware_1_1_v_t_k_1_1vtk_object.html" target="_top" xlink:title="vtkObject &#45; abstract base class for most VTK objects">
<polygon fill="none" stroke="black" points="107,-241 107,-261 169,-261 169,-241 107,-241"/>
<text text-anchor="middle" x="138" y="-248" font-family="FreeSans" font-size="10.00">vtkObject</text>
</a>
</g>
<!-- Node5&#45;&gt;Node4 -->
<g id="edge8" class="edge"><title>Node5&#45;&gt;Node4</title>
<path fill="none" stroke="midnightblue" d="M138,-230.516C138,-220.562 138,-209.05 138,-201.028"/>
<polygon fill="midnightblue" stroke="midnightblue" points="134.5,-230.822 138,-240.822 141.5,-230.822 134.5,-230.822"/>
</g>
<!-- Node6 -->
<g id="node10" class="node"><title>Node6</title>
<a xlink:href="class_kitware_1_1_v_t_k_1_1vtk_object_base.html" target="_top" xlink:title="vtkObjectBase &#45; abstract base class for most VTK objects">
<polygon fill="none" stroke="black" points="158,-681 158,-701 244,-701 244,-681 158,-681"/>
<text text-anchor="middle" x="201" y="-688" font-family="FreeSans" font-size="10.00">vtkObjectBase</text>
</a>
</g>
<!-- Node6&#45;&gt;Node5 -->
<g id="edge10" class="edge"><title>Node6&#45;&gt;Node5</title>
<path fill="none" stroke="midnightblue" d="M172.423,-675.886C158.687,-667.44 142.884,-655.826 132,-642 120.156,-626.955 119.621,-620.802 116,-602 90.4248,-469.199 125.577,-303.437 135.516,-261.17"/>
<polygon fill="midnightblue" stroke="midnightblue" points="170.683,-678.923 181.079,-680.97 174.229,-672.887 170.683,-678.923"/>
</g>
<!-- Node9 -->
<g id="node17" class="node"><title>Node9</title>
<a xlink:href="class_kitware_1_1_v_t_k_1_1vtk_object.html" target="_top" xlink:title="vtkObject &#45; abstract base class for most VTK objects">
<polygon fill="none" stroke="black" points="141,-621 141,-641 261,-641 261,-621 141,-621"/>
<text text-anchor="middle" x="201" y="-628" font-family="FreeSans" font-size="10.00">Kitware.VTK.vtkObject</text>
</a>
</g>
<!-- Node6&#45;&gt;Node9 -->
<g id="edge20" class="edge"><title>Node6&#45;&gt;Node9</title>
<path fill="none" stroke="midnightblue" d="M201,-670.516C201,-660.562 201,-649.05 201,-641.028"/>
<polygon fill="midnightblue" stroke="midnightblue" points="197.5,-670.822 201,-680.822 204.5,-670.822 197.5,-670.822"/>
</g>
<!-- Node7 -->
<g id="node12" class="node"><title>Node7</title>
<a xlink:href="class_kitware_1_1_v_t_k_1_1_wrapped_object.html" target="_top" xlink:title="Base class for all the mummy wrapped classes in Kitware.VTK.">
<polygon fill="none" stroke="black" points="339.5,-741 339.5,-761 428.5,-761 428.5,-741 339.5,-741"/>
<text text-anchor="middle" x="384" y="-748" font-family="FreeSans" font-size="10.00">WrappedObject</text>
</a>
</g>
<!-- Node7&#45;&gt;Node6 -->
<g id="edge12" class="edge"><title>Node7&#45;&gt;Node6</title>
<path fill="none" stroke="midnightblue" d="M343.804,-737.821C310.042,-726.752 262.512,-711.168 231.73,-701.075"/>
<polygon fill="midnightblue" stroke="midnightblue" points="342.777,-741.168 353.37,-740.957 344.958,-734.516 342.777,-741.168"/>
</g>
<!-- Node8 -->
<g id="node14" class="node"><title>Node8</title>
<a xlink:href="class_kitware_1_1_v_t_k_1_1vtk_object_event_relay.html" target="_top" xlink:title="Implement a relay handler for VTK events. This is a class that receives events directly from the VTK ...">
<polygon fill="none" stroke="black" points="130,-431 130,-451 302,-451 302,-431 130,-431"/>
<text text-anchor="middle" x="216" y="-438" font-family="FreeSans" font-size="10.00">Kitware.VTK.vtkObjectEventRelay</text>
</a>
</g>
<!-- Node7&#45;&gt;Node8 -->
<g id="edge16" class="edge"><title>Node7&#45;&gt;Node8</title>
<path fill="none" stroke="midnightblue" d="M396.888,-732.325C429.276,-682.899 506.803,-547.191 439,-470 429.773,-459.495 361.047,-451.666 302.298,-446.808"/>
<polygon fill="midnightblue" stroke="midnightblue" points="393.891,-730.509 391.239,-740.767 399.709,-734.402 393.891,-730.509"/>
</g>
<!-- Node8&#45;&gt;Node5 -->
<g id="edge14" class="edge"><title>Node8&#45;&gt;Node5</title>
<path fill="none" stroke="#9a32cd" stroke-dasharray="5,2" d="M207.921,-421.321C191.489,-381.293 154.674,-291.616 142.214,-261.266"/>
<polygon fill="#9a32cd" stroke="#9a32cd" points="204.771,-422.863 211.806,-430.785 211.246,-420.205 204.771,-422.863"/>
<text text-anchor="middle" x="315.5" y="-403" font-family="FreeSans" font-size="10.00"> LeftButtonReleaseEvtRelay</text>
<text text-anchor="middle" x="315.5" y="-391" font-family="FreeSans" font-size="10.00">KeyPressEvtRelay</text>
<text text-anchor="middle" x="315.5" y="-379" font-family="FreeSans" font-size="10.00">DomainModifiedEvtRelay</text>
<text text-anchor="middle" x="315.5" y="-367" font-family="FreeSans" font-size="10.00">VolumeMapperComputeGradientsStartEvtRelay</text>
<text text-anchor="middle" x="315.5" y="-355" font-family="FreeSans" font-size="10.00">ErrorEvtRelay</text>
<text text-anchor="middle" x="315.5" y="-343" font-family="FreeSans" font-size="10.00">VolumeMapperRenderStartEvtRelay</text>
<text text-anchor="middle" x="315.5" y="-331" font-family="FreeSans" font-size="10.00">StartEvtRelay</text>
<text text-anchor="middle" x="315.5" y="-319" font-family="FreeSans" font-size="10.00">ResetCameraEvtRelay</text>
<text text-anchor="middle" x="315.5" y="-307" font-family="FreeSans" font-size="10.00">EnableEvtRelay</text>
<text text-anchor="middle" x="315.5" y="-295" font-family="FreeSans" font-size="10.00">DeleteEvtRelay</text>
<text text-anchor="middle" x="315.5" y="-283" font-family="FreeSans" font-size="10.00">...</text>
</g>
<!-- Node8&#45;&gt;Node9 -->
<g id="edge22" class="edge"><title>Node8&#45;&gt;Node9</title>
<path fill="none" stroke="#9a32cd" stroke-dasharray="5,2" d="M213.028,-461.231C212.649,-464.169 212.293,-467.159 212,-470 206.144,-526.853 202.636,-595.333 201.452,-620.807"/>
<polygon fill="#9a32cd" stroke="#9a32cd" points="216.515,-461.565 214.421,-451.179 209.582,-460.604 216.515,-461.565"/>
<text text-anchor="middle" x="325.5" y="-593" font-family="FreeSans" font-size="10.00"> LeftButtonReleaseEvtRelay</text>
<text text-anchor="middle" x="325.5" y="-581" font-family="FreeSans" font-size="10.00">KeyPressEvtRelay</text>
<text text-anchor="middle" x="325.5" y="-569" font-family="FreeSans" font-size="10.00">DomainModifiedEvtRelay</text>
<text text-anchor="middle" x="325.5" y="-557" font-family="FreeSans" font-size="10.00">VolumeMapperComputeGradientsStartEvtRelay</text>
<text text-anchor="middle" x="325.5" y="-545" font-family="FreeSans" font-size="10.00">ErrorEvtRelay</text>
<text text-anchor="middle" x="325.5" y="-533" font-family="FreeSans" font-size="10.00">VolumeMapperRenderStartEvtRelay</text>
<text text-anchor="middle" x="325.5" y="-521" font-family="FreeSans" font-size="10.00">StartEvtRelay</text>
<text text-anchor="middle" x="325.5" y="-509" font-family="FreeSans" font-size="10.00">ResetCameraEvtRelay</text>
<text text-anchor="middle" x="325.5" y="-497" font-family="FreeSans" font-size="10.00">EnableEvtRelay</text>
<text text-anchor="middle" x="325.5" y="-485" font-family="FreeSans" font-size="10.00">DeleteEvtRelay</text>
<text text-anchor="middle" x="325.5" y="-473" font-family="FreeSans" font-size="10.00">...</text>
</g>
<!-- Node9&#45;&gt;Node8 -->
<g id="edge18" class="edge"><title>Node9&#45;&gt;Node8</title>
<path fill="none" stroke="#9a32cd" stroke-dasharray="5,2" d="M154.979,-615.818C149.439,-612.138 144.51,-607.596 141,-602 109.823,-552.303 107.83,-518.389 141,-470 145.736,-463.091 162.511,-456.287 178.999,-451.008"/>
<polygon fill="#9a32cd" stroke="#9a32cd" points="153.639,-619.079 164.072,-620.919 157.064,-612.974 153.639,-619.079"/>
<text text-anchor="middle" x="165" y="-539" font-family="FreeSans" font-size="10.00"> Sender</text>
<text text-anchor="middle" x="165" y="-527" font-family="FreeSans" font-size="10.00">EventImpl</text>
</g>
</g>
</svg>
