<?xml version="1.0" encoding="UTF-8" standalone="no"?>
<!DOCTYPE svg PUBLIC "-//W3C//DTD SVG 1.1//EN"
 "http://www.w3.org/Graphics/SVG/1.1/DTD/svg11.dtd">
<!-- Generated by graphviz version 2.26.3 (20100126.1600)
 -->
<!-- Title: G Pages: 1 -->
<svg width="412pt" height="950pt"
 viewBox="0.00 0.00 412.46 950.00" xmlns="http://www.w3.org/2000/svg" xmlns:xlink="http://www.w3.org/1999/xlink">
<g id="graph1" class="graph" transform="scale(1 1) rotate(0) translate(4 946)">
<title>G</title>
<!-- Node1 -->
<g id="node1" class="node"><title>Node1</title>
<polygon fill="#bfbfbf" stroke="black" points="8.5,-1 8.5,-21 143.5,-21 143.5,-1 8.5,-1"/>
<text text-anchor="middle" x="76" y="-8" font-family="FreeSans" font-size="10.00">Kitware.VTK.vtkImageFFT</text>
</g>
<!-- Node2 -->
<g id="node2" class="node"><title>Node2</title>
<a xlink:href="class_kitware_1_1_v_t_k_1_1vtk_image_fourier_filter.html" target="_top" xlink:title="vtkImageFourierFilter &#45; Superclass that implements complex numbers.">
<polygon fill="none" stroke="black" points="18,-61 18,-81 134,-81 134,-61 18,-61"/>
<text text-anchor="middle" x="76" y="-68" font-family="FreeSans" font-size="10.00">vtkImageFourierFilter</text>
</a>
</g>
<!-- Node2&#45;&gt;Node1 -->
<g id="edge2" class="edge"><title>Node2&#45;&gt;Node1</title>
<path fill="none" stroke="midnightblue" d="M76,-50.5155C76,-40.562 76,-29.0495 76,-21.0279"/>
<polygon fill="midnightblue" stroke="midnightblue" points="72.5001,-50.8218 76,-60.8218 79.5001,-50.8219 72.5001,-50.8218"/>
</g>
<!-- Node3 -->
<g id="node4" class="node"><title>Node3</title>
<a xlink:href="class_kitware_1_1_v_t_k_1_1vtk_image_decompose_filter.html" target="_top" xlink:title="vtkImageDecomposeFilter &#45; Filters that execute axes in series.">
<polygon fill="none" stroke="black" points="5.5,-121 5.5,-141 146.5,-141 146.5,-121 5.5,-121"/>
<text text-anchor="middle" x="76" y="-128" font-family="FreeSans" font-size="10.00">vtkImageDecomposeFilter</text>
</a>
</g>
<!-- Node3&#45;&gt;Node2 -->
<g id="edge4" class="edge"><title>Node3&#45;&gt;Node2</title>
<path fill="none" stroke="midnightblue" d="M76,-110.516C76,-100.562 76,-89.0495 76,-81.0279"/>
<polygon fill="midnightblue" stroke="midnightblue" points="72.5001,-110.822 76,-120.822 79.5001,-110.822 72.5001,-110.822"/>
</g>
<!-- Node4 -->
<g id="node6" class="node"><title>Node4</title>
<a xlink:href="class_kitware_1_1_v_t_k_1_1vtk_image_iterate_filter.html" target="_top" xlink:title="vtkImageIterateFilter &#45; Multiple executes per update.">
<polygon fill="none" stroke="black" points="18.5,-181 18.5,-201 133.5,-201 133.5,-181 18.5,-181"/>
<text text-anchor="middle" x="76" y="-188" font-family="FreeSans" font-size="10.00">vtkImageIterateFilter</text>
</a>
</g>
<!-- Node4&#45;&gt;Node3 -->
<g id="edge6" class="edge"><title>Node4&#45;&gt;Node3</title>
<path fill="none" stroke="midnightblue" d="M76,-170.516C76,-160.562 76,-149.05 76,-141.028"/>
<polygon fill="midnightblue" stroke="midnightblue" points="72.5001,-170.822 76,-180.822 79.5001,-170.822 72.5001,-170.822"/>
</g>
<!-- Node5 -->
<g id="node8" class="node"><title>Node5</title>
<a xlink:href="class_kitware_1_1_v_t_k_1_1vtk_threaded_image_algorithm.html" target="_top" xlink:title="vtkThreadedImageAlgorithm &#45; Generic filter that has one input..">
<polygon fill="none" stroke="black" points="0,-241 0,-261 152,-261 152,-241 0,-241"/>
<text text-anchor="middle" x="76" y="-248" font-family="FreeSans" font-size="10.00">vtkThreadedImageAlgorithm</text>
</a>
</g>
<!-- Node5&#45;&gt;Node4 -->
<g id="edge8" class="edge"><title>Node5&#45;&gt;Node4</title>
<path fill="none" stroke="midnightblue" d="M76,-230.516C76,-220.562 76,-209.05 76,-201.028"/>
<polygon fill="midnightblue" stroke="midnightblue" points="72.5001,-230.822 76,-240.822 79.5001,-230.822 72.5001,-230.822"/>
</g>
<!-- Node6 -->
<g id="node10" class="node"><title>Node6</title>
<a xlink:href="class_kitware_1_1_v_t_k_1_1vtk_image_algorithm.html" target="_top" xlink:title="vtkImageAlgorithm &#45; Generic algorithm superclass for image algs">
<polygon fill="none" stroke="black" points="22.5,-301 22.5,-321 129.5,-321 129.5,-301 22.5,-301"/>
<text text-anchor="middle" x="76" y="-308" font-family="FreeSans" font-size="10.00">vtkImageAlgorithm</text>
</a>
</g>
<!-- Node6&#45;&gt;Node5 -->
<g id="edge10" class="edge"><title>Node6&#45;&gt;Node5</title>
<path fill="none" stroke="midnightblue" d="M76,-290.516C76,-280.562 76,-269.05 76,-261.028"/>
<polygon fill="midnightblue" stroke="midnightblue" points="72.5001,-290.822 76,-300.822 79.5001,-290.822 72.5001,-290.822"/>
</g>
<!-- Node7 -->
<g id="node12" class="node"><title>Node7</title>
<a xlink:href="class_kitware_1_1_v_t_k_1_1vtk_algorithm.html" target="_top" xlink:title="vtkAlgorithm &#45; Superclass for all sources, filters, and sinks in VTK.">
<polygon fill="none" stroke="black" points="37.5,-361 37.5,-381 114.5,-381 114.5,-361 37.5,-361"/>
<text text-anchor="middle" x="76" y="-368" font-family="FreeSans" font-size="10.00">vtkAlgorithm</text>
</a>
</g>
<!-- Node7&#45;&gt;Node6 -->
<g id="edge12" class="edge"><title>Node7&#45;&gt;Node6</title>
<path fill="none" stroke="midnightblue" d="M76,-350.516C76,-340.562 76,-329.05 76,-321.028"/>
<polygon fill="midnightblue" stroke="midnightblue" points="72.5001,-350.822 76,-360.822 79.5001,-350.822 72.5001,-350.822"/>
</g>
<!-- Node8 -->
<g id="node14" class="node"><title>Node8</title>
<a xlink:href="class_kitware_1_1_v_t_k_1_1vtk_object.html" target="_top" xlink:title="vtkObject &#45; abstract base class for most VTK objects">
<polygon fill="none" stroke="black" points="45,-421 45,-441 107,-441 107,-421 45,-421"/>
<text text-anchor="middle" x="76" y="-428" font-family="FreeSans" font-size="10.00">vtkObject</text>
</a>
</g>
<!-- Node8&#45;&gt;Node7 -->
<g id="edge14" class="edge"><title>Node8&#45;&gt;Node7</title>
<path fill="none" stroke="midnightblue" d="M76,-410.516C76,-400.562 76,-389.05 76,-381.028"/>
<polygon fill="midnightblue" stroke="midnightblue" points="72.5001,-410.822 76,-420.822 79.5001,-410.822 72.5001,-410.822"/>
</g>
<!-- Node9 -->
<g id="node16" class="node"><title>Node9</title>
<a xlink:href="class_kitware_1_1_v_t_k_1_1vtk_object_base.html" target="_top" xlink:title="vtkObjectBase &#45; abstract base class for most VTK objects">
<polygon fill="none" stroke="black" points="96,-861 96,-881 182,-881 182,-861 96,-861"/>
<text text-anchor="middle" x="139" y="-868" font-family="FreeSans" font-size="10.00">vtkObjectBase</text>
</a>
</g>
<!-- Node9&#45;&gt;Node8 -->
<g id="edge16" class="edge"><title>Node9&#45;&gt;Node8</title>
<path fill="none" stroke="midnightblue" d="M110.423,-855.886C96.6866,-847.44 80.8844,-835.826 70,-822 58.1564,-806.955 57.6209,-800.802 54,-782 28.4248,-649.199 63.5766,-483.437 73.5155,-441.17"/>
<polygon fill="midnightblue" stroke="midnightblue" points="108.683,-858.923 119.079,-860.97 112.229,-852.887 108.683,-858.923"/>
</g>
<!-- Node12 -->
<g id="node23" class="node"><title>Node12</title>
<a xlink:href="class_kitware_1_1_v_t_k_1_1vtk_object.html" target="_top" xlink:title="vtkObject &#45; abstract base class for most VTK objects">
<polygon fill="none" stroke="black" points="79,-801 79,-821 199,-821 199,-801 79,-801"/>
<text text-anchor="middle" x="139" y="-808" font-family="FreeSans" font-size="10.00">Kitware.VTK.vtkObject</text>
</a>
</g>
<!-- Node9&#45;&gt;Node12 -->
<g id="edge26" class="edge"><title>Node9&#45;&gt;Node12</title>
<path fill="none" stroke="midnightblue" d="M139,-850.516C139,-840.562 139,-829.05 139,-821.028"/>
<polygon fill="midnightblue" stroke="midnightblue" points="135.5,-850.822 139,-860.822 142.5,-850.822 135.5,-850.822"/>
</g>
<!-- Node10 -->
<g id="node18" class="node"><title>Node10</title>
<a xlink:href="class_kitware_1_1_v_t_k_1_1_wrapped_object.html" target="_top" xlink:title="Base class for all the mummy wrapped classes in Kitware.VTK.">
<polygon fill="none" stroke="black" points="277.5,-921 277.5,-941 366.5,-941 366.5,-921 277.5,-921"/>
<text text-anchor="middle" x="322" y="-928" font-family="FreeSans" font-size="10.00">WrappedObject</text>
</a>
</g>
<!-- Node10&#45;&gt;Node9 -->
<g id="edge18" class="edge"><title>Node10&#45;&gt;Node9</title>
<path fill="none" stroke="midnightblue" d="M281.804,-917.821C248.042,-906.752 200.512,-891.168 169.73,-881.075"/>
<polygon fill="midnightblue" stroke="midnightblue" points="280.777,-921.168 291.37,-920.957 282.958,-914.516 280.777,-921.168"/>
</g>
<!-- Node11 -->
<g id="node20" class="node"><title>Node11</title>
<a xlink:href="class_kitware_1_1_v_t_k_1_1vtk_object_event_relay.html" target="_top" xlink:title="Implement a relay handler for VTK events. This is a class that receives events directly from the VTK ...">
<polygon fill="none" stroke="black" points="68,-611 68,-631 240,-631 240,-611 68,-611"/>
<text text-anchor="middle" x="154" y="-618" font-family="FreeSans" font-size="10.00">Kitware.VTK.vtkObjectEventRelay</text>
</a>
</g>
<!-- Node10&#45;&gt;Node11 -->
<g id="edge22" class="edge"><title>Node10&#45;&gt;Node11</title>
<path fill="none" stroke="midnightblue" d="M334.888,-912.325C367.276,-862.899 444.803,-727.191 377,-650 367.773,-639.495 299.047,-631.666 240.298,-626.808"/>
<polygon fill="midnightblue" stroke="midnightblue" points="331.891,-910.509 329.239,-920.767 337.709,-914.402 331.891,-910.509"/>
</g>
<!-- Node11&#45;&gt;Node8 -->
<g id="edge20" class="edge"><title>Node11&#45;&gt;Node8</title>
<path fill="none" stroke="#9a32cd" stroke-dasharray="5,2" d="M145.921,-601.321C129.489,-561.293 92.6738,-471.616 80.2144,-441.266"/>
<polygon fill="#9a32cd" stroke="#9a32cd" points="142.771,-602.863 149.806,-610.785 149.246,-600.205 142.771,-602.863"/>
<text text-anchor="middle" x="253.5" y="-583" font-family="FreeSans" font-size="10.00"> LeftButtonReleaseEvtRelay</text>
<text text-anchor="middle" x="253.5" y="-571" font-family="FreeSans" font-size="10.00">KeyPressEvtRelay</text>
<text text-anchor="middle" x="253.5" y="-559" font-family="FreeSans" font-size="10.00">DomainModifiedEvtRelay</text>
<text text-anchor="middle" x="253.5" y="-547" font-family="FreeSans" font-size="10.00">VolumeMapperComputeGradientsStartEvtRelay</text>
<text text-anchor="middle" x="253.5" y="-535" font-family="FreeSans" font-size="10.00">ErrorEvtRelay</text>
<text text-anchor="middle" x="253.5" y="-523" font-family="FreeSans" font-size="10.00">VolumeMapperRenderStartEvtRelay</text>
<text text-anchor="middle" x="253.5" y="-511" font-family="FreeSans" font-size="10.00">StartEvtRelay</text>
<text text-anchor="middle" x="253.5" y="-499" font-family="FreeSans" font-size="10.00">ResetCameraEvtRelay</text>
<text text-anchor="middle" x="253.5" y="-487" font-family="FreeSans" font-size="10.00">EnableEvtRelay</text>
<text text-anchor="middle" x="253.5" y="-475" font-family="FreeSans" font-size="10.00">DeleteEvtRelay</text>
<text text-anchor="middle" x="253.5" y="-463" font-family="FreeSans" font-size="10.00">...</text>
</g>
<!-- Node11&#45;&gt;Node12 -->
<g id="edge28" class="edge"><title>Node11&#45;&gt;Node12</title>
<path fill="none" stroke="#9a32cd" stroke-dasharray="5,2" d="M151.028,-641.231C150.649,-644.169 150.293,-647.159 150,-650 144.144,-706.853 140.636,-775.333 139.452,-800.807"/>
<polygon fill="#9a32cd" stroke="#9a32cd" points="154.515,-641.565 152.421,-631.179 147.582,-640.604 154.515,-641.565"/>
<text text-anchor="middle" x="263.5" y="-773" font-family="FreeSans" font-size="10.00"> LeftButtonReleaseEvtRelay</text>
<text text-anchor="middle" x="263.5" y="-761" font-family="FreeSans" font-size="10.00">KeyPressEvtRelay</text>
<text text-anchor="middle" x="263.5" y="-749" font-family="FreeSans" font-size="10.00">DomainModifiedEvtRelay</text>
<text text-anchor="middle" x="263.5" y="-737" font-family="FreeSans" font-size="10.00">VolumeMapperComputeGradientsStartEvtRelay</text>
<text text-anchor="middle" x="263.5" y="-725" font-family="FreeSans" font-size="10.00">ErrorEvtRelay</text>
<text text-anchor="middle" x="263.5" y="-713" font-family="FreeSans" font-size="10.00">VolumeMapperRenderStartEvtRelay</text>
<text text-anchor="middle" x="263.5" y="-701" font-family="FreeSans" font-size="10.00">StartEvtRelay</text>
<text text-anchor="middle" x="263.5" y="-689" font-family="FreeSans" font-size="10.00">ResetCameraEvtRelay</text>
<text text-anchor="middle" x="263.5" y="-677" font-family="FreeSans" font-size="10.00">EnableEvtRelay</text>
<text text-anchor="middle" x="263.5" y="-665" font-family="FreeSans" font-size="10.00">DeleteEvtRelay</text>
<text text-anchor="middle" x="263.5" y="-653" font-family="FreeSans" font-size="10.00">...</text>
</g>
<!-- Node12&#45;&gt;Node11 -->
<g id="edge24" class="edge"><title>Node12&#45;&gt;Node11</title>
<path fill="none" stroke="#9a32cd" stroke-dasharray="5,2" d="M92.9794,-795.818C87.4393,-792.138 82.5104,-787.596 79,-782 47.8229,-732.303 45.8299,-698.389 79,-650 83.7359,-643.091 100.511,-636.287 116.999,-631.008"/>
<polygon fill="#9a32cd" stroke="#9a32cd" points="91.6386,-799.079 102.072,-800.919 95.0636,-792.974 91.6386,-799.079"/>
<text text-anchor="middle" x="103" y="-719" font-family="FreeSans" font-size="10.00"> Sender</text>
<text text-anchor="middle" x="103" y="-707" font-family="FreeSans" font-size="10.00">EventImpl</text>
</g>
</g>
</svg>
