<?xml version="1.0" encoding="UTF-8" standalone="no"?>
<!DOCTYPE svg PUBLIC "-//W3C//DTD SVG 1.1//EN"
 "http://www.w3.org/Graphics/SVG/1.1/DTD/svg11.dtd">
<!-- Generated by graphviz version 2.26.3 (20100126.1600)
 -->
<!-- Title: G Pages: 1 -->
<svg width="276pt" height="378pt"
 viewBox="0.00 0.00 276.00 378.00" xmlns="http://www.w3.org/2000/svg" xmlns:xlink="http://www.w3.org/1999/xlink">
<g id="graph1" class="graph" transform="scale(1 1) rotate(0) translate(4 374)">
<title>G</title>
<!-- Node1 -->
<g id="node1" class="node"><title>Node1</title>
<polygon fill="#bfbfbf" stroke="black" points="0,-1 0,-21 268,-21 268,-1 0,-1"/>
<text text-anchor="middle" x="134" y="-8" font-family="FreeSans" font-size="10.00">Kitware.VTK.vtkOrientedGlyphContourRepresentation</text>
</g>
<!-- Node2 -->
<g id="node2" class="node"><title>Node2</title>
<a xlink:href="class_kitware_1_1_v_t_k_1_1vtk_contour_representation.html" target="_top" xlink:title="vtkContourRepresentation &#45; represent the vtkContourWidget">
<polygon fill="none" stroke="black" points="63.5,-59 63.5,-79 204.5,-79 204.5,-59 63.5,-59"/>
<text text-anchor="middle" x="134" y="-66" font-family="FreeSans" font-size="10.00">vtkContourRepresentation</text>
</a>
</g>
<!-- Node2&#45;&gt;Node1 -->
<g id="edge2" class="edge"><title>Node2&#45;&gt;Node1</title>
<path fill="none" stroke="midnightblue" d="M134,-48.8902C134,-39.6201 134,-29.0083 134,-21.3776"/>
<polygon fill="midnightblue" stroke="midnightblue" points="130.5,-48.8971 134,-58.8972 137.5,-48.8972 130.5,-48.8971"/>
</g>
<!-- Node3 -->
<g id="node4" class="node"><title>Node3</title>
<a xlink:href="class_kitware_1_1_v_t_k_1_1vtk_widget_representation.html" target="_top" xlink:title="vtkWidgetRepresentation &#45; abstract class defines interface between the widget and widget representati...">
<polygon fill="none" stroke="black" points="66.5,-117 66.5,-137 201.5,-137 201.5,-117 66.5,-117"/>
<text text-anchor="middle" x="134" y="-124" font-family="FreeSans" font-size="10.00">vtkWidgetRepresentation</text>
</a>
</g>
<!-- Node3&#45;&gt;Node2 -->
<g id="edge4" class="edge"><title>Node3&#45;&gt;Node2</title>
<path fill="none" stroke="midnightblue" d="M134,-106.89C134,-97.6201 134,-87.0083 134,-79.3776"/>
<polygon fill="midnightblue" stroke="midnightblue" points="130.5,-106.897 134,-116.897 137.5,-106.897 130.5,-106.897"/>
</g>
<!-- Node4 -->
<g id="node6" class="node"><title>Node4</title>
<a xlink:href="class_kitware_1_1_v_t_k_1_1vtk_prop.html" target="_top" xlink:title="vtkProp &#45; abstract superclass for all actors, volumes and annotations">
<polygon fill="none" stroke="black" points="107.5,-175 107.5,-195 160.5,-195 160.5,-175 107.5,-175"/>
<text text-anchor="middle" x="134" y="-182" font-family="FreeSans" font-size="10.00">vtkProp</text>
</a>
</g>
<!-- Node4&#45;&gt;Node3 -->
<g id="edge6" class="edge"><title>Node4&#45;&gt;Node3</title>
<path fill="none" stroke="midnightblue" d="M134,-164.89C134,-155.62 134,-145.008 134,-137.378"/>
<polygon fill="midnightblue" stroke="midnightblue" points="130.5,-164.897 134,-174.897 137.5,-164.897 130.5,-164.897"/>
</g>
<!-- Node5 -->
<g id="node8" class="node"><title>Node5</title>
<a xlink:href="class_kitware_1_1_v_t_k_1_1vtk_object.html" target="_top" xlink:title="vtkObject &#45; abstract base class for most VTK objects">
<polygon fill="none" stroke="black" points="103,-233 103,-253 165,-253 165,-233 103,-233"/>
<text text-anchor="middle" x="134" y="-240" font-family="FreeSans" font-size="10.00">vtkObject</text>
</a>
</g>
<!-- Node5&#45;&gt;Node4 -->
<g id="edge8" class="edge"><title>Node5&#45;&gt;Node4</title>
<path fill="none" stroke="midnightblue" d="M134,-222.89C134,-213.62 134,-203.008 134,-195.378"/>
<polygon fill="midnightblue" stroke="midnightblue" points="130.5,-222.897 134,-232.897 137.5,-222.897 130.5,-222.897"/>
</g>
<!-- Node6 -->
<g id="node10" class="node"><title>Node6</title>
<a xlink:href="class_kitware_1_1_v_t_k_1_1vtk_object_base.html" target="_top" xlink:title="vtkObjectBase &#45; abstract base class for most VTK objects">
<polygon fill="none" stroke="black" points="91,-291 91,-311 177,-311 177,-291 91,-291"/>
<text text-anchor="middle" x="134" y="-298" font-family="FreeSans" font-size="10.00">vtkObjectBase</text>
</a>
</g>
<!-- Node6&#45;&gt;Node5 -->
<g id="edge10" class="edge"><title>Node6&#45;&gt;Node5</title>
<path fill="none" stroke="midnightblue" d="M134,-280.89C134,-271.62 134,-261.008 134,-253.378"/>
<polygon fill="midnightblue" stroke="midnightblue" points="130.5,-280.897 134,-290.897 137.5,-280.897 130.5,-280.897"/>
</g>
<!-- Node7 -->
<g id="node12" class="node"><title>Node7</title>
<a xlink:href="class_kitware_1_1_v_t_k_1_1_wrapped_object.html" target="_top" xlink:title="Base class for all the mummy wrapped classes in Kitware.VTK.">
<polygon fill="none" stroke="black" points="89.5,-349 89.5,-369 178.5,-369 178.5,-349 89.5,-349"/>
<text text-anchor="middle" x="134" y="-356" font-family="FreeSans" font-size="10.00">WrappedObject</text>
</a>
</g>
<!-- Node7&#45;&gt;Node6 -->
<g id="edge12" class="edge"><title>Node7&#45;&gt;Node6</title>
<path fill="none" stroke="midnightblue" d="M134,-338.89C134,-329.62 134,-319.008 134,-311.378"/>
<polygon fill="midnightblue" stroke="midnightblue" points="130.5,-338.897 134,-348.897 137.5,-338.897 130.5,-338.897"/>
</g>
</g>
</svg>
