<?xml version="1.0" encoding="UTF-8" standalone="no"?>
<!DOCTYPE svg PUBLIC "-//W3C//DTD SVG 1.1//EN"
 "http://www.w3.org/Graphics/SVG/1.1/DTD/svg11.dtd">
<!-- Generated by graphviz version 2.26.3 (20100126.1600)
 -->
<!-- Title: G Pages: 1 -->
<svg width="250pt" height="436pt"
 viewBox="0.00 0.00 250.00 436.00" xmlns="http://www.w3.org/2000/svg" xmlns:xlink="http://www.w3.org/1999/xlink">
<g id="graph1" class="graph" transform="scale(1 1) rotate(0) translate(4 432)">
<title>G</title>
<!-- Node1 -->
<g id="node1" class="node"><title>Node1</title>
<polygon fill="#bfbfbf" stroke="black" points="0,-1 0,-21 242,-21 242,-1 0,-1"/>
<text text-anchor="middle" x="121" y="-8" font-family="FreeSans" font-size="10.00">Kitware.VTK.vtkDataSetToStructuredPointsFilter</text>
</g>
<!-- Node2 -->
<g id="node2" class="node"><title>Node2</title>
<a xlink:href="class_kitware_1_1_v_t_k_1_1vtk_structured_points_source.html" target="_top" xlink:title="vtkStructuredPointsSource &#45; Abstract class whose subclasses generates structured Points data...">
<polygon fill="none" stroke="black" points="48.5,-59 48.5,-79 193.5,-79 193.5,-59 48.5,-59"/>
<text text-anchor="middle" x="121" y="-66" font-family="FreeSans" font-size="10.00">vtkStructuredPointsSource</text>
</a>
</g>
<!-- Node2&#45;&gt;Node1 -->
<g id="edge2" class="edge"><title>Node2&#45;&gt;Node1</title>
<path fill="none" stroke="midnightblue" d="M121,-48.8902C121,-39.6201 121,-29.0083 121,-21.3776"/>
<polygon fill="midnightblue" stroke="midnightblue" points="117.5,-48.8971 121,-58.8972 124.5,-48.8972 117.5,-48.8971"/>
</g>
<!-- Node3 -->
<g id="node4" class="node"><title>Node3</title>
<a xlink:href="class_kitware_1_1_v_t_k_1_1vtk_source.html" target="_top" xlink:title="vtkSource &#45; abstract class specifies interface for visualization network source">
<polygon fill="none" stroke="black" points="88.5,-117 88.5,-137 153.5,-137 153.5,-117 88.5,-117"/>
<text text-anchor="middle" x="121" y="-124" font-family="FreeSans" font-size="10.00">vtkSource</text>
</a>
</g>
<!-- Node3&#45;&gt;Node2 -->
<g id="edge4" class="edge"><title>Node3&#45;&gt;Node2</title>
<path fill="none" stroke="midnightblue" d="M121,-106.89C121,-97.6201 121,-87.0083 121,-79.3776"/>
<polygon fill="midnightblue" stroke="midnightblue" points="117.5,-106.897 121,-116.897 124.5,-106.897 117.5,-106.897"/>
</g>
<!-- Node4 -->
<g id="node6" class="node"><title>Node4</title>
<a xlink:href="class_kitware_1_1_v_t_k_1_1vtk_process_object.html" target="_top" xlink:title="vtkProcessObject &#45; abstract class specifies interface for visualization filters">
<polygon fill="none" stroke="black" points="71.5,-175 71.5,-195 170.5,-195 170.5,-175 71.5,-175"/>
<text text-anchor="middle" x="121" y="-182" font-family="FreeSans" font-size="10.00">vtkProcessObject</text>
</a>
</g>
<!-- Node4&#45;&gt;Node3 -->
<g id="edge6" class="edge"><title>Node4&#45;&gt;Node3</title>
<path fill="none" stroke="midnightblue" d="M121,-164.89C121,-155.62 121,-145.008 121,-137.378"/>
<polygon fill="midnightblue" stroke="midnightblue" points="117.5,-164.897 121,-174.897 124.5,-164.897 117.5,-164.897"/>
</g>
<!-- Node5 -->
<g id="node8" class="node"><title>Node5</title>
<a xlink:href="class_kitware_1_1_v_t_k_1_1vtk_algorithm.html" target="_top" xlink:title="vtkAlgorithm &#45; Superclass for all sources, filters, and sinks in VTK.">
<polygon fill="none" stroke="black" points="82.5,-233 82.5,-253 159.5,-253 159.5,-233 82.5,-233"/>
<text text-anchor="middle" x="121" y="-240" font-family="FreeSans" font-size="10.00">vtkAlgorithm</text>
</a>
</g>
<!-- Node5&#45;&gt;Node4 -->
<g id="edge8" class="edge"><title>Node5&#45;&gt;Node4</title>
<path fill="none" stroke="midnightblue" d="M121,-222.89C121,-213.62 121,-203.008 121,-195.378"/>
<polygon fill="midnightblue" stroke="midnightblue" points="117.5,-222.897 121,-232.897 124.5,-222.897 117.5,-222.897"/>
</g>
<!-- Node6 -->
<g id="node10" class="node"><title>Node6</title>
<a xlink:href="class_kitware_1_1_v_t_k_1_1vtk_object.html" target="_top" xlink:title="vtkObject &#45; abstract base class for most VTK objects">
<polygon fill="none" stroke="black" points="90,-291 90,-311 152,-311 152,-291 90,-291"/>
<text text-anchor="middle" x="121" y="-298" font-family="FreeSans" font-size="10.00">vtkObject</text>
</a>
</g>
<!-- Node6&#45;&gt;Node5 -->
<g id="edge10" class="edge"><title>Node6&#45;&gt;Node5</title>
<path fill="none" stroke="midnightblue" d="M121,-280.89C121,-271.62 121,-261.008 121,-253.378"/>
<polygon fill="midnightblue" stroke="midnightblue" points="117.5,-280.897 121,-290.897 124.5,-280.897 117.5,-280.897"/>
</g>
<!-- Node7 -->
<g id="node12" class="node"><title>Node7</title>
<a xlink:href="class_kitware_1_1_v_t_k_1_1vtk_object_base.html" target="_top" xlink:title="vtkObjectBase &#45; abstract base class for most VTK objects">
<polygon fill="none" stroke="black" points="78,-349 78,-369 164,-369 164,-349 78,-349"/>
<text text-anchor="middle" x="121" y="-356" font-family="FreeSans" font-size="10.00">vtkObjectBase</text>
</a>
</g>
<!-- Node7&#45;&gt;Node6 -->
<g id="edge12" class="edge"><title>Node7&#45;&gt;Node6</title>
<path fill="none" stroke="midnightblue" d="M121,-338.89C121,-329.62 121,-319.008 121,-311.378"/>
<polygon fill="midnightblue" stroke="midnightblue" points="117.5,-338.897 121,-348.897 124.5,-338.897 117.5,-338.897"/>
</g>
<!-- Node8 -->
<g id="node14" class="node"><title>Node8</title>
<a xlink:href="class_kitware_1_1_v_t_k_1_1_wrapped_object.html" target="_top" xlink:title="Base class for all the mummy wrapped classes in Kitware.VTK.">
<polygon fill="none" stroke="black" points="76.5,-407 76.5,-427 165.5,-427 165.5,-407 76.5,-407"/>
<text text-anchor="middle" x="121" y="-414" font-family="FreeSans" font-size="10.00">WrappedObject</text>
</a>
</g>
<!-- Node8&#45;&gt;Node7 -->
<g id="edge14" class="edge"><title>Node8&#45;&gt;Node7</title>
<path fill="none" stroke="midnightblue" d="M121,-396.89C121,-387.62 121,-377.008 121,-369.378"/>
<polygon fill="midnightblue" stroke="midnightblue" points="117.5,-396.897 121,-406.897 124.5,-396.897 117.5,-396.897"/>
</g>
</g>
</svg>
