<?xml version="1.0" encoding="UTF-8" standalone="no"?>
<!DOCTYPE svg PUBLIC "-//W3C//DTD SVG 1.1//EN"
 "http://www.w3.org/Graphics/SVG/1.1/DTD/svg11.dtd">
<!-- Generated by graphviz version 2.26.3 (20100126.1600)
 -->
<!-- Title: G Pages: 1 -->
<svg width="449pt" height="710pt"
 viewBox="0.00 0.00 449.46 710.00" xmlns="http://www.w3.org/2000/svg" xmlns:xlink="http://www.w3.org/1999/xlink">
<g id="graph1" class="graph" transform="scale(1 1) rotate(0) translate(4 706)">
<title>G</title>
<!-- Node1 -->
<g id="node1" class="node"><title>Node1</title>
<polygon fill="#bfbfbf" stroke="black" points="-0.5,-1 -0.5,-21 226.5,-21 226.5,-1 -0.5,-1"/>
<text text-anchor="middle" x="113" y="-8" font-family="FreeSans" font-size="10.00">Kitware.VTK.vtkVoxelContoursToSurfaceFilter</text>
</g>
<!-- Node2 -->
<g id="node2" class="node"><title>Node2</title>
<a xlink:href="class_kitware_1_1_v_t_k_1_1vtk_poly_data_algorithm.html" target="_top" xlink:title="vtkPolyDataAlgorithm &#45; Superclass for algorithms that produce only polydata as output">
<polygon fill="none" stroke="black" points="53,-61 53,-81 173,-81 173,-61 53,-61"/>
<text text-anchor="middle" x="113" y="-68" font-family="FreeSans" font-size="10.00">vtkPolyDataAlgorithm</text>
</a>
</g>
<!-- Node2&#45;&gt;Node1 -->
<g id="edge2" class="edge"><title>Node2&#45;&gt;Node1</title>
<path fill="none" stroke="midnightblue" d="M113,-50.5155C113,-40.562 113,-29.0495 113,-21.0279"/>
<polygon fill="midnightblue" stroke="midnightblue" points="109.5,-50.8218 113,-60.8218 116.5,-50.8219 109.5,-50.8218"/>
</g>
<!-- Node3 -->
<g id="node4" class="node"><title>Node3</title>
<a xlink:href="class_kitware_1_1_v_t_k_1_1vtk_algorithm.html" target="_top" xlink:title="vtkAlgorithm &#45; Superclass for all sources, filters, and sinks in VTK.">
<polygon fill="none" stroke="black" points="74.5,-121 74.5,-141 151.5,-141 151.5,-121 74.5,-121"/>
<text text-anchor="middle" x="113" y="-128" font-family="FreeSans" font-size="10.00">vtkAlgorithm</text>
</a>
</g>
<!-- Node3&#45;&gt;Node2 -->
<g id="edge4" class="edge"><title>Node3&#45;&gt;Node2</title>
<path fill="none" stroke="midnightblue" d="M113,-110.516C113,-100.562 113,-89.0495 113,-81.0279"/>
<polygon fill="midnightblue" stroke="midnightblue" points="109.5,-110.822 113,-120.822 116.5,-110.822 109.5,-110.822"/>
</g>
<!-- Node4 -->
<g id="node6" class="node"><title>Node4</title>
<a xlink:href="class_kitware_1_1_v_t_k_1_1vtk_object.html" target="_top" xlink:title="vtkObject &#45; abstract base class for most VTK objects">
<polygon fill="none" stroke="black" points="82,-181 82,-201 144,-201 144,-181 82,-181"/>
<text text-anchor="middle" x="113" y="-188" font-family="FreeSans" font-size="10.00">vtkObject</text>
</a>
</g>
<!-- Node4&#45;&gt;Node3 -->
<g id="edge6" class="edge"><title>Node4&#45;&gt;Node3</title>
<path fill="none" stroke="midnightblue" d="M113,-170.516C113,-160.562 113,-149.05 113,-141.028"/>
<polygon fill="midnightblue" stroke="midnightblue" points="109.5,-170.822 113,-180.822 116.5,-170.822 109.5,-170.822"/>
</g>
<!-- Node5 -->
<g id="node8" class="node"><title>Node5</title>
<a xlink:href="class_kitware_1_1_v_t_k_1_1vtk_object_base.html" target="_top" xlink:title="vtkObjectBase &#45; abstract base class for most VTK objects">
<polygon fill="none" stroke="black" points="133,-621 133,-641 219,-641 219,-621 133,-621"/>
<text text-anchor="middle" x="176" y="-628" font-family="FreeSans" font-size="10.00">vtkObjectBase</text>
</a>
</g>
<!-- Node5&#45;&gt;Node4 -->
<g id="edge8" class="edge"><title>Node5&#45;&gt;Node4</title>
<path fill="none" stroke="midnightblue" d="M147.423,-615.886C133.687,-607.44 117.884,-595.826 107,-582 95.1564,-566.955 94.6209,-560.802 91,-542 65.4248,-409.199 100.577,-243.437 110.516,-201.17"/>
<polygon fill="midnightblue" stroke="midnightblue" points="145.683,-618.923 156.079,-620.97 149.229,-612.887 145.683,-618.923"/>
</g>
<!-- Node8 -->
<g id="node15" class="node"><title>Node8</title>
<a xlink:href="class_kitware_1_1_v_t_k_1_1vtk_object.html" target="_top" xlink:title="vtkObject &#45; abstract base class for most VTK objects">
<polygon fill="none" stroke="black" points="116,-561 116,-581 236,-581 236,-561 116,-561"/>
<text text-anchor="middle" x="176" y="-568" font-family="FreeSans" font-size="10.00">Kitware.VTK.vtkObject</text>
</a>
</g>
<!-- Node5&#45;&gt;Node8 -->
<g id="edge18" class="edge"><title>Node5&#45;&gt;Node8</title>
<path fill="none" stroke="midnightblue" d="M176,-610.516C176,-600.562 176,-589.05 176,-581.028"/>
<polygon fill="midnightblue" stroke="midnightblue" points="172.5,-610.822 176,-620.822 179.5,-610.822 172.5,-610.822"/>
</g>
<!-- Node6 -->
<g id="node10" class="node"><title>Node6</title>
<a xlink:href="class_kitware_1_1_v_t_k_1_1_wrapped_object.html" target="_top" xlink:title="Base class for all the mummy wrapped classes in Kitware.VTK.">
<polygon fill="none" stroke="black" points="314.5,-681 314.5,-701 403.5,-701 403.5,-681 314.5,-681"/>
<text text-anchor="middle" x="359" y="-688" font-family="FreeSans" font-size="10.00">WrappedObject</text>
</a>
</g>
<!-- Node6&#45;&gt;Node5 -->
<g id="edge10" class="edge"><title>Node6&#45;&gt;Node5</title>
<path fill="none" stroke="midnightblue" d="M318.804,-677.821C285.042,-666.752 237.512,-651.168 206.73,-641.075"/>
<polygon fill="midnightblue" stroke="midnightblue" points="317.777,-681.168 328.37,-680.957 319.958,-674.516 317.777,-681.168"/>
</g>
<!-- Node7 -->
<g id="node12" class="node"><title>Node7</title>
<a xlink:href="class_kitware_1_1_v_t_k_1_1vtk_object_event_relay.html" target="_top" xlink:title="Implement a relay handler for VTK events. This is a class that receives events directly from the VTK ...">
<polygon fill="none" stroke="black" points="105,-371 105,-391 277,-391 277,-371 105,-371"/>
<text text-anchor="middle" x="191" y="-378" font-family="FreeSans" font-size="10.00">Kitware.VTK.vtkObjectEventRelay</text>
</a>
</g>
<!-- Node6&#45;&gt;Node7 -->
<g id="edge14" class="edge"><title>Node6&#45;&gt;Node7</title>
<path fill="none" stroke="midnightblue" d="M371.888,-672.325C404.276,-622.899 481.803,-487.191 414,-410 404.773,-399.495 336.047,-391.666 277.298,-386.808"/>
<polygon fill="midnightblue" stroke="midnightblue" points="368.891,-670.509 366.239,-680.767 374.709,-674.402 368.891,-670.509"/>
</g>
<!-- Node7&#45;&gt;Node4 -->
<g id="edge12" class="edge"><title>Node7&#45;&gt;Node4</title>
<path fill="none" stroke="#9a32cd" stroke-dasharray="5,2" d="M182.921,-361.321C166.489,-321.293 129.674,-231.616 117.214,-201.266"/>
<polygon fill="#9a32cd" stroke="#9a32cd" points="179.771,-362.863 186.806,-370.785 186.246,-360.205 179.771,-362.863"/>
<text text-anchor="middle" x="290.5" y="-343" font-family="FreeSans" font-size="10.00"> LeftButtonReleaseEvtRelay</text>
<text text-anchor="middle" x="290.5" y="-331" font-family="FreeSans" font-size="10.00">KeyPressEvtRelay</text>
<text text-anchor="middle" x="290.5" y="-319" font-family="FreeSans" font-size="10.00">DomainModifiedEvtRelay</text>
<text text-anchor="middle" x="290.5" y="-307" font-family="FreeSans" font-size="10.00">VolumeMapperComputeGradientsStartEvtRelay</text>
<text text-anchor="middle" x="290.5" y="-295" font-family="FreeSans" font-size="10.00">ErrorEvtRelay</text>
<text text-anchor="middle" x="290.5" y="-283" font-family="FreeSans" font-size="10.00">VolumeMapperRenderStartEvtRelay</text>
<text text-anchor="middle" x="290.5" y="-271" font-family="FreeSans" font-size="10.00">StartEvtRelay</text>
<text text-anchor="middle" x="290.5" y="-259" font-family="FreeSans" font-size="10.00">ResetCameraEvtRelay</text>
<text text-anchor="middle" x="290.5" y="-247" font-family="FreeSans" font-size="10.00">EnableEvtRelay</text>
<text text-anchor="middle" x="290.5" y="-235" font-family="FreeSans" font-size="10.00">DeleteEvtRelay</text>
<text text-anchor="middle" x="290.5" y="-223" font-family="FreeSans" font-size="10.00">...</text>
</g>
<!-- Node7&#45;&gt;Node8 -->
<g id="edge20" class="edge"><title>Node7&#45;&gt;Node8</title>
<path fill="none" stroke="#9a32cd" stroke-dasharray="5,2" d="M188.028,-401.231C187.649,-404.169 187.293,-407.159 187,-410 181.144,-466.853 177.636,-535.333 176.452,-560.807"/>
<polygon fill="#9a32cd" stroke="#9a32cd" points="191.515,-401.565 189.421,-391.179 184.582,-400.604 191.515,-401.565"/>
<text text-anchor="middle" x="300.5" y="-533" font-family="FreeSans" font-size="10.00"> LeftButtonReleaseEvtRelay</text>
<text text-anchor="middle" x="300.5" y="-521" font-family="FreeSans" font-size="10.00">KeyPressEvtRelay</text>
<text text-anchor="middle" x="300.5" y="-509" font-family="FreeSans" font-size="10.00">DomainModifiedEvtRelay</text>
<text text-anchor="middle" x="300.5" y="-497" font-family="FreeSans" font-size="10.00">VolumeMapperComputeGradientsStartEvtRelay</text>
<text text-anchor="middle" x="300.5" y="-485" font-family="FreeSans" font-size="10.00">ErrorEvtRelay</text>
<text text-anchor="middle" x="300.5" y="-473" font-family="FreeSans" font-size="10.00">VolumeMapperRenderStartEvtRelay</text>
<text text-anchor="middle" x="300.5" y="-461" font-family="FreeSans" font-size="10.00">StartEvtRelay</text>
<text text-anchor="middle" x="300.5" y="-449" font-family="FreeSans" font-size="10.00">ResetCameraEvtRelay</text>
<text text-anchor="middle" x="300.5" y="-437" font-family="FreeSans" font-size="10.00">EnableEvtRelay</text>
<text text-anchor="middle" x="300.5" y="-425" font-family="FreeSans" font-size="10.00">DeleteEvtRelay</text>
<text text-anchor="middle" x="300.5" y="-413" font-family="FreeSans" font-size="10.00">...</text>
</g>
<!-- Node8&#45;&gt;Node7 -->
<g id="edge16" class="edge"><title>Node8&#45;&gt;Node7</title>
<path fill="none" stroke="#9a32cd" stroke-dasharray="5,2" d="M129.979,-555.818C124.439,-552.138 119.51,-547.596 116,-542 84.8229,-492.303 82.8299,-458.389 116,-410 120.736,-403.091 137.511,-396.287 153.999,-391.008"/>
<polygon fill="#9a32cd" stroke="#9a32cd" points="128.639,-559.079 139.072,-560.919 132.064,-552.974 128.639,-559.079"/>
<text text-anchor="middle" x="140" y="-479" font-family="FreeSans" font-size="10.00"> Sender</text>
<text text-anchor="middle" x="140" y="-467" font-family="FreeSans" font-size="10.00">EventImpl</text>
</g>
</g>
</svg>
