<?xml version="1.0" encoding="UTF-8" standalone="no"?>
<!DOCTYPE svg PUBLIC "-//W3C//DTD SVG 1.1//EN"
 "http://www.w3.org/Graphics/SVG/1.1/DTD/svg11.dtd">
<!-- Generated by graphviz version 2.26.3 (20100126.1600)
 -->
<!-- Title: G Pages: 1 -->
<svg width="389pt" height="650pt"
 viewBox="0.00 0.00 389.46 650.00" xmlns="http://www.w3.org/2000/svg" xmlns:xlink="http://www.w3.org/1999/xlink">
<g id="graph1" class="graph" transform="scale(1 1) rotate(0) translate(4 646)">
<title>G</title>
<!-- Node1 -->
<g id="node1" class="node"><title>Node1</title>
<polygon fill="#bfbfbf" stroke="black" points="-0.5,-1 -0.5,-21 106.5,-21 106.5,-1 -0.5,-1"/>
<text text-anchor="middle" x="53" y="-8" font-family="FreeSans" font-size="10.00">Kitware.VTK.vtkBox</text>
</g>
<!-- Node2 -->
<g id="node2" class="node"><title>Node2</title>
<a xlink:href="class_kitware_1_1_v_t_k_1_1vtk_implicit_function.html" target="_top" xlink:title="vtkImplicitFunction &#45; abstract interface for implicit functions">
<polygon fill="none" stroke="black" points="1,-61 1,-81 105,-81 105,-61 1,-61"/>
<text text-anchor="middle" x="53" y="-68" font-family="FreeSans" font-size="10.00">vtkImplicitFunction</text>
</a>
</g>
<!-- Node2&#45;&gt;Node1 -->
<g id="edge2" class="edge"><title>Node2&#45;&gt;Node1</title>
<path fill="none" stroke="midnightblue" d="M53,-50.5155C53,-40.562 53,-29.0495 53,-21.0279"/>
<polygon fill="midnightblue" stroke="midnightblue" points="49.5001,-50.8218 53,-60.8218 56.5001,-50.8219 49.5001,-50.8218"/>
</g>
<!-- Node3 -->
<g id="node4" class="node"><title>Node3</title>
<a xlink:href="class_kitware_1_1_v_t_k_1_1vtk_object.html" target="_top" xlink:title="vtkObject &#45; abstract base class for most VTK objects">
<polygon fill="none" stroke="black" points="22,-121 22,-141 84,-141 84,-121 22,-121"/>
<text text-anchor="middle" x="53" y="-128" font-family="FreeSans" font-size="10.00">vtkObject</text>
</a>
</g>
<!-- Node3&#45;&gt;Node2 -->
<g id="edge4" class="edge"><title>Node3&#45;&gt;Node2</title>
<path fill="none" stroke="midnightblue" d="M53,-110.516C53,-100.562 53,-89.0495 53,-81.0279"/>
<polygon fill="midnightblue" stroke="midnightblue" points="49.5001,-110.822 53,-120.822 56.5001,-110.822 49.5001,-110.822"/>
</g>
<!-- Node4 -->
<g id="node6" class="node"><title>Node4</title>
<a xlink:href="class_kitware_1_1_v_t_k_1_1vtk_object_base.html" target="_top" xlink:title="vtkObjectBase &#45; abstract base class for most VTK objects">
<polygon fill="none" stroke="black" points="73,-561 73,-581 159,-581 159,-561 73,-561"/>
<text text-anchor="middle" x="116" y="-568" font-family="FreeSans" font-size="10.00">vtkObjectBase</text>
</a>
</g>
<!-- Node4&#45;&gt;Node3 -->
<g id="edge6" class="edge"><title>Node4&#45;&gt;Node3</title>
<path fill="none" stroke="midnightblue" d="M87.4228,-555.886C73.6866,-547.44 57.8844,-535.826 47,-522 35.1564,-506.955 34.6209,-500.802 31,-482 5.42483,-349.199 40.5766,-183.437 50.5155,-141.17"/>
<polygon fill="midnightblue" stroke="midnightblue" points="85.6834,-558.923 96.0788,-560.97 89.2285,-552.887 85.6834,-558.923"/>
</g>
<!-- Node7 -->
<g id="node13" class="node"><title>Node7</title>
<a xlink:href="class_kitware_1_1_v_t_k_1_1vtk_object.html" target="_top" xlink:title="vtkObject &#45; abstract base class for most VTK objects">
<polygon fill="none" stroke="black" points="56,-501 56,-521 176,-521 176,-501 56,-501"/>
<text text-anchor="middle" x="116" y="-508" font-family="FreeSans" font-size="10.00">Kitware.VTK.vtkObject</text>
</a>
</g>
<!-- Node4&#45;&gt;Node7 -->
<g id="edge16" class="edge"><title>Node4&#45;&gt;Node7</title>
<path fill="none" stroke="midnightblue" d="M116,-550.516C116,-540.562 116,-529.05 116,-521.028"/>
<polygon fill="midnightblue" stroke="midnightblue" points="112.5,-550.822 116,-560.822 119.5,-550.822 112.5,-550.822"/>
</g>
<!-- Node5 -->
<g id="node8" class="node"><title>Node5</title>
<a xlink:href="class_kitware_1_1_v_t_k_1_1_wrapped_object.html" target="_top" xlink:title="Base class for all the mummy wrapped classes in Kitware.VTK.">
<polygon fill="none" stroke="black" points="254.5,-621 254.5,-641 343.5,-641 343.5,-621 254.5,-621"/>
<text text-anchor="middle" x="299" y="-628" font-family="FreeSans" font-size="10.00">WrappedObject</text>
</a>
</g>
<!-- Node5&#45;&gt;Node4 -->
<g id="edge8" class="edge"><title>Node5&#45;&gt;Node4</title>
<path fill="none" stroke="midnightblue" d="M258.804,-617.821C225.042,-606.752 177.512,-591.168 146.73,-581.075"/>
<polygon fill="midnightblue" stroke="midnightblue" points="257.777,-621.168 268.37,-620.957 259.958,-614.516 257.777,-621.168"/>
</g>
<!-- Node6 -->
<g id="node10" class="node"><title>Node6</title>
<a xlink:href="class_kitware_1_1_v_t_k_1_1vtk_object_event_relay.html" target="_top" xlink:title="Implement a relay handler for VTK events. This is a class that receives events directly from the VTK ...">
<polygon fill="none" stroke="black" points="45,-311 45,-331 217,-331 217,-311 45,-311"/>
<text text-anchor="middle" x="131" y="-318" font-family="FreeSans" font-size="10.00">Kitware.VTK.vtkObjectEventRelay</text>
</a>
</g>
<!-- Node5&#45;&gt;Node6 -->
<g id="edge12" class="edge"><title>Node5&#45;&gt;Node6</title>
<path fill="none" stroke="midnightblue" d="M311.888,-612.325C344.276,-562.899 421.803,-427.191 354,-350 344.773,-339.495 276.047,-331.666 217.298,-326.808"/>
<polygon fill="midnightblue" stroke="midnightblue" points="308.891,-610.509 306.239,-620.767 314.709,-614.402 308.891,-610.509"/>
</g>
<!-- Node6&#45;&gt;Node3 -->
<g id="edge10" class="edge"><title>Node6&#45;&gt;Node3</title>
<path fill="none" stroke="#9a32cd" stroke-dasharray="5,2" d="M122.921,-301.321C106.489,-261.293 69.6738,-171.616 57.2144,-141.266"/>
<polygon fill="#9a32cd" stroke="#9a32cd" points="119.771,-302.863 126.806,-310.785 126.246,-300.205 119.771,-302.863"/>
<text text-anchor="middle" x="230.5" y="-283" font-family="FreeSans" font-size="10.00"> LeftButtonReleaseEvtRelay</text>
<text text-anchor="middle" x="230.5" y="-271" font-family="FreeSans" font-size="10.00">KeyPressEvtRelay</text>
<text text-anchor="middle" x="230.5" y="-259" font-family="FreeSans" font-size="10.00">DomainModifiedEvtRelay</text>
<text text-anchor="middle" x="230.5" y="-247" font-family="FreeSans" font-size="10.00">VolumeMapperComputeGradientsStartEvtRelay</text>
<text text-anchor="middle" x="230.5" y="-235" font-family="FreeSans" font-size="10.00">ErrorEvtRelay</text>
<text text-anchor="middle" x="230.5" y="-223" font-family="FreeSans" font-size="10.00">VolumeMapperRenderStartEvtRelay</text>
<text text-anchor="middle" x="230.5" y="-211" font-family="FreeSans" font-size="10.00">StartEvtRelay</text>
<text text-anchor="middle" x="230.5" y="-199" font-family="FreeSans" font-size="10.00">ResetCameraEvtRelay</text>
<text text-anchor="middle" x="230.5" y="-187" font-family="FreeSans" font-size="10.00">EnableEvtRelay</text>
<text text-anchor="middle" x="230.5" y="-175" font-family="FreeSans" font-size="10.00">DeleteEvtRelay</text>
<text text-anchor="middle" x="230.5" y="-163" font-family="FreeSans" font-size="10.00">...</text>
</g>
<!-- Node6&#45;&gt;Node7 -->
<g id="edge18" class="edge"><title>Node6&#45;&gt;Node7</title>
<path fill="none" stroke="#9a32cd" stroke-dasharray="5,2" d="M128.028,-341.231C127.649,-344.169 127.293,-347.159 127,-350 121.144,-406.853 117.636,-475.333 116.452,-500.807"/>
<polygon fill="#9a32cd" stroke="#9a32cd" points="131.515,-341.565 129.421,-331.179 124.582,-340.604 131.515,-341.565"/>
<text text-anchor="middle" x="240.5" y="-473" font-family="FreeSans" font-size="10.00"> LeftButtonReleaseEvtRelay</text>
<text text-anchor="middle" x="240.5" y="-461" font-family="FreeSans" font-size="10.00">KeyPressEvtRelay</text>
<text text-anchor="middle" x="240.5" y="-449" font-family="FreeSans" font-size="10.00">DomainModifiedEvtRelay</text>
<text text-anchor="middle" x="240.5" y="-437" font-family="FreeSans" font-size="10.00">VolumeMapperComputeGradientsStartEvtRelay</text>
<text text-anchor="middle" x="240.5" y="-425" font-family="FreeSans" font-size="10.00">ErrorEvtRelay</text>
<text text-anchor="middle" x="240.5" y="-413" font-family="FreeSans" font-size="10.00">VolumeMapperRenderStartEvtRelay</text>
<text text-anchor="middle" x="240.5" y="-401" font-family="FreeSans" font-size="10.00">StartEvtRelay</text>
<text text-anchor="middle" x="240.5" y="-389" font-family="FreeSans" font-size="10.00">ResetCameraEvtRelay</text>
<text text-anchor="middle" x="240.5" y="-377" font-family="FreeSans" font-size="10.00">EnableEvtRelay</text>
<text text-anchor="middle" x="240.5" y="-365" font-family="FreeSans" font-size="10.00">DeleteEvtRelay</text>
<text text-anchor="middle" x="240.5" y="-353" font-family="FreeSans" font-size="10.00">...</text>
</g>
<!-- Node7&#45;&gt;Node6 -->
<g id="edge14" class="edge"><title>Node7&#45;&gt;Node6</title>
<path fill="none" stroke="#9a32cd" stroke-dasharray="5,2" d="M69.9794,-495.818C64.4393,-492.138 59.5104,-487.596 56,-482 24.8229,-432.303 22.8299,-398.389 56,-350 60.7359,-343.091 77.5114,-336.287 93.9987,-331.008"/>
<polygon fill="#9a32cd" stroke="#9a32cd" points="68.6386,-499.079 79.0724,-500.919 72.0636,-492.974 68.6386,-499.079"/>
<text text-anchor="middle" x="80" y="-419" font-family="FreeSans" font-size="10.00"> Sender</text>
<text text-anchor="middle" x="80" y="-407" font-family="FreeSans" font-size="10.00">EventImpl</text>
</g>
</g>
</svg>
