<?xml version="1.0" encoding="UTF-8" standalone="no"?>
<!DOCTYPE svg PUBLIC "-//W3C//DTD SVG 1.1//EN"
 "http://www.w3.org/Graphics/SVG/1.1/DTD/svg11.dtd">
<!-- Generated by graphviz version 2.26.3 (20100126.1600)
 -->
<!-- Title: G Pages: 1 -->
<svg width="938pt" height="180pt"
 viewBox="0.00 0.00 938.00 180.00" xmlns="http://www.w3.org/2000/svg" xmlns:xlink="http://www.w3.org/1999/xlink">
<g id="graph1" class="graph" transform="scale(1 1) rotate(0) translate(4 176)">
<title>G</title>
<!-- Node1 -->
<g id="node1" class="node"><title>Node1</title>
<polygon fill="#bfbfbf" stroke="black" points="460.5,-76 460.5,-96 679.5,-96 679.5,-76 460.5,-76"/>
<text text-anchor="middle" x="570" y="-83" font-family="FreeSans" font-size="10.00">Kitware.VTK.vtkTemporalDataSetAlgorithm</text>
</g>
<!-- Node6 -->
<g id="node11" class="node"><title>Node6</title>
<a xlink:href="class_kitware_1_1_v_t_k_1_1vtk_temporal_data_set_cache.html" target="_top" xlink:title="vtkTemporalDataSetCache &#45; cache time steps">
<polygon fill="none" stroke="black" points="721.5,-152 721.5,-172 924.5,-172 924.5,-152 721.5,-152"/>
<text text-anchor="middle" x="823" y="-159" font-family="FreeSans" font-size="10.00">Kitware.VTK.vtkTemporalDataSetCache</text>
</a>
</g>
<!-- Node1&#45;&gt;Node6 -->
<g id="edge10" class="edge"><title>Node1&#45;&gt;Node6</title>
<path fill="none" stroke="midnightblue" d="M601.043,-100.181C630.19,-112.997 675.284,-131.557 716,-143 728.442,-146.497 741.886,-149.482 754.906,-151.98"/>
<polygon fill="midnightblue" stroke="midnightblue" points="602.358,-96.9358 591.799,-96.0734 599.516,-103.333 602.358,-96.9358"/>
</g>
<!-- Node7 -->
<g id="node13" class="node"><title>Node7</title>
<a xlink:href="class_kitware_1_1_v_t_k_1_1vtk_temporal_fractal.html" target="_top" xlink:title="vtkTemporalFractal &#45; A source to test AMR data object.">
<polygon fill="none" stroke="black" points="741,-114 741,-134 905,-134 905,-114 741,-114"/>
<text text-anchor="middle" x="823" y="-121" font-family="FreeSans" font-size="10.00">Kitware.VTK.vtkTemporalFractal</text>
</a>
</g>
<!-- Node1&#45;&gt;Node7 -->
<g id="edge12" class="edge"><title>Node1&#45;&gt;Node7</title>
<path fill="none" stroke="midnightblue" d="M646.948,-97.5573C681.834,-102.797 722.692,-108.934 756.261,-113.976"/>
<polygon fill="midnightblue" stroke="midnightblue" points="647.213,-94.058 636.804,-96.0338 646.173,-100.98 647.213,-94.058"/>
</g>
<!-- Node8 -->
<g id="node15" class="node"><title>Node8</title>
<a xlink:href="class_kitware_1_1_v_t_k_1_1vtk_temporal_interpolator.html" target="_top" xlink:title="vtkTemporalInterpolator &#45; interpolate datasets between time steps to produce a new dataset...">
<polygon fill="none" stroke="black" points="729,-76 729,-96 917,-96 917,-76 729,-76"/>
<text text-anchor="middle" x="823" y="-83" font-family="FreeSans" font-size="10.00">Kitware.VTK.vtkTemporalInterpolator</text>
</a>
</g>
<!-- Node1&#45;&gt;Node8 -->
<g id="edge14" class="edge"><title>Node1&#45;&gt;Node8</title>
<path fill="none" stroke="midnightblue" d="M690.201,-86C703.124,-86 716.135,-86 728.692,-86"/>
<polygon fill="midnightblue" stroke="midnightblue" points="689.866,-82.5001 679.866,-86 689.866,-89.5001 689.866,-82.5001"/>
</g>
<!-- Node9 -->
<g id="node17" class="node"><title>Node9</title>
<a xlink:href="class_kitware_1_1_v_t_k_1_1vtk_temporal_shift_scale.html" target="_top" xlink:title="vtkTemporalShiftScale &#45; modify the time range/steps of temporal data">
<polygon fill="none" stroke="black" points="732.5,-38 732.5,-58 913.5,-58 913.5,-38 732.5,-38"/>
<text text-anchor="middle" x="823" y="-45" font-family="FreeSans" font-size="10.00">Kitware.VTK.vtkTemporalShiftScale</text>
</a>
</g>
<!-- Node1&#45;&gt;Node9 -->
<g id="edge16" class="edge"><title>Node1&#45;&gt;Node9</title>
<path fill="none" stroke="midnightblue" d="M646.948,-74.4427C681.834,-69.2028 722.692,-63.066 756.261,-58.024"/>
<polygon fill="midnightblue" stroke="midnightblue" points="646.173,-71.0197 636.804,-75.9662 647.213,-77.942 646.173,-71.0197"/>
</g>
<!-- Node10 -->
<g id="node19" class="node"><title>Node10</title>
<a xlink:href="class_kitware_1_1_v_t_k_1_1vtk_temporal_snap_to_time_step.html" target="_top" xlink:title="vtkTemporalSnapToTimeStep &#45; modify the time range/steps of temporal data">
<polygon fill="none" stroke="black" points="716.5,-0 716.5,-20 929.5,-20 929.5,-0 716.5,-0"/>
<text text-anchor="middle" x="823" y="-7" font-family="FreeSans" font-size="10.00">Kitware.VTK.vtkTemporalSnapToTimeStep</text>
</a>
</g>
<!-- Node1&#45;&gt;Node10 -->
<g id="edge18" class="edge"><title>Node1&#45;&gt;Node10</title>
<path fill="none" stroke="midnightblue" d="M601.043,-71.8189C630.19,-59.0025 675.284,-40.4429 716,-29 728.442,-25.5033 741.886,-22.5175 754.906,-20.0196"/>
<polygon fill="midnightblue" stroke="midnightblue" points="599.516,-68.6673 591.799,-75.9266 602.358,-75.0642 599.516,-68.6673"/>
</g>
<!-- Node2 -->
<g id="node2" class="node"><title>Node2</title>
<a xlink:href="class_kitware_1_1_v_t_k_1_1vtk_algorithm.html" target="_top" xlink:title="vtkAlgorithm &#45; Superclass for all sources, filters, and sinks in VTK.">
<polygon fill="none" stroke="black" points="346.5,-76 346.5,-96 423.5,-96 423.5,-76 346.5,-76"/>
<text text-anchor="middle" x="385" y="-83" font-family="FreeSans" font-size="10.00">vtkAlgorithm</text>
</a>
</g>
<!-- Node2&#45;&gt;Node1 -->
<g id="edge2" class="edge"><title>Node2&#45;&gt;Node1</title>
<path fill="none" stroke="midnightblue" d="M433.979,-86C442.309,-86 451.249,-86 460.422,-86"/>
<polygon fill="midnightblue" stroke="midnightblue" points="433.782,-82.5001 423.782,-86 433.782,-89.5001 433.782,-82.5001"/>
</g>
<!-- Node3 -->
<g id="node4" class="node"><title>Node3</title>
<a xlink:href="class_kitware_1_1_v_t_k_1_1vtk_object.html" target="_top" xlink:title="vtkObject &#45; abstract base class for most VTK objects">
<polygon fill="none" stroke="black" points="248,-76 248,-96 310,-96 310,-76 248,-76"/>
<text text-anchor="middle" x="279" y="-83" font-family="FreeSans" font-size="10.00">vtkObject</text>
</a>
</g>
<!-- Node3&#45;&gt;Node2 -->
<g id="edge4" class="edge"><title>Node3&#45;&gt;Node2</title>
<path fill="none" stroke="midnightblue" d="M320.421,-86C329.001,-86 338.007,-86 346.479,-86"/>
<polygon fill="midnightblue" stroke="midnightblue" points="320.23,-82.5001 310.23,-86 320.23,-89.5001 320.23,-82.5001"/>
</g>
<!-- Node4 -->
<g id="node6" class="node"><title>Node4</title>
<a xlink:href="class_kitware_1_1_v_t_k_1_1vtk_object_base.html" target="_top" xlink:title="vtkObjectBase &#45; abstract base class for most VTK objects">
<polygon fill="none" stroke="black" points="126,-76 126,-96 212,-96 212,-76 126,-76"/>
<text text-anchor="middle" x="169" y="-83" font-family="FreeSans" font-size="10.00">vtkObjectBase</text>
</a>
</g>
<!-- Node4&#45;&gt;Node3 -->
<g id="edge6" class="edge"><title>Node4&#45;&gt;Node3</title>
<path fill="none" stroke="midnightblue" d="M222.346,-86C231.091,-86 239.892,-86 247.863,-86"/>
<polygon fill="midnightblue" stroke="midnightblue" points="222.159,-82.5001 212.159,-86 222.159,-89.5001 222.159,-82.5001"/>
</g>
<!-- Node5 -->
<g id="node8" class="node"><title>Node5</title>
<a xlink:href="class_kitware_1_1_v_t_k_1_1_wrapped_object.html" target="_top" xlink:title="Base class for all the mummy wrapped classes in Kitware.VTK.">
<polygon fill="none" stroke="black" points="0.5,-76 0.5,-96 89.5,-96 89.5,-76 0.5,-76"/>
<text text-anchor="middle" x="45" y="-83" font-family="FreeSans" font-size="10.00">WrappedObject</text>
</a>
</g>
<!-- Node5&#45;&gt;Node4 -->
<g id="edge8" class="edge"><title>Node5&#45;&gt;Node4</title>
<path fill="none" stroke="midnightblue" d="M99.8895,-86C108.623,-86 117.548,-86 125.957,-86"/>
<polygon fill="midnightblue" stroke="midnightblue" points="99.7669,-82.5001 89.7668,-86 99.7668,-89.5001 99.7669,-82.5001"/>
</g>
</g>
</svg>
