<?xml version="1.0" encoding="UTF-8" standalone="no"?>
<!DOCTYPE svg PUBLIC "-//W3C//DTD SVG 1.1//EN"
 "http://www.w3.org/Graphics/SVG/1.1/DTD/svg11.dtd">
<!-- Generated by graphviz version 2.26.3 (20100126.1600)
 -->
<!-- Title: G Pages: 1 -->
<svg width="256pt" height="378pt"
 viewBox="0.00 0.00 256.00 378.00" xmlns="http://www.w3.org/2000/svg" xmlns:xlink="http://www.w3.org/1999/xlink">
<g id="graph1" class="graph" transform="scale(1 1) rotate(0) translate(4 374)">
<title>G</title>
<!-- Node1 -->
<g id="node1" class="node"><title>Node1</title>
<polygon fill="#bfbfbf" stroke="black" points="40,-59 40,-79 208,-79 208,-59 40,-59"/>
<text text-anchor="middle" x="124" y="-66" font-family="FreeSans" font-size="10.00">Kitware.VTK.vtkExtractDataSets</text>
</g>
<!-- Node7 -->
<g id="node13" class="node"><title>Node7</title>
<a xlink:href="class_kitware_1_1_v_t_k_1_1vtk_hierarchical_data_extract_data_sets.html" target="_top" xlink:title="vtkHierarchicalDataExtractDataSets &#45; extract a number of datasets">
<polygon fill="none" stroke="black" points="0,-1 0,-21 248,-21 248,-1 0,-1"/>
<text text-anchor="middle" x="124" y="-8" font-family="FreeSans" font-size="10.00">Kitware.VTK.vtkHierarchicalDataExtractDataSets</text>
</a>
</g>
<!-- Node1&#45;&gt;Node7 -->
<g id="edge12" class="edge"><title>Node1&#45;&gt;Node7</title>
<path fill="none" stroke="midnightblue" d="M124,-48.8902C124,-39.6201 124,-29.0083 124,-21.3776"/>
<polygon fill="midnightblue" stroke="midnightblue" points="120.5,-48.8971 124,-58.8972 127.5,-48.8972 120.5,-48.8971"/>
</g>
<!-- Node2 -->
<g id="node2" class="node"><title>Node2</title>
<a xlink:href="class_kitware_1_1_v_t_k_1_1vtk_hierarchical_box_data_set_algorithm.html" target="_top" xlink:title="vtkHierarchicalBoxDataSetAlgorithm &#45; superclass for algorithms that produce vtkHierarchicalBoxDataSet...">
<polygon fill="none" stroke="black" points="28.5,-117 28.5,-137 219.5,-137 219.5,-117 28.5,-117"/>
<text text-anchor="middle" x="124" y="-124" font-family="FreeSans" font-size="10.00">vtkHierarchicalBoxDataSetAlgorithm</text>
</a>
</g>
<!-- Node2&#45;&gt;Node1 -->
<g id="edge2" class="edge"><title>Node2&#45;&gt;Node1</title>
<path fill="none" stroke="midnightblue" d="M124,-106.89C124,-97.6201 124,-87.0083 124,-79.3776"/>
<polygon fill="midnightblue" stroke="midnightblue" points="120.5,-106.897 124,-116.897 127.5,-106.897 120.5,-106.897"/>
</g>
<!-- Node3 -->
<g id="node4" class="node"><title>Node3</title>
<a xlink:href="class_kitware_1_1_v_t_k_1_1vtk_algorithm.html" target="_top" xlink:title="vtkAlgorithm &#45; Superclass for all sources, filters, and sinks in VTK.">
<polygon fill="none" stroke="black" points="85.5,-175 85.5,-195 162.5,-195 162.5,-175 85.5,-175"/>
<text text-anchor="middle" x="124" y="-182" font-family="FreeSans" font-size="10.00">vtkAlgorithm</text>
</a>
</g>
<!-- Node3&#45;&gt;Node2 -->
<g id="edge4" class="edge"><title>Node3&#45;&gt;Node2</title>
<path fill="none" stroke="midnightblue" d="M124,-164.89C124,-155.62 124,-145.008 124,-137.378"/>
<polygon fill="midnightblue" stroke="midnightblue" points="120.5,-164.897 124,-174.897 127.5,-164.897 120.5,-164.897"/>
</g>
<!-- Node4 -->
<g id="node6" class="node"><title>Node4</title>
<a xlink:href="class_kitware_1_1_v_t_k_1_1vtk_object.html" target="_top" xlink:title="vtkObject &#45; abstract base class for most VTK objects">
<polygon fill="none" stroke="black" points="93,-233 93,-253 155,-253 155,-233 93,-233"/>
<text text-anchor="middle" x="124" y="-240" font-family="FreeSans" font-size="10.00">vtkObject</text>
</a>
</g>
<!-- Node4&#45;&gt;Node3 -->
<g id="edge6" class="edge"><title>Node4&#45;&gt;Node3</title>
<path fill="none" stroke="midnightblue" d="M124,-222.89C124,-213.62 124,-203.008 124,-195.378"/>
<polygon fill="midnightblue" stroke="midnightblue" points="120.5,-222.897 124,-232.897 127.5,-222.897 120.5,-222.897"/>
</g>
<!-- Node5 -->
<g id="node8" class="node"><title>Node5</title>
<a xlink:href="class_kitware_1_1_v_t_k_1_1vtk_object_base.html" target="_top" xlink:title="vtkObjectBase &#45; abstract base class for most VTK objects">
<polygon fill="none" stroke="black" points="81,-291 81,-311 167,-311 167,-291 81,-291"/>
<text text-anchor="middle" x="124" y="-298" font-family="FreeSans" font-size="10.00">vtkObjectBase</text>
</a>
</g>
<!-- Node5&#45;&gt;Node4 -->
<g id="edge8" class="edge"><title>Node5&#45;&gt;Node4</title>
<path fill="none" stroke="midnightblue" d="M124,-280.89C124,-271.62 124,-261.008 124,-253.378"/>
<polygon fill="midnightblue" stroke="midnightblue" points="120.5,-280.897 124,-290.897 127.5,-280.897 120.5,-280.897"/>
</g>
<!-- Node6 -->
<g id="node10" class="node"><title>Node6</title>
<a xlink:href="class_kitware_1_1_v_t_k_1_1_wrapped_object.html" target="_top" xlink:title="Base class for all the mummy wrapped classes in Kitware.VTK.">
<polygon fill="none" stroke="black" points="79.5,-349 79.5,-369 168.5,-369 168.5,-349 79.5,-349"/>
<text text-anchor="middle" x="124" y="-356" font-family="FreeSans" font-size="10.00">WrappedObject</text>
</a>
</g>
<!-- Node6&#45;&gt;Node5 -->
<g id="edge10" class="edge"><title>Node6&#45;&gt;Node5</title>
<path fill="none" stroke="midnightblue" d="M124,-338.89C124,-329.62 124,-319.008 124,-311.378"/>
<polygon fill="midnightblue" stroke="midnightblue" points="120.5,-338.897 124,-348.897 127.5,-338.897 120.5,-338.897"/>
</g>
</g>
</svg>
