<?xml version="1.0" encoding="UTF-8" standalone="no"?>
<!DOCTYPE svg PUBLIC "-//W3C//DTD SVG 1.1//EN"
 "http://www.w3.org/Graphics/SVG/1.1/DTD/svg11.dtd">
<!-- Generated by graphviz version 2.26.3 (20100126.1600)
 -->
<!-- Title: G Pages: 1 -->
<svg width="184pt" height="320pt"
 viewBox="0.00 0.00 184.00 320.00" xmlns="http://www.w3.org/2000/svg" xmlns:xlink="http://www.w3.org/1999/xlink">
<g id="graph1" class="graph" transform="scale(1 1) rotate(0) translate(4 316)">
<title>G</title>
<!-- Node1 -->
<g id="node1" class="node"><title>Node1</title>
<polygon fill="#bfbfbf" stroke="black" points="-0.5,-1 -0.5,-21 176.5,-21 176.5,-1 -0.5,-1"/>
<text text-anchor="middle" x="88" y="-8" font-family="FreeSans" font-size="10.00">Kitware.VTK.vtkDataObjectToTable</text>
</g>
<!-- Node2 -->
<g id="node2" class="node"><title>Node2</title>
<a xlink:href="class_kitware_1_1_v_t_k_1_1vtk_table_algorithm.html" target="_top" xlink:title="vtkTableAlgorithm &#45; Superclass for algorithms that produce only vtkTables as output">
<polygon fill="none" stroke="black" points="37.5,-59 37.5,-79 138.5,-79 138.5,-59 37.5,-59"/>
<text text-anchor="middle" x="88" y="-66" font-family="FreeSans" font-size="10.00">vtkTableAlgorithm</text>
</a>
</g>
<!-- Node2&#45;&gt;Node1 -->
<g id="edge2" class="edge"><title>Node2&#45;&gt;Node1</title>
<path fill="none" stroke="midnightblue" d="M88,-48.8902C88,-39.6201 88,-29.0083 88,-21.3776"/>
<polygon fill="midnightblue" stroke="midnightblue" points="84.5001,-48.8971 88,-58.8972 91.5001,-48.8972 84.5001,-48.8971"/>
</g>
<!-- Node3 -->
<g id="node4" class="node"><title>Node3</title>
<a xlink:href="class_kitware_1_1_v_t_k_1_1vtk_algorithm.html" target="_top" xlink:title="vtkAlgorithm &#45; Superclass for all sources, filters, and sinks in VTK.">
<polygon fill="none" stroke="black" points="49.5,-117 49.5,-137 126.5,-137 126.5,-117 49.5,-117"/>
<text text-anchor="middle" x="88" y="-124" font-family="FreeSans" font-size="10.00">vtkAlgorithm</text>
</a>
</g>
<!-- Node3&#45;&gt;Node2 -->
<g id="edge4" class="edge"><title>Node3&#45;&gt;Node2</title>
<path fill="none" stroke="midnightblue" d="M88,-106.89C88,-97.6201 88,-87.0083 88,-79.3776"/>
<polygon fill="midnightblue" stroke="midnightblue" points="84.5001,-106.897 88,-116.897 91.5001,-106.897 84.5001,-106.897"/>
</g>
<!-- Node4 -->
<g id="node6" class="node"><title>Node4</title>
<a xlink:href="class_kitware_1_1_v_t_k_1_1vtk_object.html" target="_top" xlink:title="vtkObject &#45; abstract base class for most VTK objects">
<polygon fill="none" stroke="black" points="57,-175 57,-195 119,-195 119,-175 57,-175"/>
<text text-anchor="middle" x="88" y="-182" font-family="FreeSans" font-size="10.00">vtkObject</text>
</a>
</g>
<!-- Node4&#45;&gt;Node3 -->
<g id="edge6" class="edge"><title>Node4&#45;&gt;Node3</title>
<path fill="none" stroke="midnightblue" d="M88,-164.89C88,-155.62 88,-145.008 88,-137.378"/>
<polygon fill="midnightblue" stroke="midnightblue" points="84.5001,-164.897 88,-174.897 91.5001,-164.897 84.5001,-164.897"/>
</g>
<!-- Node5 -->
<g id="node8" class="node"><title>Node5</title>
<a xlink:href="class_kitware_1_1_v_t_k_1_1vtk_object_base.html" target="_top" xlink:title="vtkObjectBase &#45; abstract base class for most VTK objects">
<polygon fill="none" stroke="black" points="45,-233 45,-253 131,-253 131,-233 45,-233"/>
<text text-anchor="middle" x="88" y="-240" font-family="FreeSans" font-size="10.00">vtkObjectBase</text>
</a>
</g>
<!-- Node5&#45;&gt;Node4 -->
<g id="edge8" class="edge"><title>Node5&#45;&gt;Node4</title>
<path fill="none" stroke="midnightblue" d="M88,-222.89C88,-213.62 88,-203.008 88,-195.378"/>
<polygon fill="midnightblue" stroke="midnightblue" points="84.5001,-222.897 88,-232.897 91.5001,-222.897 84.5001,-222.897"/>
</g>
<!-- Node6 -->
<g id="node10" class="node"><title>Node6</title>
<a xlink:href="class_kitware_1_1_v_t_k_1_1_wrapped_object.html" target="_top" xlink:title="Base class for all the mummy wrapped classes in Kitware.VTK.">
<polygon fill="none" stroke="black" points="43.5,-291 43.5,-311 132.5,-311 132.5,-291 43.5,-291"/>
<text text-anchor="middle" x="88" y="-298" font-family="FreeSans" font-size="10.00">WrappedObject</text>
</a>
</g>
<!-- Node6&#45;&gt;Node5 -->
<g id="edge10" class="edge"><title>Node6&#45;&gt;Node5</title>
<path fill="none" stroke="midnightblue" d="M88,-280.89C88,-271.62 88,-261.008 88,-253.378"/>
<polygon fill="midnightblue" stroke="midnightblue" points="84.5001,-280.897 88,-290.897 91.5001,-280.897 84.5001,-280.897"/>
</g>
</g>
</svg>
