<?xml version="1.0" encoding="UTF-8" standalone="no"?>
<!DOCTYPE svg PUBLIC "-//W3C//DTD SVG 1.1//EN"
 "http://www.w3.org/Graphics/SVG/1.1/DTD/svg11.dtd">
<!-- Generated by graphviz version 2.26.3 (20100126.1600)
 -->
<!-- Title: G Pages: 1 -->
<svg width="1672pt" height="878pt"
 viewBox="0.00 0.00 1672.00 878.00" xmlns="http://www.w3.org/2000/svg" xmlns:xlink="http://www.w3.org/1999/xlink">
<g id="graph1" class="graph" transform="scale(1 1) rotate(0) translate(4 874)">
<title>G</title>
<!-- Node1 -->
<g id="node1" class="node"><title>Node1</title>
<polygon fill="#bfbfbf" stroke="black" points="460,-451 460,-471 620,-471 620,-451 460,-451"/>
<text text-anchor="middle" x="540" y="-458" font-family="FreeSans" font-size="10.00">Kitware.VTK.vtkTableAlgorithm</text>
</g>
<!-- Node6 -->
<g id="node11" class="node"><title>Node6</title>
<a xlink:href="class_kitware_1_1_v_t_k_1_1vtk_adjacency_matrix_to_edge_table.html" target="_top" xlink:title="vtkAdjacencyMatrixToEdgeTable">
<polygon fill="none" stroke="black" points="659.5,-850 659.5,-870 884.5,-870 884.5,-850 659.5,-850"/>
<text text-anchor="middle" x="772" y="-857" font-family="FreeSans" font-size="10.00">Kitware.VTK.vtkAdjacencyMatrixToEdgeTable</text>
</a>
</g>
<!-- Node1&#45;&gt;Node6 -->
<g id="edge10" class="edge"><title>Node1&#45;&gt;Node6</title>
<path fill="none" stroke="midnightblue" d="M543.271,-480.975C555.334,-552.136 599.561,-791.655 656,-841 659.918,-844.425 664.206,-847.357 668.752,-849.858"/>
<polygon fill="midnightblue" stroke="midnightblue" points="546.714,-480.341 541.615,-471.055 539.81,-481.495 546.714,-480.341"/>
</g>
<!-- Node7 -->
<g id="node13" class="node"><title>Node7</title>
<a xlink:href="class_kitware_1_1_v_t_k_1_1vtk_array_to_table.html" target="_top" xlink:title="vtkArrayToTable &#45; Converts one&#45; and two&#45;dimensional vtkArrayData objects to vtkTable">
<polygon fill="none" stroke="black" points="697.5,-812 697.5,-832 846.5,-832 846.5,-812 697.5,-812"/>
<text text-anchor="middle" x="772" y="-819" font-family="FreeSans" font-size="10.00">Kitware.VTK.vtkArrayToTable</text>
</a>
</g>
<!-- Node1&#45;&gt;Node7 -->
<g id="edge12" class="edge"><title>Node1&#45;&gt;Node7</title>
<path fill="none" stroke="midnightblue" d="M544.005,-481.099C557.686,-547.701 604.569,-759.41 656,-803 667.598,-812.83 682.27,-818.548 697.244,-821.714"/>
<polygon fill="midnightblue" stroke="midnightblue" points="547.387,-480.163 541.97,-471.058 540.527,-481.554 547.387,-480.163"/>
</g>
<!-- Node8 -->
<g id="node15" class="node"><title>Node8</title>
<a xlink:href="class_kitware_1_1_v_t_k_1_1vtk_bivariate_linear_table_threshold.html" target="_top" xlink:title="vtkBivariateLinearTableThreshold &#45; performs line&#45;based thresholding for vtkTable data.">
<polygon fill="none" stroke="black" points="656.5,-774 656.5,-794 887.5,-794 887.5,-774 656.5,-774"/>
<text text-anchor="middle" x="772" y="-781" font-family="FreeSans" font-size="10.00">Kitware.VTK.vtkBivariateLinearTableThreshold</text>
</a>
</g>
<!-- Node1&#45;&gt;Node8 -->
<g id="edge14" class="edge"><title>Node1&#45;&gt;Node8</title>
<path fill="none" stroke="midnightblue" d="M541.119,-481.441C545.333,-536.868 565.076,-690.823 656,-765 660.269,-768.483 664.929,-771.443 669.848,-773.951"/>
<polygon fill="midnightblue" stroke="midnightblue" points="544.593,-480.919 540.436,-471.173 537.608,-481.383 544.593,-480.919"/>
</g>
<!-- Node10 -->
<g id="node19" class="node"><title>Node10</title>
<a xlink:href="class_kitware_1_1_v_t_k_1_1vtk_boost_split_table_field.html" target="_top" xlink:title="vtkBoostSplitTableField &#45; &quot;Splits&quot; one&#45;or&#45;more table fields by duplicating rows containing delimited ...">
<polygon fill="none" stroke="black" points="680.5,-736 680.5,-756 863.5,-756 863.5,-736 680.5,-736"/>
<text text-anchor="middle" x="772" y="-743" font-family="FreeSans" font-size="10.00">Kitware.VTK.vtkBoostSplitTableField</text>
</a>
</g>
<!-- Node1&#45;&gt;Node10 -->
<g id="edge18" class="edge"><title>Node1&#45;&gt;Node10</title>
<path fill="none" stroke="midnightblue" d="M542.317,-481.262C549.247,-531.771 574.656,-663.744 656,-727 663.249,-732.637 671.534,-736.88 680.267,-740.044"/>
<polygon fill="midnightblue" stroke="midnightblue" points="545.779,-480.743 541.046,-471.265 538.835,-481.626 545.779,-480.743"/>
</g>
<!-- Node11 -->
<g id="node21" class="node"><title>Node11</title>
<a xlink:href="class_kitware_1_1_v_t_k_1_1vtk_collect_table.html" target="_top" xlink:title="vtkCollectTable &#45; Collect distributed table.">
<polygon fill="none" stroke="black" points="699,-698 699,-718 845,-718 845,-698 699,-698"/>
<text text-anchor="middle" x="772" y="-705" font-family="FreeSans" font-size="10.00">Kitware.VTK.vtkCollectTable</text>
</a>
</g>
<!-- Node1&#45;&gt;Node11 -->
<g id="edge20" class="edge"><title>Node1&#45;&gt;Node11</title>
<path fill="none" stroke="midnightblue" d="M543.861,-481.112C553.685,-526.39 584.125,-636.457 656,-689 668.438,-698.093 683.629,-703.475 698.868,-706.544"/>
<polygon fill="midnightblue" stroke="midnightblue" points="547.285,-480.39 541.839,-471.302 540.429,-481.803 547.285,-480.39"/>
</g>
<!-- Node12 -->
<g id="node23" class="node"><title>Node12</title>
<a xlink:href="class_kitware_1_1_v_t_k_1_1vtk_data_object_to_table.html" target="_top" xlink:title="vtkDataObjectToTable &#45; extract field data as a table">
<polygon fill="none" stroke="black" points="683.5,-660 683.5,-680 860.5,-680 860.5,-660 683.5,-660"/>
<text text-anchor="middle" x="772" y="-667" font-family="FreeSans" font-size="10.00">Kitware.VTK.vtkDataObjectToTable</text>
</a>
</g>
<!-- Node1&#45;&gt;Node12 -->
<g id="edge22" class="edge"><title>Node1&#45;&gt;Node12</title>
<path fill="none" stroke="midnightblue" d="M545.949,-480.986C558.862,-520.602 593.447,-608.89 656,-651 664.295,-656.584 673.664,-660.727 683.393,-663.775"/>
<polygon fill="midnightblue" stroke="midnightblue" points="549.272,-479.884 542.939,-471.39 542.593,-481.979 549.272,-479.884"/>
</g>
<!-- Node13 -->
<g id="node25" class="node"><title>Node13</title>
<a xlink:href="class_kitware_1_1_v_t_k_1_1vtk_delimited_text_reader.html" target="_top" xlink:title="vtkDelimitedTextReader &#45; reads in delimited ascii or unicode text files and outputs a vtkTable data s...">
<polygon fill="none" stroke="black" points="678.5,-622 678.5,-642 865.5,-642 865.5,-622 678.5,-622"/>
<text text-anchor="middle" x="772" y="-629" font-family="FreeSans" font-size="10.00">Kitware.VTK.vtkDelimitedTextReader</text>
</a>
</g>
<!-- Node1&#45;&gt;Node13 -->
<g id="edge24" class="edge"><title>Node1&#45;&gt;Node13</title>
<path fill="none" stroke="midnightblue" d="M548.752,-480.413C564.816,-513.605 602.351,-580.794 656,-613 662.911,-617.149 670.451,-620.47 678.262,-623.119"/>
<polygon fill="midnightblue" stroke="midnightblue" points="551.881,-478.842 544.461,-471.279 545.545,-481.819 551.881,-478.842"/>
</g>
<!-- Node14 -->
<g id="node27" class="node"><title>Node14</title>
<a xlink:href="class_kitware_1_1_v_t_k_1_1vtk_dot_product_similarity.html" target="_top" xlink:title="vtkDotProductSimilarity &#45; compute dot&#45;product similarity metrics.">
<polygon fill="none" stroke="black" points="678,-584 678,-604 866,-604 866,-584 678,-584"/>
<text text-anchor="middle" x="772" y="-591" font-family="FreeSans" font-size="10.00">Kitware.VTK.vtkDotProductSimilarity</text>
</a>
</g>
<!-- Node1&#45;&gt;Node14 -->
<g id="edge26" class="edge"><title>Node1&#45;&gt;Node14</title>
<path fill="none" stroke="midnightblue" d="M552.967,-479.57C572.213,-505.556 610.95,-552.143 656,-575 663.098,-578.601 670.725,-581.546 678.556,-583.951"/>
<polygon fill="midnightblue" stroke="midnightblue" points="555.69,-477.363 546.994,-471.311 550.018,-481.465 555.69,-477.363"/>
</g>
<!-- Node15 -->
<g id="node29" class="node"><title>Node15</title>
<a xlink:href="class_kitware_1_1_v_t_k_1_1vtk_extract_selected_rows.html" target="_top" xlink:title="vtkExtractSelectedRows &#45; return selected rows of a table">
<polygon fill="none" stroke="black" points="678,-546 678,-566 866,-566 866,-546 678,-546"/>
<text text-anchor="middle" x="772" y="-553" font-family="FreeSans" font-size="10.00">Kitware.VTK.vtkExtractSelectedRows</text>
</a>
</g>
<!-- Node1&#45;&gt;Node15 -->
<g id="edge28" class="edge"><title>Node1&#45;&gt;Node15</title>
<path fill="none" stroke="midnightblue" d="M559.484,-477.493C581.453,-495.156 618.96,-522.583 656,-537 665.319,-540.627 675.32,-543.562 685.401,-545.936"/>
<polygon fill="midnightblue" stroke="midnightblue" points="561.548,-474.659 551.594,-471.028 557.111,-480.073 561.548,-474.659"/>
</g>
<!-- Node16 -->
<g id="node31" class="node"><title>Node16</title>
<a xlink:href="class_kitware_1_1_v_t_k_1_1vtk_extract_temporal_field_data.html" target="_top" xlink:title="vtkExtractTemporalFieldData &#45; Extract temporal arrays from input field data">
<polygon fill="none" stroke="black" points="666.5,-508 666.5,-528 877.5,-528 877.5,-508 666.5,-508"/>
<text text-anchor="middle" x="772" y="-515" font-family="FreeSans" font-size="10.00">Kitware.VTK.vtkExtractTemporalFieldData</text>
</a>
</g>
<!-- Node1&#45;&gt;Node16 -->
<g id="edge30" class="edge"><title>Node1&#45;&gt;Node16</title>
<path fill="none" stroke="midnightblue" d="M576.395,-474.525C599.044,-482.539 628.921,-492.389 656,-499 670.076,-502.437 685.266,-505.428 699.871,-507.958"/>
<polygon fill="midnightblue" stroke="midnightblue" points="577.441,-471.182 566.846,-471.104 575.08,-477.772 577.441,-471.182"/>
</g>
<!-- Node17 -->
<g id="node33" class="node"><title>Node17</title>
<a xlink:href="class_kitware_1_1_v_t_k_1_1vtk_fixed_width_text_reader.html" target="_top" xlink:title="vtkFixedWidthTextReader &#45; reader for pulling in text files with fixed&#45;width fields">
<polygon fill="none" stroke="black" points="676.5,-470 676.5,-490 867.5,-490 867.5,-470 676.5,-470"/>
<text text-anchor="middle" x="772" y="-477" font-family="FreeSans" font-size="10.00">Kitware.VTK.vtkFixedWidthTextReader</text>
</a>
</g>
<!-- Node1&#45;&gt;Node17 -->
<g id="edge32" class="edge"><title>Node1&#45;&gt;Node17</title>
<path fill="none" stroke="midnightblue" d="M630.455,-468.408C645.476,-469.638 661.097,-470.917 676.244,-472.158"/>
<polygon fill="midnightblue" stroke="midnightblue" points="630.418,-464.893 620.166,-467.565 629.847,-471.87 630.418,-464.893"/>
</g>
<!-- Node18 -->
<g id="node35" class="node"><title>Node18</title>
<a xlink:href="class_kitware_1_1_v_t_k_1_1vtk_i_s_i_reader.html" target="_top" xlink:title="vtkISIReader &#45; reader for ISI files">
<polygon fill="none" stroke="black" points="705,-432 705,-452 839,-452 839,-432 705,-432"/>
<text text-anchor="middle" x="772" y="-439" font-family="FreeSans" font-size="10.00">Kitware.VTK.vtkISIReader</text>
</a>
</g>
<!-- Node1&#45;&gt;Node18 -->
<g id="edge34" class="edge"><title>Node1&#45;&gt;Node18</title>
<path fill="none" stroke="midnightblue" d="M630.325,-453.603C655.162,-451.569 681.652,-449.399 704.926,-447.493"/>
<polygon fill="midnightblue" stroke="midnightblue" points="629.847,-450.13 620.166,-454.435 630.418,-457.107 629.847,-450.13"/>
</g>
<!-- Node19 -->
<g id="node37" class="node"><title>Node19</title>
<a xlink:href="class_kitware_1_1_v_t_k_1_1vtk_merge_columns.html" target="_top" xlink:title="vtkMergeColumns &#45; merge two columns into a single column">
<polygon fill="none" stroke="black" points="691.5,-394 691.5,-414 852.5,-414 852.5,-394 691.5,-394"/>
<text text-anchor="middle" x="772" y="-401" font-family="FreeSans" font-size="10.00">Kitware.VTK.vtkMergeColumns</text>
</a>
</g>
<!-- Node1&#45;&gt;Node19 -->
<g id="edge36" class="edge"><title>Node1&#45;&gt;Node19</title>
<path fill="none" stroke="midnightblue" d="M576.395,-447.475C599.044,-439.461 628.921,-429.611 656,-423 670.076,-419.563 685.266,-416.572 699.871,-414.042"/>
<polygon fill="midnightblue" stroke="midnightblue" points="575.08,-444.228 566.846,-450.896 577.441,-450.818 575.08,-444.228"/>
</g>
<!-- Node20 -->
<g id="node39" class="node"><title>Node20</title>
<a xlink:href="class_kitware_1_1_v_t_k_1_1vtk_merge_tables.html" target="_top" xlink:title="vtkMergeTables &#45; combine two tables">
<polygon fill="none" stroke="black" points="697.5,-356 697.5,-376 846.5,-376 846.5,-356 697.5,-356"/>
<text text-anchor="middle" x="772" y="-363" font-family="FreeSans" font-size="10.00">Kitware.VTK.vtkMergeTables</text>
</a>
</g>
<!-- Node1&#45;&gt;Node20 -->
<g id="edge38" class="edge"><title>Node1&#45;&gt;Node20</title>
<path fill="none" stroke="midnightblue" d="M559.484,-444.507C581.453,-426.844 618.96,-399.417 656,-385 669.027,-379.93 683.388,-376.212 697.436,-373.487"/>
<polygon fill="midnightblue" stroke="midnightblue" points="557.111,-441.927 551.594,-450.972 561.548,-447.341 557.111,-441.927"/>
</g>
<!-- Node21 -->
<g id="node41" class="node"><title>Node21</title>
<a xlink:href="class_kitware_1_1_v_t_k_1_1vtk_r_i_s_reader.html" target="_top" xlink:title="vtkRISReader &#45; reader for RIS files">
<polygon fill="none" stroke="black" points="703.5,-318 703.5,-338 840.5,-338 840.5,-318 703.5,-318"/>
<text text-anchor="middle" x="772" y="-325" font-family="FreeSans" font-size="10.00">Kitware.VTK.vtkRISReader</text>
</a>
</g>
<!-- Node1&#45;&gt;Node21 -->
<g id="edge40" class="edge"><title>Node1&#45;&gt;Node21</title>
<path fill="none" stroke="midnightblue" d="M552.967,-442.43C572.213,-416.444 610.95,-369.857 656,-347 670.468,-339.659 687.137,-335.046 703.245,-332.173"/>
<polygon fill="midnightblue" stroke="midnightblue" points="550.018,-440.535 546.994,-450.689 555.69,-444.637 550.018,-440.535"/>
</g>
<!-- Node22 -->
<g id="node43" class="node"><title>Node22</title>
<a xlink:href="class_kitware_1_1_v_t_k_1_1vtk_row_query_to_table.html" target="_top" xlink:title="vtkRowQueryToTable &#45; executes an sql query and retrieves results into a table">
<polygon fill="none" stroke="black" points="687,-280 687,-300 857,-300 857,-280 687,-280"/>
<text text-anchor="middle" x="772" y="-287" font-family="FreeSans" font-size="10.00">Kitware.VTK.vtkRowQueryToTable</text>
</a>
</g>
<!-- Node1&#45;&gt;Node22 -->
<g id="edge42" class="edge"><title>Node1&#45;&gt;Node22</title>
<path fill="none" stroke="midnightblue" d="M548.752,-441.587C564.816,-408.395 602.351,-341.206 656,-309 665.448,-303.328 676.072,-299.204 686.955,-296.226"/>
<polygon fill="midnightblue" stroke="midnightblue" points="545.545,-440.181 544.461,-450.721 551.881,-443.158 545.545,-440.181"/>
</g>
<!-- Node23 -->
<g id="node45" class="node"><title>Node23</title>
<a xlink:href="class_kitware_1_1_v_t_k_1_1vtk_sparse_array_to_table.html" target="_top" xlink:title="vtkSparseArrayToTable &#45; Converts a sparse array to a vtkTable.">
<polygon fill="none" stroke="black" points="681,-242 681,-262 863,-262 863,-242 681,-242"/>
<text text-anchor="middle" x="772" y="-249" font-family="FreeSans" font-size="10.00">Kitware.VTK.vtkSparseArrayToTable</text>
</a>
</g>
<!-- Node1&#45;&gt;Node23 -->
<g id="edge44" class="edge"><title>Node1&#45;&gt;Node23</title>
<path fill="none" stroke="midnightblue" d="M545.949,-441.014C558.862,-401.398 593.447,-313.11 656,-271 663.533,-265.929 671.953,-262.046 680.722,-259.093"/>
<polygon fill="midnightblue" stroke="midnightblue" points="542.593,-440.021 542.939,-450.61 549.272,-442.116 542.593,-440.021"/>
</g>
<!-- Node24 -->
<g id="node47" class="node"><title>Node24</title>
<a xlink:href="class_kitware_1_1_v_t_k_1_1vtk_split_column_components.html" target="_top" xlink:title="vtkSplitColumnComponents &#45; split multicomponent table columns">
<polygon fill="none" stroke="black" points="667.5,-204 667.5,-224 876.5,-224 876.5,-204 667.5,-204"/>
<text text-anchor="middle" x="772" y="-211" font-family="FreeSans" font-size="10.00">Kitware.VTK.vtkSplitColumnComponents</text>
</a>
</g>
<!-- Node1&#45;&gt;Node24 -->
<g id="edge46" class="edge"><title>Node1&#45;&gt;Node24</title>
<path fill="none" stroke="midnightblue" d="M543.861,-440.888C553.685,-395.61 584.125,-285.543 656,-233 660.778,-229.507 665.961,-226.562 671.398,-224.085"/>
<polygon fill="midnightblue" stroke="midnightblue" points="540.429,-440.197 541.839,-450.698 547.285,-441.61 540.429,-440.197"/>
</g>
<!-- Node25 -->
<g id="node49" class="node"><title>Node25</title>
<a xlink:href="class_kitware_1_1_v_t_k_1_1vtk_s_q_l_database_table_source.html" target="_top" xlink:title="vtkSQLDatabaseTableSource &#45; Generates a vtkTable based on an SQL query.">
<polygon fill="none" stroke="black" points="665.5,-166 665.5,-186 878.5,-186 878.5,-166 665.5,-166"/>
<text text-anchor="middle" x="772" y="-173" font-family="FreeSans" font-size="10.00">Kitware.VTK.vtkSQLDatabaseTableSource</text>
</a>
</g>
<!-- Node1&#45;&gt;Node25 -->
<g id="edge48" class="edge"><title>Node1&#45;&gt;Node25</title>
<path fill="none" stroke="midnightblue" d="M542.317,-440.738C549.247,-390.229 574.656,-258.256 656,-195 660.511,-191.492 665.422,-188.525 670.593,-186.021"/>
<polygon fill="midnightblue" stroke="midnightblue" points="538.835,-440.374 541.046,-450.735 545.779,-441.257 538.835,-440.374"/>
</g>
<!-- Node26 -->
<g id="node51" class="node"><title>Node26</title>
<a xlink:href="class_kitware_1_1_v_t_k_1_1vtk_statistics_algorithm.html" target="_top" xlink:title="vtkStatisticsAlgorithm &#45; Base class for statistics algorithms">
<polygon fill="none" stroke="black" points="682,-128 682,-148 862,-148 862,-128 682,-128"/>
<text text-anchor="middle" x="772" y="-135" font-family="FreeSans" font-size="10.00">Kitware.VTK.vtkStatisticsAlgorithm</text>
</a>
</g>
<!-- Node1&#45;&gt;Node26 -->
<g id="edge50" class="edge"><title>Node1&#45;&gt;Node26</title>
<path fill="none" stroke="midnightblue" d="M541.119,-440.559C545.333,-385.132 565.076,-231.177 656,-157 663.59,-150.808 672.412,-146.27 681.737,-142.983"/>
<polygon fill="midnightblue" stroke="midnightblue" points="537.608,-440.617 540.436,-450.827 544.593,-441.081 537.608,-440.617"/>
</g>
<!-- Node47 -->
<g id="node93" class="node"><title>Node47</title>
<a xlink:href="class_kitware_1_1_v_t_k_1_1vtk_streaming_statistics.html" target="_top" xlink:title="vtkStreamingStatistics &#45; A class for using the statistics filters in a streaming mode.">
<polygon fill="none" stroke="black" points="680,-90 680,-110 864,-110 864,-90 680,-90"/>
<text text-anchor="middle" x="772" y="-97" font-family="FreeSans" font-size="10.00">Kitware.VTK.vtkStreamingStatistics</text>
</a>
</g>
<!-- Node1&#45;&gt;Node47 -->
<g id="edge92" class="edge"><title>Node1&#45;&gt;Node47</title>
<path fill="none" stroke="midnightblue" d="M544.005,-440.901C557.686,-374.299 604.569,-162.59 656,-119 663.006,-113.062 671.132,-108.625 679.77,-105.344"/>
<polygon fill="midnightblue" stroke="midnightblue" points="540.527,-440.446 541.97,-450.942 547.387,-441.837 540.527,-440.446"/>
</g>
<!-- Node48 -->
<g id="node95" class="node"><title>Node48</title>
<a xlink:href="class_kitware_1_1_v_t_k_1_1vtk_threshold_table.html" target="_top" xlink:title="vtkThresholdTable &#45; Thresholds table rows.">
<polygon fill="none" stroke="black" points="692,-52 692,-72 852,-72 852,-52 692,-52"/>
<text text-anchor="middle" x="772" y="-59" font-family="FreeSans" font-size="10.00">Kitware.VTK.vtkThresholdTable</text>
</a>
</g>
<!-- Node1&#45;&gt;Node48 -->
<g id="edge94" class="edge"><title>Node1&#45;&gt;Node48</title>
<path fill="none" stroke="midnightblue" d="M543.271,-441.025C555.334,-369.864 599.561,-130.345 656,-81 666.14,-72.1348 678.761,-66.5778 691.911,-63.2125"/>
<polygon fill="midnightblue" stroke="midnightblue" points="539.81,-440.505 541.615,-450.945 546.714,-441.659 539.81,-440.505"/>
</g>
<!-- Node2 -->
<g id="node2" class="node"><title>Node2</title>
<a xlink:href="class_kitware_1_1_v_t_k_1_1vtk_algorithm.html" target="_top" xlink:title="vtkAlgorithm &#45; Superclass for all sources, filters, and sinks in VTK.">
<polygon fill="none" stroke="black" points="346.5,-451 346.5,-471 423.5,-471 423.5,-451 346.5,-451"/>
<text text-anchor="middle" x="385" y="-458" font-family="FreeSans" font-size="10.00">vtkAlgorithm</text>
</a>
</g>
<!-- Node2&#45;&gt;Node1 -->
<g id="edge2" class="edge"><title>Node2&#45;&gt;Node1</title>
<path fill="none" stroke="midnightblue" d="M433.875,-461C442.138,-461 450.906,-461 459.722,-461"/>
<polygon fill="midnightblue" stroke="midnightblue" points="433.713,-457.5 423.713,-461 433.713,-464.5 433.713,-457.5"/>
</g>
<!-- Node3 -->
<g id="node4" class="node"><title>Node3</title>
<a xlink:href="class_kitware_1_1_v_t_k_1_1vtk_object.html" target="_top" xlink:title="vtkObject &#45; abstract base class for most VTK objects">
<polygon fill="none" stroke="black" points="248,-451 248,-471 310,-471 310,-451 248,-451"/>
<text text-anchor="middle" x="279" y="-458" font-family="FreeSans" font-size="10.00">vtkObject</text>
</a>
</g>
<!-- Node3&#45;&gt;Node2 -->
<g id="edge4" class="edge"><title>Node3&#45;&gt;Node2</title>
<path fill="none" stroke="midnightblue" d="M320.421,-461C329.001,-461 338.007,-461 346.479,-461"/>
<polygon fill="midnightblue" stroke="midnightblue" points="320.23,-457.5 310.23,-461 320.23,-464.5 320.23,-457.5"/>
</g>
<!-- Node4 -->
<g id="node6" class="node"><title>Node4</title>
<a xlink:href="class_kitware_1_1_v_t_k_1_1vtk_object_base.html" target="_top" xlink:title="vtkObjectBase &#45; abstract base class for most VTK objects">
<polygon fill="none" stroke="black" points="126,-451 126,-471 212,-471 212,-451 126,-451"/>
<text text-anchor="middle" x="169" y="-458" font-family="FreeSans" font-size="10.00">vtkObjectBase</text>
</a>
</g>
<!-- Node4&#45;&gt;Node3 -->
<g id="edge6" class="edge"><title>Node4&#45;&gt;Node3</title>
<path fill="none" stroke="midnightblue" d="M222.346,-461C231.091,-461 239.892,-461 247.863,-461"/>
<polygon fill="midnightblue" stroke="midnightblue" points="222.159,-457.5 212.159,-461 222.159,-464.5 222.159,-457.5"/>
</g>
<!-- Node5 -->
<g id="node8" class="node"><title>Node5</title>
<a xlink:href="class_kitware_1_1_v_t_k_1_1_wrapped_object.html" target="_top" xlink:title="Base class for all the mummy wrapped classes in Kitware.VTK.">
<polygon fill="none" stroke="black" points="0.5,-451 0.5,-471 89.5,-471 89.5,-451 0.5,-451"/>
<text text-anchor="middle" x="45" y="-458" font-family="FreeSans" font-size="10.00">WrappedObject</text>
</a>
</g>
<!-- Node5&#45;&gt;Node4 -->
<g id="edge8" class="edge"><title>Node5&#45;&gt;Node4</title>
<path fill="none" stroke="midnightblue" d="M99.8895,-461C108.623,-461 117.548,-461 125.957,-461"/>
<polygon fill="midnightblue" stroke="midnightblue" points="99.7669,-457.5 89.7668,-461 99.7668,-464.5 99.7669,-457.5"/>
</g>
<!-- Node9 -->
<g id="node17" class="node"><title>Node9</title>
<a xlink:href="class_kitware_1_1_v_t_k_1_1vtk_p_bivariate_linear_table_threshold.html" target="_top" xlink:title="vtkPBivariateLinearTableThreshold &#45; performs line&#45;based thresholding for vtkTable data in parallel...">
<polygon fill="none" stroke="black" points="924.5,-774 924.5,-794 1161.5,-794 1161.5,-774 924.5,-774"/>
<text text-anchor="middle" x="1043" y="-781" font-family="FreeSans" font-size="10.00">Kitware.VTK.vtkPBivariateLinearTableThreshold</text>
</a>
</g>
<!-- Node8&#45;&gt;Node9 -->
<g id="edge16" class="edge"><title>Node8&#45;&gt;Node9</title>
<path fill="none" stroke="midnightblue" d="M897.953,-784C906.703,-784 915.506,-784 924.216,-784"/>
<polygon fill="midnightblue" stroke="midnightblue" points="897.714,-780.5 887.714,-784 897.714,-787.5 897.714,-780.5"/>
</g>
<!-- Node27 -->
<g id="node53" class="node"><title>Node27</title>
<a xlink:href="class_kitware_1_1_v_t_k_1_1vtk_bivariate_statistics_algorithm.html" target="_top" xlink:title="vtkBivariateStatistics &#45; Base class for bivariate statistics algorithms">
<polygon fill="none" stroke="black" points="932,-237 932,-257 1154,-257 1154,-237 932,-237"/>
<text text-anchor="middle" x="1043" y="-244" font-family="FreeSans" font-size="10.00">Kitware.VTK.vtkBivariateStatisticsAlgorithm</text>
</a>
</g>
<!-- Node26&#45;&gt;Node27 -->
<g id="edge52" class="edge"><title>Node26&#45;&gt;Node27</title>
<path fill="none" stroke="midnightblue" d="M871.802,-148.753C877.467,-151.061 882.917,-153.786 888,-157 911.759,-172.022 901.406,-192.277 924,-209 942.216,-222.483 965.39,-231.29 986.438,-236.993"/>
<polygon fill="midnightblue" stroke="midnightblue" points="872.687,-145.352 862.092,-145.253 870.313,-151.937 872.687,-145.352"/>
</g>
<!-- Node34 -->
<g id="node67" class="node"><title>Node34</title>
<a xlink:href="class_kitware_1_1_v_t_k_1_1vtk_k_means_statistics.html" target="_top" xlink:title="vtkKMeansStatistics &#45; A class for KMeans clustering">
<polygon fill="none" stroke="black" points="957.5,-180 957.5,-200 1128.5,-200 1128.5,-180 957.5,-180"/>
<text text-anchor="middle" x="1043" y="-187" font-family="FreeSans" font-size="10.00">Kitware.VTK.vtkKMeansStatistics</text>
</a>
</g>
<!-- Node26&#45;&gt;Node34 -->
<g id="edge66" class="edge"><title>Node26&#45;&gt;Node34</title>
<path fill="none" stroke="midnightblue" d="M846.481,-149.663C860.304,-151.98 874.605,-154.479 888,-157 925.448,-164.049 967.744,-173.13 998.682,-179.981"/>
<polygon fill="midnightblue" stroke="midnightblue" points="846.959,-146.194 836.521,-148.011 845.813,-153.1 846.959,-146.194"/>
</g>
<!-- Node36 -->
<g id="node71" class="node"><title>Node36</title>
<a xlink:href="class_kitware_1_1_v_t_k_1_1vtk_multi_correlative_statistics.html" target="_top" xlink:title="vtkMultiCorrelativeStatistics &#45; A class for linear correlation">
<polygon fill="none" stroke="black" points="939,-128 939,-148 1147,-148 1147,-128 939,-128"/>
<text text-anchor="middle" x="1043" y="-135" font-family="FreeSans" font-size="10.00">Kitware.VTK.vtkMultiCorrelativeStatistics</text>
</a>
</g>
<!-- Node26&#45;&gt;Node36 -->
<g id="edge70" class="edge"><title>Node26&#45;&gt;Node36</title>
<path fill="none" stroke="midnightblue" d="M872.396,-138C893.996,-138 916.874,-138 938.621,-138"/>
<polygon fill="midnightblue" stroke="midnightblue" points="872.239,-134.5 862.239,-138 872.239,-141.5 872.239,-134.5"/>
</g>
<!-- Node40 -->
<g id="node79" class="node"><title>Node40</title>
<a xlink:href="class_kitware_1_1_v_t_k_1_1vtk_pairwise_extract_histogram2_d.html" target="_top" xlink:title="vtkPairwiseExtractHistogram2D &#45; compute a 2D histogram between all adjacent columns of an input vtkTa...">
<polygon fill="none" stroke="black" points="931,-76 931,-96 1155,-96 1155,-76 931,-76"/>
<text text-anchor="middle" x="1043" y="-83" font-family="FreeSans" font-size="10.00">Kitware.VTK.vtkPairwiseExtractHistogram2D</text>
</a>
</g>
<!-- Node26&#45;&gt;Node40 -->
<g id="edge78" class="edge"><title>Node26&#45;&gt;Node40</title>
<path fill="none" stroke="midnightblue" d="M846.481,-126.337C860.304,-124.02 874.605,-121.521 888,-119 925.448,-111.951 967.744,-102.87 998.682,-96.0193"/>
<polygon fill="midnightblue" stroke="midnightblue" points="845.813,-122.9 836.521,-127.989 846.959,-129.806 845.813,-122.9"/>
</g>
<!-- Node42 -->
<g id="node83" class="node"><title>Node42</title>
<a xlink:href="class_kitware_1_1_v_t_k_1_1vtk_univariate_statistics_algorithm.html" target="_top" xlink:title="vtkUnivariateStatistics &#45; Base class for univariate statistics algorithms">
<polygon fill="none" stroke="black" points="928.5,-38 928.5,-58 1157.5,-58 1157.5,-38 928.5,-38"/>
<text text-anchor="middle" x="1043" y="-45" font-family="FreeSans" font-size="10.00">Kitware.VTK.vtkUnivariateStatisticsAlgorithm</text>
</a>
</g>
<!-- Node26&#45;&gt;Node42 -->
<g id="edge82" class="edge"><title>Node26&#45;&gt;Node42</title>
<path fill="none" stroke="midnightblue" d="M871.802,-127.247C877.467,-124.939 882.917,-122.214 888,-119 911.759,-103.978 900.211,-81.9738 924,-67 929.577,-63.4894 935.584,-60.555 941.829,-58.1083"/>
<polygon fill="midnightblue" stroke="midnightblue" points="870.313,-124.063 862.092,-130.747 872.687,-130.648 870.313,-124.063"/>
</g>
<!-- Node28 -->
<g id="node55" class="node"><title>Node28</title>
<a xlink:href="class_kitware_1_1_v_t_k_1_1vtk_contingency_statistics.html" target="_top" xlink:title="vtkContingencyStatistics &#45; A class for correlation with contigency tables.">
<polygon fill="none" stroke="black" points="1216.5,-304 1216.5,-324 1409.5,-324 1409.5,-304 1216.5,-304"/>
<text text-anchor="middle" x="1313" y="-311" font-family="FreeSans" font-size="10.00">Kitware.VTK.vtkContingencyStatistics</text>
</a>
</g>
<!-- Node27&#45;&gt;Node28 -->
<g id="edge54" class="edge"><title>Node27&#45;&gt;Node28</title>
<path fill="none" stroke="midnightblue" d="M1080.83,-260.305C1111.97,-270.871 1157.43,-285.414 1198,-295 1212.38,-298.397 1227.9,-301.401 1242.76,-303.961"/>
<polygon fill="midnightblue" stroke="midnightblue" points="1081.84,-256.952 1071.25,-257.026 1079.57,-263.575 1081.84,-256.952"/>
</g>
<!-- Node30 -->
<g id="node59" class="node"><title>Node30</title>
<a xlink:href="class_kitware_1_1_v_t_k_1_1vtk_correlative_statistics.html" target="_top" xlink:title="vtkCorrelativeStatistics &#45; A class for linear correlation">
<polygon fill="none" stroke="black" points="1220.5,-266 1220.5,-286 1405.5,-286 1405.5,-266 1220.5,-266"/>
<text text-anchor="middle" x="1313" y="-273" font-family="FreeSans" font-size="10.00">Kitware.VTK.vtkCorrelativeStatistics</text>
</a>
</g>
<!-- Node27&#45;&gt;Node30 -->
<g id="edge58" class="edge"><title>Node27&#45;&gt;Node30</title>
<path fill="none" stroke="midnightblue" d="M1146.25,-258.09C1170.57,-260.702 1196.33,-263.469 1220.16,-266.028"/>
<polygon fill="midnightblue" stroke="midnightblue" points="1146.61,-254.609 1136.3,-257.021 1145.87,-261.569 1146.61,-254.609"/>
</g>
<!-- Node32 -->
<g id="node63" class="node"><title>Node32</title>
<a xlink:href="class_kitware_1_1_v_t_k_1_1vtk_extract_histogram2_d.html" target="_top" xlink:title="vtkExtractHistogram2D &#45; compute a 2D histogram between two columns of an input vtkTable.">
<polygon fill="none" stroke="black" points="1219.5,-228 1219.5,-248 1406.5,-248 1406.5,-228 1219.5,-228"/>
<text text-anchor="middle" x="1313" y="-235" font-family="FreeSans" font-size="10.00">Kitware.VTK.vtkExtractHistogram2D</text>
</a>
</g>
<!-- Node27&#45;&gt;Node32 -->
<g id="edge62" class="edge"><title>Node27&#45;&gt;Node32</title>
<path fill="none" stroke="midnightblue" d="M1164.58,-242.947C1183.01,-242.333 1201.78,-241.707 1219.5,-241.117"/>
<polygon fill="midnightblue" stroke="midnightblue" points="1164.26,-239.456 1154.38,-243.287 1164.49,-246.452 1164.26,-239.456"/>
</g>
<!-- Node29 -->
<g id="node57" class="node"><title>Node29</title>
<a xlink:href="class_kitware_1_1_v_t_k_1_1vtk_p_contingency_statistics.html" target="_top" xlink:title="vtkPContingencyStatistics &#45; A class for parallel bivariate contingency statistics">
<polygon fill="none" stroke="black" points="1464.5,-304 1464.5,-324 1663.5,-324 1663.5,-304 1464.5,-304"/>
<text text-anchor="middle" x="1564" y="-311" font-family="FreeSans" font-size="10.00">Kitware.VTK.vtkPContingencyStatistics</text>
</a>
</g>
<!-- Node28&#45;&gt;Node29 -->
<g id="edge56" class="edge"><title>Node28&#45;&gt;Node29</title>
<path fill="none" stroke="midnightblue" d="M1419.86,-314C1434.66,-314 1449.8,-314 1464.46,-314"/>
<polygon fill="midnightblue" stroke="midnightblue" points="1419.68,-310.5 1409.68,-314 1419.68,-317.5 1419.68,-310.5"/>
</g>
<!-- Node31 -->
<g id="node61" class="node"><title>Node31</title>
<a xlink:href="class_kitware_1_1_v_t_k_1_1vtk_p_correlative_statistics.html" target="_top" xlink:title="vtkPCorrelativeStatistics &#45; A class for parallel bivariate correlative statistics">
<polygon fill="none" stroke="black" points="1468.5,-266 1468.5,-286 1659.5,-286 1659.5,-266 1468.5,-266"/>
<text text-anchor="middle" x="1564" y="-273" font-family="FreeSans" font-size="10.00">Kitware.VTK.vtkPCorrelativeStatistics</text>
</a>
</g>
<!-- Node30&#45;&gt;Node31 -->
<g id="edge60" class="edge"><title>Node30&#45;&gt;Node31</title>
<path fill="none" stroke="midnightblue" d="M1415.87,-276C1433.21,-276 1451.13,-276 1468.27,-276"/>
<polygon fill="midnightblue" stroke="midnightblue" points="1415.75,-272.5 1405.75,-276 1415.75,-279.5 1415.75,-272.5"/>
</g>
<!-- Node33 -->
<g id="node65" class="node"><title>Node33</title>
<a xlink:href="class_kitware_1_1_v_t_k_1_1vtk_p_extract_histogram2_d.html" target="_top" xlink:title="vtkPExtractHistogram2D &#45; compute a 2D histogram between two columns of an input vtkTable in parallel...">
<polygon fill="none" stroke="black" points="1467.5,-228 1467.5,-248 1660.5,-248 1660.5,-228 1467.5,-228"/>
<text text-anchor="middle" x="1564" y="-235" font-family="FreeSans" font-size="10.00">Kitware.VTK.vtkPExtractHistogram2D</text>
</a>
</g>
<!-- Node32&#45;&gt;Node33 -->
<g id="edge64" class="edge"><title>Node32&#45;&gt;Node33</title>
<path fill="none" stroke="midnightblue" d="M1417.1,-238C1433.75,-238 1450.9,-238 1467.36,-238"/>
<polygon fill="midnightblue" stroke="midnightblue" points="1416.82,-234.5 1406.82,-238 1416.82,-241.5 1416.82,-234.5"/>
</g>
<!-- Node35 -->
<g id="node69" class="node"><title>Node35</title>
<a xlink:href="class_kitware_1_1_v_t_k_1_1vtk_p_k_means_statistics.html" target="_top" xlink:title="vtkPKMeansStatisitcs &#45; A class for parallel k means clustering">
<polygon fill="none" stroke="black" points="1224.5,-190 1224.5,-210 1401.5,-210 1401.5,-190 1224.5,-190"/>
<text text-anchor="middle" x="1313" y="-197" font-family="FreeSans" font-size="10.00">Kitware.VTK.vtkPKMeansStatistics</text>
</a>
</g>
<!-- Node34&#45;&gt;Node35 -->
<g id="edge68" class="edge"><title>Node34&#45;&gt;Node35</title>
<path fill="none" stroke="midnightblue" d="M1138.91,-193.552C1166.68,-194.581 1196.85,-195.698 1224.17,-196.71"/>
<polygon fill="midnightblue" stroke="midnightblue" points="1138.92,-190.05 1128.8,-193.178 1138.66,-197.046 1138.92,-190.05"/>
</g>
<!-- Node37 -->
<g id="node73" class="node"><title>Node37</title>
<a xlink:href="class_kitware_1_1_v_t_k_1_1vtk_p_c_a_statistics.html" target="_top" xlink:title="vtkPCAStatistics &#45; A class for principal component analysis">
<polygon fill="none" stroke="black" points="1236.5,-152 1236.5,-172 1389.5,-172 1389.5,-152 1236.5,-152"/>
<text text-anchor="middle" x="1313" y="-159" font-family="FreeSans" font-size="10.00">Kitware.VTK.vtkPCAStatistics</text>
</a>
</g>
<!-- Node36&#45;&gt;Node37 -->
<g id="edge72" class="edge"><title>Node36&#45;&gt;Node37</title>
<path fill="none" stroke="midnightblue" d="M1157.17,-148.149C1183.87,-150.522 1211.69,-152.994 1236.3,-155.182"/>
<polygon fill="midnightblue" stroke="midnightblue" points="1157.27,-144.644 1147,-147.245 1156.65,-151.616 1157.27,-144.644"/>
</g>
<!-- Node39 -->
<g id="node77" class="node"><title>Node39</title>
<a xlink:href="class_kitware_1_1_v_t_k_1_1vtk_p_multi_correlative_statistics.html" target="_top" xlink:title="vtkPMultiCorrelativeStatistics &#45; A class for parallel bivariate correlative statistics">
<polygon fill="none" stroke="black" points="1206,-114 1206,-134 1420,-134 1420,-114 1206,-114"/>
<text text-anchor="middle" x="1313" y="-121" font-family="FreeSans" font-size="10.00">Kitware.VTK.vtkPMultiCorrelativeStatistics</text>
</a>
</g>
<!-- Node36&#45;&gt;Node39 -->
<g id="edge76" class="edge"><title>Node36&#45;&gt;Node39</title>
<path fill="none" stroke="midnightblue" d="M1157.03,-132.087C1173.24,-131.247 1189.86,-130.385 1205.92,-129.552"/>
<polygon fill="midnightblue" stroke="midnightblue" points="1156.81,-128.594 1147,-132.607 1157.17,-135.585 1156.81,-128.594"/>
</g>
<!-- Node38 -->
<g id="node75" class="node"><title>Node38</title>
<a xlink:href="class_kitware_1_1_v_t_k_1_1vtk_p_p_c_a_statistics.html" target="_top" xlink:title="vtkPPCAStatistics &#45; A class for parallel principal component analysis">
<polygon fill="none" stroke="black" points="1484.5,-152 1484.5,-172 1643.5,-172 1643.5,-152 1484.5,-152"/>
<text text-anchor="middle" x="1564" y="-159" font-family="FreeSans" font-size="10.00">Kitware.VTK.vtkPPCAStatistics</text>
</a>
</g>
<!-- Node37&#45;&gt;Node38 -->
<g id="edge74" class="edge"><title>Node37&#45;&gt;Node38</title>
<path fill="none" stroke="midnightblue" d="M1400.02,-162C1427.4,-162 1457.48,-162 1484.32,-162"/>
<polygon fill="midnightblue" stroke="midnightblue" points="1399.67,-158.5 1389.67,-162 1399.67,-165.5 1399.67,-158.5"/>
</g>
<!-- Node41 -->
<g id="node81" class="node"><title>Node41</title>
<a xlink:href="class_kitware_1_1_v_t_k_1_1vtk_p_pairwise_extract_histogram2_d.html" target="_top" xlink:title="vtkPPairwiseExtractHistogram2D &#45; compute a 2D histogram between all adjacent columns of an input vtkT...">
<polygon fill="none" stroke="black" points="1198,-76 1198,-96 1428,-96 1428,-76 1198,-76"/>
<text text-anchor="middle" x="1313" y="-83" font-family="FreeSans" font-size="10.00">Kitware.VTK.vtkPPairwiseExtractHistogram2D</text>
</a>
</g>
<!-- Node40&#45;&gt;Node41 -->
<g id="edge80" class="edge"><title>Node40&#45;&gt;Node41</title>
<path fill="none" stroke="midnightblue" d="M1165.42,-86C1176.17,-86 1187.02,-86 1197.71,-86"/>
<polygon fill="midnightblue" stroke="midnightblue" points="1165.16,-82.5001 1155.16,-86 1165.16,-89.5001 1165.16,-82.5001"/>
</g>
<!-- Node43 -->
<g id="node85" class="node"><title>Node43</title>
<a xlink:href="class_kitware_1_1_v_t_k_1_1vtk_descriptive_statistics.html" target="_top" xlink:title="vtkDescriptiveStatistics &#45; A class for univariate descriptive statistics">
<polygon fill="none" stroke="black" points="1219.5,-38 1219.5,-58 1406.5,-58 1406.5,-38 1219.5,-38"/>
<text text-anchor="middle" x="1313" y="-45" font-family="FreeSans" font-size="10.00">Kitware.VTK.vtkDescriptiveStatistics</text>
</a>
</g>
<!-- Node42&#45;&gt;Node43 -->
<g id="edge84" class="edge"><title>Node42&#45;&gt;Node43</title>
<path fill="none" stroke="midnightblue" d="M1167.66,-48C1184.98,-48 1202.52,-48 1219.14,-48"/>
<polygon fill="midnightblue" stroke="midnightblue" points="1167.5,-44.5001 1157.5,-48 1167.5,-51.5001 1167.5,-44.5001"/>
</g>
<!-- Node45 -->
<g id="node89" class="node"><title>Node45</title>
<a xlink:href="class_kitware_1_1_v_t_k_1_1vtk_order_statistics.html" target="_top" xlink:title="vtkOrderStatistics &#45; A class for univariate order statistics">
<polygon fill="none" stroke="black" points="1232.5,-0 1232.5,-20 1393.5,-20 1393.5,-0 1232.5,-0"/>
<text text-anchor="middle" x="1313" y="-7" font-family="FreeSans" font-size="10.00">Kitware.VTK.vtkOrderStatistics</text>
</a>
</g>
<!-- Node42&#45;&gt;Node45 -->
<g id="edge88" class="edge"><title>Node42&#45;&gt;Node45</title>
<path fill="none" stroke="midnightblue" d="M1124.64,-36.5101C1161.97,-31.2555 1205.8,-25.0876 1241.78,-20.024"/>
<polygon fill="midnightblue" stroke="midnightblue" points="1123.71,-33.1066 1114.29,-37.9662 1124.68,-40.0383 1123.71,-33.1066"/>
</g>
<!-- Node44 -->
<g id="node87" class="node"><title>Node44</title>
<a xlink:href="class_kitware_1_1_v_t_k_1_1vtk_p_descriptive_statistics.html" target="_top" xlink:title="vtkPDescriptiveStatistics &#45; A class for parallel univariate descriptive statistics">
<polygon fill="none" stroke="black" points="1467.5,-38 1467.5,-58 1660.5,-58 1660.5,-38 1467.5,-38"/>
<text text-anchor="middle" x="1564" y="-45" font-family="FreeSans" font-size="10.00">Kitware.VTK.vtkPDescriptiveStatistics</text>
</a>
</g>
<!-- Node43&#45;&gt;Node44 -->
<g id="edge86" class="edge"><title>Node43&#45;&gt;Node44</title>
<path fill="none" stroke="midnightblue" d="M1417.1,-48C1433.75,-48 1450.9,-48 1467.36,-48"/>
<polygon fill="midnightblue" stroke="midnightblue" points="1416.82,-44.5001 1406.82,-48 1416.82,-51.5001 1416.82,-44.5001"/>
</g>
<!-- Node46 -->
<g id="node91" class="node"><title>Node46</title>
<a xlink:href="class_kitware_1_1_v_t_k_1_1vtk_p_order_statistics.html" target="_top" xlink:title="vtkPOrderStatistics &#45; A class for parallel univariate order statistics">
<polygon fill="none" stroke="black" points="1480.5,-0 1480.5,-20 1647.5,-20 1647.5,-0 1480.5,-0"/>
<text text-anchor="middle" x="1564" y="-7" font-family="FreeSans" font-size="10.00">Kitware.VTK.vtkPOrderStatistics</text>
</a>
</g>
<!-- Node45&#45;&gt;Node46 -->
<g id="edge90" class="edge"><title>Node45&#45;&gt;Node46</title>
<path fill="none" stroke="midnightblue" d="M1403.98,-10C1428.92,-10 1455.83,-10 1480.33,-10"/>
<polygon fill="midnightblue" stroke="midnightblue" points="1403.8,-6.5001 1393.8,-10 1403.8,-13.5001 1403.8,-6.5001"/>
</g>
</g>
</svg>
