<?xml version="1.0" encoding="UTF-8" standalone="no"?>
<!DOCTYPE svg PUBLIC "-//W3C//DTD SVG 1.1//EN"
 "http://www.w3.org/Graphics/SVG/1.1/DTD/svg11.dtd">
<!-- Generated by graphviz version 2.26.3 (20100126.1600)
 -->
<!-- Title: G Pages: 1 -->
<svg width="174pt" height="378pt"
 viewBox="0.00 0.00 174.00 378.00" xmlns="http://www.w3.org/2000/svg" xmlns:xlink="http://www.w3.org/1999/xlink">
<g id="graph1" class="graph" transform="scale(1 1) rotate(0) translate(4 374)">
<title>G</title>
<!-- Node1 -->
<g id="node1" class="node"><title>Node1</title>
<polygon fill="#bfbfbf" stroke="black" points="16,-59 16,-79 150,-79 150,-59 16,-59"/>
<text text-anchor="middle" x="83" y="-66" font-family="FreeSans" font-size="10.00">Kitware.VTK.vtkTextActor</text>
</g>
<!-- Node7 -->
<g id="node13" class="node"><title>Node7</title>
<a xlink:href="class_kitware_1_1_v_t_k_1_1vtk_scaled_text_actor.html" target="_top" xlink:title="vtkScaledTextActor &#45; create text that will scale as needed">
<polygon fill="none" stroke="black" points="0,-1 0,-21 166,-21 166,-1 0,-1"/>
<text text-anchor="middle" x="83" y="-8" font-family="FreeSans" font-size="10.00">Kitware.VTK.vtkScaledTextActor</text>
</a>
</g>
<!-- Node1&#45;&gt;Node7 -->
<g id="edge12" class="edge"><title>Node1&#45;&gt;Node7</title>
<path fill="none" stroke="midnightblue" d="M83,-48.8902C83,-39.6201 83,-29.0083 83,-21.3776"/>
<polygon fill="midnightblue" stroke="midnightblue" points="79.5001,-48.8971 83,-58.8972 86.5001,-48.8972 79.5001,-48.8971"/>
</g>
<!-- Node2 -->
<g id="node2" class="node"><title>Node2</title>
<a xlink:href="class_kitware_1_1_v_t_k_1_1vtk_actor2_d.html" target="_top" xlink:title="vtkActor2D &#45; a actor that draws 2D data">
<polygon fill="none" stroke="black" points="48,-117 48,-137 118,-137 118,-117 48,-117"/>
<text text-anchor="middle" x="83" y="-124" font-family="FreeSans" font-size="10.00">vtkActor2D</text>
</a>
</g>
<!-- Node2&#45;&gt;Node1 -->
<g id="edge2" class="edge"><title>Node2&#45;&gt;Node1</title>
<path fill="none" stroke="midnightblue" d="M83,-106.89C83,-97.6201 83,-87.0083 83,-79.3776"/>
<polygon fill="midnightblue" stroke="midnightblue" points="79.5001,-106.897 83,-116.897 86.5001,-106.897 79.5001,-106.897"/>
</g>
<!-- Node3 -->
<g id="node4" class="node"><title>Node3</title>
<a xlink:href="class_kitware_1_1_v_t_k_1_1vtk_prop.html" target="_top" xlink:title="vtkProp &#45; abstract superclass for all actors, volumes and annotations">
<polygon fill="none" stroke="black" points="56.5,-175 56.5,-195 109.5,-195 109.5,-175 56.5,-175"/>
<text text-anchor="middle" x="83" y="-182" font-family="FreeSans" font-size="10.00">vtkProp</text>
</a>
</g>
<!-- Node3&#45;&gt;Node2 -->
<g id="edge4" class="edge"><title>Node3&#45;&gt;Node2</title>
<path fill="none" stroke="midnightblue" d="M83,-164.89C83,-155.62 83,-145.008 83,-137.378"/>
<polygon fill="midnightblue" stroke="midnightblue" points="79.5001,-164.897 83,-174.897 86.5001,-164.897 79.5001,-164.897"/>
</g>
<!-- Node4 -->
<g id="node6" class="node"><title>Node4</title>
<a xlink:href="class_kitware_1_1_v_t_k_1_1vtk_object.html" target="_top" xlink:title="vtkObject &#45; abstract base class for most VTK objects">
<polygon fill="none" stroke="black" points="52,-233 52,-253 114,-253 114,-233 52,-233"/>
<text text-anchor="middle" x="83" y="-240" font-family="FreeSans" font-size="10.00">vtkObject</text>
</a>
</g>
<!-- Node4&#45;&gt;Node3 -->
<g id="edge6" class="edge"><title>Node4&#45;&gt;Node3</title>
<path fill="none" stroke="midnightblue" d="M83,-222.89C83,-213.62 83,-203.008 83,-195.378"/>
<polygon fill="midnightblue" stroke="midnightblue" points="79.5001,-222.897 83,-232.897 86.5001,-222.897 79.5001,-222.897"/>
</g>
<!-- Node5 -->
<g id="node8" class="node"><title>Node5</title>
<a xlink:href="class_kitware_1_1_v_t_k_1_1vtk_object_base.html" target="_top" xlink:title="vtkObjectBase &#45; abstract base class for most VTK objects">
<polygon fill="none" stroke="black" points="40,-291 40,-311 126,-311 126,-291 40,-291"/>
<text text-anchor="middle" x="83" y="-298" font-family="FreeSans" font-size="10.00">vtkObjectBase</text>
</a>
</g>
<!-- Node5&#45;&gt;Node4 -->
<g id="edge8" class="edge"><title>Node5&#45;&gt;Node4</title>
<path fill="none" stroke="midnightblue" d="M83,-280.89C83,-271.62 83,-261.008 83,-253.378"/>
<polygon fill="midnightblue" stroke="midnightblue" points="79.5001,-280.897 83,-290.897 86.5001,-280.897 79.5001,-280.897"/>
</g>
<!-- Node6 -->
<g id="node10" class="node"><title>Node6</title>
<a xlink:href="class_kitware_1_1_v_t_k_1_1_wrapped_object.html" target="_top" xlink:title="Base class for all the mummy wrapped classes in Kitware.VTK.">
<polygon fill="none" stroke="black" points="38.5,-349 38.5,-369 127.5,-369 127.5,-349 38.5,-349"/>
<text text-anchor="middle" x="83" y="-356" font-family="FreeSans" font-size="10.00">WrappedObject</text>
</a>
</g>
<!-- Node6&#45;&gt;Node5 -->
<g id="edge10" class="edge"><title>Node6&#45;&gt;Node5</title>
<path fill="none" stroke="midnightblue" d="M83,-338.89C83,-329.62 83,-319.008 83,-311.378"/>
<polygon fill="midnightblue" stroke="midnightblue" points="79.5001,-338.897 83,-348.897 86.5001,-338.897 79.5001,-338.897"/>
</g>
</g>
</svg>
