<?xml version="1.0" encoding="UTF-8" standalone="no"?>
<!DOCTYPE svg PUBLIC "-//W3C//DTD SVG 1.1//EN"
 "http://www.w3.org/Graphics/SVG/1.1/DTD/svg11.dtd">
<!-- Generated by graphviz version 2.26.3 (20100126.1600)
 -->
<!-- Title: G Pages: 1 -->
<svg width="433pt" height="890pt"
 viewBox="0.00 0.00 433.46 890.00" xmlns="http://www.w3.org/2000/svg" xmlns:xlink="http://www.w3.org/1999/xlink">
<g id="graph1" class="graph" transform="scale(1 1) rotate(0) translate(4 886)">
<title>G</title>
<!-- Node1 -->
<g id="node1" class="node"><title>Node1</title>
<polygon fill="#bfbfbf" stroke="black" points="-0.5,-1 -0.5,-21 194.5,-21 194.5,-1 -0.5,-1"/>
<text text-anchor="middle" x="97" y="-8" font-family="FreeSans" font-size="10.00">Kitware.VTK.vtkRTXMLPolyDataReader</text>
</g>
<!-- Node2 -->
<g id="node2" class="node"><title>Node2</title>
<a xlink:href="class_kitware_1_1_v_t_k_1_1vtk_x_m_l_poly_data_reader.html" target="_top" xlink:title="vtkXMLPolyDataReader &#45; Read VTK XML PolyData files.">
<polygon fill="none" stroke="black" points="34,-61 34,-81 160,-81 160,-61 34,-61"/>
<text text-anchor="middle" x="97" y="-68" font-family="FreeSans" font-size="10.00">vtkXMLPolyDataReader</text>
</a>
</g>
<!-- Node2&#45;&gt;Node1 -->
<g id="edge2" class="edge"><title>Node2&#45;&gt;Node1</title>
<path fill="none" stroke="midnightblue" d="M97,-50.5155C97,-40.562 97,-29.0495 97,-21.0279"/>
<polygon fill="midnightblue" stroke="midnightblue" points="93.5001,-50.8218 97,-60.8218 100.5,-50.8219 93.5001,-50.8218"/>
</g>
<!-- Node3 -->
<g id="node4" class="node"><title>Node3</title>
<a xlink:href="class_kitware_1_1_v_t_k_1_1vtk_x_m_l_unstructured_data_reader.html" target="_top" xlink:title="vtkXMLUnstructuredDataReader &#45; Superclass for unstructured data XML readers.">
<polygon fill="none" stroke="black" points="12.5,-121 12.5,-141 181.5,-141 181.5,-121 12.5,-121"/>
<text text-anchor="middle" x="97" y="-128" font-family="FreeSans" font-size="10.00">vtkXMLUnstructuredDataReader</text>
</a>
</g>
<!-- Node3&#45;&gt;Node2 -->
<g id="edge4" class="edge"><title>Node3&#45;&gt;Node2</title>
<path fill="none" stroke="midnightblue" d="M97,-110.516C97,-100.562 97,-89.0495 97,-81.0279"/>
<polygon fill="midnightblue" stroke="midnightblue" points="93.5001,-110.822 97,-120.822 100.5,-110.822 93.5001,-110.822"/>
</g>
<!-- Node4 -->
<g id="node6" class="node"><title>Node4</title>
<a xlink:href="class_kitware_1_1_v_t_k_1_1vtk_x_m_l_data_reader.html" target="_top" xlink:title="vtkXMLDataReader &#45; Superclass for VTK XML file readers.">
<polygon fill="none" stroke="black" points="43.5,-181 43.5,-201 150.5,-201 150.5,-181 43.5,-181"/>
<text text-anchor="middle" x="97" y="-188" font-family="FreeSans" font-size="10.00">vtkXMLDataReader</text>
</a>
</g>
<!-- Node4&#45;&gt;Node3 -->
<g id="edge6" class="edge"><title>Node4&#45;&gt;Node3</title>
<path fill="none" stroke="midnightblue" d="M97,-170.516C97,-160.562 97,-149.05 97,-141.028"/>
<polygon fill="midnightblue" stroke="midnightblue" points="93.5001,-170.822 97,-180.822 100.5,-170.822 93.5001,-170.822"/>
</g>
<!-- Node5 -->
<g id="node8" class="node"><title>Node5</title>
<a xlink:href="class_kitware_1_1_v_t_k_1_1vtk_x_m_l_reader.html" target="_top" xlink:title="vtkXMLReader &#45; Superclass for VTK&#39;s XML format readers.">
<polygon fill="none" stroke="black" points="55.5,-241 55.5,-261 138.5,-261 138.5,-241 55.5,-241"/>
<text text-anchor="middle" x="97" y="-248" font-family="FreeSans" font-size="10.00">vtkXMLReader</text>
</a>
</g>
<!-- Node5&#45;&gt;Node4 -->
<g id="edge8" class="edge"><title>Node5&#45;&gt;Node4</title>
<path fill="none" stroke="midnightblue" d="M97,-230.516C97,-220.562 97,-209.05 97,-201.028"/>
<polygon fill="midnightblue" stroke="midnightblue" points="93.5001,-230.822 97,-240.822 100.5,-230.822 93.5001,-230.822"/>
</g>
<!-- Node6 -->
<g id="node10" class="node"><title>Node6</title>
<a xlink:href="class_kitware_1_1_v_t_k_1_1vtk_algorithm.html" target="_top" xlink:title="vtkAlgorithm &#45; Superclass for all sources, filters, and sinks in VTK.">
<polygon fill="none" stroke="black" points="58.5,-301 58.5,-321 135.5,-321 135.5,-301 58.5,-301"/>
<text text-anchor="middle" x="97" y="-308" font-family="FreeSans" font-size="10.00">vtkAlgorithm</text>
</a>
</g>
<!-- Node6&#45;&gt;Node5 -->
<g id="edge10" class="edge"><title>Node6&#45;&gt;Node5</title>
<path fill="none" stroke="midnightblue" d="M97,-290.516C97,-280.562 97,-269.05 97,-261.028"/>
<polygon fill="midnightblue" stroke="midnightblue" points="93.5001,-290.822 97,-300.822 100.5,-290.822 93.5001,-290.822"/>
</g>
<!-- Node7 -->
<g id="node12" class="node"><title>Node7</title>
<a xlink:href="class_kitware_1_1_v_t_k_1_1vtk_object.html" target="_top" xlink:title="vtkObject &#45; abstract base class for most VTK objects">
<polygon fill="none" stroke="black" points="66,-361 66,-381 128,-381 128,-361 66,-361"/>
<text text-anchor="middle" x="97" y="-368" font-family="FreeSans" font-size="10.00">vtkObject</text>
</a>
</g>
<!-- Node7&#45;&gt;Node6 -->
<g id="edge12" class="edge"><title>Node7&#45;&gt;Node6</title>
<path fill="none" stroke="midnightblue" d="M97,-350.516C97,-340.562 97,-329.05 97,-321.028"/>
<polygon fill="midnightblue" stroke="midnightblue" points="93.5001,-350.822 97,-360.822 100.5,-350.822 93.5001,-350.822"/>
</g>
<!-- Node8 -->
<g id="node14" class="node"><title>Node8</title>
<a xlink:href="class_kitware_1_1_v_t_k_1_1vtk_object_base.html" target="_top" xlink:title="vtkObjectBase &#45; abstract base class for most VTK objects">
<polygon fill="none" stroke="black" points="117,-801 117,-821 203,-821 203,-801 117,-801"/>
<text text-anchor="middle" x="160" y="-808" font-family="FreeSans" font-size="10.00">vtkObjectBase</text>
</a>
</g>
<!-- Node8&#45;&gt;Node7 -->
<g id="edge14" class="edge"><title>Node8&#45;&gt;Node7</title>
<path fill="none" stroke="midnightblue" d="M131.423,-795.886C117.687,-787.44 101.884,-775.826 91,-762 79.1564,-746.955 78.6209,-740.802 75,-722 49.4248,-589.199 84.5766,-423.437 94.5155,-381.17"/>
<polygon fill="midnightblue" stroke="midnightblue" points="129.683,-798.923 140.079,-800.97 133.229,-792.887 129.683,-798.923"/>
</g>
<!-- Node11 -->
<g id="node21" class="node"><title>Node11</title>
<a xlink:href="class_kitware_1_1_v_t_k_1_1vtk_object.html" target="_top" xlink:title="vtkObject &#45; abstract base class for most VTK objects">
<polygon fill="none" stroke="black" points="100,-741 100,-761 220,-761 220,-741 100,-741"/>
<text text-anchor="middle" x="160" y="-748" font-family="FreeSans" font-size="10.00">Kitware.VTK.vtkObject</text>
</a>
</g>
<!-- Node8&#45;&gt;Node11 -->
<g id="edge24" class="edge"><title>Node8&#45;&gt;Node11</title>
<path fill="none" stroke="midnightblue" d="M160,-790.516C160,-780.562 160,-769.05 160,-761.028"/>
<polygon fill="midnightblue" stroke="midnightblue" points="156.5,-790.822 160,-800.822 163.5,-790.822 156.5,-790.822"/>
</g>
<!-- Node9 -->
<g id="node16" class="node"><title>Node9</title>
<a xlink:href="class_kitware_1_1_v_t_k_1_1_wrapped_object.html" target="_top" xlink:title="Base class for all the mummy wrapped classes in Kitware.VTK.">
<polygon fill="none" stroke="black" points="298.5,-861 298.5,-881 387.5,-881 387.5,-861 298.5,-861"/>
<text text-anchor="middle" x="343" y="-868" font-family="FreeSans" font-size="10.00">WrappedObject</text>
</a>
</g>
<!-- Node9&#45;&gt;Node8 -->
<g id="edge16" class="edge"><title>Node9&#45;&gt;Node8</title>
<path fill="none" stroke="midnightblue" d="M302.804,-857.821C269.042,-846.752 221.512,-831.168 190.73,-821.075"/>
<polygon fill="midnightblue" stroke="midnightblue" points="301.777,-861.168 312.37,-860.957 303.958,-854.516 301.777,-861.168"/>
</g>
<!-- Node10 -->
<g id="node18" class="node"><title>Node10</title>
<a xlink:href="class_kitware_1_1_v_t_k_1_1vtk_object_event_relay.html" target="_top" xlink:title="Implement a relay handler for VTK events. This is a class that receives events directly from the VTK ...">
<polygon fill="none" stroke="black" points="89,-551 89,-571 261,-571 261,-551 89,-551"/>
<text text-anchor="middle" x="175" y="-558" font-family="FreeSans" font-size="10.00">Kitware.VTK.vtkObjectEventRelay</text>
</a>
</g>
<!-- Node9&#45;&gt;Node10 -->
<g id="edge20" class="edge"><title>Node9&#45;&gt;Node10</title>
<path fill="none" stroke="midnightblue" d="M355.888,-852.325C388.276,-802.899 465.803,-667.191 398,-590 388.773,-579.495 320.047,-571.666 261.298,-566.808"/>
<polygon fill="midnightblue" stroke="midnightblue" points="352.891,-850.509 350.239,-860.767 358.709,-854.402 352.891,-850.509"/>
</g>
<!-- Node10&#45;&gt;Node7 -->
<g id="edge18" class="edge"><title>Node10&#45;&gt;Node7</title>
<path fill="none" stroke="#9a32cd" stroke-dasharray="5,2" d="M166.921,-541.321C150.489,-501.293 113.674,-411.616 101.214,-381.266"/>
<polygon fill="#9a32cd" stroke="#9a32cd" points="163.771,-542.863 170.806,-550.785 170.246,-540.205 163.771,-542.863"/>
<text text-anchor="middle" x="274.5" y="-523" font-family="FreeSans" font-size="10.00"> LeftButtonReleaseEvtRelay</text>
<text text-anchor="middle" x="274.5" y="-511" font-family="FreeSans" font-size="10.00">KeyPressEvtRelay</text>
<text text-anchor="middle" x="274.5" y="-499" font-family="FreeSans" font-size="10.00">DomainModifiedEvtRelay</text>
<text text-anchor="middle" x="274.5" y="-487" font-family="FreeSans" font-size="10.00">VolumeMapperComputeGradientsStartEvtRelay</text>
<text text-anchor="middle" x="274.5" y="-475" font-family="FreeSans" font-size="10.00">ErrorEvtRelay</text>
<text text-anchor="middle" x="274.5" y="-463" font-family="FreeSans" font-size="10.00">VolumeMapperRenderStartEvtRelay</text>
<text text-anchor="middle" x="274.5" y="-451" font-family="FreeSans" font-size="10.00">StartEvtRelay</text>
<text text-anchor="middle" x="274.5" y="-439" font-family="FreeSans" font-size="10.00">ResetCameraEvtRelay</text>
<text text-anchor="middle" x="274.5" y="-427" font-family="FreeSans" font-size="10.00">EnableEvtRelay</text>
<text text-anchor="middle" x="274.5" y="-415" font-family="FreeSans" font-size="10.00">DeleteEvtRelay</text>
<text text-anchor="middle" x="274.5" y="-403" font-family="FreeSans" font-size="10.00">...</text>
</g>
<!-- Node10&#45;&gt;Node11 -->
<g id="edge26" class="edge"><title>Node10&#45;&gt;Node11</title>
<path fill="none" stroke="#9a32cd" stroke-dasharray="5,2" d="M172.028,-581.231C171.649,-584.169 171.293,-587.159 171,-590 165.144,-646.853 161.636,-715.333 160.452,-740.807"/>
<polygon fill="#9a32cd" stroke="#9a32cd" points="175.515,-581.565 173.421,-571.179 168.582,-580.604 175.515,-581.565"/>
<text text-anchor="middle" x="284.5" y="-713" font-family="FreeSans" font-size="10.00"> LeftButtonReleaseEvtRelay</text>
<text text-anchor="middle" x="284.5" y="-701" font-family="FreeSans" font-size="10.00">KeyPressEvtRelay</text>
<text text-anchor="middle" x="284.5" y="-689" font-family="FreeSans" font-size="10.00">DomainModifiedEvtRelay</text>
<text text-anchor="middle" x="284.5" y="-677" font-family="FreeSans" font-size="10.00">VolumeMapperComputeGradientsStartEvtRelay</text>
<text text-anchor="middle" x="284.5" y="-665" font-family="FreeSans" font-size="10.00">ErrorEvtRelay</text>
<text text-anchor="middle" x="284.5" y="-653" font-family="FreeSans" font-size="10.00">VolumeMapperRenderStartEvtRelay</text>
<text text-anchor="middle" x="284.5" y="-641" font-family="FreeSans" font-size="10.00">StartEvtRelay</text>
<text text-anchor="middle" x="284.5" y="-629" font-family="FreeSans" font-size="10.00">ResetCameraEvtRelay</text>
<text text-anchor="middle" x="284.5" y="-617" font-family="FreeSans" font-size="10.00">EnableEvtRelay</text>
<text text-anchor="middle" x="284.5" y="-605" font-family="FreeSans" font-size="10.00">DeleteEvtRelay</text>
<text text-anchor="middle" x="284.5" y="-593" font-family="FreeSans" font-size="10.00">...</text>
</g>
<!-- Node11&#45;&gt;Node10 -->
<g id="edge22" class="edge"><title>Node11&#45;&gt;Node10</title>
<path fill="none" stroke="#9a32cd" stroke-dasharray="5,2" d="M113.979,-735.818C108.439,-732.138 103.51,-727.596 100,-722 68.8229,-672.303 66.8299,-638.389 100,-590 104.736,-583.091 121.511,-576.287 137.999,-571.008"/>
<polygon fill="#9a32cd" stroke="#9a32cd" points="112.639,-739.079 123.072,-740.919 116.064,-732.974 112.639,-739.079"/>
<text text-anchor="middle" x="124" y="-659" font-family="FreeSans" font-size="10.00"> Sender</text>
<text text-anchor="middle" x="124" y="-647" font-family="FreeSans" font-size="10.00">EventImpl</text>
</g>
</g>
</svg>
