<?xml version="1.0" encoding="UTF-8" standalone="no"?>
<!DOCTYPE svg PUBLIC "-//W3C//DTD SVG 1.1//EN"
 "http://www.w3.org/Graphics/SVG/1.1/DTD/svg11.dtd">
<!-- Generated by graphviz version 2.26.3 (20100126.1600)
 -->
<!-- Title: G Pages: 1 -->
<svg width="342pt" height="378pt"
 viewBox="0.00 0.00 342.00 378.00" xmlns="http://www.w3.org/2000/svg" xmlns:xlink="http://www.w3.org/1999/xlink">
<g id="graph1" class="graph" transform="scale(1 1) rotate(0) translate(4 374)">
<title>G</title>
<!-- Node1 -->
<g id="node1" class="node"><title>Node1</title>
<polygon fill="#bfbfbf" stroke="black" points="101.5,-59 101.5,-79 244.5,-79 244.5,-59 101.5,-59"/>
<text text-anchor="middle" x="173" y="-66" font-family="FreeSans" font-size="10.00">Kitware.VTK.vtkImageData</text>
</g>
<!-- Node7 -->
<g id="node13" class="node"><title>Node7</title>
<a xlink:href="class_kitware_1_1_v_t_k_1_1vtk_structured_points.html" target="_top" xlink:title="vtkStructuredPoints &#45; A subclass of ImageData.">
<polygon fill="none" stroke="black" points="0,-1 0,-21 170,-21 170,-1 0,-1"/>
<text text-anchor="middle" x="85" y="-8" font-family="FreeSans" font-size="10.00">Kitware.VTK.vtkStructuredPoints</text>
</a>
</g>
<!-- Node1&#45;&gt;Node7 -->
<g id="edge12" class="edge"><title>Node1&#45;&gt;Node7</title>
<path fill="none" stroke="midnightblue" d="M149.122,-53.2619C133.633,-43.0535 113.905,-30.051 100.448,-21.1817"/>
<polygon fill="midnightblue" stroke="midnightblue" points="147.396,-56.3164 157.672,-58.8972 151.248,-50.4716 147.396,-56.3164"/>
</g>
<!-- Node8 -->
<g id="node15" class="node"><title>Node8</title>
<a xlink:href="class_kitware_1_1_v_t_k_1_1vtk_uniform_grid.html" target="_top" xlink:title="vtkUniformGrid &#45; image data with blanking">
<polygon fill="none" stroke="black" points="187.5,-1 187.5,-21 334.5,-21 334.5,-1 187.5,-1"/>
<text text-anchor="middle" x="261" y="-8" font-family="FreeSans" font-size="10.00">Kitware.VTK.vtkUniformGrid</text>
</a>
</g>
<!-- Node1&#45;&gt;Node8 -->
<g id="edge14" class="edge"><title>Node1&#45;&gt;Node8</title>
<path fill="none" stroke="midnightblue" d="M196.878,-53.2619C212.367,-43.0535 232.095,-30.051 245.552,-21.1817"/>
<polygon fill="midnightblue" stroke="midnightblue" points="194.752,-50.4716 188.328,-58.8972 198.604,-56.3164 194.752,-50.4716"/>
</g>
<!-- Node2 -->
<g id="node2" class="node"><title>Node2</title>
<a xlink:href="class_kitware_1_1_v_t_k_1_1vtk_data_set.html" target="_top" xlink:title="vtkDataSet &#45; abstract class to specify dataset behavior">
<polygon fill="none" stroke="black" points="137.5,-117 137.5,-137 208.5,-137 208.5,-117 137.5,-117"/>
<text text-anchor="middle" x="173" y="-124" font-family="FreeSans" font-size="10.00">vtkDataSet</text>
</a>
</g>
<!-- Node2&#45;&gt;Node1 -->
<g id="edge2" class="edge"><title>Node2&#45;&gt;Node1</title>
<path fill="none" stroke="midnightblue" d="M173,-106.89C173,-97.6201 173,-87.0083 173,-79.3776"/>
<polygon fill="midnightblue" stroke="midnightblue" points="169.5,-106.897 173,-116.897 176.5,-106.897 169.5,-106.897"/>
</g>
<!-- Node3 -->
<g id="node4" class="node"><title>Node3</title>
<a xlink:href="class_kitware_1_1_v_t_k_1_1vtk_data_object.html" target="_top" xlink:title="vtkDataObject &#45; general representation of visualization data">
<polygon fill="none" stroke="black" points="130.5,-175 130.5,-195 215.5,-195 215.5,-175 130.5,-175"/>
<text text-anchor="middle" x="173" y="-182" font-family="FreeSans" font-size="10.00">vtkDataObject</text>
</a>
</g>
<!-- Node3&#45;&gt;Node2 -->
<g id="edge4" class="edge"><title>Node3&#45;&gt;Node2</title>
<path fill="none" stroke="midnightblue" d="M173,-164.89C173,-155.62 173,-145.008 173,-137.378"/>
<polygon fill="midnightblue" stroke="midnightblue" points="169.5,-164.897 173,-174.897 176.5,-164.897 169.5,-164.897"/>
</g>
<!-- Node4 -->
<g id="node6" class="node"><title>Node4</title>
<a xlink:href="class_kitware_1_1_v_t_k_1_1vtk_object.html" target="_top" xlink:title="vtkObject &#45; abstract base class for most VTK objects">
<polygon fill="none" stroke="black" points="142,-233 142,-253 204,-253 204,-233 142,-233"/>
<text text-anchor="middle" x="173" y="-240" font-family="FreeSans" font-size="10.00">vtkObject</text>
</a>
</g>
<!-- Node4&#45;&gt;Node3 -->
<g id="edge6" class="edge"><title>Node4&#45;&gt;Node3</title>
<path fill="none" stroke="midnightblue" d="M173,-222.89C173,-213.62 173,-203.008 173,-195.378"/>
<polygon fill="midnightblue" stroke="midnightblue" points="169.5,-222.897 173,-232.897 176.5,-222.897 169.5,-222.897"/>
</g>
<!-- Node5 -->
<g id="node8" class="node"><title>Node5</title>
<a xlink:href="class_kitware_1_1_v_t_k_1_1vtk_object_base.html" target="_top" xlink:title="vtkObjectBase &#45; abstract base class for most VTK objects">
<polygon fill="none" stroke="black" points="130,-291 130,-311 216,-311 216,-291 130,-291"/>
<text text-anchor="middle" x="173" y="-298" font-family="FreeSans" font-size="10.00">vtkObjectBase</text>
</a>
</g>
<!-- Node5&#45;&gt;Node4 -->
<g id="edge8" class="edge"><title>Node5&#45;&gt;Node4</title>
<path fill="none" stroke="midnightblue" d="M173,-280.89C173,-271.62 173,-261.008 173,-253.378"/>
<polygon fill="midnightblue" stroke="midnightblue" points="169.5,-280.897 173,-290.897 176.5,-280.897 169.5,-280.897"/>
</g>
<!-- Node6 -->
<g id="node10" class="node"><title>Node6</title>
<a xlink:href="class_kitware_1_1_v_t_k_1_1_wrapped_object.html" target="_top" xlink:title="Base class for all the mummy wrapped classes in Kitware.VTK.">
<polygon fill="none" stroke="black" points="128.5,-349 128.5,-369 217.5,-369 217.5,-349 128.5,-349"/>
<text text-anchor="middle" x="173" y="-356" font-family="FreeSans" font-size="10.00">WrappedObject</text>
</a>
</g>
<!-- Node6&#45;&gt;Node5 -->
<g id="edge10" class="edge"><title>Node6&#45;&gt;Node5</title>
<path fill="none" stroke="midnightblue" d="M173,-338.89C173,-329.62 173,-319.008 173,-311.378"/>
<polygon fill="midnightblue" stroke="midnightblue" points="169.5,-338.897 173,-348.897 176.5,-338.897 169.5,-338.897"/>
</g>
</g>
</svg>
