<?xml version="1.0" encoding="UTF-8" standalone="no"?>
<!DOCTYPE svg PUBLIC "-//W3C//DTD SVG 1.1//EN"
 "http://www.w3.org/Graphics/SVG/1.1/DTD/svg11.dtd">
<!-- Generated by graphviz version 2.26.3 (20100126.1600)
 -->
<!-- Title: G Pages: 1 -->
<svg width="214pt" height="378pt"
 viewBox="0.00 0.00 214.00 378.00" xmlns="http://www.w3.org/2000/svg" xmlns:xlink="http://www.w3.org/1999/xlink">
<g id="graph1" class="graph" transform="scale(1 1) rotate(0) translate(4 374)">
<title>G</title>
<!-- Node1 -->
<g id="node1" class="node"><title>Node1</title>
<polygon fill="#bfbfbf" stroke="black" points="0,-59 0,-79 206,-79 206,-59 0,-59"/>
<text text-anchor="middle" x="103" y="-66" font-family="FreeSans" font-size="10.00">Kitware.VTK.vtkUnsignedLongLongArray</text>
</g>
<!-- Node7 -->
<g id="node13" class="node"><title>Node7</title>
<a xlink:href="class_kitware_1_1_v_t_k_1_1vtk_type_u_int64_array.html" target="_top" xlink:title="vtkTypeUInt64Array &#45; dynamic, self&#45;adjusting array of vtkTypeUInt64">
<polygon fill="none" stroke="black" points="19.5,-1 19.5,-21 186.5,-21 186.5,-1 19.5,-1"/>
<text text-anchor="middle" x="103" y="-8" font-family="FreeSans" font-size="10.00">Kitware.VTK.vtkTypeUInt64Array</text>
</a>
</g>
<!-- Node1&#45;&gt;Node7 -->
<g id="edge12" class="edge"><title>Node1&#45;&gt;Node7</title>
<path fill="none" stroke="midnightblue" d="M103,-48.8902C103,-39.6201 103,-29.0083 103,-21.3776"/>
<polygon fill="midnightblue" stroke="midnightblue" points="99.5001,-48.8971 103,-58.8972 106.5,-48.8972 99.5001,-48.8971"/>
</g>
<!-- Node2 -->
<g id="node2" class="node"><title>Node2</title>
<a xlink:href="class_kitware_1_1_v_t_k_1_1vtk_data_array.html" target="_top" xlink:title="vtkDataArray &#45; abstract superclass for arrays of numeric data">
<polygon fill="none" stroke="black" points="63,-117 63,-137 143,-137 143,-117 63,-117"/>
<text text-anchor="middle" x="103" y="-124" font-family="FreeSans" font-size="10.00">vtkDataArray</text>
</a>
</g>
<!-- Node2&#45;&gt;Node1 -->
<g id="edge2" class="edge"><title>Node2&#45;&gt;Node1</title>
<path fill="none" stroke="midnightblue" d="M103,-106.89C103,-97.6201 103,-87.0083 103,-79.3776"/>
<polygon fill="midnightblue" stroke="midnightblue" points="99.5001,-106.897 103,-116.897 106.5,-106.897 99.5001,-106.897"/>
</g>
<!-- Node3 -->
<g id="node4" class="node"><title>Node3</title>
<a xlink:href="class_kitware_1_1_v_t_k_1_1vtk_abstract_array.html" target="_top" xlink:title="vtkAbstractArray &#45; Abstract superclass for all arrays">
<polygon fill="none" stroke="black" points="54.5,-175 54.5,-195 151.5,-195 151.5,-175 54.5,-175"/>
<text text-anchor="middle" x="103" y="-182" font-family="FreeSans" font-size="10.00">vtkAbstractArray</text>
</a>
</g>
<!-- Node3&#45;&gt;Node2 -->
<g id="edge4" class="edge"><title>Node3&#45;&gt;Node2</title>
<path fill="none" stroke="midnightblue" d="M103,-164.89C103,-155.62 103,-145.008 103,-137.378"/>
<polygon fill="midnightblue" stroke="midnightblue" points="99.5001,-164.897 103,-174.897 106.5,-164.897 99.5001,-164.897"/>
</g>
<!-- Node4 -->
<g id="node6" class="node"><title>Node4</title>
<a xlink:href="class_kitware_1_1_v_t_k_1_1vtk_object.html" target="_top" xlink:title="vtkObject &#45; abstract base class for most VTK objects">
<polygon fill="none" stroke="black" points="72,-233 72,-253 134,-253 134,-233 72,-233"/>
<text text-anchor="middle" x="103" y="-240" font-family="FreeSans" font-size="10.00">vtkObject</text>
</a>
</g>
<!-- Node4&#45;&gt;Node3 -->
<g id="edge6" class="edge"><title>Node4&#45;&gt;Node3</title>
<path fill="none" stroke="midnightblue" d="M103,-222.89C103,-213.62 103,-203.008 103,-195.378"/>
<polygon fill="midnightblue" stroke="midnightblue" points="99.5001,-222.897 103,-232.897 106.5,-222.897 99.5001,-222.897"/>
</g>
<!-- Node5 -->
<g id="node8" class="node"><title>Node5</title>
<a xlink:href="class_kitware_1_1_v_t_k_1_1vtk_object_base.html" target="_top" xlink:title="vtkObjectBase &#45; abstract base class for most VTK objects">
<polygon fill="none" stroke="black" points="60,-291 60,-311 146,-311 146,-291 60,-291"/>
<text text-anchor="middle" x="103" y="-298" font-family="FreeSans" font-size="10.00">vtkObjectBase</text>
</a>
</g>
<!-- Node5&#45;&gt;Node4 -->
<g id="edge8" class="edge"><title>Node5&#45;&gt;Node4</title>
<path fill="none" stroke="midnightblue" d="M103,-280.89C103,-271.62 103,-261.008 103,-253.378"/>
<polygon fill="midnightblue" stroke="midnightblue" points="99.5001,-280.897 103,-290.897 106.5,-280.897 99.5001,-280.897"/>
</g>
<!-- Node6 -->
<g id="node10" class="node"><title>Node6</title>
<a xlink:href="class_kitware_1_1_v_t_k_1_1_wrapped_object.html" target="_top" xlink:title="Base class for all the mummy wrapped classes in Kitware.VTK.">
<polygon fill="none" stroke="black" points="58.5,-349 58.5,-369 147.5,-369 147.5,-349 58.5,-349"/>
<text text-anchor="middle" x="103" y="-356" font-family="FreeSans" font-size="10.00">WrappedObject</text>
</a>
</g>
<!-- Node6&#45;&gt;Node5 -->
<g id="edge10" class="edge"><title>Node6&#45;&gt;Node5</title>
<path fill="none" stroke="midnightblue" d="M103,-338.89C103,-329.62 103,-319.008 103,-311.378"/>
<polygon fill="midnightblue" stroke="midnightblue" points="99.5001,-338.897 103,-348.897 106.5,-338.897 99.5001,-338.897"/>
</g>
</g>
</svg>
