<?xml version="1.0" encoding="UTF-8" standalone="no"?>
<!DOCTYPE svg PUBLIC "-//W3C//DTD SVG 1.1//EN"
 "http://www.w3.org/Graphics/SVG/1.1/DTD/svg11.dtd">
<!-- Generated by graphviz version 2.26.3 (20100126.1600)
 -->
<!-- Title: G Pages: 1 -->
<svg width="463pt" height="830pt"
 viewBox="0.00 0.00 463.46 830.00" xmlns="http://www.w3.org/2000/svg" xmlns:xlink="http://www.w3.org/1999/xlink">
<g id="graph1" class="graph" transform="scale(1 1) rotate(0) translate(4 826)">
<title>G</title>
<!-- Node1 -->
<g id="node1" class="node"><title>Node1</title>
<polygon fill="#bfbfbf" stroke="black" points="0,-1 0,-21 254,-21 254,-1 0,-1"/>
<text text-anchor="middle" x="127" y="-8" font-family="FreeSans" font-size="10.00">Kitware.VTK.vtkPolygonalHandleRepresentation3D</text>
</g>
<!-- Node2 -->
<g id="node2" class="node"><title>Node2</title>
<a xlink:href="class_kitware_1_1_v_t_k_1_1vtk_abstract_polygonal_handle_representation3_d.html" target="_top" xlink:title="vtkAbstractPolygonalHandleRepresentation3D &#45; represent a user defined handle geometry in 3D while mai...">
<polygon fill="none" stroke="black" points="9,-61 9,-81 245,-81 245,-61 9,-61"/>
<text text-anchor="middle" x="127" y="-68" font-family="FreeSans" font-size="10.00">vtkAbstractPolygonalHandleRepresentation3D</text>
</a>
</g>
<!-- Node2&#45;&gt;Node1 -->
<g id="edge2" class="edge"><title>Node2&#45;&gt;Node1</title>
<path fill="none" stroke="midnightblue" d="M127,-50.5155C127,-40.562 127,-29.0495 127,-21.0279"/>
<polygon fill="midnightblue" stroke="midnightblue" points="123.5,-50.8218 127,-60.8218 130.5,-50.8219 123.5,-50.8218"/>
</g>
<!-- Node3 -->
<g id="node4" class="node"><title>Node3</title>
<a xlink:href="class_kitware_1_1_v_t_k_1_1vtk_handle_representation.html" target="_top" xlink:title="vtkHandleRepresentation &#45; abstract class for representing widget handles">
<polygon fill="none" stroke="black" points="58.5,-121 58.5,-141 195.5,-141 195.5,-121 58.5,-121"/>
<text text-anchor="middle" x="127" y="-128" font-family="FreeSans" font-size="10.00">vtkHandleRepresentation</text>
</a>
</g>
<!-- Node3&#45;&gt;Node2 -->
<g id="edge4" class="edge"><title>Node3&#45;&gt;Node2</title>
<path fill="none" stroke="midnightblue" d="M127,-110.516C127,-100.562 127,-89.0495 127,-81.0279"/>
<polygon fill="midnightblue" stroke="midnightblue" points="123.5,-110.822 127,-120.822 130.5,-110.822 123.5,-110.822"/>
</g>
<!-- Node4 -->
<g id="node6" class="node"><title>Node4</title>
<a xlink:href="class_kitware_1_1_v_t_k_1_1vtk_widget_representation.html" target="_top" xlink:title="vtkWidgetRepresentation &#45; abstract class defines interface between the widget and widget representati...">
<polygon fill="none" stroke="black" points="59.5,-181 59.5,-201 194.5,-201 194.5,-181 59.5,-181"/>
<text text-anchor="middle" x="127" y="-188" font-family="FreeSans" font-size="10.00">vtkWidgetRepresentation</text>
</a>
</g>
<!-- Node4&#45;&gt;Node3 -->
<g id="edge6" class="edge"><title>Node4&#45;&gt;Node3</title>
<path fill="none" stroke="midnightblue" d="M127,-170.516C127,-160.562 127,-149.05 127,-141.028"/>
<polygon fill="midnightblue" stroke="midnightblue" points="123.5,-170.822 127,-180.822 130.5,-170.822 123.5,-170.822"/>
</g>
<!-- Node5 -->
<g id="node8" class="node"><title>Node5</title>
<a xlink:href="class_kitware_1_1_v_t_k_1_1vtk_prop.html" target="_top" xlink:title="vtkProp &#45; abstract superclass for all actors, volumes and annotations">
<polygon fill="none" stroke="black" points="100.5,-241 100.5,-261 153.5,-261 153.5,-241 100.5,-241"/>
<text text-anchor="middle" x="127" y="-248" font-family="FreeSans" font-size="10.00">vtkProp</text>
</a>
</g>
<!-- Node5&#45;&gt;Node4 -->
<g id="edge8" class="edge"><title>Node5&#45;&gt;Node4</title>
<path fill="none" stroke="midnightblue" d="M127,-230.516C127,-220.562 127,-209.05 127,-201.028"/>
<polygon fill="midnightblue" stroke="midnightblue" points="123.5,-230.822 127,-240.822 130.5,-230.822 123.5,-230.822"/>
</g>
<!-- Node6 -->
<g id="node10" class="node"><title>Node6</title>
<a xlink:href="class_kitware_1_1_v_t_k_1_1vtk_object.html" target="_top" xlink:title="vtkObject &#45; abstract base class for most VTK objects">
<polygon fill="none" stroke="black" points="96,-301 96,-321 158,-321 158,-301 96,-301"/>
<text text-anchor="middle" x="127" y="-308" font-family="FreeSans" font-size="10.00">vtkObject</text>
</a>
</g>
<!-- Node6&#45;&gt;Node5 -->
<g id="edge10" class="edge"><title>Node6&#45;&gt;Node5</title>
<path fill="none" stroke="midnightblue" d="M127,-290.516C127,-280.562 127,-269.05 127,-261.028"/>
<polygon fill="midnightblue" stroke="midnightblue" points="123.5,-290.822 127,-300.822 130.5,-290.822 123.5,-290.822"/>
</g>
<!-- Node7 -->
<g id="node12" class="node"><title>Node7</title>
<a xlink:href="class_kitware_1_1_v_t_k_1_1vtk_object_base.html" target="_top" xlink:title="vtkObjectBase &#45; abstract base class for most VTK objects">
<polygon fill="none" stroke="black" points="147,-741 147,-761 233,-761 233,-741 147,-741"/>
<text text-anchor="middle" x="190" y="-748" font-family="FreeSans" font-size="10.00">vtkObjectBase</text>
</a>
</g>
<!-- Node7&#45;&gt;Node6 -->
<g id="edge12" class="edge"><title>Node7&#45;&gt;Node6</title>
<path fill="none" stroke="midnightblue" d="M161.423,-735.886C147.687,-727.44 131.884,-715.826 121,-702 109.156,-686.955 108.621,-680.802 105,-662 79.4248,-529.199 114.577,-363.437 124.516,-321.17"/>
<polygon fill="midnightblue" stroke="midnightblue" points="159.683,-738.923 170.079,-740.97 163.229,-732.887 159.683,-738.923"/>
</g>
<!-- Node10 -->
<g id="node19" class="node"><title>Node10</title>
<a xlink:href="class_kitware_1_1_v_t_k_1_1vtk_object.html" target="_top" xlink:title="vtkObject &#45; abstract base class for most VTK objects">
<polygon fill="none" stroke="black" points="130,-681 130,-701 250,-701 250,-681 130,-681"/>
<text text-anchor="middle" x="190" y="-688" font-family="FreeSans" font-size="10.00">Kitware.VTK.vtkObject</text>
</a>
</g>
<!-- Node7&#45;&gt;Node10 -->
<g id="edge22" class="edge"><title>Node7&#45;&gt;Node10</title>
<path fill="none" stroke="midnightblue" d="M190,-730.516C190,-720.562 190,-709.05 190,-701.028"/>
<polygon fill="midnightblue" stroke="midnightblue" points="186.5,-730.822 190,-740.822 193.5,-730.822 186.5,-730.822"/>
</g>
<!-- Node8 -->
<g id="node14" class="node"><title>Node8</title>
<a xlink:href="class_kitware_1_1_v_t_k_1_1_wrapped_object.html" target="_top" xlink:title="Base class for all the mummy wrapped classes in Kitware.VTK.">
<polygon fill="none" stroke="black" points="328.5,-801 328.5,-821 417.5,-821 417.5,-801 328.5,-801"/>
<text text-anchor="middle" x="373" y="-808" font-family="FreeSans" font-size="10.00">WrappedObject</text>
</a>
</g>
<!-- Node8&#45;&gt;Node7 -->
<g id="edge14" class="edge"><title>Node8&#45;&gt;Node7</title>
<path fill="none" stroke="midnightblue" d="M332.804,-797.821C299.042,-786.752 251.512,-771.168 220.73,-761.075"/>
<polygon fill="midnightblue" stroke="midnightblue" points="331.777,-801.168 342.37,-800.957 333.958,-794.516 331.777,-801.168"/>
</g>
<!-- Node9 -->
<g id="node16" class="node"><title>Node9</title>
<a xlink:href="class_kitware_1_1_v_t_k_1_1vtk_object_event_relay.html" target="_top" xlink:title="Implement a relay handler for VTK events. This is a class that receives events directly from the VTK ...">
<polygon fill="none" stroke="black" points="119,-491 119,-511 291,-511 291,-491 119,-491"/>
<text text-anchor="middle" x="205" y="-498" font-family="FreeSans" font-size="10.00">Kitware.VTK.vtkObjectEventRelay</text>
</a>
</g>
<!-- Node8&#45;&gt;Node9 -->
<g id="edge18" class="edge"><title>Node8&#45;&gt;Node9</title>
<path fill="none" stroke="midnightblue" d="M385.888,-792.325C418.276,-742.899 495.803,-607.191 428,-530 418.773,-519.495 350.047,-511.666 291.298,-506.808"/>
<polygon fill="midnightblue" stroke="midnightblue" points="382.891,-790.509 380.239,-800.767 388.709,-794.402 382.891,-790.509"/>
</g>
<!-- Node9&#45;&gt;Node6 -->
<g id="edge16" class="edge"><title>Node9&#45;&gt;Node6</title>
<path fill="none" stroke="#9a32cd" stroke-dasharray="5,2" d="M196.921,-481.321C180.489,-441.293 143.674,-351.616 131.214,-321.266"/>
<polygon fill="#9a32cd" stroke="#9a32cd" points="193.771,-482.863 200.806,-490.785 200.246,-480.205 193.771,-482.863"/>
<text text-anchor="middle" x="304.5" y="-463" font-family="FreeSans" font-size="10.00"> LeftButtonReleaseEvtRelay</text>
<text text-anchor="middle" x="304.5" y="-451" font-family="FreeSans" font-size="10.00">KeyPressEvtRelay</text>
<text text-anchor="middle" x="304.5" y="-439" font-family="FreeSans" font-size="10.00">DomainModifiedEvtRelay</text>
<text text-anchor="middle" x="304.5" y="-427" font-family="FreeSans" font-size="10.00">VolumeMapperComputeGradientsStartEvtRelay</text>
<text text-anchor="middle" x="304.5" y="-415" font-family="FreeSans" font-size="10.00">ErrorEvtRelay</text>
<text text-anchor="middle" x="304.5" y="-403" font-family="FreeSans" font-size="10.00">VolumeMapperRenderStartEvtRelay</text>
<text text-anchor="middle" x="304.5" y="-391" font-family="FreeSans" font-size="10.00">StartEvtRelay</text>
<text text-anchor="middle" x="304.5" y="-379" font-family="FreeSans" font-size="10.00">ResetCameraEvtRelay</text>
<text text-anchor="middle" x="304.5" y="-367" font-family="FreeSans" font-size="10.00">EnableEvtRelay</text>
<text text-anchor="middle" x="304.5" y="-355" font-family="FreeSans" font-size="10.00">DeleteEvtRelay</text>
<text text-anchor="middle" x="304.5" y="-343" font-family="FreeSans" font-size="10.00">...</text>
</g>
<!-- Node9&#45;&gt;Node10 -->
<g id="edge24" class="edge"><title>Node9&#45;&gt;Node10</title>
<path fill="none" stroke="#9a32cd" stroke-dasharray="5,2" d="M202.028,-521.231C201.649,-524.169 201.293,-527.159 201,-530 195.144,-586.853 191.636,-655.333 190.452,-680.807"/>
<polygon fill="#9a32cd" stroke="#9a32cd" points="205.515,-521.565 203.421,-511.179 198.582,-520.604 205.515,-521.565"/>
<text text-anchor="middle" x="314.5" y="-653" font-family="FreeSans" font-size="10.00"> LeftButtonReleaseEvtRelay</text>
<text text-anchor="middle" x="314.5" y="-641" font-family="FreeSans" font-size="10.00">KeyPressEvtRelay</text>
<text text-anchor="middle" x="314.5" y="-629" font-family="FreeSans" font-size="10.00">DomainModifiedEvtRelay</text>
<text text-anchor="middle" x="314.5" y="-617" font-family="FreeSans" font-size="10.00">VolumeMapperComputeGradientsStartEvtRelay</text>
<text text-anchor="middle" x="314.5" y="-605" font-family="FreeSans" font-size="10.00">ErrorEvtRelay</text>
<text text-anchor="middle" x="314.5" y="-593" font-family="FreeSans" font-size="10.00">VolumeMapperRenderStartEvtRelay</text>
<text text-anchor="middle" x="314.5" y="-581" font-family="FreeSans" font-size="10.00">StartEvtRelay</text>
<text text-anchor="middle" x="314.5" y="-569" font-family="FreeSans" font-size="10.00">ResetCameraEvtRelay</text>
<text text-anchor="middle" x="314.5" y="-557" font-family="FreeSans" font-size="10.00">EnableEvtRelay</text>
<text text-anchor="middle" x="314.5" y="-545" font-family="FreeSans" font-size="10.00">DeleteEvtRelay</text>
<text text-anchor="middle" x="314.5" y="-533" font-family="FreeSans" font-size="10.00">...</text>
</g>
<!-- Node10&#45;&gt;Node9 -->
<g id="edge20" class="edge"><title>Node10&#45;&gt;Node9</title>
<path fill="none" stroke="#9a32cd" stroke-dasharray="5,2" d="M143.979,-675.818C138.439,-672.138 133.51,-667.596 130,-662 98.8229,-612.303 96.8299,-578.389 130,-530 134.736,-523.091 151.511,-516.287 167.999,-511.008"/>
<polygon fill="#9a32cd" stroke="#9a32cd" points="142.639,-679.079 153.072,-680.919 146.064,-672.974 142.639,-679.079"/>
<text text-anchor="middle" x="154" y="-599" font-family="FreeSans" font-size="10.00"> Sender</text>
<text text-anchor="middle" x="154" y="-587" font-family="FreeSans" font-size="10.00">EventImpl</text>
</g>
</g>
</svg>
