<?xml version="1.0" encoding="UTF-8" standalone="no"?>
<!DOCTYPE svg PUBLIC "-//W3C//DTD SVG 1.1//EN"
 "http://www.w3.org/Graphics/SVG/1.1/DTD/svg11.dtd">
<!-- Generated by graphviz version 2.26.3 (20100126.1600)
 -->
<!-- Title: G Pages: 1 -->
<svg width="176pt" height="204pt"
 viewBox="0.00 0.00 176.00 204.00" xmlns="http://www.w3.org/2000/svg" xmlns:xlink="http://www.w3.org/1999/xlink">
<g id="graph1" class="graph" transform="scale(1 1) rotate(0) translate(4 200)">
<title>G</title>
<!-- Node1 -->
<g id="node1" class="node"><title>Node1</title>
<polygon fill="#bfbfbf" stroke="black" points="-0.5,-1 -0.5,-21 168.5,-21 168.5,-1 -0.5,-1"/>
<text text-anchor="middle" x="84" y="-8" font-family="FreeSans" font-size="10.00">Kitware.VTK.vtkImageConnector</text>
</g>
<!-- Node2 -->
<g id="node2" class="node"><title>Node2</title>
<a xlink:href="class_kitware_1_1_v_t_k_1_1vtk_object.html" target="_top" xlink:title="vtkObject &#45; abstract base class for most VTK objects">
<polygon fill="none" stroke="black" points="53,-59 53,-79 115,-79 115,-59 53,-59"/>
<text text-anchor="middle" x="84" y="-66" font-family="FreeSans" font-size="10.00">vtkObject</text>
</a>
</g>
<!-- Node2&#45;&gt;Node1 -->
<g id="edge2" class="edge"><title>Node2&#45;&gt;Node1</title>
<path fill="none" stroke="midnightblue" d="M84,-48.8902C84,-39.6201 84,-29.0083 84,-21.3776"/>
<polygon fill="midnightblue" stroke="midnightblue" points="80.5001,-48.8971 84,-58.8972 87.5001,-48.8972 80.5001,-48.8971"/>
</g>
<!-- Node3 -->
<g id="node4" class="node"><title>Node3</title>
<a xlink:href="class_kitware_1_1_v_t_k_1_1vtk_object_base.html" target="_top" xlink:title="vtkObjectBase &#45; abstract base class for most VTK objects">
<polygon fill="none" stroke="black" points="41,-117 41,-137 127,-137 127,-117 41,-117"/>
<text text-anchor="middle" x="84" y="-124" font-family="FreeSans" font-size="10.00">vtkObjectBase</text>
</a>
</g>
<!-- Node3&#45;&gt;Node2 -->
<g id="edge4" class="edge"><title>Node3&#45;&gt;Node2</title>
<path fill="none" stroke="midnightblue" d="M84,-106.89C84,-97.6201 84,-87.0083 84,-79.3776"/>
<polygon fill="midnightblue" stroke="midnightblue" points="80.5001,-106.897 84,-116.897 87.5001,-106.897 80.5001,-106.897"/>
</g>
<!-- Node4 -->
<g id="node6" class="node"><title>Node4</title>
<a xlink:href="class_kitware_1_1_v_t_k_1_1_wrapped_object.html" target="_top" xlink:title="Base class for all the mummy wrapped classes in Kitware.VTK.">
<polygon fill="none" stroke="black" points="39.5,-175 39.5,-195 128.5,-195 128.5,-175 39.5,-175"/>
<text text-anchor="middle" x="84" y="-182" font-family="FreeSans" font-size="10.00">WrappedObject</text>
</a>
</g>
<!-- Node4&#45;&gt;Node3 -->
<g id="edge6" class="edge"><title>Node4&#45;&gt;Node3</title>
<path fill="none" stroke="midnightblue" d="M84,-164.89C84,-155.62 84,-145.008 84,-137.378"/>
<polygon fill="midnightblue" stroke="midnightblue" points="80.5001,-164.897 84,-174.897 87.5001,-164.897 80.5001,-164.897"/>
</g>
</g>
</svg>
