<?xml version="1.0" encoding="UTF-8" standalone="no"?>
<!DOCTYPE svg PUBLIC "-//W3C//DTD SVG 1.1//EN"
 "http://www.w3.org/Graphics/SVG/1.1/DTD/svg11.dtd">
<!-- Generated by graphviz version 2.26.3 (20100126.1600)
 -->
<!-- Title: G Pages: 1 -->
<svg width="282pt" height="378pt"
 viewBox="0.00 0.00 282.00 378.00" xmlns="http://www.w3.org/2000/svg" xmlns:xlink="http://www.w3.org/1999/xlink">
<g id="graph1" class="graph" transform="scale(1 1) rotate(0) translate(4 374)">
<title>G</title>
<!-- Node1 -->
<g id="node1" class="node"><title>Node1</title>
<polygon fill="#bfbfbf" stroke="black" points="0,-59 0,-79 274,-79 274,-59 0,-59"/>
<text text-anchor="middle" x="137" y="-66" font-family="FreeSans" font-size="10.00">Kitware.VTK.vtkContinuousValueWidgetRepresentation</text>
</g>
<!-- Node7 -->
<g id="node13" class="node"><title>Node7</title>
<a xlink:href="class_kitware_1_1_v_t_k_1_1vtk_compass_representation.html" target="_top" xlink:title="vtkCompassRepresentation &#45; provide a compass">
<polygon fill="none" stroke="black" points="34,-1 34,-21 240,-21 240,-1 34,-1"/>
<text text-anchor="middle" x="137" y="-8" font-family="FreeSans" font-size="10.00">Kitware.VTK.vtkCompassRepresentation</text>
</a>
</g>
<!-- Node1&#45;&gt;Node7 -->
<g id="edge12" class="edge"><title>Node1&#45;&gt;Node7</title>
<path fill="none" stroke="midnightblue" d="M137,-48.8902C137,-39.6201 137,-29.0083 137,-21.3776"/>
<polygon fill="midnightblue" stroke="midnightblue" points="133.5,-48.8971 137,-58.8972 140.5,-48.8972 133.5,-48.8971"/>
</g>
<!-- Node2 -->
<g id="node2" class="node"><title>Node2</title>
<a xlink:href="class_kitware_1_1_v_t_k_1_1vtk_widget_representation.html" target="_top" xlink:title="vtkWidgetRepresentation &#45; abstract class defines interface between the widget and widget representati...">
<polygon fill="none" stroke="black" points="69.5,-117 69.5,-137 204.5,-137 204.5,-117 69.5,-117"/>
<text text-anchor="middle" x="137" y="-124" font-family="FreeSans" font-size="10.00">vtkWidgetRepresentation</text>
</a>
</g>
<!-- Node2&#45;&gt;Node1 -->
<g id="edge2" class="edge"><title>Node2&#45;&gt;Node1</title>
<path fill="none" stroke="midnightblue" d="M137,-106.89C137,-97.6201 137,-87.0083 137,-79.3776"/>
<polygon fill="midnightblue" stroke="midnightblue" points="133.5,-106.897 137,-116.897 140.5,-106.897 133.5,-106.897"/>
</g>
<!-- Node3 -->
<g id="node4" class="node"><title>Node3</title>
<a xlink:href="class_kitware_1_1_v_t_k_1_1vtk_prop.html" target="_top" xlink:title="vtkProp &#45; abstract superclass for all actors, volumes and annotations">
<polygon fill="none" stroke="black" points="110.5,-175 110.5,-195 163.5,-195 163.5,-175 110.5,-175"/>
<text text-anchor="middle" x="137" y="-182" font-family="FreeSans" font-size="10.00">vtkProp</text>
</a>
</g>
<!-- Node3&#45;&gt;Node2 -->
<g id="edge4" class="edge"><title>Node3&#45;&gt;Node2</title>
<path fill="none" stroke="midnightblue" d="M137,-164.89C137,-155.62 137,-145.008 137,-137.378"/>
<polygon fill="midnightblue" stroke="midnightblue" points="133.5,-164.897 137,-174.897 140.5,-164.897 133.5,-164.897"/>
</g>
<!-- Node4 -->
<g id="node6" class="node"><title>Node4</title>
<a xlink:href="class_kitware_1_1_v_t_k_1_1vtk_object.html" target="_top" xlink:title="vtkObject &#45; abstract base class for most VTK objects">
<polygon fill="none" stroke="black" points="106,-233 106,-253 168,-253 168,-233 106,-233"/>
<text text-anchor="middle" x="137" y="-240" font-family="FreeSans" font-size="10.00">vtkObject</text>
</a>
</g>
<!-- Node4&#45;&gt;Node3 -->
<g id="edge6" class="edge"><title>Node4&#45;&gt;Node3</title>
<path fill="none" stroke="midnightblue" d="M137,-222.89C137,-213.62 137,-203.008 137,-195.378"/>
<polygon fill="midnightblue" stroke="midnightblue" points="133.5,-222.897 137,-232.897 140.5,-222.897 133.5,-222.897"/>
</g>
<!-- Node5 -->
<g id="node8" class="node"><title>Node5</title>
<a xlink:href="class_kitware_1_1_v_t_k_1_1vtk_object_base.html" target="_top" xlink:title="vtkObjectBase &#45; abstract base class for most VTK objects">
<polygon fill="none" stroke="black" points="94,-291 94,-311 180,-311 180,-291 94,-291"/>
<text text-anchor="middle" x="137" y="-298" font-family="FreeSans" font-size="10.00">vtkObjectBase</text>
</a>
</g>
<!-- Node5&#45;&gt;Node4 -->
<g id="edge8" class="edge"><title>Node5&#45;&gt;Node4</title>
<path fill="none" stroke="midnightblue" d="M137,-280.89C137,-271.62 137,-261.008 137,-253.378"/>
<polygon fill="midnightblue" stroke="midnightblue" points="133.5,-280.897 137,-290.897 140.5,-280.897 133.5,-280.897"/>
</g>
<!-- Node6 -->
<g id="node10" class="node"><title>Node6</title>
<a xlink:href="class_kitware_1_1_v_t_k_1_1_wrapped_object.html" target="_top" xlink:title="Base class for all the mummy wrapped classes in Kitware.VTK.">
<polygon fill="none" stroke="black" points="92.5,-349 92.5,-369 181.5,-369 181.5,-349 92.5,-349"/>
<text text-anchor="middle" x="137" y="-356" font-family="FreeSans" font-size="10.00">WrappedObject</text>
</a>
</g>
<!-- Node6&#45;&gt;Node5 -->
<g id="edge10" class="edge"><title>Node6&#45;&gt;Node5</title>
<path fill="none" stroke="midnightblue" d="M137,-338.89C137,-329.62 137,-319.008 137,-311.378"/>
<polygon fill="midnightblue" stroke="midnightblue" points="133.5,-338.897 137,-348.897 140.5,-338.897 133.5,-338.897"/>
</g>
</g>
</svg>
