<?xml version="1.0" encoding="UTF-8" standalone="no"?>
<!DOCTYPE svg PUBLIC "-//W3C//DTD SVG 1.1//EN"
 "http://www.w3.org/Graphics/SVG/1.1/DTD/svg11.dtd">
<!-- Generated by graphviz version 2.26.3 (20100126.1600)
 -->
<!-- Title: G Pages: 1 -->
<svg width="397pt" height="710pt"
 viewBox="0.00 0.00 397.46 710.00" xmlns="http://www.w3.org/2000/svg" xmlns:xlink="http://www.w3.org/1999/xlink">
<g id="graph1" class="graph" transform="scale(1 1) rotate(0) translate(4 706)">
<title>G</title>
<!-- Node1 -->
<g id="node1" class="node"><title>Node1</title>
<polygon fill="#bfbfbf" stroke="black" points="2,-1 2,-21 120,-21 120,-1 2,-1"/>
<text text-anchor="middle" x="61" y="-8" font-family="FreeSans" font-size="10.00">Kitware.VTK.vtkPicker</text>
</g>
<!-- Node2 -->
<g id="node2" class="node"><title>Node2</title>
<a xlink:href="class_kitware_1_1_v_t_k_1_1vtk_abstract_prop_picker.html" target="_top" xlink:title="vtkAbstractPropPicker &#45; abstract API for pickers that can pick an instance of vtkProp">
<polygon fill="none" stroke="black" points="0,-61 0,-81 122,-81 122,-61 0,-61"/>
<text text-anchor="middle" x="61" y="-68" font-family="FreeSans" font-size="10.00">vtkAbstractPropPicker</text>
</a>
</g>
<!-- Node2&#45;&gt;Node1 -->
<g id="edge2" class="edge"><title>Node2&#45;&gt;Node1</title>
<path fill="none" stroke="midnightblue" d="M61,-50.5155C61,-40.562 61,-29.0495 61,-21.0279"/>
<polygon fill="midnightblue" stroke="midnightblue" points="57.5001,-50.8218 61,-60.8218 64.5001,-50.8219 57.5001,-50.8218"/>
</g>
<!-- Node3 -->
<g id="node4" class="node"><title>Node3</title>
<a xlink:href="class_kitware_1_1_v_t_k_1_1vtk_abstract_picker.html" target="_top" xlink:title="vtkAbstractPicker &#45; define API for picking subclasses">
<polygon fill="none" stroke="black" points="11,-121 11,-141 111,-141 111,-121 11,-121"/>
<text text-anchor="middle" x="61" y="-128" font-family="FreeSans" font-size="10.00">vtkAbstractPicker</text>
</a>
</g>
<!-- Node3&#45;&gt;Node2 -->
<g id="edge4" class="edge"><title>Node3&#45;&gt;Node2</title>
<path fill="none" stroke="midnightblue" d="M61,-110.516C61,-100.562 61,-89.0495 61,-81.0279"/>
<polygon fill="midnightblue" stroke="midnightblue" points="57.5001,-110.822 61,-120.822 64.5001,-110.822 57.5001,-110.822"/>
</g>
<!-- Node4 -->
<g id="node6" class="node"><title>Node4</title>
<a xlink:href="class_kitware_1_1_v_t_k_1_1vtk_object.html" target="_top" xlink:title="vtkObject &#45; abstract base class for most VTK objects">
<polygon fill="none" stroke="black" points="30,-181 30,-201 92,-201 92,-181 30,-181"/>
<text text-anchor="middle" x="61" y="-188" font-family="FreeSans" font-size="10.00">vtkObject</text>
</a>
</g>
<!-- Node4&#45;&gt;Node3 -->
<g id="edge6" class="edge"><title>Node4&#45;&gt;Node3</title>
<path fill="none" stroke="midnightblue" d="M61,-170.516C61,-160.562 61,-149.05 61,-141.028"/>
<polygon fill="midnightblue" stroke="midnightblue" points="57.5001,-170.822 61,-180.822 64.5001,-170.822 57.5001,-170.822"/>
</g>
<!-- Node5 -->
<g id="node8" class="node"><title>Node5</title>
<a xlink:href="class_kitware_1_1_v_t_k_1_1vtk_object_base.html" target="_top" xlink:title="vtkObjectBase &#45; abstract base class for most VTK objects">
<polygon fill="none" stroke="black" points="81,-621 81,-641 167,-641 167,-621 81,-621"/>
<text text-anchor="middle" x="124" y="-628" font-family="FreeSans" font-size="10.00">vtkObjectBase</text>
</a>
</g>
<!-- Node5&#45;&gt;Node4 -->
<g id="edge8" class="edge"><title>Node5&#45;&gt;Node4</title>
<path fill="none" stroke="midnightblue" d="M95.4228,-615.886C81.6866,-607.44 65.8844,-595.826 55,-582 43.1564,-566.955 42.6209,-560.802 39,-542 13.4248,-409.199 48.5766,-243.437 58.5155,-201.17"/>
<polygon fill="midnightblue" stroke="midnightblue" points="93.6834,-618.923 104.079,-620.97 97.2285,-612.887 93.6834,-618.923"/>
</g>
<!-- Node8 -->
<g id="node15" class="node"><title>Node8</title>
<a xlink:href="class_kitware_1_1_v_t_k_1_1vtk_object.html" target="_top" xlink:title="vtkObject &#45; abstract base class for most VTK objects">
<polygon fill="none" stroke="black" points="64,-561 64,-581 184,-581 184,-561 64,-561"/>
<text text-anchor="middle" x="124" y="-568" font-family="FreeSans" font-size="10.00">Kitware.VTK.vtkObject</text>
</a>
</g>
<!-- Node5&#45;&gt;Node8 -->
<g id="edge18" class="edge"><title>Node5&#45;&gt;Node8</title>
<path fill="none" stroke="midnightblue" d="M124,-610.516C124,-600.562 124,-589.05 124,-581.028"/>
<polygon fill="midnightblue" stroke="midnightblue" points="120.5,-610.822 124,-620.822 127.5,-610.822 120.5,-610.822"/>
</g>
<!-- Node6 -->
<g id="node10" class="node"><title>Node6</title>
<a xlink:href="class_kitware_1_1_v_t_k_1_1_wrapped_object.html" target="_top" xlink:title="Base class for all the mummy wrapped classes in Kitware.VTK.">
<polygon fill="none" stroke="black" points="262.5,-681 262.5,-701 351.5,-701 351.5,-681 262.5,-681"/>
<text text-anchor="middle" x="307" y="-688" font-family="FreeSans" font-size="10.00">WrappedObject</text>
</a>
</g>
<!-- Node6&#45;&gt;Node5 -->
<g id="edge10" class="edge"><title>Node6&#45;&gt;Node5</title>
<path fill="none" stroke="midnightblue" d="M266.804,-677.821C233.042,-666.752 185.512,-651.168 154.73,-641.075"/>
<polygon fill="midnightblue" stroke="midnightblue" points="265.777,-681.168 276.37,-680.957 267.958,-674.516 265.777,-681.168"/>
</g>
<!-- Node7 -->
<g id="node12" class="node"><title>Node7</title>
<a xlink:href="class_kitware_1_1_v_t_k_1_1vtk_object_event_relay.html" target="_top" xlink:title="Implement a relay handler for VTK events. This is a class that receives events directly from the VTK ...">
<polygon fill="none" stroke="black" points="53,-371 53,-391 225,-391 225,-371 53,-371"/>
<text text-anchor="middle" x="139" y="-378" font-family="FreeSans" font-size="10.00">Kitware.VTK.vtkObjectEventRelay</text>
</a>
</g>
<!-- Node6&#45;&gt;Node7 -->
<g id="edge14" class="edge"><title>Node6&#45;&gt;Node7</title>
<path fill="none" stroke="midnightblue" d="M319.888,-672.325C352.276,-622.899 429.803,-487.191 362,-410 352.773,-399.495 284.047,-391.666 225.298,-386.808"/>
<polygon fill="midnightblue" stroke="midnightblue" points="316.891,-670.509 314.239,-680.767 322.709,-674.402 316.891,-670.509"/>
</g>
<!-- Node7&#45;&gt;Node4 -->
<g id="edge12" class="edge"><title>Node7&#45;&gt;Node4</title>
<path fill="none" stroke="#9a32cd" stroke-dasharray="5,2" d="M130.921,-361.321C114.489,-321.293 77.6738,-231.616 65.2144,-201.266"/>
<polygon fill="#9a32cd" stroke="#9a32cd" points="127.771,-362.863 134.806,-370.785 134.246,-360.205 127.771,-362.863"/>
<text text-anchor="middle" x="238.5" y="-343" font-family="FreeSans" font-size="10.00"> LeftButtonReleaseEvtRelay</text>
<text text-anchor="middle" x="238.5" y="-331" font-family="FreeSans" font-size="10.00">KeyPressEvtRelay</text>
<text text-anchor="middle" x="238.5" y="-319" font-family="FreeSans" font-size="10.00">DomainModifiedEvtRelay</text>
<text text-anchor="middle" x="238.5" y="-307" font-family="FreeSans" font-size="10.00">VolumeMapperComputeGradientsStartEvtRelay</text>
<text text-anchor="middle" x="238.5" y="-295" font-family="FreeSans" font-size="10.00">ErrorEvtRelay</text>
<text text-anchor="middle" x="238.5" y="-283" font-family="FreeSans" font-size="10.00">VolumeMapperRenderStartEvtRelay</text>
<text text-anchor="middle" x="238.5" y="-271" font-family="FreeSans" font-size="10.00">StartEvtRelay</text>
<text text-anchor="middle" x="238.5" y="-259" font-family="FreeSans" font-size="10.00">ResetCameraEvtRelay</text>
<text text-anchor="middle" x="238.5" y="-247" font-family="FreeSans" font-size="10.00">EnableEvtRelay</text>
<text text-anchor="middle" x="238.5" y="-235" font-family="FreeSans" font-size="10.00">DeleteEvtRelay</text>
<text text-anchor="middle" x="238.5" y="-223" font-family="FreeSans" font-size="10.00">...</text>
</g>
<!-- Node7&#45;&gt;Node8 -->
<g id="edge20" class="edge"><title>Node7&#45;&gt;Node8</title>
<path fill="none" stroke="#9a32cd" stroke-dasharray="5,2" d="M136.028,-401.231C135.649,-404.169 135.293,-407.159 135,-410 129.144,-466.853 125.636,-535.333 124.452,-560.807"/>
<polygon fill="#9a32cd" stroke="#9a32cd" points="139.515,-401.565 137.421,-391.179 132.582,-400.604 139.515,-401.565"/>
<text text-anchor="middle" x="248.5" y="-533" font-family="FreeSans" font-size="10.00"> LeftButtonReleaseEvtRelay</text>
<text text-anchor="middle" x="248.5" y="-521" font-family="FreeSans" font-size="10.00">KeyPressEvtRelay</text>
<text text-anchor="middle" x="248.5" y="-509" font-family="FreeSans" font-size="10.00">DomainModifiedEvtRelay</text>
<text text-anchor="middle" x="248.5" y="-497" font-family="FreeSans" font-size="10.00">VolumeMapperComputeGradientsStartEvtRelay</text>
<text text-anchor="middle" x="248.5" y="-485" font-family="FreeSans" font-size="10.00">ErrorEvtRelay</text>
<text text-anchor="middle" x="248.5" y="-473" font-family="FreeSans" font-size="10.00">VolumeMapperRenderStartEvtRelay</text>
<text text-anchor="middle" x="248.5" y="-461" font-family="FreeSans" font-size="10.00">StartEvtRelay</text>
<text text-anchor="middle" x="248.5" y="-449" font-family="FreeSans" font-size="10.00">ResetCameraEvtRelay</text>
<text text-anchor="middle" x="248.5" y="-437" font-family="FreeSans" font-size="10.00">EnableEvtRelay</text>
<text text-anchor="middle" x="248.5" y="-425" font-family="FreeSans" font-size="10.00">DeleteEvtRelay</text>
<text text-anchor="middle" x="248.5" y="-413" font-family="FreeSans" font-size="10.00">...</text>
</g>
<!-- Node8&#45;&gt;Node7 -->
<g id="edge16" class="edge"><title>Node8&#45;&gt;Node7</title>
<path fill="none" stroke="#9a32cd" stroke-dasharray="5,2" d="M77.9794,-555.818C72.4393,-552.138 67.5104,-547.596 64,-542 32.8229,-492.303 30.8299,-458.389 64,-410 68.7359,-403.091 85.5114,-396.287 101.999,-391.008"/>
<polygon fill="#9a32cd" stroke="#9a32cd" points="76.6386,-559.079 87.0724,-560.919 80.0636,-552.974 76.6386,-559.079"/>
<text text-anchor="middle" x="88" y="-479" font-family="FreeSans" font-size="10.00"> Sender</text>
<text text-anchor="middle" x="88" y="-467" font-family="FreeSans" font-size="10.00">EventImpl</text>
</g>
</g>
</svg>
