<?xml version="1.0" encoding="UTF-8" standalone="no"?>
<!DOCTYPE svg PUBLIC "-//W3C//DTD SVG 1.1//EN"
 "http://www.w3.org/Graphics/SVG/1.1/DTD/svg11.dtd">
<!-- Generated by graphviz version 2.26.3 (20100126.1600)
 -->
<!-- Title: G Pages: 1 -->
<svg width="1228pt" height="66pt"
 viewBox="0.00 0.00 1228.00 66.00" xmlns="http://www.w3.org/2000/svg" xmlns:xlink="http://www.w3.org/1999/xlink">
<g id="graph1" class="graph" transform="scale(1 1) rotate(0) translate(4 62)">
<title>G</title>
<!-- Node1 -->
<g id="node1" class="node"><title>Node1</title>
<polygon fill="#bfbfbf" stroke="black" points="698.5,-19 698.5,-39 901.5,-39 901.5,-19 698.5,-19"/>
<text text-anchor="middle" x="800" y="-26" font-family="FreeSans" font-size="10.00">Kitware.VTK.vtkStructuredPointsSource</text>
</g>
<!-- Node8 -->
<g id="node15" class="node"><title>Node8</title>
<a xlink:href="class_kitware_1_1_v_t_k_1_1vtk_data_set_to_structured_points_filter.html" target="_top" xlink:title="vtkDataSetToStructuredPointsFilter &#45; abstract filter class">
<polygon fill="none" stroke="black" points="958,-38 958,-58 1200,-58 1200,-38 958,-38"/>
<text text-anchor="middle" x="1079" y="-45" font-family="FreeSans" font-size="10.00">Kitware.VTK.vtkDataSetToStructuredPointsFilter</text>
</a>
</g>
<!-- Node1&#45;&gt;Node8 -->
<g id="edge14" class="edge"><title>Node1&#45;&gt;Node8</title>
<path fill="none" stroke="midnightblue" d="M911.858,-36.6176C926.916,-37.643 942.421,-38.6989 957.633,-39.7349"/>
<polygon fill="midnightblue" stroke="midnightblue" points="911.729,-33.1008 901.515,-35.9132 911.254,-40.0846 911.729,-33.1008"/>
</g>
<!-- Node9 -->
<g id="node17" class="node"><title>Node9</title>
<a xlink:href="class_kitware_1_1_v_t_k_1_1vtk_structured_points_to_structured_points_filter.html" target="_top" xlink:title="vtkStructuredPointsToStructuredPointsFilter &#45; abstract filter class">
<polygon fill="none" stroke="black" points="938,-0 938,-20 1220,-20 1220,-0 938,-0"/>
<text text-anchor="middle" x="1079" y="-7" font-family="FreeSans" font-size="10.00">Kitware.VTK.vtkStructuredPointsToStructuredPointsFilter</text>
</a>
</g>
<!-- Node1&#45;&gt;Node9 -->
<g id="edge16" class="edge"><title>Node1&#45;&gt;Node9</title>
<path fill="none" stroke="midnightblue" d="M911.591,-21.4006C920.24,-20.8116 929.039,-20.2124 937.846,-19.6126"/>
<polygon fill="midnightblue" stroke="midnightblue" points="911.254,-17.9154 901.515,-22.0868 911.729,-24.8992 911.254,-17.9154"/>
</g>
<!-- Node2 -->
<g id="node2" class="node"><title>Node2</title>
<a xlink:href="class_kitware_1_1_v_t_k_1_1vtk_source.html" target="_top" xlink:title="vtkSource &#45; abstract class specifies interface for visualization network source">
<polygon fill="none" stroke="black" points="596.5,-19 596.5,-39 661.5,-39 661.5,-19 596.5,-19"/>
<text text-anchor="middle" x="629" y="-26" font-family="FreeSans" font-size="10.00">vtkSource</text>
</a>
</g>
<!-- Node2&#45;&gt;Node1 -->
<g id="edge2" class="edge"><title>Node2&#45;&gt;Node1</title>
<path fill="none" stroke="midnightblue" d="M671.693,-29C680.025,-29 689.087,-29 698.414,-29"/>
<polygon fill="midnightblue" stroke="midnightblue" points="671.566,-25.5001 661.566,-29 671.566,-32.5001 671.566,-25.5001"/>
</g>
<!-- Node3 -->
<g id="node4" class="node"><title>Node3</title>
<a xlink:href="class_kitware_1_1_v_t_k_1_1vtk_process_object.html" target="_top" xlink:title="vtkProcessObject &#45; abstract class specifies interface for visualization filters">
<polygon fill="none" stroke="black" points="460.5,-19 460.5,-39 559.5,-39 559.5,-19 460.5,-19"/>
<text text-anchor="middle" x="510" y="-26" font-family="FreeSans" font-size="10.00">vtkProcessObject</text>
</a>
</g>
<!-- Node3&#45;&gt;Node2 -->
<g id="edge4" class="edge"><title>Node3&#45;&gt;Node2</title>
<path fill="none" stroke="midnightblue" d="M569.997,-29C579.082,-29 588.152,-29 596.36,-29"/>
<polygon fill="midnightblue" stroke="midnightblue" points="569.777,-25.5001 559.777,-29 569.777,-32.5001 569.777,-25.5001"/>
</g>
<!-- Node4 -->
<g id="node6" class="node"><title>Node4</title>
<a xlink:href="class_kitware_1_1_v_t_k_1_1vtk_algorithm.html" target="_top" xlink:title="vtkAlgorithm &#45; Superclass for all sources, filters, and sinks in VTK.">
<polygon fill="none" stroke="black" points="346.5,-19 346.5,-39 423.5,-39 423.5,-19 346.5,-19"/>
<text text-anchor="middle" x="385" y="-26" font-family="FreeSans" font-size="10.00">vtkAlgorithm</text>
</a>
</g>
<!-- Node4&#45;&gt;Node3 -->
<g id="edge6" class="edge"><title>Node4&#45;&gt;Node3</title>
<path fill="none" stroke="midnightblue" d="M433.594,-29C442.361,-29 451.512,-29 460.309,-29"/>
<polygon fill="midnightblue" stroke="midnightblue" points="433.524,-25.5001 423.524,-29 433.524,-32.5001 433.524,-25.5001"/>
</g>
<!-- Node5 -->
<g id="node8" class="node"><title>Node5</title>
<a xlink:href="class_kitware_1_1_v_t_k_1_1vtk_object.html" target="_top" xlink:title="vtkObject &#45; abstract base class for most VTK objects">
<polygon fill="none" stroke="black" points="248,-19 248,-39 310,-39 310,-19 248,-19"/>
<text text-anchor="middle" x="279" y="-26" font-family="FreeSans" font-size="10.00">vtkObject</text>
</a>
</g>
<!-- Node5&#45;&gt;Node4 -->
<g id="edge8" class="edge"><title>Node5&#45;&gt;Node4</title>
<path fill="none" stroke="midnightblue" d="M320.421,-29C329.001,-29 338.007,-29 346.479,-29"/>
<polygon fill="midnightblue" stroke="midnightblue" points="320.23,-25.5001 310.23,-29 320.23,-32.5001 320.23,-25.5001"/>
</g>
<!-- Node6 -->
<g id="node10" class="node"><title>Node6</title>
<a xlink:href="class_kitware_1_1_v_t_k_1_1vtk_object_base.html" target="_top" xlink:title="vtkObjectBase &#45; abstract base class for most VTK objects">
<polygon fill="none" stroke="black" points="126,-19 126,-39 212,-39 212,-19 126,-19"/>
<text text-anchor="middle" x="169" y="-26" font-family="FreeSans" font-size="10.00">vtkObjectBase</text>
</a>
</g>
<!-- Node6&#45;&gt;Node5 -->
<g id="edge10" class="edge"><title>Node6&#45;&gt;Node5</title>
<path fill="none" stroke="midnightblue" d="M222.346,-29C231.091,-29 239.892,-29 247.863,-29"/>
<polygon fill="midnightblue" stroke="midnightblue" points="222.159,-25.5001 212.159,-29 222.159,-32.5001 222.159,-25.5001"/>
</g>
<!-- Node7 -->
<g id="node12" class="node"><title>Node7</title>
<a xlink:href="class_kitware_1_1_v_t_k_1_1_wrapped_object.html" target="_top" xlink:title="Base class for all the mummy wrapped classes in Kitware.VTK.">
<polygon fill="none" stroke="black" points="0.5,-19 0.5,-39 89.5,-39 89.5,-19 0.5,-19"/>
<text text-anchor="middle" x="45" y="-26" font-family="FreeSans" font-size="10.00">WrappedObject</text>
</a>
</g>
<!-- Node7&#45;&gt;Node6 -->
<g id="edge12" class="edge"><title>Node7&#45;&gt;Node6</title>
<path fill="none" stroke="midnightblue" d="M99.8895,-29C108.623,-29 117.548,-29 125.957,-29"/>
<polygon fill="midnightblue" stroke="midnightblue" points="99.7669,-25.5001 89.7668,-29 99.7668,-32.5001 99.7669,-25.5001"/>
</g>
</g>
</svg>
