<?xml version="1.0" encoding="UTF-8" standalone="no"?>
<!DOCTYPE svg PUBLIC "-//W3C//DTD SVG 1.1//EN"
 "http://www.w3.org/Graphics/SVG/1.1/DTD/svg11.dtd">
<!-- Generated by graphviz version 2.26.3 (20100126.1600)
 -->
<!-- Title: G Pages: 1 -->
<svg width="338pt" height="262pt"
 viewBox="0.00 0.00 338.00 262.00" xmlns="http://www.w3.org/2000/svg" xmlns:xlink="http://www.w3.org/1999/xlink">
<g id="graph1" class="graph" transform="scale(1 1) rotate(0) translate(4 258)">
<title>G</title>
<!-- Node1 -->
<g id="node1" class="node"><title>Node1</title>
<polygon fill="#bfbfbf" stroke="black" points="106,-59 106,-79 236,-79 236,-59 106,-59"/>
<text text-anchor="middle" x="171" y="-66" font-family="FreeSans" font-size="10.00">Kitware.VTK.vtkProperty</text>
</g>
<!-- Node5 -->
<g id="node9" class="node"><title>Node5</title>
<a xlink:href="class_kitware_1_1_v_t_k_1_1vtk_open_g_l_property.html" target="_top" xlink:title="vtkOpenGLProperty &#45; OpenGL property">
<polygon fill="none" stroke="black" points="0,-1 0,-21 168,-21 168,-1 0,-1"/>
<text text-anchor="middle" x="84" y="-8" font-family="FreeSans" font-size="10.00">Kitware.VTK.vtkOpenGLProperty</text>
</a>
</g>
<!-- Node1&#45;&gt;Node5 -->
<g id="edge8" class="edge"><title>Node1&#45;&gt;Node5</title>
<path fill="none" stroke="midnightblue" d="M147.393,-53.2619C132.08,-43.0535 112.576,-30.051 99.2725,-21.1817"/>
<polygon fill="midnightblue" stroke="midnightblue" points="145.584,-56.2623 155.846,-58.8972 149.467,-50.4379 145.584,-56.2623"/>
</g>
<!-- Node6 -->
<g id="node11" class="node"><title>Node6</title>
<a xlink:href="class_kitware_1_1_v_t_k_1_1vtk_r_i_b_property.html" target="_top" xlink:title="vtkRIBProperty &#45; RIP Property">
<polygon fill="none" stroke="black" points="185.5,-1 185.5,-21 330.5,-21 330.5,-1 185.5,-1"/>
<text text-anchor="middle" x="258" y="-8" font-family="FreeSans" font-size="10.00">Kitware.VTK.vtkRIBProperty</text>
</a>
</g>
<!-- Node1&#45;&gt;Node6 -->
<g id="edge10" class="edge"><title>Node1&#45;&gt;Node6</title>
<path fill="none" stroke="midnightblue" d="M194.607,-53.2619C209.92,-43.0535 229.424,-30.051 242.728,-21.1817"/>
<polygon fill="midnightblue" stroke="midnightblue" points="192.533,-50.4379 186.154,-58.8972 196.416,-56.2623 192.533,-50.4379"/>
</g>
<!-- Node2 -->
<g id="node2" class="node"><title>Node2</title>
<a xlink:href="class_kitware_1_1_v_t_k_1_1vtk_object.html" target="_top" xlink:title="vtkObject &#45; abstract base class for most VTK objects">
<polygon fill="none" stroke="black" points="140,-117 140,-137 202,-137 202,-117 140,-117"/>
<text text-anchor="middle" x="171" y="-124" font-family="FreeSans" font-size="10.00">vtkObject</text>
</a>
</g>
<!-- Node2&#45;&gt;Node1 -->
<g id="edge2" class="edge"><title>Node2&#45;&gt;Node1</title>
<path fill="none" stroke="midnightblue" d="M171,-106.89C171,-97.6201 171,-87.0083 171,-79.3776"/>
<polygon fill="midnightblue" stroke="midnightblue" points="167.5,-106.897 171,-116.897 174.5,-106.897 167.5,-106.897"/>
</g>
<!-- Node3 -->
<g id="node4" class="node"><title>Node3</title>
<a xlink:href="class_kitware_1_1_v_t_k_1_1vtk_object_base.html" target="_top" xlink:title="vtkObjectBase &#45; abstract base class for most VTK objects">
<polygon fill="none" stroke="black" points="128,-175 128,-195 214,-195 214,-175 128,-175"/>
<text text-anchor="middle" x="171" y="-182" font-family="FreeSans" font-size="10.00">vtkObjectBase</text>
</a>
</g>
<!-- Node3&#45;&gt;Node2 -->
<g id="edge4" class="edge"><title>Node3&#45;&gt;Node2</title>
<path fill="none" stroke="midnightblue" d="M171,-164.89C171,-155.62 171,-145.008 171,-137.378"/>
<polygon fill="midnightblue" stroke="midnightblue" points="167.5,-164.897 171,-174.897 174.5,-164.897 167.5,-164.897"/>
</g>
<!-- Node4 -->
<g id="node6" class="node"><title>Node4</title>
<a xlink:href="class_kitware_1_1_v_t_k_1_1_wrapped_object.html" target="_top" xlink:title="Base class for all the mummy wrapped classes in Kitware.VTK.">
<polygon fill="none" stroke="black" points="126.5,-233 126.5,-253 215.5,-253 215.5,-233 126.5,-233"/>
<text text-anchor="middle" x="171" y="-240" font-family="FreeSans" font-size="10.00">WrappedObject</text>
</a>
</g>
<!-- Node4&#45;&gt;Node3 -->
<g id="edge6" class="edge"><title>Node4&#45;&gt;Node3</title>
<path fill="none" stroke="midnightblue" d="M171,-222.89C171,-213.62 171,-203.008 171,-195.378"/>
<polygon fill="midnightblue" stroke="midnightblue" points="167.5,-222.897 171,-232.897 174.5,-222.897 167.5,-222.897"/>
</g>
</g>
</svg>
