<?xml version="1.0" encoding="UTF-8" standalone="no"?>
<!DOCTYPE svg PUBLIC "-//W3C//DTD SVG 1.1//EN"
 "http://www.w3.org/Graphics/SVG/1.1/DTD/svg11.dtd">
<!-- Generated by graphviz version 2.26.3 (20100126.1600)
 -->
<!-- Title: G Pages: 1 -->
<svg width="1746pt" height="161pt"
 viewBox="0.00 0.00 1746.00 161.00" xmlns="http://www.w3.org/2000/svg" xmlns:xlink="http://www.w3.org/1999/xlink">
<g id="graph1" class="graph" transform="scale(1 1) rotate(0) translate(4 157)">
<title>G</title>
<!-- Node1 -->
<g id="node1" class="node"><title>Node1</title>
<polygon fill="#bfbfbf" stroke="black" points="640.5,-95 640.5,-115 825.5,-115 825.5,-95 640.5,-95"/>
<text text-anchor="middle" x="733" y="-102" font-family="FreeSans" font-size="10.00">Kitware.VTK.vtkDataRepresentation</text>
</g>
<!-- Node7 -->
<g id="node13" class="node"><title>Node7</title>
<a xlink:href="class_kitware_1_1_v_t_k_1_1vtk_empty_representation.html" target="_top" xlink:title="vtkEmptyRepresentation &#45;">
<polygon fill="none" stroke="black" points="889,-133 889,-153 1081,-153 1081,-133 889,-133"/>
<text text-anchor="middle" x="985" y="-140" font-family="FreeSans" font-size="10.00">Kitware.VTK.vtkEmptyRepresentation</text>
</a>
</g>
<!-- Node1&#45;&gt;Node7 -->
<g id="edge12" class="edge"><title>Node1&#45;&gt;Node7</title>
<path fill="none" stroke="midnightblue" d="M809.643,-116.557C844.392,-121.797 885.089,-127.934 918.525,-132.976"/>
<polygon fill="midnightblue" stroke="midnightblue" points="809.95,-113.064 799.54,-115.034 808.906,-119.986 809.95,-113.064"/>
</g>
<!-- Node8 -->
<g id="node15" class="node"><title>Node8</title>
<a xlink:href="class_kitware_1_1_v_t_k_1_1vtk_geo_aligned_image_representation.html" target="_top" xlink:title="vtkGeoAlignedImageRepresentation &#45; A multi&#45;resolution image tree">
<polygon fill="none" stroke="black" points="862,-95 862,-115 1108,-115 1108,-95 862,-95"/>
<text text-anchor="middle" x="985" y="-102" font-family="FreeSans" font-size="10.00">Kitware.VTK.vtkGeoAlignedImageRepresentation</text>
</a>
</g>
<!-- Node1&#45;&gt;Node8 -->
<g id="edge14" class="edge"><title>Node1&#45;&gt;Node8</title>
<path fill="none" stroke="midnightblue" d="M835.798,-105C844.414,-105 853.18,-105 861.927,-105"/>
<polygon fill="midnightblue" stroke="midnightblue" points="835.762,-101.5 825.762,-105 835.762,-108.5 835.762,-101.5"/>
</g>
<!-- Node9 -->
<g id="node17" class="node"><title>Node9</title>
<a xlink:href="class_kitware_1_1_v_t_k_1_1vtk_rendered_representation.html" target="_top" xlink:title="vtkRenderedRepresentation &#45;">
<polygon fill="none" stroke="black" points="882,-57 882,-77 1088,-77 1088,-57 882,-57"/>
<text text-anchor="middle" x="985" y="-64" font-family="FreeSans" font-size="10.00">Kitware.VTK.vtkRenderedRepresentation</text>
</a>
</g>
<!-- Node1&#45;&gt;Node9 -->
<g id="edge16" class="edge"><title>Node1&#45;&gt;Node9</title>
<path fill="none" stroke="midnightblue" d="M809.643,-93.4427C844.392,-88.2028 885.089,-82.066 918.525,-77.024"/>
<polygon fill="midnightblue" stroke="midnightblue" points="808.906,-90.0142 799.54,-94.9662 809.95,-96.936 808.906,-90.0142"/>
</g>
<!-- Node2 -->
<g id="node2" class="node"><title>Node2</title>
<a xlink:href="class_kitware_1_1_v_t_k_1_1vtk_pass_input_type_algorithm.html" target="_top" xlink:title="vtkPassInputTypeAlgorithm &#45; Superclass for algorithms that produce output of the same type as input...">
<polygon fill="none" stroke="black" points="460,-95 460,-115 604,-115 604,-95 460,-95"/>
<text text-anchor="middle" x="532" y="-102" font-family="FreeSans" font-size="10.00">vtkPassInputTypeAlgorithm</text>
</a>
</g>
<!-- Node2&#45;&gt;Node1 -->
<g id="edge2" class="edge"><title>Node2&#45;&gt;Node1</title>
<path fill="none" stroke="midnightblue" d="M614.554,-105C623.062,-105 631.747,-105 640.355,-105"/>
<polygon fill="midnightblue" stroke="midnightblue" points="614.282,-101.5 604.282,-105 614.282,-108.5 614.282,-101.5"/>
</g>
<!-- Node3 -->
<g id="node4" class="node"><title>Node3</title>
<a xlink:href="class_kitware_1_1_v_t_k_1_1vtk_algorithm.html" target="_top" xlink:title="vtkAlgorithm &#45; Superclass for all sources, filters, and sinks in VTK.">
<polygon fill="none" stroke="black" points="346.5,-95 346.5,-115 423.5,-115 423.5,-95 346.5,-95"/>
<text text-anchor="middle" x="385" y="-102" font-family="FreeSans" font-size="10.00">vtkAlgorithm</text>
</a>
</g>
<!-- Node3&#45;&gt;Node2 -->
<g id="edge4" class="edge"><title>Node3&#45;&gt;Node2</title>
<path fill="none" stroke="midnightblue" d="M433.878,-105C442.205,-105 451.009,-105 459.789,-105"/>
<polygon fill="midnightblue" stroke="midnightblue" points="433.623,-101.5 423.623,-105 433.622,-108.5 433.623,-101.5"/>
</g>
<!-- Node4 -->
<g id="node6" class="node"><title>Node4</title>
<a xlink:href="class_kitware_1_1_v_t_k_1_1vtk_object.html" target="_top" xlink:title="vtkObject &#45; abstract base class for most VTK objects">
<polygon fill="none" stroke="black" points="248,-95 248,-115 310,-115 310,-95 248,-95"/>
<text text-anchor="middle" x="279" y="-102" font-family="FreeSans" font-size="10.00">vtkObject</text>
</a>
</g>
<!-- Node4&#45;&gt;Node3 -->
<g id="edge6" class="edge"><title>Node4&#45;&gt;Node3</title>
<path fill="none" stroke="midnightblue" d="M320.421,-105C329.001,-105 338.007,-105 346.479,-105"/>
<polygon fill="midnightblue" stroke="midnightblue" points="320.23,-101.5 310.23,-105 320.23,-108.5 320.23,-101.5"/>
</g>
<!-- Node5 -->
<g id="node8" class="node"><title>Node5</title>
<a xlink:href="class_kitware_1_1_v_t_k_1_1vtk_object_base.html" target="_top" xlink:title="vtkObjectBase &#45; abstract base class for most VTK objects">
<polygon fill="none" stroke="black" points="126,-95 126,-115 212,-115 212,-95 126,-95"/>
<text text-anchor="middle" x="169" y="-102" font-family="FreeSans" font-size="10.00">vtkObjectBase</text>
</a>
</g>
<!-- Node5&#45;&gt;Node4 -->
<g id="edge8" class="edge"><title>Node5&#45;&gt;Node4</title>
<path fill="none" stroke="midnightblue" d="M222.346,-105C231.091,-105 239.892,-105 247.863,-105"/>
<polygon fill="midnightblue" stroke="midnightblue" points="222.159,-101.5 212.159,-105 222.159,-108.5 222.159,-101.5"/>
</g>
<!-- Node6 -->
<g id="node10" class="node"><title>Node6</title>
<a xlink:href="class_kitware_1_1_v_t_k_1_1_wrapped_object.html" target="_top" xlink:title="Base class for all the mummy wrapped classes in Kitware.VTK.">
<polygon fill="none" stroke="black" points="0.5,-95 0.5,-115 89.5,-115 89.5,-95 0.5,-95"/>
<text text-anchor="middle" x="45" y="-102" font-family="FreeSans" font-size="10.00">WrappedObject</text>
</a>
</g>
<!-- Node6&#45;&gt;Node5 -->
<g id="edge10" class="edge"><title>Node6&#45;&gt;Node5</title>
<path fill="none" stroke="midnightblue" d="M99.8895,-105C108.623,-105 117.548,-105 125.957,-105"/>
<polygon fill="midnightblue" stroke="midnightblue" points="99.7669,-101.5 89.7668,-105 99.7668,-108.5 99.7669,-101.5"/>
</g>
<!-- Node10 -->
<g id="node19" class="node"><title>Node10</title>
<a xlink:href="class_kitware_1_1_v_t_k_1_1vtk_parallel_coordinates_representation.html" target="_top" xlink:title="vtkParallelCoordinatesRepresentation &#45; Data representation that takes generic multivariate data and p...">
<polygon fill="none" stroke="black" points="1144.5,-114 1144.5,-134 1397.5,-134 1397.5,-114 1144.5,-114"/>
<text text-anchor="middle" x="1271" y="-121" font-family="FreeSans" font-size="10.00">Kitware.VTK.vtkParallelCoordinatesRepresentation</text>
</a>
</g>
<!-- Node9&#45;&gt;Node10 -->
<g id="edge18" class="edge"><title>Node9&#45;&gt;Node10</title>
<path fill="none" stroke="midnightblue" d="M1083.42,-79.19C1091.82,-81.1367 1100.11,-83.3908 1108,-86 1125.18,-91.6814 1126.81,-99.3594 1144,-105 1155.12,-108.649 1167.02,-111.601 1178.91,-113.987"/>
<polygon fill="midnightblue" stroke="midnightblue" points="1084.04,-75.744 1073.53,-77.043 1082.56,-82.5847 1084.04,-75.744"/>
</g>
<!-- Node12 -->
<g id="node23" class="node"><title>Node12</title>
<a xlink:href="class_kitware_1_1_v_t_k_1_1vtk_rendered_graph_representation.html" target="_top" xlink:title="vtkRenderedGraphRepresentation &#45;">
<polygon fill="none" stroke="black" points="1153,-76 1153,-96 1389,-96 1389,-76 1153,-76"/>
<text text-anchor="middle" x="1271" y="-83" font-family="FreeSans" font-size="10.00">Kitware.VTK.vtkRenderedGraphRepresentation</text>
</a>
</g>
<!-- Node9&#45;&gt;Node12 -->
<g id="edge22" class="edge"><title>Node9&#45;&gt;Node12</title>
<path fill="none" stroke="midnightblue" d="M1098.66,-74.5508C1116.48,-75.7344 1134.93,-76.9602 1152.84,-78.1503"/>
<polygon fill="midnightblue" stroke="midnightblue" points="1098.46,-71.0301 1088.25,-73.8594 1098,-78.0147 1098.46,-71.0301"/>
</g>
<!-- Node14 -->
<g id="node27" class="node"><title>Node14</title>
<a xlink:href="class_kitware_1_1_v_t_k_1_1vtk_rendered_surface_representation.html" target="_top" xlink:title="vtkRenderedSurfaceRepresentation &#45; Displays a geometric dataset as a surface.">
<polygon fill="none" stroke="black" points="1149.5,-38 1149.5,-58 1392.5,-58 1392.5,-38 1149.5,-38"/>
<text text-anchor="middle" x="1271" y="-45" font-family="FreeSans" font-size="10.00">Kitware.VTK.vtkRenderedSurfaceRepresentation</text>
</a>
</g>
<!-- Node9&#45;&gt;Node14 -->
<g id="edge26" class="edge"><title>Node9&#45;&gt;Node14</title>
<path fill="none" stroke="midnightblue" d="M1098.57,-59.455C1115.28,-58.3453 1132.54,-57.1983 1149.4,-56.0784"/>
<polygon fill="midnightblue" stroke="midnightblue" points="1098,-55.9853 1088.25,-60.1406 1098.46,-62.9699 1098,-55.9853"/>
</g>
<!-- Node15 -->
<g id="node29" class="node"><title>Node15</title>
<a xlink:href="class_kitware_1_1_v_t_k_1_1vtk_rendered_tree_area_representation.html" target="_top" xlink:title="vtkRenderedTreeAreaRepresentation &#45;">
<polygon fill="none" stroke="black" points="1147,-0 1147,-20 1395,-20 1395,-0 1147,-0"/>
<text text-anchor="middle" x="1271" y="-7" font-family="FreeSans" font-size="10.00">Kitware.VTK.vtkRenderedTreeAreaRepresentation</text>
</a>
</g>
<!-- Node9&#45;&gt;Node15 -->
<g id="edge28" class="edge"><title>Node9&#45;&gt;Node15</title>
<path fill="none" stroke="midnightblue" d="M1032.85,-54.4282C1064.29,-46.448 1106.41,-36.289 1144,-29 1160.96,-25.7106 1179.29,-22.6716 1196.61,-20.0327"/>
<polygon fill="midnightblue" stroke="midnightblue" points="1031.85,-51.0692 1023.03,-56.9362 1033.59,-57.8512 1031.85,-51.0692"/>
</g>
<!-- Node11 -->
<g id="node21" class="node"><title>Node11</title>
<a xlink:href="class_kitware_1_1_v_t_k_1_1vtk_parallel_coordinates_histogram_representation.html" target="_top" xlink:title="vtkParallelCoordinatesHistogramRepresentation &#45; Data representation that takes generic multivariate d...">
<polygon fill="none" stroke="black" points="1434.5,-114 1434.5,-134 1737.5,-134 1737.5,-114 1434.5,-114"/>
<text text-anchor="middle" x="1586" y="-121" font-family="FreeSans" font-size="10.00">Kitware.VTK.vtkParallelCoordinatesHistogramRepresentation</text>
</a>
</g>
<!-- Node10&#45;&gt;Node11 -->
<g id="edge20" class="edge"><title>Node10&#45;&gt;Node11</title>
<path fill="none" stroke="midnightblue" d="M1407.98,-124C1416.73,-124 1425.56,-124 1434.37,-124"/>
<polygon fill="midnightblue" stroke="midnightblue" points="1407.76,-120.5 1397.76,-124 1407.76,-127.5 1407.76,-120.5"/>
</g>
<!-- Node13 -->
<g id="node25" class="node"><title>Node13</title>
<a xlink:href="class_kitware_1_1_v_t_k_1_1vtk_rendered_hierarchy_representation.html" target="_top" xlink:title="vtkRenderedHierarchyRepresentation &#45;">
<polygon fill="none" stroke="black" points="1460,-76 1460,-96 1712,-96 1712,-76 1460,-76"/>
<text text-anchor="middle" x="1586" y="-83" font-family="FreeSans" font-size="10.00">Kitware.VTK.vtkRenderedHierarchyRepresentation</text>
</a>
</g>
<!-- Node12&#45;&gt;Node13 -->
<g id="edge24" class="edge"><title>Node12&#45;&gt;Node13</title>
<path fill="none" stroke="midnightblue" d="M1399.25,-86C1419.22,-86 1439.84,-86 1459.77,-86"/>
<polygon fill="midnightblue" stroke="midnightblue" points="1399.19,-82.5001 1389.19,-86 1399.19,-89.5001 1399.19,-82.5001"/>
</g>
</g>
</svg>
