<?xml version="1.0" encoding="UTF-8" standalone="no"?>
<!DOCTYPE svg PUBLIC "-//W3C//DTD SVG 1.1//EN"
 "http://www.w3.org/Graphics/SVG/1.1/DTD/svg11.dtd">
<!-- Generated by graphviz version 2.26.3 (20100126.1600)
 -->
<!-- Title: G Pages: 1 -->
<svg width="461pt" height="710pt"
 viewBox="0.00 0.00 461.46 710.00" xmlns="http://www.w3.org/2000/svg" xmlns:xlink="http://www.w3.org/1999/xlink">
<g id="graph1" class="graph" transform="scale(1 1) rotate(0) translate(4 706)">
<title>G</title>
<!-- Node1 -->
<g id="node1" class="node"><title>Node1</title>
<polygon fill="#bfbfbf" stroke="black" points="-0.5,-1 -0.5,-21 250.5,-21 250.5,-1 -0.5,-1"/>
<text text-anchor="middle" x="125" y="-8" font-family="FreeSans" font-size="10.00">Kitware.VTK.vtkRectilinearSynchronizedTemplates</text>
</g>
<!-- Node2 -->
<g id="node2" class="node"><title>Node2</title>
<a xlink:href="class_kitware_1_1_v_t_k_1_1vtk_poly_data_algorithm.html" target="_top" xlink:title="vtkPolyDataAlgorithm &#45; Superclass for algorithms that produce only polydata as output">
<polygon fill="none" stroke="black" points="65,-61 65,-81 185,-81 185,-61 65,-61"/>
<text text-anchor="middle" x="125" y="-68" font-family="FreeSans" font-size="10.00">vtkPolyDataAlgorithm</text>
</a>
</g>
<!-- Node2&#45;&gt;Node1 -->
<g id="edge2" class="edge"><title>Node2&#45;&gt;Node1</title>
<path fill="none" stroke="midnightblue" d="M125,-50.5155C125,-40.562 125,-29.0495 125,-21.0279"/>
<polygon fill="midnightblue" stroke="midnightblue" points="121.5,-50.8218 125,-60.8218 128.5,-50.8219 121.5,-50.8218"/>
</g>
<!-- Node3 -->
<g id="node4" class="node"><title>Node3</title>
<a xlink:href="class_kitware_1_1_v_t_k_1_1vtk_algorithm.html" target="_top" xlink:title="vtkAlgorithm &#45; Superclass for all sources, filters, and sinks in VTK.">
<polygon fill="none" stroke="black" points="86.5,-121 86.5,-141 163.5,-141 163.5,-121 86.5,-121"/>
<text text-anchor="middle" x="125" y="-128" font-family="FreeSans" font-size="10.00">vtkAlgorithm</text>
</a>
</g>
<!-- Node3&#45;&gt;Node2 -->
<g id="edge4" class="edge"><title>Node3&#45;&gt;Node2</title>
<path fill="none" stroke="midnightblue" d="M125,-110.516C125,-100.562 125,-89.0495 125,-81.0279"/>
<polygon fill="midnightblue" stroke="midnightblue" points="121.5,-110.822 125,-120.822 128.5,-110.822 121.5,-110.822"/>
</g>
<!-- Node4 -->
<g id="node6" class="node"><title>Node4</title>
<a xlink:href="class_kitware_1_1_v_t_k_1_1vtk_object.html" target="_top" xlink:title="vtkObject &#45; abstract base class for most VTK objects">
<polygon fill="none" stroke="black" points="94,-181 94,-201 156,-201 156,-181 94,-181"/>
<text text-anchor="middle" x="125" y="-188" font-family="FreeSans" font-size="10.00">vtkObject</text>
</a>
</g>
<!-- Node4&#45;&gt;Node3 -->
<g id="edge6" class="edge"><title>Node4&#45;&gt;Node3</title>
<path fill="none" stroke="midnightblue" d="M125,-170.516C125,-160.562 125,-149.05 125,-141.028"/>
<polygon fill="midnightblue" stroke="midnightblue" points="121.5,-170.822 125,-180.822 128.5,-170.822 121.5,-170.822"/>
</g>
<!-- Node5 -->
<g id="node8" class="node"><title>Node5</title>
<a xlink:href="class_kitware_1_1_v_t_k_1_1vtk_object_base.html" target="_top" xlink:title="vtkObjectBase &#45; abstract base class for most VTK objects">
<polygon fill="none" stroke="black" points="145,-621 145,-641 231,-641 231,-621 145,-621"/>
<text text-anchor="middle" x="188" y="-628" font-family="FreeSans" font-size="10.00">vtkObjectBase</text>
</a>
</g>
<!-- Node5&#45;&gt;Node4 -->
<g id="edge8" class="edge"><title>Node5&#45;&gt;Node4</title>
<path fill="none" stroke="midnightblue" d="M159.423,-615.886C145.687,-607.44 129.884,-595.826 119,-582 107.156,-566.955 106.621,-560.802 103,-542 77.4248,-409.199 112.577,-243.437 122.516,-201.17"/>
<polygon fill="midnightblue" stroke="midnightblue" points="157.683,-618.923 168.079,-620.97 161.229,-612.887 157.683,-618.923"/>
</g>
<!-- Node8 -->
<g id="node15" class="node"><title>Node8</title>
<a xlink:href="class_kitware_1_1_v_t_k_1_1vtk_object.html" target="_top" xlink:title="vtkObject &#45; abstract base class for most VTK objects">
<polygon fill="none" stroke="black" points="128,-561 128,-581 248,-581 248,-561 128,-561"/>
<text text-anchor="middle" x="188" y="-568" font-family="FreeSans" font-size="10.00">Kitware.VTK.vtkObject</text>
</a>
</g>
<!-- Node5&#45;&gt;Node8 -->
<g id="edge18" class="edge"><title>Node5&#45;&gt;Node8</title>
<path fill="none" stroke="midnightblue" d="M188,-610.516C188,-600.562 188,-589.05 188,-581.028"/>
<polygon fill="midnightblue" stroke="midnightblue" points="184.5,-610.822 188,-620.822 191.5,-610.822 184.5,-610.822"/>
</g>
<!-- Node6 -->
<g id="node10" class="node"><title>Node6</title>
<a xlink:href="class_kitware_1_1_v_t_k_1_1_wrapped_object.html" target="_top" xlink:title="Base class for all the mummy wrapped classes in Kitware.VTK.">
<polygon fill="none" stroke="black" points="326.5,-681 326.5,-701 415.5,-701 415.5,-681 326.5,-681"/>
<text text-anchor="middle" x="371" y="-688" font-family="FreeSans" font-size="10.00">WrappedObject</text>
</a>
</g>
<!-- Node6&#45;&gt;Node5 -->
<g id="edge10" class="edge"><title>Node6&#45;&gt;Node5</title>
<path fill="none" stroke="midnightblue" d="M330.804,-677.821C297.042,-666.752 249.512,-651.168 218.73,-641.075"/>
<polygon fill="midnightblue" stroke="midnightblue" points="329.777,-681.168 340.37,-680.957 331.958,-674.516 329.777,-681.168"/>
</g>
<!-- Node7 -->
<g id="node12" class="node"><title>Node7</title>
<a xlink:href="class_kitware_1_1_v_t_k_1_1vtk_object_event_relay.html" target="_top" xlink:title="Implement a relay handler for VTK events. This is a class that receives events directly from the VTK ...">
<polygon fill="none" stroke="black" points="117,-371 117,-391 289,-391 289,-371 117,-371"/>
<text text-anchor="middle" x="203" y="-378" font-family="FreeSans" font-size="10.00">Kitware.VTK.vtkObjectEventRelay</text>
</a>
</g>
<!-- Node6&#45;&gt;Node7 -->
<g id="edge14" class="edge"><title>Node6&#45;&gt;Node7</title>
<path fill="none" stroke="midnightblue" d="M383.888,-672.325C416.276,-622.899 493.803,-487.191 426,-410 416.773,-399.495 348.047,-391.666 289.298,-386.808"/>
<polygon fill="midnightblue" stroke="midnightblue" points="380.891,-670.509 378.239,-680.767 386.709,-674.402 380.891,-670.509"/>
</g>
<!-- Node7&#45;&gt;Node4 -->
<g id="edge12" class="edge"><title>Node7&#45;&gt;Node4</title>
<path fill="none" stroke="#9a32cd" stroke-dasharray="5,2" d="M194.921,-361.321C178.489,-321.293 141.674,-231.616 129.214,-201.266"/>
<polygon fill="#9a32cd" stroke="#9a32cd" points="191.771,-362.863 198.806,-370.785 198.246,-360.205 191.771,-362.863"/>
<text text-anchor="middle" x="302.5" y="-343" font-family="FreeSans" font-size="10.00"> LeftButtonReleaseEvtRelay</text>
<text text-anchor="middle" x="302.5" y="-331" font-family="FreeSans" font-size="10.00">KeyPressEvtRelay</text>
<text text-anchor="middle" x="302.5" y="-319" font-family="FreeSans" font-size="10.00">DomainModifiedEvtRelay</text>
<text text-anchor="middle" x="302.5" y="-307" font-family="FreeSans" font-size="10.00">VolumeMapperComputeGradientsStartEvtRelay</text>
<text text-anchor="middle" x="302.5" y="-295" font-family="FreeSans" font-size="10.00">ErrorEvtRelay</text>
<text text-anchor="middle" x="302.5" y="-283" font-family="FreeSans" font-size="10.00">VolumeMapperRenderStartEvtRelay</text>
<text text-anchor="middle" x="302.5" y="-271" font-family="FreeSans" font-size="10.00">StartEvtRelay</text>
<text text-anchor="middle" x="302.5" y="-259" font-family="FreeSans" font-size="10.00">ResetCameraEvtRelay</text>
<text text-anchor="middle" x="302.5" y="-247" font-family="FreeSans" font-size="10.00">EnableEvtRelay</text>
<text text-anchor="middle" x="302.5" y="-235" font-family="FreeSans" font-size="10.00">DeleteEvtRelay</text>
<text text-anchor="middle" x="302.5" y="-223" font-family="FreeSans" font-size="10.00">...</text>
</g>
<!-- Node7&#45;&gt;Node8 -->
<g id="edge20" class="edge"><title>Node7&#45;&gt;Node8</title>
<path fill="none" stroke="#9a32cd" stroke-dasharray="5,2" d="M200.028,-401.231C199.649,-404.169 199.293,-407.159 199,-410 193.144,-466.853 189.636,-535.333 188.452,-560.807"/>
<polygon fill="#9a32cd" stroke="#9a32cd" points="203.515,-401.565 201.421,-391.179 196.582,-400.604 203.515,-401.565"/>
<text text-anchor="middle" x="312.5" y="-533" font-family="FreeSans" font-size="10.00"> LeftButtonReleaseEvtRelay</text>
<text text-anchor="middle" x="312.5" y="-521" font-family="FreeSans" font-size="10.00">KeyPressEvtRelay</text>
<text text-anchor="middle" x="312.5" y="-509" font-family="FreeSans" font-size="10.00">DomainModifiedEvtRelay</text>
<text text-anchor="middle" x="312.5" y="-497" font-family="FreeSans" font-size="10.00">VolumeMapperComputeGradientsStartEvtRelay</text>
<text text-anchor="middle" x="312.5" y="-485" font-family="FreeSans" font-size="10.00">ErrorEvtRelay</text>
<text text-anchor="middle" x="312.5" y="-473" font-family="FreeSans" font-size="10.00">VolumeMapperRenderStartEvtRelay</text>
<text text-anchor="middle" x="312.5" y="-461" font-family="FreeSans" font-size="10.00">StartEvtRelay</text>
<text text-anchor="middle" x="312.5" y="-449" font-family="FreeSans" font-size="10.00">ResetCameraEvtRelay</text>
<text text-anchor="middle" x="312.5" y="-437" font-family="FreeSans" font-size="10.00">EnableEvtRelay</text>
<text text-anchor="middle" x="312.5" y="-425" font-family="FreeSans" font-size="10.00">DeleteEvtRelay</text>
<text text-anchor="middle" x="312.5" y="-413" font-family="FreeSans" font-size="10.00">...</text>
</g>
<!-- Node8&#45;&gt;Node7 -->
<g id="edge16" class="edge"><title>Node8&#45;&gt;Node7</title>
<path fill="none" stroke="#9a32cd" stroke-dasharray="5,2" d="M141.979,-555.818C136.439,-552.138 131.51,-547.596 128,-542 96.8229,-492.303 94.8299,-458.389 128,-410 132.736,-403.091 149.511,-396.287 165.999,-391.008"/>
<polygon fill="#9a32cd" stroke="#9a32cd" points="140.639,-559.079 151.072,-560.919 144.064,-552.974 140.639,-559.079"/>
<text text-anchor="middle" x="152" y="-479" font-family="FreeSans" font-size="10.00"> Sender</text>
<text text-anchor="middle" x="152" y="-467" font-family="FreeSans" font-size="10.00">EventImpl</text>
</g>
</g>
</svg>
