<?xml version="1.0" encoding="UTF-8" standalone="no"?>
<!DOCTYPE svg PUBLIC "-//W3C//DTD SVG 1.1//EN"
 "http://www.w3.org/Graphics/SVG/1.1/DTD/svg11.dtd">
<!-- Generated by graphviz version 2.26.3 (20100126.1600)
 -->
<!-- Title: G Pages: 1 -->
<svg width="494pt" height="262pt"
 viewBox="0.00 0.00 494.00 262.00" xmlns="http://www.w3.org/2000/svg" xmlns:xlink="http://www.w3.org/1999/xlink">
<g id="graph1" class="graph" transform="scale(1 1) rotate(0) translate(4 258)">
<title>G</title>
<!-- Node1 -->
<g id="node1" class="node"><title>Node1</title>
<polygon fill="#bfbfbf" stroke="black" points="135,-59 135,-79 345,-79 345,-59 135,-59"/>
<text text-anchor="middle" x="240" y="-66" font-family="FreeSans" font-size="10.00">Kitware.VTK.vtkInitialValueProblemSolver</text>
</g>
<!-- Node5 -->
<g id="node9" class="node"><title>Node5</title>
<a xlink:href="class_kitware_1_1_v_t_k_1_1vtk_runge_kutta2.html" target="_top" xlink:title="vtkRungeKutta2 &#45; Integrate an initial value problem using 2nd order Runge&#45;Kutta method.">
<polygon fill="none" stroke="black" points="-0.5,-1 -0.5,-21 148.5,-21 148.5,-1 -0.5,-1"/>
<text text-anchor="middle" x="74" y="-8" font-family="FreeSans" font-size="10.00">Kitware.VTK.vtkRungeKutta2</text>
</a>
</g>
<!-- Node1&#45;&gt;Node5 -->
<g id="edge8" class="edge"><title>Node1&#45;&gt;Node5</title>
<path fill="none" stroke="midnightblue" d="M201.336,-55.491C171.24,-44.9752 130.134,-30.6131 102.862,-21.0842"/>
<polygon fill="midnightblue" stroke="midnightblue" points="200.49,-58.9028 211.085,-58.8972 202.799,-52.2945 200.49,-58.9028"/>
</g>
<!-- Node6 -->
<g id="node11" class="node"><title>Node6</title>
<a xlink:href="class_kitware_1_1_v_t_k_1_1vtk_runge_kutta4.html" target="_top" xlink:title="vtkRungeKutta4 &#45; Integrate an initial value problem using 4th order Runge&#45;Kutta method.">
<polygon fill="none" stroke="black" points="165.5,-1 165.5,-21 314.5,-21 314.5,-1 165.5,-1"/>
<text text-anchor="middle" x="240" y="-8" font-family="FreeSans" font-size="10.00">Kitware.VTK.vtkRungeKutta4</text>
</a>
</g>
<!-- Node1&#45;&gt;Node6 -->
<g id="edge10" class="edge"><title>Node1&#45;&gt;Node6</title>
<path fill="none" stroke="midnightblue" d="M240,-48.8902C240,-39.6201 240,-29.0083 240,-21.3776"/>
<polygon fill="midnightblue" stroke="midnightblue" points="236.5,-48.8971 240,-58.8972 243.5,-48.8972 236.5,-48.8971"/>
</g>
<!-- Node7 -->
<g id="node13" class="node"><title>Node7</title>
<a xlink:href="class_kitware_1_1_v_t_k_1_1vtk_runge_kutta45.html" target="_top" xlink:title="vtkRungeKutta45 &#45; Integrate an initial value problem using 5th order Runge&#45;Kutta method with adaptive...">
<polygon fill="none" stroke="black" points="331.5,-1 331.5,-21 486.5,-21 486.5,-1 331.5,-1"/>
<text text-anchor="middle" x="409" y="-8" font-family="FreeSans" font-size="10.00">Kitware.VTK.vtkRungeKutta45</text>
</a>
</g>
<!-- Node1&#45;&gt;Node7 -->
<g id="edge12" class="edge"><title>Node1&#45;&gt;Node7</title>
<path fill="none" stroke="midnightblue" d="M278.964,-55.6279C309.639,-45.1002 351.731,-30.6545 379.617,-21.0842"/>
<polygon fill="midnightblue" stroke="midnightblue" points="277.76,-52.3405 269.438,-58.8972 280.032,-58.9615 277.76,-52.3405"/>
</g>
<!-- Node2 -->
<g id="node2" class="node"><title>Node2</title>
<a xlink:href="class_kitware_1_1_v_t_k_1_1vtk_object.html" target="_top" xlink:title="vtkObject &#45; abstract base class for most VTK objects">
<polygon fill="none" stroke="black" points="209,-117 209,-137 271,-137 271,-117 209,-117"/>
<text text-anchor="middle" x="240" y="-124" font-family="FreeSans" font-size="10.00">vtkObject</text>
</a>
</g>
<!-- Node2&#45;&gt;Node1 -->
<g id="edge2" class="edge"><title>Node2&#45;&gt;Node1</title>
<path fill="none" stroke="midnightblue" d="M240,-106.89C240,-97.6201 240,-87.0083 240,-79.3776"/>
<polygon fill="midnightblue" stroke="midnightblue" points="236.5,-106.897 240,-116.897 243.5,-106.897 236.5,-106.897"/>
</g>
<!-- Node3 -->
<g id="node4" class="node"><title>Node3</title>
<a xlink:href="class_kitware_1_1_v_t_k_1_1vtk_object_base.html" target="_top" xlink:title="vtkObjectBase &#45; abstract base class for most VTK objects">
<polygon fill="none" stroke="black" points="197,-175 197,-195 283,-195 283,-175 197,-175"/>
<text text-anchor="middle" x="240" y="-182" font-family="FreeSans" font-size="10.00">vtkObjectBase</text>
</a>
</g>
<!-- Node3&#45;&gt;Node2 -->
<g id="edge4" class="edge"><title>Node3&#45;&gt;Node2</title>
<path fill="none" stroke="midnightblue" d="M240,-164.89C240,-155.62 240,-145.008 240,-137.378"/>
<polygon fill="midnightblue" stroke="midnightblue" points="236.5,-164.897 240,-174.897 243.5,-164.897 236.5,-164.897"/>
</g>
<!-- Node4 -->
<g id="node6" class="node"><title>Node4</title>
<a xlink:href="class_kitware_1_1_v_t_k_1_1_wrapped_object.html" target="_top" xlink:title="Base class for all the mummy wrapped classes in Kitware.VTK.">
<polygon fill="none" stroke="black" points="195.5,-233 195.5,-253 284.5,-253 284.5,-233 195.5,-233"/>
<text text-anchor="middle" x="240" y="-240" font-family="FreeSans" font-size="10.00">WrappedObject</text>
</a>
</g>
<!-- Node4&#45;&gt;Node3 -->
<g id="edge6" class="edge"><title>Node4&#45;&gt;Node3</title>
<path fill="none" stroke="midnightblue" d="M240,-222.89C240,-213.62 240,-203.008 240,-195.378"/>
<polygon fill="midnightblue" stroke="midnightblue" points="236.5,-222.897 240,-232.897 243.5,-222.897 236.5,-222.897"/>
</g>
</g>
</svg>
