<?xml version="1.0" encoding="UTF-8" standalone="no"?>
<!DOCTYPE svg PUBLIC "-//W3C//DTD SVG 1.1//EN"
 "http://www.w3.org/Graphics/SVG/1.1/DTD/svg11.dtd">
<!-- Generated by graphviz version 2.26.3 (20100126.1600)
 -->
<!-- Title: G Pages: 1 -->
<svg width="446pt" height="830pt"
 viewBox="0.00 0.00 446.46 830.00" xmlns="http://www.w3.org/2000/svg" xmlns:xlink="http://www.w3.org/1999/xlink">
<g id="graph1" class="graph" transform="scale(1 1) rotate(0) translate(4 826)">
<title>G</title>
<!-- Node1 -->
<g id="node1" class="node"><title>Node1</title>
<polygon fill="#bfbfbf" stroke="black" points="-0.5,-1 -0.5,-21 220.5,-21 220.5,-1 -0.5,-1"/>
<text text-anchor="middle" x="110" y="-8" font-family="FreeSans" font-size="10.00">Kitware.VTK.vtkPiecewiseControlPointsItem</text>
</g>
<!-- Node2 -->
<g id="node2" class="node"><title>Node2</title>
<a xlink:href="class_kitware_1_1_v_t_k_1_1vtk_control_points_item.html" target="_top" xlink:title="vtkControlPointsItem &#45; Abstract class for control points items.">
<polygon fill="none" stroke="black" points="52,-61 52,-81 168,-81 168,-61 52,-61"/>
<text text-anchor="middle" x="110" y="-68" font-family="FreeSans" font-size="10.00">vtkControlPointsItem</text>
</a>
</g>
<!-- Node2&#45;&gt;Node1 -->
<g id="edge2" class="edge"><title>Node2&#45;&gt;Node1</title>
<path fill="none" stroke="midnightblue" d="M110,-50.5155C110,-40.562 110,-29.0495 110,-21.0279"/>
<polygon fill="midnightblue" stroke="midnightblue" points="106.5,-50.8218 110,-60.8218 113.5,-50.8219 106.5,-50.8218"/>
</g>
<!-- Node3 -->
<g id="node4" class="node"><title>Node3</title>
<a xlink:href="class_kitware_1_1_v_t_k_1_1vtk_plot.html" target="_top" xlink:title="vtkPlot &#45; Abstract class for 2D plots.">
<polygon fill="none" stroke="black" points="85.5,-121 85.5,-141 134.5,-141 134.5,-121 85.5,-121"/>
<text text-anchor="middle" x="110" y="-128" font-family="FreeSans" font-size="10.00">vtkPlot</text>
</a>
</g>
<!-- Node3&#45;&gt;Node2 -->
<g id="edge4" class="edge"><title>Node3&#45;&gt;Node2</title>
<path fill="none" stroke="midnightblue" d="M110,-110.516C110,-100.562 110,-89.0495 110,-81.0279"/>
<polygon fill="midnightblue" stroke="midnightblue" points="106.5,-110.822 110,-120.822 113.5,-110.822 106.5,-110.822"/>
</g>
<!-- Node4 -->
<g id="node6" class="node"><title>Node4</title>
<a xlink:href="class_kitware_1_1_v_t_k_1_1vtk_context_item.html" target="_top" xlink:title="vtkContextItem &#45; base class for items that are part of a vtkContextScene.">
<polygon fill="none" stroke="black" points="65,-181 65,-201 155,-201 155,-181 65,-181"/>
<text text-anchor="middle" x="110" y="-188" font-family="FreeSans" font-size="10.00">vtkContextItem</text>
</a>
</g>
<!-- Node4&#45;&gt;Node3 -->
<g id="edge6" class="edge"><title>Node4&#45;&gt;Node3</title>
<path fill="none" stroke="midnightblue" d="M110,-170.516C110,-160.562 110,-149.05 110,-141.028"/>
<polygon fill="midnightblue" stroke="midnightblue" points="106.5,-170.822 110,-180.822 113.5,-170.822 106.5,-170.822"/>
</g>
<!-- Node5 -->
<g id="node8" class="node"><title>Node5</title>
<a xlink:href="class_kitware_1_1_v_t_k_1_1vtk_abstract_context_item.html" target="_top" xlink:title="vtkAbstractContextItem &#45; base class for items that are part of a vtkContextScene.">
<polygon fill="none" stroke="black" points="44.5,-241 44.5,-261 175.5,-261 175.5,-241 44.5,-241"/>
<text text-anchor="middle" x="110" y="-248" font-family="FreeSans" font-size="10.00">vtkAbstractContextItem</text>
</a>
</g>
<!-- Node5&#45;&gt;Node4 -->
<g id="edge8" class="edge"><title>Node5&#45;&gt;Node4</title>
<path fill="none" stroke="midnightblue" d="M110,-230.516C110,-220.562 110,-209.05 110,-201.028"/>
<polygon fill="midnightblue" stroke="midnightblue" points="106.5,-230.822 110,-240.822 113.5,-230.822 106.5,-230.822"/>
</g>
<!-- Node6 -->
<g id="node10" class="node"><title>Node6</title>
<a xlink:href="class_kitware_1_1_v_t_k_1_1vtk_object.html" target="_top" xlink:title="vtkObject &#45; abstract base class for most VTK objects">
<polygon fill="none" stroke="black" points="79,-301 79,-321 141,-321 141,-301 79,-301"/>
<text text-anchor="middle" x="110" y="-308" font-family="FreeSans" font-size="10.00">vtkObject</text>
</a>
</g>
<!-- Node6&#45;&gt;Node5 -->
<g id="edge10" class="edge"><title>Node6&#45;&gt;Node5</title>
<path fill="none" stroke="midnightblue" d="M110,-290.516C110,-280.562 110,-269.05 110,-261.028"/>
<polygon fill="midnightblue" stroke="midnightblue" points="106.5,-290.822 110,-300.822 113.5,-290.822 106.5,-290.822"/>
</g>
<!-- Node7 -->
<g id="node12" class="node"><title>Node7</title>
<a xlink:href="class_kitware_1_1_v_t_k_1_1vtk_object_base.html" target="_top" xlink:title="vtkObjectBase &#45; abstract base class for most VTK objects">
<polygon fill="none" stroke="black" points="130,-741 130,-761 216,-761 216,-741 130,-741"/>
<text text-anchor="middle" x="173" y="-748" font-family="FreeSans" font-size="10.00">vtkObjectBase</text>
</a>
</g>
<!-- Node7&#45;&gt;Node6 -->
<g id="edge12" class="edge"><title>Node7&#45;&gt;Node6</title>
<path fill="none" stroke="midnightblue" d="M144.423,-735.886C130.687,-727.44 114.884,-715.826 104,-702 92.1564,-686.955 91.6209,-680.802 88,-662 62.4248,-529.199 97.5766,-363.437 107.516,-321.17"/>
<polygon fill="midnightblue" stroke="midnightblue" points="142.683,-738.923 153.079,-740.97 146.229,-732.887 142.683,-738.923"/>
</g>
<!-- Node10 -->
<g id="node19" class="node"><title>Node10</title>
<a xlink:href="class_kitware_1_1_v_t_k_1_1vtk_object.html" target="_top" xlink:title="vtkObject &#45; abstract base class for most VTK objects">
<polygon fill="none" stroke="black" points="113,-681 113,-701 233,-701 233,-681 113,-681"/>
<text text-anchor="middle" x="173" y="-688" font-family="FreeSans" font-size="10.00">Kitware.VTK.vtkObject</text>
</a>
</g>
<!-- Node7&#45;&gt;Node10 -->
<g id="edge22" class="edge"><title>Node7&#45;&gt;Node10</title>
<path fill="none" stroke="midnightblue" d="M173,-730.516C173,-720.562 173,-709.05 173,-701.028"/>
<polygon fill="midnightblue" stroke="midnightblue" points="169.5,-730.822 173,-740.822 176.5,-730.822 169.5,-730.822"/>
</g>
<!-- Node8 -->
<g id="node14" class="node"><title>Node8</title>
<a xlink:href="class_kitware_1_1_v_t_k_1_1_wrapped_object.html" target="_top" xlink:title="Base class for all the mummy wrapped classes in Kitware.VTK.">
<polygon fill="none" stroke="black" points="311.5,-801 311.5,-821 400.5,-821 400.5,-801 311.5,-801"/>
<text text-anchor="middle" x="356" y="-808" font-family="FreeSans" font-size="10.00">WrappedObject</text>
</a>
</g>
<!-- Node8&#45;&gt;Node7 -->
<g id="edge14" class="edge"><title>Node8&#45;&gt;Node7</title>
<path fill="none" stroke="midnightblue" d="M315.804,-797.821C282.042,-786.752 234.512,-771.168 203.73,-761.075"/>
<polygon fill="midnightblue" stroke="midnightblue" points="314.777,-801.168 325.37,-800.957 316.958,-794.516 314.777,-801.168"/>
</g>
<!-- Node9 -->
<g id="node16" class="node"><title>Node9</title>
<a xlink:href="class_kitware_1_1_v_t_k_1_1vtk_object_event_relay.html" target="_top" xlink:title="Implement a relay handler for VTK events. This is a class that receives events directly from the VTK ...">
<polygon fill="none" stroke="black" points="102,-491 102,-511 274,-511 274,-491 102,-491"/>
<text text-anchor="middle" x="188" y="-498" font-family="FreeSans" font-size="10.00">Kitware.VTK.vtkObjectEventRelay</text>
</a>
</g>
<!-- Node8&#45;&gt;Node9 -->
<g id="edge18" class="edge"><title>Node8&#45;&gt;Node9</title>
<path fill="none" stroke="midnightblue" d="M368.888,-792.325C401.276,-742.899 478.803,-607.191 411,-530 401.773,-519.495 333.047,-511.666 274.298,-506.808"/>
<polygon fill="midnightblue" stroke="midnightblue" points="365.891,-790.509 363.239,-800.767 371.709,-794.402 365.891,-790.509"/>
</g>
<!-- Node9&#45;&gt;Node6 -->
<g id="edge16" class="edge"><title>Node9&#45;&gt;Node6</title>
<path fill="none" stroke="#9a32cd" stroke-dasharray="5,2" d="M179.921,-481.321C163.489,-441.293 126.674,-351.616 114.214,-321.266"/>
<polygon fill="#9a32cd" stroke="#9a32cd" points="176.771,-482.863 183.806,-490.785 183.246,-480.205 176.771,-482.863"/>
<text text-anchor="middle" x="287.5" y="-463" font-family="FreeSans" font-size="10.00"> LeftButtonReleaseEvtRelay</text>
<text text-anchor="middle" x="287.5" y="-451" font-family="FreeSans" font-size="10.00">KeyPressEvtRelay</text>
<text text-anchor="middle" x="287.5" y="-439" font-family="FreeSans" font-size="10.00">DomainModifiedEvtRelay</text>
<text text-anchor="middle" x="287.5" y="-427" font-family="FreeSans" font-size="10.00">VolumeMapperComputeGradientsStartEvtRelay</text>
<text text-anchor="middle" x="287.5" y="-415" font-family="FreeSans" font-size="10.00">ErrorEvtRelay</text>
<text text-anchor="middle" x="287.5" y="-403" font-family="FreeSans" font-size="10.00">VolumeMapperRenderStartEvtRelay</text>
<text text-anchor="middle" x="287.5" y="-391" font-family="FreeSans" font-size="10.00">StartEvtRelay</text>
<text text-anchor="middle" x="287.5" y="-379" font-family="FreeSans" font-size="10.00">ResetCameraEvtRelay</text>
<text text-anchor="middle" x="287.5" y="-367" font-family="FreeSans" font-size="10.00">EnableEvtRelay</text>
<text text-anchor="middle" x="287.5" y="-355" font-family="FreeSans" font-size="10.00">DeleteEvtRelay</text>
<text text-anchor="middle" x="287.5" y="-343" font-family="FreeSans" font-size="10.00">...</text>
</g>
<!-- Node9&#45;&gt;Node10 -->
<g id="edge24" class="edge"><title>Node9&#45;&gt;Node10</title>
<path fill="none" stroke="#9a32cd" stroke-dasharray="5,2" d="M185.028,-521.231C184.649,-524.169 184.293,-527.159 184,-530 178.144,-586.853 174.636,-655.333 173.452,-680.807"/>
<polygon fill="#9a32cd" stroke="#9a32cd" points="188.515,-521.565 186.421,-511.179 181.582,-520.604 188.515,-521.565"/>
<text text-anchor="middle" x="297.5" y="-653" font-family="FreeSans" font-size="10.00"> LeftButtonReleaseEvtRelay</text>
<text text-anchor="middle" x="297.5" y="-641" font-family="FreeSans" font-size="10.00">KeyPressEvtRelay</text>
<text text-anchor="middle" x="297.5" y="-629" font-family="FreeSans" font-size="10.00">DomainModifiedEvtRelay</text>
<text text-anchor="middle" x="297.5" y="-617" font-family="FreeSans" font-size="10.00">VolumeMapperComputeGradientsStartEvtRelay</text>
<text text-anchor="middle" x="297.5" y="-605" font-family="FreeSans" font-size="10.00">ErrorEvtRelay</text>
<text text-anchor="middle" x="297.5" y="-593" font-family="FreeSans" font-size="10.00">VolumeMapperRenderStartEvtRelay</text>
<text text-anchor="middle" x="297.5" y="-581" font-family="FreeSans" font-size="10.00">StartEvtRelay</text>
<text text-anchor="middle" x="297.5" y="-569" font-family="FreeSans" font-size="10.00">ResetCameraEvtRelay</text>
<text text-anchor="middle" x="297.5" y="-557" font-family="FreeSans" font-size="10.00">EnableEvtRelay</text>
<text text-anchor="middle" x="297.5" y="-545" font-family="FreeSans" font-size="10.00">DeleteEvtRelay</text>
<text text-anchor="middle" x="297.5" y="-533" font-family="FreeSans" font-size="10.00">...</text>
</g>
<!-- Node10&#45;&gt;Node9 -->
<g id="edge20" class="edge"><title>Node10&#45;&gt;Node9</title>
<path fill="none" stroke="#9a32cd" stroke-dasharray="5,2" d="M126.979,-675.818C121.439,-672.138 116.51,-667.596 113,-662 81.8229,-612.303 79.8299,-578.389 113,-530 117.736,-523.091 134.511,-516.287 150.999,-511.008"/>
<polygon fill="#9a32cd" stroke="#9a32cd" points="125.639,-679.079 136.072,-680.919 129.064,-672.974 125.639,-679.079"/>
<text text-anchor="middle" x="137" y="-599" font-family="FreeSans" font-size="10.00"> Sender</text>
<text text-anchor="middle" x="137" y="-587" font-family="FreeSans" font-size="10.00">EventImpl</text>
</g>
</g>
</svg>
