<?xml version="1.0" encoding="UTF-8" standalone="no"?>
<!DOCTYPE svg PUBLIC "-//W3C//DTD SVG 1.1//EN"
 "http://www.w3.org/Graphics/SVG/1.1/DTD/svg11.dtd">
<!-- Generated by graphviz version 2.26.3 (20100126.1600)
 -->
<!-- Title: G Pages: 1 -->
<svg width="1166pt" height="142pt"
 viewBox="0.00 0.00 1166.00 142.00" xmlns="http://www.w3.org/2000/svg" xmlns:xlink="http://www.w3.org/1999/xlink">
<g id="graph1" class="graph" transform="scale(1 1) rotate(0) translate(4 138)">
<title>G</title>
<!-- Node1 -->
<g id="node1" class="node"><title>Node1</title>
<polygon fill="#bfbfbf" stroke="black" points="460,-38 460,-58 658,-58 658,-38 460,-38"/>
<text text-anchor="middle" x="559" y="-45" font-family="FreeSans" font-size="10.00">Kitware.VTK.vtkImageStencilAlgorithm</text>
</g>
<!-- Node6 -->
<g id="node11" class="node"><title>Node6</title>
<a xlink:href="class_kitware_1_1_v_t_k_1_1vtk_image_stencil_source.html" target="_top" xlink:title="vtkImageStencilSource &#45; generate an image stencil">
<polygon fill="none" stroke="black" points="697.5,-57 697.5,-77 882.5,-77 882.5,-57 697.5,-57"/>
<text text-anchor="middle" x="790" y="-64" font-family="FreeSans" font-size="10.00">Kitware.VTK.vtkImageStencilSource</text>
</a>
</g>
<!-- Node1&#45;&gt;Node6 -->
<g id="edge10" class="edge"><title>Node1&#45;&gt;Node6</title>
<path fill="none" stroke="midnightblue" d="M668.375,-56.9962C678.068,-57.7935 687.819,-58.5955 697.354,-59.3797"/>
<polygon fill="midnightblue" stroke="midnightblue" points="668.559,-53.4996 658.305,-56.168 667.985,-60.476 668.559,-53.4996"/>
</g>
<!-- Node11 -->
<g id="node21" class="node"><title>Node11</title>
<a xlink:href="class_kitware_1_1_v_t_k_1_1vtk_image_to_image_stencil.html" target="_top" xlink:title="vtkImageToImageStencil &#45; clip an image with a mask image">
<polygon fill="none" stroke="black" points="694.5,-19 694.5,-39 885.5,-39 885.5,-19 694.5,-19"/>
<text text-anchor="middle" x="790" y="-26" font-family="FreeSans" font-size="10.00">Kitware.VTK.vtkImageToImageStencil</text>
</a>
</g>
<!-- Node1&#45;&gt;Node11 -->
<g id="edge20" class="edge"><title>Node1&#45;&gt;Node11</title>
<path fill="none" stroke="midnightblue" d="M668.461,-38.9967C677.14,-38.2828 685.865,-37.5652 694.439,-36.86"/>
<polygon fill="midnightblue" stroke="midnightblue" points="667.985,-35.524 658.305,-39.832 668.559,-42.5004 667.985,-35.524"/>
</g>
<!-- Node2 -->
<g id="node2" class="node"><title>Node2</title>
<a xlink:href="class_kitware_1_1_v_t_k_1_1vtk_algorithm.html" target="_top" xlink:title="vtkAlgorithm &#45; Superclass for all sources, filters, and sinks in VTK.">
<polygon fill="none" stroke="black" points="346.5,-38 346.5,-58 423.5,-58 423.5,-38 346.5,-38"/>
<text text-anchor="middle" x="385" y="-45" font-family="FreeSans" font-size="10.00">vtkAlgorithm</text>
</a>
</g>
<!-- Node2&#45;&gt;Node1 -->
<g id="edge2" class="edge"><title>Node2&#45;&gt;Node1</title>
<path fill="none" stroke="midnightblue" d="M433.7,-48C441.925,-48 450.721,-48 459.695,-48"/>
<polygon fill="midnightblue" stroke="midnightblue" points="433.616,-44.5001 423.616,-48 433.616,-51.5001 433.616,-44.5001"/>
</g>
<!-- Node3 -->
<g id="node4" class="node"><title>Node3</title>
<a xlink:href="class_kitware_1_1_v_t_k_1_1vtk_object.html" target="_top" xlink:title="vtkObject &#45; abstract base class for most VTK objects">
<polygon fill="none" stroke="black" points="248,-38 248,-58 310,-58 310,-38 248,-38"/>
<text text-anchor="middle" x="279" y="-45" font-family="FreeSans" font-size="10.00">vtkObject</text>
</a>
</g>
<!-- Node3&#45;&gt;Node2 -->
<g id="edge4" class="edge"><title>Node3&#45;&gt;Node2</title>
<path fill="none" stroke="midnightblue" d="M320.421,-48C329.001,-48 338.007,-48 346.479,-48"/>
<polygon fill="midnightblue" stroke="midnightblue" points="320.23,-44.5001 310.23,-48 320.23,-51.5001 320.23,-44.5001"/>
</g>
<!-- Node4 -->
<g id="node6" class="node"><title>Node4</title>
<a xlink:href="class_kitware_1_1_v_t_k_1_1vtk_object_base.html" target="_top" xlink:title="vtkObjectBase &#45; abstract base class for most VTK objects">
<polygon fill="none" stroke="black" points="126,-38 126,-58 212,-58 212,-38 126,-38"/>
<text text-anchor="middle" x="169" y="-45" font-family="FreeSans" font-size="10.00">vtkObjectBase</text>
</a>
</g>
<!-- Node4&#45;&gt;Node3 -->
<g id="edge6" class="edge"><title>Node4&#45;&gt;Node3</title>
<path fill="none" stroke="midnightblue" d="M222.346,-48C231.091,-48 239.892,-48 247.863,-48"/>
<polygon fill="midnightblue" stroke="midnightblue" points="222.159,-44.5001 212.159,-48 222.159,-51.5001 222.159,-44.5001"/>
</g>
<!-- Node5 -->
<g id="node8" class="node"><title>Node5</title>
<a xlink:href="class_kitware_1_1_v_t_k_1_1_wrapped_object.html" target="_top" xlink:title="Base class for all the mummy wrapped classes in Kitware.VTK.">
<polygon fill="none" stroke="black" points="0.5,-38 0.5,-58 89.5,-58 89.5,-38 0.5,-38"/>
<text text-anchor="middle" x="45" y="-45" font-family="FreeSans" font-size="10.00">WrappedObject</text>
</a>
</g>
<!-- Node5&#45;&gt;Node4 -->
<g id="edge8" class="edge"><title>Node5&#45;&gt;Node4</title>
<path fill="none" stroke="midnightblue" d="M99.8895,-48C108.623,-48 117.548,-48 125.957,-48"/>
<polygon fill="midnightblue" stroke="midnightblue" points="99.7669,-44.5001 89.7668,-48 99.7668,-51.5001 99.7669,-44.5001"/>
</g>
<!-- Node7 -->
<g id="node13" class="node"><title>Node7</title>
<a xlink:href="class_kitware_1_1_v_t_k_1_1vtk_implicit_function_to_image_stencil.html" target="_top" xlink:title="vtkImplicitFunctionToImageStencil &#45; clip an image with a function">
<polygon fill="none" stroke="black" points="922.5,-114 922.5,-134 1157.5,-134 1157.5,-114 922.5,-114"/>
<text text-anchor="middle" x="1040" y="-121" font-family="FreeSans" font-size="10.00">Kitware.VTK.vtkImplicitFunctionToImageStencil</text>
</a>
</g>
<!-- Node6&#45;&gt;Node7 -->
<g id="edge12" class="edge"><title>Node6&#45;&gt;Node7</title>
<path fill="none" stroke="midnightblue" d="M830.778,-80.119C856.699,-88.1134 891.079,-98.0864 922,-105 937.086,-108.373 953.385,-111.392 968.913,-113.977"/>
<polygon fill="midnightblue" stroke="midnightblue" points="831.52,-76.6841 820.931,-77.0517 829.438,-83.3674 831.52,-76.6841"/>
</g>
<!-- Node8 -->
<g id="node15" class="node"><title>Node8</title>
<a xlink:href="class_kitware_1_1_v_t_k_1_1vtk_lasso_stencil_source.html" target="_top" xlink:title="vtkLassoStencilSource &#45; Create a stencil from a contour">
<polygon fill="none" stroke="black" points="948.5,-76 948.5,-96 1131.5,-96 1131.5,-76 948.5,-76"/>
<text text-anchor="middle" x="1040" y="-83" font-family="FreeSans" font-size="10.00">Kitware.VTK.vtkLassoStencilSource</text>
</a>
</g>
<!-- Node6&#45;&gt;Node8 -->
<g id="edge14" class="edge"><title>Node6&#45;&gt;Node8</title>
<path fill="none" stroke="midnightblue" d="M892.855,-74.817C911.212,-76.2121 930.227,-77.6572 948.247,-79.0268"/>
<polygon fill="midnightblue" stroke="midnightblue" points="892.972,-71.3159 882.736,-74.0479 892.441,-78.2957 892.972,-71.3159"/>
</g>
<!-- Node9 -->
<g id="node17" class="node"><title>Node9</title>
<a xlink:href="class_kitware_1_1_v_t_k_1_1vtk_poly_data_to_image_stencil.html" target="_top" xlink:title="vtkPolyDataToImageStencil &#45; use polydata to mask an image">
<polygon fill="none" stroke="black" points="938,-38 938,-58 1142,-58 1142,-38 938,-38"/>
<text text-anchor="middle" x="1040" y="-45" font-family="FreeSans" font-size="10.00">Kitware.VTK.vtkPolyDataToImageStencil</text>
</a>
</g>
<!-- Node6&#45;&gt;Node9 -->
<g id="edge16" class="edge"><title>Node6&#45;&gt;Node9</title>
<path fill="none" stroke="midnightblue" d="M892.908,-59.179C907.716,-58.0536 922.952,-56.8957 937.747,-55.7712"/>
<polygon fill="midnightblue" stroke="midnightblue" points="892.441,-55.7043 882.736,-59.9521 892.972,-62.6841 892.441,-55.7043"/>
</g>
<!-- Node10 -->
<g id="node19" class="node"><title>Node10</title>
<a xlink:href="class_kitware_1_1_v_t_k_1_1vtk_r_o_i_stencil_source.html" target="_top" xlink:title="vtkROIStencilSource &#45; create simple mask shapes">
<polygon fill="none" stroke="black" points="954.5,-0 954.5,-20 1125.5,-20 1125.5,-0 954.5,-0"/>
<text text-anchor="middle" x="1040" y="-7" font-family="FreeSans" font-size="10.00">Kitware.VTK.vtkROIStencilSource</text>
</a>
</g>
<!-- Node6&#45;&gt;Node10 -->
<g id="edge18" class="edge"><title>Node6&#45;&gt;Node10</title>
<path fill="none" stroke="midnightblue" d="M864.07,-54.6016C871.56,-52.6767 878.985,-50.4855 886,-48 903.053,-41.958 904.842,-34.7363 922,-29 932.824,-25.3815 944.443,-22.4408 956.017,-20.0537"/>
<polygon fill="midnightblue" stroke="midnightblue" points="863.116,-51.2314 854.216,-56.9809 864.759,-58.0359 863.116,-51.2314"/>
</g>
</g>
</svg>
