<?xml version="1.0" encoding="UTF-8" standalone="no"?>
<!DOCTYPE svg PUBLIC "-//W3C//DTD SVG 1.1//EN"
 "http://www.w3.org/Graphics/SVG/1.1/DTD/svg11.dtd">
<!-- Generated by graphviz version 2.26.3 (20100126.1600)
 -->
<!-- Title: G Pages: 1 -->
<svg width="438pt" height="650pt"
 viewBox="0.00 0.00 438.46 650.00" xmlns="http://www.w3.org/2000/svg" xmlns:xlink="http://www.w3.org/1999/xlink">
<g id="graph1" class="graph" transform="scale(1 1) rotate(0) translate(4 646)">
<title>G</title>
<!-- Node1 -->
<g id="node1" class="node"><title>Node1</title>
<polygon fill="#bfbfbf" stroke="black" points="0,-1 0,-21 204,-21 204,-1 0,-1"/>
<text text-anchor="middle" x="102" y="-8" font-family="FreeSans" font-size="10.00">Kitware.VTK.vtkRenderWindowCollection</text>
</g>
<!-- Node2 -->
<g id="node2" class="node"><title>Node2</title>
<a xlink:href="class_kitware_1_1_v_t_k_1_1vtk_collection.html" target="_top" xlink:title="vtkCollection &#45; create and manipulate unsorted lists of objects">
<polygon fill="none" stroke="black" points="63.5,-61 63.5,-81 140.5,-81 140.5,-61 63.5,-61"/>
<text text-anchor="middle" x="102" y="-68" font-family="FreeSans" font-size="10.00">vtkCollection</text>
</a>
</g>
<!-- Node2&#45;&gt;Node1 -->
<g id="edge2" class="edge"><title>Node2&#45;&gt;Node1</title>
<path fill="none" stroke="midnightblue" d="M102,-50.5155C102,-40.562 102,-29.0495 102,-21.0279"/>
<polygon fill="midnightblue" stroke="midnightblue" points="98.5001,-50.8218 102,-60.8218 105.5,-50.8219 98.5001,-50.8218"/>
</g>
<!-- Node3 -->
<g id="node4" class="node"><title>Node3</title>
<a xlink:href="class_kitware_1_1_v_t_k_1_1vtk_object.html" target="_top" xlink:title="vtkObject &#45; abstract base class for most VTK objects">
<polygon fill="none" stroke="black" points="71,-121 71,-141 133,-141 133,-121 71,-121"/>
<text text-anchor="middle" x="102" y="-128" font-family="FreeSans" font-size="10.00">vtkObject</text>
</a>
</g>
<!-- Node3&#45;&gt;Node2 -->
<g id="edge4" class="edge"><title>Node3&#45;&gt;Node2</title>
<path fill="none" stroke="midnightblue" d="M102,-110.516C102,-100.562 102,-89.0495 102,-81.0279"/>
<polygon fill="midnightblue" stroke="midnightblue" points="98.5001,-110.822 102,-120.822 105.5,-110.822 98.5001,-110.822"/>
</g>
<!-- Node4 -->
<g id="node6" class="node"><title>Node4</title>
<a xlink:href="class_kitware_1_1_v_t_k_1_1vtk_object_base.html" target="_top" xlink:title="vtkObjectBase &#45; abstract base class for most VTK objects">
<polygon fill="none" stroke="black" points="122,-561 122,-581 208,-581 208,-561 122,-561"/>
<text text-anchor="middle" x="165" y="-568" font-family="FreeSans" font-size="10.00">vtkObjectBase</text>
</a>
</g>
<!-- Node4&#45;&gt;Node3 -->
<g id="edge6" class="edge"><title>Node4&#45;&gt;Node3</title>
<path fill="none" stroke="midnightblue" d="M136.423,-555.886C122.687,-547.44 106.884,-535.826 96,-522 84.1564,-506.955 83.6209,-500.802 80,-482 54.4248,-349.199 89.5766,-183.437 99.5155,-141.17"/>
<polygon fill="midnightblue" stroke="midnightblue" points="134.683,-558.923 145.079,-560.97 138.229,-552.887 134.683,-558.923"/>
</g>
<!-- Node7 -->
<g id="node13" class="node"><title>Node7</title>
<a xlink:href="class_kitware_1_1_v_t_k_1_1vtk_object.html" target="_top" xlink:title="vtkObject &#45; abstract base class for most VTK objects">
<polygon fill="none" stroke="black" points="105,-501 105,-521 225,-521 225,-501 105,-501"/>
<text text-anchor="middle" x="165" y="-508" font-family="FreeSans" font-size="10.00">Kitware.VTK.vtkObject</text>
</a>
</g>
<!-- Node4&#45;&gt;Node7 -->
<g id="edge16" class="edge"><title>Node4&#45;&gt;Node7</title>
<path fill="none" stroke="midnightblue" d="M165,-550.516C165,-540.562 165,-529.05 165,-521.028"/>
<polygon fill="midnightblue" stroke="midnightblue" points="161.5,-550.822 165,-560.822 168.5,-550.822 161.5,-550.822"/>
</g>
<!-- Node5 -->
<g id="node8" class="node"><title>Node5</title>
<a xlink:href="class_kitware_1_1_v_t_k_1_1_wrapped_object.html" target="_top" xlink:title="Base class for all the mummy wrapped classes in Kitware.VTK.">
<polygon fill="none" stroke="black" points="303.5,-621 303.5,-641 392.5,-641 392.5,-621 303.5,-621"/>
<text text-anchor="middle" x="348" y="-628" font-family="FreeSans" font-size="10.00">WrappedObject</text>
</a>
</g>
<!-- Node5&#45;&gt;Node4 -->
<g id="edge8" class="edge"><title>Node5&#45;&gt;Node4</title>
<path fill="none" stroke="midnightblue" d="M307.804,-617.821C274.042,-606.752 226.512,-591.168 195.73,-581.075"/>
<polygon fill="midnightblue" stroke="midnightblue" points="306.777,-621.168 317.37,-620.957 308.958,-614.516 306.777,-621.168"/>
</g>
<!-- Node6 -->
<g id="node10" class="node"><title>Node6</title>
<a xlink:href="class_kitware_1_1_v_t_k_1_1vtk_object_event_relay.html" target="_top" xlink:title="Implement a relay handler for VTK events. This is a class that receives events directly from the VTK ...">
<polygon fill="none" stroke="black" points="94,-311 94,-331 266,-331 266,-311 94,-311"/>
<text text-anchor="middle" x="180" y="-318" font-family="FreeSans" font-size="10.00">Kitware.VTK.vtkObjectEventRelay</text>
</a>
</g>
<!-- Node5&#45;&gt;Node6 -->
<g id="edge12" class="edge"><title>Node5&#45;&gt;Node6</title>
<path fill="none" stroke="midnightblue" d="M360.888,-612.325C393.276,-562.899 470.803,-427.191 403,-350 393.773,-339.495 325.047,-331.666 266.298,-326.808"/>
<polygon fill="midnightblue" stroke="midnightblue" points="357.891,-610.509 355.239,-620.767 363.709,-614.402 357.891,-610.509"/>
</g>
<!-- Node6&#45;&gt;Node3 -->
<g id="edge10" class="edge"><title>Node6&#45;&gt;Node3</title>
<path fill="none" stroke="#9a32cd" stroke-dasharray="5,2" d="M171.921,-301.321C155.489,-261.293 118.674,-171.616 106.214,-141.266"/>
<polygon fill="#9a32cd" stroke="#9a32cd" points="168.771,-302.863 175.806,-310.785 175.246,-300.205 168.771,-302.863"/>
<text text-anchor="middle" x="279.5" y="-283" font-family="FreeSans" font-size="10.00"> LeftButtonReleaseEvtRelay</text>
<text text-anchor="middle" x="279.5" y="-271" font-family="FreeSans" font-size="10.00">KeyPressEvtRelay</text>
<text text-anchor="middle" x="279.5" y="-259" font-family="FreeSans" font-size="10.00">DomainModifiedEvtRelay</text>
<text text-anchor="middle" x="279.5" y="-247" font-family="FreeSans" font-size="10.00">VolumeMapperComputeGradientsStartEvtRelay</text>
<text text-anchor="middle" x="279.5" y="-235" font-family="FreeSans" font-size="10.00">ErrorEvtRelay</text>
<text text-anchor="middle" x="279.5" y="-223" font-family="FreeSans" font-size="10.00">VolumeMapperRenderStartEvtRelay</text>
<text text-anchor="middle" x="279.5" y="-211" font-family="FreeSans" font-size="10.00">StartEvtRelay</text>
<text text-anchor="middle" x="279.5" y="-199" font-family="FreeSans" font-size="10.00">ResetCameraEvtRelay</text>
<text text-anchor="middle" x="279.5" y="-187" font-family="FreeSans" font-size="10.00">EnableEvtRelay</text>
<text text-anchor="middle" x="279.5" y="-175" font-family="FreeSans" font-size="10.00">DeleteEvtRelay</text>
<text text-anchor="middle" x="279.5" y="-163" font-family="FreeSans" font-size="10.00">...</text>
</g>
<!-- Node6&#45;&gt;Node7 -->
<g id="edge18" class="edge"><title>Node6&#45;&gt;Node7</title>
<path fill="none" stroke="#9a32cd" stroke-dasharray="5,2" d="M177.028,-341.231C176.649,-344.169 176.293,-347.159 176,-350 170.144,-406.853 166.636,-475.333 165.452,-500.807"/>
<polygon fill="#9a32cd" stroke="#9a32cd" points="180.515,-341.565 178.421,-331.179 173.582,-340.604 180.515,-341.565"/>
<text text-anchor="middle" x="289.5" y="-473" font-family="FreeSans" font-size="10.00"> LeftButtonReleaseEvtRelay</text>
<text text-anchor="middle" x="289.5" y="-461" font-family="FreeSans" font-size="10.00">KeyPressEvtRelay</text>
<text text-anchor="middle" x="289.5" y="-449" font-family="FreeSans" font-size="10.00">DomainModifiedEvtRelay</text>
<text text-anchor="middle" x="289.5" y="-437" font-family="FreeSans" font-size="10.00">VolumeMapperComputeGradientsStartEvtRelay</text>
<text text-anchor="middle" x="289.5" y="-425" font-family="FreeSans" font-size="10.00">ErrorEvtRelay</text>
<text text-anchor="middle" x="289.5" y="-413" font-family="FreeSans" font-size="10.00">VolumeMapperRenderStartEvtRelay</text>
<text text-anchor="middle" x="289.5" y="-401" font-family="FreeSans" font-size="10.00">StartEvtRelay</text>
<text text-anchor="middle" x="289.5" y="-389" font-family="FreeSans" font-size="10.00">ResetCameraEvtRelay</text>
<text text-anchor="middle" x="289.5" y="-377" font-family="FreeSans" font-size="10.00">EnableEvtRelay</text>
<text text-anchor="middle" x="289.5" y="-365" font-family="FreeSans" font-size="10.00">DeleteEvtRelay</text>
<text text-anchor="middle" x="289.5" y="-353" font-family="FreeSans" font-size="10.00">...</text>
</g>
<!-- Node7&#45;&gt;Node6 -->
<g id="edge14" class="edge"><title>Node7&#45;&gt;Node6</title>
<path fill="none" stroke="#9a32cd" stroke-dasharray="5,2" d="M118.979,-495.818C113.439,-492.138 108.51,-487.596 105,-482 73.8229,-432.303 71.8299,-398.389 105,-350 109.736,-343.091 126.511,-336.287 142.999,-331.008"/>
<polygon fill="#9a32cd" stroke="#9a32cd" points="117.639,-499.079 128.072,-500.919 121.064,-492.974 117.639,-499.079"/>
<text text-anchor="middle" x="129" y="-419" font-family="FreeSans" font-size="10.00"> Sender</text>
<text text-anchor="middle" x="129" y="-407" font-family="FreeSans" font-size="10.00">EventImpl</text>
</g>
</g>
</svg>
