<?xml version="1.0" encoding="UTF-8" standalone="no"?>
<!DOCTYPE svg PUBLIC "-//W3C//DTD SVG 1.1//EN"
 "http://www.w3.org/Graphics/SVG/1.1/DTD/svg11.dtd">
<!-- Generated by graphviz version 2.26.3 (20100126.1600)
 -->
<!-- Title: G Pages: 1 -->
<svg width="1272pt" height="180pt"
 viewBox="0.00 0.00 1272.00 180.00" xmlns="http://www.w3.org/2000/svg" xmlns:xlink="http://www.w3.org/1999/xlink">
<g id="graph1" class="graph" transform="scale(1 1) rotate(0) translate(4 176)">
<title>G</title>
<!-- Node1 -->
<g id="node1" class="node"><title>Node1</title>
<polygon fill="#bfbfbf" stroke="black" points="502.5,-38 502.5,-58 709.5,-58 709.5,-38 502.5,-38"/>
<text text-anchor="middle" x="606" y="-45" font-family="FreeSans" font-size="10.00">Kitware.VTK.vtkHomogeneousTransform</text>
</g>
<!-- Node6 -->
<g id="node11" class="node"><title>Node6</title>
<a xlink:href="class_kitware_1_1_v_t_k_1_1vtk_linear_transform.html" target="_top" xlink:title="vtkLinearTransform &#45; abstract superclass for linear transformations">
<polygon fill="none" stroke="black" points="786,-76 786,-96 952,-96 952,-76 786,-76"/>
<text text-anchor="middle" x="869" y="-83" font-family="FreeSans" font-size="10.00">Kitware.VTK.vtkLinearTransform</text>
</a>
</g>
<!-- Node1&#45;&gt;Node6 -->
<g id="edge10" class="edge"><title>Node1&#45;&gt;Node6</title>
<path fill="none" stroke="midnightblue" d="M685.522,-59.4899C721.889,-64.7445 764.578,-70.9124 799.623,-75.976"/>
<polygon fill="midnightblue" stroke="midnightblue" points="685.842,-55.9998 675.444,-58.0338 684.841,-62.9279 685.842,-55.9998"/>
</g>
<!-- Node12 -->
<g id="node23" class="node"><title>Node12</title>
<a xlink:href="class_kitware_1_1_v_t_k_1_1vtk_matrix_to_homogeneous_transform.html" target="_top" xlink:title="vtkMatrixToHomogeneousTransform &#45; convert a matrix to a transform">
<polygon fill="none" stroke="black" points="746,-38 746,-58 992,-58 992,-38 746,-38"/>
<text text-anchor="middle" x="869" y="-45" font-family="FreeSans" font-size="10.00">Kitware.VTK.vtkMatrixToHomogeneousTransform</text>
</a>
</g>
<!-- Node1&#45;&gt;Node12 -->
<g id="edge22" class="edge"><title>Node1&#45;&gt;Node12</title>
<path fill="none" stroke="midnightblue" d="M719.701,-48C728.382,-48 737.169,-48 745.907,-48"/>
<polygon fill="midnightblue" stroke="midnightblue" points="719.567,-44.5001 709.567,-48 719.567,-51.5001 719.567,-44.5001"/>
</g>
<!-- Node13 -->
<g id="node25" class="node"><title>Node13</title>
<a xlink:href="class_kitware_1_1_v_t_k_1_1vtk_perspective_transform.html" target="_top" xlink:title="vtkPerspectiveTransform &#45; describes a 4x4 matrix transformation">
<polygon fill="none" stroke="black" points="773,-0 773,-20 965,-20 965,-0 773,-0"/>
<text text-anchor="middle" x="869" y="-7" font-family="FreeSans" font-size="10.00">Kitware.VTK.vtkPerspectiveTransform</text>
</a>
</g>
<!-- Node1&#45;&gt;Node13 -->
<g id="edge24" class="edge"><title>Node1&#45;&gt;Node13</title>
<path fill="none" stroke="midnightblue" d="M685.522,-36.5101C721.889,-31.2555 764.578,-25.0876 799.623,-20.024"/>
<polygon fill="midnightblue" stroke="midnightblue" points="684.841,-33.0721 675.444,-37.9662 685.842,-40.0002 684.841,-33.0721"/>
</g>
<!-- Node2 -->
<g id="node2" class="node"><title>Node2</title>
<a xlink:href="class_kitware_1_1_v_t_k_1_1vtk_abstract_transform.html" target="_top" xlink:title="vtkAbstractTransform &#45; superclass for all geometric transformations">
<polygon fill="none" stroke="black" points="346.5,-38 346.5,-58 465.5,-58 465.5,-38 346.5,-38"/>
<text text-anchor="middle" x="406" y="-45" font-family="FreeSans" font-size="10.00">vtkAbstractTransform</text>
</a>
</g>
<!-- Node2&#45;&gt;Node1 -->
<g id="edge2" class="edge"><title>Node2&#45;&gt;Node1</title>
<path fill="none" stroke="midnightblue" d="M476.016,-48C484.592,-48 493.492,-48 502.431,-48"/>
<polygon fill="midnightblue" stroke="midnightblue" points="475.736,-44.5001 465.736,-48 475.736,-51.5001 475.736,-44.5001"/>
</g>
<!-- Node3 -->
<g id="node4" class="node"><title>Node3</title>
<a xlink:href="class_kitware_1_1_v_t_k_1_1vtk_object.html" target="_top" xlink:title="vtkObject &#45; abstract base class for most VTK objects">
<polygon fill="none" stroke="black" points="248,-38 248,-58 310,-58 310,-38 248,-38"/>
<text text-anchor="middle" x="279" y="-45" font-family="FreeSans" font-size="10.00">vtkObject</text>
</a>
</g>
<!-- Node3&#45;&gt;Node2 -->
<g id="edge4" class="edge"><title>Node3&#45;&gt;Node2</title>
<path fill="none" stroke="midnightblue" d="M320.297,-48C328.661,-48 337.614,-48 346.464,-48"/>
<polygon fill="midnightblue" stroke="midnightblue" points="320.068,-44.5001 310.068,-48 320.068,-51.5001 320.068,-44.5001"/>
</g>
<!-- Node4 -->
<g id="node6" class="node"><title>Node4</title>
<a xlink:href="class_kitware_1_1_v_t_k_1_1vtk_object_base.html" target="_top" xlink:title="vtkObjectBase &#45; abstract base class for most VTK objects">
<polygon fill="none" stroke="black" points="126,-38 126,-58 212,-58 212,-38 126,-38"/>
<text text-anchor="middle" x="169" y="-45" font-family="FreeSans" font-size="10.00">vtkObjectBase</text>
</a>
</g>
<!-- Node4&#45;&gt;Node3 -->
<g id="edge6" class="edge"><title>Node4&#45;&gt;Node3</title>
<path fill="none" stroke="midnightblue" d="M222.346,-48C231.091,-48 239.892,-48 247.863,-48"/>
<polygon fill="midnightblue" stroke="midnightblue" points="222.159,-44.5001 212.159,-48 222.159,-51.5001 222.159,-44.5001"/>
</g>
<!-- Node5 -->
<g id="node8" class="node"><title>Node5</title>
<a xlink:href="class_kitware_1_1_v_t_k_1_1_wrapped_object.html" target="_top" xlink:title="Base class for all the mummy wrapped classes in Kitware.VTK.">
<polygon fill="none" stroke="black" points="0.5,-38 0.5,-58 89.5,-58 89.5,-38 0.5,-38"/>
<text text-anchor="middle" x="45" y="-45" font-family="FreeSans" font-size="10.00">WrappedObject</text>
</a>
</g>
<!-- Node5&#45;&gt;Node4 -->
<g id="edge8" class="edge"><title>Node5&#45;&gt;Node4</title>
<path fill="none" stroke="midnightblue" d="M99.8895,-48C108.623,-48 117.548,-48 125.957,-48"/>
<polygon fill="midnightblue" stroke="midnightblue" points="99.7669,-44.5001 89.7668,-48 99.7668,-51.5001 99.7669,-44.5001"/>
</g>
<!-- Node7 -->
<g id="node13" class="node"><title>Node7</title>
<a xlink:href="class_kitware_1_1_v_t_k_1_1vtk_identity_transform.html" target="_top" xlink:title="vtkIdentityTransform &#45; a transform that doesn&#39;t do anything">
<polygon fill="none" stroke="black" points="1060,-152 1060,-172 1232,-172 1232,-152 1060,-152"/>
<text text-anchor="middle" x="1146" y="-159" font-family="FreeSans" font-size="10.00">Kitware.VTK.vtkIdentityTransform</text>
</a>
</g>
<!-- Node6&#45;&gt;Node7 -->
<g id="edge12" class="edge"><title>Node6&#45;&gt;Node7</title>
<path fill="none" stroke="midnightblue" d="M902.074,-99.885C933.852,-112.738 983.476,-131.54 1028,-143 1041.56,-146.491 1056.18,-149.463 1070.35,-151.945"/>
<polygon fill="midnightblue" stroke="midnightblue" points="903.391,-96.6424 892.81,-96.1019 900.745,-103.123 903.391,-96.6424"/>
</g>
<!-- Node8 -->
<g id="node15" class="node"><title>Node8</title>
<a xlink:href="class_kitware_1_1_v_t_k_1_1vtk_iterative_closest_point_transform.html" target="_top" xlink:title="vtkIterativeClosestPointTransform &#45; Implementation of the ICP algorithm.">
<polygon fill="none" stroke="black" points="1028.5,-114 1028.5,-134 1263.5,-134 1263.5,-114 1028.5,-114"/>
<text text-anchor="middle" x="1146" y="-121" font-family="FreeSans" font-size="10.00">Kitware.VTK.vtkIterativeClosestPointTransform</text>
</a>
</g>
<!-- Node6&#45;&gt;Node8 -->
<g id="edge14" class="edge"><title>Node6&#45;&gt;Node8</title>
<path fill="none" stroke="midnightblue" d="M952.265,-97.4226C990.674,-102.692 1035.86,-108.891 1072.93,-113.976"/>
<polygon fill="midnightblue" stroke="midnightblue" points="952.524,-93.9254 942.141,-96.0338 951.572,-100.86 952.524,-93.9254"/>
</g>
<!-- Node9 -->
<g id="node17" class="node"><title>Node9</title>
<a xlink:href="class_kitware_1_1_v_t_k_1_1vtk_landmark_transform.html" target="_top" xlink:title="vtkLandmarkTransform &#45; a linear transform specified by two corresponding point sets">
<polygon fill="none" stroke="black" points="1053.5,-76 1053.5,-96 1238.5,-96 1238.5,-76 1053.5,-76"/>
<text text-anchor="middle" x="1146" y="-83" font-family="FreeSans" font-size="10.00">Kitware.VTK.vtkLandmarkTransform</text>
</a>
</g>
<!-- Node6&#45;&gt;Node9 -->
<g id="edge16" class="edge"><title>Node6&#45;&gt;Node9</title>
<path fill="none" stroke="midnightblue" d="M962.34,-86C991.65,-86 1023.99,-86 1053.26,-86"/>
<polygon fill="midnightblue" stroke="midnightblue" points="962.109,-82.5001 952.109,-86 962.109,-89.5001 962.109,-82.5001"/>
</g>
<!-- Node10 -->
<g id="node19" class="node"><title>Node10</title>
<a xlink:href="class_kitware_1_1_v_t_k_1_1vtk_matrix_to_linear_transform.html" target="_top" xlink:title="vtkMatrixToLinearTransform &#45; convert a matrix to a transform">
<polygon fill="none" stroke="black" points="1043.5,-38 1043.5,-58 1248.5,-58 1248.5,-38 1043.5,-38"/>
<text text-anchor="middle" x="1146" y="-45" font-family="FreeSans" font-size="10.00">Kitware.VTK.vtkMatrixToLinearTransform</text>
</a>
</g>
<!-- Node6&#45;&gt;Node10 -->
<g id="edge18" class="edge"><title>Node6&#45;&gt;Node10</title>
<path fill="none" stroke="midnightblue" d="M952.265,-74.5774C990.674,-69.3083 1035.86,-63.1093 1072.93,-58.024"/>
<polygon fill="midnightblue" stroke="midnightblue" points="951.572,-71.1395 942.141,-75.9662 952.524,-78.0746 951.572,-71.1395"/>
</g>
<!-- Node11 -->
<g id="node21" class="node"><title>Node11</title>
<a xlink:href="class_kitware_1_1_v_t_k_1_1vtk_transform.html" target="_top" xlink:title="vtkTransform &#45; describes linear transformations via a 4x4 matrix">
<polygon fill="none" stroke="black" points="1077.5,-0 1077.5,-20 1214.5,-20 1214.5,-0 1077.5,-0"/>
<text text-anchor="middle" x="1146" y="-7" font-family="FreeSans" font-size="10.00">Kitware.VTK.vtkTransform</text>
</a>
</g>
<!-- Node6&#45;&gt;Node11 -->
<g id="edge20" class="edge"><title>Node6&#45;&gt;Node11</title>
<path fill="none" stroke="midnightblue" d="M962.135,-78.3774C972.539,-75.5696 982.718,-71.8656 992,-67 1012.6,-56.1984 1007.43,-39.8673 1028,-29 1043.04,-21.0519 1060.56,-16.2462 1077.42,-13.3852"/>
<polygon fill="midnightblue" stroke="midnightblue" points="961.009,-75.0489 952.113,-80.8036 962.656,-81.8524 961.009,-75.0489"/>
</g>
</g>
</svg>
