<?xml version="1.0" encoding="UTF-8" standalone="no"?>
<!DOCTYPE svg PUBLIC "-//W3C//DTD SVG 1.1//EN"
 "http://www.w3.org/Graphics/SVG/1.1/DTD/svg11.dtd">
<!-- Generated by graphviz version 2.26.3 (20100126.1600)
 -->
<!-- Title: G Pages: 1 -->
<svg width="1200pt" height="104pt"
 viewBox="0.00 0.00 1200.00 104.00" xmlns="http://www.w3.org/2000/svg" xmlns:xlink="http://www.w3.org/1999/xlink">
<g id="graph1" class="graph" transform="scale(1 1) rotate(0) translate(4 100)">
<title>G</title>
<!-- Node1 -->
<g id="node1" class="node"><title>Node1</title>
<polygon fill="#bfbfbf" stroke="black" points="698,-38 698,-58 892,-58 892,-38 698,-38"/>
<text text-anchor="middle" x="795" y="-45" font-family="FreeSans" font-size="10.00">Kitware.VTK.vtkStructuredGridSource</text>
</g>
<!-- Node8 -->
<g id="node15" class="node"><title>Node8</title>
<a xlink:href="class_kitware_1_1_v_t_k_1_1vtk_data_set_to_structured_grid_filter.html" target="_top" xlink:title="vtkDataSetToStructuredGridFilter &#45; abstract filter class">
<polygon fill="none" stroke="black" points="944,-76 944,-96 1176,-96 1176,-76 944,-76"/>
<text text-anchor="middle" x="1060" y="-83" font-family="FreeSans" font-size="10.00">Kitware.VTK.vtkDataSetToStructuredGridFilter</text>
</a>
</g>
<!-- Node1&#45;&gt;Node8 -->
<g id="edge14" class="edge"><title>Node1&#45;&gt;Node8</title>
<path fill="none" stroke="midnightblue" d="M875.127,-59.4899C911.771,-64.7445 954.784,-70.9124 990.095,-75.976"/>
<polygon fill="midnightblue" stroke="midnightblue" points="875.368,-55.9887 864.972,-58.0338 874.374,-62.9178 875.368,-55.9887"/>
</g>
<!-- Node9 -->
<g id="node17" class="node"><title>Node9</title>
<a xlink:href="class_kitware_1_1_v_t_k_1_1vtk_p_l_o_t3_d_reader.html" target="_top" xlink:title="vtkPLOT3DReader &#45; read PLOT3D data files">
<polygon fill="none" stroke="black" points="980,-38 980,-58 1140,-58 1140,-38 980,-38"/>
<text text-anchor="middle" x="1060" y="-45" font-family="FreeSans" font-size="10.00">Kitware.VTK.vtkPLOT3DReader</text>
</a>
</g>
<!-- Node1&#45;&gt;Node9 -->
<g id="edge16" class="edge"><title>Node1&#45;&gt;Node9</title>
<path fill="none" stroke="midnightblue" d="M902.387,-48C928.241,-48 955.419,-48 979.786,-48"/>
<polygon fill="midnightblue" stroke="midnightblue" points="902.172,-44.5001 892.171,-48 902.171,-51.5001 902.172,-44.5001"/>
</g>
<!-- Node10 -->
<g id="node19" class="node"><title>Node10</title>
<a xlink:href="class_kitware_1_1_v_t_k_1_1vtk_structured_grid_to_structured_grid_filter.html" target="_top" xlink:title="vtkStructuredGridToStructuredGridFilter &#45; abstract filter class">
<polygon fill="none" stroke="black" points="928.5,-0 928.5,-20 1191.5,-20 1191.5,-0 928.5,-0"/>
<text text-anchor="middle" x="1060" y="-7" font-family="FreeSans" font-size="10.00">Kitware.VTK.vtkStructuredGridToStructuredGridFilter</text>
</a>
</g>
<!-- Node1&#45;&gt;Node10 -->
<g id="edge18" class="edge"><title>Node1&#45;&gt;Node10</title>
<path fill="none" stroke="midnightblue" d="M875.127,-36.5101C911.771,-31.2555 954.784,-25.0876 990.095,-20.024"/>
<polygon fill="midnightblue" stroke="midnightblue" points="874.374,-33.0822 864.972,-37.9662 875.368,-40.0113 874.374,-33.0822"/>
</g>
<!-- Node2 -->
<g id="node2" class="node"><title>Node2</title>
<a xlink:href="class_kitware_1_1_v_t_k_1_1vtk_source.html" target="_top" xlink:title="vtkSource &#45; abstract class specifies interface for visualization network source">
<polygon fill="none" stroke="black" points="596.5,-38 596.5,-58 661.5,-58 661.5,-38 596.5,-38"/>
<text text-anchor="middle" x="629" y="-45" font-family="FreeSans" font-size="10.00">vtkSource</text>
</a>
</g>
<!-- Node2&#45;&gt;Node1 -->
<g id="edge2" class="edge"><title>Node2&#45;&gt;Node1</title>
<path fill="none" stroke="midnightblue" d="M672.013,-48C680.105,-48 688.864,-48 697.85,-48"/>
<polygon fill="midnightblue" stroke="midnightblue" points="671.796,-44.5001 661.796,-48 671.796,-51.5001 671.796,-44.5001"/>
</g>
<!-- Node3 -->
<g id="node4" class="node"><title>Node3</title>
<a xlink:href="class_kitware_1_1_v_t_k_1_1vtk_process_object.html" target="_top" xlink:title="vtkProcessObject &#45; abstract class specifies interface for visualization filters">
<polygon fill="none" stroke="black" points="460.5,-38 460.5,-58 559.5,-58 559.5,-38 460.5,-38"/>
<text text-anchor="middle" x="510" y="-45" font-family="FreeSans" font-size="10.00">vtkProcessObject</text>
</a>
</g>
<!-- Node3&#45;&gt;Node2 -->
<g id="edge4" class="edge"><title>Node3&#45;&gt;Node2</title>
<path fill="none" stroke="midnightblue" d="M569.997,-48C579.082,-48 588.152,-48 596.36,-48"/>
<polygon fill="midnightblue" stroke="midnightblue" points="569.777,-44.5001 559.777,-48 569.777,-51.5001 569.777,-44.5001"/>
</g>
<!-- Node4 -->
<g id="node6" class="node"><title>Node4</title>
<a xlink:href="class_kitware_1_1_v_t_k_1_1vtk_algorithm.html" target="_top" xlink:title="vtkAlgorithm &#45; Superclass for all sources, filters, and sinks in VTK.">
<polygon fill="none" stroke="black" points="346.5,-38 346.5,-58 423.5,-58 423.5,-38 346.5,-38"/>
<text text-anchor="middle" x="385" y="-45" font-family="FreeSans" font-size="10.00">vtkAlgorithm</text>
</a>
</g>
<!-- Node4&#45;&gt;Node3 -->
<g id="edge6" class="edge"><title>Node4&#45;&gt;Node3</title>
<path fill="none" stroke="midnightblue" d="M433.594,-48C442.361,-48 451.512,-48 460.309,-48"/>
<polygon fill="midnightblue" stroke="midnightblue" points="433.524,-44.5001 423.524,-48 433.524,-51.5001 433.524,-44.5001"/>
</g>
<!-- Node5 -->
<g id="node8" class="node"><title>Node5</title>
<a xlink:href="class_kitware_1_1_v_t_k_1_1vtk_object.html" target="_top" xlink:title="vtkObject &#45; abstract base class for most VTK objects">
<polygon fill="none" stroke="black" points="248,-38 248,-58 310,-58 310,-38 248,-38"/>
<text text-anchor="middle" x="279" y="-45" font-family="FreeSans" font-size="10.00">vtkObject</text>
</a>
</g>
<!-- Node5&#45;&gt;Node4 -->
<g id="edge8" class="edge"><title>Node5&#45;&gt;Node4</title>
<path fill="none" stroke="midnightblue" d="M320.421,-48C329.001,-48 338.007,-48 346.479,-48"/>
<polygon fill="midnightblue" stroke="midnightblue" points="320.23,-44.5001 310.23,-48 320.23,-51.5001 320.23,-44.5001"/>
</g>
<!-- Node6 -->
<g id="node10" class="node"><title>Node6</title>
<a xlink:href="class_kitware_1_1_v_t_k_1_1vtk_object_base.html" target="_top" xlink:title="vtkObjectBase &#45; abstract base class for most VTK objects">
<polygon fill="none" stroke="black" points="126,-38 126,-58 212,-58 212,-38 126,-38"/>
<text text-anchor="middle" x="169" y="-45" font-family="FreeSans" font-size="10.00">vtkObjectBase</text>
</a>
</g>
<!-- Node6&#45;&gt;Node5 -->
<g id="edge10" class="edge"><title>Node6&#45;&gt;Node5</title>
<path fill="none" stroke="midnightblue" d="M222.346,-48C231.091,-48 239.892,-48 247.863,-48"/>
<polygon fill="midnightblue" stroke="midnightblue" points="222.159,-44.5001 212.159,-48 222.159,-51.5001 222.159,-44.5001"/>
</g>
<!-- Node7 -->
<g id="node12" class="node"><title>Node7</title>
<a xlink:href="class_kitware_1_1_v_t_k_1_1_wrapped_object.html" target="_top" xlink:title="Base class for all the mummy wrapped classes in Kitware.VTK.">
<polygon fill="none" stroke="black" points="0.5,-38 0.5,-58 89.5,-58 89.5,-38 0.5,-38"/>
<text text-anchor="middle" x="45" y="-45" font-family="FreeSans" font-size="10.00">WrappedObject</text>
</a>
</g>
<!-- Node7&#45;&gt;Node6 -->
<g id="edge12" class="edge"><title>Node7&#45;&gt;Node6</title>
<path fill="none" stroke="midnightblue" d="M99.8895,-48C108.623,-48 117.548,-48 125.957,-48"/>
<polygon fill="midnightblue" stroke="midnightblue" points="99.7669,-44.5001 89.7668,-48 99.7668,-51.5001 99.7669,-44.5001"/>
</g>
</g>
</svg>
