<?xml version="1.0" encoding="UTF-8" standalone="no"?>
<!DOCTYPE svg PUBLIC "-//W3C//DTD SVG 1.1//EN"
 "http://www.w3.org/Graphics/SVG/1.1/DTD/svg11.dtd">
<!-- Generated by graphviz version 2.26.3 (20100126.1600)
 -->
<!-- Title: G Pages: 1 -->
<svg width="439pt" height="890pt"
 viewBox="0.00 0.00 439.46 890.00" xmlns="http://www.w3.org/2000/svg" xmlns:xlink="http://www.w3.org/1999/xlink">
<g id="graph1" class="graph" transform="scale(1 1) rotate(0) translate(4 886)">
<title>G</title>
<!-- Node1 -->
<g id="node1" class="node"><title>Node1</title>
<polygon fill="#bfbfbf" stroke="black" points="0,-1 0,-21 206,-21 206,-1 0,-1"/>
<text text-anchor="middle" x="103" y="-8" font-family="FreeSans" font-size="10.00">Kitware.VTK.vtkTableToPostgreSQLWriter</text>
</g>
<!-- Node2 -->
<g id="node2" class="node"><title>Node2</title>
<a xlink:href="class_kitware_1_1_v_t_k_1_1vtk_table_to_database_writer.html" target="_top" xlink:title="vtkTableToDatabaseWriter in a SQL database.">
<polygon fill="none" stroke="black" points="34,-61 34,-81 172,-81 172,-61 34,-61"/>
<text text-anchor="middle" x="103" y="-68" font-family="FreeSans" font-size="10.00">vtkTableToDatabaseWriter</text>
</a>
</g>
<!-- Node2&#45;&gt;Node1 -->
<g id="edge2" class="edge"><title>Node2&#45;&gt;Node1</title>
<path fill="none" stroke="midnightblue" d="M103,-50.5155C103,-40.562 103,-29.0495 103,-21.0279"/>
<polygon fill="midnightblue" stroke="midnightblue" points="99.5001,-50.8218 103,-60.8218 106.5,-50.8219 99.5001,-50.8218"/>
</g>
<!-- Node3 -->
<g id="node4" class="node"><title>Node3</title>
<a xlink:href="class_kitware_1_1_v_t_k_1_1vtk_table_writer.html" target="_top" xlink:title="vtkTableWriter &#45; write vtkTable to a file">
<polygon fill="none" stroke="black" points="62,-121 62,-141 144,-141 144,-121 62,-121"/>
<text text-anchor="middle" x="103" y="-128" font-family="FreeSans" font-size="10.00">vtkTableWriter</text>
</a>
</g>
<!-- Node3&#45;&gt;Node2 -->
<g id="edge4" class="edge"><title>Node3&#45;&gt;Node2</title>
<path fill="none" stroke="midnightblue" d="M103,-110.516C103,-100.562 103,-89.0495 103,-81.0279"/>
<polygon fill="midnightblue" stroke="midnightblue" points="99.5001,-110.822 103,-120.822 106.5,-110.822 99.5001,-110.822"/>
</g>
<!-- Node4 -->
<g id="node6" class="node"><title>Node4</title>
<a xlink:href="class_kitware_1_1_v_t_k_1_1vtk_data_writer.html" target="_top" xlink:title="vtkDataWriter &#45; helper class for objects that write vtk data files">
<polygon fill="none" stroke="black" points="62.5,-181 62.5,-201 143.5,-201 143.5,-181 62.5,-181"/>
<text text-anchor="middle" x="103" y="-188" font-family="FreeSans" font-size="10.00">vtkDataWriter</text>
</a>
</g>
<!-- Node4&#45;&gt;Node3 -->
<g id="edge6" class="edge"><title>Node4&#45;&gt;Node3</title>
<path fill="none" stroke="midnightblue" d="M103,-170.516C103,-160.562 103,-149.05 103,-141.028"/>
<polygon fill="midnightblue" stroke="midnightblue" points="99.5001,-170.822 103,-180.822 106.5,-170.822 99.5001,-170.822"/>
</g>
<!-- Node5 -->
<g id="node8" class="node"><title>Node5</title>
<a xlink:href="class_kitware_1_1_v_t_k_1_1vtk_writer.html" target="_top" xlink:title="vtkWriter &#45; abstract class to write data to file(s)">
<polygon fill="none" stroke="black" points="74,-241 74,-261 132,-261 132,-241 74,-241"/>
<text text-anchor="middle" x="103" y="-248" font-family="FreeSans" font-size="10.00">vtkWriter</text>
</a>
</g>
<!-- Node5&#45;&gt;Node4 -->
<g id="edge8" class="edge"><title>Node5&#45;&gt;Node4</title>
<path fill="none" stroke="midnightblue" d="M103,-230.516C103,-220.562 103,-209.05 103,-201.028"/>
<polygon fill="midnightblue" stroke="midnightblue" points="99.5001,-230.822 103,-240.822 106.5,-230.822 99.5001,-230.822"/>
</g>
<!-- Node6 -->
<g id="node10" class="node"><title>Node6</title>
<a xlink:href="class_kitware_1_1_v_t_k_1_1vtk_algorithm.html" target="_top" xlink:title="vtkAlgorithm &#45; Superclass for all sources, filters, and sinks in VTK.">
<polygon fill="none" stroke="black" points="64.5,-301 64.5,-321 141.5,-321 141.5,-301 64.5,-301"/>
<text text-anchor="middle" x="103" y="-308" font-family="FreeSans" font-size="10.00">vtkAlgorithm</text>
</a>
</g>
<!-- Node6&#45;&gt;Node5 -->
<g id="edge10" class="edge"><title>Node6&#45;&gt;Node5</title>
<path fill="none" stroke="midnightblue" d="M103,-290.516C103,-280.562 103,-269.05 103,-261.028"/>
<polygon fill="midnightblue" stroke="midnightblue" points="99.5001,-290.822 103,-300.822 106.5,-290.822 99.5001,-290.822"/>
</g>
<!-- Node7 -->
<g id="node12" class="node"><title>Node7</title>
<a xlink:href="class_kitware_1_1_v_t_k_1_1vtk_object.html" target="_top" xlink:title="vtkObject &#45; abstract base class for most VTK objects">
<polygon fill="none" stroke="black" points="72,-361 72,-381 134,-381 134,-361 72,-361"/>
<text text-anchor="middle" x="103" y="-368" font-family="FreeSans" font-size="10.00">vtkObject</text>
</a>
</g>
<!-- Node7&#45;&gt;Node6 -->
<g id="edge12" class="edge"><title>Node7&#45;&gt;Node6</title>
<path fill="none" stroke="midnightblue" d="M103,-350.516C103,-340.562 103,-329.05 103,-321.028"/>
<polygon fill="midnightblue" stroke="midnightblue" points="99.5001,-350.822 103,-360.822 106.5,-350.822 99.5001,-350.822"/>
</g>
<!-- Node8 -->
<g id="node14" class="node"><title>Node8</title>
<a xlink:href="class_kitware_1_1_v_t_k_1_1vtk_object_base.html" target="_top" xlink:title="vtkObjectBase &#45; abstract base class for most VTK objects">
<polygon fill="none" stroke="black" points="123,-801 123,-821 209,-821 209,-801 123,-801"/>
<text text-anchor="middle" x="166" y="-808" font-family="FreeSans" font-size="10.00">vtkObjectBase</text>
</a>
</g>
<!-- Node8&#45;&gt;Node7 -->
<g id="edge14" class="edge"><title>Node8&#45;&gt;Node7</title>
<path fill="none" stroke="midnightblue" d="M137.423,-795.886C123.687,-787.44 107.884,-775.826 97,-762 85.1564,-746.955 84.6209,-740.802 81,-722 55.4248,-589.199 90.5766,-423.437 100.516,-381.17"/>
<polygon fill="midnightblue" stroke="midnightblue" points="135.683,-798.923 146.079,-800.97 139.229,-792.887 135.683,-798.923"/>
</g>
<!-- Node11 -->
<g id="node21" class="node"><title>Node11</title>
<a xlink:href="class_kitware_1_1_v_t_k_1_1vtk_object.html" target="_top" xlink:title="vtkObject &#45; abstract base class for most VTK objects">
<polygon fill="none" stroke="black" points="106,-741 106,-761 226,-761 226,-741 106,-741"/>
<text text-anchor="middle" x="166" y="-748" font-family="FreeSans" font-size="10.00">Kitware.VTK.vtkObject</text>
</a>
</g>
<!-- Node8&#45;&gt;Node11 -->
<g id="edge24" class="edge"><title>Node8&#45;&gt;Node11</title>
<path fill="none" stroke="midnightblue" d="M166,-790.516C166,-780.562 166,-769.05 166,-761.028"/>
<polygon fill="midnightblue" stroke="midnightblue" points="162.5,-790.822 166,-800.822 169.5,-790.822 162.5,-790.822"/>
</g>
<!-- Node9 -->
<g id="node16" class="node"><title>Node9</title>
<a xlink:href="class_kitware_1_1_v_t_k_1_1_wrapped_object.html" target="_top" xlink:title="Base class for all the mummy wrapped classes in Kitware.VTK.">
<polygon fill="none" stroke="black" points="304.5,-861 304.5,-881 393.5,-881 393.5,-861 304.5,-861"/>
<text text-anchor="middle" x="349" y="-868" font-family="FreeSans" font-size="10.00">WrappedObject</text>
</a>
</g>
<!-- Node9&#45;&gt;Node8 -->
<g id="edge16" class="edge"><title>Node9&#45;&gt;Node8</title>
<path fill="none" stroke="midnightblue" d="M308.804,-857.821C275.042,-846.752 227.512,-831.168 196.73,-821.075"/>
<polygon fill="midnightblue" stroke="midnightblue" points="307.777,-861.168 318.37,-860.957 309.958,-854.516 307.777,-861.168"/>
</g>
<!-- Node10 -->
<g id="node18" class="node"><title>Node10</title>
<a xlink:href="class_kitware_1_1_v_t_k_1_1vtk_object_event_relay.html" target="_top" xlink:title="Implement a relay handler for VTK events. This is a class that receives events directly from the VTK ...">
<polygon fill="none" stroke="black" points="95,-551 95,-571 267,-571 267,-551 95,-551"/>
<text text-anchor="middle" x="181" y="-558" font-family="FreeSans" font-size="10.00">Kitware.VTK.vtkObjectEventRelay</text>
</a>
</g>
<!-- Node9&#45;&gt;Node10 -->
<g id="edge20" class="edge"><title>Node9&#45;&gt;Node10</title>
<path fill="none" stroke="midnightblue" d="M361.888,-852.325C394.276,-802.899 471.803,-667.191 404,-590 394.773,-579.495 326.047,-571.666 267.298,-566.808"/>
<polygon fill="midnightblue" stroke="midnightblue" points="358.891,-850.509 356.239,-860.767 364.709,-854.402 358.891,-850.509"/>
</g>
<!-- Node10&#45;&gt;Node7 -->
<g id="edge18" class="edge"><title>Node10&#45;&gt;Node7</title>
<path fill="none" stroke="#9a32cd" stroke-dasharray="5,2" d="M172.921,-541.321C156.489,-501.293 119.674,-411.616 107.214,-381.266"/>
<polygon fill="#9a32cd" stroke="#9a32cd" points="169.771,-542.863 176.806,-550.785 176.246,-540.205 169.771,-542.863"/>
<text text-anchor="middle" x="280.5" y="-523" font-family="FreeSans" font-size="10.00"> LeftButtonReleaseEvtRelay</text>
<text text-anchor="middle" x="280.5" y="-511" font-family="FreeSans" font-size="10.00">KeyPressEvtRelay</text>
<text text-anchor="middle" x="280.5" y="-499" font-family="FreeSans" font-size="10.00">DomainModifiedEvtRelay</text>
<text text-anchor="middle" x="280.5" y="-487" font-family="FreeSans" font-size="10.00">VolumeMapperComputeGradientsStartEvtRelay</text>
<text text-anchor="middle" x="280.5" y="-475" font-family="FreeSans" font-size="10.00">ErrorEvtRelay</text>
<text text-anchor="middle" x="280.5" y="-463" font-family="FreeSans" font-size="10.00">VolumeMapperRenderStartEvtRelay</text>
<text text-anchor="middle" x="280.5" y="-451" font-family="FreeSans" font-size="10.00">StartEvtRelay</text>
<text text-anchor="middle" x="280.5" y="-439" font-family="FreeSans" font-size="10.00">ResetCameraEvtRelay</text>
<text text-anchor="middle" x="280.5" y="-427" font-family="FreeSans" font-size="10.00">EnableEvtRelay</text>
<text text-anchor="middle" x="280.5" y="-415" font-family="FreeSans" font-size="10.00">DeleteEvtRelay</text>
<text text-anchor="middle" x="280.5" y="-403" font-family="FreeSans" font-size="10.00">...</text>
</g>
<!-- Node10&#45;&gt;Node11 -->
<g id="edge26" class="edge"><title>Node10&#45;&gt;Node11</title>
<path fill="none" stroke="#9a32cd" stroke-dasharray="5,2" d="M178.028,-581.231C177.649,-584.169 177.293,-587.159 177,-590 171.144,-646.853 167.636,-715.333 166.452,-740.807"/>
<polygon fill="#9a32cd" stroke="#9a32cd" points="181.515,-581.565 179.421,-571.179 174.582,-580.604 181.515,-581.565"/>
<text text-anchor="middle" x="290.5" y="-713" font-family="FreeSans" font-size="10.00"> LeftButtonReleaseEvtRelay</text>
<text text-anchor="middle" x="290.5" y="-701" font-family="FreeSans" font-size="10.00">KeyPressEvtRelay</text>
<text text-anchor="middle" x="290.5" y="-689" font-family="FreeSans" font-size="10.00">DomainModifiedEvtRelay</text>
<text text-anchor="middle" x="290.5" y="-677" font-family="FreeSans" font-size="10.00">VolumeMapperComputeGradientsStartEvtRelay</text>
<text text-anchor="middle" x="290.5" y="-665" font-family="FreeSans" font-size="10.00">ErrorEvtRelay</text>
<text text-anchor="middle" x="290.5" y="-653" font-family="FreeSans" font-size="10.00">VolumeMapperRenderStartEvtRelay</text>
<text text-anchor="middle" x="290.5" y="-641" font-family="FreeSans" font-size="10.00">StartEvtRelay</text>
<text text-anchor="middle" x="290.5" y="-629" font-family="FreeSans" font-size="10.00">ResetCameraEvtRelay</text>
<text text-anchor="middle" x="290.5" y="-617" font-family="FreeSans" font-size="10.00">EnableEvtRelay</text>
<text text-anchor="middle" x="290.5" y="-605" font-family="FreeSans" font-size="10.00">DeleteEvtRelay</text>
<text text-anchor="middle" x="290.5" y="-593" font-family="FreeSans" font-size="10.00">...</text>
</g>
<!-- Node11&#45;&gt;Node10 -->
<g id="edge22" class="edge"><title>Node11&#45;&gt;Node10</title>
<path fill="none" stroke="#9a32cd" stroke-dasharray="5,2" d="M119.979,-735.818C114.439,-732.138 109.51,-727.596 106,-722 74.8229,-672.303 72.8299,-638.389 106,-590 110.736,-583.091 127.511,-576.287 143.999,-571.008"/>
<polygon fill="#9a32cd" stroke="#9a32cd" points="118.639,-739.079 129.072,-740.919 122.064,-732.974 118.639,-739.079"/>
<text text-anchor="middle" x="130" y="-659" font-family="FreeSans" font-size="10.00"> Sender</text>
<text text-anchor="middle" x="130" y="-647" font-family="FreeSans" font-size="10.00">EventImpl</text>
</g>
</g>
</svg>
