<?xml version="1.0" encoding="UTF-8" standalone="no"?>
<!DOCTYPE svg PUBLIC "-//W3C//DTD SVG 1.1//EN"
 "http://www.w3.org/Graphics/SVG/1.1/DTD/svg11.dtd">
<!-- Generated by graphviz version 2.26.3 (20100126.1600)
 -->
<!-- Title: G Pages: 1 -->
<svg width="1182pt" height="294pt"
 viewBox="0.00 0.00 1182.00 294.00" xmlns="http://www.w3.org/2000/svg" xmlns:xlink="http://www.w3.org/1999/xlink">
<g id="graph1" class="graph" transform="scale(1 1) rotate(0) translate(4 290)">
<title>G</title>
<!-- Node1 -->
<g id="node1" class="node"><title>Node1</title>
<polygon fill="#bfbfbf" stroke="black" points="460,-133 460,-153 666,-153 666,-133 460,-133"/>
<text text-anchor="middle" x="563" y="-140" font-family="FreeSans" font-size="10.00">Kitware.VTK.vtkStructuredGridAlgorithm</text>
</g>
<!-- Node6 -->
<g id="node11" class="node"><title>Node6</title>
<a xlink:href="class_kitware_1_1_v_t_k_1_1vtk_blank_structured_grid.html" target="_top" xlink:title="vtkBlankStructuredGrid &#45; translate point attribute data into a blanking field">
<polygon fill="none" stroke="black" points="727,-266 727,-286 913,-286 913,-266 727,-266"/>
<text text-anchor="middle" x="820" y="-273" font-family="FreeSans" font-size="10.00">Kitware.VTK.vtkBlankStructuredGrid</text>
</a>
</g>
<!-- Node1&#45;&gt;Node6 -->
<g id="edge10" class="edge"><title>Node1&#45;&gt;Node6</title>
<path fill="none" stroke="midnightblue" d="M578.749,-160.874C602.619,-186.694 650.646,-233.865 702,-257 710.04,-260.622 718.663,-263.566 727.454,-265.955"/>
<polygon fill="midnightblue" stroke="midnightblue" points="581.186,-158.351 571.874,-153.298 576.003,-163.055 581.186,-158.351"/>
</g>
<!-- Node7 -->
<g id="node13" class="node"><title>Node7</title>
<a xlink:href="class_kitware_1_1_v_t_k_1_1vtk_blank_structured_grid_with_image.html" target="_top" xlink:title="vtkBlankStructuredGridWithImage &#45; blank a structured grid with an image">
<polygon fill="none" stroke="black" points="702,-228 702,-248 938,-248 938,-228 702,-228"/>
<text text-anchor="middle" x="820" y="-235" font-family="FreeSans" font-size="10.00">Kitware.VTK.vtkBlankStructuredGridWithImage</text>
</a>
</g>
<!-- Node1&#45;&gt;Node7 -->
<g id="edge12" class="edge"><title>Node1&#45;&gt;Node7</title>
<path fill="none" stroke="midnightblue" d="M586.26,-158.968C612.974,-176.515 658.708,-204.171 702,-219 712.6,-222.631 723.979,-225.575 735.336,-227.962"/>
<polygon fill="midnightblue" stroke="midnightblue" points="587.901,-155.856 577.639,-153.221 584.018,-161.68 587.901,-155.856"/>
</g>
<!-- Node8 -->
<g id="node15" class="node"><title>Node8</title>
<a xlink:href="class_kitware_1_1_v_t_k_1_1vtk_extract_grid.html" target="_top" xlink:title="vtkExtractGrid &#45; select piece (e.g., volume of interest) and/or subsample structured grid dataset...">
<polygon fill="none" stroke="black" points="748.5,-190 748.5,-210 891.5,-210 891.5,-190 748.5,-190"/>
<text text-anchor="middle" x="820" y="-197" font-family="FreeSans" font-size="10.00">Kitware.VTK.vtkExtractGrid</text>
</a>
</g>
<!-- Node1&#45;&gt;Node8 -->
<g id="edge14" class="edge"><title>Node1&#45;&gt;Node8</title>
<path fill="none" stroke="midnightblue" d="M605.543,-155.904C632.909,-163.887 669.335,-173.927 702,-181 717.413,-184.338 734.074,-187.368 749.884,-189.98"/>
<polygon fill="midnightblue" stroke="midnightblue" points="606.476,-152.53 595.894,-153.065 604.5,-159.245 606.476,-152.53"/>
</g>
<!-- Node9 -->
<g id="node17" class="node"><title>Node9</title>
<a xlink:href="class_kitware_1_1_v_t_k_1_1vtk_p_o_p_reader.html" target="_top" xlink:title="vtkPOPReader &#45; read POP data files">
<polygon fill="none" stroke="black" points="749,-152 749,-172 891,-172 891,-152 749,-152"/>
<text text-anchor="middle" x="820" y="-159" font-family="FreeSans" font-size="10.00">Kitware.VTK.vtkPOPReader</text>
</a>
</g>
<!-- Node1&#45;&gt;Node9 -->
<g id="edge16" class="edge"><title>Node1&#45;&gt;Node9</title>
<path fill="none" stroke="midnightblue" d="M676.209,-151.37C700.916,-153.196 726.386,-155.079 748.899,-156.744"/>
<polygon fill="midnightblue" stroke="midnightblue" points="676.282,-147.865 666.051,-150.619 675.766,-154.846 676.282,-147.865"/>
</g>
<!-- Node10 -->
<g id="node19" class="node"><title>Node10</title>
<a xlink:href="class_kitware_1_1_v_t_k_1_1vtk_structured_grid_clip.html" target="_top" xlink:title="vtkStructuredGridClip &#45; Reduces the image extent of the input.">
<polygon fill="none" stroke="black" points="731.5,-114 731.5,-134 908.5,-134 908.5,-114 731.5,-114"/>
<text text-anchor="middle" x="820" y="-121" font-family="FreeSans" font-size="10.00">Kitware.VTK.vtkStructuredGridClip</text>
</a>
</g>
<!-- Node1&#45;&gt;Node10 -->
<g id="edge18" class="edge"><title>Node1&#45;&gt;Node10</title>
<path fill="none" stroke="midnightblue" d="M676.261,-134.627C694.735,-133.261 713.636,-131.863 731.406,-130.55"/>
<polygon fill="midnightblue" stroke="midnightblue" points="675.766,-131.154 666.051,-135.381 676.282,-138.135 675.766,-131.154"/>
</g>
<!-- Node11 -->
<g id="node21" class="node"><title>Node11</title>
<a xlink:href="class_kitware_1_1_v_t_k_1_1vtk_table_to_structured_grid.html" target="_top" xlink:title="vtkTableToStructuredGrid &#45; converts vtkTable to a vtkStructuredGrid.">
<polygon fill="none" stroke="black" points="723,-76 723,-96 917,-96 917,-76 723,-76"/>
<text text-anchor="middle" x="820" y="-83" font-family="FreeSans" font-size="10.00">Kitware.VTK.vtkTableToStructuredGrid</text>
</a>
</g>
<!-- Node1&#45;&gt;Node11 -->
<g id="edge20" class="edge"><title>Node1&#45;&gt;Node11</title>
<path fill="none" stroke="midnightblue" d="M605.543,-130.096C632.909,-122.113 669.335,-112.073 702,-105 717.413,-101.662 734.074,-98.632 749.884,-96.0205"/>
<polygon fill="midnightblue" stroke="midnightblue" points="604.5,-126.755 595.894,-132.935 606.476,-133.47 604.5,-126.755"/>
</g>
<!-- Node13 -->
<g id="node25" class="node"><title>Node13</title>
<a xlink:href="class_kitware_1_1_v_t_k_1_1vtk_transmit_structured_grid_piece.html" target="_top" xlink:title="vtkTransmitStructuredGridPiece &#45; For parallel processing, restrict IO to the first process in the clu...">
<polygon fill="none" stroke="black" points="707,-38 707,-58 933,-58 933,-38 707,-38"/>
<text text-anchor="middle" x="820" y="-45" font-family="FreeSans" font-size="10.00">Kitware.VTK.vtkTransmitStructuredGridPiece</text>
</a>
</g>
<!-- Node1&#45;&gt;Node13 -->
<g id="edge24" class="edge"><title>Node1&#45;&gt;Node13</title>
<path fill="none" stroke="midnightblue" d="M586.26,-127.032C612.974,-109.485 658.708,-81.8286 702,-67 712.6,-63.3691 723.979,-60.4246 735.336,-58.0384"/>
<polygon fill="midnightblue" stroke="midnightblue" points="584.018,-124.32 577.639,-132.779 587.901,-130.144 584.018,-124.32"/>
</g>
<!-- Node14 -->
<g id="node27" class="node"><title>Node14</title>
<a xlink:href="class_kitware_1_1_v_t_k_1_1vtk_wind_blade_reader.html" target="_top" xlink:title="vtkWindBladeReader &#45; class for reading WindBlade data files">
<polygon fill="none" stroke="black" points="734,-0 734,-20 906,-20 906,-0 734,-0"/>
<text text-anchor="middle" x="820" y="-7" font-family="FreeSans" font-size="10.00">Kitware.VTK.vtkWindBladeReader</text>
</a>
</g>
<!-- Node1&#45;&gt;Node14 -->
<g id="edge26" class="edge"><title>Node1&#45;&gt;Node14</title>
<path fill="none" stroke="midnightblue" d="M578.749,-125.126C602.619,-99.3055 650.646,-52.1351 702,-29 712.027,-24.4828 722.96,-21.0216 733.994,-18.3728"/>
<polygon fill="midnightblue" stroke="midnightblue" points="576.003,-122.945 571.874,-132.702 581.186,-127.649 576.003,-122.945"/>
</g>
<!-- Node2 -->
<g id="node2" class="node"><title>Node2</title>
<a xlink:href="class_kitware_1_1_v_t_k_1_1vtk_algorithm.html" target="_top" xlink:title="vtkAlgorithm &#45; Superclass for all sources, filters, and sinks in VTK.">
<polygon fill="none" stroke="black" points="346.5,-133 346.5,-153 423.5,-153 423.5,-133 346.5,-133"/>
<text text-anchor="middle" x="385" y="-140" font-family="FreeSans" font-size="10.00">vtkAlgorithm</text>
</a>
</g>
<!-- Node2&#45;&gt;Node1 -->
<g id="edge2" class="edge"><title>Node2&#45;&gt;Node1</title>
<path fill="none" stroke="midnightblue" d="M433.739,-143C441.995,-143 450.836,-143 459.877,-143"/>
<polygon fill="midnightblue" stroke="midnightblue" points="433.623,-139.5 423.623,-143 433.623,-146.5 433.623,-139.5"/>
</g>
<!-- Node3 -->
<g id="node4" class="node"><title>Node3</title>
<a xlink:href="class_kitware_1_1_v_t_k_1_1vtk_object.html" target="_top" xlink:title="vtkObject &#45; abstract base class for most VTK objects">
<polygon fill="none" stroke="black" points="248,-133 248,-153 310,-153 310,-133 248,-133"/>
<text text-anchor="middle" x="279" y="-140" font-family="FreeSans" font-size="10.00">vtkObject</text>
</a>
</g>
<!-- Node3&#45;&gt;Node2 -->
<g id="edge4" class="edge"><title>Node3&#45;&gt;Node2</title>
<path fill="none" stroke="midnightblue" d="M320.421,-143C329.001,-143 338.007,-143 346.479,-143"/>
<polygon fill="midnightblue" stroke="midnightblue" points="320.23,-139.5 310.23,-143 320.23,-146.5 320.23,-139.5"/>
</g>
<!-- Node4 -->
<g id="node6" class="node"><title>Node4</title>
<a xlink:href="class_kitware_1_1_v_t_k_1_1vtk_object_base.html" target="_top" xlink:title="vtkObjectBase &#45; abstract base class for most VTK objects">
<polygon fill="none" stroke="black" points="126,-133 126,-153 212,-153 212,-133 126,-133"/>
<text text-anchor="middle" x="169" y="-140" font-family="FreeSans" font-size="10.00">vtkObjectBase</text>
</a>
</g>
<!-- Node4&#45;&gt;Node3 -->
<g id="edge6" class="edge"><title>Node4&#45;&gt;Node3</title>
<path fill="none" stroke="midnightblue" d="M222.346,-143C231.091,-143 239.892,-143 247.863,-143"/>
<polygon fill="midnightblue" stroke="midnightblue" points="222.159,-139.5 212.159,-143 222.159,-146.5 222.159,-139.5"/>
</g>
<!-- Node5 -->
<g id="node8" class="node"><title>Node5</title>
<a xlink:href="class_kitware_1_1_v_t_k_1_1_wrapped_object.html" target="_top" xlink:title="Base class for all the mummy wrapped classes in Kitware.VTK.">
<polygon fill="none" stroke="black" points="0.5,-133 0.5,-153 89.5,-153 89.5,-133 0.5,-133"/>
<text text-anchor="middle" x="45" y="-140" font-family="FreeSans" font-size="10.00">WrappedObject</text>
</a>
</g>
<!-- Node5&#45;&gt;Node4 -->
<g id="edge8" class="edge"><title>Node5&#45;&gt;Node4</title>
<path fill="none" stroke="midnightblue" d="M99.8895,-143C108.623,-143 117.548,-143 125.957,-143"/>
<polygon fill="midnightblue" stroke="midnightblue" points="99.7669,-139.5 89.7668,-143 99.7668,-146.5 99.7669,-139.5"/>
</g>
<!-- Node12 -->
<g id="node23" class="node"><title>Node12</title>
<a xlink:href="class_kitware_1_1_v_t_k_1_1vtk_p_table_to_structured_grid.html" target="_top" xlink:title="vtkPTableToStructuredGrid &#45; vtkTableToStructuredGrid specialization which handles distribution of the...">
<polygon fill="none" stroke="black" points="974,-76 974,-96 1174,-96 1174,-76 974,-76"/>
<text text-anchor="middle" x="1074" y="-83" font-family="FreeSans" font-size="10.00">Kitware.VTK.vtkPTableToStructuredGrid</text>
</a>
</g>
<!-- Node11&#45;&gt;Node12 -->
<g id="edge22" class="edge"><title>Node11&#45;&gt;Node12</title>
<path fill="none" stroke="midnightblue" d="M927.233,-86C942.735,-86 958.639,-86 973.992,-86"/>
<polygon fill="midnightblue" stroke="midnightblue" points="927.114,-82.5001 917.114,-86 927.114,-89.5001 927.114,-82.5001"/>
</g>
</g>
</svg>
