<?xml version="1.0" encoding="UTF-8" standalone="no"?>
<!DOCTYPE svg PUBLIC "-//W3C//DTD SVG 1.1//EN"
 "http://www.w3.org/Graphics/SVG/1.1/DTD/svg11.dtd">
<!-- Generated by graphviz version 2.26.3 (20100126.1600)
 -->
<!-- Title: G Pages: 1 -->
<svg width="1034pt" height="104pt"
 viewBox="0.00 0.00 1034.00 104.00" xmlns="http://www.w3.org/2000/svg" xmlns:xlink="http://www.w3.org/1999/xlink">
<g id="graph1" class="graph" transform="scale(1 1) rotate(0) translate(4 100)">
<title>G</title>
<!-- Node1 -->
<g id="node1" class="node"><title>Node1</title>
<polygon fill="#bfbfbf" stroke="black" points="574,-38 574,-58 784,-58 784,-38 574,-38"/>
<text text-anchor="middle" x="679" y="-45" font-family="FreeSans" font-size="10.00">Kitware.VTK.vtkXMLStructuredDataWriter</text>
</g>
<!-- Node7 -->
<g id="node13" class="node"><title>Node7</title>
<a xlink:href="class_kitware_1_1_v_t_k_1_1vtk_x_m_l_image_data_writer.html" target="_top" xlink:title="vtkXMLImageDataWriter &#45; Write VTK XML ImageData files.">
<polygon fill="none" stroke="black" points="828.5,-76 828.5,-96 1017.5,-96 1017.5,-76 828.5,-76"/>
<text text-anchor="middle" x="923" y="-83" font-family="FreeSans" font-size="10.00">Kitware.VTK.vtkXMLImageDataWriter</text>
</a>
</g>
<!-- Node1&#45;&gt;Node7 -->
<g id="edge12" class="edge"><title>Node1&#45;&gt;Node7</title>
<path fill="none" stroke="midnightblue" d="M753.644,-59.6249C787.194,-64.8498 826.399,-70.9557 858.635,-75.976"/>
<polygon fill="midnightblue" stroke="midnightblue" points="753.847,-56.1144 743.427,-58.0338 752.77,-63.031 753.847,-56.1144"/>
</g>
<!-- Node8 -->
<g id="node15" class="node"><title>Node8</title>
<a xlink:href="class_kitware_1_1_v_t_k_1_1vtk_x_m_l_rectilinear_grid_writer.html" target="_top" xlink:title="vtkXMLRectilinearGridWriter &#45; Write VTK XML RectilinearGrid files.">
<polygon fill="none" stroke="black" points="821,-38 821,-58 1025,-58 1025,-38 821,-38"/>
<text text-anchor="middle" x="923" y="-45" font-family="FreeSans" font-size="10.00">Kitware.VTK.vtkXMLRectilinearGridWriter</text>
</a>
</g>
<!-- Node1&#45;&gt;Node8 -->
<g id="edge14" class="edge"><title>Node1&#45;&gt;Node8</title>
<path fill="none" stroke="midnightblue" d="M794.521,-48C803.298,-48 812.12,-48 820.805,-48"/>
<polygon fill="midnightblue" stroke="midnightblue" points="794.248,-44.5001 784.248,-48 794.248,-51.5001 794.248,-44.5001"/>
</g>
<!-- Node9 -->
<g id="node17" class="node"><title>Node9</title>
<a xlink:href="class_kitware_1_1_v_t_k_1_1vtk_x_m_l_structured_grid_writer.html" target="_top" xlink:title="vtkXMLStructuredGridWriter &#45; Write VTK XML StructuredGrid files.">
<polygon fill="none" stroke="black" points="820,-0 820,-20 1026,-20 1026,-0 820,-0"/>
<text text-anchor="middle" x="923" y="-7" font-family="FreeSans" font-size="10.00">Kitware.VTK.vtkXMLStructuredGridWriter</text>
</a>
</g>
<!-- Node1&#45;&gt;Node9 -->
<g id="edge16" class="edge"><title>Node1&#45;&gt;Node9</title>
<path fill="none" stroke="midnightblue" d="M753.644,-36.3751C787.194,-31.1502 826.399,-25.0443 858.635,-20.024"/>
<polygon fill="midnightblue" stroke="midnightblue" points="752.77,-32.969 743.427,-37.9662 753.847,-39.8856 752.77,-32.969"/>
</g>
<!-- Node2 -->
<g id="node2" class="node"><title>Node2</title>
<a xlink:href="class_kitware_1_1_v_t_k_1_1vtk_x_m_l_writer.html" target="_top" xlink:title="vtkXMLWriter &#45; Superclass for VTK&#39;s XML file writers.">
<polygon fill="none" stroke="black" points="460.5,-38 460.5,-58 537.5,-58 537.5,-38 460.5,-38"/>
<text text-anchor="middle" x="499" y="-45" font-family="FreeSans" font-size="10.00">vtkXMLWriter</text>
</a>
</g>
<!-- Node2&#45;&gt;Node1 -->
<g id="edge2" class="edge"><title>Node2&#45;&gt;Node1</title>
<path fill="none" stroke="midnightblue" d="M547.741,-48C556.009,-48 564.87,-48 573.941,-48"/>
<polygon fill="midnightblue" stroke="midnightblue" points="547.615,-44.5001 537.615,-48 547.614,-51.5001 547.615,-44.5001"/>
</g>
<!-- Node3 -->
<g id="node4" class="node"><title>Node3</title>
<a xlink:href="class_kitware_1_1_v_t_k_1_1vtk_algorithm.html" target="_top" xlink:title="vtkAlgorithm &#45; Superclass for all sources, filters, and sinks in VTK.">
<polygon fill="none" stroke="black" points="346.5,-38 346.5,-58 423.5,-58 423.5,-38 346.5,-38"/>
<text text-anchor="middle" x="385" y="-45" font-family="FreeSans" font-size="10.00">vtkAlgorithm</text>
</a>
</g>
<!-- Node3&#45;&gt;Node2 -->
<g id="edge4" class="edge"><title>Node3&#45;&gt;Node2</title>
<path fill="none" stroke="midnightblue" d="M433.854,-48C442.744,-48 451.904,-48 460.445,-48"/>
<polygon fill="midnightblue" stroke="midnightblue" points="433.595,-44.5001 423.595,-48 433.595,-51.5001 433.595,-44.5001"/>
</g>
<!-- Node4 -->
<g id="node6" class="node"><title>Node4</title>
<a xlink:href="class_kitware_1_1_v_t_k_1_1vtk_object.html" target="_top" xlink:title="vtkObject &#45; abstract base class for most VTK objects">
<polygon fill="none" stroke="black" points="248,-38 248,-58 310,-58 310,-38 248,-38"/>
<text text-anchor="middle" x="279" y="-45" font-family="FreeSans" font-size="10.00">vtkObject</text>
</a>
</g>
<!-- Node4&#45;&gt;Node3 -->
<g id="edge6" class="edge"><title>Node4&#45;&gt;Node3</title>
<path fill="none" stroke="midnightblue" d="M320.421,-48C329.001,-48 338.007,-48 346.479,-48"/>
<polygon fill="midnightblue" stroke="midnightblue" points="320.23,-44.5001 310.23,-48 320.23,-51.5001 320.23,-44.5001"/>
</g>
<!-- Node5 -->
<g id="node8" class="node"><title>Node5</title>
<a xlink:href="class_kitware_1_1_v_t_k_1_1vtk_object_base.html" target="_top" xlink:title="vtkObjectBase &#45; abstract base class for most VTK objects">
<polygon fill="none" stroke="black" points="126,-38 126,-58 212,-58 212,-38 126,-38"/>
<text text-anchor="middle" x="169" y="-45" font-family="FreeSans" font-size="10.00">vtkObjectBase</text>
</a>
</g>
<!-- Node5&#45;&gt;Node4 -->
<g id="edge8" class="edge"><title>Node5&#45;&gt;Node4</title>
<path fill="none" stroke="midnightblue" d="M222.346,-48C231.091,-48 239.892,-48 247.863,-48"/>
<polygon fill="midnightblue" stroke="midnightblue" points="222.159,-44.5001 212.159,-48 222.159,-51.5001 222.159,-44.5001"/>
</g>
<!-- Node6 -->
<g id="node10" class="node"><title>Node6</title>
<a xlink:href="class_kitware_1_1_v_t_k_1_1_wrapped_object.html" target="_top" xlink:title="Base class for all the mummy wrapped classes in Kitware.VTK.">
<polygon fill="none" stroke="black" points="0.5,-38 0.5,-58 89.5,-58 89.5,-38 0.5,-38"/>
<text text-anchor="middle" x="45" y="-45" font-family="FreeSans" font-size="10.00">WrappedObject</text>
</a>
</g>
<!-- Node6&#45;&gt;Node5 -->
<g id="edge10" class="edge"><title>Node6&#45;&gt;Node5</title>
<path fill="none" stroke="midnightblue" d="M99.8895,-48C108.623,-48 117.548,-48 125.957,-48"/>
<polygon fill="midnightblue" stroke="midnightblue" points="99.7669,-44.5001 89.7668,-48 99.7668,-51.5001 99.7669,-44.5001"/>
</g>
</g>
</svg>
