<?xml version="1.0" encoding="UTF-8" standalone="no"?>
<!DOCTYPE svg PUBLIC "-//W3C//DTD SVG 1.1//EN"
 "http://www.w3.org/Graphics/SVG/1.1/DTD/svg11.dtd">
<!-- Generated by graphviz version 2.26.3 (20100126.1600)
 -->
<!-- Title: G Pages: 1 -->
<svg width="1542pt" height="351pt"
 viewBox="0.00 0.00 1542.00 351.00" xmlns="http://www.w3.org/2000/svg" xmlns:xlink="http://www.w3.org/1999/xlink">
<g id="graph1" class="graph" transform="scale(1 1) rotate(0) translate(4 347)">
<title>G</title>
<!-- Node1 -->
<g id="node1" class="node"><title>Node1</title>
<polygon fill="#bfbfbf" stroke="black" points="640.5,-171 640.5,-191 747.5,-191 747.5,-171 640.5,-171"/>
<text text-anchor="middle" x="694" y="-178" font-family="FreeSans" font-size="10.00">Kitware.VTK.vtkPlot</text>
</g>
<!-- Node7 -->
<g id="node13" class="node"><title>Node7</title>
<a xlink:href="class_kitware_1_1_v_t_k_1_1vtk_control_points_item.html" target="_top" xlink:title="vtkControlPointsItem &#45; Abstract class for control points items.">
<polygon fill="none" stroke="black" points="796.5,-304 796.5,-324 971.5,-324 971.5,-304 796.5,-304"/>
<text text-anchor="middle" x="884" y="-311" font-family="FreeSans" font-size="10.00">Kitware.VTK.vtkControlPointsItem</text>
</a>
</g>
<!-- Node1&#45;&gt;Node7 -->
<g id="edge12" class="edge"><title>Node1&#45;&gt;Node7</title>
<path fill="none" stroke="midnightblue" d="M703.623,-200.449C717.563,-226.445 745.931,-271.914 784,-295 789.969,-298.62 796.476,-301.574 803.214,-303.984"/>
<polygon fill="midnightblue" stroke="midnightblue" points="706.552,-198.495 698.845,-191.225 700.336,-201.714 706.552,-198.495"/>
</g>
<!-- Node11 -->
<g id="node21" class="node"><title>Node11</title>
<a xlink:href="class_kitware_1_1_v_t_k_1_1vtk_plot_bar.html" target="_top" xlink:title="vtkPlotBar &#45; Class for drawing an XY plot given two columns from a vtkTable.">
<polygon fill="none" stroke="black" points="822,-266 822,-286 946,-286 946,-266 822,-266"/>
<text text-anchor="middle" x="884" y="-273" font-family="FreeSans" font-size="10.00">Kitware.VTK.vtkPlotBar</text>
</a>
</g>
<!-- Node1&#45;&gt;Node11 -->
<g id="edge20" class="edge"><title>Node1&#45;&gt;Node11</title>
<path fill="none" stroke="midnightblue" d="M709.343,-198.399C725.937,-216.049 754.059,-242.739 784,-257 795.726,-262.585 808.963,-266.53 821.875,-269.315"/>
<polygon fill="midnightblue" stroke="midnightblue" points="711.902,-196.011 702.565,-191.003 706.741,-200.74 711.902,-196.011"/>
</g>
<!-- Node12 -->
<g id="node23" class="node"><title>Node12</title>
<a xlink:href="class_kitware_1_1_v_t_k_1_1vtk_plot_histogram2_d.html" target="_top" xlink:title="vtk2DHistogramItem &#45; 2D histogram item.">
<polygon fill="none" stroke="black" points="798.5,-228 798.5,-248 969.5,-248 969.5,-228 798.5,-228"/>
<text text-anchor="middle" x="884" y="-235" font-family="FreeSans" font-size="10.00">Kitware.VTK.vtkPlotHistogram2D</text>
</a>
</g>
<!-- Node1&#45;&gt;Node12 -->
<g id="edge22" class="edge"><title>Node1&#45;&gt;Node12</title>
<path fill="none" stroke="midnightblue" d="M723.796,-195.462C741.049,-203.355 763.372,-212.762 784,-219 795.587,-222.504 808.133,-225.493 820.295,-227.992"/>
<polygon fill="midnightblue" stroke="midnightblue" points="724.817,-192.076 714.274,-191.024 721.86,-198.421 724.817,-192.076"/>
</g>
<!-- Node13 -->
<g id="node25" class="node"><title>Node13</title>
<a xlink:href="class_kitware_1_1_v_t_k_1_1vtk_plot_parallel_coordinates.html" target="_top" xlink:title="vtkPlotParallelCoordinates &#45; Class for drawing a parallel coordinate plot given columns from a vtkTab...">
<polygon fill="none" stroke="black" points="784.5,-190 784.5,-210 983.5,-210 983.5,-190 784.5,-190"/>
<text text-anchor="middle" x="884" y="-197" font-family="FreeSans" font-size="10.00">Kitware.VTK.vtkPlotParallelCoordinates</text>
</a>
</g>
<!-- Node1&#45;&gt;Node13 -->
<g id="edge24" class="edge"><title>Node1&#45;&gt;Node13</title>
<path fill="none" stroke="midnightblue" d="M757.907,-187.391C766.46,-188.246 775.39,-189.139 784.375,-190.038"/>
<polygon fill="midnightblue" stroke="midnightblue" points="757.983,-183.881 747.685,-186.368 757.287,-190.846 757.983,-183.881"/>
</g>
<!-- Node14 -->
<g id="node27" class="node"><title>Node14</title>
<a xlink:href="class_kitware_1_1_v_t_k_1_1vtk_plot_pie.html" target="_top" xlink:title="vtkPlotPie &#45; Class for drawing a Pie diagram.">
<polygon fill="none" stroke="black" points="823,-152 823,-172 945,-172 945,-152 823,-152"/>
<text text-anchor="middle" x="884" y="-159" font-family="FreeSans" font-size="10.00">Kitware.VTK.vtkPlotPie</text>
</a>
</g>
<!-- Node1&#45;&gt;Node14 -->
<g id="edge26" class="edge"><title>Node1&#45;&gt;Node14</title>
<path fill="none" stroke="midnightblue" d="M757.77,-174.623C778.732,-172.527 801.975,-170.202 822.745,-168.125"/>
<polygon fill="midnightblue" stroke="midnightblue" points="757.287,-171.154 747.685,-175.632 757.983,-178.119 757.287,-171.154"/>
</g>
<!-- Node15 -->
<g id="node29" class="node"><title>Node15</title>
<a xlink:href="class_kitware_1_1_v_t_k_1_1vtk_plot_points.html" target="_top" xlink:title="vtkPlotPoints &#45; Class for drawing an points given two columns from a vtkTable.">
<polygon fill="none" stroke="black" points="815.5,-114 815.5,-134 952.5,-134 952.5,-114 815.5,-114"/>
<text text-anchor="middle" x="884" y="-121" font-family="FreeSans" font-size="10.00">Kitware.VTK.vtkPlotPoints</text>
</a>
</g>
<!-- Node1&#45;&gt;Node15 -->
<g id="edge28" class="edge"><title>Node1&#45;&gt;Node15</title>
<path fill="none" stroke="midnightblue" d="M723.796,-166.538C741.049,-158.645 763.372,-149.238 784,-143 795.587,-139.496 808.133,-136.507 820.295,-134.008"/>
<polygon fill="midnightblue" stroke="midnightblue" points="721.86,-163.579 714.274,-170.976 724.817,-169.924 721.86,-163.579"/>
</g>
<!-- Node17 -->
<g id="node33" class="node"><title>Node17</title>
<a xlink:href="class_kitware_1_1_v_t_k_1_1vtk_plot_stacked.html" target="_top" xlink:title="vtkPlotStacked &#45; Class for drawing an stacked polygon plot given an X, Ybase, Yextent in a vtkTable...">
<polygon fill="none" stroke="black" points="811,-76 811,-96 957,-96 957,-76 811,-76"/>
<text text-anchor="middle" x="884" y="-83" font-family="FreeSans" font-size="10.00">Kitware.VTK.vtkPlotStacked</text>
</a>
</g>
<!-- Node1&#45;&gt;Node17 -->
<g id="edge32" class="edge"><title>Node1&#45;&gt;Node17</title>
<path fill="none" stroke="midnightblue" d="M709.343,-163.601C725.937,-145.951 754.059,-119.261 784,-105 792.376,-101.01 801.522,-97.8582 810.771,-95.3675"/>
<polygon fill="midnightblue" stroke="midnightblue" points="706.741,-161.26 702.565,-170.997 711.902,-165.989 706.741,-161.26"/>
</g>
<!-- Node18 -->
<g id="node35" class="node"><title>Node18</title>
<a xlink:href="class_kitware_1_1_v_t_k_1_1vtk_scalars_to_colors_item.html" target="_top" xlink:title="vtkScalarsToColorsItem &#45; Abstract class for ScalarsToColors items.">
<polygon fill="none" stroke="black" points="791,-38 791,-58 977,-58 977,-38 791,-38"/>
<text text-anchor="middle" x="884" y="-45" font-family="FreeSans" font-size="10.00">Kitware.VTK.vtkScalarsToColorsItem</text>
</a>
</g>
<!-- Node1&#45;&gt;Node18 -->
<g id="edge34" class="edge"><title>Node1&#45;&gt;Node18</title>
<path fill="none" stroke="midnightblue" d="M703.623,-161.551C717.563,-135.555 745.931,-90.0862 784,-67 789.969,-63.3805 796.476,-60.4256 803.214,-58.0164"/>
<polygon fill="midnightblue" stroke="midnightblue" points="700.336,-160.286 698.845,-170.775 706.552,-163.505 700.336,-160.286"/>
</g>
<!-- Node2 -->
<g id="node2" class="node"><title>Node2</title>
<a xlink:href="class_kitware_1_1_v_t_k_1_1vtk_context_item.html" target="_top" xlink:title="vtkContextItem &#45; base class for items that are part of a vtkContextScene.">
<polygon fill="none" stroke="black" points="514,-171 514,-191 604,-191 604,-171 514,-171"/>
<text text-anchor="middle" x="559" y="-178" font-family="FreeSans" font-size="10.00">vtkContextItem</text>
</a>
</g>
<!-- Node2&#45;&gt;Node1 -->
<g id="edge2" class="edge"><title>Node2&#45;&gt;Node1</title>
<path fill="none" stroke="midnightblue" d="M614.497,-181C622.97,-181 631.703,-181 640.14,-181"/>
<polygon fill="midnightblue" stroke="midnightblue" points="614.329,-177.5 604.329,-181 614.329,-184.5 614.329,-177.5"/>
</g>
<!-- Node3 -->
<g id="node4" class="node"><title>Node3</title>
<a xlink:href="class_kitware_1_1_v_t_k_1_1vtk_abstract_context_item.html" target="_top" xlink:title="vtkAbstractContextItem &#45; base class for items that are part of a vtkContextScene.">
<polygon fill="none" stroke="black" points="346.5,-171 346.5,-191 477.5,-191 477.5,-171 346.5,-171"/>
<text text-anchor="middle" x="412" y="-178" font-family="FreeSans" font-size="10.00">vtkAbstractContextItem</text>
</a>
</g>
<!-- Node3&#45;&gt;Node2 -->
<g id="edge4" class="edge"><title>Node3&#45;&gt;Node2</title>
<path fill="none" stroke="midnightblue" d="M487.831,-181C496.758,-181 505.639,-181 513.946,-181"/>
<polygon fill="midnightblue" stroke="midnightblue" points="487.761,-177.5 477.761,-181 487.761,-184.5 487.761,-177.5"/>
</g>
<!-- Node4 -->
<g id="node6" class="node"><title>Node4</title>
<a xlink:href="class_kitware_1_1_v_t_k_1_1vtk_object.html" target="_top" xlink:title="vtkObject &#45; abstract base class for most VTK objects">
<polygon fill="none" stroke="black" points="248,-171 248,-191 310,-191 310,-171 248,-171"/>
<text text-anchor="middle" x="279" y="-178" font-family="FreeSans" font-size="10.00">vtkObject</text>
</a>
</g>
<!-- Node4&#45;&gt;Node3 -->
<g id="edge6" class="edge"><title>Node4&#45;&gt;Node3</title>
<path fill="none" stroke="midnightblue" d="M320.317,-181C328.614,-181 337.525,-181 346.415,-181"/>
<polygon fill="midnightblue" stroke="midnightblue" points="320.183,-177.5 310.183,-181 320.183,-184.5 320.183,-177.5"/>
</g>
<!-- Node5 -->
<g id="node8" class="node"><title>Node5</title>
<a xlink:href="class_kitware_1_1_v_t_k_1_1vtk_object_base.html" target="_top" xlink:title="vtkObjectBase &#45; abstract base class for most VTK objects">
<polygon fill="none" stroke="black" points="126,-171 126,-191 212,-191 212,-171 126,-171"/>
<text text-anchor="middle" x="169" y="-178" font-family="FreeSans" font-size="10.00">vtkObjectBase</text>
</a>
</g>
<!-- Node5&#45;&gt;Node4 -->
<g id="edge8" class="edge"><title>Node5&#45;&gt;Node4</title>
<path fill="none" stroke="midnightblue" d="M222.346,-181C231.091,-181 239.892,-181 247.863,-181"/>
<polygon fill="midnightblue" stroke="midnightblue" points="222.159,-177.5 212.159,-181 222.159,-184.5 222.159,-177.5"/>
</g>
<!-- Node6 -->
<g id="node10" class="node"><title>Node6</title>
<a xlink:href="class_kitware_1_1_v_t_k_1_1_wrapped_object.html" target="_top" xlink:title="Base class for all the mummy wrapped classes in Kitware.VTK.">
<polygon fill="none" stroke="black" points="0.5,-171 0.5,-191 89.5,-191 89.5,-171 0.5,-171"/>
<text text-anchor="middle" x="45" y="-178" font-family="FreeSans" font-size="10.00">WrappedObject</text>
</a>
</g>
<!-- Node6&#45;&gt;Node5 -->
<g id="edge10" class="edge"><title>Node6&#45;&gt;Node5</title>
<path fill="none" stroke="midnightblue" d="M99.8895,-181C108.623,-181 117.548,-181 125.957,-181"/>
<polygon fill="midnightblue" stroke="midnightblue" points="99.7669,-177.5 89.7668,-181 99.7668,-184.5 99.7669,-177.5"/>
</g>
<!-- Node8 -->
<g id="node15" class="node"><title>Node8</title>
<a xlink:href="class_kitware_1_1_v_t_k_1_1vtk_color_transfer_control_points_item.html" target="_top" xlink:title="vtkColorTransferControlPointsItem &#45; Control points for vtkColorTransferFunction.">
<polygon fill="none" stroke="black" points="1020.5,-323 1020.5,-343 1257.5,-343 1257.5,-323 1020.5,-323"/>
<text text-anchor="middle" x="1139" y="-330" font-family="FreeSans" font-size="10.00">Kitware.VTK.vtkColorTransferControlPointsItem</text>
</a>
</g>
<!-- Node7&#45;&gt;Node8 -->
<g id="edge14" class="edge"><title>Node7&#45;&gt;Node8</title>
<path fill="none" stroke="midnightblue" d="M981.803,-321.287C994.453,-322.23 1007.52,-323.203 1020.46,-324.167"/>
<polygon fill="midnightblue" stroke="midnightblue" points="981.989,-317.792 971.757,-320.539 981.469,-324.772 981.989,-317.792"/>
</g>
<!-- Node10 -->
<g id="node19" class="node"><title>Node10</title>
<a xlink:href="class_kitware_1_1_v_t_k_1_1vtk_piecewise_control_points_item.html" target="_top" xlink:title="vtkPiecewiseControlPointsItem &#45; Control points for vtkPiecewiseFunction.">
<polygon fill="none" stroke="black" points="1028.5,-285 1028.5,-305 1249.5,-305 1249.5,-285 1028.5,-285"/>
<text text-anchor="middle" x="1139" y="-292" font-family="FreeSans" font-size="10.00">Kitware.VTK.vtkPiecewiseControlPointsItem</text>
</a>
</g>
<!-- Node7&#45;&gt;Node10 -->
<g id="edge18" class="edge"><title>Node7&#45;&gt;Node10</title>
<path fill="none" stroke="midnightblue" d="M982.082,-306.692C997.147,-305.569 1012.79,-304.404 1028.11,-303.262"/>
<polygon fill="midnightblue" stroke="midnightblue" points="981.469,-303.228 971.757,-307.461 981.989,-310.208 981.469,-303.228"/>
</g>
<!-- Node9 -->
<g id="node17" class="node"><title>Node9</title>
<a xlink:href="class_kitware_1_1_v_t_k_1_1vtk_composite_control_points_item.html" target="_top" xlink:title="vtkCompositeControlPointsItem &#45; Control points for vtkCompositeFunction.">
<polygon fill="none" stroke="black" points="1300.5,-323 1300.5,-343 1527.5,-343 1527.5,-323 1300.5,-323"/>
<text text-anchor="middle" x="1414" y="-330" font-family="FreeSans" font-size="10.00">Kitware.VTK.vtkCompositeControlPointsItem</text>
</a>
</g>
<!-- Node8&#45;&gt;Node9 -->
<g id="edge16" class="edge"><title>Node8&#45;&gt;Node9</title>
<path fill="none" stroke="midnightblue" d="M1267.9,-333C1278.66,-333 1289.49,-333 1300.12,-333"/>
<polygon fill="midnightblue" stroke="midnightblue" points="1267.62,-329.5 1257.62,-333 1267.62,-336.5 1267.62,-329.5"/>
</g>
<!-- Node16 -->
<g id="node31" class="node"><title>Node16</title>
<a xlink:href="class_kitware_1_1_v_t_k_1_1vtk_plot_line.html" target="_top" xlink:title="vtkPlotLine &#45; Class for drawing an XY line plot given two columns from a vtkTable.">
<polygon fill="none" stroke="black" points="1075.5,-114 1075.5,-134 1202.5,-134 1202.5,-114 1075.5,-114"/>
<text text-anchor="middle" x="1139" y="-121" font-family="FreeSans" font-size="10.00">Kitware.VTK.vtkPlotLine</text>
</a>
</g>
<!-- Node15&#45;&gt;Node16 -->
<g id="edge30" class="edge"><title>Node15&#45;&gt;Node16</title>
<path fill="none" stroke="midnightblue" d="M962.709,-124C998.922,-124 1041.32,-124 1075.46,-124"/>
<polygon fill="midnightblue" stroke="midnightblue" points="962.671,-120.5 952.671,-124 962.671,-127.5 962.671,-120.5"/>
</g>
<!-- Node19 -->
<g id="node37" class="node"><title>Node19</title>
<a xlink:href="class_kitware_1_1_v_t_k_1_1vtk_color_transfer_function_item.html" target="_top" xlink:title="vtkPlot::Color, vtkPlot::Brush, vtkScalarsToColors::DrawPolyLine, vtkScalarsToColors::MaskAboveCurve ...">
<polygon fill="none" stroke="black" points="1032.5,-76 1032.5,-96 1245.5,-96 1245.5,-76 1032.5,-76"/>
<text text-anchor="middle" x="1139" y="-83" font-family="FreeSans" font-size="10.00">Kitware.VTK.vtkColorTransferFunctionItem</text>
</a>
</g>
<!-- Node18&#45;&gt;Node19 -->
<g id="edge36" class="edge"><title>Node18&#45;&gt;Node19</title>
<path fill="none" stroke="midnightblue" d="M961.556,-59.5573C996.718,-64.7972 1037.9,-70.934 1071.73,-75.976"/>
<polygon fill="midnightblue" stroke="midnightblue" points="961.738,-56.046 951.332,-58.0338 960.707,-62.9695 961.738,-56.046"/>
</g>
<!-- Node21 -->
<g id="node41" class="node"><title>Node21</title>
<a xlink:href="class_kitware_1_1_v_t_k_1_1vtk_lookup_table_item.html" target="_top" xlink:title="vtkPlot::Color, vtkPlot::Brush, vtkScalarsToColors::DrawPolyLine, vtkScalarsToColors::MaskAboveCurve ...">
<polygon fill="none" stroke="black" points="1054,-38 1054,-58 1224,-58 1224,-38 1054,-38"/>
<text text-anchor="middle" x="1139" y="-45" font-family="FreeSans" font-size="10.00">Kitware.VTK.vtkLookupTableItem</text>
</a>
</g>
<!-- Node18&#45;&gt;Node21 -->
<g id="edge40" class="edge"><title>Node18&#45;&gt;Node21</title>
<path fill="none" stroke="midnightblue" d="M987.211,-48C1009.3,-48 1032.4,-48 1053.72,-48"/>
<polygon fill="midnightblue" stroke="midnightblue" points="987.143,-44.5001 977.143,-48 987.143,-51.5001 987.143,-44.5001"/>
</g>
<!-- Node22 -->
<g id="node43" class="node"><title>Node22</title>
<a xlink:href="class_kitware_1_1_v_t_k_1_1vtk_piecewise_function_item.html" target="_top" xlink:title="vtkPiecewiseFunctionItem internall uses vtkPlot::Color, white by default">
<polygon fill="none" stroke="black" points="1040.5,-0 1040.5,-20 1237.5,-20 1237.5,-0 1040.5,-0"/>
<text text-anchor="middle" x="1139" y="-7" font-family="FreeSans" font-size="10.00">Kitware.VTK.vtkPiecewiseFunctionItem</text>
</a>
</g>
<!-- Node18&#45;&gt;Node22 -->
<g id="edge42" class="edge"><title>Node18&#45;&gt;Node22</title>
<path fill="none" stroke="midnightblue" d="M961.556,-36.4427C996.718,-31.2028 1037.9,-25.066 1071.73,-20.024"/>
<polygon fill="midnightblue" stroke="midnightblue" points="960.707,-33.0305 951.332,-37.9662 961.738,-39.954 960.707,-33.0305"/>
</g>
<!-- Node20 -->
<g id="node39" class="node"><title>Node20</title>
<a xlink:href="class_kitware_1_1_v_t_k_1_1vtk_composite_transfer_function_item.html" target="_top" xlink:title="vtkPlot::Color and vtkPlot::Brush have no effect here.">
<polygon fill="none" stroke="black" points="1294,-76 1294,-96 1534,-96 1534,-76 1294,-76"/>
<text text-anchor="middle" x="1414" y="-83" font-family="FreeSans" font-size="10.00">Kitware.VTK.vtkCompositeTransferFunctionItem</text>
</a>
</g>
<!-- Node19&#45;&gt;Node20 -->
<g id="edge38" class="edge"><title>Node19&#45;&gt;Node20</title>
<path fill="none" stroke="midnightblue" d="M1255.72,-86C1268.27,-86 1281.05,-86 1293.64,-86"/>
<polygon fill="midnightblue" stroke="midnightblue" points="1255.72,-82.5001 1245.72,-86 1255.72,-89.5001 1255.72,-82.5001"/>
</g>
</g>
</svg>
