<?xml version="1.0" encoding="UTF-8" standalone="no"?>
<!DOCTYPE svg PUBLIC "-//W3C//DTD SVG 1.1//EN"
 "http://www.w3.org/Graphics/SVG/1.1/DTD/svg11.dtd">
<!-- Generated by graphviz version 2.26.3 (20100126.1600)
 -->
<!-- Title: G Pages: 1 -->
<svg width="152pt" height="320pt"
 viewBox="0.00 0.00 152.00 320.00" xmlns="http://www.w3.org/2000/svg" xmlns:xlink="http://www.w3.org/1999/xlink">
<g id="graph1" class="graph" transform="scale(1 1) rotate(0) translate(4 316)">
<title>G</title>
<!-- Node1 -->
<g id="node1" class="node"><title>Node1</title>
<polygon fill="#bfbfbf" stroke="black" points="0,-1 0,-21 144,-21 144,-1 0,-1"/>
<text text-anchor="middle" x="72" y="-8" font-family="FreeSans" font-size="10.00">Kitware.VTK.vtkCutMaterial</text>
</g>
<!-- Node2 -->
<g id="node2" class="node"><title>Node2</title>
<a xlink:href="class_kitware_1_1_v_t_k_1_1vtk_poly_data_algorithm.html" target="_top" xlink:title="vtkPolyDataAlgorithm &#45; Superclass for algorithms that produce only polydata as output">
<polygon fill="none" stroke="black" points="12,-59 12,-79 132,-79 132,-59 12,-59"/>
<text text-anchor="middle" x="72" y="-66" font-family="FreeSans" font-size="10.00">vtkPolyDataAlgorithm</text>
</a>
</g>
<!-- Node2&#45;&gt;Node1 -->
<g id="edge2" class="edge"><title>Node2&#45;&gt;Node1</title>
<path fill="none" stroke="midnightblue" d="M72,-48.8902C72,-39.6201 72,-29.0083 72,-21.3776"/>
<polygon fill="midnightblue" stroke="midnightblue" points="68.5001,-48.8971 72,-58.8972 75.5001,-48.8972 68.5001,-48.8971"/>
</g>
<!-- Node3 -->
<g id="node4" class="node"><title>Node3</title>
<a xlink:href="class_kitware_1_1_v_t_k_1_1vtk_algorithm.html" target="_top" xlink:title="vtkAlgorithm &#45; Superclass for all sources, filters, and sinks in VTK.">
<polygon fill="none" stroke="black" points="33.5,-117 33.5,-137 110.5,-137 110.5,-117 33.5,-117"/>
<text text-anchor="middle" x="72" y="-124" font-family="FreeSans" font-size="10.00">vtkAlgorithm</text>
</a>
</g>
<!-- Node3&#45;&gt;Node2 -->
<g id="edge4" class="edge"><title>Node3&#45;&gt;Node2</title>
<path fill="none" stroke="midnightblue" d="M72,-106.89C72,-97.6201 72,-87.0083 72,-79.3776"/>
<polygon fill="midnightblue" stroke="midnightblue" points="68.5001,-106.897 72,-116.897 75.5001,-106.897 68.5001,-106.897"/>
</g>
<!-- Node4 -->
<g id="node6" class="node"><title>Node4</title>
<a xlink:href="class_kitware_1_1_v_t_k_1_1vtk_object.html" target="_top" xlink:title="vtkObject &#45; abstract base class for most VTK objects">
<polygon fill="none" stroke="black" points="41,-175 41,-195 103,-195 103,-175 41,-175"/>
<text text-anchor="middle" x="72" y="-182" font-family="FreeSans" font-size="10.00">vtkObject</text>
</a>
</g>
<!-- Node4&#45;&gt;Node3 -->
<g id="edge6" class="edge"><title>Node4&#45;&gt;Node3</title>
<path fill="none" stroke="midnightblue" d="M72,-164.89C72,-155.62 72,-145.008 72,-137.378"/>
<polygon fill="midnightblue" stroke="midnightblue" points="68.5001,-164.897 72,-174.897 75.5001,-164.897 68.5001,-164.897"/>
</g>
<!-- Node5 -->
<g id="node8" class="node"><title>Node5</title>
<a xlink:href="class_kitware_1_1_v_t_k_1_1vtk_object_base.html" target="_top" xlink:title="vtkObjectBase &#45; abstract base class for most VTK objects">
<polygon fill="none" stroke="black" points="29,-233 29,-253 115,-253 115,-233 29,-233"/>
<text text-anchor="middle" x="72" y="-240" font-family="FreeSans" font-size="10.00">vtkObjectBase</text>
</a>
</g>
<!-- Node5&#45;&gt;Node4 -->
<g id="edge8" class="edge"><title>Node5&#45;&gt;Node4</title>
<path fill="none" stroke="midnightblue" d="M72,-222.89C72,-213.62 72,-203.008 72,-195.378"/>
<polygon fill="midnightblue" stroke="midnightblue" points="68.5001,-222.897 72,-232.897 75.5001,-222.897 68.5001,-222.897"/>
</g>
<!-- Node6 -->
<g id="node10" class="node"><title>Node6</title>
<a xlink:href="class_kitware_1_1_v_t_k_1_1_wrapped_object.html" target="_top" xlink:title="Base class for all the mummy wrapped classes in Kitware.VTK.">
<polygon fill="none" stroke="black" points="27.5,-291 27.5,-311 116.5,-311 116.5,-291 27.5,-291"/>
<text text-anchor="middle" x="72" y="-298" font-family="FreeSans" font-size="10.00">WrappedObject</text>
</a>
</g>
<!-- Node6&#45;&gt;Node5 -->
<g id="edge10" class="edge"><title>Node6&#45;&gt;Node5</title>
<path fill="none" stroke="midnightblue" d="M72,-280.89C72,-271.62 72,-261.008 72,-253.378"/>
<polygon fill="midnightblue" stroke="midnightblue" points="68.5001,-280.897 72,-290.897 75.5001,-280.897 68.5001,-280.897"/>
</g>
</g>
</svg>
