<?xml version="1.0" encoding="UTF-8" standalone="no"?>
<!DOCTYPE svg PUBLIC "-//W3C//DTD SVG 1.1//EN"
 "http://www.w3.org/Graphics/SVG/1.1/DTD/svg11.dtd">
<!-- Generated by graphviz version 2.26.3 (20100126.1600)
 -->
<!-- Title: G Pages: 1 -->
<svg width="473pt" height="950pt"
 viewBox="0.00 0.00 473.46 950.00" xmlns="http://www.w3.org/2000/svg" xmlns:xlink="http://www.w3.org/1999/xlink">
<g id="graph1" class="graph" transform="scale(1 1) rotate(0) translate(4 946)">
<title>G</title>
<!-- Node1 -->
<g id="node1" class="node"><title>Node1</title>
<polygon fill="#bfbfbf" stroke="black" points="-0.5,-1 -0.5,-21 274.5,-21 274.5,-1 -0.5,-1"/>
<text text-anchor="middle" x="137" y="-8" font-family="FreeSans" font-size="10.00">Kitware.VTK.vtkOpenGLProjectedAAHexahedraMapper</text>
</g>
<!-- Node2 -->
<g id="node2" class="node"><title>Node2</title>
<a xlink:href="class_kitware_1_1_v_t_k_1_1vtk_projected_a_a_hexahedra_mapper.html" target="_top" xlink:title="vtkProjectedAAHexahedraMapper &#45; volume mapper for axis&#45;aligned hexahedra">
<polygon fill="none" stroke="black" points="48,-61 48,-81 226,-81 226,-61 48,-61"/>
<text text-anchor="middle" x="137" y="-68" font-family="FreeSans" font-size="10.00">vtkProjectedAAHexahedraMapper</text>
</a>
</g>
<!-- Node2&#45;&gt;Node1 -->
<g id="edge2" class="edge"><title>Node2&#45;&gt;Node1</title>
<path fill="none" stroke="midnightblue" d="M137,-50.5155C137,-40.562 137,-29.0495 137,-21.0279"/>
<polygon fill="midnightblue" stroke="midnightblue" points="133.5,-50.8218 137,-60.8218 140.5,-50.8219 133.5,-50.8218"/>
</g>
<!-- Node3 -->
<g id="node4" class="node"><title>Node3</title>
<a xlink:href="class_kitware_1_1_v_t_k_1_1vtk_unstructured_grid_volume_mapper.html" target="_top" xlink:title="vtkUnstructuredGridVolumeMapper &#45; Abstract class for a unstructured grid volume mapper">
<polygon fill="none" stroke="black" points="44.5,-121 44.5,-141 229.5,-141 229.5,-121 44.5,-121"/>
<text text-anchor="middle" x="137" y="-128" font-family="FreeSans" font-size="10.00">vtkUnstructuredGridVolumeMapper</text>
</a>
</g>
<!-- Node3&#45;&gt;Node2 -->
<g id="edge4" class="edge"><title>Node3&#45;&gt;Node2</title>
<path fill="none" stroke="midnightblue" d="M137,-110.516C137,-100.562 137,-89.0495 137,-81.0279"/>
<polygon fill="midnightblue" stroke="midnightblue" points="133.5,-110.822 137,-120.822 140.5,-110.822 133.5,-110.822"/>
</g>
<!-- Node4 -->
<g id="node6" class="node"><title>Node4</title>
<a xlink:href="class_kitware_1_1_v_t_k_1_1vtk_abstract_volume_mapper.html" target="_top" xlink:title="vtkAbstractVolumeMapper &#45; Abstract class for a volume mapper">
<polygon fill="none" stroke="black" points="65.5,-181 65.5,-201 208.5,-201 208.5,-181 65.5,-181"/>
<text text-anchor="middle" x="137" y="-188" font-family="FreeSans" font-size="10.00">vtkAbstractVolumeMapper</text>
</a>
</g>
<!-- Node4&#45;&gt;Node3 -->
<g id="edge6" class="edge"><title>Node4&#45;&gt;Node3</title>
<path fill="none" stroke="midnightblue" d="M137,-170.516C137,-160.562 137,-149.05 137,-141.028"/>
<polygon fill="midnightblue" stroke="midnightblue" points="133.5,-170.822 137,-180.822 140.5,-170.822 133.5,-170.822"/>
</g>
<!-- Node5 -->
<g id="node8" class="node"><title>Node5</title>
<a xlink:href="class_kitware_1_1_v_t_k_1_1vtk_abstract_mapper3_d.html" target="_top" xlink:title="vtkAbstractMapper3D &#45; abstract class specifies interface to map 3D data">
<polygon fill="none" stroke="black" points="76.5,-241 76.5,-261 197.5,-261 197.5,-241 76.5,-241"/>
<text text-anchor="middle" x="137" y="-248" font-family="FreeSans" font-size="10.00">vtkAbstractMapper3D</text>
</a>
</g>
<!-- Node5&#45;&gt;Node4 -->
<g id="edge8" class="edge"><title>Node5&#45;&gt;Node4</title>
<path fill="none" stroke="midnightblue" d="M137,-230.516C137,-220.562 137,-209.05 137,-201.028"/>
<polygon fill="midnightblue" stroke="midnightblue" points="133.5,-230.822 137,-240.822 140.5,-230.822 133.5,-230.822"/>
</g>
<!-- Node6 -->
<g id="node10" class="node"><title>Node6</title>
<a xlink:href="class_kitware_1_1_v_t_k_1_1vtk_abstract_mapper.html" target="_top" xlink:title="vtkAbstractMapper &#45; abstract class specifies interface to map data">
<polygon fill="none" stroke="black" points="83.5,-301 83.5,-321 190.5,-321 190.5,-301 83.5,-301"/>
<text text-anchor="middle" x="137" y="-308" font-family="FreeSans" font-size="10.00">vtkAbstractMapper</text>
</a>
</g>
<!-- Node6&#45;&gt;Node5 -->
<g id="edge10" class="edge"><title>Node6&#45;&gt;Node5</title>
<path fill="none" stroke="midnightblue" d="M137,-290.516C137,-280.562 137,-269.05 137,-261.028"/>
<polygon fill="midnightblue" stroke="midnightblue" points="133.5,-290.822 137,-300.822 140.5,-290.822 133.5,-290.822"/>
</g>
<!-- Node7 -->
<g id="node12" class="node"><title>Node7</title>
<a xlink:href="class_kitware_1_1_v_t_k_1_1vtk_algorithm.html" target="_top" xlink:title="vtkAlgorithm &#45; Superclass for all sources, filters, and sinks in VTK.">
<polygon fill="none" stroke="black" points="98.5,-361 98.5,-381 175.5,-381 175.5,-361 98.5,-361"/>
<text text-anchor="middle" x="137" y="-368" font-family="FreeSans" font-size="10.00">vtkAlgorithm</text>
</a>
</g>
<!-- Node7&#45;&gt;Node6 -->
<g id="edge12" class="edge"><title>Node7&#45;&gt;Node6</title>
<path fill="none" stroke="midnightblue" d="M137,-350.516C137,-340.562 137,-329.05 137,-321.028"/>
<polygon fill="midnightblue" stroke="midnightblue" points="133.5,-350.822 137,-360.822 140.5,-350.822 133.5,-350.822"/>
</g>
<!-- Node8 -->
<g id="node14" class="node"><title>Node8</title>
<a xlink:href="class_kitware_1_1_v_t_k_1_1vtk_object.html" target="_top" xlink:title="vtkObject &#45; abstract base class for most VTK objects">
<polygon fill="none" stroke="black" points="106,-421 106,-441 168,-441 168,-421 106,-421"/>
<text text-anchor="middle" x="137" y="-428" font-family="FreeSans" font-size="10.00">vtkObject</text>
</a>
</g>
<!-- Node8&#45;&gt;Node7 -->
<g id="edge14" class="edge"><title>Node8&#45;&gt;Node7</title>
<path fill="none" stroke="midnightblue" d="M137,-410.516C137,-400.562 137,-389.05 137,-381.028"/>
<polygon fill="midnightblue" stroke="midnightblue" points="133.5,-410.822 137,-420.822 140.5,-410.822 133.5,-410.822"/>
</g>
<!-- Node9 -->
<g id="node16" class="node"><title>Node9</title>
<a xlink:href="class_kitware_1_1_v_t_k_1_1vtk_object_base.html" target="_top" xlink:title="vtkObjectBase &#45; abstract base class for most VTK objects">
<polygon fill="none" stroke="black" points="157,-861 157,-881 243,-881 243,-861 157,-861"/>
<text text-anchor="middle" x="200" y="-868" font-family="FreeSans" font-size="10.00">vtkObjectBase</text>
</a>
</g>
<!-- Node9&#45;&gt;Node8 -->
<g id="edge16" class="edge"><title>Node9&#45;&gt;Node8</title>
<path fill="none" stroke="midnightblue" d="M171.423,-855.886C157.687,-847.44 141.884,-835.826 131,-822 119.156,-806.955 118.621,-800.802 115,-782 89.4248,-649.199 124.577,-483.437 134.516,-441.17"/>
<polygon fill="midnightblue" stroke="midnightblue" points="169.683,-858.923 180.079,-860.97 173.229,-852.887 169.683,-858.923"/>
</g>
<!-- Node12 -->
<g id="node23" class="node"><title>Node12</title>
<a xlink:href="class_kitware_1_1_v_t_k_1_1vtk_object.html" target="_top" xlink:title="vtkObject &#45; abstract base class for most VTK objects">
<polygon fill="none" stroke="black" points="140,-801 140,-821 260,-821 260,-801 140,-801"/>
<text text-anchor="middle" x="200" y="-808" font-family="FreeSans" font-size="10.00">Kitware.VTK.vtkObject</text>
</a>
</g>
<!-- Node9&#45;&gt;Node12 -->
<g id="edge26" class="edge"><title>Node9&#45;&gt;Node12</title>
<path fill="none" stroke="midnightblue" d="M200,-850.516C200,-840.562 200,-829.05 200,-821.028"/>
<polygon fill="midnightblue" stroke="midnightblue" points="196.5,-850.822 200,-860.822 203.5,-850.822 196.5,-850.822"/>
</g>
<!-- Node10 -->
<g id="node18" class="node"><title>Node10</title>
<a xlink:href="class_kitware_1_1_v_t_k_1_1_wrapped_object.html" target="_top" xlink:title="Base class for all the mummy wrapped classes in Kitware.VTK.">
<polygon fill="none" stroke="black" points="338.5,-921 338.5,-941 427.5,-941 427.5,-921 338.5,-921"/>
<text text-anchor="middle" x="383" y="-928" font-family="FreeSans" font-size="10.00">WrappedObject</text>
</a>
</g>
<!-- Node10&#45;&gt;Node9 -->
<g id="edge18" class="edge"><title>Node10&#45;&gt;Node9</title>
<path fill="none" stroke="midnightblue" d="M342.804,-917.821C309.042,-906.752 261.512,-891.168 230.73,-881.075"/>
<polygon fill="midnightblue" stroke="midnightblue" points="341.777,-921.168 352.37,-920.957 343.958,-914.516 341.777,-921.168"/>
</g>
<!-- Node11 -->
<g id="node20" class="node"><title>Node11</title>
<a xlink:href="class_kitware_1_1_v_t_k_1_1vtk_object_event_relay.html" target="_top" xlink:title="Implement a relay handler for VTK events. This is a class that receives events directly from the VTK ...">
<polygon fill="none" stroke="black" points="129,-611 129,-631 301,-631 301,-611 129,-611"/>
<text text-anchor="middle" x="215" y="-618" font-family="FreeSans" font-size="10.00">Kitware.VTK.vtkObjectEventRelay</text>
</a>
</g>
<!-- Node10&#45;&gt;Node11 -->
<g id="edge22" class="edge"><title>Node10&#45;&gt;Node11</title>
<path fill="none" stroke="midnightblue" d="M395.888,-912.325C428.276,-862.899 505.803,-727.191 438,-650 428.773,-639.495 360.047,-631.666 301.298,-626.808"/>
<polygon fill="midnightblue" stroke="midnightblue" points="392.891,-910.509 390.239,-920.767 398.709,-914.402 392.891,-910.509"/>
</g>
<!-- Node11&#45;&gt;Node8 -->
<g id="edge20" class="edge"><title>Node11&#45;&gt;Node8</title>
<path fill="none" stroke="#9a32cd" stroke-dasharray="5,2" d="M206.921,-601.321C190.489,-561.293 153.674,-471.616 141.214,-441.266"/>
<polygon fill="#9a32cd" stroke="#9a32cd" points="203.771,-602.863 210.806,-610.785 210.246,-600.205 203.771,-602.863"/>
<text text-anchor="middle" x="314.5" y="-583" font-family="FreeSans" font-size="10.00"> LeftButtonReleaseEvtRelay</text>
<text text-anchor="middle" x="314.5" y="-571" font-family="FreeSans" font-size="10.00">KeyPressEvtRelay</text>
<text text-anchor="middle" x="314.5" y="-559" font-family="FreeSans" font-size="10.00">DomainModifiedEvtRelay</text>
<text text-anchor="middle" x="314.5" y="-547" font-family="FreeSans" font-size="10.00">VolumeMapperComputeGradientsStartEvtRelay</text>
<text text-anchor="middle" x="314.5" y="-535" font-family="FreeSans" font-size="10.00">ErrorEvtRelay</text>
<text text-anchor="middle" x="314.5" y="-523" font-family="FreeSans" font-size="10.00">VolumeMapperRenderStartEvtRelay</text>
<text text-anchor="middle" x="314.5" y="-511" font-family="FreeSans" font-size="10.00">StartEvtRelay</text>
<text text-anchor="middle" x="314.5" y="-499" font-family="FreeSans" font-size="10.00">ResetCameraEvtRelay</text>
<text text-anchor="middle" x="314.5" y="-487" font-family="FreeSans" font-size="10.00">EnableEvtRelay</text>
<text text-anchor="middle" x="314.5" y="-475" font-family="FreeSans" font-size="10.00">DeleteEvtRelay</text>
<text text-anchor="middle" x="314.5" y="-463" font-family="FreeSans" font-size="10.00">...</text>
</g>
<!-- Node11&#45;&gt;Node12 -->
<g id="edge28" class="edge"><title>Node11&#45;&gt;Node12</title>
<path fill="none" stroke="#9a32cd" stroke-dasharray="5,2" d="M212.028,-641.231C211.649,-644.169 211.293,-647.159 211,-650 205.144,-706.853 201.636,-775.333 200.452,-800.807"/>
<polygon fill="#9a32cd" stroke="#9a32cd" points="215.515,-641.565 213.421,-631.179 208.582,-640.604 215.515,-641.565"/>
<text text-anchor="middle" x="324.5" y="-773" font-family="FreeSans" font-size="10.00"> LeftButtonReleaseEvtRelay</text>
<text text-anchor="middle" x="324.5" y="-761" font-family="FreeSans" font-size="10.00">KeyPressEvtRelay</text>
<text text-anchor="middle" x="324.5" y="-749" font-family="FreeSans" font-size="10.00">DomainModifiedEvtRelay</text>
<text text-anchor="middle" x="324.5" y="-737" font-family="FreeSans" font-size="10.00">VolumeMapperComputeGradientsStartEvtRelay</text>
<text text-anchor="middle" x="324.5" y="-725" font-family="FreeSans" font-size="10.00">ErrorEvtRelay</text>
<text text-anchor="middle" x="324.5" y="-713" font-family="FreeSans" font-size="10.00">VolumeMapperRenderStartEvtRelay</text>
<text text-anchor="middle" x="324.5" y="-701" font-family="FreeSans" font-size="10.00">StartEvtRelay</text>
<text text-anchor="middle" x="324.5" y="-689" font-family="FreeSans" font-size="10.00">ResetCameraEvtRelay</text>
<text text-anchor="middle" x="324.5" y="-677" font-family="FreeSans" font-size="10.00">EnableEvtRelay</text>
<text text-anchor="middle" x="324.5" y="-665" font-family="FreeSans" font-size="10.00">DeleteEvtRelay</text>
<text text-anchor="middle" x="324.5" y="-653" font-family="FreeSans" font-size="10.00">...</text>
</g>
<!-- Node12&#45;&gt;Node11 -->
<g id="edge24" class="edge"><title>Node12&#45;&gt;Node11</title>
<path fill="none" stroke="#9a32cd" stroke-dasharray="5,2" d="M153.979,-795.818C148.439,-792.138 143.51,-787.596 140,-782 108.823,-732.303 106.83,-698.389 140,-650 144.736,-643.091 161.511,-636.287 177.999,-631.008"/>
<polygon fill="#9a32cd" stroke="#9a32cd" points="152.639,-799.079 163.072,-800.919 156.064,-792.974 152.639,-799.079"/>
<text text-anchor="middle" x="164" y="-719" font-family="FreeSans" font-size="10.00"> Sender</text>
<text text-anchor="middle" x="164" y="-707" font-family="FreeSans" font-size="10.00">EventImpl</text>
</g>
</g>
</svg>
