<?xml version="1.0" encoding="UTF-8" standalone="no"?>
<!DOCTYPE svg PUBLIC "-//W3C//DTD SVG 1.1//EN"
 "http://www.w3.org/Graphics/SVG/1.1/DTD/svg11.dtd">
<!-- Generated by graphviz version 2.26.3 (20100126.1600)
 -->
<!-- Title: G Pages: 1 -->
<svg width="455pt" height="770pt"
 viewBox="0.00 0.00 455.46 770.00" xmlns="http://www.w3.org/2000/svg" xmlns:xlink="http://www.w3.org/1999/xlink">
<g id="graph1" class="graph" transform="scale(1 1) rotate(0) translate(4 766)">
<title>G</title>
<!-- Node1 -->
<g id="node1" class="node"><title>Node1</title>
<polygon fill="#bfbfbf" stroke="black" points="-0.5,-1 -0.5,-21 238.5,-21 238.5,-1 -0.5,-1"/>
<text text-anchor="middle" x="119" y="-8" font-family="FreeSans" font-size="10.00">Kitware.VTK.vtkIncrementalOctreePointLocator</text>
</g>
<!-- Node2 -->
<g id="node2" class="node"><title>Node2</title>
<a xlink:href="class_kitware_1_1_v_t_k_1_1vtk_incremental_point_locator.html" target="_top" xlink:title="vtkIncrementalPointLocator &#45; Abstract class in support of both point location and point insertion...">
<polygon fill="none" stroke="black" points="45,-61 45,-81 193,-81 193,-61 45,-61"/>
<text text-anchor="middle" x="119" y="-68" font-family="FreeSans" font-size="10.00">vtkIncrementalPointLocator</text>
</a>
</g>
<!-- Node2&#45;&gt;Node1 -->
<g id="edge2" class="edge"><title>Node2&#45;&gt;Node1</title>
<path fill="none" stroke="midnightblue" d="M119,-50.5155C119,-40.562 119,-29.0495 119,-21.0279"/>
<polygon fill="midnightblue" stroke="midnightblue" points="115.5,-50.8218 119,-60.8218 122.5,-50.8219 115.5,-50.8218"/>
</g>
<!-- Node3 -->
<g id="node4" class="node"><title>Node3</title>
<a xlink:href="class_kitware_1_1_v_t_k_1_1vtk_abstract_point_locator.html" target="_top" xlink:title="vtkAbstractPointLocator &#45; abstract class to quickly locate points in 3&#45;space">
<polygon fill="none" stroke="black" points="53.5,-121 53.5,-141 184.5,-141 184.5,-121 53.5,-121"/>
<text text-anchor="middle" x="119" y="-128" font-family="FreeSans" font-size="10.00">vtkAbstractPointLocator</text>
</a>
</g>
<!-- Node3&#45;&gt;Node2 -->
<g id="edge4" class="edge"><title>Node3&#45;&gt;Node2</title>
<path fill="none" stroke="midnightblue" d="M119,-110.516C119,-100.562 119,-89.0495 119,-81.0279"/>
<polygon fill="midnightblue" stroke="midnightblue" points="115.5,-110.822 119,-120.822 122.5,-110.822 115.5,-110.822"/>
</g>
<!-- Node4 -->
<g id="node6" class="node"><title>Node4</title>
<a xlink:href="class_kitware_1_1_v_t_k_1_1vtk_locator.html" target="_top" xlink:title="vtkLocator &#45; abstract base class for objects that accelerate spatial searches">
<polygon fill="none" stroke="black" points="85.5,-181 85.5,-201 152.5,-201 152.5,-181 85.5,-181"/>
<text text-anchor="middle" x="119" y="-188" font-family="FreeSans" font-size="10.00">vtkLocator</text>
</a>
</g>
<!-- Node4&#45;&gt;Node3 -->
<g id="edge6" class="edge"><title>Node4&#45;&gt;Node3</title>
<path fill="none" stroke="midnightblue" d="M119,-170.516C119,-160.562 119,-149.05 119,-141.028"/>
<polygon fill="midnightblue" stroke="midnightblue" points="115.5,-170.822 119,-180.822 122.5,-170.822 115.5,-170.822"/>
</g>
<!-- Node5 -->
<g id="node8" class="node"><title>Node5</title>
<a xlink:href="class_kitware_1_1_v_t_k_1_1vtk_object.html" target="_top" xlink:title="vtkObject &#45; abstract base class for most VTK objects">
<polygon fill="none" stroke="black" points="88,-241 88,-261 150,-261 150,-241 88,-241"/>
<text text-anchor="middle" x="119" y="-248" font-family="FreeSans" font-size="10.00">vtkObject</text>
</a>
</g>
<!-- Node5&#45;&gt;Node4 -->
<g id="edge8" class="edge"><title>Node5&#45;&gt;Node4</title>
<path fill="none" stroke="midnightblue" d="M119,-230.516C119,-220.562 119,-209.05 119,-201.028"/>
<polygon fill="midnightblue" stroke="midnightblue" points="115.5,-230.822 119,-240.822 122.5,-230.822 115.5,-230.822"/>
</g>
<!-- Node6 -->
<g id="node10" class="node"><title>Node6</title>
<a xlink:href="class_kitware_1_1_v_t_k_1_1vtk_object_base.html" target="_top" xlink:title="vtkObjectBase &#45; abstract base class for most VTK objects">
<polygon fill="none" stroke="black" points="139,-681 139,-701 225,-701 225,-681 139,-681"/>
<text text-anchor="middle" x="182" y="-688" font-family="FreeSans" font-size="10.00">vtkObjectBase</text>
</a>
</g>
<!-- Node6&#45;&gt;Node5 -->
<g id="edge10" class="edge"><title>Node6&#45;&gt;Node5</title>
<path fill="none" stroke="midnightblue" d="M153.423,-675.886C139.687,-667.44 123.884,-655.826 113,-642 101.156,-626.955 100.621,-620.802 97,-602 71.4248,-469.199 106.577,-303.437 116.516,-261.17"/>
<polygon fill="midnightblue" stroke="midnightblue" points="151.683,-678.923 162.079,-680.97 155.229,-672.887 151.683,-678.923"/>
</g>
<!-- Node9 -->
<g id="node17" class="node"><title>Node9</title>
<a xlink:href="class_kitware_1_1_v_t_k_1_1vtk_object.html" target="_top" xlink:title="vtkObject &#45; abstract base class for most VTK objects">
<polygon fill="none" stroke="black" points="122,-621 122,-641 242,-641 242,-621 122,-621"/>
<text text-anchor="middle" x="182" y="-628" font-family="FreeSans" font-size="10.00">Kitware.VTK.vtkObject</text>
</a>
</g>
<!-- Node6&#45;&gt;Node9 -->
<g id="edge20" class="edge"><title>Node6&#45;&gt;Node9</title>
<path fill="none" stroke="midnightblue" d="M182,-670.516C182,-660.562 182,-649.05 182,-641.028"/>
<polygon fill="midnightblue" stroke="midnightblue" points="178.5,-670.822 182,-680.822 185.5,-670.822 178.5,-670.822"/>
</g>
<!-- Node7 -->
<g id="node12" class="node"><title>Node7</title>
<a xlink:href="class_kitware_1_1_v_t_k_1_1_wrapped_object.html" target="_top" xlink:title="Base class for all the mummy wrapped classes in Kitware.VTK.">
<polygon fill="none" stroke="black" points="320.5,-741 320.5,-761 409.5,-761 409.5,-741 320.5,-741"/>
<text text-anchor="middle" x="365" y="-748" font-family="FreeSans" font-size="10.00">WrappedObject</text>
</a>
</g>
<!-- Node7&#45;&gt;Node6 -->
<g id="edge12" class="edge"><title>Node7&#45;&gt;Node6</title>
<path fill="none" stroke="midnightblue" d="M324.804,-737.821C291.042,-726.752 243.512,-711.168 212.73,-701.075"/>
<polygon fill="midnightblue" stroke="midnightblue" points="323.777,-741.168 334.37,-740.957 325.958,-734.516 323.777,-741.168"/>
</g>
<!-- Node8 -->
<g id="node14" class="node"><title>Node8</title>
<a xlink:href="class_kitware_1_1_v_t_k_1_1vtk_object_event_relay.html" target="_top" xlink:title="Implement a relay handler for VTK events. This is a class that receives events directly from the VTK ...">
<polygon fill="none" stroke="black" points="111,-431 111,-451 283,-451 283,-431 111,-431"/>
<text text-anchor="middle" x="197" y="-438" font-family="FreeSans" font-size="10.00">Kitware.VTK.vtkObjectEventRelay</text>
</a>
</g>
<!-- Node7&#45;&gt;Node8 -->
<g id="edge16" class="edge"><title>Node7&#45;&gt;Node8</title>
<path fill="none" stroke="midnightblue" d="M377.888,-732.325C410.276,-682.899 487.803,-547.191 420,-470 410.773,-459.495 342.047,-451.666 283.298,-446.808"/>
<polygon fill="midnightblue" stroke="midnightblue" points="374.891,-730.509 372.239,-740.767 380.709,-734.402 374.891,-730.509"/>
</g>
<!-- Node8&#45;&gt;Node5 -->
<g id="edge14" class="edge"><title>Node8&#45;&gt;Node5</title>
<path fill="none" stroke="#9a32cd" stroke-dasharray="5,2" d="M188.921,-421.321C172.489,-381.293 135.674,-291.616 123.214,-261.266"/>
<polygon fill="#9a32cd" stroke="#9a32cd" points="185.771,-422.863 192.806,-430.785 192.246,-420.205 185.771,-422.863"/>
<text text-anchor="middle" x="296.5" y="-403" font-family="FreeSans" font-size="10.00"> LeftButtonReleaseEvtRelay</text>
<text text-anchor="middle" x="296.5" y="-391" font-family="FreeSans" font-size="10.00">KeyPressEvtRelay</text>
<text text-anchor="middle" x="296.5" y="-379" font-family="FreeSans" font-size="10.00">DomainModifiedEvtRelay</text>
<text text-anchor="middle" x="296.5" y="-367" font-family="FreeSans" font-size="10.00">VolumeMapperComputeGradientsStartEvtRelay</text>
<text text-anchor="middle" x="296.5" y="-355" font-family="FreeSans" font-size="10.00">ErrorEvtRelay</text>
<text text-anchor="middle" x="296.5" y="-343" font-family="FreeSans" font-size="10.00">VolumeMapperRenderStartEvtRelay</text>
<text text-anchor="middle" x="296.5" y="-331" font-family="FreeSans" font-size="10.00">StartEvtRelay</text>
<text text-anchor="middle" x="296.5" y="-319" font-family="FreeSans" font-size="10.00">ResetCameraEvtRelay</text>
<text text-anchor="middle" x="296.5" y="-307" font-family="FreeSans" font-size="10.00">EnableEvtRelay</text>
<text text-anchor="middle" x="296.5" y="-295" font-family="FreeSans" font-size="10.00">DeleteEvtRelay</text>
<text text-anchor="middle" x="296.5" y="-283" font-family="FreeSans" font-size="10.00">...</text>
</g>
<!-- Node8&#45;&gt;Node9 -->
<g id="edge22" class="edge"><title>Node8&#45;&gt;Node9</title>
<path fill="none" stroke="#9a32cd" stroke-dasharray="5,2" d="M194.028,-461.231C193.649,-464.169 193.293,-467.159 193,-470 187.144,-526.853 183.636,-595.333 182.452,-620.807"/>
<polygon fill="#9a32cd" stroke="#9a32cd" points="197.515,-461.565 195.421,-451.179 190.582,-460.604 197.515,-461.565"/>
<text text-anchor="middle" x="306.5" y="-593" font-family="FreeSans" font-size="10.00"> LeftButtonReleaseEvtRelay</text>
<text text-anchor="middle" x="306.5" y="-581" font-family="FreeSans" font-size="10.00">KeyPressEvtRelay</text>
<text text-anchor="middle" x="306.5" y="-569" font-family="FreeSans" font-size="10.00">DomainModifiedEvtRelay</text>
<text text-anchor="middle" x="306.5" y="-557" font-family="FreeSans" font-size="10.00">VolumeMapperComputeGradientsStartEvtRelay</text>
<text text-anchor="middle" x="306.5" y="-545" font-family="FreeSans" font-size="10.00">ErrorEvtRelay</text>
<text text-anchor="middle" x="306.5" y="-533" font-family="FreeSans" font-size="10.00">VolumeMapperRenderStartEvtRelay</text>
<text text-anchor="middle" x="306.5" y="-521" font-family="FreeSans" font-size="10.00">StartEvtRelay</text>
<text text-anchor="middle" x="306.5" y="-509" font-family="FreeSans" font-size="10.00">ResetCameraEvtRelay</text>
<text text-anchor="middle" x="306.5" y="-497" font-family="FreeSans" font-size="10.00">EnableEvtRelay</text>
<text text-anchor="middle" x="306.5" y="-485" font-family="FreeSans" font-size="10.00">DeleteEvtRelay</text>
<text text-anchor="middle" x="306.5" y="-473" font-family="FreeSans" font-size="10.00">...</text>
</g>
<!-- Node9&#45;&gt;Node8 -->
<g id="edge18" class="edge"><title>Node9&#45;&gt;Node8</title>
<path fill="none" stroke="#9a32cd" stroke-dasharray="5,2" d="M135.979,-615.818C130.439,-612.138 125.51,-607.596 122,-602 90.8229,-552.303 88.8299,-518.389 122,-470 126.736,-463.091 143.511,-456.287 159.999,-451.008"/>
<polygon fill="#9a32cd" stroke="#9a32cd" points="134.639,-619.079 145.072,-620.919 138.064,-612.974 134.639,-619.079"/>
<text text-anchor="middle" x="146" y="-539" font-family="FreeSans" font-size="10.00"> Sender</text>
<text text-anchor="middle" x="146" y="-527" font-family="FreeSans" font-size="10.00">EventImpl</text>
</g>
</g>
</svg>
