<?xml version="1.0" encoding="UTF-8" standalone="no"?>
<!DOCTYPE svg PUBLIC "-//W3C//DTD SVG 1.1//EN"
 "http://www.w3.org/Graphics/SVG/1.1/DTD/svg11.dtd">
<!-- Generated by graphviz version 2.26.3 (20100126.1600)
 -->
<!-- Title: G Pages: 1 -->
<svg width="440pt" height="436pt"
 viewBox="0.00 0.00 440.00 436.00" xmlns="http://www.w3.org/2000/svg" xmlns:xlink="http://www.w3.org/1999/xlink">
<g id="graph1" class="graph" transform="scale(1 1) rotate(0) translate(4 432)">
<title>G</title>
<!-- Node1 -->
<g id="node1" class="node"><title>Node1</title>
<polygon fill="#bfbfbf" stroke="black" points="110.5,-59 110.5,-79 289.5,-79 289.5,-59 110.5,-59"/>
<text text-anchor="middle" x="200" y="-66" font-family="FreeSans" font-size="10.00">Kitware.VTK.vtkImageMapToColors</text>
</g>
<!-- Node8 -->
<g id="node15" class="node"><title>Node8</title>
<a xlink:href="class_kitware_1_1_v_t_k_1_1vtk_image_map_to_r_g_b_a.html" target="_top" xlink:title="vtkImageMapToRGBA &#45; map the input image through a lookup table">
<polygon fill="none" stroke="black" points="0,-1 0,-21 176,-21 176,-1 0,-1"/>
<text text-anchor="middle" x="88" y="-8" font-family="FreeSans" font-size="10.00">Kitware.VTK.vtkImageMapToRGBA</text>
</a>
</g>
<!-- Node1&#45;&gt;Node8 -->
<g id="edge14" class="edge"><title>Node1&#45;&gt;Node8</title>
<path fill="none" stroke="midnightblue" d="M171.526,-54.2544C151.548,-43.9086 125.348,-30.3411 107.661,-21.1817"/>
<polygon fill="midnightblue" stroke="midnightblue" points="170.002,-57.4066 180.491,-58.8972 173.221,-51.1906 170.002,-57.4066"/>
</g>
<!-- Node9 -->
<g id="node17" class="node"><title>Node9</title>
<a xlink:href="class_kitware_1_1_v_t_k_1_1vtk_image_map_to_window_level_colors.html" target="_top" xlink:title="vtkImageMapToWindowLevelColors &#45; map the input image through a lookup table and window / level it...">
<polygon fill="none" stroke="black" points="193.5,-1 193.5,-21 432.5,-21 432.5,-1 193.5,-1"/>
<text text-anchor="middle" x="313" y="-8" font-family="FreeSans" font-size="10.00">Kitware.VTK.vtkImageMapToWindowLevelColors</text>
</a>
</g>
<!-- Node1&#45;&gt;Node9 -->
<g id="edge16" class="edge"><title>Node1&#45;&gt;Node9</title>
<path fill="none" stroke="midnightblue" d="M228.728,-54.2544C248.885,-43.9086 275.318,-30.3411 293.163,-21.1817"/>
<polygon fill="midnightblue" stroke="midnightblue" points="226.981,-51.217 219.683,-58.8972 230.178,-57.4445 226.981,-51.217"/>
</g>
<!-- Node2 -->
<g id="node2" class="node"><title>Node2</title>
<a xlink:href="class_kitware_1_1_v_t_k_1_1vtk_threaded_image_algorithm.html" target="_top" xlink:title="vtkThreadedImageAlgorithm &#45; Generic filter that has one input..">
<polygon fill="none" stroke="black" points="124,-117 124,-137 276,-137 276,-117 124,-117"/>
<text text-anchor="middle" x="200" y="-124" font-family="FreeSans" font-size="10.00">vtkThreadedImageAlgorithm</text>
</a>
</g>
<!-- Node2&#45;&gt;Node1 -->
<g id="edge2" class="edge"><title>Node2&#45;&gt;Node1</title>
<path fill="none" stroke="midnightblue" d="M200,-106.89C200,-97.6201 200,-87.0083 200,-79.3776"/>
<polygon fill="midnightblue" stroke="midnightblue" points="196.5,-106.897 200,-116.897 203.5,-106.897 196.5,-106.897"/>
</g>
<!-- Node3 -->
<g id="node4" class="node"><title>Node3</title>
<a xlink:href="class_kitware_1_1_v_t_k_1_1vtk_image_algorithm.html" target="_top" xlink:title="vtkImageAlgorithm &#45; Generic algorithm superclass for image algs">
<polygon fill="none" stroke="black" points="146.5,-175 146.5,-195 253.5,-195 253.5,-175 146.5,-175"/>
<text text-anchor="middle" x="200" y="-182" font-family="FreeSans" font-size="10.00">vtkImageAlgorithm</text>
</a>
</g>
<!-- Node3&#45;&gt;Node2 -->
<g id="edge4" class="edge"><title>Node3&#45;&gt;Node2</title>
<path fill="none" stroke="midnightblue" d="M200,-164.89C200,-155.62 200,-145.008 200,-137.378"/>
<polygon fill="midnightblue" stroke="midnightblue" points="196.5,-164.897 200,-174.897 203.5,-164.897 196.5,-164.897"/>
</g>
<!-- Node4 -->
<g id="node6" class="node"><title>Node4</title>
<a xlink:href="class_kitware_1_1_v_t_k_1_1vtk_algorithm.html" target="_top" xlink:title="vtkAlgorithm &#45; Superclass for all sources, filters, and sinks in VTK.">
<polygon fill="none" stroke="black" points="161.5,-233 161.5,-253 238.5,-253 238.5,-233 161.5,-233"/>
<text text-anchor="middle" x="200" y="-240" font-family="FreeSans" font-size="10.00">vtkAlgorithm</text>
</a>
</g>
<!-- Node4&#45;&gt;Node3 -->
<g id="edge6" class="edge"><title>Node4&#45;&gt;Node3</title>
<path fill="none" stroke="midnightblue" d="M200,-222.89C200,-213.62 200,-203.008 200,-195.378"/>
<polygon fill="midnightblue" stroke="midnightblue" points="196.5,-222.897 200,-232.897 203.5,-222.897 196.5,-222.897"/>
</g>
<!-- Node5 -->
<g id="node8" class="node"><title>Node5</title>
<a xlink:href="class_kitware_1_1_v_t_k_1_1vtk_object.html" target="_top" xlink:title="vtkObject &#45; abstract base class for most VTK objects">
<polygon fill="none" stroke="black" points="169,-291 169,-311 231,-311 231,-291 169,-291"/>
<text text-anchor="middle" x="200" y="-298" font-family="FreeSans" font-size="10.00">vtkObject</text>
</a>
</g>
<!-- Node5&#45;&gt;Node4 -->
<g id="edge8" class="edge"><title>Node5&#45;&gt;Node4</title>
<path fill="none" stroke="midnightblue" d="M200,-280.89C200,-271.62 200,-261.008 200,-253.378"/>
<polygon fill="midnightblue" stroke="midnightblue" points="196.5,-280.897 200,-290.897 203.5,-280.897 196.5,-280.897"/>
</g>
<!-- Node6 -->
<g id="node10" class="node"><title>Node6</title>
<a xlink:href="class_kitware_1_1_v_t_k_1_1vtk_object_base.html" target="_top" xlink:title="vtkObjectBase &#45; abstract base class for most VTK objects">
<polygon fill="none" stroke="black" points="157,-349 157,-369 243,-369 243,-349 157,-349"/>
<text text-anchor="middle" x="200" y="-356" font-family="FreeSans" font-size="10.00">vtkObjectBase</text>
</a>
</g>
<!-- Node6&#45;&gt;Node5 -->
<g id="edge10" class="edge"><title>Node6&#45;&gt;Node5</title>
<path fill="none" stroke="midnightblue" d="M200,-338.89C200,-329.62 200,-319.008 200,-311.378"/>
<polygon fill="midnightblue" stroke="midnightblue" points="196.5,-338.897 200,-348.897 203.5,-338.897 196.5,-338.897"/>
</g>
<!-- Node7 -->
<g id="node12" class="node"><title>Node7</title>
<a xlink:href="class_kitware_1_1_v_t_k_1_1_wrapped_object.html" target="_top" xlink:title="Base class for all the mummy wrapped classes in Kitware.VTK.">
<polygon fill="none" stroke="black" points="155.5,-407 155.5,-427 244.5,-427 244.5,-407 155.5,-407"/>
<text text-anchor="middle" x="200" y="-414" font-family="FreeSans" font-size="10.00">WrappedObject</text>
</a>
</g>
<!-- Node7&#45;&gt;Node6 -->
<g id="edge12" class="edge"><title>Node7&#45;&gt;Node6</title>
<path fill="none" stroke="midnightblue" d="M200,-396.89C200,-387.62 200,-377.008 200,-369.378"/>
<polygon fill="midnightblue" stroke="midnightblue" points="196.5,-396.897 200,-406.897 203.5,-396.897 196.5,-396.897"/>
</g>
</g>
</svg>
