<?xml version="1.0" encoding="UTF-8" standalone="no"?>
<!DOCTYPE svg PUBLIC "-//W3C//DTD SVG 1.1//EN"
 "http://www.w3.org/Graphics/SVG/1.1/DTD/svg11.dtd">
<!-- Generated by graphviz version 2.26.3 (20100126.1600)
 -->
<!-- Title: G Pages: 1 -->
<svg width="438pt" height="262pt"
 viewBox="0.00 0.00 438.00 262.00" xmlns="http://www.w3.org/2000/svg" xmlns:xlink="http://www.w3.org/1999/xlink">
<g id="graph1" class="graph" transform="scale(1 1) rotate(0) translate(4 258)">
<title>G</title>
<!-- Node1 -->
<g id="node1" class="node"><title>Node1</title>
<polygon fill="#bfbfbf" stroke="black" points="131,-59 131,-79 309,-79 309,-59 131,-59"/>
<text text-anchor="middle" x="220" y="-66" font-family="FreeSans" font-size="10.00">Kitware.VTK.vtkTDxInteractorStyle</text>
</g>
<!-- Node5 -->
<g id="node9" class="node"><title>Node5</title>
<a xlink:href="class_kitware_1_1_v_t_k_1_1vtk_t_dx_interactor_style_camera.html" target="_top" xlink:title="vtkTDxInteractorStyleCamera &#45; interactive manipulation of the camera with a 3DConnexion device...">
<polygon fill="none" stroke="black" points="0,-1 0,-21 216,-21 216,-1 0,-1"/>
<text text-anchor="middle" x="108" y="-8" font-family="FreeSans" font-size="10.00">Kitware.VTK.vtkTDxInteractorStyleCamera</text>
</a>
</g>
<!-- Node1&#45;&gt;Node5 -->
<g id="edge8" class="edge"><title>Node1&#45;&gt;Node5</title>
<path fill="none" stroke="midnightblue" d="M191.526,-54.2544C171.548,-43.9086 145.348,-30.3411 127.661,-21.1817"/>
<polygon fill="midnightblue" stroke="midnightblue" points="190.002,-57.4066 200.491,-58.8972 193.221,-51.1906 190.002,-57.4066"/>
</g>
<!-- Node6 -->
<g id="node11" class="node"><title>Node6</title>
<a xlink:href="class_kitware_1_1_v_t_k_1_1vtk_t_dx_interactor_style_geo.html" target="_top" xlink:title="vtkTDxInteractorStyleGeo &#45; interactive manipulation of the camera with a 3DConnexion device...">
<polygon fill="none" stroke="black" points="233.5,-1 233.5,-21 430.5,-21 430.5,-1 233.5,-1"/>
<text text-anchor="middle" x="332" y="-8" font-family="FreeSans" font-size="10.00">Kitware.VTK.vtkTDxInteractorStyleGeo</text>
</a>
</g>
<!-- Node1&#45;&gt;Node6 -->
<g id="edge10" class="edge"><title>Node1&#45;&gt;Node6</title>
<path fill="none" stroke="midnightblue" d="M248.474,-54.2544C268.452,-43.9086 294.652,-30.3411 312.339,-21.1817"/>
<polygon fill="midnightblue" stroke="midnightblue" points="246.779,-51.1906 239.509,-58.8972 249.998,-57.4066 246.779,-51.1906"/>
</g>
<!-- Node2 -->
<g id="node2" class="node"><title>Node2</title>
<a xlink:href="class_kitware_1_1_v_t_k_1_1vtk_object.html" target="_top" xlink:title="vtkObject &#45; abstract base class for most VTK objects">
<polygon fill="none" stroke="black" points="189,-117 189,-137 251,-137 251,-117 189,-117"/>
<text text-anchor="middle" x="220" y="-124" font-family="FreeSans" font-size="10.00">vtkObject</text>
</a>
</g>
<!-- Node2&#45;&gt;Node1 -->
<g id="edge2" class="edge"><title>Node2&#45;&gt;Node1</title>
<path fill="none" stroke="midnightblue" d="M220,-106.89C220,-97.6201 220,-87.0083 220,-79.3776"/>
<polygon fill="midnightblue" stroke="midnightblue" points="216.5,-106.897 220,-116.897 223.5,-106.897 216.5,-106.897"/>
</g>
<!-- Node3 -->
<g id="node4" class="node"><title>Node3</title>
<a xlink:href="class_kitware_1_1_v_t_k_1_1vtk_object_base.html" target="_top" xlink:title="vtkObjectBase &#45; abstract base class for most VTK objects">
<polygon fill="none" stroke="black" points="177,-175 177,-195 263,-195 263,-175 177,-175"/>
<text text-anchor="middle" x="220" y="-182" font-family="FreeSans" font-size="10.00">vtkObjectBase</text>
</a>
</g>
<!-- Node3&#45;&gt;Node2 -->
<g id="edge4" class="edge"><title>Node3&#45;&gt;Node2</title>
<path fill="none" stroke="midnightblue" d="M220,-164.89C220,-155.62 220,-145.008 220,-137.378"/>
<polygon fill="midnightblue" stroke="midnightblue" points="216.5,-164.897 220,-174.897 223.5,-164.897 216.5,-164.897"/>
</g>
<!-- Node4 -->
<g id="node6" class="node"><title>Node4</title>
<a xlink:href="class_kitware_1_1_v_t_k_1_1_wrapped_object.html" target="_top" xlink:title="Base class for all the mummy wrapped classes in Kitware.VTK.">
<polygon fill="none" stroke="black" points="175.5,-233 175.5,-253 264.5,-253 264.5,-233 175.5,-233"/>
<text text-anchor="middle" x="220" y="-240" font-family="FreeSans" font-size="10.00">WrappedObject</text>
</a>
</g>
<!-- Node4&#45;&gt;Node3 -->
<g id="edge6" class="edge"><title>Node4&#45;&gt;Node3</title>
<path fill="none" stroke="midnightblue" d="M220,-222.89C220,-213.62 220,-203.008 220,-195.378"/>
<polygon fill="midnightblue" stroke="midnightblue" points="216.5,-222.897 220,-232.897 223.5,-222.897 216.5,-222.897"/>
</g>
</g>
</svg>
