<?xml version="1.0" encoding="UTF-8" standalone="no"?>
<!DOCTYPE svg PUBLIC "-//W3C//DTD SVG 1.1//EN"
 "http://www.w3.org/Graphics/SVG/1.1/DTD/svg11.dtd">
<!-- Generated by graphviz version 2.26.3 (20100126.1600)
 -->
<!-- Title: G Pages: 1 -->
<svg width="400pt" height="770pt"
 viewBox="0.00 0.00 400.46 770.00" xmlns="http://www.w3.org/2000/svg" xmlns:xlink="http://www.w3.org/1999/xlink">
<g id="graph1" class="graph" transform="scale(1 1) rotate(0) translate(4 766)">
<title>G</title>
<!-- Node1 -->
<g id="node1" class="node"><title>Node1</title>
<polygon fill="#bfbfbf" stroke="black" points="0,-1 0,-21 128,-21 128,-1 0,-1"/>
<text text-anchor="middle" x="64" y="-8" font-family="FreeSans" font-size="10.00">Kitware.VTK.vtkFollower</text>
</g>
<!-- Node2 -->
<g id="node2" class="node"><title>Node2</title>
<a xlink:href="class_kitware_1_1_v_t_k_1_1vtk_actor.html" target="_top" xlink:title="vtkActor &#45; represents an object (geometry &amp; properties) in a rendered scene">
<polygon fill="none" stroke="black" points="36,-61 36,-81 92,-81 92,-61 36,-61"/>
<text text-anchor="middle" x="64" y="-68" font-family="FreeSans" font-size="10.00">vtkActor</text>
</a>
</g>
<!-- Node2&#45;&gt;Node1 -->
<g id="edge2" class="edge"><title>Node2&#45;&gt;Node1</title>
<path fill="none" stroke="midnightblue" d="M64,-50.5155C64,-40.562 64,-29.0495 64,-21.0279"/>
<polygon fill="midnightblue" stroke="midnightblue" points="60.5001,-50.8218 64,-60.8218 67.5001,-50.8219 60.5001,-50.8218"/>
</g>
<!-- Node3 -->
<g id="node4" class="node"><title>Node3</title>
<a xlink:href="class_kitware_1_1_v_t_k_1_1vtk_prop3_d.html" target="_top" xlink:title="vtkProp3D &#45; represents an 3D object for placement in a rendered scene">
<polygon fill="none" stroke="black" points="31,-121 31,-141 97,-141 97,-121 31,-121"/>
<text text-anchor="middle" x="64" y="-128" font-family="FreeSans" font-size="10.00">vtkProp3D</text>
</a>
</g>
<!-- Node3&#45;&gt;Node2 -->
<g id="edge4" class="edge"><title>Node3&#45;&gt;Node2</title>
<path fill="none" stroke="midnightblue" d="M64,-110.516C64,-100.562 64,-89.0495 64,-81.0279"/>
<polygon fill="midnightblue" stroke="midnightblue" points="60.5001,-110.822 64,-120.822 67.5001,-110.822 60.5001,-110.822"/>
</g>
<!-- Node4 -->
<g id="node6" class="node"><title>Node4</title>
<a xlink:href="class_kitware_1_1_v_t_k_1_1vtk_prop.html" target="_top" xlink:title="vtkProp &#45; abstract superclass for all actors, volumes and annotations">
<polygon fill="none" stroke="black" points="37.5,-181 37.5,-201 90.5,-201 90.5,-181 37.5,-181"/>
<text text-anchor="middle" x="64" y="-188" font-family="FreeSans" font-size="10.00">vtkProp</text>
</a>
</g>
<!-- Node4&#45;&gt;Node3 -->
<g id="edge6" class="edge"><title>Node4&#45;&gt;Node3</title>
<path fill="none" stroke="midnightblue" d="M64,-170.516C64,-160.562 64,-149.05 64,-141.028"/>
<polygon fill="midnightblue" stroke="midnightblue" points="60.5001,-170.822 64,-180.822 67.5001,-170.822 60.5001,-170.822"/>
</g>
<!-- Node5 -->
<g id="node8" class="node"><title>Node5</title>
<a xlink:href="class_kitware_1_1_v_t_k_1_1vtk_object.html" target="_top" xlink:title="vtkObject &#45; abstract base class for most VTK objects">
<polygon fill="none" stroke="black" points="33,-241 33,-261 95,-261 95,-241 33,-241"/>
<text text-anchor="middle" x="64" y="-248" font-family="FreeSans" font-size="10.00">vtkObject</text>
</a>
</g>
<!-- Node5&#45;&gt;Node4 -->
<g id="edge8" class="edge"><title>Node5&#45;&gt;Node4</title>
<path fill="none" stroke="midnightblue" d="M64,-230.516C64,-220.562 64,-209.05 64,-201.028"/>
<polygon fill="midnightblue" stroke="midnightblue" points="60.5001,-230.822 64,-240.822 67.5001,-230.822 60.5001,-230.822"/>
</g>
<!-- Node6 -->
<g id="node10" class="node"><title>Node6</title>
<a xlink:href="class_kitware_1_1_v_t_k_1_1vtk_object_base.html" target="_top" xlink:title="vtkObjectBase &#45; abstract base class for most VTK objects">
<polygon fill="none" stroke="black" points="84,-681 84,-701 170,-701 170,-681 84,-681"/>
<text text-anchor="middle" x="127" y="-688" font-family="FreeSans" font-size="10.00">vtkObjectBase</text>
</a>
</g>
<!-- Node6&#45;&gt;Node5 -->
<g id="edge10" class="edge"><title>Node6&#45;&gt;Node5</title>
<path fill="none" stroke="midnightblue" d="M98.4228,-675.886C84.6866,-667.44 68.8844,-655.826 58,-642 46.1564,-626.955 45.6209,-620.802 42,-602 16.4248,-469.199 51.5766,-303.437 61.5155,-261.17"/>
<polygon fill="midnightblue" stroke="midnightblue" points="96.6834,-678.923 107.079,-680.97 100.229,-672.887 96.6834,-678.923"/>
</g>
<!-- Node9 -->
<g id="node17" class="node"><title>Node9</title>
<a xlink:href="class_kitware_1_1_v_t_k_1_1vtk_object.html" target="_top" xlink:title="vtkObject &#45; abstract base class for most VTK objects">
<polygon fill="none" stroke="black" points="67,-621 67,-641 187,-641 187,-621 67,-621"/>
<text text-anchor="middle" x="127" y="-628" font-family="FreeSans" font-size="10.00">Kitware.VTK.vtkObject</text>
</a>
</g>
<!-- Node6&#45;&gt;Node9 -->
<g id="edge20" class="edge"><title>Node6&#45;&gt;Node9</title>
<path fill="none" stroke="midnightblue" d="M127,-670.516C127,-660.562 127,-649.05 127,-641.028"/>
<polygon fill="midnightblue" stroke="midnightblue" points="123.5,-670.822 127,-680.822 130.5,-670.822 123.5,-670.822"/>
</g>
<!-- Node7 -->
<g id="node12" class="node"><title>Node7</title>
<a xlink:href="class_kitware_1_1_v_t_k_1_1_wrapped_object.html" target="_top" xlink:title="Base class for all the mummy wrapped classes in Kitware.VTK.">
<polygon fill="none" stroke="black" points="265.5,-741 265.5,-761 354.5,-761 354.5,-741 265.5,-741"/>
<text text-anchor="middle" x="310" y="-748" font-family="FreeSans" font-size="10.00">WrappedObject</text>
</a>
</g>
<!-- Node7&#45;&gt;Node6 -->
<g id="edge12" class="edge"><title>Node7&#45;&gt;Node6</title>
<path fill="none" stroke="midnightblue" d="M269.804,-737.821C236.042,-726.752 188.512,-711.168 157.73,-701.075"/>
<polygon fill="midnightblue" stroke="midnightblue" points="268.777,-741.168 279.37,-740.957 270.958,-734.516 268.777,-741.168"/>
</g>
<!-- Node8 -->
<g id="node14" class="node"><title>Node8</title>
<a xlink:href="class_kitware_1_1_v_t_k_1_1vtk_object_event_relay.html" target="_top" xlink:title="Implement a relay handler for VTK events. This is a class that receives events directly from the VTK ...">
<polygon fill="none" stroke="black" points="56,-431 56,-451 228,-451 228,-431 56,-431"/>
<text text-anchor="middle" x="142" y="-438" font-family="FreeSans" font-size="10.00">Kitware.VTK.vtkObjectEventRelay</text>
</a>
</g>
<!-- Node7&#45;&gt;Node8 -->
<g id="edge16" class="edge"><title>Node7&#45;&gt;Node8</title>
<path fill="none" stroke="midnightblue" d="M322.888,-732.325C355.276,-682.899 432.803,-547.191 365,-470 355.773,-459.495 287.047,-451.666 228.298,-446.808"/>
<polygon fill="midnightblue" stroke="midnightblue" points="319.891,-730.509 317.239,-740.767 325.709,-734.402 319.891,-730.509"/>
</g>
<!-- Node8&#45;&gt;Node5 -->
<g id="edge14" class="edge"><title>Node8&#45;&gt;Node5</title>
<path fill="none" stroke="#9a32cd" stroke-dasharray="5,2" d="M133.921,-421.321C117.489,-381.293 80.6738,-291.616 68.2144,-261.266"/>
<polygon fill="#9a32cd" stroke="#9a32cd" points="130.771,-422.863 137.806,-430.785 137.246,-420.205 130.771,-422.863"/>
<text text-anchor="middle" x="241.5" y="-403" font-family="FreeSans" font-size="10.00"> LeftButtonReleaseEvtRelay</text>
<text text-anchor="middle" x="241.5" y="-391" font-family="FreeSans" font-size="10.00">KeyPressEvtRelay</text>
<text text-anchor="middle" x="241.5" y="-379" font-family="FreeSans" font-size="10.00">DomainModifiedEvtRelay</text>
<text text-anchor="middle" x="241.5" y="-367" font-family="FreeSans" font-size="10.00">VolumeMapperComputeGradientsStartEvtRelay</text>
<text text-anchor="middle" x="241.5" y="-355" font-family="FreeSans" font-size="10.00">ErrorEvtRelay</text>
<text text-anchor="middle" x="241.5" y="-343" font-family="FreeSans" font-size="10.00">VolumeMapperRenderStartEvtRelay</text>
<text text-anchor="middle" x="241.5" y="-331" font-family="FreeSans" font-size="10.00">StartEvtRelay</text>
<text text-anchor="middle" x="241.5" y="-319" font-family="FreeSans" font-size="10.00">ResetCameraEvtRelay</text>
<text text-anchor="middle" x="241.5" y="-307" font-family="FreeSans" font-size="10.00">EnableEvtRelay</text>
<text text-anchor="middle" x="241.5" y="-295" font-family="FreeSans" font-size="10.00">DeleteEvtRelay</text>
<text text-anchor="middle" x="241.5" y="-283" font-family="FreeSans" font-size="10.00">...</text>
</g>
<!-- Node8&#45;&gt;Node9 -->
<g id="edge22" class="edge"><title>Node8&#45;&gt;Node9</title>
<path fill="none" stroke="#9a32cd" stroke-dasharray="5,2" d="M139.028,-461.231C138.649,-464.169 138.293,-467.159 138,-470 132.144,-526.853 128.636,-595.333 127.452,-620.807"/>
<polygon fill="#9a32cd" stroke="#9a32cd" points="142.515,-461.565 140.421,-451.179 135.582,-460.604 142.515,-461.565"/>
<text text-anchor="middle" x="251.5" y="-593" font-family="FreeSans" font-size="10.00"> LeftButtonReleaseEvtRelay</text>
<text text-anchor="middle" x="251.5" y="-581" font-family="FreeSans" font-size="10.00">KeyPressEvtRelay</text>
<text text-anchor="middle" x="251.5" y="-569" font-family="FreeSans" font-size="10.00">DomainModifiedEvtRelay</text>
<text text-anchor="middle" x="251.5" y="-557" font-family="FreeSans" font-size="10.00">VolumeMapperComputeGradientsStartEvtRelay</text>
<text text-anchor="middle" x="251.5" y="-545" font-family="FreeSans" font-size="10.00">ErrorEvtRelay</text>
<text text-anchor="middle" x="251.5" y="-533" font-family="FreeSans" font-size="10.00">VolumeMapperRenderStartEvtRelay</text>
<text text-anchor="middle" x="251.5" y="-521" font-family="FreeSans" font-size="10.00">StartEvtRelay</text>
<text text-anchor="middle" x="251.5" y="-509" font-family="FreeSans" font-size="10.00">ResetCameraEvtRelay</text>
<text text-anchor="middle" x="251.5" y="-497" font-family="FreeSans" font-size="10.00">EnableEvtRelay</text>
<text text-anchor="middle" x="251.5" y="-485" font-family="FreeSans" font-size="10.00">DeleteEvtRelay</text>
<text text-anchor="middle" x="251.5" y="-473" font-family="FreeSans" font-size="10.00">...</text>
</g>
<!-- Node9&#45;&gt;Node8 -->
<g id="edge18" class="edge"><title>Node9&#45;&gt;Node8</title>
<path fill="none" stroke="#9a32cd" stroke-dasharray="5,2" d="M80.9794,-615.818C75.4393,-612.138 70.5104,-607.596 67,-602 35.8229,-552.303 33.8299,-518.389 67,-470 71.7359,-463.091 88.5114,-456.287 104.999,-451.008"/>
<polygon fill="#9a32cd" stroke="#9a32cd" points="79.6386,-619.079 90.0724,-620.919 83.0636,-612.974 79.6386,-619.079"/>
<text text-anchor="middle" x="91" y="-539" font-family="FreeSans" font-size="10.00"> Sender</text>
<text text-anchor="middle" x="91" y="-527" font-family="FreeSans" font-size="10.00">EventImpl</text>
</g>
</g>
</svg>
