<?xml version="1.0" encoding="UTF-8" standalone="no"?>
<!DOCTYPE svg PUBLIC "-//W3C//DTD SVG 1.1//EN"
 "http://www.w3.org/Graphics/SVG/1.1/DTD/svg11.dtd">
<!-- Generated by graphviz version 2.26.3 (20100126.1600)
 -->
<!-- Title: G Pages: 1 -->
<svg width="391pt" height="590pt"
 viewBox="0.00 0.00 391.46 590.00" xmlns="http://www.w3.org/2000/svg" xmlns:xlink="http://www.w3.org/1999/xlink">
<g id="graph1" class="graph" transform="scale(1 1) rotate(0) translate(4 586)">
<title>G</title>
<!-- Node1 -->
<g id="node1" class="node"><title>Node1</title>
<polygon fill="#bfbfbf" stroke="black" points="-0.5,-1 -0.5,-21 110.5,-21 110.5,-1 -0.5,-1"/>
<text text-anchor="middle" x="55" y="-8" font-family="FreeSans" font-size="10.00">Kitware.VTK.vtkProp</text>
</g>
<!-- Node2 -->
<g id="node2" class="node"><title>Node2</title>
<a xlink:href="class_kitware_1_1_v_t_k_1_1vtk_object.html" target="_top" xlink:title="vtkObject &#45; abstract base class for most VTK objects">
<polygon fill="none" stroke="black" points="24,-61 24,-81 86,-81 86,-61 24,-61"/>
<text text-anchor="middle" x="55" y="-68" font-family="FreeSans" font-size="10.00">vtkObject</text>
</a>
</g>
<!-- Node2&#45;&gt;Node1 -->
<g id="edge2" class="edge"><title>Node2&#45;&gt;Node1</title>
<path fill="none" stroke="midnightblue" d="M55,-50.5155C55,-40.562 55,-29.0495 55,-21.0279"/>
<polygon fill="midnightblue" stroke="midnightblue" points="51.5001,-50.8218 55,-60.8218 58.5001,-50.8219 51.5001,-50.8218"/>
</g>
<!-- Node3 -->
<g id="node4" class="node"><title>Node3</title>
<a xlink:href="class_kitware_1_1_v_t_k_1_1vtk_object_base.html" target="_top" xlink:title="vtkObjectBase &#45; abstract base class for most VTK objects">
<polygon fill="none" stroke="black" points="75,-501 75,-521 161,-521 161,-501 75,-501"/>
<text text-anchor="middle" x="118" y="-508" font-family="FreeSans" font-size="10.00">vtkObjectBase</text>
</a>
</g>
<!-- Node3&#45;&gt;Node2 -->
<g id="edge4" class="edge"><title>Node3&#45;&gt;Node2</title>
<path fill="none" stroke="midnightblue" d="M89.4228,-495.886C75.6866,-487.44 59.8844,-475.826 49,-462 37.1564,-446.955 36.6209,-440.802 33,-422 7.42483,-289.199 42.5766,-123.437 52.5155,-81.1704"/>
<polygon fill="midnightblue" stroke="midnightblue" points="87.6834,-498.923 98.0788,-500.97 91.2285,-492.887 87.6834,-498.923"/>
</g>
<!-- Node6 -->
<g id="node11" class="node"><title>Node6</title>
<a xlink:href="class_kitware_1_1_v_t_k_1_1vtk_object.html" target="_top" xlink:title="vtkObject &#45; abstract base class for most VTK objects">
<polygon fill="none" stroke="black" points="58,-441 58,-461 178,-461 178,-441 58,-441"/>
<text text-anchor="middle" x="118" y="-448" font-family="FreeSans" font-size="10.00">Kitware.VTK.vtkObject</text>
</a>
</g>
<!-- Node3&#45;&gt;Node6 -->
<g id="edge14" class="edge"><title>Node3&#45;&gt;Node6</title>
<path fill="none" stroke="midnightblue" d="M118,-490.516C118,-480.562 118,-469.05 118,-461.028"/>
<polygon fill="midnightblue" stroke="midnightblue" points="114.5,-490.822 118,-500.822 121.5,-490.822 114.5,-490.822"/>
</g>
<!-- Node4 -->
<g id="node6" class="node"><title>Node4</title>
<a xlink:href="class_kitware_1_1_v_t_k_1_1_wrapped_object.html" target="_top" xlink:title="Base class for all the mummy wrapped classes in Kitware.VTK.">
<polygon fill="none" stroke="black" points="256.5,-561 256.5,-581 345.5,-581 345.5,-561 256.5,-561"/>
<text text-anchor="middle" x="301" y="-568" font-family="FreeSans" font-size="10.00">WrappedObject</text>
</a>
</g>
<!-- Node4&#45;&gt;Node3 -->
<g id="edge6" class="edge"><title>Node4&#45;&gt;Node3</title>
<path fill="none" stroke="midnightblue" d="M260.804,-557.821C227.042,-546.752 179.512,-531.168 148.73,-521.075"/>
<polygon fill="midnightblue" stroke="midnightblue" points="259.777,-561.168 270.37,-560.957 261.958,-554.516 259.777,-561.168"/>
</g>
<!-- Node5 -->
<g id="node8" class="node"><title>Node5</title>
<a xlink:href="class_kitware_1_1_v_t_k_1_1vtk_object_event_relay.html" target="_top" xlink:title="Implement a relay handler for VTK events. This is a class that receives events directly from the VTK ...">
<polygon fill="none" stroke="black" points="47,-251 47,-271 219,-271 219,-251 47,-251"/>
<text text-anchor="middle" x="133" y="-258" font-family="FreeSans" font-size="10.00">Kitware.VTK.vtkObjectEventRelay</text>
</a>
</g>
<!-- Node4&#45;&gt;Node5 -->
<g id="edge10" class="edge"><title>Node4&#45;&gt;Node5</title>
<path fill="none" stroke="midnightblue" d="M313.888,-552.325C346.276,-502.899 423.803,-367.191 356,-290 346.773,-279.495 278.047,-271.666 219.298,-266.808"/>
<polygon fill="midnightblue" stroke="midnightblue" points="310.891,-550.509 308.239,-560.767 316.709,-554.402 310.891,-550.509"/>
</g>
<!-- Node5&#45;&gt;Node2 -->
<g id="edge8" class="edge"><title>Node5&#45;&gt;Node2</title>
<path fill="none" stroke="#9a32cd" stroke-dasharray="5,2" d="M124.921,-241.321C108.489,-201.293 71.6738,-111.616 59.2144,-81.2657"/>
<polygon fill="#9a32cd" stroke="#9a32cd" points="121.771,-242.863 128.806,-250.785 128.246,-240.205 121.771,-242.863"/>
<text text-anchor="middle" x="232.5" y="-223" font-family="FreeSans" font-size="10.00"> LeftButtonReleaseEvtRelay</text>
<text text-anchor="middle" x="232.5" y="-211" font-family="FreeSans" font-size="10.00">KeyPressEvtRelay</text>
<text text-anchor="middle" x="232.5" y="-199" font-family="FreeSans" font-size="10.00">DomainModifiedEvtRelay</text>
<text text-anchor="middle" x="232.5" y="-187" font-family="FreeSans" font-size="10.00">VolumeMapperComputeGradientsStartEvtRelay</text>
<text text-anchor="middle" x="232.5" y="-175" font-family="FreeSans" font-size="10.00">ErrorEvtRelay</text>
<text text-anchor="middle" x="232.5" y="-163" font-family="FreeSans" font-size="10.00">VolumeMapperRenderStartEvtRelay</text>
<text text-anchor="middle" x="232.5" y="-151" font-family="FreeSans" font-size="10.00">StartEvtRelay</text>
<text text-anchor="middle" x="232.5" y="-139" font-family="FreeSans" font-size="10.00">ResetCameraEvtRelay</text>
<text text-anchor="middle" x="232.5" y="-127" font-family="FreeSans" font-size="10.00">EnableEvtRelay</text>
<text text-anchor="middle" x="232.5" y="-115" font-family="FreeSans" font-size="10.00">DeleteEvtRelay</text>
<text text-anchor="middle" x="232.5" y="-103" font-family="FreeSans" font-size="10.00">...</text>
</g>
<!-- Node5&#45;&gt;Node6 -->
<g id="edge16" class="edge"><title>Node5&#45;&gt;Node6</title>
<path fill="none" stroke="#9a32cd" stroke-dasharray="5,2" d="M130.028,-281.231C129.649,-284.169 129.293,-287.159 129,-290 123.144,-346.853 119.636,-415.333 118.452,-440.807"/>
<polygon fill="#9a32cd" stroke="#9a32cd" points="133.515,-281.565 131.421,-271.179 126.582,-280.604 133.515,-281.565"/>
<text text-anchor="middle" x="242.5" y="-413" font-family="FreeSans" font-size="10.00"> LeftButtonReleaseEvtRelay</text>
<text text-anchor="middle" x="242.5" y="-401" font-family="FreeSans" font-size="10.00">KeyPressEvtRelay</text>
<text text-anchor="middle" x="242.5" y="-389" font-family="FreeSans" font-size="10.00">DomainModifiedEvtRelay</text>
<text text-anchor="middle" x="242.5" y="-377" font-family="FreeSans" font-size="10.00">VolumeMapperComputeGradientsStartEvtRelay</text>
<text text-anchor="middle" x="242.5" y="-365" font-family="FreeSans" font-size="10.00">ErrorEvtRelay</text>
<text text-anchor="middle" x="242.5" y="-353" font-family="FreeSans" font-size="10.00">VolumeMapperRenderStartEvtRelay</text>
<text text-anchor="middle" x="242.5" y="-341" font-family="FreeSans" font-size="10.00">StartEvtRelay</text>
<text text-anchor="middle" x="242.5" y="-329" font-family="FreeSans" font-size="10.00">ResetCameraEvtRelay</text>
<text text-anchor="middle" x="242.5" y="-317" font-family="FreeSans" font-size="10.00">EnableEvtRelay</text>
<text text-anchor="middle" x="242.5" y="-305" font-family="FreeSans" font-size="10.00">DeleteEvtRelay</text>
<text text-anchor="middle" x="242.5" y="-293" font-family="FreeSans" font-size="10.00">...</text>
</g>
<!-- Node6&#45;&gt;Node5 -->
<g id="edge12" class="edge"><title>Node6&#45;&gt;Node5</title>
<path fill="none" stroke="#9a32cd" stroke-dasharray="5,2" d="M71.9794,-435.818C66.4393,-432.138 61.5104,-427.596 58,-422 26.8229,-372.303 24.8299,-338.389 58,-290 62.7359,-283.091 79.5114,-276.287 95.9987,-271.008"/>
<polygon fill="#9a32cd" stroke="#9a32cd" points="70.6386,-439.079 81.0724,-440.919 74.0636,-432.974 70.6386,-439.079"/>
<text text-anchor="middle" x="82" y="-359" font-family="FreeSans" font-size="10.00"> Sender</text>
<text text-anchor="middle" x="82" y="-347" font-family="FreeSans" font-size="10.00">EventImpl</text>
</g>
</g>
</svg>
