<?xml version="1.0" encoding="UTF-8" standalone="no"?>
<!DOCTYPE svg PUBLIC "-//W3C//DTD SVG 1.1//EN"
 "http://www.w3.org/Graphics/SVG/1.1/DTD/svg11.dtd">
<!-- Generated by graphviz version 2.26.3 (20100126.1600)
 -->
<!-- Title: G Pages: 1 -->
<svg width="1208pt" height="218pt"
 viewBox="0.00 0.00 1208.00 218.00" xmlns="http://www.w3.org/2000/svg" xmlns:xlink="http://www.w3.org/1999/xlink">
<g id="graph1" class="graph" transform="scale(1 1) rotate(0) translate(4 214)">
<title>G</title>
<!-- Node1 -->
<g id="node1" class="node"><title>Node1</title>
<polygon fill="#bfbfbf" stroke="black" points="582,-114 582,-134 726,-134 726,-114 582,-114"/>
<text text-anchor="middle" x="654" y="-121" font-family="FreeSans" font-size="10.00">Kitware.VTK.vtkRenderView</text>
</g>
<!-- Node7 -->
<g id="node13" class="node"><title>Node7</title>
<a xlink:href="class_kitware_1_1_v_t_k_1_1vtk_geo_view.html" target="_top" xlink:title="vtkGeoView &#45; A 3D geospatial view.">
<polygon fill="none" stroke="black" points="798.5,-190 798.5,-210 929.5,-210 929.5,-190 798.5,-190"/>
<text text-anchor="middle" x="864" y="-197" font-family="FreeSans" font-size="10.00">Kitware.VTK.vtkGeoView</text>
</a>
</g>
<!-- Node1&#45;&gt;Node7 -->
<g id="edge12" class="edge"><title>Node1&#45;&gt;Node7</title>
<path fill="none" stroke="midnightblue" d="M678.102,-139.444C699.38,-152.402 731.651,-170.438 762,-181 773.568,-185.026 786.188,-188.253 798.484,-190.823"/>
<polygon fill="midnightblue" stroke="midnightblue" points="679.764,-136.357 669.42,-134.066 676.078,-142.308 679.764,-136.357"/>
</g>
<!-- Node8 -->
<g id="node15" class="node"><title>Node8</title>
<a xlink:href="class_kitware_1_1_v_t_k_1_1vtk_geo_view2_d.html" target="_top" xlink:title="vtkGeoView2D &#45; A 2D geospatial view.">
<polygon fill="none" stroke="black" points="792,-152 792,-172 936,-172 936,-152 792,-152"/>
<text text-anchor="middle" x="864" y="-159" font-family="FreeSans" font-size="10.00">Kitware.VTK.vtkGeoView2D</text>
</a>
</g>
<!-- Node1&#45;&gt;Node8 -->
<g id="edge14" class="edge"><title>Node1&#45;&gt;Node8</title>
<path fill="none" stroke="midnightblue" d="M719.365,-135.828C747.989,-141.008 781.219,-147.021 808.604,-151.976"/>
<polygon fill="midnightblue" stroke="midnightblue" points="719.913,-132.37 709.45,-134.034 718.667,-139.259 719.913,-132.37"/>
</g>
<!-- Node9 -->
<g id="node17" class="node"><title>Node9</title>
<a xlink:href="class_kitware_1_1_v_t_k_1_1vtk_graph_layout_view.html" target="_top" xlink:title="vtkGraphLayoutView &#45; Lays out and displays a graph">
<polygon fill="none" stroke="black" points="777.5,-114 777.5,-134 950.5,-134 950.5,-114 777.5,-114"/>
<text text-anchor="middle" x="864" y="-121" font-family="FreeSans" font-size="10.00">Kitware.VTK.vtkGraphLayoutView</text>
</a>
</g>
<!-- Node1&#45;&gt;Node9 -->
<g id="edge16" class="edge"><title>Node1&#45;&gt;Node9</title>
<path fill="none" stroke="midnightblue" d="M736.452,-124C749.92,-124 763.907,-124 777.47,-124"/>
<polygon fill="midnightblue" stroke="midnightblue" points="736.27,-120.5 726.27,-124 736.27,-127.5 736.27,-120.5"/>
</g>
<!-- Node11 -->
<g id="node21" class="node"><title>Node11</title>
<a xlink:href="class_kitware_1_1_v_t_k_1_1vtk_parallel_coordinates_view.html" target="_top" xlink:title="vtkParallelCoordinatesView &#45; view to be used with vtkParallelCoordinatesRepresentation">
<polygon fill="none" stroke="black" points="762.5,-76 762.5,-96 965.5,-96 965.5,-76 762.5,-76"/>
<text text-anchor="middle" x="864" y="-83" font-family="FreeSans" font-size="10.00">Kitware.VTK.vtkParallelCoordinatesView</text>
</a>
</g>
<!-- Node1&#45;&gt;Node11 -->
<g id="edge20" class="edge"><title>Node1&#45;&gt;Node11</title>
<path fill="none" stroke="midnightblue" d="M719.365,-112.172C747.989,-106.992 781.219,-100.979 808.604,-96.024"/>
<polygon fill="midnightblue" stroke="midnightblue" points="718.667,-108.741 709.45,-113.966 719.913,-115.63 718.667,-108.741"/>
</g>
<!-- Node12 -->
<g id="node23" class="node"><title>Node12</title>
<a xlink:href="class_kitware_1_1_v_t_k_1_1vtk_tree_area_view.html" target="_top" xlink:title="vtkTreeAreaView &#45; Accepts a graph and a hierarchy &#45; currently a tree &#45; and provides a hierarchy&#45;aware...">
<polygon fill="none" stroke="black" points="787.5,-38 787.5,-58 940.5,-58 940.5,-38 787.5,-38"/>
<text text-anchor="middle" x="864" y="-45" font-family="FreeSans" font-size="10.00">Kitware.VTK.vtkTreeAreaView</text>
</a>
</g>
<!-- Node1&#45;&gt;Node12 -->
<g id="edge22" class="edge"><title>Node1&#45;&gt;Node12</title>
<path fill="none" stroke="midnightblue" d="M678.102,-108.556C699.38,-95.5981 731.651,-77.5616 762,-67 772.292,-63.4182 783.417,-60.4682 794.405,-58.0515"/>
<polygon fill="midnightblue" stroke="midnightblue" points="676.078,-105.692 669.42,-113.934 679.764,-111.643 676.078,-105.692"/>
</g>
<!-- Node2 -->
<g id="node2" class="node"><title>Node2</title>
<a xlink:href="class_kitware_1_1_v_t_k_1_1vtk_render_view_base.html" target="_top" xlink:title="vtkRenderViewBase &#45; A base view containing a renderer.">
<polygon fill="none" stroke="black" points="436,-114 436,-134 546,-134 546,-114 436,-114"/>
<text text-anchor="middle" x="491" y="-121" font-family="FreeSans" font-size="10.00">vtkRenderViewBase</text>
</a>
</g>
<!-- Node2&#45;&gt;Node1 -->
<g id="edge2" class="edge"><title>Node2&#45;&gt;Node1</title>
<path fill="none" stroke="midnightblue" d="M556.285,-124C564.684,-124 573.322,-124 581.824,-124"/>
<polygon fill="midnightblue" stroke="midnightblue" points="556.184,-120.5 546.184,-124 556.184,-127.5 556.184,-120.5"/>
</g>
<!-- Node3 -->
<g id="node4" class="node"><title>Node3</title>
<a xlink:href="class_kitware_1_1_v_t_k_1_1vtk_view.html" target="_top" xlink:title="vtkView &#45; The superclass for all views.">
<polygon fill="none" stroke="black" points="346.5,-114 346.5,-134 399.5,-134 399.5,-114 346.5,-114"/>
<text text-anchor="middle" x="373" y="-121" font-family="FreeSans" font-size="10.00">vtkView</text>
</a>
</g>
<!-- Node3&#45;&gt;Node2 -->
<g id="edge4" class="edge"><title>Node3&#45;&gt;Node2</title>
<path fill="none" stroke="midnightblue" d="M409.828,-124C418.099,-124 427.05,-124 435.884,-124"/>
<polygon fill="midnightblue" stroke="midnightblue" points="409.776,-120.5 399.776,-124 409.776,-127.5 409.776,-120.5"/>
</g>
<!-- Node4 -->
<g id="node6" class="node"><title>Node4</title>
<a xlink:href="class_kitware_1_1_v_t_k_1_1vtk_object.html" target="_top" xlink:title="vtkObject &#45; abstract base class for most VTK objects">
<polygon fill="none" stroke="black" points="248,-114 248,-134 310,-134 310,-114 248,-114"/>
<text text-anchor="middle" x="279" y="-121" font-family="FreeSans" font-size="10.00">vtkObject</text>
</a>
</g>
<!-- Node4&#45;&gt;Node3 -->
<g id="edge6" class="edge"><title>Node4&#45;&gt;Node3</title>
<path fill="none" stroke="midnightblue" d="M320.248,-124C329.119,-124 338.267,-124 346.403,-124"/>
<polygon fill="midnightblue" stroke="midnightblue" points="320.04,-120.5 310.04,-124 320.04,-127.5 320.04,-120.5"/>
</g>
<!-- Node5 -->
<g id="node8" class="node"><title>Node5</title>
<a xlink:href="class_kitware_1_1_v_t_k_1_1vtk_object_base.html" target="_top" xlink:title="vtkObjectBase &#45; abstract base class for most VTK objects">
<polygon fill="none" stroke="black" points="126,-114 126,-134 212,-134 212,-114 126,-114"/>
<text text-anchor="middle" x="169" y="-121" font-family="FreeSans" font-size="10.00">vtkObjectBase</text>
</a>
</g>
<!-- Node5&#45;&gt;Node4 -->
<g id="edge8" class="edge"><title>Node5&#45;&gt;Node4</title>
<path fill="none" stroke="midnightblue" d="M222.346,-124C231.091,-124 239.892,-124 247.863,-124"/>
<polygon fill="midnightblue" stroke="midnightblue" points="222.159,-120.5 212.159,-124 222.159,-127.5 222.159,-120.5"/>
</g>
<!-- Node6 -->
<g id="node10" class="node"><title>Node6</title>
<a xlink:href="class_kitware_1_1_v_t_k_1_1_wrapped_object.html" target="_top" xlink:title="Base class for all the mummy wrapped classes in Kitware.VTK.">
<polygon fill="none" stroke="black" points="0.5,-114 0.5,-134 89.5,-134 89.5,-114 0.5,-114"/>
<text text-anchor="middle" x="45" y="-121" font-family="FreeSans" font-size="10.00">WrappedObject</text>
</a>
</g>
<!-- Node6&#45;&gt;Node5 -->
<g id="edge10" class="edge"><title>Node6&#45;&gt;Node5</title>
<path fill="none" stroke="midnightblue" d="M99.8895,-124C108.623,-124 117.548,-124 125.957,-124"/>
<polygon fill="midnightblue" stroke="midnightblue" points="99.7669,-120.5 89.7668,-124 99.7668,-127.5 99.7669,-120.5"/>
</g>
<!-- Node10 -->
<g id="node19" class="node"><title>Node10</title>
<a xlink:href="class_kitware_1_1_v_t_k_1_1vtk_hierarchical_graph_view.html" target="_top" xlink:title="vtkHierarchicalGraphView &#45; Accepts a graph and a hierarchy &#45; currently a tree &#45; and provides a hierar...">
<polygon fill="none" stroke="black" points="1002.5,-114 1002.5,-134 1199.5,-134 1199.5,-114 1002.5,-114"/>
<text text-anchor="middle" x="1101" y="-121" font-family="FreeSans" font-size="10.00">Kitware.VTK.vtkHierarchicalGraphView</text>
</a>
</g>
<!-- Node9&#45;&gt;Node10 -->
<g id="edge18" class="edge"><title>Node9&#45;&gt;Node10</title>
<path fill="none" stroke="midnightblue" d="M960.904,-124C974.536,-124 988.563,-124 1002.23,-124"/>
<polygon fill="midnightblue" stroke="midnightblue" points="960.568,-120.5 950.568,-124 960.568,-127.5 960.568,-120.5"/>
</g>
<!-- Node13 -->
<g id="node25" class="node"><title>Node13</title>
<a xlink:href="class_kitware_1_1_v_t_k_1_1vtk_icicle_view.html" target="_top" xlink:title="vtkIcicleView &#45; Displays a tree in a stacked &quot;icicle&quot; view">
<polygon fill="none" stroke="black" points="1034,-76 1034,-96 1168,-96 1168,-76 1034,-76"/>
<text text-anchor="middle" x="1101" y="-83" font-family="FreeSans" font-size="10.00">Kitware.VTK.vtkIcicleView</text>
</a>
</g>
<!-- Node12&#45;&gt;Node13 -->
<g id="edge24" class="edge"><title>Node12&#45;&gt;Node13</title>
<path fill="none" stroke="midnightblue" d="M936.502,-59.6249C969.09,-64.8498 1007.17,-70.9557 1038.48,-75.976"/>
<polygon fill="midnightblue" stroke="midnightblue" points="937.007,-56.1611 926.579,-58.0338 935.899,-63.0729 937.007,-56.1611"/>
</g>
<!-- Node14 -->
<g id="node27" class="node"><title>Node14</title>
<a xlink:href="class_kitware_1_1_v_t_k_1_1vtk_tree_map_view.html" target="_top" xlink:title="vtkTreeMapView &#45; Displays a tree as a tree map.">
<polygon fill="none" stroke="black" points="1025.5,-38 1025.5,-58 1176.5,-58 1176.5,-38 1025.5,-38"/>
<text text-anchor="middle" x="1101" y="-45" font-family="FreeSans" font-size="10.00">Kitware.VTK.vtkTreeMapView</text>
</a>
</g>
<!-- Node12&#45;&gt;Node14 -->
<g id="edge26" class="edge"><title>Node12&#45;&gt;Node14</title>
<path fill="none" stroke="midnightblue" d="M950.631,-48C975.153,-48 1001.64,-48 1025.45,-48"/>
<polygon fill="midnightblue" stroke="midnightblue" points="950.62,-44.5001 940.62,-48 950.62,-51.5001 950.62,-44.5001"/>
</g>
<!-- Node15 -->
<g id="node29" class="node"><title>Node15</title>
<a xlink:href="class_kitware_1_1_v_t_k_1_1vtk_tree_ring_view.html" target="_top" xlink:title="vtkTreeRingView &#45; Displays a tree in concentric rings.">
<polygon fill="none" stroke="black" points="1025.5,-0 1025.5,-20 1176.5,-20 1176.5,-0 1025.5,-0"/>
<text text-anchor="middle" x="1101" y="-7" font-family="FreeSans" font-size="10.00">Kitware.VTK.vtkTreeRingView</text>
</a>
</g>
<!-- Node12&#45;&gt;Node15 -->
<g id="edge28" class="edge"><title>Node12&#45;&gt;Node15</title>
<path fill="none" stroke="midnightblue" d="M936.502,-36.3751C969.09,-31.1502 1007.17,-25.0443 1038.48,-20.024"/>
<polygon fill="midnightblue" stroke="midnightblue" points="935.899,-32.9271 926.579,-37.9662 937.007,-39.8389 935.899,-32.9271"/>
</g>
</g>
</svg>
