<?xml version="1.0" encoding="UTF-8" standalone="no"?>
<!DOCTYPE svg PUBLIC "-//W3C//DTD SVG 1.1//EN"
 "http://www.w3.org/Graphics/SVG/1.1/DTD/svg11.dtd">
<!-- Generated by graphviz version 2.26.3 (20100126.1600)
 -->
<!-- Title: G Pages: 1 -->
<svg width="1470pt" height="104pt"
 viewBox="0.00 0.00 1470.00 104.00" xmlns="http://www.w3.org/2000/svg" xmlns:xlink="http://www.w3.org/1999/xlink">
<g id="graph1" class="graph" transform="scale(1 1) rotate(0) translate(4 100)">
<title>G</title>
<!-- Node1 -->
<g id="node1" class="node"><title>Node1</title>
<polygon fill="#bfbfbf" stroke="black" points="636,-38 636,-58 884,-58 884,-38 636,-38"/>
<text text-anchor="middle" x="760" y="-45" font-family="FreeSans" font-size="10.00">Kitware.VTK.vtkStreamingDemandDrivenPipeline</text>
</g>
<!-- Node7 -->
<g id="node13" class="node"><title>Node7</title>
<a xlink:href="class_kitware_1_1_v_t_k_1_1vtk_cached_streaming_demand_driven_pipeline.html" target="_top" xlink:title="vtkCachedStreamingDemandDrivenPipeline &#45;">
<polygon fill="none" stroke="black" points="920,-76 920,-96 1204,-96 1204,-76 920,-76"/>
<text text-anchor="middle" x="1062" y="-83" font-family="FreeSans" font-size="10.00">Kitware.VTK.vtkCachedStreamingDemandDrivenPipeline</text>
</a>
</g>
<!-- Node1&#45;&gt;Node7 -->
<g id="edge12" class="edge"><title>Node1&#45;&gt;Node7</title>
<path fill="none" stroke="midnightblue" d="M849.712,-59.2883C891.816,-64.5862 941.577,-70.8475 982.335,-75.976"/>
<polygon fill="midnightblue" stroke="midnightblue" points="850.101,-55.8097 839.742,-58.0338 849.227,-62.7549 850.101,-55.8097"/>
</g>
<!-- Node8 -->
<g id="node15" class="node"><title>Node8</title>
<a xlink:href="class_kitware_1_1_v_t_k_1_1vtk_composite_data_pipeline.html" target="_top" xlink:title="vtkCompositeDataPipeline &#45; Executive supporting composite datasets.">
<polygon fill="none" stroke="black" points="961.5,-38 961.5,-58 1162.5,-58 1162.5,-38 961.5,-38"/>
<text text-anchor="middle" x="1062" y="-45" font-family="FreeSans" font-size="10.00">Kitware.VTK.vtkCompositeDataPipeline</text>
</a>
</g>
<!-- Node1&#45;&gt;Node8 -->
<g id="edge14" class="edge"><title>Node1&#45;&gt;Node8</title>
<path fill="none" stroke="midnightblue" d="M894.433,-48C916.924,-48 939.91,-48 961.365,-48"/>
<polygon fill="midnightblue" stroke="midnightblue" points="894.142,-44.5001 884.142,-48 894.142,-51.5001 894.142,-44.5001"/>
</g>
<!-- Node10 -->
<g id="node19" class="node"><title>Node10</title>
<a xlink:href="class_kitware_1_1_v_t_k_1_1vtk_image_import_executive.html" target="_top" xlink:title="vtkImageImportExecutive &#45;">
<polygon fill="none" stroke="black" points="963.5,-0 963.5,-20 1160.5,-20 1160.5,-0 963.5,-0"/>
<text text-anchor="middle" x="1062" y="-7" font-family="FreeSans" font-size="10.00">Kitware.VTK.vtkImageImportExecutive</text>
</a>
</g>
<!-- Node1&#45;&gt;Node10 -->
<g id="edge18" class="edge"><title>Node1&#45;&gt;Node10</title>
<path fill="none" stroke="midnightblue" d="M849.712,-36.7117C891.816,-31.4138 941.577,-25.1525 982.335,-20.024"/>
<polygon fill="midnightblue" stroke="midnightblue" points="849.227,-33.2451 839.742,-37.9662 850.101,-40.1903 849.227,-33.2451"/>
</g>
<!-- Node2 -->
<g id="node2" class="node"><title>Node2</title>
<a xlink:href="class_kitware_1_1_v_t_k_1_1vtk_demand_driven_pipeline.html" target="_top" xlink:title="vtkDemandDrivenPipeline &#45; Executive supporting on&#45;demand execution.">
<polygon fill="none" stroke="black" points="460,-38 460,-58 600,-58 600,-38 460,-38"/>
<text text-anchor="middle" x="530" y="-45" font-family="FreeSans" font-size="10.00">vtkDemandDrivenPipeline</text>
</a>
</g>
<!-- Node2&#45;&gt;Node1 -->
<g id="edge2" class="edge"><title>Node2&#45;&gt;Node1</title>
<path fill="none" stroke="midnightblue" d="M610.269,-48C618.597,-48 627.193,-48 635.859,-48"/>
<polygon fill="midnightblue" stroke="midnightblue" points="610.257,-44.5001 600.257,-48 610.257,-51.5001 610.257,-44.5001"/>
</g>
<!-- Node3 -->
<g id="node4" class="node"><title>Node3</title>
<a xlink:href="class_kitware_1_1_v_t_k_1_1vtk_executive.html" target="_top" xlink:title="vtkExecutive &#45; Superclass for all pipeline executives in VTK.">
<polygon fill="none" stroke="black" points="346.5,-38 346.5,-58 423.5,-58 423.5,-38 346.5,-38"/>
<text text-anchor="middle" x="385" y="-45" font-family="FreeSans" font-size="10.00">vtkExecutive</text>
</a>
</g>
<!-- Node3&#45;&gt;Node2 -->
<g id="edge4" class="edge"><title>Node3&#45;&gt;Node2</title>
<path fill="none" stroke="midnightblue" d="M434.117,-48C442.441,-48 451.227,-48 459.964,-48"/>
<polygon fill="midnightblue" stroke="midnightblue" points="433.857,-44.5001 423.857,-48 433.857,-51.5001 433.857,-44.5001"/>
</g>
<!-- Node4 -->
<g id="node6" class="node"><title>Node4</title>
<a xlink:href="class_kitware_1_1_v_t_k_1_1vtk_object.html" target="_top" xlink:title="vtkObject &#45; abstract base class for most VTK objects">
<polygon fill="none" stroke="black" points="248,-38 248,-58 310,-58 310,-38 248,-38"/>
<text text-anchor="middle" x="279" y="-45" font-family="FreeSans" font-size="10.00">vtkObject</text>
</a>
</g>
<!-- Node4&#45;&gt;Node3 -->
<g id="edge6" class="edge"><title>Node4&#45;&gt;Node3</title>
<path fill="none" stroke="midnightblue" d="M320.421,-48C329.001,-48 338.007,-48 346.479,-48"/>
<polygon fill="midnightblue" stroke="midnightblue" points="320.23,-44.5001 310.23,-48 320.23,-51.5001 320.23,-44.5001"/>
</g>
<!-- Node5 -->
<g id="node8" class="node"><title>Node5</title>
<a xlink:href="class_kitware_1_1_v_t_k_1_1vtk_object_base.html" target="_top" xlink:title="vtkObjectBase &#45; abstract base class for most VTK objects">
<polygon fill="none" stroke="black" points="126,-38 126,-58 212,-58 212,-38 126,-38"/>
<text text-anchor="middle" x="169" y="-45" font-family="FreeSans" font-size="10.00">vtkObjectBase</text>
</a>
</g>
<!-- Node5&#45;&gt;Node4 -->
<g id="edge8" class="edge"><title>Node5&#45;&gt;Node4</title>
<path fill="none" stroke="midnightblue" d="M222.346,-48C231.091,-48 239.892,-48 247.863,-48"/>
<polygon fill="midnightblue" stroke="midnightblue" points="222.159,-44.5001 212.159,-48 222.159,-51.5001 222.159,-44.5001"/>
</g>
<!-- Node6 -->
<g id="node10" class="node"><title>Node6</title>
<a xlink:href="class_kitware_1_1_v_t_k_1_1_wrapped_object.html" target="_top" xlink:title="Base class for all the mummy wrapped classes in Kitware.VTK.">
<polygon fill="none" stroke="black" points="0.5,-38 0.5,-58 89.5,-58 89.5,-38 0.5,-38"/>
<text text-anchor="middle" x="45" y="-45" font-family="FreeSans" font-size="10.00">WrappedObject</text>
</a>
</g>
<!-- Node6&#45;&gt;Node5 -->
<g id="edge10" class="edge"><title>Node6&#45;&gt;Node5</title>
<path fill="none" stroke="midnightblue" d="M99.8895,-48C108.623,-48 117.548,-48 125.957,-48"/>
<polygon fill="midnightblue" stroke="midnightblue" points="99.7669,-44.5001 89.7668,-48 99.7668,-51.5001 99.7669,-44.5001"/>
</g>
<!-- Node9 -->
<g id="node17" class="node"><title>Node9</title>
<a xlink:href="class_kitware_1_1_v_t_k_1_1vtk_threaded_streaming_pipeline.html" target="_top" xlink:title="vtkThreadedStreamingPipeline &#45; Executive supporting multi&#45;threads">
<polygon fill="none" stroke="black" points="1240.5,-38 1240.5,-58 1461.5,-58 1461.5,-38 1240.5,-38"/>
<text text-anchor="middle" x="1351" y="-45" font-family="FreeSans" font-size="10.00">Kitware.VTK.vtkThreadedStreamingPipeline</text>
</a>
</g>
<!-- Node8&#45;&gt;Node9 -->
<g id="edge16" class="edge"><title>Node8&#45;&gt;Node9</title>
<path fill="none" stroke="midnightblue" d="M1172.76,-48C1194.91,-48 1218.18,-48 1240.33,-48"/>
<polygon fill="midnightblue" stroke="midnightblue" points="1172.67,-44.5001 1162.67,-48 1172.67,-51.5001 1172.67,-44.5001"/>
</g>
</g>
</svg>
