<?xml version="1.0" encoding="UTF-8" standalone="no"?>
<!DOCTYPE svg PUBLIC "-//W3C//DTD SVG 1.1//EN"
 "http://www.w3.org/Graphics/SVG/1.1/DTD/svg11.dtd">
<!-- Generated by graphviz version 2.26.3 (20100126.1600)
 -->
<!-- Title: G Pages: 1 -->
<svg width="140pt" height="436pt"
 viewBox="0.00 0.00 140.00 436.00" xmlns="http://www.w3.org/2000/svg" xmlns:xlink="http://www.w3.org/1999/xlink">
<g id="graph1" class="graph" transform="scale(1 1) rotate(0) translate(4 432)">
<title>G</title>
<!-- Node1 -->
<g id="node1" class="node"><title>Node1</title>
<polygon fill="#bfbfbf" stroke="black" points="-0.5,-1 -0.5,-21 132.5,-21 132.5,-1 -0.5,-1"/>
<text text-anchor="middle" x="66" y="-8" font-family="FreeSans" font-size="10.00">Kitware.VTK.vtkSTLWriter</text>
</g>
<!-- Node2 -->
<g id="node2" class="node"><title>Node2</title>
<a xlink:href="class_kitware_1_1_v_t_k_1_1vtk_poly_data_writer.html" target="_top" xlink:title="vtkPolyDataWriter &#45; write vtk polygonal data">
<polygon fill="none" stroke="black" points="15.5,-59 15.5,-79 116.5,-79 116.5,-59 15.5,-59"/>
<text text-anchor="middle" x="66" y="-66" font-family="FreeSans" font-size="10.00">vtkPolyDataWriter</text>
</a>
</g>
<!-- Node2&#45;&gt;Node1 -->
<g id="edge2" class="edge"><title>Node2&#45;&gt;Node1</title>
<path fill="none" stroke="midnightblue" d="M66,-48.8902C66,-39.6201 66,-29.0083 66,-21.3776"/>
<polygon fill="midnightblue" stroke="midnightblue" points="62.5001,-48.8971 66,-58.8972 69.5001,-48.8972 62.5001,-48.8971"/>
</g>
<!-- Node3 -->
<g id="node4" class="node"><title>Node3</title>
<a xlink:href="class_kitware_1_1_v_t_k_1_1vtk_data_writer.html" target="_top" xlink:title="vtkDataWriter &#45; helper class for objects that write vtk data files">
<polygon fill="none" stroke="black" points="25.5,-117 25.5,-137 106.5,-137 106.5,-117 25.5,-117"/>
<text text-anchor="middle" x="66" y="-124" font-family="FreeSans" font-size="10.00">vtkDataWriter</text>
</a>
</g>
<!-- Node3&#45;&gt;Node2 -->
<g id="edge4" class="edge"><title>Node3&#45;&gt;Node2</title>
<path fill="none" stroke="midnightblue" d="M66,-106.89C66,-97.6201 66,-87.0083 66,-79.3776"/>
<polygon fill="midnightblue" stroke="midnightblue" points="62.5001,-106.897 66,-116.897 69.5001,-106.897 62.5001,-106.897"/>
</g>
<!-- Node4 -->
<g id="node6" class="node"><title>Node4</title>
<a xlink:href="class_kitware_1_1_v_t_k_1_1vtk_writer.html" target="_top" xlink:title="vtkWriter &#45; abstract class to write data to file(s)">
<polygon fill="none" stroke="black" points="37,-175 37,-195 95,-195 95,-175 37,-175"/>
<text text-anchor="middle" x="66" y="-182" font-family="FreeSans" font-size="10.00">vtkWriter</text>
</a>
</g>
<!-- Node4&#45;&gt;Node3 -->
<g id="edge6" class="edge"><title>Node4&#45;&gt;Node3</title>
<path fill="none" stroke="midnightblue" d="M66,-164.89C66,-155.62 66,-145.008 66,-137.378"/>
<polygon fill="midnightblue" stroke="midnightblue" points="62.5001,-164.897 66,-174.897 69.5001,-164.897 62.5001,-164.897"/>
</g>
<!-- Node5 -->
<g id="node8" class="node"><title>Node5</title>
<a xlink:href="class_kitware_1_1_v_t_k_1_1vtk_algorithm.html" target="_top" xlink:title="vtkAlgorithm &#45; Superclass for all sources, filters, and sinks in VTK.">
<polygon fill="none" stroke="black" points="27.5,-233 27.5,-253 104.5,-253 104.5,-233 27.5,-233"/>
<text text-anchor="middle" x="66" y="-240" font-family="FreeSans" font-size="10.00">vtkAlgorithm</text>
</a>
</g>
<!-- Node5&#45;&gt;Node4 -->
<g id="edge8" class="edge"><title>Node5&#45;&gt;Node4</title>
<path fill="none" stroke="midnightblue" d="M66,-222.89C66,-213.62 66,-203.008 66,-195.378"/>
<polygon fill="midnightblue" stroke="midnightblue" points="62.5001,-222.897 66,-232.897 69.5001,-222.897 62.5001,-222.897"/>
</g>
<!-- Node6 -->
<g id="node10" class="node"><title>Node6</title>
<a xlink:href="class_kitware_1_1_v_t_k_1_1vtk_object.html" target="_top" xlink:title="vtkObject &#45; abstract base class for most VTK objects">
<polygon fill="none" stroke="black" points="35,-291 35,-311 97,-311 97,-291 35,-291"/>
<text text-anchor="middle" x="66" y="-298" font-family="FreeSans" font-size="10.00">vtkObject</text>
</a>
</g>
<!-- Node6&#45;&gt;Node5 -->
<g id="edge10" class="edge"><title>Node6&#45;&gt;Node5</title>
<path fill="none" stroke="midnightblue" d="M66,-280.89C66,-271.62 66,-261.008 66,-253.378"/>
<polygon fill="midnightblue" stroke="midnightblue" points="62.5001,-280.897 66,-290.897 69.5001,-280.897 62.5001,-280.897"/>
</g>
<!-- Node7 -->
<g id="node12" class="node"><title>Node7</title>
<a xlink:href="class_kitware_1_1_v_t_k_1_1vtk_object_base.html" target="_top" xlink:title="vtkObjectBase &#45; abstract base class for most VTK objects">
<polygon fill="none" stroke="black" points="23,-349 23,-369 109,-369 109,-349 23,-349"/>
<text text-anchor="middle" x="66" y="-356" font-family="FreeSans" font-size="10.00">vtkObjectBase</text>
</a>
</g>
<!-- Node7&#45;&gt;Node6 -->
<g id="edge12" class="edge"><title>Node7&#45;&gt;Node6</title>
<path fill="none" stroke="midnightblue" d="M66,-338.89C66,-329.62 66,-319.008 66,-311.378"/>
<polygon fill="midnightblue" stroke="midnightblue" points="62.5001,-338.897 66,-348.897 69.5001,-338.897 62.5001,-338.897"/>
</g>
<!-- Node8 -->
<g id="node14" class="node"><title>Node8</title>
<a xlink:href="class_kitware_1_1_v_t_k_1_1_wrapped_object.html" target="_top" xlink:title="Base class for all the mummy wrapped classes in Kitware.VTK.">
<polygon fill="none" stroke="black" points="21.5,-407 21.5,-427 110.5,-427 110.5,-407 21.5,-407"/>
<text text-anchor="middle" x="66" y="-414" font-family="FreeSans" font-size="10.00">WrappedObject</text>
</a>
</g>
<!-- Node8&#45;&gt;Node7 -->
<g id="edge14" class="edge"><title>Node8&#45;&gt;Node7</title>
<path fill="none" stroke="midnightblue" d="M66,-396.89C66,-387.62 66,-377.008 66,-369.378"/>
<polygon fill="midnightblue" stroke="midnightblue" points="62.5001,-396.897 66,-406.897 69.5001,-396.897 62.5001,-396.897"/>
</g>
</g>
</svg>
