<?xml version="1.0" encoding="UTF-8" standalone="no"?>
<!DOCTYPE svg PUBLIC "-//W3C//DTD SVG 1.1//EN"
 "http://www.w3.org/Graphics/SVG/1.1/DTD/svg11.dtd">
<!-- Generated by graphviz version 2.26.3 (20100126.1600)
 -->
<!-- Title: G Pages: 1 -->
<svg width="1156pt" height="256pt"
 viewBox="0.00 0.00 1156.00 256.00" xmlns="http://www.w3.org/2000/svg" xmlns:xlink="http://www.w3.org/1999/xlink">
<g id="graph1" class="graph" transform="scale(1 1) rotate(0) translate(4 252)">
<title>G</title>
<!-- Node1 -->
<g id="node1" class="node"><title>Node1</title>
<polygon fill="#bfbfbf" stroke="black" points="698,-114 698,-134 864,-134 864,-114 698,-114"/>
<text text-anchor="middle" x="781" y="-121" font-family="FreeSans" font-size="10.00">Kitware.VTK.vtkPolyDataSource</text>
</g>
<!-- Node8 -->
<g id="node15" class="node"><title>Node8</title>
<a xlink:href="class_kitware_1_1_v_t_k_1_1vtk_data_set_to_poly_data_filter.html" target="_top" xlink:title="vtkDataSetToPolyDataFilter &#45; abstract filter class">
<polygon fill="none" stroke="black" points="922,-228 922,-248 1126,-248 1126,-228 922,-228"/>
<text text-anchor="middle" x="1024" y="-235" font-family="FreeSans" font-size="10.00">Kitware.VTK.vtkDataSetToPolyDataFilter</text>
</a>
</g>
<!-- Node1&#45;&gt;Node8 -->
<g id="edge14" class="edge"><title>Node1&#45;&gt;Node8</title>
<path fill="none" stroke="midnightblue" d="M796.958,-141.44C818.184,-163.429 857.947,-200.578 900,-219 908.279,-222.627 917.132,-225.577 926.156,-227.974"/>
<polygon fill="midnightblue" stroke="midnightblue" points="799.42,-138.95 790.007,-134.088 794.334,-143.759 799.42,-138.95"/>
</g>
<!-- Node9 -->
<g id="node17" class="node"><title>Node9</title>
<a xlink:href="class_kitware_1_1_v_t_k_1_1vtk_poly_data_to_poly_data_filter.html" target="_top" xlink:title="vtkPolyDataToPolyDataFilter &#45; abstract filter class">
<polygon fill="none" stroke="black" points="920.5,-190 920.5,-210 1127.5,-210 1127.5,-190 920.5,-190"/>
<text text-anchor="middle" x="1024" y="-197" font-family="FreeSans" font-size="10.00">Kitware.VTK.vtkPolyDataToPolyDataFilter</text>
</a>
</g>
<!-- Node1&#45;&gt;Node9 -->
<g id="edge16" class="edge"><title>Node1&#45;&gt;Node9</title>
<path fill="none" stroke="midnightblue" d="M807.059,-139.255C830.578,-152.339 866.526,-170.668 900,-181 911.758,-184.629 924.366,-187.582 936.876,-189.98"/>
<polygon fill="midnightblue" stroke="midnightblue" points="808.511,-136.055 798.084,-134.18 805.066,-142.149 808.511,-136.055"/>
</g>
<!-- Node10 -->
<g id="node19" class="node"><title>Node10</title>
<a xlink:href="class_kitware_1_1_v_t_k_1_1vtk_rectilinear_grid_to_poly_data_filter.html" target="_top" xlink:title="vtkRectilinearGridToPolyDataFilter &#45; abstract filter class">
<polygon fill="none" stroke="black" points="907.5,-152 907.5,-172 1140.5,-172 1140.5,-152 907.5,-152"/>
<text text-anchor="middle" x="1024" y="-159" font-family="FreeSans" font-size="10.00">Kitware.VTK.vtkRectilinearGridToPolyDataFilter</text>
</a>
</g>
<!-- Node1&#45;&gt;Node10 -->
<g id="edge18" class="edge"><title>Node1&#45;&gt;Node10</title>
<path fill="none" stroke="midnightblue" d="M853.353,-135.627C868.747,-138.08 884.909,-140.639 900,-143 918.828,-145.945 939.271,-149.097 958.026,-151.97"/>
<polygon fill="midnightblue" stroke="midnightblue" points="853.793,-132.153 843.366,-134.033 852.69,-139.065 853.793,-132.153"/>
</g>
<!-- Node11 -->
<g id="node21" class="node"><title>Node11</title>
<a xlink:href="class_kitware_1_1_v_t_k_1_1vtk_spatial_representation_filter.html" target="_top" xlink:title="vtkSpatialRepresentationFilter &#45; generate polygonal model of spatial search object (i...">
<polygon fill="none" stroke="black" points="915.5,-114 915.5,-134 1132.5,-134 1132.5,-114 915.5,-114"/>
<text text-anchor="middle" x="1024" y="-121" font-family="FreeSans" font-size="10.00">Kitware.VTK.vtkSpatialRepresentationFilter</text>
</a>
</g>
<!-- Node1&#45;&gt;Node11 -->
<g id="edge20" class="edge"><title>Node1&#45;&gt;Node11</title>
<path fill="none" stroke="midnightblue" d="M874.451,-124C887.882,-124 901.796,-124 915.487,-124"/>
<polygon fill="midnightblue" stroke="midnightblue" points="874.287,-120.5 864.287,-124 874.287,-127.5 874.287,-120.5"/>
</g>
<!-- Node12 -->
<g id="node23" class="node"><title>Node12</title>
<a xlink:href="class_kitware_1_1_v_t_k_1_1vtk_structured_grid_to_poly_data_filter.html" target="_top" xlink:title="vtkStructuredGridToPolyDataFilter &#45; abstract filter class">
<polygon fill="none" stroke="black" points="906.5,-76 906.5,-96 1141.5,-96 1141.5,-76 906.5,-76"/>
<text text-anchor="middle" x="1024" y="-83" font-family="FreeSans" font-size="10.00">Kitware.VTK.vtkStructuredGridToPolyDataFilter</text>
</a>
</g>
<!-- Node1&#45;&gt;Node12 -->
<g id="edge22" class="edge"><title>Node1&#45;&gt;Node12</title>
<path fill="none" stroke="midnightblue" d="M853.353,-112.373C868.747,-109.92 884.909,-107.361 900,-105 918.828,-102.055 939.271,-98.9029 958.026,-96.0301"/>
<polygon fill="midnightblue" stroke="midnightblue" points="852.69,-108.935 843.366,-113.967 853.793,-115.847 852.69,-108.935"/>
</g>
<!-- Node13 -->
<g id="node25" class="node"><title>Node13</title>
<a xlink:href="class_kitware_1_1_v_t_k_1_1vtk_structured_points_to_poly_data_filter.html" target="_top" xlink:title="vtkStructuredPointsToPolyDataFilter &#45; abstract filter class">
<polygon fill="none" stroke="black" points="901.5,-38 901.5,-58 1146.5,-58 1146.5,-38 901.5,-38"/>
<text text-anchor="middle" x="1024" y="-45" font-family="FreeSans" font-size="10.00">Kitware.VTK.vtkStructuredPointsToPolyDataFilter</text>
</a>
</g>
<!-- Node1&#45;&gt;Node13 -->
<g id="edge24" class="edge"><title>Node1&#45;&gt;Node13</title>
<path fill="none" stroke="midnightblue" d="M807.059,-108.745C830.578,-95.6608 866.526,-77.3317 900,-67 911.758,-63.371 924.366,-60.4183 936.876,-58.0203"/>
<polygon fill="midnightblue" stroke="midnightblue" points="805.066,-105.851 798.084,-113.82 808.511,-111.945 805.066,-105.851"/>
</g>
<!-- Node14 -->
<g id="node27" class="node"><title>Node14</title>
<a xlink:href="class_kitware_1_1_v_t_k_1_1vtk_unstructured_grid_to_poly_data_filter.html" target="_top" xlink:title="vtkUnstructuredGridToPolyDataFilter &#45; abstract filter class">
<polygon fill="none" stroke="black" points="900.5,-0 900.5,-20 1147.5,-20 1147.5,-0 900.5,-0"/>
<text text-anchor="middle" x="1024" y="-7" font-family="FreeSans" font-size="10.00">Kitware.VTK.vtkUnstructuredGridToPolyDataFilter</text>
</a>
</g>
<!-- Node1&#45;&gt;Node14 -->
<g id="edge26" class="edge"><title>Node1&#45;&gt;Node14</title>
<path fill="none" stroke="midnightblue" d="M796.958,-106.56C818.184,-84.571 857.947,-47.4218 900,-29 908.279,-25.3734 917.132,-22.4233 926.156,-20.0257"/>
<polygon fill="midnightblue" stroke="midnightblue" points="794.334,-104.241 790.007,-113.912 799.42,-109.05 794.334,-104.241"/>
</g>
<!-- Node2 -->
<g id="node2" class="node"><title>Node2</title>
<a xlink:href="class_kitware_1_1_v_t_k_1_1vtk_source.html" target="_top" xlink:title="vtkSource &#45; abstract class specifies interface for visualization network source">
<polygon fill="none" stroke="black" points="596.5,-114 596.5,-134 661.5,-134 661.5,-114 596.5,-114"/>
<text text-anchor="middle" x="629" y="-121" font-family="FreeSans" font-size="10.00">vtkSource</text>
</a>
</g>
<!-- Node2&#45;&gt;Node1 -->
<g id="edge2" class="edge"><title>Node2&#45;&gt;Node1</title>
<path fill="none" stroke="midnightblue" d="M671.669,-124C679.918,-124 688.821,-124 697.86,-124"/>
<polygon fill="midnightblue" stroke="midnightblue" points="671.608,-120.5 661.608,-124 671.608,-127.5 671.608,-120.5"/>
</g>
<!-- Node3 -->
<g id="node4" class="node"><title>Node3</title>
<a xlink:href="class_kitware_1_1_v_t_k_1_1vtk_process_object.html" target="_top" xlink:title="vtkProcessObject &#45; abstract class specifies interface for visualization filters">
<polygon fill="none" stroke="black" points="460.5,-114 460.5,-134 559.5,-134 559.5,-114 460.5,-114"/>
<text text-anchor="middle" x="510" y="-121" font-family="FreeSans" font-size="10.00">vtkProcessObject</text>
</a>
</g>
<!-- Node3&#45;&gt;Node2 -->
<g id="edge4" class="edge"><title>Node3&#45;&gt;Node2</title>
<path fill="none" stroke="midnightblue" d="M569.997,-124C579.082,-124 588.152,-124 596.36,-124"/>
<polygon fill="midnightblue" stroke="midnightblue" points="569.777,-120.5 559.777,-124 569.777,-127.5 569.777,-120.5"/>
</g>
<!-- Node4 -->
<g id="node6" class="node"><title>Node4</title>
<a xlink:href="class_kitware_1_1_v_t_k_1_1vtk_algorithm.html" target="_top" xlink:title="vtkAlgorithm &#45; Superclass for all sources, filters, and sinks in VTK.">
<polygon fill="none" stroke="black" points="346.5,-114 346.5,-134 423.5,-134 423.5,-114 346.5,-114"/>
<text text-anchor="middle" x="385" y="-121" font-family="FreeSans" font-size="10.00">vtkAlgorithm</text>
</a>
</g>
<!-- Node4&#45;&gt;Node3 -->
<g id="edge6" class="edge"><title>Node4&#45;&gt;Node3</title>
<path fill="none" stroke="midnightblue" d="M433.594,-124C442.361,-124 451.512,-124 460.309,-124"/>
<polygon fill="midnightblue" stroke="midnightblue" points="433.524,-120.5 423.524,-124 433.524,-127.5 433.524,-120.5"/>
</g>
<!-- Node5 -->
<g id="node8" class="node"><title>Node5</title>
<a xlink:href="class_kitware_1_1_v_t_k_1_1vtk_object.html" target="_top" xlink:title="vtkObject &#45; abstract base class for most VTK objects">
<polygon fill="none" stroke="black" points="248,-114 248,-134 310,-134 310,-114 248,-114"/>
<text text-anchor="middle" x="279" y="-121" font-family="FreeSans" font-size="10.00">vtkObject</text>
</a>
</g>
<!-- Node5&#45;&gt;Node4 -->
<g id="edge8" class="edge"><title>Node5&#45;&gt;Node4</title>
<path fill="none" stroke="midnightblue" d="M320.421,-124C329.001,-124 338.007,-124 346.479,-124"/>
<polygon fill="midnightblue" stroke="midnightblue" points="320.23,-120.5 310.23,-124 320.23,-127.5 320.23,-120.5"/>
</g>
<!-- Node6 -->
<g id="node10" class="node"><title>Node6</title>
<a xlink:href="class_kitware_1_1_v_t_k_1_1vtk_object_base.html" target="_top" xlink:title="vtkObjectBase &#45; abstract base class for most VTK objects">
<polygon fill="none" stroke="black" points="126,-114 126,-134 212,-134 212,-114 126,-114"/>
<text text-anchor="middle" x="169" y="-121" font-family="FreeSans" font-size="10.00">vtkObjectBase</text>
</a>
</g>
<!-- Node6&#45;&gt;Node5 -->
<g id="edge10" class="edge"><title>Node6&#45;&gt;Node5</title>
<path fill="none" stroke="midnightblue" d="M222.346,-124C231.091,-124 239.892,-124 247.863,-124"/>
<polygon fill="midnightblue" stroke="midnightblue" points="222.159,-120.5 212.159,-124 222.159,-127.5 222.159,-120.5"/>
</g>
<!-- Node7 -->
<g id="node12" class="node"><title>Node7</title>
<a xlink:href="class_kitware_1_1_v_t_k_1_1_wrapped_object.html" target="_top" xlink:title="Base class for all the mummy wrapped classes in Kitware.VTK.">
<polygon fill="none" stroke="black" points="0.5,-114 0.5,-134 89.5,-134 89.5,-114 0.5,-114"/>
<text text-anchor="middle" x="45" y="-121" font-family="FreeSans" font-size="10.00">WrappedObject</text>
</a>
</g>
<!-- Node7&#45;&gt;Node6 -->
<g id="edge12" class="edge"><title>Node7&#45;&gt;Node6</title>
<path fill="none" stroke="midnightblue" d="M99.8895,-124C108.623,-124 117.548,-124 125.957,-124"/>
<polygon fill="midnightblue" stroke="midnightblue" points="99.7669,-120.5 89.7668,-124 99.7668,-127.5 99.7669,-120.5"/>
</g>
</g>
</svg>
