<?xml version="1.0" encoding="UTF-8" standalone="no"?>
<!DOCTYPE svg PUBLIC "-//W3C//DTD SVG 1.1//EN"
 "http://www.w3.org/Graphics/SVG/1.1/DTD/svg11.dtd">
<!-- Generated by graphviz version 2.26.3 (20100126.1600)
 -->
<!-- Title: G Pages: 1 -->
<svg width="455pt" height="830pt"
 viewBox="0.00 0.00 455.46 830.00" xmlns="http://www.w3.org/2000/svg" xmlns:xlink="http://www.w3.org/1999/xlink">
<g id="graph1" class="graph" transform="scale(1 1) rotate(0) translate(4 826)">
<title>G</title>
<!-- Node1 -->
<g id="node1" class="node"><title>Node1</title>
<polygon fill="#bfbfbf" stroke="black" points="-0.5,-1 -0.5,-21 238.5,-21 238.5,-1 -0.5,-1"/>
<text text-anchor="middle" x="119" y="-8" font-family="FreeSans" font-size="10.00">Kitware.VTK.vtkXMLPHierarchicalBoxDataWriter</text>
</g>
<!-- Node2 -->
<g id="node2" class="node"><title>Node2</title>
<a xlink:href="class_kitware_1_1_v_t_k_1_1vtk_x_m_l_hierarchical_box_data_writer.html" target="_top" xlink:title="vtkXMLHierarchicalBoxDataWriter &#45; writer for vtkHierarchicalBoxDataSet.">
<polygon fill="none" stroke="black" points="31.5,-61 31.5,-81 206.5,-81 206.5,-61 31.5,-61"/>
<text text-anchor="middle" x="119" y="-68" font-family="FreeSans" font-size="10.00">vtkXMLHierarchicalBoxDataWriter</text>
</a>
</g>
<!-- Node2&#45;&gt;Node1 -->
<g id="edge2" class="edge"><title>Node2&#45;&gt;Node1</title>
<path fill="none" stroke="midnightblue" d="M119,-50.5155C119,-40.562 119,-29.0495 119,-21.0279"/>
<polygon fill="midnightblue" stroke="midnightblue" points="115.5,-50.8218 119,-60.8218 122.5,-50.8219 115.5,-50.8218"/>
</g>
<!-- Node3 -->
<g id="node4" class="node"><title>Node3</title>
<a xlink:href="class_kitware_1_1_v_t_k_1_1vtk_x_m_l_composite_data_writer.html" target="_top" xlink:title="vtkXMLCompositeDataWriter &#45; Writer for multi&#45;group datasets">
<polygon fill="none" stroke="black" points="43,-121 43,-141 195,-141 195,-121 43,-121"/>
<text text-anchor="middle" x="119" y="-128" font-family="FreeSans" font-size="10.00">vtkXMLCompositeDataWriter</text>
</a>
</g>
<!-- Node3&#45;&gt;Node2 -->
<g id="edge4" class="edge"><title>Node3&#45;&gt;Node2</title>
<path fill="none" stroke="midnightblue" d="M119,-110.516C119,-100.562 119,-89.0495 119,-81.0279"/>
<polygon fill="midnightblue" stroke="midnightblue" points="115.5,-110.822 119,-120.822 122.5,-110.822 115.5,-110.822"/>
</g>
<!-- Node4 -->
<g id="node6" class="node"><title>Node4</title>
<a xlink:href="class_kitware_1_1_v_t_k_1_1vtk_x_m_l_writer.html" target="_top" xlink:title="vtkXMLWriter &#45; Superclass for VTK&#39;s XML file writers.">
<polygon fill="none" stroke="black" points="80.5,-181 80.5,-201 157.5,-201 157.5,-181 80.5,-181"/>
<text text-anchor="middle" x="119" y="-188" font-family="FreeSans" font-size="10.00">vtkXMLWriter</text>
</a>
</g>
<!-- Node4&#45;&gt;Node3 -->
<g id="edge6" class="edge"><title>Node4&#45;&gt;Node3</title>
<path fill="none" stroke="midnightblue" d="M119,-170.516C119,-160.562 119,-149.05 119,-141.028"/>
<polygon fill="midnightblue" stroke="midnightblue" points="115.5,-170.822 119,-180.822 122.5,-170.822 115.5,-170.822"/>
</g>
<!-- Node5 -->
<g id="node8" class="node"><title>Node5</title>
<a xlink:href="class_kitware_1_1_v_t_k_1_1vtk_algorithm.html" target="_top" xlink:title="vtkAlgorithm &#45; Superclass for all sources, filters, and sinks in VTK.">
<polygon fill="none" stroke="black" points="80.5,-241 80.5,-261 157.5,-261 157.5,-241 80.5,-241"/>
<text text-anchor="middle" x="119" y="-248" font-family="FreeSans" font-size="10.00">vtkAlgorithm</text>
</a>
</g>
<!-- Node5&#45;&gt;Node4 -->
<g id="edge8" class="edge"><title>Node5&#45;&gt;Node4</title>
<path fill="none" stroke="midnightblue" d="M119,-230.516C119,-220.562 119,-209.05 119,-201.028"/>
<polygon fill="midnightblue" stroke="midnightblue" points="115.5,-230.822 119,-240.822 122.5,-230.822 115.5,-230.822"/>
</g>
<!-- Node6 -->
<g id="node10" class="node"><title>Node6</title>
<a xlink:href="class_kitware_1_1_v_t_k_1_1vtk_object.html" target="_top" xlink:title="vtkObject &#45; abstract base class for most VTK objects">
<polygon fill="none" stroke="black" points="88,-301 88,-321 150,-321 150,-301 88,-301"/>
<text text-anchor="middle" x="119" y="-308" font-family="FreeSans" font-size="10.00">vtkObject</text>
</a>
</g>
<!-- Node6&#45;&gt;Node5 -->
<g id="edge10" class="edge"><title>Node6&#45;&gt;Node5</title>
<path fill="none" stroke="midnightblue" d="M119,-290.516C119,-280.562 119,-269.05 119,-261.028"/>
<polygon fill="midnightblue" stroke="midnightblue" points="115.5,-290.822 119,-300.822 122.5,-290.822 115.5,-290.822"/>
</g>
<!-- Node7 -->
<g id="node12" class="node"><title>Node7</title>
<a xlink:href="class_kitware_1_1_v_t_k_1_1vtk_object_base.html" target="_top" xlink:title="vtkObjectBase &#45; abstract base class for most VTK objects">
<polygon fill="none" stroke="black" points="139,-741 139,-761 225,-761 225,-741 139,-741"/>
<text text-anchor="middle" x="182" y="-748" font-family="FreeSans" font-size="10.00">vtkObjectBase</text>
</a>
</g>
<!-- Node7&#45;&gt;Node6 -->
<g id="edge12" class="edge"><title>Node7&#45;&gt;Node6</title>
<path fill="none" stroke="midnightblue" d="M153.423,-735.886C139.687,-727.44 123.884,-715.826 113,-702 101.156,-686.955 100.621,-680.802 97,-662 71.4248,-529.199 106.577,-363.437 116.516,-321.17"/>
<polygon fill="midnightblue" stroke="midnightblue" points="151.683,-738.923 162.079,-740.97 155.229,-732.887 151.683,-738.923"/>
</g>
<!-- Node10 -->
<g id="node19" class="node"><title>Node10</title>
<a xlink:href="class_kitware_1_1_v_t_k_1_1vtk_object.html" target="_top" xlink:title="vtkObject &#45; abstract base class for most VTK objects">
<polygon fill="none" stroke="black" points="122,-681 122,-701 242,-701 242,-681 122,-681"/>
<text text-anchor="middle" x="182" y="-688" font-family="FreeSans" font-size="10.00">Kitware.VTK.vtkObject</text>
</a>
</g>
<!-- Node7&#45;&gt;Node10 -->
<g id="edge22" class="edge"><title>Node7&#45;&gt;Node10</title>
<path fill="none" stroke="midnightblue" d="M182,-730.516C182,-720.562 182,-709.05 182,-701.028"/>
<polygon fill="midnightblue" stroke="midnightblue" points="178.5,-730.822 182,-740.822 185.5,-730.822 178.5,-730.822"/>
</g>
<!-- Node8 -->
<g id="node14" class="node"><title>Node8</title>
<a xlink:href="class_kitware_1_1_v_t_k_1_1_wrapped_object.html" target="_top" xlink:title="Base class for all the mummy wrapped classes in Kitware.VTK.">
<polygon fill="none" stroke="black" points="320.5,-801 320.5,-821 409.5,-821 409.5,-801 320.5,-801"/>
<text text-anchor="middle" x="365" y="-808" font-family="FreeSans" font-size="10.00">WrappedObject</text>
</a>
</g>
<!-- Node8&#45;&gt;Node7 -->
<g id="edge14" class="edge"><title>Node8&#45;&gt;Node7</title>
<path fill="none" stroke="midnightblue" d="M324.804,-797.821C291.042,-786.752 243.512,-771.168 212.73,-761.075"/>
<polygon fill="midnightblue" stroke="midnightblue" points="323.777,-801.168 334.37,-800.957 325.958,-794.516 323.777,-801.168"/>
</g>
<!-- Node9 -->
<g id="node16" class="node"><title>Node9</title>
<a xlink:href="class_kitware_1_1_v_t_k_1_1vtk_object_event_relay.html" target="_top" xlink:title="Implement a relay handler for VTK events. This is a class that receives events directly from the VTK ...">
<polygon fill="none" stroke="black" points="111,-491 111,-511 283,-511 283,-491 111,-491"/>
<text text-anchor="middle" x="197" y="-498" font-family="FreeSans" font-size="10.00">Kitware.VTK.vtkObjectEventRelay</text>
</a>
</g>
<!-- Node8&#45;&gt;Node9 -->
<g id="edge18" class="edge"><title>Node8&#45;&gt;Node9</title>
<path fill="none" stroke="midnightblue" d="M377.888,-792.325C410.276,-742.899 487.803,-607.191 420,-530 410.773,-519.495 342.047,-511.666 283.298,-506.808"/>
<polygon fill="midnightblue" stroke="midnightblue" points="374.891,-790.509 372.239,-800.767 380.709,-794.402 374.891,-790.509"/>
</g>
<!-- Node9&#45;&gt;Node6 -->
<g id="edge16" class="edge"><title>Node9&#45;&gt;Node6</title>
<path fill="none" stroke="#9a32cd" stroke-dasharray="5,2" d="M188.921,-481.321C172.489,-441.293 135.674,-351.616 123.214,-321.266"/>
<polygon fill="#9a32cd" stroke="#9a32cd" points="185.771,-482.863 192.806,-490.785 192.246,-480.205 185.771,-482.863"/>
<text text-anchor="middle" x="296.5" y="-463" font-family="FreeSans" font-size="10.00"> LeftButtonReleaseEvtRelay</text>
<text text-anchor="middle" x="296.5" y="-451" font-family="FreeSans" font-size="10.00">KeyPressEvtRelay</text>
<text text-anchor="middle" x="296.5" y="-439" font-family="FreeSans" font-size="10.00">DomainModifiedEvtRelay</text>
<text text-anchor="middle" x="296.5" y="-427" font-family="FreeSans" font-size="10.00">VolumeMapperComputeGradientsStartEvtRelay</text>
<text text-anchor="middle" x="296.5" y="-415" font-family="FreeSans" font-size="10.00">ErrorEvtRelay</text>
<text text-anchor="middle" x="296.5" y="-403" font-family="FreeSans" font-size="10.00">VolumeMapperRenderStartEvtRelay</text>
<text text-anchor="middle" x="296.5" y="-391" font-family="FreeSans" font-size="10.00">StartEvtRelay</text>
<text text-anchor="middle" x="296.5" y="-379" font-family="FreeSans" font-size="10.00">ResetCameraEvtRelay</text>
<text text-anchor="middle" x="296.5" y="-367" font-family="FreeSans" font-size="10.00">EnableEvtRelay</text>
<text text-anchor="middle" x="296.5" y="-355" font-family="FreeSans" font-size="10.00">DeleteEvtRelay</text>
<text text-anchor="middle" x="296.5" y="-343" font-family="FreeSans" font-size="10.00">...</text>
</g>
<!-- Node9&#45;&gt;Node10 -->
<g id="edge24" class="edge"><title>Node9&#45;&gt;Node10</title>
<path fill="none" stroke="#9a32cd" stroke-dasharray="5,2" d="M194.028,-521.231C193.649,-524.169 193.293,-527.159 193,-530 187.144,-586.853 183.636,-655.333 182.452,-680.807"/>
<polygon fill="#9a32cd" stroke="#9a32cd" points="197.515,-521.565 195.421,-511.179 190.582,-520.604 197.515,-521.565"/>
<text text-anchor="middle" x="306.5" y="-653" font-family="FreeSans" font-size="10.00"> LeftButtonReleaseEvtRelay</text>
<text text-anchor="middle" x="306.5" y="-641" font-family="FreeSans" font-size="10.00">KeyPressEvtRelay</text>
<text text-anchor="middle" x="306.5" y="-629" font-family="FreeSans" font-size="10.00">DomainModifiedEvtRelay</text>
<text text-anchor="middle" x="306.5" y="-617" font-family="FreeSans" font-size="10.00">VolumeMapperComputeGradientsStartEvtRelay</text>
<text text-anchor="middle" x="306.5" y="-605" font-family="FreeSans" font-size="10.00">ErrorEvtRelay</text>
<text text-anchor="middle" x="306.5" y="-593" font-family="FreeSans" font-size="10.00">VolumeMapperRenderStartEvtRelay</text>
<text text-anchor="middle" x="306.5" y="-581" font-family="FreeSans" font-size="10.00">StartEvtRelay</text>
<text text-anchor="middle" x="306.5" y="-569" font-family="FreeSans" font-size="10.00">ResetCameraEvtRelay</text>
<text text-anchor="middle" x="306.5" y="-557" font-family="FreeSans" font-size="10.00">EnableEvtRelay</text>
<text text-anchor="middle" x="306.5" y="-545" font-family="FreeSans" font-size="10.00">DeleteEvtRelay</text>
<text text-anchor="middle" x="306.5" y="-533" font-family="FreeSans" font-size="10.00">...</text>
</g>
<!-- Node10&#45;&gt;Node9 -->
<g id="edge20" class="edge"><title>Node10&#45;&gt;Node9</title>
<path fill="none" stroke="#9a32cd" stroke-dasharray="5,2" d="M135.979,-675.818C130.439,-672.138 125.51,-667.596 122,-662 90.8229,-612.303 88.8299,-578.389 122,-530 126.736,-523.091 143.511,-516.287 159.999,-511.008"/>
<polygon fill="#9a32cd" stroke="#9a32cd" points="134.639,-679.079 145.072,-680.919 138.064,-672.974 134.639,-679.079"/>
<text text-anchor="middle" x="146" y="-599" font-family="FreeSans" font-size="10.00"> Sender</text>
<text text-anchor="middle" x="146" y="-587" font-family="FreeSans" font-size="10.00">EventImpl</text>
</g>
</g>
</svg>
