<?xml version="1.0" encoding="UTF-8" standalone="no"?>
<!DOCTYPE svg PUBLIC "-//W3C//DTD SVG 1.1//EN"
 "http://www.w3.org/Graphics/SVG/1.1/DTD/svg11.dtd">
<!-- Generated by graphviz version 2.26.3 (20100126.1600)
 -->
<!-- Title: G Pages: 1 -->
<svg width="368pt" height="262pt"
 viewBox="0.00 0.00 368.00 262.00" xmlns="http://www.w3.org/2000/svg" xmlns:xlink="http://www.w3.org/1999/xlink">
<g id="graph1" class="graph" transform="scale(1 1) rotate(0) translate(4 258)">
<title>G</title>
<!-- Node1 -->
<g id="node1" class="node"><title>Node1</title>
<polygon fill="#bfbfbf" stroke="black" points="83,-59 83,-79 279,-79 279,-59 83,-59"/>
<text text-anchor="middle" x="181" y="-66" font-family="FreeSans" font-size="10.00">Kitware.VTK.vtkMultiProcessController</text>
</g>
<!-- Node5 -->
<g id="node9" class="node"><title>Node5</title>
<a xlink:href="class_kitware_1_1_v_t_k_1_1vtk_dummy_controller.html" target="_top" xlink:title="vtkDummyController &#45; Dummy controller for single process applications">
<polygon fill="none" stroke="black" points="0,-1 0,-21 174,-21 174,-1 0,-1"/>
<text text-anchor="middle" x="87" y="-8" font-family="FreeSans" font-size="10.00">Kitware.VTK.vtkDummyController</text>
</a>
</g>
<!-- Node1&#45;&gt;Node5 -->
<g id="edge8" class="edge"><title>Node1&#45;&gt;Node5</title>
<path fill="none" stroke="midnightblue" d="M155.956,-53.5474C139.343,-43.2969 118.01,-30.1339 103.501,-21.1817"/>
<polygon fill="midnightblue" stroke="midnightblue" points="154.278,-56.6247 164.626,-58.8972 157.954,-50.6674 154.278,-56.6247"/>
</g>
<!-- Node6 -->
<g id="node11" class="node"><title>Node6</title>
<a xlink:href="class_kitware_1_1_v_t_k_1_1vtk_socket_controller.html" target="_top" xlink:title="vtkSocketController &#45; Process communication using Sockets">
<polygon fill="none" stroke="black" points="191.5,-1 191.5,-21 360.5,-21 360.5,-1 191.5,-1"/>
<text text-anchor="middle" x="276" y="-8" font-family="FreeSans" font-size="10.00">Kitware.VTK.vtkSocketController</text>
</a>
</g>
<!-- Node1&#45;&gt;Node6 -->
<g id="edge10" class="edge"><title>Node1&#45;&gt;Node6</title>
<path fill="none" stroke="midnightblue" d="M206.31,-53.5474C223.1,-43.2969 244.66,-30.1339 259.323,-21.1817"/>
<polygon fill="midnightblue" stroke="midnightblue" points="204.259,-50.699 197.548,-58.8972 207.907,-56.6735 204.259,-50.699"/>
</g>
<!-- Node2 -->
<g id="node2" class="node"><title>Node2</title>
<a xlink:href="class_kitware_1_1_v_t_k_1_1vtk_object.html" target="_top" xlink:title="vtkObject &#45; abstract base class for most VTK objects">
<polygon fill="none" stroke="black" points="150,-117 150,-137 212,-137 212,-117 150,-117"/>
<text text-anchor="middle" x="181" y="-124" font-family="FreeSans" font-size="10.00">vtkObject</text>
</a>
</g>
<!-- Node2&#45;&gt;Node1 -->
<g id="edge2" class="edge"><title>Node2&#45;&gt;Node1</title>
<path fill="none" stroke="midnightblue" d="M181,-106.89C181,-97.6201 181,-87.0083 181,-79.3776"/>
<polygon fill="midnightblue" stroke="midnightblue" points="177.5,-106.897 181,-116.897 184.5,-106.897 177.5,-106.897"/>
</g>
<!-- Node3 -->
<g id="node4" class="node"><title>Node3</title>
<a xlink:href="class_kitware_1_1_v_t_k_1_1vtk_object_base.html" target="_top" xlink:title="vtkObjectBase &#45; abstract base class for most VTK objects">
<polygon fill="none" stroke="black" points="138,-175 138,-195 224,-195 224,-175 138,-175"/>
<text text-anchor="middle" x="181" y="-182" font-family="FreeSans" font-size="10.00">vtkObjectBase</text>
</a>
</g>
<!-- Node3&#45;&gt;Node2 -->
<g id="edge4" class="edge"><title>Node3&#45;&gt;Node2</title>
<path fill="none" stroke="midnightblue" d="M181,-164.89C181,-155.62 181,-145.008 181,-137.378"/>
<polygon fill="midnightblue" stroke="midnightblue" points="177.5,-164.897 181,-174.897 184.5,-164.897 177.5,-164.897"/>
</g>
<!-- Node4 -->
<g id="node6" class="node"><title>Node4</title>
<a xlink:href="class_kitware_1_1_v_t_k_1_1_wrapped_object.html" target="_top" xlink:title="Base class for all the mummy wrapped classes in Kitware.VTK.">
<polygon fill="none" stroke="black" points="136.5,-233 136.5,-253 225.5,-253 225.5,-233 136.5,-233"/>
<text text-anchor="middle" x="181" y="-240" font-family="FreeSans" font-size="10.00">WrappedObject</text>
</a>
</g>
<!-- Node4&#45;&gt;Node3 -->
<g id="edge6" class="edge"><title>Node4&#45;&gt;Node3</title>
<path fill="none" stroke="midnightblue" d="M181,-222.89C181,-213.62 181,-203.008 181,-195.378"/>
<polygon fill="midnightblue" stroke="midnightblue" points="177.5,-222.897 181,-232.897 184.5,-222.897 177.5,-222.897"/>
</g>
</g>
</svg>
