<?xml version="1.0" encoding="UTF-8" standalone="no"?>
<!DOCTYPE svg PUBLIC "-//W3C//DTD SVG 1.1//EN"
 "http://www.w3.org/Graphics/SVG/1.1/DTD/svg11.dtd">
<!-- Generated by graphviz version 2.26.3 (20100126.1600)
 -->
<!-- Title: G Pages: 1 -->
<svg width="431pt" height="890pt"
 viewBox="0.00 0.00 431.46 890.00" xmlns="http://www.w3.org/2000/svg" xmlns:xlink="http://www.w3.org/1999/xlink">
<g id="graph1" class="graph" transform="scale(1 1) rotate(0) translate(4 886)">
<title>G</title>
<!-- Node1 -->
<g id="node1" class="node"><title>Node1</title>
<polygon fill="#bfbfbf" stroke="black" points="-0.5,-1 -0.5,-21 190.5,-21 190.5,-1 -0.5,-1"/>
<text text-anchor="middle" x="95" y="-8" font-family="FreeSans" font-size="10.00">Kitware.VTK.vtkSmartVolumeMapper</text>
</g>
<!-- Node2 -->
<g id="node2" class="node"><title>Node2</title>
<a xlink:href="class_kitware_1_1_v_t_k_1_1vtk_volume_mapper.html" target="_top" xlink:title="vtkVolumeMapper &#45; Abstract class for a volume mapper">
<polygon fill="none" stroke="black" points="43.5,-61 43.5,-81 146.5,-81 146.5,-61 43.5,-61"/>
<text text-anchor="middle" x="95" y="-68" font-family="FreeSans" font-size="10.00">vtkVolumeMapper</text>
</a>
</g>
<!-- Node2&#45;&gt;Node1 -->
<g id="edge2" class="edge"><title>Node2&#45;&gt;Node1</title>
<path fill="none" stroke="midnightblue" d="M95,-50.5155C95,-40.562 95,-29.0495 95,-21.0279"/>
<polygon fill="midnightblue" stroke="midnightblue" points="91.5001,-50.8218 95,-60.8218 98.5001,-50.8219 91.5001,-50.8218"/>
</g>
<!-- Node3 -->
<g id="node4" class="node"><title>Node3</title>
<a xlink:href="class_kitware_1_1_v_t_k_1_1vtk_abstract_volume_mapper.html" target="_top" xlink:title="vtkAbstractVolumeMapper &#45; Abstract class for a volume mapper">
<polygon fill="none" stroke="black" points="23.5,-121 23.5,-141 166.5,-141 166.5,-121 23.5,-121"/>
<text text-anchor="middle" x="95" y="-128" font-family="FreeSans" font-size="10.00">vtkAbstractVolumeMapper</text>
</a>
</g>
<!-- Node3&#45;&gt;Node2 -->
<g id="edge4" class="edge"><title>Node3&#45;&gt;Node2</title>
<path fill="none" stroke="midnightblue" d="M95,-110.516C95,-100.562 95,-89.0495 95,-81.0279"/>
<polygon fill="midnightblue" stroke="midnightblue" points="91.5001,-110.822 95,-120.822 98.5001,-110.822 91.5001,-110.822"/>
</g>
<!-- Node4 -->
<g id="node6" class="node"><title>Node4</title>
<a xlink:href="class_kitware_1_1_v_t_k_1_1vtk_abstract_mapper3_d.html" target="_top" xlink:title="vtkAbstractMapper3D &#45; abstract class specifies interface to map 3D data">
<polygon fill="none" stroke="black" points="34.5,-181 34.5,-201 155.5,-201 155.5,-181 34.5,-181"/>
<text text-anchor="middle" x="95" y="-188" font-family="FreeSans" font-size="10.00">vtkAbstractMapper3D</text>
</a>
</g>
<!-- Node4&#45;&gt;Node3 -->
<g id="edge6" class="edge"><title>Node4&#45;&gt;Node3</title>
<path fill="none" stroke="midnightblue" d="M95,-170.516C95,-160.562 95,-149.05 95,-141.028"/>
<polygon fill="midnightblue" stroke="midnightblue" points="91.5001,-170.822 95,-180.822 98.5001,-170.822 91.5001,-170.822"/>
</g>
<!-- Node5 -->
<g id="node8" class="node"><title>Node5</title>
<a xlink:href="class_kitware_1_1_v_t_k_1_1vtk_abstract_mapper.html" target="_top" xlink:title="vtkAbstractMapper &#45; abstract class specifies interface to map data">
<polygon fill="none" stroke="black" points="41.5,-241 41.5,-261 148.5,-261 148.5,-241 41.5,-241"/>
<text text-anchor="middle" x="95" y="-248" font-family="FreeSans" font-size="10.00">vtkAbstractMapper</text>
</a>
</g>
<!-- Node5&#45;&gt;Node4 -->
<g id="edge8" class="edge"><title>Node5&#45;&gt;Node4</title>
<path fill="none" stroke="midnightblue" d="M95,-230.516C95,-220.562 95,-209.05 95,-201.028"/>
<polygon fill="midnightblue" stroke="midnightblue" points="91.5001,-230.822 95,-240.822 98.5001,-230.822 91.5001,-230.822"/>
</g>
<!-- Node6 -->
<g id="node10" class="node"><title>Node6</title>
<a xlink:href="class_kitware_1_1_v_t_k_1_1vtk_algorithm.html" target="_top" xlink:title="vtkAlgorithm &#45; Superclass for all sources, filters, and sinks in VTK.">
<polygon fill="none" stroke="black" points="56.5,-301 56.5,-321 133.5,-321 133.5,-301 56.5,-301"/>
<text text-anchor="middle" x="95" y="-308" font-family="FreeSans" font-size="10.00">vtkAlgorithm</text>
</a>
</g>
<!-- Node6&#45;&gt;Node5 -->
<g id="edge10" class="edge"><title>Node6&#45;&gt;Node5</title>
<path fill="none" stroke="midnightblue" d="M95,-290.516C95,-280.562 95,-269.05 95,-261.028"/>
<polygon fill="midnightblue" stroke="midnightblue" points="91.5001,-290.822 95,-300.822 98.5001,-290.822 91.5001,-290.822"/>
</g>
<!-- Node7 -->
<g id="node12" class="node"><title>Node7</title>
<a xlink:href="class_kitware_1_1_v_t_k_1_1vtk_object.html" target="_top" xlink:title="vtkObject &#45; abstract base class for most VTK objects">
<polygon fill="none" stroke="black" points="64,-361 64,-381 126,-381 126,-361 64,-361"/>
<text text-anchor="middle" x="95" y="-368" font-family="FreeSans" font-size="10.00">vtkObject</text>
</a>
</g>
<!-- Node7&#45;&gt;Node6 -->
<g id="edge12" class="edge"><title>Node7&#45;&gt;Node6</title>
<path fill="none" stroke="midnightblue" d="M95,-350.516C95,-340.562 95,-329.05 95,-321.028"/>
<polygon fill="midnightblue" stroke="midnightblue" points="91.5001,-350.822 95,-360.822 98.5001,-350.822 91.5001,-350.822"/>
</g>
<!-- Node8 -->
<g id="node14" class="node"><title>Node8</title>
<a xlink:href="class_kitware_1_1_v_t_k_1_1vtk_object_base.html" target="_top" xlink:title="vtkObjectBase &#45; abstract base class for most VTK objects">
<polygon fill="none" stroke="black" points="115,-801 115,-821 201,-821 201,-801 115,-801"/>
<text text-anchor="middle" x="158" y="-808" font-family="FreeSans" font-size="10.00">vtkObjectBase</text>
</a>
</g>
<!-- Node8&#45;&gt;Node7 -->
<g id="edge14" class="edge"><title>Node8&#45;&gt;Node7</title>
<path fill="none" stroke="midnightblue" d="M129.423,-795.886C115.687,-787.44 99.8844,-775.826 89,-762 77.1564,-746.955 76.6209,-740.802 73,-722 47.4248,-589.199 82.5766,-423.437 92.5155,-381.17"/>
<polygon fill="midnightblue" stroke="midnightblue" points="127.683,-798.923 138.079,-800.97 131.229,-792.887 127.683,-798.923"/>
</g>
<!-- Node11 -->
<g id="node21" class="node"><title>Node11</title>
<a xlink:href="class_kitware_1_1_v_t_k_1_1vtk_object.html" target="_top" xlink:title="vtkObject &#45; abstract base class for most VTK objects">
<polygon fill="none" stroke="black" points="98,-741 98,-761 218,-761 218,-741 98,-741"/>
<text text-anchor="middle" x="158" y="-748" font-family="FreeSans" font-size="10.00">Kitware.VTK.vtkObject</text>
</a>
</g>
<!-- Node8&#45;&gt;Node11 -->
<g id="edge24" class="edge"><title>Node8&#45;&gt;Node11</title>
<path fill="none" stroke="midnightblue" d="M158,-790.516C158,-780.562 158,-769.05 158,-761.028"/>
<polygon fill="midnightblue" stroke="midnightblue" points="154.5,-790.822 158,-800.822 161.5,-790.822 154.5,-790.822"/>
</g>
<!-- Node9 -->
<g id="node16" class="node"><title>Node9</title>
<a xlink:href="class_kitware_1_1_v_t_k_1_1_wrapped_object.html" target="_top" xlink:title="Base class for all the mummy wrapped classes in Kitware.VTK.">
<polygon fill="none" stroke="black" points="296.5,-861 296.5,-881 385.5,-881 385.5,-861 296.5,-861"/>
<text text-anchor="middle" x="341" y="-868" font-family="FreeSans" font-size="10.00">WrappedObject</text>
</a>
</g>
<!-- Node9&#45;&gt;Node8 -->
<g id="edge16" class="edge"><title>Node9&#45;&gt;Node8</title>
<path fill="none" stroke="midnightblue" d="M300.804,-857.821C267.042,-846.752 219.512,-831.168 188.73,-821.075"/>
<polygon fill="midnightblue" stroke="midnightblue" points="299.777,-861.168 310.37,-860.957 301.958,-854.516 299.777,-861.168"/>
</g>
<!-- Node10 -->
<g id="node18" class="node"><title>Node10</title>
<a xlink:href="class_kitware_1_1_v_t_k_1_1vtk_object_event_relay.html" target="_top" xlink:title="Implement a relay handler for VTK events. This is a class that receives events directly from the VTK ...">
<polygon fill="none" stroke="black" points="87,-551 87,-571 259,-571 259,-551 87,-551"/>
<text text-anchor="middle" x="173" y="-558" font-family="FreeSans" font-size="10.00">Kitware.VTK.vtkObjectEventRelay</text>
</a>
</g>
<!-- Node9&#45;&gt;Node10 -->
<g id="edge20" class="edge"><title>Node9&#45;&gt;Node10</title>
<path fill="none" stroke="midnightblue" d="M353.888,-852.325C386.276,-802.899 463.803,-667.191 396,-590 386.773,-579.495 318.047,-571.666 259.298,-566.808"/>
<polygon fill="midnightblue" stroke="midnightblue" points="350.891,-850.509 348.239,-860.767 356.709,-854.402 350.891,-850.509"/>
</g>
<!-- Node10&#45;&gt;Node7 -->
<g id="edge18" class="edge"><title>Node10&#45;&gt;Node7</title>
<path fill="none" stroke="#9a32cd" stroke-dasharray="5,2" d="M164.921,-541.321C148.489,-501.293 111.674,-411.616 99.2144,-381.266"/>
<polygon fill="#9a32cd" stroke="#9a32cd" points="161.771,-542.863 168.806,-550.785 168.246,-540.205 161.771,-542.863"/>
<text text-anchor="middle" x="272.5" y="-523" font-family="FreeSans" font-size="10.00"> LeftButtonReleaseEvtRelay</text>
<text text-anchor="middle" x="272.5" y="-511" font-family="FreeSans" font-size="10.00">KeyPressEvtRelay</text>
<text text-anchor="middle" x="272.5" y="-499" font-family="FreeSans" font-size="10.00">DomainModifiedEvtRelay</text>
<text text-anchor="middle" x="272.5" y="-487" font-family="FreeSans" font-size="10.00">VolumeMapperComputeGradientsStartEvtRelay</text>
<text text-anchor="middle" x="272.5" y="-475" font-family="FreeSans" font-size="10.00">ErrorEvtRelay</text>
<text text-anchor="middle" x="272.5" y="-463" font-family="FreeSans" font-size="10.00">VolumeMapperRenderStartEvtRelay</text>
<text text-anchor="middle" x="272.5" y="-451" font-family="FreeSans" font-size="10.00">StartEvtRelay</text>
<text text-anchor="middle" x="272.5" y="-439" font-family="FreeSans" font-size="10.00">ResetCameraEvtRelay</text>
<text text-anchor="middle" x="272.5" y="-427" font-family="FreeSans" font-size="10.00">EnableEvtRelay</text>
<text text-anchor="middle" x="272.5" y="-415" font-family="FreeSans" font-size="10.00">DeleteEvtRelay</text>
<text text-anchor="middle" x="272.5" y="-403" font-family="FreeSans" font-size="10.00">...</text>
</g>
<!-- Node10&#45;&gt;Node11 -->
<g id="edge26" class="edge"><title>Node10&#45;&gt;Node11</title>
<path fill="none" stroke="#9a32cd" stroke-dasharray="5,2" d="M170.028,-581.231C169.649,-584.169 169.293,-587.159 169,-590 163.144,-646.853 159.636,-715.333 158.452,-740.807"/>
<polygon fill="#9a32cd" stroke="#9a32cd" points="173.515,-581.565 171.421,-571.179 166.582,-580.604 173.515,-581.565"/>
<text text-anchor="middle" x="282.5" y="-713" font-family="FreeSans" font-size="10.00"> LeftButtonReleaseEvtRelay</text>
<text text-anchor="middle" x="282.5" y="-701" font-family="FreeSans" font-size="10.00">KeyPressEvtRelay</text>
<text text-anchor="middle" x="282.5" y="-689" font-family="FreeSans" font-size="10.00">DomainModifiedEvtRelay</text>
<text text-anchor="middle" x="282.5" y="-677" font-family="FreeSans" font-size="10.00">VolumeMapperComputeGradientsStartEvtRelay</text>
<text text-anchor="middle" x="282.5" y="-665" font-family="FreeSans" font-size="10.00">ErrorEvtRelay</text>
<text text-anchor="middle" x="282.5" y="-653" font-family="FreeSans" font-size="10.00">VolumeMapperRenderStartEvtRelay</text>
<text text-anchor="middle" x="282.5" y="-641" font-family="FreeSans" font-size="10.00">StartEvtRelay</text>
<text text-anchor="middle" x="282.5" y="-629" font-family="FreeSans" font-size="10.00">ResetCameraEvtRelay</text>
<text text-anchor="middle" x="282.5" y="-617" font-family="FreeSans" font-size="10.00">EnableEvtRelay</text>
<text text-anchor="middle" x="282.5" y="-605" font-family="FreeSans" font-size="10.00">DeleteEvtRelay</text>
<text text-anchor="middle" x="282.5" y="-593" font-family="FreeSans" font-size="10.00">...</text>
</g>
<!-- Node11&#45;&gt;Node10 -->
<g id="edge22" class="edge"><title>Node11&#45;&gt;Node10</title>
<path fill="none" stroke="#9a32cd" stroke-dasharray="5,2" d="M111.979,-735.818C106.439,-732.138 101.51,-727.596 98,-722 66.8229,-672.303 64.8299,-638.389 98,-590 102.736,-583.091 119.511,-576.287 135.999,-571.008"/>
<polygon fill="#9a32cd" stroke="#9a32cd" points="110.639,-739.079 121.072,-740.919 114.064,-732.974 110.639,-739.079"/>
<text text-anchor="middle" x="122" y="-659" font-family="FreeSans" font-size="10.00"> Sender</text>
<text text-anchor="middle" x="122" y="-647" font-family="FreeSans" font-size="10.00">EventImpl</text>
</g>
</g>
</svg>
