<?xml version="1.0" encoding="UTF-8" standalone="no"?>
<!DOCTYPE svg PUBLIC "-//W3C//DTD SVG 1.1//EN"
 "http://www.w3.org/Graphics/SVG/1.1/DTD/svg11.dtd">
<!-- Generated by graphviz version 2.26.3 (20100126.1600)
 -->
<!-- Title: G Pages: 1 -->
<svg width="1258pt" height="313pt"
 viewBox="0.00 0.00 1258.00 313.00" xmlns="http://www.w3.org/2000/svg" xmlns:xlink="http://www.w3.org/1999/xlink">
<g id="graph1" class="graph" transform="scale(1 1) rotate(0) translate(4 309)">
<title>G</title>
<!-- Node1 -->
<g id="node1" class="node"><title>Node1</title>
<polygon fill="#bfbfbf" stroke="black" points="446.5,-171 446.5,-191 611.5,-191 611.5,-171 446.5,-171"/>
<text text-anchor="middle" x="529" y="-178" font-family="FreeSans" font-size="10.00">Kitware.VTK.vtkPolyDataPainter</text>
</g>
<!-- Node6 -->
<g id="node11" class="node"><title>Node6</title>
<a xlink:href="class_kitware_1_1_v_t_k_1_1vtk_chooser_painter.html" target="_top" xlink:title="vtkChooserPainter &#45; Painter that selects painters to render primitives.">
<polygon fill="none" stroke="black" points="699,-285 699,-305 861,-305 861,-285 699,-285"/>
<text text-anchor="middle" x="780" y="-292" font-family="FreeSans" font-size="10.00">Kitware.VTK.vtkChooserPainter</text>
</a>
</g>
<!-- Node1&#45;&gt;Node6 -->
<g id="edge10" class="edge"><title>Node1&#45;&gt;Node6</title>
<path fill="none" stroke="midnightblue" d="M544.932,-198.5C566.13,-220.552 605.863,-257.769 648,-276 663.831,-282.849 681.627,-287.321 698.903,-290.219"/>
<polygon fill="midnightblue" stroke="midnightblue" points="547.393,-196.008 537.991,-191.125 542.296,-200.805 547.393,-196.008"/>
</g>
<!-- Node7 -->
<g id="node13" class="node"><title>Node7</title>
<a xlink:href="class_kitware_1_1_v_t_k_1_1vtk_coincident_topology_resolution_painter.html" target="_top" xlink:title="vtkCoincidentTopologyResolutionPainter &#45; painter that resolves conicident topology.">
<polygon fill="none" stroke="black" points="648.5,-247 648.5,-267 911.5,-267 911.5,-247 648.5,-247"/>
<text text-anchor="middle" x="780" y="-254" font-family="FreeSans" font-size="10.00">Kitware.VTK.vtkCoincidentTopologyResolutionPainter</text>
</a>
</g>
<!-- Node1&#45;&gt;Node7 -->
<g id="edge12" class="edge"><title>Node1&#45;&gt;Node7</title>
<path fill="none" stroke="midnightblue" d="M554.632,-196.103C578.128,-209.25 614.287,-227.762 648,-238 659.963,-241.633 672.753,-244.579 685.487,-246.965"/>
<polygon fill="midnightblue" stroke="midnightblue" points="556.103,-192.913 545.681,-191.01 552.641,-198.997 556.103,-192.913"/>
</g>
<!-- Node9 -->
<g id="node17" class="node"><title>Node9</title>
<a xlink:href="class_kitware_1_1_v_t_k_1_1vtk_ident_colored_painter.html" target="_top" xlink:title="vtkIdentColoredPainter &#45; DEPRECATED A vtkPolyDataPainter that colors each polygon with a color coded ...">
<polygon fill="none" stroke="black" points="688.5,-209 688.5,-229 871.5,-229 871.5,-209 688.5,-209"/>
<text text-anchor="middle" x="780" y="-216" font-family="FreeSans" font-size="10.00">Kitware.VTK.vtkIdentColoredPainter</text>
</a>
</g>
<!-- Node1&#45;&gt;Node9 -->
<g id="edge16" class="edge"><title>Node1&#45;&gt;Node9</title>
<path fill="none" stroke="midnightblue" d="M600.818,-192.649C616.369,-195.121 632.729,-197.682 648,-200 667.8,-203.006 689.291,-206.149 709.068,-208.995"/>
<polygon fill="midnightblue" stroke="midnightblue" points="601.162,-189.16 590.735,-191.042 600.059,-196.073 601.162,-189.16"/>
</g>
<!-- Node10 -->
<g id="node19" class="node"><title>Node10</title>
<a xlink:href="class_kitware_1_1_v_t_k_1_1vtk_lighting_painter.html" target="_top" xlink:title="vtkLightingPainter &#45; abstract class defining interface for painter that can handle lightin...">
<polygon fill="none" stroke="black" points="700,-171 700,-191 860,-191 860,-171 700,-171"/>
<text text-anchor="middle" x="780" y="-178" font-family="FreeSans" font-size="10.00">Kitware.VTK.vtkLightingPainter</text>
</a>
</g>
<!-- Node1&#45;&gt;Node10 -->
<g id="edge18" class="edge"><title>Node1&#45;&gt;Node10</title>
<path fill="none" stroke="midnightblue" d="M621.658,-181C647.368,-181 675.057,-181 699.979,-181"/>
<polygon fill="midnightblue" stroke="midnightblue" points="621.534,-177.5 611.534,-181 621.534,-184.5 621.534,-177.5"/>
</g>
<!-- Node12 -->
<g id="node23" class="node"><title>Node12</title>
<a xlink:href="class_kitware_1_1_v_t_k_1_1vtk_primitive_painter.html" target="_top" xlink:title="vtkPrimitivePainter &#45; superclass for class that handle single privmitives.">
<polygon fill="none" stroke="black" points="698,-133 698,-153 862,-153 862,-133 698,-133"/>
<text text-anchor="middle" x="780" y="-140" font-family="FreeSans" font-size="10.00">Kitware.VTK.vtkPrimitivePainter</text>
</a>
</g>
<!-- Node1&#45;&gt;Node12 -->
<g id="edge22" class="edge"><title>Node1&#45;&gt;Node12</title>
<path fill="none" stroke="midnightblue" d="M600.818,-169.351C616.369,-166.879 632.729,-164.318 648,-162 667.8,-158.994 689.291,-155.851 709.068,-153.005"/>
<polygon fill="midnightblue" stroke="midnightblue" points="600.059,-165.927 590.735,-170.958 601.162,-172.84 600.059,-165.927"/>
</g>
<!-- Node17 -->
<g id="node33" class="node"><title>Node17</title>
<a xlink:href="class_kitware_1_1_v_t_k_1_1vtk_representation_painter.html" target="_top" xlink:title="vtkRepresentationPainter &#45; painter that handles representation.">
<polygon fill="none" stroke="black" points="683,-86 683,-106 877,-106 877,-86 683,-86"/>
<text text-anchor="middle" x="780" y="-93" font-family="FreeSans" font-size="10.00">Kitware.VTK.vtkRepresentationPainter</text>
</a>
</g>
<!-- Node1&#45;&gt;Node17 -->
<g id="edge32" class="edge"><title>Node1&#45;&gt;Node17</title>
<path fill="none" stroke="midnightblue" d="M555.617,-165.986C579.24,-153.217 615.024,-135.216 648,-124 670.29,-116.418 695.422,-110.474 717.73,-106.05"/>
<polygon fill="midnightblue" stroke="midnightblue" points="553.672,-163.06 546.584,-170.935 557.036,-169.199 553.672,-163.06"/>
</g>
<!-- Node19 -->
<g id="node37" class="node"><title>Node19</title>
<a xlink:href="class_kitware_1_1_v_t_k_1_1vtk_standard_poly_data_painter.html" target="_top" xlink:title="vtkStandardPolyDataPainter &#45; A standard implementation of vtkPolyDataPainter.">
<polygon fill="none" stroke="black" points="675.5,-29 675.5,-49 884.5,-49 884.5,-29 675.5,-29"/>
<text text-anchor="middle" x="780" y="-36" font-family="FreeSans" font-size="10.00">Kitware.VTK.vtkStandardPolyDataPainter</text>
</a>
</g>
<!-- Node1&#45;&gt;Node19 -->
<g id="edge36" class="edge"><title>Node1&#45;&gt;Node19</title>
<path fill="none" stroke="midnightblue" d="M544.7,-163.084C565.916,-139.946 605.951,-99.9317 648,-77 671.972,-63.9267 700.907,-54.9461 725.569,-49.0125"/>
<polygon fill="midnightblue" stroke="midnightblue" points="541.858,-161.01 537.766,-170.782 547.059,-165.695 541.858,-161.01"/>
</g>
<!-- Node2 -->
<g id="node2" class="node"><title>Node2</title>
<a xlink:href="class_kitware_1_1_v_t_k_1_1vtk_painter.html" target="_top" xlink:title="vtkPainter &#45; Abstract class for drawing poly data.">
<polygon fill="none" stroke="black" points="346,-171 346,-191 410,-191 410,-171 346,-171"/>
<text text-anchor="middle" x="378" y="-178" font-family="FreeSans" font-size="10.00">vtkPainter</text>
</a>
</g>
<!-- Node2&#45;&gt;Node1 -->
<g id="edge2" class="edge"><title>Node2&#45;&gt;Node1</title>
<path fill="none" stroke="midnightblue" d="M420.099,-181C428.368,-181 437.306,-181 446.383,-181"/>
<polygon fill="midnightblue" stroke="midnightblue" points="420.023,-177.5 410.023,-181 420.023,-184.5 420.023,-177.5"/>
</g>
<!-- Node3 -->
<g id="node4" class="node"><title>Node3</title>
<a xlink:href="class_kitware_1_1_v_t_k_1_1vtk_object.html" target="_top" xlink:title="vtkObject &#45; abstract base class for most VTK objects">
<polygon fill="none" stroke="black" points="248,-171 248,-191 310,-191 310,-171 248,-171"/>
<text text-anchor="middle" x="279" y="-178" font-family="FreeSans" font-size="10.00">vtkObject</text>
</a>
</g>
<!-- Node3&#45;&gt;Node2 -->
<g id="edge4" class="edge"><title>Node3&#45;&gt;Node2</title>
<path fill="none" stroke="midnightblue" d="M320.195,-181C328.705,-181 337.552,-181 345.691,-181"/>
<polygon fill="midnightblue" stroke="midnightblue" points="320.053,-177.5 310.053,-181 320.053,-184.5 320.053,-177.5"/>
</g>
<!-- Node4 -->
<g id="node6" class="node"><title>Node4</title>
<a xlink:href="class_kitware_1_1_v_t_k_1_1vtk_object_base.html" target="_top" xlink:title="vtkObjectBase &#45; abstract base class for most VTK objects">
<polygon fill="none" stroke="black" points="126,-171 126,-191 212,-191 212,-171 126,-171"/>
<text text-anchor="middle" x="169" y="-178" font-family="FreeSans" font-size="10.00">vtkObjectBase</text>
</a>
</g>
<!-- Node4&#45;&gt;Node3 -->
<g id="edge6" class="edge"><title>Node4&#45;&gt;Node3</title>
<path fill="none" stroke="midnightblue" d="M222.346,-181C231.091,-181 239.892,-181 247.863,-181"/>
<polygon fill="midnightblue" stroke="midnightblue" points="222.159,-177.5 212.159,-181 222.159,-184.5 222.159,-177.5"/>
</g>
<!-- Node5 -->
<g id="node8" class="node"><title>Node5</title>
<a xlink:href="class_kitware_1_1_v_t_k_1_1_wrapped_object.html" target="_top" xlink:title="Base class for all the mummy wrapped classes in Kitware.VTK.">
<polygon fill="none" stroke="black" points="0.5,-171 0.5,-191 89.5,-191 89.5,-171 0.5,-171"/>
<text text-anchor="middle" x="45" y="-178" font-family="FreeSans" font-size="10.00">WrappedObject</text>
</a>
</g>
<!-- Node5&#45;&gt;Node4 -->
<g id="edge8" class="edge"><title>Node5&#45;&gt;Node4</title>
<path fill="none" stroke="midnightblue" d="M99.8895,-181C108.623,-181 117.548,-181 125.957,-181"/>
<polygon fill="midnightblue" stroke="midnightblue" points="99.7669,-177.5 89.7668,-181 99.7668,-184.5 99.7669,-177.5"/>
</g>
<!-- Node8 -->
<g id="node15" class="node"><title>Node8</title>
<a xlink:href="class_kitware_1_1_v_t_k_1_1vtk_open_g_l_coincident_topology_resolution_painter.html" target="_top" xlink:title="vtkOpenGLCoincidentTopologyResolutionPainter">
<polygon fill="none" stroke="black" points="948.5,-266 948.5,-286 1249.5,-286 1249.5,-266 948.5,-266"/>
<text text-anchor="middle" x="1099" y="-273" font-family="FreeSans" font-size="10.00">Kitware.VTK.vtkOpenGLCoincidentTopologyResolutionPainter</text>
</a>
</g>
<!-- Node7&#45;&gt;Node8 -->
<g id="edge14" class="edge"><title>Node7&#45;&gt;Node8</title>
<path fill="none" stroke="midnightblue" d="M921.846,-265.449C930.616,-265.971 939.457,-266.497 948.263,-267.022"/>
<polygon fill="midnightblue" stroke="midnightblue" points="921.782,-261.939 911.591,-264.838 921.365,-268.926 921.782,-261.939"/>
</g>
<!-- Node11 -->
<g id="node21" class="node"><title>Node11</title>
<a xlink:href="class_kitware_1_1_v_t_k_1_1vtk_open_g_l_lighting_painter.html" target="_top" xlink:title="vtkOpenGLLightingPainter &#45; painter that manages lighting.">
<polygon fill="none" stroke="black" points="1000,-228 1000,-248 1198,-248 1198,-228 1000,-228"/>
<text text-anchor="middle" x="1099" y="-235" font-family="FreeSans" font-size="10.00">Kitware.VTK.vtkOpenGLLightingPainter</text>
</a>
</g>
<!-- Node10&#45;&gt;Node11 -->
<g id="edge20" class="edge"><title>Node10&#45;&gt;Node11</title>
<path fill="none" stroke="midnightblue" d="M870.449,-189.813C884.543,-192.386 898.8,-195.709 912,-200 929.205,-205.593 930.745,-213.56 948,-219 964.38,-224.164 982.176,-227.93 999.614,-230.676"/>
<polygon fill="midnightblue" stroke="midnightblue" points="870.679,-186.301 860.233,-188.068 869.501,-193.201 870.679,-186.301"/>
</g>
<!-- Node13 -->
<g id="node25" class="node"><title>Node13</title>
<a xlink:href="class_kitware_1_1_v_t_k_1_1vtk_lines_painter.html" target="_top" xlink:title="vtkLinesPainter &#45; painter that paints lines.">
<polygon fill="none" stroke="black" points="1025.5,-190 1025.5,-210 1172.5,-210 1172.5,-190 1025.5,-190"/>
<text text-anchor="middle" x="1099" y="-197" font-family="FreeSans" font-size="10.00">Kitware.VTK.vtkLinesPainter</text>
</a>
</g>
<!-- Node12&#45;&gt;Node13 -->
<g id="edge24" class="edge"><title>Node12&#45;&gt;Node13</title>
<path fill="none" stroke="midnightblue" d="M872.547,-152.201C885.955,-154.718 899.454,-157.922 912,-162 929.205,-167.593 930.745,-175.56 948,-181 972.569,-188.746 1000.33,-193.347 1025.28,-196.076"/>
<polygon fill="midnightblue" stroke="midnightblue" points="872.784,-148.689 862.329,-150.407 871.573,-155.584 872.784,-148.689"/>
</g>
<!-- Node14 -->
<g id="node27" class="node"><title>Node14</title>
<a xlink:href="class_kitware_1_1_v_t_k_1_1vtk_points_painter.html" target="_top" xlink:title="vtkPointsPainter &#45; this painter paints verts.">
<polygon fill="none" stroke="black" points="1023,-152 1023,-172 1175,-172 1175,-152 1023,-152"/>
<text text-anchor="middle" x="1099" y="-159" font-family="FreeSans" font-size="10.00">Kitware.VTK.vtkPointsPainter</text>
</a>
</g>
<!-- Node12&#45;&gt;Node14 -->
<g id="edge26" class="edge"><title>Node12&#45;&gt;Node14</title>
<path fill="none" stroke="midnightblue" d="M872.191,-148.491C919.983,-151.338 977.649,-154.772 1022.88,-157.466"/>
<polygon fill="midnightblue" stroke="midnightblue" points="872.341,-144.994 862.15,-147.893 871.925,-151.981 872.341,-144.994"/>
</g>
<!-- Node15 -->
<g id="node29" class="node"><title>Node15</title>
<a xlink:href="class_kitware_1_1_v_t_k_1_1vtk_polygons_painter.html" target="_top" xlink:title="vtkPolygonsPainter &#45; this painter paints polygons.">
<polygon fill="none" stroke="black" points="1016.5,-114 1016.5,-134 1181.5,-134 1181.5,-114 1016.5,-114"/>
<text text-anchor="middle" x="1099" y="-121" font-family="FreeSans" font-size="10.00">Kitware.VTK.vtkPolygonsPainter</text>
</a>
</g>
<!-- Node12&#45;&gt;Node15 -->
<g id="edge28" class="edge"><title>Node12&#45;&gt;Node15</title>
<path fill="none" stroke="midnightblue" d="M872.308,-137.502C917.789,-134.793 972.189,-131.553 1016.3,-128.926"/>
<polygon fill="midnightblue" stroke="midnightblue" points="871.925,-134.019 862.15,-138.107 872.341,-141.006 871.925,-134.019"/>
</g>
<!-- Node16 -->
<g id="node31" class="node"><title>Node16</title>
<a xlink:href="class_kitware_1_1_v_t_k_1_1vtk_t_strips_painter.html" target="_top" xlink:title="vtkTStripsPainter &#45; painter for triangle strips.">
<polygon fill="none" stroke="black" points="1021.5,-76 1021.5,-96 1176.5,-96 1176.5,-76 1021.5,-76"/>
<text text-anchor="middle" x="1099" y="-83" font-family="FreeSans" font-size="10.00">Kitware.VTK.vtkTStripsPainter</text>
</a>
</g>
<!-- Node12&#45;&gt;Node16 -->
<g id="edge30" class="edge"><title>Node12&#45;&gt;Node16</title>
<path fill="none" stroke="midnightblue" d="M840.992,-130.885C863.391,-126.219 888.912,-120.65 912,-115 928.13,-111.053 931.719,-108.267 948,-105 971.703,-100.243 997.753,-96.4592 1021.44,-93.5607"/>
<polygon fill="midnightblue" stroke="midnightblue" points="840.025,-127.51 830.94,-132.962 841.441,-134.366 840.025,-127.51"/>
</g>
<!-- Node18 -->
<g id="node35" class="node"><title>Node18</title>
<a xlink:href="class_kitware_1_1_v_t_k_1_1vtk_open_g_l_representation_painter.html" target="_top" xlink:title="vtkOpenGLRepresentationPainter &#45; painter handling representation using OpenGL.">
<polygon fill="none" stroke="black" points="982.5,-38 982.5,-58 1215.5,-58 1215.5,-38 982.5,-38"/>
<text text-anchor="middle" x="1099" y="-45" font-family="FreeSans" font-size="10.00">Kitware.VTK.vtkOpenGLRepresentationPainter</text>
</a>
</g>
<!-- Node17&#45;&gt;Node18 -->
<g id="edge34" class="edge"><title>Node17&#45;&gt;Node18</title>
<path fill="none" stroke="midnightblue" d="M844.265,-84.1968C875.516,-78.6386 913.66,-72.1216 948,-67 969.298,-63.8235 992.34,-60.7438 1013.86,-58.0213"/>
<polygon fill="midnightblue" stroke="midnightblue" points="843.602,-80.7597 834.374,-85.9647 844.834,-87.6505 843.602,-80.7597"/>
</g>
<!-- Node20 -->
<g id="node39" class="node"><title>Node20</title>
<a xlink:href="class_kitware_1_1_v_t_k_1_1vtk_hardware_selection_poly_data_painter.html" target="_top" xlink:title="vtkHardwareSelectionPolyDataPainter &#45; painter used to render polydata for selection passes...">
<polygon fill="none" stroke="black" points="971.5,-0 971.5,-20 1226.5,-20 1226.5,-0 971.5,-0"/>
<text text-anchor="middle" x="1099" y="-7" font-family="FreeSans" font-size="10.00">Kitware.VTK.vtkHardwareSelectionPolyDataPainter</text>
</a>
</g>
<!-- Node19&#45;&gt;Node20 -->
<g id="edge38" class="edge"><title>Node19&#45;&gt;Node20</title>
<path fill="none" stroke="midnightblue" d="M895.152,-28.5316C925.687,-25.7558 958.577,-22.7658 988.838,-20.0147"/>
<polygon fill="midnightblue" stroke="midnightblue" points="894.536,-25.0731 884.894,-29.4641 895.17,-32.0443 894.536,-25.0731"/>
</g>
</g>
</svg>
