<?xml version="1.0" encoding="UTF-8" standalone="no"?>
<!DOCTYPE svg PUBLIC "-//W3C//DTD SVG 1.1//EN"
 "http://www.w3.org/Graphics/SVG/1.1/DTD/svg11.dtd">
<!-- Generated by graphviz version 2.26.3 (20100126.1600)
 -->
<!-- Title: G Pages: 1 -->
<svg width="1826pt" height="180pt"
 viewBox="0.00 0.00 1826.00 180.00" xmlns="http://www.w3.org/2000/svg" xmlns:xlink="http://www.w3.org/1999/xlink">
<g id="graph1" class="graph" transform="scale(1 1) rotate(0) translate(4 176)">
<title>G</title>
<!-- Node1 -->
<g id="node1" class="node"><title>Node1</title>
<polygon fill="#bfbfbf" stroke="black" points="942,-76 942,-96 1186,-96 1186,-76 942,-76"/>
<text text-anchor="middle" x="1064" y="-83" font-family="FreeSans" font-size="10.00">Kitware.VTK.vtkUnstructuredGridVolumeMapper</text>
</g>
<!-- Node9 -->
<g id="node17" class="node"><title>Node9</title>
<a xlink:href="class_kitware_1_1_v_t_k_1_1vtk_h_a_v_s_volume_mapper.html" target="_top" xlink:title="vtkHAVSVolumeMapper &#45; Hardware&#45;Assisted Visibility Sorting unstructured grid mapper">
<polygon fill="none" stroke="black" points="1270,-152 1270,-172 1458,-172 1458,-152 1270,-152"/>
<text text-anchor="middle" x="1364" y="-159" font-family="FreeSans" font-size="10.00">Kitware.VTK.vtkHAVSVolumeMapper</text>
</a>
</g>
<!-- Node1&#45;&gt;Node9 -->
<g id="edge16" class="edge"><title>Node1&#45;&gt;Node9</title>
<path fill="none" stroke="midnightblue" d="M1096.65,-100.103C1128.17,-113.156 1177.52,-132.134 1222,-143 1237.34,-146.748 1253.81,-149.806 1269.9,-152.286"/>
<polygon fill="midnightblue" stroke="midnightblue" points="1097.65,-96.7268 1087.08,-96.0915 1094.95,-103.183 1097.65,-96.7268"/>
</g>
<!-- Node11 -->
<g id="node21" class="node"><title>Node11</title>
<a xlink:href="class_kitware_1_1_v_t_k_1_1vtk_projected_a_a_hexahedra_mapper.html" target="_top" xlink:title="vtkProjectedAAHexahedraMapper &#45; volume mapper for axis&#45;aligned hexahedra">
<polygon fill="none" stroke="black" points="1246,-114 1246,-134 1482,-134 1482,-114 1246,-114"/>
<text text-anchor="middle" x="1364" y="-121" font-family="FreeSans" font-size="10.00">Kitware.VTK.vtkProjectedAAHexahedraMapper</text>
</a>
</g>
<!-- Node1&#45;&gt;Node11 -->
<g id="edge20" class="edge"><title>Node1&#45;&gt;Node11</title>
<path fill="none" stroke="midnightblue" d="M1153.38,-97.3218C1195.15,-102.613 1244.46,-108.858 1284.86,-113.976"/>
<polygon fill="midnightblue" stroke="midnightblue" points="1153.57,-93.8182 1143.21,-96.0338 1152.69,-100.763 1153.57,-93.8182"/>
</g>
<!-- Node13 -->
<g id="node25" class="node"><title>Node13</title>
<a xlink:href="class_kitware_1_1_v_t_k_1_1vtk_projected_tetrahedra_mapper.html" target="_top" xlink:title="vtkProjectedTetrahedraMapper &#45; Unstructured grid volume renderer.">
<polygon fill="none" stroke="black" points="1253.5,-76 1253.5,-96 1474.5,-96 1474.5,-76 1253.5,-76"/>
<text text-anchor="middle" x="1364" y="-83" font-family="FreeSans" font-size="10.00">Kitware.VTK.vtkProjectedTetrahedraMapper</text>
</a>
</g>
<!-- Node1&#45;&gt;Node13 -->
<g id="edge24" class="edge"><title>Node1&#45;&gt;Node13</title>
<path fill="none" stroke="midnightblue" d="M1196.23,-86C1215.25,-86 1234.65,-86 1253.2,-86"/>
<polygon fill="midnightblue" stroke="midnightblue" points="1196.02,-82.5001 1186.02,-86 1196.02,-89.5001 1196.02,-82.5001"/>
</g>
<!-- Node15 -->
<g id="node29" class="node"><title>Node15</title>
<a xlink:href="class_kitware_1_1_v_t_k_1_1vtk_unstructured_grid_volume_ray_cast_mapper.html" target="_top" xlink:title="vtkUnstructuredGridVolumeRayCastMapper &#45; A software mapper for unstructured volumes">
<polygon fill="none" stroke="black" points="1222.5,-38 1222.5,-58 1505.5,-58 1505.5,-38 1222.5,-38"/>
<text text-anchor="middle" x="1364" y="-45" font-family="FreeSans" font-size="10.00">Kitware.VTK.vtkUnstructuredGridVolumeRayCastMapper</text>
</a>
</g>
<!-- Node1&#45;&gt;Node15 -->
<g id="edge28" class="edge"><title>Node1&#45;&gt;Node15</title>
<path fill="none" stroke="midnightblue" d="M1153.38,-74.6782C1195.15,-69.3874 1244.46,-63.1417 1284.86,-58.024"/>
<polygon fill="midnightblue" stroke="midnightblue" points="1152.69,-71.2373 1143.21,-75.9662 1153.57,-78.1818 1152.69,-71.2373"/>
</g>
<!-- Node16 -->
<g id="node31" class="node"><title>Node16</title>
<a xlink:href="class_kitware_1_1_v_t_k_1_1vtk_unstructured_grid_volume_z_sweep_mapper.html" target="_top" xlink:title="vtkUnstructuredGridVolumeZSweepMapper &#45; Unstructured grid volume mapper based the ZSweep Algorithm...">
<polygon fill="none" stroke="black" points="1222.5,-0 1222.5,-20 1505.5,-20 1505.5,-0 1222.5,-0"/>
<text text-anchor="middle" x="1364" y="-7" font-family="FreeSans" font-size="10.00">Kitware.VTK.vtkUnstructuredGridVolumeZSweepMapper</text>
</a>
</g>
<!-- Node1&#45;&gt;Node16 -->
<g id="edge30" class="edge"><title>Node1&#45;&gt;Node16</title>
<path fill="none" stroke="midnightblue" d="M1096.65,-71.8968C1128.17,-58.8444 1177.52,-39.8663 1222,-29 1236.74,-25.3991 1252.52,-22.4355 1268,-20.0099"/>
<polygon fill="midnightblue" stroke="midnightblue" points="1094.95,-68.8167 1087.08,-75.9085 1097.65,-75.2732 1094.95,-68.8167"/>
</g>
<!-- Node2 -->
<g id="node2" class="node"><title>Node2</title>
<a xlink:href="class_kitware_1_1_v_t_k_1_1vtk_abstract_volume_mapper.html" target="_top" xlink:title="vtkAbstractVolumeMapper &#45; Abstract class for a volume mapper">
<polygon fill="none" stroke="black" points="762.5,-76 762.5,-96 905.5,-96 905.5,-76 762.5,-76"/>
<text text-anchor="middle" x="834" y="-83" font-family="FreeSans" font-size="10.00">vtkAbstractVolumeMapper</text>
</a>
</g>
<!-- Node2&#45;&gt;Node1 -->
<g id="edge2" class="edge"><title>Node2&#45;&gt;Node1</title>
<path fill="none" stroke="midnightblue" d="M915.736,-86C924.236,-86 933.002,-86 941.824,-86"/>
<polygon fill="midnightblue" stroke="midnightblue" points="915.513,-82.5001 905.513,-86 915.513,-89.5001 915.513,-82.5001"/>
</g>
<!-- Node3 -->
<g id="node4" class="node"><title>Node3</title>
<a xlink:href="class_kitware_1_1_v_t_k_1_1vtk_abstract_mapper3_d.html" target="_top" xlink:title="vtkAbstractMapper3D &#45; abstract class specifies interface to map 3D data">
<polygon fill="none" stroke="black" points="604.5,-76 604.5,-96 725.5,-96 725.5,-76 604.5,-76"/>
<text text-anchor="middle" x="665" y="-83" font-family="FreeSans" font-size="10.00">vtkAbstractMapper3D</text>
</a>
</g>
<!-- Node3&#45;&gt;Node2 -->
<g id="edge4" class="edge"><title>Node3&#45;&gt;Node2</title>
<path fill="none" stroke="midnightblue" d="M735.746,-86C744.544,-86 753.546,-86 762.357,-86"/>
<polygon fill="midnightblue" stroke="midnightblue" points="735.536,-82.5001 725.536,-86 735.535,-89.5001 735.536,-82.5001"/>
</g>
<!-- Node4 -->
<g id="node6" class="node"><title>Node4</title>
<a xlink:href="class_kitware_1_1_v_t_k_1_1vtk_abstract_mapper.html" target="_top" xlink:title="vtkAbstractMapper &#45; abstract class specifies interface to map data">
<polygon fill="none" stroke="black" points="460.5,-76 460.5,-96 567.5,-96 567.5,-76 460.5,-76"/>
<text text-anchor="middle" x="514" y="-83" font-family="FreeSans" font-size="10.00">vtkAbstractMapper</text>
</a>
</g>
<!-- Node4&#45;&gt;Node3 -->
<g id="edge6" class="edge"><title>Node4&#45;&gt;Node3</title>
<path fill="none" stroke="midnightblue" d="M577.833,-86C586.606,-86 595.595,-86 604.31,-86"/>
<polygon fill="midnightblue" stroke="midnightblue" points="577.662,-82.5001 567.662,-86 577.662,-89.5001 577.662,-82.5001"/>
</g>
<!-- Node5 -->
<g id="node8" class="node"><title>Node5</title>
<a xlink:href="class_kitware_1_1_v_t_k_1_1vtk_algorithm.html" target="_top" xlink:title="vtkAlgorithm &#45; Superclass for all sources, filters, and sinks in VTK.">
<polygon fill="none" stroke="black" points="346.5,-76 346.5,-96 423.5,-96 423.5,-76 346.5,-76"/>
<text text-anchor="middle" x="385" y="-83" font-family="FreeSans" font-size="10.00">vtkAlgorithm</text>
</a>
</g>
<!-- Node5&#45;&gt;Node4 -->
<g id="edge8" class="edge"><title>Node5&#45;&gt;Node4</title>
<path fill="none" stroke="midnightblue" d="M433.896,-86C442.445,-86 451.384,-86 460.06,-86"/>
<polygon fill="midnightblue" stroke="midnightblue" points="433.704,-82.5001 423.704,-86 433.704,-89.5001 433.704,-82.5001"/>
</g>
<!-- Node6 -->
<g id="node10" class="node"><title>Node6</title>
<a xlink:href="class_kitware_1_1_v_t_k_1_1vtk_object.html" target="_top" xlink:title="vtkObject &#45; abstract base class for most VTK objects">
<polygon fill="none" stroke="black" points="248,-76 248,-96 310,-96 310,-76 248,-76"/>
<text text-anchor="middle" x="279" y="-83" font-family="FreeSans" font-size="10.00">vtkObject</text>
</a>
</g>
<!-- Node6&#45;&gt;Node5 -->
<g id="edge10" class="edge"><title>Node6&#45;&gt;Node5</title>
<path fill="none" stroke="midnightblue" d="M320.421,-86C329.001,-86 338.007,-86 346.479,-86"/>
<polygon fill="midnightblue" stroke="midnightblue" points="320.23,-82.5001 310.23,-86 320.23,-89.5001 320.23,-82.5001"/>
</g>
<!-- Node7 -->
<g id="node12" class="node"><title>Node7</title>
<a xlink:href="class_kitware_1_1_v_t_k_1_1vtk_object_base.html" target="_top" xlink:title="vtkObjectBase &#45; abstract base class for most VTK objects">
<polygon fill="none" stroke="black" points="126,-76 126,-96 212,-96 212,-76 126,-76"/>
<text text-anchor="middle" x="169" y="-83" font-family="FreeSans" font-size="10.00">vtkObjectBase</text>
</a>
</g>
<!-- Node7&#45;&gt;Node6 -->
<g id="edge12" class="edge"><title>Node7&#45;&gt;Node6</title>
<path fill="none" stroke="midnightblue" d="M222.346,-86C231.091,-86 239.892,-86 247.863,-86"/>
<polygon fill="midnightblue" stroke="midnightblue" points="222.159,-82.5001 212.159,-86 222.159,-89.5001 222.159,-82.5001"/>
</g>
<!-- Node8 -->
<g id="node14" class="node"><title>Node8</title>
<a xlink:href="class_kitware_1_1_v_t_k_1_1_wrapped_object.html" target="_top" xlink:title="Base class for all the mummy wrapped classes in Kitware.VTK.">
<polygon fill="none" stroke="black" points="0.5,-76 0.5,-96 89.5,-96 89.5,-76 0.5,-76"/>
<text text-anchor="middle" x="45" y="-83" font-family="FreeSans" font-size="10.00">WrappedObject</text>
</a>
</g>
<!-- Node8&#45;&gt;Node7 -->
<g id="edge14" class="edge"><title>Node8&#45;&gt;Node7</title>
<path fill="none" stroke="midnightblue" d="M99.8895,-86C108.623,-86 117.548,-86 125.957,-86"/>
<polygon fill="midnightblue" stroke="midnightblue" points="99.7669,-82.5001 89.7668,-86 99.7668,-89.5001 99.7669,-82.5001"/>
</g>
<!-- Node10 -->
<g id="node19" class="node"><title>Node10</title>
<a xlink:href="class_kitware_1_1_v_t_k_1_1vtk_open_g_l_h_a_v_s_volume_mapper.html" target="_top" xlink:title="vtkOpenGLHAVSVolumeMapper &#45; Hardware&#45;Assisted Visibility Sorting unstructured grid mapper...">
<polygon fill="none" stroke="black" points="1566.5,-152 1566.5,-172 1793.5,-172 1793.5,-152 1566.5,-152"/>
<text text-anchor="middle" x="1680" y="-159" font-family="FreeSans" font-size="10.00">Kitware.VTK.vtkOpenGLHAVSVolumeMapper</text>
</a>
</g>
<!-- Node9&#45;&gt;Node10 -->
<g id="edge18" class="edge"><title>Node9&#45;&gt;Node10</title>
<path fill="none" stroke="midnightblue" d="M1468.45,-162C1499.81,-162 1534.37,-162 1566.3,-162"/>
<polygon fill="midnightblue" stroke="midnightblue" points="1468.38,-158.5 1458.38,-162 1468.38,-165.5 1468.38,-158.5"/>
</g>
<!-- Node12 -->
<g id="node23" class="node"><title>Node12</title>
<a xlink:href="class_kitware_1_1_v_t_k_1_1vtk_open_g_l_projected_a_a_hexahedra_mapper.html" target="_top" xlink:title="vtkOpenGLProjectedAAHexahedraMapper &#45; OpenGL implementation of a volume mapper for axis&#45;aligned hexah...">
<polygon fill="none" stroke="black" points="1542.5,-114 1542.5,-134 1817.5,-134 1817.5,-114 1542.5,-114"/>
<text text-anchor="middle" x="1680" y="-121" font-family="FreeSans" font-size="10.00">Kitware.VTK.vtkOpenGLProjectedAAHexahedraMapper</text>
</a>
</g>
<!-- Node11&#45;&gt;Node12 -->
<g id="edge22" class="edge"><title>Node11&#45;&gt;Node12</title>
<path fill="none" stroke="midnightblue" d="M1492.31,-124C1508.79,-124 1525.71,-124 1542.33,-124"/>
<polygon fill="midnightblue" stroke="midnightblue" points="1492.12,-120.5 1482.12,-124 1492.12,-127.5 1492.12,-120.5"/>
</g>
<!-- Node14 -->
<g id="node27" class="node"><title>Node14</title>
<a xlink:href="class_kitware_1_1_v_t_k_1_1vtk_open_g_l_projected_tetrahedra_mapper.html" target="_top" xlink:title="vtkOpenGLProjectedTetrahedraMapper &#45; OpenGL implementation of PT">
<polygon fill="none" stroke="black" points="1550,-76 1550,-96 1810,-96 1810,-76 1550,-76"/>
<text text-anchor="middle" x="1680" y="-83" font-family="FreeSans" font-size="10.00">Kitware.VTK.vtkOpenGLProjectedTetrahedraMapper</text>
</a>
</g>
<!-- Node13&#45;&gt;Node14 -->
<g id="edge26" class="edge"><title>Node13&#45;&gt;Node14</title>
<path fill="none" stroke="midnightblue" d="M1484.57,-86C1505.89,-86 1528.18,-86 1549.75,-86"/>
<polygon fill="midnightblue" stroke="midnightblue" points="1484.52,-82.5001 1474.52,-86 1484.52,-89.5001 1484.52,-82.5001"/>
</g>
</g>
</svg>
