<?xml version="1.0" encoding="UTF-8" standalone="no"?>
<!DOCTYPE svg PUBLIC "-//W3C//DTD SVG 1.1//EN"
 "http://www.w3.org/Graphics/SVG/1.1/DTD/svg11.dtd">
<!-- Generated by graphviz version 2.26.3 (20100126.1600)
 -->
<!-- Title: G Pages: 1 -->
<svg width="504pt" height="436pt"
 viewBox="0.00 0.00 504.00 436.00" xmlns="http://www.w3.org/2000/svg" xmlns:xlink="http://www.w3.org/1999/xlink">
<g id="graph1" class="graph" transform="scale(1 1) rotate(0) translate(4 432)">
<title>G</title>
<!-- Node1 -->
<g id="node1" class="node"><title>Node1</title>
<polygon fill="#bfbfbf" stroke="black" points="156,-59 156,-79 308,-79 308,-59 156,-59"/>
<text text-anchor="middle" x="232" y="-66" font-family="FreeSans" font-size="10.00">Kitware.VTK.vtkImageReslice</text>
</g>
<!-- Node8 -->
<g id="node15" class="node"><title>Node8</title>
<a xlink:href="class_kitware_1_1_v_t_k_1_1vtk_image_flip.html" target="_top" xlink:title="vtkImageFlip &#45; This flips an axis of an image. Right becomes left ...">
<polygon fill="none" stroke="black" points="-0.5,-1 -0.5,-21 134.5,-21 134.5,-1 -0.5,-1"/>
<text text-anchor="middle" x="67" y="-8" font-family="FreeSans" font-size="10.00">Kitware.VTK.vtkImageFlip</text>
</a>
</g>
<!-- Node1&#45;&gt;Node8 -->
<g id="edge14" class="edge"><title>Node1&#45;&gt;Node8</title>
<path fill="none" stroke="midnightblue" d="M193.569,-55.491C163.654,-44.9752 122.796,-30.6131 95.6878,-21.0842"/>
<polygon fill="midnightblue" stroke="midnightblue" points="192.664,-58.8828 203.259,-58.8972 194.986,-52.2789 192.664,-58.8828"/>
</g>
<!-- Node9 -->
<g id="node17" class="node"><title>Node9</title>
<a xlink:href="class_kitware_1_1_v_t_k_1_1vtk_image_permute.html" target="_top" xlink:title="vtkImagePermute &#45; Permutes axes of input.">
<polygon fill="none" stroke="black" points="151.5,-1 151.5,-21 312.5,-21 312.5,-1 151.5,-1"/>
<text text-anchor="middle" x="232" y="-8" font-family="FreeSans" font-size="10.00">Kitware.VTK.vtkImagePermute</text>
</a>
</g>
<!-- Node1&#45;&gt;Node9 -->
<g id="edge16" class="edge"><title>Node1&#45;&gt;Node9</title>
<path fill="none" stroke="midnightblue" d="M232,-48.8902C232,-39.6201 232,-29.0083 232,-21.3776"/>
<polygon fill="midnightblue" stroke="midnightblue" points="228.5,-48.8971 232,-58.8972 235.5,-48.8972 228.5,-48.8971"/>
</g>
<!-- Node10 -->
<g id="node19" class="node"><title>Node10</title>
<a xlink:href="class_kitware_1_1_v_t_k_1_1vtk_image_resample.html" target="_top" xlink:title="vtkImageResample &#45; Resamples an image to be larger or smaller.">
<polygon fill="none" stroke="black" points="330,-1 330,-21 496,-21 496,-1 330,-1"/>
<text text-anchor="middle" x="413" y="-8" font-family="FreeSans" font-size="10.00">Kitware.VTK.vtkImageResample</text>
</a>
</g>
<!-- Node1&#45;&gt;Node10 -->
<g id="edge18" class="edge"><title>Node1&#45;&gt;Node10</title>
<path fill="none" stroke="midnightblue" d="M273.304,-55.7644C306.193,-45.2254 351.535,-30.6959 381.53,-21.0842"/>
<polygon fill="midnightblue" stroke="midnightblue" points="271.983,-52.5125 263.528,-58.8972 274.119,-59.1786 271.983,-52.5125"/>
</g>
<!-- Node2 -->
<g id="node2" class="node"><title>Node2</title>
<a xlink:href="class_kitware_1_1_v_t_k_1_1vtk_threaded_image_algorithm.html" target="_top" xlink:title="vtkThreadedImageAlgorithm &#45; Generic filter that has one input..">
<polygon fill="none" stroke="black" points="156,-117 156,-137 308,-137 308,-117 156,-117"/>
<text text-anchor="middle" x="232" y="-124" font-family="FreeSans" font-size="10.00">vtkThreadedImageAlgorithm</text>
</a>
</g>
<!-- Node2&#45;&gt;Node1 -->
<g id="edge2" class="edge"><title>Node2&#45;&gt;Node1</title>
<path fill="none" stroke="midnightblue" d="M232,-106.89C232,-97.6201 232,-87.0083 232,-79.3776"/>
<polygon fill="midnightblue" stroke="midnightblue" points="228.5,-106.897 232,-116.897 235.5,-106.897 228.5,-106.897"/>
</g>
<!-- Node3 -->
<g id="node4" class="node"><title>Node3</title>
<a xlink:href="class_kitware_1_1_v_t_k_1_1vtk_image_algorithm.html" target="_top" xlink:title="vtkImageAlgorithm &#45; Generic algorithm superclass for image algs">
<polygon fill="none" stroke="black" points="178.5,-175 178.5,-195 285.5,-195 285.5,-175 178.5,-175"/>
<text text-anchor="middle" x="232" y="-182" font-family="FreeSans" font-size="10.00">vtkImageAlgorithm</text>
</a>
</g>
<!-- Node3&#45;&gt;Node2 -->
<g id="edge4" class="edge"><title>Node3&#45;&gt;Node2</title>
<path fill="none" stroke="midnightblue" d="M232,-164.89C232,-155.62 232,-145.008 232,-137.378"/>
<polygon fill="midnightblue" stroke="midnightblue" points="228.5,-164.897 232,-174.897 235.5,-164.897 228.5,-164.897"/>
</g>
<!-- Node4 -->
<g id="node6" class="node"><title>Node4</title>
<a xlink:href="class_kitware_1_1_v_t_k_1_1vtk_algorithm.html" target="_top" xlink:title="vtkAlgorithm &#45; Superclass for all sources, filters, and sinks in VTK.">
<polygon fill="none" stroke="black" points="193.5,-233 193.5,-253 270.5,-253 270.5,-233 193.5,-233"/>
<text text-anchor="middle" x="232" y="-240" font-family="FreeSans" font-size="10.00">vtkAlgorithm</text>
</a>
</g>
<!-- Node4&#45;&gt;Node3 -->
<g id="edge6" class="edge"><title>Node4&#45;&gt;Node3</title>
<path fill="none" stroke="midnightblue" d="M232,-222.89C232,-213.62 232,-203.008 232,-195.378"/>
<polygon fill="midnightblue" stroke="midnightblue" points="228.5,-222.897 232,-232.897 235.5,-222.897 228.5,-222.897"/>
</g>
<!-- Node5 -->
<g id="node8" class="node"><title>Node5</title>
<a xlink:href="class_kitware_1_1_v_t_k_1_1vtk_object.html" target="_top" xlink:title="vtkObject &#45; abstract base class for most VTK objects">
<polygon fill="none" stroke="black" points="201,-291 201,-311 263,-311 263,-291 201,-291"/>
<text text-anchor="middle" x="232" y="-298" font-family="FreeSans" font-size="10.00">vtkObject</text>
</a>
</g>
<!-- Node5&#45;&gt;Node4 -->
<g id="edge8" class="edge"><title>Node5&#45;&gt;Node4</title>
<path fill="none" stroke="midnightblue" d="M232,-280.89C232,-271.62 232,-261.008 232,-253.378"/>
<polygon fill="midnightblue" stroke="midnightblue" points="228.5,-280.897 232,-290.897 235.5,-280.897 228.5,-280.897"/>
</g>
<!-- Node6 -->
<g id="node10" class="node"><title>Node6</title>
<a xlink:href="class_kitware_1_1_v_t_k_1_1vtk_object_base.html" target="_top" xlink:title="vtkObjectBase &#45; abstract base class for most VTK objects">
<polygon fill="none" stroke="black" points="189,-349 189,-369 275,-369 275,-349 189,-349"/>
<text text-anchor="middle" x="232" y="-356" font-family="FreeSans" font-size="10.00">vtkObjectBase</text>
</a>
</g>
<!-- Node6&#45;&gt;Node5 -->
<g id="edge10" class="edge"><title>Node6&#45;&gt;Node5</title>
<path fill="none" stroke="midnightblue" d="M232,-338.89C232,-329.62 232,-319.008 232,-311.378"/>
<polygon fill="midnightblue" stroke="midnightblue" points="228.5,-338.897 232,-348.897 235.5,-338.897 228.5,-338.897"/>
</g>
<!-- Node7 -->
<g id="node12" class="node"><title>Node7</title>
<a xlink:href="class_kitware_1_1_v_t_k_1_1_wrapped_object.html" target="_top" xlink:title="Base class for all the mummy wrapped classes in Kitware.VTK.">
<polygon fill="none" stroke="black" points="187.5,-407 187.5,-427 276.5,-427 276.5,-407 187.5,-407"/>
<text text-anchor="middle" x="232" y="-414" font-family="FreeSans" font-size="10.00">WrappedObject</text>
</a>
</g>
<!-- Node7&#45;&gt;Node6 -->
<g id="edge12" class="edge"><title>Node7&#45;&gt;Node6</title>
<path fill="none" stroke="midnightblue" d="M232,-396.89C232,-387.62 232,-377.008 232,-369.378"/>
<polygon fill="midnightblue" stroke="midnightblue" points="228.5,-396.897 232,-406.897 235.5,-396.897 228.5,-396.897"/>
</g>
</g>
</svg>
