<?xml version="1.0" encoding="UTF-8" standalone="no"?>
<!DOCTYPE svg PUBLIC "-//W3C//DTD SVG 1.1//EN"
 "http://www.w3.org/Graphics/SVG/1.1/DTD/svg11.dtd">
<!-- Generated by graphviz version 2.26.3 (20100126.1600)
 -->
<!-- Title: G Pages: 1 -->
<svg width="423pt" height="830pt"
 viewBox="0.00 0.00 423.46 830.00" xmlns="http://www.w3.org/2000/svg" xmlns:xlink="http://www.w3.org/1999/xlink">
<g id="graph1" class="graph" transform="scale(1 1) rotate(0) translate(4 826)">
<title>G</title>
<!-- Node1 -->
<g id="node1" class="node"><title>Node1</title>
<polygon fill="#bfbfbf" stroke="black" points="-0.5,-1 -0.5,-21 174.5,-21 174.5,-1 -0.5,-1"/>
<text text-anchor="middle" x="87" y="-8" font-family="FreeSans" font-size="10.00">Kitware.VTK.vtkImageSkeleton2D</text>
</g>
<!-- Node2 -->
<g id="node2" class="node"><title>Node2</title>
<a xlink:href="class_kitware_1_1_v_t_k_1_1vtk_image_iterate_filter.html" target="_top" xlink:title="vtkImageIterateFilter &#45; Multiple executes per update.">
<polygon fill="none" stroke="black" points="29.5,-61 29.5,-81 144.5,-81 144.5,-61 29.5,-61"/>
<text text-anchor="middle" x="87" y="-68" font-family="FreeSans" font-size="10.00">vtkImageIterateFilter</text>
</a>
</g>
<!-- Node2&#45;&gt;Node1 -->
<g id="edge2" class="edge"><title>Node2&#45;&gt;Node1</title>
<path fill="none" stroke="midnightblue" d="M87,-50.5155C87,-40.562 87,-29.0495 87,-21.0279"/>
<polygon fill="midnightblue" stroke="midnightblue" points="83.5001,-50.8218 87,-60.8218 90.5001,-50.8219 83.5001,-50.8218"/>
</g>
<!-- Node3 -->
<g id="node4" class="node"><title>Node3</title>
<a xlink:href="class_kitware_1_1_v_t_k_1_1vtk_threaded_image_algorithm.html" target="_top" xlink:title="vtkThreadedImageAlgorithm &#45; Generic filter that has one input..">
<polygon fill="none" stroke="black" points="11,-121 11,-141 163,-141 163,-121 11,-121"/>
<text text-anchor="middle" x="87" y="-128" font-family="FreeSans" font-size="10.00">vtkThreadedImageAlgorithm</text>
</a>
</g>
<!-- Node3&#45;&gt;Node2 -->
<g id="edge4" class="edge"><title>Node3&#45;&gt;Node2</title>
<path fill="none" stroke="midnightblue" d="M87,-110.516C87,-100.562 87,-89.0495 87,-81.0279"/>
<polygon fill="midnightblue" stroke="midnightblue" points="83.5001,-110.822 87,-120.822 90.5001,-110.822 83.5001,-110.822"/>
</g>
<!-- Node4 -->
<g id="node6" class="node"><title>Node4</title>
<a xlink:href="class_kitware_1_1_v_t_k_1_1vtk_image_algorithm.html" target="_top" xlink:title="vtkImageAlgorithm &#45; Generic algorithm superclass for image algs">
<polygon fill="none" stroke="black" points="33.5,-181 33.5,-201 140.5,-201 140.5,-181 33.5,-181"/>
<text text-anchor="middle" x="87" y="-188" font-family="FreeSans" font-size="10.00">vtkImageAlgorithm</text>
</a>
</g>
<!-- Node4&#45;&gt;Node3 -->
<g id="edge6" class="edge"><title>Node4&#45;&gt;Node3</title>
<path fill="none" stroke="midnightblue" d="M87,-170.516C87,-160.562 87,-149.05 87,-141.028"/>
<polygon fill="midnightblue" stroke="midnightblue" points="83.5001,-170.822 87,-180.822 90.5001,-170.822 83.5001,-170.822"/>
</g>
<!-- Node5 -->
<g id="node8" class="node"><title>Node5</title>
<a xlink:href="class_kitware_1_1_v_t_k_1_1vtk_algorithm.html" target="_top" xlink:title="vtkAlgorithm &#45; Superclass for all sources, filters, and sinks in VTK.">
<polygon fill="none" stroke="black" points="48.5,-241 48.5,-261 125.5,-261 125.5,-241 48.5,-241"/>
<text text-anchor="middle" x="87" y="-248" font-family="FreeSans" font-size="10.00">vtkAlgorithm</text>
</a>
</g>
<!-- Node5&#45;&gt;Node4 -->
<g id="edge8" class="edge"><title>Node5&#45;&gt;Node4</title>
<path fill="none" stroke="midnightblue" d="M87,-230.516C87,-220.562 87,-209.05 87,-201.028"/>
<polygon fill="midnightblue" stroke="midnightblue" points="83.5001,-230.822 87,-240.822 90.5001,-230.822 83.5001,-230.822"/>
</g>
<!-- Node6 -->
<g id="node10" class="node"><title>Node6</title>
<a xlink:href="class_kitware_1_1_v_t_k_1_1vtk_object.html" target="_top" xlink:title="vtkObject &#45; abstract base class for most VTK objects">
<polygon fill="none" stroke="black" points="56,-301 56,-321 118,-321 118,-301 56,-301"/>
<text text-anchor="middle" x="87" y="-308" font-family="FreeSans" font-size="10.00">vtkObject</text>
</a>
</g>
<!-- Node6&#45;&gt;Node5 -->
<g id="edge10" class="edge"><title>Node6&#45;&gt;Node5</title>
<path fill="none" stroke="midnightblue" d="M87,-290.516C87,-280.562 87,-269.05 87,-261.028"/>
<polygon fill="midnightblue" stroke="midnightblue" points="83.5001,-290.822 87,-300.822 90.5001,-290.822 83.5001,-290.822"/>
</g>
<!-- Node7 -->
<g id="node12" class="node"><title>Node7</title>
<a xlink:href="class_kitware_1_1_v_t_k_1_1vtk_object_base.html" target="_top" xlink:title="vtkObjectBase &#45; abstract base class for most VTK objects">
<polygon fill="none" stroke="black" points="107,-741 107,-761 193,-761 193,-741 107,-741"/>
<text text-anchor="middle" x="150" y="-748" font-family="FreeSans" font-size="10.00">vtkObjectBase</text>
</a>
</g>
<!-- Node7&#45;&gt;Node6 -->
<g id="edge12" class="edge"><title>Node7&#45;&gt;Node6</title>
<path fill="none" stroke="midnightblue" d="M121.423,-735.886C107.687,-727.44 91.8844,-715.826 81,-702 69.1564,-686.955 68.6209,-680.802 65,-662 39.4248,-529.199 74.5766,-363.437 84.5155,-321.17"/>
<polygon fill="midnightblue" stroke="midnightblue" points="119.683,-738.923 130.079,-740.97 123.229,-732.887 119.683,-738.923"/>
</g>
<!-- Node10 -->
<g id="node19" class="node"><title>Node10</title>
<a xlink:href="class_kitware_1_1_v_t_k_1_1vtk_object.html" target="_top" xlink:title="vtkObject &#45; abstract base class for most VTK objects">
<polygon fill="none" stroke="black" points="90,-681 90,-701 210,-701 210,-681 90,-681"/>
<text text-anchor="middle" x="150" y="-688" font-family="FreeSans" font-size="10.00">Kitware.VTK.vtkObject</text>
</a>
</g>
<!-- Node7&#45;&gt;Node10 -->
<g id="edge22" class="edge"><title>Node7&#45;&gt;Node10</title>
<path fill="none" stroke="midnightblue" d="M150,-730.516C150,-720.562 150,-709.05 150,-701.028"/>
<polygon fill="midnightblue" stroke="midnightblue" points="146.5,-730.822 150,-740.822 153.5,-730.822 146.5,-730.822"/>
</g>
<!-- Node8 -->
<g id="node14" class="node"><title>Node8</title>
<a xlink:href="class_kitware_1_1_v_t_k_1_1_wrapped_object.html" target="_top" xlink:title="Base class for all the mummy wrapped classes in Kitware.VTK.">
<polygon fill="none" stroke="black" points="288.5,-801 288.5,-821 377.5,-821 377.5,-801 288.5,-801"/>
<text text-anchor="middle" x="333" y="-808" font-family="FreeSans" font-size="10.00">WrappedObject</text>
</a>
</g>
<!-- Node8&#45;&gt;Node7 -->
<g id="edge14" class="edge"><title>Node8&#45;&gt;Node7</title>
<path fill="none" stroke="midnightblue" d="M292.804,-797.821C259.042,-786.752 211.512,-771.168 180.73,-761.075"/>
<polygon fill="midnightblue" stroke="midnightblue" points="291.777,-801.168 302.37,-800.957 293.958,-794.516 291.777,-801.168"/>
</g>
<!-- Node9 -->
<g id="node16" class="node"><title>Node9</title>
<a xlink:href="class_kitware_1_1_v_t_k_1_1vtk_object_event_relay.html" target="_top" xlink:title="Implement a relay handler for VTK events. This is a class that receives events directly from the VTK ...">
<polygon fill="none" stroke="black" points="79,-491 79,-511 251,-511 251,-491 79,-491"/>
<text text-anchor="middle" x="165" y="-498" font-family="FreeSans" font-size="10.00">Kitware.VTK.vtkObjectEventRelay</text>
</a>
</g>
<!-- Node8&#45;&gt;Node9 -->
<g id="edge18" class="edge"><title>Node8&#45;&gt;Node9</title>
<path fill="none" stroke="midnightblue" d="M345.888,-792.325C378.276,-742.899 455.803,-607.191 388,-530 378.773,-519.495 310.047,-511.666 251.298,-506.808"/>
<polygon fill="midnightblue" stroke="midnightblue" points="342.891,-790.509 340.239,-800.767 348.709,-794.402 342.891,-790.509"/>
</g>
<!-- Node9&#45;&gt;Node6 -->
<g id="edge16" class="edge"><title>Node9&#45;&gt;Node6</title>
<path fill="none" stroke="#9a32cd" stroke-dasharray="5,2" d="M156.921,-481.321C140.489,-441.293 103.674,-351.616 91.2144,-321.266"/>
<polygon fill="#9a32cd" stroke="#9a32cd" points="153.771,-482.863 160.806,-490.785 160.246,-480.205 153.771,-482.863"/>
<text text-anchor="middle" x="264.5" y="-463" font-family="FreeSans" font-size="10.00"> LeftButtonReleaseEvtRelay</text>
<text text-anchor="middle" x="264.5" y="-451" font-family="FreeSans" font-size="10.00">KeyPressEvtRelay</text>
<text text-anchor="middle" x="264.5" y="-439" font-family="FreeSans" font-size="10.00">DomainModifiedEvtRelay</text>
<text text-anchor="middle" x="264.5" y="-427" font-family="FreeSans" font-size="10.00">VolumeMapperComputeGradientsStartEvtRelay</text>
<text text-anchor="middle" x="264.5" y="-415" font-family="FreeSans" font-size="10.00">ErrorEvtRelay</text>
<text text-anchor="middle" x="264.5" y="-403" font-family="FreeSans" font-size="10.00">VolumeMapperRenderStartEvtRelay</text>
<text text-anchor="middle" x="264.5" y="-391" font-family="FreeSans" font-size="10.00">StartEvtRelay</text>
<text text-anchor="middle" x="264.5" y="-379" font-family="FreeSans" font-size="10.00">ResetCameraEvtRelay</text>
<text text-anchor="middle" x="264.5" y="-367" font-family="FreeSans" font-size="10.00">EnableEvtRelay</text>
<text text-anchor="middle" x="264.5" y="-355" font-family="FreeSans" font-size="10.00">DeleteEvtRelay</text>
<text text-anchor="middle" x="264.5" y="-343" font-family="FreeSans" font-size="10.00">...</text>
</g>
<!-- Node9&#45;&gt;Node10 -->
<g id="edge24" class="edge"><title>Node9&#45;&gt;Node10</title>
<path fill="none" stroke="#9a32cd" stroke-dasharray="5,2" d="M162.028,-521.231C161.649,-524.169 161.293,-527.159 161,-530 155.144,-586.853 151.636,-655.333 150.452,-680.807"/>
<polygon fill="#9a32cd" stroke="#9a32cd" points="165.515,-521.565 163.421,-511.179 158.582,-520.604 165.515,-521.565"/>
<text text-anchor="middle" x="274.5" y="-653" font-family="FreeSans" font-size="10.00"> LeftButtonReleaseEvtRelay</text>
<text text-anchor="middle" x="274.5" y="-641" font-family="FreeSans" font-size="10.00">KeyPressEvtRelay</text>
<text text-anchor="middle" x="274.5" y="-629" font-family="FreeSans" font-size="10.00">DomainModifiedEvtRelay</text>
<text text-anchor="middle" x="274.5" y="-617" font-family="FreeSans" font-size="10.00">VolumeMapperComputeGradientsStartEvtRelay</text>
<text text-anchor="middle" x="274.5" y="-605" font-family="FreeSans" font-size="10.00">ErrorEvtRelay</text>
<text text-anchor="middle" x="274.5" y="-593" font-family="FreeSans" font-size="10.00">VolumeMapperRenderStartEvtRelay</text>
<text text-anchor="middle" x="274.5" y="-581" font-family="FreeSans" font-size="10.00">StartEvtRelay</text>
<text text-anchor="middle" x="274.5" y="-569" font-family="FreeSans" font-size="10.00">ResetCameraEvtRelay</text>
<text text-anchor="middle" x="274.5" y="-557" font-family="FreeSans" font-size="10.00">EnableEvtRelay</text>
<text text-anchor="middle" x="274.5" y="-545" font-family="FreeSans" font-size="10.00">DeleteEvtRelay</text>
<text text-anchor="middle" x="274.5" y="-533" font-family="FreeSans" font-size="10.00">...</text>
</g>
<!-- Node10&#45;&gt;Node9 -->
<g id="edge20" class="edge"><title>Node10&#45;&gt;Node9</title>
<path fill="none" stroke="#9a32cd" stroke-dasharray="5,2" d="M103.979,-675.818C98.4393,-672.138 93.5104,-667.596 90,-662 58.8229,-612.303 56.8299,-578.389 90,-530 94.7359,-523.091 111.511,-516.287 127.999,-511.008"/>
<polygon fill="#9a32cd" stroke="#9a32cd" points="102.639,-679.079 113.072,-680.919 106.064,-672.974 102.639,-679.079"/>
<text text-anchor="middle" x="114" y="-599" font-family="FreeSans" font-size="10.00"> Sender</text>
<text text-anchor="middle" x="114" y="-587" font-family="FreeSans" font-size="10.00">EventImpl</text>
</g>
</g>
</svg>
