<?xml version="1.0" encoding="UTF-8" standalone="no"?>
<!DOCTYPE svg PUBLIC "-//W3C//DTD SVG 1.1//EN"
 "http://www.w3.org/Graphics/SVG/1.1/DTD/svg11.dtd">
<!-- Generated by graphviz version 2.26.3 (20100126.1600)
 -->
<!-- Title: G Pages: 1 -->
<svg width="1226pt" height="104pt"
 viewBox="0.00 0.00 1226.00 104.00" xmlns="http://www.w3.org/2000/svg" xmlns:xlink="http://www.w3.org/1999/xlink">
<g id="graph1" class="graph" transform="scale(1 1) rotate(0) translate(4 100)">
<title>G</title>
<!-- Node1 -->
<g id="node1" class="node"><title>Node1</title>
<polygon fill="#bfbfbf" stroke="black" points="584,-38 584,-58 730,-58 730,-38 584,-38"/>
<text text-anchor="middle" x="657" y="-45" font-family="FreeSans" font-size="10.00">Kitware.VTK.vtkTableReader</text>
</g>
<!-- Node7 -->
<g id="node13" class="node"><title>Node7</title>
<a xlink:href="class_kitware_1_1_v_t_k_1_1vtk_database_to_table_reader.html" target="_top" xlink:title="vtkDatabaseToTableReader &#45; Read an SQL table as a vtkTable">
<polygon fill="none" stroke="black" points="766.5,-38 766.5,-58 969.5,-58 969.5,-38 766.5,-38"/>
<text text-anchor="middle" x="868" y="-45" font-family="FreeSans" font-size="10.00">Kitware.VTK.vtkDatabaseToTableReader</text>
</a>
</g>
<!-- Node1&#45;&gt;Node7 -->
<g id="edge12" class="edge"><title>Node1&#45;&gt;Node7</title>
<path fill="none" stroke="midnightblue" d="M740.451,-48C748.945,-48 757.638,-48 766.298,-48"/>
<polygon fill="midnightblue" stroke="midnightblue" points="740.205,-44.5001 730.205,-48 740.205,-51.5001 740.205,-44.5001"/>
</g>
<!-- Node2 -->
<g id="node2" class="node"><title>Node2</title>
<a xlink:href="class_kitware_1_1_v_t_k_1_1vtk_data_reader.html" target="_top" xlink:title="vtkDataReader &#45; helper superclass for objects that read vtk data files">
<polygon fill="none" stroke="black" points="460.5,-38 460.5,-58 547.5,-58 547.5,-38 460.5,-38"/>
<text text-anchor="middle" x="504" y="-45" font-family="FreeSans" font-size="10.00">vtkDataReader</text>
</a>
</g>
<!-- Node2&#45;&gt;Node1 -->
<g id="edge2" class="edge"><title>Node2&#45;&gt;Node1</title>
<path fill="none" stroke="midnightblue" d="M557.908,-48C566.348,-48 575.191,-48 583.973,-48"/>
<polygon fill="midnightblue" stroke="midnightblue" points="557.844,-44.5001 547.844,-48 557.844,-51.5001 557.844,-44.5001"/>
</g>
<!-- Node3 -->
<g id="node4" class="node"><title>Node3</title>
<a xlink:href="class_kitware_1_1_v_t_k_1_1vtk_algorithm.html" target="_top" xlink:title="vtkAlgorithm &#45; Superclass for all sources, filters, and sinks in VTK.">
<polygon fill="none" stroke="black" points="346.5,-38 346.5,-58 423.5,-58 423.5,-38 346.5,-38"/>
<text text-anchor="middle" x="385" y="-45" font-family="FreeSans" font-size="10.00">vtkAlgorithm</text>
</a>
</g>
<!-- Node3&#45;&gt;Node2 -->
<g id="edge4" class="edge"><title>Node3&#45;&gt;Node2</title>
<path fill="none" stroke="midnightblue" d="M433.728,-48C442.492,-48 451.579,-48 460.193,-48"/>
<polygon fill="midnightblue" stroke="midnightblue" points="433.636,-44.5001 423.636,-48 433.636,-51.5001 433.636,-44.5001"/>
</g>
<!-- Node4 -->
<g id="node6" class="node"><title>Node4</title>
<a xlink:href="class_kitware_1_1_v_t_k_1_1vtk_object.html" target="_top" xlink:title="vtkObject &#45; abstract base class for most VTK objects">
<polygon fill="none" stroke="black" points="248,-38 248,-58 310,-58 310,-38 248,-38"/>
<text text-anchor="middle" x="279" y="-45" font-family="FreeSans" font-size="10.00">vtkObject</text>
</a>
</g>
<!-- Node4&#45;&gt;Node3 -->
<g id="edge6" class="edge"><title>Node4&#45;&gt;Node3</title>
<path fill="none" stroke="midnightblue" d="M320.421,-48C329.001,-48 338.007,-48 346.479,-48"/>
<polygon fill="midnightblue" stroke="midnightblue" points="320.23,-44.5001 310.23,-48 320.23,-51.5001 320.23,-44.5001"/>
</g>
<!-- Node5 -->
<g id="node8" class="node"><title>Node5</title>
<a xlink:href="class_kitware_1_1_v_t_k_1_1vtk_object_base.html" target="_top" xlink:title="vtkObjectBase &#45; abstract base class for most VTK objects">
<polygon fill="none" stroke="black" points="126,-38 126,-58 212,-58 212,-38 126,-38"/>
<text text-anchor="middle" x="169" y="-45" font-family="FreeSans" font-size="10.00">vtkObjectBase</text>
</a>
</g>
<!-- Node5&#45;&gt;Node4 -->
<g id="edge8" class="edge"><title>Node5&#45;&gt;Node4</title>
<path fill="none" stroke="midnightblue" d="M222.346,-48C231.091,-48 239.892,-48 247.863,-48"/>
<polygon fill="midnightblue" stroke="midnightblue" points="222.159,-44.5001 212.159,-48 222.159,-51.5001 222.159,-44.5001"/>
</g>
<!-- Node6 -->
<g id="node10" class="node"><title>Node6</title>
<a xlink:href="class_kitware_1_1_v_t_k_1_1_wrapped_object.html" target="_top" xlink:title="Base class for all the mummy wrapped classes in Kitware.VTK.">
<polygon fill="none" stroke="black" points="0.5,-38 0.5,-58 89.5,-58 89.5,-38 0.5,-38"/>
<text text-anchor="middle" x="45" y="-45" font-family="FreeSans" font-size="10.00">WrappedObject</text>
</a>
</g>
<!-- Node6&#45;&gt;Node5 -->
<g id="edge10" class="edge"><title>Node6&#45;&gt;Node5</title>
<path fill="none" stroke="midnightblue" d="M99.8895,-48C108.623,-48 117.548,-48 125.957,-48"/>
<polygon fill="midnightblue" stroke="midnightblue" points="99.7669,-44.5001 89.7668,-48 99.7668,-51.5001 99.7669,-44.5001"/>
</g>
<!-- Node8 -->
<g id="node15" class="node"><title>Node8</title>
<a xlink:href="class_kitware_1_1_v_t_k_1_1vtk_my_s_q_l_to_table_reader.html" target="_top" xlink:title="vtkMySQLToTableReader &#45; Read a MySQL table as a vtkTable">
<polygon fill="none" stroke="black" points="1018,-76 1018,-96 1206,-96 1206,-76 1018,-76"/>
<text text-anchor="middle" x="1112" y="-83" font-family="FreeSans" font-size="10.00">Kitware.VTK.vtkMySQLToTableReader</text>
</a>
</g>
<!-- Node7&#45;&gt;Node8 -->
<g id="edge14" class="edge"><title>Node7&#45;&gt;Node8</title>
<path fill="none" stroke="midnightblue" d="M942.644,-59.6249C976.194,-64.8498 1015.4,-70.9557 1047.64,-75.976"/>
<polygon fill="midnightblue" stroke="midnightblue" points="942.847,-56.1144 932.427,-58.0338 941.77,-63.031 942.847,-56.1144"/>
</g>
<!-- Node9 -->
<g id="node17" class="node"><title>Node9</title>
<a xlink:href="class_kitware_1_1_v_t_k_1_1vtk_postgre_s_q_l_to_table_reader.html" target="_top" xlink:title="vtkPostgreSQLToTableReader &#45; Read a PostgreSQL table as a vtkTable">
<polygon fill="none" stroke="black" points="1006.5,-38 1006.5,-58 1217.5,-58 1217.5,-38 1006.5,-38"/>
<text text-anchor="middle" x="1112" y="-45" font-family="FreeSans" font-size="10.00">Kitware.VTK.vtkPostgreSQLToTableReader</text>
</a>
</g>
<!-- Node7&#45;&gt;Node9 -->
<g id="edge16" class="edge"><title>Node7&#45;&gt;Node9</title>
<path fill="none" stroke="midnightblue" d="M979.915,-48C988.644,-48 997.442,-48 1006.13,-48"/>
<polygon fill="midnightblue" stroke="midnightblue" points="979.711,-44.5001 969.711,-48 979.711,-51.5001 979.711,-44.5001"/>
</g>
<!-- Node10 -->
<g id="node19" class="node"><title>Node10</title>
<a xlink:href="class_kitware_1_1_v_t_k_1_1vtk_s_q_lite_to_table_reader.html" target="_top" xlink:title="vtkSQLiteToTableReader &#45; Read an SQLite table as a vtkTable">
<polygon fill="none" stroke="black" points="1018,-0 1018,-20 1206,-20 1206,-0 1018,-0"/>
<text text-anchor="middle" x="1112" y="-7" font-family="FreeSans" font-size="10.00">Kitware.VTK.vtkSQLiteToTableReader</text>
</a>
</g>
<!-- Node7&#45;&gt;Node10 -->
<g id="edge18" class="edge"><title>Node7&#45;&gt;Node10</title>
<path fill="none" stroke="midnightblue" d="M942.644,-36.3751C976.194,-31.1502 1015.4,-25.0443 1047.64,-20.024"/>
<polygon fill="midnightblue" stroke="midnightblue" points="941.77,-32.969 932.427,-37.9662 942.847,-39.8856 941.77,-32.969"/>
</g>
</g>
</svg>
