<?xml version="1.0" encoding="UTF-8" standalone="no"?>
<!DOCTYPE svg PUBLIC "-//W3C//DTD SVG 1.1//EN"
 "http://www.w3.org/Graphics/SVG/1.1/DTD/svg11.dtd">
<!-- Generated by graphviz version 2.26.3 (20100126.1600)
 -->
<!-- Title: G Pages: 1 -->
<svg width="439pt" height="830pt"
 viewBox="0.00 0.00 439.46 830.00" xmlns="http://www.w3.org/2000/svg" xmlns:xlink="http://www.w3.org/1999/xlink">
<g id="graph1" class="graph" transform="scale(1 1) rotate(0) translate(4 826)">
<title>G</title>
<!-- Node1 -->
<g id="node1" class="node"><title>Node1</title>
<polygon fill="#bfbfbf" stroke="black" points="0,-1 0,-21 206,-21 206,-1 0,-1"/>
<text text-anchor="middle" x="103" y="-8" font-family="FreeSans" font-size="10.00">Kitware.VTK.vtkDistributedStreamTracer</text>
</g>
<!-- Node2 -->
<g id="node2" class="node"><title>Node2</title>
<a xlink:href="class_kitware_1_1_v_t_k_1_1vtk_p_stream_tracer.html" target="_top" xlink:title="vtkPStreamTracer &#45; Abstract superclass for parallel streamline generators">
<polygon fill="none" stroke="black" points="52.5,-61 52.5,-81 153.5,-81 153.5,-61 52.5,-61"/>
<text text-anchor="middle" x="103" y="-68" font-family="FreeSans" font-size="10.00">vtkPStreamTracer</text>
</a>
</g>
<!-- Node2&#45;&gt;Node1 -->
<g id="edge2" class="edge"><title>Node2&#45;&gt;Node1</title>
<path fill="none" stroke="midnightblue" d="M103,-50.5155C103,-40.562 103,-29.0495 103,-21.0279"/>
<polygon fill="midnightblue" stroke="midnightblue" points="99.5001,-50.8218 103,-60.8218 106.5,-50.8219 99.5001,-50.8218"/>
</g>
<!-- Node3 -->
<g id="node4" class="node"><title>Node3</title>
<a xlink:href="class_kitware_1_1_v_t_k_1_1vtk_stream_tracer.html" target="_top" xlink:title="vtkStreamTracer &#45; Streamline generator">
<polygon fill="none" stroke="black" points="55.5,-121 55.5,-141 150.5,-141 150.5,-121 55.5,-121"/>
<text text-anchor="middle" x="103" y="-128" font-family="FreeSans" font-size="10.00">vtkStreamTracer</text>
</a>
</g>
<!-- Node3&#45;&gt;Node2 -->
<g id="edge4" class="edge"><title>Node3&#45;&gt;Node2</title>
<path fill="none" stroke="midnightblue" d="M103,-110.516C103,-100.562 103,-89.0495 103,-81.0279"/>
<polygon fill="midnightblue" stroke="midnightblue" points="99.5001,-110.822 103,-120.822 106.5,-110.822 99.5001,-110.822"/>
</g>
<!-- Node4 -->
<g id="node6" class="node"><title>Node4</title>
<a xlink:href="class_kitware_1_1_v_t_k_1_1vtk_poly_data_algorithm.html" target="_top" xlink:title="vtkPolyDataAlgorithm &#45; Superclass for algorithms that produce only polydata as output">
<polygon fill="none" stroke="black" points="43,-181 43,-201 163,-201 163,-181 43,-181"/>
<text text-anchor="middle" x="103" y="-188" font-family="FreeSans" font-size="10.00">vtkPolyDataAlgorithm</text>
</a>
</g>
<!-- Node4&#45;&gt;Node3 -->
<g id="edge6" class="edge"><title>Node4&#45;&gt;Node3</title>
<path fill="none" stroke="midnightblue" d="M103,-170.516C103,-160.562 103,-149.05 103,-141.028"/>
<polygon fill="midnightblue" stroke="midnightblue" points="99.5001,-170.822 103,-180.822 106.5,-170.822 99.5001,-170.822"/>
</g>
<!-- Node5 -->
<g id="node8" class="node"><title>Node5</title>
<a xlink:href="class_kitware_1_1_v_t_k_1_1vtk_algorithm.html" target="_top" xlink:title="vtkAlgorithm &#45; Superclass for all sources, filters, and sinks in VTK.">
<polygon fill="none" stroke="black" points="64.5,-241 64.5,-261 141.5,-261 141.5,-241 64.5,-241"/>
<text text-anchor="middle" x="103" y="-248" font-family="FreeSans" font-size="10.00">vtkAlgorithm</text>
</a>
</g>
<!-- Node5&#45;&gt;Node4 -->
<g id="edge8" class="edge"><title>Node5&#45;&gt;Node4</title>
<path fill="none" stroke="midnightblue" d="M103,-230.516C103,-220.562 103,-209.05 103,-201.028"/>
<polygon fill="midnightblue" stroke="midnightblue" points="99.5001,-230.822 103,-240.822 106.5,-230.822 99.5001,-230.822"/>
</g>
<!-- Node6 -->
<g id="node10" class="node"><title>Node6</title>
<a xlink:href="class_kitware_1_1_v_t_k_1_1vtk_object.html" target="_top" xlink:title="vtkObject &#45; abstract base class for most VTK objects">
<polygon fill="none" stroke="black" points="72,-301 72,-321 134,-321 134,-301 72,-301"/>
<text text-anchor="middle" x="103" y="-308" font-family="FreeSans" font-size="10.00">vtkObject</text>
</a>
</g>
<!-- Node6&#45;&gt;Node5 -->
<g id="edge10" class="edge"><title>Node6&#45;&gt;Node5</title>
<path fill="none" stroke="midnightblue" d="M103,-290.516C103,-280.562 103,-269.05 103,-261.028"/>
<polygon fill="midnightblue" stroke="midnightblue" points="99.5001,-290.822 103,-300.822 106.5,-290.822 99.5001,-290.822"/>
</g>
<!-- Node7 -->
<g id="node12" class="node"><title>Node7</title>
<a xlink:href="class_kitware_1_1_v_t_k_1_1vtk_object_base.html" target="_top" xlink:title="vtkObjectBase &#45; abstract base class for most VTK objects">
<polygon fill="none" stroke="black" points="123,-741 123,-761 209,-761 209,-741 123,-741"/>
<text text-anchor="middle" x="166" y="-748" font-family="FreeSans" font-size="10.00">vtkObjectBase</text>
</a>
</g>
<!-- Node7&#45;&gt;Node6 -->
<g id="edge12" class="edge"><title>Node7&#45;&gt;Node6</title>
<path fill="none" stroke="midnightblue" d="M137.423,-735.886C123.687,-727.44 107.884,-715.826 97,-702 85.1564,-686.955 84.6209,-680.802 81,-662 55.4248,-529.199 90.5766,-363.437 100.516,-321.17"/>
<polygon fill="midnightblue" stroke="midnightblue" points="135.683,-738.923 146.079,-740.97 139.229,-732.887 135.683,-738.923"/>
</g>
<!-- Node10 -->
<g id="node19" class="node"><title>Node10</title>
<a xlink:href="class_kitware_1_1_v_t_k_1_1vtk_object.html" target="_top" xlink:title="vtkObject &#45; abstract base class for most VTK objects">
<polygon fill="none" stroke="black" points="106,-681 106,-701 226,-701 226,-681 106,-681"/>
<text text-anchor="middle" x="166" y="-688" font-family="FreeSans" font-size="10.00">Kitware.VTK.vtkObject</text>
</a>
</g>
<!-- Node7&#45;&gt;Node10 -->
<g id="edge22" class="edge"><title>Node7&#45;&gt;Node10</title>
<path fill="none" stroke="midnightblue" d="M166,-730.516C166,-720.562 166,-709.05 166,-701.028"/>
<polygon fill="midnightblue" stroke="midnightblue" points="162.5,-730.822 166,-740.822 169.5,-730.822 162.5,-730.822"/>
</g>
<!-- Node8 -->
<g id="node14" class="node"><title>Node8</title>
<a xlink:href="class_kitware_1_1_v_t_k_1_1_wrapped_object.html" target="_top" xlink:title="Base class for all the mummy wrapped classes in Kitware.VTK.">
<polygon fill="none" stroke="black" points="304.5,-801 304.5,-821 393.5,-821 393.5,-801 304.5,-801"/>
<text text-anchor="middle" x="349" y="-808" font-family="FreeSans" font-size="10.00">WrappedObject</text>
</a>
</g>
<!-- Node8&#45;&gt;Node7 -->
<g id="edge14" class="edge"><title>Node8&#45;&gt;Node7</title>
<path fill="none" stroke="midnightblue" d="M308.804,-797.821C275.042,-786.752 227.512,-771.168 196.73,-761.075"/>
<polygon fill="midnightblue" stroke="midnightblue" points="307.777,-801.168 318.37,-800.957 309.958,-794.516 307.777,-801.168"/>
</g>
<!-- Node9 -->
<g id="node16" class="node"><title>Node9</title>
<a xlink:href="class_kitware_1_1_v_t_k_1_1vtk_object_event_relay.html" target="_top" xlink:title="Implement a relay handler for VTK events. This is a class that receives events directly from the VTK ...">
<polygon fill="none" stroke="black" points="95,-491 95,-511 267,-511 267,-491 95,-491"/>
<text text-anchor="middle" x="181" y="-498" font-family="FreeSans" font-size="10.00">Kitware.VTK.vtkObjectEventRelay</text>
</a>
</g>
<!-- Node8&#45;&gt;Node9 -->
<g id="edge18" class="edge"><title>Node8&#45;&gt;Node9</title>
<path fill="none" stroke="midnightblue" d="M361.888,-792.325C394.276,-742.899 471.803,-607.191 404,-530 394.773,-519.495 326.047,-511.666 267.298,-506.808"/>
<polygon fill="midnightblue" stroke="midnightblue" points="358.891,-790.509 356.239,-800.767 364.709,-794.402 358.891,-790.509"/>
</g>
<!-- Node9&#45;&gt;Node6 -->
<g id="edge16" class="edge"><title>Node9&#45;&gt;Node6</title>
<path fill="none" stroke="#9a32cd" stroke-dasharray="5,2" d="M172.921,-481.321C156.489,-441.293 119.674,-351.616 107.214,-321.266"/>
<polygon fill="#9a32cd" stroke="#9a32cd" points="169.771,-482.863 176.806,-490.785 176.246,-480.205 169.771,-482.863"/>
<text text-anchor="middle" x="280.5" y="-463" font-family="FreeSans" font-size="10.00"> LeftButtonReleaseEvtRelay</text>
<text text-anchor="middle" x="280.5" y="-451" font-family="FreeSans" font-size="10.00">KeyPressEvtRelay</text>
<text text-anchor="middle" x="280.5" y="-439" font-family="FreeSans" font-size="10.00">DomainModifiedEvtRelay</text>
<text text-anchor="middle" x="280.5" y="-427" font-family="FreeSans" font-size="10.00">VolumeMapperComputeGradientsStartEvtRelay</text>
<text text-anchor="middle" x="280.5" y="-415" font-family="FreeSans" font-size="10.00">ErrorEvtRelay</text>
<text text-anchor="middle" x="280.5" y="-403" font-family="FreeSans" font-size="10.00">VolumeMapperRenderStartEvtRelay</text>
<text text-anchor="middle" x="280.5" y="-391" font-family="FreeSans" font-size="10.00">StartEvtRelay</text>
<text text-anchor="middle" x="280.5" y="-379" font-family="FreeSans" font-size="10.00">ResetCameraEvtRelay</text>
<text text-anchor="middle" x="280.5" y="-367" font-family="FreeSans" font-size="10.00">EnableEvtRelay</text>
<text text-anchor="middle" x="280.5" y="-355" font-family="FreeSans" font-size="10.00">DeleteEvtRelay</text>
<text text-anchor="middle" x="280.5" y="-343" font-family="FreeSans" font-size="10.00">...</text>
</g>
<!-- Node9&#45;&gt;Node10 -->
<g id="edge24" class="edge"><title>Node9&#45;&gt;Node10</title>
<path fill="none" stroke="#9a32cd" stroke-dasharray="5,2" d="M178.028,-521.231C177.649,-524.169 177.293,-527.159 177,-530 171.144,-586.853 167.636,-655.333 166.452,-680.807"/>
<polygon fill="#9a32cd" stroke="#9a32cd" points="181.515,-521.565 179.421,-511.179 174.582,-520.604 181.515,-521.565"/>
<text text-anchor="middle" x="290.5" y="-653" font-family="FreeSans" font-size="10.00"> LeftButtonReleaseEvtRelay</text>
<text text-anchor="middle" x="290.5" y="-641" font-family="FreeSans" font-size="10.00">KeyPressEvtRelay</text>
<text text-anchor="middle" x="290.5" y="-629" font-family="FreeSans" font-size="10.00">DomainModifiedEvtRelay</text>
<text text-anchor="middle" x="290.5" y="-617" font-family="FreeSans" font-size="10.00">VolumeMapperComputeGradientsStartEvtRelay</text>
<text text-anchor="middle" x="290.5" y="-605" font-family="FreeSans" font-size="10.00">ErrorEvtRelay</text>
<text text-anchor="middle" x="290.5" y="-593" font-family="FreeSans" font-size="10.00">VolumeMapperRenderStartEvtRelay</text>
<text text-anchor="middle" x="290.5" y="-581" font-family="FreeSans" font-size="10.00">StartEvtRelay</text>
<text text-anchor="middle" x="290.5" y="-569" font-family="FreeSans" font-size="10.00">ResetCameraEvtRelay</text>
<text text-anchor="middle" x="290.5" y="-557" font-family="FreeSans" font-size="10.00">EnableEvtRelay</text>
<text text-anchor="middle" x="290.5" y="-545" font-family="FreeSans" font-size="10.00">DeleteEvtRelay</text>
<text text-anchor="middle" x="290.5" y="-533" font-family="FreeSans" font-size="10.00">...</text>
</g>
<!-- Node10&#45;&gt;Node9 -->
<g id="edge20" class="edge"><title>Node10&#45;&gt;Node9</title>
<path fill="none" stroke="#9a32cd" stroke-dasharray="5,2" d="M119.979,-675.818C114.439,-672.138 109.51,-667.596 106,-662 74.8229,-612.303 72.8299,-578.389 106,-530 110.736,-523.091 127.511,-516.287 143.999,-511.008"/>
<polygon fill="#9a32cd" stroke="#9a32cd" points="118.639,-679.079 129.072,-680.919 122.064,-672.974 118.639,-679.079"/>
<text text-anchor="middle" x="130" y="-599" font-family="FreeSans" font-size="10.00"> Sender</text>
<text text-anchor="middle" x="130" y="-587" font-family="FreeSans" font-size="10.00">EventImpl</text>
</g>
</g>
</svg>
