<?xml version="1.0" encoding="UTF-8" standalone="no"?>
<!DOCTYPE svg PUBLIC "-//W3C//DTD SVG 1.1//EN"
 "http://www.w3.org/Graphics/SVG/1.1/DTD/svg11.dtd">
<!-- Generated by graphviz version 2.26.3 (20100126.1600)
 -->
<!-- Title: G Pages: 1 -->
<svg width="1224pt" height="104pt"
 viewBox="0.00 0.00 1224.00 104.00" xmlns="http://www.w3.org/2000/svg" xmlns:xlink="http://www.w3.org/1999/xlink">
<g id="graph1" class="graph" transform="scale(1 1) rotate(0) translate(4 100)">
<title>G</title>
<!-- Node1 -->
<g id="node1" class="node"><title>Node1</title>
<polygon fill="#bfbfbf" stroke="black" points="640,-38 640,-58 756,-58 756,-38 640,-38"/>
<text text-anchor="middle" x="698" y="-45" font-family="FreeSans" font-size="10.00">Kitware.VTK.vtkChart</text>
</g>
<!-- Node7 -->
<g id="node13" class="node"><title>Node7</title>
<a xlink:href="class_kitware_1_1_v_t_k_1_1vtk_chart_parallel_coordinates.html" target="_top" xlink:title="vtkChartParallelCoordinates &#45; Factory class for drawing 2D charts">
<polygon fill="none" stroke="black" points="792.5,-76 792.5,-96 999.5,-96 999.5,-76 792.5,-76"/>
<text text-anchor="middle" x="896" y="-83" font-family="FreeSans" font-size="10.00">Kitware.VTK.vtkChartParallelCoordinates</text>
</a>
</g>
<!-- Node1&#45;&gt;Node7 -->
<g id="edge12" class="edge"><title>Node1&#45;&gt;Node7</title>
<path fill="none" stroke="midnightblue" d="M756.83,-60.0674C768.477,-62.4068 780.619,-64.8104 792,-67 807.591,-69.9995 824.519,-73.1413 840.101,-75.9866"/>
<polygon fill="midnightblue" stroke="midnightblue" points="757.248,-56.5813 746.754,-58.0351 755.864,-63.4431 757.248,-56.5813"/>
</g>
<!-- Node8 -->
<g id="node15" class="node"><title>Node8</title>
<a xlink:href="class_kitware_1_1_v_t_k_1_1vtk_chart_pie.html" target="_top" xlink:title="vtkChartPie &#45; Factory class for drawing pie charts">
<polygon fill="none" stroke="black" points="831,-38 831,-58 961,-58 961,-38 831,-38"/>
<text text-anchor="middle" x="896" y="-45" font-family="FreeSans" font-size="10.00">Kitware.VTK.vtkChartPie</text>
</a>
</g>
<!-- Node1&#45;&gt;Node8 -->
<g id="edge14" class="edge"><title>Node1&#45;&gt;Node8</title>
<path fill="none" stroke="midnightblue" d="M766.188,-48C787.177,-48 810.217,-48 830.986,-48"/>
<polygon fill="midnightblue" stroke="midnightblue" points="766.069,-44.5001 756.069,-48 766.069,-51.5001 766.069,-44.5001"/>
</g>
<!-- Node9 -->
<g id="node17" class="node"><title>Node9</title>
<a xlink:href="class_kitware_1_1_v_t_k_1_1vtk_chart_x_y.html" target="_top" xlink:title="vtkChartXY &#45; Factory class for drawing XY charts">
<polygon fill="none" stroke="black" points="832.5,-0 832.5,-20 959.5,-20 959.5,-0 832.5,-0"/>
<text text-anchor="middle" x="896" y="-7" font-family="FreeSans" font-size="10.00">Kitware.VTK.vtkChartXY</text>
</a>
</g>
<!-- Node1&#45;&gt;Node9 -->
<g id="edge16" class="edge"><title>Node1&#45;&gt;Node9</title>
<path fill="none" stroke="midnightblue" d="M756.83,-35.9326C768.477,-33.5932 780.619,-31.1896 792,-29 807.591,-26.0005 824.519,-22.8587 840.101,-20.0134"/>
<polygon fill="midnightblue" stroke="midnightblue" points="755.864,-32.5569 746.754,-37.9649 757.248,-39.4187 755.864,-32.5569"/>
</g>
<!-- Node2 -->
<g id="node2" class="node"><title>Node2</title>
<a xlink:href="class_kitware_1_1_v_t_k_1_1vtk_context_item.html" target="_top" xlink:title="vtkContextItem &#45; base class for items that are part of a vtkContextScene.">
<polygon fill="none" stroke="black" points="514,-38 514,-58 604,-58 604,-38 514,-38"/>
<text text-anchor="middle" x="559" y="-45" font-family="FreeSans" font-size="10.00">vtkContextItem</text>
</a>
</g>
<!-- Node2&#45;&gt;Node1 -->
<g id="edge2" class="edge"><title>Node2&#45;&gt;Node1</title>
<path fill="none" stroke="midnightblue" d="M614.245,-48C622.686,-48 631.42,-48 639.92,-48"/>
<polygon fill="midnightblue" stroke="midnightblue" points="614.129,-44.5001 604.129,-48 614.129,-51.5001 614.129,-44.5001"/>
</g>
<!-- Node3 -->
<g id="node4" class="node"><title>Node3</title>
<a xlink:href="class_kitware_1_1_v_t_k_1_1vtk_abstract_context_item.html" target="_top" xlink:title="vtkAbstractContextItem &#45; base class for items that are part of a vtkContextScene.">
<polygon fill="none" stroke="black" points="346.5,-38 346.5,-58 477.5,-58 477.5,-38 346.5,-38"/>
<text text-anchor="middle" x="412" y="-45" font-family="FreeSans" font-size="10.00">vtkAbstractContextItem</text>
</a>
</g>
<!-- Node3&#45;&gt;Node2 -->
<g id="edge4" class="edge"><title>Node3&#45;&gt;Node2</title>
<path fill="none" stroke="midnightblue" d="M487.831,-48C496.758,-48 505.639,-48 513.946,-48"/>
<polygon fill="midnightblue" stroke="midnightblue" points="487.761,-44.5001 477.761,-48 487.761,-51.5001 487.761,-44.5001"/>
</g>
<!-- Node4 -->
<g id="node6" class="node"><title>Node4</title>
<a xlink:href="class_kitware_1_1_v_t_k_1_1vtk_object.html" target="_top" xlink:title="vtkObject &#45; abstract base class for most VTK objects">
<polygon fill="none" stroke="black" points="248,-38 248,-58 310,-58 310,-38 248,-38"/>
<text text-anchor="middle" x="279" y="-45" font-family="FreeSans" font-size="10.00">vtkObject</text>
</a>
</g>
<!-- Node4&#45;&gt;Node3 -->
<g id="edge6" class="edge"><title>Node4&#45;&gt;Node3</title>
<path fill="none" stroke="midnightblue" d="M320.317,-48C328.614,-48 337.525,-48 346.415,-48"/>
<polygon fill="midnightblue" stroke="midnightblue" points="320.183,-44.5001 310.183,-48 320.183,-51.5001 320.183,-44.5001"/>
</g>
<!-- Node5 -->
<g id="node8" class="node"><title>Node5</title>
<a xlink:href="class_kitware_1_1_v_t_k_1_1vtk_object_base.html" target="_top" xlink:title="vtkObjectBase &#45; abstract base class for most VTK objects">
<polygon fill="none" stroke="black" points="126,-38 126,-58 212,-58 212,-38 126,-38"/>
<text text-anchor="middle" x="169" y="-45" font-family="FreeSans" font-size="10.00">vtkObjectBase</text>
</a>
</g>
<!-- Node5&#45;&gt;Node4 -->
<g id="edge8" class="edge"><title>Node5&#45;&gt;Node4</title>
<path fill="none" stroke="midnightblue" d="M222.346,-48C231.091,-48 239.892,-48 247.863,-48"/>
<polygon fill="midnightblue" stroke="midnightblue" points="222.159,-44.5001 212.159,-48 222.159,-51.5001 222.159,-44.5001"/>
</g>
<!-- Node6 -->
<g id="node10" class="node"><title>Node6</title>
<a xlink:href="class_kitware_1_1_v_t_k_1_1_wrapped_object.html" target="_top" xlink:title="Base class for all the mummy wrapped classes in Kitware.VTK.">
<polygon fill="none" stroke="black" points="0.5,-38 0.5,-58 89.5,-58 89.5,-38 0.5,-38"/>
<text text-anchor="middle" x="45" y="-45" font-family="FreeSans" font-size="10.00">WrappedObject</text>
</a>
</g>
<!-- Node6&#45;&gt;Node5 -->
<g id="edge10" class="edge"><title>Node6&#45;&gt;Node5</title>
<path fill="none" stroke="midnightblue" d="M99.8895,-48C108.623,-48 117.548,-48 125.957,-48"/>
<polygon fill="midnightblue" stroke="midnightblue" points="99.7669,-44.5001 89.7668,-48 99.7668,-51.5001 99.7669,-44.5001"/>
</g>
<!-- Node10 -->
<g id="node19" class="node"><title>Node10</title>
<a xlink:href="class_kitware_1_1_v_t_k_1_1vtk_chart_histogram2_d.html" target="_top" xlink:title="vtkChart2DHistogram &#45; Chart for 2D histograms.">
<polygon fill="none" stroke="black" points="1036.5,-0 1036.5,-20 1215.5,-20 1215.5,-0 1036.5,-0"/>
<text text-anchor="middle" x="1126" y="-7" font-family="FreeSans" font-size="10.00">Kitware.VTK.vtkChartHistogram2D</text>
</a>
</g>
<!-- Node9&#45;&gt;Node10 -->
<g id="edge18" class="edge"><title>Node9&#45;&gt;Node10</title>
<path fill="none" stroke="midnightblue" d="M969.947,-10C991.071,-10 1014.32,-10 1036.28,-10"/>
<polygon fill="midnightblue" stroke="midnightblue" points="969.762,-6.5001 959.762,-10 969.762,-13.5001 969.762,-6.5001"/>
</g>
</g>
</svg>
