<?xml version="1.0" encoding="UTF-8" standalone="no"?>
<!DOCTYPE svg PUBLIC "-//W3C//DTD SVG 1.1//EN"
 "http://www.w3.org/Graphics/SVG/1.1/DTD/svg11.dtd">
<!-- Generated by graphviz version 2.26.3 (20100126.1600)
 -->
<!-- Title: G Pages: 1 -->
<svg width="300pt" height="552pt"
 viewBox="0.00 0.00 300.00 552.00" xmlns="http://www.w3.org/2000/svg" xmlns:xlink="http://www.w3.org/1999/xlink">
<g id="graph1" class="graph" transform="scale(1 1) rotate(0) translate(4 548)">
<title>G</title>
<!-- Node1 -->
<g id="node1" class="node"><title>Node1</title>
<polygon fill="#bfbfbf" stroke="black" points="56.5,-59 56.5,-79 231.5,-79 231.5,-59 56.5,-59"/>
<text text-anchor="middle" x="144" y="-66" font-family="FreeSans" font-size="10.00">Kitware.VTK.vtkImageFourierFilter</text>
</g>
<!-- Node10 -->
<g id="node19" class="node"><title>Node10</title>
<a xlink:href="class_kitware_1_1_v_t_k_1_1vtk_image_f_f_t.html" target="_top" xlink:title="vtkImageFFT &#45; Fast Fourier Transform.">
<polygon fill="none" stroke="black" points="-0.5,-1 -0.5,-21 134.5,-21 134.5,-1 -0.5,-1"/>
<text text-anchor="middle" x="67" y="-8" font-family="FreeSans" font-size="10.00">Kitware.VTK.vtkImageFFT</text>
</a>
</g>
<!-- Node1&#45;&gt;Node10 -->
<g id="edge18" class="edge"><title>Node1&#45;&gt;Node10</title>
<path fill="none" stroke="midnightblue" d="M122.343,-52.6866C108.91,-42.5689 92.0717,-29.8852 80.517,-21.1817"/>
<polygon fill="midnightblue" stroke="midnightblue" points="120.494,-55.6762 130.588,-58.8972 124.706,-50.0849 120.494,-55.6762"/>
</g>
<!-- Node11 -->
<g id="node21" class="node"><title>Node11</title>
<a xlink:href="class_kitware_1_1_v_t_k_1_1vtk_image_r_f_f_t.html" target="_top" xlink:title="vtkImageRFFT &#45; Reverse Fast Fourier Transform.">
<polygon fill="none" stroke="black" points="151.5,-1 151.5,-21 292.5,-21 292.5,-1 151.5,-1"/>
<text text-anchor="middle" x="222" y="-8" font-family="FreeSans" font-size="10.00">Kitware.VTK.vtkImageRFFT</text>
</a>
</g>
<!-- Node1&#45;&gt;Node11 -->
<g id="edge20" class="edge"><title>Node1&#45;&gt;Node11</title>
<path fill="none" stroke="midnightblue" d="M165.939,-52.6866C179.545,-42.5689 196.603,-29.8852 208.307,-21.1817"/>
<polygon fill="midnightblue" stroke="midnightblue" points="163.523,-50.1215 157.587,-58.8972 167.7,-55.7387 163.523,-50.1215"/>
</g>
<!-- Node2 -->
<g id="node2" class="node"><title>Node2</title>
<a xlink:href="class_kitware_1_1_v_t_k_1_1vtk_image_decompose_filter.html" target="_top" xlink:title="vtkImageDecomposeFilter &#45; Filters that execute axes in series.">
<polygon fill="none" stroke="black" points="73.5,-117 73.5,-137 214.5,-137 214.5,-117 73.5,-117"/>
<text text-anchor="middle" x="144" y="-124" font-family="FreeSans" font-size="10.00">vtkImageDecomposeFilter</text>
</a>
</g>
<!-- Node2&#45;&gt;Node1 -->
<g id="edge2" class="edge"><title>Node2&#45;&gt;Node1</title>
<path fill="none" stroke="midnightblue" d="M144,-106.89C144,-97.6201 144,-87.0083 144,-79.3776"/>
<polygon fill="midnightblue" stroke="midnightblue" points="140.5,-106.897 144,-116.897 147.5,-106.897 140.5,-106.897"/>
</g>
<!-- Node3 -->
<g id="node4" class="node"><title>Node3</title>
<a xlink:href="class_kitware_1_1_v_t_k_1_1vtk_image_iterate_filter.html" target="_top" xlink:title="vtkImageIterateFilter &#45; Multiple executes per update.">
<polygon fill="none" stroke="black" points="86.5,-175 86.5,-195 201.5,-195 201.5,-175 86.5,-175"/>
<text text-anchor="middle" x="144" y="-182" font-family="FreeSans" font-size="10.00">vtkImageIterateFilter</text>
</a>
</g>
<!-- Node3&#45;&gt;Node2 -->
<g id="edge4" class="edge"><title>Node3&#45;&gt;Node2</title>
<path fill="none" stroke="midnightblue" d="M144,-164.89C144,-155.62 144,-145.008 144,-137.378"/>
<polygon fill="midnightblue" stroke="midnightblue" points="140.5,-164.897 144,-174.897 147.5,-164.897 140.5,-164.897"/>
</g>
<!-- Node4 -->
<g id="node6" class="node"><title>Node4</title>
<a xlink:href="class_kitware_1_1_v_t_k_1_1vtk_threaded_image_algorithm.html" target="_top" xlink:title="vtkThreadedImageAlgorithm &#45; Generic filter that has one input..">
<polygon fill="none" stroke="black" points="68,-233 68,-253 220,-253 220,-233 68,-233"/>
<text text-anchor="middle" x="144" y="-240" font-family="FreeSans" font-size="10.00">vtkThreadedImageAlgorithm</text>
</a>
</g>
<!-- Node4&#45;&gt;Node3 -->
<g id="edge6" class="edge"><title>Node4&#45;&gt;Node3</title>
<path fill="none" stroke="midnightblue" d="M144,-222.89C144,-213.62 144,-203.008 144,-195.378"/>
<polygon fill="midnightblue" stroke="midnightblue" points="140.5,-222.897 144,-232.897 147.5,-222.897 140.5,-222.897"/>
</g>
<!-- Node5 -->
<g id="node8" class="node"><title>Node5</title>
<a xlink:href="class_kitware_1_1_v_t_k_1_1vtk_image_algorithm.html" target="_top" xlink:title="vtkImageAlgorithm &#45; Generic algorithm superclass for image algs">
<polygon fill="none" stroke="black" points="90.5,-291 90.5,-311 197.5,-311 197.5,-291 90.5,-291"/>
<text text-anchor="middle" x="144" y="-298" font-family="FreeSans" font-size="10.00">vtkImageAlgorithm</text>
</a>
</g>
<!-- Node5&#45;&gt;Node4 -->
<g id="edge8" class="edge"><title>Node5&#45;&gt;Node4</title>
<path fill="none" stroke="midnightblue" d="M144,-280.89C144,-271.62 144,-261.008 144,-253.378"/>
<polygon fill="midnightblue" stroke="midnightblue" points="140.5,-280.897 144,-290.897 147.5,-280.897 140.5,-280.897"/>
</g>
<!-- Node6 -->
<g id="node10" class="node"><title>Node6</title>
<a xlink:href="class_kitware_1_1_v_t_k_1_1vtk_algorithm.html" target="_top" xlink:title="vtkAlgorithm &#45; Superclass for all sources, filters, and sinks in VTK.">
<polygon fill="none" stroke="black" points="105.5,-349 105.5,-369 182.5,-369 182.5,-349 105.5,-349"/>
<text text-anchor="middle" x="144" y="-356" font-family="FreeSans" font-size="10.00">vtkAlgorithm</text>
</a>
</g>
<!-- Node6&#45;&gt;Node5 -->
<g id="edge10" class="edge"><title>Node6&#45;&gt;Node5</title>
<path fill="none" stroke="midnightblue" d="M144,-338.89C144,-329.62 144,-319.008 144,-311.378"/>
<polygon fill="midnightblue" stroke="midnightblue" points="140.5,-338.897 144,-348.897 147.5,-338.897 140.5,-338.897"/>
</g>
<!-- Node7 -->
<g id="node12" class="node"><title>Node7</title>
<a xlink:href="class_kitware_1_1_v_t_k_1_1vtk_object.html" target="_top" xlink:title="vtkObject &#45; abstract base class for most VTK objects">
<polygon fill="none" stroke="black" points="113,-407 113,-427 175,-427 175,-407 113,-407"/>
<text text-anchor="middle" x="144" y="-414" font-family="FreeSans" font-size="10.00">vtkObject</text>
</a>
</g>
<!-- Node7&#45;&gt;Node6 -->
<g id="edge12" class="edge"><title>Node7&#45;&gt;Node6</title>
<path fill="none" stroke="midnightblue" d="M144,-396.89C144,-387.62 144,-377.008 144,-369.378"/>
<polygon fill="midnightblue" stroke="midnightblue" points="140.5,-396.897 144,-406.897 147.5,-396.897 140.5,-396.897"/>
</g>
<!-- Node8 -->
<g id="node14" class="node"><title>Node8</title>
<a xlink:href="class_kitware_1_1_v_t_k_1_1vtk_object_base.html" target="_top" xlink:title="vtkObjectBase &#45; abstract base class for most VTK objects">
<polygon fill="none" stroke="black" points="101,-465 101,-485 187,-485 187,-465 101,-465"/>
<text text-anchor="middle" x="144" y="-472" font-family="FreeSans" font-size="10.00">vtkObjectBase</text>
</a>
</g>
<!-- Node8&#45;&gt;Node7 -->
<g id="edge14" class="edge"><title>Node8&#45;&gt;Node7</title>
<path fill="none" stroke="midnightblue" d="M144,-454.89C144,-445.62 144,-435.008 144,-427.378"/>
<polygon fill="midnightblue" stroke="midnightblue" points="140.5,-454.897 144,-464.897 147.5,-454.897 140.5,-454.897"/>
</g>
<!-- Node9 -->
<g id="node16" class="node"><title>Node9</title>
<a xlink:href="class_kitware_1_1_v_t_k_1_1_wrapped_object.html" target="_top" xlink:title="Base class for all the mummy wrapped classes in Kitware.VTK.">
<polygon fill="none" stroke="black" points="99.5,-523 99.5,-543 188.5,-543 188.5,-523 99.5,-523"/>
<text text-anchor="middle" x="144" y="-530" font-family="FreeSans" font-size="10.00">WrappedObject</text>
</a>
</g>
<!-- Node9&#45;&gt;Node8 -->
<g id="edge16" class="edge"><title>Node9&#45;&gt;Node8</title>
<path fill="none" stroke="midnightblue" d="M144,-512.89C144,-503.62 144,-493.008 144,-485.378"/>
<polygon fill="midnightblue" stroke="midnightblue" points="140.5,-512.897 144,-522.897 147.5,-512.897 140.5,-512.897"/>
</g>
</g>
</svg>
