<?xml version="1.0" encoding="UTF-8" standalone="no"?>
<!DOCTYPE svg PUBLIC "-//W3C//DTD SVG 1.1//EN"
 "http://www.w3.org/Graphics/SVG/1.1/DTD/svg11.dtd">
<!-- Generated by graphviz version 2.26.3 (20100126.1600)
 -->
<!-- Title: G Pages: 1 -->
<svg width="166pt" height="494pt"
 viewBox="0.00 0.00 166.00 494.00" xmlns="http://www.w3.org/2000/svg" xmlns:xlink="http://www.w3.org/1999/xlink">
<g id="graph1" class="graph" transform="scale(1 1) rotate(0) translate(4 490)">
<title>G</title>
<!-- Node1 -->
<g id="node1" class="node"><title>Node1</title>
<polygon fill="#bfbfbf" stroke="black" points="2.5,-59 2.5,-79 155.5,-79 155.5,-59 2.5,-59"/>
<text text-anchor="middle" x="79" y="-66" font-family="FreeSans" font-size="10.00">Kitware.VTK.vtkPCAStatistics</text>
</g>
<!-- Node9 -->
<g id="node17" class="node"><title>Node9</title>
<a xlink:href="class_kitware_1_1_v_t_k_1_1vtk_p_p_c_a_statistics.html" target="_top" xlink:title="vtkPPCAStatistics &#45; A class for parallel principal component analysis">
<polygon fill="none" stroke="black" points="-0.5,-1 -0.5,-21 158.5,-21 158.5,-1 -0.5,-1"/>
<text text-anchor="middle" x="79" y="-8" font-family="FreeSans" font-size="10.00">Kitware.VTK.vtkPPCAStatistics</text>
</a>
</g>
<!-- Node1&#45;&gt;Node9 -->
<g id="edge16" class="edge"><title>Node1&#45;&gt;Node9</title>
<path fill="none" stroke="midnightblue" d="M79,-48.8902C79,-39.6201 79,-29.0083 79,-21.3776"/>
<polygon fill="midnightblue" stroke="midnightblue" points="75.5001,-48.8971 79,-58.8972 82.5001,-48.8972 75.5001,-48.8971"/>
</g>
<!-- Node2 -->
<g id="node2" class="node"><title>Node2</title>
<a xlink:href="class_kitware_1_1_v_t_k_1_1vtk_multi_correlative_statistics.html" target="_top" xlink:title="vtkMultiCorrelativeStatistics &#45; A class for linear correlation">
<polygon fill="none" stroke="black" points="4.5,-117 4.5,-137 153.5,-137 153.5,-117 4.5,-117"/>
<text text-anchor="middle" x="79" y="-124" font-family="FreeSans" font-size="10.00">vtkMultiCorrelativeStatistics</text>
</a>
</g>
<!-- Node2&#45;&gt;Node1 -->
<g id="edge2" class="edge"><title>Node2&#45;&gt;Node1</title>
<path fill="none" stroke="midnightblue" d="M79,-106.89C79,-97.6201 79,-87.0083 79,-79.3776"/>
<polygon fill="midnightblue" stroke="midnightblue" points="75.5001,-106.897 79,-116.897 82.5001,-106.897 75.5001,-106.897"/>
</g>
<!-- Node3 -->
<g id="node4" class="node"><title>Node3</title>
<a xlink:href="class_kitware_1_1_v_t_k_1_1vtk_statistics_algorithm.html" target="_top" xlink:title="vtkStatisticsAlgorithm &#45; Base class for statistics algorithms">
<polygon fill="none" stroke="black" points="18,-175 18,-195 140,-195 140,-175 18,-175"/>
<text text-anchor="middle" x="79" y="-182" font-family="FreeSans" font-size="10.00">vtkStatisticsAlgorithm</text>
</a>
</g>
<!-- Node3&#45;&gt;Node2 -->
<g id="edge4" class="edge"><title>Node3&#45;&gt;Node2</title>
<path fill="none" stroke="midnightblue" d="M79,-164.89C79,-155.62 79,-145.008 79,-137.378"/>
<polygon fill="midnightblue" stroke="midnightblue" points="75.5001,-164.897 79,-174.897 82.5001,-164.897 75.5001,-164.897"/>
</g>
<!-- Node4 -->
<g id="node6" class="node"><title>Node4</title>
<a xlink:href="class_kitware_1_1_v_t_k_1_1vtk_table_algorithm.html" target="_top" xlink:title="vtkTableAlgorithm &#45; Superclass for algorithms that produce only vtkTables as output">
<polygon fill="none" stroke="black" points="28.5,-233 28.5,-253 129.5,-253 129.5,-233 28.5,-233"/>
<text text-anchor="middle" x="79" y="-240" font-family="FreeSans" font-size="10.00">vtkTableAlgorithm</text>
</a>
</g>
<!-- Node4&#45;&gt;Node3 -->
<g id="edge6" class="edge"><title>Node4&#45;&gt;Node3</title>
<path fill="none" stroke="midnightblue" d="M79,-222.89C79,-213.62 79,-203.008 79,-195.378"/>
<polygon fill="midnightblue" stroke="midnightblue" points="75.5001,-222.897 79,-232.897 82.5001,-222.897 75.5001,-222.897"/>
</g>
<!-- Node5 -->
<g id="node8" class="node"><title>Node5</title>
<a xlink:href="class_kitware_1_1_v_t_k_1_1vtk_algorithm.html" target="_top" xlink:title="vtkAlgorithm &#45; Superclass for all sources, filters, and sinks in VTK.">
<polygon fill="none" stroke="black" points="40.5,-291 40.5,-311 117.5,-311 117.5,-291 40.5,-291"/>
<text text-anchor="middle" x="79" y="-298" font-family="FreeSans" font-size="10.00">vtkAlgorithm</text>
</a>
</g>
<!-- Node5&#45;&gt;Node4 -->
<g id="edge8" class="edge"><title>Node5&#45;&gt;Node4</title>
<path fill="none" stroke="midnightblue" d="M79,-280.89C79,-271.62 79,-261.008 79,-253.378"/>
<polygon fill="midnightblue" stroke="midnightblue" points="75.5001,-280.897 79,-290.897 82.5001,-280.897 75.5001,-280.897"/>
</g>
<!-- Node6 -->
<g id="node10" class="node"><title>Node6</title>
<a xlink:href="class_kitware_1_1_v_t_k_1_1vtk_object.html" target="_top" xlink:title="vtkObject &#45; abstract base class for most VTK objects">
<polygon fill="none" stroke="black" points="48,-349 48,-369 110,-369 110,-349 48,-349"/>
<text text-anchor="middle" x="79" y="-356" font-family="FreeSans" font-size="10.00">vtkObject</text>
</a>
</g>
<!-- Node6&#45;&gt;Node5 -->
<g id="edge10" class="edge"><title>Node6&#45;&gt;Node5</title>
<path fill="none" stroke="midnightblue" d="M79,-338.89C79,-329.62 79,-319.008 79,-311.378"/>
<polygon fill="midnightblue" stroke="midnightblue" points="75.5001,-338.897 79,-348.897 82.5001,-338.897 75.5001,-338.897"/>
</g>
<!-- Node7 -->
<g id="node12" class="node"><title>Node7</title>
<a xlink:href="class_kitware_1_1_v_t_k_1_1vtk_object_base.html" target="_top" xlink:title="vtkObjectBase &#45; abstract base class for most VTK objects">
<polygon fill="none" stroke="black" points="36,-407 36,-427 122,-427 122,-407 36,-407"/>
<text text-anchor="middle" x="79" y="-414" font-family="FreeSans" font-size="10.00">vtkObjectBase</text>
</a>
</g>
<!-- Node7&#45;&gt;Node6 -->
<g id="edge12" class="edge"><title>Node7&#45;&gt;Node6</title>
<path fill="none" stroke="midnightblue" d="M79,-396.89C79,-387.62 79,-377.008 79,-369.378"/>
<polygon fill="midnightblue" stroke="midnightblue" points="75.5001,-396.897 79,-406.897 82.5001,-396.897 75.5001,-396.897"/>
</g>
<!-- Node8 -->
<g id="node14" class="node"><title>Node8</title>
<a xlink:href="class_kitware_1_1_v_t_k_1_1_wrapped_object.html" target="_top" xlink:title="Base class for all the mummy wrapped classes in Kitware.VTK.">
<polygon fill="none" stroke="black" points="34.5,-465 34.5,-485 123.5,-485 123.5,-465 34.5,-465"/>
<text text-anchor="middle" x="79" y="-472" font-family="FreeSans" font-size="10.00">WrappedObject</text>
</a>
</g>
<!-- Node8&#45;&gt;Node7 -->
<g id="edge14" class="edge"><title>Node8&#45;&gt;Node7</title>
<path fill="none" stroke="midnightblue" d="M79,-454.89C79,-445.62 79,-435.008 79,-427.378"/>
<polygon fill="midnightblue" stroke="midnightblue" points="75.5001,-454.897 79,-464.897 82.5001,-454.897 75.5001,-454.897"/>
</g>
</g>
</svg>
