<?xml version="1.0" encoding="UTF-8" standalone="no"?>
<!DOCTYPE svg PUBLIC "-//W3C//DTD SVG 1.1//EN"
 "http://www.w3.org/Graphics/SVG/1.1/DTD/svg11.dtd">
<!-- Generated by graphviz version 2.26.3 (20100126.1600)
 -->
<!-- Title: G Pages: 1 -->
<svg width="216pt" height="320pt"
 viewBox="0.00 0.00 216.00 320.00" xmlns="http://www.w3.org/2000/svg" xmlns:xlink="http://www.w3.org/1999/xlink">
<g id="graph1" class="graph" transform="scale(1 1) rotate(0) translate(4 316)">
<title>G</title>
<!-- Node1 -->
<g id="node1" class="node"><title>Node1</title>
<polygon fill="#bfbfbf" stroke="black" points="0,-1 0,-21 208,-21 208,-1 0,-1"/>
<text text-anchor="middle" x="104" y="-8" font-family="FreeSans" font-size="10.00">Kitware.VTK.vtkGraphHierarchicalBundle</text>
</g>
<!-- Node2 -->
<g id="node2" class="node"><title>Node2</title>
<a xlink:href="class_kitware_1_1_v_t_k_1_1vtk_poly_data_algorithm.html" target="_top" xlink:title="vtkPolyDataAlgorithm &#45; Superclass for algorithms that produce only polydata as output">
<polygon fill="none" stroke="black" points="44,-59 44,-79 164,-79 164,-59 44,-59"/>
<text text-anchor="middle" x="104" y="-66" font-family="FreeSans" font-size="10.00">vtkPolyDataAlgorithm</text>
</a>
</g>
<!-- Node2&#45;&gt;Node1 -->
<g id="edge2" class="edge"><title>Node2&#45;&gt;Node1</title>
<path fill="none" stroke="midnightblue" d="M104,-48.8902C104,-39.6201 104,-29.0083 104,-21.3776"/>
<polygon fill="midnightblue" stroke="midnightblue" points="100.5,-48.8971 104,-58.8972 107.5,-48.8972 100.5,-48.8971"/>
</g>
<!-- Node3 -->
<g id="node4" class="node"><title>Node3</title>
<a xlink:href="class_kitware_1_1_v_t_k_1_1vtk_algorithm.html" target="_top" xlink:title="vtkAlgorithm &#45; Superclass for all sources, filters, and sinks in VTK.">
<polygon fill="none" stroke="black" points="65.5,-117 65.5,-137 142.5,-137 142.5,-117 65.5,-117"/>
<text text-anchor="middle" x="104" y="-124" font-family="FreeSans" font-size="10.00">vtkAlgorithm</text>
</a>
</g>
<!-- Node3&#45;&gt;Node2 -->
<g id="edge4" class="edge"><title>Node3&#45;&gt;Node2</title>
<path fill="none" stroke="midnightblue" d="M104,-106.89C104,-97.6201 104,-87.0083 104,-79.3776"/>
<polygon fill="midnightblue" stroke="midnightblue" points="100.5,-106.897 104,-116.897 107.5,-106.897 100.5,-106.897"/>
</g>
<!-- Node4 -->
<g id="node6" class="node"><title>Node4</title>
<a xlink:href="class_kitware_1_1_v_t_k_1_1vtk_object.html" target="_top" xlink:title="vtkObject &#45; abstract base class for most VTK objects">
<polygon fill="none" stroke="black" points="73,-175 73,-195 135,-195 135,-175 73,-175"/>
<text text-anchor="middle" x="104" y="-182" font-family="FreeSans" font-size="10.00">vtkObject</text>
</a>
</g>
<!-- Node4&#45;&gt;Node3 -->
<g id="edge6" class="edge"><title>Node4&#45;&gt;Node3</title>
<path fill="none" stroke="midnightblue" d="M104,-164.89C104,-155.62 104,-145.008 104,-137.378"/>
<polygon fill="midnightblue" stroke="midnightblue" points="100.5,-164.897 104,-174.897 107.5,-164.897 100.5,-164.897"/>
</g>
<!-- Node5 -->
<g id="node8" class="node"><title>Node5</title>
<a xlink:href="class_kitware_1_1_v_t_k_1_1vtk_object_base.html" target="_top" xlink:title="vtkObjectBase &#45; abstract base class for most VTK objects">
<polygon fill="none" stroke="black" points="61,-233 61,-253 147,-253 147,-233 61,-233"/>
<text text-anchor="middle" x="104" y="-240" font-family="FreeSans" font-size="10.00">vtkObjectBase</text>
</a>
</g>
<!-- Node5&#45;&gt;Node4 -->
<g id="edge8" class="edge"><title>Node5&#45;&gt;Node4</title>
<path fill="none" stroke="midnightblue" d="M104,-222.89C104,-213.62 104,-203.008 104,-195.378"/>
<polygon fill="midnightblue" stroke="midnightblue" points="100.5,-222.897 104,-232.897 107.5,-222.897 100.5,-222.897"/>
</g>
<!-- Node6 -->
<g id="node10" class="node"><title>Node6</title>
<a xlink:href="class_kitware_1_1_v_t_k_1_1_wrapped_object.html" target="_top" xlink:title="Base class for all the mummy wrapped classes in Kitware.VTK.">
<polygon fill="none" stroke="black" points="59.5,-291 59.5,-311 148.5,-311 148.5,-291 59.5,-291"/>
<text text-anchor="middle" x="104" y="-298" font-family="FreeSans" font-size="10.00">WrappedObject</text>
</a>
</g>
<!-- Node6&#45;&gt;Node5 -->
<g id="edge10" class="edge"><title>Node6&#45;&gt;Node5</title>
<path fill="none" stroke="midnightblue" d="M104,-280.89C104,-271.62 104,-261.008 104,-253.378"/>
<polygon fill="midnightblue" stroke="midnightblue" points="100.5,-280.897 104,-290.897 107.5,-280.897 100.5,-280.897"/>
</g>
</g>
</svg>
