<?xml version="1.0" encoding="UTF-8" standalone="no"?>
<!DOCTYPE svg PUBLIC "-//W3C//DTD SVG 1.1//EN"
 "http://www.w3.org/Graphics/SVG/1.1/DTD/svg11.dtd">
<!-- Generated by graphviz version 2.26.3 (20100126.1600)
 -->
<!-- Title: G Pages: 1 -->
<svg width="396pt" height="280pt"
 viewBox="0.00 0.00 395.86 280.00" xmlns="http://www.w3.org/2000/svg" xmlns:xlink="http://www.w3.org/1999/xlink">
<g id="graph1" class="graph" transform="scale(1 1) rotate(0) translate(4 276)">
<title>G</title>
<!-- Node1 -->
<g id="node1" class="node"><title>Node1</title>
<polygon fill="#bfbfbf" stroke="black" points="111.862,-191 111.862,-211 283.862,-211 283.862,-191 111.862,-191"/>
<text text-anchor="middle" x="197.862" y="-198" font-family="FreeSans" font-size="10.00">Kitware.VTK.vtkObjectEventRelay</text>
</g>
<!-- Node3 -->
<g id="node4" class="node"><title>Node3</title>
<a xlink:href="class_kitware_1_1_v_t_k_1_1vtk_object.html" target="_top" xlink:title="vtkObject &#45; abstract base class for most VTK objects">
<polygon fill="none" stroke="black" points="221.862,-1 221.862,-21 341.862,-21 341.862,-1 221.862,-1"/>
<text text-anchor="middle" x="281.862" y="-8" font-family="FreeSans" font-size="10.00">Kitware.VTK.vtkObject</text>
</a>
</g>
<!-- Node1&#45;&gt;Node3 -->
<g id="edge10" class="edge"><title>Node1&#45;&gt;Node3</title>
<path fill="none" stroke="#9a32cd" stroke-dasharray="5,2" d="M101.808,-189.715C66.701,-184.614 34.1898,-178.319 28.8624,-172 -8.95082,-127.145 -10.1877,-83.782 28.8624,-40 41.4982,-25.8332 151.056,-17.6223 221.798,-13.7523"/>
<polygon fill="#9a32cd" stroke="#9a32cd" points="101.366,-193.188 111.758,-191.122 102.346,-186.256 101.366,-193.188"/>
<text text-anchor="middle" x="142.362" y="-163" font-family="FreeSans" font-size="10.00"> LeftButtonReleaseEvtRelay</text>
<text text-anchor="middle" x="142.362" y="-151" font-family="FreeSans" font-size="10.00">KeyPressEvtRelay</text>
<text text-anchor="middle" x="142.362" y="-139" font-family="FreeSans" font-size="10.00">DomainModifiedEvtRelay</text>
<text text-anchor="middle" x="142.362" y="-127" font-family="FreeSans" font-size="10.00">VolumeMapperComputeGradientsStartEvtRelay</text>
<text text-anchor="middle" x="142.362" y="-115" font-family="FreeSans" font-size="10.00">ErrorEvtRelay</text>
<text text-anchor="middle" x="142.362" y="-103" font-family="FreeSans" font-size="10.00">VolumeMapperRenderStartEvtRelay</text>
<text text-anchor="middle" x="142.362" y="-91" font-family="FreeSans" font-size="10.00">StartEvtRelay</text>
<text text-anchor="middle" x="142.362" y="-79" font-family="FreeSans" font-size="10.00">ResetCameraEvtRelay</text>
<text text-anchor="middle" x="142.362" y="-67" font-family="FreeSans" font-size="10.00">EnableEvtRelay</text>
<text text-anchor="middle" x="142.362" y="-55" font-family="FreeSans" font-size="10.00">DeleteEvtRelay</text>
<text text-anchor="middle" x="142.362" y="-43" font-family="FreeSans" font-size="10.00">...</text>
</g>
<!-- Node2 -->
<g id="node2" class="node"><title>Node2</title>
<a xlink:href="class_kitware_1_1_v_t_k_1_1_wrapped_object.html" target="_top" xlink:title="Base class for all the mummy wrapped classes in Kitware.VTK.">
<polygon fill="none" stroke="black" points="241.362,-251 241.362,-271 330.362,-271 330.362,-251 241.362,-251"/>
<text text-anchor="middle" x="285.862" y="-258" font-family="FreeSans" font-size="10.00">WrappedObject</text>
</a>
</g>
<!-- Node2&#45;&gt;Node1 -->
<g id="edge2" class="edge"><title>Node2&#45;&gt;Node1</title>
<path fill="none" stroke="midnightblue" d="M262.231,-244.887C246.42,-234.107 226.106,-220.257 212.57,-211.028"/>
<polygon fill="midnightblue" stroke="midnightblue" points="260.7,-248.08 270.934,-250.822 264.644,-242.297 260.7,-248.08"/>
</g>
<!-- Node4 -->
<g id="node6" class="node"><title>Node4</title>
<a xlink:href="class_kitware_1_1_v_t_k_1_1vtk_object_base.html" target="_top" xlink:title="vtkObjectBase &#45; abstract base class for most VTK objects">
<polygon fill="none" stroke="black" points="301.862,-191 301.862,-211 387.862,-211 387.862,-191 301.862,-191"/>
<text text-anchor="middle" x="344.862" y="-198" font-family="FreeSans" font-size="10.00">vtkObjectBase</text>
</a>
</g>
<!-- Node2&#45;&gt;Node4 -->
<g id="edge8" class="edge"><title>Node2&#45;&gt;Node4</title>
<path fill="none" stroke="midnightblue" d="M302.908,-243.666C313.319,-233.078 326.266,-219.912 335.002,-211.028"/>
<polygon fill="midnightblue" stroke="midnightblue" points="300.387,-241.238 295.871,-250.822 305.378,-246.146 300.387,-241.238"/>
</g>
<!-- Node3&#45;&gt;Node1 -->
<g id="edge4" class="edge"><title>Node3&#45;&gt;Node1</title>
<path fill="none" stroke="#9a32cd" stroke-dasharray="5,2" d="M279.614,-31.2715C274.883,-73.2733 263.999,-166.381 259.862,-172 253.593,-180.517 244.189,-186.618 234.588,-190.952"/>
<polygon fill="#9a32cd" stroke="#9a32cd" points="283.116,-31.4415 280.75,-21.1144 276.16,-30.6633 283.116,-31.4415"/>
<text text-anchor="middle" x="301.862" y="-109" font-family="FreeSans" font-size="10.00"> Sender</text>
<text text-anchor="middle" x="301.862" y="-97" font-family="FreeSans" font-size="10.00">EventImpl</text>
</g>
<!-- Node4&#45;&gt;Node3 -->
<g id="edge6" class="edge"><title>Node4&#45;&gt;Node3</title>
<path fill="none" stroke="midnightblue" d="M348.594,-180.943C353.496,-148.566 358.528,-83.9735 330.862,-40 325.704,-31.8003 317.314,-25.6287 308.923,-21.1341"/>
<polygon fill="midnightblue" stroke="midnightblue" points="345.115,-180.525 346.919,-190.966 352.02,-181.679 345.115,-180.525"/>
</g>
</g>
</svg>
