<?xml version="1.0" encoding="UTF-8" standalone="no"?>
<!DOCTYPE svg PUBLIC "-//W3C//DTD SVG 1.1//EN"
 "http://www.w3.org/Graphics/SVG/1.1/DTD/svg11.dtd">
<!-- Generated by graphviz version 2.26.3 (20100126.1600)
 -->
<!-- Title: G Pages: 1 -->
<svg width="256pt" height="436pt"
 viewBox="0.00 0.00 256.00 436.00" xmlns="http://www.w3.org/2000/svg" xmlns:xlink="http://www.w3.org/1999/xlink">
<g id="graph1" class="graph" transform="scale(1 1) rotate(0) translate(4 432)">
<title>G</title>
<!-- Node1 -->
<g id="node1" class="node"><title>Node1</title>
<polygon fill="#bfbfbf" stroke="black" points="0,-1 0,-21 248,-21 248,-1 0,-1"/>
<text text-anchor="middle" x="124" y="-8" font-family="FreeSans" font-size="10.00">Kitware.VTK.vtkRenderedTreeAreaRepresentation</text>
</g>
<!-- Node2 -->
<g id="node2" class="node"><title>Node2</title>
<a xlink:href="class_kitware_1_1_v_t_k_1_1vtk_rendered_representation.html" target="_top" xlink:title="vtkRenderedRepresentation &#45;">
<polygon fill="none" stroke="black" points="50,-59 50,-79 198,-79 198,-59 50,-59"/>
<text text-anchor="middle" x="124" y="-66" font-family="FreeSans" font-size="10.00">vtkRenderedRepresentation</text>
</a>
</g>
<!-- Node2&#45;&gt;Node1 -->
<g id="edge2" class="edge"><title>Node2&#45;&gt;Node1</title>
<path fill="none" stroke="midnightblue" d="M124,-48.8902C124,-39.6201 124,-29.0083 124,-21.3776"/>
<polygon fill="midnightblue" stroke="midnightblue" points="120.5,-48.8971 124,-58.8972 127.5,-48.8972 120.5,-48.8971"/>
</g>
<!-- Node3 -->
<g id="node4" class="node"><title>Node3</title>
<a xlink:href="class_kitware_1_1_v_t_k_1_1vtk_data_representation.html" target="_top" xlink:title="vtkDataRepresentation &#45; The superclass for all representations">
<polygon fill="none" stroke="black" points="61,-117 61,-137 187,-137 187,-117 61,-117"/>
<text text-anchor="middle" x="124" y="-124" font-family="FreeSans" font-size="10.00">vtkDataRepresentation</text>
</a>
</g>
<!-- Node3&#45;&gt;Node2 -->
<g id="edge4" class="edge"><title>Node3&#45;&gt;Node2</title>
<path fill="none" stroke="midnightblue" d="M124,-106.89C124,-97.6201 124,-87.0083 124,-79.3776"/>
<polygon fill="midnightblue" stroke="midnightblue" points="120.5,-106.897 124,-116.897 127.5,-106.897 120.5,-106.897"/>
</g>
<!-- Node4 -->
<g id="node6" class="node"><title>Node4</title>
<a xlink:href="class_kitware_1_1_v_t_k_1_1vtk_pass_input_type_algorithm.html" target="_top" xlink:title="vtkPassInputTypeAlgorithm &#45; Superclass for algorithms that produce output of the same type as input...">
<polygon fill="none" stroke="black" points="52,-175 52,-195 196,-195 196,-175 52,-175"/>
<text text-anchor="middle" x="124" y="-182" font-family="FreeSans" font-size="10.00">vtkPassInputTypeAlgorithm</text>
</a>
</g>
<!-- Node4&#45;&gt;Node3 -->
<g id="edge6" class="edge"><title>Node4&#45;&gt;Node3</title>
<path fill="none" stroke="midnightblue" d="M124,-164.89C124,-155.62 124,-145.008 124,-137.378"/>
<polygon fill="midnightblue" stroke="midnightblue" points="120.5,-164.897 124,-174.897 127.5,-164.897 120.5,-164.897"/>
</g>
<!-- Node5 -->
<g id="node8" class="node"><title>Node5</title>
<a xlink:href="class_kitware_1_1_v_t_k_1_1vtk_algorithm.html" target="_top" xlink:title="vtkAlgorithm &#45; Superclass for all sources, filters, and sinks in VTK.">
<polygon fill="none" stroke="black" points="85.5,-233 85.5,-253 162.5,-253 162.5,-233 85.5,-233"/>
<text text-anchor="middle" x="124" y="-240" font-family="FreeSans" font-size="10.00">vtkAlgorithm</text>
</a>
</g>
<!-- Node5&#45;&gt;Node4 -->
<g id="edge8" class="edge"><title>Node5&#45;&gt;Node4</title>
<path fill="none" stroke="midnightblue" d="M124,-222.89C124,-213.62 124,-203.008 124,-195.378"/>
<polygon fill="midnightblue" stroke="midnightblue" points="120.5,-222.897 124,-232.897 127.5,-222.897 120.5,-222.897"/>
</g>
<!-- Node6 -->
<g id="node10" class="node"><title>Node6</title>
<a xlink:href="class_kitware_1_1_v_t_k_1_1vtk_object.html" target="_top" xlink:title="vtkObject &#45; abstract base class for most VTK objects">
<polygon fill="none" stroke="black" points="93,-291 93,-311 155,-311 155,-291 93,-291"/>
<text text-anchor="middle" x="124" y="-298" font-family="FreeSans" font-size="10.00">vtkObject</text>
</a>
</g>
<!-- Node6&#45;&gt;Node5 -->
<g id="edge10" class="edge"><title>Node6&#45;&gt;Node5</title>
<path fill="none" stroke="midnightblue" d="M124,-280.89C124,-271.62 124,-261.008 124,-253.378"/>
<polygon fill="midnightblue" stroke="midnightblue" points="120.5,-280.897 124,-290.897 127.5,-280.897 120.5,-280.897"/>
</g>
<!-- Node7 -->
<g id="node12" class="node"><title>Node7</title>
<a xlink:href="class_kitware_1_1_v_t_k_1_1vtk_object_base.html" target="_top" xlink:title="vtkObjectBase &#45; abstract base class for most VTK objects">
<polygon fill="none" stroke="black" points="81,-349 81,-369 167,-369 167,-349 81,-349"/>
<text text-anchor="middle" x="124" y="-356" font-family="FreeSans" font-size="10.00">vtkObjectBase</text>
</a>
</g>
<!-- Node7&#45;&gt;Node6 -->
<g id="edge12" class="edge"><title>Node7&#45;&gt;Node6</title>
<path fill="none" stroke="midnightblue" d="M124,-338.89C124,-329.62 124,-319.008 124,-311.378"/>
<polygon fill="midnightblue" stroke="midnightblue" points="120.5,-338.897 124,-348.897 127.5,-338.897 120.5,-338.897"/>
</g>
<!-- Node8 -->
<g id="node14" class="node"><title>Node8</title>
<a xlink:href="class_kitware_1_1_v_t_k_1_1_wrapped_object.html" target="_top" xlink:title="Base class for all the mummy wrapped classes in Kitware.VTK.">
<polygon fill="none" stroke="black" points="79.5,-407 79.5,-427 168.5,-427 168.5,-407 79.5,-407"/>
<text text-anchor="middle" x="124" y="-414" font-family="FreeSans" font-size="10.00">WrappedObject</text>
</a>
</g>
<!-- Node8&#45;&gt;Node7 -->
<g id="edge14" class="edge"><title>Node8&#45;&gt;Node7</title>
<path fill="none" stroke="midnightblue" d="M124,-396.89C124,-387.62 124,-377.008 124,-369.378"/>
<polygon fill="midnightblue" stroke="midnightblue" points="120.5,-396.897 124,-406.897 127.5,-396.897 120.5,-396.897"/>
</g>
</g>
</svg>
