<?xml version="1.0" encoding="UTF-8" standalone="no"?>
<!DOCTYPE svg PUBLIC "-//W3C//DTD SVG 1.1//EN"
 "http://www.w3.org/Graphics/SVG/1.1/DTD/svg11.dtd">
<!-- Generated by graphviz version 2.26.3 (20100126.1600)
 -->
<!-- Title: G Pages: 1 -->
<svg width="418pt" height="650pt"
 viewBox="0.00 0.00 418.46 650.00" xmlns="http://www.w3.org/2000/svg" xmlns:xlink="http://www.w3.org/1999/xlink">
<g id="graph1" class="graph" transform="scale(1 1) rotate(0) translate(4 646)">
<title>G</title>
<!-- Node1 -->
<g id="node1" class="node"><title>Node1</title>
<polygon fill="#bfbfbf" stroke="black" points="-0.5,-1 -0.5,-21 164.5,-21 164.5,-1 -0.5,-1"/>
<text text-anchor="middle" x="82" y="-8" font-family="FreeSans" font-size="10.00">Kitware.VTK.vtkPolyDataPainter</text>
</g>
<!-- Node2 -->
<g id="node2" class="node"><title>Node2</title>
<a xlink:href="class_kitware_1_1_v_t_k_1_1vtk_painter.html" target="_top" xlink:title="vtkPainter &#45; Abstract class for drawing poly data.">
<polygon fill="none" stroke="black" points="50,-61 50,-81 114,-81 114,-61 50,-61"/>
<text text-anchor="middle" x="82" y="-68" font-family="FreeSans" font-size="10.00">vtkPainter</text>
</a>
</g>
<!-- Node2&#45;&gt;Node1 -->
<g id="edge2" class="edge"><title>Node2&#45;&gt;Node1</title>
<path fill="none" stroke="midnightblue" d="M82,-50.5155C82,-40.562 82,-29.0495 82,-21.0279"/>
<polygon fill="midnightblue" stroke="midnightblue" points="78.5001,-50.8218 82,-60.8218 85.5001,-50.8219 78.5001,-50.8218"/>
</g>
<!-- Node3 -->
<g id="node4" class="node"><title>Node3</title>
<a xlink:href="class_kitware_1_1_v_t_k_1_1vtk_object.html" target="_top" xlink:title="vtkObject &#45; abstract base class for most VTK objects">
<polygon fill="none" stroke="black" points="51,-121 51,-141 113,-141 113,-121 51,-121"/>
<text text-anchor="middle" x="82" y="-128" font-family="FreeSans" font-size="10.00">vtkObject</text>
</a>
</g>
<!-- Node3&#45;&gt;Node2 -->
<g id="edge4" class="edge"><title>Node3&#45;&gt;Node2</title>
<path fill="none" stroke="midnightblue" d="M82,-110.516C82,-100.562 82,-89.0495 82,-81.0279"/>
<polygon fill="midnightblue" stroke="midnightblue" points="78.5001,-110.822 82,-120.822 85.5001,-110.822 78.5001,-110.822"/>
</g>
<!-- Node4 -->
<g id="node6" class="node"><title>Node4</title>
<a xlink:href="class_kitware_1_1_v_t_k_1_1vtk_object_base.html" target="_top" xlink:title="vtkObjectBase &#45; abstract base class for most VTK objects">
<polygon fill="none" stroke="black" points="102,-561 102,-581 188,-581 188,-561 102,-561"/>
<text text-anchor="middle" x="145" y="-568" font-family="FreeSans" font-size="10.00">vtkObjectBase</text>
</a>
</g>
<!-- Node4&#45;&gt;Node3 -->
<g id="edge6" class="edge"><title>Node4&#45;&gt;Node3</title>
<path fill="none" stroke="midnightblue" d="M116.423,-555.886C102.687,-547.44 86.8844,-535.826 76,-522 64.1564,-506.955 63.6209,-500.802 60,-482 34.4248,-349.199 69.5766,-183.437 79.5155,-141.17"/>
<polygon fill="midnightblue" stroke="midnightblue" points="114.683,-558.923 125.079,-560.97 118.229,-552.887 114.683,-558.923"/>
</g>
<!-- Node7 -->
<g id="node13" class="node"><title>Node7</title>
<a xlink:href="class_kitware_1_1_v_t_k_1_1vtk_object.html" target="_top" xlink:title="vtkObject &#45; abstract base class for most VTK objects">
<polygon fill="none" stroke="black" points="85,-501 85,-521 205,-521 205,-501 85,-501"/>
<text text-anchor="middle" x="145" y="-508" font-family="FreeSans" font-size="10.00">Kitware.VTK.vtkObject</text>
</a>
</g>
<!-- Node4&#45;&gt;Node7 -->
<g id="edge16" class="edge"><title>Node4&#45;&gt;Node7</title>
<path fill="none" stroke="midnightblue" d="M145,-550.516C145,-540.562 145,-529.05 145,-521.028"/>
<polygon fill="midnightblue" stroke="midnightblue" points="141.5,-550.822 145,-560.822 148.5,-550.822 141.5,-550.822"/>
</g>
<!-- Node5 -->
<g id="node8" class="node"><title>Node5</title>
<a xlink:href="class_kitware_1_1_v_t_k_1_1_wrapped_object.html" target="_top" xlink:title="Base class for all the mummy wrapped classes in Kitware.VTK.">
<polygon fill="none" stroke="black" points="283.5,-621 283.5,-641 372.5,-641 372.5,-621 283.5,-621"/>
<text text-anchor="middle" x="328" y="-628" font-family="FreeSans" font-size="10.00">WrappedObject</text>
</a>
</g>
<!-- Node5&#45;&gt;Node4 -->
<g id="edge8" class="edge"><title>Node5&#45;&gt;Node4</title>
<path fill="none" stroke="midnightblue" d="M287.804,-617.821C254.042,-606.752 206.512,-591.168 175.73,-581.075"/>
<polygon fill="midnightblue" stroke="midnightblue" points="286.777,-621.168 297.37,-620.957 288.958,-614.516 286.777,-621.168"/>
</g>
<!-- Node6 -->
<g id="node10" class="node"><title>Node6</title>
<a xlink:href="class_kitware_1_1_v_t_k_1_1vtk_object_event_relay.html" target="_top" xlink:title="Implement a relay handler for VTK events. This is a class that receives events directly from the VTK ...">
<polygon fill="none" stroke="black" points="74,-311 74,-331 246,-331 246,-311 74,-311"/>
<text text-anchor="middle" x="160" y="-318" font-family="FreeSans" font-size="10.00">Kitware.VTK.vtkObjectEventRelay</text>
</a>
</g>
<!-- Node5&#45;&gt;Node6 -->
<g id="edge12" class="edge"><title>Node5&#45;&gt;Node6</title>
<path fill="none" stroke="midnightblue" d="M340.888,-612.325C373.276,-562.899 450.803,-427.191 383,-350 373.773,-339.495 305.047,-331.666 246.298,-326.808"/>
<polygon fill="midnightblue" stroke="midnightblue" points="337.891,-610.509 335.239,-620.767 343.709,-614.402 337.891,-610.509"/>
</g>
<!-- Node6&#45;&gt;Node3 -->
<g id="edge10" class="edge"><title>Node6&#45;&gt;Node3</title>
<path fill="none" stroke="#9a32cd" stroke-dasharray="5,2" d="M151.921,-301.321C135.489,-261.293 98.6738,-171.616 86.2144,-141.266"/>
<polygon fill="#9a32cd" stroke="#9a32cd" points="148.771,-302.863 155.806,-310.785 155.246,-300.205 148.771,-302.863"/>
<text text-anchor="middle" x="259.5" y="-283" font-family="FreeSans" font-size="10.00"> LeftButtonReleaseEvtRelay</text>
<text text-anchor="middle" x="259.5" y="-271" font-family="FreeSans" font-size="10.00">KeyPressEvtRelay</text>
<text text-anchor="middle" x="259.5" y="-259" font-family="FreeSans" font-size="10.00">DomainModifiedEvtRelay</text>
<text text-anchor="middle" x="259.5" y="-247" font-family="FreeSans" font-size="10.00">VolumeMapperComputeGradientsStartEvtRelay</text>
<text text-anchor="middle" x="259.5" y="-235" font-family="FreeSans" font-size="10.00">ErrorEvtRelay</text>
<text text-anchor="middle" x="259.5" y="-223" font-family="FreeSans" font-size="10.00">VolumeMapperRenderStartEvtRelay</text>
<text text-anchor="middle" x="259.5" y="-211" font-family="FreeSans" font-size="10.00">StartEvtRelay</text>
<text text-anchor="middle" x="259.5" y="-199" font-family="FreeSans" font-size="10.00">ResetCameraEvtRelay</text>
<text text-anchor="middle" x="259.5" y="-187" font-family="FreeSans" font-size="10.00">EnableEvtRelay</text>
<text text-anchor="middle" x="259.5" y="-175" font-family="FreeSans" font-size="10.00">DeleteEvtRelay</text>
<text text-anchor="middle" x="259.5" y="-163" font-family="FreeSans" font-size="10.00">...</text>
</g>
<!-- Node6&#45;&gt;Node7 -->
<g id="edge18" class="edge"><title>Node6&#45;&gt;Node7</title>
<path fill="none" stroke="#9a32cd" stroke-dasharray="5,2" d="M157.028,-341.231C156.649,-344.169 156.293,-347.159 156,-350 150.144,-406.853 146.636,-475.333 145.452,-500.807"/>
<polygon fill="#9a32cd" stroke="#9a32cd" points="160.515,-341.565 158.421,-331.179 153.582,-340.604 160.515,-341.565"/>
<text text-anchor="middle" x="269.5" y="-473" font-family="FreeSans" font-size="10.00"> LeftButtonReleaseEvtRelay</text>
<text text-anchor="middle" x="269.5" y="-461" font-family="FreeSans" font-size="10.00">KeyPressEvtRelay</text>
<text text-anchor="middle" x="269.5" y="-449" font-family="FreeSans" font-size="10.00">DomainModifiedEvtRelay</text>
<text text-anchor="middle" x="269.5" y="-437" font-family="FreeSans" font-size="10.00">VolumeMapperComputeGradientsStartEvtRelay</text>
<text text-anchor="middle" x="269.5" y="-425" font-family="FreeSans" font-size="10.00">ErrorEvtRelay</text>
<text text-anchor="middle" x="269.5" y="-413" font-family="FreeSans" font-size="10.00">VolumeMapperRenderStartEvtRelay</text>
<text text-anchor="middle" x="269.5" y="-401" font-family="FreeSans" font-size="10.00">StartEvtRelay</text>
<text text-anchor="middle" x="269.5" y="-389" font-family="FreeSans" font-size="10.00">ResetCameraEvtRelay</text>
<text text-anchor="middle" x="269.5" y="-377" font-family="FreeSans" font-size="10.00">EnableEvtRelay</text>
<text text-anchor="middle" x="269.5" y="-365" font-family="FreeSans" font-size="10.00">DeleteEvtRelay</text>
<text text-anchor="middle" x="269.5" y="-353" font-family="FreeSans" font-size="10.00">...</text>
</g>
<!-- Node7&#45;&gt;Node6 -->
<g id="edge14" class="edge"><title>Node7&#45;&gt;Node6</title>
<path fill="none" stroke="#9a32cd" stroke-dasharray="5,2" d="M98.9794,-495.818C93.4393,-492.138 88.5104,-487.596 85,-482 53.8229,-432.303 51.8299,-398.389 85,-350 89.7359,-343.091 106.511,-336.287 122.999,-331.008"/>
<polygon fill="#9a32cd" stroke="#9a32cd" points="97.6386,-499.079 108.072,-500.919 101.064,-492.974 97.6386,-499.079"/>
<text text-anchor="middle" x="109" y="-419" font-family="FreeSans" font-size="10.00"> Sender</text>
<text text-anchor="middle" x="109" y="-407" font-family="FreeSans" font-size="10.00">EventImpl</text>
</g>
</g>
</svg>
