<?xml version="1.0" encoding="UTF-8" standalone="no"?>
<!DOCTYPE svg PUBLIC "-//W3C//DTD SVG 1.1//EN"
 "http://www.w3.org/Graphics/SVG/1.1/DTD/svg11.dtd">
<!-- Generated by graphviz version 2.26.3 (20100126.1600)
 -->
<!-- Title: G Pages: 1 -->
<svg width="282pt" height="552pt"
 viewBox="0.00 0.00 282.00 552.00" xmlns="http://www.w3.org/2000/svg" xmlns:xlink="http://www.w3.org/1999/xlink">
<g id="graph1" class="graph" transform="scale(1 1) rotate(0) translate(4 548)">
<title>G</title>
<!-- Node1 -->
<g id="node1" class="node"><title>Node1</title>
<polygon fill="#bfbfbf" stroke="black" points="19,-59 19,-79 255,-79 255,-59 19,-59"/>
<text text-anchor="middle" x="137" y="-66" font-family="FreeSans" font-size="10.00">Kitware.VTK.vtkProjectedAAHexahedraMapper</text>
</g>
<!-- Node10 -->
<g id="node19" class="node"><title>Node10</title>
<a xlink:href="class_kitware_1_1_v_t_k_1_1vtk_open_g_l_projected_a_a_hexahedra_mapper.html" target="_top" xlink:title="vtkOpenGLProjectedAAHexahedraMapper &#45; OpenGL implementation of a volume mapper for axis&#45;aligned hexah...">
<polygon fill="none" stroke="black" points="-0.5,-1 -0.5,-21 274.5,-21 274.5,-1 -0.5,-1"/>
<text text-anchor="middle" x="137" y="-8" font-family="FreeSans" font-size="10.00">Kitware.VTK.vtkOpenGLProjectedAAHexahedraMapper</text>
</a>
</g>
<!-- Node1&#45;&gt;Node10 -->
<g id="edge18" class="edge"><title>Node1&#45;&gt;Node10</title>
<path fill="none" stroke="midnightblue" d="M137,-48.8902C137,-39.6201 137,-29.0083 137,-21.3776"/>
<polygon fill="midnightblue" stroke="midnightblue" points="133.5,-48.8971 137,-58.8972 140.5,-48.8972 133.5,-48.8971"/>
</g>
<!-- Node2 -->
<g id="node2" class="node"><title>Node2</title>
<a xlink:href="class_kitware_1_1_v_t_k_1_1vtk_unstructured_grid_volume_mapper.html" target="_top" xlink:title="vtkUnstructuredGridVolumeMapper &#45; Abstract class for a unstructured grid volume mapper">
<polygon fill="none" stroke="black" points="44.5,-117 44.5,-137 229.5,-137 229.5,-117 44.5,-117"/>
<text text-anchor="middle" x="137" y="-124" font-family="FreeSans" font-size="10.00">vtkUnstructuredGridVolumeMapper</text>
</a>
</g>
<!-- Node2&#45;&gt;Node1 -->
<g id="edge2" class="edge"><title>Node2&#45;&gt;Node1</title>
<path fill="none" stroke="midnightblue" d="M137,-106.89C137,-97.6201 137,-87.0083 137,-79.3776"/>
<polygon fill="midnightblue" stroke="midnightblue" points="133.5,-106.897 137,-116.897 140.5,-106.897 133.5,-106.897"/>
</g>
<!-- Node3 -->
<g id="node4" class="node"><title>Node3</title>
<a xlink:href="class_kitware_1_1_v_t_k_1_1vtk_abstract_volume_mapper.html" target="_top" xlink:title="vtkAbstractVolumeMapper &#45; Abstract class for a volume mapper">
<polygon fill="none" stroke="black" points="65.5,-175 65.5,-195 208.5,-195 208.5,-175 65.5,-175"/>
<text text-anchor="middle" x="137" y="-182" font-family="FreeSans" font-size="10.00">vtkAbstractVolumeMapper</text>
</a>
</g>
<!-- Node3&#45;&gt;Node2 -->
<g id="edge4" class="edge"><title>Node3&#45;&gt;Node2</title>
<path fill="none" stroke="midnightblue" d="M137,-164.89C137,-155.62 137,-145.008 137,-137.378"/>
<polygon fill="midnightblue" stroke="midnightblue" points="133.5,-164.897 137,-174.897 140.5,-164.897 133.5,-164.897"/>
</g>
<!-- Node4 -->
<g id="node6" class="node"><title>Node4</title>
<a xlink:href="class_kitware_1_1_v_t_k_1_1vtk_abstract_mapper3_d.html" target="_top" xlink:title="vtkAbstractMapper3D &#45; abstract class specifies interface to map 3D data">
<polygon fill="none" stroke="black" points="76.5,-233 76.5,-253 197.5,-253 197.5,-233 76.5,-233"/>
<text text-anchor="middle" x="137" y="-240" font-family="FreeSans" font-size="10.00">vtkAbstractMapper3D</text>
</a>
</g>
<!-- Node4&#45;&gt;Node3 -->
<g id="edge6" class="edge"><title>Node4&#45;&gt;Node3</title>
<path fill="none" stroke="midnightblue" d="M137,-222.89C137,-213.62 137,-203.008 137,-195.378"/>
<polygon fill="midnightblue" stroke="midnightblue" points="133.5,-222.897 137,-232.897 140.5,-222.897 133.5,-222.897"/>
</g>
<!-- Node5 -->
<g id="node8" class="node"><title>Node5</title>
<a xlink:href="class_kitware_1_1_v_t_k_1_1vtk_abstract_mapper.html" target="_top" xlink:title="vtkAbstractMapper &#45; abstract class specifies interface to map data">
<polygon fill="none" stroke="black" points="83.5,-291 83.5,-311 190.5,-311 190.5,-291 83.5,-291"/>
<text text-anchor="middle" x="137" y="-298" font-family="FreeSans" font-size="10.00">vtkAbstractMapper</text>
</a>
</g>
<!-- Node5&#45;&gt;Node4 -->
<g id="edge8" class="edge"><title>Node5&#45;&gt;Node4</title>
<path fill="none" stroke="midnightblue" d="M137,-280.89C137,-271.62 137,-261.008 137,-253.378"/>
<polygon fill="midnightblue" stroke="midnightblue" points="133.5,-280.897 137,-290.897 140.5,-280.897 133.5,-280.897"/>
</g>
<!-- Node6 -->
<g id="node10" class="node"><title>Node6</title>
<a xlink:href="class_kitware_1_1_v_t_k_1_1vtk_algorithm.html" target="_top" xlink:title="vtkAlgorithm &#45; Superclass for all sources, filters, and sinks in VTK.">
<polygon fill="none" stroke="black" points="98.5,-349 98.5,-369 175.5,-369 175.5,-349 98.5,-349"/>
<text text-anchor="middle" x="137" y="-356" font-family="FreeSans" font-size="10.00">vtkAlgorithm</text>
</a>
</g>
<!-- Node6&#45;&gt;Node5 -->
<g id="edge10" class="edge"><title>Node6&#45;&gt;Node5</title>
<path fill="none" stroke="midnightblue" d="M137,-338.89C137,-329.62 137,-319.008 137,-311.378"/>
<polygon fill="midnightblue" stroke="midnightblue" points="133.5,-338.897 137,-348.897 140.5,-338.897 133.5,-338.897"/>
</g>
<!-- Node7 -->
<g id="node12" class="node"><title>Node7</title>
<a xlink:href="class_kitware_1_1_v_t_k_1_1vtk_object.html" target="_top" xlink:title="vtkObject &#45; abstract base class for most VTK objects">
<polygon fill="none" stroke="black" points="106,-407 106,-427 168,-427 168,-407 106,-407"/>
<text text-anchor="middle" x="137" y="-414" font-family="FreeSans" font-size="10.00">vtkObject</text>
</a>
</g>
<!-- Node7&#45;&gt;Node6 -->
<g id="edge12" class="edge"><title>Node7&#45;&gt;Node6</title>
<path fill="none" stroke="midnightblue" d="M137,-396.89C137,-387.62 137,-377.008 137,-369.378"/>
<polygon fill="midnightblue" stroke="midnightblue" points="133.5,-396.897 137,-406.897 140.5,-396.897 133.5,-396.897"/>
</g>
<!-- Node8 -->
<g id="node14" class="node"><title>Node8</title>
<a xlink:href="class_kitware_1_1_v_t_k_1_1vtk_object_base.html" target="_top" xlink:title="vtkObjectBase &#45; abstract base class for most VTK objects">
<polygon fill="none" stroke="black" points="94,-465 94,-485 180,-485 180,-465 94,-465"/>
<text text-anchor="middle" x="137" y="-472" font-family="FreeSans" font-size="10.00">vtkObjectBase</text>
</a>
</g>
<!-- Node8&#45;&gt;Node7 -->
<g id="edge14" class="edge"><title>Node8&#45;&gt;Node7</title>
<path fill="none" stroke="midnightblue" d="M137,-454.89C137,-445.62 137,-435.008 137,-427.378"/>
<polygon fill="midnightblue" stroke="midnightblue" points="133.5,-454.897 137,-464.897 140.5,-454.897 133.5,-454.897"/>
</g>
<!-- Node9 -->
<g id="node16" class="node"><title>Node9</title>
<a xlink:href="class_kitware_1_1_v_t_k_1_1_wrapped_object.html" target="_top" xlink:title="Base class for all the mummy wrapped classes in Kitware.VTK.">
<polygon fill="none" stroke="black" points="92.5,-523 92.5,-543 181.5,-543 181.5,-523 92.5,-523"/>
<text text-anchor="middle" x="137" y="-530" font-family="FreeSans" font-size="10.00">WrappedObject</text>
</a>
</g>
<!-- Node9&#45;&gt;Node8 -->
<g id="edge16" class="edge"><title>Node9&#45;&gt;Node8</title>
<path fill="none" stroke="midnightblue" d="M137,-512.89C137,-503.62 137,-493.008 137,-485.378"/>
<polygon fill="midnightblue" stroke="midnightblue" points="133.5,-512.897 137,-522.897 140.5,-512.897 133.5,-512.897"/>
</g>
</g>
</svg>
