<?xml version="1.0" encoding="UTF-8" standalone="no"?>
<!DOCTYPE svg PUBLIC "-//W3C//DTD SVG 1.1//EN"
 "http://www.w3.org/Graphics/SVG/1.1/DTD/svg11.dtd">
<!-- Generated by graphviz version 2.26.3 (20100126.1600)
 -->
<!-- Title: G Pages: 1 -->
<svg width="154pt" height="262pt"
 viewBox="0.00 0.00 154.00 262.00" xmlns="http://www.w3.org/2000/svg" xmlns:xlink="http://www.w3.org/1999/xlink">
<g id="graph1" class="graph" transform="scale(1 1) rotate(0) translate(4 258)">
<title>G</title>
<!-- Node1 -->
<g id="node1" class="node"><title>Node1</title>
<polygon fill="#bfbfbf" stroke="black" points="0,-1 0,-21 146,-21 146,-1 0,-1"/>
<text text-anchor="middle" x="73" y="-8" font-family="FreeSans" font-size="10.00">Kitware.VTK.vtkOBJExporter</text>
</g>
<!-- Node2 -->
<g id="node2" class="node"><title>Node2</title>
<a xlink:href="class_kitware_1_1_v_t_k_1_1vtk_exporter.html" target="_top" xlink:title="vtkExporter &#45; abstract class to write a scene to a file">
<polygon fill="none" stroke="black" points="37.5,-59 37.5,-79 108.5,-79 108.5,-59 37.5,-59"/>
<text text-anchor="middle" x="73" y="-66" font-family="FreeSans" font-size="10.00">vtkExporter</text>
</a>
</g>
<!-- Node2&#45;&gt;Node1 -->
<g id="edge2" class="edge"><title>Node2&#45;&gt;Node1</title>
<path fill="none" stroke="midnightblue" d="M73,-48.8902C73,-39.6201 73,-29.0083 73,-21.3776"/>
<polygon fill="midnightblue" stroke="midnightblue" points="69.5001,-48.8971 73,-58.8972 76.5001,-48.8972 69.5001,-48.8971"/>
</g>
<!-- Node3 -->
<g id="node4" class="node"><title>Node3</title>
<a xlink:href="class_kitware_1_1_v_t_k_1_1vtk_object.html" target="_top" xlink:title="vtkObject &#45; abstract base class for most VTK objects">
<polygon fill="none" stroke="black" points="42,-117 42,-137 104,-137 104,-117 42,-117"/>
<text text-anchor="middle" x="73" y="-124" font-family="FreeSans" font-size="10.00">vtkObject</text>
</a>
</g>
<!-- Node3&#45;&gt;Node2 -->
<g id="edge4" class="edge"><title>Node3&#45;&gt;Node2</title>
<path fill="none" stroke="midnightblue" d="M73,-106.89C73,-97.6201 73,-87.0083 73,-79.3776"/>
<polygon fill="midnightblue" stroke="midnightblue" points="69.5001,-106.897 73,-116.897 76.5001,-106.897 69.5001,-106.897"/>
</g>
<!-- Node4 -->
<g id="node6" class="node"><title>Node4</title>
<a xlink:href="class_kitware_1_1_v_t_k_1_1vtk_object_base.html" target="_top" xlink:title="vtkObjectBase &#45; abstract base class for most VTK objects">
<polygon fill="none" stroke="black" points="30,-175 30,-195 116,-195 116,-175 30,-175"/>
<text text-anchor="middle" x="73" y="-182" font-family="FreeSans" font-size="10.00">vtkObjectBase</text>
</a>
</g>
<!-- Node4&#45;&gt;Node3 -->
<g id="edge6" class="edge"><title>Node4&#45;&gt;Node3</title>
<path fill="none" stroke="midnightblue" d="M73,-164.89C73,-155.62 73,-145.008 73,-137.378"/>
<polygon fill="midnightblue" stroke="midnightblue" points="69.5001,-164.897 73,-174.897 76.5001,-164.897 69.5001,-164.897"/>
</g>
<!-- Node5 -->
<g id="node8" class="node"><title>Node5</title>
<a xlink:href="class_kitware_1_1_v_t_k_1_1_wrapped_object.html" target="_top" xlink:title="Base class for all the mummy wrapped classes in Kitware.VTK.">
<polygon fill="none" stroke="black" points="28.5,-233 28.5,-253 117.5,-253 117.5,-233 28.5,-233"/>
<text text-anchor="middle" x="73" y="-240" font-family="FreeSans" font-size="10.00">WrappedObject</text>
</a>
</g>
<!-- Node5&#45;&gt;Node4 -->
<g id="edge8" class="edge"><title>Node5&#45;&gt;Node4</title>
<path fill="none" stroke="midnightblue" d="M73,-222.89C73,-213.62 73,-203.008 73,-195.378"/>
<polygon fill="midnightblue" stroke="midnightblue" points="69.5001,-222.897 73,-232.897 76.5001,-222.897 69.5001,-222.897"/>
</g>
</g>
</svg>
