<?xml version="1.0" encoding="UTF-8" standalone="no"?>
<!DOCTYPE svg PUBLIC "-//W3C//DTD SVG 1.1//EN"
 "http://www.w3.org/Graphics/SVG/1.1/DTD/svg11.dtd">
<!-- Generated by graphviz version 2.26.3 (20100126.1600)
 -->
<!-- Title: G Pages: 1 -->
<svg width="1236pt" height="104pt"
 viewBox="0.00 0.00 1236.00 104.00" xmlns="http://www.w3.org/2000/svg" xmlns:xlink="http://www.w3.org/1999/xlink">
<g id="graph1" class="graph" transform="scale(1 1) rotate(0) translate(4 100)">
<title>G</title>
<!-- Node1 -->
<g id="node1" class="node"><title>Node1</title>
<polygon fill="#bfbfbf" stroke="black" points="698,-38 698,-58 904,-58 904,-38 698,-38"/>
<text text-anchor="middle" x="801" y="-45" font-family="FreeSans" font-size="10.00">Kitware.VTK.vtkUnstructuredGridSource</text>
</g>
<!-- Node8 -->
<g id="node15" class="node"><title>Node8</title>
<a xlink:href="class_kitware_1_1_v_t_k_1_1vtk_data_set_to_unstructured_grid_filter.html" target="_top" xlink:title="vtkDataSetToUnstructuredGridFilter &#45; abstract filter class">
<polygon fill="none" stroke="black" points="962,-76 962,-96 1206,-96 1206,-76 962,-76"/>
<text text-anchor="middle" x="1084" y="-83" font-family="FreeSans" font-size="10.00">Kitware.VTK.vtkDataSetToUnstructuredGridFilter</text>
</a>
</g>
<!-- Node1&#45;&gt;Node8 -->
<g id="edge14" class="edge"><title>Node1&#45;&gt;Node8</title>
<path fill="none" stroke="midnightblue" d="M883.979,-59.4069C902.42,-61.924 921.873,-64.5652 940,-67 961.868,-69.9373 985.61,-73.0863 1007.39,-75.9592"/>
<polygon fill="midnightblue" stroke="midnightblue" points="884.235,-55.9094 873.853,-58.0234 883.287,-62.845 884.235,-55.9094"/>
</g>
<!-- Node9 -->
<g id="node17" class="node"><title>Node9</title>
<a xlink:href="class_kitware_1_1_v_t_k_1_1vtk_structured_points_to_unstructured_grid_filter.html" target="_top" xlink:title="vtkStructuredPointsToUnstructuredGridFilter &#45; abstract filter class">
<polygon fill="none" stroke="black" points="942,-38 942,-58 1226,-58 1226,-38 942,-38"/>
<text text-anchor="middle" x="1084" y="-45" font-family="FreeSans" font-size="10.00">Kitware.VTK.vtkStructuredPointsToUnstructuredGridFilter</text>
</a>
</g>
<!-- Node1&#45;&gt;Node9 -->
<g id="edge16" class="edge"><title>Node1&#45;&gt;Node9</title>
<path fill="none" stroke="midnightblue" d="M914.427,-48C923.4,-48 932.53,-48 941.665,-48"/>
<polygon fill="midnightblue" stroke="midnightblue" points="914.371,-44.5001 904.371,-48 914.371,-51.5001 914.371,-44.5001"/>
</g>
<!-- Node10 -->
<g id="node19" class="node"><title>Node10</title>
<a xlink:href="class_kitware_1_1_v_t_k_1_1vtk_unstructured_grid_to_unstructured_grid_filter.html" target="_top" xlink:title="vtkUnstructuredGridToUnstructuredGridFilter &#45; abstract filter class">
<polygon fill="none" stroke="black" points="940.5,-0 940.5,-20 1227.5,-20 1227.5,-0 940.5,-0"/>
<text text-anchor="middle" x="1084" y="-7" font-family="FreeSans" font-size="10.00">Kitware.VTK.vtkUnstructuredGridToUnstructuredGridFilter</text>
</a>
</g>
<!-- Node1&#45;&gt;Node10 -->
<g id="edge18" class="edge"><title>Node1&#45;&gt;Node10</title>
<path fill="none" stroke="midnightblue" d="M883.979,-36.5931C902.42,-34.076 921.873,-31.4348 940,-29 961.868,-26.0627 985.61,-22.9137 1007.39,-20.0408"/>
<polygon fill="midnightblue" stroke="midnightblue" points="883.287,-33.155 873.853,-37.9766 884.235,-40.0906 883.287,-33.155"/>
</g>
<!-- Node2 -->
<g id="node2" class="node"><title>Node2</title>
<a xlink:href="class_kitware_1_1_v_t_k_1_1vtk_source.html" target="_top" xlink:title="vtkSource &#45; abstract class specifies interface for visualization network source">
<polygon fill="none" stroke="black" points="596.5,-38 596.5,-58 661.5,-58 661.5,-38 596.5,-38"/>
<text text-anchor="middle" x="629" y="-45" font-family="FreeSans" font-size="10.00">vtkSource</text>
</a>
</g>
<!-- Node2&#45;&gt;Node1 -->
<g id="edge2" class="edge"><title>Node2&#45;&gt;Node1</title>
<path fill="none" stroke="midnightblue" d="M671.93,-48C679.995,-48 688.74,-48 697.749,-48"/>
<polygon fill="midnightblue" stroke="midnightblue" points="671.757,-44.5001 661.757,-48 671.757,-51.5001 671.757,-44.5001"/>
</g>
<!-- Node3 -->
<g id="node4" class="node"><title>Node3</title>
<a xlink:href="class_kitware_1_1_v_t_k_1_1vtk_process_object.html" target="_top" xlink:title="vtkProcessObject &#45; abstract class specifies interface for visualization filters">
<polygon fill="none" stroke="black" points="460.5,-38 460.5,-58 559.5,-58 559.5,-38 460.5,-38"/>
<text text-anchor="middle" x="510" y="-45" font-family="FreeSans" font-size="10.00">vtkProcessObject</text>
</a>
</g>
<!-- Node3&#45;&gt;Node2 -->
<g id="edge4" class="edge"><title>Node3&#45;&gt;Node2</title>
<path fill="none" stroke="midnightblue" d="M569.997,-48C579.082,-48 588.152,-48 596.36,-48"/>
<polygon fill="midnightblue" stroke="midnightblue" points="569.777,-44.5001 559.777,-48 569.777,-51.5001 569.777,-44.5001"/>
</g>
<!-- Node4 -->
<g id="node6" class="node"><title>Node4</title>
<a xlink:href="class_kitware_1_1_v_t_k_1_1vtk_algorithm.html" target="_top" xlink:title="vtkAlgorithm &#45; Superclass for all sources, filters, and sinks in VTK.">
<polygon fill="none" stroke="black" points="346.5,-38 346.5,-58 423.5,-58 423.5,-38 346.5,-38"/>
<text text-anchor="middle" x="385" y="-45" font-family="FreeSans" font-size="10.00">vtkAlgorithm</text>
</a>
</g>
<!-- Node4&#45;&gt;Node3 -->
<g id="edge6" class="edge"><title>Node4&#45;&gt;Node3</title>
<path fill="none" stroke="midnightblue" d="M433.594,-48C442.361,-48 451.512,-48 460.309,-48"/>
<polygon fill="midnightblue" stroke="midnightblue" points="433.524,-44.5001 423.524,-48 433.524,-51.5001 433.524,-44.5001"/>
</g>
<!-- Node5 -->
<g id="node8" class="node"><title>Node5</title>
<a xlink:href="class_kitware_1_1_v_t_k_1_1vtk_object.html" target="_top" xlink:title="vtkObject &#45; abstract base class for most VTK objects">
<polygon fill="none" stroke="black" points="248,-38 248,-58 310,-58 310,-38 248,-38"/>
<text text-anchor="middle" x="279" y="-45" font-family="FreeSans" font-size="10.00">vtkObject</text>
</a>
</g>
<!-- Node5&#45;&gt;Node4 -->
<g id="edge8" class="edge"><title>Node5&#45;&gt;Node4</title>
<path fill="none" stroke="midnightblue" d="M320.421,-48C329.001,-48 338.007,-48 346.479,-48"/>
<polygon fill="midnightblue" stroke="midnightblue" points="320.23,-44.5001 310.23,-48 320.23,-51.5001 320.23,-44.5001"/>
</g>
<!-- Node6 -->
<g id="node10" class="node"><title>Node6</title>
<a xlink:href="class_kitware_1_1_v_t_k_1_1vtk_object_base.html" target="_top" xlink:title="vtkObjectBase &#45; abstract base class for most VTK objects">
<polygon fill="none" stroke="black" points="126,-38 126,-58 212,-58 212,-38 126,-38"/>
<text text-anchor="middle" x="169" y="-45" font-family="FreeSans" font-size="10.00">vtkObjectBase</text>
</a>
</g>
<!-- Node6&#45;&gt;Node5 -->
<g id="edge10" class="edge"><title>Node6&#45;&gt;Node5</title>
<path fill="none" stroke="midnightblue" d="M222.346,-48C231.091,-48 239.892,-48 247.863,-48"/>
<polygon fill="midnightblue" stroke="midnightblue" points="222.159,-44.5001 212.159,-48 222.159,-51.5001 222.159,-44.5001"/>
</g>
<!-- Node7 -->
<g id="node12" class="node"><title>Node7</title>
<a xlink:href="class_kitware_1_1_v_t_k_1_1_wrapped_object.html" target="_top" xlink:title="Base class for all the mummy wrapped classes in Kitware.VTK.">
<polygon fill="none" stroke="black" points="0.5,-38 0.5,-58 89.5,-58 89.5,-38 0.5,-38"/>
<text text-anchor="middle" x="45" y="-45" font-family="FreeSans" font-size="10.00">WrappedObject</text>
</a>
</g>
<!-- Node7&#45;&gt;Node6 -->
<g id="edge12" class="edge"><title>Node7&#45;&gt;Node6</title>
<path fill="none" stroke="midnightblue" d="M99.8895,-48C108.623,-48 117.548,-48 125.957,-48"/>
<polygon fill="midnightblue" stroke="midnightblue" points="99.7669,-44.5001 89.7668,-48 99.7668,-51.5001 99.7669,-44.5001"/>
</g>
</g>
</svg>
