<?xml version="1.0" encoding="UTF-8" standalone="no"?>
<!DOCTYPE svg PUBLIC "-//W3C//DTD SVG 1.1//EN"
 "http://www.w3.org/Graphics/SVG/1.1/DTD/svg11.dtd">
<!-- Generated by graphviz version 2.26.3 (20100126.1600)
 -->
<!-- Title: G Pages: 1 -->
<svg width="462pt" height="830pt"
 viewBox="0.00 0.00 462.46 830.00" xmlns="http://www.w3.org/2000/svg" xmlns:xlink="http://www.w3.org/1999/xlink">
<g id="graph1" class="graph" transform="scale(1 1) rotate(0) translate(4 826)">
<title>G</title>
<!-- Node1 -->
<g id="node1" class="node"><title>Node1</title>
<polygon fill="#bfbfbf" stroke="black" points="-0.5,-1 -0.5,-21 252.5,-21 252.5,-1 -0.5,-1"/>
<text text-anchor="middle" x="126" y="-8" font-family="FreeSans" font-size="10.00">Kitware.VTK.vtkParallelCoordinatesRepresentation</text>
</g>
<!-- Node2 -->
<g id="node2" class="node"><title>Node2</title>
<a xlink:href="class_kitware_1_1_v_t_k_1_1vtk_rendered_representation.html" target="_top" xlink:title="vtkRenderedRepresentation &#45;">
<polygon fill="none" stroke="black" points="52,-61 52,-81 200,-81 200,-61 52,-61"/>
<text text-anchor="middle" x="126" y="-68" font-family="FreeSans" font-size="10.00">vtkRenderedRepresentation</text>
</a>
</g>
<!-- Node2&#45;&gt;Node1 -->
<g id="edge2" class="edge"><title>Node2&#45;&gt;Node1</title>
<path fill="none" stroke="midnightblue" d="M126,-50.5155C126,-40.562 126,-29.0495 126,-21.0279"/>
<polygon fill="midnightblue" stroke="midnightblue" points="122.5,-50.8218 126,-60.8218 129.5,-50.8219 122.5,-50.8218"/>
</g>
<!-- Node3 -->
<g id="node4" class="node"><title>Node3</title>
<a xlink:href="class_kitware_1_1_v_t_k_1_1vtk_data_representation.html" target="_top" xlink:title="vtkDataRepresentation &#45; The superclass for all representations">
<polygon fill="none" stroke="black" points="63,-121 63,-141 189,-141 189,-121 63,-121"/>
<text text-anchor="middle" x="126" y="-128" font-family="FreeSans" font-size="10.00">vtkDataRepresentation</text>
</a>
</g>
<!-- Node3&#45;&gt;Node2 -->
<g id="edge4" class="edge"><title>Node3&#45;&gt;Node2</title>
<path fill="none" stroke="midnightblue" d="M126,-110.516C126,-100.562 126,-89.0495 126,-81.0279"/>
<polygon fill="midnightblue" stroke="midnightblue" points="122.5,-110.822 126,-120.822 129.5,-110.822 122.5,-110.822"/>
</g>
<!-- Node4 -->
<g id="node6" class="node"><title>Node4</title>
<a xlink:href="class_kitware_1_1_v_t_k_1_1vtk_pass_input_type_algorithm.html" target="_top" xlink:title="vtkPassInputTypeAlgorithm &#45; Superclass for algorithms that produce output of the same type as input...">
<polygon fill="none" stroke="black" points="54,-181 54,-201 198,-201 198,-181 54,-181"/>
<text text-anchor="middle" x="126" y="-188" font-family="FreeSans" font-size="10.00">vtkPassInputTypeAlgorithm</text>
</a>
</g>
<!-- Node4&#45;&gt;Node3 -->
<g id="edge6" class="edge"><title>Node4&#45;&gt;Node3</title>
<path fill="none" stroke="midnightblue" d="M126,-170.516C126,-160.562 126,-149.05 126,-141.028"/>
<polygon fill="midnightblue" stroke="midnightblue" points="122.5,-170.822 126,-180.822 129.5,-170.822 122.5,-170.822"/>
</g>
<!-- Node5 -->
<g id="node8" class="node"><title>Node5</title>
<a xlink:href="class_kitware_1_1_v_t_k_1_1vtk_algorithm.html" target="_top" xlink:title="vtkAlgorithm &#45; Superclass for all sources, filters, and sinks in VTK.">
<polygon fill="none" stroke="black" points="87.5,-241 87.5,-261 164.5,-261 164.5,-241 87.5,-241"/>
<text text-anchor="middle" x="126" y="-248" font-family="FreeSans" font-size="10.00">vtkAlgorithm</text>
</a>
</g>
<!-- Node5&#45;&gt;Node4 -->
<g id="edge8" class="edge"><title>Node5&#45;&gt;Node4</title>
<path fill="none" stroke="midnightblue" d="M126,-230.516C126,-220.562 126,-209.05 126,-201.028"/>
<polygon fill="midnightblue" stroke="midnightblue" points="122.5,-230.822 126,-240.822 129.5,-230.822 122.5,-230.822"/>
</g>
<!-- Node6 -->
<g id="node10" class="node"><title>Node6</title>
<a xlink:href="class_kitware_1_1_v_t_k_1_1vtk_object.html" target="_top" xlink:title="vtkObject &#45; abstract base class for most VTK objects">
<polygon fill="none" stroke="black" points="95,-301 95,-321 157,-321 157,-301 95,-301"/>
<text text-anchor="middle" x="126" y="-308" font-family="FreeSans" font-size="10.00">vtkObject</text>
</a>
</g>
<!-- Node6&#45;&gt;Node5 -->
<g id="edge10" class="edge"><title>Node6&#45;&gt;Node5</title>
<path fill="none" stroke="midnightblue" d="M126,-290.516C126,-280.562 126,-269.05 126,-261.028"/>
<polygon fill="midnightblue" stroke="midnightblue" points="122.5,-290.822 126,-300.822 129.5,-290.822 122.5,-290.822"/>
</g>
<!-- Node7 -->
<g id="node12" class="node"><title>Node7</title>
<a xlink:href="class_kitware_1_1_v_t_k_1_1vtk_object_base.html" target="_top" xlink:title="vtkObjectBase &#45; abstract base class for most VTK objects">
<polygon fill="none" stroke="black" points="146,-741 146,-761 232,-761 232,-741 146,-741"/>
<text text-anchor="middle" x="189" y="-748" font-family="FreeSans" font-size="10.00">vtkObjectBase</text>
</a>
</g>
<!-- Node7&#45;&gt;Node6 -->
<g id="edge12" class="edge"><title>Node7&#45;&gt;Node6</title>
<path fill="none" stroke="midnightblue" d="M160.423,-735.886C146.687,-727.44 130.884,-715.826 120,-702 108.156,-686.955 107.621,-680.802 104,-662 78.4248,-529.199 113.577,-363.437 123.516,-321.17"/>
<polygon fill="midnightblue" stroke="midnightblue" points="158.683,-738.923 169.079,-740.97 162.229,-732.887 158.683,-738.923"/>
</g>
<!-- Node10 -->
<g id="node19" class="node"><title>Node10</title>
<a xlink:href="class_kitware_1_1_v_t_k_1_1vtk_object.html" target="_top" xlink:title="vtkObject &#45; abstract base class for most VTK objects">
<polygon fill="none" stroke="black" points="129,-681 129,-701 249,-701 249,-681 129,-681"/>
<text text-anchor="middle" x="189" y="-688" font-family="FreeSans" font-size="10.00">Kitware.VTK.vtkObject</text>
</a>
</g>
<!-- Node7&#45;&gt;Node10 -->
<g id="edge22" class="edge"><title>Node7&#45;&gt;Node10</title>
<path fill="none" stroke="midnightblue" d="M189,-730.516C189,-720.562 189,-709.05 189,-701.028"/>
<polygon fill="midnightblue" stroke="midnightblue" points="185.5,-730.822 189,-740.822 192.5,-730.822 185.5,-730.822"/>
</g>
<!-- Node8 -->
<g id="node14" class="node"><title>Node8</title>
<a xlink:href="class_kitware_1_1_v_t_k_1_1_wrapped_object.html" target="_top" xlink:title="Base class for all the mummy wrapped classes in Kitware.VTK.">
<polygon fill="none" stroke="black" points="327.5,-801 327.5,-821 416.5,-821 416.5,-801 327.5,-801"/>
<text text-anchor="middle" x="372" y="-808" font-family="FreeSans" font-size="10.00">WrappedObject</text>
</a>
</g>
<!-- Node8&#45;&gt;Node7 -->
<g id="edge14" class="edge"><title>Node8&#45;&gt;Node7</title>
<path fill="none" stroke="midnightblue" d="M331.804,-797.821C298.042,-786.752 250.512,-771.168 219.73,-761.075"/>
<polygon fill="midnightblue" stroke="midnightblue" points="330.777,-801.168 341.37,-800.957 332.958,-794.516 330.777,-801.168"/>
</g>
<!-- Node9 -->
<g id="node16" class="node"><title>Node9</title>
<a xlink:href="class_kitware_1_1_v_t_k_1_1vtk_object_event_relay.html" target="_top" xlink:title="Implement a relay handler for VTK events. This is a class that receives events directly from the VTK ...">
<polygon fill="none" stroke="black" points="118,-491 118,-511 290,-511 290,-491 118,-491"/>
<text text-anchor="middle" x="204" y="-498" font-family="FreeSans" font-size="10.00">Kitware.VTK.vtkObjectEventRelay</text>
</a>
</g>
<!-- Node8&#45;&gt;Node9 -->
<g id="edge18" class="edge"><title>Node8&#45;&gt;Node9</title>
<path fill="none" stroke="midnightblue" d="M384.888,-792.325C417.276,-742.899 494.803,-607.191 427,-530 417.773,-519.495 349.047,-511.666 290.298,-506.808"/>
<polygon fill="midnightblue" stroke="midnightblue" points="381.891,-790.509 379.239,-800.767 387.709,-794.402 381.891,-790.509"/>
</g>
<!-- Node9&#45;&gt;Node6 -->
<g id="edge16" class="edge"><title>Node9&#45;&gt;Node6</title>
<path fill="none" stroke="#9a32cd" stroke-dasharray="5,2" d="M195.921,-481.321C179.489,-441.293 142.674,-351.616 130.214,-321.266"/>
<polygon fill="#9a32cd" stroke="#9a32cd" points="192.771,-482.863 199.806,-490.785 199.246,-480.205 192.771,-482.863"/>
<text text-anchor="middle" x="303.5" y="-463" font-family="FreeSans" font-size="10.00"> LeftButtonReleaseEvtRelay</text>
<text text-anchor="middle" x="303.5" y="-451" font-family="FreeSans" font-size="10.00">KeyPressEvtRelay</text>
<text text-anchor="middle" x="303.5" y="-439" font-family="FreeSans" font-size="10.00">DomainModifiedEvtRelay</text>
<text text-anchor="middle" x="303.5" y="-427" font-family="FreeSans" font-size="10.00">VolumeMapperComputeGradientsStartEvtRelay</text>
<text text-anchor="middle" x="303.5" y="-415" font-family="FreeSans" font-size="10.00">ErrorEvtRelay</text>
<text text-anchor="middle" x="303.5" y="-403" font-family="FreeSans" font-size="10.00">VolumeMapperRenderStartEvtRelay</text>
<text text-anchor="middle" x="303.5" y="-391" font-family="FreeSans" font-size="10.00">StartEvtRelay</text>
<text text-anchor="middle" x="303.5" y="-379" font-family="FreeSans" font-size="10.00">ResetCameraEvtRelay</text>
<text text-anchor="middle" x="303.5" y="-367" font-family="FreeSans" font-size="10.00">EnableEvtRelay</text>
<text text-anchor="middle" x="303.5" y="-355" font-family="FreeSans" font-size="10.00">DeleteEvtRelay</text>
<text text-anchor="middle" x="303.5" y="-343" font-family="FreeSans" font-size="10.00">...</text>
</g>
<!-- Node9&#45;&gt;Node10 -->
<g id="edge24" class="edge"><title>Node9&#45;&gt;Node10</title>
<path fill="none" stroke="#9a32cd" stroke-dasharray="5,2" d="M201.028,-521.231C200.649,-524.169 200.293,-527.159 200,-530 194.144,-586.853 190.636,-655.333 189.452,-680.807"/>
<polygon fill="#9a32cd" stroke="#9a32cd" points="204.515,-521.565 202.421,-511.179 197.582,-520.604 204.515,-521.565"/>
<text text-anchor="middle" x="313.5" y="-653" font-family="FreeSans" font-size="10.00"> LeftButtonReleaseEvtRelay</text>
<text text-anchor="middle" x="313.5" y="-641" font-family="FreeSans" font-size="10.00">KeyPressEvtRelay</text>
<text text-anchor="middle" x="313.5" y="-629" font-family="FreeSans" font-size="10.00">DomainModifiedEvtRelay</text>
<text text-anchor="middle" x="313.5" y="-617" font-family="FreeSans" font-size="10.00">VolumeMapperComputeGradientsStartEvtRelay</text>
<text text-anchor="middle" x="313.5" y="-605" font-family="FreeSans" font-size="10.00">ErrorEvtRelay</text>
<text text-anchor="middle" x="313.5" y="-593" font-family="FreeSans" font-size="10.00">VolumeMapperRenderStartEvtRelay</text>
<text text-anchor="middle" x="313.5" y="-581" font-family="FreeSans" font-size="10.00">StartEvtRelay</text>
<text text-anchor="middle" x="313.5" y="-569" font-family="FreeSans" font-size="10.00">ResetCameraEvtRelay</text>
<text text-anchor="middle" x="313.5" y="-557" font-family="FreeSans" font-size="10.00">EnableEvtRelay</text>
<text text-anchor="middle" x="313.5" y="-545" font-family="FreeSans" font-size="10.00">DeleteEvtRelay</text>
<text text-anchor="middle" x="313.5" y="-533" font-family="FreeSans" font-size="10.00">...</text>
</g>
<!-- Node10&#45;&gt;Node9 -->
<g id="edge20" class="edge"><title>Node10&#45;&gt;Node9</title>
<path fill="none" stroke="#9a32cd" stroke-dasharray="5,2" d="M142.979,-675.818C137.439,-672.138 132.51,-667.596 129,-662 97.8229,-612.303 95.8299,-578.389 129,-530 133.736,-523.091 150.511,-516.287 166.999,-511.008"/>
<polygon fill="#9a32cd" stroke="#9a32cd" points="141.639,-679.079 152.072,-680.919 145.064,-672.974 141.639,-679.079"/>
<text text-anchor="middle" x="153" y="-599" font-family="FreeSans" font-size="10.00"> Sender</text>
<text text-anchor="middle" x="153" y="-587" font-family="FreeSans" font-size="10.00">EventImpl</text>
</g>
</g>
</svg>
