<?xml version="1.0" encoding="UTF-8" standalone="no"?>
<!DOCTYPE svg PUBLIC "-//W3C//DTD SVG 1.1//EN"
 "http://www.w3.org/Graphics/SVG/1.1/DTD/svg11.dtd">
<!-- Generated by graphviz version 2.26.3 (20100126.1600)
 -->
<!-- Title: G Pages: 1 -->
<svg width="206pt" height="204pt"
 viewBox="0.00 0.00 206.00 204.00" xmlns="http://www.w3.org/2000/svg" xmlns:xlink="http://www.w3.org/1999/xlink">
<g id="graph1" class="graph" transform="scale(1 1) rotate(0) translate(4 200)">
<title>G</title>
<!-- Node1 -->
<g id="node1" class="node"><title>Node1</title>
<polygon fill="#bfbfbf" stroke="black" points="-0.5,-1 -0.5,-21 198.5,-21 198.5,-1 -0.5,-1"/>
<text text-anchor="middle" x="99" y="-8" font-family="FreeSans" font-size="10.00">Kitware.VTK.vtkInformationRequestKey</text>
</g>
<!-- Node2 -->
<g id="node2" class="node"><title>Node2</title>
<a xlink:href="class_kitware_1_1_v_t_k_1_1vtk_information_key.html" target="_top" xlink:title="vtkInformationKey &#45; Superclass for vtkInformation keys.">
<polygon fill="none" stroke="black" points="48,-59 48,-79 150,-79 150,-59 48,-59"/>
<text text-anchor="middle" x="99" y="-66" font-family="FreeSans" font-size="10.00">vtkInformationKey</text>
</a>
</g>
<!-- Node2&#45;&gt;Node1 -->
<g id="edge2" class="edge"><title>Node2&#45;&gt;Node1</title>
<path fill="none" stroke="midnightblue" d="M99,-48.8902C99,-39.6201 99,-29.0083 99,-21.3776"/>
<polygon fill="midnightblue" stroke="midnightblue" points="95.5001,-48.8971 99,-58.8972 102.5,-48.8972 95.5001,-48.8971"/>
</g>
<!-- Node3 -->
<g id="node4" class="node"><title>Node3</title>
<a xlink:href="class_kitware_1_1_v_t_k_1_1vtk_object_base.html" target="_top" xlink:title="vtkObjectBase &#45; abstract base class for most VTK objects">
<polygon fill="none" stroke="black" points="56,-117 56,-137 142,-137 142,-117 56,-117"/>
<text text-anchor="middle" x="99" y="-124" font-family="FreeSans" font-size="10.00">vtkObjectBase</text>
</a>
</g>
<!-- Node3&#45;&gt;Node2 -->
<g id="edge4" class="edge"><title>Node3&#45;&gt;Node2</title>
<path fill="none" stroke="midnightblue" d="M99,-106.89C99,-97.6201 99,-87.0083 99,-79.3776"/>
<polygon fill="midnightblue" stroke="midnightblue" points="95.5001,-106.897 99,-116.897 102.5,-106.897 95.5001,-106.897"/>
</g>
<!-- Node4 -->
<g id="node6" class="node"><title>Node4</title>
<a xlink:href="class_kitware_1_1_v_t_k_1_1_wrapped_object.html" target="_top" xlink:title="Base class for all the mummy wrapped classes in Kitware.VTK.">
<polygon fill="none" stroke="black" points="54.5,-175 54.5,-195 143.5,-195 143.5,-175 54.5,-175"/>
<text text-anchor="middle" x="99" y="-182" font-family="FreeSans" font-size="10.00">WrappedObject</text>
</a>
</g>
<!-- Node4&#45;&gt;Node3 -->
<g id="edge6" class="edge"><title>Node4&#45;&gt;Node3</title>
<path fill="none" stroke="midnightblue" d="M99,-164.89C99,-155.62 99,-145.008 99,-137.378"/>
<polygon fill="midnightblue" stroke="midnightblue" points="95.5001,-164.897 99,-174.897 102.5,-164.897 95.5001,-164.897"/>
</g>
</g>
</svg>
