<?xml version="1.0" encoding="UTF-8" standalone="no"?>
<!DOCTYPE svg PUBLIC "-//W3C//DTD SVG 1.1//EN"
 "http://www.w3.org/Graphics/SVG/1.1/DTD/svg11.dtd">
<!-- Generated by graphviz version 2.26.3 (20100126.1600)
 -->
<!-- Title: G Pages: 1 -->
<svg width="1022pt" height="370pt"
 viewBox="0.00 0.00 1022.00 370.00" xmlns="http://www.w3.org/2000/svg" xmlns:xlink="http://www.w3.org/1999/xlink">
<g id="graph1" class="graph" transform="scale(1 1) rotate(0) translate(4 366)">
<title>G</title>
<!-- Node1 -->
<g id="node1" class="node"><title>Node1</title>
<polygon fill="#bfbfbf" stroke="black" points="346,-171 346,-191 490,-191 490,-171 346,-171"/>
<text text-anchor="middle" x="418" y="-178" font-family="FreeSans" font-size="10.00">Kitware.VTK.vtkRenderPass</text>
</g>
<!-- Node5 -->
<g id="node9" class="node"><title>Node5</title>
<a xlink:href="class_kitware_1_1_v_t_k_1_1vtk_camera_pass.html" target="_top" xlink:title="vtkCameraPass &#45; Implement the camera render pass.">
<polygon fill="none" stroke="black" points="562.5,-342 562.5,-362 711.5,-362 711.5,-342 562.5,-342"/>
<text text-anchor="middle" x="637" y="-349" font-family="FreeSans" font-size="10.00">Kitware.VTK.vtkCameraPass</text>
</a>
</g>
<!-- Node1&#45;&gt;Node5 -->
<g id="edge8" class="edge"><title>Node1&#45;&gt;Node5</title>
<path fill="none" stroke="midnightblue" d="M425.979,-200.785C440.497,-234.038 474.564,-300.66 526,-333 536.924,-339.868 549.593,-344.458 562.381,-347.488"/>
<polygon fill="midnightblue" stroke="midnightblue" points="429.067,-199.1 421.955,-191.247 422.617,-201.821 429.067,-199.1"/>
</g>
<!-- Node6 -->
<g id="node11" class="node"><title>Node6</title>
<a xlink:href="class_kitware_1_1_v_t_k_1_1vtk_clear_z_pass.html" target="_top" xlink:title="vtkClearZPass &#45; Clear the depth buffer with a given value.">
<polygon fill="none" stroke="black" points="565.5,-304 565.5,-324 708.5,-324 708.5,-304 565.5,-304"/>
<text text-anchor="middle" x="637" y="-311" font-family="FreeSans" font-size="10.00">Kitware.VTK.vtkClearZPass</text>
</a>
</g>
<!-- Node1&#45;&gt;Node6 -->
<g id="edge10" class="edge"><title>Node1&#45;&gt;Node6</title>
<path fill="none" stroke="midnightblue" d="M430.013,-199.873C447.658,-225.878 483.174,-272.104 526,-295 538.069,-301.453 551.837,-305.797 565.473,-308.704"/>
<polygon fill="midnightblue" stroke="midnightblue" points="432.773,-197.702 424.34,-191.288 426.933,-201.561 432.773,-197.702"/>
</g>
<!-- Node7 -->
<g id="node13" class="node"><title>Node7</title>
<a xlink:href="class_kitware_1_1_v_t_k_1_1vtk_client_server_composite_pass.html" target="_top" xlink:title="vtkClientServerCompositePass">
<polygon fill="none" stroke="black" points="526.5,-266 526.5,-286 747.5,-286 747.5,-266 526.5,-266"/>
<text text-anchor="middle" x="637" y="-273" font-family="FreeSans" font-size="10.00">Kitware.VTK.vtkClientServerCompositePass</text>
</a>
</g>
<!-- Node1&#45;&gt;Node7 -->
<g id="edge12" class="edge"><title>Node1&#45;&gt;Node7</title>
<path fill="none" stroke="midnightblue" d="M436.221,-197.72C456.545,-215.383 491.167,-242.626 526,-257 534.856,-260.654 544.388,-263.606 554.013,-265.99"/>
<polygon fill="midnightblue" stroke="midnightblue" points="438.474,-195.04 428.671,-191.023 433.829,-200.277 438.474,-195.04"/>
</g>
<!-- Node8 -->
<g id="node15" class="node"><title>Node8</title>
<a xlink:href="class_kitware_1_1_v_t_k_1_1vtk_default_pass.html" target="_top" xlink:title="vtkDefaultPass &#45; Implement the basic render passes.">
<polygon fill="none" stroke="black" points="564,-228 564,-248 710,-248 710,-228 564,-228"/>
<text text-anchor="middle" x="637" y="-235" font-family="FreeSans" font-size="10.00">Kitware.VTK.vtkDefaultPass</text>
</a>
</g>
<!-- Node1&#45;&gt;Node8 -->
<g id="edge14" class="edge"><title>Node1&#45;&gt;Node8</title>
<path fill="none" stroke="midnightblue" d="M452.386,-194.772C473.379,-202.758 500.92,-212.491 526,-219 539.342,-222.463 553.753,-225.459 567.633,-227.983"/>
<polygon fill="midnightblue" stroke="midnightblue" points="453.53,-191.462 442.94,-191.129 451.011,-197.993 453.53,-191.462"/>
</g>
<!-- Node13 -->
<g id="node25" class="node"><title>Node13</title>
<a xlink:href="class_kitware_1_1_v_t_k_1_1vtk_depth_peeling_pass.html" target="_top" xlink:title="vtkDepthPeelingPass &#45; Implement an Order Independent Transparency render pass.">
<polygon fill="none" stroke="black" points="549.5,-190 549.5,-210 724.5,-210 724.5,-190 549.5,-190"/>
<text text-anchor="middle" x="637" y="-197" font-family="FreeSans" font-size="10.00">Kitware.VTK.vtkDepthPeelingPass</text>
</a>
</g>
<!-- Node1&#45;&gt;Node13 -->
<g id="edge24" class="edge"><title>Node1&#45;&gt;Node13</title>
<path fill="none" stroke="midnightblue" d="M500.377,-188.147C516.352,-189.533 533.15,-190.99 549.29,-192.39"/>
<polygon fill="midnightblue" stroke="midnightblue" points="500.277,-184.625 490.012,-187.248 499.672,-191.599 500.277,-184.625"/>
</g>
<!-- Node14 -->
<g id="node27" class="node"><title>Node14</title>
<a xlink:href="class_kitware_1_1_v_t_k_1_1vtk_image_processing_pass.html" target="_top" xlink:title="vtkImageProcessingPass &#45; Convenient class for post&#45;processing passes. render pass.">
<polygon fill="none" stroke="black" points="540.5,-152 540.5,-172 733.5,-172 733.5,-152 540.5,-152"/>
<text text-anchor="middle" x="637" y="-159" font-family="FreeSans" font-size="10.00">Kitware.VTK.vtkImageProcessingPass</text>
</a>
</g>
<!-- Node1&#45;&gt;Node14 -->
<g id="edge26" class="edge"><title>Node1&#45;&gt;Node14</title>
<path fill="none" stroke="midnightblue" d="M500.338,-173.857C513.378,-172.725 526.968,-171.546 540.3,-170.389"/>
<polygon fill="midnightblue" stroke="midnightblue" points="499.672,-170.401 490.012,-174.752 500.277,-177.375 499.672,-170.401"/>
</g>
<!-- Node17 -->
<g id="node33" class="node"><title>Node17</title>
<a xlink:href="class_kitware_1_1_v_t_k_1_1vtk_lights_pass.html" target="_top" xlink:title="vtkLightsPass &#45; Implement the lights render pass.">
<polygon fill="none" stroke="black" points="567,-114 567,-134 707,-134 707,-114 567,-114"/>
<text text-anchor="middle" x="637" y="-121" font-family="FreeSans" font-size="10.00">Kitware.VTK.vtkLightsPass</text>
</a>
</g>
<!-- Node1&#45;&gt;Node17 -->
<g id="edge32" class="edge"><title>Node1&#45;&gt;Node17</title>
<path fill="none" stroke="midnightblue" d="M452.386,-167.228C473.379,-159.242 500.92,-149.509 526,-143 539.342,-139.537 553.753,-136.541 567.633,-134.017"/>
<polygon fill="midnightblue" stroke="midnightblue" points="451.011,-164.007 442.94,-170.871 453.53,-170.538 451.011,-164.007"/>
</g>
<!-- Node18 -->
<g id="node35" class="node"><title>Node18</title>
<a xlink:href="class_kitware_1_1_v_t_k_1_1vtk_sequence_pass.html" target="_top" xlink:title="vtkSequencePass &#45; Execute render passes sequentially.">
<polygon fill="none" stroke="black" points="557.5,-76 557.5,-96 716.5,-96 716.5,-76 557.5,-76"/>
<text text-anchor="middle" x="637" y="-83" font-family="FreeSans" font-size="10.00">Kitware.VTK.vtkSequencePass</text>
</a>
</g>
<!-- Node1&#45;&gt;Node18 -->
<g id="edge34" class="edge"><title>Node1&#45;&gt;Node18</title>
<path fill="none" stroke="midnightblue" d="M436.221,-164.28C456.545,-146.617 491.167,-119.374 526,-105 535.85,-100.935 546.536,-97.7404 557.257,-95.2289"/>
<polygon fill="midnightblue" stroke="midnightblue" points="433.829,-161.723 428.671,-170.977 438.474,-166.96 433.829,-161.723"/>
</g>
<!-- Node19 -->
<g id="node37" class="node"><title>Node19</title>
<a xlink:href="class_kitware_1_1_v_t_k_1_1vtk_shadow_map_baker_pass.html" target="_top" xlink:title="vtkShadowMapBakerPass &#45; Implement a builder of shadow map pass.">
<polygon fill="none" stroke="black" points="538.5,-38 538.5,-58 735.5,-58 735.5,-38 538.5,-38"/>
<text text-anchor="middle" x="637" y="-45" font-family="FreeSans" font-size="10.00">Kitware.VTK.vtkShadowMapBakerPass</text>
</a>
</g>
<!-- Node1&#45;&gt;Node19 -->
<g id="edge36" class="edge"><title>Node1&#45;&gt;Node19</title>
<path fill="none" stroke="midnightblue" d="M430.013,-162.127C447.658,-136.122 483.174,-89.8964 526,-67 532.724,-63.405 539.976,-60.4643 547.438,-58.0621"/>
<polygon fill="midnightblue" stroke="midnightblue" points="426.933,-160.439 424.34,-170.712 432.773,-164.298 426.933,-160.439"/>
</g>
<!-- Node20 -->
<g id="node39" class="node"><title>Node20</title>
<a xlink:href="class_kitware_1_1_v_t_k_1_1vtk_shadow_map_pass.html" target="_top" xlink:title="vtkShadowMapPass &#45; Implement a shadow mapping render pass.">
<polygon fill="none" stroke="black" points="552.5,-0 552.5,-20 721.5,-20 721.5,-0 552.5,-0"/>
<text text-anchor="middle" x="637" y="-7" font-family="FreeSans" font-size="10.00">Kitware.VTK.vtkShadowMapPass</text>
</a>
</g>
<!-- Node1&#45;&gt;Node20 -->
<g id="edge38" class="edge"><title>Node1&#45;&gt;Node20</title>
<path fill="none" stroke="midnightblue" d="M425.979,-161.215C440.497,-127.962 474.564,-61.3398 526,-29 534.027,-23.9528 542.997,-20.1361 552.264,-17.2648"/>
<polygon fill="midnightblue" stroke="midnightblue" points="422.617,-160.179 421.955,-170.753 429.067,-162.9 422.617,-160.179"/>
</g>
<!-- Node2 -->
<g id="node2" class="node"><title>Node2</title>
<a xlink:href="class_kitware_1_1_v_t_k_1_1vtk_object.html" target="_top" xlink:title="vtkObject &#45; abstract base class for most VTK objects">
<polygon fill="none" stroke="black" points="248,-171 248,-191 310,-191 310,-171 248,-171"/>
<text text-anchor="middle" x="279" y="-178" font-family="FreeSans" font-size="10.00">vtkObject</text>
</a>
</g>
<!-- Node2&#45;&gt;Node1 -->
<g id="edge2" class="edge"><title>Node2&#45;&gt;Node1</title>
<path fill="none" stroke="midnightblue" d="M320.365,-181C328.401,-181 337.041,-181 345.738,-181"/>
<polygon fill="midnightblue" stroke="midnightblue" points="320.194,-177.5 310.194,-181 320.194,-184.5 320.194,-177.5"/>
</g>
<!-- Node3 -->
<g id="node4" class="node"><title>Node3</title>
<a xlink:href="class_kitware_1_1_v_t_k_1_1vtk_object_base.html" target="_top" xlink:title="vtkObjectBase &#45; abstract base class for most VTK objects">
<polygon fill="none" stroke="black" points="126,-171 126,-191 212,-191 212,-171 126,-171"/>
<text text-anchor="middle" x="169" y="-178" font-family="FreeSans" font-size="10.00">vtkObjectBase</text>
</a>
</g>
<!-- Node3&#45;&gt;Node2 -->
<g id="edge4" class="edge"><title>Node3&#45;&gt;Node2</title>
<path fill="none" stroke="midnightblue" d="M222.346,-181C231.091,-181 239.892,-181 247.863,-181"/>
<polygon fill="midnightblue" stroke="midnightblue" points="222.159,-177.5 212.159,-181 222.159,-184.5 222.159,-177.5"/>
</g>
<!-- Node4 -->
<g id="node6" class="node"><title>Node4</title>
<a xlink:href="class_kitware_1_1_v_t_k_1_1_wrapped_object.html" target="_top" xlink:title="Base class for all the mummy wrapped classes in Kitware.VTK.">
<polygon fill="none" stroke="black" points="0.5,-171 0.5,-191 89.5,-191 89.5,-171 0.5,-171"/>
<text text-anchor="middle" x="45" y="-178" font-family="FreeSans" font-size="10.00">WrappedObject</text>
</a>
</g>
<!-- Node4&#45;&gt;Node3 -->
<g id="edge6" class="edge"><title>Node4&#45;&gt;Node3</title>
<path fill="none" stroke="midnightblue" d="M99.8895,-181C108.623,-181 117.548,-181 125.957,-181"/>
<polygon fill="midnightblue" stroke="midnightblue" points="99.7669,-177.5 89.7668,-181 99.7668,-184.5 99.7669,-177.5"/>
</g>
<!-- Node9 -->
<g id="node17" class="node"><title>Node9</title>
<a xlink:href="class_kitware_1_1_v_t_k_1_1vtk_opaque_pass.html" target="_top" xlink:title="vtkOpaquePass &#45; Render the opaque geometry with property key filtering.">
<polygon fill="none" stroke="black" points="824.5,-304 824.5,-324 973.5,-324 973.5,-304 824.5,-304"/>
<text text-anchor="middle" x="899" y="-311" font-family="FreeSans" font-size="10.00">Kitware.VTK.vtkOpaquePass</text>
</a>
</g>
<!-- Node8&#45;&gt;Node9 -->
<g id="edge16" class="edge"><title>Node8&#45;&gt;Node9</title>
<path fill="none" stroke="midnightblue" d="M720.059,-246.115C729.797,-248.822 739.336,-252.368 748,-257 768.516,-267.969 763.452,-284.091 784,-295 796.332,-301.548 810.371,-305.946 824.301,-308.878"/>
<polygon fill="midnightblue" stroke="midnightblue" points="720.831,-242.7 710.281,-243.678 719.138,-249.492 720.831,-242.7"/>
</g>
<!-- Node10 -->
<g id="node19" class="node"><title>Node10</title>
<a xlink:href="class_kitware_1_1_v_t_k_1_1vtk_overlay_pass.html" target="_top" xlink:title="vtkOverlayPass &#45; Render the overlay geometry with property key filtering.">
<polygon fill="none" stroke="black" points="825.5,-266 825.5,-286 972.5,-286 972.5,-266 825.5,-266"/>
<text text-anchor="middle" x="899" y="-273" font-family="FreeSans" font-size="10.00">Kitware.VTK.vtkOverlayPass</text>
</a>
</g>
<!-- Node8&#45;&gt;Node10 -->
<g id="edge18" class="edge"><title>Node8&#45;&gt;Node10</title>
<path fill="none" stroke="midnightblue" d="M716.22,-249.49C752.449,-254.744 794.975,-260.912 829.887,-265.976"/>
<polygon fill="midnightblue" stroke="midnightblue" points="716.579,-246.005 706.18,-248.034 715.574,-252.933 716.579,-246.005"/>
</g>
<!-- Node11 -->
<g id="node21" class="node"><title>Node11</title>
<a xlink:href="class_kitware_1_1_v_t_k_1_1vtk_translucent_pass.html" target="_top" xlink:title="vtkTranslucentPass &#45; Render the translucent polygonal geometry with property key filtering.">
<polygon fill="none" stroke="black" points="816.5,-228 816.5,-248 981.5,-248 981.5,-228 816.5,-228"/>
<text text-anchor="middle" x="899" y="-235" font-family="FreeSans" font-size="10.00">Kitware.VTK.vtkTranslucentPass</text>
</a>
</g>
<!-- Node8&#45;&gt;Node11 -->
<g id="edge20" class="edge"><title>Node8&#45;&gt;Node11</title>
<path fill="none" stroke="midnightblue" d="M720.562,-238C751.222,-238 785.89,-238 816.46,-238"/>
<polygon fill="midnightblue" stroke="midnightblue" points="720.33,-234.5 710.33,-238 720.33,-241.5 720.33,-234.5"/>
</g>
<!-- Node12 -->
<g id="node23" class="node"><title>Node12</title>
<a xlink:href="class_kitware_1_1_v_t_k_1_1vtk_volumetric_pass.html" target="_top" xlink:title="vtkVolumetricPass &#45; Render the volumetric geometry with property key filtering.">
<polygon fill="none" stroke="black" points="818,-190 818,-210 980,-210 980,-190 818,-190"/>
<text text-anchor="middle" x="899" y="-197" font-family="FreeSans" font-size="10.00">Kitware.VTK.vtkVolumetricPass</text>
</a>
</g>
<!-- Node8&#45;&gt;Node12 -->
<g id="edge22" class="edge"><title>Node8&#45;&gt;Node12</title>
<path fill="none" stroke="midnightblue" d="M716.22,-226.51C752.449,-221.256 794.975,-215.088 829.887,-210.024"/>
<polygon fill="midnightblue" stroke="midnightblue" points="715.574,-223.067 706.18,-227.966 716.579,-229.995 715.574,-223.067"/>
</g>
<!-- Node15 -->
<g id="node29" class="node"><title>Node15</title>
<a xlink:href="class_kitware_1_1_v_t_k_1_1vtk_gaussian_blur_pass.html" target="_top" xlink:title="vtkGaussianBlurPass &#45; Implement a post&#45;processing Gaussian blur render pass.">
<polygon fill="none" stroke="black" points="812,-152 812,-172 986,-172 986,-152 812,-152"/>
<text text-anchor="middle" x="899" y="-159" font-family="FreeSans" font-size="10.00">Kitware.VTK.vtkGaussianBlurPass</text>
</a>
</g>
<!-- Node14&#45;&gt;Node15 -->
<g id="edge28" class="edge"><title>Node14&#45;&gt;Node15</title>
<path fill="none" stroke="midnightblue" d="M744.067,-162C766.552,-162 790.011,-162 811.671,-162"/>
<polygon fill="midnightblue" stroke="midnightblue" points="743.815,-158.5 733.815,-162 743.815,-165.5 743.815,-158.5"/>
</g>
<!-- Node16 -->
<g id="node31" class="node"><title>Node16</title>
<a xlink:href="class_kitware_1_1_v_t_k_1_1vtk_sobel_gradient_magnitude_pass.html" target="_top" xlink:title="vtkSobelGradientMagnitudePass &#45; Implement a post&#45;processing edge detection with a Sobel gradient magn...">
<polygon fill="none" stroke="black" points="784,-114 784,-134 1014,-134 1014,-114 784,-114"/>
<text text-anchor="middle" x="899" y="-121" font-family="FreeSans" font-size="10.00">Kitware.VTK.vtkSobelGradientMagnitudePass</text>
</a>
</g>
<!-- Node14&#45;&gt;Node16 -->
<g id="edge30" class="edge"><title>Node14&#45;&gt;Node16</title>
<path fill="none" stroke="midnightblue" d="M716.22,-150.51C752.449,-145.256 794.975,-139.088 829.887,-134.024"/>
<polygon fill="midnightblue" stroke="midnightblue" points="715.574,-147.067 706.18,-151.966 716.579,-153.995 715.574,-147.067"/>
</g>
</g>
</svg>
