<?xml version="1.0" encoding="UTF-8" standalone="no"?>
<!DOCTYPE svg PUBLIC "-//W3C//DTD SVG 1.1//EN"
 "http://www.w3.org/Graphics/SVG/1.1/DTD/svg11.dtd">
<!-- Generated by graphviz version 2.26.3 (20100126.1600)
 -->
<!-- Title: G Pages: 1 -->
<svg width="134pt" height="320pt"
 viewBox="0.00 0.00 134.00 320.00" xmlns="http://www.w3.org/2000/svg" xmlns:xlink="http://www.w3.org/1999/xlink">
<g id="graph1" class="graph" transform="scale(1 1) rotate(0) translate(4 316)">
<title>G</title>
<!-- Node1 -->
<g id="node1" class="node"><title>Node1</title>
<polygon fill="#bfbfbf" stroke="black" points="2.5,-59 2.5,-79 123.5,-79 123.5,-59 2.5,-59"/>
<text text-anchor="middle" x="63" y="-66" font-family="FreeSans" font-size="10.00">Kitware.VTK.vtkKdTree</text>
</g>
<!-- Node6 -->
<g id="node11" class="node"><title>Node6</title>
<a xlink:href="class_kitware_1_1_v_t_k_1_1vtk_p_kd_tree.html" target="_top" xlink:title="vtkPKdTree &#45; Build a k&#45;d tree decomposition of a list of points.">
<polygon fill="none" stroke="black" points="-0.5,-1 -0.5,-21 126.5,-21 126.5,-1 -0.5,-1"/>
<text text-anchor="middle" x="63" y="-8" font-family="FreeSans" font-size="10.00">Kitware.VTK.vtkPKdTree</text>
</a>
</g>
<!-- Node1&#45;&gt;Node6 -->
<g id="edge10" class="edge"><title>Node1&#45;&gt;Node6</title>
<path fill="none" stroke="midnightblue" d="M63,-48.8902C63,-39.6201 63,-29.0083 63,-21.3776"/>
<polygon fill="midnightblue" stroke="midnightblue" points="59.5001,-48.8971 63,-58.8972 66.5001,-48.8972 59.5001,-48.8971"/>
</g>
<!-- Node2 -->
<g id="node2" class="node"><title>Node2</title>
<a xlink:href="class_kitware_1_1_v_t_k_1_1vtk_locator.html" target="_top" xlink:title="vtkLocator &#45; abstract base class for objects that accelerate spatial searches">
<polygon fill="none" stroke="black" points="29.5,-117 29.5,-137 96.5,-137 96.5,-117 29.5,-117"/>
<text text-anchor="middle" x="63" y="-124" font-family="FreeSans" font-size="10.00">vtkLocator</text>
</a>
</g>
<!-- Node2&#45;&gt;Node1 -->
<g id="edge2" class="edge"><title>Node2&#45;&gt;Node1</title>
<path fill="none" stroke="midnightblue" d="M63,-106.89C63,-97.6201 63,-87.0083 63,-79.3776"/>
<polygon fill="midnightblue" stroke="midnightblue" points="59.5001,-106.897 63,-116.897 66.5001,-106.897 59.5001,-106.897"/>
</g>
<!-- Node3 -->
<g id="node4" class="node"><title>Node3</title>
<a xlink:href="class_kitware_1_1_v_t_k_1_1vtk_object.html" target="_top" xlink:title="vtkObject &#45; abstract base class for most VTK objects">
<polygon fill="none" stroke="black" points="32,-175 32,-195 94,-195 94,-175 32,-175"/>
<text text-anchor="middle" x="63" y="-182" font-family="FreeSans" font-size="10.00">vtkObject</text>
</a>
</g>
<!-- Node3&#45;&gt;Node2 -->
<g id="edge4" class="edge"><title>Node3&#45;&gt;Node2</title>
<path fill="none" stroke="midnightblue" d="M63,-164.89C63,-155.62 63,-145.008 63,-137.378"/>
<polygon fill="midnightblue" stroke="midnightblue" points="59.5001,-164.897 63,-174.897 66.5001,-164.897 59.5001,-164.897"/>
</g>
<!-- Node4 -->
<g id="node6" class="node"><title>Node4</title>
<a xlink:href="class_kitware_1_1_v_t_k_1_1vtk_object_base.html" target="_top" xlink:title="vtkObjectBase &#45; abstract base class for most VTK objects">
<polygon fill="none" stroke="black" points="20,-233 20,-253 106,-253 106,-233 20,-233"/>
<text text-anchor="middle" x="63" y="-240" font-family="FreeSans" font-size="10.00">vtkObjectBase</text>
</a>
</g>
<!-- Node4&#45;&gt;Node3 -->
<g id="edge6" class="edge"><title>Node4&#45;&gt;Node3</title>
<path fill="none" stroke="midnightblue" d="M63,-222.89C63,-213.62 63,-203.008 63,-195.378"/>
<polygon fill="midnightblue" stroke="midnightblue" points="59.5001,-222.897 63,-232.897 66.5001,-222.897 59.5001,-222.897"/>
</g>
<!-- Node5 -->
<g id="node8" class="node"><title>Node5</title>
<a xlink:href="class_kitware_1_1_v_t_k_1_1_wrapped_object.html" target="_top" xlink:title="Base class for all the mummy wrapped classes in Kitware.VTK.">
<polygon fill="none" stroke="black" points="18.5,-291 18.5,-311 107.5,-311 107.5,-291 18.5,-291"/>
<text text-anchor="middle" x="63" y="-298" font-family="FreeSans" font-size="10.00">WrappedObject</text>
</a>
</g>
<!-- Node5&#45;&gt;Node4 -->
<g id="edge8" class="edge"><title>Node5&#45;&gt;Node4</title>
<path fill="none" stroke="midnightblue" d="M63,-280.89C63,-271.62 63,-261.008 63,-253.378"/>
<polygon fill="midnightblue" stroke="midnightblue" points="59.5001,-280.897 63,-290.897 66.5001,-280.897 59.5001,-280.897"/>
</g>
</g>
</svg>
