<?xml version="1.0" encoding="UTF-8" standalone="no"?>
<!DOCTYPE svg PUBLIC "-//W3C//DTD SVG 1.1//EN"
 "http://www.w3.org/Graphics/SVG/1.1/DTD/svg11.dtd">
<!-- Generated by graphviz version 2.26.3 (20100126.1600)
 -->
<!-- Title: G Pages: 1 -->
<svg width="384pt" height="262pt"
 viewBox="0.00 0.00 384.00 262.00" xmlns="http://www.w3.org/2000/svg" xmlns:xlink="http://www.w3.org/1999/xlink">
<g id="graph1" class="graph" transform="scale(1 1) rotate(0) translate(4 258)">
<title>G</title>
<!-- Node1 -->
<g id="node1" class="node"><title>Node1</title>
<polygon fill="#bfbfbf" stroke="black" points="122.5,-59 122.5,-79 267.5,-79 267.5,-59 122.5,-59"/>
<text text-anchor="middle" x="195" y="-66" font-family="FreeSans" font-size="10.00">Kitware.VTK.vtkCompositer</text>
</g>
<!-- Node5 -->
<g id="node9" class="node"><title>Node5</title>
<a xlink:href="class_kitware_1_1_v_t_k_1_1vtk_compress_compositer.html" target="_top" xlink:title="vtkCompressCompositer &#45; Implements compressed tree based compositing.">
<polygon fill="none" stroke="black" points="0,-1 0,-21 194,-21 194,-1 0,-1"/>
<text text-anchor="middle" x="97" y="-8" font-family="FreeSans" font-size="10.00">Kitware.VTK.vtkCompressCompositer</text>
</a>
</g>
<!-- Node1&#45;&gt;Node5 -->
<g id="edge8" class="edge"><title>Node1&#45;&gt;Node5</title>
<path fill="none" stroke="midnightblue" d="M168.89,-53.5474C151.571,-43.2969 129.33,-30.1339 114.203,-21.1817"/>
<polygon fill="midnightblue" stroke="midnightblue" points="167.541,-56.8159 177.93,-58.8972 171.107,-50.7919 167.541,-56.8159"/>
</g>
<!-- Node6 -->
<g id="node11" class="node"><title>Node6</title>
<a xlink:href="class_kitware_1_1_v_t_k_1_1vtk_tree_compositer.html" target="_top" xlink:title="This software and ancillary information known as vtk_ext (and herein called &quot;SOFTWARE&quot;) is made avail...">
<polygon fill="none" stroke="black" points="212,-1 212,-21 376,-21 376,-1 212,-1"/>
<text text-anchor="middle" x="294" y="-8" font-family="FreeSans" font-size="10.00">Kitware.VTK.vtkTreeCompositer</text>
</a>
</g>
<!-- Node1&#45;&gt;Node6 -->
<g id="edge10" class="edge"><title>Node1&#45;&gt;Node6</title>
<path fill="none" stroke="midnightblue" d="M220.891,-53.8314C238.456,-43.5411 261.199,-30.2168 276.621,-21.1817"/>
<polygon fill="midnightblue" stroke="midnightblue" points="219.104,-50.8223 212.244,-58.8972 222.642,-56.8621 219.104,-50.8223"/>
</g>
<!-- Node2 -->
<g id="node2" class="node"><title>Node2</title>
<a xlink:href="class_kitware_1_1_v_t_k_1_1vtk_object.html" target="_top" xlink:title="vtkObject &#45; abstract base class for most VTK objects">
<polygon fill="none" stroke="black" points="164,-117 164,-137 226,-137 226,-117 164,-117"/>
<text text-anchor="middle" x="195" y="-124" font-family="FreeSans" font-size="10.00">vtkObject</text>
</a>
</g>
<!-- Node2&#45;&gt;Node1 -->
<g id="edge2" class="edge"><title>Node2&#45;&gt;Node1</title>
<path fill="none" stroke="midnightblue" d="M195,-106.89C195,-97.6201 195,-87.0083 195,-79.3776"/>
<polygon fill="midnightblue" stroke="midnightblue" points="191.5,-106.897 195,-116.897 198.5,-106.897 191.5,-106.897"/>
</g>
<!-- Node3 -->
<g id="node4" class="node"><title>Node3</title>
<a xlink:href="class_kitware_1_1_v_t_k_1_1vtk_object_base.html" target="_top" xlink:title="vtkObjectBase &#45; abstract base class for most VTK objects">
<polygon fill="none" stroke="black" points="152,-175 152,-195 238,-195 238,-175 152,-175"/>
<text text-anchor="middle" x="195" y="-182" font-family="FreeSans" font-size="10.00">vtkObjectBase</text>
</a>
</g>
<!-- Node3&#45;&gt;Node2 -->
<g id="edge4" class="edge"><title>Node3&#45;&gt;Node2</title>
<path fill="none" stroke="midnightblue" d="M195,-164.89C195,-155.62 195,-145.008 195,-137.378"/>
<polygon fill="midnightblue" stroke="midnightblue" points="191.5,-164.897 195,-174.897 198.5,-164.897 191.5,-164.897"/>
</g>
<!-- Node4 -->
<g id="node6" class="node"><title>Node4</title>
<a xlink:href="class_kitware_1_1_v_t_k_1_1_wrapped_object.html" target="_top" xlink:title="Base class for all the mummy wrapped classes in Kitware.VTK.">
<polygon fill="none" stroke="black" points="150.5,-233 150.5,-253 239.5,-253 239.5,-233 150.5,-233"/>
<text text-anchor="middle" x="195" y="-240" font-family="FreeSans" font-size="10.00">WrappedObject</text>
</a>
</g>
<!-- Node4&#45;&gt;Node3 -->
<g id="edge6" class="edge"><title>Node4&#45;&gt;Node3</title>
<path fill="none" stroke="midnightblue" d="M195,-222.89C195,-213.62 195,-203.008 195,-195.378"/>
<polygon fill="midnightblue" stroke="midnightblue" points="191.5,-222.897 195,-232.897 198.5,-222.897 191.5,-222.897"/>
</g>
</g>
</svg>
