<?xml version="1.0" encoding="UTF-8" standalone="no"?>
<!DOCTYPE svg PUBLIC "-//W3C//DTD SVG 1.1//EN"
 "http://www.w3.org/Graphics/SVG/1.1/DTD/svg11.dtd">
<!-- Generated by graphviz version 2.26.3 (20100126.1600)
 -->
<!-- Title: G Pages: 1 -->
<svg width="318pt" height="262pt"
 viewBox="0.00 0.00 318.00 262.00" xmlns="http://www.w3.org/2000/svg" xmlns:xlink="http://www.w3.org/1999/xlink">
<g id="graph1" class="graph" transform="scale(1 1) rotate(0) translate(4 258)">
<title>G</title>
<!-- Node1 -->
<g id="node1" class="node"><title>Node1</title>
<polygon fill="#bfbfbf" stroke="black" points="-0.5,-1 -0.5,-21 310.5,-21 310.5,-1 -0.5,-1"/>
<text text-anchor="middle" x="155" y="-8" font-family="FreeSans" font-size="10.00">Kitware.VTK.vtkFixedPointVolumeRayCastCompositeGOHelper</text>
</g>
<!-- Node2 -->
<g id="node2" class="node"><title>Node2</title>
<a xlink:href="class_kitware_1_1_v_t_k_1_1vtk_fixed_point_volume_ray_cast_helper.html" target="_top" xlink:title="vtkFixedPointVolumeRayCastHelper &#45; An abstract helper that generates images for the volume ray cast m...">
<polygon fill="none" stroke="black" points="62.5,-59 62.5,-79 247.5,-79 247.5,-59 62.5,-59"/>
<text text-anchor="middle" x="155" y="-66" font-family="FreeSans" font-size="10.00">vtkFixedPointVolumeRayCastHelper</text>
</a>
</g>
<!-- Node2&#45;&gt;Node1 -->
<g id="edge2" class="edge"><title>Node2&#45;&gt;Node1</title>
<path fill="none" stroke="midnightblue" d="M155,-48.8902C155,-39.6201 155,-29.0083 155,-21.3776"/>
<polygon fill="midnightblue" stroke="midnightblue" points="151.5,-48.8971 155,-58.8972 158.5,-48.8972 151.5,-48.8971"/>
</g>
<!-- Node3 -->
<g id="node4" class="node"><title>Node3</title>
<a xlink:href="class_kitware_1_1_v_t_k_1_1vtk_object.html" target="_top" xlink:title="vtkObject &#45; abstract base class for most VTK objects">
<polygon fill="none" stroke="black" points="124,-117 124,-137 186,-137 186,-117 124,-117"/>
<text text-anchor="middle" x="155" y="-124" font-family="FreeSans" font-size="10.00">vtkObject</text>
</a>
</g>
<!-- Node3&#45;&gt;Node2 -->
<g id="edge4" class="edge"><title>Node3&#45;&gt;Node2</title>
<path fill="none" stroke="midnightblue" d="M155,-106.89C155,-97.6201 155,-87.0083 155,-79.3776"/>
<polygon fill="midnightblue" stroke="midnightblue" points="151.5,-106.897 155,-116.897 158.5,-106.897 151.5,-106.897"/>
</g>
<!-- Node4 -->
<g id="node6" class="node"><title>Node4</title>
<a xlink:href="class_kitware_1_1_v_t_k_1_1vtk_object_base.html" target="_top" xlink:title="vtkObjectBase &#45; abstract base class for most VTK objects">
<polygon fill="none" stroke="black" points="112,-175 112,-195 198,-195 198,-175 112,-175"/>
<text text-anchor="middle" x="155" y="-182" font-family="FreeSans" font-size="10.00">vtkObjectBase</text>
</a>
</g>
<!-- Node4&#45;&gt;Node3 -->
<g id="edge6" class="edge"><title>Node4&#45;&gt;Node3</title>
<path fill="none" stroke="midnightblue" d="M155,-164.89C155,-155.62 155,-145.008 155,-137.378"/>
<polygon fill="midnightblue" stroke="midnightblue" points="151.5,-164.897 155,-174.897 158.5,-164.897 151.5,-164.897"/>
</g>
<!-- Node5 -->
<g id="node8" class="node"><title>Node5</title>
<a xlink:href="class_kitware_1_1_v_t_k_1_1_wrapped_object.html" target="_top" xlink:title="Base class for all the mummy wrapped classes in Kitware.VTK.">
<polygon fill="none" stroke="black" points="110.5,-233 110.5,-253 199.5,-253 199.5,-233 110.5,-233"/>
<text text-anchor="middle" x="155" y="-240" font-family="FreeSans" font-size="10.00">WrappedObject</text>
</a>
</g>
<!-- Node5&#45;&gt;Node4 -->
<g id="edge8" class="edge"><title>Node5&#45;&gt;Node4</title>
<path fill="none" stroke="midnightblue" d="M155,-222.89C155,-213.62 155,-203.008 155,-195.378"/>
<polygon fill="midnightblue" stroke="midnightblue" points="151.5,-222.897 155,-232.897 158.5,-222.897 151.5,-222.897"/>
</g>
</g>
</svg>
