<?xml version="1.0" encoding="UTF-8" standalone="no"?>
<!DOCTYPE svg PUBLIC "-//W3C//DTD SVG 1.1//EN"
 "http://www.w3.org/Graphics/SVG/1.1/DTD/svg11.dtd">
<!-- Generated by graphviz version 2.26.3 (20100126.1600)
 -->
<!-- Title: G Pages: 1 -->
<svg width="407pt" height="650pt"
 viewBox="0.00 0.00 407.46 650.00" xmlns="http://www.w3.org/2000/svg" xmlns:xlink="http://www.w3.org/1999/xlink">
<g id="graph1" class="graph" transform="scale(1 1) rotate(0) translate(4 646)">
<title>G</title>
<!-- Node1 -->
<g id="node1" class="node"><title>Node1</title>
<polygon fill="#bfbfbf" stroke="black" points="-0.5,-1 -0.5,-21 142.5,-21 142.5,-1 -0.5,-1"/>
<text text-anchor="middle" x="71" y="-8" font-family="FreeSans" font-size="10.00">Kitware.VTK.vtkStringArray</text>
</g>
<!-- Node2 -->
<g id="node2" class="node"><title>Node2</title>
<a xlink:href="class_kitware_1_1_v_t_k_1_1vtk_abstract_array.html" target="_top" xlink:title="vtkAbstractArray &#45; Abstract superclass for all arrays">
<polygon fill="none" stroke="black" points="22.5,-61 22.5,-81 119.5,-81 119.5,-61 22.5,-61"/>
<text text-anchor="middle" x="71" y="-68" font-family="FreeSans" font-size="10.00">vtkAbstractArray</text>
</a>
</g>
<!-- Node2&#45;&gt;Node1 -->
<g id="edge2" class="edge"><title>Node2&#45;&gt;Node1</title>
<path fill="none" stroke="midnightblue" d="M71,-50.5155C71,-40.562 71,-29.0495 71,-21.0279"/>
<polygon fill="midnightblue" stroke="midnightblue" points="67.5001,-50.8218 71,-60.8218 74.5001,-50.8219 67.5001,-50.8218"/>
</g>
<!-- Node3 -->
<g id="node4" class="node"><title>Node3</title>
<a xlink:href="class_kitware_1_1_v_t_k_1_1vtk_object.html" target="_top" xlink:title="vtkObject &#45; abstract base class for most VTK objects">
<polygon fill="none" stroke="black" points="40,-121 40,-141 102,-141 102,-121 40,-121"/>
<text text-anchor="middle" x="71" y="-128" font-family="FreeSans" font-size="10.00">vtkObject</text>
</a>
</g>
<!-- Node3&#45;&gt;Node2 -->
<g id="edge4" class="edge"><title>Node3&#45;&gt;Node2</title>
<path fill="none" stroke="midnightblue" d="M71,-110.516C71,-100.562 71,-89.0495 71,-81.0279"/>
<polygon fill="midnightblue" stroke="midnightblue" points="67.5001,-110.822 71,-120.822 74.5001,-110.822 67.5001,-110.822"/>
</g>
<!-- Node4 -->
<g id="node6" class="node"><title>Node4</title>
<a xlink:href="class_kitware_1_1_v_t_k_1_1vtk_object_base.html" target="_top" xlink:title="vtkObjectBase &#45; abstract base class for most VTK objects">
<polygon fill="none" stroke="black" points="91,-561 91,-581 177,-581 177,-561 91,-561"/>
<text text-anchor="middle" x="134" y="-568" font-family="FreeSans" font-size="10.00">vtkObjectBase</text>
</a>
</g>
<!-- Node4&#45;&gt;Node3 -->
<g id="edge6" class="edge"><title>Node4&#45;&gt;Node3</title>
<path fill="none" stroke="midnightblue" d="M105.423,-555.886C91.6866,-547.44 75.8844,-535.826 65,-522 53.1564,-506.955 52.6209,-500.802 49,-482 23.4248,-349.199 58.5766,-183.437 68.5155,-141.17"/>
<polygon fill="midnightblue" stroke="midnightblue" points="103.683,-558.923 114.079,-560.97 107.229,-552.887 103.683,-558.923"/>
</g>
<!-- Node7 -->
<g id="node13" class="node"><title>Node7</title>
<a xlink:href="class_kitware_1_1_v_t_k_1_1vtk_object.html" target="_top" xlink:title="vtkObject &#45; abstract base class for most VTK objects">
<polygon fill="none" stroke="black" points="74,-501 74,-521 194,-521 194,-501 74,-501"/>
<text text-anchor="middle" x="134" y="-508" font-family="FreeSans" font-size="10.00">Kitware.VTK.vtkObject</text>
</a>
</g>
<!-- Node4&#45;&gt;Node7 -->
<g id="edge16" class="edge"><title>Node4&#45;&gt;Node7</title>
<path fill="none" stroke="midnightblue" d="M134,-550.516C134,-540.562 134,-529.05 134,-521.028"/>
<polygon fill="midnightblue" stroke="midnightblue" points="130.5,-550.822 134,-560.822 137.5,-550.822 130.5,-550.822"/>
</g>
<!-- Node5 -->
<g id="node8" class="node"><title>Node5</title>
<a xlink:href="class_kitware_1_1_v_t_k_1_1_wrapped_object.html" target="_top" xlink:title="Base class for all the mummy wrapped classes in Kitware.VTK.">
<polygon fill="none" stroke="black" points="272.5,-621 272.5,-641 361.5,-641 361.5,-621 272.5,-621"/>
<text text-anchor="middle" x="317" y="-628" font-family="FreeSans" font-size="10.00">WrappedObject</text>
</a>
</g>
<!-- Node5&#45;&gt;Node4 -->
<g id="edge8" class="edge"><title>Node5&#45;&gt;Node4</title>
<path fill="none" stroke="midnightblue" d="M276.804,-617.821C243.042,-606.752 195.512,-591.168 164.73,-581.075"/>
<polygon fill="midnightblue" stroke="midnightblue" points="275.777,-621.168 286.37,-620.957 277.958,-614.516 275.777,-621.168"/>
</g>
<!-- Node6 -->
<g id="node10" class="node"><title>Node6</title>
<a xlink:href="class_kitware_1_1_v_t_k_1_1vtk_object_event_relay.html" target="_top" xlink:title="Implement a relay handler for VTK events. This is a class that receives events directly from the VTK ...">
<polygon fill="none" stroke="black" points="63,-311 63,-331 235,-331 235,-311 63,-311"/>
<text text-anchor="middle" x="149" y="-318" font-family="FreeSans" font-size="10.00">Kitware.VTK.vtkObjectEventRelay</text>
</a>
</g>
<!-- Node5&#45;&gt;Node6 -->
<g id="edge12" class="edge"><title>Node5&#45;&gt;Node6</title>
<path fill="none" stroke="midnightblue" d="M329.888,-612.325C362.276,-562.899 439.803,-427.191 372,-350 362.773,-339.495 294.047,-331.666 235.298,-326.808"/>
<polygon fill="midnightblue" stroke="midnightblue" points="326.891,-610.509 324.239,-620.767 332.709,-614.402 326.891,-610.509"/>
</g>
<!-- Node6&#45;&gt;Node3 -->
<g id="edge10" class="edge"><title>Node6&#45;&gt;Node3</title>
<path fill="none" stroke="#9a32cd" stroke-dasharray="5,2" d="M140.921,-301.321C124.489,-261.293 87.6738,-171.616 75.2144,-141.266"/>
<polygon fill="#9a32cd" stroke="#9a32cd" points="137.771,-302.863 144.806,-310.785 144.246,-300.205 137.771,-302.863"/>
<text text-anchor="middle" x="248.5" y="-283" font-family="FreeSans" font-size="10.00"> LeftButtonReleaseEvtRelay</text>
<text text-anchor="middle" x="248.5" y="-271" font-family="FreeSans" font-size="10.00">KeyPressEvtRelay</text>
<text text-anchor="middle" x="248.5" y="-259" font-family="FreeSans" font-size="10.00">DomainModifiedEvtRelay</text>
<text text-anchor="middle" x="248.5" y="-247" font-family="FreeSans" font-size="10.00">VolumeMapperComputeGradientsStartEvtRelay</text>
<text text-anchor="middle" x="248.5" y="-235" font-family="FreeSans" font-size="10.00">ErrorEvtRelay</text>
<text text-anchor="middle" x="248.5" y="-223" font-family="FreeSans" font-size="10.00">VolumeMapperRenderStartEvtRelay</text>
<text text-anchor="middle" x="248.5" y="-211" font-family="FreeSans" font-size="10.00">StartEvtRelay</text>
<text text-anchor="middle" x="248.5" y="-199" font-family="FreeSans" font-size="10.00">ResetCameraEvtRelay</text>
<text text-anchor="middle" x="248.5" y="-187" font-family="FreeSans" font-size="10.00">EnableEvtRelay</text>
<text text-anchor="middle" x="248.5" y="-175" font-family="FreeSans" font-size="10.00">DeleteEvtRelay</text>
<text text-anchor="middle" x="248.5" y="-163" font-family="FreeSans" font-size="10.00">...</text>
</g>
<!-- Node6&#45;&gt;Node7 -->
<g id="edge18" class="edge"><title>Node6&#45;&gt;Node7</title>
<path fill="none" stroke="#9a32cd" stroke-dasharray="5,2" d="M146.028,-341.231C145.649,-344.169 145.293,-347.159 145,-350 139.144,-406.853 135.636,-475.333 134.452,-500.807"/>
<polygon fill="#9a32cd" stroke="#9a32cd" points="149.515,-341.565 147.421,-331.179 142.582,-340.604 149.515,-341.565"/>
<text text-anchor="middle" x="258.5" y="-473" font-family="FreeSans" font-size="10.00"> LeftButtonReleaseEvtRelay</text>
<text text-anchor="middle" x="258.5" y="-461" font-family="FreeSans" font-size="10.00">KeyPressEvtRelay</text>
<text text-anchor="middle" x="258.5" y="-449" font-family="FreeSans" font-size="10.00">DomainModifiedEvtRelay</text>
<text text-anchor="middle" x="258.5" y="-437" font-family="FreeSans" font-size="10.00">VolumeMapperComputeGradientsStartEvtRelay</text>
<text text-anchor="middle" x="258.5" y="-425" font-family="FreeSans" font-size="10.00">ErrorEvtRelay</text>
<text text-anchor="middle" x="258.5" y="-413" font-family="FreeSans" font-size="10.00">VolumeMapperRenderStartEvtRelay</text>
<text text-anchor="middle" x="258.5" y="-401" font-family="FreeSans" font-size="10.00">StartEvtRelay</text>
<text text-anchor="middle" x="258.5" y="-389" font-family="FreeSans" font-size="10.00">ResetCameraEvtRelay</text>
<text text-anchor="middle" x="258.5" y="-377" font-family="FreeSans" font-size="10.00">EnableEvtRelay</text>
<text text-anchor="middle" x="258.5" y="-365" font-family="FreeSans" font-size="10.00">DeleteEvtRelay</text>
<text text-anchor="middle" x="258.5" y="-353" font-family="FreeSans" font-size="10.00">...</text>
</g>
<!-- Node7&#45;&gt;Node6 -->
<g id="edge14" class="edge"><title>Node7&#45;&gt;Node6</title>
<path fill="none" stroke="#9a32cd" stroke-dasharray="5,2" d="M87.9794,-495.818C82.4393,-492.138 77.5104,-487.596 74,-482 42.8229,-432.303 40.8299,-398.389 74,-350 78.7359,-343.091 95.5114,-336.287 111.999,-331.008"/>
<polygon fill="#9a32cd" stroke="#9a32cd" points="86.6386,-499.079 97.0724,-500.919 90.0636,-492.974 86.6386,-499.079"/>
<text text-anchor="middle" x="98" y="-419" font-family="FreeSans" font-size="10.00"> Sender</text>
<text text-anchor="middle" x="98" y="-407" font-family="FreeSans" font-size="10.00">EventImpl</text>
</g>
</g>
</svg>
