<?xml version="1.0" encoding="UTF-8" standalone="no"?>
<!DOCTYPE svg PUBLIC "-//W3C//DTD SVG 1.1//EN"
 "http://www.w3.org/Graphics/SVG/1.1/DTD/svg11.dtd">
<!-- Generated by graphviz version 2.26.3 (20100126.1600)
 -->
<!-- Title: G Pages: 1 -->
<svg width="430pt" height="378pt"
 viewBox="0.00 0.00 430.00 378.00" xmlns="http://www.w3.org/2000/svg" xmlns:xlink="http://www.w3.org/1999/xlink">
<g id="graph1" class="graph" transform="scale(1 1) rotate(0) translate(4 374)">
<title>G</title>
<!-- Node1 -->
<g id="node1" class="node"><title>Node1</title>
<polygon fill="#bfbfbf" stroke="black" points="117,-59 117,-79 305,-79 305,-59 117,-59"/>
<text text-anchor="middle" x="211" y="-66" font-family="FreeSans" font-size="10.00">Kitware.VTK.vtkAngleRepresentation</text>
</g>
<!-- Node7 -->
<g id="node13" class="node"><title>Node7</title>
<a xlink:href="class_kitware_1_1_v_t_k_1_1vtk_angle_representation2_d.html" target="_top" xlink:title="vtkAngleRepresentation2D &#45; represent the vtkAngleWidget">
<polygon fill="none" stroke="black" points="0,-1 0,-21 202,-21 202,-1 0,-1"/>
<text text-anchor="middle" x="101" y="-8" font-family="FreeSans" font-size="10.00">Kitware.VTK.vtkAngleRepresentation2D</text>
</a>
</g>
<!-- Node1&#45;&gt;Node7 -->
<g id="edge12" class="edge"><title>Node1&#45;&gt;Node7</title>
<path fill="none" stroke="midnightblue" d="M182.768,-54.1138C163.18,-43.7859 137.603,-30.2996 120.31,-21.1817"/>
<polygon fill="midnightblue" stroke="midnightblue" points="181.361,-57.329 191.839,-58.8972 184.626,-51.137 181.361,-57.329"/>
</g>
<!-- Node8 -->
<g id="node15" class="node"><title>Node8</title>
<a xlink:href="class_kitware_1_1_v_t_k_1_1vtk_angle_representation3_d.html" target="_top" xlink:title="vtkAngleRepresentation3D &#45; represent the vtkAngleWidget">
<polygon fill="none" stroke="black" points="220,-1 220,-21 422,-21 422,-1 220,-1"/>
<text text-anchor="middle" x="321" y="-8" font-family="FreeSans" font-size="10.00">Kitware.VTK.vtkAngleRepresentation3D</text>
</a>
</g>
<!-- Node1&#45;&gt;Node8 -->
<g id="edge14" class="edge"><title>Node1&#45;&gt;Node8</title>
<path fill="none" stroke="midnightblue" d="M239.232,-54.1138C258.82,-43.7859 284.397,-30.2996 301.69,-21.1817"/>
<polygon fill="midnightblue" stroke="midnightblue" points="237.374,-51.137 230.161,-58.8972 240.639,-57.329 237.374,-51.137"/>
</g>
<!-- Node2 -->
<g id="node2" class="node"><title>Node2</title>
<a xlink:href="class_kitware_1_1_v_t_k_1_1vtk_widget_representation.html" target="_top" xlink:title="vtkWidgetRepresentation &#45; abstract class defines interface between the widget and widget representati...">
<polygon fill="none" stroke="black" points="143.5,-117 143.5,-137 278.5,-137 278.5,-117 143.5,-117"/>
<text text-anchor="middle" x="211" y="-124" font-family="FreeSans" font-size="10.00">vtkWidgetRepresentation</text>
</a>
</g>
<!-- Node2&#45;&gt;Node1 -->
<g id="edge2" class="edge"><title>Node2&#45;&gt;Node1</title>
<path fill="none" stroke="midnightblue" d="M211,-106.89C211,-97.6201 211,-87.0083 211,-79.3776"/>
<polygon fill="midnightblue" stroke="midnightblue" points="207.5,-106.897 211,-116.897 214.5,-106.897 207.5,-106.897"/>
</g>
<!-- Node3 -->
<g id="node4" class="node"><title>Node3</title>
<a xlink:href="class_kitware_1_1_v_t_k_1_1vtk_prop.html" target="_top" xlink:title="vtkProp &#45; abstract superclass for all actors, volumes and annotations">
<polygon fill="none" stroke="black" points="184.5,-175 184.5,-195 237.5,-195 237.5,-175 184.5,-175"/>
<text text-anchor="middle" x="211" y="-182" font-family="FreeSans" font-size="10.00">vtkProp</text>
</a>
</g>
<!-- Node3&#45;&gt;Node2 -->
<g id="edge4" class="edge"><title>Node3&#45;&gt;Node2</title>
<path fill="none" stroke="midnightblue" d="M211,-164.89C211,-155.62 211,-145.008 211,-137.378"/>
<polygon fill="midnightblue" stroke="midnightblue" points="207.5,-164.897 211,-174.897 214.5,-164.897 207.5,-164.897"/>
</g>
<!-- Node4 -->
<g id="node6" class="node"><title>Node4</title>
<a xlink:href="class_kitware_1_1_v_t_k_1_1vtk_object.html" target="_top" xlink:title="vtkObject &#45; abstract base class for most VTK objects">
<polygon fill="none" stroke="black" points="180,-233 180,-253 242,-253 242,-233 180,-233"/>
<text text-anchor="middle" x="211" y="-240" font-family="FreeSans" font-size="10.00">vtkObject</text>
</a>
</g>
<!-- Node4&#45;&gt;Node3 -->
<g id="edge6" class="edge"><title>Node4&#45;&gt;Node3</title>
<path fill="none" stroke="midnightblue" d="M211,-222.89C211,-213.62 211,-203.008 211,-195.378"/>
<polygon fill="midnightblue" stroke="midnightblue" points="207.5,-222.897 211,-232.897 214.5,-222.897 207.5,-222.897"/>
</g>
<!-- Node5 -->
<g id="node8" class="node"><title>Node5</title>
<a xlink:href="class_kitware_1_1_v_t_k_1_1vtk_object_base.html" target="_top" xlink:title="vtkObjectBase &#45; abstract base class for most VTK objects">
<polygon fill="none" stroke="black" points="168,-291 168,-311 254,-311 254,-291 168,-291"/>
<text text-anchor="middle" x="211" y="-298" font-family="FreeSans" font-size="10.00">vtkObjectBase</text>
</a>
</g>
<!-- Node5&#45;&gt;Node4 -->
<g id="edge8" class="edge"><title>Node5&#45;&gt;Node4</title>
<path fill="none" stroke="midnightblue" d="M211,-280.89C211,-271.62 211,-261.008 211,-253.378"/>
<polygon fill="midnightblue" stroke="midnightblue" points="207.5,-280.897 211,-290.897 214.5,-280.897 207.5,-280.897"/>
</g>
<!-- Node6 -->
<g id="node10" class="node"><title>Node6</title>
<a xlink:href="class_kitware_1_1_v_t_k_1_1_wrapped_object.html" target="_top" xlink:title="Base class for all the mummy wrapped classes in Kitware.VTK.">
<polygon fill="none" stroke="black" points="166.5,-349 166.5,-369 255.5,-369 255.5,-349 166.5,-349"/>
<text text-anchor="middle" x="211" y="-356" font-family="FreeSans" font-size="10.00">WrappedObject</text>
</a>
</g>
<!-- Node6&#45;&gt;Node5 -->
<g id="edge10" class="edge"><title>Node6&#45;&gt;Node5</title>
<path fill="none" stroke="midnightblue" d="M211,-338.89C211,-329.62 211,-319.008 211,-311.378"/>
<polygon fill="midnightblue" stroke="midnightblue" points="207.5,-338.897 211,-348.897 214.5,-338.897 207.5,-338.897"/>
</g>
</g>
</svg>
