<?xml version="1.0" encoding="UTF-8" standalone="no"?>
<!DOCTYPE svg PUBLIC "-//W3C//DTD SVG 1.1//EN"
 "http://www.w3.org/Graphics/SVG/1.1/DTD/svg11.dtd">
<!-- Generated by graphviz version 2.26.3 (20100126.1600)
 -->
<!-- Title: G Pages: 1 -->
<svg width="407pt" height="590pt"
 viewBox="0.00 0.00 407.46 590.00" xmlns="http://www.w3.org/2000/svg" xmlns:xlink="http://www.w3.org/1999/xlink">
<g id="graph1" class="graph" transform="scale(1 1) rotate(0) translate(4 586)">
<title>G</title>
<!-- Node1 -->
<g id="node1" class="node"><title>Node1</title>
<polygon fill="#bfbfbf" stroke="black" points="-0.5,-1 -0.5,-21 142.5,-21 142.5,-1 -0.5,-1"/>
<text text-anchor="middle" x="71" y="-8" font-family="FreeSans" font-size="10.00">Kitware.VTK.vtkXMLShader</text>
</g>
<!-- Node2 -->
<g id="node2" class="node"><title>Node2</title>
<a xlink:href="class_kitware_1_1_v_t_k_1_1vtk_object.html" target="_top" xlink:title="vtkObject &#45; abstract base class for most VTK objects">
<polygon fill="none" stroke="black" points="40,-61 40,-81 102,-81 102,-61 40,-61"/>
<text text-anchor="middle" x="71" y="-68" font-family="FreeSans" font-size="10.00">vtkObject</text>
</a>
</g>
<!-- Node2&#45;&gt;Node1 -->
<g id="edge2" class="edge"><title>Node2&#45;&gt;Node1</title>
<path fill="none" stroke="midnightblue" d="M71,-50.5155C71,-40.562 71,-29.0495 71,-21.0279"/>
<polygon fill="midnightblue" stroke="midnightblue" points="67.5001,-50.8218 71,-60.8218 74.5001,-50.8219 67.5001,-50.8218"/>
</g>
<!-- Node3 -->
<g id="node4" class="node"><title>Node3</title>
<a xlink:href="class_kitware_1_1_v_t_k_1_1vtk_object_base.html" target="_top" xlink:title="vtkObjectBase &#45; abstract base class for most VTK objects">
<polygon fill="none" stroke="black" points="91,-501 91,-521 177,-521 177,-501 91,-501"/>
<text text-anchor="middle" x="134" y="-508" font-family="FreeSans" font-size="10.00">vtkObjectBase</text>
</a>
</g>
<!-- Node3&#45;&gt;Node2 -->
<g id="edge4" class="edge"><title>Node3&#45;&gt;Node2</title>
<path fill="none" stroke="midnightblue" d="M105.423,-495.886C91.6866,-487.44 75.8844,-475.826 65,-462 53.1564,-446.955 52.6209,-440.802 49,-422 23.4248,-289.199 58.5766,-123.437 68.5155,-81.1704"/>
<polygon fill="midnightblue" stroke="midnightblue" points="103.683,-498.923 114.079,-500.97 107.229,-492.887 103.683,-498.923"/>
</g>
<!-- Node6 -->
<g id="node11" class="node"><title>Node6</title>
<a xlink:href="class_kitware_1_1_v_t_k_1_1vtk_object.html" target="_top" xlink:title="vtkObject &#45; abstract base class for most VTK objects">
<polygon fill="none" stroke="black" points="74,-441 74,-461 194,-461 194,-441 74,-441"/>
<text text-anchor="middle" x="134" y="-448" font-family="FreeSans" font-size="10.00">Kitware.VTK.vtkObject</text>
</a>
</g>
<!-- Node3&#45;&gt;Node6 -->
<g id="edge14" class="edge"><title>Node3&#45;&gt;Node6</title>
<path fill="none" stroke="midnightblue" d="M134,-490.516C134,-480.562 134,-469.05 134,-461.028"/>
<polygon fill="midnightblue" stroke="midnightblue" points="130.5,-490.822 134,-500.822 137.5,-490.822 130.5,-490.822"/>
</g>
<!-- Node4 -->
<g id="node6" class="node"><title>Node4</title>
<a xlink:href="class_kitware_1_1_v_t_k_1_1_wrapped_object.html" target="_top" xlink:title="Base class for all the mummy wrapped classes in Kitware.VTK.">
<polygon fill="none" stroke="black" points="272.5,-561 272.5,-581 361.5,-581 361.5,-561 272.5,-561"/>
<text text-anchor="middle" x="317" y="-568" font-family="FreeSans" font-size="10.00">WrappedObject</text>
</a>
</g>
<!-- Node4&#45;&gt;Node3 -->
<g id="edge6" class="edge"><title>Node4&#45;&gt;Node3</title>
<path fill="none" stroke="midnightblue" d="M276.804,-557.821C243.042,-546.752 195.512,-531.168 164.73,-521.075"/>
<polygon fill="midnightblue" stroke="midnightblue" points="275.777,-561.168 286.37,-560.957 277.958,-554.516 275.777,-561.168"/>
</g>
<!-- Node5 -->
<g id="node8" class="node"><title>Node5</title>
<a xlink:href="class_kitware_1_1_v_t_k_1_1vtk_object_event_relay.html" target="_top" xlink:title="Implement a relay handler for VTK events. This is a class that receives events directly from the VTK ...">
<polygon fill="none" stroke="black" points="63,-251 63,-271 235,-271 235,-251 63,-251"/>
<text text-anchor="middle" x="149" y="-258" font-family="FreeSans" font-size="10.00">Kitware.VTK.vtkObjectEventRelay</text>
</a>
</g>
<!-- Node4&#45;&gt;Node5 -->
<g id="edge10" class="edge"><title>Node4&#45;&gt;Node5</title>
<path fill="none" stroke="midnightblue" d="M329.888,-552.325C362.276,-502.899 439.803,-367.191 372,-290 362.773,-279.495 294.047,-271.666 235.298,-266.808"/>
<polygon fill="midnightblue" stroke="midnightblue" points="326.891,-550.509 324.239,-560.767 332.709,-554.402 326.891,-550.509"/>
</g>
<!-- Node5&#45;&gt;Node2 -->
<g id="edge8" class="edge"><title>Node5&#45;&gt;Node2</title>
<path fill="none" stroke="#9a32cd" stroke-dasharray="5,2" d="M140.921,-241.321C124.489,-201.293 87.6738,-111.616 75.2144,-81.2657"/>
<polygon fill="#9a32cd" stroke="#9a32cd" points="137.771,-242.863 144.806,-250.785 144.246,-240.205 137.771,-242.863"/>
<text text-anchor="middle" x="248.5" y="-223" font-family="FreeSans" font-size="10.00"> LeftButtonReleaseEvtRelay</text>
<text text-anchor="middle" x="248.5" y="-211" font-family="FreeSans" font-size="10.00">KeyPressEvtRelay</text>
<text text-anchor="middle" x="248.5" y="-199" font-family="FreeSans" font-size="10.00">DomainModifiedEvtRelay</text>
<text text-anchor="middle" x="248.5" y="-187" font-family="FreeSans" font-size="10.00">VolumeMapperComputeGradientsStartEvtRelay</text>
<text text-anchor="middle" x="248.5" y="-175" font-family="FreeSans" font-size="10.00">ErrorEvtRelay</text>
<text text-anchor="middle" x="248.5" y="-163" font-family="FreeSans" font-size="10.00">VolumeMapperRenderStartEvtRelay</text>
<text text-anchor="middle" x="248.5" y="-151" font-family="FreeSans" font-size="10.00">StartEvtRelay</text>
<text text-anchor="middle" x="248.5" y="-139" font-family="FreeSans" font-size="10.00">ResetCameraEvtRelay</text>
<text text-anchor="middle" x="248.5" y="-127" font-family="FreeSans" font-size="10.00">EnableEvtRelay</text>
<text text-anchor="middle" x="248.5" y="-115" font-family="FreeSans" font-size="10.00">DeleteEvtRelay</text>
<text text-anchor="middle" x="248.5" y="-103" font-family="FreeSans" font-size="10.00">...</text>
</g>
<!-- Node5&#45;&gt;Node6 -->
<g id="edge16" class="edge"><title>Node5&#45;&gt;Node6</title>
<path fill="none" stroke="#9a32cd" stroke-dasharray="5,2" d="M146.028,-281.231C145.649,-284.169 145.293,-287.159 145,-290 139.144,-346.853 135.636,-415.333 134.452,-440.807"/>
<polygon fill="#9a32cd" stroke="#9a32cd" points="149.515,-281.565 147.421,-271.179 142.582,-280.604 149.515,-281.565"/>
<text text-anchor="middle" x="258.5" y="-413" font-family="FreeSans" font-size="10.00"> LeftButtonReleaseEvtRelay</text>
<text text-anchor="middle" x="258.5" y="-401" font-family="FreeSans" font-size="10.00">KeyPressEvtRelay</text>
<text text-anchor="middle" x="258.5" y="-389" font-family="FreeSans" font-size="10.00">DomainModifiedEvtRelay</text>
<text text-anchor="middle" x="258.5" y="-377" font-family="FreeSans" font-size="10.00">VolumeMapperComputeGradientsStartEvtRelay</text>
<text text-anchor="middle" x="258.5" y="-365" font-family="FreeSans" font-size="10.00">ErrorEvtRelay</text>
<text text-anchor="middle" x="258.5" y="-353" font-family="FreeSans" font-size="10.00">VolumeMapperRenderStartEvtRelay</text>
<text text-anchor="middle" x="258.5" y="-341" font-family="FreeSans" font-size="10.00">StartEvtRelay</text>
<text text-anchor="middle" x="258.5" y="-329" font-family="FreeSans" font-size="10.00">ResetCameraEvtRelay</text>
<text text-anchor="middle" x="258.5" y="-317" font-family="FreeSans" font-size="10.00">EnableEvtRelay</text>
<text text-anchor="middle" x="258.5" y="-305" font-family="FreeSans" font-size="10.00">DeleteEvtRelay</text>
<text text-anchor="middle" x="258.5" y="-293" font-family="FreeSans" font-size="10.00">...</text>
</g>
<!-- Node6&#45;&gt;Node5 -->
<g id="edge12" class="edge"><title>Node6&#45;&gt;Node5</title>
<path fill="none" stroke="#9a32cd" stroke-dasharray="5,2" d="M87.9794,-435.818C82.4393,-432.138 77.5104,-427.596 74,-422 42.8229,-372.303 40.8299,-338.389 74,-290 78.7359,-283.091 95.5114,-276.287 111.999,-271.008"/>
<polygon fill="#9a32cd" stroke="#9a32cd" points="86.6386,-439.079 97.0724,-440.919 90.0636,-432.974 86.6386,-439.079"/>
<text text-anchor="middle" x="98" y="-359" font-family="FreeSans" font-size="10.00"> Sender</text>
<text text-anchor="middle" x="98" y="-347" font-family="FreeSans" font-size="10.00">EventImpl</text>
</g>
</g>
</svg>
