<?xml version="1.0" encoding="UTF-8" standalone="no"?>
<!DOCTYPE svg PUBLIC "-//W3C//DTD SVG 1.1//EN"
 "http://www.w3.org/Graphics/SVG/1.1/DTD/svg11.dtd">
<!-- Generated by graphviz version 2.26.3 (20100126.1600)
 -->
<!-- Title: G Pages: 1 -->
<svg width="248pt" height="494pt"
 viewBox="0.00 0.00 248.00 494.00" xmlns="http://www.w3.org/2000/svg" xmlns:xlink="http://www.w3.org/1999/xlink">
<g id="graph1" class="graph" transform="scale(1 1) rotate(0) translate(4 490)">
<title>G</title>
<!-- Node1 -->
<g id="node1" class="node"><title>Node1</title>
<polygon fill="#bfbfbf" stroke="black" points="0,-1 0,-21 240,-21 240,-1 0,-1"/>
<text text-anchor="middle" x="120" y="-8" font-family="FreeSans" font-size="10.00">Kitware.VTK.vtkCompositeTransferFunctionItem</text>
</g>
<!-- Node2 -->
<g id="node2" class="node"><title>Node2</title>
<a xlink:href="class_kitware_1_1_v_t_k_1_1vtk_color_transfer_function_item.html" target="_top" xlink:title="vtkPlot::Color, vtkPlot::Brush, vtkScalarsToColors::DrawPolyLine, vtkScalarsToColors::MaskAboveCurve ...">
<polygon fill="none" stroke="black" points="42.5,-59 42.5,-79 197.5,-79 197.5,-59 42.5,-59"/>
<text text-anchor="middle" x="120" y="-66" font-family="FreeSans" font-size="10.00">vtkColorTransferFunctionItem</text>
</a>
</g>
<!-- Node2&#45;&gt;Node1 -->
<g id="edge2" class="edge"><title>Node2&#45;&gt;Node1</title>
<path fill="none" stroke="midnightblue" d="M120,-48.8902C120,-39.6201 120,-29.0083 120,-21.3776"/>
<polygon fill="midnightblue" stroke="midnightblue" points="116.5,-48.8971 120,-58.8972 123.5,-48.8972 116.5,-48.8971"/>
</g>
<!-- Node3 -->
<g id="node4" class="node"><title>Node3</title>
<a xlink:href="class_kitware_1_1_v_t_k_1_1vtk_scalars_to_colors_item.html" target="_top" xlink:title="vtkScalarsToColorsItem &#45; Abstract class for ScalarsToColors items.">
<polygon fill="none" stroke="black" points="56,-117 56,-137 184,-137 184,-117 56,-117"/>
<text text-anchor="middle" x="120" y="-124" font-family="FreeSans" font-size="10.00">vtkScalarsToColorsItem</text>
</a>
</g>
<!-- Node3&#45;&gt;Node2 -->
<g id="edge4" class="edge"><title>Node3&#45;&gt;Node2</title>
<path fill="none" stroke="midnightblue" d="M120,-106.89C120,-97.6201 120,-87.0083 120,-79.3776"/>
<polygon fill="midnightblue" stroke="midnightblue" points="116.5,-106.897 120,-116.897 123.5,-106.897 116.5,-106.897"/>
</g>
<!-- Node4 -->
<g id="node6" class="node"><title>Node4</title>
<a xlink:href="class_kitware_1_1_v_t_k_1_1vtk_plot.html" target="_top" xlink:title="vtkPlot &#45; Abstract class for 2D plots.">
<polygon fill="none" stroke="black" points="95.5,-175 95.5,-195 144.5,-195 144.5,-175 95.5,-175"/>
<text text-anchor="middle" x="120" y="-182" font-family="FreeSans" font-size="10.00">vtkPlot</text>
</a>
</g>
<!-- Node4&#45;&gt;Node3 -->
<g id="edge6" class="edge"><title>Node4&#45;&gt;Node3</title>
<path fill="none" stroke="midnightblue" d="M120,-164.89C120,-155.62 120,-145.008 120,-137.378"/>
<polygon fill="midnightblue" stroke="midnightblue" points="116.5,-164.897 120,-174.897 123.5,-164.897 116.5,-164.897"/>
</g>
<!-- Node5 -->
<g id="node8" class="node"><title>Node5</title>
<a xlink:href="class_kitware_1_1_v_t_k_1_1vtk_context_item.html" target="_top" xlink:title="vtkContextItem &#45; base class for items that are part of a vtkContextScene.">
<polygon fill="none" stroke="black" points="75,-233 75,-253 165,-253 165,-233 75,-233"/>
<text text-anchor="middle" x="120" y="-240" font-family="FreeSans" font-size="10.00">vtkContextItem</text>
</a>
</g>
<!-- Node5&#45;&gt;Node4 -->
<g id="edge8" class="edge"><title>Node5&#45;&gt;Node4</title>
<path fill="none" stroke="midnightblue" d="M120,-222.89C120,-213.62 120,-203.008 120,-195.378"/>
<polygon fill="midnightblue" stroke="midnightblue" points="116.5,-222.897 120,-232.897 123.5,-222.897 116.5,-222.897"/>
</g>
<!-- Node6 -->
<g id="node10" class="node"><title>Node6</title>
<a xlink:href="class_kitware_1_1_v_t_k_1_1vtk_abstract_context_item.html" target="_top" xlink:title="vtkAbstractContextItem &#45; base class for items that are part of a vtkContextScene.">
<polygon fill="none" stroke="black" points="54.5,-291 54.5,-311 185.5,-311 185.5,-291 54.5,-291"/>
<text text-anchor="middle" x="120" y="-298" font-family="FreeSans" font-size="10.00">vtkAbstractContextItem</text>
</a>
</g>
<!-- Node6&#45;&gt;Node5 -->
<g id="edge10" class="edge"><title>Node6&#45;&gt;Node5</title>
<path fill="none" stroke="midnightblue" d="M120,-280.89C120,-271.62 120,-261.008 120,-253.378"/>
<polygon fill="midnightblue" stroke="midnightblue" points="116.5,-280.897 120,-290.897 123.5,-280.897 116.5,-280.897"/>
</g>
<!-- Node7 -->
<g id="node12" class="node"><title>Node7</title>
<a xlink:href="class_kitware_1_1_v_t_k_1_1vtk_object.html" target="_top" xlink:title="vtkObject &#45; abstract base class for most VTK objects">
<polygon fill="none" stroke="black" points="89,-349 89,-369 151,-369 151,-349 89,-349"/>
<text text-anchor="middle" x="120" y="-356" font-family="FreeSans" font-size="10.00">vtkObject</text>
</a>
</g>
<!-- Node7&#45;&gt;Node6 -->
<g id="edge12" class="edge"><title>Node7&#45;&gt;Node6</title>
<path fill="none" stroke="midnightblue" d="M120,-338.89C120,-329.62 120,-319.008 120,-311.378"/>
<polygon fill="midnightblue" stroke="midnightblue" points="116.5,-338.897 120,-348.897 123.5,-338.897 116.5,-338.897"/>
</g>
<!-- Node8 -->
<g id="node14" class="node"><title>Node8</title>
<a xlink:href="class_kitware_1_1_v_t_k_1_1vtk_object_base.html" target="_top" xlink:title="vtkObjectBase &#45; abstract base class for most VTK objects">
<polygon fill="none" stroke="black" points="77,-407 77,-427 163,-427 163,-407 77,-407"/>
<text text-anchor="middle" x="120" y="-414" font-family="FreeSans" font-size="10.00">vtkObjectBase</text>
</a>
</g>
<!-- Node8&#45;&gt;Node7 -->
<g id="edge14" class="edge"><title>Node8&#45;&gt;Node7</title>
<path fill="none" stroke="midnightblue" d="M120,-396.89C120,-387.62 120,-377.008 120,-369.378"/>
<polygon fill="midnightblue" stroke="midnightblue" points="116.5,-396.897 120,-406.897 123.5,-396.897 116.5,-396.897"/>
</g>
<!-- Node9 -->
<g id="node16" class="node"><title>Node9</title>
<a xlink:href="class_kitware_1_1_v_t_k_1_1_wrapped_object.html" target="_top" xlink:title="Base class for all the mummy wrapped classes in Kitware.VTK.">
<polygon fill="none" stroke="black" points="75.5,-465 75.5,-485 164.5,-485 164.5,-465 75.5,-465"/>
<text text-anchor="middle" x="120" y="-472" font-family="FreeSans" font-size="10.00">WrappedObject</text>
</a>
</g>
<!-- Node9&#45;&gt;Node8 -->
<g id="edge16" class="edge"><title>Node9&#45;&gt;Node8</title>
<path fill="none" stroke="midnightblue" d="M120,-454.89C120,-445.62 120,-435.008 120,-427.378"/>
<polygon fill="midnightblue" stroke="midnightblue" points="116.5,-454.897 120,-464.897 123.5,-454.897 116.5,-454.897"/>
</g>
</g>
</svg>
