<?xml version="1.0" encoding="UTF-8" standalone="no"?>
<!DOCTYPE svg PUBLIC "-//W3C//DTD SVG 1.1//EN"
 "http://www.w3.org/Graphics/SVG/1.1/DTD/svg11.dtd">
<!-- Generated by graphviz version 2.26.3 (20100126.1600)
 -->
<!-- Title: G Pages: 1 -->
<svg width="792pt" height="28pt"
 viewBox="0.00 0.00 792.00 28.00" xmlns="http://www.w3.org/2000/svg" xmlns:xlink="http://www.w3.org/1999/xlink">
<g id="graph1" class="graph" transform="scale(1 1) rotate(0) translate(4 24)">
<title>G</title>
<!-- Node1 -->
<g id="node1" class="node"><title>Node1</title>
<polygon fill="#bfbfbf" stroke="black" points="0,-0 0,-20 214,-20 214,-0 0,-0"/>
<text text-anchor="middle" x="107" y="-7" font-family="FreeSans" font-size="10.00">vtkObjectEventRelay.CallRemoveObserver</text>
</g>
<!-- Node2 -->
<g id="node3" class="node"><title>Node2</title>
<a xlink:href="classvtk_object_event_relay.html#a56c6cc0c785de5a11e9327ae0749cbe7" target="_top" xlink:title="vtkObjectEventRelay.RemoveObserver">
<polygon fill="none" stroke="black" points="250.5,-0 250.5,-20 447.5,-20 447.5,-0 250.5,-0"/>
<text text-anchor="middle" x="349" y="-7" font-family="FreeSans" font-size="10.00">vtkObjectEventRelay.RemoveObserver</text>
</a>
</g>
<!-- Node1&#45;&gt;Node2 -->
<g id="edge2" class="edge"><title>Node1&#45;&gt;Node2</title>
<path fill="none" stroke="midnightblue" d="M214.202,-10C222.834,-10 231.562,-10 240.205,-10"/>
<polygon fill="midnightblue" stroke="midnightblue" points="240.303,-13.5001 250.303,-10 240.303,-6.5001 240.303,-13.5001"/>
</g>
<!-- Node3 -->
<g id="node5" class="node"><title>Node3</title>
<a xlink:href="classvtk_object_event_relay.html#a90748605e39608c46f67844b608d2ad6" target="_top" xlink:title="vtkObjectEventRelay.vtkObjectEventRelay_RemoveObserver">
<polygon fill="none" stroke="black" points="484.5,-0 484.5,-20 783.5,-20 783.5,-0 484.5,-0"/>
<text text-anchor="middle" x="634" y="-7" font-family="FreeSans" font-size="10.00">vtkObjectEventRelay.vtkObjectEventRelay_RemoveObserver</text>
</a>
</g>
<!-- Node2&#45;&gt;Node3 -->
<g id="edge4" class="edge"><title>Node2&#45;&gt;Node3</title>
<path fill="none" stroke="midnightblue" d="M447.879,-10C456.465,-10 465.284,-10 474.195,-10"/>
<polygon fill="midnightblue" stroke="midnightblue" points="474.287,-13.5001 484.287,-10 474.287,-6.5001 474.287,-13.5001"/>
</g>
</g>
</svg>
