<?xml version="1.0" encoding="UTF-8" standalone="no"?>
<!DOCTYPE svg PUBLIC "-//W3C//DTD SVG 1.1//EN"
 "http://www.w3.org/Graphics/SVG/1.1/DTD/svg11.dtd">
<!-- Generated by graphviz version 2.26.3 (20100126.1600)
 -->
<!-- Title: G Pages: 1 -->
<svg width="403pt" height="770pt"
 viewBox="0.00 0.00 403.46 770.00" xmlns="http://www.w3.org/2000/svg" xmlns:xlink="http://www.w3.org/1999/xlink">
<g id="graph1" class="graph" transform="scale(1 1) rotate(0) translate(4 766)">
<title>G</title>
<!-- Node1 -->
<g id="node1" class="node"><title>Node1</title>
<polygon fill="#bfbfbf" stroke="black" points="0,-1 0,-21 134,-21 134,-1 0,-1"/>
<text text-anchor="middle" x="67" y="-8" font-family="FreeSans" font-size="10.00">Kitware.VTK.vtkAxisActor</text>
</g>
<!-- Node2 -->
<g id="node2" class="node"><title>Node2</title>
<a xlink:href="class_kitware_1_1_v_t_k_1_1vtk_actor.html" target="_top" xlink:title="vtkActor &#45; represents an object (geometry &amp; properties) in a rendered scene">
<polygon fill="none" stroke="black" points="39,-61 39,-81 95,-81 95,-61 39,-61"/>
<text text-anchor="middle" x="67" y="-68" font-family="FreeSans" font-size="10.00">vtkActor</text>
</a>
</g>
<!-- Node2&#45;&gt;Node1 -->
<g id="edge2" class="edge"><title>Node2&#45;&gt;Node1</title>
<path fill="none" stroke="midnightblue" d="M67,-50.5155C67,-40.562 67,-29.0495 67,-21.0279"/>
<polygon fill="midnightblue" stroke="midnightblue" points="63.5001,-50.8218 67,-60.8218 70.5001,-50.8219 63.5001,-50.8218"/>
</g>
<!-- Node3 -->
<g id="node4" class="node"><title>Node3</title>
<a xlink:href="class_kitware_1_1_v_t_k_1_1vtk_prop3_d.html" target="_top" xlink:title="vtkProp3D &#45; represents an 3D object for placement in a rendered scene">
<polygon fill="none" stroke="black" points="34,-121 34,-141 100,-141 100,-121 34,-121"/>
<text text-anchor="middle" x="67" y="-128" font-family="FreeSans" font-size="10.00">vtkProp3D</text>
</a>
</g>
<!-- Node3&#45;&gt;Node2 -->
<g id="edge4" class="edge"><title>Node3&#45;&gt;Node2</title>
<path fill="none" stroke="midnightblue" d="M67,-110.516C67,-100.562 67,-89.0495 67,-81.0279"/>
<polygon fill="midnightblue" stroke="midnightblue" points="63.5001,-110.822 67,-120.822 70.5001,-110.822 63.5001,-110.822"/>
</g>
<!-- Node4 -->
<g id="node6" class="node"><title>Node4</title>
<a xlink:href="class_kitware_1_1_v_t_k_1_1vtk_prop.html" target="_top" xlink:title="vtkProp &#45; abstract superclass for all actors, volumes and annotations">
<polygon fill="none" stroke="black" points="40.5,-181 40.5,-201 93.5,-201 93.5,-181 40.5,-181"/>
<text text-anchor="middle" x="67" y="-188" font-family="FreeSans" font-size="10.00">vtkProp</text>
</a>
</g>
<!-- Node4&#45;&gt;Node3 -->
<g id="edge6" class="edge"><title>Node4&#45;&gt;Node3</title>
<path fill="none" stroke="midnightblue" d="M67,-170.516C67,-160.562 67,-149.05 67,-141.028"/>
<polygon fill="midnightblue" stroke="midnightblue" points="63.5001,-170.822 67,-180.822 70.5001,-170.822 63.5001,-170.822"/>
</g>
<!-- Node5 -->
<g id="node8" class="node"><title>Node5</title>
<a xlink:href="class_kitware_1_1_v_t_k_1_1vtk_object.html" target="_top" xlink:title="vtkObject &#45; abstract base class for most VTK objects">
<polygon fill="none" stroke="black" points="36,-241 36,-261 98,-261 98,-241 36,-241"/>
<text text-anchor="middle" x="67" y="-248" font-family="FreeSans" font-size="10.00">vtkObject</text>
</a>
</g>
<!-- Node5&#45;&gt;Node4 -->
<g id="edge8" class="edge"><title>Node5&#45;&gt;Node4</title>
<path fill="none" stroke="midnightblue" d="M67,-230.516C67,-220.562 67,-209.05 67,-201.028"/>
<polygon fill="midnightblue" stroke="midnightblue" points="63.5001,-230.822 67,-240.822 70.5001,-230.822 63.5001,-230.822"/>
</g>
<!-- Node6 -->
<g id="node10" class="node"><title>Node6</title>
<a xlink:href="class_kitware_1_1_v_t_k_1_1vtk_object_base.html" target="_top" xlink:title="vtkObjectBase &#45; abstract base class for most VTK objects">
<polygon fill="none" stroke="black" points="87,-681 87,-701 173,-701 173,-681 87,-681"/>
<text text-anchor="middle" x="130" y="-688" font-family="FreeSans" font-size="10.00">vtkObjectBase</text>
</a>
</g>
<!-- Node6&#45;&gt;Node5 -->
<g id="edge10" class="edge"><title>Node6&#45;&gt;Node5</title>
<path fill="none" stroke="midnightblue" d="M101.423,-675.886C87.6866,-667.44 71.8844,-655.826 61,-642 49.1564,-626.955 48.6209,-620.802 45,-602 19.4248,-469.199 54.5766,-303.437 64.5155,-261.17"/>
<polygon fill="midnightblue" stroke="midnightblue" points="99.6834,-678.923 110.079,-680.97 103.229,-672.887 99.6834,-678.923"/>
</g>
<!-- Node9 -->
<g id="node17" class="node"><title>Node9</title>
<a xlink:href="class_kitware_1_1_v_t_k_1_1vtk_object.html" target="_top" xlink:title="vtkObject &#45; abstract base class for most VTK objects">
<polygon fill="none" stroke="black" points="70,-621 70,-641 190,-641 190,-621 70,-621"/>
<text text-anchor="middle" x="130" y="-628" font-family="FreeSans" font-size="10.00">Kitware.VTK.vtkObject</text>
</a>
</g>
<!-- Node6&#45;&gt;Node9 -->
<g id="edge20" class="edge"><title>Node6&#45;&gt;Node9</title>
<path fill="none" stroke="midnightblue" d="M130,-670.516C130,-660.562 130,-649.05 130,-641.028"/>
<polygon fill="midnightblue" stroke="midnightblue" points="126.5,-670.822 130,-680.822 133.5,-670.822 126.5,-670.822"/>
</g>
<!-- Node7 -->
<g id="node12" class="node"><title>Node7</title>
<a xlink:href="class_kitware_1_1_v_t_k_1_1_wrapped_object.html" target="_top" xlink:title="Base class for all the mummy wrapped classes in Kitware.VTK.">
<polygon fill="none" stroke="black" points="268.5,-741 268.5,-761 357.5,-761 357.5,-741 268.5,-741"/>
<text text-anchor="middle" x="313" y="-748" font-family="FreeSans" font-size="10.00">WrappedObject</text>
</a>
</g>
<!-- Node7&#45;&gt;Node6 -->
<g id="edge12" class="edge"><title>Node7&#45;&gt;Node6</title>
<path fill="none" stroke="midnightblue" d="M272.804,-737.821C239.042,-726.752 191.512,-711.168 160.73,-701.075"/>
<polygon fill="midnightblue" stroke="midnightblue" points="271.777,-741.168 282.37,-740.957 273.958,-734.516 271.777,-741.168"/>
</g>
<!-- Node8 -->
<g id="node14" class="node"><title>Node8</title>
<a xlink:href="class_kitware_1_1_v_t_k_1_1vtk_object_event_relay.html" target="_top" xlink:title="Implement a relay handler for VTK events. This is a class that receives events directly from the VTK ...">
<polygon fill="none" stroke="black" points="59,-431 59,-451 231,-451 231,-431 59,-431"/>
<text text-anchor="middle" x="145" y="-438" font-family="FreeSans" font-size="10.00">Kitware.VTK.vtkObjectEventRelay</text>
</a>
</g>
<!-- Node7&#45;&gt;Node8 -->
<g id="edge16" class="edge"><title>Node7&#45;&gt;Node8</title>
<path fill="none" stroke="midnightblue" d="M325.888,-732.325C358.276,-682.899 435.803,-547.191 368,-470 358.773,-459.495 290.047,-451.666 231.298,-446.808"/>
<polygon fill="midnightblue" stroke="midnightblue" points="322.891,-730.509 320.239,-740.767 328.709,-734.402 322.891,-730.509"/>
</g>
<!-- Node8&#45;&gt;Node5 -->
<g id="edge14" class="edge"><title>Node8&#45;&gt;Node5</title>
<path fill="none" stroke="#9a32cd" stroke-dasharray="5,2" d="M136.921,-421.321C120.489,-381.293 83.6738,-291.616 71.2144,-261.266"/>
<polygon fill="#9a32cd" stroke="#9a32cd" points="133.771,-422.863 140.806,-430.785 140.246,-420.205 133.771,-422.863"/>
<text text-anchor="middle" x="244.5" y="-403" font-family="FreeSans" font-size="10.00"> LeftButtonReleaseEvtRelay</text>
<text text-anchor="middle" x="244.5" y="-391" font-family="FreeSans" font-size="10.00">KeyPressEvtRelay</text>
<text text-anchor="middle" x="244.5" y="-379" font-family="FreeSans" font-size="10.00">DomainModifiedEvtRelay</text>
<text text-anchor="middle" x="244.5" y="-367" font-family="FreeSans" font-size="10.00">VolumeMapperComputeGradientsStartEvtRelay</text>
<text text-anchor="middle" x="244.5" y="-355" font-family="FreeSans" font-size="10.00">ErrorEvtRelay</text>
<text text-anchor="middle" x="244.5" y="-343" font-family="FreeSans" font-size="10.00">VolumeMapperRenderStartEvtRelay</text>
<text text-anchor="middle" x="244.5" y="-331" font-family="FreeSans" font-size="10.00">StartEvtRelay</text>
<text text-anchor="middle" x="244.5" y="-319" font-family="FreeSans" font-size="10.00">ResetCameraEvtRelay</text>
<text text-anchor="middle" x="244.5" y="-307" font-family="FreeSans" font-size="10.00">EnableEvtRelay</text>
<text text-anchor="middle" x="244.5" y="-295" font-family="FreeSans" font-size="10.00">DeleteEvtRelay</text>
<text text-anchor="middle" x="244.5" y="-283" font-family="FreeSans" font-size="10.00">...</text>
</g>
<!-- Node8&#45;&gt;Node9 -->
<g id="edge22" class="edge"><title>Node8&#45;&gt;Node9</title>
<path fill="none" stroke="#9a32cd" stroke-dasharray="5,2" d="M142.028,-461.231C141.649,-464.169 141.293,-467.159 141,-470 135.144,-526.853 131.636,-595.333 130.452,-620.807"/>
<polygon fill="#9a32cd" stroke="#9a32cd" points="145.515,-461.565 143.421,-451.179 138.582,-460.604 145.515,-461.565"/>
<text text-anchor="middle" x="254.5" y="-593" font-family="FreeSans" font-size="10.00"> LeftButtonReleaseEvtRelay</text>
<text text-anchor="middle" x="254.5" y="-581" font-family="FreeSans" font-size="10.00">KeyPressEvtRelay</text>
<text text-anchor="middle" x="254.5" y="-569" font-family="FreeSans" font-size="10.00">DomainModifiedEvtRelay</text>
<text text-anchor="middle" x="254.5" y="-557" font-family="FreeSans" font-size="10.00">VolumeMapperComputeGradientsStartEvtRelay</text>
<text text-anchor="middle" x="254.5" y="-545" font-family="FreeSans" font-size="10.00">ErrorEvtRelay</text>
<text text-anchor="middle" x="254.5" y="-533" font-family="FreeSans" font-size="10.00">VolumeMapperRenderStartEvtRelay</text>
<text text-anchor="middle" x="254.5" y="-521" font-family="FreeSans" font-size="10.00">StartEvtRelay</text>
<text text-anchor="middle" x="254.5" y="-509" font-family="FreeSans" font-size="10.00">ResetCameraEvtRelay</text>
<text text-anchor="middle" x="254.5" y="-497" font-family="FreeSans" font-size="10.00">EnableEvtRelay</text>
<text text-anchor="middle" x="254.5" y="-485" font-family="FreeSans" font-size="10.00">DeleteEvtRelay</text>
<text text-anchor="middle" x="254.5" y="-473" font-family="FreeSans" font-size="10.00">...</text>
</g>
<!-- Node9&#45;&gt;Node8 -->
<g id="edge18" class="edge"><title>Node9&#45;&gt;Node8</title>
<path fill="none" stroke="#9a32cd" stroke-dasharray="5,2" d="M83.9794,-615.818C78.4393,-612.138 73.5104,-607.596 70,-602 38.8229,-552.303 36.8299,-518.389 70,-470 74.7359,-463.091 91.5114,-456.287 107.999,-451.008"/>
<polygon fill="#9a32cd" stroke="#9a32cd" points="82.6386,-619.079 93.0724,-620.919 86.0636,-612.974 82.6386,-619.079"/>
<text text-anchor="middle" x="94" y="-539" font-family="FreeSans" font-size="10.00"> Sender</text>
<text text-anchor="middle" x="94" y="-527" font-family="FreeSans" font-size="10.00">EventImpl</text>
</g>
</g>
</svg>
