<?xml version="1.0" encoding="UTF-8" standalone="no"?>
<!DOCTYPE svg PUBLIC "-//W3C//DTD SVG 1.1//EN"
 "http://www.w3.org/Graphics/SVG/1.1/DTD/svg11.dtd">
<!-- Generated by graphviz version 2.26.3 (20100126.1600)
 -->
<!-- Title: G Pages: 1 -->
<svg width="411pt" height="830pt"
 viewBox="0.00 0.00 411.46 830.00" xmlns="http://www.w3.org/2000/svg" xmlns:xlink="http://www.w3.org/1999/xlink">
<g id="graph1" class="graph" transform="scale(1 1) rotate(0) translate(4 826)">
<title>G</title>
<!-- Node1 -->
<g id="node1" class="node"><title>Node1</title>
<polygon fill="#bfbfbf" stroke="black" points="-0.5,-1 -0.5,-21 150.5,-21 150.5,-1 -0.5,-1"/>
<text text-anchor="middle" x="75" y="-8" font-family="FreeSans" font-size="10.00">Kitware.VTK.vtkTreeRingView</text>
</g>
<!-- Node2 -->
<g id="node2" class="node"><title>Node2</title>
<a xlink:href="class_kitware_1_1_v_t_k_1_1vtk_tree_area_view.html" target="_top" xlink:title="vtkTreeAreaView &#45; Accepts a graph and a hierarchy &#45; currently a tree &#45; and provides a hierarchy&#45;aware...">
<polygon fill="none" stroke="black" points="27.5,-61 27.5,-81 122.5,-81 122.5,-61 27.5,-61"/>
<text text-anchor="middle" x="75" y="-68" font-family="FreeSans" font-size="10.00">vtkTreeAreaView</text>
</a>
</g>
<!-- Node2&#45;&gt;Node1 -->
<g id="edge2" class="edge"><title>Node2&#45;&gt;Node1</title>
<path fill="none" stroke="midnightblue" d="M75,-50.5155C75,-40.562 75,-29.0495 75,-21.0279"/>
<polygon fill="midnightblue" stroke="midnightblue" points="71.5001,-50.8218 75,-60.8218 78.5001,-50.8219 71.5001,-50.8218"/>
</g>
<!-- Node3 -->
<g id="node4" class="node"><title>Node3</title>
<a xlink:href="class_kitware_1_1_v_t_k_1_1vtk_render_view.html" target="_top" xlink:title="vtkRenderView &#45; A view containing a renderer.">
<polygon fill="none" stroke="black" points="32,-121 32,-141 118,-141 118,-121 32,-121"/>
<text text-anchor="middle" x="75" y="-128" font-family="FreeSans" font-size="10.00">vtkRenderView</text>
</a>
</g>
<!-- Node3&#45;&gt;Node2 -->
<g id="edge4" class="edge"><title>Node3&#45;&gt;Node2</title>
<path fill="none" stroke="midnightblue" d="M75,-110.516C75,-100.562 75,-89.0495 75,-81.0279"/>
<polygon fill="midnightblue" stroke="midnightblue" points="71.5001,-110.822 75,-120.822 78.5001,-110.822 71.5001,-110.822"/>
</g>
<!-- Node4 -->
<g id="node6" class="node"><title>Node4</title>
<a xlink:href="class_kitware_1_1_v_t_k_1_1vtk_render_view_base.html" target="_top" xlink:title="vtkRenderViewBase &#45; A base view containing a renderer.">
<polygon fill="none" stroke="black" points="20,-181 20,-201 130,-201 130,-181 20,-181"/>
<text text-anchor="middle" x="75" y="-188" font-family="FreeSans" font-size="10.00">vtkRenderViewBase</text>
</a>
</g>
<!-- Node4&#45;&gt;Node3 -->
<g id="edge6" class="edge"><title>Node4&#45;&gt;Node3</title>
<path fill="none" stroke="midnightblue" d="M75,-170.516C75,-160.562 75,-149.05 75,-141.028"/>
<polygon fill="midnightblue" stroke="midnightblue" points="71.5001,-170.822 75,-180.822 78.5001,-170.822 71.5001,-170.822"/>
</g>
<!-- Node5 -->
<g id="node8" class="node"><title>Node5</title>
<a xlink:href="class_kitware_1_1_v_t_k_1_1vtk_view.html" target="_top" xlink:title="vtkView &#45; The superclass for all views.">
<polygon fill="none" stroke="black" points="48.5,-241 48.5,-261 101.5,-261 101.5,-241 48.5,-241"/>
<text text-anchor="middle" x="75" y="-248" font-family="FreeSans" font-size="10.00">vtkView</text>
</a>
</g>
<!-- Node5&#45;&gt;Node4 -->
<g id="edge8" class="edge"><title>Node5&#45;&gt;Node4</title>
<path fill="none" stroke="midnightblue" d="M75,-230.516C75,-220.562 75,-209.05 75,-201.028"/>
<polygon fill="midnightblue" stroke="midnightblue" points="71.5001,-230.822 75,-240.822 78.5001,-230.822 71.5001,-230.822"/>
</g>
<!-- Node6 -->
<g id="node10" class="node"><title>Node6</title>
<a xlink:href="class_kitware_1_1_v_t_k_1_1vtk_object.html" target="_top" xlink:title="vtkObject &#45; abstract base class for most VTK objects">
<polygon fill="none" stroke="black" points="44,-301 44,-321 106,-321 106,-301 44,-301"/>
<text text-anchor="middle" x="75" y="-308" font-family="FreeSans" font-size="10.00">vtkObject</text>
</a>
</g>
<!-- Node6&#45;&gt;Node5 -->
<g id="edge10" class="edge"><title>Node6&#45;&gt;Node5</title>
<path fill="none" stroke="midnightblue" d="M75,-290.516C75,-280.562 75,-269.05 75,-261.028"/>
<polygon fill="midnightblue" stroke="midnightblue" points="71.5001,-290.822 75,-300.822 78.5001,-290.822 71.5001,-290.822"/>
</g>
<!-- Node7 -->
<g id="node12" class="node"><title>Node7</title>
<a xlink:href="class_kitware_1_1_v_t_k_1_1vtk_object_base.html" target="_top" xlink:title="vtkObjectBase &#45; abstract base class for most VTK objects">
<polygon fill="none" stroke="black" points="95,-741 95,-761 181,-761 181,-741 95,-741"/>
<text text-anchor="middle" x="138" y="-748" font-family="FreeSans" font-size="10.00">vtkObjectBase</text>
</a>
</g>
<!-- Node7&#45;&gt;Node6 -->
<g id="edge12" class="edge"><title>Node7&#45;&gt;Node6</title>
<path fill="none" stroke="midnightblue" d="M109.423,-735.886C95.6866,-727.44 79.8844,-715.826 69,-702 57.1564,-686.955 56.6209,-680.802 53,-662 27.4248,-529.199 62.5766,-363.437 72.5155,-321.17"/>
<polygon fill="midnightblue" stroke="midnightblue" points="107.683,-738.923 118.079,-740.97 111.229,-732.887 107.683,-738.923"/>
</g>
<!-- Node10 -->
<g id="node19" class="node"><title>Node10</title>
<a xlink:href="class_kitware_1_1_v_t_k_1_1vtk_object.html" target="_top" xlink:title="vtkObject &#45; abstract base class for most VTK objects">
<polygon fill="none" stroke="black" points="78,-681 78,-701 198,-701 198,-681 78,-681"/>
<text text-anchor="middle" x="138" y="-688" font-family="FreeSans" font-size="10.00">Kitware.VTK.vtkObject</text>
</a>
</g>
<!-- Node7&#45;&gt;Node10 -->
<g id="edge22" class="edge"><title>Node7&#45;&gt;Node10</title>
<path fill="none" stroke="midnightblue" d="M138,-730.516C138,-720.562 138,-709.05 138,-701.028"/>
<polygon fill="midnightblue" stroke="midnightblue" points="134.5,-730.822 138,-740.822 141.5,-730.822 134.5,-730.822"/>
</g>
<!-- Node8 -->
<g id="node14" class="node"><title>Node8</title>
<a xlink:href="class_kitware_1_1_v_t_k_1_1_wrapped_object.html" target="_top" xlink:title="Base class for all the mummy wrapped classes in Kitware.VTK.">
<polygon fill="none" stroke="black" points="276.5,-801 276.5,-821 365.5,-821 365.5,-801 276.5,-801"/>
<text text-anchor="middle" x="321" y="-808" font-family="FreeSans" font-size="10.00">WrappedObject</text>
</a>
</g>
<!-- Node8&#45;&gt;Node7 -->
<g id="edge14" class="edge"><title>Node8&#45;&gt;Node7</title>
<path fill="none" stroke="midnightblue" d="M280.804,-797.821C247.042,-786.752 199.512,-771.168 168.73,-761.075"/>
<polygon fill="midnightblue" stroke="midnightblue" points="279.777,-801.168 290.37,-800.957 281.958,-794.516 279.777,-801.168"/>
</g>
<!-- Node9 -->
<g id="node16" class="node"><title>Node9</title>
<a xlink:href="class_kitware_1_1_v_t_k_1_1vtk_object_event_relay.html" target="_top" xlink:title="Implement a relay handler for VTK events. This is a class that receives events directly from the VTK ...">
<polygon fill="none" stroke="black" points="67,-491 67,-511 239,-511 239,-491 67,-491"/>
<text text-anchor="middle" x="153" y="-498" font-family="FreeSans" font-size="10.00">Kitware.VTK.vtkObjectEventRelay</text>
</a>
</g>
<!-- Node8&#45;&gt;Node9 -->
<g id="edge18" class="edge"><title>Node8&#45;&gt;Node9</title>
<path fill="none" stroke="midnightblue" d="M333.888,-792.325C366.276,-742.899 443.803,-607.191 376,-530 366.773,-519.495 298.047,-511.666 239.298,-506.808"/>
<polygon fill="midnightblue" stroke="midnightblue" points="330.891,-790.509 328.239,-800.767 336.709,-794.402 330.891,-790.509"/>
</g>
<!-- Node9&#45;&gt;Node6 -->
<g id="edge16" class="edge"><title>Node9&#45;&gt;Node6</title>
<path fill="none" stroke="#9a32cd" stroke-dasharray="5,2" d="M144.921,-481.321C128.489,-441.293 91.6738,-351.616 79.2144,-321.266"/>
<polygon fill="#9a32cd" stroke="#9a32cd" points="141.771,-482.863 148.806,-490.785 148.246,-480.205 141.771,-482.863"/>
<text text-anchor="middle" x="252.5" y="-463" font-family="FreeSans" font-size="10.00"> LeftButtonReleaseEvtRelay</text>
<text text-anchor="middle" x="252.5" y="-451" font-family="FreeSans" font-size="10.00">KeyPressEvtRelay</text>
<text text-anchor="middle" x="252.5" y="-439" font-family="FreeSans" font-size="10.00">DomainModifiedEvtRelay</text>
<text text-anchor="middle" x="252.5" y="-427" font-family="FreeSans" font-size="10.00">VolumeMapperComputeGradientsStartEvtRelay</text>
<text text-anchor="middle" x="252.5" y="-415" font-family="FreeSans" font-size="10.00">ErrorEvtRelay</text>
<text text-anchor="middle" x="252.5" y="-403" font-family="FreeSans" font-size="10.00">VolumeMapperRenderStartEvtRelay</text>
<text text-anchor="middle" x="252.5" y="-391" font-family="FreeSans" font-size="10.00">StartEvtRelay</text>
<text text-anchor="middle" x="252.5" y="-379" font-family="FreeSans" font-size="10.00">ResetCameraEvtRelay</text>
<text text-anchor="middle" x="252.5" y="-367" font-family="FreeSans" font-size="10.00">EnableEvtRelay</text>
<text text-anchor="middle" x="252.5" y="-355" font-family="FreeSans" font-size="10.00">DeleteEvtRelay</text>
<text text-anchor="middle" x="252.5" y="-343" font-family="FreeSans" font-size="10.00">...</text>
</g>
<!-- Node9&#45;&gt;Node10 -->
<g id="edge24" class="edge"><title>Node9&#45;&gt;Node10</title>
<path fill="none" stroke="#9a32cd" stroke-dasharray="5,2" d="M150.028,-521.231C149.649,-524.169 149.293,-527.159 149,-530 143.144,-586.853 139.636,-655.333 138.452,-680.807"/>
<polygon fill="#9a32cd" stroke="#9a32cd" points="153.515,-521.565 151.421,-511.179 146.582,-520.604 153.515,-521.565"/>
<text text-anchor="middle" x="262.5" y="-653" font-family="FreeSans" font-size="10.00"> LeftButtonReleaseEvtRelay</text>
<text text-anchor="middle" x="262.5" y="-641" font-family="FreeSans" font-size="10.00">KeyPressEvtRelay</text>
<text text-anchor="middle" x="262.5" y="-629" font-family="FreeSans" font-size="10.00">DomainModifiedEvtRelay</text>
<text text-anchor="middle" x="262.5" y="-617" font-family="FreeSans" font-size="10.00">VolumeMapperComputeGradientsStartEvtRelay</text>
<text text-anchor="middle" x="262.5" y="-605" font-family="FreeSans" font-size="10.00">ErrorEvtRelay</text>
<text text-anchor="middle" x="262.5" y="-593" font-family="FreeSans" font-size="10.00">VolumeMapperRenderStartEvtRelay</text>
<text text-anchor="middle" x="262.5" y="-581" font-family="FreeSans" font-size="10.00">StartEvtRelay</text>
<text text-anchor="middle" x="262.5" y="-569" font-family="FreeSans" font-size="10.00">ResetCameraEvtRelay</text>
<text text-anchor="middle" x="262.5" y="-557" font-family="FreeSans" font-size="10.00">EnableEvtRelay</text>
<text text-anchor="middle" x="262.5" y="-545" font-family="FreeSans" font-size="10.00">DeleteEvtRelay</text>
<text text-anchor="middle" x="262.5" y="-533" font-family="FreeSans" font-size="10.00">...</text>
</g>
<!-- Node10&#45;&gt;Node9 -->
<g id="edge20" class="edge"><title>Node10&#45;&gt;Node9</title>
<path fill="none" stroke="#9a32cd" stroke-dasharray="5,2" d="M91.9794,-675.818C86.4393,-672.138 81.5104,-667.596 78,-662 46.8229,-612.303 44.8299,-578.389 78,-530 82.7359,-523.091 99.5114,-516.287 115.999,-511.008"/>
<polygon fill="#9a32cd" stroke="#9a32cd" points="90.6386,-679.079 101.072,-680.919 94.0636,-672.974 90.6386,-679.079"/>
<text text-anchor="middle" x="102" y="-599" font-family="FreeSans" font-size="10.00"> Sender</text>
<text text-anchor="middle" x="102" y="-587" font-family="FreeSans" font-size="10.00">EventImpl</text>
</g>
</g>
</svg>
