<?xml version="1.0" encoding="UTF-8" standalone="no"?>
<!DOCTYPE svg PUBLIC "-//W3C//DTD SVG 1.1//EN"
 "http://www.w3.org/Graphics/SVG/1.1/DTD/svg11.dtd">
<!-- Generated by graphviz version 2.26.3 (20100126.1600)
 -->
<!-- Title: G Pages: 1 -->
<svg width="358pt" height="262pt"
 viewBox="0.00 0.00 358.00 262.00" xmlns="http://www.w3.org/2000/svg" xmlns:xlink="http://www.w3.org/1999/xlink">
<g id="graph1" class="graph" transform="scale(1 1) rotate(0) translate(4 258)">
<title>G</title>
<!-- Node1 -->
<g id="node1" class="node"><title>Node1</title>
<polygon fill="#bfbfbf" stroke="black" points="111,-59 111,-79 255,-79 255,-59 111,-59"/>
<text text-anchor="middle" x="183" y="-66" font-family="FreeSans" font-size="10.00">Kitware.VTK.vtkGPUInfoList</text>
</g>
<!-- Node5 -->
<g id="node9" class="node"><title>Node5</title>
<a xlink:href="class_kitware_1_1_v_t_k_1_1vtk_dummy_g_p_u_info_list.html" target="_top" xlink:title="vtkDummyGPUInfoList &#45; Do thing during Probe()">
<polygon fill="none" stroke="black" points="0,-1 0,-21 182,-21 182,-1 0,-1"/>
<text text-anchor="middle" x="91" y="-8" font-family="FreeSans" font-size="10.00">Kitware.VTK.vtkDummyGPUInfoList</text>
</a>
</g>
<!-- Node1&#45;&gt;Node5 -->
<g id="edge8" class="edge"><title>Node1&#45;&gt;Node5</title>
<path fill="none" stroke="midnightblue" d="M158.489,-53.5474C142.23,-43.2969 121.35,-30.1339 107.15,-21.1817"/>
<polygon fill="midnightblue" stroke="midnightblue" points="156.649,-56.5249 166.975,-58.8972 160.382,-50.6034 156.649,-56.5249"/>
</g>
<!-- Node6 -->
<g id="node11" class="node"><title>Node6</title>
<a xlink:href="class_kitware_1_1_v_t_k_1_1vtk_x_g_p_u_info_list.html" target="_top" xlink:title="vtkXGPUInfoList &#45; Get GPUs VRAM information using X server extensions.">
<polygon fill="none" stroke="black" points="200,-1 200,-21 350,-21 350,-1 200,-1"/>
<text text-anchor="middle" x="275" y="-8" font-family="FreeSans" font-size="10.00">Kitware.VTK.vtkXGPUInfoList</text>
</a>
</g>
<!-- Node1&#45;&gt;Node6 -->
<g id="edge10" class="edge"><title>Node1&#45;&gt;Node6</title>
<path fill="none" stroke="midnightblue" d="M207.511,-53.5474C223.77,-43.2969 244.65,-30.1339 258.85,-21.1817"/>
<polygon fill="midnightblue" stroke="midnightblue" points="205.618,-50.6034 199.025,-58.8972 209.351,-56.5249 205.618,-50.6034"/>
</g>
<!-- Node2 -->
<g id="node2" class="node"><title>Node2</title>
<a xlink:href="class_kitware_1_1_v_t_k_1_1vtk_object.html" target="_top" xlink:title="vtkObject &#45; abstract base class for most VTK objects">
<polygon fill="none" stroke="black" points="152,-117 152,-137 214,-137 214,-117 152,-117"/>
<text text-anchor="middle" x="183" y="-124" font-family="FreeSans" font-size="10.00">vtkObject</text>
</a>
</g>
<!-- Node2&#45;&gt;Node1 -->
<g id="edge2" class="edge"><title>Node2&#45;&gt;Node1</title>
<path fill="none" stroke="midnightblue" d="M183,-106.89C183,-97.6201 183,-87.0083 183,-79.3776"/>
<polygon fill="midnightblue" stroke="midnightblue" points="179.5,-106.897 183,-116.897 186.5,-106.897 179.5,-106.897"/>
</g>
<!-- Node3 -->
<g id="node4" class="node"><title>Node3</title>
<a xlink:href="class_kitware_1_1_v_t_k_1_1vtk_object_base.html" target="_top" xlink:title="vtkObjectBase &#45; abstract base class for most VTK objects">
<polygon fill="none" stroke="black" points="140,-175 140,-195 226,-195 226,-175 140,-175"/>
<text text-anchor="middle" x="183" y="-182" font-family="FreeSans" font-size="10.00">vtkObjectBase</text>
</a>
</g>
<!-- Node3&#45;&gt;Node2 -->
<g id="edge4" class="edge"><title>Node3&#45;&gt;Node2</title>
<path fill="none" stroke="midnightblue" d="M183,-164.89C183,-155.62 183,-145.008 183,-137.378"/>
<polygon fill="midnightblue" stroke="midnightblue" points="179.5,-164.897 183,-174.897 186.5,-164.897 179.5,-164.897"/>
</g>
<!-- Node4 -->
<g id="node6" class="node"><title>Node4</title>
<a xlink:href="class_kitware_1_1_v_t_k_1_1_wrapped_object.html" target="_top" xlink:title="Base class for all the mummy wrapped classes in Kitware.VTK.">
<polygon fill="none" stroke="black" points="138.5,-233 138.5,-253 227.5,-253 227.5,-233 138.5,-233"/>
<text text-anchor="middle" x="183" y="-240" font-family="FreeSans" font-size="10.00">WrappedObject</text>
</a>
</g>
<!-- Node4&#45;&gt;Node3 -->
<g id="edge6" class="edge"><title>Node4&#45;&gt;Node3</title>
<path fill="none" stroke="midnightblue" d="M183,-222.89C183,-213.62 183,-203.008 183,-195.378"/>
<polygon fill="midnightblue" stroke="midnightblue" points="179.5,-222.897 183,-232.897 186.5,-222.897 179.5,-222.897"/>
</g>
</g>
</svg>
