<?xml version="1.0" encoding="UTF-8" standalone="no"?>
<!DOCTYPE svg PUBLIC "-//W3C//DTD SVG 1.1//EN"
 "http://www.w3.org/Graphics/SVG/1.1/DTD/svg11.dtd">
<!-- Generated by graphviz version 2.26.3 (20100126.1600)
 -->
<!-- Title: G Pages: 1 -->
<svg width="146pt" height="378pt"
 viewBox="0.00 0.00 146.00 378.00" xmlns="http://www.w3.org/2000/svg" xmlns:xlink="http://www.w3.org/1999/xlink">
<g id="graph1" class="graph" transform="scale(1 1) rotate(0) translate(4 374)">
<title>G</title>
<!-- Node1 -->
<g id="node1" class="node"><title>Node1</title>
<polygon fill="#bfbfbf" stroke="black" points="0,-1 0,-21 138,-21 138,-1 0,-1"/>
<text text-anchor="middle" x="69" y="-8" font-family="FreeSans" font-size="10.00">Kitware.VTK.vtkJPEGWriter</text>
</g>
<!-- Node2 -->
<g id="node2" class="node"><title>Node2</title>
<a xlink:href="class_kitware_1_1_v_t_k_1_1vtk_image_writer.html" target="_top" xlink:title="vtkImageWriter &#45; Writes images to files.">
<polygon fill="none" stroke="black" points="25,-59 25,-79 113,-79 113,-59 25,-59"/>
<text text-anchor="middle" x="69" y="-66" font-family="FreeSans" font-size="10.00">vtkImageWriter</text>
</a>
</g>
<!-- Node2&#45;&gt;Node1 -->
<g id="edge2" class="edge"><title>Node2&#45;&gt;Node1</title>
<path fill="none" stroke="midnightblue" d="M69,-48.8902C69,-39.6201 69,-29.0083 69,-21.3776"/>
<polygon fill="midnightblue" stroke="midnightblue" points="65.5001,-48.8971 69,-58.8972 72.5001,-48.8972 65.5001,-48.8971"/>
</g>
<!-- Node3 -->
<g id="node4" class="node"><title>Node3</title>
<a xlink:href="class_kitware_1_1_v_t_k_1_1vtk_image_algorithm.html" target="_top" xlink:title="vtkImageAlgorithm &#45; Generic algorithm superclass for image algs">
<polygon fill="none" stroke="black" points="15.5,-117 15.5,-137 122.5,-137 122.5,-117 15.5,-117"/>
<text text-anchor="middle" x="69" y="-124" font-family="FreeSans" font-size="10.00">vtkImageAlgorithm</text>
</a>
</g>
<!-- Node3&#45;&gt;Node2 -->
<g id="edge4" class="edge"><title>Node3&#45;&gt;Node2</title>
<path fill="none" stroke="midnightblue" d="M69,-106.89C69,-97.6201 69,-87.0083 69,-79.3776"/>
<polygon fill="midnightblue" stroke="midnightblue" points="65.5001,-106.897 69,-116.897 72.5001,-106.897 65.5001,-106.897"/>
</g>
<!-- Node4 -->
<g id="node6" class="node"><title>Node4</title>
<a xlink:href="class_kitware_1_1_v_t_k_1_1vtk_algorithm.html" target="_top" xlink:title="vtkAlgorithm &#45; Superclass for all sources, filters, and sinks in VTK.">
<polygon fill="none" stroke="black" points="30.5,-175 30.5,-195 107.5,-195 107.5,-175 30.5,-175"/>
<text text-anchor="middle" x="69" y="-182" font-family="FreeSans" font-size="10.00">vtkAlgorithm</text>
</a>
</g>
<!-- Node4&#45;&gt;Node3 -->
<g id="edge6" class="edge"><title>Node4&#45;&gt;Node3</title>
<path fill="none" stroke="midnightblue" d="M69,-164.89C69,-155.62 69,-145.008 69,-137.378"/>
<polygon fill="midnightblue" stroke="midnightblue" points="65.5001,-164.897 69,-174.897 72.5001,-164.897 65.5001,-164.897"/>
</g>
<!-- Node5 -->
<g id="node8" class="node"><title>Node5</title>
<a xlink:href="class_kitware_1_1_v_t_k_1_1vtk_object.html" target="_top" xlink:title="vtkObject &#45; abstract base class for most VTK objects">
<polygon fill="none" stroke="black" points="38,-233 38,-253 100,-253 100,-233 38,-233"/>
<text text-anchor="middle" x="69" y="-240" font-family="FreeSans" font-size="10.00">vtkObject</text>
</a>
</g>
<!-- Node5&#45;&gt;Node4 -->
<g id="edge8" class="edge"><title>Node5&#45;&gt;Node4</title>
<path fill="none" stroke="midnightblue" d="M69,-222.89C69,-213.62 69,-203.008 69,-195.378"/>
<polygon fill="midnightblue" stroke="midnightblue" points="65.5001,-222.897 69,-232.897 72.5001,-222.897 65.5001,-222.897"/>
</g>
<!-- Node6 -->
<g id="node10" class="node"><title>Node6</title>
<a xlink:href="class_kitware_1_1_v_t_k_1_1vtk_object_base.html" target="_top" xlink:title="vtkObjectBase &#45; abstract base class for most VTK objects">
<polygon fill="none" stroke="black" points="26,-291 26,-311 112,-311 112,-291 26,-291"/>
<text text-anchor="middle" x="69" y="-298" font-family="FreeSans" font-size="10.00">vtkObjectBase</text>
</a>
</g>
<!-- Node6&#45;&gt;Node5 -->
<g id="edge10" class="edge"><title>Node6&#45;&gt;Node5</title>
<path fill="none" stroke="midnightblue" d="M69,-280.89C69,-271.62 69,-261.008 69,-253.378"/>
<polygon fill="midnightblue" stroke="midnightblue" points="65.5001,-280.897 69,-290.897 72.5001,-280.897 65.5001,-280.897"/>
</g>
<!-- Node7 -->
<g id="node12" class="node"><title>Node7</title>
<a xlink:href="class_kitware_1_1_v_t_k_1_1_wrapped_object.html" target="_top" xlink:title="Base class for all the mummy wrapped classes in Kitware.VTK.">
<polygon fill="none" stroke="black" points="24.5,-349 24.5,-369 113.5,-369 113.5,-349 24.5,-349"/>
<text text-anchor="middle" x="69" y="-356" font-family="FreeSans" font-size="10.00">WrappedObject</text>
</a>
</g>
<!-- Node7&#45;&gt;Node6 -->
<g id="edge12" class="edge"><title>Node7&#45;&gt;Node6</title>
<path fill="none" stroke="midnightblue" d="M69,-338.89C69,-329.62 69,-319.008 69,-311.378"/>
<polygon fill="midnightblue" stroke="midnightblue" points="65.5001,-338.897 69,-348.897 72.5001,-338.897 65.5001,-338.897"/>
</g>
</g>
</svg>
