<?xml version="1.0" encoding="UTF-8" standalone="no"?>
<!DOCTYPE svg PUBLIC "-//W3C//DTD SVG 1.1//EN"
 "http://www.w3.org/Graphics/SVG/1.1/DTD/svg11.dtd">
<!-- Generated by graphviz version 2.26.3 (20100126.1600)
 -->
<!-- Title: G Pages: 1 -->
<svg width="268pt" height="320pt"
 viewBox="0.00 0.00 268.00 320.00" xmlns="http://www.w3.org/2000/svg" xmlns:xlink="http://www.w3.org/1999/xlink">
<g id="graph1" class="graph" transform="scale(1 1) rotate(0) translate(4 316)">
<title>G</title>
<!-- Node1 -->
<g id="node1" class="node"><title>Node1</title>
<polygon fill="#bfbfbf" stroke="black" points="0,-1 0,-21 260,-21 260,-1 0,-1"/>
<text text-anchor="middle" x="130" y="-8" font-family="FreeSans" font-size="10.00">Kitware.VTK.vtkBoostKruskalMinimumSpanningTree</text>
</g>
<!-- Node2 -->
<g id="node2" class="node"><title>Node2</title>
<a xlink:href="class_kitware_1_1_v_t_k_1_1vtk_selection_algorithm.html" target="_top" xlink:title="vtkSelectionAlgorithm &#45; Superclass for algorithms that produce only Selection as output">
<polygon fill="none" stroke="black" points="69,-59 69,-79 191,-79 191,-59 69,-59"/>
<text text-anchor="middle" x="130" y="-66" font-family="FreeSans" font-size="10.00">vtkSelectionAlgorithm</text>
</a>
</g>
<!-- Node2&#45;&gt;Node1 -->
<g id="edge2" class="edge"><title>Node2&#45;&gt;Node1</title>
<path fill="none" stroke="midnightblue" d="M130,-48.8902C130,-39.6201 130,-29.0083 130,-21.3776"/>
<polygon fill="midnightblue" stroke="midnightblue" points="126.5,-48.8971 130,-58.8972 133.5,-48.8972 126.5,-48.8971"/>
</g>
<!-- Node3 -->
<g id="node4" class="node"><title>Node3</title>
<a xlink:href="class_kitware_1_1_v_t_k_1_1vtk_algorithm.html" target="_top" xlink:title="vtkAlgorithm &#45; Superclass for all sources, filters, and sinks in VTK.">
<polygon fill="none" stroke="black" points="91.5,-117 91.5,-137 168.5,-137 168.5,-117 91.5,-117"/>
<text text-anchor="middle" x="130" y="-124" font-family="FreeSans" font-size="10.00">vtkAlgorithm</text>
</a>
</g>
<!-- Node3&#45;&gt;Node2 -->
<g id="edge4" class="edge"><title>Node3&#45;&gt;Node2</title>
<path fill="none" stroke="midnightblue" d="M130,-106.89C130,-97.6201 130,-87.0083 130,-79.3776"/>
<polygon fill="midnightblue" stroke="midnightblue" points="126.5,-106.897 130,-116.897 133.5,-106.897 126.5,-106.897"/>
</g>
<!-- Node4 -->
<g id="node6" class="node"><title>Node4</title>
<a xlink:href="class_kitware_1_1_v_t_k_1_1vtk_object.html" target="_top" xlink:title="vtkObject &#45; abstract base class for most VTK objects">
<polygon fill="none" stroke="black" points="99,-175 99,-195 161,-195 161,-175 99,-175"/>
<text text-anchor="middle" x="130" y="-182" font-family="FreeSans" font-size="10.00">vtkObject</text>
</a>
</g>
<!-- Node4&#45;&gt;Node3 -->
<g id="edge6" class="edge"><title>Node4&#45;&gt;Node3</title>
<path fill="none" stroke="midnightblue" d="M130,-164.89C130,-155.62 130,-145.008 130,-137.378"/>
<polygon fill="midnightblue" stroke="midnightblue" points="126.5,-164.897 130,-174.897 133.5,-164.897 126.5,-164.897"/>
</g>
<!-- Node5 -->
<g id="node8" class="node"><title>Node5</title>
<a xlink:href="class_kitware_1_1_v_t_k_1_1vtk_object_base.html" target="_top" xlink:title="vtkObjectBase &#45; abstract base class for most VTK objects">
<polygon fill="none" stroke="black" points="87,-233 87,-253 173,-253 173,-233 87,-233"/>
<text text-anchor="middle" x="130" y="-240" font-family="FreeSans" font-size="10.00">vtkObjectBase</text>
</a>
</g>
<!-- Node5&#45;&gt;Node4 -->
<g id="edge8" class="edge"><title>Node5&#45;&gt;Node4</title>
<path fill="none" stroke="midnightblue" d="M130,-222.89C130,-213.62 130,-203.008 130,-195.378"/>
<polygon fill="midnightblue" stroke="midnightblue" points="126.5,-222.897 130,-232.897 133.5,-222.897 126.5,-222.897"/>
</g>
<!-- Node6 -->
<g id="node10" class="node"><title>Node6</title>
<a xlink:href="class_kitware_1_1_v_t_k_1_1_wrapped_object.html" target="_top" xlink:title="Base class for all the mummy wrapped classes in Kitware.VTK.">
<polygon fill="none" stroke="black" points="85.5,-291 85.5,-311 174.5,-311 174.5,-291 85.5,-291"/>
<text text-anchor="middle" x="130" y="-298" font-family="FreeSans" font-size="10.00">WrappedObject</text>
</a>
</g>
<!-- Node6&#45;&gt;Node5 -->
<g id="edge10" class="edge"><title>Node6&#45;&gt;Node5</title>
<path fill="none" stroke="midnightblue" d="M130,-280.89C130,-271.62 130,-261.008 130,-253.378"/>
<polygon fill="midnightblue" stroke="midnightblue" points="126.5,-280.897 130,-290.897 133.5,-280.897 126.5,-280.897"/>
</g>
</g>
</svg>
