<?xml version="1.0" encoding="UTF-8" standalone="no"?>
<!DOCTYPE svg PUBLIC "-//W3C//DTD SVG 1.1//EN"
 "http://www.w3.org/Graphics/SVG/1.1/DTD/svg11.dtd">
<!-- Generated by graphviz version 2.26.3 (20100126.1600)
 -->
<!-- Title: G Pages: 1 -->
<svg width="412pt" height="830pt"
 viewBox="0.00 0.00 412.46 830.00" xmlns="http://www.w3.org/2000/svg" xmlns:xlink="http://www.w3.org/1999/xlink">
<g id="graph1" class="graph" transform="scale(1 1) rotate(0) translate(4 826)">
<title>G</title>
<!-- Node1 -->
<g id="node1" class="node"><title>Node1</title>
<polygon fill="#bfbfbf" stroke="black" points="8.5,-1 8.5,-21 143.5,-21 143.5,-1 8.5,-1"/>
<text text-anchor="middle" x="76" y="-8" font-family="FreeSans" font-size="10.00">Kitware.VTK.vtkImageFlip</text>
</g>
<!-- Node2 -->
<g id="node2" class="node"><title>Node2</title>
<a xlink:href="class_kitware_1_1_v_t_k_1_1vtk_image_reslice.html" target="_top" xlink:title="vtkImageReslice &#45; Reslices a volume along a new set of axes.">
<polygon fill="none" stroke="black" points="29.5,-61 29.5,-81 122.5,-81 122.5,-61 29.5,-61"/>
<text text-anchor="middle" x="76" y="-68" font-family="FreeSans" font-size="10.00">vtkImageReslice</text>
</a>
</g>
<!-- Node2&#45;&gt;Node1 -->
<g id="edge2" class="edge"><title>Node2&#45;&gt;Node1</title>
<path fill="none" stroke="midnightblue" d="M76,-50.5155C76,-40.562 76,-29.0495 76,-21.0279"/>
<polygon fill="midnightblue" stroke="midnightblue" points="72.5001,-50.8218 76,-60.8218 79.5001,-50.8219 72.5001,-50.8218"/>
</g>
<!-- Node3 -->
<g id="node4" class="node"><title>Node3</title>
<a xlink:href="class_kitware_1_1_v_t_k_1_1vtk_threaded_image_algorithm.html" target="_top" xlink:title="vtkThreadedImageAlgorithm &#45; Generic filter that has one input..">
<polygon fill="none" stroke="black" points="0,-121 0,-141 152,-141 152,-121 0,-121"/>
<text text-anchor="middle" x="76" y="-128" font-family="FreeSans" font-size="10.00">vtkThreadedImageAlgorithm</text>
</a>
</g>
<!-- Node3&#45;&gt;Node2 -->
<g id="edge4" class="edge"><title>Node3&#45;&gt;Node2</title>
<path fill="none" stroke="midnightblue" d="M76,-110.516C76,-100.562 76,-89.0495 76,-81.0279"/>
<polygon fill="midnightblue" stroke="midnightblue" points="72.5001,-110.822 76,-120.822 79.5001,-110.822 72.5001,-110.822"/>
</g>
<!-- Node4 -->
<g id="node6" class="node"><title>Node4</title>
<a xlink:href="class_kitware_1_1_v_t_k_1_1vtk_image_algorithm.html" target="_top" xlink:title="vtkImageAlgorithm &#45; Generic algorithm superclass for image algs">
<polygon fill="none" stroke="black" points="22.5,-181 22.5,-201 129.5,-201 129.5,-181 22.5,-181"/>
<text text-anchor="middle" x="76" y="-188" font-family="FreeSans" font-size="10.00">vtkImageAlgorithm</text>
</a>
</g>
<!-- Node4&#45;&gt;Node3 -->
<g id="edge6" class="edge"><title>Node4&#45;&gt;Node3</title>
<path fill="none" stroke="midnightblue" d="M76,-170.516C76,-160.562 76,-149.05 76,-141.028"/>
<polygon fill="midnightblue" stroke="midnightblue" points="72.5001,-170.822 76,-180.822 79.5001,-170.822 72.5001,-170.822"/>
</g>
<!-- Node5 -->
<g id="node8" class="node"><title>Node5</title>
<a xlink:href="class_kitware_1_1_v_t_k_1_1vtk_algorithm.html" target="_top" xlink:title="vtkAlgorithm &#45; Superclass for all sources, filters, and sinks in VTK.">
<polygon fill="none" stroke="black" points="37.5,-241 37.5,-261 114.5,-261 114.5,-241 37.5,-241"/>
<text text-anchor="middle" x="76" y="-248" font-family="FreeSans" font-size="10.00">vtkAlgorithm</text>
</a>
</g>
<!-- Node5&#45;&gt;Node4 -->
<g id="edge8" class="edge"><title>Node5&#45;&gt;Node4</title>
<path fill="none" stroke="midnightblue" d="M76,-230.516C76,-220.562 76,-209.05 76,-201.028"/>
<polygon fill="midnightblue" stroke="midnightblue" points="72.5001,-230.822 76,-240.822 79.5001,-230.822 72.5001,-230.822"/>
</g>
<!-- Node6 -->
<g id="node10" class="node"><title>Node6</title>
<a xlink:href="class_kitware_1_1_v_t_k_1_1vtk_object.html" target="_top" xlink:title="vtkObject &#45; abstract base class for most VTK objects">
<polygon fill="none" stroke="black" points="45,-301 45,-321 107,-321 107,-301 45,-301"/>
<text text-anchor="middle" x="76" y="-308" font-family="FreeSans" font-size="10.00">vtkObject</text>
</a>
</g>
<!-- Node6&#45;&gt;Node5 -->
<g id="edge10" class="edge"><title>Node6&#45;&gt;Node5</title>
<path fill="none" stroke="midnightblue" d="M76,-290.516C76,-280.562 76,-269.05 76,-261.028"/>
<polygon fill="midnightblue" stroke="midnightblue" points="72.5001,-290.822 76,-300.822 79.5001,-290.822 72.5001,-290.822"/>
</g>
<!-- Node7 -->
<g id="node12" class="node"><title>Node7</title>
<a xlink:href="class_kitware_1_1_v_t_k_1_1vtk_object_base.html" target="_top" xlink:title="vtkObjectBase &#45; abstract base class for most VTK objects">
<polygon fill="none" stroke="black" points="96,-741 96,-761 182,-761 182,-741 96,-741"/>
<text text-anchor="middle" x="139" y="-748" font-family="FreeSans" font-size="10.00">vtkObjectBase</text>
</a>
</g>
<!-- Node7&#45;&gt;Node6 -->
<g id="edge12" class="edge"><title>Node7&#45;&gt;Node6</title>
<path fill="none" stroke="midnightblue" d="M110.423,-735.886C96.6866,-727.44 80.8844,-715.826 70,-702 58.1564,-686.955 57.6209,-680.802 54,-662 28.4248,-529.199 63.5766,-363.437 73.5155,-321.17"/>
<polygon fill="midnightblue" stroke="midnightblue" points="108.683,-738.923 119.079,-740.97 112.229,-732.887 108.683,-738.923"/>
</g>
<!-- Node10 -->
<g id="node19" class="node"><title>Node10</title>
<a xlink:href="class_kitware_1_1_v_t_k_1_1vtk_object.html" target="_top" xlink:title="vtkObject &#45; abstract base class for most VTK objects">
<polygon fill="none" stroke="black" points="79,-681 79,-701 199,-701 199,-681 79,-681"/>
<text text-anchor="middle" x="139" y="-688" font-family="FreeSans" font-size="10.00">Kitware.VTK.vtkObject</text>
</a>
</g>
<!-- Node7&#45;&gt;Node10 -->
<g id="edge22" class="edge"><title>Node7&#45;&gt;Node10</title>
<path fill="none" stroke="midnightblue" d="M139,-730.516C139,-720.562 139,-709.05 139,-701.028"/>
<polygon fill="midnightblue" stroke="midnightblue" points="135.5,-730.822 139,-740.822 142.5,-730.822 135.5,-730.822"/>
</g>
<!-- Node8 -->
<g id="node14" class="node"><title>Node8</title>
<a xlink:href="class_kitware_1_1_v_t_k_1_1_wrapped_object.html" target="_top" xlink:title="Base class for all the mummy wrapped classes in Kitware.VTK.">
<polygon fill="none" stroke="black" points="277.5,-801 277.5,-821 366.5,-821 366.5,-801 277.5,-801"/>
<text text-anchor="middle" x="322" y="-808" font-family="FreeSans" font-size="10.00">WrappedObject</text>
</a>
</g>
<!-- Node8&#45;&gt;Node7 -->
<g id="edge14" class="edge"><title>Node8&#45;&gt;Node7</title>
<path fill="none" stroke="midnightblue" d="M281.804,-797.821C248.042,-786.752 200.512,-771.168 169.73,-761.075"/>
<polygon fill="midnightblue" stroke="midnightblue" points="280.777,-801.168 291.37,-800.957 282.958,-794.516 280.777,-801.168"/>
</g>
<!-- Node9 -->
<g id="node16" class="node"><title>Node9</title>
<a xlink:href="class_kitware_1_1_v_t_k_1_1vtk_object_event_relay.html" target="_top" xlink:title="Implement a relay handler for VTK events. This is a class that receives events directly from the VTK ...">
<polygon fill="none" stroke="black" points="68,-491 68,-511 240,-511 240,-491 68,-491"/>
<text text-anchor="middle" x="154" y="-498" font-family="FreeSans" font-size="10.00">Kitware.VTK.vtkObjectEventRelay</text>
</a>
</g>
<!-- Node8&#45;&gt;Node9 -->
<g id="edge18" class="edge"><title>Node8&#45;&gt;Node9</title>
<path fill="none" stroke="midnightblue" d="M334.888,-792.325C367.276,-742.899 444.803,-607.191 377,-530 367.773,-519.495 299.047,-511.666 240.298,-506.808"/>
<polygon fill="midnightblue" stroke="midnightblue" points="331.891,-790.509 329.239,-800.767 337.709,-794.402 331.891,-790.509"/>
</g>
<!-- Node9&#45;&gt;Node6 -->
<g id="edge16" class="edge"><title>Node9&#45;&gt;Node6</title>
<path fill="none" stroke="#9a32cd" stroke-dasharray="5,2" d="M145.921,-481.321C129.489,-441.293 92.6738,-351.616 80.2144,-321.266"/>
<polygon fill="#9a32cd" stroke="#9a32cd" points="142.771,-482.863 149.806,-490.785 149.246,-480.205 142.771,-482.863"/>
<text text-anchor="middle" x="253.5" y="-463" font-family="FreeSans" font-size="10.00"> LeftButtonReleaseEvtRelay</text>
<text text-anchor="middle" x="253.5" y="-451" font-family="FreeSans" font-size="10.00">KeyPressEvtRelay</text>
<text text-anchor="middle" x="253.5" y="-439" font-family="FreeSans" font-size="10.00">DomainModifiedEvtRelay</text>
<text text-anchor="middle" x="253.5" y="-427" font-family="FreeSans" font-size="10.00">VolumeMapperComputeGradientsStartEvtRelay</text>
<text text-anchor="middle" x="253.5" y="-415" font-family="FreeSans" font-size="10.00">ErrorEvtRelay</text>
<text text-anchor="middle" x="253.5" y="-403" font-family="FreeSans" font-size="10.00">VolumeMapperRenderStartEvtRelay</text>
<text text-anchor="middle" x="253.5" y="-391" font-family="FreeSans" font-size="10.00">StartEvtRelay</text>
<text text-anchor="middle" x="253.5" y="-379" font-family="FreeSans" font-size="10.00">ResetCameraEvtRelay</text>
<text text-anchor="middle" x="253.5" y="-367" font-family="FreeSans" font-size="10.00">EnableEvtRelay</text>
<text text-anchor="middle" x="253.5" y="-355" font-family="FreeSans" font-size="10.00">DeleteEvtRelay</text>
<text text-anchor="middle" x="253.5" y="-343" font-family="FreeSans" font-size="10.00">...</text>
</g>
<!-- Node9&#45;&gt;Node10 -->
<g id="edge24" class="edge"><title>Node9&#45;&gt;Node10</title>
<path fill="none" stroke="#9a32cd" stroke-dasharray="5,2" d="M151.028,-521.231C150.649,-524.169 150.293,-527.159 150,-530 144.144,-586.853 140.636,-655.333 139.452,-680.807"/>
<polygon fill="#9a32cd" stroke="#9a32cd" points="154.515,-521.565 152.421,-511.179 147.582,-520.604 154.515,-521.565"/>
<text text-anchor="middle" x="263.5" y="-653" font-family="FreeSans" font-size="10.00"> LeftButtonReleaseEvtRelay</text>
<text text-anchor="middle" x="263.5" y="-641" font-family="FreeSans" font-size="10.00">KeyPressEvtRelay</text>
<text text-anchor="middle" x="263.5" y="-629" font-family="FreeSans" font-size="10.00">DomainModifiedEvtRelay</text>
<text text-anchor="middle" x="263.5" y="-617" font-family="FreeSans" font-size="10.00">VolumeMapperComputeGradientsStartEvtRelay</text>
<text text-anchor="middle" x="263.5" y="-605" font-family="FreeSans" font-size="10.00">ErrorEvtRelay</text>
<text text-anchor="middle" x="263.5" y="-593" font-family="FreeSans" font-size="10.00">VolumeMapperRenderStartEvtRelay</text>
<text text-anchor="middle" x="263.5" y="-581" font-family="FreeSans" font-size="10.00">StartEvtRelay</text>
<text text-anchor="middle" x="263.5" y="-569" font-family="FreeSans" font-size="10.00">ResetCameraEvtRelay</text>
<text text-anchor="middle" x="263.5" y="-557" font-family="FreeSans" font-size="10.00">EnableEvtRelay</text>
<text text-anchor="middle" x="263.5" y="-545" font-family="FreeSans" font-size="10.00">DeleteEvtRelay</text>
<text text-anchor="middle" x="263.5" y="-533" font-family="FreeSans" font-size="10.00">...</text>
</g>
<!-- Node10&#45;&gt;Node9 -->
<g id="edge20" class="edge"><title>Node10&#45;&gt;Node9</title>
<path fill="none" stroke="#9a32cd" stroke-dasharray="5,2" d="M92.9794,-675.818C87.4393,-672.138 82.5104,-667.596 79,-662 47.8229,-612.303 45.8299,-578.389 79,-530 83.7359,-523.091 100.511,-516.287 116.999,-511.008"/>
<polygon fill="#9a32cd" stroke="#9a32cd" points="91.6386,-679.079 102.072,-680.919 95.0636,-672.974 91.6386,-679.079"/>
<text text-anchor="middle" x="103" y="-599" font-family="FreeSans" font-size="10.00"> Sender</text>
<text text-anchor="middle" x="103" y="-587" font-family="FreeSans" font-size="10.00">EventImpl</text>
</g>
</g>
</svg>
