<?xml version="1.0" encoding="UTF-8" standalone="no"?>
<!DOCTYPE svg PUBLIC "-//W3C//DTD SVG 1.1//EN"
 "http://www.w3.org/Graphics/SVG/1.1/DTD/svg11.dtd">
<!-- Generated by graphviz version 2.26.3 (20100126.1600)
 -->
<!-- Title: G Pages: 1 -->
<svg width="1240pt" height="28pt"
 viewBox="0.00 0.00 1240.00 28.00" xmlns="http://www.w3.org/2000/svg" xmlns:xlink="http://www.w3.org/1999/xlink">
<g id="graph1" class="graph" transform="scale(1 1) rotate(0) translate(4 24)">
<title>G</title>
<!-- Node1 -->
<g id="node1" class="node"><title>Node1</title>
<polygon fill="#bfbfbf" stroke="black" points="0.5,-0 0.5,-20 167.5,-20 167.5,-0 0.5,-0"/>
<text text-anchor="middle" x="84" y="-7" font-family="FreeSans" font-size="10.00">RemoveAllHandlersForAllEvents</text>
</g>
<!-- Node2 -->
<g id="node3" class="node"><title>Node2</title>
<a xlink:href="classvtk_object_event_relay.html#a4a9e2aefba19e78f25e80dac4c61e7e6" target="_top" xlink:title="RemoveAllHandlers forcibly removes all existing handlers from its list. Sender should call this metho...">
<polygon fill="none" stroke="black" points="204.5,-0 204.5,-20 411.5,-20 411.5,-0 204.5,-0"/>
<text text-anchor="middle" x="308" y="-7" font-family="FreeSans" font-size="10.00">vtkObjectEventRelay.RemoveAllHandlers</text>
</a>
</g>
<!-- Node1&#45;&gt;Node2 -->
<g id="edge2" class="edge"><title>Node1&#45;&gt;Node2</title>
<path fill="none" stroke="midnightblue" d="M167.728,-10C176.395,-10 185.305,-10 194.229,-10"/>
<polygon fill="midnightblue" stroke="midnightblue" points="194.299,-13.5001 204.299,-10 194.299,-6.5001 194.299,-13.5001"/>
</g>
<!-- Node3 -->
<g id="node5" class="node"><title>Node3</title>
<a xlink:href="classvtk_object_event_relay.html#a2f2c24dda11c561ddda97c2e27285f8d" target="_top" xlink:title="vtkObjectEventRelay.CallRemoveObserver">
<polygon fill="none" stroke="black" points="448,-0 448,-20 662,-20 662,-0 448,-0"/>
<text text-anchor="middle" x="555" y="-7" font-family="FreeSans" font-size="10.00">vtkObjectEventRelay.CallRemoveObserver</text>
</a>
</g>
<!-- Node2&#45;&gt;Node3 -->
<g id="edge4" class="edge"><title>Node2&#45;&gt;Node3</title>
<path fill="none" stroke="midnightblue" d="M411.677,-10C420.217,-10 428.887,-10 437.517,-10"/>
<polygon fill="midnightblue" stroke="midnightblue" points="437.621,-13.5001 447.621,-10 437.621,-6.5001 437.621,-13.5001"/>
</g>
<!-- Node4 -->
<g id="node7" class="node"><title>Node4</title>
<a xlink:href="classvtk_object_event_relay.html#a56c6cc0c785de5a11e9327ae0749cbe7" target="_top" xlink:title="vtkObjectEventRelay.RemoveObserver">
<polygon fill="none" stroke="black" points="698.5,-0 698.5,-20 895.5,-20 895.5,-0 698.5,-0"/>
<text text-anchor="middle" x="797" y="-7" font-family="FreeSans" font-size="10.00">vtkObjectEventRelay.RemoveObserver</text>
</a>
</g>
<!-- Node3&#45;&gt;Node4 -->
<g id="edge6" class="edge"><title>Node3&#45;&gt;Node4</title>
<path fill="none" stroke="midnightblue" d="M662.202,-10C670.834,-10 679.562,-10 688.205,-10"/>
<polygon fill="midnightblue" stroke="midnightblue" points="688.303,-13.5001 698.303,-10 688.303,-6.5001 688.303,-13.5001"/>
</g>
<!-- Node5 -->
<g id="node9" class="node"><title>Node5</title>
<a xlink:href="classvtk_object_event_relay.html#a90748605e39608c46f67844b608d2ad6" target="_top" xlink:title="vtkObjectEventRelay.vtkObjectEventRelay_RemoveObserver">
<polygon fill="none" stroke="black" points="932.5,-0 932.5,-20 1231.5,-20 1231.5,-0 932.5,-0"/>
<text text-anchor="middle" x="1082" y="-7" font-family="FreeSans" font-size="10.00">vtkObjectEventRelay.vtkObjectEventRelay_RemoveObserver</text>
</a>
</g>
<!-- Node4&#45;&gt;Node5 -->
<g id="edge8" class="edge"><title>Node4&#45;&gt;Node5</title>
<path fill="none" stroke="midnightblue" d="M895.879,-10C904.465,-10 913.284,-10 922.195,-10"/>
<polygon fill="midnightblue" stroke="midnightblue" points="922.287,-13.5001 932.287,-10 922.287,-6.5001 922.287,-13.5001"/>
</g>
</g>
</svg>
